%TF.GenerationSoftware,KiCad,Pcbnew,8.0.7-8.0.7-0~ubuntu24.04.1*%
%TF.CreationDate,2025-01-05T10:18:19-08:00*%
%TF.ProjectId,mini-pdb,6d696e69-2d70-4646-922e-6b696361645f,1.1*%
%TF.SameCoordinates,Original*%
%TF.FileFunction,Legend,Top*%
%TF.FilePolarity,Positive*%
%FSLAX46Y46*%
G04 Gerber Fmt 4.6, Leading zero omitted, Abs format (unit mm)*
G04 Created by KiCad (PCBNEW 8.0.7-8.0.7-0~ubuntu24.04.1) date 2025-01-05 10:18:19*
%MOMM*%
%LPD*%
G01*
G04 APERTURE LIST*
%ADD10C,0.508000*%
%ADD11C,0.150000*%
%ADD12C,0.127000*%
%ADD13C,0.120000*%
%ADD14C,0.152400*%
%ADD15C,0.100000*%
G04 APERTURE END LIST*
D10*
X236552619Y-134692982D02*
X234617381Y-134692982D01*
X235585000Y-133725363D02*
X235585000Y-135660601D01*
X175181380Y-117402017D02*
X177116619Y-117402017D01*
X176148999Y-118369636D02*
X176148999Y-116434398D01*
X178386619Y-135835982D02*
X176451381Y-135835982D01*
X177419000Y-134868363D02*
X177419000Y-136803601D01*
X175181380Y-133658017D02*
X177116619Y-133658017D01*
X236552619Y-118436982D02*
X234617381Y-118436982D01*
X234393619Y-136597982D02*
X232458381Y-136597982D01*
D11*
X229890929Y-112533333D02*
X229890929Y-112866666D01*
X230414739Y-112866666D02*
X229414739Y-112866666D01*
X229414739Y-112866666D02*
X229414739Y-112390476D01*
X229414739Y-111533333D02*
X229414739Y-112009523D01*
X229414739Y-112009523D02*
X229890929Y-112057142D01*
X229890929Y-112057142D02*
X229843310Y-112009523D01*
X229843310Y-112009523D02*
X229795691Y-111914285D01*
X229795691Y-111914285D02*
X229795691Y-111676190D01*
X229795691Y-111676190D02*
X229843310Y-111580952D01*
X229843310Y-111580952D02*
X229890929Y-111533333D01*
X229890929Y-111533333D02*
X229986167Y-111485714D01*
X229986167Y-111485714D02*
X230224262Y-111485714D01*
X230224262Y-111485714D02*
X230319500Y-111533333D01*
X230319500Y-111533333D02*
X230367120Y-111580952D01*
X230367120Y-111580952D02*
X230414739Y-111676190D01*
X230414739Y-111676190D02*
X230414739Y-111914285D01*
X230414739Y-111914285D02*
X230367120Y-112009523D01*
X230367120Y-112009523D02*
X230319500Y-112057142D01*
X209890969Y-112533333D02*
X209890969Y-112866666D01*
X210414779Y-112866666D02*
X209414779Y-112866666D01*
X209414779Y-112866666D02*
X209414779Y-112390476D01*
X209414779Y-112104761D02*
X209414779Y-111485714D01*
X209414779Y-111485714D02*
X209795731Y-111819047D01*
X209795731Y-111819047D02*
X209795731Y-111676190D01*
X209795731Y-111676190D02*
X209843350Y-111580952D01*
X209843350Y-111580952D02*
X209890969Y-111533333D01*
X209890969Y-111533333D02*
X209986207Y-111485714D01*
X209986207Y-111485714D02*
X210224302Y-111485714D01*
X210224302Y-111485714D02*
X210319540Y-111533333D01*
X210319540Y-111533333D02*
X210367160Y-111580952D01*
X210367160Y-111580952D02*
X210414779Y-111676190D01*
X210414779Y-111676190D02*
X210414779Y-111961904D01*
X210414779Y-111961904D02*
X210367160Y-112057142D01*
X210367160Y-112057142D02*
X210319540Y-112104761D01*
X219890949Y-112533333D02*
X219890949Y-112866666D01*
X220414759Y-112866666D02*
X219414759Y-112866666D01*
X219414759Y-112866666D02*
X219414759Y-112390476D01*
X219748092Y-111580952D02*
X220414759Y-111580952D01*
X219367140Y-111819047D02*
X220081425Y-112057142D01*
X220081425Y-112057142D02*
X220081425Y-111438095D01*
X193317905Y-127454819D02*
X193317905Y-126454819D01*
X193317905Y-126454819D02*
X193556000Y-126454819D01*
X193556000Y-126454819D02*
X193698857Y-126502438D01*
X193698857Y-126502438D02*
X193794095Y-126597676D01*
X193794095Y-126597676D02*
X193841714Y-126692914D01*
X193841714Y-126692914D02*
X193889333Y-126883390D01*
X193889333Y-126883390D02*
X193889333Y-127026247D01*
X193889333Y-127026247D02*
X193841714Y-127216723D01*
X193841714Y-127216723D02*
X193794095Y-127311961D01*
X193794095Y-127311961D02*
X193698857Y-127407200D01*
X193698857Y-127407200D02*
X193556000Y-127454819D01*
X193556000Y-127454819D02*
X193317905Y-127454819D01*
X194270286Y-126550057D02*
X194317905Y-126502438D01*
X194317905Y-126502438D02*
X194413143Y-126454819D01*
X194413143Y-126454819D02*
X194651238Y-126454819D01*
X194651238Y-126454819D02*
X194746476Y-126502438D01*
X194746476Y-126502438D02*
X194794095Y-126550057D01*
X194794095Y-126550057D02*
X194841714Y-126645295D01*
X194841714Y-126645295D02*
X194841714Y-126740533D01*
X194841714Y-126740533D02*
X194794095Y-126883390D01*
X194794095Y-126883390D02*
X194222667Y-127454819D01*
X194222667Y-127454819D02*
X194841714Y-127454819D01*
X231081739Y-119165666D02*
X230605548Y-119498999D01*
X231081739Y-119737094D02*
X230081739Y-119737094D01*
X230081739Y-119737094D02*
X230081739Y-119356142D01*
X230081739Y-119356142D02*
X230129358Y-119260904D01*
X230129358Y-119260904D02*
X230176977Y-119213285D01*
X230176977Y-119213285D02*
X230272215Y-119165666D01*
X230272215Y-119165666D02*
X230415072Y-119165666D01*
X230415072Y-119165666D02*
X230510310Y-119213285D01*
X230510310Y-119213285D02*
X230557929Y-119260904D01*
X230557929Y-119260904D02*
X230605548Y-119356142D01*
X230605548Y-119356142D02*
X230605548Y-119737094D01*
X230081739Y-118260904D02*
X230081739Y-118737094D01*
X230081739Y-118737094D02*
X230557929Y-118784713D01*
X230557929Y-118784713D02*
X230510310Y-118737094D01*
X230510310Y-118737094D02*
X230462691Y-118641856D01*
X230462691Y-118641856D02*
X230462691Y-118403761D01*
X230462691Y-118403761D02*
X230510310Y-118308523D01*
X230510310Y-118308523D02*
X230557929Y-118260904D01*
X230557929Y-118260904D02*
X230653167Y-118213285D01*
X230653167Y-118213285D02*
X230891262Y-118213285D01*
X230891262Y-118213285D02*
X230986500Y-118260904D01*
X230986500Y-118260904D02*
X231034120Y-118308523D01*
X231034120Y-118308523D02*
X231081739Y-118403761D01*
X231081739Y-118403761D02*
X231081739Y-118641856D01*
X231081739Y-118641856D02*
X231034120Y-118737094D01*
X231034120Y-118737094D02*
X230986500Y-118784713D01*
X232142819Y-125013334D02*
X232857104Y-125013334D01*
X232857104Y-125013334D02*
X232999961Y-125060953D01*
X232999961Y-125060953D02*
X233095200Y-125156191D01*
X233095200Y-125156191D02*
X233142819Y-125299048D01*
X233142819Y-125299048D02*
X233142819Y-125394286D01*
X232238057Y-124584762D02*
X232190438Y-124537143D01*
X232190438Y-124537143D02*
X232142819Y-124441905D01*
X232142819Y-124441905D02*
X232142819Y-124203810D01*
X232142819Y-124203810D02*
X232190438Y-124108572D01*
X232190438Y-124108572D02*
X232238057Y-124060953D01*
X232238057Y-124060953D02*
X232333295Y-124013334D01*
X232333295Y-124013334D02*
X232428533Y-124013334D01*
X232428533Y-124013334D02*
X232571390Y-124060953D01*
X232571390Y-124060953D02*
X233142819Y-124632381D01*
X233142819Y-124632381D02*
X233142819Y-124013334D01*
X191081819Y-119165666D02*
X190605628Y-119498999D01*
X191081819Y-119737094D02*
X190081819Y-119737094D01*
X190081819Y-119737094D02*
X190081819Y-119356142D01*
X190081819Y-119356142D02*
X190129438Y-119260904D01*
X190129438Y-119260904D02*
X190177057Y-119213285D01*
X190177057Y-119213285D02*
X190272295Y-119165666D01*
X190272295Y-119165666D02*
X190415152Y-119165666D01*
X190415152Y-119165666D02*
X190510390Y-119213285D01*
X190510390Y-119213285D02*
X190558009Y-119260904D01*
X190558009Y-119260904D02*
X190605628Y-119356142D01*
X190605628Y-119356142D02*
X190605628Y-119737094D01*
X191081819Y-118213285D02*
X191081819Y-118784713D01*
X191081819Y-118498999D02*
X190081819Y-118498999D01*
X190081819Y-118498999D02*
X190224676Y-118594237D01*
X190224676Y-118594237D02*
X190319914Y-118689475D01*
X190319914Y-118689475D02*
X190367533Y-118784713D01*
X203223905Y-127454819D02*
X203223905Y-126454819D01*
X203223905Y-126454819D02*
X203462000Y-126454819D01*
X203462000Y-126454819D02*
X203604857Y-126502438D01*
X203604857Y-126502438D02*
X203700095Y-126597676D01*
X203700095Y-126597676D02*
X203747714Y-126692914D01*
X203747714Y-126692914D02*
X203795333Y-126883390D01*
X203795333Y-126883390D02*
X203795333Y-127026247D01*
X203795333Y-127026247D02*
X203747714Y-127216723D01*
X203747714Y-127216723D02*
X203700095Y-127311961D01*
X203700095Y-127311961D02*
X203604857Y-127407200D01*
X203604857Y-127407200D02*
X203462000Y-127454819D01*
X203462000Y-127454819D02*
X203223905Y-127454819D01*
X204128667Y-126454819D02*
X204747714Y-126454819D01*
X204747714Y-126454819D02*
X204414381Y-126835771D01*
X204414381Y-126835771D02*
X204557238Y-126835771D01*
X204557238Y-126835771D02*
X204652476Y-126883390D01*
X204652476Y-126883390D02*
X204700095Y-126931009D01*
X204700095Y-126931009D02*
X204747714Y-127026247D01*
X204747714Y-127026247D02*
X204747714Y-127264342D01*
X204747714Y-127264342D02*
X204700095Y-127359580D01*
X204700095Y-127359580D02*
X204652476Y-127407200D01*
X204652476Y-127407200D02*
X204557238Y-127454819D01*
X204557238Y-127454819D02*
X204271524Y-127454819D01*
X204271524Y-127454819D02*
X204176286Y-127407200D01*
X204176286Y-127407200D02*
X204128667Y-127359580D01*
X178397819Y-125809333D02*
X179112104Y-125809333D01*
X179112104Y-125809333D02*
X179254961Y-125856952D01*
X179254961Y-125856952D02*
X179350200Y-125952190D01*
X179350200Y-125952190D02*
X179397819Y-126095047D01*
X179397819Y-126095047D02*
X179397819Y-126190285D01*
X179397819Y-124809333D02*
X179397819Y-125380761D01*
X179397819Y-125095047D02*
X178397819Y-125095047D01*
X178397819Y-125095047D02*
X178540676Y-125190285D01*
X178540676Y-125190285D02*
X178635914Y-125285523D01*
X178635914Y-125285523D02*
X178683533Y-125380761D01*
X199890989Y-112533333D02*
X199890989Y-112866666D01*
X200414799Y-112866666D02*
X199414799Y-112866666D01*
X199414799Y-112866666D02*
X199414799Y-112390476D01*
X199510037Y-112057142D02*
X199462418Y-112009523D01*
X199462418Y-112009523D02*
X199414799Y-111914285D01*
X199414799Y-111914285D02*
X199414799Y-111676190D01*
X199414799Y-111676190D02*
X199462418Y-111580952D01*
X199462418Y-111580952D02*
X199510037Y-111533333D01*
X199510037Y-111533333D02*
X199605275Y-111485714D01*
X199605275Y-111485714D02*
X199700513Y-111485714D01*
X199700513Y-111485714D02*
X199843370Y-111533333D01*
X199843370Y-111533333D02*
X200414799Y-112104761D01*
X200414799Y-112104761D02*
X200414799Y-111485714D01*
X189891009Y-112533333D02*
X189891009Y-112866666D01*
X190414819Y-112866666D02*
X189414819Y-112866666D01*
X189414819Y-112866666D02*
X189414819Y-112390476D01*
X190414819Y-111485714D02*
X190414819Y-112057142D01*
X190414819Y-111771428D02*
X189414819Y-111771428D01*
X189414819Y-111771428D02*
X189557676Y-111866666D01*
X189557676Y-111866666D02*
X189652914Y-111961904D01*
X189652914Y-111961904D02*
X189700533Y-112057142D01*
X211081779Y-119165666D02*
X210605588Y-119498999D01*
X211081779Y-119737094D02*
X210081779Y-119737094D01*
X210081779Y-119737094D02*
X210081779Y-119356142D01*
X210081779Y-119356142D02*
X210129398Y-119260904D01*
X210129398Y-119260904D02*
X210177017Y-119213285D01*
X210177017Y-119213285D02*
X210272255Y-119165666D01*
X210272255Y-119165666D02*
X210415112Y-119165666D01*
X210415112Y-119165666D02*
X210510350Y-119213285D01*
X210510350Y-119213285D02*
X210557969Y-119260904D01*
X210557969Y-119260904D02*
X210605588Y-119356142D01*
X210605588Y-119356142D02*
X210605588Y-119737094D01*
X210081779Y-118832332D02*
X210081779Y-118213285D01*
X210081779Y-118213285D02*
X210462731Y-118546618D01*
X210462731Y-118546618D02*
X210462731Y-118403761D01*
X210462731Y-118403761D02*
X210510350Y-118308523D01*
X210510350Y-118308523D02*
X210557969Y-118260904D01*
X210557969Y-118260904D02*
X210653207Y-118213285D01*
X210653207Y-118213285D02*
X210891302Y-118213285D01*
X210891302Y-118213285D02*
X210986540Y-118260904D01*
X210986540Y-118260904D02*
X211034160Y-118308523D01*
X211034160Y-118308523D02*
X211081779Y-118403761D01*
X211081779Y-118403761D02*
X211081779Y-118689475D01*
X211081779Y-118689475D02*
X211034160Y-118784713D01*
X211034160Y-118784713D02*
X210986540Y-118832332D01*
X213289905Y-127454819D02*
X213289905Y-126454819D01*
X213289905Y-126454819D02*
X213528000Y-126454819D01*
X213528000Y-126454819D02*
X213670857Y-126502438D01*
X213670857Y-126502438D02*
X213766095Y-126597676D01*
X213766095Y-126597676D02*
X213813714Y-126692914D01*
X213813714Y-126692914D02*
X213861333Y-126883390D01*
X213861333Y-126883390D02*
X213861333Y-127026247D01*
X213861333Y-127026247D02*
X213813714Y-127216723D01*
X213813714Y-127216723D02*
X213766095Y-127311961D01*
X213766095Y-127311961D02*
X213670857Y-127407200D01*
X213670857Y-127407200D02*
X213528000Y-127454819D01*
X213528000Y-127454819D02*
X213289905Y-127454819D01*
X214718476Y-126788152D02*
X214718476Y-127454819D01*
X214480381Y-126407200D02*
X214242286Y-127121485D01*
X214242286Y-127121485D02*
X214861333Y-127121485D01*
X183284905Y-127454819D02*
X183284905Y-126454819D01*
X183284905Y-126454819D02*
X183523000Y-126454819D01*
X183523000Y-126454819D02*
X183665857Y-126502438D01*
X183665857Y-126502438D02*
X183761095Y-126597676D01*
X183761095Y-126597676D02*
X183808714Y-126692914D01*
X183808714Y-126692914D02*
X183856333Y-126883390D01*
X183856333Y-126883390D02*
X183856333Y-127026247D01*
X183856333Y-127026247D02*
X183808714Y-127216723D01*
X183808714Y-127216723D02*
X183761095Y-127311961D01*
X183761095Y-127311961D02*
X183665857Y-127407200D01*
X183665857Y-127407200D02*
X183523000Y-127454819D01*
X183523000Y-127454819D02*
X183284905Y-127454819D01*
X184808714Y-127454819D02*
X184237286Y-127454819D01*
X184523000Y-127454819D02*
X184523000Y-126454819D01*
X184523000Y-126454819D02*
X184427762Y-126597676D01*
X184427762Y-126597676D02*
X184332524Y-126692914D01*
X184332524Y-126692914D02*
X184237286Y-126740533D01*
X221081759Y-119165666D02*
X220605568Y-119498999D01*
X221081759Y-119737094D02*
X220081759Y-119737094D01*
X220081759Y-119737094D02*
X220081759Y-119356142D01*
X220081759Y-119356142D02*
X220129378Y-119260904D01*
X220129378Y-119260904D02*
X220176997Y-119213285D01*
X220176997Y-119213285D02*
X220272235Y-119165666D01*
X220272235Y-119165666D02*
X220415092Y-119165666D01*
X220415092Y-119165666D02*
X220510330Y-119213285D01*
X220510330Y-119213285D02*
X220557949Y-119260904D01*
X220557949Y-119260904D02*
X220605568Y-119356142D01*
X220605568Y-119356142D02*
X220605568Y-119737094D01*
X220415092Y-118308523D02*
X221081759Y-118308523D01*
X220034140Y-118546618D02*
X220748425Y-118784713D01*
X220748425Y-118784713D02*
X220748425Y-118165666D01*
X223289905Y-127454819D02*
X223289905Y-126454819D01*
X223289905Y-126454819D02*
X223528000Y-126454819D01*
X223528000Y-126454819D02*
X223670857Y-126502438D01*
X223670857Y-126502438D02*
X223766095Y-126597676D01*
X223766095Y-126597676D02*
X223813714Y-126692914D01*
X223813714Y-126692914D02*
X223861333Y-126883390D01*
X223861333Y-126883390D02*
X223861333Y-127026247D01*
X223861333Y-127026247D02*
X223813714Y-127216723D01*
X223813714Y-127216723D02*
X223766095Y-127311961D01*
X223766095Y-127311961D02*
X223670857Y-127407200D01*
X223670857Y-127407200D02*
X223528000Y-127454819D01*
X223528000Y-127454819D02*
X223289905Y-127454819D01*
X224766095Y-126454819D02*
X224289905Y-126454819D01*
X224289905Y-126454819D02*
X224242286Y-126931009D01*
X224242286Y-126931009D02*
X224289905Y-126883390D01*
X224289905Y-126883390D02*
X224385143Y-126835771D01*
X224385143Y-126835771D02*
X224623238Y-126835771D01*
X224623238Y-126835771D02*
X224718476Y-126883390D01*
X224718476Y-126883390D02*
X224766095Y-126931009D01*
X224766095Y-126931009D02*
X224813714Y-127026247D01*
X224813714Y-127026247D02*
X224813714Y-127264342D01*
X224813714Y-127264342D02*
X224766095Y-127359580D01*
X224766095Y-127359580D02*
X224718476Y-127407200D01*
X224718476Y-127407200D02*
X224623238Y-127454819D01*
X224623238Y-127454819D02*
X224385143Y-127454819D01*
X224385143Y-127454819D02*
X224289905Y-127407200D01*
X224289905Y-127407200D02*
X224242286Y-127359580D01*
X181149666Y-126835819D02*
X181149666Y-127550104D01*
X181149666Y-127550104D02*
X181102047Y-127692961D01*
X181102047Y-127692961D02*
X181006809Y-127788200D01*
X181006809Y-127788200D02*
X180863952Y-127835819D01*
X180863952Y-127835819D02*
X180768714Y-127835819D01*
X181530619Y-126835819D02*
X182149666Y-126835819D01*
X182149666Y-126835819D02*
X181816333Y-127216771D01*
X181816333Y-127216771D02*
X181959190Y-127216771D01*
X181959190Y-127216771D02*
X182054428Y-127264390D01*
X182054428Y-127264390D02*
X182102047Y-127312009D01*
X182102047Y-127312009D02*
X182149666Y-127407247D01*
X182149666Y-127407247D02*
X182149666Y-127645342D01*
X182149666Y-127645342D02*
X182102047Y-127740580D01*
X182102047Y-127740580D02*
X182054428Y-127788200D01*
X182054428Y-127788200D02*
X181959190Y-127835819D01*
X181959190Y-127835819D02*
X181673476Y-127835819D01*
X181673476Y-127835819D02*
X181578238Y-127788200D01*
X181578238Y-127788200D02*
X181530619Y-127740580D01*
X201081799Y-119165666D02*
X200605608Y-119498999D01*
X201081799Y-119737094D02*
X200081799Y-119737094D01*
X200081799Y-119737094D02*
X200081799Y-119356142D01*
X200081799Y-119356142D02*
X200129418Y-119260904D01*
X200129418Y-119260904D02*
X200177037Y-119213285D01*
X200177037Y-119213285D02*
X200272275Y-119165666D01*
X200272275Y-119165666D02*
X200415132Y-119165666D01*
X200415132Y-119165666D02*
X200510370Y-119213285D01*
X200510370Y-119213285D02*
X200557989Y-119260904D01*
X200557989Y-119260904D02*
X200605608Y-119356142D01*
X200605608Y-119356142D02*
X200605608Y-119737094D01*
X200177037Y-118784713D02*
X200129418Y-118737094D01*
X200129418Y-118737094D02*
X200081799Y-118641856D01*
X200081799Y-118641856D02*
X200081799Y-118403761D01*
X200081799Y-118403761D02*
X200129418Y-118308523D01*
X200129418Y-118308523D02*
X200177037Y-118260904D01*
X200177037Y-118260904D02*
X200272275Y-118213285D01*
X200272275Y-118213285D02*
X200367513Y-118213285D01*
X200367513Y-118213285D02*
X200510370Y-118260904D01*
X200510370Y-118260904D02*
X201081799Y-118832332D01*
X201081799Y-118832332D02*
X201081799Y-118213285D01*
D12*
%TO.C,F5*%
X222209920Y-109402000D02*
X228939920Y-109402000D01*
X222209920Y-125275000D02*
X222209920Y-109402000D01*
X228939920Y-109402000D02*
X228939920Y-125275000D01*
X228939920Y-125275000D02*
X222209920Y-125275000D01*
%TO.C,F3*%
X202209960Y-109402000D02*
X208939960Y-109402000D01*
X202209960Y-125275000D02*
X202209960Y-109402000D01*
X208939960Y-109402000D02*
X208939960Y-125275000D01*
X208939960Y-125275000D02*
X202209960Y-125275000D01*
%TO.C,F4*%
X212209940Y-109402000D02*
X218939940Y-109402000D01*
X212209940Y-125275000D02*
X212209940Y-109402000D01*
X218939940Y-109402000D02*
X218939940Y-125275000D01*
X218939940Y-125275000D02*
X212209940Y-125275000D01*
D13*
%TO.C,D2*%
X195220000Y-125815000D02*
X195220000Y-128085000D01*
X195220000Y-128085000D02*
X199105000Y-128085000D01*
X199105000Y-125815000D02*
X195220000Y-125815000D01*
%TO.C,R5*%
X229664910Y-122952064D02*
X229664910Y-121497936D01*
X231484910Y-122952064D02*
X231484910Y-121497936D01*
D14*
%TO.C,J2*%
X233598000Y-119845099D02*
X233598000Y-132854899D01*
X233598000Y-132854899D02*
X236625000Y-132854899D01*
X236625000Y-119845099D02*
X233598000Y-119845099D01*
D15*
X233450000Y-129125001D02*
X232434000Y-130141001D01*
X232434000Y-128109001D01*
X233450000Y-129125001D01*
G36*
X233450000Y-129125001D02*
G01*
X232434000Y-130141001D01*
X232434000Y-128109001D01*
X233450000Y-129125001D01*
G37*
D13*
%TO.C,R1*%
X189664990Y-122952064D02*
X189664990Y-121497936D01*
X191484990Y-122952064D02*
X191484990Y-121497936D01*
%TO.C,D3*%
X205220000Y-125815000D02*
X205220000Y-128085000D01*
X205220000Y-128085000D02*
X209105000Y-128085000D01*
X209105000Y-125815000D02*
X205220000Y-125815000D01*
D14*
%TO.C,J1*%
X174925000Y-132304901D02*
X177952000Y-132304901D01*
X177952000Y-119295101D02*
X174925000Y-119295101D01*
X177952000Y-132304901D02*
X177952000Y-119295101D01*
D15*
X179116000Y-124040999D02*
X178100000Y-123024999D01*
X179116000Y-122008999D01*
X179116000Y-124040999D01*
G36*
X179116000Y-124040999D02*
G01*
X178100000Y-123024999D01*
X179116000Y-122008999D01*
X179116000Y-124040999D01*
G37*
D12*
%TO.C,F2*%
X192209980Y-109402000D02*
X198939980Y-109402000D01*
X192209980Y-125275000D02*
X192209980Y-109402000D01*
X198939980Y-109402000D02*
X198939980Y-125275000D01*
X198939980Y-125275000D02*
X192209980Y-125275000D01*
%TO.C,F1*%
X182210000Y-109402000D02*
X188940000Y-109402000D01*
X182210000Y-125275000D02*
X182210000Y-109402000D01*
X188940000Y-109402000D02*
X188940000Y-125275000D01*
X188940000Y-125275000D02*
X182210000Y-125275000D01*
D13*
%TO.C,R3*%
X209664950Y-122952064D02*
X209664950Y-121497936D01*
X211484950Y-122952064D02*
X211484950Y-121497936D01*
%TO.C,D4*%
X215220000Y-125815000D02*
X215220000Y-128085000D01*
X215220000Y-128085000D02*
X219105000Y-128085000D01*
X219105000Y-125815000D02*
X215220000Y-125815000D01*
%TO.C,D1*%
X185220000Y-125815000D02*
X185220000Y-128085000D01*
X185220000Y-128085000D02*
X189105000Y-128085000D01*
X189105000Y-125815000D02*
X185220000Y-125815000D01*
%TO.C,R4*%
X219664930Y-122952064D02*
X219664930Y-121497936D01*
X221484930Y-122952064D02*
X221484930Y-121497936D01*
%TO.C,D5*%
X225220000Y-125815000D02*
X225220000Y-128085000D01*
X225220000Y-128085000D02*
X229105000Y-128085000D01*
X229105000Y-125815000D02*
X225220000Y-125815000D01*
D14*
%TO.C,J3*%
X178995101Y-128498000D02*
X178995101Y-131525000D01*
X232000999Y-131525000D02*
X232004901Y-128498000D01*
X232004901Y-128498000D02*
X178995101Y-128498000D01*
D13*
%TO.C,R2*%
X199664970Y-122952064D02*
X199664970Y-121497936D01*
X201484970Y-122952064D02*
X201484970Y-121497936D01*
%TD*%
M02*
