%TF.GenerationSoftware,KiCad,Pcbnew,8.0.7-8.0.7-0~ubuntu24.04.1*%
%TF.CreationDate,2025-01-05T10:18:19-08:00*%
%TF.ProjectId,mini-pdb,6d696e69-2d70-4646-922e-6b696361645f,1.1*%
%TF.SameCoordinates,Original*%
%TF.FileFunction,Profile,NP*%
%FSLAX46Y46*%
G04 Gerber Fmt 4.6, Leading zero omitted, Abs format (unit mm)*
G04 Created by KiCad (PCBNEW 8.0.7-8.0.7-0~ubuntu24.04.1) date 2025-01-05 10:18:19*
%MOMM*%
%LPD*%
G01*
G04 APERTURE LIST*
%TA.AperFunction,Profile*%
%ADD10C,0.076200*%
%TD*%
G04 APERTURE END LIST*
D10*
X247181200Y-120325000D02*
G75*
G02*
X247975000Y-121118800I0J-793800D01*
G01*
X174625000Y-112450000D02*
X174625000Y-113375000D01*
X163575000Y-121118750D02*
X163575000Y-131031250D01*
X233750000Y-109275000D02*
X177800000Y-109275000D01*
X174625000Y-138775000D02*
X174625000Y-139700000D01*
X164368750Y-131825000D02*
X167675000Y-131825000D01*
X167675000Y-131825000D02*
G75*
G02*
X174625000Y-138775000I0J-6950000D01*
G01*
X236925000Y-138775000D02*
G75*
G02*
X243875000Y-131825000I6950000J0D01*
G01*
X236925000Y-139700000D02*
G75*
G02*
X233750000Y-142875000I-3175000J0D01*
G01*
X243875000Y-120325000D02*
G75*
G02*
X236925000Y-113375000I0J6950000D01*
G01*
X236925000Y-113375000D02*
X236925000Y-112450000D01*
X174625000Y-112450000D02*
G75*
G02*
X177800000Y-109275000I3175000J0D01*
G01*
X243875000Y-131825000D02*
X247181200Y-131825000D01*
X177800000Y-142875000D02*
G75*
G02*
X174625000Y-139700000I0J3175000D01*
G01*
X167675000Y-120325000D02*
X164368750Y-120325000D01*
X233750000Y-109275000D02*
G75*
G02*
X236925000Y-112450000I0J-3175000D01*
G01*
X247975000Y-131031200D02*
X247975000Y-121118800D01*
X163575000Y-121118750D02*
G75*
G02*
X164368750Y-120325000I793800J-50D01*
G01*
X236925000Y-139700000D02*
X236925000Y-138775000D01*
X164368750Y-131825000D02*
G75*
G02*
X163575000Y-131031250I50J793800D01*
G01*
X247975000Y-131031200D02*
G75*
G02*
X247181200Y-131825000I-793800J0D01*
G01*
X174625000Y-113375000D02*
G75*
G02*
X167675000Y-120325000I-6950000J0D01*
G01*
X177800000Y-142875000D02*
X233750000Y-142875000D01*
X247181200Y-120325000D02*
X243875000Y-120325000D01*
M02*
