%TF.GenerationSoftware,KiCad,Pcbnew,8.0.7-8.0.7-0~ubuntu24.04.1*%
%TF.CreationDate,2025-01-05T10:18:19-08:00*%
%TF.ProjectId,mini-pdb,6d696e69-2d70-4646-922e-6b696361645f,1.1*%
%TF.SameCoordinates,Original*%
%TF.FileFunction,Legend,Bot*%
%TF.FilePolarity,Positive*%
%FSLAX46Y46*%
G04 Gerber Fmt 4.6, Leading zero omitted, Abs format (unit mm)*
G04 Created by KiCad (PCBNEW 8.0.7-8.0.7-0~ubuntu24.04.1) date 2025-01-05 10:18:19*
%MOMM*%
%LPD*%
G01*
G04 APERTURE LIST*
%ADD10C,0.238125*%
%ADD11C,0.158750*%
%ADD12C,0.000000*%
G04 APERTURE END LIST*
D10*
X220087600Y-126246481D02*
X219634028Y-128151481D01*
X219634028Y-128151481D02*
X219271171Y-126790767D01*
X219271171Y-126790767D02*
X218908314Y-128151481D01*
X218908314Y-128151481D02*
X218454743Y-126246481D01*
X216640457Y-127970052D02*
X216731171Y-128060767D01*
X216731171Y-128060767D02*
X217003314Y-128151481D01*
X217003314Y-128151481D02*
X217184742Y-128151481D01*
X217184742Y-128151481D02*
X217456885Y-128060767D01*
X217456885Y-128060767D02*
X217638314Y-127879338D01*
X217638314Y-127879338D02*
X217729028Y-127697909D01*
X217729028Y-127697909D02*
X217819742Y-127335052D01*
X217819742Y-127335052D02*
X217819742Y-127062909D01*
X217819742Y-127062909D02*
X217729028Y-126700052D01*
X217729028Y-126700052D02*
X217638314Y-126518624D01*
X217638314Y-126518624D02*
X217456885Y-126337195D01*
X217456885Y-126337195D02*
X217184742Y-126246481D01*
X217184742Y-126246481D02*
X217003314Y-126246481D01*
X217003314Y-126246481D02*
X216731171Y-126337195D01*
X216731171Y-126337195D02*
X216640457Y-126427909D01*
X215824028Y-128151481D02*
X215824028Y-126246481D01*
X215824028Y-126246481D02*
X215098314Y-126246481D01*
X215098314Y-126246481D02*
X214916885Y-126337195D01*
X214916885Y-126337195D02*
X214826171Y-126427909D01*
X214826171Y-126427909D02*
X214735457Y-126609338D01*
X214735457Y-126609338D02*
X214735457Y-126881481D01*
X214735457Y-126881481D02*
X214826171Y-127062909D01*
X214826171Y-127062909D02*
X214916885Y-127153624D01*
X214916885Y-127153624D02*
X215098314Y-127244338D01*
X215098314Y-127244338D02*
X215824028Y-127244338D01*
X213919028Y-127425767D02*
X212467600Y-127425767D01*
X210562600Y-128151481D02*
X211651171Y-128151481D01*
X211106886Y-128151481D02*
X211106886Y-126246481D01*
X211106886Y-126246481D02*
X211288314Y-126518624D01*
X211288314Y-126518624D02*
X211469743Y-126700052D01*
X211469743Y-126700052D02*
X211651171Y-126790767D01*
X209474028Y-127062909D02*
X209655457Y-126972195D01*
X209655457Y-126972195D02*
X209746171Y-126881481D01*
X209746171Y-126881481D02*
X209836885Y-126700052D01*
X209836885Y-126700052D02*
X209836885Y-126609338D01*
X209836885Y-126609338D02*
X209746171Y-126427909D01*
X209746171Y-126427909D02*
X209655457Y-126337195D01*
X209655457Y-126337195D02*
X209474028Y-126246481D01*
X209474028Y-126246481D02*
X209111171Y-126246481D01*
X209111171Y-126246481D02*
X208929743Y-126337195D01*
X208929743Y-126337195D02*
X208839028Y-126427909D01*
X208839028Y-126427909D02*
X208748314Y-126609338D01*
X208748314Y-126609338D02*
X208748314Y-126700052D01*
X208748314Y-126700052D02*
X208839028Y-126881481D01*
X208839028Y-126881481D02*
X208929743Y-126972195D01*
X208929743Y-126972195D02*
X209111171Y-127062909D01*
X209111171Y-127062909D02*
X209474028Y-127062909D01*
X209474028Y-127062909D02*
X209655457Y-127153624D01*
X209655457Y-127153624D02*
X209746171Y-127244338D01*
X209746171Y-127244338D02*
X209836885Y-127425767D01*
X209836885Y-127425767D02*
X209836885Y-127788624D01*
X209836885Y-127788624D02*
X209746171Y-127970052D01*
X209746171Y-127970052D02*
X209655457Y-128060767D01*
X209655457Y-128060767D02*
X209474028Y-128151481D01*
X209474028Y-128151481D02*
X209111171Y-128151481D01*
X209111171Y-128151481D02*
X208929743Y-128060767D01*
X208929743Y-128060767D02*
X208839028Y-127970052D01*
X208839028Y-127970052D02*
X208748314Y-127788624D01*
X208748314Y-127788624D02*
X208748314Y-127425767D01*
X208748314Y-127425767D02*
X208839028Y-127244338D01*
X208839028Y-127244338D02*
X208929743Y-127153624D01*
X208929743Y-127153624D02*
X209111171Y-127062909D01*
X208022599Y-126427909D02*
X207931885Y-126337195D01*
X207931885Y-126337195D02*
X207750457Y-126246481D01*
X207750457Y-126246481D02*
X207296885Y-126246481D01*
X207296885Y-126246481D02*
X207115457Y-126337195D01*
X207115457Y-126337195D02*
X207024742Y-126427909D01*
X207024742Y-126427909D02*
X206934028Y-126609338D01*
X206934028Y-126609338D02*
X206934028Y-126790767D01*
X206934028Y-126790767D02*
X207024742Y-127062909D01*
X207024742Y-127062909D02*
X208113314Y-128151481D01*
X208113314Y-128151481D02*
X206934028Y-128151481D01*
X206299028Y-126246481D02*
X205119742Y-126246481D01*
X205119742Y-126246481D02*
X205754742Y-126972195D01*
X205754742Y-126972195D02*
X205482599Y-126972195D01*
X205482599Y-126972195D02*
X205301171Y-127062909D01*
X205301171Y-127062909D02*
X205210456Y-127153624D01*
X205210456Y-127153624D02*
X205119742Y-127335052D01*
X205119742Y-127335052D02*
X205119742Y-127788624D01*
X205119742Y-127788624D02*
X205210456Y-127970052D01*
X205210456Y-127970052D02*
X205301171Y-128060767D01*
X205301171Y-128060767D02*
X205482599Y-128151481D01*
X205482599Y-128151481D02*
X206026885Y-128151481D01*
X206026885Y-128151481D02*
X206208313Y-128060767D01*
X206208313Y-128060767D02*
X206299028Y-127970052D01*
X200221169Y-126246481D02*
X199586169Y-128151481D01*
X199586169Y-128151481D02*
X198951169Y-126246481D01*
X197318312Y-128151481D02*
X198406883Y-128151481D01*
X197862598Y-128151481D02*
X197862598Y-126246481D01*
X197862598Y-126246481D02*
X198044026Y-126518624D01*
X198044026Y-126518624D02*
X198225455Y-126700052D01*
X198225455Y-126700052D02*
X198406883Y-126790767D01*
X195141168Y-126427909D02*
X195050454Y-126337195D01*
X195050454Y-126337195D02*
X194869026Y-126246481D01*
X194869026Y-126246481D02*
X194415454Y-126246481D01*
X194415454Y-126246481D02*
X194234026Y-126337195D01*
X194234026Y-126337195D02*
X194143311Y-126427909D01*
X194143311Y-126427909D02*
X194052597Y-126609338D01*
X194052597Y-126609338D02*
X194052597Y-126790767D01*
X194052597Y-126790767D02*
X194143311Y-127062909D01*
X194143311Y-127062909D02*
X195231883Y-128151481D01*
X195231883Y-128151481D02*
X194052597Y-128151481D01*
X192873311Y-126246481D02*
X192691882Y-126246481D01*
X192691882Y-126246481D02*
X192510454Y-126337195D01*
X192510454Y-126337195D02*
X192419740Y-126427909D01*
X192419740Y-126427909D02*
X192329025Y-126609338D01*
X192329025Y-126609338D02*
X192238311Y-126972195D01*
X192238311Y-126972195D02*
X192238311Y-127425767D01*
X192238311Y-127425767D02*
X192329025Y-127788624D01*
X192329025Y-127788624D02*
X192419740Y-127970052D01*
X192419740Y-127970052D02*
X192510454Y-128060767D01*
X192510454Y-128060767D02*
X192691882Y-128151481D01*
X192691882Y-128151481D02*
X192873311Y-128151481D01*
X192873311Y-128151481D02*
X193054740Y-128060767D01*
X193054740Y-128060767D02*
X193145454Y-127970052D01*
X193145454Y-127970052D02*
X193236168Y-127788624D01*
X193236168Y-127788624D02*
X193326882Y-127425767D01*
X193326882Y-127425767D02*
X193326882Y-126972195D01*
X193326882Y-126972195D02*
X193236168Y-126609338D01*
X193236168Y-126609338D02*
X193145454Y-126427909D01*
X193145454Y-126427909D02*
X193054740Y-126337195D01*
X193054740Y-126337195D02*
X192873311Y-126246481D01*
X191512596Y-126427909D02*
X191421882Y-126337195D01*
X191421882Y-126337195D02*
X191240454Y-126246481D01*
X191240454Y-126246481D02*
X190786882Y-126246481D01*
X190786882Y-126246481D02*
X190605454Y-126337195D01*
X190605454Y-126337195D02*
X190514739Y-126427909D01*
X190514739Y-126427909D02*
X190424025Y-126609338D01*
X190424025Y-126609338D02*
X190424025Y-126790767D01*
X190424025Y-126790767D02*
X190514739Y-127062909D01*
X190514739Y-127062909D02*
X191603311Y-128151481D01*
X191603311Y-128151481D02*
X190424025Y-128151481D01*
X188791168Y-126881481D02*
X188791168Y-128151481D01*
X189244739Y-126155767D02*
X189698310Y-127516481D01*
X189698310Y-127516481D02*
X188519025Y-127516481D01*
D11*
X227889026Y-136869321D02*
X227889026Y-135599321D01*
X227889026Y-135599321D02*
X227465692Y-136506464D01*
X227465692Y-136506464D02*
X227042359Y-135599321D01*
X227042359Y-135599321D02*
X227042359Y-136869321D01*
X226498073Y-136506464D02*
X225893311Y-136506464D01*
X226619025Y-136869321D02*
X226195692Y-135599321D01*
X226195692Y-135599321D02*
X225772358Y-136869321D01*
X225469978Y-135599321D02*
X224623311Y-136869321D01*
X224623311Y-135599321D02*
X225469978Y-136869321D01*
X222748549Y-136204083D02*
X223171883Y-136204083D01*
X223171883Y-136869321D02*
X223171883Y-135599321D01*
X223171883Y-135599321D02*
X222567121Y-135599321D01*
X222083312Y-135599321D02*
X222083312Y-136627416D01*
X222083312Y-136627416D02*
X222022835Y-136748368D01*
X222022835Y-136748368D02*
X221962359Y-136808845D01*
X221962359Y-136808845D02*
X221841407Y-136869321D01*
X221841407Y-136869321D02*
X221599502Y-136869321D01*
X221599502Y-136869321D02*
X221478550Y-136808845D01*
X221478550Y-136808845D02*
X221418073Y-136748368D01*
X221418073Y-136748368D02*
X221357597Y-136627416D01*
X221357597Y-136627416D02*
X221357597Y-135599321D01*
X220813312Y-136808845D02*
X220631883Y-136869321D01*
X220631883Y-136869321D02*
X220329502Y-136869321D01*
X220329502Y-136869321D02*
X220208550Y-136808845D01*
X220208550Y-136808845D02*
X220148074Y-136748368D01*
X220148074Y-136748368D02*
X220087597Y-136627416D01*
X220087597Y-136627416D02*
X220087597Y-136506464D01*
X220087597Y-136506464D02*
X220148074Y-136385511D01*
X220148074Y-136385511D02*
X220208550Y-136325035D01*
X220208550Y-136325035D02*
X220329502Y-136264559D01*
X220329502Y-136264559D02*
X220571407Y-136204083D01*
X220571407Y-136204083D02*
X220692359Y-136143606D01*
X220692359Y-136143606D02*
X220752836Y-136083130D01*
X220752836Y-136083130D02*
X220813312Y-135962178D01*
X220813312Y-135962178D02*
X220813312Y-135841225D01*
X220813312Y-135841225D02*
X220752836Y-135720273D01*
X220752836Y-135720273D02*
X220692359Y-135659797D01*
X220692359Y-135659797D02*
X220571407Y-135599321D01*
X220571407Y-135599321D02*
X220269026Y-135599321D01*
X220269026Y-135599321D02*
X220087597Y-135659797D01*
X219543312Y-136204083D02*
X219119978Y-136204083D01*
X218938550Y-136869321D02*
X219543312Y-136869321D01*
X219543312Y-136869321D02*
X219543312Y-135599321D01*
X219543312Y-135599321D02*
X218938550Y-135599321D01*
X216700930Y-136869321D02*
X217124264Y-136264559D01*
X217426645Y-136869321D02*
X217426645Y-135599321D01*
X217426645Y-135599321D02*
X216942835Y-135599321D01*
X216942835Y-135599321D02*
X216821883Y-135659797D01*
X216821883Y-135659797D02*
X216761406Y-135720273D01*
X216761406Y-135720273D02*
X216700930Y-135841225D01*
X216700930Y-135841225D02*
X216700930Y-136022654D01*
X216700930Y-136022654D02*
X216761406Y-136143606D01*
X216761406Y-136143606D02*
X216821883Y-136204083D01*
X216821883Y-136204083D02*
X216942835Y-136264559D01*
X216942835Y-136264559D02*
X217426645Y-136264559D01*
X216217121Y-136506464D02*
X215612359Y-136506464D01*
X216338073Y-136869321D02*
X215914740Y-135599321D01*
X215914740Y-135599321D02*
X215491406Y-136869321D01*
X215249502Y-135599321D02*
X214523788Y-135599321D01*
X214886645Y-136869321D02*
X214886645Y-135599321D01*
X214100455Y-136869321D02*
X214100455Y-135599321D01*
X213495693Y-136869321D02*
X213495693Y-135599321D01*
X213495693Y-135599321D02*
X212769978Y-136869321D01*
X212769978Y-136869321D02*
X212769978Y-135599321D01*
X211499978Y-135659797D02*
X211620931Y-135599321D01*
X211620931Y-135599321D02*
X211802359Y-135599321D01*
X211802359Y-135599321D02*
X211983788Y-135659797D01*
X211983788Y-135659797D02*
X212104740Y-135780749D01*
X212104740Y-135780749D02*
X212165217Y-135901702D01*
X212165217Y-135901702D02*
X212225693Y-136143606D01*
X212225693Y-136143606D02*
X212225693Y-136325035D01*
X212225693Y-136325035D02*
X212165217Y-136566940D01*
X212165217Y-136566940D02*
X212104740Y-136687892D01*
X212104740Y-136687892D02*
X211983788Y-136808845D01*
X211983788Y-136808845D02*
X211802359Y-136869321D01*
X211802359Y-136869321D02*
X211681407Y-136869321D01*
X211681407Y-136869321D02*
X211499978Y-136808845D01*
X211499978Y-136808845D02*
X211439502Y-136748368D01*
X211439502Y-136748368D02*
X211439502Y-136325035D01*
X211439502Y-136325035D02*
X211681407Y-136325035D01*
X210895217Y-136748368D02*
X210834740Y-136808845D01*
X210834740Y-136808845D02*
X210895217Y-136869321D01*
X210895217Y-136869321D02*
X210955693Y-136808845D01*
X210955693Y-136808845D02*
X210895217Y-136748368D01*
X210895217Y-136748368D02*
X210895217Y-136869321D01*
X210895217Y-136083130D02*
X210834740Y-136143606D01*
X210834740Y-136143606D02*
X210895217Y-136204083D01*
X210895217Y-136204083D02*
X210955693Y-136143606D01*
X210955693Y-136143606D02*
X210895217Y-136083130D01*
X210895217Y-136083130D02*
X210895217Y-136204083D01*
X208657597Y-136869321D02*
X209383312Y-136869321D01*
X209020455Y-136869321D02*
X209020455Y-135599321D01*
X209020455Y-135599321D02*
X209141407Y-135780749D01*
X209141407Y-135780749D02*
X209262359Y-135901702D01*
X209262359Y-135901702D02*
X209383312Y-135962178D01*
X207871407Y-135599321D02*
X207750454Y-135599321D01*
X207750454Y-135599321D02*
X207629502Y-135659797D01*
X207629502Y-135659797D02*
X207569026Y-135720273D01*
X207569026Y-135720273D02*
X207508550Y-135841225D01*
X207508550Y-135841225D02*
X207448073Y-136083130D01*
X207448073Y-136083130D02*
X207448073Y-136385511D01*
X207448073Y-136385511D02*
X207508550Y-136627416D01*
X207508550Y-136627416D02*
X207569026Y-136748368D01*
X207569026Y-136748368D02*
X207629502Y-136808845D01*
X207629502Y-136808845D02*
X207750454Y-136869321D01*
X207750454Y-136869321D02*
X207871407Y-136869321D01*
X207871407Y-136869321D02*
X207992359Y-136808845D01*
X207992359Y-136808845D02*
X208052835Y-136748368D01*
X208052835Y-136748368D02*
X208113312Y-136627416D01*
X208113312Y-136627416D02*
X208173788Y-136385511D01*
X208173788Y-136385511D02*
X208173788Y-136083130D01*
X208173788Y-136083130D02*
X208113312Y-135841225D01*
X208113312Y-135841225D02*
X208052835Y-135720273D01*
X208052835Y-135720273D02*
X207992359Y-135659797D01*
X207992359Y-135659797D02*
X207871407Y-135599321D01*
X206964264Y-136506464D02*
X206359502Y-136506464D01*
X207085216Y-136869321D02*
X206661883Y-135599321D01*
X206661883Y-135599321D02*
X206238549Y-136869321D01*
X202912360Y-136869321D02*
X202912360Y-135599321D01*
X202912360Y-135599321D02*
X202489026Y-136506464D01*
X202489026Y-136506464D02*
X202065693Y-135599321D01*
X202065693Y-135599321D02*
X202065693Y-136869321D01*
X201521407Y-136506464D02*
X200916645Y-136506464D01*
X201642359Y-136869321D02*
X201219026Y-135599321D01*
X201219026Y-135599321D02*
X200795692Y-136869321D01*
X200493312Y-135599321D02*
X199646645Y-136869321D01*
X199646645Y-135599321D02*
X200493312Y-136869321D01*
X198195217Y-136869321D02*
X198195217Y-135599321D01*
X197590455Y-136869321D02*
X197590455Y-135599321D01*
X197590455Y-135599321D02*
X196864740Y-136869321D01*
X196864740Y-136869321D02*
X196864740Y-135599321D01*
X196259979Y-136869321D02*
X196259979Y-135599321D01*
X196259979Y-135599321D02*
X195776169Y-135599321D01*
X195776169Y-135599321D02*
X195655217Y-135659797D01*
X195655217Y-135659797D02*
X195594740Y-135720273D01*
X195594740Y-135720273D02*
X195534264Y-135841225D01*
X195534264Y-135841225D02*
X195534264Y-136022654D01*
X195534264Y-136022654D02*
X195594740Y-136143606D01*
X195594740Y-136143606D02*
X195655217Y-136204083D01*
X195655217Y-136204083D02*
X195776169Y-136264559D01*
X195776169Y-136264559D02*
X196259979Y-136264559D01*
X194989979Y-135599321D02*
X194989979Y-136627416D01*
X194989979Y-136627416D02*
X194929502Y-136748368D01*
X194929502Y-136748368D02*
X194869026Y-136808845D01*
X194869026Y-136808845D02*
X194748074Y-136869321D01*
X194748074Y-136869321D02*
X194506169Y-136869321D01*
X194506169Y-136869321D02*
X194385217Y-136808845D01*
X194385217Y-136808845D02*
X194324740Y-136748368D01*
X194324740Y-136748368D02*
X194264264Y-136627416D01*
X194264264Y-136627416D02*
X194264264Y-135599321D01*
X193840931Y-135599321D02*
X193115217Y-135599321D01*
X193478074Y-136869321D02*
X193478074Y-135599321D01*
X190998550Y-136869321D02*
X191421884Y-136264559D01*
X191724265Y-136869321D02*
X191724265Y-135599321D01*
X191724265Y-135599321D02*
X191240455Y-135599321D01*
X191240455Y-135599321D02*
X191119503Y-135659797D01*
X191119503Y-135659797D02*
X191059026Y-135720273D01*
X191059026Y-135720273D02*
X190998550Y-135841225D01*
X190998550Y-135841225D02*
X190998550Y-136022654D01*
X190998550Y-136022654D02*
X191059026Y-136143606D01*
X191059026Y-136143606D02*
X191119503Y-136204083D01*
X191119503Y-136204083D02*
X191240455Y-136264559D01*
X191240455Y-136264559D02*
X191724265Y-136264559D01*
X190514741Y-136506464D02*
X189909979Y-136506464D01*
X190635693Y-136869321D02*
X190212360Y-135599321D01*
X190212360Y-135599321D02*
X189789026Y-136869321D01*
X189547122Y-135599321D02*
X188821408Y-135599321D01*
X189184265Y-136869321D02*
X189184265Y-135599321D01*
X188398075Y-136869321D02*
X188398075Y-135599321D01*
X187793313Y-136869321D02*
X187793313Y-135599321D01*
X187793313Y-135599321D02*
X187067598Y-136869321D01*
X187067598Y-136869321D02*
X187067598Y-135599321D01*
X185797598Y-135659797D02*
X185918551Y-135599321D01*
X185918551Y-135599321D02*
X186099979Y-135599321D01*
X186099979Y-135599321D02*
X186281408Y-135659797D01*
X186281408Y-135659797D02*
X186402360Y-135780749D01*
X186402360Y-135780749D02*
X186462837Y-135901702D01*
X186462837Y-135901702D02*
X186523313Y-136143606D01*
X186523313Y-136143606D02*
X186523313Y-136325035D01*
X186523313Y-136325035D02*
X186462837Y-136566940D01*
X186462837Y-136566940D02*
X186402360Y-136687892D01*
X186402360Y-136687892D02*
X186281408Y-136808845D01*
X186281408Y-136808845D02*
X186099979Y-136869321D01*
X186099979Y-136869321D02*
X185979027Y-136869321D01*
X185979027Y-136869321D02*
X185797598Y-136808845D01*
X185797598Y-136808845D02*
X185737122Y-136748368D01*
X185737122Y-136748368D02*
X185737122Y-136325035D01*
X185737122Y-136325035D02*
X185979027Y-136325035D01*
X185192837Y-136748368D02*
X185132360Y-136808845D01*
X185132360Y-136808845D02*
X185192837Y-136869321D01*
X185192837Y-136869321D02*
X185253313Y-136808845D01*
X185253313Y-136808845D02*
X185192837Y-136748368D01*
X185192837Y-136748368D02*
X185192837Y-136869321D01*
X185192837Y-136083130D02*
X185132360Y-136143606D01*
X185132360Y-136143606D02*
X185192837Y-136204083D01*
X185192837Y-136204083D02*
X185253313Y-136143606D01*
X185253313Y-136143606D02*
X185192837Y-136083130D01*
X185192837Y-136083130D02*
X185192837Y-136204083D01*
X183680932Y-135720273D02*
X183620456Y-135659797D01*
X183620456Y-135659797D02*
X183499503Y-135599321D01*
X183499503Y-135599321D02*
X183197122Y-135599321D01*
X183197122Y-135599321D02*
X183076170Y-135659797D01*
X183076170Y-135659797D02*
X183015694Y-135720273D01*
X183015694Y-135720273D02*
X182955217Y-135841225D01*
X182955217Y-135841225D02*
X182955217Y-135962178D01*
X182955217Y-135962178D02*
X183015694Y-136143606D01*
X183015694Y-136143606D02*
X183741408Y-136869321D01*
X183741408Y-136869321D02*
X182955217Y-136869321D01*
X182169027Y-135599321D02*
X182048074Y-135599321D01*
X182048074Y-135599321D02*
X181927122Y-135659797D01*
X181927122Y-135659797D02*
X181866646Y-135720273D01*
X181866646Y-135720273D02*
X181806170Y-135841225D01*
X181806170Y-135841225D02*
X181745693Y-136083130D01*
X181745693Y-136083130D02*
X181745693Y-136385511D01*
X181745693Y-136385511D02*
X181806170Y-136627416D01*
X181806170Y-136627416D02*
X181866646Y-136748368D01*
X181866646Y-136748368D02*
X181927122Y-136808845D01*
X181927122Y-136808845D02*
X182048074Y-136869321D01*
X182048074Y-136869321D02*
X182169027Y-136869321D01*
X182169027Y-136869321D02*
X182289979Y-136808845D01*
X182289979Y-136808845D02*
X182350455Y-136748368D01*
X182350455Y-136748368D02*
X182410932Y-136627416D01*
X182410932Y-136627416D02*
X182471408Y-136385511D01*
X182471408Y-136385511D02*
X182471408Y-136083130D01*
X182471408Y-136083130D02*
X182410932Y-135841225D01*
X182410932Y-135841225D02*
X182350455Y-135720273D01*
X182350455Y-135720273D02*
X182289979Y-135659797D01*
X182289979Y-135659797D02*
X182169027Y-135599321D01*
X181261884Y-136506464D02*
X180657122Y-136506464D01*
X181382836Y-136869321D02*
X180959503Y-135599321D01*
X180959503Y-135599321D02*
X180536169Y-136869321D01*
D10*
X225449767Y-118245481D02*
X225449767Y-116340481D01*
X225449767Y-116340481D02*
X224814767Y-117701195D01*
X224814767Y-117701195D02*
X224179767Y-116340481D01*
X224179767Y-116340481D02*
X224179767Y-118245481D01*
X223272624Y-118245481D02*
X223272624Y-116975481D01*
X223272624Y-116340481D02*
X223363338Y-116431195D01*
X223363338Y-116431195D02*
X223272624Y-116521909D01*
X223272624Y-116521909D02*
X223181910Y-116431195D01*
X223181910Y-116431195D02*
X223272624Y-116340481D01*
X223272624Y-116340481D02*
X223272624Y-116521909D01*
X222365481Y-116975481D02*
X222365481Y-118245481D01*
X222365481Y-117156909D02*
X222274767Y-117066195D01*
X222274767Y-117066195D02*
X222093338Y-116975481D01*
X222093338Y-116975481D02*
X221821195Y-116975481D01*
X221821195Y-116975481D02*
X221639767Y-117066195D01*
X221639767Y-117066195D02*
X221549053Y-117247624D01*
X221549053Y-117247624D02*
X221549053Y-118245481D01*
X220641910Y-118245481D02*
X220641910Y-116975481D01*
X220641910Y-116340481D02*
X220732624Y-116431195D01*
X220732624Y-116431195D02*
X220641910Y-116521909D01*
X220641910Y-116521909D02*
X220551196Y-116431195D01*
X220551196Y-116431195D02*
X220641910Y-116340481D01*
X220641910Y-116340481D02*
X220641910Y-116521909D01*
X218283338Y-118245481D02*
X218283338Y-116340481D01*
X218283338Y-116340481D02*
X217557624Y-116340481D01*
X217557624Y-116340481D02*
X217376195Y-116431195D01*
X217376195Y-116431195D02*
X217285481Y-116521909D01*
X217285481Y-116521909D02*
X217194767Y-116703338D01*
X217194767Y-116703338D02*
X217194767Y-116975481D01*
X217194767Y-116975481D02*
X217285481Y-117156909D01*
X217285481Y-117156909D02*
X217376195Y-117247624D01*
X217376195Y-117247624D02*
X217557624Y-117338338D01*
X217557624Y-117338338D02*
X218283338Y-117338338D01*
X216106195Y-118245481D02*
X216287624Y-118154767D01*
X216287624Y-118154767D02*
X216378338Y-118064052D01*
X216378338Y-118064052D02*
X216469052Y-117882624D01*
X216469052Y-117882624D02*
X216469052Y-117338338D01*
X216469052Y-117338338D02*
X216378338Y-117156909D01*
X216378338Y-117156909D02*
X216287624Y-117066195D01*
X216287624Y-117066195D02*
X216106195Y-116975481D01*
X216106195Y-116975481D02*
X215834052Y-116975481D01*
X215834052Y-116975481D02*
X215652624Y-117066195D01*
X215652624Y-117066195D02*
X215561910Y-117156909D01*
X215561910Y-117156909D02*
X215471195Y-117338338D01*
X215471195Y-117338338D02*
X215471195Y-117882624D01*
X215471195Y-117882624D02*
X215561910Y-118064052D01*
X215561910Y-118064052D02*
X215652624Y-118154767D01*
X215652624Y-118154767D02*
X215834052Y-118245481D01*
X215834052Y-118245481D02*
X216106195Y-118245481D01*
X214836196Y-116975481D02*
X214473339Y-118245481D01*
X214473339Y-118245481D02*
X214110481Y-117338338D01*
X214110481Y-117338338D02*
X213747624Y-118245481D01*
X213747624Y-118245481D02*
X213384767Y-116975481D01*
X211933339Y-118154767D02*
X212114767Y-118245481D01*
X212114767Y-118245481D02*
X212477625Y-118245481D01*
X212477625Y-118245481D02*
X212659053Y-118154767D01*
X212659053Y-118154767D02*
X212749767Y-117973338D01*
X212749767Y-117973338D02*
X212749767Y-117247624D01*
X212749767Y-117247624D02*
X212659053Y-117066195D01*
X212659053Y-117066195D02*
X212477625Y-116975481D01*
X212477625Y-116975481D02*
X212114767Y-116975481D01*
X212114767Y-116975481D02*
X211933339Y-117066195D01*
X211933339Y-117066195D02*
X211842625Y-117247624D01*
X211842625Y-117247624D02*
X211842625Y-117429052D01*
X211842625Y-117429052D02*
X212749767Y-117610481D01*
X211026196Y-118245481D02*
X211026196Y-116975481D01*
X211026196Y-117338338D02*
X210935482Y-117156909D01*
X210935482Y-117156909D02*
X210844768Y-117066195D01*
X210844768Y-117066195D02*
X210663339Y-116975481D01*
X210663339Y-116975481D02*
X210481910Y-116975481D01*
X208395481Y-118245481D02*
X208395481Y-116340481D01*
X208395481Y-116340481D02*
X207941910Y-116340481D01*
X207941910Y-116340481D02*
X207669767Y-116431195D01*
X207669767Y-116431195D02*
X207488338Y-116612624D01*
X207488338Y-116612624D02*
X207397624Y-116794052D01*
X207397624Y-116794052D02*
X207306910Y-117156909D01*
X207306910Y-117156909D02*
X207306910Y-117429052D01*
X207306910Y-117429052D02*
X207397624Y-117791909D01*
X207397624Y-117791909D02*
X207488338Y-117973338D01*
X207488338Y-117973338D02*
X207669767Y-118154767D01*
X207669767Y-118154767D02*
X207941910Y-118245481D01*
X207941910Y-118245481D02*
X208395481Y-118245481D01*
X206490481Y-118245481D02*
X206490481Y-116975481D01*
X206490481Y-116340481D02*
X206581195Y-116431195D01*
X206581195Y-116431195D02*
X206490481Y-116521909D01*
X206490481Y-116521909D02*
X206399767Y-116431195D01*
X206399767Y-116431195D02*
X206490481Y-116340481D01*
X206490481Y-116340481D02*
X206490481Y-116521909D01*
X205674052Y-118154767D02*
X205492624Y-118245481D01*
X205492624Y-118245481D02*
X205129767Y-118245481D01*
X205129767Y-118245481D02*
X204948338Y-118154767D01*
X204948338Y-118154767D02*
X204857624Y-117973338D01*
X204857624Y-117973338D02*
X204857624Y-117882624D01*
X204857624Y-117882624D02*
X204948338Y-117701195D01*
X204948338Y-117701195D02*
X205129767Y-117610481D01*
X205129767Y-117610481D02*
X205401910Y-117610481D01*
X205401910Y-117610481D02*
X205583338Y-117519767D01*
X205583338Y-117519767D02*
X205674052Y-117338338D01*
X205674052Y-117338338D02*
X205674052Y-117247624D01*
X205674052Y-117247624D02*
X205583338Y-117066195D01*
X205583338Y-117066195D02*
X205401910Y-116975481D01*
X205401910Y-116975481D02*
X205129767Y-116975481D01*
X205129767Y-116975481D02*
X204948338Y-117066195D01*
X204313338Y-116975481D02*
X203587624Y-116975481D01*
X204041195Y-116340481D02*
X204041195Y-117973338D01*
X204041195Y-117973338D02*
X203950481Y-118154767D01*
X203950481Y-118154767D02*
X203769052Y-118245481D01*
X203769052Y-118245481D02*
X203587624Y-118245481D01*
X202952624Y-118245481D02*
X202952624Y-116975481D01*
X202952624Y-117338338D02*
X202861910Y-117156909D01*
X202861910Y-117156909D02*
X202771196Y-117066195D01*
X202771196Y-117066195D02*
X202589767Y-116975481D01*
X202589767Y-116975481D02*
X202408338Y-116975481D01*
X201773338Y-118245481D02*
X201773338Y-116975481D01*
X201773338Y-116340481D02*
X201864052Y-116431195D01*
X201864052Y-116431195D02*
X201773338Y-116521909D01*
X201773338Y-116521909D02*
X201682624Y-116431195D01*
X201682624Y-116431195D02*
X201773338Y-116340481D01*
X201773338Y-116340481D02*
X201773338Y-116521909D01*
X200866195Y-118245481D02*
X200866195Y-116340481D01*
X200866195Y-117066195D02*
X200684767Y-116975481D01*
X200684767Y-116975481D02*
X200321909Y-116975481D01*
X200321909Y-116975481D02*
X200140481Y-117066195D01*
X200140481Y-117066195D02*
X200049767Y-117156909D01*
X200049767Y-117156909D02*
X199959052Y-117338338D01*
X199959052Y-117338338D02*
X199959052Y-117882624D01*
X199959052Y-117882624D02*
X200049767Y-118064052D01*
X200049767Y-118064052D02*
X200140481Y-118154767D01*
X200140481Y-118154767D02*
X200321909Y-118245481D01*
X200321909Y-118245481D02*
X200684767Y-118245481D01*
X200684767Y-118245481D02*
X200866195Y-118154767D01*
X198326196Y-116975481D02*
X198326196Y-118245481D01*
X199142624Y-116975481D02*
X199142624Y-117973338D01*
X199142624Y-117973338D02*
X199051910Y-118154767D01*
X199051910Y-118154767D02*
X198870481Y-118245481D01*
X198870481Y-118245481D02*
X198598338Y-118245481D01*
X198598338Y-118245481D02*
X198416910Y-118154767D01*
X198416910Y-118154767D02*
X198326196Y-118064052D01*
X197691196Y-116975481D02*
X196965482Y-116975481D01*
X197419053Y-116340481D02*
X197419053Y-117973338D01*
X197419053Y-117973338D02*
X197328339Y-118154767D01*
X197328339Y-118154767D02*
X197146910Y-118245481D01*
X197146910Y-118245481D02*
X196965482Y-118245481D01*
X196330482Y-118245481D02*
X196330482Y-116975481D01*
X196330482Y-116340481D02*
X196421196Y-116431195D01*
X196421196Y-116431195D02*
X196330482Y-116521909D01*
X196330482Y-116521909D02*
X196239768Y-116431195D01*
X196239768Y-116431195D02*
X196330482Y-116340481D01*
X196330482Y-116340481D02*
X196330482Y-116521909D01*
X195151196Y-118245481D02*
X195332625Y-118154767D01*
X195332625Y-118154767D02*
X195423339Y-118064052D01*
X195423339Y-118064052D02*
X195514053Y-117882624D01*
X195514053Y-117882624D02*
X195514053Y-117338338D01*
X195514053Y-117338338D02*
X195423339Y-117156909D01*
X195423339Y-117156909D02*
X195332625Y-117066195D01*
X195332625Y-117066195D02*
X195151196Y-116975481D01*
X195151196Y-116975481D02*
X194879053Y-116975481D01*
X194879053Y-116975481D02*
X194697625Y-117066195D01*
X194697625Y-117066195D02*
X194606911Y-117156909D01*
X194606911Y-117156909D02*
X194516196Y-117338338D01*
X194516196Y-117338338D02*
X194516196Y-117882624D01*
X194516196Y-117882624D02*
X194606911Y-118064052D01*
X194606911Y-118064052D02*
X194697625Y-118154767D01*
X194697625Y-118154767D02*
X194879053Y-118245481D01*
X194879053Y-118245481D02*
X195151196Y-118245481D01*
X193699768Y-116975481D02*
X193699768Y-118245481D01*
X193699768Y-117156909D02*
X193609054Y-117066195D01*
X193609054Y-117066195D02*
X193427625Y-116975481D01*
X193427625Y-116975481D02*
X193155482Y-116975481D01*
X193155482Y-116975481D02*
X192974054Y-117066195D01*
X192974054Y-117066195D02*
X192883340Y-117247624D01*
X192883340Y-117247624D02*
X192883340Y-118245481D01*
X189889768Y-117247624D02*
X189617625Y-117338338D01*
X189617625Y-117338338D02*
X189526911Y-117429052D01*
X189526911Y-117429052D02*
X189436197Y-117610481D01*
X189436197Y-117610481D02*
X189436197Y-117882624D01*
X189436197Y-117882624D02*
X189526911Y-118064052D01*
X189526911Y-118064052D02*
X189617625Y-118154767D01*
X189617625Y-118154767D02*
X189799054Y-118245481D01*
X189799054Y-118245481D02*
X190524768Y-118245481D01*
X190524768Y-118245481D02*
X190524768Y-116340481D01*
X190524768Y-116340481D02*
X189889768Y-116340481D01*
X189889768Y-116340481D02*
X189708340Y-116431195D01*
X189708340Y-116431195D02*
X189617625Y-116521909D01*
X189617625Y-116521909D02*
X189526911Y-116703338D01*
X189526911Y-116703338D02*
X189526911Y-116884767D01*
X189526911Y-116884767D02*
X189617625Y-117066195D01*
X189617625Y-117066195D02*
X189708340Y-117156909D01*
X189708340Y-117156909D02*
X189889768Y-117247624D01*
X189889768Y-117247624D02*
X190524768Y-117247624D01*
X188347625Y-118245481D02*
X188529054Y-118154767D01*
X188529054Y-118154767D02*
X188619768Y-118064052D01*
X188619768Y-118064052D02*
X188710482Y-117882624D01*
X188710482Y-117882624D02*
X188710482Y-117338338D01*
X188710482Y-117338338D02*
X188619768Y-117156909D01*
X188619768Y-117156909D02*
X188529054Y-117066195D01*
X188529054Y-117066195D02*
X188347625Y-116975481D01*
X188347625Y-116975481D02*
X188075482Y-116975481D01*
X188075482Y-116975481D02*
X187894054Y-117066195D01*
X187894054Y-117066195D02*
X187803340Y-117156909D01*
X187803340Y-117156909D02*
X187712625Y-117338338D01*
X187712625Y-117338338D02*
X187712625Y-117882624D01*
X187712625Y-117882624D02*
X187803340Y-118064052D01*
X187803340Y-118064052D02*
X187894054Y-118154767D01*
X187894054Y-118154767D02*
X188075482Y-118245481D01*
X188075482Y-118245481D02*
X188347625Y-118245481D01*
X186079769Y-118245481D02*
X186079769Y-117247624D01*
X186079769Y-117247624D02*
X186170483Y-117066195D01*
X186170483Y-117066195D02*
X186351911Y-116975481D01*
X186351911Y-116975481D02*
X186714769Y-116975481D01*
X186714769Y-116975481D02*
X186896197Y-117066195D01*
X186079769Y-118154767D02*
X186261197Y-118245481D01*
X186261197Y-118245481D02*
X186714769Y-118245481D01*
X186714769Y-118245481D02*
X186896197Y-118154767D01*
X186896197Y-118154767D02*
X186986911Y-117973338D01*
X186986911Y-117973338D02*
X186986911Y-117791909D01*
X186986911Y-117791909D02*
X186896197Y-117610481D01*
X186896197Y-117610481D02*
X186714769Y-117519767D01*
X186714769Y-117519767D02*
X186261197Y-117519767D01*
X186261197Y-117519767D02*
X186079769Y-117429052D01*
X185172626Y-118245481D02*
X185172626Y-116975481D01*
X185172626Y-117338338D02*
X185081912Y-117156909D01*
X185081912Y-117156909D02*
X184991198Y-117066195D01*
X184991198Y-117066195D02*
X184809769Y-116975481D01*
X184809769Y-116975481D02*
X184628340Y-116975481D01*
X183176912Y-118245481D02*
X183176912Y-116340481D01*
X183176912Y-118154767D02*
X183358340Y-118245481D01*
X183358340Y-118245481D02*
X183721197Y-118245481D01*
X183721197Y-118245481D02*
X183902626Y-118154767D01*
X183902626Y-118154767D02*
X183993340Y-118064052D01*
X183993340Y-118064052D02*
X184084054Y-117882624D01*
X184084054Y-117882624D02*
X184084054Y-117338338D01*
X184084054Y-117338338D02*
X183993340Y-117156909D01*
X183993340Y-117156909D02*
X183902626Y-117066195D01*
X183902626Y-117066195D02*
X183721197Y-116975481D01*
X183721197Y-116975481D02*
X183358340Y-116975481D01*
X183358340Y-116975481D02*
X183176912Y-117066195D01*
D12*
%TO.C,G\u002A\u002A\u002A*%
G36*
X229787139Y-117284072D02*
G01*
X229787296Y-117347677D01*
X229787367Y-117412397D01*
X229787352Y-117476980D01*
X229787250Y-117540174D01*
X229787061Y-117600725D01*
X229786783Y-117657383D01*
X229786416Y-117708894D01*
X229785959Y-117754006D01*
X229785411Y-117791466D01*
X229784772Y-117820023D01*
X229784041Y-117838424D01*
X229783217Y-117845416D01*
X229782469Y-117845898D01*
X229772026Y-117847857D01*
X229752376Y-117849144D01*
X229726256Y-117849796D01*
X229696405Y-117849855D01*
X229665560Y-117849358D01*
X229636458Y-117848345D01*
X229611838Y-117846855D01*
X229594438Y-117844928D01*
X229586995Y-117842603D01*
X229585982Y-117837538D01*
X229584500Y-117821035D01*
X229582932Y-117795019D01*
X229581370Y-117761299D01*
X229579906Y-117721683D01*
X229578632Y-117677981D01*
X229577695Y-117643950D01*
X229576386Y-117603750D01*
X229575034Y-117569252D01*
X229573718Y-117542204D01*
X229572514Y-117524356D01*
X229571500Y-117517456D01*
X229571322Y-117517380D01*
X229563046Y-117516652D01*
X229543455Y-117515744D01*
X229513781Y-117514692D01*
X229475253Y-117513530D01*
X229429104Y-117512293D01*
X229376562Y-117511018D01*
X229318859Y-117509738D01*
X229257225Y-117508489D01*
X229190700Y-117507191D01*
X229125865Y-117505818D01*
X229071642Y-117504407D01*
X229026918Y-117502803D01*
X228990584Y-117500850D01*
X228961527Y-117498392D01*
X228938637Y-117495272D01*
X228920803Y-117491336D01*
X228906913Y-117486426D01*
X228895856Y-117480388D01*
X228886521Y-117473064D01*
X228877798Y-117464300D01*
X228868574Y-117453939D01*
X228860879Y-117444749D01*
X228852545Y-117432679D01*
X228846157Y-117419274D01*
X228841489Y-117402913D01*
X228838317Y-117381971D01*
X228836415Y-117354825D01*
X228835556Y-117319854D01*
X228835517Y-117275434D01*
X228835919Y-117235202D01*
X229038150Y-117235202D01*
X229038197Y-117256508D01*
X229038664Y-117282173D01*
X229040005Y-117299357D01*
X229042666Y-117310664D01*
X229047095Y-117318698D01*
X229053737Y-117326063D01*
X229069323Y-117341650D01*
X229319757Y-117341650D01*
X229357914Y-117341636D01*
X229414649Y-117341528D01*
X229460508Y-117341276D01*
X229496645Y-117340832D01*
X229524217Y-117340152D01*
X229544379Y-117339190D01*
X229558288Y-117337900D01*
X229567098Y-117336236D01*
X229571965Y-117334153D01*
X229574046Y-117331605D01*
X229574749Y-117328133D01*
X229575995Y-117312995D01*
X229576995Y-117288888D01*
X229577659Y-117258284D01*
X229577900Y-117223655D01*
X229577900Y-117125750D01*
X229341363Y-117125901D01*
X229340981Y-117125901D01*
X229286314Y-117126093D01*
X229234759Y-117126567D01*
X229187914Y-117127288D01*
X229147378Y-117128219D01*
X229114747Y-117129322D01*
X229091620Y-117130562D01*
X229079596Y-117131902D01*
X229079090Y-117132020D01*
X229063065Y-117136778D01*
X229051846Y-117143708D01*
X229044588Y-117154913D01*
X229040449Y-117172494D01*
X229038585Y-117198556D01*
X229038150Y-117235202D01*
X228835919Y-117235202D01*
X228836072Y-117219942D01*
X228838125Y-117056959D01*
X228857457Y-117029442D01*
X228863732Y-117021420D01*
X228883865Y-117001414D01*
X228905082Y-116986050D01*
X228933375Y-116970175D01*
X229355650Y-116966361D01*
X229389459Y-116966064D01*
X229459963Y-116965500D01*
X229526234Y-116965045D01*
X229587212Y-116964702D01*
X229641840Y-116964473D01*
X229689059Y-116964361D01*
X229727812Y-116964370D01*
X229757040Y-116964502D01*
X229775684Y-116964760D01*
X229782688Y-116965148D01*
X229782904Y-116965661D01*
X229783716Y-116975260D01*
X229784449Y-116995992D01*
X229785102Y-117026607D01*
X229785674Y-117065850D01*
X229786165Y-117112471D01*
X229786573Y-117165216D01*
X229786898Y-117222834D01*
X229786901Y-117223655D01*
X229787139Y-117284072D01*
G37*
G36*
X230750099Y-116967771D02*
G01*
X230806007Y-116968216D01*
X230850743Y-116968981D01*
X230884717Y-116970070D01*
X230908336Y-116971488D01*
X230922008Y-116973241D01*
X230943484Y-116980160D01*
X230976891Y-117000045D01*
X231004730Y-117027900D01*
X231023584Y-117060779D01*
X231023655Y-117060965D01*
X231026295Y-117068688D01*
X231028499Y-117077618D01*
X231030306Y-117088906D01*
X231031756Y-117103701D01*
X231032888Y-117123151D01*
X231033740Y-117148406D01*
X231034352Y-117180615D01*
X231034762Y-117220927D01*
X231035011Y-117270492D01*
X231035136Y-117330458D01*
X231035177Y-117401975D01*
X231035172Y-117444298D01*
X231035089Y-117509750D01*
X231034881Y-117564317D01*
X231034512Y-117609160D01*
X231033945Y-117645437D01*
X231033145Y-117674307D01*
X231032074Y-117696931D01*
X231030698Y-117714467D01*
X231028979Y-117728075D01*
X231026882Y-117738913D01*
X231024370Y-117748142D01*
X231013601Y-117774279D01*
X230989779Y-117806271D01*
X230957084Y-117829275D01*
X230915867Y-117842985D01*
X230913502Y-117843342D01*
X230897682Y-117844481D01*
X230871131Y-117845477D01*
X230835377Y-117846328D01*
X230791945Y-117847031D01*
X230742363Y-117847584D01*
X230688155Y-117847983D01*
X230630849Y-117848225D01*
X230571970Y-117848309D01*
X230513045Y-117848231D01*
X230455600Y-117847988D01*
X230401161Y-117847578D01*
X230351255Y-117846998D01*
X230307408Y-117846245D01*
X230271145Y-117845316D01*
X230243994Y-117844208D01*
X230227705Y-117843291D01*
X230198218Y-117841207D01*
X230177344Y-117838680D01*
X230162240Y-117835134D01*
X230150067Y-117829992D01*
X230137982Y-117822677D01*
X230130249Y-117816886D01*
X230110719Y-117797685D01*
X230095077Y-117776602D01*
X230093843Y-117774477D01*
X230087647Y-117762580D01*
X230083027Y-117750096D01*
X230079548Y-117734605D01*
X230076777Y-117713688D01*
X230074279Y-117684925D01*
X230071620Y-117645895D01*
X230071218Y-117639490D01*
X230069115Y-117598657D01*
X230068393Y-117567479D01*
X230069058Y-117546946D01*
X230071113Y-117538047D01*
X230075002Y-117536050D01*
X230089695Y-117531306D01*
X230112436Y-117525189D01*
X230140498Y-117518316D01*
X230171158Y-117511302D01*
X230201692Y-117504763D01*
X230229374Y-117499315D01*
X230251481Y-117495573D01*
X230265288Y-117494154D01*
X230282750Y-117494050D01*
X230282750Y-117582950D01*
X230282750Y-117671850D01*
X230552625Y-117671850D01*
X230822500Y-117671850D01*
X230822500Y-117401975D01*
X230822500Y-117132100D01*
X230553601Y-117132100D01*
X230284702Y-117132100D01*
X230280548Y-117209361D01*
X230280483Y-117210565D01*
X230278653Y-117240384D01*
X230276732Y-117265184D01*
X230274944Y-117282408D01*
X230273514Y-117289502D01*
X230270640Y-117289778D01*
X230257130Y-117288814D01*
X230234599Y-117286308D01*
X230205240Y-117282516D01*
X230171248Y-117277689D01*
X230158605Y-117275789D01*
X230119275Y-117269306D01*
X230091638Y-117263630D01*
X230074936Y-117258584D01*
X230068406Y-117253994D01*
X230068090Y-117252633D01*
X230067571Y-117240340D01*
X230068048Y-117218691D01*
X230069433Y-117190291D01*
X230071638Y-117157745D01*
X230072683Y-117144922D01*
X230078082Y-117098320D01*
X230085819Y-117062007D01*
X230096836Y-117034081D01*
X230112078Y-117012638D01*
X230132489Y-116995776D01*
X230159012Y-116981590D01*
X230163522Y-116979738D01*
X230170747Y-116977535D01*
X230180159Y-116975673D01*
X230192809Y-116974117D01*
X230209749Y-116972827D01*
X230232030Y-116971767D01*
X230260704Y-116970900D01*
X230296821Y-116970187D01*
X230341433Y-116969592D01*
X230395591Y-116969076D01*
X230460346Y-116968604D01*
X230536750Y-116968136D01*
X230603137Y-116967813D01*
X230682612Y-116967638D01*
X230750099Y-116967771D01*
G37*
G36*
X232493106Y-116960911D02*
G01*
X232531396Y-116962328D01*
X232564404Y-116964797D01*
X232590277Y-116968116D01*
X232607161Y-116972085D01*
X232613200Y-116976502D01*
X232613126Y-116976897D01*
X232610151Y-116985769D01*
X232603156Y-117005138D01*
X232592581Y-117033850D01*
X232578861Y-117070749D01*
X232562435Y-117114680D01*
X232543740Y-117164490D01*
X232523215Y-117219023D01*
X232501295Y-117277124D01*
X232478420Y-117337640D01*
X232455026Y-117399415D01*
X232431552Y-117461294D01*
X232408435Y-117522123D01*
X232386111Y-117580747D01*
X232365021Y-117636011D01*
X232345599Y-117686761D01*
X232328285Y-117731842D01*
X232313516Y-117770098D01*
X232301729Y-117800377D01*
X232293362Y-117821522D01*
X232288853Y-117832379D01*
X232280787Y-117850033D01*
X232207469Y-117848254D01*
X232134151Y-117846475D01*
X232013537Y-117554732D01*
X231892923Y-117262990D01*
X231874500Y-117303907D01*
X231872810Y-117307735D01*
X231864938Y-117326259D01*
X231853174Y-117354540D01*
X231838139Y-117391064D01*
X231820452Y-117434316D01*
X231800733Y-117482782D01*
X231779602Y-117534948D01*
X231757678Y-117589300D01*
X231747870Y-117613629D01*
X231727070Y-117664957D01*
X231707793Y-117712169D01*
X231690571Y-117753986D01*
X231675936Y-117789129D01*
X231664419Y-117816317D01*
X231656550Y-117834272D01*
X231652862Y-117841712D01*
X231650274Y-117843504D01*
X231636575Y-117846922D01*
X231615058Y-117849087D01*
X231589128Y-117850008D01*
X231562187Y-117849690D01*
X231537642Y-117848143D01*
X231518895Y-117845373D01*
X231509350Y-117841389D01*
X231507341Y-117837714D01*
X231500762Y-117822918D01*
X231490423Y-117798150D01*
X231476775Y-117764580D01*
X231460272Y-117723377D01*
X231441365Y-117675711D01*
X231420508Y-117622750D01*
X231398152Y-117565664D01*
X231374750Y-117505622D01*
X231350755Y-117443794D01*
X231326620Y-117381348D01*
X231302796Y-117319453D01*
X231279736Y-117259280D01*
X231257893Y-117201997D01*
X231237719Y-117148774D01*
X231219666Y-117100779D01*
X231204188Y-117059182D01*
X231191737Y-117025152D01*
X231182764Y-116999859D01*
X231177723Y-116984471D01*
X231175684Y-116975959D01*
X231177702Y-116967473D01*
X231188978Y-116962918D01*
X231188984Y-116962916D01*
X231201716Y-116961590D01*
X231222820Y-116961284D01*
X231249286Y-116961837D01*
X231278105Y-116963089D01*
X231306265Y-116964878D01*
X231330756Y-116967045D01*
X231348568Y-116969429D01*
X231356691Y-116971869D01*
X231358790Y-116976373D01*
X231364975Y-116991793D01*
X231374690Y-117016956D01*
X231387479Y-117050647D01*
X231402882Y-117091652D01*
X231420442Y-117138755D01*
X231439701Y-117190743D01*
X231460200Y-117246400D01*
X231476443Y-117290622D01*
X231495989Y-117343832D01*
X231513896Y-117392574D01*
X231529709Y-117435607D01*
X231542969Y-117471689D01*
X231553222Y-117499577D01*
X231560009Y-117518028D01*
X231562875Y-117525800D01*
X231562902Y-117525871D01*
X231564223Y-117528743D01*
X231565866Y-117529836D01*
X231568237Y-117528241D01*
X231571741Y-117523051D01*
X231576786Y-117513359D01*
X231583777Y-117498258D01*
X231593120Y-117476839D01*
X231605222Y-117448196D01*
X231620489Y-117411420D01*
X231639326Y-117365605D01*
X231662140Y-117309842D01*
X231689338Y-117243225D01*
X231704869Y-117205302D01*
X231726514Y-117152910D01*
X231746621Y-117104772D01*
X231764654Y-117062140D01*
X231780076Y-117026269D01*
X231792353Y-116998413D01*
X231800949Y-116979826D01*
X231805326Y-116971762D01*
X231807750Y-116969359D01*
X231815714Y-116964978D01*
X231828705Y-116962320D01*
X231849277Y-116961004D01*
X231879982Y-116960650D01*
X231888032Y-116960679D01*
X231920853Y-116961734D01*
X231941765Y-116964349D01*
X231951359Y-116968587D01*
X231954302Y-116974462D01*
X231961629Y-116991193D01*
X231972716Y-117017459D01*
X231987063Y-117052053D01*
X232004174Y-117093768D01*
X232023553Y-117141398D01*
X232044700Y-117193736D01*
X232067121Y-117249575D01*
X232087017Y-117299162D01*
X232108230Y-117351759D01*
X232127681Y-117399705D01*
X232144883Y-117441810D01*
X232159345Y-117476881D01*
X232170580Y-117503727D01*
X232178096Y-117521157D01*
X232181406Y-117527978D01*
X232181487Y-117528059D01*
X232183467Y-117527785D01*
X232186625Y-117523645D01*
X232191287Y-117514835D01*
X232197774Y-117500551D01*
X232206411Y-117479988D01*
X232217521Y-117452343D01*
X232231428Y-117416810D01*
X232248455Y-117372586D01*
X232268925Y-117318867D01*
X232293162Y-117254848D01*
X232321491Y-117179725D01*
X232330792Y-117155183D01*
X232348395Y-117109606D01*
X232364819Y-117068169D01*
X232379422Y-117032428D01*
X232391563Y-117003938D01*
X232400602Y-116984256D01*
X232405896Y-116974937D01*
X232406348Y-116974431D01*
X232414538Y-116967208D01*
X232425145Y-116963033D01*
X232441592Y-116961113D01*
X232467299Y-116960650D01*
X232493106Y-116960911D01*
G37*
G36*
X233476043Y-117354565D02*
G01*
X233476007Y-117415860D01*
X233476193Y-117465687D01*
X233476641Y-117505164D01*
X233477387Y-117535410D01*
X233478468Y-117557543D01*
X233479924Y-117572682D01*
X233481792Y-117581946D01*
X233484109Y-117586453D01*
X233484800Y-117587019D01*
X233494352Y-117593170D01*
X233513464Y-117604631D01*
X233540883Y-117620676D01*
X233575357Y-117640583D01*
X233615633Y-117663626D01*
X233660457Y-117689081D01*
X233708575Y-117716223D01*
X233719950Y-117722620D01*
X233767220Y-117749282D01*
X233810782Y-117773967D01*
X233849408Y-117795969D01*
X233881867Y-117814586D01*
X233906931Y-117829112D01*
X233923371Y-117838844D01*
X233929959Y-117843077D01*
X233930485Y-117844005D01*
X233931133Y-117855079D01*
X233929381Y-117876229D01*
X233925553Y-117905580D01*
X233919973Y-117941256D01*
X233912965Y-117981379D01*
X233904853Y-118024075D01*
X233895962Y-118067466D01*
X233886616Y-118109676D01*
X233877138Y-118148829D01*
X233869602Y-118177743D01*
X233855121Y-118230382D01*
X233839866Y-118282608D01*
X233824344Y-118332938D01*
X233809056Y-118379888D01*
X233794506Y-118421977D01*
X233781199Y-118457722D01*
X233769637Y-118485639D01*
X233760325Y-118504247D01*
X233753765Y-118512062D01*
X233750430Y-118512454D01*
X233735584Y-118512828D01*
X233710540Y-118512848D01*
X233676868Y-118512532D01*
X233636140Y-118511896D01*
X233589927Y-118510958D01*
X233539800Y-118509735D01*
X233517824Y-118509162D01*
X233465215Y-118507840D01*
X233414886Y-118506642D01*
X233368922Y-118505613D01*
X233329404Y-118504800D01*
X233298415Y-118504248D01*
X233278039Y-118504001D01*
X233222152Y-118503700D01*
X233212390Y-118527065D01*
X233208066Y-118536832D01*
X233194717Y-118564102D01*
X233176539Y-118598859D01*
X233154779Y-118638861D01*
X233130685Y-118681867D01*
X233105505Y-118725634D01*
X233080487Y-118767921D01*
X233056878Y-118806486D01*
X233043582Y-118828140D01*
X233026472Y-118857327D01*
X233012834Y-118882196D01*
X233003812Y-118900633D01*
X233000551Y-118910524D01*
X233000939Y-118912267D01*
X233006182Y-118924151D01*
X233017006Y-118945263D01*
X233032722Y-118974357D01*
X233052641Y-119010189D01*
X233076074Y-119051513D01*
X233102332Y-119097086D01*
X233130726Y-119145662D01*
X233141404Y-119163824D01*
X233169010Y-119210969D01*
X233194242Y-119254333D01*
X233216418Y-119292726D01*
X233234855Y-119324956D01*
X233248869Y-119349833D01*
X233257779Y-119366164D01*
X233260901Y-119372759D01*
X233260873Y-119372943D01*
X233256195Y-119379994D01*
X233244386Y-119394765D01*
X233226756Y-119415698D01*
X233204611Y-119441240D01*
X233179260Y-119469835D01*
X233164617Y-119486020D01*
X233129903Y-119523356D01*
X233092083Y-119562853D01*
X233052235Y-119603479D01*
X233011442Y-119644204D01*
X232970783Y-119683998D01*
X232931339Y-119721829D01*
X232894191Y-119756668D01*
X232860420Y-119787483D01*
X232831106Y-119813244D01*
X232807331Y-119832921D01*
X232790173Y-119845483D01*
X232780715Y-119849900D01*
X232778890Y-119849382D01*
X232767201Y-119843862D01*
X232746277Y-119832845D01*
X232717335Y-119817009D01*
X232681589Y-119797032D01*
X232640258Y-119773590D01*
X232594556Y-119747360D01*
X232545700Y-119719021D01*
X232499459Y-119692204D01*
X232446923Y-119662159D01*
X232402000Y-119636981D01*
X232365337Y-119617018D01*
X232337580Y-119602622D01*
X232319372Y-119594142D01*
X232311360Y-119591929D01*
X232306375Y-119594476D01*
X232291530Y-119603041D01*
X232269387Y-119616317D01*
X232241965Y-119633091D01*
X232211284Y-119652146D01*
X232202885Y-119657364D01*
X232161001Y-119682630D01*
X232114102Y-119709960D01*
X232067332Y-119736391D01*
X232025834Y-119758960D01*
X231987095Y-119780030D01*
X231953984Y-119799613D01*
X231932523Y-119814540D01*
X231922644Y-119824859D01*
X231922418Y-119825326D01*
X231920417Y-119832657D01*
X231918890Y-119845505D01*
X231917823Y-119864895D01*
X231917201Y-119891852D01*
X231917012Y-119927402D01*
X231917239Y-119972570D01*
X231917869Y-120028382D01*
X231918889Y-120095862D01*
X231923083Y-120351350D01*
X231886737Y-120367424D01*
X231880321Y-120370226D01*
X231828950Y-120390574D01*
X231768293Y-120411237D01*
X231697679Y-120432407D01*
X231616439Y-120454274D01*
X231523903Y-120477030D01*
X231419400Y-120500865D01*
X231415705Y-120501679D01*
X231376413Y-120510092D01*
X231340209Y-120517434D01*
X231309415Y-120523263D01*
X231286354Y-120527138D01*
X231273350Y-120528618D01*
X231251125Y-120529035D01*
X231124731Y-120301076D01*
X231111865Y-120277911D01*
X231079389Y-120219894D01*
X231052309Y-120172305D01*
X231030259Y-120134537D01*
X231012872Y-120105985D01*
X230999783Y-120086040D01*
X230990624Y-120074095D01*
X230985031Y-120069545D01*
X230984425Y-120069408D01*
X230972935Y-120068392D01*
X230951083Y-120067564D01*
X230920645Y-120066918D01*
X230883394Y-120066451D01*
X230841102Y-120066158D01*
X230795546Y-120066036D01*
X230748498Y-120066079D01*
X230701732Y-120066284D01*
X230657021Y-120066645D01*
X230616141Y-120067160D01*
X230580865Y-120067823D01*
X230552967Y-120068630D01*
X230534220Y-120069577D01*
X230526398Y-120070659D01*
X230525708Y-120071381D01*
X230519535Y-120080672D01*
X230508113Y-120099517D01*
X230492147Y-120126697D01*
X230472343Y-120160993D01*
X230449406Y-120201188D01*
X230424039Y-120246063D01*
X230396949Y-120294400D01*
X230389658Y-120307452D01*
X230362850Y-120355255D01*
X230337901Y-120399457D01*
X230315527Y-120438805D01*
X230296446Y-120472051D01*
X230281374Y-120497943D01*
X230271029Y-120515229D01*
X230266126Y-120522661D01*
X230261149Y-120526371D01*
X230253050Y-120528203D01*
X230239624Y-120527899D01*
X230218485Y-120525396D01*
X230187246Y-120520634D01*
X230166850Y-120517134D01*
X230123349Y-120508510D01*
X230073852Y-120497508D01*
X230020031Y-120484596D01*
X229963556Y-120470246D01*
X229906100Y-120454928D01*
X229849333Y-120439112D01*
X229794926Y-120423268D01*
X229744552Y-120407867D01*
X229699881Y-120393379D01*
X229662585Y-120380275D01*
X229634335Y-120369024D01*
X229616803Y-120360098D01*
X229601730Y-120350228D01*
X229604384Y-120085185D01*
X229607038Y-119820142D01*
X229562307Y-119797059D01*
X229550824Y-119791099D01*
X229468786Y-119746739D01*
X229383494Y-119697806D01*
X229300539Y-119647493D01*
X229298680Y-119646333D01*
X229263944Y-119625439D01*
X229235042Y-119609548D01*
X229213483Y-119599442D01*
X229200776Y-119595900D01*
X229190210Y-119598857D01*
X229169667Y-119608130D01*
X229140640Y-119623146D01*
X229104259Y-119643319D01*
X229061656Y-119668062D01*
X229019458Y-119692985D01*
X228971400Y-119721277D01*
X228922798Y-119749810D01*
X228877472Y-119776342D01*
X228839244Y-119798629D01*
X228738763Y-119857033D01*
X228702719Y-119827480D01*
X228694531Y-119820711D01*
X228652333Y-119784480D01*
X228605192Y-119742198D01*
X228556055Y-119696629D01*
X228507867Y-119650538D01*
X228463572Y-119606689D01*
X228426118Y-119567849D01*
X228410281Y-119550802D01*
X228375951Y-119513299D01*
X228344017Y-119477697D01*
X228315531Y-119445220D01*
X228291545Y-119417092D01*
X228273110Y-119394538D01*
X228261278Y-119378781D01*
X228257100Y-119371047D01*
X228257381Y-119369684D01*
X228262105Y-119359074D01*
X228271454Y-119341528D01*
X228283855Y-119320044D01*
X228303727Y-119286737D01*
X228348779Y-119211069D01*
X228387690Y-119145448D01*
X228420791Y-119089301D01*
X228448411Y-119042054D01*
X228470878Y-119003134D01*
X228488522Y-118971969D01*
X228501672Y-118947985D01*
X228510657Y-118930610D01*
X228515807Y-118919270D01*
X228517450Y-118913392D01*
X228517159Y-118911644D01*
X228512188Y-118899395D01*
X228501819Y-118878706D01*
X228487031Y-118851401D01*
X228468802Y-118819303D01*
X228448111Y-118784236D01*
X228425101Y-118745384D01*
X228400300Y-118702467D01*
X228376559Y-118660433D01*
X228355746Y-118622590D01*
X228339730Y-118592248D01*
X228336250Y-118585487D01*
X228321220Y-118557711D01*
X228307586Y-118534641D01*
X228296729Y-118518517D01*
X228290030Y-118511580D01*
X228288044Y-118511214D01*
X228274811Y-118510339D01*
X228250846Y-118509526D01*
X228217552Y-118508798D01*
X228176328Y-118508177D01*
X228128578Y-118507685D01*
X228075701Y-118507346D01*
X228019100Y-118507182D01*
X227758829Y-118506875D01*
X227751281Y-118491000D01*
X227746928Y-118480305D01*
X227738900Y-118457695D01*
X227728511Y-118426564D01*
X227716387Y-118388946D01*
X227703154Y-118346877D01*
X227689438Y-118302392D01*
X227675866Y-118257524D01*
X227663064Y-118214308D01*
X227651657Y-118174780D01*
X227642273Y-118140973D01*
X227635537Y-118114922D01*
X227622160Y-118058192D01*
X227610072Y-118003728D01*
X227600230Y-117955752D01*
X227592842Y-117915421D01*
X227588121Y-117883888D01*
X227586277Y-117862309D01*
X227587520Y-117851839D01*
X227588598Y-117850759D01*
X227598762Y-117843662D01*
X227618385Y-117831323D01*
X227646251Y-117814464D01*
X227681147Y-117793807D01*
X227721856Y-117770072D01*
X227767164Y-117743981D01*
X227815855Y-117716256D01*
X228038025Y-117590446D01*
X228039560Y-117356510D01*
X228039570Y-117354973D01*
X228039636Y-117338834D01*
X228558053Y-117338834D01*
X228559886Y-117436052D01*
X228564967Y-117532144D01*
X228573214Y-117623566D01*
X228584545Y-117706775D01*
X228593800Y-117759032D01*
X228630717Y-117920733D01*
X228679103Y-118077748D01*
X228738528Y-118229593D01*
X228808559Y-118375782D01*
X228888766Y-118515832D01*
X228978718Y-118649257D01*
X229077983Y-118775573D01*
X229186130Y-118894296D01*
X229302727Y-119004941D01*
X229427344Y-119107023D01*
X229559549Y-119200059D01*
X229698911Y-119283562D01*
X229844999Y-119357050D01*
X229997381Y-119420036D01*
X230155627Y-119472037D01*
X230188933Y-119481266D01*
X230296209Y-119506684D01*
X230406694Y-119526876D01*
X230515890Y-119541099D01*
X230619300Y-119548612D01*
X230650058Y-119549846D01*
X230684637Y-119551276D01*
X230714947Y-119552571D01*
X230736775Y-119553554D01*
X230744413Y-119553792D01*
X230768967Y-119553880D01*
X230801378Y-119553413D01*
X230838322Y-119552450D01*
X230876475Y-119551051D01*
X230883801Y-119550729D01*
X231048640Y-119537035D01*
X231209804Y-119511210D01*
X231367122Y-119473311D01*
X231520423Y-119423393D01*
X231669537Y-119361510D01*
X231814293Y-119287718D01*
X231954521Y-119202072D01*
X232002340Y-119169547D01*
X232140238Y-119066250D01*
X232268127Y-118955608D01*
X232385816Y-118837917D01*
X232493113Y-118713474D01*
X232589829Y-118582574D01*
X232675771Y-118445515D01*
X232750748Y-118302592D01*
X232814569Y-118154103D01*
X232867044Y-118000344D01*
X232907980Y-117841610D01*
X232937187Y-117678200D01*
X232954198Y-117524059D01*
X232961796Y-117353697D01*
X232957186Y-117186726D01*
X232940390Y-117023227D01*
X232911428Y-116863281D01*
X232870324Y-116706970D01*
X232817097Y-116554373D01*
X232751771Y-116405571D01*
X232674366Y-116260646D01*
X232584905Y-116119679D01*
X232483408Y-115982750D01*
X232468318Y-115964304D01*
X232432377Y-115922879D01*
X232390209Y-115876807D01*
X232343859Y-115828147D01*
X232295377Y-115778960D01*
X232246809Y-115731308D01*
X232200205Y-115687249D01*
X232157611Y-115648846D01*
X232121075Y-115618159D01*
X232073668Y-115581356D01*
X231941367Y-115488468D01*
X231805190Y-115407132D01*
X231664598Y-115337145D01*
X231519050Y-115278304D01*
X231368005Y-115230406D01*
X231210921Y-115193247D01*
X231047258Y-115166623D01*
X230876475Y-115150333D01*
X230842725Y-115148445D01*
X230681055Y-115147013D01*
X230519805Y-115157982D01*
X230359780Y-115181117D01*
X230201788Y-115216180D01*
X230046638Y-115262936D01*
X229895135Y-115321148D01*
X229748088Y-115390579D01*
X229606304Y-115470993D01*
X229470589Y-115562154D01*
X229339026Y-115665427D01*
X229214960Y-115778408D01*
X229100722Y-115899157D01*
X228996561Y-116027251D01*
X228902727Y-116162267D01*
X228819466Y-116303781D01*
X228747030Y-116451370D01*
X228685666Y-116604609D01*
X228635623Y-116763076D01*
X228597150Y-116926348D01*
X228570496Y-117094000D01*
X228564455Y-117155197D01*
X228559549Y-117244034D01*
X228558053Y-117338834D01*
X228039636Y-117338834D01*
X228039788Y-117301605D01*
X228039749Y-117252180D01*
X228039474Y-117208158D01*
X228038980Y-117170997D01*
X228038288Y-117142158D01*
X228037417Y-117123100D01*
X228036385Y-117115281D01*
X228035828Y-117114720D01*
X228026989Y-117108719D01*
X228008579Y-117097400D01*
X227981821Y-117081479D01*
X227947938Y-117061671D01*
X227908155Y-117038693D01*
X227863693Y-117013262D01*
X227815775Y-116986094D01*
X227804981Y-116979995D01*
X227757462Y-116953037D01*
X227713484Y-116927914D01*
X227674301Y-116905355D01*
X227641171Y-116886090D01*
X227615349Y-116870848D01*
X227598091Y-116860359D01*
X227590655Y-116855353D01*
X227588153Y-116851693D01*
X227585614Y-116839898D01*
X227585906Y-116820887D01*
X227589164Y-116793835D01*
X227595525Y-116757917D01*
X227605124Y-116712308D01*
X227618097Y-116656184D01*
X227634580Y-116588718D01*
X227641252Y-116562152D01*
X227662238Y-116481581D01*
X227682186Y-116409574D01*
X227700906Y-116346690D01*
X227718210Y-116293490D01*
X227733909Y-116250531D01*
X227747814Y-116218373D01*
X227759738Y-116197576D01*
X227769491Y-116188699D01*
X227770758Y-116188450D01*
X227783060Y-116187691D01*
X227806223Y-116187198D01*
X227838799Y-116186969D01*
X227879339Y-116187006D01*
X227926395Y-116187308D01*
X227978520Y-116187875D01*
X228034265Y-116188708D01*
X228050591Y-116188973D01*
X228105055Y-116189695D01*
X228155233Y-116190115D01*
X228199725Y-116190240D01*
X228237128Y-116190073D01*
X228266040Y-116189618D01*
X228285058Y-116188881D01*
X228292782Y-116187866D01*
X228293083Y-116187616D01*
X228299177Y-116179378D01*
X228310323Y-116161764D01*
X228325640Y-116136340D01*
X228344247Y-116104669D01*
X228365263Y-116068318D01*
X228387807Y-116028851D01*
X228410998Y-115987832D01*
X228433955Y-115946828D01*
X228455797Y-115907404D01*
X228475643Y-115871123D01*
X228492612Y-115839551D01*
X228505824Y-115814254D01*
X228514397Y-115796796D01*
X228517450Y-115788742D01*
X228517196Y-115787493D01*
X228512380Y-115776477D01*
X228501982Y-115756135D01*
X228486694Y-115727722D01*
X228467206Y-115692490D01*
X228444209Y-115651691D01*
X228418394Y-115606579D01*
X228390450Y-115558406D01*
X228382367Y-115544535D01*
X228354960Y-115497124D01*
X228329875Y-115453146D01*
X228307803Y-115413850D01*
X228289434Y-115380486D01*
X228275459Y-115354304D01*
X228266568Y-115336555D01*
X228263450Y-115328486D01*
X228263671Y-115326854D01*
X228269970Y-115314410D01*
X228284194Y-115294547D01*
X228305322Y-115268386D01*
X228332332Y-115237045D01*
X228364202Y-115201643D01*
X228399910Y-115163300D01*
X228438436Y-115123135D01*
X228478756Y-115082267D01*
X228519849Y-115041815D01*
X228560693Y-115002899D01*
X228577942Y-114986805D01*
X228621711Y-114946485D01*
X228657637Y-114914337D01*
X228686526Y-114889718D01*
X228709181Y-114871988D01*
X228726405Y-114860507D01*
X228739003Y-114854634D01*
X228747777Y-114853727D01*
X228749097Y-114854148D01*
X228760407Y-114859581D01*
X228781014Y-114870607D01*
X228809656Y-114886510D01*
X228845072Y-114906578D01*
X228886000Y-114930098D01*
X228931179Y-114956355D01*
X228979347Y-114984638D01*
X228994277Y-114993441D01*
X229041140Y-115020968D01*
X229084276Y-115046153D01*
X229122486Y-115068306D01*
X229154572Y-115086737D01*
X229179333Y-115100756D01*
X229195571Y-115109674D01*
X229202087Y-115112800D01*
X229205231Y-115111486D01*
X229218029Y-115104509D01*
X229239048Y-115092342D01*
X229266721Y-115075909D01*
X229299478Y-115056135D01*
X229335751Y-115033947D01*
X229349949Y-115025245D01*
X229391094Y-115000396D01*
X229431904Y-114976234D01*
X229469775Y-114954275D01*
X229502101Y-114936035D01*
X229526277Y-114923032D01*
X229547210Y-114911972D01*
X229570573Y-114898816D01*
X229587974Y-114888066D01*
X229596698Y-114881328D01*
X229596887Y-114881081D01*
X229598949Y-114875082D01*
X229600673Y-114862833D01*
X229602089Y-114843411D01*
X229603227Y-114815897D01*
X229604115Y-114779367D01*
X229604785Y-114732902D01*
X229605266Y-114675581D01*
X229605588Y-114606481D01*
X229606475Y-114341275D01*
X229742633Y-114295768D01*
X229765850Y-114288130D01*
X229823317Y-114270134D01*
X229882965Y-114252584D01*
X229943208Y-114235863D01*
X230002459Y-114220353D01*
X230059133Y-114206435D01*
X230111644Y-114194491D01*
X230158406Y-114184902D01*
X230197834Y-114178050D01*
X230228341Y-114174317D01*
X230248341Y-114174083D01*
X230248585Y-114174113D01*
X230253514Y-114175424D01*
X230258849Y-114178780D01*
X230265237Y-114185184D01*
X230273324Y-114195638D01*
X230283757Y-114211145D01*
X230297183Y-114232708D01*
X230314248Y-114261330D01*
X230335599Y-114298013D01*
X230361882Y-114343760D01*
X230393744Y-114399574D01*
X230404400Y-114418263D01*
X230431511Y-114465720D01*
X230456458Y-114509261D01*
X230478555Y-114547699D01*
X230497118Y-114579845D01*
X230511461Y-114604514D01*
X230520900Y-114620516D01*
X230524748Y-114626664D01*
X230531468Y-114627517D01*
X230549490Y-114628365D01*
X230577355Y-114629162D01*
X230613620Y-114629879D01*
X230656843Y-114630489D01*
X230705579Y-114630962D01*
X230758387Y-114631271D01*
X230784064Y-114631363D01*
X230841258Y-114631453D01*
X230887376Y-114631307D01*
X230923585Y-114630885D01*
X230951051Y-114630147D01*
X230970940Y-114629054D01*
X230984418Y-114627568D01*
X230992653Y-114625648D01*
X230996809Y-114623256D01*
X230997484Y-114622402D01*
X231003817Y-114612448D01*
X231015428Y-114592961D01*
X231031598Y-114565193D01*
X231051607Y-114530394D01*
X231074735Y-114489813D01*
X231100261Y-114444702D01*
X231127467Y-114396312D01*
X231134761Y-114383321D01*
X231161581Y-114335958D01*
X231186583Y-114292423D01*
X231209045Y-114253931D01*
X231228247Y-114221697D01*
X231243467Y-114196934D01*
X231253985Y-114180857D01*
X231259079Y-114174681D01*
X231259126Y-114174663D01*
X231270122Y-114174169D01*
X231291565Y-114176264D01*
X231321564Y-114180607D01*
X231358228Y-114186858D01*
X231399666Y-114194675D01*
X231443984Y-114203719D01*
X231489293Y-114213648D01*
X231533700Y-114224123D01*
X231556928Y-114229926D01*
X231612837Y-114244674D01*
X231668166Y-114260276D01*
X231721446Y-114276240D01*
X231771212Y-114292076D01*
X231815993Y-114307291D01*
X231854324Y-114321395D01*
X231884736Y-114333895D01*
X231905762Y-114344301D01*
X231915934Y-114352120D01*
X231916398Y-114353818D01*
X231917383Y-114366411D01*
X231918085Y-114389807D01*
X231918498Y-114422645D01*
X231918617Y-114463566D01*
X231918435Y-114511211D01*
X231917947Y-114564221D01*
X231917145Y-114621235D01*
X231912869Y-114882146D01*
X231997922Y-114926740D01*
X232018447Y-114937636D01*
X232071665Y-114966915D01*
X232126856Y-114998539D01*
X232180673Y-115030534D01*
X232229766Y-115060923D01*
X232270788Y-115087731D01*
X232271168Y-115087988D01*
X232290941Y-115100496D01*
X232307521Y-115109405D01*
X232317354Y-115112799D01*
X232322549Y-115111345D01*
X232337452Y-115104455D01*
X232358458Y-115093191D01*
X232382790Y-115078988D01*
X232386571Y-115076702D01*
X232408781Y-115063388D01*
X232439526Y-115045080D01*
X232476849Y-115022937D01*
X232518795Y-114998119D01*
X232563406Y-114971786D01*
X232608726Y-114945096D01*
X232613662Y-114942193D01*
X232660455Y-114914737D01*
X232697672Y-114893114D01*
X232726537Y-114876718D01*
X232748273Y-114864948D01*
X232764105Y-114857200D01*
X232775257Y-114852871D01*
X232782954Y-114851357D01*
X232788419Y-114852057D01*
X232792876Y-114854366D01*
X232800565Y-114860011D01*
X232819521Y-114875538D01*
X232844919Y-114897532D01*
X232875127Y-114924487D01*
X232908512Y-114954897D01*
X232943440Y-114987258D01*
X232978278Y-115020062D01*
X233011394Y-115051805D01*
X233041153Y-115080982D01*
X233065922Y-115106085D01*
X233098697Y-115140655D01*
X233133587Y-115178624D01*
X233166046Y-115215113D01*
X233195004Y-115248850D01*
X233219395Y-115278561D01*
X233238149Y-115302973D01*
X233250199Y-115320813D01*
X233254477Y-115330808D01*
X233252605Y-115335579D01*
X233245075Y-115350427D01*
X233232495Y-115373822D01*
X233215638Y-115404409D01*
X233195275Y-115440833D01*
X233172179Y-115481738D01*
X233147121Y-115525770D01*
X233120873Y-115571571D01*
X233094207Y-115617789D01*
X233067896Y-115663066D01*
X233042710Y-115706048D01*
X233019423Y-115745379D01*
X232998806Y-115779704D01*
X232998224Y-115783615D01*
X233001186Y-115794154D01*
X233009079Y-115811383D01*
X233022410Y-115836287D01*
X233041684Y-115869850D01*
X233067408Y-115913054D01*
X233071072Y-115919150D01*
X233096091Y-115961300D01*
X233121552Y-116004997D01*
X233145683Y-116047147D01*
X233166710Y-116084660D01*
X233182862Y-116114444D01*
X233223844Y-116192164D01*
X233494289Y-116193819D01*
X233764735Y-116195475D01*
X233792704Y-116274850D01*
X233809765Y-116325091D01*
X233829154Y-116386317D01*
X233848097Y-116450171D01*
X233866135Y-116514824D01*
X233882804Y-116578446D01*
X233897643Y-116639208D01*
X233910191Y-116695280D01*
X233919987Y-116744833D01*
X233926569Y-116786038D01*
X233929475Y-116817064D01*
X233930825Y-116854454D01*
X233889550Y-116879930D01*
X233882734Y-116884057D01*
X233861990Y-116896278D01*
X233832756Y-116913236D01*
X233796738Y-116933952D01*
X233755640Y-116957446D01*
X233711168Y-116982740D01*
X233665026Y-117008855D01*
X233635001Y-117025821D01*
X233593388Y-117049388D01*
X233556284Y-117070465D01*
X233524998Y-117088304D01*
X233500844Y-117102157D01*
X233485132Y-117111274D01*
X233479175Y-117114909D01*
X233478572Y-117121485D01*
X233477985Y-117139352D01*
X233477440Y-117167069D01*
X233476955Y-117203205D01*
X233476550Y-117246325D01*
X233476245Y-117294997D01*
X233476057Y-117347787D01*
X233476045Y-117353697D01*
X233476043Y-117354565D01*
G37*
%TD*%
M02*
