%TF.GenerationSoftware,KiCad,Pcbnew,8.0.7-8.0.7-0~ubuntu24.04.1*%
%TF.CreationDate,2025-01-05T10:18:17-08:00*%
%TF.ProjectId,mini-pdb,6d696e69-2d70-4646-922e-6b696361645f,1.1*%
%TF.SameCoordinates,Original*%
%TF.FileFunction,Copper,L2,Bot*%
%TF.FilePolarity,Positive*%
%FSLAX46Y46*%
G04 Gerber Fmt 4.6, Leading zero omitted, Abs format (unit mm)*
G04 Created by KiCad (PCBNEW 8.0.7-8.0.7-0~ubuntu24.04.1) date 2025-01-05 10:18:17*
%MOMM*%
%LPD*%
G01*
G04 APERTURE LIST*
%TA.AperFunction,ComponentPad*%
%ADD10C,3.000000*%
%TD*%
%TA.AperFunction,ComponentPad*%
%ADD11C,2.500000*%
%TD*%
%TA.AperFunction,ViaPad*%
%ADD12C,1.270000*%
%TD*%
G04 APERTURE END LIST*
D10*
%TO.P,F5,1*%
%TO.N,/VBAT+*%
X227274920Y-112325000D03*
X223874920Y-112325000D03*
%TO.P,F5,2*%
%TO.N,/F5_OUT*%
X227274920Y-122225000D03*
X223874920Y-122225000D03*
%TD*%
%TO.P,F3,1*%
%TO.N,/VBAT+*%
X207274960Y-112325000D03*
X203874960Y-112325000D03*
%TO.P,F3,2*%
%TO.N,/F3_OUT*%
X207274960Y-122225000D03*
X203874960Y-122225000D03*
%TD*%
%TO.P,F4,1*%
%TO.N,/VBAT+*%
X217274940Y-112325000D03*
X213874940Y-112325000D03*
%TO.P,F4,2*%
%TO.N,/F4_OUT*%
X217274940Y-122225000D03*
X213874940Y-122225000D03*
%TD*%
D11*
%TO.P,J2,1,Pin_1*%
%TO.N,/VBAT+*%
X236625000Y-129125000D03*
X244824999Y-129125000D03*
%TO.P,J2,2,Pin_2*%
%TO.N,/VBAT-*%
X236625000Y-124124998D03*
X244824999Y-124124998D03*
%TD*%
%TO.P,J1,1,Pin_1*%
%TO.N,/VBAT+*%
X174925000Y-123025000D03*
X166725001Y-123025000D03*
%TO.P,J1,2,Pin_2*%
%TO.N,/VBAT-*%
X174925000Y-128025002D03*
X166725001Y-128025002D03*
%TD*%
D10*
%TO.P,F2,1*%
%TO.N,/VBAT+*%
X197274980Y-112325000D03*
X193874980Y-112325000D03*
%TO.P,F2,2*%
%TO.N,/F2_OUT*%
X197274980Y-122225000D03*
X193874980Y-122225000D03*
%TD*%
%TO.P,F1,1*%
%TO.N,/VBAT+*%
X187275000Y-112325000D03*
X183875000Y-112325000D03*
%TO.P,F1,2*%
%TO.N,/F1_OUT*%
X187275000Y-122225000D03*
X183875000Y-122225000D03*
%TD*%
D11*
%TO.P,J3,1,Pin_1*%
%TO.N,/F1_OUT*%
X182725000Y-131525000D03*
X182725000Y-139724999D03*
%TO.P,J3,2,Pin_2*%
%TO.N,/VBAT-*%
X187725002Y-131525000D03*
X187725002Y-139724999D03*
%TO.P,J3,3,Pin_3*%
%TO.N,/F2_OUT*%
X192725003Y-131525000D03*
X192725003Y-139724999D03*
%TO.P,J3,4,Pin_4*%
%TO.N,/VBAT-*%
X197725003Y-131525000D03*
X197725003Y-139724999D03*
%TO.P,J3,5,Pin_5*%
%TO.N,/F3_OUT*%
X202725003Y-131525000D03*
X202725003Y-139724999D03*
%TO.P,J3,6,Pin_6*%
%TO.N,/VBAT-*%
X207725003Y-131525000D03*
X207725003Y-139724999D03*
%TO.P,J3,7,Pin_7*%
%TO.N,/F4_OUT*%
X212725003Y-131525000D03*
X212725003Y-139724999D03*
%TO.P,J3,8,Pin_8*%
%TO.N,/VBAT-*%
X217725003Y-131525000D03*
X217725003Y-139724999D03*
%TO.P,J3,9,Pin_9*%
%TO.N,/F5_OUT*%
X222725003Y-131525000D03*
X222725003Y-139724999D03*
%TO.P,J3,10,Pin_10*%
%TO.N,/VBAT-*%
X227725004Y-131525000D03*
X227725004Y-139724999D03*
%TD*%
D12*
%TO.N,/VBAT+*%
X235712000Y-120523000D03*
X236220000Y-117856000D03*
X232918000Y-121539000D03*
X238633000Y-119888000D03*
X233426000Y-118745000D03*
%TD*%
%TA.AperFunction,Conductor*%
%TO.N,/F1_OUT*%
G36*
X190094980Y-119126645D02*
G01*
X190256352Y-119143182D01*
X190281103Y-119148309D01*
X190429699Y-119195314D01*
X190452897Y-119205356D01*
X190588864Y-119281520D01*
X190609541Y-119296056D01*
X190713757Y-119386517D01*
X190751481Y-119445326D01*
X190751421Y-119515196D01*
X190749040Y-119522447D01*
X190710920Y-119627523D01*
X190702073Y-119654199D01*
X190698089Y-119667439D01*
X190690758Y-119694495D01*
X190440562Y-120731021D01*
X190281989Y-121387968D01*
X190108578Y-122106386D01*
X190079948Y-122224997D01*
X189719332Y-123718978D01*
X189592337Y-124245099D01*
X189104291Y-126267000D01*
X189100995Y-126281597D01*
X189099479Y-126288811D01*
X189096626Y-126303458D01*
X189079980Y-126396181D01*
X189075564Y-126425794D01*
X189073833Y-126440341D01*
X189071179Y-126470146D01*
X189071178Y-126470161D01*
X189068961Y-126507566D01*
X189065603Y-126564203D01*
X189064937Y-126579183D01*
X189064719Y-126586544D01*
X189064500Y-126601421D01*
X189064500Y-130095700D01*
X189044815Y-130162739D01*
X188992011Y-130208494D01*
X188922853Y-130218438D01*
X188859297Y-130189413D01*
X188856160Y-130186599D01*
X188819485Y-130152570D01*
X188819481Y-130152567D01*
X188602706Y-130004772D01*
X188602702Y-130004770D01*
X188602699Y-130004768D01*
X188602698Y-130004767D01*
X188366327Y-129890938D01*
X188366329Y-129890938D01*
X188115625Y-129813606D01*
X188115621Y-129813605D01*
X188115617Y-129813604D01*
X187990825Y-129794794D01*
X187856189Y-129774500D01*
X187856184Y-129774500D01*
X187593820Y-129774500D01*
X187593814Y-129774500D01*
X187432249Y-129798853D01*
X187334387Y-129813604D01*
X187334384Y-129813605D01*
X187334378Y-129813606D01*
X187083675Y-129890938D01*
X186847305Y-130004767D01*
X186847304Y-130004768D01*
X186630522Y-130152567D01*
X186438200Y-130331014D01*
X186274616Y-130536143D01*
X186143434Y-130763356D01*
X186047584Y-131007578D01*
X186047578Y-131007597D01*
X185989199Y-131263374D01*
X185989198Y-131263379D01*
X185969594Y-131524995D01*
X185969594Y-131525004D01*
X185989198Y-131786620D01*
X185989199Y-131786625D01*
X186047578Y-132042402D01*
X186047580Y-132042411D01*
X186047582Y-132042416D01*
X186143434Y-132286643D01*
X186274616Y-132513857D01*
X186383384Y-132650248D01*
X186438200Y-132718985D01*
X186593845Y-132863401D01*
X186630523Y-132897433D01*
X186847298Y-133045228D01*
X186847303Y-133045230D01*
X186847304Y-133045231D01*
X186847305Y-133045232D01*
X186972845Y-133105688D01*
X187083675Y-133159061D01*
X187083676Y-133159061D01*
X187083679Y-133159063D01*
X187334387Y-133236396D01*
X187593820Y-133275500D01*
X187856184Y-133275500D01*
X188115617Y-133236396D01*
X188366325Y-133159063D01*
X188602706Y-133045228D01*
X188819481Y-132897433D01*
X188856159Y-132863400D01*
X188918691Y-132832232D01*
X188988147Y-132839819D01*
X189042476Y-132883752D01*
X189064428Y-132950084D01*
X189064500Y-132954299D01*
X189064500Y-138295699D01*
X189044815Y-138362738D01*
X188992011Y-138408493D01*
X188922853Y-138418437D01*
X188859297Y-138389412D01*
X188856160Y-138386598D01*
X188819485Y-138352569D01*
X188819481Y-138352566D01*
X188602706Y-138204771D01*
X188602702Y-138204769D01*
X188602699Y-138204767D01*
X188602698Y-138204766D01*
X188366327Y-138090937D01*
X188366329Y-138090937D01*
X188115625Y-138013605D01*
X188115621Y-138013604D01*
X188115617Y-138013603D01*
X187990825Y-137994793D01*
X187856189Y-137974499D01*
X187856184Y-137974499D01*
X187593820Y-137974499D01*
X187593814Y-137974499D01*
X187432249Y-137998852D01*
X187334387Y-138013603D01*
X187334384Y-138013604D01*
X187334378Y-138013605D01*
X187083675Y-138090937D01*
X186847305Y-138204766D01*
X186847304Y-138204767D01*
X186630522Y-138352566D01*
X186438200Y-138531013D01*
X186274616Y-138736142D01*
X186143434Y-138963355D01*
X186047584Y-139207577D01*
X186047578Y-139207596D01*
X185989199Y-139463373D01*
X185989198Y-139463378D01*
X185969594Y-139724994D01*
X185969594Y-139725003D01*
X185989198Y-139986619D01*
X185989199Y-139986624D01*
X186047578Y-140242401D01*
X186047580Y-140242410D01*
X186047582Y-140242415D01*
X186143434Y-140486642D01*
X186274616Y-140713856D01*
X186383384Y-140850247D01*
X186438200Y-140918984D01*
X186593845Y-141063400D01*
X186630523Y-141097432D01*
X186847298Y-141245227D01*
X186847303Y-141245229D01*
X186847304Y-141245230D01*
X186847305Y-141245231D01*
X186972845Y-141305687D01*
X187083675Y-141359060D01*
X187083676Y-141359060D01*
X187083679Y-141359062D01*
X187334387Y-141436395D01*
X187593820Y-141475499D01*
X187856184Y-141475499D01*
X188115617Y-141436395D01*
X188366325Y-141359062D01*
X188602706Y-141245227D01*
X188819481Y-141097432D01*
X188856159Y-141063399D01*
X188918691Y-141032231D01*
X188988147Y-141039818D01*
X189042476Y-141083751D01*
X189064428Y-141150083D01*
X189064500Y-141154298D01*
X189064500Y-141863714D01*
X189065282Y-141891833D01*
X189066049Y-141905597D01*
X189068393Y-141933629D01*
X189081845Y-142054037D01*
X189081848Y-142054054D01*
X189088003Y-142109151D01*
X189088008Y-142109187D01*
X189097336Y-142164564D01*
X189097338Y-142164575D01*
X189097339Y-142164578D01*
X189103414Y-142191432D01*
X189110558Y-142216456D01*
X189110037Y-142286322D01*
X189071825Y-142344816D01*
X189008055Y-142373366D01*
X188991324Y-142374500D01*
X179800853Y-142374500D01*
X179733814Y-142354815D01*
X179695551Y-142315978D01*
X179663910Y-142265093D01*
X179652055Y-142240239D01*
X179596455Y-142079895D01*
X179590380Y-142053041D01*
X179577039Y-141933629D01*
X179570767Y-141877485D01*
X179570000Y-141863717D01*
X179570000Y-141269521D01*
X181898897Y-141269521D01*
X182083855Y-141358593D01*
X182083858Y-141358594D01*
X182334494Y-141435906D01*
X182334500Y-141435908D01*
X182593848Y-141474998D01*
X182593857Y-141474999D01*
X182856143Y-141474999D01*
X182856151Y-141474998D01*
X183115499Y-141435908D01*
X183115505Y-141435906D01*
X183366141Y-141358594D01*
X183366145Y-141358593D01*
X183551102Y-141269521D01*
X182725000Y-140443419D01*
X181898897Y-141269521D01*
X179570000Y-141269521D01*
X179570000Y-140938495D01*
X179586613Y-140876495D01*
X179601768Y-140850246D01*
X179719381Y-140646534D01*
X179826508Y-140387907D01*
X179898961Y-140117509D01*
X179935500Y-139839968D01*
X179935500Y-139724994D01*
X180970093Y-139724994D01*
X180970093Y-139725003D01*
X180989692Y-139986544D01*
X180989693Y-139986549D01*
X181048058Y-140242269D01*
X181143880Y-140486418D01*
X181143882Y-140486422D01*
X181180950Y-140550627D01*
X182006580Y-139724999D01*
X181937784Y-139656203D01*
X182026500Y-139656203D01*
X182026500Y-139793795D01*
X182053343Y-139928744D01*
X182105997Y-140055863D01*
X182182439Y-140170267D01*
X182279732Y-140267560D01*
X182394136Y-140344002D01*
X182521255Y-140396656D01*
X182656204Y-140423499D01*
X182793796Y-140423499D01*
X182928745Y-140396656D01*
X183055864Y-140344002D01*
X183170268Y-140267560D01*
X183267561Y-140170267D01*
X183344003Y-140055863D01*
X183396657Y-139928744D01*
X183423500Y-139793795D01*
X183423500Y-139724998D01*
X183443420Y-139724998D01*
X183443420Y-139724999D01*
X184269048Y-140550628D01*
X184269049Y-140550628D01*
X184306116Y-140486425D01*
X184401941Y-140242269D01*
X184460306Y-139986549D01*
X184460307Y-139986544D01*
X184479907Y-139725003D01*
X184479907Y-139724994D01*
X184460307Y-139463453D01*
X184460306Y-139463448D01*
X184401941Y-139207728D01*
X184306116Y-138963572D01*
X184306117Y-138963572D01*
X184269048Y-138899369D01*
X183443420Y-139724998D01*
X183423500Y-139724998D01*
X183423500Y-139656203D01*
X183396657Y-139521254D01*
X183344003Y-139394135D01*
X183267561Y-139279731D01*
X183170268Y-139182438D01*
X183055864Y-139105996D01*
X182928745Y-139053342D01*
X182793796Y-139026499D01*
X182656204Y-139026499D01*
X182521255Y-139053342D01*
X182394136Y-139105996D01*
X182279732Y-139182438D01*
X182182439Y-139279731D01*
X182105997Y-139394135D01*
X182053343Y-139521254D01*
X182026500Y-139656203D01*
X181937784Y-139656203D01*
X181180950Y-138899369D01*
X181143883Y-138963571D01*
X181048057Y-139207734D01*
X180989693Y-139463448D01*
X180989692Y-139463453D01*
X180970093Y-139724994D01*
X179935500Y-139724994D01*
X179935500Y-139560032D01*
X179898961Y-139282491D01*
X179826508Y-139012093D01*
X179770055Y-138875804D01*
X179719386Y-138753477D01*
X179719379Y-138753462D01*
X179586613Y-138523504D01*
X179570000Y-138461504D01*
X179570000Y-138180476D01*
X181898897Y-138180476D01*
X182725000Y-139006579D01*
X182725001Y-139006579D01*
X183551103Y-138180476D01*
X183551102Y-138180474D01*
X183366142Y-138091403D01*
X183366144Y-138091403D01*
X183115505Y-138014091D01*
X183115499Y-138014089D01*
X182856151Y-137974999D01*
X182593848Y-137974999D01*
X182334500Y-138014089D01*
X182334494Y-138014091D01*
X182083858Y-138091403D01*
X182083854Y-138091404D01*
X181898897Y-138180476D01*
X179570000Y-138180476D01*
X179570000Y-133069522D01*
X181898897Y-133069522D01*
X182083855Y-133158594D01*
X182083858Y-133158595D01*
X182334494Y-133235907D01*
X182334500Y-133235909D01*
X182593848Y-133274999D01*
X182593857Y-133275000D01*
X182856143Y-133275000D01*
X182856151Y-133274999D01*
X183115499Y-133235909D01*
X183115505Y-133235907D01*
X183366141Y-133158595D01*
X183366145Y-133158594D01*
X183551102Y-133069522D01*
X182725000Y-132243420D01*
X181898897Y-133069522D01*
X179570000Y-133069522D01*
X179570000Y-131524995D01*
X180970093Y-131524995D01*
X180970093Y-131525004D01*
X180989692Y-131786545D01*
X180989693Y-131786550D01*
X181048058Y-132042270D01*
X181143880Y-132286419D01*
X181143882Y-132286423D01*
X181180950Y-132350628D01*
X182006580Y-131525000D01*
X181937784Y-131456204D01*
X182026500Y-131456204D01*
X182026500Y-131593796D01*
X182053343Y-131728745D01*
X182105997Y-131855864D01*
X182182439Y-131970268D01*
X182279732Y-132067561D01*
X182394136Y-132144003D01*
X182521255Y-132196657D01*
X182656204Y-132223500D01*
X182793796Y-132223500D01*
X182928745Y-132196657D01*
X183055864Y-132144003D01*
X183170268Y-132067561D01*
X183267561Y-131970268D01*
X183344003Y-131855864D01*
X183396657Y-131728745D01*
X183423500Y-131593796D01*
X183423500Y-131524999D01*
X183443420Y-131524999D01*
X183443420Y-131525000D01*
X184269048Y-132350629D01*
X184269049Y-132350629D01*
X184306116Y-132286426D01*
X184401941Y-132042270D01*
X184460306Y-131786550D01*
X184460307Y-131786545D01*
X184479907Y-131525004D01*
X184479907Y-131524995D01*
X184460307Y-131263454D01*
X184460306Y-131263449D01*
X184401941Y-131007729D01*
X184306116Y-130763573D01*
X184306117Y-130763573D01*
X184269048Y-130699370D01*
X183443420Y-131524999D01*
X183423500Y-131524999D01*
X183423500Y-131456204D01*
X183396657Y-131321255D01*
X183344003Y-131194136D01*
X183267561Y-131079732D01*
X183170268Y-130982439D01*
X183055864Y-130905997D01*
X182928745Y-130853343D01*
X182793796Y-130826500D01*
X182656204Y-130826500D01*
X182521255Y-130853343D01*
X182394136Y-130905997D01*
X182279732Y-130982439D01*
X182182439Y-131079732D01*
X182105997Y-131194136D01*
X182053343Y-131321255D01*
X182026500Y-131456204D01*
X181937784Y-131456204D01*
X181180950Y-130699370D01*
X181143883Y-130763572D01*
X181048057Y-131007735D01*
X180989693Y-131263449D01*
X180989692Y-131263454D01*
X180970093Y-131524995D01*
X179570000Y-131524995D01*
X179570000Y-129980477D01*
X181898897Y-129980477D01*
X182725000Y-130806580D01*
X182725001Y-130806580D01*
X183551103Y-129980477D01*
X183551102Y-129980475D01*
X183366142Y-129891404D01*
X183366144Y-129891404D01*
X183115505Y-129814092D01*
X183115499Y-129814090D01*
X182856151Y-129775000D01*
X182593848Y-129775000D01*
X182334500Y-129814090D01*
X182334494Y-129814092D01*
X182083858Y-129891404D01*
X182083854Y-129891405D01*
X181898897Y-129980477D01*
X179570000Y-129980477D01*
X179570000Y-126601452D01*
X179570217Y-126594114D01*
X179575792Y-126500077D01*
X179577526Y-126485505D01*
X179585634Y-126440341D01*
X179594174Y-126392771D01*
X179595677Y-126385622D01*
X180083725Y-124363710D01*
X180599966Y-122224997D01*
X181869891Y-122224997D01*
X181890300Y-122510362D01*
X181951109Y-122789895D01*
X182051091Y-123057958D01*
X182147344Y-123234232D01*
X182147345Y-123234232D01*
X183075462Y-122306116D01*
X183105743Y-122458351D01*
X183166049Y-122603942D01*
X183253599Y-122734970D01*
X183365030Y-122846401D01*
X183496058Y-122933951D01*
X183641649Y-122994257D01*
X183793882Y-123024537D01*
X182865766Y-123952653D01*
X182865766Y-123952654D01*
X183042042Y-124048908D01*
X183042041Y-124048908D01*
X183310104Y-124148890D01*
X183589637Y-124209699D01*
X183874999Y-124230109D01*
X183875001Y-124230109D01*
X184160362Y-124209699D01*
X184439895Y-124148890D01*
X184707957Y-124048908D01*
X184884232Y-123952654D01*
X184884232Y-123952653D01*
X183956118Y-123024537D01*
X184108351Y-122994257D01*
X184253942Y-122933951D01*
X184384970Y-122846401D01*
X184496401Y-122734970D01*
X184583951Y-122603942D01*
X184644257Y-122458351D01*
X184674537Y-122306117D01*
X185574999Y-123206579D01*
X186475462Y-122306116D01*
X186505743Y-122458351D01*
X186566049Y-122603942D01*
X186653599Y-122734970D01*
X186765030Y-122846401D01*
X186896058Y-122933951D01*
X187041649Y-122994257D01*
X187193882Y-123024537D01*
X186265766Y-123952653D01*
X186265766Y-123952654D01*
X186442042Y-124048908D01*
X186442041Y-124048908D01*
X186710104Y-124148890D01*
X186989637Y-124209699D01*
X187274999Y-124230109D01*
X187275001Y-124230109D01*
X187560362Y-124209699D01*
X187839895Y-124148890D01*
X188107957Y-124048908D01*
X188284232Y-123952654D01*
X188284232Y-123952653D01*
X187356118Y-123024537D01*
X187508351Y-122994257D01*
X187653942Y-122933951D01*
X187784970Y-122846401D01*
X187896401Y-122734970D01*
X187983951Y-122603942D01*
X188044257Y-122458351D01*
X188074537Y-122306118D01*
X189002653Y-123234232D01*
X189002654Y-123234232D01*
X189098908Y-123057957D01*
X189198890Y-122789895D01*
X189259699Y-122510362D01*
X189280109Y-122224997D01*
X189259699Y-121939637D01*
X189198890Y-121660104D01*
X189098908Y-121392042D01*
X189002653Y-121215766D01*
X188074537Y-122143881D01*
X188044257Y-121991649D01*
X187983951Y-121846058D01*
X187896401Y-121715030D01*
X187784970Y-121603599D01*
X187653942Y-121516049D01*
X187508351Y-121455743D01*
X187356117Y-121425462D01*
X188284232Y-120497345D01*
X188284232Y-120497344D01*
X188107958Y-120401091D01*
X187839895Y-120301109D01*
X187560362Y-120240300D01*
X187275001Y-120219891D01*
X187274999Y-120219891D01*
X186989637Y-120240300D01*
X186710104Y-120301109D01*
X186442047Y-120401089D01*
X186265766Y-120497344D01*
X186265766Y-120497345D01*
X187193883Y-121425462D01*
X187041649Y-121455743D01*
X186896058Y-121516049D01*
X186765030Y-121603599D01*
X186653599Y-121715030D01*
X186566049Y-121846058D01*
X186505743Y-121991649D01*
X186475462Y-122143882D01*
X185575001Y-121243420D01*
X185575000Y-121243420D01*
X184674537Y-122143882D01*
X184644257Y-121991649D01*
X184583951Y-121846058D01*
X184496401Y-121715030D01*
X184384970Y-121603599D01*
X184253942Y-121516049D01*
X184108351Y-121455743D01*
X183956117Y-121425462D01*
X184884232Y-120497345D01*
X184884232Y-120497344D01*
X184707958Y-120401091D01*
X184439895Y-120301109D01*
X184160362Y-120240300D01*
X183875001Y-120219891D01*
X183874999Y-120219891D01*
X183589637Y-120240300D01*
X183310104Y-120301109D01*
X183042047Y-120401089D01*
X182865766Y-120497344D01*
X182865766Y-120497345D01*
X183793883Y-121425462D01*
X183641649Y-121455743D01*
X183496058Y-121516049D01*
X183365030Y-121603599D01*
X183253599Y-121715030D01*
X183166049Y-121846058D01*
X183105743Y-121991649D01*
X183075462Y-122143883D01*
X182147345Y-121215766D01*
X182147344Y-121215766D01*
X182051089Y-121392047D01*
X181951109Y-121660104D01*
X181890300Y-121939637D01*
X181869891Y-122224997D01*
X180599966Y-122224997D01*
X180773377Y-121506579D01*
X181182145Y-119813111D01*
X181186116Y-119799918D01*
X181246312Y-119633989D01*
X181258496Y-119609347D01*
X181350052Y-119466611D01*
X181367375Y-119445255D01*
X181488146Y-119326226D01*
X181509753Y-119309214D01*
X181653800Y-119219742D01*
X181678620Y-119207916D01*
X181838851Y-119152408D01*
X181865668Y-119146345D01*
X182041091Y-119126764D01*
X182054846Y-119126000D01*
X190082340Y-119126000D01*
X190094980Y-119126645D01*
G37*
%TD.AperFunction*%
%TD*%
%TA.AperFunction,Conductor*%
%TO.N,/F2_OUT*%
G36*
X200094980Y-119126645D02*
G01*
X200256352Y-119143182D01*
X200281103Y-119148309D01*
X200429699Y-119195314D01*
X200452897Y-119205356D01*
X200588864Y-119281520D01*
X200609541Y-119296056D01*
X200713757Y-119386517D01*
X200751481Y-119445326D01*
X200751421Y-119515196D01*
X200749040Y-119522447D01*
X200710920Y-119627523D01*
X200702073Y-119654199D01*
X200698089Y-119667439D01*
X200690758Y-119694495D01*
X200440562Y-120731021D01*
X200280264Y-121395113D01*
X200280263Y-121395117D01*
X200108578Y-122106387D01*
X200079948Y-122224997D01*
X199719332Y-123718978D01*
X199592337Y-124245099D01*
X199104293Y-126266991D01*
X199100998Y-126281589D01*
X199099477Y-126288822D01*
X199096634Y-126303415D01*
X199088088Y-126351020D01*
X199079981Y-126396174D01*
X199075564Y-126425793D01*
X199073833Y-126440341D01*
X199073833Y-126440346D01*
X199071178Y-126470161D01*
X199067632Y-126529983D01*
X199065603Y-126564203D01*
X199064937Y-126579183D01*
X199064719Y-126586544D01*
X199064500Y-126601421D01*
X199064500Y-130095699D01*
X199044815Y-130162738D01*
X198992011Y-130208493D01*
X198922853Y-130218437D01*
X198859297Y-130189412D01*
X198856160Y-130186599D01*
X198819482Y-130152567D01*
X198736072Y-130095699D01*
X198602707Y-130004772D01*
X198602703Y-130004770D01*
X198602700Y-130004768D01*
X198602699Y-130004767D01*
X198366328Y-129890938D01*
X198366330Y-129890938D01*
X198115626Y-129813606D01*
X198115622Y-129813605D01*
X198115618Y-129813604D01*
X197990826Y-129794794D01*
X197856190Y-129774500D01*
X197856185Y-129774500D01*
X197593821Y-129774500D01*
X197593815Y-129774500D01*
X197432250Y-129798853D01*
X197334388Y-129813604D01*
X197334385Y-129813605D01*
X197334379Y-129813606D01*
X197083676Y-129890938D01*
X196847306Y-130004767D01*
X196847305Y-130004768D01*
X196630523Y-130152567D01*
X196438201Y-130331014D01*
X196274617Y-130536143D01*
X196143435Y-130763356D01*
X196047585Y-131007578D01*
X196047579Y-131007597D01*
X195989200Y-131263374D01*
X195989199Y-131263379D01*
X195969595Y-131524995D01*
X195969595Y-131525004D01*
X195989199Y-131786620D01*
X195989200Y-131786625D01*
X196047579Y-132042402D01*
X196047581Y-132042411D01*
X196047583Y-132042416D01*
X196143435Y-132286643D01*
X196274617Y-132513857D01*
X196383385Y-132650248D01*
X196438201Y-132718985D01*
X196593847Y-132863402D01*
X196630524Y-132897433D01*
X196847299Y-133045228D01*
X196847304Y-133045230D01*
X196847305Y-133045231D01*
X196847306Y-133045232D01*
X196972846Y-133105688D01*
X197083676Y-133159061D01*
X197083677Y-133159061D01*
X197083680Y-133159063D01*
X197334388Y-133236396D01*
X197593821Y-133275500D01*
X197856185Y-133275500D01*
X198115618Y-133236396D01*
X198366326Y-133159063D01*
X198602707Y-133045228D01*
X198819482Y-132897433D01*
X198856159Y-132863402D01*
X198918691Y-132832233D01*
X198988147Y-132839820D01*
X199042476Y-132883753D01*
X199064428Y-132950085D01*
X199064500Y-132954300D01*
X199064500Y-138295698D01*
X199044815Y-138362737D01*
X198992011Y-138408492D01*
X198922853Y-138418436D01*
X198859297Y-138389411D01*
X198856160Y-138386598D01*
X198819482Y-138352566D01*
X198736072Y-138295698D01*
X198602707Y-138204771D01*
X198602703Y-138204769D01*
X198602700Y-138204767D01*
X198602699Y-138204766D01*
X198366328Y-138090937D01*
X198366330Y-138090937D01*
X198115626Y-138013605D01*
X198115622Y-138013604D01*
X198115618Y-138013603D01*
X197990826Y-137994793D01*
X197856190Y-137974499D01*
X197856185Y-137974499D01*
X197593821Y-137974499D01*
X197593815Y-137974499D01*
X197432250Y-137998852D01*
X197334388Y-138013603D01*
X197334385Y-138013604D01*
X197334379Y-138013605D01*
X197083676Y-138090937D01*
X196847306Y-138204766D01*
X196847305Y-138204767D01*
X196630523Y-138352566D01*
X196438201Y-138531013D01*
X196274617Y-138736142D01*
X196143435Y-138963355D01*
X196047585Y-139207577D01*
X196047579Y-139207596D01*
X195989200Y-139463373D01*
X195989199Y-139463378D01*
X195969595Y-139724994D01*
X195969595Y-139725003D01*
X195989199Y-139986619D01*
X195989200Y-139986624D01*
X196047579Y-140242401D01*
X196047581Y-140242410D01*
X196047583Y-140242415D01*
X196143435Y-140486642D01*
X196274617Y-140713856D01*
X196383385Y-140850247D01*
X196438201Y-140918984D01*
X196593847Y-141063401D01*
X196630524Y-141097432D01*
X196847299Y-141245227D01*
X196847304Y-141245229D01*
X196847305Y-141245230D01*
X196847306Y-141245231D01*
X196972846Y-141305687D01*
X197083676Y-141359060D01*
X197083677Y-141359060D01*
X197083680Y-141359062D01*
X197334388Y-141436395D01*
X197593821Y-141475499D01*
X197856185Y-141475499D01*
X198115618Y-141436395D01*
X198366326Y-141359062D01*
X198602707Y-141245227D01*
X198819482Y-141097432D01*
X198856159Y-141063401D01*
X198918691Y-141032232D01*
X198988147Y-141039819D01*
X199042476Y-141083752D01*
X199064428Y-141150084D01*
X199064500Y-141154299D01*
X199064500Y-141863714D01*
X199065282Y-141891833D01*
X199066049Y-141905593D01*
X199068394Y-141933630D01*
X199074844Y-141991370D01*
X199074852Y-141991434D01*
X199088003Y-142109152D01*
X199088008Y-142109187D01*
X199097336Y-142164564D01*
X199097338Y-142164575D01*
X199097339Y-142164578D01*
X199103414Y-142191432D01*
X199110558Y-142216456D01*
X199110037Y-142286322D01*
X199071825Y-142344816D01*
X199008055Y-142373366D01*
X198991324Y-142374500D01*
X189800853Y-142374500D01*
X189733814Y-142354815D01*
X189695551Y-142315978D01*
X189663910Y-142265093D01*
X189652055Y-142240239D01*
X189596455Y-142079895D01*
X189590380Y-142053041D01*
X189583497Y-141991434D01*
X189570767Y-141877485D01*
X189570000Y-141863717D01*
X189570000Y-141269521D01*
X191898900Y-141269521D01*
X192083858Y-141358593D01*
X192083861Y-141358594D01*
X192334497Y-141435906D01*
X192334503Y-141435908D01*
X192593851Y-141474998D01*
X192593860Y-141474999D01*
X192856146Y-141474999D01*
X192856154Y-141474998D01*
X193115502Y-141435908D01*
X193115508Y-141435906D01*
X193366144Y-141358594D01*
X193366148Y-141358593D01*
X193551105Y-141269521D01*
X192725003Y-140443419D01*
X191898900Y-141269521D01*
X189570000Y-141269521D01*
X189570000Y-139724994D01*
X190970096Y-139724994D01*
X190970096Y-139725003D01*
X190989695Y-139986544D01*
X190989696Y-139986549D01*
X191048061Y-140242269D01*
X191143883Y-140486418D01*
X191143885Y-140486422D01*
X191180953Y-140550627D01*
X192006583Y-139724999D01*
X192006583Y-139724998D01*
X191937788Y-139656203D01*
X192026503Y-139656203D01*
X192026503Y-139793795D01*
X192053346Y-139928744D01*
X192106000Y-140055863D01*
X192182442Y-140170267D01*
X192279735Y-140267560D01*
X192394139Y-140344002D01*
X192521258Y-140396656D01*
X192656207Y-140423499D01*
X192793799Y-140423499D01*
X192928748Y-140396656D01*
X193055867Y-140344002D01*
X193170271Y-140267560D01*
X193267564Y-140170267D01*
X193344006Y-140055863D01*
X193396660Y-139928744D01*
X193423503Y-139793795D01*
X193423503Y-139724998D01*
X193443423Y-139724998D01*
X193443423Y-139724999D01*
X194269051Y-140550628D01*
X194269052Y-140550628D01*
X194306119Y-140486425D01*
X194401944Y-140242269D01*
X194460309Y-139986549D01*
X194460310Y-139986544D01*
X194479910Y-139725003D01*
X194479910Y-139724994D01*
X194460310Y-139463453D01*
X194460309Y-139463448D01*
X194401944Y-139207728D01*
X194306119Y-138963572D01*
X194306120Y-138963572D01*
X194269051Y-138899369D01*
X193443423Y-139724998D01*
X193423503Y-139724998D01*
X193423503Y-139656203D01*
X193396660Y-139521254D01*
X193344006Y-139394135D01*
X193267564Y-139279731D01*
X193170271Y-139182438D01*
X193055867Y-139105996D01*
X192928748Y-139053342D01*
X192793799Y-139026499D01*
X192656207Y-139026499D01*
X192521258Y-139053342D01*
X192394139Y-139105996D01*
X192279735Y-139182438D01*
X192182442Y-139279731D01*
X192106000Y-139394135D01*
X192053346Y-139521254D01*
X192026503Y-139656203D01*
X191937788Y-139656203D01*
X191180953Y-138899369D01*
X191143886Y-138963571D01*
X191048060Y-139207734D01*
X190989696Y-139463448D01*
X190989695Y-139463453D01*
X190970096Y-139724994D01*
X189570000Y-139724994D01*
X189570000Y-138180476D01*
X191898900Y-138180476D01*
X192725003Y-139006579D01*
X192725004Y-139006579D01*
X193551106Y-138180476D01*
X193551105Y-138180474D01*
X193366145Y-138091403D01*
X193366147Y-138091403D01*
X193115508Y-138014091D01*
X193115502Y-138014089D01*
X192856154Y-137974999D01*
X192593851Y-137974999D01*
X192334503Y-138014089D01*
X192334497Y-138014091D01*
X192083861Y-138091403D01*
X192083857Y-138091404D01*
X191898900Y-138180476D01*
X189570000Y-138180476D01*
X189570000Y-133069522D01*
X191898900Y-133069522D01*
X192083858Y-133158594D01*
X192083861Y-133158595D01*
X192334497Y-133235907D01*
X192334503Y-133235909D01*
X192593851Y-133274999D01*
X192593860Y-133275000D01*
X192856146Y-133275000D01*
X192856154Y-133274999D01*
X193115502Y-133235909D01*
X193115508Y-133235907D01*
X193366144Y-133158595D01*
X193366148Y-133158594D01*
X193551105Y-133069522D01*
X192725003Y-132243420D01*
X191898900Y-133069522D01*
X189570000Y-133069522D01*
X189570000Y-131524995D01*
X190970096Y-131524995D01*
X190970096Y-131525004D01*
X190989695Y-131786545D01*
X190989696Y-131786550D01*
X191048061Y-132042270D01*
X191143883Y-132286419D01*
X191143885Y-132286423D01*
X191180953Y-132350628D01*
X192006583Y-131525000D01*
X192006583Y-131524999D01*
X191937788Y-131456204D01*
X192026503Y-131456204D01*
X192026503Y-131593796D01*
X192053346Y-131728745D01*
X192106000Y-131855864D01*
X192182442Y-131970268D01*
X192279735Y-132067561D01*
X192394139Y-132144003D01*
X192521258Y-132196657D01*
X192656207Y-132223500D01*
X192793799Y-132223500D01*
X192928748Y-132196657D01*
X193055867Y-132144003D01*
X193170271Y-132067561D01*
X193267564Y-131970268D01*
X193344006Y-131855864D01*
X193396660Y-131728745D01*
X193423503Y-131593796D01*
X193423503Y-131524999D01*
X193443423Y-131524999D01*
X193443423Y-131525000D01*
X194269051Y-132350629D01*
X194269052Y-132350629D01*
X194306119Y-132286426D01*
X194401944Y-132042270D01*
X194460309Y-131786550D01*
X194460310Y-131786545D01*
X194479910Y-131525004D01*
X194479910Y-131524995D01*
X194460310Y-131263454D01*
X194460309Y-131263449D01*
X194401944Y-131007729D01*
X194306119Y-130763573D01*
X194306120Y-130763573D01*
X194269051Y-130699370D01*
X193443423Y-131524999D01*
X193423503Y-131524999D01*
X193423503Y-131456204D01*
X193396660Y-131321255D01*
X193344006Y-131194136D01*
X193267564Y-131079732D01*
X193170271Y-130982439D01*
X193055867Y-130905997D01*
X192928748Y-130853343D01*
X192793799Y-130826500D01*
X192656207Y-130826500D01*
X192521258Y-130853343D01*
X192394139Y-130905997D01*
X192279735Y-130982439D01*
X192182442Y-131079732D01*
X192106000Y-131194136D01*
X192053346Y-131321255D01*
X192026503Y-131456204D01*
X191937788Y-131456204D01*
X191180953Y-130699370D01*
X191143886Y-130763572D01*
X191048060Y-131007735D01*
X190989696Y-131263449D01*
X190989695Y-131263454D01*
X190970096Y-131524995D01*
X189570000Y-131524995D01*
X189570000Y-129980477D01*
X191898900Y-129980477D01*
X192725003Y-130806580D01*
X192725004Y-130806580D01*
X193551106Y-129980477D01*
X193551105Y-129980475D01*
X193366145Y-129891404D01*
X193366147Y-129891404D01*
X193115508Y-129814092D01*
X193115502Y-129814090D01*
X192856154Y-129775000D01*
X192593851Y-129775000D01*
X192334503Y-129814090D01*
X192334497Y-129814092D01*
X192083861Y-129891404D01*
X192083857Y-129891405D01*
X191898900Y-129980477D01*
X189570000Y-129980477D01*
X189570000Y-126601452D01*
X189570217Y-126594114D01*
X189575792Y-126500077D01*
X189577526Y-126485505D01*
X189594171Y-126392786D01*
X189595677Y-126385622D01*
X190083725Y-124363710D01*
X190599966Y-122224997D01*
X191869871Y-122224997D01*
X191890280Y-122510362D01*
X191951089Y-122789895D01*
X192051071Y-123057958D01*
X192147324Y-123234232D01*
X192147325Y-123234232D01*
X193075442Y-122306116D01*
X193105723Y-122458351D01*
X193166029Y-122603942D01*
X193253579Y-122734970D01*
X193365010Y-122846401D01*
X193496038Y-122933951D01*
X193641629Y-122994257D01*
X193793862Y-123024537D01*
X192865746Y-123952653D01*
X192865746Y-123952654D01*
X193042022Y-124048908D01*
X193042021Y-124048908D01*
X193310084Y-124148890D01*
X193589617Y-124209699D01*
X193874979Y-124230109D01*
X193874981Y-124230109D01*
X194160342Y-124209699D01*
X194439875Y-124148890D01*
X194707937Y-124048908D01*
X194884212Y-123952654D01*
X194884212Y-123952653D01*
X193956098Y-123024537D01*
X194108331Y-122994257D01*
X194253922Y-122933951D01*
X194384950Y-122846401D01*
X194496381Y-122734970D01*
X194583931Y-122603942D01*
X194644237Y-122458351D01*
X194674517Y-122306117D01*
X195574979Y-123206579D01*
X196475442Y-122306116D01*
X196505723Y-122458351D01*
X196566029Y-122603942D01*
X196653579Y-122734970D01*
X196765010Y-122846401D01*
X196896038Y-122933951D01*
X197041629Y-122994257D01*
X197193862Y-123024537D01*
X196265746Y-123952653D01*
X196265746Y-123952654D01*
X196442022Y-124048908D01*
X196442021Y-124048908D01*
X196710084Y-124148890D01*
X196989617Y-124209699D01*
X197274979Y-124230109D01*
X197274981Y-124230109D01*
X197560342Y-124209699D01*
X197839875Y-124148890D01*
X198107937Y-124048908D01*
X198284212Y-123952654D01*
X198284212Y-123952653D01*
X197356098Y-123024537D01*
X197508331Y-122994257D01*
X197653922Y-122933951D01*
X197784950Y-122846401D01*
X197896381Y-122734970D01*
X197983931Y-122603942D01*
X198044237Y-122458351D01*
X198074517Y-122306118D01*
X199002633Y-123234232D01*
X199002634Y-123234232D01*
X199098888Y-123057957D01*
X199198870Y-122789895D01*
X199259679Y-122510362D01*
X199280089Y-122224997D01*
X199259679Y-121939637D01*
X199198870Y-121660104D01*
X199098888Y-121392042D01*
X199002633Y-121215766D01*
X198074517Y-122143881D01*
X198044237Y-121991649D01*
X197983931Y-121846058D01*
X197896381Y-121715030D01*
X197784950Y-121603599D01*
X197653922Y-121516049D01*
X197508331Y-121455743D01*
X197356097Y-121425462D01*
X198284212Y-120497345D01*
X198284212Y-120497344D01*
X198107938Y-120401091D01*
X197839875Y-120301109D01*
X197560342Y-120240300D01*
X197274981Y-120219891D01*
X197274979Y-120219891D01*
X196989617Y-120240300D01*
X196710084Y-120301109D01*
X196442027Y-120401089D01*
X196265746Y-120497344D01*
X196265746Y-120497345D01*
X197193863Y-121425462D01*
X197041629Y-121455743D01*
X196896038Y-121516049D01*
X196765010Y-121603599D01*
X196653579Y-121715030D01*
X196566029Y-121846058D01*
X196505723Y-121991649D01*
X196475442Y-122143882D01*
X195574981Y-121243420D01*
X195574980Y-121243420D01*
X194674517Y-122143882D01*
X194644237Y-121991649D01*
X194583931Y-121846058D01*
X194496381Y-121715030D01*
X194384950Y-121603599D01*
X194253922Y-121516049D01*
X194108331Y-121455743D01*
X193956097Y-121425462D01*
X194884212Y-120497345D01*
X194884212Y-120497344D01*
X194707938Y-120401091D01*
X194439875Y-120301109D01*
X194160342Y-120240300D01*
X193874981Y-120219891D01*
X193874979Y-120219891D01*
X193589617Y-120240300D01*
X193310084Y-120301109D01*
X193042027Y-120401089D01*
X192865746Y-120497344D01*
X192865746Y-120497345D01*
X193793863Y-121425462D01*
X193641629Y-121455743D01*
X193496038Y-121516049D01*
X193365010Y-121603599D01*
X193253579Y-121715030D01*
X193166029Y-121846058D01*
X193105723Y-121991649D01*
X193075442Y-122143882D01*
X192147325Y-121215766D01*
X192147324Y-121215766D01*
X192051069Y-121392047D01*
X191951089Y-121660104D01*
X191890280Y-121939637D01*
X191869871Y-122224997D01*
X190599966Y-122224997D01*
X190773377Y-121506579D01*
X191182145Y-119813111D01*
X191186116Y-119799918D01*
X191246312Y-119633989D01*
X191258496Y-119609347D01*
X191350052Y-119466611D01*
X191367375Y-119445255D01*
X191488146Y-119326226D01*
X191509753Y-119309214D01*
X191653800Y-119219742D01*
X191678620Y-119207916D01*
X191838851Y-119152408D01*
X191865668Y-119146345D01*
X192041091Y-119126764D01*
X192054846Y-119126000D01*
X200082340Y-119126000D01*
X200094980Y-119126645D01*
G37*
%TD.AperFunction*%
%TD*%
%TA.AperFunction,Conductor*%
%TO.N,/VBAT+*%
G36*
X233753472Y-109775695D02*
G01*
X234042507Y-109791927D01*
X234056305Y-109793481D01*
X234338265Y-109841388D01*
X234351821Y-109844482D01*
X234626642Y-109923657D01*
X234639768Y-109928250D01*
X234903994Y-110037696D01*
X234916508Y-110043722D01*
X235166830Y-110182070D01*
X235178603Y-110189468D01*
X235411843Y-110354961D01*
X235422704Y-110363622D01*
X235635964Y-110554202D01*
X235645795Y-110564033D01*
X235741017Y-110670587D01*
X235836373Y-110777290D01*
X235845042Y-110788162D01*
X236010530Y-111021395D01*
X236017929Y-111033169D01*
X236156273Y-111283484D01*
X236162306Y-111296012D01*
X236271749Y-111560232D01*
X236276342Y-111573357D01*
X236355517Y-111848178D01*
X236358611Y-111861735D01*
X236406516Y-112143684D01*
X236408073Y-112157502D01*
X236424305Y-112446527D01*
X236424500Y-112453480D01*
X236424500Y-113641097D01*
X236462466Y-114171930D01*
X236538205Y-114698709D01*
X236651327Y-115218724D01*
X236651330Y-115218734D01*
X236668152Y-115276023D01*
X236801266Y-115729365D01*
X236930405Y-116075602D01*
X236987248Y-116228004D01*
X237208325Y-116712095D01*
X237463375Y-117179184D01*
X237751102Y-117626897D01*
X237751105Y-117626902D01*
X238070025Y-118052930D01*
X238312664Y-118332950D01*
X238418543Y-118455141D01*
X238418552Y-118455150D01*
X238418564Y-118455163D01*
X238794836Y-118831435D01*
X238794849Y-118831447D01*
X238794859Y-118831457D01*
X238907495Y-118929056D01*
X239197069Y-119179974D01*
X239623097Y-119498894D01*
X239623102Y-119498897D01*
X240070809Y-119786621D01*
X240537902Y-120041673D01*
X241021999Y-120262753D01*
X241520635Y-120448734D01*
X242031265Y-120598669D01*
X242031275Y-120598672D01*
X242551290Y-120711794D01*
X242551297Y-120711795D01*
X243078070Y-120787534D01*
X243608905Y-120825500D01*
X243809108Y-120825500D01*
X247115308Y-120825500D01*
X247171443Y-120825500D01*
X247190829Y-120827025D01*
X247252441Y-120836783D01*
X247289330Y-120848769D01*
X247336100Y-120872599D01*
X247367485Y-120895403D01*
X247404596Y-120932514D01*
X247427400Y-120963900D01*
X247451229Y-121010667D01*
X247463217Y-121047563D01*
X247472973Y-121109157D01*
X247474500Y-121128556D01*
X247474500Y-131021443D01*
X247472973Y-131040842D01*
X247463217Y-131102436D01*
X247451229Y-131139332D01*
X247427400Y-131186099D01*
X247404596Y-131217485D01*
X247367485Y-131254596D01*
X247336099Y-131277400D01*
X247289332Y-131301229D01*
X247252436Y-131313217D01*
X247203886Y-131320906D01*
X247190840Y-131322973D01*
X247171443Y-131324500D01*
X243608902Y-131324500D01*
X243078069Y-131362466D01*
X242551290Y-131438205D01*
X242031275Y-131551327D01*
X242031265Y-131551330D01*
X241520651Y-131701261D01*
X241520643Y-131701263D01*
X241520635Y-131701266D01*
X241520626Y-131701269D01*
X241520624Y-131701270D01*
X241021995Y-131887248D01*
X240537904Y-132108325D01*
X240070815Y-132363375D01*
X239623102Y-132651102D01*
X239623097Y-132651105D01*
X239197069Y-132970025D01*
X238794862Y-133318540D01*
X238794836Y-133318564D01*
X238418564Y-133694836D01*
X238418540Y-133694862D01*
X238070025Y-134097069D01*
X237751105Y-134523097D01*
X237751102Y-134523102D01*
X237463375Y-134970815D01*
X237208325Y-135437904D01*
X236987248Y-135921995D01*
X236801270Y-136420624D01*
X236801261Y-136420651D01*
X236651330Y-136931265D01*
X236651327Y-136931275D01*
X236538205Y-137451290D01*
X236462466Y-137978069D01*
X236424500Y-138508902D01*
X236424500Y-139696519D01*
X236424305Y-139703472D01*
X236408073Y-139992497D01*
X236406516Y-140006315D01*
X236358611Y-140288264D01*
X236355517Y-140301821D01*
X236276342Y-140576642D01*
X236271749Y-140589767D01*
X236162306Y-140853987D01*
X236156273Y-140866515D01*
X236017929Y-141116830D01*
X236010530Y-141128604D01*
X235845042Y-141361837D01*
X235836373Y-141372709D01*
X235645797Y-141585964D01*
X235635964Y-141595797D01*
X235422709Y-141786373D01*
X235411837Y-141795042D01*
X235178604Y-141960530D01*
X235166830Y-141967929D01*
X234916515Y-142106273D01*
X234903987Y-142112306D01*
X234639767Y-142221749D01*
X234626642Y-142226342D01*
X234351821Y-142305517D01*
X234338264Y-142308611D01*
X234056315Y-142356516D01*
X234042497Y-142358073D01*
X233753472Y-142374305D01*
X233746519Y-142374500D01*
X229994000Y-142374500D01*
X229926961Y-142354815D01*
X229881206Y-142302011D01*
X229870000Y-142250500D01*
X229870000Y-139560038D01*
X231614500Y-139560038D01*
X231614500Y-139839961D01*
X231614501Y-139839977D01*
X231651038Y-140117507D01*
X231723491Y-140387905D01*
X231830613Y-140646522D01*
X231830620Y-140646537D01*
X231970586Y-140888965D01*
X232140999Y-141111052D01*
X232141005Y-141111059D01*
X232338940Y-141308994D01*
X232338947Y-141309000D01*
X232561034Y-141479413D01*
X232803462Y-141619379D01*
X232803477Y-141619386D01*
X232937221Y-141674784D01*
X233062093Y-141726508D01*
X233332491Y-141798961D01*
X233610032Y-141835500D01*
X233610039Y-141835500D01*
X233889961Y-141835500D01*
X233889968Y-141835500D01*
X234167509Y-141798961D01*
X234437907Y-141726508D01*
X234696534Y-141619381D01*
X234938966Y-141479413D01*
X235161054Y-141308999D01*
X235358999Y-141111054D01*
X235529413Y-140888966D01*
X235669381Y-140646534D01*
X235776508Y-140387907D01*
X235848961Y-140117509D01*
X235885500Y-139839968D01*
X235885500Y-139560032D01*
X235848961Y-139282491D01*
X235776508Y-139012093D01*
X235669381Y-138753466D01*
X235610391Y-138651293D01*
X235529413Y-138511034D01*
X235359000Y-138288947D01*
X235358994Y-138288940D01*
X235161059Y-138091005D01*
X235161052Y-138090999D01*
X234938965Y-137920586D01*
X234696537Y-137780620D01*
X234696522Y-137780613D01*
X234437905Y-137673491D01*
X234167507Y-137601038D01*
X233889977Y-137564501D01*
X233889974Y-137564500D01*
X233889968Y-137564500D01*
X233610032Y-137564500D01*
X233610026Y-137564500D01*
X233610022Y-137564501D01*
X233332492Y-137601038D01*
X233062094Y-137673491D01*
X232803477Y-137780613D01*
X232803462Y-137780620D01*
X232561034Y-137920586D01*
X232338947Y-138090999D01*
X232338940Y-138091005D01*
X232141005Y-138288940D01*
X232140999Y-138288947D01*
X231970586Y-138511034D01*
X231830620Y-138753462D01*
X231830613Y-138753477D01*
X231723491Y-139012094D01*
X231651038Y-139282492D01*
X231614501Y-139560022D01*
X231614500Y-139560038D01*
X229870000Y-139560038D01*
X229870000Y-130669522D01*
X235798897Y-130669522D01*
X235983855Y-130758594D01*
X235983858Y-130758595D01*
X236234494Y-130835907D01*
X236234500Y-130835909D01*
X236493848Y-130874999D01*
X236493857Y-130875000D01*
X236756143Y-130875000D01*
X236756151Y-130874999D01*
X237015499Y-130835909D01*
X237015505Y-130835907D01*
X237266141Y-130758595D01*
X237266145Y-130758594D01*
X237451102Y-130669522D01*
X243998896Y-130669522D01*
X244183854Y-130758594D01*
X244183857Y-130758595D01*
X244434493Y-130835907D01*
X244434499Y-130835909D01*
X244693847Y-130874999D01*
X244693856Y-130875000D01*
X244956142Y-130875000D01*
X244956150Y-130874999D01*
X245215498Y-130835909D01*
X245215504Y-130835907D01*
X245466140Y-130758595D01*
X245466144Y-130758594D01*
X245651101Y-130669522D01*
X244824999Y-129843420D01*
X243998896Y-130669522D01*
X237451102Y-130669522D01*
X236625000Y-129843420D01*
X235798897Y-130669522D01*
X229870000Y-130669522D01*
X229870000Y-129124995D01*
X234870093Y-129124995D01*
X234870093Y-129125004D01*
X234889692Y-129386545D01*
X234889693Y-129386550D01*
X234948058Y-129642270D01*
X235043880Y-129886419D01*
X235043882Y-129886423D01*
X235080950Y-129950628D01*
X235906580Y-129125000D01*
X235837784Y-129056204D01*
X235926500Y-129056204D01*
X235926500Y-129193796D01*
X235953343Y-129328745D01*
X236005997Y-129455864D01*
X236082439Y-129570268D01*
X236179732Y-129667561D01*
X236294136Y-129744003D01*
X236421255Y-129796657D01*
X236556204Y-129823500D01*
X236693796Y-129823500D01*
X236828745Y-129796657D01*
X236955864Y-129744003D01*
X237070268Y-129667561D01*
X237167561Y-129570268D01*
X237244003Y-129455864D01*
X237296657Y-129328745D01*
X237323500Y-129193796D01*
X237323500Y-129124999D01*
X237343420Y-129124999D01*
X237343420Y-129125001D01*
X238169048Y-129950629D01*
X238169049Y-129950629D01*
X238206116Y-129886426D01*
X238301941Y-129642270D01*
X238360306Y-129386550D01*
X238360307Y-129386545D01*
X238379907Y-129125004D01*
X238379907Y-129124995D01*
X243070092Y-129124995D01*
X243070092Y-129125004D01*
X243089691Y-129386545D01*
X243089692Y-129386550D01*
X243148057Y-129642270D01*
X243243879Y-129886419D01*
X243243881Y-129886423D01*
X243280949Y-129950628D01*
X244106579Y-129125000D01*
X244037783Y-129056204D01*
X244126499Y-129056204D01*
X244126499Y-129193796D01*
X244153342Y-129328745D01*
X244205996Y-129455864D01*
X244282438Y-129570268D01*
X244379731Y-129667561D01*
X244494135Y-129744003D01*
X244621254Y-129796657D01*
X244756203Y-129823500D01*
X244893795Y-129823500D01*
X245028744Y-129796657D01*
X245155863Y-129744003D01*
X245270267Y-129667561D01*
X245367560Y-129570268D01*
X245444002Y-129455864D01*
X245496656Y-129328745D01*
X245523499Y-129193796D01*
X245523499Y-129124999D01*
X245543419Y-129124999D01*
X245543419Y-129125000D01*
X246369047Y-129950629D01*
X246369048Y-129950629D01*
X246406115Y-129886426D01*
X246501940Y-129642270D01*
X246560305Y-129386550D01*
X246560306Y-129386545D01*
X246579906Y-129125004D01*
X246579906Y-129124995D01*
X246560306Y-128863454D01*
X246560305Y-128863449D01*
X246501940Y-128607729D01*
X246406115Y-128363573D01*
X246406116Y-128363573D01*
X246369047Y-128299370D01*
X245543419Y-129124999D01*
X245523499Y-129124999D01*
X245523499Y-129056204D01*
X245496656Y-128921255D01*
X245444002Y-128794136D01*
X245367560Y-128679732D01*
X245270267Y-128582439D01*
X245155863Y-128505997D01*
X245028744Y-128453343D01*
X244893795Y-128426500D01*
X244756203Y-128426500D01*
X244621254Y-128453343D01*
X244494135Y-128505997D01*
X244379731Y-128582439D01*
X244282438Y-128679732D01*
X244205996Y-128794136D01*
X244153342Y-128921255D01*
X244126499Y-129056204D01*
X244037783Y-129056204D01*
X243280949Y-128299370D01*
X243243882Y-128363572D01*
X243148056Y-128607735D01*
X243089692Y-128863449D01*
X243089691Y-128863454D01*
X243070092Y-129124995D01*
X238379907Y-129124995D01*
X238360307Y-128863454D01*
X238360306Y-128863449D01*
X238301941Y-128607729D01*
X238206116Y-128363573D01*
X238206117Y-128363573D01*
X238169048Y-128299370D01*
X237343420Y-129124999D01*
X237323500Y-129124999D01*
X237323500Y-129056204D01*
X237296657Y-128921255D01*
X237244003Y-128794136D01*
X237167561Y-128679732D01*
X237070268Y-128582439D01*
X236955864Y-128505997D01*
X236828745Y-128453343D01*
X236693796Y-128426500D01*
X236556204Y-128426500D01*
X236421255Y-128453343D01*
X236294136Y-128505997D01*
X236179732Y-128582439D01*
X236082439Y-128679732D01*
X236005997Y-128794136D01*
X235953343Y-128921255D01*
X235926500Y-129056204D01*
X235837784Y-129056204D01*
X235080950Y-128299370D01*
X235043883Y-128363572D01*
X234948057Y-128607735D01*
X234889693Y-128863449D01*
X234889692Y-128863454D01*
X234870093Y-129124995D01*
X229870000Y-129124995D01*
X229870000Y-127580477D01*
X235798897Y-127580477D01*
X236625000Y-128406580D01*
X236625001Y-128406580D01*
X237451103Y-127580477D01*
X243998896Y-127580477D01*
X244824999Y-128406580D01*
X244825000Y-128406580D01*
X245651102Y-127580477D01*
X245651101Y-127580475D01*
X245466141Y-127491404D01*
X245466143Y-127491404D01*
X245215504Y-127414092D01*
X245215498Y-127414090D01*
X244956150Y-127375000D01*
X244693847Y-127375000D01*
X244434499Y-127414090D01*
X244434493Y-127414092D01*
X244183857Y-127491404D01*
X244183853Y-127491405D01*
X243998896Y-127580477D01*
X237451103Y-127580477D01*
X237451102Y-127580475D01*
X237266142Y-127491404D01*
X237266144Y-127491404D01*
X237015505Y-127414092D01*
X237015499Y-127414090D01*
X236756151Y-127375000D01*
X236493848Y-127375000D01*
X236234500Y-127414090D01*
X236234494Y-127414092D01*
X235983858Y-127491404D01*
X235983854Y-127491405D01*
X235798897Y-127580477D01*
X229870000Y-127580477D01*
X229870000Y-126154532D01*
X229875132Y-126119227D01*
X229947523Y-125875498D01*
X230467448Y-124124993D01*
X234869592Y-124124993D01*
X234869592Y-124125002D01*
X234889196Y-124386618D01*
X234889197Y-124386623D01*
X234947576Y-124642400D01*
X234947578Y-124642409D01*
X234947580Y-124642414D01*
X235043432Y-124886641D01*
X235174614Y-125113855D01*
X235306736Y-125279531D01*
X235338198Y-125318983D01*
X235519753Y-125487439D01*
X235530521Y-125497431D01*
X235747296Y-125645226D01*
X235747301Y-125645228D01*
X235747302Y-125645229D01*
X235747303Y-125645230D01*
X235856691Y-125697908D01*
X235983673Y-125759059D01*
X235983674Y-125759059D01*
X235983677Y-125759061D01*
X236234385Y-125836394D01*
X236493818Y-125875498D01*
X236756182Y-125875498D01*
X237015615Y-125836394D01*
X237266323Y-125759061D01*
X237502704Y-125645226D01*
X237719479Y-125497431D01*
X237911805Y-125318979D01*
X238075386Y-125113855D01*
X238206568Y-124886641D01*
X238302420Y-124642414D01*
X238360802Y-124386628D01*
X238380408Y-124124998D01*
X238380408Y-124124993D01*
X243069591Y-124124993D01*
X243069591Y-124125002D01*
X243089195Y-124386618D01*
X243089196Y-124386623D01*
X243147575Y-124642400D01*
X243147577Y-124642409D01*
X243147579Y-124642414D01*
X243243431Y-124886641D01*
X243374613Y-125113855D01*
X243506735Y-125279531D01*
X243538197Y-125318983D01*
X243719752Y-125487439D01*
X243730520Y-125497431D01*
X243947295Y-125645226D01*
X243947300Y-125645228D01*
X243947301Y-125645229D01*
X243947302Y-125645230D01*
X244056690Y-125697908D01*
X244183672Y-125759059D01*
X244183673Y-125759059D01*
X244183676Y-125759061D01*
X244434384Y-125836394D01*
X244693817Y-125875498D01*
X244956181Y-125875498D01*
X245215614Y-125836394D01*
X245466322Y-125759061D01*
X245702703Y-125645226D01*
X245919478Y-125497431D01*
X246111804Y-125318979D01*
X246275385Y-125113855D01*
X246406567Y-124886641D01*
X246502419Y-124642414D01*
X246560801Y-124386628D01*
X246580407Y-124124998D01*
X246560801Y-123863368D01*
X246502419Y-123607582D01*
X246406567Y-123363355D01*
X246275385Y-123136141D01*
X246111804Y-122931017D01*
X246111803Y-122931016D01*
X246111800Y-122931012D01*
X245919478Y-122752565D01*
X245702703Y-122604770D01*
X245702699Y-122604768D01*
X245702696Y-122604766D01*
X245702695Y-122604765D01*
X245466324Y-122490936D01*
X245466326Y-122490936D01*
X245215622Y-122413604D01*
X245215618Y-122413603D01*
X245215614Y-122413602D01*
X245090822Y-122394792D01*
X244956186Y-122374498D01*
X244956181Y-122374498D01*
X244693817Y-122374498D01*
X244693811Y-122374498D01*
X244532246Y-122398851D01*
X244434384Y-122413602D01*
X244434381Y-122413603D01*
X244434375Y-122413604D01*
X244183672Y-122490936D01*
X243947302Y-122604765D01*
X243947301Y-122604766D01*
X243730519Y-122752565D01*
X243538197Y-122931012D01*
X243374613Y-123136141D01*
X243243431Y-123363354D01*
X243147581Y-123607576D01*
X243147575Y-123607595D01*
X243089196Y-123863372D01*
X243089195Y-123863377D01*
X243069591Y-124124993D01*
X238380408Y-124124993D01*
X238360802Y-123863368D01*
X238302420Y-123607582D01*
X238206568Y-123363355D01*
X238075386Y-123136141D01*
X237911805Y-122931017D01*
X237911804Y-122931016D01*
X237911801Y-122931012D01*
X237719479Y-122752565D01*
X237502704Y-122604770D01*
X237502700Y-122604768D01*
X237502697Y-122604766D01*
X237502696Y-122604765D01*
X237266325Y-122490936D01*
X237266327Y-122490936D01*
X237015623Y-122413604D01*
X237015619Y-122413603D01*
X237015615Y-122413602D01*
X236890823Y-122394792D01*
X236756187Y-122374498D01*
X236756182Y-122374498D01*
X236493818Y-122374498D01*
X236493812Y-122374498D01*
X236332247Y-122398851D01*
X236234385Y-122413602D01*
X236234382Y-122413603D01*
X236234376Y-122413604D01*
X235983673Y-122490936D01*
X235747303Y-122604765D01*
X235747302Y-122604766D01*
X235530520Y-122752565D01*
X235338198Y-122931012D01*
X235174614Y-123136141D01*
X235043432Y-123363354D01*
X234947582Y-123607576D01*
X234947576Y-123607595D01*
X234889197Y-123863372D01*
X234889196Y-123863377D01*
X234869592Y-124124993D01*
X230467448Y-124124993D01*
X231089270Y-122031419D01*
X231095599Y-122008076D01*
X231098426Y-121996567D01*
X231103624Y-121972991D01*
X231110912Y-121935719D01*
X231132776Y-121823907D01*
X231139770Y-121776107D01*
X231142074Y-121752553D01*
X231142075Y-121752545D01*
X231144475Y-121704278D01*
X231144748Y-121558318D01*
X231142530Y-121510060D01*
X231140314Y-121486488D01*
X231133498Y-121438653D01*
X231106024Y-121295299D01*
X231094668Y-121248322D01*
X231088011Y-121225600D01*
X231072232Y-121179950D01*
X231051664Y-121128543D01*
X231015802Y-121038907D01*
X231006294Y-121016698D01*
X231006291Y-121016690D01*
X231001368Y-121005910D01*
X230990808Y-120984176D01*
X230164313Y-119381788D01*
X230159864Y-119373714D01*
X230150968Y-119357565D01*
X230144107Y-119345882D01*
X230144099Y-119345868D01*
X230129440Y-119322396D01*
X230129439Y-119322395D01*
X230129430Y-119322380D01*
X230082818Y-119252107D01*
X230082818Y-119252106D01*
X230082816Y-119252104D01*
X230033372Y-119177560D01*
X230000325Y-119133210D01*
X230000308Y-119133189D01*
X230000303Y-119133183D01*
X229982978Y-119112409D01*
X229982974Y-119112405D01*
X229945271Y-119071922D01*
X229911156Y-119039092D01*
X229911155Y-119039092D01*
X229877261Y-119006474D01*
X229877262Y-119006474D01*
X229824972Y-118956152D01*
X229783088Y-118920043D01*
X229783087Y-118920042D01*
X229761638Y-118903506D01*
X229761625Y-118903497D01*
X229716062Y-118872189D01*
X229716045Y-118872178D01*
X229573461Y-118785288D01*
X229573441Y-118785277D01*
X229524694Y-118759115D01*
X229524687Y-118759112D01*
X229500199Y-118747649D01*
X229448905Y-118726977D01*
X229448907Y-118726977D01*
X229290853Y-118673126D01*
X229290837Y-118673121D01*
X229268556Y-118666866D01*
X229237606Y-118658179D01*
X229211166Y-118652296D01*
X229211165Y-118652295D01*
X229211148Y-118652292D01*
X229156606Y-118643255D01*
X228983808Y-118624264D01*
X228956219Y-118621996D01*
X228948500Y-118621574D01*
X228942667Y-118621255D01*
X228915054Y-118620500D01*
X222054846Y-118620500D01*
X222054834Y-118620500D01*
X222026832Y-118621276D01*
X222013057Y-118622042D01*
X221985024Y-118624383D01*
X221985015Y-118624383D01*
X221985015Y-118624384D01*
X221809592Y-118643965D01*
X221809590Y-118643965D01*
X221809575Y-118643967D01*
X221754192Y-118653289D01*
X221727385Y-118659350D01*
X221727372Y-118659353D01*
X221687198Y-118670815D01*
X221673381Y-118674758D01*
X221673378Y-118674758D01*
X221673371Y-118674761D01*
X221513160Y-118730262D01*
X221513153Y-118730264D01*
X221461166Y-118751577D01*
X221436382Y-118763387D01*
X221436372Y-118763391D01*
X221436364Y-118763396D01*
X221412820Y-118776264D01*
X221387064Y-118790343D01*
X221243022Y-118879813D01*
X221197052Y-118912037D01*
X221197040Y-118912046D01*
X221175462Y-118929035D01*
X221175435Y-118929058D01*
X221148875Y-118952473D01*
X221085569Y-118982040D01*
X221016328Y-118972687D01*
X220985592Y-118953101D01*
X220940893Y-118914302D01*
X220900272Y-118882529D01*
X220900269Y-118882527D01*
X220900259Y-118882519D01*
X220879582Y-118867983D01*
X220835909Y-118840499D01*
X220784247Y-118811559D01*
X220699929Y-118764327D01*
X220653719Y-118741459D01*
X220653711Y-118741455D01*
X220643655Y-118737102D01*
X220630510Y-118731411D01*
X220582164Y-118713354D01*
X220433565Y-118666348D01*
X220433550Y-118666344D01*
X220422940Y-118663575D01*
X220383637Y-118653317D01*
X220358886Y-118648190D01*
X220358887Y-118648190D01*
X220358872Y-118648187D01*
X220307908Y-118640319D01*
X220307865Y-118640313D01*
X220146515Y-118623778D01*
X220120741Y-118621802D01*
X220108101Y-118621157D01*
X220082340Y-118620500D01*
X212054846Y-118620500D01*
X212054834Y-118620500D01*
X212026832Y-118621276D01*
X212013057Y-118622042D01*
X211985024Y-118624383D01*
X211985015Y-118624383D01*
X211985015Y-118624384D01*
X211809592Y-118643965D01*
X211809590Y-118643965D01*
X211809575Y-118643967D01*
X211754192Y-118653289D01*
X211727385Y-118659350D01*
X211727372Y-118659353D01*
X211687198Y-118670815D01*
X211673381Y-118674758D01*
X211673378Y-118674758D01*
X211673371Y-118674761D01*
X211513160Y-118730262D01*
X211513153Y-118730264D01*
X211461166Y-118751577D01*
X211436382Y-118763387D01*
X211436372Y-118763391D01*
X211436364Y-118763396D01*
X211412820Y-118776264D01*
X211387064Y-118790343D01*
X211243022Y-118879813D01*
X211197052Y-118912037D01*
X211197032Y-118912052D01*
X211175435Y-118929056D01*
X211148872Y-118952474D01*
X211085566Y-118982040D01*
X211016326Y-118972686D01*
X210985591Y-118953100D01*
X210940910Y-118914316D01*
X210940887Y-118914297D01*
X210900269Y-118882527D01*
X210900259Y-118882519D01*
X210879582Y-118867983D01*
X210835909Y-118840499D01*
X210784247Y-118811559D01*
X210699929Y-118764327D01*
X210653719Y-118741459D01*
X210653711Y-118741455D01*
X210643655Y-118737102D01*
X210630510Y-118731411D01*
X210582164Y-118713354D01*
X210433565Y-118666348D01*
X210433550Y-118666344D01*
X210422940Y-118663575D01*
X210383637Y-118653317D01*
X210358886Y-118648190D01*
X210358887Y-118648190D01*
X210358872Y-118648187D01*
X210307908Y-118640319D01*
X210307865Y-118640313D01*
X210146515Y-118623778D01*
X210120741Y-118621802D01*
X210108101Y-118621157D01*
X210082340Y-118620500D01*
X202054846Y-118620500D01*
X202054834Y-118620500D01*
X202026832Y-118621276D01*
X202013057Y-118622042D01*
X201985024Y-118624383D01*
X201985015Y-118624383D01*
X201985015Y-118624384D01*
X201809592Y-118643965D01*
X201809590Y-118643965D01*
X201809575Y-118643967D01*
X201754192Y-118653289D01*
X201727385Y-118659350D01*
X201727372Y-118659353D01*
X201687198Y-118670815D01*
X201673381Y-118674758D01*
X201673378Y-118674758D01*
X201673371Y-118674761D01*
X201513160Y-118730262D01*
X201513153Y-118730264D01*
X201461166Y-118751577D01*
X201436382Y-118763387D01*
X201436372Y-118763391D01*
X201436364Y-118763396D01*
X201412820Y-118776264D01*
X201387064Y-118790343D01*
X201243022Y-118879813D01*
X201197052Y-118912037D01*
X201197032Y-118912052D01*
X201175435Y-118929056D01*
X201148872Y-118952474D01*
X201085566Y-118982040D01*
X201016326Y-118972686D01*
X200985591Y-118953100D01*
X200940910Y-118914316D01*
X200940887Y-118914297D01*
X200900269Y-118882527D01*
X200900259Y-118882519D01*
X200879582Y-118867983D01*
X200835909Y-118840499D01*
X200784247Y-118811559D01*
X200699929Y-118764327D01*
X200653719Y-118741459D01*
X200653711Y-118741455D01*
X200643655Y-118737102D01*
X200630510Y-118731411D01*
X200582164Y-118713354D01*
X200433565Y-118666348D01*
X200433550Y-118666344D01*
X200422940Y-118663575D01*
X200383637Y-118653317D01*
X200358886Y-118648190D01*
X200358887Y-118648190D01*
X200358872Y-118648187D01*
X200307908Y-118640319D01*
X200307865Y-118640313D01*
X200146515Y-118623778D01*
X200120741Y-118621802D01*
X200108101Y-118621157D01*
X200082340Y-118620500D01*
X192054846Y-118620500D01*
X192054834Y-118620500D01*
X192026832Y-118621276D01*
X192013057Y-118622042D01*
X191985024Y-118624383D01*
X191985015Y-118624383D01*
X191985015Y-118624384D01*
X191809592Y-118643965D01*
X191809590Y-118643965D01*
X191809575Y-118643967D01*
X191754192Y-118653289D01*
X191727385Y-118659350D01*
X191727372Y-118659353D01*
X191687198Y-118670815D01*
X191673381Y-118674758D01*
X191673378Y-118674758D01*
X191673371Y-118674761D01*
X191513160Y-118730262D01*
X191513153Y-118730264D01*
X191461166Y-118751577D01*
X191436382Y-118763387D01*
X191436372Y-118763391D01*
X191436364Y-118763396D01*
X191412820Y-118776264D01*
X191387064Y-118790343D01*
X191243022Y-118879813D01*
X191197052Y-118912037D01*
X191197032Y-118912052D01*
X191175435Y-118929056D01*
X191148872Y-118952474D01*
X191085566Y-118982040D01*
X191016326Y-118972686D01*
X190985591Y-118953100D01*
X190940910Y-118914316D01*
X190940887Y-118914297D01*
X190900269Y-118882527D01*
X190900259Y-118882519D01*
X190879582Y-118867983D01*
X190835909Y-118840499D01*
X190784247Y-118811559D01*
X190699929Y-118764327D01*
X190653719Y-118741459D01*
X190653711Y-118741455D01*
X190643655Y-118737102D01*
X190630510Y-118731411D01*
X190582164Y-118713354D01*
X190433565Y-118666348D01*
X190433550Y-118666344D01*
X190422940Y-118663575D01*
X190383637Y-118653317D01*
X190358886Y-118648190D01*
X190358887Y-118648190D01*
X190358872Y-118648187D01*
X190307908Y-118640319D01*
X190307865Y-118640313D01*
X190146515Y-118623778D01*
X190120741Y-118621802D01*
X190108101Y-118621157D01*
X190082340Y-118620500D01*
X182054846Y-118620500D01*
X182054834Y-118620500D01*
X182026832Y-118621276D01*
X182013057Y-118622042D01*
X181985024Y-118624383D01*
X181985015Y-118624383D01*
X181985015Y-118624384D01*
X181809592Y-118643965D01*
X181809590Y-118643965D01*
X181809575Y-118643967D01*
X181754192Y-118653289D01*
X181727385Y-118659350D01*
X181727372Y-118659353D01*
X181687198Y-118670815D01*
X181673381Y-118674758D01*
X181673378Y-118674758D01*
X181673371Y-118674761D01*
X181513160Y-118730262D01*
X181513153Y-118730264D01*
X181461166Y-118751577D01*
X181436382Y-118763387D01*
X181436372Y-118763391D01*
X181436364Y-118763396D01*
X181412820Y-118776264D01*
X181387064Y-118790343D01*
X181243022Y-118879813D01*
X181197052Y-118912037D01*
X181197032Y-118912052D01*
X181175443Y-118929051D01*
X181133302Y-118966201D01*
X181012537Y-119085224D01*
X180974822Y-119126773D01*
X180974781Y-119126821D01*
X180957472Y-119148159D01*
X180957445Y-119148194D01*
X180924564Y-119193680D01*
X180924558Y-119193688D01*
X180833020Y-119336397D01*
X180833013Y-119336407D01*
X180805354Y-119385308D01*
X180793177Y-119409937D01*
X180771110Y-119461609D01*
X180771108Y-119461615D01*
X180710920Y-119627523D01*
X180702073Y-119654199D01*
X180698089Y-119667439D01*
X180690758Y-119694495D01*
X180440562Y-120731021D01*
X180281989Y-121387968D01*
X180108578Y-122106386D01*
X180079948Y-122224996D01*
X179719332Y-123718978D01*
X179592337Y-124245099D01*
X179264019Y-125605271D01*
X179229154Y-125665821D01*
X179167088Y-125697908D01*
X179143719Y-125700176D01*
X164199738Y-125728804D01*
X164132660Y-125709248D01*
X164086805Y-125656531D01*
X164075500Y-125604804D01*
X164075500Y-124569522D01*
X165898898Y-124569522D01*
X166083856Y-124658594D01*
X166083859Y-124658595D01*
X166334495Y-124735907D01*
X166334501Y-124735909D01*
X166593849Y-124774999D01*
X166593858Y-124775000D01*
X166856144Y-124775000D01*
X166856152Y-124774999D01*
X167115500Y-124735909D01*
X167115506Y-124735907D01*
X167366142Y-124658595D01*
X167366146Y-124658594D01*
X167551103Y-124569522D01*
X174098897Y-124569522D01*
X174283855Y-124658594D01*
X174283858Y-124658595D01*
X174534494Y-124735907D01*
X174534500Y-124735909D01*
X174793848Y-124774999D01*
X174793857Y-124775000D01*
X175056143Y-124775000D01*
X175056151Y-124774999D01*
X175315499Y-124735909D01*
X175315505Y-124735907D01*
X175566141Y-124658595D01*
X175566145Y-124658594D01*
X175751102Y-124569522D01*
X174925000Y-123743420D01*
X174098897Y-124569522D01*
X167551103Y-124569522D01*
X166725001Y-123743420D01*
X165898898Y-124569522D01*
X164075500Y-124569522D01*
X164075500Y-123024995D01*
X164970094Y-123024995D01*
X164970094Y-123025004D01*
X164989693Y-123286545D01*
X164989694Y-123286550D01*
X165048059Y-123542270D01*
X165143881Y-123786419D01*
X165143883Y-123786423D01*
X165180951Y-123850628D01*
X166006581Y-123025000D01*
X165937785Y-122956204D01*
X166026501Y-122956204D01*
X166026501Y-123093796D01*
X166053344Y-123228745D01*
X166105998Y-123355864D01*
X166182440Y-123470268D01*
X166279733Y-123567561D01*
X166394137Y-123644003D01*
X166521256Y-123696657D01*
X166656205Y-123723500D01*
X166793797Y-123723500D01*
X166928746Y-123696657D01*
X167055865Y-123644003D01*
X167170269Y-123567561D01*
X167267562Y-123470268D01*
X167344004Y-123355864D01*
X167396658Y-123228745D01*
X167423501Y-123093796D01*
X167423501Y-123024999D01*
X167443421Y-123024999D01*
X167443421Y-123025001D01*
X168269049Y-123850629D01*
X168269050Y-123850629D01*
X168306117Y-123786426D01*
X168401942Y-123542270D01*
X168460307Y-123286550D01*
X168460308Y-123286545D01*
X168479908Y-123025004D01*
X168479908Y-123024995D01*
X173170093Y-123024995D01*
X173170093Y-123025004D01*
X173189692Y-123286545D01*
X173189693Y-123286550D01*
X173248058Y-123542270D01*
X173343880Y-123786419D01*
X173343882Y-123786423D01*
X173380950Y-123850628D01*
X174206580Y-123025000D01*
X174137784Y-122956204D01*
X174226500Y-122956204D01*
X174226500Y-123093796D01*
X174253343Y-123228745D01*
X174305997Y-123355864D01*
X174382439Y-123470268D01*
X174479732Y-123567561D01*
X174594136Y-123644003D01*
X174721255Y-123696657D01*
X174856204Y-123723500D01*
X174993796Y-123723500D01*
X175128745Y-123696657D01*
X175255864Y-123644003D01*
X175370268Y-123567561D01*
X175467561Y-123470268D01*
X175544003Y-123355864D01*
X175596657Y-123228745D01*
X175623500Y-123093796D01*
X175623500Y-123024999D01*
X175643420Y-123024999D01*
X175643420Y-123025001D01*
X176469048Y-123850629D01*
X176469049Y-123850629D01*
X176506116Y-123786426D01*
X176601941Y-123542270D01*
X176660306Y-123286550D01*
X176660307Y-123286545D01*
X176679907Y-123025004D01*
X176679907Y-123024995D01*
X176660307Y-122763454D01*
X176660306Y-122763449D01*
X176601941Y-122507729D01*
X176506116Y-122263573D01*
X176506117Y-122263573D01*
X176469048Y-122199370D01*
X175643420Y-123024999D01*
X175623500Y-123024999D01*
X175623500Y-122956204D01*
X175596657Y-122821255D01*
X175544003Y-122694136D01*
X175467561Y-122579732D01*
X175370268Y-122482439D01*
X175255864Y-122405997D01*
X175128745Y-122353343D01*
X174993796Y-122326500D01*
X174856204Y-122326500D01*
X174721255Y-122353343D01*
X174594136Y-122405997D01*
X174479732Y-122482439D01*
X174382439Y-122579732D01*
X174305997Y-122694136D01*
X174253343Y-122821255D01*
X174226500Y-122956204D01*
X174137784Y-122956204D01*
X173380950Y-122199370D01*
X173343883Y-122263572D01*
X173248057Y-122507735D01*
X173189693Y-122763449D01*
X173189692Y-122763454D01*
X173170093Y-123024995D01*
X168479908Y-123024995D01*
X168460308Y-122763454D01*
X168460307Y-122763449D01*
X168401942Y-122507729D01*
X168306117Y-122263573D01*
X168306118Y-122263573D01*
X168269049Y-122199370D01*
X167443421Y-123024999D01*
X167423501Y-123024999D01*
X167423501Y-122956204D01*
X167396658Y-122821255D01*
X167344004Y-122694136D01*
X167267562Y-122579732D01*
X167170269Y-122482439D01*
X167055865Y-122405997D01*
X166928746Y-122353343D01*
X166793797Y-122326500D01*
X166656205Y-122326500D01*
X166521256Y-122353343D01*
X166394137Y-122405997D01*
X166279733Y-122482439D01*
X166182440Y-122579732D01*
X166105998Y-122694136D01*
X166053344Y-122821255D01*
X166026501Y-122956204D01*
X165937785Y-122956204D01*
X165180951Y-122199370D01*
X165143884Y-122263572D01*
X165048058Y-122507735D01*
X164989694Y-122763449D01*
X164989693Y-122763454D01*
X164970094Y-123024995D01*
X164075500Y-123024995D01*
X164075500Y-121480477D01*
X165898898Y-121480477D01*
X166725001Y-122306580D01*
X166725002Y-122306580D01*
X167551104Y-121480477D01*
X174098897Y-121480477D01*
X174925000Y-122306580D01*
X174925001Y-122306580D01*
X175751103Y-121480477D01*
X175751102Y-121480475D01*
X175566142Y-121391404D01*
X175566144Y-121391404D01*
X175315505Y-121314092D01*
X175315499Y-121314090D01*
X175056151Y-121275000D01*
X174793848Y-121275000D01*
X174534500Y-121314090D01*
X174534494Y-121314092D01*
X174283858Y-121391404D01*
X174283854Y-121391405D01*
X174098897Y-121480477D01*
X167551104Y-121480477D01*
X167551103Y-121480475D01*
X167366143Y-121391404D01*
X167366145Y-121391404D01*
X167115506Y-121314092D01*
X167115500Y-121314090D01*
X166856152Y-121275000D01*
X166593849Y-121275000D01*
X166334501Y-121314090D01*
X166334495Y-121314092D01*
X166083859Y-121391404D01*
X166083855Y-121391405D01*
X165898898Y-121480477D01*
X164075500Y-121480477D01*
X164075500Y-121128543D01*
X164077026Y-121109148D01*
X164086787Y-121047543D01*
X164098771Y-121010664D01*
X164122604Y-120963891D01*
X164145403Y-120932514D01*
X164182515Y-120895401D01*
X164213891Y-120872604D01*
X164260664Y-120848771D01*
X164297543Y-120836787D01*
X164359148Y-120827026D01*
X164378543Y-120825500D01*
X167941095Y-120825500D01*
X168471930Y-120787534D01*
X168998703Y-120711795D01*
X168998704Y-120711794D01*
X168998709Y-120711794D01*
X169518724Y-120598672D01*
X169518727Y-120598671D01*
X169518732Y-120598670D01*
X170029365Y-120448734D01*
X170528001Y-120262753D01*
X171012098Y-120041673D01*
X171479191Y-119786621D01*
X171926898Y-119498897D01*
X171976725Y-119461597D01*
X172352930Y-119179974D01*
X172389606Y-119148194D01*
X172755141Y-118831457D01*
X173131457Y-118455141D01*
X173479967Y-118052938D01*
X173479966Y-118052938D01*
X173479974Y-118052930D01*
X173798894Y-117626902D01*
X173798893Y-117626902D01*
X173798897Y-117626898D01*
X174086621Y-117179191D01*
X174341673Y-116712098D01*
X174562753Y-116228001D01*
X174748734Y-115729365D01*
X174898670Y-115218732D01*
X174898672Y-115218724D01*
X175011794Y-114698709D01*
X175028071Y-114585500D01*
X175087534Y-114171930D01*
X175125500Y-113641095D01*
X175125500Y-113375000D01*
X175125500Y-113309108D01*
X175125500Y-112453480D01*
X175125695Y-112446527D01*
X175133360Y-112310038D01*
X175664500Y-112310038D01*
X175664500Y-112589961D01*
X175664501Y-112589977D01*
X175701038Y-112867507D01*
X175773491Y-113137905D01*
X175880613Y-113396522D01*
X175880620Y-113396537D01*
X176020586Y-113638965D01*
X176190999Y-113861052D01*
X176191005Y-113861059D01*
X176388940Y-114058994D01*
X176388947Y-114059000D01*
X176611034Y-114229413D01*
X176853462Y-114369379D01*
X176853477Y-114369386D01*
X176987221Y-114424784D01*
X177112093Y-114476508D01*
X177382491Y-114548961D01*
X177660032Y-114585500D01*
X177660039Y-114585500D01*
X177939961Y-114585500D01*
X177939968Y-114585500D01*
X178217509Y-114548961D01*
X178487907Y-114476508D01*
X178746534Y-114369381D01*
X178988966Y-114229413D01*
X179211054Y-114058999D01*
X179408999Y-113861054D01*
X179579413Y-113638966D01*
X179719381Y-113396534D01*
X179826508Y-113137907D01*
X179898961Y-112867509D01*
X179935500Y-112589968D01*
X179935500Y-112324998D01*
X181869891Y-112324998D01*
X181869891Y-112325001D01*
X181890300Y-112610362D01*
X181951109Y-112889895D01*
X182051091Y-113157958D01*
X182147344Y-113334232D01*
X182147345Y-113334232D01*
X183075462Y-112406116D01*
X183105743Y-112558351D01*
X183166049Y-112703942D01*
X183253599Y-112834970D01*
X183365030Y-112946401D01*
X183496058Y-113033951D01*
X183641649Y-113094257D01*
X183793882Y-113124537D01*
X182865766Y-114052653D01*
X182865766Y-114052654D01*
X183042042Y-114148908D01*
X183042041Y-114148908D01*
X183310104Y-114248890D01*
X183589637Y-114309699D01*
X183874999Y-114330109D01*
X183875001Y-114330109D01*
X184160362Y-114309699D01*
X184439895Y-114248890D01*
X184707957Y-114148908D01*
X184884232Y-114052654D01*
X184884232Y-114052653D01*
X183956118Y-113124537D01*
X184108351Y-113094257D01*
X184253942Y-113033951D01*
X184384970Y-112946401D01*
X184496401Y-112834970D01*
X184583951Y-112703942D01*
X184644257Y-112558351D01*
X184674537Y-112406118D01*
X185574999Y-113306579D01*
X186475462Y-112406116D01*
X186505743Y-112558351D01*
X186566049Y-112703942D01*
X186653599Y-112834970D01*
X186765030Y-112946401D01*
X186896058Y-113033951D01*
X187041649Y-113094257D01*
X187193882Y-113124537D01*
X186265766Y-114052653D01*
X186265766Y-114052654D01*
X186442042Y-114148908D01*
X186442041Y-114148908D01*
X186710104Y-114248890D01*
X186989637Y-114309699D01*
X187274999Y-114330109D01*
X187275001Y-114330109D01*
X187560362Y-114309699D01*
X187839895Y-114248890D01*
X188107957Y-114148908D01*
X188284232Y-114052654D01*
X188284232Y-114052653D01*
X187356118Y-113124537D01*
X187508351Y-113094257D01*
X187653942Y-113033951D01*
X187784970Y-112946401D01*
X187896401Y-112834970D01*
X187983951Y-112703942D01*
X188044257Y-112558351D01*
X188074537Y-112406118D01*
X189002653Y-113334232D01*
X189002654Y-113334232D01*
X189098908Y-113157957D01*
X189198890Y-112889895D01*
X189259699Y-112610362D01*
X189280109Y-112325001D01*
X189280109Y-112324998D01*
X191869871Y-112324998D01*
X191869871Y-112325001D01*
X191890280Y-112610362D01*
X191951089Y-112889895D01*
X192051071Y-113157958D01*
X192147324Y-113334232D01*
X192147325Y-113334232D01*
X193075442Y-112406116D01*
X193105723Y-112558351D01*
X193166029Y-112703942D01*
X193253579Y-112834970D01*
X193365010Y-112946401D01*
X193496038Y-113033951D01*
X193641629Y-113094257D01*
X193793862Y-113124537D01*
X192865746Y-114052653D01*
X192865746Y-114052654D01*
X193042022Y-114148908D01*
X193042021Y-114148908D01*
X193310084Y-114248890D01*
X193589617Y-114309699D01*
X193874979Y-114330109D01*
X193874981Y-114330109D01*
X194160342Y-114309699D01*
X194439875Y-114248890D01*
X194707937Y-114148908D01*
X194884212Y-114052654D01*
X194884212Y-114052653D01*
X193956098Y-113124537D01*
X194108331Y-113094257D01*
X194253922Y-113033951D01*
X194384950Y-112946401D01*
X194496381Y-112834970D01*
X194583931Y-112703942D01*
X194644237Y-112558351D01*
X194674517Y-112406117D01*
X195574979Y-113306579D01*
X196475442Y-112406116D01*
X196505723Y-112558351D01*
X196566029Y-112703942D01*
X196653579Y-112834970D01*
X196765010Y-112946401D01*
X196896038Y-113033951D01*
X197041629Y-113094257D01*
X197193862Y-113124537D01*
X196265746Y-114052653D01*
X196265746Y-114052654D01*
X196442022Y-114148908D01*
X196442021Y-114148908D01*
X196710084Y-114248890D01*
X196989617Y-114309699D01*
X197274979Y-114330109D01*
X197274981Y-114330109D01*
X197560342Y-114309699D01*
X197839875Y-114248890D01*
X198107937Y-114148908D01*
X198284212Y-114052654D01*
X198284212Y-114052653D01*
X197356098Y-113124537D01*
X197508331Y-113094257D01*
X197653922Y-113033951D01*
X197784950Y-112946401D01*
X197896381Y-112834970D01*
X197983931Y-112703942D01*
X198044237Y-112558351D01*
X198074517Y-112406118D01*
X199002633Y-113334232D01*
X199002634Y-113334232D01*
X199098888Y-113157957D01*
X199198870Y-112889895D01*
X199259679Y-112610362D01*
X199280089Y-112325001D01*
X199280089Y-112324998D01*
X201869851Y-112324998D01*
X201869851Y-112325001D01*
X201890260Y-112610362D01*
X201951069Y-112889895D01*
X202051051Y-113157958D01*
X202147304Y-113334232D01*
X202147305Y-113334232D01*
X203075422Y-112406116D01*
X203105703Y-112558351D01*
X203166009Y-112703942D01*
X203253559Y-112834970D01*
X203364990Y-112946401D01*
X203496018Y-113033951D01*
X203641609Y-113094257D01*
X203793842Y-113124537D01*
X202865726Y-114052653D01*
X202865726Y-114052654D01*
X203042002Y-114148908D01*
X203042001Y-114148908D01*
X203310064Y-114248890D01*
X203589597Y-114309699D01*
X203874959Y-114330109D01*
X203874961Y-114330109D01*
X204160322Y-114309699D01*
X204439855Y-114248890D01*
X204707917Y-114148908D01*
X204884192Y-114052654D01*
X204884192Y-114052653D01*
X203956078Y-113124537D01*
X204108311Y-113094257D01*
X204253902Y-113033951D01*
X204384930Y-112946401D01*
X204496361Y-112834970D01*
X204583911Y-112703942D01*
X204644217Y-112558351D01*
X204674497Y-112406117D01*
X205574959Y-113306579D01*
X206475422Y-112406116D01*
X206505703Y-112558351D01*
X206566009Y-112703942D01*
X206653559Y-112834970D01*
X206764990Y-112946401D01*
X206896018Y-113033951D01*
X207041609Y-113094257D01*
X207193842Y-113124537D01*
X206265726Y-114052653D01*
X206265726Y-114052654D01*
X206442002Y-114148908D01*
X206442001Y-114148908D01*
X206710064Y-114248890D01*
X206989597Y-114309699D01*
X207274959Y-114330109D01*
X207274961Y-114330109D01*
X207560322Y-114309699D01*
X207839855Y-114248890D01*
X208107917Y-114148908D01*
X208284192Y-114052654D01*
X208284192Y-114052653D01*
X207356078Y-113124537D01*
X207508311Y-113094257D01*
X207653902Y-113033951D01*
X207784930Y-112946401D01*
X207896361Y-112834970D01*
X207983911Y-112703942D01*
X208044217Y-112558351D01*
X208074497Y-112406118D01*
X209002613Y-113334232D01*
X209002614Y-113334232D01*
X209098868Y-113157957D01*
X209198850Y-112889895D01*
X209259659Y-112610362D01*
X209280069Y-112325001D01*
X209280069Y-112324998D01*
X211869831Y-112324998D01*
X211869831Y-112325001D01*
X211890240Y-112610362D01*
X211951049Y-112889895D01*
X212051031Y-113157958D01*
X212147284Y-113334232D01*
X212147285Y-113334232D01*
X213075402Y-112406116D01*
X213105683Y-112558351D01*
X213165989Y-112703942D01*
X213253539Y-112834970D01*
X213364970Y-112946401D01*
X213495998Y-113033951D01*
X213641589Y-113094257D01*
X213793822Y-113124537D01*
X212865706Y-114052653D01*
X212865706Y-114052654D01*
X213041982Y-114148908D01*
X213041981Y-114148908D01*
X213310044Y-114248890D01*
X213589577Y-114309699D01*
X213874939Y-114330109D01*
X213874941Y-114330109D01*
X214160302Y-114309699D01*
X214439835Y-114248890D01*
X214707897Y-114148908D01*
X214884172Y-114052654D01*
X214884172Y-114052653D01*
X213956058Y-113124537D01*
X214108291Y-113094257D01*
X214253882Y-113033951D01*
X214384910Y-112946401D01*
X214496341Y-112834970D01*
X214583891Y-112703942D01*
X214644197Y-112558351D01*
X214674477Y-112406118D01*
X215574939Y-113306579D01*
X216475402Y-112406116D01*
X216505683Y-112558351D01*
X216565989Y-112703942D01*
X216653539Y-112834970D01*
X216764970Y-112946401D01*
X216895998Y-113033951D01*
X217041589Y-113094257D01*
X217193822Y-113124537D01*
X216265706Y-114052653D01*
X216265706Y-114052654D01*
X216441982Y-114148908D01*
X216441981Y-114148908D01*
X216710044Y-114248890D01*
X216989577Y-114309699D01*
X217274939Y-114330109D01*
X217274941Y-114330109D01*
X217560302Y-114309699D01*
X217839835Y-114248890D01*
X218107897Y-114148908D01*
X218284172Y-114052654D01*
X218284172Y-114052653D01*
X217356058Y-113124537D01*
X217508291Y-113094257D01*
X217653882Y-113033951D01*
X217784910Y-112946401D01*
X217896341Y-112834970D01*
X217983891Y-112703942D01*
X218044197Y-112558351D01*
X218074477Y-112406118D01*
X219002593Y-113334232D01*
X219002594Y-113334232D01*
X219098848Y-113157957D01*
X219198830Y-112889895D01*
X219259639Y-112610362D01*
X219280049Y-112325001D01*
X219280049Y-112324998D01*
X221869811Y-112324998D01*
X221869811Y-112325001D01*
X221890220Y-112610362D01*
X221951029Y-112889895D01*
X222051011Y-113157958D01*
X222147264Y-113334232D01*
X222147265Y-113334232D01*
X223075382Y-112406116D01*
X223105663Y-112558351D01*
X223165969Y-112703942D01*
X223253519Y-112834970D01*
X223364950Y-112946401D01*
X223495978Y-113033951D01*
X223641569Y-113094257D01*
X223793802Y-113124537D01*
X222865686Y-114052653D01*
X222865686Y-114052654D01*
X223041962Y-114148908D01*
X223041961Y-114148908D01*
X223310024Y-114248890D01*
X223589557Y-114309699D01*
X223874919Y-114330109D01*
X223874921Y-114330109D01*
X224160282Y-114309699D01*
X224439815Y-114248890D01*
X224707877Y-114148908D01*
X224884152Y-114052654D01*
X224884152Y-114052653D01*
X223956038Y-113124537D01*
X224108271Y-113094257D01*
X224253862Y-113033951D01*
X224384890Y-112946401D01*
X224496321Y-112834970D01*
X224583871Y-112703942D01*
X224644177Y-112558351D01*
X224674457Y-112406117D01*
X225574919Y-113306579D01*
X226475382Y-112406116D01*
X226505663Y-112558351D01*
X226565969Y-112703942D01*
X226653519Y-112834970D01*
X226764950Y-112946401D01*
X226895978Y-113033951D01*
X227041569Y-113094257D01*
X227193802Y-113124537D01*
X226265686Y-114052653D01*
X226265686Y-114052654D01*
X226441962Y-114148908D01*
X226441961Y-114148908D01*
X226710024Y-114248890D01*
X226989557Y-114309699D01*
X227274919Y-114330109D01*
X227274921Y-114330109D01*
X227560282Y-114309699D01*
X227839815Y-114248890D01*
X228107877Y-114148908D01*
X228284152Y-114052654D01*
X228284152Y-114052653D01*
X227356038Y-113124537D01*
X227508271Y-113094257D01*
X227653862Y-113033951D01*
X227784890Y-112946401D01*
X227896321Y-112834970D01*
X227983871Y-112703942D01*
X228044177Y-112558351D01*
X228074457Y-112406117D01*
X229002573Y-113334232D01*
X229002574Y-113334232D01*
X229098828Y-113157957D01*
X229198810Y-112889895D01*
X229259619Y-112610362D01*
X229280029Y-112325001D01*
X229280029Y-112324998D01*
X229278959Y-112310038D01*
X231614500Y-112310038D01*
X231614500Y-112589961D01*
X231614501Y-112589977D01*
X231651038Y-112867507D01*
X231723491Y-113137905D01*
X231830613Y-113396522D01*
X231830620Y-113396537D01*
X231970586Y-113638965D01*
X232140999Y-113861052D01*
X232141005Y-113861059D01*
X232338940Y-114058994D01*
X232338947Y-114059000D01*
X232561034Y-114229413D01*
X232803462Y-114369379D01*
X232803477Y-114369386D01*
X232937221Y-114424784D01*
X233062093Y-114476508D01*
X233332491Y-114548961D01*
X233610032Y-114585500D01*
X233610039Y-114585500D01*
X233889961Y-114585500D01*
X233889968Y-114585500D01*
X234167509Y-114548961D01*
X234437907Y-114476508D01*
X234696534Y-114369381D01*
X234938966Y-114229413D01*
X235161054Y-114058999D01*
X235358999Y-113861054D01*
X235529413Y-113638966D01*
X235669381Y-113396534D01*
X235776508Y-113137907D01*
X235848961Y-112867509D01*
X235885500Y-112589968D01*
X235885500Y-112310032D01*
X235848961Y-112032491D01*
X235776508Y-111762093D01*
X235724784Y-111637221D01*
X235669386Y-111503477D01*
X235669379Y-111503462D01*
X235529413Y-111261034D01*
X235359000Y-111038947D01*
X235358994Y-111038940D01*
X235161059Y-110841005D01*
X235161052Y-110840999D01*
X234938965Y-110670586D01*
X234696537Y-110530620D01*
X234696522Y-110530613D01*
X234437905Y-110423491D01*
X234167507Y-110351038D01*
X233889977Y-110314501D01*
X233889974Y-110314500D01*
X233889968Y-110314500D01*
X233610032Y-110314500D01*
X233610026Y-110314500D01*
X233610022Y-110314501D01*
X233332492Y-110351038D01*
X233062094Y-110423491D01*
X232803477Y-110530613D01*
X232803462Y-110530620D01*
X232561034Y-110670586D01*
X232338947Y-110840999D01*
X232338940Y-110841005D01*
X232141005Y-111038940D01*
X232140999Y-111038947D01*
X231970586Y-111261034D01*
X231830620Y-111503462D01*
X231830613Y-111503477D01*
X231723491Y-111762094D01*
X231651038Y-112032492D01*
X231614501Y-112310022D01*
X231614500Y-112310038D01*
X229278959Y-112310038D01*
X229259619Y-112039637D01*
X229198810Y-111760104D01*
X229098828Y-111492042D01*
X229002573Y-111315766D01*
X228074457Y-112243882D01*
X228044177Y-112091649D01*
X227983871Y-111946058D01*
X227896321Y-111815030D01*
X227784890Y-111703599D01*
X227653862Y-111616049D01*
X227508271Y-111555743D01*
X227356037Y-111525462D01*
X228284152Y-110597345D01*
X228284152Y-110597344D01*
X228107878Y-110501091D01*
X227839815Y-110401109D01*
X227560282Y-110340300D01*
X227274921Y-110319891D01*
X227274919Y-110319891D01*
X226989557Y-110340300D01*
X226710024Y-110401109D01*
X226441967Y-110501089D01*
X226265686Y-110597344D01*
X226265686Y-110597345D01*
X227193803Y-111525462D01*
X227041569Y-111555743D01*
X226895978Y-111616049D01*
X226764950Y-111703599D01*
X226653519Y-111815030D01*
X226565969Y-111946058D01*
X226505663Y-112091649D01*
X226475382Y-112243882D01*
X225574921Y-111343420D01*
X225574920Y-111343420D01*
X224674457Y-112243882D01*
X224644177Y-112091649D01*
X224583871Y-111946058D01*
X224496321Y-111815030D01*
X224384890Y-111703599D01*
X224253862Y-111616049D01*
X224108271Y-111555743D01*
X223956037Y-111525462D01*
X224884152Y-110597345D01*
X224884152Y-110597344D01*
X224707878Y-110501091D01*
X224439815Y-110401109D01*
X224160282Y-110340300D01*
X223874921Y-110319891D01*
X223874919Y-110319891D01*
X223589557Y-110340300D01*
X223310024Y-110401109D01*
X223041967Y-110501089D01*
X222865686Y-110597344D01*
X222865686Y-110597345D01*
X223793803Y-111525462D01*
X223641569Y-111555743D01*
X223495978Y-111616049D01*
X223364950Y-111703599D01*
X223253519Y-111815030D01*
X223165969Y-111946058D01*
X223105663Y-112091649D01*
X223075382Y-112243883D01*
X222147265Y-111315766D01*
X222147264Y-111315766D01*
X222051009Y-111492047D01*
X221951029Y-111760104D01*
X221890220Y-112039637D01*
X221869811Y-112324998D01*
X219280049Y-112324998D01*
X219259639Y-112039637D01*
X219198830Y-111760104D01*
X219098848Y-111492042D01*
X219002593Y-111315766D01*
X218074477Y-112243881D01*
X218044197Y-112091649D01*
X217983891Y-111946058D01*
X217896341Y-111815030D01*
X217784910Y-111703599D01*
X217653882Y-111616049D01*
X217508291Y-111555743D01*
X217356057Y-111525462D01*
X218284172Y-110597345D01*
X218284172Y-110597344D01*
X218107898Y-110501091D01*
X217839835Y-110401109D01*
X217560302Y-110340300D01*
X217274941Y-110319891D01*
X217274939Y-110319891D01*
X216989577Y-110340300D01*
X216710044Y-110401109D01*
X216441987Y-110501089D01*
X216265706Y-110597344D01*
X216265706Y-110597345D01*
X217193823Y-111525462D01*
X217041589Y-111555743D01*
X216895998Y-111616049D01*
X216764970Y-111703599D01*
X216653539Y-111815030D01*
X216565989Y-111946058D01*
X216505683Y-112091649D01*
X216475402Y-112243882D01*
X215574941Y-111343420D01*
X215574940Y-111343420D01*
X214674477Y-112243881D01*
X214644197Y-112091649D01*
X214583891Y-111946058D01*
X214496341Y-111815030D01*
X214384910Y-111703599D01*
X214253882Y-111616049D01*
X214108291Y-111555743D01*
X213956057Y-111525462D01*
X214884172Y-110597345D01*
X214884172Y-110597344D01*
X214707898Y-110501091D01*
X214439835Y-110401109D01*
X214160302Y-110340300D01*
X213874941Y-110319891D01*
X213874939Y-110319891D01*
X213589577Y-110340300D01*
X213310044Y-110401109D01*
X213041987Y-110501089D01*
X212865706Y-110597344D01*
X212865706Y-110597345D01*
X213793823Y-111525462D01*
X213641589Y-111555743D01*
X213495998Y-111616049D01*
X213364970Y-111703599D01*
X213253539Y-111815030D01*
X213165989Y-111946058D01*
X213105683Y-112091649D01*
X213075402Y-112243882D01*
X212147285Y-111315766D01*
X212147284Y-111315766D01*
X212051029Y-111492047D01*
X211951049Y-111760104D01*
X211890240Y-112039637D01*
X211869831Y-112324998D01*
X209280069Y-112324998D01*
X209259659Y-112039637D01*
X209198850Y-111760104D01*
X209098868Y-111492042D01*
X209002613Y-111315766D01*
X208074497Y-112243881D01*
X208044217Y-112091649D01*
X207983911Y-111946058D01*
X207896361Y-111815030D01*
X207784930Y-111703599D01*
X207653902Y-111616049D01*
X207508311Y-111555743D01*
X207356077Y-111525462D01*
X208284192Y-110597345D01*
X208284192Y-110597344D01*
X208107918Y-110501091D01*
X207839855Y-110401109D01*
X207560322Y-110340300D01*
X207274961Y-110319891D01*
X207274959Y-110319891D01*
X206989597Y-110340300D01*
X206710064Y-110401109D01*
X206442007Y-110501089D01*
X206265726Y-110597344D01*
X206265726Y-110597345D01*
X207193843Y-111525462D01*
X207041609Y-111555743D01*
X206896018Y-111616049D01*
X206764990Y-111703599D01*
X206653559Y-111815030D01*
X206566009Y-111946058D01*
X206505703Y-112091649D01*
X206475422Y-112243882D01*
X205574961Y-111343420D01*
X205574960Y-111343420D01*
X204674497Y-112243882D01*
X204644217Y-112091649D01*
X204583911Y-111946058D01*
X204496361Y-111815030D01*
X204384930Y-111703599D01*
X204253902Y-111616049D01*
X204108311Y-111555743D01*
X203956077Y-111525462D01*
X204884192Y-110597345D01*
X204884192Y-110597344D01*
X204707918Y-110501091D01*
X204439855Y-110401109D01*
X204160322Y-110340300D01*
X203874961Y-110319891D01*
X203874959Y-110319891D01*
X203589597Y-110340300D01*
X203310064Y-110401109D01*
X203042007Y-110501089D01*
X202865726Y-110597344D01*
X202865726Y-110597345D01*
X203793843Y-111525462D01*
X203641609Y-111555743D01*
X203496018Y-111616049D01*
X203364990Y-111703599D01*
X203253559Y-111815030D01*
X203166009Y-111946058D01*
X203105703Y-112091649D01*
X203075422Y-112243883D01*
X202147305Y-111315766D01*
X202147304Y-111315766D01*
X202051049Y-111492047D01*
X201951069Y-111760104D01*
X201890260Y-112039637D01*
X201869851Y-112324998D01*
X199280089Y-112324998D01*
X199259679Y-112039637D01*
X199198870Y-111760104D01*
X199098888Y-111492042D01*
X199002633Y-111315766D01*
X198074517Y-112243881D01*
X198044237Y-112091649D01*
X197983931Y-111946058D01*
X197896381Y-111815030D01*
X197784950Y-111703599D01*
X197653922Y-111616049D01*
X197508331Y-111555743D01*
X197356097Y-111525462D01*
X198284212Y-110597345D01*
X198284212Y-110597344D01*
X198107938Y-110501091D01*
X197839875Y-110401109D01*
X197560342Y-110340300D01*
X197274981Y-110319891D01*
X197274979Y-110319891D01*
X196989617Y-110340300D01*
X196710084Y-110401109D01*
X196442027Y-110501089D01*
X196265746Y-110597344D01*
X196265746Y-110597345D01*
X197193863Y-111525462D01*
X197041629Y-111555743D01*
X196896038Y-111616049D01*
X196765010Y-111703599D01*
X196653579Y-111815030D01*
X196566029Y-111946058D01*
X196505723Y-112091649D01*
X196475442Y-112243882D01*
X195574981Y-111343420D01*
X195574980Y-111343420D01*
X194674517Y-112243882D01*
X194644237Y-112091649D01*
X194583931Y-111946058D01*
X194496381Y-111815030D01*
X194384950Y-111703599D01*
X194253922Y-111616049D01*
X194108331Y-111555743D01*
X193956097Y-111525462D01*
X194884212Y-110597345D01*
X194884212Y-110597344D01*
X194707938Y-110501091D01*
X194439875Y-110401109D01*
X194160342Y-110340300D01*
X193874981Y-110319891D01*
X193874979Y-110319891D01*
X193589617Y-110340300D01*
X193310084Y-110401109D01*
X193042027Y-110501089D01*
X192865746Y-110597344D01*
X192865746Y-110597345D01*
X193793863Y-111525462D01*
X193641629Y-111555743D01*
X193496038Y-111616049D01*
X193365010Y-111703599D01*
X193253579Y-111815030D01*
X193166029Y-111946058D01*
X193105723Y-112091649D01*
X193075442Y-112243882D01*
X192147325Y-111315766D01*
X192147324Y-111315766D01*
X192051069Y-111492047D01*
X191951089Y-111760104D01*
X191890280Y-112039637D01*
X191869871Y-112324998D01*
X189280109Y-112324998D01*
X189259699Y-112039637D01*
X189198890Y-111760104D01*
X189098908Y-111492042D01*
X189002653Y-111315766D01*
X188074537Y-112243881D01*
X188044257Y-112091649D01*
X187983951Y-111946058D01*
X187896401Y-111815030D01*
X187784970Y-111703599D01*
X187653942Y-111616049D01*
X187508351Y-111555743D01*
X187356117Y-111525462D01*
X188284232Y-110597345D01*
X188284232Y-110597344D01*
X188107958Y-110501091D01*
X187839895Y-110401109D01*
X187560362Y-110340300D01*
X187275001Y-110319891D01*
X187274999Y-110319891D01*
X186989637Y-110340300D01*
X186710104Y-110401109D01*
X186442047Y-110501089D01*
X186265766Y-110597344D01*
X186265766Y-110597345D01*
X187193883Y-111525462D01*
X187041649Y-111555743D01*
X186896058Y-111616049D01*
X186765030Y-111703599D01*
X186653599Y-111815030D01*
X186566049Y-111946058D01*
X186505743Y-112091649D01*
X186475462Y-112243882D01*
X185575001Y-111343420D01*
X185575000Y-111343420D01*
X184674537Y-112243881D01*
X184644257Y-112091649D01*
X184583951Y-111946058D01*
X184496401Y-111815030D01*
X184384970Y-111703599D01*
X184253942Y-111616049D01*
X184108351Y-111555743D01*
X183956117Y-111525462D01*
X184884232Y-110597345D01*
X184884232Y-110597344D01*
X184707958Y-110501091D01*
X184439895Y-110401109D01*
X184160362Y-110340300D01*
X183875001Y-110319891D01*
X183874999Y-110319891D01*
X183589637Y-110340300D01*
X183310104Y-110401109D01*
X183042047Y-110501089D01*
X182865766Y-110597344D01*
X182865766Y-110597345D01*
X183793883Y-111525462D01*
X183641649Y-111555743D01*
X183496058Y-111616049D01*
X183365030Y-111703599D01*
X183253599Y-111815030D01*
X183166049Y-111946058D01*
X183105743Y-112091649D01*
X183075462Y-112243883D01*
X182147345Y-111315766D01*
X182147344Y-111315766D01*
X182051089Y-111492047D01*
X181951109Y-111760104D01*
X181890300Y-112039637D01*
X181869891Y-112324998D01*
X179935500Y-112324998D01*
X179935500Y-112310032D01*
X179898961Y-112032491D01*
X179826508Y-111762093D01*
X179774784Y-111637221D01*
X179719386Y-111503477D01*
X179719379Y-111503462D01*
X179579413Y-111261034D01*
X179409000Y-111038947D01*
X179408994Y-111038940D01*
X179211059Y-110841005D01*
X179211052Y-110840999D01*
X178988965Y-110670586D01*
X178746537Y-110530620D01*
X178746522Y-110530613D01*
X178487905Y-110423491D01*
X178217507Y-110351038D01*
X177939977Y-110314501D01*
X177939974Y-110314500D01*
X177939968Y-110314500D01*
X177660032Y-110314500D01*
X177660026Y-110314500D01*
X177660022Y-110314501D01*
X177382492Y-110351038D01*
X177112094Y-110423491D01*
X176853477Y-110530613D01*
X176853462Y-110530620D01*
X176611034Y-110670586D01*
X176388947Y-110840999D01*
X176388940Y-110841005D01*
X176191005Y-111038940D01*
X176190999Y-111038947D01*
X176020586Y-111261034D01*
X175880620Y-111503462D01*
X175880613Y-111503477D01*
X175773491Y-111762094D01*
X175701038Y-112032492D01*
X175664501Y-112310022D01*
X175664500Y-112310038D01*
X175133360Y-112310038D01*
X175141927Y-112157490D01*
X175143481Y-112143696D01*
X175191389Y-111861730D01*
X175194482Y-111848178D01*
X175273657Y-111573357D01*
X175278250Y-111560232D01*
X175387699Y-111295997D01*
X175393719Y-111283498D01*
X175532076Y-111033159D01*
X175539463Y-111021404D01*
X175704968Y-110788147D01*
X175713614Y-110777304D01*
X175904212Y-110564024D01*
X175914024Y-110554212D01*
X176127304Y-110363614D01*
X176138147Y-110354968D01*
X176371404Y-110189463D01*
X176383159Y-110182076D01*
X176633498Y-110043719D01*
X176645997Y-110037699D01*
X176910236Y-109928248D01*
X176923353Y-109923658D01*
X177198184Y-109844480D01*
X177211730Y-109841389D01*
X177493696Y-109793481D01*
X177507490Y-109791927D01*
X177796528Y-109775695D01*
X177803481Y-109775500D01*
X177865892Y-109775500D01*
X233684108Y-109775500D01*
X233746519Y-109775500D01*
X233753472Y-109775695D01*
G37*
%TD.AperFunction*%
%TD*%
%TA.AperFunction,Conductor*%
%TO.N,/F3_OUT*%
G36*
X210094980Y-119126645D02*
G01*
X210256352Y-119143182D01*
X210281103Y-119148309D01*
X210429699Y-119195314D01*
X210452897Y-119205356D01*
X210588864Y-119281520D01*
X210609541Y-119296056D01*
X210713757Y-119386517D01*
X210751481Y-119445326D01*
X210751421Y-119515196D01*
X210749040Y-119522447D01*
X210710920Y-119627523D01*
X210702073Y-119654199D01*
X210698089Y-119667439D01*
X210690758Y-119694495D01*
X210440562Y-120731021D01*
X210280264Y-121395113D01*
X210280263Y-121395117D01*
X210108578Y-122106387D01*
X210079948Y-122224998D01*
X209719332Y-123718978D01*
X209592337Y-124245099D01*
X209104291Y-126267000D01*
X209100995Y-126281597D01*
X209099479Y-126288811D01*
X209096626Y-126303458D01*
X209079980Y-126396181D01*
X209075564Y-126425794D01*
X209073833Y-126440341D01*
X209073833Y-126440346D01*
X209071178Y-126470161D01*
X209069405Y-126500077D01*
X209065603Y-126564203D01*
X209064937Y-126579183D01*
X209064719Y-126586544D01*
X209064500Y-126601421D01*
X209064500Y-130095699D01*
X209044815Y-130162738D01*
X208992011Y-130208493D01*
X208922853Y-130218437D01*
X208859297Y-130189412D01*
X208856160Y-130186599D01*
X208819482Y-130152567D01*
X208736072Y-130095699D01*
X208602707Y-130004772D01*
X208602703Y-130004770D01*
X208602700Y-130004768D01*
X208602699Y-130004767D01*
X208366328Y-129890938D01*
X208366330Y-129890938D01*
X208115626Y-129813606D01*
X208115622Y-129813605D01*
X208115618Y-129813604D01*
X207990826Y-129794794D01*
X207856190Y-129774500D01*
X207856185Y-129774500D01*
X207593821Y-129774500D01*
X207593815Y-129774500D01*
X207432250Y-129798853D01*
X207334388Y-129813604D01*
X207334385Y-129813605D01*
X207334379Y-129813606D01*
X207083676Y-129890938D01*
X206847306Y-130004767D01*
X206847305Y-130004768D01*
X206630523Y-130152567D01*
X206438201Y-130331014D01*
X206274617Y-130536143D01*
X206143435Y-130763356D01*
X206047585Y-131007578D01*
X206047579Y-131007597D01*
X205989200Y-131263374D01*
X205989199Y-131263379D01*
X205969595Y-131524995D01*
X205969595Y-131525004D01*
X205989199Y-131786620D01*
X205989200Y-131786625D01*
X206047579Y-132042402D01*
X206047581Y-132042411D01*
X206047583Y-132042416D01*
X206143435Y-132286643D01*
X206274617Y-132513857D01*
X206383385Y-132650248D01*
X206438201Y-132718985D01*
X206593847Y-132863402D01*
X206630524Y-132897433D01*
X206847299Y-133045228D01*
X206847304Y-133045230D01*
X206847305Y-133045231D01*
X206847306Y-133045232D01*
X206972846Y-133105688D01*
X207083676Y-133159061D01*
X207083677Y-133159061D01*
X207083680Y-133159063D01*
X207334388Y-133236396D01*
X207593821Y-133275500D01*
X207856185Y-133275500D01*
X208115618Y-133236396D01*
X208366326Y-133159063D01*
X208602707Y-133045228D01*
X208819482Y-132897433D01*
X208856159Y-132863402D01*
X208918691Y-132832233D01*
X208988147Y-132839820D01*
X209042476Y-132883753D01*
X209064428Y-132950085D01*
X209064500Y-132954300D01*
X209064500Y-138295698D01*
X209044815Y-138362737D01*
X208992011Y-138408492D01*
X208922853Y-138418436D01*
X208859297Y-138389411D01*
X208856160Y-138386598D01*
X208819482Y-138352566D01*
X208736072Y-138295698D01*
X208602707Y-138204771D01*
X208602703Y-138204769D01*
X208602700Y-138204767D01*
X208602699Y-138204766D01*
X208366328Y-138090937D01*
X208366330Y-138090937D01*
X208115626Y-138013605D01*
X208115622Y-138013604D01*
X208115618Y-138013603D01*
X207990826Y-137994793D01*
X207856190Y-137974499D01*
X207856185Y-137974499D01*
X207593821Y-137974499D01*
X207593815Y-137974499D01*
X207432250Y-137998852D01*
X207334388Y-138013603D01*
X207334385Y-138013604D01*
X207334379Y-138013605D01*
X207083676Y-138090937D01*
X206847306Y-138204766D01*
X206847305Y-138204767D01*
X206630523Y-138352566D01*
X206438201Y-138531013D01*
X206274617Y-138736142D01*
X206143435Y-138963355D01*
X206047585Y-139207577D01*
X206047579Y-139207596D01*
X205989200Y-139463373D01*
X205989199Y-139463378D01*
X205969595Y-139724994D01*
X205969595Y-139725003D01*
X205989199Y-139986619D01*
X205989200Y-139986624D01*
X206047579Y-140242401D01*
X206047581Y-140242410D01*
X206047583Y-140242415D01*
X206143435Y-140486642D01*
X206274617Y-140713856D01*
X206383385Y-140850247D01*
X206438201Y-140918984D01*
X206593847Y-141063401D01*
X206630524Y-141097432D01*
X206847299Y-141245227D01*
X206847304Y-141245229D01*
X206847305Y-141245230D01*
X206847306Y-141245231D01*
X206972846Y-141305687D01*
X207083676Y-141359060D01*
X207083677Y-141359060D01*
X207083680Y-141359062D01*
X207334388Y-141436395D01*
X207593821Y-141475499D01*
X207856185Y-141475499D01*
X208115618Y-141436395D01*
X208366326Y-141359062D01*
X208602707Y-141245227D01*
X208819482Y-141097432D01*
X208856159Y-141063401D01*
X208918691Y-141032232D01*
X208988147Y-141039819D01*
X209042476Y-141083752D01*
X209064428Y-141150084D01*
X209064500Y-141154299D01*
X209064500Y-141863714D01*
X209065282Y-141891833D01*
X209066049Y-141905597D01*
X209068393Y-141933630D01*
X209088001Y-142109138D01*
X209088009Y-142109192D01*
X209097339Y-142164581D01*
X209097344Y-142164605D01*
X209103409Y-142191414D01*
X209103411Y-142191423D01*
X209103417Y-142191444D01*
X209110558Y-142216456D01*
X209110037Y-142286322D01*
X209071825Y-142344816D01*
X209008055Y-142373366D01*
X208991324Y-142374500D01*
X199800853Y-142374500D01*
X199733814Y-142354815D01*
X199695551Y-142315978D01*
X199663910Y-142265093D01*
X199652055Y-142240239D01*
X199596455Y-142079895D01*
X199590380Y-142053041D01*
X199577039Y-141933630D01*
X199570767Y-141877485D01*
X199570000Y-141863717D01*
X199570000Y-141269521D01*
X201898900Y-141269521D01*
X202083858Y-141358593D01*
X202083861Y-141358594D01*
X202334497Y-141435906D01*
X202334503Y-141435908D01*
X202593851Y-141474998D01*
X202593860Y-141474999D01*
X202856146Y-141474999D01*
X202856154Y-141474998D01*
X203115502Y-141435908D01*
X203115508Y-141435906D01*
X203366144Y-141358594D01*
X203366148Y-141358593D01*
X203551105Y-141269521D01*
X202725003Y-140443419D01*
X201898900Y-141269521D01*
X199570000Y-141269521D01*
X199570000Y-139724994D01*
X200970096Y-139724994D01*
X200970096Y-139725003D01*
X200989695Y-139986544D01*
X200989696Y-139986549D01*
X201048061Y-140242269D01*
X201143883Y-140486418D01*
X201143885Y-140486422D01*
X201180953Y-140550627D01*
X202006583Y-139724999D01*
X202006583Y-139724998D01*
X201937788Y-139656203D01*
X202026503Y-139656203D01*
X202026503Y-139793795D01*
X202053346Y-139928744D01*
X202106000Y-140055863D01*
X202182442Y-140170267D01*
X202279735Y-140267560D01*
X202394139Y-140344002D01*
X202521258Y-140396656D01*
X202656207Y-140423499D01*
X202793799Y-140423499D01*
X202928748Y-140396656D01*
X203055867Y-140344002D01*
X203170271Y-140267560D01*
X203267564Y-140170267D01*
X203344006Y-140055863D01*
X203396660Y-139928744D01*
X203423503Y-139793795D01*
X203423503Y-139724998D01*
X203443423Y-139724998D01*
X203443423Y-139724999D01*
X204269051Y-140550628D01*
X204269052Y-140550628D01*
X204306119Y-140486425D01*
X204401944Y-140242269D01*
X204460309Y-139986549D01*
X204460310Y-139986544D01*
X204479910Y-139725003D01*
X204479910Y-139724994D01*
X204460310Y-139463453D01*
X204460309Y-139463448D01*
X204401944Y-139207728D01*
X204306119Y-138963572D01*
X204306120Y-138963572D01*
X204269051Y-138899369D01*
X203443423Y-139724998D01*
X203423503Y-139724998D01*
X203423503Y-139656203D01*
X203396660Y-139521254D01*
X203344006Y-139394135D01*
X203267564Y-139279731D01*
X203170271Y-139182438D01*
X203055867Y-139105996D01*
X202928748Y-139053342D01*
X202793799Y-139026499D01*
X202656207Y-139026499D01*
X202521258Y-139053342D01*
X202394139Y-139105996D01*
X202279735Y-139182438D01*
X202182442Y-139279731D01*
X202106000Y-139394135D01*
X202053346Y-139521254D01*
X202026503Y-139656203D01*
X201937788Y-139656203D01*
X201180953Y-138899369D01*
X201143886Y-138963571D01*
X201048060Y-139207734D01*
X200989696Y-139463448D01*
X200989695Y-139463453D01*
X200970096Y-139724994D01*
X199570000Y-139724994D01*
X199570000Y-138180476D01*
X201898900Y-138180476D01*
X202725003Y-139006579D01*
X202725004Y-139006579D01*
X203551106Y-138180476D01*
X203551105Y-138180474D01*
X203366145Y-138091403D01*
X203366147Y-138091403D01*
X203115508Y-138014091D01*
X203115502Y-138014089D01*
X202856154Y-137974999D01*
X202593851Y-137974999D01*
X202334503Y-138014089D01*
X202334497Y-138014091D01*
X202083861Y-138091403D01*
X202083857Y-138091404D01*
X201898900Y-138180476D01*
X199570000Y-138180476D01*
X199570000Y-133069522D01*
X201898900Y-133069522D01*
X202083858Y-133158594D01*
X202083861Y-133158595D01*
X202334497Y-133235907D01*
X202334503Y-133235909D01*
X202593851Y-133274999D01*
X202593860Y-133275000D01*
X202856146Y-133275000D01*
X202856154Y-133274999D01*
X203115502Y-133235909D01*
X203115508Y-133235907D01*
X203366144Y-133158595D01*
X203366148Y-133158594D01*
X203551105Y-133069522D01*
X202725003Y-132243420D01*
X201898900Y-133069522D01*
X199570000Y-133069522D01*
X199570000Y-131524995D01*
X200970096Y-131524995D01*
X200970096Y-131525004D01*
X200989695Y-131786545D01*
X200989696Y-131786550D01*
X201048061Y-132042270D01*
X201143883Y-132286419D01*
X201143885Y-132286423D01*
X201180953Y-132350628D01*
X202006583Y-131525000D01*
X202006583Y-131524999D01*
X201937788Y-131456204D01*
X202026503Y-131456204D01*
X202026503Y-131593796D01*
X202053346Y-131728745D01*
X202106000Y-131855864D01*
X202182442Y-131970268D01*
X202279735Y-132067561D01*
X202394139Y-132144003D01*
X202521258Y-132196657D01*
X202656207Y-132223500D01*
X202793799Y-132223500D01*
X202928748Y-132196657D01*
X203055867Y-132144003D01*
X203170271Y-132067561D01*
X203267564Y-131970268D01*
X203344006Y-131855864D01*
X203396660Y-131728745D01*
X203423503Y-131593796D01*
X203423503Y-131524999D01*
X203443423Y-131524999D01*
X203443423Y-131525000D01*
X204269051Y-132350629D01*
X204269052Y-132350629D01*
X204306119Y-132286426D01*
X204401944Y-132042270D01*
X204460309Y-131786550D01*
X204460310Y-131786545D01*
X204479910Y-131525004D01*
X204479910Y-131524995D01*
X204460310Y-131263454D01*
X204460309Y-131263449D01*
X204401944Y-131007729D01*
X204306119Y-130763573D01*
X204306120Y-130763573D01*
X204269051Y-130699370D01*
X203443423Y-131524999D01*
X203423503Y-131524999D01*
X203423503Y-131456204D01*
X203396660Y-131321255D01*
X203344006Y-131194136D01*
X203267564Y-131079732D01*
X203170271Y-130982439D01*
X203055867Y-130905997D01*
X202928748Y-130853343D01*
X202793799Y-130826500D01*
X202656207Y-130826500D01*
X202521258Y-130853343D01*
X202394139Y-130905997D01*
X202279735Y-130982439D01*
X202182442Y-131079732D01*
X202106000Y-131194136D01*
X202053346Y-131321255D01*
X202026503Y-131456204D01*
X201937788Y-131456204D01*
X201180953Y-130699370D01*
X201143886Y-130763572D01*
X201048060Y-131007735D01*
X200989696Y-131263449D01*
X200989695Y-131263454D01*
X200970096Y-131524995D01*
X199570000Y-131524995D01*
X199570000Y-129980477D01*
X201898900Y-129980477D01*
X202725003Y-130806580D01*
X202725004Y-130806580D01*
X203551106Y-129980477D01*
X203551105Y-129980475D01*
X203366145Y-129891404D01*
X203366147Y-129891404D01*
X203115508Y-129814092D01*
X203115502Y-129814090D01*
X202856154Y-129775000D01*
X202593851Y-129775000D01*
X202334503Y-129814090D01*
X202334497Y-129814092D01*
X202083861Y-129891404D01*
X202083857Y-129891405D01*
X201898900Y-129980477D01*
X199570000Y-129980477D01*
X199570000Y-126601452D01*
X199570217Y-126594114D01*
X199575792Y-126500077D01*
X199577526Y-126485505D01*
X199585634Y-126440341D01*
X199594174Y-126392771D01*
X199595677Y-126385622D01*
X200083725Y-124363710D01*
X200599966Y-122224998D01*
X201869851Y-122224998D01*
X201890260Y-122510362D01*
X201951069Y-122789895D01*
X202051051Y-123057958D01*
X202147304Y-123234232D01*
X202147305Y-123234232D01*
X203075422Y-122306116D01*
X203105703Y-122458351D01*
X203166009Y-122603942D01*
X203253559Y-122734970D01*
X203364990Y-122846401D01*
X203496018Y-122933951D01*
X203641609Y-122994257D01*
X203793842Y-123024537D01*
X202865726Y-123952653D01*
X202865726Y-123952654D01*
X203042002Y-124048908D01*
X203042001Y-124048908D01*
X203310064Y-124148890D01*
X203589597Y-124209699D01*
X203874959Y-124230109D01*
X203874961Y-124230109D01*
X204160322Y-124209699D01*
X204439855Y-124148890D01*
X204707917Y-124048908D01*
X204884192Y-123952654D01*
X204884192Y-123952653D01*
X203956078Y-123024537D01*
X204108311Y-122994257D01*
X204253902Y-122933951D01*
X204384930Y-122846401D01*
X204496361Y-122734970D01*
X204583911Y-122603942D01*
X204644217Y-122458351D01*
X204674497Y-122306117D01*
X205574959Y-123206579D01*
X206475422Y-122306116D01*
X206505703Y-122458351D01*
X206566009Y-122603942D01*
X206653559Y-122734970D01*
X206764990Y-122846401D01*
X206896018Y-122933951D01*
X207041609Y-122994257D01*
X207193842Y-123024537D01*
X206265726Y-123952653D01*
X206265726Y-123952654D01*
X206442002Y-124048908D01*
X206442001Y-124048908D01*
X206710064Y-124148890D01*
X206989597Y-124209699D01*
X207274959Y-124230109D01*
X207274961Y-124230109D01*
X207560322Y-124209699D01*
X207839855Y-124148890D01*
X208107917Y-124048908D01*
X208284192Y-123952654D01*
X208284192Y-123952653D01*
X207356078Y-123024537D01*
X207508311Y-122994257D01*
X207653902Y-122933951D01*
X207784930Y-122846401D01*
X207896361Y-122734970D01*
X207983911Y-122603942D01*
X208044217Y-122458351D01*
X208074497Y-122306118D01*
X209002613Y-123234232D01*
X209002614Y-123234232D01*
X209098868Y-123057957D01*
X209198850Y-122789895D01*
X209259659Y-122510362D01*
X209280069Y-122224998D01*
X209259659Y-121939637D01*
X209198850Y-121660104D01*
X209098868Y-121392042D01*
X209002613Y-121215766D01*
X208074497Y-122143881D01*
X208044217Y-121991649D01*
X207983911Y-121846058D01*
X207896361Y-121715030D01*
X207784930Y-121603599D01*
X207653902Y-121516049D01*
X207508311Y-121455743D01*
X207356077Y-121425462D01*
X208284192Y-120497345D01*
X208284192Y-120497344D01*
X208107918Y-120401091D01*
X207839855Y-120301109D01*
X207560322Y-120240300D01*
X207274961Y-120219891D01*
X207274959Y-120219891D01*
X206989597Y-120240300D01*
X206710064Y-120301109D01*
X206442007Y-120401089D01*
X206265726Y-120497344D01*
X206265726Y-120497345D01*
X207193843Y-121425462D01*
X207041609Y-121455743D01*
X206896018Y-121516049D01*
X206764990Y-121603599D01*
X206653559Y-121715030D01*
X206566009Y-121846058D01*
X206505703Y-121991649D01*
X206475422Y-122143882D01*
X205574961Y-121243420D01*
X205574960Y-121243420D01*
X204674497Y-122143882D01*
X204644217Y-121991649D01*
X204583911Y-121846058D01*
X204496361Y-121715030D01*
X204384930Y-121603599D01*
X204253902Y-121516049D01*
X204108311Y-121455743D01*
X203956077Y-121425462D01*
X204884192Y-120497345D01*
X204884192Y-120497344D01*
X204707918Y-120401091D01*
X204439855Y-120301109D01*
X204160322Y-120240300D01*
X203874961Y-120219891D01*
X203874959Y-120219891D01*
X203589597Y-120240300D01*
X203310064Y-120301109D01*
X203042007Y-120401089D01*
X202865726Y-120497344D01*
X202865726Y-120497345D01*
X203793843Y-121425462D01*
X203641609Y-121455743D01*
X203496018Y-121516049D01*
X203364990Y-121603599D01*
X203253559Y-121715030D01*
X203166009Y-121846058D01*
X203105703Y-121991649D01*
X203075422Y-122143883D01*
X202147305Y-121215766D01*
X202147304Y-121215766D01*
X202051049Y-121392047D01*
X201951069Y-121660104D01*
X201890260Y-121939637D01*
X201869851Y-122224998D01*
X200599966Y-122224998D01*
X200773377Y-121506579D01*
X201182145Y-119813111D01*
X201186116Y-119799918D01*
X201246312Y-119633989D01*
X201258496Y-119609347D01*
X201350052Y-119466611D01*
X201367375Y-119445255D01*
X201488146Y-119326226D01*
X201509753Y-119309214D01*
X201653800Y-119219742D01*
X201678620Y-119207916D01*
X201838851Y-119152408D01*
X201865668Y-119146345D01*
X202041091Y-119126764D01*
X202054846Y-119126000D01*
X210082340Y-119126000D01*
X210094980Y-119126645D01*
G37*
%TD.AperFunction*%
%TD*%
%TA.AperFunction,Conductor*%
%TO.N,/F5_OUT*%
G36*
X228928599Y-119126741D02*
G01*
X229101375Y-119145729D01*
X229127815Y-119151612D01*
X229285871Y-119205464D01*
X229310397Y-119216945D01*
X229452996Y-119303844D01*
X229474449Y-119320383D01*
X229526739Y-119370705D01*
X229594762Y-119436167D01*
X229612113Y-119456972D01*
X229661561Y-119531523D01*
X229708184Y-119601813D01*
X229715053Y-119613512D01*
X230541548Y-121215900D01*
X230546471Y-121226680D01*
X230602902Y-121367725D01*
X230609559Y-121390447D01*
X230637033Y-121533801D01*
X230639249Y-121557373D01*
X230638976Y-121703333D01*
X230636671Y-121726897D01*
X230607519Y-121875984D01*
X230604692Y-121887493D01*
X229258794Y-126418917D01*
X229258788Y-126418940D01*
X229222000Y-126542800D01*
X229222000Y-126672017D01*
X229222000Y-130241835D01*
X229202315Y-130308874D01*
X229149511Y-130354629D01*
X229080353Y-130364573D01*
X229016797Y-130335548D01*
X229013659Y-130332734D01*
X228819483Y-130152567D01*
X228602708Y-130004772D01*
X228602704Y-130004770D01*
X228602701Y-130004768D01*
X228602700Y-130004767D01*
X228366329Y-129890938D01*
X228366331Y-129890938D01*
X228115627Y-129813606D01*
X228115623Y-129813605D01*
X228115619Y-129813604D01*
X227990827Y-129794794D01*
X227856191Y-129774500D01*
X227856186Y-129774500D01*
X227593822Y-129774500D01*
X227593816Y-129774500D01*
X227432251Y-129798853D01*
X227334389Y-129813604D01*
X227334386Y-129813605D01*
X227334380Y-129813606D01*
X227083677Y-129890938D01*
X226847307Y-130004767D01*
X226847306Y-130004768D01*
X226630524Y-130152567D01*
X226438202Y-130331014D01*
X226274618Y-130536143D01*
X226143436Y-130763356D01*
X226047586Y-131007578D01*
X226047580Y-131007597D01*
X225989201Y-131263374D01*
X225989200Y-131263379D01*
X225969596Y-131524995D01*
X225969596Y-131525004D01*
X225989200Y-131786620D01*
X225989201Y-131786625D01*
X226047580Y-132042402D01*
X226047582Y-132042411D01*
X226047584Y-132042416D01*
X226143436Y-132286643D01*
X226274618Y-132513857D01*
X226326402Y-132578792D01*
X226438202Y-132718985D01*
X226619757Y-132887441D01*
X226630525Y-132897433D01*
X226847300Y-133045228D01*
X226847305Y-133045230D01*
X226847306Y-133045231D01*
X226847307Y-133045232D01*
X226972847Y-133105688D01*
X227083677Y-133159061D01*
X227083678Y-133159061D01*
X227083681Y-133159063D01*
X227334389Y-133236396D01*
X227593822Y-133275500D01*
X227856186Y-133275500D01*
X228115619Y-133236396D01*
X228366327Y-133159063D01*
X228602708Y-133045228D01*
X228819483Y-132897433D01*
X229011805Y-132718985D01*
X229013659Y-132717265D01*
X229076191Y-132686097D01*
X229145648Y-132693684D01*
X229199977Y-132737618D01*
X229221928Y-132803949D01*
X229222000Y-132808164D01*
X229222000Y-138441834D01*
X229202315Y-138508873D01*
X229149511Y-138554628D01*
X229080353Y-138564572D01*
X229016797Y-138535547D01*
X229013659Y-138532733D01*
X228819483Y-138352566D01*
X228602708Y-138204771D01*
X228602704Y-138204769D01*
X228602701Y-138204767D01*
X228602700Y-138204766D01*
X228366329Y-138090937D01*
X228366331Y-138090937D01*
X228115627Y-138013605D01*
X228115623Y-138013604D01*
X228115619Y-138013603D01*
X227990827Y-137994793D01*
X227856191Y-137974499D01*
X227856186Y-137974499D01*
X227593822Y-137974499D01*
X227593816Y-137974499D01*
X227432251Y-137998852D01*
X227334389Y-138013603D01*
X227334386Y-138013604D01*
X227334380Y-138013605D01*
X227083677Y-138090937D01*
X226847307Y-138204766D01*
X226847306Y-138204767D01*
X226630524Y-138352566D01*
X226438202Y-138531013D01*
X226274618Y-138736142D01*
X226143436Y-138963355D01*
X226047586Y-139207577D01*
X226047580Y-139207596D01*
X225989201Y-139463373D01*
X225989200Y-139463378D01*
X225969596Y-139724994D01*
X225969596Y-139725003D01*
X225989200Y-139986619D01*
X225989201Y-139986624D01*
X226047580Y-140242401D01*
X226047582Y-140242410D01*
X226047584Y-140242415D01*
X226143436Y-140486642D01*
X226274618Y-140713856D01*
X226326402Y-140778791D01*
X226438202Y-140918984D01*
X226619757Y-141087440D01*
X226630525Y-141097432D01*
X226847300Y-141245227D01*
X226847305Y-141245229D01*
X226847306Y-141245230D01*
X226847307Y-141245231D01*
X226972847Y-141305687D01*
X227083677Y-141359060D01*
X227083678Y-141359060D01*
X227083681Y-141359062D01*
X227334389Y-141436395D01*
X227593822Y-141475499D01*
X227856186Y-141475499D01*
X228115619Y-141436395D01*
X228366327Y-141359062D01*
X228602708Y-141245227D01*
X228819483Y-141097432D01*
X229011805Y-140918984D01*
X229013659Y-140917264D01*
X229076191Y-140886096D01*
X229145648Y-140893683D01*
X229199977Y-140937617D01*
X229221928Y-141003948D01*
X229222000Y-141008163D01*
X229222000Y-141967206D01*
X229221207Y-141981206D01*
X229200928Y-142159675D01*
X229194647Y-142186959D01*
X229157636Y-142291784D01*
X229116755Y-142348445D01*
X229051730Y-142374009D01*
X229040710Y-142374500D01*
X219823219Y-142374500D01*
X219756180Y-142354815D01*
X219710425Y-142302011D01*
X219700481Y-142232853D01*
X219701001Y-142229553D01*
X219703196Y-142216746D01*
X219723475Y-142038277D01*
X219725898Y-142009793D01*
X219726691Y-141995793D01*
X219727500Y-141967206D01*
X219727500Y-141269521D01*
X221898900Y-141269521D01*
X222083858Y-141358593D01*
X222083861Y-141358594D01*
X222334497Y-141435906D01*
X222334503Y-141435908D01*
X222593851Y-141474998D01*
X222593860Y-141474999D01*
X222856146Y-141474999D01*
X222856154Y-141474998D01*
X223115502Y-141435908D01*
X223115508Y-141435906D01*
X223366144Y-141358594D01*
X223366148Y-141358593D01*
X223551105Y-141269521D01*
X222725003Y-140443419D01*
X221898900Y-141269521D01*
X219727500Y-141269521D01*
X219727500Y-141008162D01*
X219727426Y-140999528D01*
X219727354Y-140995313D01*
X219727136Y-140986769D01*
X219701832Y-140845132D01*
X219681331Y-140783185D01*
X219680716Y-140781063D01*
X219679881Y-140778801D01*
X219679880Y-140778797D01*
X219647511Y-140713855D01*
X219615698Y-140650029D01*
X219615692Y-140650020D01*
X219603100Y-140636449D01*
X219571932Y-140573916D01*
X219570000Y-140552110D01*
X219570000Y-139724994D01*
X220970096Y-139724994D01*
X220970096Y-139725003D01*
X220989695Y-139986544D01*
X220989696Y-139986549D01*
X221048061Y-140242269D01*
X221143883Y-140486418D01*
X221143885Y-140486422D01*
X221180953Y-140550627D01*
X222006583Y-139724999D01*
X222006583Y-139724998D01*
X221937788Y-139656203D01*
X222026503Y-139656203D01*
X222026503Y-139793795D01*
X222053346Y-139928744D01*
X222106000Y-140055863D01*
X222182442Y-140170267D01*
X222279735Y-140267560D01*
X222394139Y-140344002D01*
X222521258Y-140396656D01*
X222656207Y-140423499D01*
X222793799Y-140423499D01*
X222928748Y-140396656D01*
X223055867Y-140344002D01*
X223170271Y-140267560D01*
X223267564Y-140170267D01*
X223344006Y-140055863D01*
X223396660Y-139928744D01*
X223423503Y-139793795D01*
X223423503Y-139724998D01*
X223443423Y-139724998D01*
X223443423Y-139724999D01*
X224269051Y-140550628D01*
X224269052Y-140550628D01*
X224306119Y-140486425D01*
X224401944Y-140242269D01*
X224460309Y-139986549D01*
X224460310Y-139986544D01*
X224479910Y-139725003D01*
X224479910Y-139724994D01*
X224460310Y-139463453D01*
X224460309Y-139463448D01*
X224401944Y-139207728D01*
X224306119Y-138963572D01*
X224306120Y-138963572D01*
X224269051Y-138899369D01*
X223443423Y-139724998D01*
X223423503Y-139724998D01*
X223423503Y-139656203D01*
X223396660Y-139521254D01*
X223344006Y-139394135D01*
X223267564Y-139279731D01*
X223170271Y-139182438D01*
X223055867Y-139105996D01*
X222928748Y-139053342D01*
X222793799Y-139026499D01*
X222656207Y-139026499D01*
X222521258Y-139053342D01*
X222394139Y-139105996D01*
X222279735Y-139182438D01*
X222182442Y-139279731D01*
X222106000Y-139394135D01*
X222053346Y-139521254D01*
X222026503Y-139656203D01*
X221937788Y-139656203D01*
X221180953Y-138899369D01*
X221143886Y-138963571D01*
X221048060Y-139207734D01*
X220989696Y-139463448D01*
X220989695Y-139463453D01*
X220970096Y-139724994D01*
X219570000Y-139724994D01*
X219570000Y-138894856D01*
X219589685Y-138827817D01*
X219600289Y-138813652D01*
X219627562Y-138782177D01*
X219627562Y-138782175D01*
X219627567Y-138782171D01*
X219687338Y-138651294D01*
X219707023Y-138584255D01*
X219707024Y-138584251D01*
X219727500Y-138441835D01*
X219727500Y-138180476D01*
X221898900Y-138180476D01*
X222725003Y-139006579D01*
X222725004Y-139006579D01*
X223551106Y-138180476D01*
X223551105Y-138180474D01*
X223366145Y-138091403D01*
X223366147Y-138091403D01*
X223115508Y-138014091D01*
X223115502Y-138014089D01*
X222856154Y-137974999D01*
X222593851Y-137974999D01*
X222334503Y-138014089D01*
X222334497Y-138014091D01*
X222083861Y-138091403D01*
X222083857Y-138091404D01*
X221898900Y-138180476D01*
X219727500Y-138180476D01*
X219727500Y-133069522D01*
X221898900Y-133069522D01*
X222083858Y-133158594D01*
X222083861Y-133158595D01*
X222334497Y-133235907D01*
X222334503Y-133235909D01*
X222593851Y-133274999D01*
X222593860Y-133275000D01*
X222856146Y-133275000D01*
X222856154Y-133274999D01*
X223115502Y-133235909D01*
X223115508Y-133235907D01*
X223366144Y-133158595D01*
X223366148Y-133158594D01*
X223551105Y-133069522D01*
X222725003Y-132243420D01*
X221898900Y-133069522D01*
X219727500Y-133069522D01*
X219727500Y-132808163D01*
X219727426Y-132799529D01*
X219727354Y-132795314D01*
X219727136Y-132786770D01*
X219701832Y-132645133D01*
X219681331Y-132583186D01*
X219680716Y-132581064D01*
X219679881Y-132578802D01*
X219679880Y-132578798D01*
X219647511Y-132513856D01*
X219615698Y-132450030D01*
X219615692Y-132450021D01*
X219603100Y-132436450D01*
X219571932Y-132373917D01*
X219570000Y-132352111D01*
X219570000Y-131524995D01*
X220970096Y-131524995D01*
X220970096Y-131525004D01*
X220989695Y-131786545D01*
X220989696Y-131786550D01*
X221048061Y-132042270D01*
X221143883Y-132286419D01*
X221143885Y-132286423D01*
X221180953Y-132350628D01*
X222006583Y-131525000D01*
X222006583Y-131524999D01*
X221937788Y-131456204D01*
X222026503Y-131456204D01*
X222026503Y-131593796D01*
X222053346Y-131728745D01*
X222106000Y-131855864D01*
X222182442Y-131970268D01*
X222279735Y-132067561D01*
X222394139Y-132144003D01*
X222521258Y-132196657D01*
X222656207Y-132223500D01*
X222793799Y-132223500D01*
X222928748Y-132196657D01*
X223055867Y-132144003D01*
X223170271Y-132067561D01*
X223267564Y-131970268D01*
X223344006Y-131855864D01*
X223396660Y-131728745D01*
X223423503Y-131593796D01*
X223423503Y-131524999D01*
X223443423Y-131524999D01*
X223443423Y-131525000D01*
X224269051Y-132350629D01*
X224269052Y-132350629D01*
X224306119Y-132286426D01*
X224401944Y-132042270D01*
X224460309Y-131786550D01*
X224460310Y-131786545D01*
X224479910Y-131525004D01*
X224479910Y-131524995D01*
X224460310Y-131263454D01*
X224460309Y-131263449D01*
X224401944Y-131007729D01*
X224306119Y-130763573D01*
X224306120Y-130763573D01*
X224269051Y-130699370D01*
X223443423Y-131524999D01*
X223423503Y-131524999D01*
X223423503Y-131456204D01*
X223396660Y-131321255D01*
X223344006Y-131194136D01*
X223267564Y-131079732D01*
X223170271Y-130982439D01*
X223055867Y-130905997D01*
X222928748Y-130853343D01*
X222793799Y-130826500D01*
X222656207Y-130826500D01*
X222521258Y-130853343D01*
X222394139Y-130905997D01*
X222279735Y-130982439D01*
X222182442Y-131079732D01*
X222106000Y-131194136D01*
X222053346Y-131321255D01*
X222026503Y-131456204D01*
X221937788Y-131456204D01*
X221180953Y-130699370D01*
X221143886Y-130763572D01*
X221048060Y-131007735D01*
X220989696Y-131263449D01*
X220989695Y-131263454D01*
X220970096Y-131524995D01*
X219570000Y-131524995D01*
X219570000Y-130694857D01*
X219589685Y-130627818D01*
X219600289Y-130613653D01*
X219627562Y-130582178D01*
X219627562Y-130582176D01*
X219627567Y-130582172D01*
X219687338Y-130451295D01*
X219707023Y-130384256D01*
X219707024Y-130384252D01*
X219727500Y-130241836D01*
X219727500Y-129980477D01*
X221898900Y-129980477D01*
X222725003Y-130806580D01*
X222725004Y-130806580D01*
X223551106Y-129980477D01*
X223551105Y-129980475D01*
X223366145Y-129891404D01*
X223366147Y-129891404D01*
X223115508Y-129814092D01*
X223115502Y-129814090D01*
X222856154Y-129775000D01*
X222593851Y-129775000D01*
X222334503Y-129814090D01*
X222334497Y-129814092D01*
X222083861Y-129891404D01*
X222083857Y-129891405D01*
X221898900Y-129980477D01*
X219727500Y-129980477D01*
X219727500Y-126627474D01*
X219731907Y-126594709D01*
X219774198Y-126440346D01*
X220929087Y-122224998D01*
X221869811Y-122224998D01*
X221869811Y-122225001D01*
X221890220Y-122510362D01*
X221951029Y-122789895D01*
X222051011Y-123057958D01*
X222147264Y-123234232D01*
X222147265Y-123234232D01*
X223075382Y-122306116D01*
X223105663Y-122458351D01*
X223165969Y-122603942D01*
X223253519Y-122734970D01*
X223364950Y-122846401D01*
X223495978Y-122933951D01*
X223641569Y-122994257D01*
X223793802Y-123024537D01*
X222865686Y-123952653D01*
X222865686Y-123952654D01*
X223041962Y-124048908D01*
X223041961Y-124048908D01*
X223310024Y-124148890D01*
X223589557Y-124209699D01*
X223874919Y-124230109D01*
X223874921Y-124230109D01*
X224160282Y-124209699D01*
X224439815Y-124148890D01*
X224707877Y-124048908D01*
X224884152Y-123952654D01*
X224884152Y-123952653D01*
X223956038Y-123024537D01*
X224108271Y-122994257D01*
X224253862Y-122933951D01*
X224384890Y-122846401D01*
X224496321Y-122734970D01*
X224583871Y-122603942D01*
X224644177Y-122458351D01*
X224674457Y-122306117D01*
X225574919Y-123206579D01*
X226475382Y-122306116D01*
X226505663Y-122458351D01*
X226565969Y-122603942D01*
X226653519Y-122734970D01*
X226764950Y-122846401D01*
X226895978Y-122933951D01*
X227041569Y-122994257D01*
X227193802Y-123024537D01*
X226265686Y-123952653D01*
X226265686Y-123952654D01*
X226441962Y-124048908D01*
X226441961Y-124048908D01*
X226710024Y-124148890D01*
X226989557Y-124209699D01*
X227274919Y-124230109D01*
X227274921Y-124230109D01*
X227560282Y-124209699D01*
X227839815Y-124148890D01*
X228107877Y-124048908D01*
X228284152Y-123952654D01*
X228284152Y-123952653D01*
X227356038Y-123024537D01*
X227508271Y-122994257D01*
X227653862Y-122933951D01*
X227784890Y-122846401D01*
X227896321Y-122734970D01*
X227983871Y-122603942D01*
X228044177Y-122458351D01*
X228074457Y-122306117D01*
X229002573Y-123234232D01*
X229002574Y-123234232D01*
X229098828Y-123057957D01*
X229198810Y-122789895D01*
X229259619Y-122510362D01*
X229280029Y-122225001D01*
X229280029Y-122224998D01*
X229259619Y-121939637D01*
X229198810Y-121660104D01*
X229098828Y-121392042D01*
X229002573Y-121215766D01*
X228074457Y-122143882D01*
X228044177Y-121991649D01*
X227983871Y-121846058D01*
X227896321Y-121715030D01*
X227784890Y-121603599D01*
X227653862Y-121516049D01*
X227508271Y-121455743D01*
X227356037Y-121425462D01*
X228284152Y-120497345D01*
X228284152Y-120497344D01*
X228107878Y-120401091D01*
X227839815Y-120301109D01*
X227560282Y-120240300D01*
X227274921Y-120219891D01*
X227274919Y-120219891D01*
X226989557Y-120240300D01*
X226710024Y-120301109D01*
X226441967Y-120401089D01*
X226265686Y-120497344D01*
X226265686Y-120497345D01*
X227193803Y-121425462D01*
X227041569Y-121455743D01*
X226895978Y-121516049D01*
X226764950Y-121603599D01*
X226653519Y-121715030D01*
X226565969Y-121846058D01*
X226505663Y-121991649D01*
X226475382Y-122143882D01*
X225574921Y-121243420D01*
X225574920Y-121243420D01*
X224674457Y-122143882D01*
X224644177Y-121991649D01*
X224583871Y-121846058D01*
X224496321Y-121715030D01*
X224384890Y-121603599D01*
X224253862Y-121516049D01*
X224108271Y-121455743D01*
X223956037Y-121425462D01*
X224884152Y-120497345D01*
X224884152Y-120497344D01*
X224707878Y-120401091D01*
X224439815Y-120301109D01*
X224160282Y-120240300D01*
X223874921Y-120219891D01*
X223874919Y-120219891D01*
X223589557Y-120240300D01*
X223310024Y-120301109D01*
X223041967Y-120401089D01*
X222865686Y-120497344D01*
X222865686Y-120497345D01*
X223793803Y-121425462D01*
X223641569Y-121455743D01*
X223495978Y-121516049D01*
X223364950Y-121603599D01*
X223253519Y-121715030D01*
X223165969Y-121846058D01*
X223105663Y-121991649D01*
X223075382Y-122143883D01*
X222147265Y-121215766D01*
X222147264Y-121215766D01*
X222051009Y-121392047D01*
X221951029Y-121660104D01*
X221890220Y-121939637D01*
X221869811Y-122224998D01*
X220929087Y-122224998D01*
X221431941Y-120389580D01*
X221438116Y-120364555D01*
X221440833Y-120352197D01*
X221445735Y-120326822D01*
X221472424Y-120166822D01*
X221478305Y-120115562D01*
X221479901Y-120090330D01*
X221480525Y-120038730D01*
X221474455Y-119883003D01*
X221469816Y-119831609D01*
X221466261Y-119806579D01*
X221456408Y-119755933D01*
X221418880Y-119604678D01*
X221403918Y-119555304D01*
X221395360Y-119531513D01*
X221395358Y-119531507D01*
X221393999Y-119528261D01*
X221386272Y-119458820D01*
X221417315Y-119396225D01*
X221421310Y-119392098D01*
X221488146Y-119326226D01*
X221509753Y-119309214D01*
X221653800Y-119219742D01*
X221678620Y-119207916D01*
X221838851Y-119152408D01*
X221865668Y-119146345D01*
X222041091Y-119126764D01*
X222054846Y-119126000D01*
X228915054Y-119126000D01*
X228928599Y-119126741D01*
G37*
%TD.AperFunction*%
%TD*%
%TA.AperFunction,Conductor*%
%TO.N,/F4_OUT*%
G36*
X220094980Y-119126645D02*
G01*
X220256352Y-119143182D01*
X220281103Y-119148309D01*
X220429699Y-119195314D01*
X220452897Y-119205356D01*
X220588864Y-119281520D01*
X220609541Y-119296056D01*
X220727238Y-119398218D01*
X220744532Y-119416639D01*
X220839064Y-119540555D01*
X220852267Y-119562110D01*
X220919698Y-119702616D01*
X220928256Y-119726407D01*
X220965784Y-119877662D01*
X220969339Y-119902692D01*
X220975409Y-120058419D01*
X220973813Y-120083651D01*
X220947124Y-120243651D01*
X220944407Y-120256009D01*
X219222000Y-126542800D01*
X219222000Y-126662378D01*
X219222000Y-126662384D01*
X219222000Y-130241836D01*
X219202315Y-130308875D01*
X219149511Y-130354630D01*
X219080353Y-130364574D01*
X219016797Y-130335549D01*
X219013659Y-130332735D01*
X218819482Y-130152567D01*
X218602707Y-130004772D01*
X218602703Y-130004770D01*
X218602700Y-130004768D01*
X218602699Y-130004767D01*
X218366328Y-129890938D01*
X218366330Y-129890938D01*
X218115626Y-129813606D01*
X218115622Y-129813605D01*
X218115618Y-129813604D01*
X217990826Y-129794794D01*
X217856190Y-129774500D01*
X217856185Y-129774500D01*
X217593821Y-129774500D01*
X217593815Y-129774500D01*
X217432250Y-129798853D01*
X217334388Y-129813604D01*
X217334385Y-129813605D01*
X217334379Y-129813606D01*
X217083676Y-129890938D01*
X216847306Y-130004767D01*
X216847305Y-130004768D01*
X216630523Y-130152567D01*
X216438201Y-130331014D01*
X216274617Y-130536143D01*
X216143435Y-130763356D01*
X216047585Y-131007578D01*
X216047579Y-131007597D01*
X215989200Y-131263374D01*
X215989199Y-131263379D01*
X215969595Y-131524995D01*
X215969595Y-131525004D01*
X215989199Y-131786620D01*
X215989200Y-131786625D01*
X216047579Y-132042402D01*
X216047581Y-132042411D01*
X216047583Y-132042416D01*
X216143435Y-132286643D01*
X216274617Y-132513857D01*
X216406739Y-132679533D01*
X216438201Y-132718985D01*
X216619756Y-132887441D01*
X216630524Y-132897433D01*
X216847299Y-133045228D01*
X216847304Y-133045230D01*
X216847305Y-133045231D01*
X216847306Y-133045232D01*
X216972846Y-133105688D01*
X217083676Y-133159061D01*
X217083677Y-133159061D01*
X217083680Y-133159063D01*
X217334388Y-133236396D01*
X217593821Y-133275500D01*
X217856185Y-133275500D01*
X218115618Y-133236396D01*
X218366326Y-133159063D01*
X218602707Y-133045228D01*
X218819482Y-132897433D01*
X219011808Y-132718981D01*
X219013659Y-132717264D01*
X219076191Y-132686096D01*
X219145648Y-132693683D01*
X219199977Y-132737617D01*
X219221928Y-132803948D01*
X219222000Y-132808163D01*
X219222000Y-138441835D01*
X219202315Y-138508874D01*
X219149511Y-138554629D01*
X219080353Y-138564573D01*
X219016797Y-138535548D01*
X219013659Y-138532734D01*
X218819482Y-138352566D01*
X218602707Y-138204771D01*
X218602703Y-138204769D01*
X218602700Y-138204767D01*
X218602699Y-138204766D01*
X218366328Y-138090937D01*
X218366330Y-138090937D01*
X218115626Y-138013605D01*
X218115622Y-138013604D01*
X218115618Y-138013603D01*
X217990826Y-137994793D01*
X217856190Y-137974499D01*
X217856185Y-137974499D01*
X217593821Y-137974499D01*
X217593815Y-137974499D01*
X217432250Y-137998852D01*
X217334388Y-138013603D01*
X217334385Y-138013604D01*
X217334379Y-138013605D01*
X217083676Y-138090937D01*
X216847306Y-138204766D01*
X216847305Y-138204767D01*
X216630523Y-138352566D01*
X216438201Y-138531013D01*
X216274617Y-138736142D01*
X216143435Y-138963355D01*
X216047585Y-139207577D01*
X216047579Y-139207596D01*
X215989200Y-139463373D01*
X215989199Y-139463378D01*
X215969595Y-139724994D01*
X215969595Y-139725003D01*
X215989199Y-139986619D01*
X215989200Y-139986624D01*
X216047579Y-140242401D01*
X216047581Y-140242410D01*
X216047583Y-140242415D01*
X216143435Y-140486642D01*
X216274617Y-140713856D01*
X216406739Y-140879532D01*
X216438201Y-140918984D01*
X216619756Y-141087440D01*
X216630524Y-141097432D01*
X216847299Y-141245227D01*
X216847304Y-141245229D01*
X216847305Y-141245230D01*
X216847306Y-141245231D01*
X216972846Y-141305687D01*
X217083676Y-141359060D01*
X217083677Y-141359060D01*
X217083680Y-141359062D01*
X217334388Y-141436395D01*
X217593821Y-141475499D01*
X217856185Y-141475499D01*
X218115618Y-141436395D01*
X218366326Y-141359062D01*
X218602707Y-141245227D01*
X218819482Y-141097432D01*
X219011808Y-140918980D01*
X219013659Y-140917263D01*
X219076191Y-140886095D01*
X219145648Y-140893682D01*
X219199977Y-140937616D01*
X219221928Y-141003947D01*
X219222000Y-141008162D01*
X219222000Y-141967206D01*
X219221207Y-141981206D01*
X219200928Y-142159675D01*
X219194647Y-142186959D01*
X219157636Y-142291784D01*
X219116755Y-142348445D01*
X219051730Y-142374009D01*
X219040710Y-142374500D01*
X209800853Y-142374500D01*
X209733814Y-142354815D01*
X209695551Y-142315978D01*
X209663910Y-142265093D01*
X209652055Y-142240239D01*
X209596456Y-142079897D01*
X209590380Y-142053041D01*
X209570767Y-141877485D01*
X209570000Y-141863717D01*
X209570000Y-141269521D01*
X211898900Y-141269521D01*
X212083858Y-141358593D01*
X212083861Y-141358594D01*
X212334497Y-141435906D01*
X212334503Y-141435908D01*
X212593851Y-141474998D01*
X212593860Y-141474999D01*
X212856146Y-141474999D01*
X212856154Y-141474998D01*
X213115502Y-141435908D01*
X213115508Y-141435906D01*
X213366144Y-141358594D01*
X213366148Y-141358593D01*
X213551105Y-141269521D01*
X212725003Y-140443419D01*
X211898900Y-141269521D01*
X209570000Y-141269521D01*
X209570000Y-139724994D01*
X210970096Y-139724994D01*
X210970096Y-139725003D01*
X210989695Y-139986544D01*
X210989696Y-139986549D01*
X211048061Y-140242269D01*
X211143883Y-140486418D01*
X211143885Y-140486422D01*
X211180953Y-140550627D01*
X212006583Y-139724999D01*
X212006583Y-139724998D01*
X211937788Y-139656203D01*
X212026503Y-139656203D01*
X212026503Y-139793795D01*
X212053346Y-139928744D01*
X212106000Y-140055863D01*
X212182442Y-140170267D01*
X212279735Y-140267560D01*
X212394139Y-140344002D01*
X212521258Y-140396656D01*
X212656207Y-140423499D01*
X212793799Y-140423499D01*
X212928748Y-140396656D01*
X213055867Y-140344002D01*
X213170271Y-140267560D01*
X213267564Y-140170267D01*
X213344006Y-140055863D01*
X213396660Y-139928744D01*
X213423503Y-139793795D01*
X213423503Y-139724998D01*
X213443423Y-139724998D01*
X213443423Y-139725000D01*
X214269051Y-140550628D01*
X214269052Y-140550628D01*
X214306119Y-140486425D01*
X214401944Y-140242269D01*
X214460309Y-139986549D01*
X214460310Y-139986544D01*
X214479910Y-139725003D01*
X214479910Y-139724994D01*
X214460310Y-139463453D01*
X214460309Y-139463448D01*
X214401944Y-139207728D01*
X214306119Y-138963572D01*
X214306120Y-138963572D01*
X214269051Y-138899369D01*
X213443423Y-139724998D01*
X213423503Y-139724998D01*
X213423503Y-139656203D01*
X213396660Y-139521254D01*
X213344006Y-139394135D01*
X213267564Y-139279731D01*
X213170271Y-139182438D01*
X213055867Y-139105996D01*
X212928748Y-139053342D01*
X212793799Y-139026499D01*
X212656207Y-139026499D01*
X212521258Y-139053342D01*
X212394139Y-139105996D01*
X212279735Y-139182438D01*
X212182442Y-139279731D01*
X212106000Y-139394135D01*
X212053346Y-139521254D01*
X212026503Y-139656203D01*
X211937788Y-139656203D01*
X211180953Y-138899369D01*
X211143886Y-138963571D01*
X211048060Y-139207734D01*
X210989696Y-139463448D01*
X210989695Y-139463453D01*
X210970096Y-139724994D01*
X209570000Y-139724994D01*
X209570000Y-138180476D01*
X211898900Y-138180476D01*
X212725003Y-139006579D01*
X212725004Y-139006579D01*
X213551106Y-138180476D01*
X213551105Y-138180474D01*
X213366145Y-138091403D01*
X213366147Y-138091403D01*
X213115508Y-138014091D01*
X213115502Y-138014089D01*
X212856154Y-137974999D01*
X212593851Y-137974999D01*
X212334503Y-138014089D01*
X212334497Y-138014091D01*
X212083861Y-138091403D01*
X212083857Y-138091404D01*
X211898900Y-138180476D01*
X209570000Y-138180476D01*
X209570000Y-133069522D01*
X211898900Y-133069522D01*
X212083858Y-133158594D01*
X212083861Y-133158595D01*
X212334497Y-133235907D01*
X212334503Y-133235909D01*
X212593851Y-133274999D01*
X212593860Y-133275000D01*
X212856146Y-133275000D01*
X212856154Y-133274999D01*
X213115502Y-133235909D01*
X213115508Y-133235907D01*
X213366144Y-133158595D01*
X213366148Y-133158594D01*
X213551105Y-133069522D01*
X212725003Y-132243420D01*
X211898900Y-133069522D01*
X209570000Y-133069522D01*
X209570000Y-131524995D01*
X210970096Y-131524995D01*
X210970096Y-131525004D01*
X210989695Y-131786545D01*
X210989696Y-131786550D01*
X211048061Y-132042270D01*
X211143883Y-132286419D01*
X211143885Y-132286423D01*
X211180953Y-132350628D01*
X212006583Y-131525000D01*
X212006583Y-131524999D01*
X211937788Y-131456204D01*
X212026503Y-131456204D01*
X212026503Y-131593796D01*
X212053346Y-131728745D01*
X212106000Y-131855864D01*
X212182442Y-131970268D01*
X212279735Y-132067561D01*
X212394139Y-132144003D01*
X212521258Y-132196657D01*
X212656207Y-132223500D01*
X212793799Y-132223500D01*
X212928748Y-132196657D01*
X213055867Y-132144003D01*
X213170271Y-132067561D01*
X213267564Y-131970268D01*
X213344006Y-131855864D01*
X213396660Y-131728745D01*
X213423503Y-131593796D01*
X213423503Y-131524999D01*
X213443423Y-131524999D01*
X213443423Y-131525001D01*
X214269051Y-132350629D01*
X214269052Y-132350629D01*
X214306119Y-132286426D01*
X214401944Y-132042270D01*
X214460309Y-131786550D01*
X214460310Y-131786545D01*
X214479910Y-131525004D01*
X214479910Y-131524995D01*
X214460310Y-131263454D01*
X214460309Y-131263449D01*
X214401944Y-131007729D01*
X214306119Y-130763573D01*
X214306120Y-130763573D01*
X214269051Y-130699370D01*
X213443423Y-131524999D01*
X213423503Y-131524999D01*
X213423503Y-131456204D01*
X213396660Y-131321255D01*
X213344006Y-131194136D01*
X213267564Y-131079732D01*
X213170271Y-130982439D01*
X213055867Y-130905997D01*
X212928748Y-130853343D01*
X212793799Y-130826500D01*
X212656207Y-130826500D01*
X212521258Y-130853343D01*
X212394139Y-130905997D01*
X212279735Y-130982439D01*
X212182442Y-131079732D01*
X212106000Y-131194136D01*
X212053346Y-131321255D01*
X212026503Y-131456204D01*
X211937788Y-131456204D01*
X211180953Y-130699370D01*
X211143886Y-130763572D01*
X211048060Y-131007735D01*
X210989696Y-131263449D01*
X210989695Y-131263454D01*
X210970096Y-131524995D01*
X209570000Y-131524995D01*
X209570000Y-129980477D01*
X211898900Y-129980477D01*
X212725003Y-130806580D01*
X212725004Y-130806580D01*
X213551106Y-129980477D01*
X213551105Y-129980475D01*
X213366145Y-129891404D01*
X213366147Y-129891404D01*
X213115508Y-129814092D01*
X213115502Y-129814090D01*
X212856154Y-129775000D01*
X212593851Y-129775000D01*
X212334503Y-129814090D01*
X212334497Y-129814092D01*
X212083861Y-129891404D01*
X212083857Y-129891405D01*
X211898900Y-129980477D01*
X209570000Y-129980477D01*
X209570000Y-126601452D01*
X209570217Y-126594114D01*
X209575792Y-126500077D01*
X209577526Y-126485505D01*
X209594171Y-126392786D01*
X209595677Y-126385622D01*
X210083725Y-124363710D01*
X210599966Y-122224998D01*
X211869831Y-122224998D01*
X211869831Y-122225001D01*
X211890240Y-122510362D01*
X211951049Y-122789895D01*
X212051031Y-123057958D01*
X212147284Y-123234232D01*
X212147285Y-123234232D01*
X213075402Y-122306116D01*
X213105683Y-122458351D01*
X213165989Y-122603942D01*
X213253539Y-122734970D01*
X213364970Y-122846401D01*
X213495998Y-122933951D01*
X213641589Y-122994257D01*
X213793822Y-123024537D01*
X212865706Y-123952653D01*
X212865706Y-123952654D01*
X213041982Y-124048908D01*
X213041981Y-124048908D01*
X213310044Y-124148890D01*
X213589577Y-124209699D01*
X213874939Y-124230109D01*
X213874941Y-124230109D01*
X214160302Y-124209699D01*
X214439835Y-124148890D01*
X214707897Y-124048908D01*
X214884172Y-123952654D01*
X214884172Y-123952653D01*
X213956058Y-123024537D01*
X214108291Y-122994257D01*
X214253882Y-122933951D01*
X214384910Y-122846401D01*
X214496341Y-122734970D01*
X214583891Y-122603942D01*
X214644197Y-122458351D01*
X214674477Y-122306117D01*
X215574939Y-123206579D01*
X216475402Y-122306116D01*
X216505683Y-122458351D01*
X216565989Y-122603942D01*
X216653539Y-122734970D01*
X216764970Y-122846401D01*
X216895998Y-122933951D01*
X217041589Y-122994257D01*
X217193822Y-123024537D01*
X216265706Y-123952653D01*
X216265706Y-123952654D01*
X216441982Y-124048908D01*
X216441981Y-124048908D01*
X216710044Y-124148890D01*
X216989577Y-124209699D01*
X217274939Y-124230109D01*
X217274941Y-124230109D01*
X217560302Y-124209699D01*
X217839835Y-124148890D01*
X218107897Y-124048908D01*
X218284172Y-123952654D01*
X218284172Y-123952653D01*
X217356058Y-123024537D01*
X217508291Y-122994257D01*
X217653882Y-122933951D01*
X217784910Y-122846401D01*
X217896341Y-122734970D01*
X217983891Y-122603942D01*
X218044197Y-122458351D01*
X218074477Y-122306117D01*
X219002593Y-123234232D01*
X219002594Y-123234232D01*
X219098848Y-123057957D01*
X219198830Y-122789895D01*
X219259639Y-122510362D01*
X219280049Y-122225001D01*
X219280049Y-122224998D01*
X219259639Y-121939637D01*
X219198830Y-121660104D01*
X219098848Y-121392042D01*
X219002593Y-121215766D01*
X218074477Y-122143882D01*
X218044197Y-121991649D01*
X217983891Y-121846058D01*
X217896341Y-121715030D01*
X217784910Y-121603599D01*
X217653882Y-121516049D01*
X217508291Y-121455743D01*
X217356057Y-121425462D01*
X218284172Y-120497345D01*
X218284172Y-120497344D01*
X218107898Y-120401091D01*
X217839835Y-120301109D01*
X217560302Y-120240300D01*
X217274941Y-120219891D01*
X217274939Y-120219891D01*
X216989577Y-120240300D01*
X216710044Y-120301109D01*
X216441987Y-120401089D01*
X216265706Y-120497344D01*
X216265706Y-120497345D01*
X217193823Y-121425462D01*
X217041589Y-121455743D01*
X216895998Y-121516049D01*
X216764970Y-121603599D01*
X216653539Y-121715030D01*
X216565989Y-121846058D01*
X216505683Y-121991649D01*
X216475402Y-122143882D01*
X215574941Y-121243420D01*
X215574940Y-121243420D01*
X214674477Y-122143882D01*
X214644197Y-121991649D01*
X214583891Y-121846058D01*
X214496341Y-121715030D01*
X214384910Y-121603599D01*
X214253882Y-121516049D01*
X214108291Y-121455743D01*
X213956057Y-121425462D01*
X214884172Y-120497345D01*
X214884172Y-120497344D01*
X214707898Y-120401091D01*
X214439835Y-120301109D01*
X214160302Y-120240300D01*
X213874941Y-120219891D01*
X213874939Y-120219891D01*
X213589577Y-120240300D01*
X213310044Y-120301109D01*
X213041987Y-120401089D01*
X212865706Y-120497344D01*
X212865706Y-120497345D01*
X213793823Y-121425462D01*
X213641589Y-121455743D01*
X213495998Y-121516049D01*
X213364970Y-121603599D01*
X213253539Y-121715030D01*
X213165989Y-121846058D01*
X213105683Y-121991649D01*
X213075402Y-122143882D01*
X212147285Y-121215766D01*
X212147284Y-121215766D01*
X212051029Y-121392047D01*
X211951049Y-121660104D01*
X211890240Y-121939637D01*
X211869831Y-122224998D01*
X210599966Y-122224998D01*
X210773377Y-121506579D01*
X211182145Y-119813111D01*
X211186116Y-119799918D01*
X211246312Y-119633989D01*
X211258496Y-119609347D01*
X211350052Y-119466611D01*
X211367375Y-119445255D01*
X211488146Y-119326226D01*
X211509753Y-119309214D01*
X211653800Y-119219742D01*
X211678620Y-119207916D01*
X211838851Y-119152408D01*
X211865668Y-119146345D01*
X212041091Y-119126764D01*
X212054846Y-119126000D01*
X220082340Y-119126000D01*
X220094980Y-119126645D01*
G37*
%TD.AperFunction*%
%TD*%
M02*
