M48
; DRILL file {KiCad 8.0.7-8.0.7-0~ubuntu24.04.1} date 2025-01-05T10:18:19-0800
; FORMAT={-:-/ absolute / metric / decimal}
; #@! TF.CreationDate,2025-01-05T10:18:19-08:00
; #@! TF.GenerationSoftware,Kicad,Pcbnew,8.0.7-8.0.7-0~ubuntu24.04.1
; #@! TF.FileFunction,MixedPlating,1,2
FMAT,2
METRIC
; #@! TA.AperFunction,Plated,PTH,ViaDrill
T1C0.635
; #@! TA.AperFunction,Plated,PTH,ComponentDrill
T2C1.397
; #@! TA.AperFunction,Plated,PTH,ComponentDrill
T3C1.600
; #@! TA.AperFunction,NonPlated,NPTH,ComponentDrill
T4C3.000
%
G90
G05
T1
X232.918Y-121.539
X233.426Y-118.745
X235.712Y-120.523
X236.22Y-117.856
X238.633Y-119.888
T2
X166.725Y-123.025
X166.725Y-128.025
X174.925Y-123.025
X174.925Y-128.025
X182.725Y-131.525
X182.725Y-139.725
X187.725Y-131.525
X187.725Y-139.725
X192.725Y-131.525
X192.725Y-139.725
X197.725Y-131.525
X197.725Y-139.725
X202.725Y-131.525
X202.725Y-139.725
X207.725Y-131.525
X207.725Y-139.725
X212.725Y-131.525
X212.725Y-139.725
X217.725Y-131.525
X217.725Y-139.725
X222.725Y-131.525
X222.725Y-139.725
X227.725Y-131.525
X227.725Y-139.725
X236.625Y-124.125
X236.625Y-129.125
X244.825Y-124.125
X244.825Y-129.125
T3
X183.875Y-112.325
X183.875Y-122.225
X187.275Y-112.325
X187.275Y-122.225
X193.875Y-112.325
X193.875Y-122.225
X197.275Y-112.325
X197.275Y-122.225
X203.875Y-112.325
X203.875Y-122.225
X207.275Y-112.325
X207.275Y-122.225
X213.875Y-112.325
X213.875Y-122.225
X217.275Y-112.325
X217.275Y-122.225
X223.875Y-112.325
X223.875Y-122.225
X227.275Y-112.325
X227.275Y-122.225
T4
X177.8Y-112.45
X177.8Y-139.7
X233.75Y-112.45
X233.75Y-139.7
M30
