<?xml version="1.0" standalone="no"?>
 <!DOCTYPE svg PUBLIC "-//W3C//DTD SVG 1.1//EN" 
 "http://www.w3.org/Graphics/SVG/1.1/DTD/svg11.dtd"> 
<svg
  xmlns:svg="http://www.w3.org/2000/svg"
  xmlns="http://www.w3.org/2000/svg"
  xmlns:xlink="http://www.w3.org/1999/xlink"
  version="1.1"
  width="431.8000mm" height="279.4000mm" viewBox="0.0000 0.0000 431.8000 279.4000">
<title>SVG Image created as CAN-hub-drl_map.svg date 2026/01/24 16:28:51 </title>
  <desc>Image generated by PCBNEW </desc>
<g style="fill:#000000; fill-opacity:1.0000;stroke:#000000; stroke-opacity:1.0000;
stroke-linecap:round; stroke-linejoin:round;"
 transform="translate(0 0) scale(1 1)">
</g>
<g style="fill:none; 
stroke:#000000; stroke-width:0.1500; stroke-opacity:1; 
stroke-linecap:round; stroke-linejoin:round;">
<path d="M257.9480 131.0640 A2.6670 2.6670 0.0 0 0 260.6150 128.3970" />
<path d="M173.8520 36.5760 A2.6670 2.6670 0.0 0 0 171.1850 39.2430" />
<path d="M260.6150 128.3970
L260.6150 39.2430
" />
<path d="M173.8520 131.0640
L257.9480 131.0640
" />
<path d="M171.1850 128.3970 A2.6670 2.6670 0.0 0 0 173.8520 131.0640" />
<path d="M171.1850 128.3970
L171.1850 39.2430
" />
<path d="M260.6150 39.2430 A2.6670 2.6670 0.0 0 0 257.9480 36.5760" />
<path d="M173.8520 36.5760
L257.9480 36.5760
" />
</g>
<g style="fill:none; 
stroke:#000000; stroke-width:0.3200; stroke-opacity:1; 
stroke-linecap:round; stroke-linejoin:round;">
<path d="M208.5848 47.9208
L211.7852 51.1212
" />
<path d="M211.7852 47.9208
L208.5848 51.1212
" />
<path d="M208.5848 55.5408
L211.7852 58.7412
" />
<path d="M211.7852 55.5408
L208.5848 58.7412
" />
<path d="M208.5848 78.4098
L211.7852 81.6102
" />
<path d="M211.7852 78.4098
L208.5848 81.6102
" />
<path d="M208.5848 86.0298
L211.7852 89.2302
" />
<path d="M211.7852 86.0298
L208.5848 89.2302
" />
<path d="M208.5848 108.8898
L211.7852 112.0902
" />
<path d="M211.7852 108.8898
L208.5848 112.0902
" />
<path d="M208.5848 116.5098
L211.7852 119.7102
" />
<path d="M211.7852 116.5098
L208.5848 119.7102
" />
<path d="M220.0148 47.9208
L223.2152 51.1212
" />
<path d="M223.2152 47.9208
L220.0148 51.1212
" />
<path d="M220.0148 55.5408
L223.2152 58.7412
" />
<path d="M223.2152 55.5408
L220.0148 58.7412
" />
<path d="M220.0148 78.4098
L223.2152 81.6102
" />
<path d="M223.2152 78.4098
L220.0148 81.6102
" />
<path d="M220.0148 86.0298
L223.2152 89.2302
" />
<path d="M223.2152 86.0298
L220.0148 89.2302
" />
<path d="M220.0148 108.8898
L223.2152 112.0902
" />
<path d="M223.2152 108.8898
L220.0148 112.0902
" />
<path d="M220.0148 116.5098
L223.2152 119.7102
" />
<path d="M223.2152 116.5098
L220.0148 119.7102
" />
</g>
<g style="fill:none; 
stroke:#000000; stroke-width:1.0200; stroke-opacity:1; 
stroke-linecap:round; stroke-linejoin:round;">
<circle cx="184.2650" cy="45.3210" r="5.1000" /> 
<circle cx="184.2650" cy="61.3410" r="5.1000" /> 
<circle cx="184.2650" cy="75.8100" r="5.1000" /> 
<circle cx="184.2650" cy="91.8300" r="5.1000" /> 
<circle cx="184.2650" cy="106.2900" r="5.1000" /> 
<circle cx="184.2650" cy="122.3100" r="5.1000" /> 
<circle cx="247.5350" cy="45.3210" r="5.1000" /> 
<circle cx="247.5350" cy="61.3410" r="5.1000" /> 
<circle cx="247.5350" cy="75.8100" r="5.1000" /> 
<circle cx="247.5350" cy="91.8300" r="5.1000" /> 
<circle cx="247.5350" cy="106.2900" r="5.1000" /> 
<circle cx="247.5350" cy="122.3100" r="5.1000" /> 
</g>
<g style="fill:none; 
stroke:#000000; stroke-width:0.2000; stroke-opacity:1; 
stroke-linecap:round; stroke-linejoin:round;">
<text x="173.1100" y="134.3390"
textLength="14.8667" font-size="2.6667" lengthAdjust="spacingAndGlyphs"
text-anchor="start" opacity="0" stroke-opacity="0">Drill Map:</text>
<g class="stroked-text"><desc>Drill Map:</desc>
<path d="M173.7178 134.2538
L173.7178 132.2538
" />
<path d="M173.7178 132.2538
L174.1940 132.2538
" />
<path d="M174.1940 132.2538
L174.4797 132.3491
" />
<path d="M174.4797 132.3491
L174.6701 132.5396
" />
<path d="M174.6701 132.5396
L174.7654 132.7300
" />
<path d="M174.7654 132.7300
L174.8606 133.1110
" />
<path d="M174.8606 133.1110
L174.8606 133.3967
" />
<path d="M174.8606 133.3967
L174.7654 133.7776
" />
<path d="M174.7654 133.7776
L174.6701 133.9681
" />
<path d="M174.6701 133.9681
L174.4797 134.1586
" />
<path d="M174.4797 134.1586
L174.1940 134.2538
" />
<path d="M174.1940 134.2538
L173.7178 134.2538
" />
<path d="M175.7178 134.2538
L175.7178 132.9205
" />
<path d="M175.7178 133.3015
L175.8130 133.1110
" />
<path d="M175.8130 133.1110
L175.9082 133.0157
" />
<path d="M175.9082 133.0157
L176.0987 132.9205
" />
<path d="M176.0987 132.9205
L176.2892 132.9205
" />
<path d="M176.9559 134.2538
L176.9559 132.9205
" />
<path d="M176.9559 132.2538
L176.8606 132.3491
" />
<path d="M176.8606 132.3491
L176.9559 132.4443
" />
<path d="M176.9559 132.4443
L177.0511 132.3491
" />
<path d="M177.0511 132.3491
L176.9559 132.2538
" />
<path d="M176.9559 132.2538
L176.9559 132.4443
" />
<path d="M178.1940 134.2538
L178.0035 134.1586
" />
<path d="M178.0035 134.1586
L177.9082 133.9681
" />
<path d="M177.9082 133.9681
L177.9082 132.2538
" />
<path d="M179.2416 134.2538
L179.0511 134.1586
" />
<path d="M179.0511 134.1586
L178.9559 133.9681
" />
<path d="M178.9559 133.9681
L178.9559 132.2538
" />
<path d="M181.5273 134.2538
L181.5273 132.2538
" />
<path d="M181.5273 132.2538
L182.1940 133.6824
" />
<path d="M182.1940 133.6824
L182.8606 132.2538
" />
<path d="M182.8606 132.2538
L182.8606 134.2538
" />
<path d="M184.6702 134.2538
L184.6702 133.2062
" />
<path d="M184.6702 133.2062
L184.5749 133.0157
" />
<path d="M184.5749 133.0157
L184.3844 132.9205
" />
<path d="M184.3844 132.9205
L184.0035 132.9205
" />
<path d="M184.0035 132.9205
L183.8130 133.0157
" />
<path d="M184.6702 134.1586
L184.4797 134.2538
" />
<path d="M184.4797 134.2538
L184.0035 134.2538
" />
<path d="M184.0035 134.2538
L183.8130 134.1586
" />
<path d="M183.8130 134.1586
L183.7178 133.9681
" />
<path d="M183.7178 133.9681
L183.7178 133.7776
" />
<path d="M183.7178 133.7776
L183.8130 133.5872
" />
<path d="M183.8130 133.5872
L184.0035 133.4919
" />
<path d="M184.0035 133.4919
L184.4797 133.4919
" />
<path d="M184.4797 133.4919
L184.6702 133.3967
" />
<path d="M185.6225 132.9205
L185.6225 134.9205
" />
<path d="M185.6225 133.0157
L185.8130 132.9205
" />
<path d="M185.8130 132.9205
L186.1940 132.9205
" />
<path d="M186.1940 132.9205
L186.3844 133.0157
" />
<path d="M186.3844 133.0157
L186.4797 133.1110
" />
<path d="M186.4797 133.1110
L186.5749 133.3015
" />
<path d="M186.5749 133.3015
L186.5749 133.8729
" />
<path d="M186.5749 133.8729
L186.4797 134.0634
" />
<path d="M186.4797 134.0634
L186.3844 134.1586
" />
<path d="M186.3844 134.1586
L186.1940 134.2538
" />
<path d="M186.1940 134.2538
L185.8130 134.2538
" />
<path d="M185.8130 134.2538
L185.6225 134.1586
" />
<path d="M187.4321 134.0634
L187.5273 134.1586
" />
<path d="M187.5273 134.1586
L187.4321 134.2538
" />
<path d="M187.4321 134.2538
L187.3368 134.1586
" />
<path d="M187.3368 134.1586
L187.4321 134.0634
" />
<path d="M187.4321 134.0634
L187.4321 134.2538
" />
<path d="M187.4321 133.0157
L187.5273 133.1110
" />
<path d="M187.5273 133.1110
L187.4321 133.2062
" />
<path d="M187.4321 133.2062
L187.3368 133.1110
" />
<path d="M187.3368 133.1110
L187.4321 133.0157
" />
<path d="M187.4321 133.0157
L187.4321 133.2062
" />
</g></g>
<g style="fill:none; 
stroke:#000000; stroke-width:0.3000; stroke-opacity:1; 
stroke-linecap:round; stroke-linejoin:round;">
<path d="M169.1100 136.5390
L171.1100 138.5390
" />
<path d="M171.1100 136.5390
L169.1100 138.5390
" />
</g>
<g style="fill:none; 
stroke:#000000; stroke-width:0.2000; stroke-opacity:1; 
stroke-linecap:round; stroke-linejoin:round;">
<text x="173.1100" y="138.5390"
textLength="48.7715" font-size="2.6667" lengthAdjust="spacingAndGlyphs"
text-anchor="start" opacity="0" stroke-opacity="0">1.067mm / 0.0420" (12 holes)</text>
<g class="stroked-text"><desc>1.067mm / 0.0420" (12 holes)</desc>
<path d="M174.7654 138.4538
L173.6225 138.4538
" />
<path d="M174.1940 138.4538
L174.1940 136.4538
" />
<path d="M174.1940 136.4538
L174.0035 136.7396
" />
<path d="M174.0035 136.7396
L173.8130 136.9300
" />
<path d="M173.8130 136.9300
L173.6225 137.0253
" />
<path d="M175.6225 138.2634
L175.7178 138.3586
" />
<path d="M175.7178 138.3586
L175.6225 138.4538
" />
<path d="M175.6225 138.4538
L175.5273 138.3586
" />
<path d="M175.5273 138.3586
L175.6225 138.2634
" />
<path d="M175.6225 138.2634
L175.6225 138.4538
" />
<path d="M176.9559 136.4538
L177.1463 136.4538
" />
<path d="M177.1463 136.4538
L177.3368 136.5491
" />
<path d="M177.3368 136.5491
L177.4321 136.6443
" />
<path d="M177.4321 136.6443
L177.5273 136.8348
" />
<path d="M177.5273 136.8348
L177.6225 137.2157
" />
<path d="M177.6225 137.2157
L177.6225 137.6919
" />
<path d="M177.6225 137.6919
L177.5273 138.0729
" />
<path d="M177.5273 138.0729
L177.4321 138.2634
" />
<path d="M177.4321 138.2634
L177.3368 138.3586
" />
<path d="M177.3368 138.3586
L177.1463 138.4538
" />
<path d="M177.1463 138.4538
L176.9559 138.4538
" />
<path d="M176.9559 138.4538
L176.7654 138.3586
" />
<path d="M176.7654 138.3586
L176.6701 138.2634
" />
<path d="M176.6701 138.2634
L176.5749 138.0729
" />
<path d="M176.5749 138.0729
L176.4797 137.6919
" />
<path d="M176.4797 137.6919
L176.4797 137.2157
" />
<path d="M176.4797 137.2157
L176.5749 136.8348
" />
<path d="M176.5749 136.8348
L176.6701 136.6443
" />
<path d="M176.6701 136.6443
L176.7654 136.5491
" />
<path d="M176.7654 136.5491
L176.9559 136.4538
" />
<path d="M179.3368 136.4538
L178.9559 136.4538
" />
<path d="M178.9559 136.4538
L178.7654 136.5491
" />
<path d="M178.7654 136.5491
L178.6702 136.6443
" />
<path d="M178.6702 136.6443
L178.4797 136.9300
" />
<path d="M178.4797 136.9300
L178.3844 137.3110
" />
<path d="M178.3844 137.3110
L178.3844 138.0729
" />
<path d="M178.3844 138.0729
L178.4797 138.2634
" />
<path d="M178.4797 138.2634
L178.5749 138.3586
" />
<path d="M178.5749 138.3586
L178.7654 138.4538
" />
<path d="M178.7654 138.4538
L179.1463 138.4538
" />
<path d="M179.1463 138.4538
L179.3368 138.3586
" />
<path d="M179.3368 138.3586
L179.4321 138.2634
" />
<path d="M179.4321 138.2634
L179.5273 138.0729
" />
<path d="M179.5273 138.0729
L179.5273 137.5967
" />
<path d="M179.5273 137.5967
L179.4321 137.4062
" />
<path d="M179.4321 137.4062
L179.3368 137.3110
" />
<path d="M179.3368 137.3110
L179.1463 137.2157
" />
<path d="M179.1463 137.2157
L178.7654 137.2157
" />
<path d="M178.7654 137.2157
L178.5749 137.3110
" />
<path d="M178.5749 137.3110
L178.4797 137.4062
" />
<path d="M178.4797 137.4062
L178.3844 137.5967
" />
<path d="M180.1940 136.4538
L181.5273 136.4538
" />
<path d="M181.5273 136.4538
L180.6702 138.4538
" />
<path d="M182.2892 138.4538
L182.2892 137.1205
" />
<path d="M182.2892 137.3110
L182.3844 137.2157
" />
<path d="M182.3844 137.2157
L182.5749 137.1205
" />
<path d="M182.5749 137.1205
L182.8606 137.1205
" />
<path d="M182.8606 137.1205
L183.0511 137.2157
" />
<path d="M183.0511 137.2157
L183.1463 137.4062
" />
<path d="M183.1463 137.4062
L183.1463 138.4538
" />
<path d="M183.1463 137.4062
L183.2416 137.2157
" />
<path d="M183.2416 137.2157
L183.4321 137.1205
" />
<path d="M183.4321 137.1205
L183.7178 137.1205
" />
<path d="M183.7178 137.1205
L183.9082 137.2157
" />
<path d="M183.9082 137.2157
L184.0035 137.4062
" />
<path d="M184.0035 137.4062
L184.0035 138.4538
" />
<path d="M184.9559 138.4538
L184.9559 137.1205
" />
<path d="M184.9559 137.3110
L185.0511 137.2157
" />
<path d="M185.0511 137.2157
L185.2416 137.1205
" />
<path d="M185.2416 137.1205
L185.5273 137.1205
" />
<path d="M185.5273 137.1205
L185.7178 137.2157
" />
<path d="M185.7178 137.2157
L185.8130 137.4062
" />
<path d="M185.8130 137.4062
L185.8130 138.4538
" />
<path d="M185.8130 137.4062
L185.9082 137.2157
" />
<path d="M185.9082 137.2157
L186.0987 137.1205
" />
<path d="M186.0987 137.1205
L186.3844 137.1205
" />
<path d="M186.3844 137.1205
L186.5749 137.2157
" />
<path d="M186.5749 137.2157
L186.6702 137.4062
" />
<path d="M186.6702 137.4062
L186.6702 138.4538
" />
<path d="M190.5749 136.3586
L188.8606 138.9300
" />
<path d="M193.1463 136.4538
L193.3368 136.4538
" />
<path d="M193.3368 136.4538
L193.5273 136.5491
" />
<path d="M193.5273 136.5491
L193.6225 136.6443
" />
<path d="M193.6225 136.6443
L193.7178 136.8348
" />
<path d="M193.7178 136.8348
L193.8130 137.2157
" />
<path d="M193.8130 137.2157
L193.8130 137.6919
" />
<path d="M193.8130 137.6919
L193.7178 138.0729
" />
<path d="M193.7178 138.0729
L193.6225 138.2634
" />
<path d="M193.6225 138.2634
L193.5273 138.3586
" />
<path d="M193.5273 138.3586
L193.3368 138.4538
" />
<path d="M193.3368 138.4538
L193.1463 138.4538
" />
<path d="M193.1463 138.4538
L192.9559 138.3586
" />
<path d="M192.9559 138.3586
L192.8606 138.2634
" />
<path d="M192.8606 138.2634
L192.7654 138.0729
" />
<path d="M192.7654 138.0729
L192.6702 137.6919
" />
<path d="M192.6702 137.6919
L192.6702 137.2157
" />
<path d="M192.6702 137.2157
L192.7654 136.8348
" />
<path d="M192.7654 136.8348
L192.8606 136.6443
" />
<path d="M192.8606 136.6443
L192.9559 136.5491
" />
<path d="M192.9559 136.5491
L193.1463 136.4538
" />
<path d="M194.6702 138.2634
L194.7654 138.3586
" />
<path d="M194.7654 138.3586
L194.6702 138.4538
" />
<path d="M194.6702 138.4538
L194.5749 138.3586
" />
<path d="M194.5749 138.3586
L194.6702 138.2634
" />
<path d="M194.6702 138.2634
L194.6702 138.4538
" />
<path d="M196.0035 136.4538
L196.1940 136.4538
" />
<path d="M196.1940 136.4538
L196.3844 136.5491
" />
<path d="M196.3844 136.5491
L196.4797 136.6443
" />
<path d="M196.4797 136.6443
L196.5749 136.8348
" />
<path d="M196.5749 136.8348
L196.6702 137.2157
" />
<path d="M196.6702 137.2157
L196.6702 137.6919
" />
<path d="M196.6702 137.6919
L196.5749 138.0729
" />
<path d="M196.5749 138.0729
L196.4797 138.2634
" />
<path d="M196.4797 138.2634
L196.3844 138.3586
" />
<path d="M196.3844 138.3586
L196.1940 138.4538
" />
<path d="M196.1940 138.4538
L196.0035 138.4538
" />
<path d="M196.0035 138.4538
L195.8130 138.3586
" />
<path d="M195.8130 138.3586
L195.7178 138.2634
" />
<path d="M195.7178 138.2634
L195.6225 138.0729
" />
<path d="M195.6225 138.0729
L195.5273 137.6919
" />
<path d="M195.5273 137.6919
L195.5273 137.2157
" />
<path d="M195.5273 137.2157
L195.6225 136.8348
" />
<path d="M195.6225 136.8348
L195.7178 136.6443
" />
<path d="M195.7178 136.6443
L195.8130 136.5491
" />
<path d="M195.8130 136.5491
L196.0035 136.4538
" />
<path d="M198.3844 137.1205
L198.3844 138.4538
" />
<path d="M197.9083 136.3586
L197.4321 137.7872
" />
<path d="M197.4321 137.7872
L198.6702 137.7872
" />
<path d="M199.3368 136.6443
L199.4321 136.5491
" />
<path d="M199.4321 136.5491
L199.6225 136.4538
" />
<path d="M199.6225 136.4538
L200.0987 136.4538
" />
<path d="M200.0987 136.4538
L200.2892 136.5491
" />
<path d="M200.2892 136.5491
L200.3844 136.6443
" />
<path d="M200.3844 136.6443
L200.4797 136.8348
" />
<path d="M200.4797 136.8348
L200.4797 137.0253
" />
<path d="M200.4797 137.0253
L200.3844 137.3110
" />
<path d="M200.3844 137.3110
L199.2416 138.4538
" />
<path d="M199.2416 138.4538
L200.4797 138.4538
" />
<path d="M201.7178 136.4538
L201.9083 136.4538
" />
<path d="M201.9083 136.4538
L202.0987 136.5491
" />
<path d="M202.0987 136.5491
L202.1940 136.6443
" />
<path d="M202.1940 136.6443
L202.2892 136.8348
" />
<path d="M202.2892 136.8348
L202.3844 137.2157
" />
<path d="M202.3844 137.2157
L202.3844 137.6919
" />
<path d="M202.3844 137.6919
L202.2892 138.0729
" />
<path d="M202.2892 138.0729
L202.1940 138.2634
" />
<path d="M202.1940 138.2634
L202.0987 138.3586
" />
<path d="M202.0987 138.3586
L201.9083 138.4538
" />
<path d="M201.9083 138.4538
L201.7178 138.4538
" />
<path d="M201.7178 138.4538
L201.5273 138.3586
" />
<path d="M201.5273 138.3586
L201.4321 138.2634
" />
<path d="M201.4321 138.2634
L201.3368 138.0729
" />
<path d="M201.3368 138.0729
L201.2416 137.6919
" />
<path d="M201.2416 137.6919
L201.2416 137.2157
" />
<path d="M201.2416 137.2157
L201.3368 136.8348
" />
<path d="M201.3368 136.8348
L201.4321 136.6443
" />
<path d="M201.4321 136.6443
L201.5273 136.5491
" />
<path d="M201.5273 136.5491
L201.7178 136.4538
" />
<path d="M203.1464 136.4538
L203.1464 136.8348
" />
<path d="M203.9083 136.4538
L203.9083 136.8348
" />
<path d="M206.8606 139.2157
L206.7654 139.1205
" />
<path d="M206.7654 139.1205
L206.5749 138.8348
" />
<path d="M206.5749 138.8348
L206.4797 138.6443
" />
<path d="M206.4797 138.6443
L206.3845 138.3586
" />
<path d="M206.3845 138.3586
L206.2892 137.8824
" />
<path d="M206.2892 137.8824
L206.2892 137.5015
" />
<path d="M206.2892 137.5015
L206.3845 137.0253
" />
<path d="M206.3845 137.0253
L206.4797 136.7396
" />
<path d="M206.4797 136.7396
L206.5749 136.5491
" />
<path d="M206.5749 136.5491
L206.7654 136.2634
" />
<path d="M206.7654 136.2634
L206.8606 136.1681
" />
<path d="M208.6702 138.4538
L207.5273 138.4538
" />
<path d="M208.0987 138.4538
L208.0987 136.4538
" />
<path d="M208.0987 136.4538
L207.9083 136.7396
" />
<path d="M207.9083 136.7396
L207.7178 136.9300
" />
<path d="M207.7178 136.9300
L207.5273 137.0253
" />
<path d="M209.4321 136.6443
L209.5273 136.5491
" />
<path d="M209.5273 136.5491
L209.7178 136.4538
" />
<path d="M209.7178 136.4538
L210.1940 136.4538
" />
<path d="M210.1940 136.4538
L210.3845 136.5491
" />
<path d="M210.3845 136.5491
L210.4797 136.6443
" />
<path d="M210.4797 136.6443
L210.5749 136.8348
" />
<path d="M210.5749 136.8348
L210.5749 137.0253
" />
<path d="M210.5749 137.0253
L210.4797 137.3110
" />
<path d="M210.4797 137.3110
L209.3368 138.4538
" />
<path d="M209.3368 138.4538
L210.5749 138.4538
" />
<path d="M212.9559 138.4538
L212.9559 136.4538
" />
<path d="M213.8130 138.4538
L213.8130 137.4062
" />
<path d="M213.8130 137.4062
L213.7178 137.2157
" />
<path d="M213.7178 137.2157
L213.5273 137.1205
" />
<path d="M213.5273 137.1205
L213.2416 137.1205
" />
<path d="M213.2416 137.1205
L213.0511 137.2157
" />
<path d="M213.0511 137.2157
L212.9559 137.3110
" />
<path d="M215.0511 138.4538
L214.8606 138.3586
" />
<path d="M214.8606 138.3586
L214.7654 138.2634
" />
<path d="M214.7654 138.2634
L214.6702 138.0729
" />
<path d="M214.6702 138.0729
L214.6702 137.5015
" />
<path d="M214.6702 137.5015
L214.7654 137.3110
" />
<path d="M214.7654 137.3110
L214.8606 137.2157
" />
<path d="M214.8606 137.2157
L215.0511 137.1205
" />
<path d="M215.0511 137.1205
L215.3368 137.1205
" />
<path d="M215.3368 137.1205
L215.5273 137.2157
" />
<path d="M215.5273 137.2157
L215.6226 137.3110
" />
<path d="M215.6226 137.3110
L215.7178 137.5015
" />
<path d="M215.7178 137.5015
L215.7178 138.0729
" />
<path d="M215.7178 138.0729
L215.6226 138.2634
" />
<path d="M215.6226 138.2634
L215.5273 138.3586
" />
<path d="M215.5273 138.3586
L215.3368 138.4538
" />
<path d="M215.3368 138.4538
L215.0511 138.4538
" />
<path d="M216.8606 138.4538
L216.6702 138.3586
" />
<path d="M216.6702 138.3586
L216.5749 138.1681
" />
<path d="M216.5749 138.1681
L216.5749 136.4538
" />
<path d="M218.3845 138.3586
L218.1940 138.4538
" />
<path d="M218.1940 138.4538
L217.8130 138.4538
" />
<path d="M217.8130 138.4538
L217.6226 138.3586
" />
<path d="M217.6226 138.3586
L217.5273 138.1681
" />
<path d="M217.5273 138.1681
L217.5273 137.4062
" />
<path d="M217.5273 137.4062
L217.6226 137.2157
" />
<path d="M217.6226 137.2157
L217.8130 137.1205
" />
<path d="M217.8130 137.1205
L218.1940 137.1205
" />
<path d="M218.1940 137.1205
L218.3845 137.2157
" />
<path d="M218.3845 137.2157
L218.4797 137.4062
" />
<path d="M218.4797 137.4062
L218.4797 137.5967
" />
<path d="M218.4797 137.5967
L217.5273 137.7872
" />
<path d="M219.2416 138.3586
L219.4321 138.4538
" />
<path d="M219.4321 138.4538
L219.8130 138.4538
" />
<path d="M219.8130 138.4538
L220.0035 138.3586
" />
<path d="M220.0035 138.3586
L220.0987 138.1681
" />
<path d="M220.0987 138.1681
L220.0987 138.0729
" />
<path d="M220.0987 138.0729
L220.0035 137.8824
" />
<path d="M220.0035 137.8824
L219.8130 137.7872
" />
<path d="M219.8130 137.7872
L219.5273 137.7872
" />
<path d="M219.5273 137.7872
L219.3368 137.6919
" />
<path d="M219.3368 137.6919
L219.2416 137.5015
" />
<path d="M219.2416 137.5015
L219.2416 137.4062
" />
<path d="M219.2416 137.4062
L219.3368 137.2157
" />
<path d="M219.3368 137.2157
L219.5273 137.1205
" />
<path d="M219.5273 137.1205
L219.8130 137.1205
" />
<path d="M219.8130 137.1205
L220.0035 137.2157
" />
<path d="M220.7654 139.2157
L220.8607 139.1205
" />
<path d="M220.8607 139.1205
L221.0511 138.8348
" />
<path d="M221.0511 138.8348
L221.1464 138.6443
" />
<path d="M221.1464 138.6443
L221.2416 138.3586
" />
<path d="M221.2416 138.3586
L221.3368 137.8824
" />
<path d="M221.3368 137.8824
L221.3368 137.5015
" />
<path d="M221.3368 137.5015
L221.2416 137.0253
" />
<path d="M221.2416 137.0253
L221.1464 136.7396
" />
<path d="M221.1464 136.7396
L221.0511 136.5491
" />
<path d="M221.0511 136.5491
L220.8607 136.2634
" />
<path d="M220.8607 136.2634
L220.7654 136.1681
" />
</g></g>
<g style="fill:none; 
stroke:#000000; stroke-width:0.3000; stroke-opacity:1; 
stroke-linecap:round; stroke-linejoin:round;">
<circle cx="170.1100" cy="140.7390" r="1.0000" /> 
</g>
<g style="fill:none; 
stroke:#000000; stroke-width:0.2000; stroke-opacity:1; 
stroke-linecap:round; stroke-linejoin:round;">
<text x="173.1100" y="141.7390"
textLength="68.5810" font-size="2.6667" lengthAdjust="spacingAndGlyphs"
text-anchor="start" opacity="0" stroke-opacity="0">3.400mm / 0.1339" (12 holes) (not plated)</text>
<g class="stroked-text"><desc>3.400mm / 0.1339" (12 holes) (not plated)</desc>
<path d="M173.5273 139.6538
L174.7654 139.6538
" />
<path d="M174.7654 139.6538
L174.0987 140.4157
" />
<path d="M174.0987 140.4157
L174.3844 140.4157
" />
<path d="M174.3844 140.4157
L174.5749 140.5110
" />
<path d="M174.5749 140.5110
L174.6701 140.6062
" />
<path d="M174.6701 140.6062
L174.7654 140.7967
" />
<path d="M174.7654 140.7967
L174.7654 141.2729
" />
<path d="M174.7654 141.2729
L174.6701 141.4634
" />
<path d="M174.6701 141.4634
L174.5749 141.5586
" />
<path d="M174.5749 141.5586
L174.3844 141.6538
" />
<path d="M174.3844 141.6538
L173.8130 141.6538
" />
<path d="M173.8130 141.6538
L173.6225 141.5586
" />
<path d="M173.6225 141.5586
L173.5273 141.4634
" />
<path d="M175.6225 141.4634
L175.7178 141.5586
" />
<path d="M175.7178 141.5586
L175.6225 141.6538
" />
<path d="M175.6225 141.6538
L175.5273 141.5586
" />
<path d="M175.5273 141.5586
L175.6225 141.4634
" />
<path d="M175.6225 141.4634
L175.6225 141.6538
" />
<path d="M177.4321 140.3205
L177.4321 141.6538
" />
<path d="M176.9559 139.5586
L176.4797 140.9872
" />
<path d="M176.4797 140.9872
L177.7178 140.9872
" />
<path d="M178.8606 139.6538
L179.0511 139.6538
" />
<path d="M179.0511 139.6538
L179.2416 139.7491
" />
<path d="M179.2416 139.7491
L179.3368 139.8443
" />
<path d="M179.3368 139.8443
L179.4321 140.0348
" />
<path d="M179.4321 140.0348
L179.5273 140.4157
" />
<path d="M179.5273 140.4157
L179.5273 140.8919
" />
<path d="M179.5273 140.8919
L179.4321 141.2729
" />
<path d="M179.4321 141.2729
L179.3368 141.4634
" />
<path d="M179.3368 141.4634
L179.2416 141.5586
" />
<path d="M179.2416 141.5586
L179.0511 141.6538
" />
<path d="M179.0511 141.6538
L178.8606 141.6538
" />
<path d="M178.8606 141.6538
L178.6702 141.5586
" />
<path d="M178.6702 141.5586
L178.5749 141.4634
" />
<path d="M178.5749 141.4634
L178.4797 141.2729
" />
<path d="M178.4797 141.2729
L178.3844 140.8919
" />
<path d="M178.3844 140.8919
L178.3844 140.4157
" />
<path d="M178.3844 140.4157
L178.4797 140.0348
" />
<path d="M178.4797 140.0348
L178.5749 139.8443
" />
<path d="M178.5749 139.8443
L178.6702 139.7491
" />
<path d="M178.6702 139.7491
L178.8606 139.6538
" />
<path d="M180.7654 139.6538
L180.9559 139.6538
" />
<path d="M180.9559 139.6538
L181.1463 139.7491
" />
<path d="M181.1463 139.7491
L181.2416 139.8443
" />
<path d="M181.2416 139.8443
L181.3368 140.0348
" />
<path d="M181.3368 140.0348
L181.4321 140.4157
" />
<path d="M181.4321 140.4157
L181.4321 140.8919
" />
<path d="M181.4321 140.8919
L181.3368 141.2729
" />
<path d="M181.3368 141.2729
L181.2416 141.4634
" />
<path d="M181.2416 141.4634
L181.1463 141.5586
" />
<path d="M181.1463 141.5586
L180.9559 141.6538
" />
<path d="M180.9559 141.6538
L180.7654 141.6538
" />
<path d="M180.7654 141.6538
L180.5749 141.5586
" />
<path d="M180.5749 141.5586
L180.4797 141.4634
" />
<path d="M180.4797 141.4634
L180.3844 141.2729
" />
<path d="M180.3844 141.2729
L180.2892 140.8919
" />
<path d="M180.2892 140.8919
L180.2892 140.4157
" />
<path d="M180.2892 140.4157
L180.3844 140.0348
" />
<path d="M180.3844 140.0348
L180.4797 139.8443
" />
<path d="M180.4797 139.8443
L180.5749 139.7491
" />
<path d="M180.5749 139.7491
L180.7654 139.6538
" />
<path d="M182.2892 141.6538
L182.2892 140.3205
" />
<path d="M182.2892 140.5110
L182.3844 140.4157
" />
<path d="M182.3844 140.4157
L182.5749 140.3205
" />
<path d="M182.5749 140.3205
L182.8606 140.3205
" />
<path d="M182.8606 140.3205
L183.0511 140.4157
" />
<path d="M183.0511 140.4157
L183.1463 140.6062
" />
<path d="M183.1463 140.6062
L183.1463 141.6538
" />
<path d="M183.1463 140.6062
L183.2416 140.4157
" />
<path d="M183.2416 140.4157
L183.4321 140.3205
" />
<path d="M183.4321 140.3205
L183.7178 140.3205
" />
<path d="M183.7178 140.3205
L183.9082 140.4157
" />
<path d="M183.9082 140.4157
L184.0035 140.6062
" />
<path d="M184.0035 140.6062
L184.0035 141.6538
" />
<path d="M184.9559 141.6538
L184.9559 140.3205
" />
<path d="M184.9559 140.5110
L185.0511 140.4157
" />
<path d="M185.0511 140.4157
L185.2416 140.3205
" />
<path d="M185.2416 140.3205
L185.5273 140.3205
" />
<path d="M185.5273 140.3205
L185.7178 140.4157
" />
<path d="M185.7178 140.4157
L185.8130 140.6062
" />
<path d="M185.8130 140.6062
L185.8130 141.6538
" />
<path d="M185.8130 140.6062
L185.9082 140.4157
" />
<path d="M185.9082 140.4157
L186.0987 140.3205
" />
<path d="M186.0987 140.3205
L186.3844 140.3205
" />
<path d="M186.3844 140.3205
L186.5749 140.4157
" />
<path d="M186.5749 140.4157
L186.6702 140.6062
" />
<path d="M186.6702 140.6062
L186.6702 141.6538
" />
<path d="M190.5749 139.5586
L188.8606 142.1300
" />
<path d="M193.1463 139.6538
L193.3368 139.6538
" />
<path d="M193.3368 139.6538
L193.5273 139.7491
" />
<path d="M193.5273 139.7491
L193.6225 139.8443
" />
<path d="M193.6225 139.8443
L193.7178 140.0348
" />
<path d="M193.7178 140.0348
L193.8130 140.4157
" />
<path d="M193.8130 140.4157
L193.8130 140.8919
" />
<path d="M193.8130 140.8919
L193.7178 141.2729
" />
<path d="M193.7178 141.2729
L193.6225 141.4634
" />
<path d="M193.6225 141.4634
L193.5273 141.5586
" />
<path d="M193.5273 141.5586
L193.3368 141.6538
" />
<path d="M193.3368 141.6538
L193.1463 141.6538
" />
<path d="M193.1463 141.6538
L192.9559 141.5586
" />
<path d="M192.9559 141.5586
L192.8606 141.4634
" />
<path d="M192.8606 141.4634
L192.7654 141.2729
" />
<path d="M192.7654 141.2729
L192.6702 140.8919
" />
<path d="M192.6702 140.8919
L192.6702 140.4157
" />
<path d="M192.6702 140.4157
L192.7654 140.0348
" />
<path d="M192.7654 140.0348
L192.8606 139.8443
" />
<path d="M192.8606 139.8443
L192.9559 139.7491
" />
<path d="M192.9559 139.7491
L193.1463 139.6538
" />
<path d="M194.6702 141.4634
L194.7654 141.5586
" />
<path d="M194.7654 141.5586
L194.6702 141.6538
" />
<path d="M194.6702 141.6538
L194.5749 141.5586
" />
<path d="M194.5749 141.5586
L194.6702 141.4634
" />
<path d="M194.6702 141.4634
L194.6702 141.6538
" />
<path d="M196.6702 141.6538
L195.5273 141.6538
" />
<path d="M196.0987 141.6538
L196.0987 139.6538
" />
<path d="M196.0987 139.6538
L195.9083 139.9396
" />
<path d="M195.9083 139.9396
L195.7178 140.1300
" />
<path d="M195.7178 140.1300
L195.5273 140.2253
" />
<path d="M197.3368 139.6538
L198.5749 139.6538
" />
<path d="M198.5749 139.6538
L197.9083 140.4157
" />
<path d="M197.9083 140.4157
L198.1940 140.4157
" />
<path d="M198.1940 140.4157
L198.3844 140.5110
" />
<path d="M198.3844 140.5110
L198.4797 140.6062
" />
<path d="M198.4797 140.6062
L198.5749 140.7967
" />
<path d="M198.5749 140.7967
L198.5749 141.2729
" />
<path d="M198.5749 141.2729
L198.4797 141.4634
" />
<path d="M198.4797 141.4634
L198.3844 141.5586
" />
<path d="M198.3844 141.5586
L198.1940 141.6538
" />
<path d="M198.1940 141.6538
L197.6225 141.6538
" />
<path d="M197.6225 141.6538
L197.4321 141.5586
" />
<path d="M197.4321 141.5586
L197.3368 141.4634
" />
<path d="M199.2416 139.6538
L200.4797 139.6538
" />
<path d="M200.4797 139.6538
L199.8130 140.4157
" />
<path d="M199.8130 140.4157
L200.0987 140.4157
" />
<path d="M200.0987 140.4157
L200.2892 140.5110
" />
<path d="M200.2892 140.5110
L200.3844 140.6062
" />
<path d="M200.3844 140.6062
L200.4797 140.7967
" />
<path d="M200.4797 140.7967
L200.4797 141.2729
" />
<path d="M200.4797 141.2729
L200.3844 141.4634
" />
<path d="M200.3844 141.4634
L200.2892 141.5586
" />
<path d="M200.2892 141.5586
L200.0987 141.6538
" />
<path d="M200.0987 141.6538
L199.5273 141.6538
" />
<path d="M199.5273 141.6538
L199.3368 141.5586
" />
<path d="M199.3368 141.5586
L199.2416 141.4634
" />
<path d="M201.4321 141.6538
L201.8130 141.6538
" />
<path d="M201.8130 141.6538
L202.0035 141.5586
" />
<path d="M202.0035 141.5586
L202.0987 141.4634
" />
<path d="M202.0987 141.4634
L202.2892 141.1777
" />
<path d="M202.2892 141.1777
L202.3844 140.7967
" />
<path d="M202.3844 140.7967
L202.3844 140.0348
" />
<path d="M202.3844 140.0348
L202.2892 139.8443
" />
<path d="M202.2892 139.8443
L202.1940 139.7491
" />
<path d="M202.1940 139.7491
L202.0035 139.6538
" />
<path d="M202.0035 139.6538
L201.6225 139.6538
" />
<path d="M201.6225 139.6538
L201.4321 139.7491
" />
<path d="M201.4321 139.7491
L201.3368 139.8443
" />
<path d="M201.3368 139.8443
L201.2416 140.0348
" />
<path d="M201.2416 140.0348
L201.2416 140.5110
" />
<path d="M201.2416 140.5110
L201.3368 140.7015
" />
<path d="M201.3368 140.7015
L201.4321 140.7967
" />
<path d="M201.4321 140.7967
L201.6225 140.8919
" />
<path d="M201.6225 140.8919
L202.0035 140.8919
" />
<path d="M202.0035 140.8919
L202.1940 140.7967
" />
<path d="M202.1940 140.7967
L202.2892 140.7015
" />
<path d="M202.2892 140.7015
L202.3844 140.5110
" />
<path d="M203.1464 139.6538
L203.1464 140.0348
" />
<path d="M203.9083 139.6538
L203.9083 140.0348
" />
<path d="M206.8606 142.4157
L206.7654 142.3205
" />
<path d="M206.7654 142.3205
L206.5749 142.0348
" />
<path d="M206.5749 142.0348
L206.4797 141.8443
" />
<path d="M206.4797 141.8443
L206.3845 141.5586
" />
<path d="M206.3845 141.5586
L206.2892 141.0824
" />
<path d="M206.2892 141.0824
L206.2892 140.7015
" />
<path d="M206.2892 140.7015
L206.3845 140.2253
" />
<path d="M206.3845 140.2253
L206.4797 139.9396
" />
<path d="M206.4797 139.9396
L206.5749 139.7491
" />
<path d="M206.5749 139.7491
L206.7654 139.4634
" />
<path d="M206.7654 139.4634
L206.8606 139.3681
" />
<path d="M208.6702 141.6538
L207.5273 141.6538
" />
<path d="M208.0987 141.6538
L208.0987 139.6538
" />
<path d="M208.0987 139.6538
L207.9083 139.9396
" />
<path d="M207.9083 139.9396
L207.7178 140.1300
" />
<path d="M207.7178 140.1300
L207.5273 140.2253
" />
<path d="M209.4321 139.8443
L209.5273 139.7491
" />
<path d="M209.5273 139.7491
L209.7178 139.6538
" />
<path d="M209.7178 139.6538
L210.1940 139.6538
" />
<path d="M210.1940 139.6538
L210.3845 139.7491
" />
<path d="M210.3845 139.7491
L210.4797 139.8443
" />
<path d="M210.4797 139.8443
L210.5749 140.0348
" />
<path d="M210.5749 140.0348
L210.5749 140.2253
" />
<path d="M210.5749 140.2253
L210.4797 140.5110
" />
<path d="M210.4797 140.5110
L209.3368 141.6538
" />
<path d="M209.3368 141.6538
L210.5749 141.6538
" />
<path d="M212.9559 141.6538
L212.9559 139.6538
" />
<path d="M213.8130 141.6538
L213.8130 140.6062
" />
<path d="M213.8130 140.6062
L213.7178 140.4157
" />
<path d="M213.7178 140.4157
L213.5273 140.3205
" />
<path d="M213.5273 140.3205
L213.2416 140.3205
" />
<path d="M213.2416 140.3205
L213.0511 140.4157
" />
<path d="M213.0511 140.4157
L212.9559 140.5110
" />
<path d="M215.0511 141.6538
L214.8606 141.5586
" />
<path d="M214.8606 141.5586
L214.7654 141.4634
" />
<path d="M214.7654 141.4634
L214.6702 141.2729
" />
<path d="M214.6702 141.2729
L214.6702 140.7015
" />
<path d="M214.6702 140.7015
L214.7654 140.5110
" />
<path d="M214.7654 140.5110
L214.8606 140.4157
" />
<path d="M214.8606 140.4157
L215.0511 140.3205
" />
<path d="M215.0511 140.3205
L215.3368 140.3205
" />
<path d="M215.3368 140.3205
L215.5273 140.4157
" />
<path d="M215.5273 140.4157
L215.6226 140.5110
" />
<path d="M215.6226 140.5110
L215.7178 140.7015
" />
<path d="M215.7178 140.7015
L215.7178 141.2729
" />
<path d="M215.7178 141.2729
L215.6226 141.4634
" />
<path d="M215.6226 141.4634
L215.5273 141.5586
" />
<path d="M215.5273 141.5586
L215.3368 141.6538
" />
<path d="M215.3368 141.6538
L215.0511 141.6538
" />
<path d="M216.8606 141.6538
L216.6702 141.5586
" />
<path d="M216.6702 141.5586
L216.5749 141.3681
" />
<path d="M216.5749 141.3681
L216.5749 139.6538
" />
<path d="M218.3845 141.5586
L218.1940 141.6538
" />
<path d="M218.1940 141.6538
L217.8130 141.6538
" />
<path d="M217.8130 141.6538
L217.6226 141.5586
" />
<path d="M217.6226 141.5586
L217.5273 141.3681
" />
<path d="M217.5273 141.3681
L217.5273 140.6062
" />
<path d="M217.5273 140.6062
L217.6226 140.4157
" />
<path d="M217.6226 140.4157
L217.8130 140.3205
" />
<path d="M217.8130 140.3205
L218.1940 140.3205
" />
<path d="M218.1940 140.3205
L218.3845 140.4157
" />
<path d="M218.3845 140.4157
L218.4797 140.6062
" />
<path d="M218.4797 140.6062
L218.4797 140.7967
" />
<path d="M218.4797 140.7967
L217.5273 140.9872
" />
<path d="M219.2416 141.5586
L219.4321 141.6538
" />
<path d="M219.4321 141.6538
L219.8130 141.6538
" />
<path d="M219.8130 141.6538
L220.0035 141.5586
" />
<path d="M220.0035 141.5586
L220.0987 141.3681
" />
<path d="M220.0987 141.3681
L220.0987 141.2729
" />
<path d="M220.0987 141.2729
L220.0035 141.0824
" />
<path d="M220.0035 141.0824
L219.8130 140.9872
" />
<path d="M219.8130 140.9872
L219.5273 140.9872
" />
<path d="M219.5273 140.9872
L219.3368 140.8919
" />
<path d="M219.3368 140.8919
L219.2416 140.7015
" />
<path d="M219.2416 140.7015
L219.2416 140.6062
" />
<path d="M219.2416 140.6062
L219.3368 140.4157
" />
<path d="M219.3368 140.4157
L219.5273 140.3205
" />
<path d="M219.5273 140.3205
L219.8130 140.3205
" />
<path d="M219.8130 140.3205
L220.0035 140.4157
" />
<path d="M220.7654 142.4157
L220.8607 142.3205
" />
<path d="M220.8607 142.3205
L221.0511 142.0348
" />
<path d="M221.0511 142.0348
L221.1464 141.8443
" />
<path d="M221.1464 141.8443
L221.2416 141.5586
" />
<path d="M221.2416 141.5586
L221.3368 141.0824
" />
<path d="M221.3368 141.0824
L221.3368 140.7015
" />
<path d="M221.3368 140.7015
L221.2416 140.2253
" />
<path d="M221.2416 140.2253
L221.1464 139.9396
" />
<path d="M221.1464 139.9396
L221.0511 139.7491
" />
<path d="M221.0511 139.7491
L220.8607 139.4634
" />
<path d="M220.8607 139.4634
L220.7654 139.3681
" />
<path d="M224.3845 142.4157
L224.2892 142.3205
" />
<path d="M224.2892 142.3205
L224.0988 142.0348
" />
<path d="M224.0988 142.0348
L224.0035 141.8443
" />
<path d="M224.0035 141.8443
L223.9083 141.5586
" />
<path d="M223.9083 141.5586
L223.8130 141.0824
" />
<path d="M223.8130 141.0824
L223.8130 140.7015
" />
<path d="M223.8130 140.7015
L223.9083 140.2253
" />
<path d="M223.9083 140.2253
L224.0035 139.9396
" />
<path d="M224.0035 139.9396
L224.0988 139.7491
" />
<path d="M224.0988 139.7491
L224.2892 139.4634
" />
<path d="M224.2892 139.4634
L224.3845 139.3681
" />
<path d="M225.1464 140.3205
L225.1464 141.6538
" />
<path d="M225.1464 140.5110
L225.2416 140.4157
" />
<path d="M225.2416 140.4157
L225.4321 140.3205
" />
<path d="M225.4321 140.3205
L225.7178 140.3205
" />
<path d="M225.7178 140.3205
L225.9083 140.4157
" />
<path d="M225.9083 140.4157
L226.0035 140.6062
" />
<path d="M226.0035 140.6062
L226.0035 141.6538
" />
<path d="M227.2416 141.6538
L227.0511 141.5586
" />
<path d="M227.0511 141.5586
L226.9559 141.4634
" />
<path d="M226.9559 141.4634
L226.8607 141.2729
" />
<path d="M226.8607 141.2729
L226.8607 140.7015
" />
<path d="M226.8607 140.7015
L226.9559 140.5110
" />
<path d="M226.9559 140.5110
L227.0511 140.4157
" />
<path d="M227.0511 140.4157
L227.2416 140.3205
" />
<path d="M227.2416 140.3205
L227.5273 140.3205
" />
<path d="M227.5273 140.3205
L227.7178 140.4157
" />
<path d="M227.7178 140.4157
L227.8130 140.5110
" />
<path d="M227.8130 140.5110
L227.9083 140.7015
" />
<path d="M227.9083 140.7015
L227.9083 141.2729
" />
<path d="M227.9083 141.2729
L227.8130 141.4634
" />
<path d="M227.8130 141.4634
L227.7178 141.5586
" />
<path d="M227.7178 141.5586
L227.5273 141.6538
" />
<path d="M227.5273 141.6538
L227.2416 141.6538
" />
<path d="M228.4797 140.3205
L229.2416 140.3205
" />
<path d="M228.7654 139.6538
L228.7654 141.3681
" />
<path d="M228.7654 141.3681
L228.8607 141.5586
" />
<path d="M228.8607 141.5586
L229.0511 141.6538
" />
<path d="M229.0511 141.6538
L229.2416 141.6538
" />
<path d="M231.4321 140.3205
L231.4321 142.3205
" />
<path d="M231.4321 140.4157
L231.6226 140.3205
" />
<path d="M231.6226 140.3205
L232.0035 140.3205
" />
<path d="M232.0035 140.3205
L232.1940 140.4157
" />
<path d="M232.1940 140.4157
L232.2892 140.5110
" />
<path d="M232.2892 140.5110
L232.3845 140.7015
" />
<path d="M232.3845 140.7015
L232.3845 141.2729
" />
<path d="M232.3845 141.2729
L232.2892 141.4634
" />
<path d="M232.2892 141.4634
L232.1940 141.5586
" />
<path d="M232.1940 141.5586
L232.0035 141.6538
" />
<path d="M232.0035 141.6538
L231.6226 141.6538
" />
<path d="M231.6226 141.6538
L231.4321 141.5586
" />
<path d="M233.5273 141.6538
L233.3369 141.5586
" />
<path d="M233.3369 141.5586
L233.2416 141.3681
" />
<path d="M233.2416 141.3681
L233.2416 139.6538
" />
<path d="M235.1464 141.6538
L235.1464 140.6062
" />
<path d="M235.1464 140.6062
L235.0511 140.4157
" />
<path d="M235.0511 140.4157
L234.8607 140.3205
" />
<path d="M234.8607 140.3205
L234.4797 140.3205
" />
<path d="M234.4797 140.3205
L234.2892 140.4157
" />
<path d="M235.1464 141.5586
L234.9559 141.6538
" />
<path d="M234.9559 141.6538
L234.4797 141.6538
" />
<path d="M234.4797 141.6538
L234.2892 141.5586
" />
<path d="M234.2892 141.5586
L234.1940 141.3681
" />
<path d="M234.1940 141.3681
L234.1940 141.1777
" />
<path d="M234.1940 141.1777
L234.2892 140.9872
" />
<path d="M234.2892 140.9872
L234.4797 140.8919
" />
<path d="M234.4797 140.8919
L234.9559 140.8919
" />
<path d="M234.9559 140.8919
L235.1464 140.7967
" />
<path d="M235.8130 140.3205
L236.5750 140.3205
" />
<path d="M236.0988 139.6538
L236.0988 141.3681
" />
<path d="M236.0988 141.3681
L236.1940 141.5586
" />
<path d="M236.1940 141.5586
L236.3845 141.6538
" />
<path d="M236.3845 141.6538
L236.5750 141.6538
" />
<path d="M238.0035 141.5586
L237.8131 141.6538
" />
<path d="M237.8131 141.6538
L237.4321 141.6538
" />
<path d="M237.4321 141.6538
L237.2416 141.5586
" />
<path d="M237.2416 141.5586
L237.1464 141.3681
" />
<path d="M237.1464 141.3681
L237.1464 140.6062
" />
<path d="M237.1464 140.6062
L237.2416 140.4157
" />
<path d="M237.2416 140.4157
L237.4321 140.3205
" />
<path d="M237.4321 140.3205
L237.8131 140.3205
" />
<path d="M237.8131 140.3205
L238.0035 140.4157
" />
<path d="M238.0035 140.4157
L238.0988 140.6062
" />
<path d="M238.0988 140.6062
L238.0988 140.7967
" />
<path d="M238.0988 140.7967
L237.1464 140.9872
" />
<path d="M239.8131 141.6538
L239.8131 139.6538
" />
<path d="M239.8131 141.5586
L239.6226 141.6538
" />
<path d="M239.6226 141.6538
L239.2416 141.6538
" />
<path d="M239.2416 141.6538
L239.0511 141.5586
" />
<path d="M239.0511 141.5586
L238.9559 141.4634
" />
<path d="M238.9559 141.4634
L238.8607 141.2729
" />
<path d="M238.8607 141.2729
L238.8607 140.7015
" />
<path d="M238.8607 140.7015
L238.9559 140.5110
" />
<path d="M238.9559 140.5110
L239.0511 140.4157
" />
<path d="M239.0511 140.4157
L239.2416 140.3205
" />
<path d="M239.2416 140.3205
L239.6226 140.3205
" />
<path d="M239.6226 140.3205
L239.8131 140.4157
" />
<path d="M240.5750 142.4157
L240.6702 142.3205
" />
<path d="M240.6702 142.3205
L240.8607 142.0348
" />
<path d="M240.8607 142.0348
L240.9559 141.8443
" />
<path d="M240.9559 141.8443
L241.0511 141.5586
" />
<path d="M241.0511 141.5586
L241.1464 141.0824
" />
<path d="M241.1464 141.0824
L241.1464 140.7015
" />
<path d="M241.1464 140.7015
L241.0511 140.2253
" />
<path d="M241.0511 140.2253
L240.9559 139.9396
" />
<path d="M240.9559 139.9396
L240.8607 139.7491
" />
<path d="M240.8607 139.7491
L240.6702 139.4634
" />
<path d="M240.6702 139.4634
L240.5750 139.3681
" />
</g></g> 
</svg>
