<?xml version="1.0" standalone="no"?>
 <!DOCTYPE svg PUBLIC "-//W3C//DTD SVG 1.1//EN" 
 "http://www.w3.org/Graphics/SVG/1.1/DTD/svg11.dtd"> 
<svg
  xmlns:svg="http://www.w3.org/2000/svg"
  xmlns="http://www.w3.org/2000/svg"
  xmlns:xlink="http://www.w3.org/1999/xlink"
  version="1.1"
  width="431.8000mm" height="279.4000mm" viewBox="0.0000 0.0000 431.8000 279.4000">
<title>SVG Image created as CAN-hub-F_Silkscreen.svg date 2026/01/24 16:29:48 </title>
  <desc>Image generated by PCBNEW </desc>
<g style="fill:#000000; fill-opacity:1.0000;stroke:#000000; stroke-opacity:1.0000;
stroke-linecap:round; stroke-linejoin:round;"
 transform="translate(0 0) scale(1 1)">
</g>
<g style="fill:none; 
stroke:#000000; stroke-width:0.1500; stroke-opacity:1; 
stroke-linecap:round; stroke-linejoin:round;">
<text x="176.9110" y="124.3250"
textLength="1.9643" font-size="1.3333" lengthAdjust="spacingAndGlyphs"
text-anchor="middle" opacity="0" stroke-opacity="0">J3</text>
<g class="stroked-text"><desc>J3</desc>
<path d="M176.5777 123.2798
L176.5777 123.9941
" />
<path d="M176.5777 123.9941
L176.5300 124.1370
" />
<path d="M176.5300 124.1370
L176.4348 124.2322
" />
<path d="M176.4348 124.2322
L176.2920 124.2798
" />
<path d="M176.2920 124.2798
L176.1967 124.2798
" />
<path d="M176.9586 123.2798
L177.5777 123.2798
" />
<path d="M177.5777 123.2798
L177.2443 123.6608
" />
<path d="M177.2443 123.6608
L177.3872 123.6608
" />
<path d="M177.3872 123.6608
L177.4824 123.7084
" />
<path d="M177.4824 123.7084
L177.5300 123.7560
" />
<path d="M177.5300 123.7560
L177.5777 123.8512
" />
<path d="M177.5777 123.8512
L177.5777 124.0893
" />
<path d="M177.5777 124.0893
L177.5300 124.1846
" />
<path d="M177.5300 124.1846
L177.4824 124.2322
" />
<path d="M177.4824 124.2322
L177.3872 124.2798
" />
<path d="M177.3872 124.2798
L177.1015 124.2798
" />
<path d="M177.1015 124.2798
L177.0062 124.2322
" />
<path d="M177.0062 124.2322
L176.9586 124.1846
" />
</g><text x="180.5940" y="124.3250"
textLength="1.9643" font-size="1.3333" lengthAdjust="spacingAndGlyphs"
text-anchor="middle" opacity="0" stroke-opacity="0">J4</text>
<g class="stroked-text"><desc>J4</desc>
<path d="M180.2607 123.2798
L180.2607 123.9941
" />
<path d="M180.2607 123.9941
L180.2130 124.1370
" />
<path d="M180.2130 124.1370
L180.1178 124.2322
" />
<path d="M180.1178 124.2322
L179.9750 124.2798
" />
<path d="M179.9750 124.2798
L179.8797 124.2798
" />
<path d="M181.1654 123.6132
L181.1654 124.2798
" />
<path d="M180.9273 123.2322
L180.6892 123.9465
" />
<path d="M180.6892 123.9465
L181.3083 123.9465
" />
</g><text x="176.7840" y="134.4850"
textLength="1.9643" font-size="1.3333" lengthAdjust="spacingAndGlyphs"
text-anchor="middle" opacity="0" stroke-opacity="0">J5</text>
<g class="stroked-text"><desc>J5</desc>
<path d="M176.4507 133.4398
L176.4507 134.1541
" />
<path d="M176.4507 134.1541
L176.4030 134.2970
" />
<path d="M176.4030 134.2970
L176.3078 134.3922
" />
<path d="M176.3078 134.3922
L176.1650 134.4398
" />
<path d="M176.1650 134.4398
L176.0697 134.4398
" />
<path d="M177.4030 133.4398
L176.9269 133.4398
" />
<path d="M176.9269 133.4398
L176.8792 133.9160
" />
<path d="M176.8792 133.9160
L176.9269 133.8684
" />
<path d="M176.9269 133.8684
L177.0221 133.8208
" />
<path d="M177.0221 133.8208
L177.2602 133.8208
" />
<path d="M177.2602 133.8208
L177.3554 133.8684
" />
<path d="M177.3554 133.8684
L177.4030 133.9160
" />
<path d="M177.4030 133.9160
L177.4507 134.0112
" />
<path d="M177.4507 134.0112
L177.4507 134.2493
" />
<path d="M177.4507 134.2493
L177.4030 134.3446
" />
<path d="M177.4030 134.3446
L177.3554 134.3922
" />
<path d="M177.3554 134.3922
L177.2602 134.4398
" />
<path d="M177.2602 134.4398
L177.0221 134.4398
" />
<path d="M177.0221 134.4398
L176.9269 134.3922
" />
<path d="M176.9269 134.3922
L176.8792 134.3446
" />
</g><text x="180.5940" y="134.4850"
textLength="1.9643" font-size="1.3333" lengthAdjust="spacingAndGlyphs"
text-anchor="middle" opacity="0" stroke-opacity="0">J6</text>
<g class="stroked-text"><desc>J6</desc>
<path d="M180.2607 133.4398
L180.2607 134.1541
" />
<path d="M180.2607 134.1541
L180.2130 134.2970
" />
<path d="M180.2130 134.2970
L180.1178 134.3922
" />
<path d="M180.1178 134.3922
L179.9750 134.4398
" />
<path d="M179.9750 134.4398
L179.8797 134.4398
" />
<path d="M181.1654 133.4398
L180.9750 133.4398
" />
<path d="M180.9750 133.4398
L180.8797 133.4874
" />
<path d="M180.8797 133.4874
L180.8321 133.5351
" />
<path d="M180.8321 133.5351
L180.7369 133.6779
" />
<path d="M180.7369 133.6779
L180.6892 133.8684
" />
<path d="M180.6892 133.8684
L180.6892 134.2493
" />
<path d="M180.6892 134.2493
L180.7369 134.3446
" />
<path d="M180.7369 134.3446
L180.7845 134.3922
" />
<path d="M180.7845 134.3922
L180.8797 134.4398
" />
<path d="M180.8797 134.4398
L181.0702 134.4398
" />
<path d="M181.0702 134.4398
L181.1654 134.3922
" />
<path d="M181.1654 134.3922
L181.2130 134.3446
" />
<path d="M181.2130 134.3446
L181.2607 134.2493
" />
<path d="M181.2607 134.2493
L181.2607 134.0112
" />
<path d="M181.2607 134.0112
L181.2130 133.9160
" />
<path d="M181.2130 133.9160
L181.1654 133.8684
" />
<path d="M181.1654 133.8684
L181.0702 133.8208
" />
<path d="M181.0702 133.8208
L180.8797 133.8208
" />
<path d="M180.8797 133.8208
L180.7845 133.8684
" />
<path d="M180.7845 133.8684
L180.7369 133.9160
" />
<path d="M180.7369 133.9160
L180.6892 134.0112
" />
</g><text x="176.9110" y="114.1650"
textLength="1.9643" font-size="1.3333" lengthAdjust="spacingAndGlyphs"
text-anchor="middle" opacity="0" stroke-opacity="0">J1</text>
<g class="stroked-text"><desc>J1</desc>
<path d="M176.5777 113.1198
L176.5777 113.8341
" />
<path d="M176.5777 113.8341
L176.5300 113.9770
" />
<path d="M176.5300 113.9770
L176.4348 114.0722
" />
<path d="M176.4348 114.0722
L176.2920 114.1198
" />
<path d="M176.2920 114.1198
L176.1967 114.1198
" />
<path d="M177.5777 114.1198
L177.0062 114.1198
" />
<path d="M177.2920 114.1198
L177.2920 113.1198
" />
<path d="M177.2920 113.1198
L177.1967 113.2627
" />
<path d="M177.1967 113.2627
L177.1015 113.3579
" />
<path d="M177.1015 113.3579
L177.0062 113.4055
" />
</g><text x="180.5940" y="114.1650"
textLength="1.9643" font-size="1.3333" lengthAdjust="spacingAndGlyphs"
text-anchor="middle" opacity="0" stroke-opacity="0">J2</text>
<g class="stroked-text"><desc>J2</desc>
<path d="M180.2607 113.1198
L180.2607 113.8341
" />
<path d="M180.2607 113.8341
L180.2130 113.9770
" />
<path d="M180.2130 113.9770
L180.1178 114.0722
" />
<path d="M180.1178 114.0722
L179.9750 114.1198
" />
<path d="M179.9750 114.1198
L179.8797 114.1198
" />
<path d="M180.6892 113.2151
L180.7369 113.1674
" />
<path d="M180.7369 113.1674
L180.8321 113.1198
" />
<path d="M180.8321 113.1198
L181.0702 113.1198
" />
<path d="M181.0702 113.1198
L181.1654 113.1674
" />
<path d="M181.1654 113.1674
L181.2130 113.2151
" />
<path d="M181.2130 113.2151
L181.2607 113.3103
" />
<path d="M181.2607 113.3103
L181.2607 113.4055
" />
<path d="M181.2607 113.4055
L181.2130 113.5484
" />
<path d="M181.2130 113.5484
L180.6416 114.1198
" />
<path d="M180.6416 114.1198
L181.2607 114.1198
" />
</g></g>
<g style="fill:none; 
stroke:#000000; stroke-width:0.1200; stroke-opacity:1; 
stroke-linecap:round; stroke-linejoin:round;">
<path d="M169.7840 131.8810
L177.7840 131.8810
" />
<path d="M177.7840 122.8810
L169.7840 122.8810
" />
<path d="M177.7840 131.8810
L177.7840 122.8810
" />
<path style="fill:#000000; fill-opacity:1.0000; 
stroke:#000000; stroke-width:0.1200; stroke-opacity:1; 
stroke-linecap:round; stroke-linejoin:round;fill-rule:evenodd;"
d="M 178.5620,129.4130
177.8000,128.6510
178.5620,127.8890
Z" /> 
</g>
<g style="fill:none; 
stroke:#000000; stroke-width:0.1200; stroke-opacity:1; 
stroke-linecap:round; stroke-linejoin:round;">
<path d="M179.5940 122.8810
L179.5940 131.8810
" />
<path d="M179.5940 131.8810
L187.5940 131.8810
" />
<path d="M187.5940 122.8810
L179.5940 122.8810
" />
<path style="fill:#000000; fill-opacity:1.0000; 
stroke:#000000; stroke-width:0.1200; stroke-opacity:1; 
stroke-linecap:round; stroke-linejoin:round;fill-rule:evenodd;"
d="M 179.5780,126.1110
178.8160,126.8730
178.8160,125.3490
Z" /> 
</g>
<g style="fill:none; 
stroke:#000000; stroke-width:0.1200; stroke-opacity:1; 
stroke-linecap:round; stroke-linejoin:round;">
<path d="M169.7840 142.0410
L177.7840 142.0410
" />
<path d="M177.7840 133.0410
L169.7840 133.0410
" />
<path d="M177.7840 142.0410
L177.7840 133.0410
" />
<path style="fill:#000000; fill-opacity:1.0000; 
stroke:#000000; stroke-width:0.1200; stroke-opacity:1; 
stroke-linecap:round; stroke-linejoin:round;fill-rule:evenodd;"
d="M 178.5620,139.5730
177.8000,138.8110
178.5620,138.0490
Z" /> 
</g>
<g style="fill:none; 
stroke:#000000; stroke-width:0.1200; stroke-opacity:1; 
stroke-linecap:round; stroke-linejoin:round;">
<path d="M179.5940 133.0410
L179.5940 142.0410
" />
<path d="M179.5940 142.0410
L187.5940 142.0410
" />
<path d="M187.5940 133.0410
L179.5940 133.0410
" />
<path style="fill:#000000; fill-opacity:1.0000; 
stroke:#000000; stroke-width:0.1200; stroke-opacity:1; 
stroke-linecap:round; stroke-linejoin:round;fill-rule:evenodd;"
d="M 179.5780,136.2710
178.8160,137.0330
178.8160,135.5090
Z" /> 
</g>
<g style="fill:none; 
stroke:#000000; stroke-width:0.1200; stroke-opacity:1; 
stroke-linecap:round; stroke-linejoin:round;">
<path d="M169.7840 121.7180
L177.7840 121.7180
" />
<path d="M177.7840 112.7180
L169.7840 112.7180
" />
<path d="M177.7840 121.7180
L177.7840 112.7180
" />
<path style="fill:#000000; fill-opacity:1.0000; 
stroke:#000000; stroke-width:0.1200; stroke-opacity:1; 
stroke-linecap:round; stroke-linejoin:round;fill-rule:evenodd;"
d="M 178.5620,119.2500
177.8000,118.4880
178.5620,117.7260
Z" /> 
</g>
<g style="fill:none; 
stroke:#000000; stroke-width:0.1200; stroke-opacity:1; 
stroke-linecap:round; stroke-linejoin:round;">
<path d="M179.5940 112.7180
L179.5940 121.7180
" />
<path d="M179.5940 121.7180
L187.5940 121.7180
" />
<path d="M187.5940 112.7180
L179.5940 112.7180
" />
<path style="fill:#000000; fill-opacity:1.0000; 
stroke:#000000; stroke-width:0.1200; stroke-opacity:1; 
stroke-linecap:round; stroke-linejoin:round;fill-rule:evenodd;"
d="M 179.5780,115.9480
178.8160,116.7100
178.8160,115.1860
Z" /> 
</g>
<g style="fill:#000000; fill-opacity:1.0000; stroke:none;">
<circle cx="168.1440" cy="130.0510" r="1.7000" /> 
</g>
<g style="fill:#000000; fill-opacity:1.0000; stroke:none;">
<circle cx="168.1440" cy="124.7110" r="1.7000" /> 
<path style="fill:#000000; fill-opacity:1.0000; stroke:none;fill-rule:evenodd;"
d="M 177.6730,127.7620
177.6730,129.5400
175.8950,129.5400
175.8950,127.7620
Z" /> 
</g>
<g style="fill:#000000; fill-opacity:1.0000; stroke:none;">
<circle cx="176.7840" cy="126.1110" r="0.8890" /> 
</g>
<g style="fill:#000000; fill-opacity:1.0000; stroke:none;">
<circle cx="189.2340" cy="124.7110" r="1.7000" /> 
</g>
<g style="fill:#000000; fill-opacity:1.0000; stroke:none;">
<circle cx="189.2340" cy="130.0510" r="1.7000" /> 
<path style="fill:#000000; fill-opacity:1.0000; stroke:none;fill-rule:evenodd;"
d="M 179.7050,127.0000
179.7050,125.2220
181.4830,125.2220
181.4830,127.0000
Z" /> 
</g>
<g style="fill:#000000; fill-opacity:1.0000; stroke:none;">
<circle cx="180.5940" cy="128.6510" r="0.8890" /> 
</g>
<g style="fill:#000000; fill-opacity:1.0000; stroke:none;">
<circle cx="168.1440" cy="140.2110" r="1.7000" /> 
</g>
<g style="fill:#000000; fill-opacity:1.0000; stroke:none;">
<circle cx="168.1440" cy="134.8710" r="1.7000" /> 
<path style="fill:#000000; fill-opacity:1.0000; stroke:none;fill-rule:evenodd;"
d="M 177.6730,137.9220
177.6730,139.7000
175.8950,139.7000
175.8950,137.9220
Z" /> 
</g>
<g style="fill:#000000; fill-opacity:1.0000; stroke:none;">
<circle cx="176.7840" cy="136.2710" r="0.8890" /> 
</g>
<g style="fill:#000000; fill-opacity:1.0000; stroke:none;">
<circle cx="189.2340" cy="134.8710" r="1.7000" /> 
</g>
<g style="fill:#000000; fill-opacity:1.0000; stroke:none;">
<circle cx="189.2340" cy="140.2110" r="1.7000" /> 
<path style="fill:#000000; fill-opacity:1.0000; stroke:none;fill-rule:evenodd;"
d="M 179.7050,137.1600
179.7050,135.3820
181.4830,135.3820
181.4830,137.1600
Z" /> 
</g>
<g style="fill:#000000; fill-opacity:1.0000; stroke:none;">
<circle cx="180.5940" cy="138.8110" r="0.8890" /> 
</g>
<g style="fill:#000000; fill-opacity:1.0000; stroke:none;">
<circle cx="168.1440" cy="119.8880" r="1.7000" /> 
</g>
<g style="fill:#000000; fill-opacity:1.0000; stroke:none;">
<circle cx="168.1440" cy="114.5480" r="1.7000" /> 
<path style="fill:#000000; fill-opacity:1.0000; stroke:none;fill-rule:evenodd;"
d="M 177.6730,117.5990
177.6730,119.3770
175.8950,119.3770
175.8950,117.5990
Z" /> 
</g>
<g style="fill:#000000; fill-opacity:1.0000; stroke:none;">
<circle cx="176.7840" cy="115.9480" r="0.8890" /> 
</g>
<g style="fill:#000000; fill-opacity:1.0000; stroke:none;">
<circle cx="189.2340" cy="114.5480" r="1.7000" /> 
</g>
<g style="fill:#000000; fill-opacity:1.0000; stroke:none;">
<circle cx="189.2340" cy="119.8880" r="1.7000" /> 
<path style="fill:#000000; fill-opacity:1.0000; stroke:none;fill-rule:evenodd;"
d="M 179.7050,116.8370
179.7050,115.0590
181.4830,115.0590
181.4830,116.8370
Z" /> 
</g>
<g style="fill:#000000; fill-opacity:1.0000; stroke:none;">
<circle cx="180.5940" cy="118.4880" r="0.8890" /> 
</g>
<g style="fill:none; 
stroke:#000000; stroke-width:0.0500; stroke-opacity:1; 
stroke-linecap:round; stroke-linejoin:round;">
<path d="M192.7050 143.1290 A0.8890 0.8890 0.0 0 0 193.5940 142.2400" />
<path d="M164.6730 111.6330 A0.8890 0.8890 0.0 0 0 163.7840 112.5220" />
<path d="M193.5940 142.2400
L193.5940 112.5220
" />
<path d="M164.6730 143.1290
L192.7050 143.1290
" />
<path d="M163.7840 142.2400 A0.8890 0.8890 0.0 0 0 164.6730 143.1290" />
<path d="M163.7840 142.2400
L163.7840 112.5220
" />
<path d="M193.5940 112.5220 A0.8890 0.8890 0.0 0 0 192.7050 111.6330" />
<path d="M164.6730 111.6330
L192.7050 111.6330
" />
</g> 
</svg>
