%TF.GenerationSoftware,KiCad,Pcbnew,8.0.7-8.0.7-0~ubuntu24.04.1*%
%TF.CreationDate,2024-12-14T15:03:20-08:00*%
%TF.ProjectId,TEE-CAN,5445452d-4341-44e2-9e6b-696361645f70,1*%
%TF.SameCoordinates,Original*%
%TF.FileFunction,Legend,Bot*%
%TF.FilePolarity,Positive*%
%FSLAX46Y46*%
G04 Gerber Fmt 4.6, Leading zero omitted, Abs format (unit mm)*
G04 Created by KiCad (PCBNEW 8.0.7-8.0.7-0~ubuntu24.04.1) date 2024-12-14 15:03:20*
%MOMM*%
%LPD*%
G01*
G04 APERTURE LIST*
%ADD10C,0.254000*%
%ADD11C,0.000000*%
G04 APERTURE END LIST*
D10*
X214324524Y-138515368D02*
X214022143Y-139785368D01*
X214022143Y-139785368D02*
X213780238Y-138878225D01*
X213780238Y-138878225D02*
X213538333Y-139785368D01*
X213538333Y-139785368D02*
X213235953Y-138515368D01*
X212026428Y-139664415D02*
X212086904Y-139724892D01*
X212086904Y-139724892D02*
X212268333Y-139785368D01*
X212268333Y-139785368D02*
X212389285Y-139785368D01*
X212389285Y-139785368D02*
X212570714Y-139724892D01*
X212570714Y-139724892D02*
X212691666Y-139603939D01*
X212691666Y-139603939D02*
X212752143Y-139482987D01*
X212752143Y-139482987D02*
X212812619Y-139241082D01*
X212812619Y-139241082D02*
X212812619Y-139059653D01*
X212812619Y-139059653D02*
X212752143Y-138817749D01*
X212752143Y-138817749D02*
X212691666Y-138696796D01*
X212691666Y-138696796D02*
X212570714Y-138575844D01*
X212570714Y-138575844D02*
X212389285Y-138515368D01*
X212389285Y-138515368D02*
X212268333Y-138515368D01*
X212268333Y-138515368D02*
X212086904Y-138575844D01*
X212086904Y-138575844D02*
X212026428Y-138636320D01*
X211482143Y-139785368D02*
X211482143Y-138515368D01*
X211482143Y-138515368D02*
X210998333Y-138515368D01*
X210998333Y-138515368D02*
X210877381Y-138575844D01*
X210877381Y-138575844D02*
X210816904Y-138636320D01*
X210816904Y-138636320D02*
X210756428Y-138757272D01*
X210756428Y-138757272D02*
X210756428Y-138938701D01*
X210756428Y-138938701D02*
X210816904Y-139059653D01*
X210816904Y-139059653D02*
X210877381Y-139120130D01*
X210877381Y-139120130D02*
X210998333Y-139180606D01*
X210998333Y-139180606D02*
X211482143Y-139180606D01*
X210212143Y-139301558D02*
X209244524Y-139301558D01*
X207974523Y-139785368D02*
X208700238Y-139785368D01*
X208337381Y-139785368D02*
X208337381Y-138515368D01*
X208337381Y-138515368D02*
X208458333Y-138696796D01*
X208458333Y-138696796D02*
X208579285Y-138817749D01*
X208579285Y-138817749D02*
X208700238Y-138878225D01*
X207248809Y-139059653D02*
X207369761Y-138999177D01*
X207369761Y-138999177D02*
X207430238Y-138938701D01*
X207430238Y-138938701D02*
X207490714Y-138817749D01*
X207490714Y-138817749D02*
X207490714Y-138757272D01*
X207490714Y-138757272D02*
X207430238Y-138636320D01*
X207430238Y-138636320D02*
X207369761Y-138575844D01*
X207369761Y-138575844D02*
X207248809Y-138515368D01*
X207248809Y-138515368D02*
X207006904Y-138515368D01*
X207006904Y-138515368D02*
X206885952Y-138575844D01*
X206885952Y-138575844D02*
X206825476Y-138636320D01*
X206825476Y-138636320D02*
X206764999Y-138757272D01*
X206764999Y-138757272D02*
X206764999Y-138817749D01*
X206764999Y-138817749D02*
X206825476Y-138938701D01*
X206825476Y-138938701D02*
X206885952Y-138999177D01*
X206885952Y-138999177D02*
X207006904Y-139059653D01*
X207006904Y-139059653D02*
X207248809Y-139059653D01*
X207248809Y-139059653D02*
X207369761Y-139120130D01*
X207369761Y-139120130D02*
X207430238Y-139180606D01*
X207430238Y-139180606D02*
X207490714Y-139301558D01*
X207490714Y-139301558D02*
X207490714Y-139543463D01*
X207490714Y-139543463D02*
X207430238Y-139664415D01*
X207430238Y-139664415D02*
X207369761Y-139724892D01*
X207369761Y-139724892D02*
X207248809Y-139785368D01*
X207248809Y-139785368D02*
X207006904Y-139785368D01*
X207006904Y-139785368D02*
X206885952Y-139724892D01*
X206885952Y-139724892D02*
X206825476Y-139664415D01*
X206825476Y-139664415D02*
X206764999Y-139543463D01*
X206764999Y-139543463D02*
X206764999Y-139301558D01*
X206764999Y-139301558D02*
X206825476Y-139180606D01*
X206825476Y-139180606D02*
X206885952Y-139120130D01*
X206885952Y-139120130D02*
X207006904Y-139059653D01*
X206281190Y-138636320D02*
X206220714Y-138575844D01*
X206220714Y-138575844D02*
X206099761Y-138515368D01*
X206099761Y-138515368D02*
X205797380Y-138515368D01*
X205797380Y-138515368D02*
X205676428Y-138575844D01*
X205676428Y-138575844D02*
X205615952Y-138636320D01*
X205615952Y-138636320D02*
X205555475Y-138757272D01*
X205555475Y-138757272D02*
X205555475Y-138878225D01*
X205555475Y-138878225D02*
X205615952Y-139059653D01*
X205615952Y-139059653D02*
X206341666Y-139785368D01*
X206341666Y-139785368D02*
X205555475Y-139785368D01*
X204466904Y-138938701D02*
X204466904Y-139785368D01*
X204769285Y-138454892D02*
X205071666Y-139362034D01*
X205071666Y-139362034D02*
X204285475Y-139362034D01*
X217680952Y-127339368D02*
X216955238Y-127339368D01*
X217318095Y-128609368D02*
X217318095Y-127339368D01*
X216531905Y-127944130D02*
X216108571Y-127944130D01*
X215927143Y-128609368D02*
X216531905Y-128609368D01*
X216531905Y-128609368D02*
X216531905Y-127339368D01*
X216531905Y-127339368D02*
X215927143Y-127339368D01*
X215382857Y-127944130D02*
X214959523Y-127944130D01*
X214778095Y-128609368D02*
X215382857Y-128609368D01*
X215382857Y-128609368D02*
X215382857Y-127339368D01*
X215382857Y-127339368D02*
X214778095Y-127339368D01*
X212540475Y-128488415D02*
X212600951Y-128548892D01*
X212600951Y-128548892D02*
X212782380Y-128609368D01*
X212782380Y-128609368D02*
X212903332Y-128609368D01*
X212903332Y-128609368D02*
X213084761Y-128548892D01*
X213084761Y-128548892D02*
X213205713Y-128427939D01*
X213205713Y-128427939D02*
X213266190Y-128306987D01*
X213266190Y-128306987D02*
X213326666Y-128065082D01*
X213326666Y-128065082D02*
X213326666Y-127883653D01*
X213326666Y-127883653D02*
X213266190Y-127641749D01*
X213266190Y-127641749D02*
X213205713Y-127520796D01*
X213205713Y-127520796D02*
X213084761Y-127399844D01*
X213084761Y-127399844D02*
X212903332Y-127339368D01*
X212903332Y-127339368D02*
X212782380Y-127339368D01*
X212782380Y-127339368D02*
X212600951Y-127399844D01*
X212600951Y-127399844D02*
X212540475Y-127460320D01*
X212056666Y-128246511D02*
X211451904Y-128246511D01*
X212177618Y-128609368D02*
X211754285Y-127339368D01*
X211754285Y-127339368D02*
X211330951Y-128609368D01*
X210907619Y-128609368D02*
X210907619Y-127339368D01*
X210907619Y-127339368D02*
X210181904Y-128609368D01*
X210181904Y-128609368D02*
X210181904Y-127339368D01*
X208790952Y-127339368D02*
X208367619Y-128609368D01*
X208367619Y-128609368D02*
X207944285Y-127339368D01*
X206855714Y-128609368D02*
X207581429Y-128609368D01*
X207218572Y-128609368D02*
X207218572Y-127339368D01*
X207218572Y-127339368D02*
X207339524Y-127520796D01*
X207339524Y-127520796D02*
X207460476Y-127641749D01*
X207460476Y-127641749D02*
X207581429Y-127702225D01*
X205404286Y-127460320D02*
X205343810Y-127399844D01*
X205343810Y-127399844D02*
X205222857Y-127339368D01*
X205222857Y-127339368D02*
X204920476Y-127339368D01*
X204920476Y-127339368D02*
X204799524Y-127399844D01*
X204799524Y-127399844D02*
X204739048Y-127460320D01*
X204739048Y-127460320D02*
X204678571Y-127581272D01*
X204678571Y-127581272D02*
X204678571Y-127702225D01*
X204678571Y-127702225D02*
X204739048Y-127883653D01*
X204739048Y-127883653D02*
X205464762Y-128609368D01*
X205464762Y-128609368D02*
X204678571Y-128609368D01*
X203892381Y-127339368D02*
X203771428Y-127339368D01*
X203771428Y-127339368D02*
X203650476Y-127399844D01*
X203650476Y-127399844D02*
X203590000Y-127460320D01*
X203590000Y-127460320D02*
X203529524Y-127581272D01*
X203529524Y-127581272D02*
X203469047Y-127823177D01*
X203469047Y-127823177D02*
X203469047Y-128125558D01*
X203469047Y-128125558D02*
X203529524Y-128367463D01*
X203529524Y-128367463D02*
X203590000Y-128488415D01*
X203590000Y-128488415D02*
X203650476Y-128548892D01*
X203650476Y-128548892D02*
X203771428Y-128609368D01*
X203771428Y-128609368D02*
X203892381Y-128609368D01*
X203892381Y-128609368D02*
X204013333Y-128548892D01*
X204013333Y-128548892D02*
X204073809Y-128488415D01*
X204073809Y-128488415D02*
X204134286Y-128367463D01*
X204134286Y-128367463D02*
X204194762Y-128125558D01*
X204194762Y-128125558D02*
X204194762Y-127823177D01*
X204194762Y-127823177D02*
X204134286Y-127581272D01*
X204134286Y-127581272D02*
X204073809Y-127460320D01*
X204073809Y-127460320D02*
X204013333Y-127399844D01*
X204013333Y-127399844D02*
X203892381Y-127339368D01*
X202985238Y-127460320D02*
X202924762Y-127399844D01*
X202924762Y-127399844D02*
X202803809Y-127339368D01*
X202803809Y-127339368D02*
X202501428Y-127339368D01*
X202501428Y-127339368D02*
X202380476Y-127399844D01*
X202380476Y-127399844D02*
X202320000Y-127460320D01*
X202320000Y-127460320D02*
X202259523Y-127581272D01*
X202259523Y-127581272D02*
X202259523Y-127702225D01*
X202259523Y-127702225D02*
X202320000Y-127883653D01*
X202320000Y-127883653D02*
X203045714Y-128609368D01*
X203045714Y-128609368D02*
X202259523Y-128609368D01*
X201170952Y-127762701D02*
X201170952Y-128609368D01*
X201473333Y-127278892D02*
X201775714Y-128186034D01*
X201775714Y-128186034D02*
X200989523Y-128186034D01*
D11*
%TO.C,G\u002A\u002A\u002A*%
G36*
X208645511Y-133171857D02*
G01*
X208645637Y-133222741D01*
X208645694Y-133274517D01*
X208645682Y-133326184D01*
X208645600Y-133376739D01*
X208645449Y-133425180D01*
X208645226Y-133470506D01*
X208644933Y-133511715D01*
X208644567Y-133547804D01*
X208644129Y-133577773D01*
X208643618Y-133600618D01*
X208643033Y-133615339D01*
X208642374Y-133620933D01*
X208641775Y-133621318D01*
X208633421Y-133622886D01*
X208617701Y-133623915D01*
X208596805Y-133624437D01*
X208572924Y-133624484D01*
X208548248Y-133624086D01*
X208524967Y-133623276D01*
X208505271Y-133622084D01*
X208491350Y-133620542D01*
X208485396Y-133618682D01*
X208484586Y-133614630D01*
X208483400Y-133601428D01*
X208482145Y-133580615D01*
X208480896Y-133553639D01*
X208479725Y-133521946D01*
X208478706Y-133486985D01*
X208477956Y-133459760D01*
X208476909Y-133427600D01*
X208475828Y-133400002D01*
X208474774Y-133378363D01*
X208473811Y-133364085D01*
X208473000Y-133358565D01*
X208472858Y-133358504D01*
X208466237Y-133357921D01*
X208450564Y-133357195D01*
X208426825Y-133356353D01*
X208396003Y-133355424D01*
X208359083Y-133354435D01*
X208317050Y-133353414D01*
X208270888Y-133352390D01*
X208221580Y-133351391D01*
X208168360Y-133350353D01*
X208116492Y-133349254D01*
X208073114Y-133348126D01*
X208037335Y-133346842D01*
X208008267Y-133345280D01*
X207985022Y-133343313D01*
X207966710Y-133340818D01*
X207952442Y-133337669D01*
X207941330Y-133333741D01*
X207932485Y-133328910D01*
X207925017Y-133323051D01*
X207918038Y-133316040D01*
X207910660Y-133307751D01*
X207904503Y-133300399D01*
X207897836Y-133290743D01*
X207892725Y-133280019D01*
X207888991Y-133266930D01*
X207886454Y-133250176D01*
X207884932Y-133228460D01*
X207884245Y-133200483D01*
X207884214Y-133164947D01*
X207884535Y-133132761D01*
X208046320Y-133132761D01*
X208046358Y-133149806D01*
X208046731Y-133170338D01*
X208047804Y-133184086D01*
X208049933Y-133193131D01*
X208053476Y-133199559D01*
X208058790Y-133205450D01*
X208071259Y-133217920D01*
X208271606Y-133217920D01*
X208302131Y-133217909D01*
X208347520Y-133217823D01*
X208384206Y-133217621D01*
X208413116Y-133217266D01*
X208435174Y-133216722D01*
X208451304Y-133215952D01*
X208462430Y-133214920D01*
X208469478Y-133213589D01*
X208473372Y-133211922D01*
X208475037Y-133209884D01*
X208475599Y-133207107D01*
X208476596Y-133194996D01*
X208477396Y-133175710D01*
X208477928Y-133151227D01*
X208478120Y-133123524D01*
X208478120Y-133045200D01*
X208288890Y-133045321D01*
X208288585Y-133045321D01*
X208244851Y-133045474D01*
X208203607Y-133045854D01*
X208166132Y-133046430D01*
X208133702Y-133047175D01*
X208107598Y-133048058D01*
X208089096Y-133049050D01*
X208079477Y-133050121D01*
X208079072Y-133050216D01*
X208066252Y-133054023D01*
X208057277Y-133059567D01*
X208051471Y-133068530D01*
X208048160Y-133082595D01*
X208046668Y-133103445D01*
X208046320Y-133132761D01*
X207884535Y-133132761D01*
X207884657Y-133120553D01*
X207886300Y-132990167D01*
X207901766Y-132968153D01*
X207906785Y-132961736D01*
X207922892Y-132945731D01*
X207939866Y-132933440D01*
X207962500Y-132920740D01*
X208300320Y-132917688D01*
X208327367Y-132917451D01*
X208383771Y-132917000D01*
X208436787Y-132916636D01*
X208485570Y-132916361D01*
X208529272Y-132916178D01*
X208567047Y-132916089D01*
X208598049Y-132916096D01*
X208621432Y-132916201D01*
X208636348Y-132916408D01*
X208641950Y-132916718D01*
X208642123Y-132917129D01*
X208642773Y-132924808D01*
X208643359Y-132941394D01*
X208643882Y-132965885D01*
X208644340Y-132997280D01*
X208644732Y-133034577D01*
X208645059Y-133076773D01*
X208645319Y-133122867D01*
X208645322Y-133123524D01*
X208645511Y-133171857D01*
G37*
G36*
X209415879Y-132918816D02*
G01*
X209460605Y-132919173D01*
X209496395Y-132919785D01*
X209523573Y-132920656D01*
X209542469Y-132921790D01*
X209553406Y-132923193D01*
X209570587Y-132928728D01*
X209597313Y-132944636D01*
X209619584Y-132966920D01*
X209634667Y-132993223D01*
X209634724Y-132993372D01*
X209636836Y-132999550D01*
X209638599Y-133006695D01*
X209640045Y-133015725D01*
X209641205Y-133027561D01*
X209642110Y-133043121D01*
X209642792Y-133063325D01*
X209643282Y-133089092D01*
X209643610Y-133121342D01*
X209643809Y-133160993D01*
X209643909Y-133208966D01*
X209643942Y-133266180D01*
X209643938Y-133300039D01*
X209643871Y-133352400D01*
X209643705Y-133396054D01*
X209643410Y-133431928D01*
X209642956Y-133460949D01*
X209642316Y-133484046D01*
X209641459Y-133502145D01*
X209640358Y-133516173D01*
X209638983Y-133527060D01*
X209637306Y-133535730D01*
X209635296Y-133543114D01*
X209626681Y-133564023D01*
X209607623Y-133589617D01*
X209581467Y-133608020D01*
X209548494Y-133618988D01*
X209546602Y-133619274D01*
X209533945Y-133620185D01*
X209512705Y-133620981D01*
X209484102Y-133621662D01*
X209449356Y-133622225D01*
X209409690Y-133622667D01*
X209366324Y-133622986D01*
X209320479Y-133623180D01*
X209273376Y-133623247D01*
X209226236Y-133623185D01*
X209180280Y-133622990D01*
X209136729Y-133622662D01*
X209096804Y-133622198D01*
X209061726Y-133621596D01*
X209032716Y-133620852D01*
X209010995Y-133619967D01*
X208997964Y-133619232D01*
X208974374Y-133617565D01*
X208957675Y-133615544D01*
X208945592Y-133612707D01*
X208935854Y-133608594D01*
X208926186Y-133602741D01*
X208920000Y-133598109D01*
X208904375Y-133582748D01*
X208891861Y-133565882D01*
X208890875Y-133564182D01*
X208885918Y-133554664D01*
X208882221Y-133544677D01*
X208879439Y-133532284D01*
X208877222Y-133515550D01*
X208875224Y-133492540D01*
X208873096Y-133461316D01*
X208872774Y-133456192D01*
X208871092Y-133423525D01*
X208870515Y-133398583D01*
X208871046Y-133382157D01*
X208872691Y-133375037D01*
X208875802Y-133373440D01*
X208887556Y-133369645D01*
X208905749Y-133364751D01*
X208928198Y-133359253D01*
X208952727Y-133353641D01*
X208977153Y-133348410D01*
X208999299Y-133344052D01*
X209016985Y-133341058D01*
X209028030Y-133339923D01*
X209042000Y-133339840D01*
X209042000Y-133410960D01*
X209042000Y-133482080D01*
X209257900Y-133482080D01*
X209473800Y-133482080D01*
X209473800Y-133266180D01*
X209473800Y-133050280D01*
X209258681Y-133050280D01*
X209043562Y-133050280D01*
X209040238Y-133112089D01*
X209040186Y-133113052D01*
X209038722Y-133136907D01*
X209037186Y-133156747D01*
X209035756Y-133170527D01*
X209034612Y-133176202D01*
X209032312Y-133176422D01*
X209021504Y-133175651D01*
X209003479Y-133173647D01*
X208979992Y-133170612D01*
X208952799Y-133166751D01*
X208942684Y-133165231D01*
X208911220Y-133160045D01*
X208889111Y-133155504D01*
X208875749Y-133151467D01*
X208870525Y-133147795D01*
X208870272Y-133146707D01*
X208869857Y-133136872D01*
X208870238Y-133119553D01*
X208871346Y-133096833D01*
X208873110Y-133070796D01*
X208873946Y-133060538D01*
X208878266Y-133023256D01*
X208884455Y-132994206D01*
X208893269Y-132971865D01*
X208905462Y-132954711D01*
X208921791Y-132941220D01*
X208943010Y-132929872D01*
X208946618Y-132928390D01*
X208952398Y-132926628D01*
X208959927Y-132925139D01*
X208970047Y-132923893D01*
X208983599Y-132922862D01*
X209001424Y-132922014D01*
X209024363Y-132921320D01*
X209053257Y-132920750D01*
X209088946Y-132920273D01*
X209132273Y-132919861D01*
X209184077Y-132919483D01*
X209245200Y-132919109D01*
X209298309Y-132918851D01*
X209361889Y-132918710D01*
X209415879Y-132918816D01*
G37*
G36*
X210810285Y-132913329D02*
G01*
X210840917Y-132914462D01*
X210867324Y-132916437D01*
X210888022Y-132919093D01*
X210901529Y-132922268D01*
X210906360Y-132925801D01*
X210906301Y-132926118D01*
X210903921Y-132933215D01*
X210898325Y-132948711D01*
X210889865Y-132971680D01*
X210878889Y-133001199D01*
X210865748Y-133036344D01*
X210850792Y-133076192D01*
X210834372Y-133119818D01*
X210816836Y-133166299D01*
X210798536Y-133214712D01*
X210779821Y-133264132D01*
X210761042Y-133313635D01*
X210742548Y-133362298D01*
X210724689Y-133409197D01*
X210707817Y-133453409D01*
X210692279Y-133494009D01*
X210678428Y-133530073D01*
X210666613Y-133560679D01*
X210657183Y-133584901D01*
X210650490Y-133601817D01*
X210646883Y-133610503D01*
X210640430Y-133624627D01*
X210581775Y-133623203D01*
X210523121Y-133621780D01*
X210426630Y-133388386D01*
X210330138Y-133154992D01*
X210315400Y-133187726D01*
X210314048Y-133190788D01*
X210307750Y-133205607D01*
X210298339Y-133228232D01*
X210286311Y-133257451D01*
X210272161Y-133292052D01*
X210256386Y-133330825D01*
X210239481Y-133372558D01*
X210221943Y-133416040D01*
X210214096Y-133435503D01*
X210197456Y-133476565D01*
X210182035Y-133514335D01*
X210168257Y-133547789D01*
X210156549Y-133575903D01*
X210147335Y-133597654D01*
X210141040Y-133612017D01*
X210138090Y-133617970D01*
X210136020Y-133619403D01*
X210125060Y-133622138D01*
X210107847Y-133623870D01*
X210087102Y-133624606D01*
X210065550Y-133624352D01*
X210045913Y-133623114D01*
X210030916Y-133620899D01*
X210023280Y-133617711D01*
X210021673Y-133614771D01*
X210016410Y-133602934D01*
X210008138Y-133583120D01*
X209997220Y-133556264D01*
X209984017Y-133523301D01*
X209968892Y-133485168D01*
X209952206Y-133442800D01*
X209934322Y-133397131D01*
X209915600Y-133349098D01*
X209896404Y-133299635D01*
X209877096Y-133249678D01*
X209858037Y-133200163D01*
X209839589Y-133152024D01*
X209822114Y-133106198D01*
X209805975Y-133063619D01*
X209791533Y-133025223D01*
X209779151Y-132991946D01*
X209769189Y-132964722D01*
X209762011Y-132944487D01*
X209757979Y-132932177D01*
X209756347Y-132925367D01*
X209757962Y-132918578D01*
X209766983Y-132914934D01*
X209766987Y-132914933D01*
X209777173Y-132913872D01*
X209794056Y-132913627D01*
X209815229Y-132914069D01*
X209838284Y-132915071D01*
X209860812Y-132916502D01*
X209880405Y-132918236D01*
X209894655Y-132920143D01*
X209901153Y-132922095D01*
X209902832Y-132925699D01*
X209907780Y-132938034D01*
X209915552Y-132958165D01*
X209925783Y-132985117D01*
X209938106Y-133017921D01*
X209952154Y-133055604D01*
X209967561Y-133097194D01*
X209983960Y-133141720D01*
X209996954Y-133177098D01*
X210012591Y-133219665D01*
X210026917Y-133258659D01*
X210039567Y-133293086D01*
X210050176Y-133321951D01*
X210058377Y-133344261D01*
X210063807Y-133359022D01*
X210066100Y-133365240D01*
X210066122Y-133365297D01*
X210067179Y-133367595D01*
X210068493Y-133368468D01*
X210070390Y-133367193D01*
X210073193Y-133363041D01*
X210077229Y-133355287D01*
X210082822Y-133343206D01*
X210090296Y-133326071D01*
X210099978Y-133303157D01*
X210112191Y-133273736D01*
X210127261Y-133237084D01*
X210145512Y-133192474D01*
X210167270Y-133139180D01*
X210179695Y-133108841D01*
X210197011Y-133066928D01*
X210213097Y-133028417D01*
X210227523Y-132994312D01*
X210239861Y-132965615D01*
X210249683Y-132943330D01*
X210256559Y-132928461D01*
X210260061Y-132922010D01*
X210262000Y-132920087D01*
X210268371Y-132916583D01*
X210278764Y-132914456D01*
X210295222Y-132913403D01*
X210319786Y-132913120D01*
X210326226Y-132913143D01*
X210352482Y-132913987D01*
X210369212Y-132916079D01*
X210376888Y-132919470D01*
X210379242Y-132924169D01*
X210385104Y-132937554D01*
X210393973Y-132958567D01*
X210405450Y-132986242D01*
X210419140Y-133019614D01*
X210434642Y-133057718D01*
X210451560Y-133099588D01*
X210469497Y-133144260D01*
X210485414Y-133183930D01*
X210502384Y-133226007D01*
X210517945Y-133264364D01*
X210531707Y-133298048D01*
X210543276Y-133326105D01*
X210552264Y-133347582D01*
X210558277Y-133361525D01*
X210560925Y-133366983D01*
X210560990Y-133367047D01*
X210562573Y-133366828D01*
X210565100Y-133363516D01*
X210568829Y-133356468D01*
X210574019Y-133345041D01*
X210580929Y-133328591D01*
X210589817Y-133306474D01*
X210600942Y-133278048D01*
X210614564Y-133242669D01*
X210630940Y-133199693D01*
X210650330Y-133148478D01*
X210672993Y-133088380D01*
X210680434Y-133068747D01*
X210694516Y-133032285D01*
X210707655Y-132999135D01*
X210719337Y-132970542D01*
X210729051Y-132947750D01*
X210736281Y-132932005D01*
X210740517Y-132924550D01*
X210740879Y-132924145D01*
X210747430Y-132918366D01*
X210755916Y-132915027D01*
X210769073Y-132913490D01*
X210789640Y-132913120D01*
X210810285Y-132913329D01*
G37*
G36*
X211596635Y-133228252D02*
G01*
X211596605Y-133277288D01*
X211596755Y-133317150D01*
X211597113Y-133348731D01*
X211597709Y-133372928D01*
X211598575Y-133390634D01*
X211599740Y-133402745D01*
X211601234Y-133410156D01*
X211603087Y-133413762D01*
X211603640Y-133414215D01*
X211611281Y-133419136D01*
X211626571Y-133428304D01*
X211648507Y-133441141D01*
X211676086Y-133457066D01*
X211708306Y-133475501D01*
X211744165Y-133495864D01*
X211782660Y-133517578D01*
X211791760Y-133522696D01*
X211829576Y-133544026D01*
X211864426Y-133563773D01*
X211895326Y-133581375D01*
X211921294Y-133596269D01*
X211941345Y-133607890D01*
X211954497Y-133615675D01*
X211959767Y-133619061D01*
X211960188Y-133619804D01*
X211960707Y-133628663D01*
X211959305Y-133645583D01*
X211956242Y-133669064D01*
X211951778Y-133697605D01*
X211946172Y-133729703D01*
X211939683Y-133763860D01*
X211932570Y-133798572D01*
X211925093Y-133832341D01*
X211917511Y-133863663D01*
X211911482Y-133886795D01*
X211899897Y-133928906D01*
X211887693Y-133970686D01*
X211875275Y-134010950D01*
X211863045Y-134048510D01*
X211851405Y-134082182D01*
X211840759Y-134110777D01*
X211831510Y-134133111D01*
X211824060Y-134147997D01*
X211818812Y-134154249D01*
X211816144Y-134154563D01*
X211804267Y-134154862D01*
X211784232Y-134154879D01*
X211757295Y-134154626D01*
X211724712Y-134154117D01*
X211687742Y-134153367D01*
X211647640Y-134152388D01*
X211630059Y-134151929D01*
X211587972Y-134150872D01*
X211547709Y-134149913D01*
X211510938Y-134149091D01*
X211479323Y-134148440D01*
X211454532Y-134147998D01*
X211438231Y-134147801D01*
X211393522Y-134147560D01*
X211385712Y-134166252D01*
X211382253Y-134174065D01*
X211371574Y-134195881D01*
X211357031Y-134223687D01*
X211339623Y-134255689D01*
X211320348Y-134290093D01*
X211300204Y-134325107D01*
X211280190Y-134358936D01*
X211261302Y-134389788D01*
X211250666Y-134407112D01*
X211236978Y-134430462D01*
X211226067Y-134450357D01*
X211218850Y-134465106D01*
X211216241Y-134473019D01*
X211216552Y-134474413D01*
X211220746Y-134483921D01*
X211229405Y-134500810D01*
X211241978Y-134524086D01*
X211257913Y-134552751D01*
X211276660Y-134585810D01*
X211297666Y-134622268D01*
X211320381Y-134661129D01*
X211328924Y-134675659D01*
X211351008Y-134713375D01*
X211371194Y-134748066D01*
X211388935Y-134778781D01*
X211403684Y-134804565D01*
X211414896Y-134824466D01*
X211422023Y-134837531D01*
X211424521Y-134842807D01*
X211424499Y-134842954D01*
X211420756Y-134848595D01*
X211411309Y-134860412D01*
X211397205Y-134877159D01*
X211379489Y-134897592D01*
X211359208Y-134920468D01*
X211347493Y-134933416D01*
X211319723Y-134963285D01*
X211289466Y-134994882D01*
X211257588Y-135027383D01*
X211224954Y-135059963D01*
X211192426Y-135091798D01*
X211160871Y-135122063D01*
X211131153Y-135149934D01*
X211104136Y-135174586D01*
X211080685Y-135195195D01*
X211061665Y-135210937D01*
X211047939Y-135220986D01*
X211040372Y-135224520D01*
X211038912Y-135224106D01*
X211029561Y-135219689D01*
X211012822Y-135210876D01*
X210989668Y-135198207D01*
X210961072Y-135182225D01*
X210928006Y-135163472D01*
X210891445Y-135142488D01*
X210852360Y-135119816D01*
X210815368Y-135098363D01*
X210773338Y-135074327D01*
X210737400Y-135054185D01*
X210708070Y-135038215D01*
X210685864Y-135026698D01*
X210671298Y-135019914D01*
X210664888Y-135018143D01*
X210660900Y-135020181D01*
X210649024Y-135027033D01*
X210631310Y-135037654D01*
X210609372Y-135051072D01*
X210584827Y-135066317D01*
X210578108Y-135070491D01*
X210544601Y-135090704D01*
X210507082Y-135112568D01*
X210469666Y-135133713D01*
X210436467Y-135151768D01*
X210405476Y-135168624D01*
X210378987Y-135184290D01*
X210361819Y-135196232D01*
X210353915Y-135204487D01*
X210353735Y-135204861D01*
X210352134Y-135210726D01*
X210350912Y-135221004D01*
X210350058Y-135236516D01*
X210349561Y-135258082D01*
X210349409Y-135286522D01*
X210349591Y-135322656D01*
X210350096Y-135367305D01*
X210350911Y-135421290D01*
X210354266Y-135625680D01*
X210325190Y-135638539D01*
X210320057Y-135640780D01*
X210278960Y-135657059D01*
X210230434Y-135673590D01*
X210173943Y-135690525D01*
X210108951Y-135708019D01*
X210034922Y-135726224D01*
X209951320Y-135745292D01*
X209948364Y-135745943D01*
X209916931Y-135752673D01*
X209887967Y-135758547D01*
X209863332Y-135763210D01*
X209844884Y-135766310D01*
X209834480Y-135767494D01*
X209816700Y-135767828D01*
X209715585Y-135585461D01*
X209705292Y-135566929D01*
X209679311Y-135520515D01*
X209657647Y-135482444D01*
X209640007Y-135452230D01*
X209626098Y-135429388D01*
X209615626Y-135413432D01*
X209608300Y-135403876D01*
X209603825Y-135400236D01*
X209603340Y-135400126D01*
X209594148Y-135399314D01*
X209576667Y-135398651D01*
X209552316Y-135398134D01*
X209522515Y-135397761D01*
X209488682Y-135397527D01*
X209452237Y-135397429D01*
X209414598Y-135397463D01*
X209377185Y-135397627D01*
X209341417Y-135397916D01*
X209308713Y-135398328D01*
X209280492Y-135398858D01*
X209258173Y-135399504D01*
X209243176Y-135400261D01*
X209236919Y-135401127D01*
X209236367Y-135401705D01*
X209231428Y-135409138D01*
X209222290Y-135424213D01*
X209209518Y-135445957D01*
X209193675Y-135473394D01*
X209175325Y-135505550D01*
X209155031Y-135541450D01*
X209133359Y-135580120D01*
X209127526Y-135590562D01*
X209106080Y-135628804D01*
X209086121Y-135664165D01*
X209068222Y-135695644D01*
X209052957Y-135722241D01*
X209040900Y-135742954D01*
X209032623Y-135756783D01*
X209028701Y-135762728D01*
X209024719Y-135765696D01*
X209018240Y-135767163D01*
X209007499Y-135766919D01*
X208990588Y-135764917D01*
X208965597Y-135761107D01*
X208949280Y-135758307D01*
X208914479Y-135751408D01*
X208874882Y-135742606D01*
X208831825Y-135732277D01*
X208786645Y-135720797D01*
X208740680Y-135708542D01*
X208695266Y-135695889D01*
X208651741Y-135683214D01*
X208611442Y-135670893D01*
X208575705Y-135659303D01*
X208545868Y-135648820D01*
X208523268Y-135639819D01*
X208509242Y-135632678D01*
X208497184Y-135624782D01*
X208499307Y-135412748D01*
X208501431Y-135200713D01*
X208465646Y-135182247D01*
X208456459Y-135177479D01*
X208390829Y-135141991D01*
X208322596Y-135102845D01*
X208256231Y-135062595D01*
X208254744Y-135061667D01*
X208226955Y-135044951D01*
X208203833Y-135032239D01*
X208186586Y-135024153D01*
X208176421Y-135021320D01*
X208167968Y-135023685D01*
X208151533Y-135031104D01*
X208128312Y-135043117D01*
X208099208Y-135059255D01*
X208065125Y-135079050D01*
X208031366Y-135098988D01*
X207992920Y-135121621D01*
X207954038Y-135144448D01*
X207917778Y-135165673D01*
X207887195Y-135183503D01*
X207806810Y-135230226D01*
X207777975Y-135206584D01*
X207771425Y-135201169D01*
X207737667Y-135172184D01*
X207699954Y-135138358D01*
X207660644Y-135101903D01*
X207622093Y-135065030D01*
X207586658Y-135029951D01*
X207556694Y-134998879D01*
X207544025Y-134985241D01*
X207516561Y-134955239D01*
X207491013Y-134926758D01*
X207468225Y-134900776D01*
X207449036Y-134878274D01*
X207434288Y-134860230D01*
X207424823Y-134847625D01*
X207421480Y-134841437D01*
X207421705Y-134840347D01*
X207425484Y-134831859D01*
X207432963Y-134817822D01*
X207442884Y-134800635D01*
X207458782Y-134773990D01*
X207494823Y-134713455D01*
X207525952Y-134660958D01*
X207552433Y-134616040D01*
X207574529Y-134578243D01*
X207592502Y-134547107D01*
X207606618Y-134522175D01*
X207617138Y-134502988D01*
X207624326Y-134489088D01*
X207628446Y-134480016D01*
X207629760Y-134475314D01*
X207629527Y-134473915D01*
X207625551Y-134464116D01*
X207617256Y-134447565D01*
X207605425Y-134425721D01*
X207590841Y-134400042D01*
X207574289Y-134371989D01*
X207555881Y-134340907D01*
X207536040Y-134306574D01*
X207517047Y-134272946D01*
X207500397Y-134242672D01*
X207487584Y-134218398D01*
X207484800Y-134212989D01*
X207472776Y-134190769D01*
X207461869Y-134172313D01*
X207453183Y-134159413D01*
X207447824Y-134153864D01*
X207446235Y-134153571D01*
X207435649Y-134152871D01*
X207416477Y-134152221D01*
X207389841Y-134151638D01*
X207356863Y-134151141D01*
X207318662Y-134150748D01*
X207276361Y-134150477D01*
X207231080Y-134150346D01*
X207022863Y-134150100D01*
X207016825Y-134137400D01*
X207013343Y-134128844D01*
X207006920Y-134110756D01*
X206998609Y-134085851D01*
X206988910Y-134055757D01*
X206978323Y-134022102D01*
X206967351Y-133986513D01*
X206956493Y-133950619D01*
X206946251Y-133916046D01*
X206937126Y-133884424D01*
X206929618Y-133857378D01*
X206924230Y-133836538D01*
X206913528Y-133791153D01*
X206903858Y-133747582D01*
X206895984Y-133709202D01*
X206890074Y-133676936D01*
X206886297Y-133651710D01*
X206884822Y-133634447D01*
X206885816Y-133626071D01*
X206886679Y-133625207D01*
X206894810Y-133619530D01*
X206910508Y-133609659D01*
X206932801Y-133596171D01*
X206960718Y-133579645D01*
X206993285Y-133560657D01*
X207029531Y-133539785D01*
X207068484Y-133517605D01*
X207246220Y-133416957D01*
X207247448Y-133229808D01*
X207247456Y-133228578D01*
X207247509Y-133215667D01*
X207662243Y-133215667D01*
X207663709Y-133293442D01*
X207667773Y-133370315D01*
X207674371Y-133443453D01*
X207683436Y-133510020D01*
X207690840Y-133551825D01*
X207720374Y-133681186D01*
X207759083Y-133806799D01*
X207806622Y-133928274D01*
X207862647Y-134045226D01*
X207926813Y-134157265D01*
X207998774Y-134264005D01*
X208078186Y-134365058D01*
X208164704Y-134460037D01*
X208257982Y-134548553D01*
X208357675Y-134630219D01*
X208463440Y-134704647D01*
X208574929Y-134771450D01*
X208691799Y-134830240D01*
X208813705Y-134880629D01*
X208940302Y-134922230D01*
X208966947Y-134929612D01*
X209052767Y-134949947D01*
X209141155Y-134966100D01*
X209228512Y-134977479D01*
X209311240Y-134983489D01*
X209335846Y-134984477D01*
X209363510Y-134985620D01*
X209387757Y-134986656D01*
X209405220Y-134987443D01*
X209411330Y-134987634D01*
X209430974Y-134987704D01*
X209456903Y-134987331D01*
X209486458Y-134986560D01*
X209516980Y-134985441D01*
X209522841Y-134985183D01*
X209654712Y-134974228D01*
X209783644Y-134953568D01*
X209909498Y-134923249D01*
X210032139Y-134883314D01*
X210151429Y-134833808D01*
X210267234Y-134774774D01*
X210379417Y-134706257D01*
X210417672Y-134680238D01*
X210527990Y-134597600D01*
X210630301Y-134509087D01*
X210724453Y-134414934D01*
X210810291Y-134315379D01*
X210887663Y-134210659D01*
X210956417Y-134101012D01*
X211016398Y-133986674D01*
X211067456Y-133867882D01*
X211109435Y-133744875D01*
X211142184Y-133617888D01*
X211165550Y-133487160D01*
X211179158Y-133363847D01*
X211185237Y-133227557D01*
X211181549Y-133093981D01*
X211168112Y-132963182D01*
X211144943Y-132835225D01*
X211112059Y-132710176D01*
X211069478Y-132588098D01*
X211017217Y-132469057D01*
X210955293Y-132353117D01*
X210883724Y-132240343D01*
X210802527Y-132130800D01*
X210790454Y-132116043D01*
X210761702Y-132082903D01*
X210727967Y-132046045D01*
X210690887Y-132007117D01*
X210652101Y-131967768D01*
X210613248Y-131929646D01*
X210575964Y-131894399D01*
X210541889Y-131863677D01*
X210512660Y-131839127D01*
X210474735Y-131809684D01*
X210368893Y-131735374D01*
X210259952Y-131670305D01*
X210147479Y-131614316D01*
X210031040Y-131567243D01*
X209910204Y-131528925D01*
X209784537Y-131499197D01*
X209653607Y-131477899D01*
X209516980Y-131464866D01*
X209489980Y-131463356D01*
X209360644Y-131462210D01*
X209231644Y-131470986D01*
X209103624Y-131489493D01*
X208977231Y-131517544D01*
X208853110Y-131554949D01*
X208731908Y-131601518D01*
X208614271Y-131657063D01*
X208500843Y-131721394D01*
X208392272Y-131794323D01*
X208287021Y-131876942D01*
X208187768Y-131967326D01*
X208096378Y-132063926D01*
X208013049Y-132166401D01*
X207937981Y-132274414D01*
X207871373Y-132387625D01*
X207813424Y-132505696D01*
X207764333Y-132628287D01*
X207724298Y-132755061D01*
X207693520Y-132885678D01*
X207672197Y-133019800D01*
X207667364Y-133068757D01*
X207663439Y-133139827D01*
X207662243Y-133215667D01*
X207247509Y-133215667D01*
X207247630Y-133185884D01*
X207247599Y-133146344D01*
X207247379Y-133111126D01*
X207246984Y-133081398D01*
X207246431Y-133058326D01*
X207245733Y-133043080D01*
X207244908Y-133036825D01*
X207244463Y-133036376D01*
X207237391Y-133031575D01*
X207222663Y-133022520D01*
X207201257Y-133009783D01*
X207174151Y-132993937D01*
X207142324Y-132975555D01*
X207106754Y-132955210D01*
X207068420Y-132933475D01*
X207059785Y-132928596D01*
X207021770Y-132907030D01*
X206986587Y-132886931D01*
X206955241Y-132868884D01*
X206928737Y-132853472D01*
X206908079Y-132841279D01*
X206894273Y-132832887D01*
X206888324Y-132828882D01*
X206886323Y-132825954D01*
X206884292Y-132816518D01*
X206884525Y-132801310D01*
X206887132Y-132779668D01*
X206892220Y-132750934D01*
X206899899Y-132714446D01*
X206910278Y-132669547D01*
X206923464Y-132615575D01*
X206928802Y-132594321D01*
X206945591Y-132529864D01*
X206961549Y-132472259D01*
X206976525Y-132421952D01*
X206990368Y-132379392D01*
X207002927Y-132345025D01*
X207014051Y-132319299D01*
X207023590Y-132302661D01*
X207031393Y-132295559D01*
X207032406Y-132295360D01*
X207042248Y-132294753D01*
X207060779Y-132294358D01*
X207086839Y-132294175D01*
X207119271Y-132294205D01*
X207156916Y-132294446D01*
X207198616Y-132294900D01*
X207243212Y-132295566D01*
X207256273Y-132295778D01*
X207299844Y-132296356D01*
X207339987Y-132296692D01*
X207375580Y-132296792D01*
X207405502Y-132296658D01*
X207428632Y-132296295D01*
X207443847Y-132295705D01*
X207450026Y-132294893D01*
X207450266Y-132294693D01*
X207455142Y-132288102D01*
X207464059Y-132274011D01*
X207476312Y-132253672D01*
X207491198Y-132228335D01*
X207508011Y-132199254D01*
X207526046Y-132167680D01*
X207544598Y-132134866D01*
X207562964Y-132102063D01*
X207580437Y-132070523D01*
X207596314Y-132041498D01*
X207609890Y-132016241D01*
X207620459Y-131996003D01*
X207627318Y-131982037D01*
X207629760Y-131975593D01*
X207629557Y-131974595D01*
X207625704Y-131965781D01*
X207617386Y-131949508D01*
X207605155Y-131926778D01*
X207589565Y-131898592D01*
X207571167Y-131865953D01*
X207550515Y-131829863D01*
X207528160Y-131791324D01*
X207521693Y-131780228D01*
X207499768Y-131742299D01*
X207479700Y-131707117D01*
X207462043Y-131675680D01*
X207447348Y-131648989D01*
X207436167Y-131628043D01*
X207429054Y-131613844D01*
X207426560Y-131607389D01*
X207426737Y-131606083D01*
X207431776Y-131596128D01*
X207443155Y-131580238D01*
X207460058Y-131559309D01*
X207481665Y-131534236D01*
X207507162Y-131505914D01*
X207535728Y-131475240D01*
X207566549Y-131443108D01*
X207598805Y-131410413D01*
X207631679Y-131378052D01*
X207664355Y-131346919D01*
X207678154Y-131334044D01*
X207713169Y-131301788D01*
X207741910Y-131276069D01*
X207765021Y-131256374D01*
X207783145Y-131242191D01*
X207796924Y-131233006D01*
X207807002Y-131228307D01*
X207814021Y-131227581D01*
X207815078Y-131227918D01*
X207824126Y-131232265D01*
X207840611Y-131241085D01*
X207863525Y-131253808D01*
X207891858Y-131269862D01*
X207924600Y-131288678D01*
X207960743Y-131309684D01*
X207999277Y-131332310D01*
X208011222Y-131339353D01*
X208048712Y-131361374D01*
X208083221Y-131381522D01*
X208113789Y-131399244D01*
X208139457Y-131413989D01*
X208159266Y-131425205D01*
X208172257Y-131432339D01*
X208177470Y-131434840D01*
X208179985Y-131433788D01*
X208190223Y-131428207D01*
X208207039Y-131418473D01*
X208229177Y-131405327D01*
X208255383Y-131389508D01*
X208284401Y-131371758D01*
X208295759Y-131364796D01*
X208328675Y-131344917D01*
X208361323Y-131325587D01*
X208391620Y-131308020D01*
X208417481Y-131293428D01*
X208436822Y-131283026D01*
X208453568Y-131274178D01*
X208472259Y-131263653D01*
X208486179Y-131255053D01*
X208493159Y-131249662D01*
X208493310Y-131249464D01*
X208494960Y-131244666D01*
X208496339Y-131234866D01*
X208497471Y-131219329D01*
X208498381Y-131197317D01*
X208499092Y-131168094D01*
X208499628Y-131130922D01*
X208500013Y-131085064D01*
X208500270Y-131029784D01*
X208500980Y-130817620D01*
X208609907Y-130781214D01*
X208628480Y-130775104D01*
X208674454Y-130760707D01*
X208722172Y-130746667D01*
X208770366Y-130733291D01*
X208817767Y-130720883D01*
X208863106Y-130709748D01*
X208905115Y-130700193D01*
X208942525Y-130692522D01*
X208974067Y-130687040D01*
X208998473Y-130684053D01*
X209014473Y-130683867D01*
X209014668Y-130683890D01*
X209018611Y-130684939D01*
X209022879Y-130687624D01*
X209027989Y-130692747D01*
X209034459Y-130701110D01*
X209042806Y-130713516D01*
X209053546Y-130730766D01*
X209067198Y-130753664D01*
X209084279Y-130783010D01*
X209105306Y-130819608D01*
X209130795Y-130864259D01*
X209139320Y-130879210D01*
X209161009Y-130917176D01*
X209180966Y-130952009D01*
X209198644Y-130982759D01*
X209213494Y-131008476D01*
X209224969Y-131028211D01*
X209232520Y-131041012D01*
X209235599Y-131045931D01*
X209240975Y-131046613D01*
X209255392Y-131047292D01*
X209277684Y-131047929D01*
X209306696Y-131048503D01*
X209341274Y-131048991D01*
X209380263Y-131049370D01*
X209422509Y-131049617D01*
X209443052Y-131049690D01*
X209488807Y-131049763D01*
X209525701Y-131049646D01*
X209554668Y-131049308D01*
X209576641Y-131048717D01*
X209592552Y-131047843D01*
X209603335Y-131046654D01*
X209609922Y-131045118D01*
X209613248Y-131043204D01*
X209613787Y-131042522D01*
X209618854Y-131034558D01*
X209628142Y-131018969D01*
X209641078Y-130996754D01*
X209657085Y-130968915D01*
X209675588Y-130936450D01*
X209696009Y-130900362D01*
X209717774Y-130861649D01*
X209723609Y-130851257D01*
X209745065Y-130813366D01*
X209765066Y-130778538D01*
X209783036Y-130747745D01*
X209798398Y-130721957D01*
X209810574Y-130702147D01*
X209818988Y-130689286D01*
X209823063Y-130684344D01*
X209823101Y-130684330D01*
X209831897Y-130683935D01*
X209849052Y-130685611D01*
X209873052Y-130689086D01*
X209902383Y-130694086D01*
X209935533Y-130700340D01*
X209970988Y-130707575D01*
X210007235Y-130715518D01*
X210042760Y-130723898D01*
X210061342Y-130728541D01*
X210106070Y-130740339D01*
X210150333Y-130752820D01*
X210192957Y-130765592D01*
X210232769Y-130778261D01*
X210268595Y-130790433D01*
X210299259Y-130801716D01*
X210323589Y-130811716D01*
X210340410Y-130820041D01*
X210348547Y-130826296D01*
X210348919Y-130827654D01*
X210349706Y-130837729D01*
X210350268Y-130856445D01*
X210350599Y-130882716D01*
X210350694Y-130915453D01*
X210350548Y-130953569D01*
X210350158Y-130995977D01*
X210349516Y-131041588D01*
X210346095Y-131250317D01*
X210414138Y-131285992D01*
X210430558Y-131294709D01*
X210473132Y-131318132D01*
X210517285Y-131343431D01*
X210560338Y-131369027D01*
X210599613Y-131393338D01*
X210632430Y-131414784D01*
X210632734Y-131414990D01*
X210648553Y-131424997D01*
X210661817Y-131432124D01*
X210669683Y-131434839D01*
X210673839Y-131433676D01*
X210685762Y-131428164D01*
X210702566Y-131419153D01*
X210722032Y-131407790D01*
X210725057Y-131405961D01*
X210742825Y-131395310D01*
X210767421Y-131380664D01*
X210797280Y-131362950D01*
X210830836Y-131343095D01*
X210866525Y-131322028D01*
X210902781Y-131300677D01*
X210906730Y-131298354D01*
X210944164Y-131276390D01*
X210973938Y-131259091D01*
X210997029Y-131245974D01*
X211014418Y-131236558D01*
X211027084Y-131230360D01*
X211036006Y-131226896D01*
X211042163Y-131225686D01*
X211046535Y-131226246D01*
X211050101Y-131228093D01*
X211056252Y-131232609D01*
X211071417Y-131245030D01*
X211091735Y-131262625D01*
X211115902Y-131284189D01*
X211142610Y-131308518D01*
X211170552Y-131334406D01*
X211198423Y-131360650D01*
X211224915Y-131386044D01*
X211248722Y-131409385D01*
X211268538Y-131429468D01*
X211294757Y-131457124D01*
X211322670Y-131487499D01*
X211348637Y-131516691D01*
X211371803Y-131543680D01*
X211391316Y-131567449D01*
X211406319Y-131586978D01*
X211415960Y-131601250D01*
X211419382Y-131609246D01*
X211417884Y-131613063D01*
X211411860Y-131624942D01*
X211401796Y-131643658D01*
X211388310Y-131668127D01*
X211372020Y-131697267D01*
X211353543Y-131729991D01*
X211333497Y-131765216D01*
X211312498Y-131801857D01*
X211291166Y-131838831D01*
X211270117Y-131875053D01*
X211249968Y-131909438D01*
X211231339Y-131940903D01*
X211214845Y-131968363D01*
X211214379Y-131971492D01*
X211216749Y-131979923D01*
X211223063Y-131993707D01*
X211233728Y-132013630D01*
X211249147Y-132040480D01*
X211269727Y-132075043D01*
X211272658Y-132079920D01*
X211292673Y-132113640D01*
X211313042Y-132148597D01*
X211332346Y-132182318D01*
X211349168Y-132212328D01*
X211362090Y-132236155D01*
X211394875Y-132298331D01*
X211611231Y-132299655D01*
X211827588Y-132300980D01*
X211849963Y-132364480D01*
X211863612Y-132404673D01*
X211879123Y-132453654D01*
X211894278Y-132504737D01*
X211908708Y-132556459D01*
X211922043Y-132607357D01*
X211933914Y-132655966D01*
X211943953Y-132700824D01*
X211951790Y-132740466D01*
X211957055Y-132773430D01*
X211959380Y-132798251D01*
X211960460Y-132828163D01*
X211927440Y-132848544D01*
X211921987Y-132851845D01*
X211905392Y-132861622D01*
X211882005Y-132875189D01*
X211853190Y-132891761D01*
X211820312Y-132910557D01*
X211784735Y-132930792D01*
X211747821Y-132951684D01*
X211723801Y-132965257D01*
X211690511Y-132984110D01*
X211660827Y-133000972D01*
X211635799Y-133015243D01*
X211616475Y-133026325D01*
X211603906Y-133033619D01*
X211599140Y-133036527D01*
X211598658Y-133041788D01*
X211598188Y-133056081D01*
X211597752Y-133078255D01*
X211597364Y-133107164D01*
X211597040Y-133141660D01*
X211596796Y-133180597D01*
X211596646Y-133222829D01*
X211596636Y-133227557D01*
X211596635Y-133228252D01*
G37*
%TD*%
M02*
