M48
; DRILL file {KiCad 9.0.5-9.0.5~ubuntu24.04.1} date 2025-10-24T21:18:09-0700
; FORMAT={-:-/ absolute / inch / decimal}
; #@! TF.CreationDate,2025-10-24T21:18:09-07:00
; #@! TF.GenerationSoftware,Kicad,Pcbnew,9.0.5-9.0.5~ubuntu24.04.1
; #@! TF.FileFunction,MixedPlating,1,2
FMAT,2
INCH
; #@! TA.AperFunction,Plated,PTH,ViaDrill
T1C0.0160
; #@! TA.AperFunction,Plated,PTH,ComponentDrill
T2C0.0236
; #@! TA.AperFunction,Plated,PTH,ComponentDrill
T3C0.0315
; #@! TA.AperFunction,Plated,PTH,ComponentDrill
T4C0.0354
; #@! TA.AperFunction,Plated,PTH,ComponentDrill
T5C0.0390
; #@! TA.AperFunction,Plated,PTH,ComponentDrill
T6C0.0394
; #@! TA.AperFunction,Plated,PTH,ComponentDrill
T7C0.0433
; #@! TA.AperFunction,Plated,PTH,ComponentDrill
T8C0.0510
; #@! TA.AperFunction,NonPlated,NPTH,ComponentDrill
T9C0.0394
; #@! TA.AperFunction,NonPlated,NPTH,ComponentDrill
T10C0.0454
; #@! TA.AperFunction,NonPlated,NPTH,ComponentDrill
T11C0.0591
; #@! TA.AperFunction,NonPlated,NPTH,ComponentDrill
T12C0.0750
; #@! TA.AperFunction,NonPlated,NPTH,ComponentDrill
T13C0.1063
%
G90
G05
T1
X10.078Y-4.964
X10.094Y-5.921
X10.11Y-5.031
X10.157Y-5.48
X10.229Y-6.046
X10.258Y-5.842
X10.3096Y-4.9706
X10.31Y-5.165
X10.441Y-5.402
X10.441Y-5.572
X10.442Y-5.492
X10.481Y-6.048
X10.633Y-5.505
X10.633Y-5.908
X10.634Y-5.584
X10.634Y-5.664
X10.635Y-5.743
X10.94Y-5.8
X10.976Y-4.856
X11.159Y-4.148
X11.194Y-4.696
X11.23Y-3.71
X11.23Y-3.75
X11.23Y-3.79
X11.38Y-4.105
X11.4805Y-3.9691
X11.614Y-4.15
X11.84Y-5.85
X11.86Y-5.185
X11.93Y-5.78
X11.93Y-5.93
X12.02Y-5.85
X12.036Y-3.288
X12.036Y-3.734
X13.0086Y-3.3366
X13.009Y-3.455
X13.09Y-3.66
X13.338Y-3.535
X13.339Y-3.456
X13.354Y-3.322
X13.3571Y-3.271
T3
X10.86Y-3.2749
X10.86Y-3.4127
X10.86Y-3.6249
X10.86Y-3.7627
X10.86Y-3.9749
X10.86Y-4.1127
X12.02Y-3.9349
X12.02Y-4.0727
X12.2Y-4.2449
X12.2Y-4.3827
X12.38Y-3.9349
X12.38Y-4.0727
T4
X9.39Y-4.2363
X9.39Y-4.315
X9.4687Y-4.2363
X9.4687Y-4.315
X9.5475Y-4.2363
X9.5475Y-4.315
X9.6262Y-4.2363
X9.6262Y-4.315
X9.705Y-4.2363
X9.705Y-4.315
X10.7571Y-6.0695
X10.8571Y-6.0695
X10.9933Y-6.0695
X11.0933Y-6.0695
T5
X9.2314Y-6.153
X9.4086Y-6.153
X9.7314Y-6.153
X9.9086Y-6.153
T6
X13.4831Y-3.602
X13.4831Y-3.702
X13.4831Y-3.802
X13.4831Y-3.902
X13.4831Y-4.002
X13.4831Y-4.102
X13.4831Y-4.202
X13.4831Y-4.302
X13.4831Y-4.402
X13.4831Y-4.502
X13.4831Y-4.602
X13.4831Y-4.702
X13.4831Y-4.802
X13.4831Y-4.902
X13.4831Y-5.002
X13.4831Y-5.102
X13.4831Y-5.202
X13.4831Y-5.302
T7
X10.3268Y-3.5166
X10.3278Y-3.7134
X10.6034Y-3.5166
X10.6034Y-3.7134
X11.441Y-5.8662
X11.441Y-6.1428
X11.6379Y-5.8662
X11.6379Y-6.1418
T8
X9.1822Y-6.0546
X9.4578Y-6.0546
X9.6822Y-6.0546
X9.9578Y-6.0546
T9
X13.174Y-3.3379
X13.174Y-3.5741
T10
X8.9764Y-3.7992
X9.09Y-6.141
X12.405Y-3.24
X12.505Y-6.145
X12.9588Y-3.22
X12.97Y-5.33
X13.3637Y-5.33
X13.51Y-3.22
T11
X8.975Y-3.9
X8.9781Y-6.1419
X12.4084Y-3.3223
X12.677Y-6.1408
T13
X9.0157Y-3.3071
X9.0157Y-5.5906
X12.6378Y-3.3071
X12.6378Y-5.5906
T2
G00X10.1843Y-6.0356
M15
G01X10.1843Y-6.0041
M16
G05
G00X10.1843Y-6.2009
M15
G01X10.1843Y-6.1537
M16
G05
G00X10.5244Y-6.0356
M15
G01X10.5244Y-6.0041
M16
G05
G00X10.5244Y-6.2009
M15
G01X10.5244Y-6.1537
M16
G05
T12
G00X8.9781Y-4.3175
M15
G01X8.9781Y-4.1925
M16
G05
G00X8.9781Y-5.2881
M15
G01X8.9781Y-5.1631
M16
G05
G00X8.98Y-6.0173
M15
G01X8.98Y-5.8923
M16
G05
M30
