M48
; DRILL file {KiCad 9.0.4-9.0.4-0~ubuntu24.04.1} date 2025-09-19T23:05:13-0700
; FORMAT={-:-/ absolute / metric / decimal}
; #@! TF.CreationDate,2025-09-19T23:05:13-07:00
; #@! TF.GenerationSoftware,Kicad,Pcbnew,9.0.4-9.0.4-0~ubuntu24.04.1
; #@! TF.FileFunction,MixedPlating,1,2
FMAT,2
METRIC
; #@! TA.AperFunction,Plated,PTH,ViaDrill
T1C0.635
; #@! TA.AperFunction,Plated,PTH,ComponentDrill
T2C1.397
; #@! TA.AperFunction,Plated,PTH,ComponentDrill
T3C1.600
; #@! TA.AperFunction,NonPlated,NPTH,ComponentDrill
T4C3.000
%
G90
G05
T1
X232.918Y-121.539
X233.426Y-118.745
X235.712Y-120.523
X236.22Y-117.856
X238.633Y-119.888
T2
X166.777Y-123.055
X166.777Y-128.055
X174.977Y-123.055
X174.977Y-128.055
X182.789Y-133.143
X182.789Y-141.343
X187.789Y-133.143
X187.789Y-141.343
X192.789Y-133.143
X192.789Y-141.343
X197.789Y-133.143
X197.789Y-141.343
X202.789Y-133.143
X202.789Y-141.343
X207.789Y-133.143
X207.789Y-141.343
X212.789Y-133.143
X212.789Y-141.343
X217.789Y-133.143
X217.789Y-141.343
X222.789Y-133.143
X222.789Y-141.343
X227.789Y-133.143
X227.789Y-141.343
X236.677Y-124.155
X236.677Y-129.155
X244.877Y-124.155
X244.877Y-129.155
T3
X183.927Y-110.768
X183.927Y-120.668
X187.327Y-110.768
X187.327Y-120.668
X193.927Y-110.768
X193.927Y-120.668
X197.327Y-110.768
X197.327Y-120.668
X203.927Y-110.768
X203.927Y-120.668
X207.327Y-110.768
X207.327Y-120.668
X213.927Y-110.768
X213.927Y-120.668
X217.327Y-110.768
X217.327Y-120.668
X223.927Y-110.768
X223.927Y-120.668
X227.327Y-110.768
X227.327Y-120.668
T4
X177.852Y-110.893
X177.852Y-141.318
X233.802Y-110.893
X233.802Y-141.318
M30
