%TF.GenerationSoftware,KiCad,Pcbnew,9.0.4-9.0.4-0~ubuntu24.04.1*%
%TF.CreationDate,2025-10-06T22:04:19-07:00*%
%TF.ProjectId,mini-pdb,6d696e69-2d70-4646-922e-6b696361645f,2*%
%TF.SameCoordinates,Original*%
%TF.FileFunction,Legend,Top*%
%TF.FilePolarity,Positive*%
%FSLAX46Y46*%
G04 Gerber Fmt 4.6, Leading zero omitted, Abs format (unit mm)*
G04 Created by KiCad (PCBNEW 9.0.4-9.0.4-0~ubuntu24.04.1) date 2025-10-06 22:04:19*
%MOMM*%
%LPD*%
G01*
G04 APERTURE LIST*
%ADD10C,0.508000*%
%ADD11C,0.150000*%
%ADD12C,0.127000*%
%ADD13C,0.120000*%
%ADD14C,0.152400*%
%ADD15C,0.100000*%
G04 APERTURE END LIST*
D10*
X236552619Y-134692982D02*
X234617381Y-134692982D01*
X235585000Y-133725363D02*
X235585000Y-135660601D01*
X175181380Y-117402017D02*
X177116619Y-117402017D01*
X176148999Y-118369636D02*
X176148999Y-116434398D01*
X178386619Y-135835982D02*
X176451381Y-135835982D01*
X177419000Y-134868363D02*
X177419000Y-136803601D01*
X175181380Y-133658017D02*
X177116619Y-133658017D01*
X236552619Y-118436982D02*
X234617381Y-118436982D01*
X234393619Y-136597982D02*
X232458381Y-136597982D01*
D11*
X229943129Y-110976033D02*
X229943129Y-111309366D01*
X230466939Y-111309366D02*
X229466939Y-111309366D01*
X229466939Y-111309366D02*
X229466939Y-110833176D01*
X229466939Y-109976033D02*
X229466939Y-110452223D01*
X229466939Y-110452223D02*
X229943129Y-110499842D01*
X229943129Y-110499842D02*
X229895510Y-110452223D01*
X229895510Y-110452223D02*
X229847891Y-110356985D01*
X229847891Y-110356985D02*
X229847891Y-110118890D01*
X229847891Y-110118890D02*
X229895510Y-110023652D01*
X229895510Y-110023652D02*
X229943129Y-109976033D01*
X229943129Y-109976033D02*
X230038367Y-109928414D01*
X230038367Y-109928414D02*
X230276462Y-109928414D01*
X230276462Y-109928414D02*
X230371700Y-109976033D01*
X230371700Y-109976033D02*
X230419320Y-110023652D01*
X230419320Y-110023652D02*
X230466939Y-110118890D01*
X230466939Y-110118890D02*
X230466939Y-110356985D01*
X230466939Y-110356985D02*
X230419320Y-110452223D01*
X230419320Y-110452223D02*
X230371700Y-110499842D01*
X209943169Y-110976033D02*
X209943169Y-111309366D01*
X210466979Y-111309366D02*
X209466979Y-111309366D01*
X209466979Y-111309366D02*
X209466979Y-110833176D01*
X209466979Y-110547461D02*
X209466979Y-109928414D01*
X209466979Y-109928414D02*
X209847931Y-110261747D01*
X209847931Y-110261747D02*
X209847931Y-110118890D01*
X209847931Y-110118890D02*
X209895550Y-110023652D01*
X209895550Y-110023652D02*
X209943169Y-109976033D01*
X209943169Y-109976033D02*
X210038407Y-109928414D01*
X210038407Y-109928414D02*
X210276502Y-109928414D01*
X210276502Y-109928414D02*
X210371740Y-109976033D01*
X210371740Y-109976033D02*
X210419360Y-110023652D01*
X210419360Y-110023652D02*
X210466979Y-110118890D01*
X210466979Y-110118890D02*
X210466979Y-110404604D01*
X210466979Y-110404604D02*
X210419360Y-110499842D01*
X210419360Y-110499842D02*
X210371740Y-110547461D01*
X219943149Y-110976033D02*
X219943149Y-111309366D01*
X220466959Y-111309366D02*
X219466959Y-111309366D01*
X219466959Y-111309366D02*
X219466959Y-110833176D01*
X219800292Y-110023652D02*
X220466959Y-110023652D01*
X219419340Y-110261747D02*
X220133625Y-110499842D01*
X220133625Y-110499842D02*
X220133625Y-109880795D01*
X193390105Y-126610019D02*
X193390105Y-125610019D01*
X193390105Y-125610019D02*
X193628200Y-125610019D01*
X193628200Y-125610019D02*
X193771057Y-125657638D01*
X193771057Y-125657638D02*
X193866295Y-125752876D01*
X193866295Y-125752876D02*
X193913914Y-125848114D01*
X193913914Y-125848114D02*
X193961533Y-126038590D01*
X193961533Y-126038590D02*
X193961533Y-126181447D01*
X193961533Y-126181447D02*
X193913914Y-126371923D01*
X193913914Y-126371923D02*
X193866295Y-126467161D01*
X193866295Y-126467161D02*
X193771057Y-126562400D01*
X193771057Y-126562400D02*
X193628200Y-126610019D01*
X193628200Y-126610019D02*
X193390105Y-126610019D01*
X194342486Y-125705257D02*
X194390105Y-125657638D01*
X194390105Y-125657638D02*
X194485343Y-125610019D01*
X194485343Y-125610019D02*
X194723438Y-125610019D01*
X194723438Y-125610019D02*
X194818676Y-125657638D01*
X194818676Y-125657638D02*
X194866295Y-125705257D01*
X194866295Y-125705257D02*
X194913914Y-125800495D01*
X194913914Y-125800495D02*
X194913914Y-125895733D01*
X194913914Y-125895733D02*
X194866295Y-126038590D01*
X194866295Y-126038590D02*
X194294867Y-126610019D01*
X194294867Y-126610019D02*
X194913914Y-126610019D01*
X231133939Y-117608366D02*
X230657748Y-117941699D01*
X231133939Y-118179794D02*
X230133939Y-118179794D01*
X230133939Y-118179794D02*
X230133939Y-117798842D01*
X230133939Y-117798842D02*
X230181558Y-117703604D01*
X230181558Y-117703604D02*
X230229177Y-117655985D01*
X230229177Y-117655985D02*
X230324415Y-117608366D01*
X230324415Y-117608366D02*
X230467272Y-117608366D01*
X230467272Y-117608366D02*
X230562510Y-117655985D01*
X230562510Y-117655985D02*
X230610129Y-117703604D01*
X230610129Y-117703604D02*
X230657748Y-117798842D01*
X230657748Y-117798842D02*
X230657748Y-118179794D01*
X230133939Y-116703604D02*
X230133939Y-117179794D01*
X230133939Y-117179794D02*
X230610129Y-117227413D01*
X230610129Y-117227413D02*
X230562510Y-117179794D01*
X230562510Y-117179794D02*
X230514891Y-117084556D01*
X230514891Y-117084556D02*
X230514891Y-116846461D01*
X230514891Y-116846461D02*
X230562510Y-116751223D01*
X230562510Y-116751223D02*
X230610129Y-116703604D01*
X230610129Y-116703604D02*
X230705367Y-116655985D01*
X230705367Y-116655985D02*
X230943462Y-116655985D01*
X230943462Y-116655985D02*
X231038700Y-116703604D01*
X231038700Y-116703604D02*
X231086320Y-116751223D01*
X231086320Y-116751223D02*
X231133939Y-116846461D01*
X231133939Y-116846461D02*
X231133939Y-117084556D01*
X231133939Y-117084556D02*
X231086320Y-117179794D01*
X231086320Y-117179794D02*
X231038700Y-117227413D01*
X232195020Y-125043534D02*
X232909305Y-125043534D01*
X232909305Y-125043534D02*
X233052162Y-125091153D01*
X233052162Y-125091153D02*
X233147401Y-125186391D01*
X233147401Y-125186391D02*
X233195020Y-125329248D01*
X233195020Y-125329248D02*
X233195020Y-125424486D01*
X232290258Y-124614962D02*
X232242639Y-124567343D01*
X232242639Y-124567343D02*
X232195020Y-124472105D01*
X232195020Y-124472105D02*
X232195020Y-124234010D01*
X232195020Y-124234010D02*
X232242639Y-124138772D01*
X232242639Y-124138772D02*
X232290258Y-124091153D01*
X232290258Y-124091153D02*
X232385496Y-124043534D01*
X232385496Y-124043534D02*
X232480734Y-124043534D01*
X232480734Y-124043534D02*
X232623591Y-124091153D01*
X232623591Y-124091153D02*
X233195020Y-124662581D01*
X233195020Y-124662581D02*
X233195020Y-124043534D01*
X191134019Y-117608366D02*
X190657828Y-117941699D01*
X191134019Y-118179794D02*
X190134019Y-118179794D01*
X190134019Y-118179794D02*
X190134019Y-117798842D01*
X190134019Y-117798842D02*
X190181638Y-117703604D01*
X190181638Y-117703604D02*
X190229257Y-117655985D01*
X190229257Y-117655985D02*
X190324495Y-117608366D01*
X190324495Y-117608366D02*
X190467352Y-117608366D01*
X190467352Y-117608366D02*
X190562590Y-117655985D01*
X190562590Y-117655985D02*
X190610209Y-117703604D01*
X190610209Y-117703604D02*
X190657828Y-117798842D01*
X190657828Y-117798842D02*
X190657828Y-118179794D01*
X191134019Y-116655985D02*
X191134019Y-117227413D01*
X191134019Y-116941699D02*
X190134019Y-116941699D01*
X190134019Y-116941699D02*
X190276876Y-117036937D01*
X190276876Y-117036937D02*
X190372114Y-117132175D01*
X190372114Y-117132175D02*
X190419733Y-117227413D01*
X203296105Y-126610019D02*
X203296105Y-125610019D01*
X203296105Y-125610019D02*
X203534200Y-125610019D01*
X203534200Y-125610019D02*
X203677057Y-125657638D01*
X203677057Y-125657638D02*
X203772295Y-125752876D01*
X203772295Y-125752876D02*
X203819914Y-125848114D01*
X203819914Y-125848114D02*
X203867533Y-126038590D01*
X203867533Y-126038590D02*
X203867533Y-126181447D01*
X203867533Y-126181447D02*
X203819914Y-126371923D01*
X203819914Y-126371923D02*
X203772295Y-126467161D01*
X203772295Y-126467161D02*
X203677057Y-126562400D01*
X203677057Y-126562400D02*
X203534200Y-126610019D01*
X203534200Y-126610019D02*
X203296105Y-126610019D01*
X204200867Y-125610019D02*
X204819914Y-125610019D01*
X204819914Y-125610019D02*
X204486581Y-125990971D01*
X204486581Y-125990971D02*
X204629438Y-125990971D01*
X204629438Y-125990971D02*
X204724676Y-126038590D01*
X204724676Y-126038590D02*
X204772295Y-126086209D01*
X204772295Y-126086209D02*
X204819914Y-126181447D01*
X204819914Y-126181447D02*
X204819914Y-126419542D01*
X204819914Y-126419542D02*
X204772295Y-126514780D01*
X204772295Y-126514780D02*
X204724676Y-126562400D01*
X204724676Y-126562400D02*
X204629438Y-126610019D01*
X204629438Y-126610019D02*
X204343724Y-126610019D01*
X204343724Y-126610019D02*
X204248486Y-126562400D01*
X204248486Y-126562400D02*
X204200867Y-126514780D01*
X181964105Y-128470819D02*
X181964105Y-127470819D01*
X181964105Y-127470819D02*
X182202200Y-127470819D01*
X182202200Y-127470819D02*
X182345057Y-127518438D01*
X182345057Y-127518438D02*
X182440295Y-127613676D01*
X182440295Y-127613676D02*
X182487914Y-127708914D01*
X182487914Y-127708914D02*
X182535533Y-127899390D01*
X182535533Y-127899390D02*
X182535533Y-128042247D01*
X182535533Y-128042247D02*
X182487914Y-128232723D01*
X182487914Y-128232723D02*
X182440295Y-128327961D01*
X182440295Y-128327961D02*
X182345057Y-128423200D01*
X182345057Y-128423200D02*
X182202200Y-128470819D01*
X182202200Y-128470819D02*
X181964105Y-128470819D01*
X183392676Y-127470819D02*
X183202200Y-127470819D01*
X183202200Y-127470819D02*
X183106962Y-127518438D01*
X183106962Y-127518438D02*
X183059343Y-127566057D01*
X183059343Y-127566057D02*
X182964105Y-127708914D01*
X182964105Y-127708914D02*
X182916486Y-127899390D01*
X182916486Y-127899390D02*
X182916486Y-128280342D01*
X182916486Y-128280342D02*
X182964105Y-128375580D01*
X182964105Y-128375580D02*
X183011724Y-128423200D01*
X183011724Y-128423200D02*
X183106962Y-128470819D01*
X183106962Y-128470819D02*
X183297438Y-128470819D01*
X183297438Y-128470819D02*
X183392676Y-128423200D01*
X183392676Y-128423200D02*
X183440295Y-128375580D01*
X183440295Y-128375580D02*
X183487914Y-128280342D01*
X183487914Y-128280342D02*
X183487914Y-128042247D01*
X183487914Y-128042247D02*
X183440295Y-127947009D01*
X183440295Y-127947009D02*
X183392676Y-127899390D01*
X183392676Y-127899390D02*
X183297438Y-127851771D01*
X183297438Y-127851771D02*
X183106962Y-127851771D01*
X183106962Y-127851771D02*
X183011724Y-127899390D01*
X183011724Y-127899390D02*
X182964105Y-127947009D01*
X182964105Y-127947009D02*
X182916486Y-128042247D01*
X178450018Y-125839533D02*
X179164303Y-125839533D01*
X179164303Y-125839533D02*
X179307160Y-125887152D01*
X179307160Y-125887152D02*
X179402399Y-125982390D01*
X179402399Y-125982390D02*
X179450018Y-126125247D01*
X179450018Y-126125247D02*
X179450018Y-126220485D01*
X179450018Y-124839533D02*
X179450018Y-125410961D01*
X179450018Y-125125247D02*
X178450018Y-125125247D01*
X178450018Y-125125247D02*
X178592875Y-125220485D01*
X178592875Y-125220485D02*
X178688113Y-125315723D01*
X178688113Y-125315723D02*
X178735732Y-125410961D01*
X199943189Y-110976033D02*
X199943189Y-111309366D01*
X200466999Y-111309366D02*
X199466999Y-111309366D01*
X199466999Y-111309366D02*
X199466999Y-110833176D01*
X199562237Y-110499842D02*
X199514618Y-110452223D01*
X199514618Y-110452223D02*
X199466999Y-110356985D01*
X199466999Y-110356985D02*
X199466999Y-110118890D01*
X199466999Y-110118890D02*
X199514618Y-110023652D01*
X199514618Y-110023652D02*
X199562237Y-109976033D01*
X199562237Y-109976033D02*
X199657475Y-109928414D01*
X199657475Y-109928414D02*
X199752713Y-109928414D01*
X199752713Y-109928414D02*
X199895570Y-109976033D01*
X199895570Y-109976033D02*
X200466999Y-110547461D01*
X200466999Y-110547461D02*
X200466999Y-109928414D01*
X189943209Y-110976033D02*
X189943209Y-111309366D01*
X190467019Y-111309366D02*
X189467019Y-111309366D01*
X189467019Y-111309366D02*
X189467019Y-110833176D01*
X190467019Y-109928414D02*
X190467019Y-110499842D01*
X190467019Y-110214128D02*
X189467019Y-110214128D01*
X189467019Y-110214128D02*
X189609876Y-110309366D01*
X189609876Y-110309366D02*
X189705114Y-110404604D01*
X189705114Y-110404604D02*
X189752733Y-110499842D01*
X211133979Y-117608366D02*
X210657788Y-117941699D01*
X211133979Y-118179794D02*
X210133979Y-118179794D01*
X210133979Y-118179794D02*
X210133979Y-117798842D01*
X210133979Y-117798842D02*
X210181598Y-117703604D01*
X210181598Y-117703604D02*
X210229217Y-117655985D01*
X210229217Y-117655985D02*
X210324455Y-117608366D01*
X210324455Y-117608366D02*
X210467312Y-117608366D01*
X210467312Y-117608366D02*
X210562550Y-117655985D01*
X210562550Y-117655985D02*
X210610169Y-117703604D01*
X210610169Y-117703604D02*
X210657788Y-117798842D01*
X210657788Y-117798842D02*
X210657788Y-118179794D01*
X210133979Y-117275032D02*
X210133979Y-116655985D01*
X210133979Y-116655985D02*
X210514931Y-116989318D01*
X210514931Y-116989318D02*
X210514931Y-116846461D01*
X210514931Y-116846461D02*
X210562550Y-116751223D01*
X210562550Y-116751223D02*
X210610169Y-116703604D01*
X210610169Y-116703604D02*
X210705407Y-116655985D01*
X210705407Y-116655985D02*
X210943502Y-116655985D01*
X210943502Y-116655985D02*
X211038740Y-116703604D01*
X211038740Y-116703604D02*
X211086360Y-116751223D01*
X211086360Y-116751223D02*
X211133979Y-116846461D01*
X211133979Y-116846461D02*
X211133979Y-117132175D01*
X211133979Y-117132175D02*
X211086360Y-117227413D01*
X211086360Y-117227413D02*
X211038740Y-117275032D01*
X213362105Y-126610019D02*
X213362105Y-125610019D01*
X213362105Y-125610019D02*
X213600200Y-125610019D01*
X213600200Y-125610019D02*
X213743057Y-125657638D01*
X213743057Y-125657638D02*
X213838295Y-125752876D01*
X213838295Y-125752876D02*
X213885914Y-125848114D01*
X213885914Y-125848114D02*
X213933533Y-126038590D01*
X213933533Y-126038590D02*
X213933533Y-126181447D01*
X213933533Y-126181447D02*
X213885914Y-126371923D01*
X213885914Y-126371923D02*
X213838295Y-126467161D01*
X213838295Y-126467161D02*
X213743057Y-126562400D01*
X213743057Y-126562400D02*
X213600200Y-126610019D01*
X213600200Y-126610019D02*
X213362105Y-126610019D01*
X214790676Y-125943352D02*
X214790676Y-126610019D01*
X214552581Y-125562400D02*
X214314486Y-126276685D01*
X214314486Y-126276685D02*
X214933533Y-126276685D01*
X190015905Y-126610019D02*
X190015905Y-125610019D01*
X190015905Y-125610019D02*
X190254000Y-125610019D01*
X190254000Y-125610019D02*
X190396857Y-125657638D01*
X190396857Y-125657638D02*
X190492095Y-125752876D01*
X190492095Y-125752876D02*
X190539714Y-125848114D01*
X190539714Y-125848114D02*
X190587333Y-126038590D01*
X190587333Y-126038590D02*
X190587333Y-126181447D01*
X190587333Y-126181447D02*
X190539714Y-126371923D01*
X190539714Y-126371923D02*
X190492095Y-126467161D01*
X190492095Y-126467161D02*
X190396857Y-126562400D01*
X190396857Y-126562400D02*
X190254000Y-126610019D01*
X190254000Y-126610019D02*
X190015905Y-126610019D01*
X191539714Y-126610019D02*
X190968286Y-126610019D01*
X191254000Y-126610019D02*
X191254000Y-125610019D01*
X191254000Y-125610019D02*
X191158762Y-125752876D01*
X191158762Y-125752876D02*
X191063524Y-125848114D01*
X191063524Y-125848114D02*
X190968286Y-125895733D01*
X221133959Y-117608366D02*
X220657768Y-117941699D01*
X221133959Y-118179794D02*
X220133959Y-118179794D01*
X220133959Y-118179794D02*
X220133959Y-117798842D01*
X220133959Y-117798842D02*
X220181578Y-117703604D01*
X220181578Y-117703604D02*
X220229197Y-117655985D01*
X220229197Y-117655985D02*
X220324435Y-117608366D01*
X220324435Y-117608366D02*
X220467292Y-117608366D01*
X220467292Y-117608366D02*
X220562530Y-117655985D01*
X220562530Y-117655985D02*
X220610149Y-117703604D01*
X220610149Y-117703604D02*
X220657768Y-117798842D01*
X220657768Y-117798842D02*
X220657768Y-118179794D01*
X220467292Y-116751223D02*
X221133959Y-116751223D01*
X220086340Y-116989318D02*
X220800625Y-117227413D01*
X220800625Y-117227413D02*
X220800625Y-116608366D01*
X223362105Y-126610019D02*
X223362105Y-125610019D01*
X223362105Y-125610019D02*
X223600200Y-125610019D01*
X223600200Y-125610019D02*
X223743057Y-125657638D01*
X223743057Y-125657638D02*
X223838295Y-125752876D01*
X223838295Y-125752876D02*
X223885914Y-125848114D01*
X223885914Y-125848114D02*
X223933533Y-126038590D01*
X223933533Y-126038590D02*
X223933533Y-126181447D01*
X223933533Y-126181447D02*
X223885914Y-126371923D01*
X223885914Y-126371923D02*
X223838295Y-126467161D01*
X223838295Y-126467161D02*
X223743057Y-126562400D01*
X223743057Y-126562400D02*
X223600200Y-126610019D01*
X223600200Y-126610019D02*
X223362105Y-126610019D01*
X224838295Y-125610019D02*
X224362105Y-125610019D01*
X224362105Y-125610019D02*
X224314486Y-126086209D01*
X224314486Y-126086209D02*
X224362105Y-126038590D01*
X224362105Y-126038590D02*
X224457343Y-125990971D01*
X224457343Y-125990971D02*
X224695438Y-125990971D01*
X224695438Y-125990971D02*
X224790676Y-126038590D01*
X224790676Y-126038590D02*
X224838295Y-126086209D01*
X224838295Y-126086209D02*
X224885914Y-126181447D01*
X224885914Y-126181447D02*
X224885914Y-126419542D01*
X224885914Y-126419542D02*
X224838295Y-126514780D01*
X224838295Y-126514780D02*
X224790676Y-126562400D01*
X224790676Y-126562400D02*
X224695438Y-126610019D01*
X224695438Y-126610019D02*
X224457343Y-126610019D01*
X224457343Y-126610019D02*
X224362105Y-126562400D01*
X224362105Y-126562400D02*
X224314486Y-126514780D01*
X180006666Y-128486819D02*
X180006666Y-129201104D01*
X180006666Y-129201104D02*
X179959047Y-129343961D01*
X179959047Y-129343961D02*
X179863809Y-129439200D01*
X179863809Y-129439200D02*
X179720952Y-129486819D01*
X179720952Y-129486819D02*
X179625714Y-129486819D01*
X180387619Y-128486819D02*
X181006666Y-128486819D01*
X181006666Y-128486819D02*
X180673333Y-128867771D01*
X180673333Y-128867771D02*
X180816190Y-128867771D01*
X180816190Y-128867771D02*
X180911428Y-128915390D01*
X180911428Y-128915390D02*
X180959047Y-128963009D01*
X180959047Y-128963009D02*
X181006666Y-129058247D01*
X181006666Y-129058247D02*
X181006666Y-129296342D01*
X181006666Y-129296342D02*
X180959047Y-129391580D01*
X180959047Y-129391580D02*
X180911428Y-129439200D01*
X180911428Y-129439200D02*
X180816190Y-129486819D01*
X180816190Y-129486819D02*
X180530476Y-129486819D01*
X180530476Y-129486819D02*
X180435238Y-129439200D01*
X180435238Y-129439200D02*
X180387619Y-129391580D01*
X201133999Y-117608366D02*
X200657808Y-117941699D01*
X201133999Y-118179794D02*
X200133999Y-118179794D01*
X200133999Y-118179794D02*
X200133999Y-117798842D01*
X200133999Y-117798842D02*
X200181618Y-117703604D01*
X200181618Y-117703604D02*
X200229237Y-117655985D01*
X200229237Y-117655985D02*
X200324475Y-117608366D01*
X200324475Y-117608366D02*
X200467332Y-117608366D01*
X200467332Y-117608366D02*
X200562570Y-117655985D01*
X200562570Y-117655985D02*
X200610189Y-117703604D01*
X200610189Y-117703604D02*
X200657808Y-117798842D01*
X200657808Y-117798842D02*
X200657808Y-118179794D01*
X200229237Y-117227413D02*
X200181618Y-117179794D01*
X200181618Y-117179794D02*
X200133999Y-117084556D01*
X200133999Y-117084556D02*
X200133999Y-116846461D01*
X200133999Y-116846461D02*
X200181618Y-116751223D01*
X200181618Y-116751223D02*
X200229237Y-116703604D01*
X200229237Y-116703604D02*
X200324475Y-116655985D01*
X200324475Y-116655985D02*
X200419713Y-116655985D01*
X200419713Y-116655985D02*
X200562570Y-116703604D01*
X200562570Y-116703604D02*
X201133999Y-117275032D01*
X201133999Y-117275032D02*
X201133999Y-116655985D01*
D12*
%TO.C,F5*%
X222262120Y-107844700D02*
X228992120Y-107844700D01*
X222262120Y-123717700D02*
X222262120Y-107844700D01*
X228992120Y-107844700D02*
X228992120Y-123717700D01*
X228992120Y-123717700D02*
X222262120Y-123717700D01*
%TO.C,F3*%
X202262160Y-107844700D02*
X208992160Y-107844700D01*
X202262160Y-123717700D02*
X202262160Y-107844700D01*
X208992160Y-107844700D02*
X208992160Y-123717700D01*
X208992160Y-123717700D02*
X202262160Y-123717700D01*
%TO.C,F4*%
X212262140Y-107844700D02*
X218992140Y-107844700D01*
X212262140Y-123717700D02*
X212262140Y-107844700D01*
X218992140Y-107844700D02*
X218992140Y-123717700D01*
X218992140Y-123717700D02*
X212262140Y-123717700D01*
D13*
%TO.C,D2*%
X195292200Y-124970200D02*
X195292200Y-127240200D01*
X195292200Y-127240200D02*
X199177200Y-127240200D01*
X199177200Y-124970200D02*
X195292200Y-124970200D01*
%TO.C,R5*%
X229717110Y-121394764D02*
X229717110Y-119940636D01*
X231537110Y-121394764D02*
X231537110Y-119940636D01*
D14*
%TO.C,J2*%
X233650201Y-119875299D02*
X233650201Y-132885099D01*
X233650201Y-132885099D02*
X236677201Y-132885099D01*
X236677201Y-119875299D02*
X233650201Y-119875299D01*
D15*
X233502201Y-129155201D02*
X232486201Y-130171201D01*
X232486201Y-128139201D01*
X233502201Y-129155201D01*
G36*
X233502201Y-129155201D02*
G01*
X232486201Y-130171201D01*
X232486201Y-128139201D01*
X233502201Y-129155201D01*
G37*
D13*
%TO.C,R1*%
X189717190Y-121394764D02*
X189717190Y-119940636D01*
X191537190Y-121394764D02*
X191537190Y-119940636D01*
%TO.C,D3*%
X205292200Y-124970200D02*
X205292200Y-127240200D01*
X205292200Y-127240200D02*
X209177200Y-127240200D01*
X209177200Y-124970200D02*
X205292200Y-124970200D01*
%TO.C,D6*%
X180342200Y-125105200D02*
X180342200Y-127105200D01*
X180342200Y-125105200D02*
X184352200Y-125105200D01*
X180342200Y-127105200D02*
X184352200Y-127105200D01*
D14*
%TO.C,J1*%
X174977199Y-132335101D02*
X178004199Y-132335101D01*
X178004199Y-119325301D02*
X174977199Y-119325301D01*
X178004199Y-132335101D02*
X178004199Y-119325301D01*
D15*
X179168199Y-124071199D02*
X178152199Y-123055199D01*
X179168199Y-122039199D01*
X179168199Y-124071199D01*
G36*
X179168199Y-124071199D02*
G01*
X178152199Y-123055199D01*
X179168199Y-122039199D01*
X179168199Y-124071199D01*
G37*
D12*
%TO.C,F2*%
X192262180Y-107844700D02*
X198992180Y-107844700D01*
X192262180Y-123717700D02*
X192262180Y-107844700D01*
X198992180Y-107844700D02*
X198992180Y-123717700D01*
X198992180Y-123717700D02*
X192262180Y-123717700D01*
%TO.C,F1*%
X182262200Y-107844700D02*
X188992200Y-107844700D01*
X182262200Y-123717700D02*
X182262200Y-107844700D01*
X188992200Y-107844700D02*
X188992200Y-123717700D01*
X188992200Y-123717700D02*
X182262200Y-123717700D01*
D13*
%TO.C,R3*%
X209717150Y-121394764D02*
X209717150Y-119940636D01*
X211537150Y-121394764D02*
X211537150Y-119940636D01*
%TO.C,D4*%
X215292200Y-124970200D02*
X215292200Y-127240200D01*
X215292200Y-127240200D02*
X219177200Y-127240200D01*
X219177200Y-124970200D02*
X215292200Y-124970200D01*
%TO.C,D1*%
X185292200Y-124970200D02*
X185292200Y-127240200D01*
X185292200Y-127240200D02*
X189177200Y-127240200D01*
X189177200Y-124970200D02*
X185292200Y-124970200D01*
%TO.C,R4*%
X219717130Y-121394764D02*
X219717130Y-119940636D01*
X221537130Y-121394764D02*
X221537130Y-119940636D01*
%TO.C,D5*%
X225292200Y-124970200D02*
X225292200Y-127240200D01*
X225292200Y-127240200D02*
X229177200Y-127240200D01*
X229177200Y-124970200D02*
X225292200Y-124970200D01*
D14*
%TO.C,J3*%
X179058637Y-130115700D02*
X179058637Y-133142700D01*
X232064535Y-133142700D02*
X232068437Y-130115700D01*
X232068437Y-130115700D02*
X179058637Y-130115700D01*
D13*
%TO.C,R2*%
X199717170Y-121394764D02*
X199717170Y-119940636D01*
X201537170Y-121394764D02*
X201537170Y-119940636D01*
%TD*%
M02*
