%TF.GenerationSoftware,KiCad,Pcbnew,9.0.4-9.0.4-0~ubuntu24.04.1*%
%TF.CreationDate,2025-09-19T23:05:12-07:00*%
%TF.ProjectId,mini-pdb,6d696e69-2d70-4646-922e-6b696361645f,2*%
%TF.SameCoordinates,Original*%
%TF.FileFunction,Soldermask,Bot*%
%TF.FilePolarity,Negative*%
%FSLAX46Y46*%
G04 Gerber Fmt 4.6, Leading zero omitted, Abs format (unit mm)*
G04 Created by KiCad (PCBNEW 9.0.4-9.0.4-0~ubuntu24.04.1) date 2025-09-19 23:05:12*
%MOMM*%
%LPD*%
G01*
G04 APERTURE LIST*
%ADD10C,3.204000*%
%ADD11C,2.500000*%
%ADD12C,3.000000*%
G04 APERTURE END LIST*
D10*
%TO.C,F5*%
X227327120Y-110767700D03*
X223927120Y-110767700D03*
X227327120Y-120667700D03*
X223927120Y-120667700D03*
%TD*%
%TO.C,F3*%
X207327160Y-110767700D03*
X203927160Y-110767700D03*
X207327160Y-120667700D03*
X203927160Y-120667700D03*
%TD*%
%TO.C,F4*%
X217327140Y-110767700D03*
X213927140Y-110767700D03*
X217327140Y-120667700D03*
X213927140Y-120667700D03*
%TD*%
D11*
%TO.C,J2*%
X236677201Y-129155200D03*
X244877200Y-129155200D03*
X236677201Y-124155198D03*
X244877200Y-124155198D03*
%TD*%
D12*
%TO.C,H4*%
X233802200Y-141317700D03*
%TD*%
%TO.C,H1*%
X177852200Y-110892700D03*
%TD*%
%TO.C,H2*%
X233802200Y-110892700D03*
%TD*%
D11*
%TO.C,J1*%
X174977199Y-123055200D03*
X166777200Y-123055200D03*
X174977199Y-128055202D03*
X166777200Y-128055202D03*
%TD*%
D10*
%TO.C,F2*%
X197327180Y-110767700D03*
X193927180Y-110767700D03*
X197327180Y-120667700D03*
X193927180Y-120667700D03*
%TD*%
%TO.C,F1*%
X187327200Y-110767700D03*
X183927200Y-110767700D03*
X187327200Y-120667700D03*
X183927200Y-120667700D03*
%TD*%
D12*
%TO.C,H3*%
X177852200Y-141317700D03*
%TD*%
D11*
%TO.C,J3*%
X182788536Y-133142700D03*
X182788536Y-141342699D03*
X187788538Y-133142700D03*
X187788538Y-141342699D03*
X192788539Y-133142700D03*
X192788539Y-141342699D03*
X197788539Y-133142700D03*
X197788539Y-141342699D03*
X202788539Y-133142700D03*
X202788539Y-141342699D03*
X207788539Y-133142700D03*
X207788539Y-141342699D03*
X212788539Y-133142700D03*
X212788539Y-141342699D03*
X217788539Y-133142700D03*
X217788539Y-141342699D03*
X222788539Y-133142700D03*
X222788539Y-141342699D03*
X227788540Y-133142700D03*
X227788540Y-141342699D03*
%TD*%
M02*
