<?xml version="1.0" standalone="no"?>
 <!DOCTYPE svg PUBLIC "-//W3C//DTD SVG 1.1//EN" 
 "http://www.w3.org/Graphics/SVG/1.1/DTD/svg11.dtd"> 
<svg
  xmlns:svg="http://www.w3.org/2000/svg"
  xmlns="http://www.w3.org/2000/svg"
  xmlns:xlink="http://www.w3.org/1999/xlink"
  version="1.1"
  width="431.8000mm" height="279.4000mm" viewBox="0.0000 0.0000 431.8000 279.4000">
<title>SVG Image created as mag-encoder-B_Silkscreen.svg date 2025/09/20 10:36:48 </title>
  <desc>Image generated by PCBNEW </desc>
<g style="fill:#000000; fill-opacity:1.0000;stroke:#000000; stroke-opacity:1.0000;
stroke-linecap:round; stroke-linejoin:round;"
 transform="translate(0 0) scale(1 1)">
</g>
<g style="fill:none; 
stroke:#000000; stroke-width:0.1524; stroke-opacity:1; 
stroke-linecap:round; stroke-linejoin:round;">
<g transform="rotate(90.000000 206.9084 129.8448)">
<text x="206.9084" y="130.6068"
textLength="11.1905" font-size="1.0160" lengthAdjust="spacingAndGlyphs"
text-anchor="end" opacity="0" stroke-opacity="0">WCP-1971   2025</text>
</g>
<g class="stroked-text"><desc>WCP-1971   2025</desc>
<path d="M206.8800 118.9677
L206.1180 119.1491
" />
<path d="M206.1180 119.1491
L206.6623 119.2943
" />
<path d="M206.6623 119.2943
L206.1180 119.4394
" />
<path d="M206.1180 119.4394
L206.8800 119.6208
" />
<path d="M206.1906 120.3465
L206.1543 120.3103
" />
<path d="M206.1543 120.3103
L206.1180 120.2014
" />
<path d="M206.1180 120.2014
L206.1180 120.1288
" />
<path d="M206.1180 120.1288
L206.1543 120.0200
" />
<path d="M206.1543 120.0200
L206.2269 119.9474
" />
<path d="M206.2269 119.9474
L206.2995 119.9111
" />
<path d="M206.2995 119.9111
L206.4446 119.8748
" />
<path d="M206.4446 119.8748
L206.5535 119.8748
" />
<path d="M206.5535 119.8748
L206.6986 119.9111
" />
<path d="M206.6986 119.9111
L206.7712 119.9474
" />
<path d="M206.7712 119.9474
L206.8438 120.0200
" />
<path d="M206.8438 120.0200
L206.8800 120.1288
" />
<path d="M206.8800 120.1288
L206.8800 120.2014
" />
<path d="M206.8800 120.2014
L206.8438 120.3103
" />
<path d="M206.8438 120.3103
L206.8075 120.3465
" />
<path d="M206.1180 120.6731
L206.8800 120.6731
" />
<path d="M206.8800 120.6731
L206.8800 120.9634
" />
<path d="M206.8800 120.9634
L206.8438 121.0360
" />
<path d="M206.8438 121.0360
L206.8075 121.0723
" />
<path d="M206.8075 121.0723
L206.7349 121.1085
" />
<path d="M206.7349 121.1085
L206.6260 121.1085
" />
<path d="M206.6260 121.1085
L206.5535 121.0723
" />
<path d="M206.5535 121.0723
L206.5172 121.0360
" />
<path d="M206.5172 121.0360
L206.4809 120.9634
" />
<path d="M206.4809 120.9634
L206.4809 120.6731
" />
<path d="M206.4083 121.4351
L206.4083 122.0157
" />
<path d="M206.1180 122.7777
L206.1180 122.3423
" />
<path d="M206.1180 122.5600
L206.8800 122.5600
" />
<path d="M206.8800 122.5600
L206.7712 122.4874
" />
<path d="M206.7712 122.4874
L206.6986 122.4148
" />
<path d="M206.6986 122.4148
L206.6623 122.3423
" />
<path d="M206.1180 123.1405
L206.1180 123.2857
" />
<path d="M206.1180 123.2857
L206.1543 123.3583
" />
<path d="M206.1543 123.3583
L206.1906 123.3945
" />
<path d="M206.1906 123.3945
L206.2995 123.4671
" />
<path d="M206.2995 123.4671
L206.4446 123.5034
" />
<path d="M206.4446 123.5034
L206.7349 123.5034
" />
<path d="M206.7349 123.5034
L206.8075 123.4671
" />
<path d="M206.8075 123.4671
L206.8438 123.4308
" />
<path d="M206.8438 123.4308
L206.8800 123.3583
" />
<path d="M206.8800 123.3583
L206.8800 123.2131
" />
<path d="M206.8800 123.2131
L206.8438 123.1405
" />
<path d="M206.8438 123.1405
L206.8075 123.1043
" />
<path d="M206.8075 123.1043
L206.7349 123.0680
" />
<path d="M206.7349 123.0680
L206.5535 123.0680
" />
<path d="M206.5535 123.0680
L206.4809 123.1043
" />
<path d="M206.4809 123.1043
L206.4446 123.1405
" />
<path d="M206.4446 123.1405
L206.4083 123.2131
" />
<path d="M206.4083 123.2131
L206.4083 123.3583
" />
<path d="M206.4083 123.3583
L206.4446 123.4308
" />
<path d="M206.4446 123.4308
L206.4809 123.4671
" />
<path d="M206.4809 123.4671
L206.5535 123.5034
" />
<path d="M206.8800 123.7574
L206.8800 124.2654
" />
<path d="M206.8800 124.2654
L206.1180 123.9388
" />
<path d="M206.1180 124.9548
L206.1180 124.5194
" />
<path d="M206.1180 124.7371
L206.8800 124.7371
" />
<path d="M206.8800 124.7371
L206.7712 124.6645
" />
<path d="M206.7712 124.6645
L206.6986 124.5920
" />
<path d="M206.6986 124.5920
L206.6623 124.5194
" />
<path d="M206.8075 126.9868
L206.8438 127.0231
" />
<path d="M206.8438 127.0231
L206.8800 127.0957
" />
<path d="M206.8800 127.0957
L206.8800 127.2771
" />
<path d="M206.8800 127.2771
L206.8438 127.3497
" />
<path d="M206.8438 127.3497
L206.8075 127.3860
" />
<path d="M206.8075 127.3860
L206.7349 127.4223
" />
<path d="M206.7349 127.4223
L206.6623 127.4223
" />
<path d="M206.6623 127.4223
L206.5535 127.3860
" />
<path d="M206.5535 127.3860
L206.1180 126.9505
" />
<path d="M206.1180 126.9505
L206.1180 127.4223
" />
<path d="M206.8800 127.8940
L206.8800 127.9665
" />
<path d="M206.8800 127.9665
L206.8438 128.0391
" />
<path d="M206.8438 128.0391
L206.8075 128.0754
" />
<path d="M206.8075 128.0754
L206.7349 128.1117
" />
<path d="M206.7349 128.1117
L206.5898 128.1480
" />
<path d="M206.5898 128.1480
L206.4083 128.1480
" />
<path d="M206.4083 128.1480
L206.2632 128.1117
" />
<path d="M206.2632 128.1117
L206.1906 128.0754
" />
<path d="M206.1906 128.0754
L206.1543 128.0391
" />
<path d="M206.1543 128.0391
L206.1180 127.9665
" />
<path d="M206.1180 127.9665
L206.1180 127.8940
" />
<path d="M206.1180 127.8940
L206.1543 127.8214
" />
<path d="M206.1543 127.8214
L206.1906 127.7851
" />
<path d="M206.1906 127.7851
L206.2632 127.7488
" />
<path d="M206.2632 127.7488
L206.4083 127.7125
" />
<path d="M206.4083 127.7125
L206.5898 127.7125
" />
<path d="M206.5898 127.7125
L206.7349 127.7488
" />
<path d="M206.7349 127.7488
L206.8075 127.7851
" />
<path d="M206.8075 127.7851
L206.8438 127.8214
" />
<path d="M206.8438 127.8214
L206.8800 127.8940
" />
<path d="M206.8075 128.4383
L206.8438 128.4745
" />
<path d="M206.8438 128.4745
L206.8800 128.5471
" />
<path d="M206.8800 128.5471
L206.8800 128.7285
" />
<path d="M206.8800 128.7285
L206.8438 128.8011
" />
<path d="M206.8438 128.8011
L206.8075 128.8374
" />
<path d="M206.8075 128.8374
L206.7349 128.8737
" />
<path d="M206.7349 128.8737
L206.6623 128.8737
" />
<path d="M206.6623 128.8737
L206.5535 128.8374
" />
<path d="M206.5535 128.8374
L206.1180 128.4020
" />
<path d="M206.1180 128.4020
L206.1180 128.8737
" />
<path d="M206.8800 129.5631
L206.8800 129.2003
" />
<path d="M206.8800 129.2003
L206.5172 129.1640
" />
<path d="M206.5172 129.1640
L206.5535 129.2003
" />
<path d="M206.5535 129.2003
L206.5898 129.2728
" />
<path d="M206.5898 129.2728
L206.5898 129.4543
" />
<path d="M206.5898 129.4543
L206.5535 129.5268
" />
<path d="M206.5535 129.5268
L206.5172 129.5631
" />
<path d="M206.5172 129.5631
L206.4446 129.5994
" />
<path d="M206.4446 129.5994
L206.2632 129.5994
" />
<path d="M206.2632 129.5994
L206.1906 129.5631
" />
<path d="M206.1906 129.5631
L206.1543 129.5268
" />
<path d="M206.1543 129.5268
L206.1180 129.4543
" />
<path d="M206.1180 129.4543
L206.1180 129.2728
" />
<path d="M206.1180 129.2728
L206.1543 129.2003
" />
<path d="M206.1543 129.2003
L206.1906 129.1640
" />
</g><g transform="rotate(90.000000 205.6816 129.8448)">
<text x="205.6816" y="130.6068"
textLength="7.3805" font-size="1.0160" lengthAdjust="spacingAndGlyphs"
text-anchor="end" opacity="0" stroke-opacity="0">1868 SPACE</text>
</g>
<g class="stroked-text"><desc>1868 SPACE</desc>
<path d="M204.8913 123.2494
L204.8913 122.8140
" />
<path d="M204.8913 123.0317
L205.6533 123.0317
" />
<path d="M205.6533 123.0317
L205.5444 122.9591
" />
<path d="M205.5444 122.9591
L205.4718 122.8865
" />
<path d="M205.4718 122.8865
L205.4355 122.8140
" />
<path d="M205.3267 123.6848
L205.3630 123.6123
" />
<path d="M205.3630 123.6123
L205.3993 123.5760
" />
<path d="M205.3993 123.5760
L205.4718 123.5397
" />
<path d="M205.4718 123.5397
L205.5081 123.5397
" />
<path d="M205.5081 123.5397
L205.5807 123.5760
" />
<path d="M205.5807 123.5760
L205.6170 123.6123
" />
<path d="M205.6170 123.6123
L205.6533 123.6848
" />
<path d="M205.6533 123.6848
L205.6533 123.8300
" />
<path d="M205.6533 123.8300
L205.6170 123.9025
" />
<path d="M205.6170 123.9025
L205.5807 123.9388
" />
<path d="M205.5807 123.9388
L205.5081 123.9751
" />
<path d="M205.5081 123.9751
L205.4718 123.9751
" />
<path d="M205.4718 123.9751
L205.3993 123.9388
" />
<path d="M205.3993 123.9388
L205.3630 123.9025
" />
<path d="M205.3630 123.9025
L205.3267 123.8300
" />
<path d="M205.3267 123.8300
L205.3267 123.6848
" />
<path d="M205.3267 123.6848
L205.2904 123.6123
" />
<path d="M205.2904 123.6123
L205.2541 123.5760
" />
<path d="M205.2541 123.5760
L205.1815 123.5397
" />
<path d="M205.1815 123.5397
L205.0364 123.5397
" />
<path d="M205.0364 123.5397
L204.9638 123.5760
" />
<path d="M204.9638 123.5760
L204.9275 123.6123
" />
<path d="M204.9275 123.6123
L204.8913 123.6848
" />
<path d="M204.8913 123.6848
L204.8913 123.8300
" />
<path d="M204.8913 123.8300
L204.9275 123.9025
" />
<path d="M204.9275 123.9025
L204.9638 123.9388
" />
<path d="M204.9638 123.9388
L205.0364 123.9751
" />
<path d="M205.0364 123.9751
L205.1815 123.9751
" />
<path d="M205.1815 123.9751
L205.2541 123.9388
" />
<path d="M205.2541 123.9388
L205.2904 123.9025
" />
<path d="M205.2904 123.9025
L205.3267 123.8300
" />
<path d="M205.6533 124.6283
L205.6533 124.4831
" />
<path d="M205.6533 124.4831
L205.6170 124.4105
" />
<path d="M205.6170 124.4105
L205.5807 124.3743
" />
<path d="M205.5807 124.3743
L205.4718 124.3017
" />
<path d="M205.4718 124.3017
L205.3267 124.2654
" />
<path d="M205.3267 124.2654
L205.0364 124.2654
" />
<path d="M205.0364 124.2654
L204.9638 124.3017
" />
<path d="M204.9638 124.3017
L204.9275 124.3380
" />
<path d="M204.9275 124.3380
L204.8913 124.4105
" />
<path d="M204.8913 124.4105
L204.8913 124.5557
" />
<path d="M204.8913 124.5557
L204.9275 124.6283
" />
<path d="M204.9275 124.6283
L204.9638 124.6645
" />
<path d="M204.9638 124.6645
L205.0364 124.7008
" />
<path d="M205.0364 124.7008
L205.2178 124.7008
" />
<path d="M205.2178 124.7008
L205.2904 124.6645
" />
<path d="M205.2904 124.6645
L205.3267 124.6283
" />
<path d="M205.3267 124.6283
L205.3630 124.5557
" />
<path d="M205.3630 124.5557
L205.3630 124.4105
" />
<path d="M205.3630 124.4105
L205.3267 124.3380
" />
<path d="M205.3267 124.3380
L205.2904 124.3017
" />
<path d="M205.2904 124.3017
L205.2178 124.2654
" />
<path d="M205.3267 125.1363
L205.3630 125.0637
" />
<path d="M205.3630 125.0637
L205.3993 125.0274
" />
<path d="M205.3993 125.0274
L205.4718 124.9911
" />
<path d="M205.4718 124.9911
L205.5081 124.9911
" />
<path d="M205.5081 124.9911
L205.5807 125.0274
" />
<path d="M205.5807 125.0274
L205.6170 125.0637
" />
<path d="M205.6170 125.0637
L205.6533 125.1363
" />
<path d="M205.6533 125.1363
L205.6533 125.2814
" />
<path d="M205.6533 125.2814
L205.6170 125.3540
" />
<path d="M205.6170 125.3540
L205.5807 125.3903
" />
<path d="M205.5807 125.3903
L205.5081 125.4265
" />
<path d="M205.5081 125.4265
L205.4718 125.4265
" />
<path d="M205.4718 125.4265
L205.3993 125.3903
" />
<path d="M205.3993 125.3903
L205.3630 125.3540
" />
<path d="M205.3630 125.3540
L205.3267 125.2814
" />
<path d="M205.3267 125.2814
L205.3267 125.1363
" />
<path d="M205.3267 125.1363
L205.2904 125.0637
" />
<path d="M205.2904 125.0637
L205.2541 125.0274
" />
<path d="M205.2541 125.0274
L205.1815 124.9911
" />
<path d="M205.1815 124.9911
L205.0364 124.9911
" />
<path d="M205.0364 124.9911
L204.9638 125.0274
" />
<path d="M204.9638 125.0274
L204.9275 125.0637
" />
<path d="M204.9275 125.0637
L204.8913 125.1363
" />
<path d="M204.8913 125.1363
L204.8913 125.2814
" />
<path d="M204.8913 125.2814
L204.9275 125.3540
" />
<path d="M204.9275 125.3540
L204.9638 125.3903
" />
<path d="M204.9638 125.3903
L205.0364 125.4265
" />
<path d="M205.0364 125.4265
L205.1815 125.4265
" />
<path d="M205.1815 125.4265
L205.2541 125.3903
" />
<path d="M205.2541 125.3903
L205.2904 125.3540
" />
<path d="M205.2904 125.3540
L205.3267 125.2814
" />
<path d="M204.9275 126.2974
L204.8913 126.4063
" />
<path d="M204.8913 126.4063
L204.8913 126.5877
" />
<path d="M204.8913 126.5877
L204.9275 126.6603
" />
<path d="M204.9275 126.6603
L204.9638 126.6965
" />
<path d="M204.9638 126.6965
L205.0364 126.7328
" />
<path d="M205.0364 126.7328
L205.1090 126.7328
" />
<path d="M205.1090 126.7328
L205.1815 126.6965
" />
<path d="M205.1815 126.6965
L205.2178 126.6603
" />
<path d="M205.2178 126.6603
L205.2541 126.5877
" />
<path d="M205.2541 126.5877
L205.2904 126.4425
" />
<path d="M205.2904 126.4425
L205.3267 126.3700
" />
<path d="M205.3267 126.3700
L205.3630 126.3337
" />
<path d="M205.3630 126.3337
L205.4355 126.2974
" />
<path d="M205.4355 126.2974
L205.5081 126.2974
" />
<path d="M205.5081 126.2974
L205.5807 126.3337
" />
<path d="M205.5807 126.3337
L205.6170 126.3700
" />
<path d="M205.6170 126.3700
L205.6533 126.4425
" />
<path d="M205.6533 126.4425
L205.6533 126.6240
" />
<path d="M205.6533 126.6240
L205.6170 126.7328
" />
<path d="M204.8913 127.0594
L205.6533 127.0594
" />
<path d="M205.6533 127.0594
L205.6533 127.3497
" />
<path d="M205.6533 127.3497
L205.6170 127.4222
" />
<path d="M205.6170 127.4222
L205.5807 127.4585
" />
<path d="M205.5807 127.4585
L205.5081 127.4948
" />
<path d="M205.5081 127.4948
L205.3993 127.4948
" />
<path d="M205.3993 127.4948
L205.3267 127.4585
" />
<path d="M205.3267 127.4585
L205.2904 127.4222
" />
<path d="M205.2904 127.4222
L205.2541 127.3497
" />
<path d="M205.2541 127.3497
L205.2541 127.0594
" />
<path d="M205.1090 127.7851
L205.1090 128.1480
" />
<path d="M204.8913 127.7125
L205.6533 127.9665
" />
<path d="M205.6533 127.9665
L204.8913 128.2205
" />
<path d="M204.9638 128.9100
L204.9275 128.8737
" />
<path d="M204.9275 128.8737
L204.8913 128.7648
" />
<path d="M204.8913 128.7648
L204.8913 128.6923
" />
<path d="M204.8913 128.6923
L204.9275 128.5834
" />
<path d="M204.9275 128.5834
L205.0001 128.5108
" />
<path d="M205.0001 128.5108
L205.0727 128.4745
" />
<path d="M205.0727 128.4745
L205.2178 128.4382
" />
<path d="M205.2178 128.4382
L205.3267 128.4382
" />
<path d="M205.3267 128.4382
L205.4718 128.4745
" />
<path d="M205.4718 128.4745
L205.5444 128.5108
" />
<path d="M205.5444 128.5108
L205.6170 128.5834
" />
<path d="M205.6170 128.5834
L205.6533 128.6923
" />
<path d="M205.6533 128.6923
L205.6533 128.7648
" />
<path d="M205.6533 128.7648
L205.6170 128.8737
" />
<path d="M205.6170 128.8737
L205.5807 128.9100
" />
<path d="M205.2904 129.2365
L205.2904 129.4905
" />
<path d="M204.8913 129.5994
L204.8913 129.2365
" />
<path d="M204.8913 129.2365
L205.6533 129.2365
" />
<path d="M205.6533 129.2365
L205.6533 129.5994
" />
</g><g transform="rotate(90.000000 204.4548 129.8448)">
<text x="204.4548" y="130.6068"
textLength="5.2034" font-size="1.0160" lengthAdjust="spacingAndGlyphs"
text-anchor="end" opacity="0" stroke-opacity="0">COOKIES</text>
</g>
<g class="stroked-text"><desc>COOKIES</desc>
<path d="M203.7371 125.4628
L203.7008 125.4265
" />
<path d="M203.7008 125.4265
L203.6645 125.3177
" />
<path d="M203.6645 125.3177
L203.6645 125.2451
" />
<path d="M203.6645 125.2451
L203.7008 125.1362
" />
<path d="M203.7008 125.1362
L203.7733 125.0637
" />
<path d="M203.7733 125.0637
L203.8459 125.0274
" />
<path d="M203.8459 125.0274
L203.9911 124.9911
" />
<path d="M203.9911 124.9911
L204.0999 124.9911
" />
<path d="M204.0999 124.9911
L204.2451 125.0274
" />
<path d="M204.2451 125.0274
L204.3176 125.0637
" />
<path d="M204.3176 125.0637
L204.3902 125.1362
" />
<path d="M204.3902 125.1362
L204.4265 125.2451
" />
<path d="M204.4265 125.2451
L204.4265 125.3177
" />
<path d="M204.4265 125.3177
L204.3902 125.4265
" />
<path d="M204.3902 125.4265
L204.3539 125.4628
" />
<path d="M204.4265 125.9345
L204.4265 126.0797
" />
<path d="M204.4265 126.0797
L204.3902 126.1522
" />
<path d="M204.3902 126.1522
L204.3176 126.2248
" />
<path d="M204.3176 126.2248
L204.1725 126.2611
" />
<path d="M204.1725 126.2611
L203.9185 126.2611
" />
<path d="M203.9185 126.2611
L203.7733 126.2248
" />
<path d="M203.7733 126.2248
L203.7008 126.1522
" />
<path d="M203.7008 126.1522
L203.6645 126.0797
" />
<path d="M203.6645 126.0797
L203.6645 125.9345
" />
<path d="M203.6645 125.9345
L203.7008 125.8620
" />
<path d="M203.7008 125.8620
L203.7733 125.7894
" />
<path d="M203.7733 125.7894
L203.9185 125.7531
" />
<path d="M203.9185 125.7531
L204.1725 125.7531
" />
<path d="M204.1725 125.7531
L204.3176 125.7894
" />
<path d="M204.3176 125.7894
L204.3902 125.8620
" />
<path d="M204.3902 125.8620
L204.4265 125.9345
" />
<path d="M204.4265 126.7328
L204.4265 126.8780
" />
<path d="M204.4265 126.8780
L204.3902 126.9505
" />
<path d="M204.3902 126.9505
L204.3176 127.0231
" />
<path d="M204.3176 127.0231
L204.1725 127.0594
" />
<path d="M204.1725 127.0594
L203.9185 127.0594
" />
<path d="M203.9185 127.0594
L203.7733 127.0231
" />
<path d="M203.7733 127.0231
L203.7008 126.9505
" />
<path d="M203.7008 126.9505
L203.6645 126.8780
" />
<path d="M203.6645 126.8780
L203.6645 126.7328
" />
<path d="M203.6645 126.7328
L203.7008 126.6603
" />
<path d="M203.7008 126.6603
L203.7733 126.5877
" />
<path d="M203.7733 126.5877
L203.9185 126.5514
" />
<path d="M203.9185 126.5514
L204.1725 126.5514
" />
<path d="M204.1725 126.5514
L204.3176 126.5877
" />
<path d="M204.3176 126.5877
L204.3902 126.6603
" />
<path d="M204.3902 126.6603
L204.4265 126.7328
" />
<path d="M203.6645 127.3860
L204.4265 127.3860
" />
<path d="M203.6645 127.8214
L204.0999 127.4948
" />
<path d="M204.4265 127.8214
L203.9911 127.3860
" />
<path d="M203.6645 128.1480
L204.4265 128.1480
" />
<path d="M204.0636 128.5108
L204.0636 128.7648
" />
<path d="M203.6645 128.8737
L203.6645 128.5108
" />
<path d="M203.6645 128.5108
L204.4265 128.5108
" />
<path d="M204.4265 128.5108
L204.4265 128.8737
" />
<path d="M203.7008 129.1640
L203.6645 129.2728
" />
<path d="M203.6645 129.2728
L203.6645 129.4543
" />
<path d="M203.6645 129.4543
L203.7008 129.5268
" />
<path d="M203.7008 129.5268
L203.7371 129.5631
" />
<path d="M203.7371 129.5631
L203.8096 129.5994
" />
<path d="M203.8096 129.5994
L203.8822 129.5994
" />
<path d="M203.8822 129.5994
L203.9548 129.5631
" />
<path d="M203.9548 129.5631
L203.9911 129.5268
" />
<path d="M203.9911 129.5268
L204.0273 129.4543
" />
<path d="M204.0273 129.4543
L204.0636 129.3091
" />
<path d="M204.0636 129.3091
L204.0999 129.2365
" />
<path d="M204.0999 129.2365
L204.1362 129.2003
" />
<path d="M204.1362 129.2003
L204.2088 129.1640
" />
<path d="M204.2088 129.1640
L204.2813 129.1640
" />
<path d="M204.2813 129.1640
L204.3539 129.2003
" />
<path d="M204.3539 129.2003
L204.3902 129.2365
" />
<path d="M204.3902 129.2365
L204.4265 129.3091
" />
<path d="M204.4265 129.3091
L204.4265 129.4905
" />
<path d="M204.4265 129.4905
L204.3902 129.5994
" />
</g><g transform="rotate(90.000000 208.4578 129.8448)">
<text x="208.4578" y="130.2893"
textLength="12.0481" font-size="1.1853" lengthAdjust="spacingAndGlyphs"
text-anchor="end" opacity="0" stroke-opacity="0">MAG ENCODER V1</text>
</g>
<g class="stroked-text"><desc>MAG ENCODER V1</desc>
<path d="M208.0545 118.1875
L208.9435 118.1875
" />
<path d="M208.9435 118.1875
L208.3085 118.4839
" />
<path d="M208.3085 118.4839
L208.9435 118.7802
" />
<path d="M208.9435 118.7802
L208.0545 118.7802
" />
<path d="M208.3085 119.1612
L208.3085 119.5845
" />
<path d="M208.0545 119.0765
L208.9435 119.3729
" />
<path d="M208.9435 119.3729
L208.0545 119.6692
" />
<path d="M208.9011 120.4312
L208.9435 120.3465
" />
<path d="M208.9435 120.3465
L208.9435 120.2195
" />
<path d="M208.9435 120.2195
L208.9011 120.0925
" />
<path d="M208.9011 120.0925
L208.8165 120.0079
" />
<path d="M208.8165 120.0079
L208.7318 119.9655
" />
<path d="M208.7318 119.9655
L208.5625 119.9232
" />
<path d="M208.5625 119.9232
L208.4355 119.9232
" />
<path d="M208.4355 119.9232
L208.2661 119.9655
" />
<path d="M208.2661 119.9655
L208.1815 120.0079
" />
<path d="M208.1815 120.0079
L208.0968 120.0925
" />
<path d="M208.0968 120.0925
L208.0545 120.2195
" />
<path d="M208.0545 120.2195
L208.0545 120.3042
" />
<path d="M208.0545 120.3042
L208.0968 120.4312
" />
<path d="M208.0968 120.4312
L208.1391 120.4735
" />
<path d="M208.1391 120.4735
L208.4355 120.4735
" />
<path d="M208.4355 120.4735
L208.4355 120.3042
" />
<path d="M208.5201 121.5319
L208.5201 121.8282
" />
<path d="M208.0545 121.9552
L208.0545 121.5319
" />
<path d="M208.0545 121.5319
L208.9435 121.5319
" />
<path d="M208.9435 121.5319
L208.9435 121.9552
" />
<path d="M208.0545 122.3362
L208.9435 122.3362
" />
<path d="M208.9435 122.3362
L208.0545 122.8442
" />
<path d="M208.0545 122.8442
L208.9435 122.8442
" />
<path d="M208.1391 123.7755
L208.0968 123.7332
" />
<path d="M208.0968 123.7332
L208.0545 123.6062
" />
<path d="M208.0545 123.6062
L208.0545 123.5215
" />
<path d="M208.0545 123.5215
L208.0968 123.3945
" />
<path d="M208.0968 123.3945
L208.1815 123.3099
" />
<path d="M208.1815 123.3099
L208.2661 123.2675
" />
<path d="M208.2661 123.2675
L208.4355 123.2252
" />
<path d="M208.4355 123.2252
L208.5625 123.2252
" />
<path d="M208.5625 123.2252
L208.7318 123.2675
" />
<path d="M208.7318 123.2675
L208.8165 123.3099
" />
<path d="M208.8165 123.3099
L208.9011 123.3945
" />
<path d="M208.9011 123.3945
L208.9435 123.5215
" />
<path d="M208.9435 123.5215
L208.9435 123.6062
" />
<path d="M208.9435 123.6062
L208.9011 123.7332
" />
<path d="M208.9011 123.7332
L208.8588 123.7755
" />
<path d="M208.9435 124.3259
L208.9435 124.4952
" />
<path d="M208.9435 124.4952
L208.9011 124.5799
" />
<path d="M208.9011 124.5799
L208.8165 124.6645
" />
<path d="M208.8165 124.6645
L208.6471 124.7069
" />
<path d="M208.6471 124.7069
L208.3508 124.7069
" />
<path d="M208.3508 124.7069
L208.1815 124.6645
" />
<path d="M208.1815 124.6645
L208.0968 124.5799
" />
<path d="M208.0968 124.5799
L208.0545 124.4952
" />
<path d="M208.0545 124.4952
L208.0545 124.3259
" />
<path d="M208.0545 124.3259
L208.0968 124.2412
" />
<path d="M208.0968 124.2412
L208.1815 124.1565
" />
<path d="M208.1815 124.1565
L208.3508 124.1142
" />
<path d="M208.3508 124.1142
L208.6471 124.1142
" />
<path d="M208.6471 124.1142
L208.8165 124.1565
" />
<path d="M208.8165 124.1565
L208.9011 124.2412
" />
<path d="M208.9011 124.2412
L208.9435 124.3259
" />
<path d="M208.0545 125.0879
L208.9435 125.0879
" />
<path d="M208.9435 125.0879
L208.9435 125.2995
" />
<path d="M208.9435 125.2995
L208.9011 125.4265
" />
<path d="M208.9011 125.4265
L208.8165 125.5112
" />
<path d="M208.8165 125.5112
L208.7318 125.5535
" />
<path d="M208.7318 125.5535
L208.5625 125.5959
" />
<path d="M208.5625 125.5959
L208.4355 125.5959
" />
<path d="M208.4355 125.5959
L208.2661 125.5535
" />
<path d="M208.2661 125.5535
L208.1815 125.5112
" />
<path d="M208.1815 125.5112
L208.0968 125.4265
" />
<path d="M208.0968 125.4265
L208.0545 125.2995
" />
<path d="M208.0545 125.2995
L208.0545 125.0879
" />
<path d="M208.5201 125.9769
L208.5201 126.2732
" />
<path d="M208.0545 126.4002
L208.0545 125.9769
" />
<path d="M208.0545 125.9769
L208.9435 125.9769
" />
<path d="M208.9435 125.9769
L208.9435 126.4002
" />
<path d="M208.0545 127.2892
L208.4778 126.9929
" />
<path d="M208.0545 126.7812
L208.9435 126.7812
" />
<path d="M208.9435 126.7812
L208.9435 127.1199
" />
<path d="M208.9435 127.1199
L208.9011 127.2045
" />
<path d="M208.9011 127.2045
L208.8588 127.2469
" />
<path d="M208.8588 127.2469
L208.7741 127.2892
" />
<path d="M208.7741 127.2892
L208.6471 127.2892
" />
<path d="M208.6471 127.2892
L208.5625 127.2469
" />
<path d="M208.5625 127.2469
L208.5201 127.2045
" />
<path d="M208.5201 127.2045
L208.4778 127.1199
" />
<path d="M208.4778 127.1199
L208.4778 126.7812
" />
<path d="M208.9435 128.2205
L208.0545 128.5169
" />
<path d="M208.0545 128.5169
L208.9435 128.8132
" />
<path d="M208.0545 129.5752
L208.0545 129.0672
" />
<path d="M208.0545 129.3212
L208.9435 129.3212
" />
<path d="M208.9435 129.3212
L208.8165 129.2365
" />
<path d="M208.8165 129.2365
L208.7318 129.1519
" />
<path d="M208.7318 129.1519
L208.6895 129.0672
" />
</g></g>
<g style="fill:none; 
stroke:#000000; stroke-width:0.1270; stroke-opacity:1; 
stroke-linecap:round; stroke-linejoin:round;">
<g transform="rotate(90.000000 196.9262 121.5898)">
<text x="196.9262" y="121.9073"
textLength="1.4938" font-size="0.8467" lengthAdjust="spacingAndGlyphs"
text-anchor="middle" opacity="0" stroke-opacity="0">R3</text>
</g>
<g class="stroked-text"><desc>R3</desc>
<path d="M196.6390 121.4840
L196.9414 121.2723
" />
<path d="M196.6390 121.1211
L197.2740 121.1211
" />
<path d="M197.2740 121.1211
L197.2740 121.3630
" />
<path d="M197.2740 121.3630
L197.2438 121.4235
" />
<path d="M197.2438 121.4235
L197.2136 121.4537
" />
<path d="M197.2136 121.4537
L197.1531 121.4840
" />
<path d="M197.1531 121.4840
L197.0624 121.4840
" />
<path d="M197.0624 121.4840
L197.0019 121.4537
" />
<path d="M197.0019 121.4537
L196.9717 121.4235
" />
<path d="M196.9717 121.4235
L196.9414 121.3630
" />
<path d="M196.9414 121.3630
L196.9414 121.1211
" />
<path d="M197.2740 121.6956
L197.2740 122.0887
" />
<path d="M197.2740 122.0887
L197.0321 121.8771
" />
<path d="M197.0321 121.8771
L197.0321 121.9678
" />
<path d="M197.0321 121.9678
L197.0019 122.0283
" />
<path d="M197.0019 122.0283
L196.9717 122.0585
" />
<path d="M196.9717 122.0585
L196.9112 122.0887
" />
<path d="M196.9112 122.0887
L196.7600 122.0887
" />
<path d="M196.7600 122.0887
L196.6995 122.0585
" />
<path d="M196.6995 122.0585
L196.6693 122.0283
" />
<path d="M196.6693 122.0283
L196.6390 121.9678
" />
<path d="M196.6390 121.9678
L196.6390 121.7863
" />
<path d="M196.6390 121.7863
L196.6693 121.7259
" />
<path d="M196.6693 121.7259
L196.6995 121.6956
" />
</g><g transform="rotate(90.000000 198.8300 123.5600)">
<text x="198.8300" y="123.8775"
textLength="1.4938" font-size="0.8467" lengthAdjust="spacingAndGlyphs"
text-anchor="middle" opacity="0" stroke-opacity="0">C2</text>
</g>
<g class="stroked-text"><desc>C2</desc>
<path d="M198.6033 123.4542
L198.5731 123.4239
" />
<path d="M198.5731 123.4239
L198.5428 123.3332
" />
<path d="M198.5428 123.3332
L198.5428 123.2727
" />
<path d="M198.5428 123.2727
L198.5731 123.1820
" />
<path d="M198.5731 123.1820
L198.6336 123.1215
" />
<path d="M198.6336 123.1215
L198.6940 123.0913
" />
<path d="M198.6940 123.0913
L198.8150 123.0611
" />
<path d="M198.8150 123.0611
L198.9057 123.0611
" />
<path d="M198.9057 123.0611
L199.0267 123.0913
" />
<path d="M199.0267 123.0913
L199.0871 123.1215
" />
<path d="M199.0871 123.1215
L199.1476 123.1820
" />
<path d="M199.1476 123.1820
L199.1778 123.2727
" />
<path d="M199.1778 123.2727
L199.1778 123.3332
" />
<path d="M199.1778 123.3332
L199.1476 123.4239
" />
<path d="M199.1476 123.4239
L199.1174 123.4542
" />
<path d="M199.1174 123.6961
L199.1476 123.7263
" />
<path d="M199.1476 123.7263
L199.1778 123.7868
" />
<path d="M199.1778 123.7868
L199.1778 123.9380
" />
<path d="M199.1778 123.9380
L199.1476 123.9985
" />
<path d="M199.1476 123.9985
L199.1174 124.0287
" />
<path d="M199.1174 124.0287
L199.0569 124.0589
" />
<path d="M199.0569 124.0589
L198.9964 124.0589
" />
<path d="M198.9964 124.0589
L198.9057 124.0287
" />
<path d="M198.9057 124.0287
L198.5428 123.6658
" />
<path d="M198.5428 123.6658
L198.5428 124.0589
" />
</g><g transform="rotate(90.000000 201.8792 111.1758)">
<text x="201.8792" y="111.4933"
textLength="1.4938" font-size="0.8467" lengthAdjust="spacingAndGlyphs"
text-anchor="middle" opacity="0" stroke-opacity="0">C4</text>
</g>
<g class="stroked-text"><desc>C4</desc>
<path d="M201.6525 111.0700
L201.6223 111.0397
" />
<path d="M201.6223 111.0397
L201.5920 110.9490
" />
<path d="M201.5920 110.9490
L201.5920 110.8885
" />
<path d="M201.5920 110.8885
L201.6223 110.7978
" />
<path d="M201.6223 110.7978
L201.6828 110.7373
" />
<path d="M201.6828 110.7373
L201.7432 110.7071
" />
<path d="M201.7432 110.7071
L201.8642 110.6769
" />
<path d="M201.8642 110.6769
L201.9549 110.6769
" />
<path d="M201.9549 110.6769
L202.0759 110.7071
" />
<path d="M202.0759 110.7071
L202.1363 110.7373
" />
<path d="M202.1363 110.7373
L202.1968 110.7978
" />
<path d="M202.1968 110.7978
L202.2270 110.8885
" />
<path d="M202.2270 110.8885
L202.2270 110.9490
" />
<path d="M202.2270 110.9490
L202.1968 111.0397
" />
<path d="M202.1968 111.0397
L202.1666 111.0700
" />
<path d="M202.0154 111.6143
L201.5920 111.6143
" />
<path d="M202.2573 111.4631
L201.8037 111.3119
" />
<path d="M201.8037 111.3119
L201.8037 111.7050
" />
</g><g transform="rotate(90.000000 197.0786 117.3988)">
<text x="197.0786" y="117.7163"
textLength="1.5240" font-size="0.8467" lengthAdjust="spacingAndGlyphs"
text-anchor="middle" opacity="0" stroke-opacity="0">U2</text>
</g>
<g class="stroked-text"><desc>U2</desc>
<path d="M197.4264 116.9150
L196.9124 116.9150
" />
<path d="M196.9124 116.9150
L196.8519 116.9452
" />
<path d="M196.8519 116.9452
L196.8217 116.9755
" />
<path d="M196.8217 116.9755
L196.7914 117.0359
" />
<path d="M196.7914 117.0359
L196.7914 117.1569
" />
<path d="M196.7914 117.1569
L196.8217 117.2174
" />
<path d="M196.8217 117.2174
L196.8519 117.2476
" />
<path d="M196.8519 117.2476
L196.9124 117.2778
" />
<path d="M196.9124 117.2778
L197.4264 117.2778
" />
<path d="M197.3660 117.5500
L197.3962 117.5802
" />
<path d="M197.3962 117.5802
L197.4264 117.6407
" />
<path d="M197.4264 117.6407
L197.4264 117.7919
" />
<path d="M197.4264 117.7919
L197.3962 117.8524
" />
<path d="M197.3962 117.8524
L197.3660 117.8826
" />
<path d="M197.3660 117.8826
L197.3055 117.9128
" />
<path d="M197.3055 117.9128
L197.2450 117.9128
" />
<path d="M197.2450 117.9128
L197.1543 117.8826
" />
<path d="M197.1543 117.8826
L196.7914 117.5198
" />
<path d="M196.7914 117.5198
L196.7914 117.9128
" />
</g><g transform="rotate(90.000000 199.3392 131.6990)">
<text x="199.3392" y="132.0165"
textLength="1.4938" font-size="0.8467" lengthAdjust="spacingAndGlyphs"
text-anchor="middle" opacity="0" stroke-opacity="0">R7</text>
</g>
<g class="stroked-text"><desc>R7</desc>
<path d="M199.0520 131.5932
L199.3544 131.3815
" />
<path d="M199.0520 131.2303
L199.6870 131.2303
" />
<path d="M199.6870 131.2303
L199.6870 131.4722
" />
<path d="M199.6870 131.4722
L199.6568 131.5327
" />
<path d="M199.6568 131.5327
L199.6266 131.5629
" />
<path d="M199.6266 131.5629
L199.5661 131.5932
" />
<path d="M199.5661 131.5932
L199.4754 131.5932
" />
<path d="M199.4754 131.5932
L199.4149 131.5629
" />
<path d="M199.4149 131.5629
L199.3847 131.5327
" />
<path d="M199.3847 131.5327
L199.3544 131.4722
" />
<path d="M199.3544 131.4722
L199.3544 131.2303
" />
<path d="M199.6870 131.8048
L199.6870 132.2282
" />
<path d="M199.6870 132.2282
L199.0520 131.9560
" />
</g><text x="203.6572" y="119.4943"
textLength="1.4938" font-size="0.8467" lengthAdjust="spacingAndGlyphs"
text-anchor="middle" opacity="0" stroke-opacity="0">C5</text>
<g class="stroked-text"><desc>C5</desc>
<path d="M203.5514 119.4035
L203.5211 119.4337
" />
<path d="M203.5211 119.4337
L203.4304 119.4640
" />
<path d="M203.4304 119.4640
L203.3699 119.4640
" />
<path d="M203.3699 119.4640
L203.2792 119.4337
" />
<path d="M203.2792 119.4337
L203.2187 119.3732
" />
<path d="M203.2187 119.3732
L203.1885 119.3128
" />
<path d="M203.1885 119.3128
L203.1583 119.1918
" />
<path d="M203.1583 119.1918
L203.1583 119.1011
" />
<path d="M203.1583 119.1011
L203.1885 118.9801
" />
<path d="M203.1885 118.9801
L203.2187 118.9197
" />
<path d="M203.2187 118.9197
L203.2792 118.8592
" />
<path d="M203.2792 118.8592
L203.3699 118.8290
" />
<path d="M203.3699 118.8290
L203.4304 118.8290
" />
<path d="M203.4304 118.8290
L203.5211 118.8592
" />
<path d="M203.5211 118.8592
L203.5514 118.8894
" />
<path d="M204.1259 118.8290
L203.8235 118.8290
" />
<path d="M203.8235 118.8290
L203.7933 119.1313
" />
<path d="M203.7933 119.1313
L203.8235 119.1011
" />
<path d="M203.8235 119.1011
L203.8840 119.0709
" />
<path d="M203.8840 119.0709
L204.0352 119.0709
" />
<path d="M204.0352 119.0709
L204.0957 119.1011
" />
<path d="M204.0957 119.1011
L204.1259 119.1313
" />
<path d="M204.1259 119.1313
L204.1561 119.1918
" />
<path d="M204.1561 119.1918
L204.1561 119.3430
" />
<path d="M204.1561 119.3430
L204.1259 119.4035
" />
<path d="M204.1259 119.4035
L204.0957 119.4337
" />
<path d="M204.0957 119.4337
L204.0352 119.4640
" />
<path d="M204.0352 119.4640
L203.8840 119.4640
" />
<path d="M203.8840 119.4640
L203.8235 119.4337
" />
<path d="M203.8235 119.4337
L203.7933 119.4035
" />
</g><g transform="rotate(90.000000 195.8594 134.1374)">
<text x="195.8594" y="134.4549"
textLength="1.4938" font-size="0.8467" lengthAdjust="spacingAndGlyphs"
text-anchor="middle" opacity="0" stroke-opacity="0">R5</text>
</g>
<g class="stroked-text"><desc>R5</desc>
<path d="M195.5722 134.0316
L195.8746 133.8199
" />
<path d="M195.5722 133.6687
L196.2072 133.6687
" />
<path d="M196.2072 133.6687
L196.2072 133.9106
" />
<path d="M196.2072 133.9106
L196.1770 133.9711
" />
<path d="M196.1770 133.9711
L196.1468 134.0013
" />
<path d="M196.1468 134.0013
L196.0863 134.0316
" />
<path d="M196.0863 134.0316
L195.9956 134.0316
" />
<path d="M195.9956 134.0316
L195.9351 134.0013
" />
<path d="M195.9351 134.0013
L195.9049 133.9711
" />
<path d="M195.9049 133.9711
L195.8746 133.9106
" />
<path d="M195.8746 133.9106
L195.8746 133.6687
" />
<path d="M196.2072 134.6061
L196.2072 134.3037
" />
<path d="M196.2072 134.3037
L195.9049 134.2735
" />
<path d="M195.9049 134.2735
L195.9351 134.3037
" />
<path d="M195.9351 134.3037
L195.9653 134.3642
" />
<path d="M195.9653 134.3642
L195.9653 134.5154
" />
<path d="M195.9653 134.5154
L195.9351 134.5759
" />
<path d="M195.9351 134.5759
L195.9049 134.6061
" />
<path d="M195.9049 134.6061
L195.8444 134.6363
" />
<path d="M195.8444 134.6363
L195.6932 134.6363
" />
<path d="M195.6932 134.6363
L195.6327 134.6061
" />
<path d="M195.6327 134.6061
L195.6025 134.5759
" />
<path d="M195.6025 134.5759
L195.5722 134.5154
" />
<path d="M195.5722 134.5154
L195.5722 134.3642
" />
<path d="M195.5722 134.3642
L195.6025 134.3037
" />
<path d="M195.6025 134.3037
L195.6327 134.2735
" />
</g><g transform="rotate(90.000000 193.5988 123.5710)">
<text x="193.5988" y="123.8885"
textLength="1.4938" font-size="0.8467" lengthAdjust="spacingAndGlyphs"
text-anchor="middle" opacity="0" stroke-opacity="0">R2</text>
</g>
<g class="stroked-text"><desc>R2</desc>
<path d="M193.3116 123.4652
L193.6140 123.2535
" />
<path d="M193.3116 123.1023
L193.9466 123.1023
" />
<path d="M193.9466 123.1023
L193.9466 123.3442
" />
<path d="M193.9466 123.3442
L193.9164 123.4047
" />
<path d="M193.9164 123.4047
L193.8862 123.4349
" />
<path d="M193.8862 123.4349
L193.8257 123.4652
" />
<path d="M193.8257 123.4652
L193.7350 123.4652
" />
<path d="M193.7350 123.4652
L193.6745 123.4349
" />
<path d="M193.6745 123.4349
L193.6443 123.4047
" />
<path d="M193.6443 123.4047
L193.6140 123.3442
" />
<path d="M193.6140 123.3442
L193.6140 123.1023
" />
<path d="M193.8862 123.7071
L193.9164 123.7373
" />
<path d="M193.9164 123.7373
L193.9466 123.7978
" />
<path d="M193.9466 123.7978
L193.9466 123.9490
" />
<path d="M193.9466 123.9490
L193.9164 124.0095
" />
<path d="M193.9164 124.0095
L193.8862 124.0397
" />
<path d="M193.8862 124.0397
L193.8257 124.0699
" />
<path d="M193.8257 124.0699
L193.7652 124.0699
" />
<path d="M193.7652 124.0699
L193.6745 124.0397
" />
<path d="M193.6745 124.0397
L193.3116 123.6768
" />
<path d="M193.3116 123.6768
L193.3116 124.0699
" />
</g><text x="194.6148" y="128.0541"
textLength="1.4938" font-size="0.8467" lengthAdjust="spacingAndGlyphs"
text-anchor="middle" opacity="0" stroke-opacity="0">C1</text>
<g class="stroked-text"><desc>C1</desc>
<path d="M194.5090 127.9633
L194.4787 127.9935
" />
<path d="M194.4787 127.9935
L194.3880 128.0238
" />
<path d="M194.3880 128.0238
L194.3275 128.0238
" />
<path d="M194.3275 128.0238
L194.2368 127.9935
" />
<path d="M194.2368 127.9935
L194.1763 127.9330
" />
<path d="M194.1763 127.9330
L194.1461 127.8726
" />
<path d="M194.1461 127.8726
L194.1159 127.7516
" />
<path d="M194.1159 127.7516
L194.1159 127.6609
" />
<path d="M194.1159 127.6609
L194.1461 127.5399
" />
<path d="M194.1461 127.5399
L194.1763 127.4795
" />
<path d="M194.1763 127.4795
L194.2368 127.4190
" />
<path d="M194.2368 127.4190
L194.3275 127.3888
" />
<path d="M194.3275 127.3888
L194.3880 127.3888
" />
<path d="M194.3880 127.3888
L194.4787 127.4190
" />
<path d="M194.4787 127.4190
L194.5090 127.4492
" />
<path d="M195.1137 128.0238
L194.7509 128.0238
" />
<path d="M194.9323 128.0238
L194.9323 127.3888
" />
<path d="M194.9323 127.3888
L194.8718 127.4795
" />
<path d="M194.8718 127.4795
L194.8113 127.5399
" />
<path d="M194.8113 127.5399
L194.7509 127.5702
" />
</g><text x="196.7484" y="120.4595"
textLength="1.4938" font-size="0.8467" lengthAdjust="spacingAndGlyphs"
text-anchor="middle" opacity="0" stroke-opacity="0">R1</text>
<g class="stroked-text"><desc>R1</desc>
<path d="M196.6426 120.4292
L196.4309 120.1268
" />
<path d="M196.2797 120.4292
L196.2797 119.7942
" />
<path d="M196.2797 119.7942
L196.5216 119.7942
" />
<path d="M196.5216 119.7942
L196.5821 119.8244
" />
<path d="M196.5821 119.8244
L196.6123 119.8546
" />
<path d="M196.6123 119.8546
L196.6426 119.9151
" />
<path d="M196.6426 119.9151
L196.6426 120.0058
" />
<path d="M196.6426 120.0058
L196.6123 120.0663
" />
<path d="M196.6123 120.0663
L196.5821 120.0965
" />
<path d="M196.5821 120.0965
L196.5216 120.1268
" />
<path d="M196.5216 120.1268
L196.2797 120.1268
" />
<path d="M197.2473 120.4292
L196.8845 120.4292
" />
<path d="M197.0659 120.4292
L197.0659 119.7942
" />
<path d="M197.0659 119.7942
L197.0054 119.8849
" />
<path d="M197.0054 119.8849
L196.9449 119.9453
" />
<path d="M196.9449 119.9453
L196.8845 119.9756
" />
</g><text x="197.6120" y="128.0795"
textLength="1.4938" font-size="0.8467" lengthAdjust="spacingAndGlyphs"
text-anchor="middle" opacity="0" stroke-opacity="0">R4</text>
<g class="stroked-text"><desc>R4</desc>
<path d="M197.5062 128.0492
L197.2945 127.7468
" />
<path d="M197.1433 128.0492
L197.1433 127.4142
" />
<path d="M197.1433 127.4142
L197.3852 127.4142
" />
<path d="M197.3852 127.4142
L197.4457 127.4444
" />
<path d="M197.4457 127.4444
L197.4759 127.4746
" />
<path d="M197.4759 127.4746
L197.5062 127.5351
" />
<path d="M197.5062 127.5351
L197.5062 127.6258
" />
<path d="M197.5062 127.6258
L197.4759 127.6863
" />
<path d="M197.4759 127.6863
L197.4457 127.7165
" />
<path d="M197.4457 127.7165
L197.3852 127.7468
" />
<path d="M197.3852 127.7468
L197.1433 127.7468
" />
<path d="M198.0505 127.6258
L198.0505 128.0492
" />
<path d="M197.8993 127.3839
L197.7481 127.8375
" />
<path d="M197.7481 127.8375
L198.1412 127.8375
" />
</g><g transform="rotate(90.000000 198.6534 113.0300)">
<text x="198.6534" y="113.3475"
textLength="1.4938" font-size="0.8467" lengthAdjust="spacingAndGlyphs"
text-anchor="middle" opacity="0" stroke-opacity="0">C3</text>
</g>
<g class="stroked-text"><desc>C3</desc>
<path d="M198.4267 112.9242
L198.3965 112.8939
" />
<path d="M198.3965 112.8939
L198.3662 112.8032
" />
<path d="M198.3662 112.8032
L198.3662 112.7427
" />
<path d="M198.3662 112.7427
L198.3965 112.6520
" />
<path d="M198.3965 112.6520
L198.4570 112.5915
" />
<path d="M198.4570 112.5915
L198.5174 112.5613
" />
<path d="M198.5174 112.5613
L198.6384 112.5311
" />
<path d="M198.6384 112.5311
L198.7291 112.5311
" />
<path d="M198.7291 112.5311
L198.8501 112.5613
" />
<path d="M198.8501 112.5613
L198.9105 112.5915
" />
<path d="M198.9105 112.5915
L198.9710 112.6520
" />
<path d="M198.9710 112.6520
L199.0012 112.7427
" />
<path d="M199.0012 112.7427
L199.0012 112.8032
" />
<path d="M199.0012 112.8032
L198.9710 112.8939
" />
<path d="M198.9710 112.8939
L198.9408 112.9242
" />
<path d="M199.0012 113.1358
L199.0012 113.5289
" />
<path d="M199.0012 113.5289
L198.7593 113.3173
" />
<path d="M198.7593 113.3173
L198.7593 113.4080
" />
<path d="M198.7593 113.4080
L198.7291 113.4685
" />
<path d="M198.7291 113.4685
L198.6989 113.4987
" />
<path d="M198.6989 113.4987
L198.6384 113.5289
" />
<path d="M198.6384 113.5289
L198.4872 113.5289
" />
<path d="M198.4872 113.5289
L198.4267 113.4987
" />
<path d="M198.4267 113.4987
L198.3965 113.4685
" />
<path d="M198.3965 113.4685
L198.3662 113.4080
" />
<path d="M198.3662 113.4080
L198.3662 113.2265
" />
<path d="M198.3662 113.2265
L198.3965 113.1661
" />
<path d="M198.3965 113.1661
L198.4267 113.1358
" />
</g><text x="203.1746" y="121.5517"
textLength="1.5240" font-size="0.8467" lengthAdjust="spacingAndGlyphs"
text-anchor="middle" opacity="0" stroke-opacity="0">U3</text>
<g class="stroked-text"><desc>U3</desc>
<path d="M202.6908 120.8864
L202.6908 121.4004
" />
<path d="M202.6908 121.4004
L202.7210 121.4609
" />
<path d="M202.7210 121.4609
L202.7513 121.4911
" />
<path d="M202.7513 121.4911
L202.8117 121.5214
" />
<path d="M202.8117 121.5214
L202.9327 121.5214
" />
<path d="M202.9327 121.5214
L202.9932 121.4911
" />
<path d="M202.9932 121.4911
L203.0234 121.4609
" />
<path d="M203.0234 121.4609
L203.0536 121.4004
" />
<path d="M203.0536 121.4004
L203.0536 120.8864
" />
<path d="M203.2956 120.8864
L203.6886 120.8864
" />
<path d="M203.6886 120.8864
L203.4770 121.1283
" />
<path d="M203.4770 121.1283
L203.5677 121.1283
" />
<path d="M203.5677 121.1283
L203.6282 121.1585
" />
<path d="M203.6282 121.1585
L203.6584 121.1887
" />
<path d="M203.6584 121.1887
L203.6886 121.2492
" />
<path d="M203.6886 121.2492
L203.6886 121.4004
" />
<path d="M203.6886 121.4004
L203.6584 121.4609
" />
<path d="M203.6584 121.4609
L203.6282 121.4911
" />
<path d="M203.6282 121.4911
L203.5677 121.5214
" />
<path d="M203.5677 121.5214
L203.3863 121.5214
" />
<path d="M203.3863 121.5214
L203.3258 121.4911
" />
<path d="M203.3258 121.4911
L203.2956 121.4609
" />
</g><g transform="rotate(90.000000 197.2056 131.5720)">
<text x="197.2056" y="131.8895"
textLength="1.4938" font-size="0.8467" lengthAdjust="spacingAndGlyphs"
text-anchor="middle" opacity="0" stroke-opacity="0">R6</text>
</g>
<g class="stroked-text"><desc>R6</desc>
<path d="M196.9184 131.4662
L197.2208 131.2545
" />
<path d="M196.9184 131.1033
L197.5534 131.1033
" />
<path d="M197.5534 131.1033
L197.5534 131.3452
" />
<path d="M197.5534 131.3452
L197.5232 131.4057
" />
<path d="M197.5232 131.4057
L197.4930 131.4359
" />
<path d="M197.4930 131.4359
L197.4325 131.4662
" />
<path d="M197.4325 131.4662
L197.3418 131.4662
" />
<path d="M197.3418 131.4662
L197.2813 131.4359
" />
<path d="M197.2813 131.4359
L197.2511 131.4057
" />
<path d="M197.2511 131.4057
L197.2208 131.3452
" />
<path d="M197.2208 131.3452
L197.2208 131.1033
" />
<path d="M197.5534 132.0105
L197.5534 131.8895
" />
<path d="M197.5534 131.8895
L197.5232 131.8290
" />
<path d="M197.5232 131.8290
L197.4930 131.7988
" />
<path d="M197.4930 131.7988
L197.4023 131.7383
" />
<path d="M197.4023 131.7383
L197.2813 131.7081
" />
<path d="M197.2813 131.7081
L197.0394 131.7081
" />
<path d="M197.0394 131.7081
L196.9789 131.7383
" />
<path d="M196.9789 131.7383
L196.9487 131.7685
" />
<path d="M196.9487 131.7685
L196.9184 131.8290
" />
<path d="M196.9184 131.8290
L196.9184 131.9500
" />
<path d="M196.9184 131.9500
L196.9487 132.0105
" />
<path d="M196.9487 132.0105
L196.9789 132.0407
" />
<path d="M196.9789 132.0407
L197.0394 132.0709
" />
<path d="M197.0394 132.0709
L197.1906 132.0709
" />
<path d="M197.1906 132.0709
L197.2511 132.0407
" />
<path d="M197.2511 132.0407
L197.2813 132.0105
" />
<path d="M197.2813 132.0105
L197.3115 131.9500
" />
<path d="M197.3115 131.9500
L197.3115 131.8290
" />
<path d="M197.3115 131.8290
L197.2813 131.7685
" />
<path d="M197.2813 131.7685
L197.2511 131.7383
" />
<path d="M197.2511 131.7383
L197.1906 131.7081
" />
</g><g transform="rotate(90.000000 203.9366 113.0300)">
<text x="203.9366" y="113.3475"
textLength="1.4938" font-size="0.8467" lengthAdjust="spacingAndGlyphs"
text-anchor="middle" opacity="0" stroke-opacity="0">R8</text>
</g>
<g class="stroked-text"><desc>R8</desc>
<path d="M203.6494 112.9242
L203.9518 112.7125
" />
<path d="M203.6494 112.5613
L204.2844 112.5613
" />
<path d="M204.2844 112.5613
L204.2844 112.8032
" />
<path d="M204.2844 112.8032
L204.2542 112.8637
" />
<path d="M204.2542 112.8637
L204.2240 112.8939
" />
<path d="M204.2240 112.8939
L204.1635 112.9242
" />
<path d="M204.1635 112.9242
L204.0728 112.9242
" />
<path d="M204.0728 112.9242
L204.0123 112.8939
" />
<path d="M204.0123 112.8939
L203.9821 112.8637
" />
<path d="M203.9821 112.8637
L203.9518 112.8032
" />
<path d="M203.9518 112.8032
L203.9518 112.5613
" />
<path d="M204.0123 113.2870
L204.0425 113.2265
" />
<path d="M204.0425 113.2265
L204.0728 113.1963
" />
<path d="M204.0728 113.1963
L204.1333 113.1661
" />
<path d="M204.1333 113.1661
L204.1635 113.1661
" />
<path d="M204.1635 113.1661
L204.2240 113.1963
" />
<path d="M204.2240 113.1963
L204.2542 113.2265
" />
<path d="M204.2542 113.2265
L204.2844 113.2870
" />
<path d="M204.2844 113.2870
L204.2844 113.4080
" />
<path d="M204.2844 113.4080
L204.2542 113.4685
" />
<path d="M204.2542 113.4685
L204.2240 113.4987
" />
<path d="M204.2240 113.4987
L204.1635 113.5289
" />
<path d="M204.1635 113.5289
L204.1333 113.5289
" />
<path d="M204.1333 113.5289
L204.0728 113.4987
" />
<path d="M204.0728 113.4987
L204.0425 113.4685
" />
<path d="M204.0425 113.4685
L204.0123 113.4080
" />
<path d="M204.0123 113.4080
L204.0123 113.2870
" />
<path d="M204.0123 113.2870
L203.9821 113.2265
" />
<path d="M203.9821 113.2265
L203.9518 113.1963
" />
<path d="M203.9518 113.1963
L203.8913 113.1661
" />
<path d="M203.8913 113.1661
L203.7704 113.1661
" />
<path d="M203.7704 113.1661
L203.7099 113.1963
" />
<path d="M203.7099 113.1963
L203.6797 113.2265
" />
<path d="M203.6797 113.2265
L203.6494 113.2870
" />
<path d="M203.6494 113.2870
L203.6494 113.4080
" />
<path d="M203.6494 113.4080
L203.6797 113.4685
" />
<path d="M203.6797 113.4685
L203.7099 113.4987
" />
<path d="M203.7099 113.4987
L203.7704 113.5289
" />
<path d="M203.7704 113.5289
L203.8913 113.5289
" />
<path d="M203.8913 113.5289
L203.9518 113.4987
" />
<path d="M203.9518 113.4987
L203.9821 113.4685
" />
<path d="M203.9821 113.4685
L204.0123 113.4080
" />
</g></g>
<g style="fill:none; 
stroke:#000000; stroke-width:0.1200; stroke-opacity:1; 
stroke-linecap:round; stroke-linejoin:round;">
<path d="M196.8137 123.8083
L196.8137 123.3337
" />
<path d="M195.7687 123.8083
L195.7687 123.3337
" />
<path d="M198.3252 123.4304
L198.3252 123.7116
" />
<path d="M197.3052 123.4304
L197.3052 123.7116
" />
<path d="M201.8050 113.1706
L201.8050 112.8894
" />
<path d="M200.7850 113.1706
L200.7850 112.8894
" />
</g>
<g style="fill:none; 
stroke:#000000; stroke-width:0.1000; stroke-opacity:1; 
stroke-linecap:round; stroke-linejoin:round;">
<path d="M201.1932 116.6592
L200.8932 116.6592
" />
<path d="M201.1932 117.4592
L201.1932 116.6592
" />
<path d="M201.1932 119.4592
L201.1932 118.6592
" />
<path d="M200.8932 119.4592
L201.1932 119.4592
" />
<path d="M198.2932 116.6592
L197.9932 116.6592
" />
<path d="M198.2932 119.4592
L197.9932 119.4592
" />
<path d="M197.9932 116.6592
L197.9932 117.4592
" />
<path d="M197.9932 119.4592
L197.9932 118.6592
" />
<path style="fill:#000000; fill-opacity:1.0000; 
stroke:#000000; stroke-width:0.1000; stroke-opacity:1; 
stroke-linecap:round; stroke-linejoin:round;fill-rule:evenodd;"
d="M 201.3932,116.8592
201.6932,117.1592
201.6932,116.5592
Z" /> 
</g>
<g style="fill:none; 
stroke:#000000; stroke-width:0.1200; stroke-opacity:1; 
stroke-linecap:round; stroke-linejoin:round;">
<path d="M199.8617 129.9043
L199.8617 129.4297
" />
<path d="M198.8167 129.9043
L198.8167 129.4297
" />
<path d="M203.7978 117.5492
L203.5166 117.5492
" />
<path d="M203.7978 118.5692
L203.5166 118.5692
" />
<path d="M197.6265 133.8747
L197.6265 134.3493
" />
<path d="M196.5815 133.8747
L196.5815 134.3493
" />
<path d="M195.2897 123.8083
L195.2897 123.3337
" />
<path d="M194.2447 123.8083
L194.2447 123.3337
" />
<path d="M194.4234 126.1090
L194.7046 126.1090
" />
<path d="M194.4234 127.1290
L194.7046 127.1290
" />
<path d="M194.5299 119.6195
L195.0045 119.6195
" />
<path d="M194.5299 120.6645
L195.0045 120.6645
" />
<path style="fill:#000000; fill-opacity:1.0000; stroke:none;fill-rule:evenodd;"
d="M 201.4204,135.2195
201.3699,135.2196
201.3214,135.2198
201.2761,135.2200
201.2349,135.2203
201.1988,135.2206
201.1688,135.2211
201.1460,135.2216
201.1313,135.2222
201.1257,135.2228
201.1253,135.2234
201.1237,135.2318
201.1227,135.2475
201.1222,135.2684
201.1221,135.2923
201.1225,135.3170
201.1233,135.3402
201.1245,135.3599
201.1261,135.3739
201.1279,135.3798
201.1320,135.3806
201.1452,135.3818
201.1660,135.3831
201.1930,135.3843
201.2247,135.3855
201.2596,135.3865
201.2868,135.3872
201.3190,135.3883
201.3466,135.3894
201.3682,135.3904
201.3825,135.3914
201.3880,135.3922
201.3881,135.3923
201.3887,135.3990
201.3894,135.4146
201.3902,135.4384
201.3912,135.4692
201.3922,135.5061
201.3932,135.5481
201.3942,135.5943
201.3952,135.6436
201.3962,135.6968
201.3973,135.7487
201.3985,135.7921
201.3998,135.8279
201.4013,135.8569
201.4033,135.8802
201.4058,135.8985
201.4089,135.9128
201.4129,135.9239
201.4177,135.9327
201.4235,135.9402
201.4306,135.9472
201.4388,135.9545
201.4462,135.9607
201.4559,135.9674
201.4666,135.9725
201.4797,135.9762
201.4964,135.9787
201.5181,135.9803
201.5461,135.9810
201.5817,135.9810
201.6260,135.9805
201.7564,135.9789
201.7784,135.9634
201.7849,135.9584
201.8009,135.9423
201.8132,135.9253
201.8259,135.9027
201.8289,135.5649
201.8291,135.5378
201.8296,135.4814
201.8300,135.4284
201.8302,135.3871
201.7014,135.3871
201.7013,135.5763
201.7013,135.5766
201.7011,135.6203
201.7007,135.6616
201.7002,135.6991
201.6994,135.7315
201.6985,135.7576
201.6975,135.7761
201.6965,135.7857
201.6964,135.7861
201.6926,135.7989
201.6870,135.8079
201.6781,135.8137
201.6640,135.8170
201.6432,135.8185
201.6138,135.8189
201.5968,135.8188
201.5763,135.8185
201.5625,135.8174
201.5535,135.8153
201.5470,135.8117
201.5411,135.8064
201.5287,135.7939
201.5287,135.5936
201.5287,135.5631
201.5288,135.5177
201.5290,135.4810
201.5293,135.4521
201.5299,135.4300
201.5306,135.4139
201.5317,135.4028
201.5330,135.3957
201.5347,135.3918
201.5367,135.3902
201.5395,135.3896
201.5516,135.3886
201.5709,135.3878
201.5954,135.3873
201.6231,135.3871
201.7014,135.3871
201.8302,135.3871
201.8302,135.3796
201.8304,135.3359
201.8305,135.2982
201.8305,135.2672
201.8304,135.2438
201.8302,135.2289
201.8299,135.2233
201.8295,135.2231
201.8218,135.2224
201.8052,135.2218
201.7807,135.2213
201.7493,135.2209
201.7120,135.2205
201.6698,135.2201
201.6237,135.2199
201.6231,135.2199
201.5747,135.2197
201.5239,135.2196
201.4721,135.2195
Z" /> 
<path style="fill:#000000; fill-opacity:1.0000; stroke:none;fill-rule:evenodd;"
d="M 201.4466,134.2213
201.3942,134.2213
201.3505,134.2215
201.3147,134.2218
201.2857,134.2222
201.2626,134.2229
201.2445,134.2237
201.2304,134.2248
201.2195,134.2262
201.2109,134.2279
201.2035,134.2299
201.1826,134.2385
201.1570,134.2576
201.1386,134.2837
201.1276,134.3167
201.1273,134.3186
201.1264,134.3313
201.1256,134.3525
201.1249,134.3811
201.1244,134.4158
201.1239,134.4555
201.1236,134.4989
201.1234,134.5447
201.1234,134.5918
201.1234,134.6390
201.1236,134.6849
201.1239,134.7285
201.1244,134.7684
201.1250,134.8035
201.1257,134.8325
201.1266,134.8542
201.1274,134.8672
201.1290,134.8908
201.1311,134.9075
201.1339,134.9196
201.1380,134.9293
201.1439,134.9390
201.1485,134.9452
201.1639,134.9608
201.1807,134.9733
201.1824,134.9743
201.1919,134.9793
201.2019,134.9830
201.2143,134.9858
201.2310,134.9880
201.2541,134.9900
201.2853,134.9921
201.2904,134.9924
201.3231,134.9941
201.3480,134.9947
201.3644,134.9942
201.3716,134.9925
201.3732,134.9894
201.3770,134.9776
201.3818,134.9595
201.3873,134.9370
201.3930,134.9125
201.3982,134.8880
201.4025,134.8659
201.4055,134.8482
201.4067,134.8372
201.4068,134.8232
201.3356,134.8232
201.2645,134.8232
201.2645,134.6073
201.2645,134.3914
201.4804,134.3914
201.6963,134.3914
201.6963,134.6065
201.6963,134.8216
201.6345,134.8250
201.6335,134.8250
201.6097,134.8265
201.5899,134.8280
201.5761,134.8294
201.5704,134.8306
201.5702,134.8329
201.5709,134.8437
201.5730,134.8617
201.5760,134.8852
201.5798,134.9124
201.5814,134.9225
201.5866,134.9540
201.5911,134.9761
201.5951,134.9895
201.5988,134.9947
201.5999,134.9949
201.6097,134.9953
201.6270,134.9950
201.6498,134.9939
201.6758,134.9921
201.6861,134.9913
201.7233,134.9869
201.7524,134.9807
201.7747,134.9719
201.7919,134.9597
201.8054,134.9434
201.8167,134.9222
201.8182,134.9186
201.8200,134.9128
201.8215,134.9053
201.8227,134.8952
201.8237,134.8816
201.8246,134.8638
201.8253,134.8408
201.8259,134.8119
201.8263,134.7763
201.8267,134.7329
201.8271,134.6811
201.8275,134.6200
201.8277,134.5669
201.8279,134.5033
201.8278,134.4493
201.8274,134.4046
201.8268,134.3688
201.8259,134.3416
201.8248,134.3227
201.8234,134.3118
201.8179,134.2946
201.8020,134.2679
201.7797,134.2456
201.7534,134.2305
201.7532,134.2305
201.7471,134.2284
201.7399,134.2266
201.7309,134.2252
201.7190,134.2240
201.7035,134.2231
201.6833,134.2224
201.6575,134.2219
201.6253,134.2216
201.5856,134.2214
201.5376,134.2213
201.4804,134.2213
Z" /> 
<path style="fill:#000000; fill-opacity:1.0000; stroke:none;fill-rule:evenodd;"
d="M 201.8205,132.9589
201.8134,132.9613
201.7979,132.9669
201.7749,132.9753
201.7454,132.9863
201.7103,132.9995
201.6704,133.0144
201.6268,133.0308
201.5803,133.0484
201.5319,133.0667
201.4825,133.0854
201.4330,133.1042
201.3843,133.1227
201.3374,133.1405
201.2932,133.1574
201.2526,133.1729
201.2165,133.1868
201.1859,133.1986
201.1617,133.2080
201.1448,133.2147
201.1361,133.2183
201.1220,133.2248
201.1234,133.2834
201.1248,133.3421
201.3582,133.4386
201.5916,133.5351
201.5589,133.5498
201.5558,133.5512
201.5410,133.5574
201.5184,133.5669
201.4891,133.5789
201.4545,133.5930
201.4158,133.6088
201.3740,133.6257
201.3306,133.6433
201.3111,133.6511
201.2700,133.6677
201.2323,133.6832
201.1988,133.6969
201.1707,133.7087
201.1489,133.7179
201.1346,133.7242
201.1286,133.7271
201.1272,133.7292
201.1245,133.7401
201.1227,133.7574
201.1220,133.7781
201.1222,133.7996
201.1235,133.8193
201.1257,133.8343
201.1289,133.8419
201.1318,133.8435
201.1437,133.8488
201.1635,133.8571
201.1903,133.8680
201.2233,133.8812
201.2614,133.8963
201.3038,133.9130
201.3495,133.9309
201.3975,133.9496
201.4470,133.9688
201.4969,133.9881
201.5464,134.0072
201.5946,134.0256
201.6404,134.0431
201.6830,134.0592
201.7214,134.0737
201.7547,134.0860
201.7819,134.0960
201.8021,134.1032
201.8144,134.1072
201.8212,134.1089
201.8280,134.1072
201.8317,134.0982
201.8317,134.0982
201.8327,134.0880
201.8330,134.0711
201.8325,134.0500
201.8315,134.0269
201.8301,134.0044
201.8284,133.9848
201.8265,133.9705
201.8245,133.9640
201.8209,133.9624
201.8086,133.9574
201.7884,133.9496
201.7615,133.9394
201.7287,133.9271
201.6910,133.9130
201.6494,133.8976
201.6049,133.8812
201.5695,133.8682
201.5269,133.8526
201.4879,133.8383
201.4535,133.8256
201.4246,133.8150
201.4023,133.8068
201.3876,133.8014
201.3814,133.7991
201.3813,133.7991
201.3790,133.7980
201.3781,133.7967
201.3794,133.7948
201.3836,133.7920
201.3913,133.7880
201.4034,133.7824
201.4205,133.7749
201.4434,133.7652
201.4729,133.7530
201.5095,133.7379
201.5541,133.7197
201.6074,133.6979
201.6378,133.6855
201.6797,133.6682
201.7182,133.6521
201.7523,133.6377
201.7810,133.6253
201.8033,133.6155
201.8181,133.6086
201.8246,133.6051
201.8265,133.6032
201.8300,133.5968
201.8321,133.5864
201.8332,133.5700
201.8335,133.5454
201.8335,133.5390
201.8326,133.5127
201.8305,133.4960
201.8271,133.4883
201.8224,133.4860
201.8090,133.4801
201.7880,133.4712
201.7604,133.4597
201.7270,133.4461
201.6889,133.4306
201.6470,133.4136
201.6023,133.3957
201.5627,133.3798
201.5206,133.3628
201.4822,133.3473
201.4486,133.3335
201.4205,133.3219
201.3990,133.3129
201.3851,133.3069
201.3796,133.3043
201.3796,133.3042
201.3798,133.3026
201.3831,133.3001
201.3901,133.2964
201.4016,133.2912
201.4180,133.2843
201.4401,133.2754
201.4686,133.2643
201.5039,133.2506
201.5469,133.2343
201.5981,133.2149
201.6582,133.1922
201.6779,133.1848
201.7143,133.1707
201.7475,133.1575
201.7761,133.1459
201.7988,133.1361
201.8146,133.1289
201.8220,133.1247
201.8225,133.1243
201.8282,133.1178
201.8316,133.1093
201.8331,133.0961
201.8335,133.0756
201.8333,133.0549
201.8321,133.0243
201.8302,132.9979
201.8275,132.9772
201.8243,132.9637
201.8208,132.9588
Z" /> 
<path style="fill:#000000; fill-opacity:1.0000; stroke:none;fill-rule:evenodd;"
d="M 201.1010,131.9059
201.0775,131.9090
201.0490,131.9134
201.0169,131.9190
200.9827,131.9255
200.9480,131.9326
200.9143,131.9401
200.8829,131.9477
200.8598,131.9537
200.8177,131.9653
200.7759,131.9775
200.7356,131.9899
200.6981,132.0022
200.6644,132.0138
200.6358,132.0244
200.6135,132.0337
200.5986,132.0411
200.5924,132.0464
200.5920,132.0491
200.5917,132.0609
200.5917,132.0810
200.5920,132.1079
200.5925,132.1405
200.5932,132.1775
200.5942,132.2176
200.5947,132.2351
200.5957,132.2772
200.5967,132.3175
200.5975,132.3543
200.5982,132.3859
200.5986,132.4107
200.5988,132.4270
200.5990,132.4717
200.5803,132.4795
200.5725,132.4829
200.5507,132.4936
200.5229,132.5082
200.4909,132.5256
200.4565,132.5449
200.4215,132.5650
200.3877,132.5850
200.3568,132.6039
200.3395,132.6145
200.3161,132.6282
200.2962,132.6391
200.2815,132.6463
200.2736,132.6490
200.2722,132.6486
200.2627,132.6445
200.2458,132.6358
200.2225,132.6232
200.1938,132.6073
200.1608,132.5885
200.1243,132.5675
200.0855,132.5448
200.0709,132.5363
200.0332,132.5142
199.9985,132.4940
199.9678,132.4763
199.9420,132.4615
199.9221,132.4503
199.9091,132.4432
199.9038,132.4407
199.9036,132.4407
199.8980,132.4444
199.8862,132.4539
199.8694,132.4680
199.8490,132.4857
199.8261,132.5060
199.8132,132.5177
199.7833,132.5455
199.7517,132.5757
199.7192,132.6076
199.6866,132.6402
199.6548,132.6728
199.6245,132.7043
199.5967,132.7340
199.5720,132.7611
199.5514,132.7845
199.5357,132.8035
199.5256,132.8173
199.5221,132.8248
199.5225,132.8263
199.5269,132.8356
199.5357,132.8524
199.5484,132.8755
199.5644,132.9041
199.5831,132.9372
199.6041,132.9738
199.6268,133.0128
199.6482,133.0498
199.6723,133.0919
199.6924,133.1278
199.7084,133.1571
199.7199,133.1793
199.7267,133.1939
199.7285,133.2003
199.7264,133.2043
199.7196,133.2162
199.7089,133.2339
199.6955,133.2558
199.6803,133.2804
199.6761,133.2871
199.6559,133.3206
199.6340,133.3581
199.6129,133.3955
199.5948,133.4287
199.5780,133.4597
199.5623,133.4862
199.5504,133.5034
199.5421,133.5113
199.5417,133.5115
199.5359,133.5131
199.5256,133.5143
199.5101,133.5151
199.4885,133.5156
199.4601,133.5158
199.4239,133.5156
199.3793,133.5151
199.3253,133.5143
199.1209,133.5109
199.1081,133.5400
199.1058,133.5451
199.0895,133.5862
199.0730,133.6348
199.0561,133.6913
199.0386,133.7562
199.0204,133.8303
199.0013,133.9139
199.0007,133.9168
198.9939,133.9483
198.9881,133.9772
198.9834,134.0019
198.9803,134.0203
198.9791,134.0307
198.9788,134.0485
199.1611,134.1496
199.1797,134.1599
199.2261,134.1859
199.2642,134.2076
199.2944,134.2252
199.3172,134.2391
199.3332,134.2496
199.3427,134.2569
199.3464,134.2614
199.3465,134.2619
199.3473,134.2711
199.3479,134.2885
199.3485,134.3129
199.3488,134.3427
199.3491,134.3765
199.3492,134.4130
199.3491,134.4506
199.3490,134.4880
199.3487,134.5238
199.3483,134.5565
199.3477,134.5847
199.3471,134.6070
199.3463,134.6220
199.3455,134.6283
199.3449,134.6288
199.3375,134.6338
199.3224,134.6429
199.3006,134.6557
199.2732,134.6715
199.2411,134.6899
199.2052,134.7102
199.1665,134.7318
199.1560,134.7377
199.1178,134.7591
199.0824,134.7791
199.0510,134.7970
199.0244,134.8122
199.0036,134.8243
198.9898,134.8326
198.9839,134.8365
198.9809,134.8405
198.9794,134.8470
198.9797,134.8577
198.9817,134.8746
198.9855,134.8996
198.9883,134.9159
198.9952,134.9507
199.0040,134.9903
199.0143,135.0334
199.0258,135.0786
199.0381,135.1245
199.0507,135.1699
199.0634,135.2135
199.0757,135.2538
199.0873,135.2895
199.0978,135.3193
199.1068,135.3419
199.1139,135.3560
199.1218,135.3680
199.3339,135.3659
199.5459,135.3638
199.5644,135.3996
199.5691,135.4087
199.6046,135.4744
199.6438,135.5426
199.6840,135.6090
199.6849,135.6105
199.7016,135.6382
199.7144,135.6614
199.7224,135.6786
199.7253,135.6888
199.7229,135.6972
199.7155,135.7137
199.7035,135.7369
199.6873,135.7660
199.6675,135.8001
199.6476,135.8338
199.6250,135.8723
199.6022,135.9112
199.5809,135.9474
199.5631,135.9780
199.5164,136.0584
199.5400,136.0872
199.5454,136.0938
199.5744,136.1275
199.6082,136.1652
199.6447,136.2046
199.6816,136.2431
199.7166,136.2785
199.7477,136.3085
199.7614,136.3212
199.7914,136.3486
199.8198,136.3742
199.8458,136.3970
199.8683,136.4162
199.8864,136.4309
199.8990,136.4404
199.9052,136.4437
199.9063,136.4435
199.9147,136.4397
199.9288,136.4322
199.9460,136.4223
199.9726,136.4064
200.0331,136.3704
200.0856,136.3392
200.1306,136.3128
200.1684,136.2907
200.1995,136.2727
200.2244,136.2586
200.2436,136.2481
200.2575,136.2409
200.2666,136.2368
200.2713,136.2354
200.2727,136.2357
200.2825,136.2396
200.2990,136.2479
200.3209,136.2598
200.3466,136.2744
200.3746,136.2909
200.4057,136.3093
200.4400,136.3292
200.4737,136.3482
200.5039,136.3648
200.5282,136.3776
200.5336,136.3804
200.5558,136.3924
200.5743,136.4033
200.5872,136.4120
200.5927,136.4174
200.5930,136.4190
200.5937,136.4296
200.5944,136.4487
200.5950,136.4754
200.5955,136.5083
200.5959,136.5465
200.5961,136.5888
200.5963,136.6341
200.5965,136.8423
200.6092,136.8484
200.6178,136.8519
200.6358,136.8583
200.6607,136.8666
200.6908,136.8763
200.7245,136.8869
200.7601,136.8978
200.7960,136.9087
200.8306,136.9189
200.8622,136.9281
200.8892,136.9356
200.9101,136.9410
200.9554,136.9517
200.9990,136.9613
201.0374,136.9692
201.0697,136.9751
201.0949,136.9789
201.1122,136.9804
201.1205,136.9794
201.1214,136.9785
201.1271,136.9704
201.1369,136.9547
201.1504,136.9324
201.1670,136.9045
201.1859,136.8719
201.2068,136.8357
201.2290,136.7967
201.3296,136.6190
201.5168,136.6178
201.5180,136.6177
201.5607,136.6176
201.6003,136.6176
201.6355,136.6178
201.6652,136.6182
201.6883,136.6188
201.7035,136.6195
201.7098,136.6203
201.7102,136.6207
201.7150,136.6278
201.7241,136.6425
201.7368,136.6639
201.7527,136.6910
201.7710,136.7229
201.7914,136.7584
201.8131,136.7968
201.8180,136.8054
201.8396,136.8434
201.8597,136.8786
201.8777,136.9100
201.8931,136.9365
201.9053,136.9571
201.9137,136.9709
201.9177,136.9769
201.9206,136.9789
201.9301,136.9809
201.9453,136.9807
201.9669,136.9781
201.9957,136.9730
202.0322,136.9653
202.0771,136.9549
202.1310,136.9417
202.1523,136.9364
202.2167,136.9196
202.2743,136.9037
202.3246,136.8887
202.3672,136.8748
202.4016,136.8623
202.4273,136.8511
202.4439,136.8416
202.4510,136.8338
202.4512,136.8328
202.4518,136.8230
202.4522,136.8044
202.4524,136.7784
202.4524,136.7459
202.4522,136.7083
202.4517,136.6666
202.4510,136.6220
202.4508,136.6089
202.4502,136.5654
202.4499,136.5252
202.4498,136.4896
202.4499,136.4597
202.4503,136.4366
202.4509,136.4214
202.4517,136.4152
202.4519,136.4149
202.4585,136.4101
202.4726,136.4011
202.4929,136.3889
202.5183,136.3740
202.5473,136.3572
202.5789,136.3392
202.6117,136.3206
202.6445,136.3022
202.6761,136.2848
202.7051,136.2689
202.7304,136.2553
202.7506,136.2447
202.7646,136.2379
202.7710,136.2354
202.7720,136.2356
202.7808,136.2395
202.7971,136.2478
202.8198,136.2600
202.8480,136.2756
202.8806,136.2940
202.9167,136.3147
202.9553,136.3370
202.9664,136.3435
203.0043,136.3654
203.0395,136.3855
203.0709,136.4032
203.0976,136.4179
203.1186,136.4290
203.1328,136.4361
203.1392,136.4386
203.1405,136.4385
203.1505,136.4334
203.1664,136.4220
203.1873,136.4051
203.2124,136.3835
203.2407,136.3580
203.2714,136.3295
203.3035,136.2987
203.3362,136.2664
203.3685,136.2335
203.3997,136.2008
203.4126,136.1870
203.4448,136.1520
203.4705,136.1233
203.4902,136.1002
203.5044,136.0821
203.5136,136.0683
203.5183,136.0582
203.5190,136.0512
203.5187,136.0501
203.5143,136.0411
203.5055,136.0246
203.4928,136.0017
203.4767,135.9733
203.4579,135.9406
203.4369,135.9045
203.4143,135.8659
203.4072,135.8540
203.3852,135.8165
203.3651,135.7820
203.3474,135.7514
203.3326,135.7257
203.3214,135.7059
203.3143,135.6929
203.3118,135.6877
203.3128,135.6852
203.3184,135.6750
203.3281,135.6582
203.3413,135.6360
203.3571,135.6098
203.3748,135.5808
203.3818,135.5694
203.4017,135.5365
203.4210,135.5039
203.4386,135.4736
203.4532,135.4477
203.4636,135.4284
203.4724,135.4116
203.4829,135.3929
203.4915,135.3790
203.4969,135.3720
203.4971,135.3719
203.5019,135.3702
203.5117,135.3689
203.5273,135.3677
203.5493,135.3668
203.5785,135.3661
203.6157,135.3656
203.6615,135.3652
203.7168,135.3649
203.9290,135.3642
203.9654,135.2553
203.9715,135.2367
203.9859,135.1907
203.9999,135.1430
204.0133,135.0948
204.0257,135.0474
204.0369,135.0021
204.0464,134.9601
204.0541,134.9227
204.0596,134.8911
204.0625,134.8667
204.0627,134.8507
204.0627,134.8505
204.0617,134.8466
204.0590,134.8423
204.0539,134.8372
204.0455,134.8307
204.0331,134.8224
204.0158,134.8117
203.9929,134.7980
203.9636,134.7809
203.9270,134.7599
203.8823,134.7344
203.8674,134.7259
203.8294,134.7042
203.7946,134.6842
203.7638,134.6666
203.7381,134.6517
203.7184,134.6402
203.7056,134.6327
203.7007,134.6296
203.7000,134.6242
203.6993,134.6098
203.6987,134.5875
203.6981,134.5585
203.6976,134.5239
203.6974,134.5046
203.2844,134.5046
203.2756,134.6336
203.2571,134.7616
203.2291,134.8880
203.1917,135.0121
203.1451,135.1333
203.0895,135.2509
203.0252,135.3644
202.9523,135.4729
202.8697,135.5782
202.7793,135.6774
202.6827,135.7688
202.5802,135.8522
202.4722,135.9272
202.3590,135.9938
202.2409,136.0518
202.1183,136.1009
201.9915,136.1409
201.8609,136.1717
201.7268,136.1930
201.6778,136.1978
201.6068,136.2018
201.5309,136.2030
201.4532,136.2015
201.3763,136.1974
201.3031,136.1908
201.2366,136.1818
201.1948,136.1744
201.0654,136.1448
200.9398,136.1061
200.8183,136.0586
200.7014,136.0026
200.5893,135.9384
200.4826,135.8664
200.3815,135.7870
200.2866,135.7005
200.1980,135.6072
200.1164,135.5075
200.0420,135.4018
199.9751,135.2903
199.9164,135.1734
199.8660,135.0515
199.8244,134.9249
199.8170,134.8983
199.7967,134.8124
199.7805,134.7240
199.7691,134.6367
199.7631,134.5540
199.7621,134.5294
199.7610,134.5017
199.7599,134.4774
199.7592,134.4600
199.7590,134.4539
199.7589,134.4342
199.7593,134.4083
199.7600,134.3787
199.7612,134.3482
199.7614,134.3424
199.7724,134.2105
199.7930,134.0816
199.8234,133.9557
199.8633,133.8331
199.9128,133.7138
199.9718,133.5980
200.0403,133.4858
200.0664,133.4475
200.1490,133.3372
200.2375,133.2349
200.3317,133.1407
200.4312,133.0549
200.5359,132.9775
200.6456,132.9088
200.7599,132.8488
200.8787,132.7977
201.0017,132.7558
201.1287,132.7230
201.2594,132.6996
201.3828,132.6860
201.5190,132.6800
201.6526,132.6837
201.7834,132.6971
201.9114,132.7203
202.0364,132.7531
202.1585,132.7957
202.2775,132.8480
202.3935,132.9099
202.5063,132.9815
202.6158,133.0627
202.6306,133.0747
202.6637,133.1035
202.7006,133.1372
202.7395,133.1743
202.7788,133.2131
202.8170,133.2520
202.8522,133.2892
202.8829,133.3233
202.9075,133.3525
202.9369,133.3905
203.0112,133.4963
203.0763,133.6052
203.1323,133.7177
203.1794,133.8342
203.2177,133.9550
203.2474,134.0807
203.2687,134.2116
203.2817,134.3482
203.2832,134.3752
203.2844,134.5046
203.6974,134.5046
203.6972,134.4849
203.6970,134.4427
203.6969,134.4221
203.6968,134.3764
203.6970,134.3395
203.6973,134.3105
203.6979,134.2886
203.6988,134.2726
203.6999,134.2619
203.7015,134.2553
203.7034,134.2520
203.7041,134.2514
203.7120,134.2463
203.7276,134.2371
203.7498,134.2241
203.7777,134.2081
203.8101,134.1896
203.8462,134.1692
203.8850,134.1474
203.8953,134.1416
203.9332,134.1201
203.9681,134.1001
203.9989,134.0822
204.0246,134.0668
204.0445,134.0546
204.0573,134.0462
204.0623,134.0421
204.0623,134.0421
204.0627,134.0333
204.0610,134.0161
204.0575,133.9921
204.0525,133.9628
204.0463,133.9297
204.0390,133.8942
204.0311,133.8580
204.0227,133.8224
204.0181,133.8039
204.0063,133.7591
203.9938,133.7149
203.9810,133.6722
203.9683,133.6324
203.9562,133.5966
203.9449,133.5659
203.9349,133.5416
203.9266,133.5248
203.9203,133.5167
203.9189,133.5163
203.9089,133.5155
203.8902,133.5149
203.8639,133.5146
203.8311,133.5145
203.7930,133.5147
203.7506,133.5150
203.7050,133.5157
203.4963,133.5191
203.4606,133.4511
203.4519,133.4346
203.4285,133.3921
203.4032,133.3479
203.3776,133.3049
203.3533,133.2656
203.3318,133.2328
203.3316,133.2325
203.3216,133.2166
203.3145,133.2034
203.3118,133.1955
203.3129,133.1914
203.3184,133.1794
203.3274,133.1626
203.3388,133.1432
203.3406,133.1401
203.3513,133.1224
203.3659,133.0978
203.3836,133.0679
203.4035,133.0344
203.4246,132.9987
203.4459,132.9624
203.4482,132.9585
203.4702,132.9210
203.4875,132.8913
203.5006,132.8682
203.5100,132.8508
203.5162,132.8381
203.5197,132.8292
203.5209,132.8230
203.5204,132.8187
203.5185,132.8151
203.5140,132.8089
203.5016,132.7938
203.4840,132.7735
203.4624,132.7493
203.4381,132.7226
203.4122,132.6946
203.3859,132.6668
203.3606,132.6403
203.3372,132.6165
203.3171,132.5967
203.2895,132.5704
203.2591,132.5425
203.2299,132.5166
203.2029,132.4934
203.1792,132.4739
203.1596,132.4589
203.1453,132.4492
203.1374,132.4458
203.1335,132.4473
203.1217,132.4533
203.1029,132.4634
203.0785,132.4769
203.0493,132.4932
203.0166,132.5117
202.9814,132.5317
202.9447,132.5527
202.9078,132.5740
202.8715,132.5951
202.8372,132.6152
202.8057,132.6339
202.7782,132.6504
202.7751,132.6508
202.7667,132.6485
202.7529,132.6421
202.7330,132.6315
202.7061,132.6161
202.6716,132.5955
202.6667,132.5925
202.6330,132.5725
202.5980,132.5522
202.5643,132.5329
202.5343,132.5160
202.5104,132.5031
202.4483,132.4703
202.4469,132.2540
202.4456,132.0376
202.3821,132.0152
202.3419,132.0016
202.2929,131.9861
202.2419,131.9709
202.1901,131.9565
202.1392,131.9432
202.0906,131.9313
202.0458,131.9212
202.0061,131.9134
201.9732,131.9081
201.9483,131.9058
201.9184,131.9047
201.8981,131.9378
201.8948,131.9432
201.8850,131.9598
201.8714,131.9832
201.8548,132.0120
201.8360,132.0449
201.8158,132.0805
201.7949,132.1174
201.7813,132.1414
201.7625,132.1747
201.7456,132.2044
201.7314,132.2294
201.7203,132.2487
201.7130,132.2613
201.7101,132.2661
201.7048,132.2665
201.6905,132.2670
201.6683,132.2674
201.6394,132.2678
201.6049,132.2682
201.5660,132.2684
201.5238,132.2686
201.5190,132.2686
201.5183,132.2686
201.4693,132.2686
201.4295,132.2684
201.3979,132.2681
201.3737,132.2675
201.3560,132.2666
201.3439,132.2655
201.3364,132.2640
201.3328,132.2621
201.3324,132.2616
201.3275,132.2539
201.3183,132.2386
201.3055,132.2167
201.2895,132.1891
201.2711,132.1569
201.2507,132.1210
201.2290,132.0825
201.2239,132.0734
201.2026,132.0356
201.1828,132.0008
201.1652,131.9699
201.1503,131.9439
201.1387,131.9239
201.1309,131.9107
201.1275,131.9054
201.1268,131.9050
201.1179,131.9045
Z" /> 
</g>
<g style="fill:none; 
stroke:#000000; stroke-width:0.1200; stroke-opacity:1; 
stroke-linecap:round; stroke-linejoin:round;">
<path d="M197.3747 126.0965
L197.8493 126.0965
" />
<path d="M197.3747 127.1415
L197.8493 127.1415
" />
<path d="M200.2810 113.1706
L200.2810 112.8894
" />
<path d="M199.2610 113.1706
L199.2610 112.8894
" />
<path d="M202.8542 121.9610
L202.3792 121.9610
" />
<path d="M202.8542 122.4360
L202.8542 121.9610
" />
<path d="M202.8542 124.9410
L202.8542 124.7060
" />
<path d="M202.5542 125.1810
L202.3792 125.1810
" />
<path d="M199.6342 121.9610
L200.1092 121.9610
" />
<path d="M199.6342 122.4360
L199.6342 121.9610
" />
<path d="M199.6342 124.7060
L199.6342 125.1810
" />
<path d="M199.6342 125.1810
L200.1092 125.1810
" />
<path style="fill:#000000; fill-opacity:1.0000; 
stroke:#000000; stroke-width:0.1200; stroke-opacity:1; 
stroke-linecap:round; stroke-linejoin:round;fill-rule:evenodd;"
d="M 202.6142,125.5110
203.0942,125.5110
202.8542,125.1810
Z" /> 
</g>
<g style="fill:none; 
stroke:#000000; stroke-width:0.1200; stroke-opacity:1; 
stroke-linecap:round; stroke-linejoin:round;">
<path d="M198.3377 129.9043
L198.3377 129.4297
" />
<path d="M197.2927 129.9043
L197.2927 129.4297
" />
<path d="M203.3415 113.2673
L203.3415 112.7927
" />
<path d="M202.2965 113.2673
L202.2965 112.7927
" />
</g>
<g style="fill:#000000; fill-opacity:1.0000; stroke:none;">
<circle cx="206.9592" cy="114.0460" r="1.9050" /> 
</g>
<g style="fill:#000000; fill-opacity:1.0000; stroke:none;">
<circle cx="194.6222" cy="130.0510" r="1.7000" /> 
</g>
<g style="fill:#000000; fill-opacity:1.0000; stroke:none;">
<circle cx="194.6222" cy="117.0910" r="1.7000" /> 
<path style="fill:#000000; fill-opacity:1.0000; stroke:none;fill-rule:evenodd;"
d="M 211.2382,118.0710
211.2382,116.3710
209.5382,116.3710
209.5382,118.0710
Z" /> 
</g>
<g style="fill:#000000; fill-opacity:1.0000; stroke:none;">
<circle cx="210.3882" cy="119.7610" r="0.8500" /> 
<circle cx="210.3882" cy="122.3010" r="0.8500" /> 
<circle cx="210.3882" cy="124.8410" r="0.8500" /> 
<circle cx="210.3882" cy="127.3810" r="0.8500" /> 
<circle cx="210.3882" cy="129.9210" r="0.8500" /> 
<circle cx="206.9592" cy="133.0960" r="1.9050" /> 
<path style="fill:#000000; fill-opacity:1.0000; stroke:none;fill-rule:evenodd;"
d="M 196.0162,122.3460
195.9397,122.3612
195.8748,122.4046
195.8314,122.4695
195.8162,122.5460
195.8162,122.9460
195.8314,123.0225
195.8748,123.0874
195.9397,123.1308
196.0162,123.1460
196.5662,123.1460
196.6427,123.1308
196.7076,123.0874
196.7510,123.0225
196.7662,122.9460
196.7662,122.5460
196.7510,122.4695
196.7076,122.4046
196.6427,122.3612
196.5662,122.3460
Z" /> 
<path style="fill:#000000; fill-opacity:1.0000; stroke:none;fill-rule:evenodd;"
d="M 196.0162,123.9960
195.9397,124.0112
195.8748,124.0546
195.8314,124.1195
195.8162,124.1960
195.8162,124.5960
195.8314,124.6725
195.8748,124.7374
195.9397,124.7808
196.0162,124.7960
196.5662,124.7960
196.6427,124.7808
196.7076,124.7374
196.7510,124.6725
196.7662,124.5960
196.7662,124.1960
196.7510,124.1195
196.7076,124.0546
196.6427,124.0112
196.5662,123.9960
Z" /> 
<path style="fill:#000000; fill-opacity:1.0000; stroke:none;fill-rule:evenodd;"
d="M 198.0652,124.7960
198.1513,124.7789
198.2243,124.7301
198.2731,124.6571
198.2902,124.5710
198.2902,124.1210
198.2731,124.0349
198.2243,123.9619
198.1513,123.9131
198.0652,123.8960
197.5652,123.8960
197.4791,123.9131
197.4061,123.9619
197.3573,124.0349
197.3402,124.1210
197.3402,124.5710
197.3573,124.6571
197.4061,124.7301
197.4791,124.7789
197.5652,124.7960
Z" /> 
<path style="fill:#000000; fill-opacity:1.0000; stroke:none;fill-rule:evenodd;"
d="M 198.0652,123.2460
198.1513,123.2289
198.2243,123.1801
198.2731,123.1071
198.2902,123.0210
198.2902,122.5710
198.2731,122.4849
198.2243,122.4119
198.1513,122.3631
198.0652,122.3460
197.5652,122.3460
197.4791,122.3631
197.4061,122.4119
197.3573,122.4849
197.3402,122.5710
197.3402,123.0210
197.3573,123.1071
197.4061,123.1801
197.4791,123.2289
197.5652,123.2460
Z" /> 
<path style="fill:#000000; fill-opacity:1.0000; stroke:none;fill-rule:evenodd;"
d="M 201.0450,111.8050
200.9589,111.8221
200.8859,111.8709
200.8371,111.9439
200.8200,112.0300
200.8200,112.4800
200.8371,112.5661
200.8859,112.6391
200.9589,112.6879
201.0450,112.7050
201.5450,112.7050
201.6311,112.6879
201.7041,112.6391
201.7529,112.5661
201.7700,112.4800
201.7700,112.0300
201.7529,111.9439
201.7041,111.8709
201.6311,111.8221
201.5450,111.8050
Z" /> 
<path style="fill:#000000; fill-opacity:1.0000; stroke:none;fill-rule:evenodd;"
d="M 201.0450,113.3550
200.9589,113.3721
200.8859,113.4209
200.8371,113.4939
200.8200,113.5800
200.8200,114.0300
200.8371,114.1161
200.8859,114.1891
200.9589,114.2379
201.0450,114.2550
201.5450,114.2550
201.6311,114.2379
201.7041,114.1891
201.7529,114.1161
201.7700,114.0300
201.7700,113.5800
201.7529,113.4939
201.7041,113.4209
201.6311,113.3721
201.5450,113.3550
Z" /> 
<path style="fill:#000000; fill-opacity:1.0000; stroke:none;fill-rule:evenodd;"
d="M 200.6232,117.9262
200.6291,117.9560
200.6460,117.9814
200.6714,117.9983
200.7012,118.0042
201.2852,118.0042
201.3150,117.9983
201.3404,117.9814
201.3573,117.9560
201.3632,117.9262
201.3632,117.6922
201.3573,117.6624
201.3404,117.6370
201.3150,117.6201
201.2852,117.6142
200.7012,117.6142
200.6714,117.6201
200.6460,117.6370
200.6291,117.6624
200.6232,117.6922
Z" /> 
<path style="fill:#000000; fill-opacity:1.0000; stroke:none;fill-rule:evenodd;"
d="M 200.4762,116.5392
200.4464,116.5451
200.4210,116.5620
200.4041,116.5874
200.3982,116.6172
200.3982,117.2012
200.4041,117.2310
200.4210,117.2564
200.4464,117.2733
200.4762,117.2792
200.7102,117.2792
200.7400,117.2733
200.7654,117.2564
200.7823,117.2310
200.7882,117.2012
200.7882,116.6172
200.7823,116.5874
200.7654,116.5620
200.7400,116.5451
200.7102,116.5392
Z" /> 
<path style="fill:#000000; fill-opacity:1.0000; stroke:none;fill-rule:evenodd;"
d="M 199.9762,116.5392
199.9464,116.5451
199.9210,116.5620
199.9041,116.5874
199.8982,116.6172
199.8982,117.2012
199.9041,117.2310
199.9210,117.2564
199.9464,117.2733
199.9762,117.2792
200.2102,117.2792
200.2400,117.2733
200.2654,117.2564
200.2823,117.2310
200.2882,117.2012
200.2882,116.6172
200.2823,116.5874
200.2654,116.5620
200.2400,116.5451
200.2102,116.5392
Z" /> 
<path style="fill:#000000; fill-opacity:1.0000; stroke:none;fill-rule:evenodd;"
d="M 199.4762,116.5392
199.4464,116.5451
199.4210,116.5620
199.4041,116.5874
199.3982,116.6172
199.3982,117.2012
199.4041,117.2310
199.4210,117.2564
199.4464,117.2733
199.4762,117.2792
199.7102,117.2792
199.7400,117.2733
199.7654,117.2564
199.7823,117.2310
199.7882,117.2012
199.7882,116.6172
199.7823,116.5874
199.7654,116.5620
199.7400,116.5451
199.7102,116.5392
Z" /> 
<path style="fill:#000000; fill-opacity:1.0000; stroke:none;fill-rule:evenodd;"
d="M 198.9762,116.5392
198.9464,116.5451
198.9210,116.5620
198.9041,116.5874
198.8982,116.6172
198.8982,117.2012
198.9041,117.2310
198.9210,117.2564
198.9464,117.2733
198.9762,117.2792
199.2102,117.2792
199.2400,117.2733
199.2654,117.2564
199.2823,117.2310
199.2882,117.2012
199.2882,116.6172
199.2823,116.5874
199.2654,116.5620
199.2400,116.5451
199.2102,116.5392
Z" /> 
<path style="fill:#000000; fill-opacity:1.0000; stroke:none;fill-rule:evenodd;"
d="M 198.4762,116.5392
198.4464,116.5451
198.4210,116.5620
198.4041,116.5874
198.3982,116.6172
198.3982,117.2012
198.4041,117.2310
198.4210,117.2564
198.4464,117.2733
198.4762,117.2792
198.7102,117.2792
198.7400,117.2733
198.7654,117.2564
198.7823,117.2310
198.7882,117.2012
198.7882,116.6172
198.7823,116.5874
198.7654,116.5620
198.7400,116.5451
198.7102,116.5392
Z" /> 
<path style="fill:#000000; fill-opacity:1.0000; stroke:none;fill-rule:evenodd;"
d="M 197.8232,117.9262
197.8291,117.9560
197.8460,117.9814
197.8714,117.9983
197.9012,118.0042
198.4852,118.0042
198.5150,117.9983
198.5404,117.9814
198.5573,117.9560
198.5632,117.9262
198.5632,117.6922
198.5573,117.6624
198.5404,117.6370
198.5150,117.6201
198.4852,117.6142
197.9012,117.6142
197.8714,117.6201
197.8460,117.6370
197.8291,117.6624
197.8232,117.6922
Z" /> 
<path style="fill:#000000; fill-opacity:1.0000; stroke:none;fill-rule:evenodd;"
d="M 197.8232,118.4262
197.8291,118.4560
197.8460,118.4814
197.8714,118.4983
197.9012,118.5042
198.4852,118.5042
198.5150,118.4983
198.5404,118.4814
198.5573,118.4560
198.5632,118.4262
198.5632,118.1922
198.5573,118.1624
198.5404,118.1370
198.5150,118.1201
198.4852,118.1142
197.9012,118.1142
197.8714,118.1201
197.8460,118.1370
197.8291,118.1624
197.8232,118.1922
Z" /> 
<path style="fill:#000000; fill-opacity:1.0000; stroke:none;fill-rule:evenodd;"
d="M 198.4762,118.8392
198.4464,118.8451
198.4210,118.8620
198.4041,118.8874
198.3982,118.9172
198.3982,119.5012
198.4041,119.5310
198.4210,119.5564
198.4464,119.5733
198.4762,119.5792
198.7102,119.5792
198.7400,119.5733
198.7654,119.5564
198.7823,119.5310
198.7882,119.5012
198.7882,118.9172
198.7823,118.8874
198.7654,118.8620
198.7400,118.8451
198.7102,118.8392
Z" /> 
<path style="fill:#000000; fill-opacity:1.0000; stroke:none;fill-rule:evenodd;"
d="M 198.9762,118.8392
198.9464,118.8451
198.9210,118.8620
198.9041,118.8874
198.8982,118.9172
198.8982,119.5012
198.9041,119.5310
198.9210,119.5564
198.9464,119.5733
198.9762,119.5792
199.2102,119.5792
199.2400,119.5733
199.2654,119.5564
199.2823,119.5310
199.2882,119.5012
199.2882,118.9172
199.2823,118.8874
199.2654,118.8620
199.2400,118.8451
199.2102,118.8392
Z" /> 
<path style="fill:#000000; fill-opacity:1.0000; stroke:none;fill-rule:evenodd;"
d="M 199.4762,118.8392
199.4464,118.8451
199.4210,118.8620
199.4041,118.8874
199.3982,118.9172
199.3982,119.5012
199.4041,119.5310
199.4210,119.5564
199.4464,119.5733
199.4762,119.5792
199.7102,119.5792
199.7400,119.5733
199.7654,119.5564
199.7823,119.5310
199.7882,119.5012
199.7882,118.9172
199.7823,118.8874
199.7654,118.8620
199.7400,118.8451
199.7102,118.8392
Z" /> 
<path style="fill:#000000; fill-opacity:1.0000; stroke:none;fill-rule:evenodd;"
d="M 199.9762,118.8392
199.9464,118.8451
199.9210,118.8620
199.9041,118.8874
199.8982,118.9172
199.8982,119.5012
199.9041,119.5310
199.9210,119.5564
199.9464,119.5733
199.9762,119.5792
200.2102,119.5792
200.2400,119.5733
200.2654,119.5564
200.2823,119.5310
200.2882,119.5012
200.2882,118.9172
200.2823,118.8874
200.2654,118.8620
200.2400,118.8451
200.2102,118.8392
Z" /> 
<path style="fill:#000000; fill-opacity:1.0000; stroke:none;fill-rule:evenodd;"
d="M 200.4762,118.8392
200.4464,118.8451
200.4210,118.8620
200.4041,118.8874
200.3982,118.9172
200.3982,119.5012
200.4041,119.5310
200.4210,119.5564
200.4464,119.5733
200.4762,119.5792
200.7102,119.5792
200.7400,119.5733
200.7654,119.5564
200.7823,119.5310
200.7882,119.5012
200.7882,118.9172
200.7823,118.8874
200.7654,118.8620
200.7400,118.8451
200.7102,118.8392
Z" /> 
<path style="fill:#000000; fill-opacity:1.0000; stroke:none;fill-rule:evenodd;"
d="M 200.6232,118.4262
200.6291,118.4560
200.6460,118.4814
200.6714,118.4983
200.7012,118.5042
201.2852,118.5042
201.3150,118.4983
201.3404,118.4814
201.3573,118.4560
201.3632,118.4262
201.3632,118.1922
201.3573,118.1624
201.3404,118.1370
201.3150,118.1201
201.2852,118.1142
200.7012,118.1142
200.6714,118.1201
200.6460,118.1370
200.6291,118.1624
200.6232,118.1922
Z" /> 
<path style="fill:#000000; fill-opacity:1.0000; stroke:none;fill-rule:evenodd;"
d="M 199.0012,117.4892
198.9139,117.5066
198.8400,117.5560
198.7906,117.6299
198.7732,117.7172
198.7732,118.4012
198.7906,118.4885
198.8400,118.5624
198.9139,118.6118
199.0012,118.6292
200.1852,118.6292
200.2725,118.6118
200.3464,118.5624
200.3958,118.4885
200.4132,118.4012
200.4132,117.7172
200.3958,117.6299
200.3464,117.5560
200.2725,117.5066
200.1852,117.4892
Z" /> 
<path style="fill:#000000; fill-opacity:1.0000; stroke:none;fill-rule:evenodd;"
d="M 199.0642,128.4420
198.9877,128.4572
198.9228,128.5006
198.8794,128.5655
198.8642,128.6420
198.8642,129.0420
198.8794,129.1185
198.9228,129.1834
198.9877,129.2268
199.0642,129.2420
199.6142,129.2420
199.6907,129.2268
199.7556,129.1834
199.7990,129.1185
199.8142,129.0420
199.8142,128.6420
199.7990,128.5655
199.7556,128.5006
199.6907,128.4572
199.6142,128.4420
Z" /> 
<path style="fill:#000000; fill-opacity:1.0000; stroke:none;fill-rule:evenodd;"
d="M 199.0642,130.0920
198.9877,130.1072
198.9228,130.1506
198.8794,130.2155
198.8642,130.2920
198.8642,130.6920
198.8794,130.7685
198.9228,130.8334
198.9877,130.8768
199.0642,130.8920
199.6142,130.8920
199.6907,130.8768
199.7556,130.8334
199.7990,130.7685
199.8142,130.6920
199.8142,130.2920
199.7990,130.2155
199.7556,130.1506
199.6907,130.1072
199.6142,130.0920
Z" /> 
<path style="fill:#000000; fill-opacity:1.0000; stroke:none;fill-rule:evenodd;"
d="M 202.4322,118.3092
202.4493,118.3953
202.4981,118.4683
202.5711,118.5171
202.6572,118.5342
203.1072,118.5342
203.1933,118.5171
203.2663,118.4683
203.3151,118.3953
203.3322,118.3092
203.3322,117.8092
203.3151,117.7231
203.2663,117.6501
203.1933,117.6013
203.1072,117.5842
202.6572,117.5842
202.5711,117.6013
202.4981,117.6501
202.4493,117.7231
202.4322,117.8092
Z" /> 
<path style="fill:#000000; fill-opacity:1.0000; stroke:none;fill-rule:evenodd;"
d="M 203.9822,118.3092
203.9993,118.3953
204.0481,118.4683
204.1211,118.5171
204.2072,118.5342
204.6572,118.5342
204.7433,118.5171
204.8163,118.4683
204.8651,118.3953
204.8822,118.3092
204.8822,117.8092
204.8651,117.7231
204.8163,117.6501
204.7433,117.6013
204.6572,117.5842
204.2072,117.5842
204.1211,117.6013
204.0481,117.6501
203.9993,117.7231
203.9822,117.8092
Z" /> 
<path style="fill:#000000; fill-opacity:1.0000; stroke:none;fill-rule:evenodd;"
d="M 197.3790,135.3370
197.4555,135.3218
197.5204,135.2784
197.5638,135.2135
197.5790,135.1370
197.5790,134.7370
197.5638,134.6605
197.5204,134.5956
197.4555,134.5522
197.3790,134.5370
196.8290,134.5370
196.7525,134.5522
196.6876,134.5956
196.6442,134.6605
196.6290,134.7370
196.6290,135.1370
196.6442,135.2135
196.6876,135.2784
196.7525,135.3218
196.8290,135.3370
Z" /> 
<path style="fill:#000000; fill-opacity:1.0000; stroke:none;fill-rule:evenodd;"
d="M 197.3790,133.6870
197.4555,133.6718
197.5204,133.6284
197.5638,133.5635
197.5790,133.4870
197.5790,133.0870
197.5638,133.0105
197.5204,132.9456
197.4555,132.9022
197.3790,132.8870
196.8290,132.8870
196.7525,132.9022
196.6876,132.9456
196.6442,133.0105
196.6290,133.0870
196.6290,133.4870
196.6442,133.5635
196.6876,133.6284
196.7525,133.6718
196.8290,133.6870
Z" /> 
<path style="fill:#000000; fill-opacity:1.0000; stroke:none;fill-rule:evenodd;"
d="M 194.4922,122.3460
194.4157,122.3612
194.3508,122.4046
194.3074,122.4695
194.2922,122.5460
194.2922,122.9460
194.3074,123.0225
194.3508,123.0874
194.4157,123.1308
194.4922,123.1460
195.0422,123.1460
195.1187,123.1308
195.1836,123.0874
195.2270,123.0225
195.2422,122.9460
195.2422,122.5460
195.2270,122.4695
195.1836,122.4046
195.1187,122.3612
195.0422,122.3460
Z" /> 
<path style="fill:#000000; fill-opacity:1.0000; stroke:none;fill-rule:evenodd;"
d="M 194.4922,123.9960
194.4157,124.0112
194.3508,124.0546
194.3074,124.1195
194.2922,124.1960
194.2922,124.5960
194.3074,124.6725
194.3508,124.7374
194.4157,124.7808
194.4922,124.7960
195.0422,124.7960
195.1187,124.7808
195.1836,124.7374
195.2270,124.6725
195.2422,124.5960
195.2422,124.1960
195.2270,124.1195
195.1836,124.0546
195.1187,124.0112
195.0422,123.9960
Z" /> 
<path style="fill:#000000; fill-opacity:1.0000; stroke:none;fill-rule:evenodd;"
d="M 195.7890,126.3690
195.7719,126.2829
195.7231,126.2099
195.6501,126.1611
195.5640,126.1440
195.1140,126.1440
195.0279,126.1611
194.9549,126.2099
194.9061,126.2829
194.8890,126.3690
194.8890,126.8690
194.9061,126.9551
194.9549,127.0281
195.0279,127.0769
195.1140,127.0940
195.5640,127.0940
195.6501,127.0769
195.7231,127.0281
195.7719,126.9551
195.7890,126.8690
Z" /> 
<path style="fill:#000000; fill-opacity:1.0000; stroke:none;fill-rule:evenodd;"
d="M 194.2390,126.3690
194.2219,126.2829
194.1731,126.2099
194.1001,126.1611
194.0140,126.1440
193.5640,126.1440
193.4779,126.1611
193.4049,126.2099
193.3561,126.2829
193.3390,126.3690
193.3390,126.8690
193.3561,126.9551
193.4049,127.0281
193.4779,127.0769
193.5640,127.0940
194.0140,127.0940
194.1001,127.0769
194.1731,127.0281
194.2219,126.9551
194.2390,126.8690
Z" /> 
<path style="fill:#000000; fill-opacity:1.0000; stroke:none;fill-rule:evenodd;"
d="M 195.9922,119.8670
195.9770,119.7905
195.9336,119.7256
195.8687,119.6822
195.7922,119.6670
195.3922,119.6670
195.3157,119.6822
195.2508,119.7256
195.2074,119.7905
195.1922,119.8670
195.1922,120.4170
195.2074,120.4935
195.2508,120.5584
195.3157,120.6018
195.3922,120.6170
195.7922,120.6170
195.8687,120.6018
195.9336,120.5584
195.9770,120.4935
195.9922,120.4170
Z" /> 
<path style="fill:#000000; fill-opacity:1.0000; stroke:none;fill-rule:evenodd;"
d="M 194.3422,119.8670
194.3270,119.7905
194.2836,119.7256
194.2187,119.6822
194.1422,119.6670
193.7422,119.6670
193.6657,119.6822
193.6008,119.7256
193.5574,119.7905
193.5422,119.8670
193.5422,120.4170
193.5574,120.4935
193.6008,120.5584
193.6657,120.6018
193.7422,120.6170
194.1422,120.6170
194.2187,120.6018
194.2836,120.5584
194.3270,120.4935
194.3422,120.4170
Z" /> 
<path style="fill:#000000; fill-opacity:1.0000; stroke:none;fill-rule:evenodd;"
d="M 198.8370,126.3440
198.8218,126.2675
198.7784,126.2026
198.7135,126.1592
198.6370,126.1440
198.2370,126.1440
198.1605,126.1592
198.0956,126.2026
198.0522,126.2675
198.0370,126.3440
198.0370,126.8940
198.0522,126.9705
198.0956,127.0354
198.1605,127.0788
198.2370,127.0940
198.6370,127.0940
198.7135,127.0788
198.7784,127.0354
198.8218,126.9705
198.8370,126.8940
Z" /> 
<path style="fill:#000000; fill-opacity:1.0000; stroke:none;fill-rule:evenodd;"
d="M 197.1870,126.3440
197.1718,126.2675
197.1284,126.2026
197.0635,126.1592
196.9870,126.1440
196.5870,126.1440
196.5105,126.1592
196.4456,126.2026
196.4022,126.2675
196.3870,126.3440
196.3870,126.8940
196.4022,126.9705
196.4456,127.0354
196.5105,127.0788
196.5870,127.0940
196.9870,127.0940
197.0635,127.0788
197.1284,127.0354
197.1718,126.9705
197.1870,126.8940
Z" /> 
<path style="fill:#000000; fill-opacity:1.0000; stroke:none;fill-rule:evenodd;"
d="M 199.5210,111.8050
199.4349,111.8221
199.3619,111.8709
199.3131,111.9439
199.2960,112.0300
199.2960,112.4800
199.3131,112.5661
199.3619,112.6391
199.4349,112.6879
199.5210,112.7050
200.0210,112.7050
200.1071,112.6879
200.1801,112.6391
200.2289,112.5661
200.2460,112.4800
200.2460,112.0300
200.2289,111.9439
200.1801,111.8709
200.1071,111.8221
200.0210,111.8050
Z" /> 
<path style="fill:#000000; fill-opacity:1.0000; stroke:none;fill-rule:evenodd;"
d="M 199.5210,113.3550
199.4349,113.3721
199.3619,113.4209
199.3131,113.4939
199.2960,113.5800
199.2960,114.0300
199.3131,114.1161
199.3619,114.1891
199.4349,114.2379
199.5210,114.2550
200.0210,114.2550
200.1071,114.2379
200.1801,114.1891
200.2289,114.1161
200.2460,114.0300
200.2460,113.5800
200.2289,113.4939
200.1801,113.4209
200.1071,113.3721
200.0210,113.3550
Z" /> 
<path style="fill:#000000; fill-opacity:1.0000; stroke:none;fill-rule:evenodd;"
d="M 203.0442,124.2465
203.0394,124.2226
203.0259,124.2023
203.0056,124.1888
202.9817,124.1840
202.4067,124.1840
202.3828,124.1888
202.3625,124.2023
202.3490,124.2226
202.3442,124.2465
202.3442,124.3715
202.3490,124.3954
202.3625,124.4157
202.3828,124.4292
202.4067,124.4340
202.9817,124.4340
203.0056,124.4292
203.0259,124.4157
203.0394,124.3954
203.0442,124.3715
Z" /> 
<path style="fill:#000000; fill-opacity:1.0000; stroke:none;fill-rule:evenodd;"
d="M 203.0442,123.7465
203.0394,123.7226
203.0259,123.7023
203.0056,123.6888
202.9817,123.6840
202.4067,123.6840
202.3828,123.6888
202.3625,123.7023
202.3490,123.7226
202.3442,123.7465
202.3442,123.8715
202.3490,123.8954
202.3625,123.9157
202.3828,123.9292
202.4067,123.9340
202.9817,123.9340
203.0056,123.9292
203.0259,123.9157
203.0394,123.8954
203.0442,123.8715
Z" /> 
<path style="fill:#000000; fill-opacity:1.0000; stroke:none;fill-rule:evenodd;"
d="M 203.0442,123.2465
203.0394,123.2226
203.0259,123.2023
203.0056,123.1888
202.9817,123.1840
202.4067,123.1840
202.3828,123.1888
202.3625,123.2023
202.3490,123.2226
202.3442,123.2465
202.3442,123.3715
202.3490,123.3954
202.3625,123.4157
202.3828,123.4292
202.4067,123.4340
202.9817,123.4340
203.0056,123.4292
203.0259,123.4157
203.0394,123.3954
203.0442,123.3715
Z" /> 
<path style="fill:#000000; fill-opacity:1.0000; stroke:none;fill-rule:evenodd;"
d="M 203.0442,122.7465
203.0394,122.7226
203.0259,122.7023
203.0056,122.6888
202.9817,122.6840
202.4067,122.6840
202.3828,122.6888
202.3625,122.7023
202.3490,122.7226
202.3442,122.7465
202.3442,122.8715
202.3490,122.8954
202.3625,122.9157
202.3828,122.9292
202.4067,122.9340
202.9817,122.9340
203.0056,122.9292
203.0259,122.9157
203.0394,122.8954
203.0442,122.8715
Z" /> 
<path style="fill:#000000; fill-opacity:1.0000; stroke:none;fill-rule:evenodd;"
d="M 202.1192,121.8335
202.1144,121.8096
202.1009,121.7893
202.0806,121.7758
202.0567,121.7710
201.9317,121.7710
201.9078,121.7758
201.8875,121.7893
201.8740,121.8096
201.8692,121.8335
201.8692,122.4085
201.8740,122.4324
201.8875,122.4527
201.9078,122.4662
201.9317,122.4710
202.0567,122.4710
202.0806,122.4662
202.1009,122.4527
202.1144,122.4324
202.1192,122.4085
Z" /> 
<path style="fill:#000000; fill-opacity:1.0000; stroke:none;fill-rule:evenodd;"
d="M 201.6192,121.8335
201.6144,121.8096
201.6009,121.7893
201.5806,121.7758
201.5567,121.7710
201.4317,121.7710
201.4078,121.7758
201.3875,121.7893
201.3740,121.8096
201.3692,121.8335
201.3692,122.4085
201.3740,122.4324
201.3875,122.4527
201.4078,122.4662
201.4317,122.4710
201.5567,122.4710
201.5806,122.4662
201.6009,122.4527
201.6144,122.4324
201.6192,122.4085
Z" /> 
<path style="fill:#000000; fill-opacity:1.0000; stroke:none;fill-rule:evenodd;"
d="M 201.1192,121.8335
201.1144,121.8096
201.1009,121.7893
201.0806,121.7758
201.0567,121.7710
200.9317,121.7710
200.9078,121.7758
200.8875,121.7893
200.8740,121.8096
200.8692,121.8335
200.8692,122.4085
200.8740,122.4324
200.8875,122.4527
200.9078,122.4662
200.9317,122.4710
201.0567,122.4710
201.0806,122.4662
201.1009,122.4527
201.1144,122.4324
201.1192,122.4085
Z" /> 
<path style="fill:#000000; fill-opacity:1.0000; stroke:none;fill-rule:evenodd;"
d="M 200.6192,121.8335
200.6144,121.8096
200.6009,121.7893
200.5806,121.7758
200.5567,121.7710
200.4317,121.7710
200.4078,121.7758
200.3875,121.7893
200.3740,121.8096
200.3692,121.8335
200.3692,122.4085
200.3740,122.4324
200.3875,122.4527
200.4078,122.4662
200.4317,122.4710
200.5567,122.4710
200.5806,122.4662
200.6009,122.4527
200.6144,122.4324
200.6192,122.4085
Z" /> 
<path style="fill:#000000; fill-opacity:1.0000; stroke:none;fill-rule:evenodd;"
d="M 200.1442,122.7585
200.1394,122.7346
200.1259,122.7143
200.1056,122.7008
200.0817,122.6960
199.5067,122.6960
199.4828,122.7008
199.4625,122.7143
199.4490,122.7346
199.4442,122.7585
199.4442,122.8835
199.4490,122.9074
199.4625,122.9277
199.4828,122.9412
199.5067,122.9460
200.0817,122.9460
200.1056,122.9412
200.1259,122.9277
200.1394,122.9074
200.1442,122.8835
Z" /> 
<path style="fill:#000000; fill-opacity:1.0000; stroke:none;fill-rule:evenodd;"
d="M 200.1442,123.2585
200.1394,123.2346
200.1259,123.2143
200.1056,123.2008
200.0817,123.1960
199.5067,123.1960
199.4828,123.2008
199.4625,123.2143
199.4490,123.2346
199.4442,123.2585
199.4442,123.3835
199.4490,123.4074
199.4625,123.4277
199.4828,123.4412
199.5067,123.4460
200.0817,123.4460
200.1056,123.4412
200.1259,123.4277
200.1394,123.4074
200.1442,123.3835
Z" /> 
<path style="fill:#000000; fill-opacity:1.0000; stroke:none;fill-rule:evenodd;"
d="M 200.1442,123.7585
200.1394,123.7346
200.1259,123.7143
200.1056,123.7008
200.0817,123.6960
199.5067,123.6960
199.4828,123.7008
199.4625,123.7143
199.4490,123.7346
199.4442,123.7585
199.4442,123.8835
199.4490,123.9074
199.4625,123.9277
199.4828,123.9412
199.5067,123.9460
200.0817,123.9460
200.1056,123.9412
200.1259,123.9277
200.1394,123.9074
200.1442,123.8835
Z" /> 
<path style="fill:#000000; fill-opacity:1.0000; stroke:none;fill-rule:evenodd;"
d="M 200.1442,124.2585
200.1394,124.2346
200.1259,124.2143
200.1056,124.2008
200.0817,124.1960
199.5067,124.1960
199.4828,124.2008
199.4625,124.2143
199.4490,124.2346
199.4442,124.2585
199.4442,124.3835
199.4490,124.4074
199.4625,124.4277
199.4828,124.4412
199.5067,124.4460
200.0817,124.4460
200.1056,124.4412
200.1259,124.4277
200.1394,124.4074
200.1442,124.3835
Z" /> 
<path style="fill:#000000; fill-opacity:1.0000; stroke:none;fill-rule:evenodd;"
d="M 200.6192,124.7335
200.6144,124.7096
200.6009,124.6893
200.5806,124.6758
200.5567,124.6710
200.4317,124.6710
200.4078,124.6758
200.3875,124.6893
200.3740,124.7096
200.3692,124.7335
200.3692,125.3085
200.3740,125.3324
200.3875,125.3527
200.4078,125.3662
200.4317,125.3710
200.5567,125.3710
200.5806,125.3662
200.6009,125.3527
200.6144,125.3324
200.6192,125.3085
Z" /> 
<path style="fill:#000000; fill-opacity:1.0000; stroke:none;fill-rule:evenodd;"
d="M 201.1192,124.7335
201.1144,124.7096
201.1009,124.6893
201.0806,124.6758
201.0567,124.6710
200.9317,124.6710
200.9078,124.6758
200.8875,124.6893
200.8740,124.7096
200.8692,124.7335
200.8692,125.3085
200.8740,125.3324
200.8875,125.3527
200.9078,125.3662
200.9317,125.3710
201.0567,125.3710
201.0806,125.3662
201.1009,125.3527
201.1144,125.3324
201.1192,125.3085
Z" /> 
<path style="fill:#000000; fill-opacity:1.0000; stroke:none;fill-rule:evenodd;"
d="M 201.6192,124.7335
201.6144,124.7096
201.6009,124.6893
201.5806,124.6758
201.5567,124.6710
201.4317,124.6710
201.4078,124.6758
201.3875,124.6893
201.3740,124.7096
201.3692,124.7335
201.3692,125.3085
201.3740,125.3324
201.3875,125.3527
201.4078,125.3662
201.4317,125.3710
201.5567,125.3710
201.5806,125.3662
201.6009,125.3527
201.6144,125.3324
201.6192,125.3085
Z" /> 
<path style="fill:#000000; fill-opacity:1.0000; stroke:none;fill-rule:evenodd;"
d="M 202.1192,124.7335
202.1144,124.7096
202.1009,124.6893
202.0806,124.6758
202.0567,124.6710
201.9317,124.6710
201.9078,124.6758
201.8875,124.6893
201.8740,124.7096
201.8692,124.7335
201.8692,125.3085
201.8740,125.3324
201.8875,125.3527
201.9078,125.3662
201.9317,125.3710
202.0567,125.3710
202.0806,125.3662
202.1009,125.3527
202.1144,125.3324
202.1192,125.3085
Z" /> 
<path style="fill:#000000; fill-opacity:1.0000; stroke:none;fill-rule:evenodd;"
d="M 202.0942,124.4210
202.0942,122.7210
200.3942,122.7210
200.3942,124.4210
Z" /> 
<path style="fill:#000000; fill-opacity:1.0000; stroke:none;fill-rule:evenodd;"
d="M 197.5402,128.4420
197.4637,128.4572
197.3988,128.5006
197.3554,128.5655
197.3402,128.6420
197.3402,129.0420
197.3554,129.1185
197.3988,129.1834
197.4637,129.2268
197.5402,129.2420
198.0902,129.2420
198.1667,129.2268
198.2316,129.1834
198.2750,129.1185
198.2902,129.0420
198.2902,128.6420
198.2750,128.5655
198.2316,128.5006
198.1667,128.4572
198.0902,128.4420
Z" /> 
<path style="fill:#000000; fill-opacity:1.0000; stroke:none;fill-rule:evenodd;"
d="M 197.5402,130.0920
197.4637,130.1072
197.3988,130.1506
197.3554,130.2155
197.3402,130.2920
197.3402,130.6920
197.3554,130.7685
197.3988,130.8334
197.4637,130.8768
197.5402,130.8920
198.0902,130.8920
198.1667,130.8768
198.2316,130.8334
198.2750,130.7685
198.2902,130.6920
198.2902,130.2920
198.2750,130.2155
198.2316,130.1506
198.1667,130.1072
198.0902,130.0920
Z" /> 
<path style="fill:#000000; fill-opacity:1.0000; stroke:none;fill-rule:evenodd;"
d="M 202.5440,111.8050
202.4675,111.8202
202.4026,111.8636
202.3592,111.9285
202.3440,112.0050
202.3440,112.4050
202.3592,112.4815
202.4026,112.5464
202.4675,112.5898
202.5440,112.6050
203.0940,112.6050
203.1705,112.5898
203.2354,112.5464
203.2788,112.4815
203.2940,112.4050
203.2940,112.0050
203.2788,111.9285
203.2354,111.8636
203.1705,111.8202
203.0940,111.8050
Z" /> 
<path style="fill:#000000; fill-opacity:1.0000; stroke:none;fill-rule:evenodd;"
d="M 202.5440,113.4550
202.4675,113.4702
202.4026,113.5136
202.3592,113.5785
202.3440,113.6550
202.3440,114.0550
202.3592,114.1315
202.4026,114.1964
202.4675,114.2398
202.5440,114.2550
203.0940,114.2550
203.1705,114.2398
203.2354,114.1964
203.2788,114.1315
203.2940,114.0550
203.2940,113.6550
203.2788,113.5785
203.2354,113.5136
203.1705,113.4702
203.0940,113.4550
Z" /> 
</g>
<g style="fill:none; 
stroke:#000000; stroke-width:0.0500; stroke-opacity:1; 
stroke-linecap:round; stroke-linejoin:round;">
<path d="M192.2572 112.9416
L192.2572 134.2004
" />
<path d="M212.1614 114.9388
L212.1581 132.2132
" />
<path d="M192.2572 134.2004 A13.9291 13.9291 0.0 0 0 212.1581 132.2132" />
<path d="M212.1614 114.9388 A13.9097 13.9097 0.0 0 0 192.2572 112.9416" />
</g> 
</svg>
