%TF.GenerationSoftware,KiCad,Pcbnew,9.0.7-9.0.7~ubuntu24.04.1*%
%TF.CreationDate,2026-01-03T17:13:33-08:00*%
%TF.ProjectId,BeamBreak-v1,4265616d-4272-4656-916b-2d76312e6b69,1*%
%TF.SameCoordinates,Original*%
%TF.FileFunction,Legend,Top*%
%TF.FilePolarity,Positive*%
%FSLAX46Y46*%
G04 Gerber Fmt 4.6, Leading zero omitted, Abs format (unit mm)*
G04 Created by KiCad (PCBNEW 9.0.7-9.0.7~ubuntu24.04.1) date 2026-01-03 17:13:33*
%MOMM*%
%LPD*%
G01*
G04 APERTURE LIST*
%ADD10C,0.152400*%
%ADD11C,0.127000*%
%ADD12C,0.120000*%
%ADD13C,0.100000*%
G04 APERTURE END LIST*
D10*
X164467896Y-98409879D02*
X164171563Y-97986546D01*
X163959896Y-98409879D02*
X163959896Y-97520879D01*
X163959896Y-97520879D02*
X164298563Y-97520879D01*
X164298563Y-97520879D02*
X164383230Y-97563212D01*
X164383230Y-97563212D02*
X164425563Y-97605546D01*
X164425563Y-97605546D02*
X164467896Y-97690212D01*
X164467896Y-97690212D02*
X164467896Y-97817212D01*
X164467896Y-97817212D02*
X164425563Y-97901879D01*
X164425563Y-97901879D02*
X164383230Y-97944212D01*
X164383230Y-97944212D02*
X164298563Y-97986546D01*
X164298563Y-97986546D02*
X163959896Y-97986546D01*
X164721896Y-97520879D02*
X165229896Y-97520879D01*
X164975896Y-98409879D02*
X164975896Y-97520879D01*
X165526229Y-98409879D02*
X165526229Y-97520879D01*
X165526229Y-97520879D02*
X166034229Y-98409879D01*
X166034229Y-98409879D02*
X166034229Y-97520879D01*
D11*
X177556980Y-122462398D02*
X177665837Y-122498684D01*
X177665837Y-122498684D02*
X177702123Y-122534970D01*
X177702123Y-122534970D02*
X177738409Y-122607541D01*
X177738409Y-122607541D02*
X177738409Y-122716398D01*
X177738409Y-122716398D02*
X177702123Y-122788970D01*
X177702123Y-122788970D02*
X177665837Y-122825256D01*
X177665837Y-122825256D02*
X177593266Y-122861541D01*
X177593266Y-122861541D02*
X177302980Y-122861541D01*
X177302980Y-122861541D02*
X177302980Y-122099541D01*
X177302980Y-122099541D02*
X177556980Y-122099541D01*
X177556980Y-122099541D02*
X177629552Y-122135827D01*
X177629552Y-122135827D02*
X177665837Y-122172113D01*
X177665837Y-122172113D02*
X177702123Y-122244684D01*
X177702123Y-122244684D02*
X177702123Y-122317256D01*
X177702123Y-122317256D02*
X177665837Y-122389827D01*
X177665837Y-122389827D02*
X177629552Y-122426113D01*
X177629552Y-122426113D02*
X177556980Y-122462398D01*
X177556980Y-122462398D02*
X177302980Y-122462398D01*
X178064980Y-122462398D02*
X178318980Y-122462398D01*
X178427837Y-122861541D02*
X178064980Y-122861541D01*
X178064980Y-122861541D02*
X178064980Y-122099541D01*
X178064980Y-122099541D02*
X178427837Y-122099541D01*
X178718123Y-122643827D02*
X179080981Y-122643827D01*
X178645552Y-122861541D02*
X178899552Y-122099541D01*
X178899552Y-122099541D02*
X179153552Y-122861541D01*
X179407552Y-122861541D02*
X179407552Y-122099541D01*
X179407552Y-122099541D02*
X179661552Y-122643827D01*
X179661552Y-122643827D02*
X179915552Y-122099541D01*
X179915552Y-122099541D02*
X179915552Y-122861541D01*
X181112980Y-122462398D02*
X181221837Y-122498684D01*
X181221837Y-122498684D02*
X181258123Y-122534970D01*
X181258123Y-122534970D02*
X181294409Y-122607541D01*
X181294409Y-122607541D02*
X181294409Y-122716398D01*
X181294409Y-122716398D02*
X181258123Y-122788970D01*
X181258123Y-122788970D02*
X181221837Y-122825256D01*
X181221837Y-122825256D02*
X181149266Y-122861541D01*
X181149266Y-122861541D02*
X180858980Y-122861541D01*
X180858980Y-122861541D02*
X180858980Y-122099541D01*
X180858980Y-122099541D02*
X181112980Y-122099541D01*
X181112980Y-122099541D02*
X181185552Y-122135827D01*
X181185552Y-122135827D02*
X181221837Y-122172113D01*
X181221837Y-122172113D02*
X181258123Y-122244684D01*
X181258123Y-122244684D02*
X181258123Y-122317256D01*
X181258123Y-122317256D02*
X181221837Y-122389827D01*
X181221837Y-122389827D02*
X181185552Y-122426113D01*
X181185552Y-122426113D02*
X181112980Y-122462398D01*
X181112980Y-122462398D02*
X180858980Y-122462398D01*
X182056409Y-122861541D02*
X181802409Y-122498684D01*
X181620980Y-122861541D02*
X181620980Y-122099541D01*
X181620980Y-122099541D02*
X181911266Y-122099541D01*
X181911266Y-122099541D02*
X181983837Y-122135827D01*
X181983837Y-122135827D02*
X182020123Y-122172113D01*
X182020123Y-122172113D02*
X182056409Y-122244684D01*
X182056409Y-122244684D02*
X182056409Y-122353541D01*
X182056409Y-122353541D02*
X182020123Y-122426113D01*
X182020123Y-122426113D02*
X181983837Y-122462398D01*
X181983837Y-122462398D02*
X181911266Y-122498684D01*
X181911266Y-122498684D02*
X181620980Y-122498684D01*
X182382980Y-122462398D02*
X182636980Y-122462398D01*
X182745837Y-122861541D02*
X182382980Y-122861541D01*
X182382980Y-122861541D02*
X182382980Y-122099541D01*
X182382980Y-122099541D02*
X182745837Y-122099541D01*
X183036123Y-122643827D02*
X183398981Y-122643827D01*
X182963552Y-122861541D02*
X183217552Y-122099541D01*
X183217552Y-122099541D02*
X183471552Y-122861541D01*
X183725552Y-122861541D02*
X183725552Y-122099541D01*
X184160981Y-122861541D02*
X183834409Y-122426113D01*
X184160981Y-122099541D02*
X183725552Y-122534970D01*
X185031837Y-122643827D02*
X185394695Y-122643827D01*
X184959266Y-122861541D02*
X185213266Y-122099541D01*
X185213266Y-122099541D02*
X185467266Y-122861541D01*
X185721266Y-122861541D02*
X185721266Y-122099541D01*
X185721266Y-122099541D02*
X185902695Y-122099541D01*
X185902695Y-122099541D02*
X186011552Y-122135827D01*
X186011552Y-122135827D02*
X186084123Y-122208398D01*
X186084123Y-122208398D02*
X186120409Y-122280970D01*
X186120409Y-122280970D02*
X186156695Y-122426113D01*
X186156695Y-122426113D02*
X186156695Y-122534970D01*
X186156695Y-122534970D02*
X186120409Y-122680113D01*
X186120409Y-122680113D02*
X186084123Y-122752684D01*
X186084123Y-122752684D02*
X186011552Y-122825256D01*
X186011552Y-122825256D02*
X185902695Y-122861541D01*
X185902695Y-122861541D02*
X185721266Y-122861541D01*
X186446980Y-122643827D02*
X186809838Y-122643827D01*
X186374409Y-122861541D02*
X186628409Y-122099541D01*
X186628409Y-122099541D02*
X186882409Y-122861541D01*
X187136409Y-122861541D02*
X187136409Y-122099541D01*
X187136409Y-122099541D02*
X187426695Y-122099541D01*
X187426695Y-122099541D02*
X187499266Y-122135827D01*
X187499266Y-122135827D02*
X187535552Y-122172113D01*
X187535552Y-122172113D02*
X187571838Y-122244684D01*
X187571838Y-122244684D02*
X187571838Y-122353541D01*
X187571838Y-122353541D02*
X187535552Y-122426113D01*
X187535552Y-122426113D02*
X187499266Y-122462398D01*
X187499266Y-122462398D02*
X187426695Y-122498684D01*
X187426695Y-122498684D02*
X187136409Y-122498684D01*
X187789552Y-122099541D02*
X188224981Y-122099541D01*
X188007266Y-122861541D02*
X188007266Y-122099541D01*
X188478980Y-122462398D02*
X188732980Y-122462398D01*
X188841837Y-122861541D02*
X188478980Y-122861541D01*
X188478980Y-122861541D02*
X188478980Y-122099541D01*
X188478980Y-122099541D02*
X188841837Y-122099541D01*
X189603838Y-122861541D02*
X189349838Y-122498684D01*
X189168409Y-122861541D02*
X189168409Y-122099541D01*
X189168409Y-122099541D02*
X189458695Y-122099541D01*
X189458695Y-122099541D02*
X189531266Y-122135827D01*
X189531266Y-122135827D02*
X189567552Y-122172113D01*
X189567552Y-122172113D02*
X189603838Y-122244684D01*
X189603838Y-122244684D02*
X189603838Y-122353541D01*
X189603838Y-122353541D02*
X189567552Y-122426113D01*
X189567552Y-122426113D02*
X189531266Y-122462398D01*
X189531266Y-122462398D02*
X189458695Y-122498684D01*
X189458695Y-122498684D02*
X189168409Y-122498684D01*
X190402123Y-122099541D02*
X190656123Y-122861541D01*
X190656123Y-122861541D02*
X190910123Y-122099541D01*
X191563266Y-122861541D02*
X191127837Y-122861541D01*
X191345552Y-122861541D02*
X191345552Y-122099541D01*
X191345552Y-122099541D02*
X191272980Y-122208398D01*
X191272980Y-122208398D02*
X191200409Y-122280970D01*
X191200409Y-122280970D02*
X191127837Y-122317256D01*
D10*
X163710129Y-108353344D02*
X164006463Y-109242344D01*
X164006463Y-109242344D02*
X164302796Y-108353344D01*
X164895463Y-108776677D02*
X165022463Y-108819011D01*
X165022463Y-108819011D02*
X165064796Y-108861344D01*
X165064796Y-108861344D02*
X165107129Y-108946011D01*
X165107129Y-108946011D02*
X165107129Y-109073011D01*
X165107129Y-109073011D02*
X165064796Y-109157677D01*
X165064796Y-109157677D02*
X165022463Y-109200011D01*
X165022463Y-109200011D02*
X164937796Y-109242344D01*
X164937796Y-109242344D02*
X164599129Y-109242344D01*
X164599129Y-109242344D02*
X164599129Y-108353344D01*
X164599129Y-108353344D02*
X164895463Y-108353344D01*
X164895463Y-108353344D02*
X164980129Y-108395677D01*
X164980129Y-108395677D02*
X165022463Y-108438011D01*
X165022463Y-108438011D02*
X165064796Y-108522677D01*
X165064796Y-108522677D02*
X165064796Y-108607344D01*
X165064796Y-108607344D02*
X165022463Y-108692011D01*
X165022463Y-108692011D02*
X164980129Y-108734344D01*
X164980129Y-108734344D02*
X164895463Y-108776677D01*
X164895463Y-108776677D02*
X164599129Y-108776677D01*
X165445796Y-108988344D02*
X165869129Y-108988344D01*
X165361129Y-109242344D02*
X165657463Y-108353344D01*
X165657463Y-108353344D02*
X165953796Y-109242344D01*
X166123129Y-108353344D02*
X166631129Y-108353344D01*
X166377129Y-109242344D02*
X166377129Y-108353344D01*
D11*
X177226780Y-116300764D02*
X177226780Y-115538764D01*
X177226780Y-115538764D02*
X177408209Y-115538764D01*
X177408209Y-115538764D02*
X177517066Y-115575050D01*
X177517066Y-115575050D02*
X177589637Y-115647621D01*
X177589637Y-115647621D02*
X177625923Y-115720193D01*
X177625923Y-115720193D02*
X177662209Y-115865336D01*
X177662209Y-115865336D02*
X177662209Y-115974193D01*
X177662209Y-115974193D02*
X177625923Y-116119336D01*
X177625923Y-116119336D02*
X177589637Y-116191907D01*
X177589637Y-116191907D02*
X177517066Y-116264479D01*
X177517066Y-116264479D02*
X177408209Y-116300764D01*
X177408209Y-116300764D02*
X177226780Y-116300764D01*
X177988780Y-116300764D02*
X177988780Y-115538764D01*
X178496780Y-115538764D02*
X178641923Y-115538764D01*
X178641923Y-115538764D02*
X178714494Y-115575050D01*
X178714494Y-115575050D02*
X178787066Y-115647621D01*
X178787066Y-115647621D02*
X178823351Y-115792764D01*
X178823351Y-115792764D02*
X178823351Y-116046764D01*
X178823351Y-116046764D02*
X178787066Y-116191907D01*
X178787066Y-116191907D02*
X178714494Y-116264479D01*
X178714494Y-116264479D02*
X178641923Y-116300764D01*
X178641923Y-116300764D02*
X178496780Y-116300764D01*
X178496780Y-116300764D02*
X178424209Y-116264479D01*
X178424209Y-116264479D02*
X178351637Y-116191907D01*
X178351637Y-116191907D02*
X178315351Y-116046764D01*
X178315351Y-116046764D02*
X178315351Y-115792764D01*
X178315351Y-115792764D02*
X178351637Y-115647621D01*
X178351637Y-115647621D02*
X178424209Y-115575050D01*
X178424209Y-115575050D02*
X178496780Y-115538764D01*
X177625923Y-116801827D02*
X177553352Y-116765541D01*
X177553352Y-116765541D02*
X177444494Y-116765541D01*
X177444494Y-116765541D02*
X177335637Y-116801827D01*
X177335637Y-116801827D02*
X177263066Y-116874398D01*
X177263066Y-116874398D02*
X177226780Y-116946970D01*
X177226780Y-116946970D02*
X177190494Y-117092113D01*
X177190494Y-117092113D02*
X177190494Y-117200970D01*
X177190494Y-117200970D02*
X177226780Y-117346113D01*
X177226780Y-117346113D02*
X177263066Y-117418684D01*
X177263066Y-117418684D02*
X177335637Y-117491256D01*
X177335637Y-117491256D02*
X177444494Y-117527541D01*
X177444494Y-117527541D02*
X177517066Y-117527541D01*
X177517066Y-117527541D02*
X177625923Y-117491256D01*
X177625923Y-117491256D02*
X177662209Y-117454970D01*
X177662209Y-117454970D02*
X177662209Y-117200970D01*
X177662209Y-117200970D02*
X177517066Y-117200970D01*
X177988780Y-117527541D02*
X177988780Y-116765541D01*
X177988780Y-116765541D02*
X178424209Y-117527541D01*
X178424209Y-117527541D02*
X178424209Y-116765541D01*
X178787066Y-117527541D02*
X178787066Y-116765541D01*
X178787066Y-116765541D02*
X178968495Y-116765541D01*
X178968495Y-116765541D02*
X179077352Y-116801827D01*
X179077352Y-116801827D02*
X179149923Y-116874398D01*
X179149923Y-116874398D02*
X179186209Y-116946970D01*
X179186209Y-116946970D02*
X179222495Y-117092113D01*
X179222495Y-117092113D02*
X179222495Y-117200970D01*
X179222495Y-117200970D02*
X179186209Y-117346113D01*
X179186209Y-117346113D02*
X179149923Y-117418684D01*
X179149923Y-117418684D02*
X179077352Y-117491256D01*
X179077352Y-117491256D02*
X178968495Y-117527541D01*
X178968495Y-117527541D02*
X178787066Y-117527541D01*
X183337200Y-97145311D02*
X183083200Y-96782454D01*
X182901771Y-97145311D02*
X182901771Y-96383311D01*
X182901771Y-96383311D02*
X183192057Y-96383311D01*
X183192057Y-96383311D02*
X183264628Y-96419597D01*
X183264628Y-96419597D02*
X183300914Y-96455883D01*
X183300914Y-96455883D02*
X183337200Y-96528454D01*
X183337200Y-96528454D02*
X183337200Y-96637311D01*
X183337200Y-96637311D02*
X183300914Y-96709883D01*
X183300914Y-96709883D02*
X183264628Y-96746168D01*
X183264628Y-96746168D02*
X183192057Y-96782454D01*
X183192057Y-96782454D02*
X182901771Y-96782454D01*
X184062914Y-97145311D02*
X183627485Y-97145311D01*
X183845200Y-97145311D02*
X183845200Y-96383311D01*
X183845200Y-96383311D02*
X183772628Y-96492168D01*
X183772628Y-96492168D02*
X183700057Y-96564740D01*
X183700057Y-96564740D02*
X183627485Y-96601026D01*
X199567800Y-122291311D02*
X199313800Y-121928454D01*
X199132371Y-122291311D02*
X199132371Y-121529311D01*
X199132371Y-121529311D02*
X199422657Y-121529311D01*
X199422657Y-121529311D02*
X199495228Y-121565597D01*
X199495228Y-121565597D02*
X199531514Y-121601883D01*
X199531514Y-121601883D02*
X199567800Y-121674454D01*
X199567800Y-121674454D02*
X199567800Y-121783311D01*
X199567800Y-121783311D02*
X199531514Y-121855883D01*
X199531514Y-121855883D02*
X199495228Y-121892168D01*
X199495228Y-121892168D02*
X199422657Y-121928454D01*
X199422657Y-121928454D02*
X199132371Y-121928454D01*
X199930657Y-122291311D02*
X200075800Y-122291311D01*
X200075800Y-122291311D02*
X200148371Y-122255026D01*
X200148371Y-122255026D02*
X200184657Y-122218740D01*
X200184657Y-122218740D02*
X200257228Y-122109883D01*
X200257228Y-122109883D02*
X200293514Y-121964740D01*
X200293514Y-121964740D02*
X200293514Y-121674454D01*
X200293514Y-121674454D02*
X200257228Y-121601883D01*
X200257228Y-121601883D02*
X200220943Y-121565597D01*
X200220943Y-121565597D02*
X200148371Y-121529311D01*
X200148371Y-121529311D02*
X200003228Y-121529311D01*
X200003228Y-121529311D02*
X199930657Y-121565597D01*
X199930657Y-121565597D02*
X199894371Y-121601883D01*
X199894371Y-121601883D02*
X199858085Y-121674454D01*
X199858085Y-121674454D02*
X199858085Y-121855883D01*
X199858085Y-121855883D02*
X199894371Y-121928454D01*
X199894371Y-121928454D02*
X199930657Y-121964740D01*
X199930657Y-121964740D02*
X200003228Y-122001026D01*
X200003228Y-122001026D02*
X200148371Y-122001026D01*
X200148371Y-122001026D02*
X200220943Y-121964740D01*
X200220943Y-121964740D02*
X200257228Y-121928454D01*
X200257228Y-121928454D02*
X200293514Y-121855883D01*
X167915771Y-110556511D02*
X167915771Y-109794511D01*
X167915771Y-109794511D02*
X168097200Y-109794511D01*
X168097200Y-109794511D02*
X168206057Y-109830797D01*
X168206057Y-109830797D02*
X168278628Y-109903368D01*
X168278628Y-109903368D02*
X168314914Y-109975940D01*
X168314914Y-109975940D02*
X168351200Y-110121083D01*
X168351200Y-110121083D02*
X168351200Y-110229940D01*
X168351200Y-110229940D02*
X168314914Y-110375083D01*
X168314914Y-110375083D02*
X168278628Y-110447654D01*
X168278628Y-110447654D02*
X168206057Y-110520226D01*
X168206057Y-110520226D02*
X168097200Y-110556511D01*
X168097200Y-110556511D02*
X167915771Y-110556511D01*
X168641485Y-109867083D02*
X168677771Y-109830797D01*
X168677771Y-109830797D02*
X168750343Y-109794511D01*
X168750343Y-109794511D02*
X168931771Y-109794511D01*
X168931771Y-109794511D02*
X169004343Y-109830797D01*
X169004343Y-109830797D02*
X169040628Y-109867083D01*
X169040628Y-109867083D02*
X169076914Y-109939654D01*
X169076914Y-109939654D02*
X169076914Y-110012226D01*
X169076914Y-110012226D02*
X169040628Y-110121083D01*
X169040628Y-110121083D02*
X168605200Y-110556511D01*
X168605200Y-110556511D02*
X169076914Y-110556511D01*
X181991000Y-116246111D02*
X181628143Y-116246111D01*
X181628143Y-116246111D02*
X181628143Y-115484111D01*
X182644143Y-116246111D02*
X182208714Y-116246111D01*
X182426429Y-116246111D02*
X182426429Y-115484111D01*
X182426429Y-115484111D02*
X182353857Y-115592968D01*
X182353857Y-115592968D02*
X182281286Y-115665540D01*
X182281286Y-115665540D02*
X182208714Y-115701826D01*
X195665739Y-112896940D02*
X195629453Y-112933226D01*
X195629453Y-112933226D02*
X195520596Y-112969511D01*
X195520596Y-112969511D02*
X195448024Y-112969511D01*
X195448024Y-112969511D02*
X195339167Y-112933226D01*
X195339167Y-112933226D02*
X195266596Y-112860654D01*
X195266596Y-112860654D02*
X195230310Y-112788083D01*
X195230310Y-112788083D02*
X195194024Y-112642940D01*
X195194024Y-112642940D02*
X195194024Y-112534083D01*
X195194024Y-112534083D02*
X195230310Y-112388940D01*
X195230310Y-112388940D02*
X195266596Y-112316368D01*
X195266596Y-112316368D02*
X195339167Y-112243797D01*
X195339167Y-112243797D02*
X195448024Y-112207511D01*
X195448024Y-112207511D02*
X195520596Y-112207511D01*
X195520596Y-112207511D02*
X195629453Y-112243797D01*
X195629453Y-112243797D02*
X195665739Y-112280083D01*
X195919739Y-112207511D02*
X196427739Y-112207511D01*
X196427739Y-112207511D02*
X196101167Y-112969511D01*
X211912200Y-98135911D02*
X211658200Y-97773054D01*
X211476771Y-98135911D02*
X211476771Y-97373911D01*
X211476771Y-97373911D02*
X211767057Y-97373911D01*
X211767057Y-97373911D02*
X211839628Y-97410197D01*
X211839628Y-97410197D02*
X211875914Y-97446483D01*
X211875914Y-97446483D02*
X211912200Y-97519054D01*
X211912200Y-97519054D02*
X211912200Y-97627911D01*
X211912200Y-97627911D02*
X211875914Y-97700483D01*
X211875914Y-97700483D02*
X211839628Y-97736768D01*
X211839628Y-97736768D02*
X211767057Y-97773054D01*
X211767057Y-97773054D02*
X211476771Y-97773054D01*
X212565343Y-97627911D02*
X212565343Y-98135911D01*
X212383914Y-97337626D02*
X212202485Y-97881911D01*
X212202485Y-97881911D02*
X212674200Y-97881911D01*
X188700228Y-104816111D02*
X188700228Y-105432968D01*
X188700228Y-105432968D02*
X188736514Y-105505540D01*
X188736514Y-105505540D02*
X188772800Y-105541826D01*
X188772800Y-105541826D02*
X188845371Y-105578111D01*
X188845371Y-105578111D02*
X188990514Y-105578111D01*
X188990514Y-105578111D02*
X189063085Y-105541826D01*
X189063085Y-105541826D02*
X189099371Y-105505540D01*
X189099371Y-105505540D02*
X189135657Y-105432968D01*
X189135657Y-105432968D02*
X189135657Y-104816111D01*
X189462228Y-104888683D02*
X189498514Y-104852397D01*
X189498514Y-104852397D02*
X189571086Y-104816111D01*
X189571086Y-104816111D02*
X189752514Y-104816111D01*
X189752514Y-104816111D02*
X189825086Y-104852397D01*
X189825086Y-104852397D02*
X189861371Y-104888683D01*
X189861371Y-104888683D02*
X189897657Y-104961254D01*
X189897657Y-104961254D02*
X189897657Y-105033826D01*
X189897657Y-105033826D02*
X189861371Y-105142683D01*
X189861371Y-105142683D02*
X189425943Y-105578111D01*
X189425943Y-105578111D02*
X189897657Y-105578111D01*
X207191428Y-102733311D02*
X207191428Y-103350168D01*
X207191428Y-103350168D02*
X207227714Y-103422740D01*
X207227714Y-103422740D02*
X207264000Y-103459026D01*
X207264000Y-103459026D02*
X207336571Y-103495311D01*
X207336571Y-103495311D02*
X207481714Y-103495311D01*
X207481714Y-103495311D02*
X207554285Y-103459026D01*
X207554285Y-103459026D02*
X207590571Y-103422740D01*
X207590571Y-103422740D02*
X207626857Y-103350168D01*
X207626857Y-103350168D02*
X207626857Y-102733311D01*
X208388857Y-103495311D02*
X207953428Y-103495311D01*
X208171143Y-103495311D02*
X208171143Y-102733311D01*
X208171143Y-102733311D02*
X208098571Y-102842168D01*
X208098571Y-102842168D02*
X208026000Y-102914740D01*
X208026000Y-102914740D02*
X207953428Y-102951026D01*
X174843911Y-105790999D02*
X175388197Y-105790999D01*
X175388197Y-105790999D02*
X175497054Y-105827284D01*
X175497054Y-105827284D02*
X175569626Y-105899856D01*
X175569626Y-105899856D02*
X175605911Y-106008713D01*
X175605911Y-106008713D02*
X175605911Y-106081284D01*
X175605911Y-105028999D02*
X175605911Y-105464428D01*
X175605911Y-105246713D02*
X174843911Y-105246713D01*
X174843911Y-105246713D02*
X174952768Y-105319285D01*
X174952768Y-105319285D02*
X175025340Y-105391856D01*
X175025340Y-105391856D02*
X175061626Y-105464428D01*
X206824943Y-122291311D02*
X206570943Y-121928454D01*
X206389514Y-122291311D02*
X206389514Y-121529311D01*
X206389514Y-121529311D02*
X206679800Y-121529311D01*
X206679800Y-121529311D02*
X206752371Y-121565597D01*
X206752371Y-121565597D02*
X206788657Y-121601883D01*
X206788657Y-121601883D02*
X206824943Y-121674454D01*
X206824943Y-121674454D02*
X206824943Y-121783311D01*
X206824943Y-121783311D02*
X206788657Y-121855883D01*
X206788657Y-121855883D02*
X206752371Y-121892168D01*
X206752371Y-121892168D02*
X206679800Y-121928454D01*
X206679800Y-121928454D02*
X206389514Y-121928454D01*
X207550657Y-122291311D02*
X207115228Y-122291311D01*
X207332943Y-122291311D02*
X207332943Y-121529311D01*
X207332943Y-121529311D02*
X207260371Y-121638168D01*
X207260371Y-121638168D02*
X207187800Y-121710740D01*
X207187800Y-121710740D02*
X207115228Y-121747026D01*
X208276371Y-122291311D02*
X207840942Y-122291311D01*
X208058657Y-122291311D02*
X208058657Y-121529311D01*
X208058657Y-121529311D02*
X207986085Y-121638168D01*
X207986085Y-121638168D02*
X207913514Y-121710740D01*
X207913514Y-121710740D02*
X207840942Y-121747026D01*
X195396140Y-104952799D02*
X195432426Y-104989085D01*
X195432426Y-104989085D02*
X195468711Y-105097942D01*
X195468711Y-105097942D02*
X195468711Y-105170514D01*
X195468711Y-105170514D02*
X195432426Y-105279371D01*
X195432426Y-105279371D02*
X195359854Y-105351942D01*
X195359854Y-105351942D02*
X195287283Y-105388228D01*
X195287283Y-105388228D02*
X195142140Y-105424514D01*
X195142140Y-105424514D02*
X195033283Y-105424514D01*
X195033283Y-105424514D02*
X194888140Y-105388228D01*
X194888140Y-105388228D02*
X194815568Y-105351942D01*
X194815568Y-105351942D02*
X194742997Y-105279371D01*
X194742997Y-105279371D02*
X194706711Y-105170514D01*
X194706711Y-105170514D02*
X194706711Y-105097942D01*
X194706711Y-105097942D02*
X194742997Y-104989085D01*
X194742997Y-104989085D02*
X194779283Y-104952799D01*
X194960711Y-104299657D02*
X195468711Y-104299657D01*
X194670426Y-104481085D02*
X195214711Y-104662514D01*
X195214711Y-104662514D02*
X195214711Y-104190799D01*
X210282971Y-103596911D02*
X210282971Y-102834911D01*
X210282971Y-102834911D02*
X210464400Y-102834911D01*
X210464400Y-102834911D02*
X210573257Y-102871197D01*
X210573257Y-102871197D02*
X210645828Y-102943768D01*
X210645828Y-102943768D02*
X210682114Y-103016340D01*
X210682114Y-103016340D02*
X210718400Y-103161483D01*
X210718400Y-103161483D02*
X210718400Y-103270340D01*
X210718400Y-103270340D02*
X210682114Y-103415483D01*
X210682114Y-103415483D02*
X210645828Y-103488054D01*
X210645828Y-103488054D02*
X210573257Y-103560626D01*
X210573257Y-103560626D02*
X210464400Y-103596911D01*
X210464400Y-103596911D02*
X210282971Y-103596911D01*
X211444114Y-103596911D02*
X211008685Y-103596911D01*
X211226400Y-103596911D02*
X211226400Y-102834911D01*
X211226400Y-102834911D02*
X211153828Y-102943768D01*
X211153828Y-102943768D02*
X211081257Y-103016340D01*
X211081257Y-103016340D02*
X211008685Y-103052626D01*
D10*
X215719144Y-102658333D02*
X214830144Y-102658333D01*
X214830144Y-102658333D02*
X214830144Y-102319666D01*
X214830144Y-102319666D02*
X214872477Y-102235000D01*
X214872477Y-102235000D02*
X214914811Y-102192666D01*
X214914811Y-102192666D02*
X214999477Y-102150333D01*
X214999477Y-102150333D02*
X215126477Y-102150333D01*
X215126477Y-102150333D02*
X215211144Y-102192666D01*
X215211144Y-102192666D02*
X215253477Y-102235000D01*
X215253477Y-102235000D02*
X215295811Y-102319666D01*
X215295811Y-102319666D02*
X215295811Y-102658333D01*
X214830144Y-101854000D02*
X215719144Y-101642333D01*
X215719144Y-101642333D02*
X215084144Y-101473000D01*
X215084144Y-101473000D02*
X215719144Y-101303666D01*
X215719144Y-101303666D02*
X214830144Y-101092000D01*
X215719144Y-100245333D02*
X215295811Y-100541666D01*
X215719144Y-100753333D02*
X214830144Y-100753333D01*
X214830144Y-100753333D02*
X214830144Y-100414666D01*
X214830144Y-100414666D02*
X214872477Y-100330000D01*
X214872477Y-100330000D02*
X214914811Y-100287666D01*
X214914811Y-100287666D02*
X214999477Y-100245333D01*
X214999477Y-100245333D02*
X215126477Y-100245333D01*
X215126477Y-100245333D02*
X215211144Y-100287666D01*
X215211144Y-100287666D02*
X215253477Y-100330000D01*
X215253477Y-100330000D02*
X215295811Y-100414666D01*
X215295811Y-100414666D02*
X215295811Y-100753333D01*
D11*
X177876200Y-97606140D02*
X177839914Y-97642426D01*
X177839914Y-97642426D02*
X177731057Y-97678711D01*
X177731057Y-97678711D02*
X177658485Y-97678711D01*
X177658485Y-97678711D02*
X177549628Y-97642426D01*
X177549628Y-97642426D02*
X177477057Y-97569854D01*
X177477057Y-97569854D02*
X177440771Y-97497283D01*
X177440771Y-97497283D02*
X177404485Y-97352140D01*
X177404485Y-97352140D02*
X177404485Y-97243283D01*
X177404485Y-97243283D02*
X177440771Y-97098140D01*
X177440771Y-97098140D02*
X177477057Y-97025568D01*
X177477057Y-97025568D02*
X177549628Y-96952997D01*
X177549628Y-96952997D02*
X177658485Y-96916711D01*
X177658485Y-96916711D02*
X177731057Y-96916711D01*
X177731057Y-96916711D02*
X177839914Y-96952997D01*
X177839914Y-96952997D02*
X177876200Y-96989283D01*
X178166485Y-96989283D02*
X178202771Y-96952997D01*
X178202771Y-96952997D02*
X178275343Y-96916711D01*
X178275343Y-96916711D02*
X178456771Y-96916711D01*
X178456771Y-96916711D02*
X178529343Y-96952997D01*
X178529343Y-96952997D02*
X178565628Y-96989283D01*
X178565628Y-96989283D02*
X178601914Y-97061854D01*
X178601914Y-97061854D02*
X178601914Y-97134426D01*
X178601914Y-97134426D02*
X178565628Y-97243283D01*
X178565628Y-97243283D02*
X178130200Y-97678711D01*
X178130200Y-97678711D02*
X178601914Y-97678711D01*
X181479371Y-121554711D02*
X181479371Y-120792711D01*
X181479371Y-120792711D02*
X181660800Y-120792711D01*
X181660800Y-120792711D02*
X181769657Y-120828997D01*
X181769657Y-120828997D02*
X181842228Y-120901568D01*
X181842228Y-120901568D02*
X181878514Y-120974140D01*
X181878514Y-120974140D02*
X181914800Y-121119283D01*
X181914800Y-121119283D02*
X181914800Y-121228140D01*
X181914800Y-121228140D02*
X181878514Y-121373283D01*
X181878514Y-121373283D02*
X181842228Y-121445854D01*
X181842228Y-121445854D02*
X181769657Y-121518426D01*
X181769657Y-121518426D02*
X181660800Y-121554711D01*
X181660800Y-121554711D02*
X181479371Y-121554711D01*
X182168800Y-120792711D02*
X182676800Y-120792711D01*
X182676800Y-120792711D02*
X182350228Y-121554711D01*
X202231171Y-119192511D02*
X202231171Y-118430511D01*
X202231171Y-118430511D02*
X202412600Y-118430511D01*
X202412600Y-118430511D02*
X202521457Y-118466797D01*
X202521457Y-118466797D02*
X202594028Y-118539368D01*
X202594028Y-118539368D02*
X202630314Y-118611940D01*
X202630314Y-118611940D02*
X202666600Y-118757083D01*
X202666600Y-118757083D02*
X202666600Y-118865940D01*
X202666600Y-118865940D02*
X202630314Y-119011083D01*
X202630314Y-119011083D02*
X202594028Y-119083654D01*
X202594028Y-119083654D02*
X202521457Y-119156226D01*
X202521457Y-119156226D02*
X202412600Y-119192511D01*
X202412600Y-119192511D02*
X202231171Y-119192511D01*
X203356028Y-118430511D02*
X202993171Y-118430511D01*
X202993171Y-118430511D02*
X202956885Y-118793368D01*
X202956885Y-118793368D02*
X202993171Y-118757083D01*
X202993171Y-118757083D02*
X203065743Y-118720797D01*
X203065743Y-118720797D02*
X203247171Y-118720797D01*
X203247171Y-118720797D02*
X203319743Y-118757083D01*
X203319743Y-118757083D02*
X203356028Y-118793368D01*
X203356028Y-118793368D02*
X203392314Y-118865940D01*
X203392314Y-118865940D02*
X203392314Y-119047368D01*
X203392314Y-119047368D02*
X203356028Y-119119940D01*
X203356028Y-119119940D02*
X203319743Y-119156226D01*
X203319743Y-119156226D02*
X203247171Y-119192511D01*
X203247171Y-119192511D02*
X203065743Y-119192511D01*
X203065743Y-119192511D02*
X202993171Y-119156226D01*
X202993171Y-119156226D02*
X202956885Y-119119940D01*
X210660343Y-122291311D02*
X210406343Y-121928454D01*
X210224914Y-122291311D02*
X210224914Y-121529311D01*
X210224914Y-121529311D02*
X210515200Y-121529311D01*
X210515200Y-121529311D02*
X210587771Y-121565597D01*
X210587771Y-121565597D02*
X210624057Y-121601883D01*
X210624057Y-121601883D02*
X210660343Y-121674454D01*
X210660343Y-121674454D02*
X210660343Y-121783311D01*
X210660343Y-121783311D02*
X210624057Y-121855883D01*
X210624057Y-121855883D02*
X210587771Y-121892168D01*
X210587771Y-121892168D02*
X210515200Y-121928454D01*
X210515200Y-121928454D02*
X210224914Y-121928454D01*
X211386057Y-122291311D02*
X210950628Y-122291311D01*
X211168343Y-122291311D02*
X211168343Y-121529311D01*
X211168343Y-121529311D02*
X211095771Y-121638168D01*
X211095771Y-121638168D02*
X211023200Y-121710740D01*
X211023200Y-121710740D02*
X210950628Y-121747026D01*
X211676342Y-121601883D02*
X211712628Y-121565597D01*
X211712628Y-121565597D02*
X211785200Y-121529311D01*
X211785200Y-121529311D02*
X211966628Y-121529311D01*
X211966628Y-121529311D02*
X212039200Y-121565597D01*
X212039200Y-121565597D02*
X212075485Y-121601883D01*
X212075485Y-121601883D02*
X212111771Y-121674454D01*
X212111771Y-121674454D02*
X212111771Y-121747026D01*
X212111771Y-121747026D02*
X212075485Y-121855883D01*
X212075485Y-121855883D02*
X211640057Y-122291311D01*
X211640057Y-122291311D02*
X212111771Y-122291311D01*
X195681600Y-111931740D02*
X195645314Y-111968026D01*
X195645314Y-111968026D02*
X195536457Y-112004311D01*
X195536457Y-112004311D02*
X195463885Y-112004311D01*
X195463885Y-112004311D02*
X195355028Y-111968026D01*
X195355028Y-111968026D02*
X195282457Y-111895454D01*
X195282457Y-111895454D02*
X195246171Y-111822883D01*
X195246171Y-111822883D02*
X195209885Y-111677740D01*
X195209885Y-111677740D02*
X195209885Y-111568883D01*
X195209885Y-111568883D02*
X195246171Y-111423740D01*
X195246171Y-111423740D02*
X195282457Y-111351168D01*
X195282457Y-111351168D02*
X195355028Y-111278597D01*
X195355028Y-111278597D02*
X195463885Y-111242311D01*
X195463885Y-111242311D02*
X195536457Y-111242311D01*
X195536457Y-111242311D02*
X195645314Y-111278597D01*
X195645314Y-111278597D02*
X195681600Y-111314883D01*
X196334743Y-111242311D02*
X196189600Y-111242311D01*
X196189600Y-111242311D02*
X196117028Y-111278597D01*
X196117028Y-111278597D02*
X196080743Y-111314883D01*
X196080743Y-111314883D02*
X196008171Y-111423740D01*
X196008171Y-111423740D02*
X195971885Y-111568883D01*
X195971885Y-111568883D02*
X195971885Y-111859168D01*
X195971885Y-111859168D02*
X196008171Y-111931740D01*
X196008171Y-111931740D02*
X196044457Y-111968026D01*
X196044457Y-111968026D02*
X196117028Y-112004311D01*
X196117028Y-112004311D02*
X196262171Y-112004311D01*
X196262171Y-112004311D02*
X196334743Y-111968026D01*
X196334743Y-111968026D02*
X196371028Y-111931740D01*
X196371028Y-111931740D02*
X196407314Y-111859168D01*
X196407314Y-111859168D02*
X196407314Y-111677740D01*
X196407314Y-111677740D02*
X196371028Y-111605168D01*
X196371028Y-111605168D02*
X196334743Y-111568883D01*
X196334743Y-111568883D02*
X196262171Y-111532597D01*
X196262171Y-111532597D02*
X196117028Y-111532597D01*
X196117028Y-111532597D02*
X196044457Y-111568883D01*
X196044457Y-111568883D02*
X196008171Y-111605168D01*
X196008171Y-111605168D02*
X195971885Y-111677740D01*
X187477400Y-97145311D02*
X187223400Y-96782454D01*
X187041971Y-97145311D02*
X187041971Y-96383311D01*
X187041971Y-96383311D02*
X187332257Y-96383311D01*
X187332257Y-96383311D02*
X187404828Y-96419597D01*
X187404828Y-96419597D02*
X187441114Y-96455883D01*
X187441114Y-96455883D02*
X187477400Y-96528454D01*
X187477400Y-96528454D02*
X187477400Y-96637311D01*
X187477400Y-96637311D02*
X187441114Y-96709883D01*
X187441114Y-96709883D02*
X187404828Y-96746168D01*
X187404828Y-96746168D02*
X187332257Y-96782454D01*
X187332257Y-96782454D02*
X187041971Y-96782454D01*
X187767685Y-96455883D02*
X187803971Y-96419597D01*
X187803971Y-96419597D02*
X187876543Y-96383311D01*
X187876543Y-96383311D02*
X188057971Y-96383311D01*
X188057971Y-96383311D02*
X188130543Y-96419597D01*
X188130543Y-96419597D02*
X188166828Y-96455883D01*
X188166828Y-96455883D02*
X188203114Y-96528454D01*
X188203114Y-96528454D02*
X188203114Y-96601026D01*
X188203114Y-96601026D02*
X188166828Y-96709883D01*
X188166828Y-96709883D02*
X187731400Y-97145311D01*
X187731400Y-97145311D02*
X188203114Y-97145311D01*
X195732400Y-122291311D02*
X195478400Y-121928454D01*
X195296971Y-122291311D02*
X195296971Y-121529311D01*
X195296971Y-121529311D02*
X195587257Y-121529311D01*
X195587257Y-121529311D02*
X195659828Y-121565597D01*
X195659828Y-121565597D02*
X195696114Y-121601883D01*
X195696114Y-121601883D02*
X195732400Y-121674454D01*
X195732400Y-121674454D02*
X195732400Y-121783311D01*
X195732400Y-121783311D02*
X195696114Y-121855883D01*
X195696114Y-121855883D02*
X195659828Y-121892168D01*
X195659828Y-121892168D02*
X195587257Y-121928454D01*
X195587257Y-121928454D02*
X195296971Y-121928454D01*
X196167828Y-121855883D02*
X196095257Y-121819597D01*
X196095257Y-121819597D02*
X196058971Y-121783311D01*
X196058971Y-121783311D02*
X196022685Y-121710740D01*
X196022685Y-121710740D02*
X196022685Y-121674454D01*
X196022685Y-121674454D02*
X196058971Y-121601883D01*
X196058971Y-121601883D02*
X196095257Y-121565597D01*
X196095257Y-121565597D02*
X196167828Y-121529311D01*
X196167828Y-121529311D02*
X196312971Y-121529311D01*
X196312971Y-121529311D02*
X196385543Y-121565597D01*
X196385543Y-121565597D02*
X196421828Y-121601883D01*
X196421828Y-121601883D02*
X196458114Y-121674454D01*
X196458114Y-121674454D02*
X196458114Y-121710740D01*
X196458114Y-121710740D02*
X196421828Y-121783311D01*
X196421828Y-121783311D02*
X196385543Y-121819597D01*
X196385543Y-121819597D02*
X196312971Y-121855883D01*
X196312971Y-121855883D02*
X196167828Y-121855883D01*
X196167828Y-121855883D02*
X196095257Y-121892168D01*
X196095257Y-121892168D02*
X196058971Y-121928454D01*
X196058971Y-121928454D02*
X196022685Y-122001026D01*
X196022685Y-122001026D02*
X196022685Y-122146168D01*
X196022685Y-122146168D02*
X196058971Y-122218740D01*
X196058971Y-122218740D02*
X196095257Y-122255026D01*
X196095257Y-122255026D02*
X196167828Y-122291311D01*
X196167828Y-122291311D02*
X196312971Y-122291311D01*
X196312971Y-122291311D02*
X196385543Y-122255026D01*
X196385543Y-122255026D02*
X196421828Y-122218740D01*
X196421828Y-122218740D02*
X196458114Y-122146168D01*
X196458114Y-122146168D02*
X196458114Y-122001026D01*
X196458114Y-122001026D02*
X196421828Y-121928454D01*
X196421828Y-121928454D02*
X196385543Y-121892168D01*
X196385543Y-121892168D02*
X196312971Y-121855883D01*
X191617600Y-97145311D02*
X191363600Y-96782454D01*
X191182171Y-97145311D02*
X191182171Y-96383311D01*
X191182171Y-96383311D02*
X191472457Y-96383311D01*
X191472457Y-96383311D02*
X191545028Y-96419597D01*
X191545028Y-96419597D02*
X191581314Y-96455883D01*
X191581314Y-96455883D02*
X191617600Y-96528454D01*
X191617600Y-96528454D02*
X191617600Y-96637311D01*
X191617600Y-96637311D02*
X191581314Y-96709883D01*
X191581314Y-96709883D02*
X191545028Y-96746168D01*
X191545028Y-96746168D02*
X191472457Y-96782454D01*
X191472457Y-96782454D02*
X191182171Y-96782454D01*
X191871600Y-96383311D02*
X192343314Y-96383311D01*
X192343314Y-96383311D02*
X192089314Y-96673597D01*
X192089314Y-96673597D02*
X192198171Y-96673597D01*
X192198171Y-96673597D02*
X192270743Y-96709883D01*
X192270743Y-96709883D02*
X192307028Y-96746168D01*
X192307028Y-96746168D02*
X192343314Y-96818740D01*
X192343314Y-96818740D02*
X192343314Y-97000168D01*
X192343314Y-97000168D02*
X192307028Y-97072740D01*
X192307028Y-97072740D02*
X192270743Y-97109026D01*
X192270743Y-97109026D02*
X192198171Y-97145311D01*
X192198171Y-97145311D02*
X191980457Y-97145311D01*
X191980457Y-97145311D02*
X191907885Y-97109026D01*
X191907885Y-97109026D02*
X191871600Y-97072740D01*
X186033228Y-116550911D02*
X186033228Y-117167768D01*
X186033228Y-117167768D02*
X186069514Y-117240340D01*
X186069514Y-117240340D02*
X186105800Y-117276626D01*
X186105800Y-117276626D02*
X186178371Y-117312911D01*
X186178371Y-117312911D02*
X186323514Y-117312911D01*
X186323514Y-117312911D02*
X186396085Y-117276626D01*
X186396085Y-117276626D02*
X186432371Y-117240340D01*
X186432371Y-117240340D02*
X186468657Y-117167768D01*
X186468657Y-117167768D02*
X186468657Y-116550911D01*
X186758943Y-116550911D02*
X187230657Y-116550911D01*
X187230657Y-116550911D02*
X186976657Y-116841197D01*
X186976657Y-116841197D02*
X187085514Y-116841197D01*
X187085514Y-116841197D02*
X187158086Y-116877483D01*
X187158086Y-116877483D02*
X187194371Y-116913768D01*
X187194371Y-116913768D02*
X187230657Y-116986340D01*
X187230657Y-116986340D02*
X187230657Y-117167768D01*
X187230657Y-117167768D02*
X187194371Y-117240340D01*
X187194371Y-117240340D02*
X187158086Y-117276626D01*
X187158086Y-117276626D02*
X187085514Y-117312911D01*
X187085514Y-117312911D02*
X186867800Y-117312911D01*
X186867800Y-117312911D02*
X186795228Y-117276626D01*
X186795228Y-117276626D02*
X186758943Y-117240340D01*
X188007171Y-114391911D02*
X188007171Y-113629911D01*
X188007171Y-113629911D02*
X188188600Y-113629911D01*
X188188600Y-113629911D02*
X188297457Y-113666197D01*
X188297457Y-113666197D02*
X188370028Y-113738768D01*
X188370028Y-113738768D02*
X188406314Y-113811340D01*
X188406314Y-113811340D02*
X188442600Y-113956483D01*
X188442600Y-113956483D02*
X188442600Y-114065340D01*
X188442600Y-114065340D02*
X188406314Y-114210483D01*
X188406314Y-114210483D02*
X188370028Y-114283054D01*
X188370028Y-114283054D02*
X188297457Y-114355626D01*
X188297457Y-114355626D02*
X188188600Y-114391911D01*
X188188600Y-114391911D02*
X188007171Y-114391911D01*
X189095743Y-113883911D02*
X189095743Y-114391911D01*
X188914314Y-113593626D02*
X188732885Y-114137911D01*
X188732885Y-114137911D02*
X189204600Y-114137911D01*
X198491311Y-97434399D02*
X198128454Y-97688399D01*
X198491311Y-97869828D02*
X197729311Y-97869828D01*
X197729311Y-97869828D02*
X197729311Y-97579542D01*
X197729311Y-97579542D02*
X197765597Y-97506971D01*
X197765597Y-97506971D02*
X197801883Y-97470685D01*
X197801883Y-97470685D02*
X197874454Y-97434399D01*
X197874454Y-97434399D02*
X197983311Y-97434399D01*
X197983311Y-97434399D02*
X198055883Y-97470685D01*
X198055883Y-97470685D02*
X198092168Y-97506971D01*
X198092168Y-97506971D02*
X198128454Y-97579542D01*
X198128454Y-97579542D02*
X198128454Y-97869828D01*
X197729311Y-96744971D02*
X197729311Y-97107828D01*
X197729311Y-97107828D02*
X198092168Y-97144114D01*
X198092168Y-97144114D02*
X198055883Y-97107828D01*
X198055883Y-97107828D02*
X198019597Y-97035257D01*
X198019597Y-97035257D02*
X198019597Y-96853828D01*
X198019597Y-96853828D02*
X198055883Y-96781257D01*
X198055883Y-96781257D02*
X198092168Y-96744971D01*
X198092168Y-96744971D02*
X198164740Y-96708685D01*
X198164740Y-96708685D02*
X198346168Y-96708685D01*
X198346168Y-96708685D02*
X198418740Y-96744971D01*
X198418740Y-96744971D02*
X198455026Y-96781257D01*
X198455026Y-96781257D02*
X198491311Y-96853828D01*
X198491311Y-96853828D02*
X198491311Y-97035257D01*
X198491311Y-97035257D02*
X198455026Y-97107828D01*
X198455026Y-97107828D02*
X198418740Y-97144114D01*
X188007171Y-110861311D02*
X188007171Y-110099311D01*
X188007171Y-110099311D02*
X188188600Y-110099311D01*
X188188600Y-110099311D02*
X188297457Y-110135597D01*
X188297457Y-110135597D02*
X188370028Y-110208168D01*
X188370028Y-110208168D02*
X188406314Y-110280740D01*
X188406314Y-110280740D02*
X188442600Y-110425883D01*
X188442600Y-110425883D02*
X188442600Y-110534740D01*
X188442600Y-110534740D02*
X188406314Y-110679883D01*
X188406314Y-110679883D02*
X188370028Y-110752454D01*
X188370028Y-110752454D02*
X188297457Y-110825026D01*
X188297457Y-110825026D02*
X188188600Y-110861311D01*
X188188600Y-110861311D02*
X188007171Y-110861311D01*
X188696600Y-110099311D02*
X189168314Y-110099311D01*
X189168314Y-110099311D02*
X188914314Y-110389597D01*
X188914314Y-110389597D02*
X189023171Y-110389597D01*
X189023171Y-110389597D02*
X189095743Y-110425883D01*
X189095743Y-110425883D02*
X189132028Y-110462168D01*
X189132028Y-110462168D02*
X189168314Y-110534740D01*
X189168314Y-110534740D02*
X189168314Y-110716168D01*
X189168314Y-110716168D02*
X189132028Y-110788740D01*
X189132028Y-110788740D02*
X189095743Y-110825026D01*
X189095743Y-110825026D02*
X189023171Y-110861311D01*
X189023171Y-110861311D02*
X188805457Y-110861311D01*
X188805457Y-110861311D02*
X188732885Y-110825026D01*
X188732885Y-110825026D02*
X188696600Y-110788740D01*
X199339200Y-102889340D02*
X199302914Y-102925626D01*
X199302914Y-102925626D02*
X199194057Y-102961911D01*
X199194057Y-102961911D02*
X199121485Y-102961911D01*
X199121485Y-102961911D02*
X199012628Y-102925626D01*
X199012628Y-102925626D02*
X198940057Y-102853054D01*
X198940057Y-102853054D02*
X198903771Y-102780483D01*
X198903771Y-102780483D02*
X198867485Y-102635340D01*
X198867485Y-102635340D02*
X198867485Y-102526483D01*
X198867485Y-102526483D02*
X198903771Y-102381340D01*
X198903771Y-102381340D02*
X198940057Y-102308768D01*
X198940057Y-102308768D02*
X199012628Y-102236197D01*
X199012628Y-102236197D02*
X199121485Y-102199911D01*
X199121485Y-102199911D02*
X199194057Y-102199911D01*
X199194057Y-102199911D02*
X199302914Y-102236197D01*
X199302914Y-102236197D02*
X199339200Y-102272483D01*
X200028628Y-102199911D02*
X199665771Y-102199911D01*
X199665771Y-102199911D02*
X199629485Y-102562768D01*
X199629485Y-102562768D02*
X199665771Y-102526483D01*
X199665771Y-102526483D02*
X199738343Y-102490197D01*
X199738343Y-102490197D02*
X199919771Y-102490197D01*
X199919771Y-102490197D02*
X199992343Y-102526483D01*
X199992343Y-102526483D02*
X200028628Y-102562768D01*
X200028628Y-102562768D02*
X200064914Y-102635340D01*
X200064914Y-102635340D02*
X200064914Y-102816768D01*
X200064914Y-102816768D02*
X200028628Y-102889340D01*
X200028628Y-102889340D02*
X199992343Y-102925626D01*
X199992343Y-102925626D02*
X199919771Y-102961911D01*
X199919771Y-102961911D02*
X199738343Y-102961911D01*
X199738343Y-102961911D02*
X199665771Y-102925626D01*
X199665771Y-102925626D02*
X199629485Y-102889340D01*
X203014943Y-122291311D02*
X202760943Y-121928454D01*
X202579514Y-122291311D02*
X202579514Y-121529311D01*
X202579514Y-121529311D02*
X202869800Y-121529311D01*
X202869800Y-121529311D02*
X202942371Y-121565597D01*
X202942371Y-121565597D02*
X202978657Y-121601883D01*
X202978657Y-121601883D02*
X203014943Y-121674454D01*
X203014943Y-121674454D02*
X203014943Y-121783311D01*
X203014943Y-121783311D02*
X202978657Y-121855883D01*
X202978657Y-121855883D02*
X202942371Y-121892168D01*
X202942371Y-121892168D02*
X202869800Y-121928454D01*
X202869800Y-121928454D02*
X202579514Y-121928454D01*
X203740657Y-122291311D02*
X203305228Y-122291311D01*
X203522943Y-122291311D02*
X203522943Y-121529311D01*
X203522943Y-121529311D02*
X203450371Y-121638168D01*
X203450371Y-121638168D02*
X203377800Y-121710740D01*
X203377800Y-121710740D02*
X203305228Y-121747026D01*
X204212371Y-121529311D02*
X204284942Y-121529311D01*
X204284942Y-121529311D02*
X204357514Y-121565597D01*
X204357514Y-121565597D02*
X204393800Y-121601883D01*
X204393800Y-121601883D02*
X204430085Y-121674454D01*
X204430085Y-121674454D02*
X204466371Y-121819597D01*
X204466371Y-121819597D02*
X204466371Y-122001026D01*
X204466371Y-122001026D02*
X204430085Y-122146168D01*
X204430085Y-122146168D02*
X204393800Y-122218740D01*
X204393800Y-122218740D02*
X204357514Y-122255026D01*
X204357514Y-122255026D02*
X204284942Y-122291311D01*
X204284942Y-122291311D02*
X204212371Y-122291311D01*
X204212371Y-122291311D02*
X204139800Y-122255026D01*
X204139800Y-122255026D02*
X204103514Y-122218740D01*
X204103514Y-122218740D02*
X204067228Y-122146168D01*
X204067228Y-122146168D02*
X204030942Y-122001026D01*
X204030942Y-122001026D02*
X204030942Y-121819597D01*
X204030942Y-121819597D02*
X204067228Y-121674454D01*
X204067228Y-121674454D02*
X204103514Y-121601883D01*
X204103514Y-121601883D02*
X204139800Y-121565597D01*
X204139800Y-121565597D02*
X204212371Y-121529311D01*
X194300311Y-105714799D02*
X193937454Y-105968799D01*
X194300311Y-106150228D02*
X193538311Y-106150228D01*
X193538311Y-106150228D02*
X193538311Y-105859942D01*
X193538311Y-105859942D02*
X193574597Y-105787371D01*
X193574597Y-105787371D02*
X193610883Y-105751085D01*
X193610883Y-105751085D02*
X193683454Y-105714799D01*
X193683454Y-105714799D02*
X193792311Y-105714799D01*
X193792311Y-105714799D02*
X193864883Y-105751085D01*
X193864883Y-105751085D02*
X193901168Y-105787371D01*
X193901168Y-105787371D02*
X193937454Y-105859942D01*
X193937454Y-105859942D02*
X193937454Y-106150228D01*
X193538311Y-105460799D02*
X193538311Y-104952799D01*
X193538311Y-104952799D02*
X194300311Y-105279371D01*
X193081111Y-105714799D02*
X192718254Y-105968799D01*
X193081111Y-106150228D02*
X192319111Y-106150228D01*
X192319111Y-106150228D02*
X192319111Y-105859942D01*
X192319111Y-105859942D02*
X192355397Y-105787371D01*
X192355397Y-105787371D02*
X192391683Y-105751085D01*
X192391683Y-105751085D02*
X192464254Y-105714799D01*
X192464254Y-105714799D02*
X192573111Y-105714799D01*
X192573111Y-105714799D02*
X192645683Y-105751085D01*
X192645683Y-105751085D02*
X192681968Y-105787371D01*
X192681968Y-105787371D02*
X192718254Y-105859942D01*
X192718254Y-105859942D02*
X192718254Y-106150228D01*
X192319111Y-105061657D02*
X192319111Y-105206799D01*
X192319111Y-105206799D02*
X192355397Y-105279371D01*
X192355397Y-105279371D02*
X192391683Y-105315657D01*
X192391683Y-105315657D02*
X192500540Y-105388228D01*
X192500540Y-105388228D02*
X192645683Y-105424514D01*
X192645683Y-105424514D02*
X192935968Y-105424514D01*
X192935968Y-105424514D02*
X193008540Y-105388228D01*
X193008540Y-105388228D02*
X193044826Y-105351942D01*
X193044826Y-105351942D02*
X193081111Y-105279371D01*
X193081111Y-105279371D02*
X193081111Y-105134228D01*
X193081111Y-105134228D02*
X193044826Y-105061657D01*
X193044826Y-105061657D02*
X193008540Y-105025371D01*
X193008540Y-105025371D02*
X192935968Y-104989085D01*
X192935968Y-104989085D02*
X192754540Y-104989085D01*
X192754540Y-104989085D02*
X192681968Y-105025371D01*
X192681968Y-105025371D02*
X192645683Y-105061657D01*
X192645683Y-105061657D02*
X192609397Y-105134228D01*
X192609397Y-105134228D02*
X192609397Y-105279371D01*
X192609397Y-105279371D02*
X192645683Y-105351942D01*
X192645683Y-105351942D02*
X192681968Y-105388228D01*
X192681968Y-105388228D02*
X192754540Y-105424514D01*
X171729400Y-121656311D02*
X171729400Y-122200597D01*
X171729400Y-122200597D02*
X171693115Y-122309454D01*
X171693115Y-122309454D02*
X171620543Y-122382026D01*
X171620543Y-122382026D02*
X171511686Y-122418311D01*
X171511686Y-122418311D02*
X171439115Y-122418311D01*
X172019686Y-121656311D02*
X172491400Y-121656311D01*
X172491400Y-121656311D02*
X172237400Y-121946597D01*
X172237400Y-121946597D02*
X172346257Y-121946597D01*
X172346257Y-121946597D02*
X172418829Y-121982883D01*
X172418829Y-121982883D02*
X172455114Y-122019168D01*
X172455114Y-122019168D02*
X172491400Y-122091740D01*
X172491400Y-122091740D02*
X172491400Y-122273168D01*
X172491400Y-122273168D02*
X172455114Y-122345740D01*
X172455114Y-122345740D02*
X172418829Y-122382026D01*
X172418829Y-122382026D02*
X172346257Y-122418311D01*
X172346257Y-122418311D02*
X172128543Y-122418311D01*
X172128543Y-122418311D02*
X172055971Y-122382026D01*
X172055971Y-122382026D02*
X172019686Y-122345740D01*
D10*
X164693601Y-122043944D02*
X164862934Y-122043944D01*
X164862934Y-122043944D02*
X164947601Y-122086277D01*
X164947601Y-122086277D02*
X165032267Y-122170944D01*
X165032267Y-122170944D02*
X165074601Y-122340277D01*
X165074601Y-122340277D02*
X165074601Y-122636611D01*
X165074601Y-122636611D02*
X165032267Y-122805944D01*
X165032267Y-122805944D02*
X164947601Y-122890611D01*
X164947601Y-122890611D02*
X164862934Y-122932944D01*
X164862934Y-122932944D02*
X164693601Y-122932944D01*
X164693601Y-122932944D02*
X164608934Y-122890611D01*
X164608934Y-122890611D02*
X164524267Y-122805944D01*
X164524267Y-122805944D02*
X164481934Y-122636611D01*
X164481934Y-122636611D02*
X164481934Y-122340277D01*
X164481934Y-122340277D02*
X164524267Y-122170944D01*
X164524267Y-122170944D02*
X164608934Y-122086277D01*
X164608934Y-122086277D02*
X164693601Y-122043944D01*
X165455600Y-122043944D02*
X165455600Y-122763611D01*
X165455600Y-122763611D02*
X165497934Y-122848277D01*
X165497934Y-122848277D02*
X165540267Y-122890611D01*
X165540267Y-122890611D02*
X165624934Y-122932944D01*
X165624934Y-122932944D02*
X165794267Y-122932944D01*
X165794267Y-122932944D02*
X165878934Y-122890611D01*
X165878934Y-122890611D02*
X165921267Y-122848277D01*
X165921267Y-122848277D02*
X165963600Y-122763611D01*
X165963600Y-122763611D02*
X165963600Y-122043944D01*
X166259933Y-122043944D02*
X166767933Y-122043944D01*
X166513933Y-122932944D02*
X166513933Y-122043944D01*
D11*
X212035571Y-116498911D02*
X212035571Y-115736911D01*
X212035571Y-115736911D02*
X212217000Y-115736911D01*
X212217000Y-115736911D02*
X212325857Y-115773197D01*
X212325857Y-115773197D02*
X212398428Y-115845768D01*
X212398428Y-115845768D02*
X212434714Y-115918340D01*
X212434714Y-115918340D02*
X212471000Y-116063483D01*
X212471000Y-116063483D02*
X212471000Y-116172340D01*
X212471000Y-116172340D02*
X212434714Y-116317483D01*
X212434714Y-116317483D02*
X212398428Y-116390054D01*
X212398428Y-116390054D02*
X212325857Y-116462626D01*
X212325857Y-116462626D02*
X212217000Y-116498911D01*
X212217000Y-116498911D02*
X212035571Y-116498911D01*
X213124143Y-115736911D02*
X212979000Y-115736911D01*
X212979000Y-115736911D02*
X212906428Y-115773197D01*
X212906428Y-115773197D02*
X212870143Y-115809483D01*
X212870143Y-115809483D02*
X212797571Y-115918340D01*
X212797571Y-115918340D02*
X212761285Y-116063483D01*
X212761285Y-116063483D02*
X212761285Y-116353768D01*
X212761285Y-116353768D02*
X212797571Y-116426340D01*
X212797571Y-116426340D02*
X212833857Y-116462626D01*
X212833857Y-116462626D02*
X212906428Y-116498911D01*
X212906428Y-116498911D02*
X213051571Y-116498911D01*
X213051571Y-116498911D02*
X213124143Y-116462626D01*
X213124143Y-116462626D02*
X213160428Y-116426340D01*
X213160428Y-116426340D02*
X213196714Y-116353768D01*
X213196714Y-116353768D02*
X213196714Y-116172340D01*
X213196714Y-116172340D02*
X213160428Y-116099768D01*
X213160428Y-116099768D02*
X213124143Y-116063483D01*
X213124143Y-116063483D02*
X213051571Y-116027197D01*
X213051571Y-116027197D02*
X212906428Y-116027197D01*
X212906428Y-116027197D02*
X212833857Y-116063483D01*
X212833857Y-116063483D02*
X212797571Y-116099768D01*
X212797571Y-116099768D02*
X212761285Y-116172340D01*
D10*
X215702211Y-118893166D02*
X215744544Y-118766166D01*
X215744544Y-118766166D02*
X215744544Y-118554500D01*
X215744544Y-118554500D02*
X215702211Y-118469833D01*
X215702211Y-118469833D02*
X215659877Y-118427500D01*
X215659877Y-118427500D02*
X215575211Y-118385166D01*
X215575211Y-118385166D02*
X215490544Y-118385166D01*
X215490544Y-118385166D02*
X215405877Y-118427500D01*
X215405877Y-118427500D02*
X215363544Y-118469833D01*
X215363544Y-118469833D02*
X215321211Y-118554500D01*
X215321211Y-118554500D02*
X215278877Y-118723833D01*
X215278877Y-118723833D02*
X215236544Y-118808500D01*
X215236544Y-118808500D02*
X215194211Y-118850833D01*
X215194211Y-118850833D02*
X215109544Y-118893166D01*
X215109544Y-118893166D02*
X215024877Y-118893166D01*
X215024877Y-118893166D02*
X214940211Y-118850833D01*
X214940211Y-118850833D02*
X214897877Y-118808500D01*
X214897877Y-118808500D02*
X214855544Y-118723833D01*
X214855544Y-118723833D02*
X214855544Y-118512166D01*
X214855544Y-118512166D02*
X214897877Y-118385166D01*
X215744544Y-118004166D02*
X214855544Y-118004166D01*
X214897877Y-117115166D02*
X214855544Y-117199833D01*
X214855544Y-117199833D02*
X214855544Y-117326833D01*
X214855544Y-117326833D02*
X214897877Y-117453833D01*
X214897877Y-117453833D02*
X214982544Y-117538500D01*
X214982544Y-117538500D02*
X215067211Y-117580833D01*
X215067211Y-117580833D02*
X215236544Y-117623166D01*
X215236544Y-117623166D02*
X215363544Y-117623166D01*
X215363544Y-117623166D02*
X215532877Y-117580833D01*
X215532877Y-117580833D02*
X215617544Y-117538500D01*
X215617544Y-117538500D02*
X215702211Y-117453833D01*
X215702211Y-117453833D02*
X215744544Y-117326833D01*
X215744544Y-117326833D02*
X215744544Y-117242166D01*
X215744544Y-117242166D02*
X215702211Y-117115166D01*
X215702211Y-117115166D02*
X215659877Y-117072833D01*
X215659877Y-117072833D02*
X215363544Y-117072833D01*
X215363544Y-117072833D02*
X215363544Y-117242166D01*
D11*
X188014428Y-106692083D02*
X187941857Y-106655797D01*
X187941857Y-106655797D02*
X187869285Y-106583226D01*
X187869285Y-106583226D02*
X187760428Y-106474368D01*
X187760428Y-106474368D02*
X187687857Y-106438083D01*
X187687857Y-106438083D02*
X187615285Y-106438083D01*
X187651571Y-106619511D02*
X187579000Y-106583226D01*
X187579000Y-106583226D02*
X187506428Y-106510654D01*
X187506428Y-106510654D02*
X187470142Y-106365511D01*
X187470142Y-106365511D02*
X187470142Y-106111511D01*
X187470142Y-106111511D02*
X187506428Y-105966368D01*
X187506428Y-105966368D02*
X187579000Y-105893797D01*
X187579000Y-105893797D02*
X187651571Y-105857511D01*
X187651571Y-105857511D02*
X187796714Y-105857511D01*
X187796714Y-105857511D02*
X187869285Y-105893797D01*
X187869285Y-105893797D02*
X187941857Y-105966368D01*
X187941857Y-105966368D02*
X187978142Y-106111511D01*
X187978142Y-106111511D02*
X187978142Y-106365511D01*
X187978142Y-106365511D02*
X187941857Y-106510654D01*
X187941857Y-106510654D02*
X187869285Y-106583226D01*
X187869285Y-106583226D02*
X187796714Y-106619511D01*
X187796714Y-106619511D02*
X187651571Y-106619511D01*
X188703857Y-106619511D02*
X188268428Y-106619511D01*
X188486143Y-106619511D02*
X188486143Y-105857511D01*
X188486143Y-105857511D02*
X188413571Y-105966368D01*
X188413571Y-105966368D02*
X188341000Y-106038940D01*
X188341000Y-106038940D02*
X188268428Y-106075226D01*
X184702740Y-105105199D02*
X184739026Y-105141485D01*
X184739026Y-105141485D02*
X184775311Y-105250342D01*
X184775311Y-105250342D02*
X184775311Y-105322914D01*
X184775311Y-105322914D02*
X184739026Y-105431771D01*
X184739026Y-105431771D02*
X184666454Y-105504342D01*
X184666454Y-105504342D02*
X184593883Y-105540628D01*
X184593883Y-105540628D02*
X184448740Y-105576914D01*
X184448740Y-105576914D02*
X184339883Y-105576914D01*
X184339883Y-105576914D02*
X184194740Y-105540628D01*
X184194740Y-105540628D02*
X184122168Y-105504342D01*
X184122168Y-105504342D02*
X184049597Y-105431771D01*
X184049597Y-105431771D02*
X184013311Y-105322914D01*
X184013311Y-105322914D02*
X184013311Y-105250342D01*
X184013311Y-105250342D02*
X184049597Y-105141485D01*
X184049597Y-105141485D02*
X184085883Y-105105199D01*
X184013311Y-104851199D02*
X184013311Y-104379485D01*
X184013311Y-104379485D02*
X184303597Y-104633485D01*
X184303597Y-104633485D02*
X184303597Y-104524628D01*
X184303597Y-104524628D02*
X184339883Y-104452057D01*
X184339883Y-104452057D02*
X184376168Y-104415771D01*
X184376168Y-104415771D02*
X184448740Y-104379485D01*
X184448740Y-104379485D02*
X184630168Y-104379485D01*
X184630168Y-104379485D02*
X184702740Y-104415771D01*
X184702740Y-104415771D02*
X184739026Y-104452057D01*
X184739026Y-104452057D02*
X184775311Y-104524628D01*
X184775311Y-104524628D02*
X184775311Y-104742342D01*
X184775311Y-104742342D02*
X184739026Y-104814914D01*
X184739026Y-104814914D02*
X184702740Y-104851199D01*
X196412140Y-97434399D02*
X196448426Y-97470685D01*
X196448426Y-97470685D02*
X196484711Y-97579542D01*
X196484711Y-97579542D02*
X196484711Y-97652114D01*
X196484711Y-97652114D02*
X196448426Y-97760971D01*
X196448426Y-97760971D02*
X196375854Y-97833542D01*
X196375854Y-97833542D02*
X196303283Y-97869828D01*
X196303283Y-97869828D02*
X196158140Y-97906114D01*
X196158140Y-97906114D02*
X196049283Y-97906114D01*
X196049283Y-97906114D02*
X195904140Y-97869828D01*
X195904140Y-97869828D02*
X195831568Y-97833542D01*
X195831568Y-97833542D02*
X195758997Y-97760971D01*
X195758997Y-97760971D02*
X195722711Y-97652114D01*
X195722711Y-97652114D02*
X195722711Y-97579542D01*
X195722711Y-97579542D02*
X195758997Y-97470685D01*
X195758997Y-97470685D02*
X195795283Y-97434399D01*
X196484711Y-96708685D02*
X196484711Y-97144114D01*
X196484711Y-96926399D02*
X195722711Y-96926399D01*
X195722711Y-96926399D02*
X195831568Y-96998971D01*
X195831568Y-96998971D02*
X195904140Y-97071542D01*
X195904140Y-97071542D02*
X195940426Y-97144114D01*
X200914000Y-104308111D02*
X200914000Y-104852397D01*
X200914000Y-104852397D02*
X200877715Y-104961254D01*
X200877715Y-104961254D02*
X200805143Y-105033826D01*
X200805143Y-105033826D02*
X200696286Y-105070111D01*
X200696286Y-105070111D02*
X200623715Y-105070111D01*
X201240571Y-104380683D02*
X201276857Y-104344397D01*
X201276857Y-104344397D02*
X201349429Y-104308111D01*
X201349429Y-104308111D02*
X201530857Y-104308111D01*
X201530857Y-104308111D02*
X201603429Y-104344397D01*
X201603429Y-104344397D02*
X201639714Y-104380683D01*
X201639714Y-104380683D02*
X201676000Y-104453254D01*
X201676000Y-104453254D02*
X201676000Y-104525826D01*
X201676000Y-104525826D02*
X201639714Y-104634683D01*
X201639714Y-104634683D02*
X201204286Y-105070111D01*
X201204286Y-105070111D02*
X201676000Y-105070111D01*
D12*
%TO.C,R1*%
X183691264Y-97461400D02*
X183237136Y-97461400D01*
X183691264Y-98931400D02*
X183237136Y-98931400D01*
%TO.C,R9*%
X199921864Y-119584800D02*
X199467736Y-119584800D01*
X199921864Y-121054800D02*
X199467736Y-121054800D01*
%TO.C,D2*%
X176230000Y-108586000D02*
X170720000Y-108586000D01*
X176230000Y-111886000D02*
X170720000Y-111886000D01*
X176230000Y-111886000D02*
X176230000Y-108586000D01*
D13*
%TO.C,L1*%
X176987200Y-104851200D02*
X179019200Y-104851200D01*
X176987200Y-106883200D02*
X176987200Y-104851200D01*
X176987200Y-115112800D02*
X176987200Y-113080800D01*
X179019200Y-115112800D02*
X176987200Y-115112800D01*
X180594000Y-109982000D02*
X180086000Y-109982000D01*
X184150000Y-109982000D02*
X183642000Y-109982000D01*
X185216800Y-104851200D02*
X187248800Y-104851200D01*
X187248800Y-104851200D02*
X187248800Y-106883200D01*
X187248800Y-113080800D02*
X187248800Y-115112800D01*
X187248800Y-115112800D02*
X185216800Y-115112800D01*
X180594000Y-109982000D02*
G75*
G02*
X181610000Y-109982000I508000J0D01*
G01*
X181610000Y-109982000D02*
G75*
G02*
X182626000Y-109982000I508000J0D01*
G01*
X182626000Y-109982000D02*
G75*
G02*
X183642000Y-109982000I508000J0D01*
G01*
D12*
%TO.C,C7*%
X195328379Y-117883400D02*
X195958379Y-117883400D01*
X195643379Y-117568400D02*
X195643379Y-118198400D01*
X198493379Y-112253400D02*
X198493379Y-118713400D01*
X198533379Y-112253400D02*
X198533379Y-118713400D01*
X198573379Y-112254400D02*
X198573379Y-118712400D01*
X198613379Y-112255400D02*
X198613379Y-118711400D01*
X198653379Y-112257400D02*
X198653379Y-118709400D01*
X198693379Y-112259400D02*
X198693379Y-118707400D01*
X198733379Y-112262400D02*
X198733379Y-114443400D01*
X198733379Y-116523400D02*
X198733379Y-118704400D01*
X198773379Y-112265400D02*
X198773379Y-114443400D01*
X198773379Y-116523400D02*
X198773379Y-118701400D01*
X198813379Y-112269400D02*
X198813379Y-114443400D01*
X198813379Y-116523400D02*
X198813379Y-118697400D01*
X198853379Y-112273400D02*
X198853379Y-114443400D01*
X198853379Y-116523400D02*
X198853379Y-118693400D01*
X198893379Y-112278400D02*
X198893379Y-114443400D01*
X198893379Y-116523400D02*
X198893379Y-118688400D01*
X198933379Y-112283400D02*
X198933379Y-114443400D01*
X198933379Y-116523400D02*
X198933379Y-118683400D01*
X198973379Y-112288400D02*
X198973379Y-114443400D01*
X198973379Y-116523400D02*
X198973379Y-118678400D01*
X199013379Y-112295400D02*
X199013379Y-114443400D01*
X199013379Y-116523400D02*
X199013379Y-118671400D01*
X199053379Y-112301400D02*
X199053379Y-114443400D01*
X199053379Y-116523400D02*
X199053379Y-118665400D01*
X199093379Y-112309400D02*
X199093379Y-114443400D01*
X199093379Y-116523400D02*
X199093379Y-118657400D01*
X199133379Y-112316400D02*
X199133379Y-114443400D01*
X199133379Y-116523400D02*
X199133379Y-118650400D01*
X199173379Y-112324400D02*
X199173379Y-114443400D01*
X199173379Y-116523400D02*
X199173379Y-118642400D01*
X199213379Y-112333400D02*
X199213379Y-114443400D01*
X199213379Y-116523400D02*
X199213379Y-118633400D01*
X199253379Y-112343400D02*
X199253379Y-114443400D01*
X199253379Y-116523400D02*
X199253379Y-118623400D01*
X199293379Y-112352400D02*
X199293379Y-114443400D01*
X199293379Y-116523400D02*
X199293379Y-118614400D01*
X199333379Y-112363400D02*
X199333379Y-114443400D01*
X199333379Y-116523400D02*
X199333379Y-118603400D01*
X199373379Y-112374400D02*
X199373379Y-114443400D01*
X199373379Y-116523400D02*
X199373379Y-118592400D01*
X199413379Y-112385400D02*
X199413379Y-114443400D01*
X199413379Y-116523400D02*
X199413379Y-118581400D01*
X199453379Y-112397400D02*
X199453379Y-114443400D01*
X199453379Y-116523400D02*
X199453379Y-118569400D01*
X199493379Y-112410400D02*
X199493379Y-114443400D01*
X199493379Y-116523400D02*
X199493379Y-118556400D01*
X199533379Y-112423400D02*
X199533379Y-114443400D01*
X199533379Y-116523400D02*
X199533379Y-118543400D01*
X199573379Y-112436400D02*
X199573379Y-114443400D01*
X199573379Y-116523400D02*
X199573379Y-118530400D01*
X199613379Y-112451400D02*
X199613379Y-114443400D01*
X199613379Y-116523400D02*
X199613379Y-118515400D01*
X199653379Y-112466400D02*
X199653379Y-114443400D01*
X199653379Y-116523400D02*
X199653379Y-118500400D01*
X199693379Y-112481400D02*
X199693379Y-114443400D01*
X199693379Y-116523400D02*
X199693379Y-118485400D01*
X199733379Y-112497400D02*
X199733379Y-114443400D01*
X199733379Y-116523400D02*
X199733379Y-118469400D01*
X199773379Y-112514400D02*
X199773379Y-114443400D01*
X199773379Y-116523400D02*
X199773379Y-118452400D01*
X199813379Y-112531400D02*
X199813379Y-114443400D01*
X199813379Y-116523400D02*
X199813379Y-118435400D01*
X199853379Y-112549400D02*
X199853379Y-114443400D01*
X199853379Y-116523400D02*
X199853379Y-118417400D01*
X199893379Y-112568400D02*
X199893379Y-114443400D01*
X199893379Y-116523400D02*
X199893379Y-118398400D01*
X199933379Y-112587400D02*
X199933379Y-114443400D01*
X199933379Y-116523400D02*
X199933379Y-118379400D01*
X199973379Y-112607400D02*
X199973379Y-114443400D01*
X199973379Y-116523400D02*
X199973379Y-118359400D01*
X200013379Y-112628400D02*
X200013379Y-114443400D01*
X200013379Y-116523400D02*
X200013379Y-118338400D01*
X200053379Y-112649400D02*
X200053379Y-114443400D01*
X200053379Y-116523400D02*
X200053379Y-118317400D01*
X200093379Y-112671400D02*
X200093379Y-114443400D01*
X200093379Y-116523400D02*
X200093379Y-118295400D01*
X200133379Y-112694400D02*
X200133379Y-114443400D01*
X200133379Y-116523400D02*
X200133379Y-118272400D01*
X200173379Y-112718400D02*
X200173379Y-114443400D01*
X200173379Y-116523400D02*
X200173379Y-118248400D01*
X200213379Y-112742400D02*
X200213379Y-114443400D01*
X200213379Y-116523400D02*
X200213379Y-118224400D01*
X200253379Y-112767400D02*
X200253379Y-114443400D01*
X200253379Y-116523400D02*
X200253379Y-118199400D01*
X200293379Y-112793400D02*
X200293379Y-114443400D01*
X200293379Y-116523400D02*
X200293379Y-118173400D01*
X200333379Y-112820400D02*
X200333379Y-114443400D01*
X200333379Y-116523400D02*
X200333379Y-118146400D01*
X200373379Y-112847400D02*
X200373379Y-114443400D01*
X200373379Y-116523400D02*
X200373379Y-118119400D01*
X200413379Y-112876400D02*
X200413379Y-114443400D01*
X200413379Y-116523400D02*
X200413379Y-118090400D01*
X200453379Y-112906400D02*
X200453379Y-114443400D01*
X200453379Y-116523400D02*
X200453379Y-118060400D01*
X200493379Y-112936400D02*
X200493379Y-114443400D01*
X200493379Y-116523400D02*
X200493379Y-118030400D01*
X200533379Y-112967400D02*
X200533379Y-114443400D01*
X200533379Y-116523400D02*
X200533379Y-117999400D01*
X200573379Y-113000400D02*
X200573379Y-114443400D01*
X200573379Y-116523400D02*
X200573379Y-117966400D01*
X200613379Y-113033400D02*
X200613379Y-114443400D01*
X200613379Y-116523400D02*
X200613379Y-117933400D01*
X200653379Y-113068400D02*
X200653379Y-114443400D01*
X200653379Y-116523400D02*
X200653379Y-117898400D01*
X200693379Y-113104400D02*
X200693379Y-114443400D01*
X200693379Y-116523400D02*
X200693379Y-117862400D01*
X200733379Y-113141400D02*
X200733379Y-114443400D01*
X200733379Y-116523400D02*
X200733379Y-117825400D01*
X200773379Y-113179400D02*
X200773379Y-114443400D01*
X200773379Y-116523400D02*
X200773379Y-117787400D01*
X200813379Y-113219400D02*
X200813379Y-117747400D01*
X200853379Y-113260400D02*
X200853379Y-117706400D01*
X200893379Y-113302400D02*
X200893379Y-117664400D01*
X200933379Y-113346400D02*
X200933379Y-117620400D01*
X200973379Y-113392400D02*
X200973379Y-117574400D01*
X201013379Y-113439400D02*
X201013379Y-117527400D01*
X201053379Y-113488400D02*
X201053379Y-117478400D01*
X201093379Y-113540400D02*
X201093379Y-117426400D01*
X201133379Y-113593400D02*
X201133379Y-117373400D01*
X201173379Y-113649400D02*
X201173379Y-117317400D01*
X201213379Y-113708400D02*
X201213379Y-117258400D01*
X201253379Y-113769400D02*
X201253379Y-117197400D01*
X201293379Y-113834400D02*
X201293379Y-117132400D01*
X201333379Y-113902400D02*
X201333379Y-117064400D01*
X201373379Y-113974400D02*
X201373379Y-116992400D01*
X201413379Y-114051400D02*
X201413379Y-116915400D01*
X201453379Y-114133400D02*
X201453379Y-116833400D01*
X201493379Y-114222400D02*
X201493379Y-116744400D01*
X201533379Y-114318400D02*
X201533379Y-116648400D01*
X201573379Y-114425400D02*
X201573379Y-116541400D01*
X201613379Y-114544400D02*
X201613379Y-116422400D01*
X201653379Y-114682400D02*
X201653379Y-116284400D01*
X201693379Y-114850400D02*
X201693379Y-116116400D01*
X201733379Y-115081400D02*
X201733379Y-115885400D01*
X201763379Y-115483400D02*
G75*
G02*
X195223379Y-115483400I-3270000J0D01*
G01*
X195223379Y-115483400D02*
G75*
G02*
X201763379Y-115483400I3270000J0D01*
G01*
%TO.C,R4*%
X212239064Y-98452000D02*
X211784936Y-98452000D01*
X212239064Y-99922000D02*
X211784936Y-99922000D01*
%TO.C,U2*%
X187220800Y-99421000D02*
X191340800Y-99421000D01*
X187220800Y-99516000D02*
X187220800Y-99421000D01*
X187220800Y-104541000D02*
X187220800Y-104446000D01*
X188680800Y-104541000D02*
X187220800Y-104541000D01*
X191340800Y-99421000D02*
X191340800Y-99516000D01*
X191340800Y-104446000D02*
X191340800Y-104541000D01*
X191340800Y-104541000D02*
X189880800Y-104541000D01*
X188680800Y-104541000D02*
G75*
G02*
X189880800Y-104541000I600000J0D01*
G01*
X192120800Y-104781000D02*
X191640800Y-104781000D01*
X191880800Y-104451000D01*
X192120800Y-104781000D01*
G36*
X192120800Y-104781000D02*
G01*
X191640800Y-104781000D01*
X191880800Y-104451000D01*
X192120800Y-104781000D01*
G37*
%TO.C,U1*%
X203001000Y-97047000D02*
X206761000Y-97047000D01*
X203001000Y-103867000D02*
X206761000Y-103867000D01*
X206761000Y-97047000D02*
X206761000Y-98307000D01*
X206761000Y-103867000D02*
X206761000Y-102607000D01*
X200416000Y-98092000D02*
X200086000Y-98332000D01*
X200086000Y-97852000D01*
X200416000Y-98092000D01*
G36*
X200416000Y-98092000D02*
G01*
X200086000Y-98332000D01*
X200086000Y-97852000D01*
X200416000Y-98092000D01*
G37*
D13*
%TO.C,J1*%
X168806000Y-98778000D02*
X163606000Y-98778000D01*
X174506000Y-98778000D02*
X170606000Y-98778000D01*
X174506000Y-98778000D02*
X174506000Y-107978000D01*
X174506000Y-107978000D02*
X163606000Y-107978000D01*
D12*
%TO.C,R11*%
X207087736Y-119584800D02*
X207541864Y-119584800D01*
X207087736Y-121054800D02*
X207541864Y-121054800D01*
%TO.C,C4*%
X193295600Y-102877252D02*
X193295600Y-102354748D01*
X194765600Y-102877252D02*
X194765600Y-102354748D01*
%TO.C,D1*%
X210313000Y-100338000D02*
X210313000Y-102608000D01*
X210313000Y-102608000D02*
X214198000Y-102608000D01*
X214198000Y-100338000D02*
X210313000Y-100338000D01*
%TO.C,C2*%
X175114620Y-98444400D02*
X175744620Y-98444400D01*
X175429620Y-98129400D02*
X175429620Y-98759400D01*
X177994620Y-98014400D02*
X177994620Y-104474400D01*
X178034620Y-98014400D02*
X178034620Y-104474400D01*
X178074620Y-98015400D02*
X178074620Y-104473400D01*
X178114620Y-98016400D02*
X178114620Y-104472400D01*
X178154620Y-98018400D02*
X178154620Y-104470400D01*
X178194620Y-98020400D02*
X178194620Y-104468400D01*
X178234620Y-98023400D02*
X178234620Y-100204400D01*
X178234620Y-102284400D02*
X178234620Y-104465400D01*
X178274620Y-98026400D02*
X178274620Y-100204400D01*
X178274620Y-102284400D02*
X178274620Y-104462400D01*
X178314620Y-98030400D02*
X178314620Y-100204400D01*
X178314620Y-102284400D02*
X178314620Y-104458400D01*
X178354620Y-98034400D02*
X178354620Y-100204400D01*
X178354620Y-102284400D02*
X178354620Y-104454400D01*
X178394620Y-98039400D02*
X178394620Y-100204400D01*
X178394620Y-102284400D02*
X178394620Y-104449400D01*
X178434620Y-98044400D02*
X178434620Y-100204400D01*
X178434620Y-102284400D02*
X178434620Y-104444400D01*
X178474620Y-98049400D02*
X178474620Y-100204400D01*
X178474620Y-102284400D02*
X178474620Y-104439400D01*
X178514620Y-98056400D02*
X178514620Y-100204400D01*
X178514620Y-102284400D02*
X178514620Y-104432400D01*
X178554620Y-98062400D02*
X178554620Y-100204400D01*
X178554620Y-102284400D02*
X178554620Y-104426400D01*
X178594620Y-98070400D02*
X178594620Y-100204400D01*
X178594620Y-102284400D02*
X178594620Y-104418400D01*
X178634620Y-98077400D02*
X178634620Y-100204400D01*
X178634620Y-102284400D02*
X178634620Y-104411400D01*
X178674620Y-98085400D02*
X178674620Y-100204400D01*
X178674620Y-102284400D02*
X178674620Y-104403400D01*
X178714620Y-98094400D02*
X178714620Y-100204400D01*
X178714620Y-102284400D02*
X178714620Y-104394400D01*
X178754620Y-98104400D02*
X178754620Y-100204400D01*
X178754620Y-102284400D02*
X178754620Y-104384400D01*
X178794620Y-98113400D02*
X178794620Y-100204400D01*
X178794620Y-102284400D02*
X178794620Y-104375400D01*
X178834620Y-98124400D02*
X178834620Y-100204400D01*
X178834620Y-102284400D02*
X178834620Y-104364400D01*
X178874620Y-98135400D02*
X178874620Y-100204400D01*
X178874620Y-102284400D02*
X178874620Y-104353400D01*
X178914620Y-98146400D02*
X178914620Y-100204400D01*
X178914620Y-102284400D02*
X178914620Y-104342400D01*
X178954620Y-98158400D02*
X178954620Y-100204400D01*
X178954620Y-102284400D02*
X178954620Y-104330400D01*
X178994620Y-98171400D02*
X178994620Y-100204400D01*
X178994620Y-102284400D02*
X178994620Y-104317400D01*
X179034620Y-98184400D02*
X179034620Y-100204400D01*
X179034620Y-102284400D02*
X179034620Y-104304400D01*
X179074620Y-98197400D02*
X179074620Y-100204400D01*
X179074620Y-102284400D02*
X179074620Y-104291400D01*
X179114620Y-98212400D02*
X179114620Y-100204400D01*
X179114620Y-102284400D02*
X179114620Y-104276400D01*
X179154620Y-98227400D02*
X179154620Y-100204400D01*
X179154620Y-102284400D02*
X179154620Y-104261400D01*
X179194620Y-98242400D02*
X179194620Y-100204400D01*
X179194620Y-102284400D02*
X179194620Y-104246400D01*
X179234620Y-98258400D02*
X179234620Y-100204400D01*
X179234620Y-102284400D02*
X179234620Y-104230400D01*
X179274620Y-98275400D02*
X179274620Y-100204400D01*
X179274620Y-102284400D02*
X179274620Y-104213400D01*
X179314620Y-98292400D02*
X179314620Y-100204400D01*
X179314620Y-102284400D02*
X179314620Y-104196400D01*
X179354620Y-98310400D02*
X179354620Y-100204400D01*
X179354620Y-102284400D02*
X179354620Y-104178400D01*
X179394620Y-98329400D02*
X179394620Y-100204400D01*
X179394620Y-102284400D02*
X179394620Y-104159400D01*
X179434620Y-98348400D02*
X179434620Y-100204400D01*
X179434620Y-102284400D02*
X179434620Y-104140400D01*
X179474620Y-98368400D02*
X179474620Y-100204400D01*
X179474620Y-102284400D02*
X179474620Y-104120400D01*
X179514620Y-98389400D02*
X179514620Y-100204400D01*
X179514620Y-102284400D02*
X179514620Y-104099400D01*
X179554620Y-98410400D02*
X179554620Y-100204400D01*
X179554620Y-102284400D02*
X179554620Y-104078400D01*
X179594620Y-98432400D02*
X179594620Y-100204400D01*
X179594620Y-102284400D02*
X179594620Y-104056400D01*
X179634620Y-98455400D02*
X179634620Y-100204400D01*
X179634620Y-102284400D02*
X179634620Y-104033400D01*
X179674620Y-98479400D02*
X179674620Y-100204400D01*
X179674620Y-102284400D02*
X179674620Y-104009400D01*
X179714620Y-98503400D02*
X179714620Y-100204400D01*
X179714620Y-102284400D02*
X179714620Y-103985400D01*
X179754620Y-98528400D02*
X179754620Y-100204400D01*
X179754620Y-102284400D02*
X179754620Y-103960400D01*
X179794620Y-98554400D02*
X179794620Y-100204400D01*
X179794620Y-102284400D02*
X179794620Y-103934400D01*
X179834620Y-98581400D02*
X179834620Y-100204400D01*
X179834620Y-102284400D02*
X179834620Y-103907400D01*
X179874620Y-98608400D02*
X179874620Y-100204400D01*
X179874620Y-102284400D02*
X179874620Y-103880400D01*
X179914620Y-98637400D02*
X179914620Y-100204400D01*
X179914620Y-102284400D02*
X179914620Y-103851400D01*
X179954620Y-98667400D02*
X179954620Y-100204400D01*
X179954620Y-102284400D02*
X179954620Y-103821400D01*
X179994620Y-98697400D02*
X179994620Y-100204400D01*
X179994620Y-102284400D02*
X179994620Y-103791400D01*
X180034620Y-98728400D02*
X180034620Y-100204400D01*
X180034620Y-102284400D02*
X180034620Y-103760400D01*
X180074620Y-98761400D02*
X180074620Y-100204400D01*
X180074620Y-102284400D02*
X180074620Y-103727400D01*
X180114620Y-98794400D02*
X180114620Y-100204400D01*
X180114620Y-102284400D02*
X180114620Y-103694400D01*
X180154620Y-98829400D02*
X180154620Y-100204400D01*
X180154620Y-102284400D02*
X180154620Y-103659400D01*
X180194620Y-98865400D02*
X180194620Y-100204400D01*
X180194620Y-102284400D02*
X180194620Y-103623400D01*
X180234620Y-98902400D02*
X180234620Y-100204400D01*
X180234620Y-102284400D02*
X180234620Y-103586400D01*
X180274620Y-98940400D02*
X180274620Y-100204400D01*
X180274620Y-102284400D02*
X180274620Y-103548400D01*
X180314620Y-98980400D02*
X180314620Y-103508400D01*
X180354620Y-99021400D02*
X180354620Y-103467400D01*
X180394620Y-99063400D02*
X180394620Y-103425400D01*
X180434620Y-99107400D02*
X180434620Y-103381400D01*
X180474620Y-99153400D02*
X180474620Y-103335400D01*
X180514620Y-99200400D02*
X180514620Y-103288400D01*
X180554620Y-99249400D02*
X180554620Y-103239400D01*
X180594620Y-99301400D02*
X180594620Y-103187400D01*
X180634620Y-99354400D02*
X180634620Y-103134400D01*
X180674620Y-99410400D02*
X180674620Y-103078400D01*
X180714620Y-99469400D02*
X180714620Y-103019400D01*
X180754620Y-99530400D02*
X180754620Y-102958400D01*
X180794620Y-99595400D02*
X180794620Y-102893400D01*
X180834620Y-99663400D02*
X180834620Y-102825400D01*
X180874620Y-99735400D02*
X180874620Y-102753400D01*
X180914620Y-99812400D02*
X180914620Y-102676400D01*
X180954620Y-99894400D02*
X180954620Y-102594400D01*
X180994620Y-99983400D02*
X180994620Y-102505400D01*
X181034620Y-100079400D02*
X181034620Y-102409400D01*
X181074620Y-100186400D02*
X181074620Y-102302400D01*
X181114620Y-100305400D02*
X181114620Y-102183400D01*
X181154620Y-100443400D02*
X181154620Y-102045400D01*
X181194620Y-100611400D02*
X181194620Y-101877400D01*
X181234620Y-100842400D02*
X181234620Y-101646400D01*
X181264620Y-101244400D02*
G75*
G02*
X174724620Y-101244400I-3270000J0D01*
G01*
X174724620Y-101244400D02*
G75*
G02*
X181264620Y-101244400I3270000J0D01*
G01*
%TO.C,D7*%
X185501000Y-117222000D02*
X179991000Y-117222000D01*
X185501000Y-120522000D02*
X179991000Y-120522000D01*
X185501000Y-120522000D02*
X185501000Y-117222000D01*
%TO.C,D5*%
X209224600Y-115672600D02*
X203714600Y-115672600D01*
X209224600Y-118972600D02*
X203714600Y-118972600D01*
X209224600Y-118972600D02*
X209224600Y-115672600D01*
%TO.C,R12*%
X210897736Y-119584800D02*
X211351864Y-119584800D01*
X210897736Y-121054800D02*
X211351864Y-121054800D01*
%TO.C,C6*%
X194992179Y-106644400D02*
X195622179Y-106644400D01*
X195307179Y-106329400D02*
X195307179Y-106959400D01*
X198492420Y-105253400D02*
X198492420Y-111713400D01*
X198532420Y-105253400D02*
X198532420Y-111713400D01*
X198572420Y-105254400D02*
X198572420Y-111712400D01*
X198612420Y-105255400D02*
X198612420Y-111711400D01*
X198652420Y-105257400D02*
X198652420Y-111709400D01*
X198692420Y-105259400D02*
X198692420Y-111707400D01*
X198732420Y-105262400D02*
X198732420Y-107443400D01*
X198732420Y-109523400D02*
X198732420Y-111704400D01*
X198772420Y-105265400D02*
X198772420Y-107443400D01*
X198772420Y-109523400D02*
X198772420Y-111701400D01*
X198812420Y-105269400D02*
X198812420Y-107443400D01*
X198812420Y-109523400D02*
X198812420Y-111697400D01*
X198852420Y-105273400D02*
X198852420Y-107443400D01*
X198852420Y-109523400D02*
X198852420Y-111693400D01*
X198892420Y-105278400D02*
X198892420Y-107443400D01*
X198892420Y-109523400D02*
X198892420Y-111688400D01*
X198932420Y-105283400D02*
X198932420Y-107443400D01*
X198932420Y-109523400D02*
X198932420Y-111683400D01*
X198972420Y-105288400D02*
X198972420Y-107443400D01*
X198972420Y-109523400D02*
X198972420Y-111678400D01*
X199012420Y-105295400D02*
X199012420Y-107443400D01*
X199012420Y-109523400D02*
X199012420Y-111671400D01*
X199052420Y-105301400D02*
X199052420Y-107443400D01*
X199052420Y-109523400D02*
X199052420Y-111665400D01*
X199092420Y-105309400D02*
X199092420Y-107443400D01*
X199092420Y-109523400D02*
X199092420Y-111657400D01*
X199132420Y-105316400D02*
X199132420Y-107443400D01*
X199132420Y-109523400D02*
X199132420Y-111650400D01*
X199172420Y-105324400D02*
X199172420Y-107443400D01*
X199172420Y-109523400D02*
X199172420Y-111642400D01*
X199212420Y-105333400D02*
X199212420Y-107443400D01*
X199212420Y-109523400D02*
X199212420Y-111633400D01*
X199252420Y-105343400D02*
X199252420Y-107443400D01*
X199252420Y-109523400D02*
X199252420Y-111623400D01*
X199292420Y-105352400D02*
X199292420Y-107443400D01*
X199292420Y-109523400D02*
X199292420Y-111614400D01*
X199332420Y-105363400D02*
X199332420Y-107443400D01*
X199332420Y-109523400D02*
X199332420Y-111603400D01*
X199372420Y-105374400D02*
X199372420Y-107443400D01*
X199372420Y-109523400D02*
X199372420Y-111592400D01*
X199412420Y-105385400D02*
X199412420Y-107443400D01*
X199412420Y-109523400D02*
X199412420Y-111581400D01*
X199452420Y-105397400D02*
X199452420Y-107443400D01*
X199452420Y-109523400D02*
X199452420Y-111569400D01*
X199492420Y-105410400D02*
X199492420Y-107443400D01*
X199492420Y-109523400D02*
X199492420Y-111556400D01*
X199532420Y-105423400D02*
X199532420Y-107443400D01*
X199532420Y-109523400D02*
X199532420Y-111543400D01*
X199572420Y-105436400D02*
X199572420Y-107443400D01*
X199572420Y-109523400D02*
X199572420Y-111530400D01*
X199612420Y-105451400D02*
X199612420Y-107443400D01*
X199612420Y-109523400D02*
X199612420Y-111515400D01*
X199652420Y-105466400D02*
X199652420Y-107443400D01*
X199652420Y-109523400D02*
X199652420Y-111500400D01*
X199692420Y-105481400D02*
X199692420Y-107443400D01*
X199692420Y-109523400D02*
X199692420Y-111485400D01*
X199732420Y-105497400D02*
X199732420Y-107443400D01*
X199732420Y-109523400D02*
X199732420Y-111469400D01*
X199772420Y-105514400D02*
X199772420Y-107443400D01*
X199772420Y-109523400D02*
X199772420Y-111452400D01*
X199812420Y-105531400D02*
X199812420Y-107443400D01*
X199812420Y-109523400D02*
X199812420Y-111435400D01*
X199852420Y-105549400D02*
X199852420Y-107443400D01*
X199852420Y-109523400D02*
X199852420Y-111417400D01*
X199892420Y-105568400D02*
X199892420Y-107443400D01*
X199892420Y-109523400D02*
X199892420Y-111398400D01*
X199932420Y-105587400D02*
X199932420Y-107443400D01*
X199932420Y-109523400D02*
X199932420Y-111379400D01*
X199972420Y-105607400D02*
X199972420Y-107443400D01*
X199972420Y-109523400D02*
X199972420Y-111359400D01*
X200012420Y-105628400D02*
X200012420Y-107443400D01*
X200012420Y-109523400D02*
X200012420Y-111338400D01*
X200052420Y-105649400D02*
X200052420Y-107443400D01*
X200052420Y-109523400D02*
X200052420Y-111317400D01*
X200092420Y-105671400D02*
X200092420Y-107443400D01*
X200092420Y-109523400D02*
X200092420Y-111295400D01*
X200132420Y-105694400D02*
X200132420Y-107443400D01*
X200132420Y-109523400D02*
X200132420Y-111272400D01*
X200172420Y-105718400D02*
X200172420Y-107443400D01*
X200172420Y-109523400D02*
X200172420Y-111248400D01*
X200212420Y-105742400D02*
X200212420Y-107443400D01*
X200212420Y-109523400D02*
X200212420Y-111224400D01*
X200252420Y-105767400D02*
X200252420Y-107443400D01*
X200252420Y-109523400D02*
X200252420Y-111199400D01*
X200292420Y-105793400D02*
X200292420Y-107443400D01*
X200292420Y-109523400D02*
X200292420Y-111173400D01*
X200332420Y-105820400D02*
X200332420Y-107443400D01*
X200332420Y-109523400D02*
X200332420Y-111146400D01*
X200372420Y-105847400D02*
X200372420Y-107443400D01*
X200372420Y-109523400D02*
X200372420Y-111119400D01*
X200412420Y-105876400D02*
X200412420Y-107443400D01*
X200412420Y-109523400D02*
X200412420Y-111090400D01*
X200452420Y-105906400D02*
X200452420Y-107443400D01*
X200452420Y-109523400D02*
X200452420Y-111060400D01*
X200492420Y-105936400D02*
X200492420Y-107443400D01*
X200492420Y-109523400D02*
X200492420Y-111030400D01*
X200532420Y-105967400D02*
X200532420Y-107443400D01*
X200532420Y-109523400D02*
X200532420Y-110999400D01*
X200572420Y-106000400D02*
X200572420Y-107443400D01*
X200572420Y-109523400D02*
X200572420Y-110966400D01*
X200612420Y-106033400D02*
X200612420Y-107443400D01*
X200612420Y-109523400D02*
X200612420Y-110933400D01*
X200652420Y-106068400D02*
X200652420Y-107443400D01*
X200652420Y-109523400D02*
X200652420Y-110898400D01*
X200692420Y-106104400D02*
X200692420Y-107443400D01*
X200692420Y-109523400D02*
X200692420Y-110862400D01*
X200732420Y-106141400D02*
X200732420Y-107443400D01*
X200732420Y-109523400D02*
X200732420Y-110825400D01*
X200772420Y-106179400D02*
X200772420Y-107443400D01*
X200772420Y-109523400D02*
X200772420Y-110787400D01*
X200812420Y-106219400D02*
X200812420Y-110747400D01*
X200852420Y-106260400D02*
X200852420Y-110706400D01*
X200892420Y-106302400D02*
X200892420Y-110664400D01*
X200932420Y-106346400D02*
X200932420Y-110620400D01*
X200972420Y-106392400D02*
X200972420Y-110574400D01*
X201012420Y-106439400D02*
X201012420Y-110527400D01*
X201052420Y-106488400D02*
X201052420Y-110478400D01*
X201092420Y-106540400D02*
X201092420Y-110426400D01*
X201132420Y-106593400D02*
X201132420Y-110373400D01*
X201172420Y-106649400D02*
X201172420Y-110317400D01*
X201212420Y-106708400D02*
X201212420Y-110258400D01*
X201252420Y-106769400D02*
X201252420Y-110197400D01*
X201292420Y-106834400D02*
X201292420Y-110132400D01*
X201332420Y-106902400D02*
X201332420Y-110064400D01*
X201372420Y-106974400D02*
X201372420Y-109992400D01*
X201412420Y-107051400D02*
X201412420Y-109915400D01*
X201452420Y-107133400D02*
X201452420Y-109833400D01*
X201492420Y-107222400D02*
X201492420Y-109744400D01*
X201532420Y-107318400D02*
X201532420Y-109648400D01*
X201572420Y-107425400D02*
X201572420Y-109541400D01*
X201612420Y-107544400D02*
X201612420Y-109422400D01*
X201652420Y-107682400D02*
X201652420Y-109284400D01*
X201692420Y-107850400D02*
X201692420Y-109116400D01*
X201732420Y-108081400D02*
X201732420Y-108885400D01*
X201762420Y-108483400D02*
G75*
G02*
X195222420Y-108483400I-3270000J0D01*
G01*
X195222420Y-108483400D02*
G75*
G02*
X201762420Y-108483400I3270000J0D01*
G01*
%TO.C,R2*%
X187377336Y-97461400D02*
X187831464Y-97461400D01*
X187377336Y-98931400D02*
X187831464Y-98931400D01*
%TO.C,R8*%
X195657736Y-119584800D02*
X196111864Y-119584800D01*
X195657736Y-121054800D02*
X196111864Y-121054800D01*
%TO.C,R3*%
X191517536Y-97461400D02*
X191971664Y-97461400D01*
X191517536Y-98931400D02*
X191971664Y-98931400D01*
D13*
%TO.C,U3*%
X189290400Y-121634000D02*
X187290400Y-121634000D01*
X192490400Y-117634000D02*
X187290400Y-117634000D01*
X192490400Y-121634000D02*
X190490400Y-121634000D01*
X189290400Y-121634000D02*
G75*
G02*
X190490400Y-121634000I600000J0D01*
G01*
X193490400Y-122434000D02*
X192690400Y-122434000D01*
X193090400Y-121834000D01*
X193490400Y-122434000D01*
G36*
X193490400Y-122434000D02*
G01*
X192690400Y-122434000D01*
X193090400Y-121834000D01*
X193490400Y-122434000D01*
G37*
D12*
%TO.C,D4*%
X195026000Y-113920000D02*
X189516000Y-113920000D01*
X195026000Y-117220000D02*
X189516000Y-117220000D01*
X195026000Y-117220000D02*
X195026000Y-113920000D01*
%TO.C,R5*%
X197385000Y-99467936D02*
X197385000Y-99922064D01*
X198855000Y-99467936D02*
X198855000Y-99922064D01*
%TO.C,D3*%
X195026000Y-110364000D02*
X189516000Y-110364000D01*
X195026000Y-113664000D02*
X189516000Y-113664000D01*
X195026000Y-113664000D02*
X195026000Y-110364000D01*
%TO.C,C5*%
X196817348Y-101881000D02*
X197339852Y-101881000D01*
X196817348Y-103351000D02*
X197339852Y-103351000D01*
%TO.C,R10*%
X203277736Y-119584800D02*
X203731864Y-119584800D01*
X203277736Y-121054800D02*
X203731864Y-121054800D01*
%TO.C,R7*%
X193219400Y-107773736D02*
X193219400Y-108227864D01*
X194689400Y-107773736D02*
X194689400Y-108227864D01*
%TO.C,R6*%
X191187400Y-108227864D02*
X191187400Y-107773736D01*
X192657400Y-108227864D02*
X192657400Y-107773736D01*
%TO.C,J3*%
X170973500Y-121340000D02*
X176773500Y-121340000D01*
X176773500Y-112340000D02*
X168773500Y-112340000D01*
X176773500Y-121340000D02*
X176773500Y-112340000D01*
X177573500Y-120040000D02*
X177011500Y-119802000D01*
X177573500Y-119640000D01*
X177573500Y-120040000D01*
G36*
X177573500Y-120040000D02*
G01*
X177011500Y-119802000D01*
X177573500Y-119640000D01*
X177573500Y-120040000D01*
G37*
%TO.C,D6*%
X210313000Y-116848000D02*
X210313000Y-119118000D01*
X210313000Y-119118000D02*
X214198000Y-119118000D01*
X214198000Y-116848000D02*
X210313000Y-116848000D01*
%TO.C,Q1*%
X187593800Y-106963800D02*
X188593800Y-106963800D01*
X187593800Y-108783800D02*
X187593800Y-106963800D01*
X187643800Y-108783800D02*
X187593800Y-108783800D01*
X189543800Y-108783800D02*
X188763800Y-108783800D01*
X189713800Y-106963800D02*
X190713800Y-106963800D01*
X190713800Y-106963800D02*
X190713800Y-108783800D01*
X190713800Y-108783800D02*
X190663800Y-108783800D01*
X189103800Y-109563800D02*
X188773800Y-109323800D01*
X189103800Y-109083800D01*
X189103800Y-109563800D01*
G36*
X189103800Y-109563800D02*
G01*
X188773800Y-109323800D01*
X189103800Y-109083800D01*
X189103800Y-109563800D01*
G37*
%TO.C,C3*%
X183694400Y-102877252D02*
X183694400Y-102354748D01*
X185164400Y-102877252D02*
X185164400Y-102354748D01*
%TO.C,C1*%
X195353000Y-99956252D02*
X195353000Y-99433748D01*
X196823000Y-99956252D02*
X196823000Y-99433748D01*
%TO.C,J2*%
X201949200Y-104128000D02*
X201949200Y-115328000D01*
X201949200Y-115328000D02*
X209949200Y-115328000D01*
X209949200Y-104128000D02*
X201949200Y-104128000D01*
X201811315Y-105656585D02*
X201281315Y-105928000D01*
X201281315Y-105396585D01*
X201811315Y-105656585D01*
G36*
X201811315Y-105656585D02*
G01*
X201281315Y-105928000D01*
X201281315Y-105396585D01*
X201811315Y-105656585D01*
G37*
%TD*%
M02*
