%TF.GenerationSoftware,KiCad,Pcbnew,9.0.7-9.0.7~ubuntu24.04.1*%
%TF.CreationDate,2026-01-04T23:11:15-08:00*%
%TF.ProjectId,BeamBreak-v1,4265616d-4272-4656-916b-2d76312e6b69,1*%
%TF.SameCoordinates,Original*%
%TF.FileFunction,Legend,Top*%
%TF.FilePolarity,Positive*%
%FSLAX46Y46*%
G04 Gerber Fmt 4.6, Leading zero omitted, Abs format (unit mm)*
G04 Created by KiCad (PCBNEW 9.0.7-9.0.7~ubuntu24.04.1) date 2026-01-04 23:11:15*
%MOMM*%
%LPD*%
G01*
G04 APERTURE LIST*
%ADD10C,0.127000*%
%ADD11C,0.101600*%
%ADD12C,0.152400*%
%ADD13C,0.120000*%
%ADD14C,0.100000*%
G04 APERTURE END LIST*
D10*
X202666600Y-122682000D02*
X202082400Y-123037600D01*
D11*
X202971400Y-118313200D02*
X204089000Y-118313200D01*
X204495400Y-118313200D02*
X205613000Y-118313200D01*
X206019400Y-118313200D02*
X206832200Y-118313200D01*
X206832200Y-118313200D02*
X206832200Y-119430800D01*
X206832200Y-119837200D02*
X206832200Y-120954800D01*
X206832200Y-121361200D02*
X206832200Y-122478800D01*
X206832200Y-122885200D02*
X206832200Y-123190000D01*
X206832200Y-123190000D02*
X205714600Y-123190000D01*
X205308200Y-123190000D02*
X204190600Y-123190000D01*
X203784200Y-123190000D02*
X202971400Y-123190000D01*
X202971400Y-123190000D02*
X202971400Y-122072400D01*
X202971400Y-121666000D02*
X202971400Y-120548400D01*
X202971400Y-120142000D02*
X202971400Y-119024400D01*
X202971400Y-118618000D02*
X202971400Y-118313200D01*
D10*
X164348376Y-97199964D02*
X164094376Y-96837107D01*
X163912947Y-97199964D02*
X163912947Y-96437964D01*
X163912947Y-96437964D02*
X164203233Y-96437964D01*
X164203233Y-96437964D02*
X164275804Y-96474250D01*
X164275804Y-96474250D02*
X164312090Y-96510536D01*
X164312090Y-96510536D02*
X164348376Y-96583107D01*
X164348376Y-96583107D02*
X164348376Y-96691964D01*
X164348376Y-96691964D02*
X164312090Y-96764536D01*
X164312090Y-96764536D02*
X164275804Y-96800821D01*
X164275804Y-96800821D02*
X164203233Y-96837107D01*
X164203233Y-96837107D02*
X163912947Y-96837107D01*
X164566090Y-96437964D02*
X165001519Y-96437964D01*
X164783804Y-97199964D02*
X164783804Y-96437964D01*
X165255518Y-97199964D02*
X165255518Y-96437964D01*
X165255518Y-96437964D02*
X165690947Y-97199964D01*
X165690947Y-97199964D02*
X165690947Y-96437964D01*
X163804090Y-97664741D02*
X164058090Y-98426741D01*
X164058090Y-98426741D02*
X164312090Y-97664741D01*
X164820090Y-98027598D02*
X164928947Y-98063884D01*
X164928947Y-98063884D02*
X164965233Y-98100170D01*
X164965233Y-98100170D02*
X165001519Y-98172741D01*
X165001519Y-98172741D02*
X165001519Y-98281598D01*
X165001519Y-98281598D02*
X164965233Y-98354170D01*
X164965233Y-98354170D02*
X164928947Y-98390456D01*
X164928947Y-98390456D02*
X164856376Y-98426741D01*
X164856376Y-98426741D02*
X164566090Y-98426741D01*
X164566090Y-98426741D02*
X164566090Y-97664741D01*
X164566090Y-97664741D02*
X164820090Y-97664741D01*
X164820090Y-97664741D02*
X164892662Y-97701027D01*
X164892662Y-97701027D02*
X164928947Y-97737313D01*
X164928947Y-97737313D02*
X164965233Y-97809884D01*
X164965233Y-97809884D02*
X164965233Y-97882456D01*
X164965233Y-97882456D02*
X164928947Y-97955027D01*
X164928947Y-97955027D02*
X164892662Y-97991313D01*
X164892662Y-97991313D02*
X164820090Y-98027598D01*
X164820090Y-98027598D02*
X164566090Y-98027598D01*
X165291804Y-98209027D02*
X165654662Y-98209027D01*
X165219233Y-98426741D02*
X165473233Y-97664741D01*
X165473233Y-97664741D02*
X165727233Y-98426741D01*
X165872376Y-97664741D02*
X166307805Y-97664741D01*
X166090090Y-98426741D02*
X166090090Y-97664741D01*
X195438485Y-123140397D02*
X195801343Y-123140397D01*
X195365914Y-123358111D02*
X195619914Y-122596111D01*
X195619914Y-122596111D02*
X195873914Y-123358111D01*
X196563343Y-123285540D02*
X196527057Y-123321826D01*
X196527057Y-123321826D02*
X196418200Y-123358111D01*
X196418200Y-123358111D02*
X196345628Y-123358111D01*
X196345628Y-123358111D02*
X196236771Y-123321826D01*
X196236771Y-123321826D02*
X196164200Y-123249254D01*
X196164200Y-123249254D02*
X196127914Y-123176683D01*
X196127914Y-123176683D02*
X196091628Y-123031540D01*
X196091628Y-123031540D02*
X196091628Y-122922683D01*
X196091628Y-122922683D02*
X196127914Y-122777540D01*
X196127914Y-122777540D02*
X196164200Y-122704968D01*
X196164200Y-122704968D02*
X196236771Y-122632397D01*
X196236771Y-122632397D02*
X196345628Y-122596111D01*
X196345628Y-122596111D02*
X196418200Y-122596111D01*
X196418200Y-122596111D02*
X196527057Y-122632397D01*
X196527057Y-122632397D02*
X196563343Y-122668683D01*
X196781057Y-122596111D02*
X197216486Y-122596111D01*
X196998771Y-123358111D02*
X196998771Y-122596111D01*
X197470485Y-123358111D02*
X197470485Y-122596111D01*
X197724485Y-122596111D02*
X197978485Y-123358111D01*
X197978485Y-123358111D02*
X198232485Y-122596111D01*
X198486485Y-122958968D02*
X198740485Y-122958968D01*
X198849342Y-123358111D02*
X198486485Y-123358111D01*
X198486485Y-123358111D02*
X198486485Y-122596111D01*
X198486485Y-122596111D02*
X198849342Y-122596111D01*
X200119342Y-123358111D02*
X199756485Y-123358111D01*
X199756485Y-123358111D02*
X199756485Y-122596111D01*
X200518485Y-122596111D02*
X200663628Y-122596111D01*
X200663628Y-122596111D02*
X200736199Y-122632397D01*
X200736199Y-122632397D02*
X200808771Y-122704968D01*
X200808771Y-122704968D02*
X200845056Y-122850111D01*
X200845056Y-122850111D02*
X200845056Y-123104111D01*
X200845056Y-123104111D02*
X200808771Y-123249254D01*
X200808771Y-123249254D02*
X200736199Y-123321826D01*
X200736199Y-123321826D02*
X200663628Y-123358111D01*
X200663628Y-123358111D02*
X200518485Y-123358111D01*
X200518485Y-123358111D02*
X200445914Y-123321826D01*
X200445914Y-123321826D02*
X200373342Y-123249254D01*
X200373342Y-123249254D02*
X200337056Y-123104111D01*
X200337056Y-123104111D02*
X200337056Y-122850111D01*
X200337056Y-122850111D02*
X200373342Y-122704968D01*
X200373342Y-122704968D02*
X200445914Y-122632397D01*
X200445914Y-122632397D02*
X200518485Y-122596111D01*
X201099057Y-122596111D02*
X201280485Y-123358111D01*
X201280485Y-123358111D02*
X201425628Y-122813826D01*
X201425628Y-122813826D02*
X201570771Y-123358111D01*
X201570771Y-123358111D02*
X201752200Y-122596111D01*
X174254980Y-122817998D02*
X174363837Y-122854284D01*
X174363837Y-122854284D02*
X174400123Y-122890570D01*
X174400123Y-122890570D02*
X174436409Y-122963141D01*
X174436409Y-122963141D02*
X174436409Y-123071998D01*
X174436409Y-123071998D02*
X174400123Y-123144570D01*
X174400123Y-123144570D02*
X174363837Y-123180856D01*
X174363837Y-123180856D02*
X174291266Y-123217141D01*
X174291266Y-123217141D02*
X174000980Y-123217141D01*
X174000980Y-123217141D02*
X174000980Y-122455141D01*
X174000980Y-122455141D02*
X174254980Y-122455141D01*
X174254980Y-122455141D02*
X174327552Y-122491427D01*
X174327552Y-122491427D02*
X174363837Y-122527713D01*
X174363837Y-122527713D02*
X174400123Y-122600284D01*
X174400123Y-122600284D02*
X174400123Y-122672856D01*
X174400123Y-122672856D02*
X174363837Y-122745427D01*
X174363837Y-122745427D02*
X174327552Y-122781713D01*
X174327552Y-122781713D02*
X174254980Y-122817998D01*
X174254980Y-122817998D02*
X174000980Y-122817998D01*
X174762980Y-122817998D02*
X175016980Y-122817998D01*
X175125837Y-123217141D02*
X174762980Y-123217141D01*
X174762980Y-123217141D02*
X174762980Y-122455141D01*
X174762980Y-122455141D02*
X175125837Y-122455141D01*
X175416123Y-122999427D02*
X175778981Y-122999427D01*
X175343552Y-123217141D02*
X175597552Y-122455141D01*
X175597552Y-122455141D02*
X175851552Y-123217141D01*
X176105552Y-123217141D02*
X176105552Y-122455141D01*
X176105552Y-122455141D02*
X176359552Y-122999427D01*
X176359552Y-122999427D02*
X176613552Y-122455141D01*
X176613552Y-122455141D02*
X176613552Y-123217141D01*
X177810980Y-122817998D02*
X177919837Y-122854284D01*
X177919837Y-122854284D02*
X177956123Y-122890570D01*
X177956123Y-122890570D02*
X177992409Y-122963141D01*
X177992409Y-122963141D02*
X177992409Y-123071998D01*
X177992409Y-123071998D02*
X177956123Y-123144570D01*
X177956123Y-123144570D02*
X177919837Y-123180856D01*
X177919837Y-123180856D02*
X177847266Y-123217141D01*
X177847266Y-123217141D02*
X177556980Y-123217141D01*
X177556980Y-123217141D02*
X177556980Y-122455141D01*
X177556980Y-122455141D02*
X177810980Y-122455141D01*
X177810980Y-122455141D02*
X177883552Y-122491427D01*
X177883552Y-122491427D02*
X177919837Y-122527713D01*
X177919837Y-122527713D02*
X177956123Y-122600284D01*
X177956123Y-122600284D02*
X177956123Y-122672856D01*
X177956123Y-122672856D02*
X177919837Y-122745427D01*
X177919837Y-122745427D02*
X177883552Y-122781713D01*
X177883552Y-122781713D02*
X177810980Y-122817998D01*
X177810980Y-122817998D02*
X177556980Y-122817998D01*
X178754409Y-123217141D02*
X178500409Y-122854284D01*
X178318980Y-123217141D02*
X178318980Y-122455141D01*
X178318980Y-122455141D02*
X178609266Y-122455141D01*
X178609266Y-122455141D02*
X178681837Y-122491427D01*
X178681837Y-122491427D02*
X178718123Y-122527713D01*
X178718123Y-122527713D02*
X178754409Y-122600284D01*
X178754409Y-122600284D02*
X178754409Y-122709141D01*
X178754409Y-122709141D02*
X178718123Y-122781713D01*
X178718123Y-122781713D02*
X178681837Y-122817998D01*
X178681837Y-122817998D02*
X178609266Y-122854284D01*
X178609266Y-122854284D02*
X178318980Y-122854284D01*
X179080980Y-122817998D02*
X179334980Y-122817998D01*
X179443837Y-123217141D02*
X179080980Y-123217141D01*
X179080980Y-123217141D02*
X179080980Y-122455141D01*
X179080980Y-122455141D02*
X179443837Y-122455141D01*
X179734123Y-122999427D02*
X180096981Y-122999427D01*
X179661552Y-123217141D02*
X179915552Y-122455141D01*
X179915552Y-122455141D02*
X180169552Y-123217141D01*
X180423552Y-123217141D02*
X180423552Y-122455141D01*
X180858981Y-123217141D02*
X180532409Y-122781713D01*
X180858981Y-122455141D02*
X180423552Y-122890570D01*
X181729837Y-122999427D02*
X182092695Y-122999427D01*
X181657266Y-123217141D02*
X181911266Y-122455141D01*
X181911266Y-122455141D02*
X182165266Y-123217141D01*
X182419266Y-123217141D02*
X182419266Y-122455141D01*
X182419266Y-122455141D02*
X182600695Y-122455141D01*
X182600695Y-122455141D02*
X182709552Y-122491427D01*
X182709552Y-122491427D02*
X182782123Y-122563998D01*
X182782123Y-122563998D02*
X182818409Y-122636570D01*
X182818409Y-122636570D02*
X182854695Y-122781713D01*
X182854695Y-122781713D02*
X182854695Y-122890570D01*
X182854695Y-122890570D02*
X182818409Y-123035713D01*
X182818409Y-123035713D02*
X182782123Y-123108284D01*
X182782123Y-123108284D02*
X182709552Y-123180856D01*
X182709552Y-123180856D02*
X182600695Y-123217141D01*
X182600695Y-123217141D02*
X182419266Y-123217141D01*
X183144980Y-122999427D02*
X183507838Y-122999427D01*
X183072409Y-123217141D02*
X183326409Y-122455141D01*
X183326409Y-122455141D02*
X183580409Y-123217141D01*
X183834409Y-123217141D02*
X183834409Y-122455141D01*
X183834409Y-122455141D02*
X184124695Y-122455141D01*
X184124695Y-122455141D02*
X184197266Y-122491427D01*
X184197266Y-122491427D02*
X184233552Y-122527713D01*
X184233552Y-122527713D02*
X184269838Y-122600284D01*
X184269838Y-122600284D02*
X184269838Y-122709141D01*
X184269838Y-122709141D02*
X184233552Y-122781713D01*
X184233552Y-122781713D02*
X184197266Y-122817998D01*
X184197266Y-122817998D02*
X184124695Y-122854284D01*
X184124695Y-122854284D02*
X183834409Y-122854284D01*
X184487552Y-122455141D02*
X184922981Y-122455141D01*
X184705266Y-123217141D02*
X184705266Y-122455141D01*
X185176980Y-122817998D02*
X185430980Y-122817998D01*
X185539837Y-123217141D02*
X185176980Y-123217141D01*
X185176980Y-123217141D02*
X185176980Y-122455141D01*
X185176980Y-122455141D02*
X185539837Y-122455141D01*
X186301838Y-123217141D02*
X186047838Y-122854284D01*
X185866409Y-123217141D02*
X185866409Y-122455141D01*
X185866409Y-122455141D02*
X186156695Y-122455141D01*
X186156695Y-122455141D02*
X186229266Y-122491427D01*
X186229266Y-122491427D02*
X186265552Y-122527713D01*
X186265552Y-122527713D02*
X186301838Y-122600284D01*
X186301838Y-122600284D02*
X186301838Y-122709141D01*
X186301838Y-122709141D02*
X186265552Y-122781713D01*
X186265552Y-122781713D02*
X186229266Y-122817998D01*
X186229266Y-122817998D02*
X186156695Y-122854284D01*
X186156695Y-122854284D02*
X185866409Y-122854284D01*
X187100123Y-122455141D02*
X187354123Y-123217141D01*
X187354123Y-123217141D02*
X187608123Y-122455141D01*
X188261266Y-123217141D02*
X187825837Y-123217141D01*
X188043552Y-123217141D02*
X188043552Y-122455141D01*
X188043552Y-122455141D02*
X187970980Y-122563998D01*
X187970980Y-122563998D02*
X187898409Y-122636570D01*
X187898409Y-122636570D02*
X187825837Y-122672856D01*
X164076232Y-120687387D02*
X164076232Y-119925387D01*
X164076232Y-119925387D02*
X164257661Y-119925387D01*
X164257661Y-119925387D02*
X164366518Y-119961673D01*
X164366518Y-119961673D02*
X164439089Y-120034244D01*
X164439089Y-120034244D02*
X164475375Y-120106816D01*
X164475375Y-120106816D02*
X164511661Y-120251959D01*
X164511661Y-120251959D02*
X164511661Y-120360816D01*
X164511661Y-120360816D02*
X164475375Y-120505959D01*
X164475375Y-120505959D02*
X164439089Y-120578530D01*
X164439089Y-120578530D02*
X164366518Y-120651102D01*
X164366518Y-120651102D02*
X164257661Y-120687387D01*
X164257661Y-120687387D02*
X164076232Y-120687387D01*
X164838232Y-120687387D02*
X164838232Y-119925387D01*
X165346232Y-119925387D02*
X165491375Y-119925387D01*
X165491375Y-119925387D02*
X165563946Y-119961673D01*
X165563946Y-119961673D02*
X165636518Y-120034244D01*
X165636518Y-120034244D02*
X165672803Y-120179387D01*
X165672803Y-120179387D02*
X165672803Y-120433387D01*
X165672803Y-120433387D02*
X165636518Y-120578530D01*
X165636518Y-120578530D02*
X165563946Y-120651102D01*
X165563946Y-120651102D02*
X165491375Y-120687387D01*
X165491375Y-120687387D02*
X165346232Y-120687387D01*
X165346232Y-120687387D02*
X165273661Y-120651102D01*
X165273661Y-120651102D02*
X165201089Y-120578530D01*
X165201089Y-120578530D02*
X165164803Y-120433387D01*
X165164803Y-120433387D02*
X165164803Y-120179387D01*
X165164803Y-120179387D02*
X165201089Y-120034244D01*
X165201089Y-120034244D02*
X165273661Y-119961673D01*
X165273661Y-119961673D02*
X165346232Y-119925387D01*
X164439089Y-121152164D02*
X164076232Y-121152164D01*
X164076232Y-121152164D02*
X164039946Y-121515021D01*
X164039946Y-121515021D02*
X164076232Y-121478736D01*
X164076232Y-121478736D02*
X164148804Y-121442450D01*
X164148804Y-121442450D02*
X164330232Y-121442450D01*
X164330232Y-121442450D02*
X164402804Y-121478736D01*
X164402804Y-121478736D02*
X164439089Y-121515021D01*
X164439089Y-121515021D02*
X164475375Y-121587593D01*
X164475375Y-121587593D02*
X164475375Y-121769021D01*
X164475375Y-121769021D02*
X164439089Y-121841593D01*
X164439089Y-121841593D02*
X164402804Y-121877879D01*
X164402804Y-121877879D02*
X164330232Y-121914164D01*
X164330232Y-121914164D02*
X164148804Y-121914164D01*
X164148804Y-121914164D02*
X164076232Y-121877879D01*
X164076232Y-121877879D02*
X164039946Y-121841593D01*
X164693089Y-121152164D02*
X164947089Y-121914164D01*
X164947089Y-121914164D02*
X165201089Y-121152164D01*
X164475375Y-122415227D02*
X164402804Y-122378941D01*
X164402804Y-122378941D02*
X164293946Y-122378941D01*
X164293946Y-122378941D02*
X164185089Y-122415227D01*
X164185089Y-122415227D02*
X164112518Y-122487798D01*
X164112518Y-122487798D02*
X164076232Y-122560370D01*
X164076232Y-122560370D02*
X164039946Y-122705513D01*
X164039946Y-122705513D02*
X164039946Y-122814370D01*
X164039946Y-122814370D02*
X164076232Y-122959513D01*
X164076232Y-122959513D02*
X164112518Y-123032084D01*
X164112518Y-123032084D02*
X164185089Y-123104656D01*
X164185089Y-123104656D02*
X164293946Y-123140941D01*
X164293946Y-123140941D02*
X164366518Y-123140941D01*
X164366518Y-123140941D02*
X164475375Y-123104656D01*
X164475375Y-123104656D02*
X164511661Y-123068370D01*
X164511661Y-123068370D02*
X164511661Y-122814370D01*
X164511661Y-122814370D02*
X164366518Y-122814370D01*
X164838232Y-123140941D02*
X164838232Y-122378941D01*
X164838232Y-122378941D02*
X165273661Y-123140941D01*
X165273661Y-123140941D02*
X165273661Y-122378941D01*
X165636518Y-123140941D02*
X165636518Y-122378941D01*
X165636518Y-122378941D02*
X165817947Y-122378941D01*
X165817947Y-122378941D02*
X165926804Y-122415227D01*
X165926804Y-122415227D02*
X165999375Y-122487798D01*
X165999375Y-122487798D02*
X166035661Y-122560370D01*
X166035661Y-122560370D02*
X166071947Y-122705513D01*
X166071947Y-122705513D02*
X166071947Y-122814370D01*
X166071947Y-122814370D02*
X166035661Y-122959513D01*
X166035661Y-122959513D02*
X165999375Y-123032084D01*
X165999375Y-123032084D02*
X165926804Y-123104656D01*
X165926804Y-123104656D02*
X165817947Y-123140941D01*
X165817947Y-123140941D02*
X165636518Y-123140941D01*
X171678694Y-97189079D02*
X171787552Y-97225364D01*
X171787552Y-97225364D02*
X171968980Y-97225364D01*
X171968980Y-97225364D02*
X172041552Y-97189079D01*
X172041552Y-97189079D02*
X172077837Y-97152793D01*
X172077837Y-97152793D02*
X172114123Y-97080221D01*
X172114123Y-97080221D02*
X172114123Y-97007650D01*
X172114123Y-97007650D02*
X172077837Y-96935079D01*
X172077837Y-96935079D02*
X172041552Y-96898793D01*
X172041552Y-96898793D02*
X171968980Y-96862507D01*
X171968980Y-96862507D02*
X171823837Y-96826221D01*
X171823837Y-96826221D02*
X171751266Y-96789936D01*
X171751266Y-96789936D02*
X171714980Y-96753650D01*
X171714980Y-96753650D02*
X171678694Y-96681079D01*
X171678694Y-96681079D02*
X171678694Y-96608507D01*
X171678694Y-96608507D02*
X171714980Y-96535936D01*
X171714980Y-96535936D02*
X171751266Y-96499650D01*
X171751266Y-96499650D02*
X171823837Y-96463364D01*
X171823837Y-96463364D02*
X172005266Y-96463364D01*
X172005266Y-96463364D02*
X172114123Y-96499650D01*
X172440694Y-97225364D02*
X172440694Y-96463364D01*
X172440694Y-96463364D02*
X172730980Y-96463364D01*
X172730980Y-96463364D02*
X172803551Y-96499650D01*
X172803551Y-96499650D02*
X172839837Y-96535936D01*
X172839837Y-96535936D02*
X172876123Y-96608507D01*
X172876123Y-96608507D02*
X172876123Y-96717364D01*
X172876123Y-96717364D02*
X172839837Y-96789936D01*
X172839837Y-96789936D02*
X172803551Y-96826221D01*
X172803551Y-96826221D02*
X172730980Y-96862507D01*
X172730980Y-96862507D02*
X172440694Y-96862507D01*
X173166408Y-97007650D02*
X173529266Y-97007650D01*
X173093837Y-97225364D02*
X173347837Y-96463364D01*
X173347837Y-96463364D02*
X173601837Y-97225364D01*
X174291266Y-97152793D02*
X174254980Y-97189079D01*
X174254980Y-97189079D02*
X174146123Y-97225364D01*
X174146123Y-97225364D02*
X174073551Y-97225364D01*
X174073551Y-97225364D02*
X173964694Y-97189079D01*
X173964694Y-97189079D02*
X173892123Y-97116507D01*
X173892123Y-97116507D02*
X173855837Y-97043936D01*
X173855837Y-97043936D02*
X173819551Y-96898793D01*
X173819551Y-96898793D02*
X173819551Y-96789936D01*
X173819551Y-96789936D02*
X173855837Y-96644793D01*
X173855837Y-96644793D02*
X173892123Y-96572221D01*
X173892123Y-96572221D02*
X173964694Y-96499650D01*
X173964694Y-96499650D02*
X174073551Y-96463364D01*
X174073551Y-96463364D02*
X174146123Y-96463364D01*
X174146123Y-96463364D02*
X174254980Y-96499650D01*
X174254980Y-96499650D02*
X174291266Y-96535936D01*
X174617837Y-96826221D02*
X174871837Y-96826221D01*
X174980694Y-97225364D02*
X174617837Y-97225364D01*
X174617837Y-97225364D02*
X174617837Y-96463364D01*
X174617837Y-96463364D02*
X174980694Y-96463364D01*
X176323266Y-97152793D02*
X176286980Y-97189079D01*
X176286980Y-97189079D02*
X176178123Y-97225364D01*
X176178123Y-97225364D02*
X176105551Y-97225364D01*
X176105551Y-97225364D02*
X175996694Y-97189079D01*
X175996694Y-97189079D02*
X175924123Y-97116507D01*
X175924123Y-97116507D02*
X175887837Y-97043936D01*
X175887837Y-97043936D02*
X175851551Y-96898793D01*
X175851551Y-96898793D02*
X175851551Y-96789936D01*
X175851551Y-96789936D02*
X175887837Y-96644793D01*
X175887837Y-96644793D02*
X175924123Y-96572221D01*
X175924123Y-96572221D02*
X175996694Y-96499650D01*
X175996694Y-96499650D02*
X176105551Y-96463364D01*
X176105551Y-96463364D02*
X176178123Y-96463364D01*
X176178123Y-96463364D02*
X176286980Y-96499650D01*
X176286980Y-96499650D02*
X176323266Y-96535936D01*
X176794980Y-96463364D02*
X176940123Y-96463364D01*
X176940123Y-96463364D02*
X177012694Y-96499650D01*
X177012694Y-96499650D02*
X177085266Y-96572221D01*
X177085266Y-96572221D02*
X177121551Y-96717364D01*
X177121551Y-96717364D02*
X177121551Y-96971364D01*
X177121551Y-96971364D02*
X177085266Y-97116507D01*
X177085266Y-97116507D02*
X177012694Y-97189079D01*
X177012694Y-97189079D02*
X176940123Y-97225364D01*
X176940123Y-97225364D02*
X176794980Y-97225364D01*
X176794980Y-97225364D02*
X176722409Y-97189079D01*
X176722409Y-97189079D02*
X176649837Y-97116507D01*
X176649837Y-97116507D02*
X176613551Y-96971364D01*
X176613551Y-96971364D02*
X176613551Y-96717364D01*
X176613551Y-96717364D02*
X176649837Y-96572221D01*
X176649837Y-96572221D02*
X176722409Y-96499650D01*
X176722409Y-96499650D02*
X176794980Y-96463364D01*
X177593266Y-96463364D02*
X177738409Y-96463364D01*
X177738409Y-96463364D02*
X177810980Y-96499650D01*
X177810980Y-96499650D02*
X177883552Y-96572221D01*
X177883552Y-96572221D02*
X177919837Y-96717364D01*
X177919837Y-96717364D02*
X177919837Y-96971364D01*
X177919837Y-96971364D02*
X177883552Y-97116507D01*
X177883552Y-97116507D02*
X177810980Y-97189079D01*
X177810980Y-97189079D02*
X177738409Y-97225364D01*
X177738409Y-97225364D02*
X177593266Y-97225364D01*
X177593266Y-97225364D02*
X177520695Y-97189079D01*
X177520695Y-97189079D02*
X177448123Y-97116507D01*
X177448123Y-97116507D02*
X177411837Y-96971364D01*
X177411837Y-96971364D02*
X177411837Y-96717364D01*
X177411837Y-96717364D02*
X177448123Y-96572221D01*
X177448123Y-96572221D02*
X177520695Y-96499650D01*
X177520695Y-96499650D02*
X177593266Y-96463364D01*
X178246409Y-97225364D02*
X178246409Y-96463364D01*
X178681838Y-97225364D02*
X178355266Y-96789936D01*
X178681838Y-96463364D02*
X178246409Y-96898793D01*
X179008409Y-97225364D02*
X179008409Y-96463364D01*
X179371266Y-96826221D02*
X179625266Y-96826221D01*
X179734123Y-97225364D02*
X179371266Y-97225364D01*
X179371266Y-97225364D02*
X179371266Y-96463364D01*
X179371266Y-96463364D02*
X179734123Y-96463364D01*
X180024409Y-97189079D02*
X180133267Y-97225364D01*
X180133267Y-97225364D02*
X180314695Y-97225364D01*
X180314695Y-97225364D02*
X180387267Y-97189079D01*
X180387267Y-97189079D02*
X180423552Y-97152793D01*
X180423552Y-97152793D02*
X180459838Y-97080221D01*
X180459838Y-97080221D02*
X180459838Y-97007650D01*
X180459838Y-97007650D02*
X180423552Y-96935079D01*
X180423552Y-96935079D02*
X180387267Y-96898793D01*
X180387267Y-96898793D02*
X180314695Y-96862507D01*
X180314695Y-96862507D02*
X180169552Y-96826221D01*
X180169552Y-96826221D02*
X180096981Y-96789936D01*
X180096981Y-96789936D02*
X180060695Y-96753650D01*
X180060695Y-96753650D02*
X180024409Y-96681079D01*
X180024409Y-96681079D02*
X180024409Y-96608507D01*
X180024409Y-96608507D02*
X180060695Y-96535936D01*
X180060695Y-96535936D02*
X180096981Y-96499650D01*
X180096981Y-96499650D02*
X180169552Y-96463364D01*
X180169552Y-96463364D02*
X180350981Y-96463364D01*
X180350981Y-96463364D02*
X180459838Y-96499650D01*
X172114123Y-98452141D02*
X171678694Y-98452141D01*
X171896409Y-98452141D02*
X171896409Y-97690141D01*
X171896409Y-97690141D02*
X171823837Y-97798998D01*
X171823837Y-97798998D02*
X171751266Y-97871570D01*
X171751266Y-97871570D02*
X171678694Y-97907856D01*
X172549551Y-98016713D02*
X172476980Y-97980427D01*
X172476980Y-97980427D02*
X172440694Y-97944141D01*
X172440694Y-97944141D02*
X172404408Y-97871570D01*
X172404408Y-97871570D02*
X172404408Y-97835284D01*
X172404408Y-97835284D02*
X172440694Y-97762713D01*
X172440694Y-97762713D02*
X172476980Y-97726427D01*
X172476980Y-97726427D02*
X172549551Y-97690141D01*
X172549551Y-97690141D02*
X172694694Y-97690141D01*
X172694694Y-97690141D02*
X172767266Y-97726427D01*
X172767266Y-97726427D02*
X172803551Y-97762713D01*
X172803551Y-97762713D02*
X172839837Y-97835284D01*
X172839837Y-97835284D02*
X172839837Y-97871570D01*
X172839837Y-97871570D02*
X172803551Y-97944141D01*
X172803551Y-97944141D02*
X172767266Y-97980427D01*
X172767266Y-97980427D02*
X172694694Y-98016713D01*
X172694694Y-98016713D02*
X172549551Y-98016713D01*
X172549551Y-98016713D02*
X172476980Y-98052998D01*
X172476980Y-98052998D02*
X172440694Y-98089284D01*
X172440694Y-98089284D02*
X172404408Y-98161856D01*
X172404408Y-98161856D02*
X172404408Y-98306998D01*
X172404408Y-98306998D02*
X172440694Y-98379570D01*
X172440694Y-98379570D02*
X172476980Y-98415856D01*
X172476980Y-98415856D02*
X172549551Y-98452141D01*
X172549551Y-98452141D02*
X172694694Y-98452141D01*
X172694694Y-98452141D02*
X172767266Y-98415856D01*
X172767266Y-98415856D02*
X172803551Y-98379570D01*
X172803551Y-98379570D02*
X172839837Y-98306998D01*
X172839837Y-98306998D02*
X172839837Y-98161856D01*
X172839837Y-98161856D02*
X172803551Y-98089284D01*
X172803551Y-98089284D02*
X172767266Y-98052998D01*
X172767266Y-98052998D02*
X172694694Y-98016713D01*
X173492980Y-97690141D02*
X173347837Y-97690141D01*
X173347837Y-97690141D02*
X173275265Y-97726427D01*
X173275265Y-97726427D02*
X173238980Y-97762713D01*
X173238980Y-97762713D02*
X173166408Y-97871570D01*
X173166408Y-97871570D02*
X173130122Y-98016713D01*
X173130122Y-98016713D02*
X173130122Y-98306998D01*
X173130122Y-98306998D02*
X173166408Y-98379570D01*
X173166408Y-98379570D02*
X173202694Y-98415856D01*
X173202694Y-98415856D02*
X173275265Y-98452141D01*
X173275265Y-98452141D02*
X173420408Y-98452141D01*
X173420408Y-98452141D02*
X173492980Y-98415856D01*
X173492980Y-98415856D02*
X173529265Y-98379570D01*
X173529265Y-98379570D02*
X173565551Y-98306998D01*
X173565551Y-98306998D02*
X173565551Y-98125570D01*
X173565551Y-98125570D02*
X173529265Y-98052998D01*
X173529265Y-98052998D02*
X173492980Y-98016713D01*
X173492980Y-98016713D02*
X173420408Y-97980427D01*
X173420408Y-97980427D02*
X173275265Y-97980427D01*
X173275265Y-97980427D02*
X173202694Y-98016713D01*
X173202694Y-98016713D02*
X173166408Y-98052998D01*
X173166408Y-98052998D02*
X173130122Y-98125570D01*
X174000979Y-98016713D02*
X173928408Y-97980427D01*
X173928408Y-97980427D02*
X173892122Y-97944141D01*
X173892122Y-97944141D02*
X173855836Y-97871570D01*
X173855836Y-97871570D02*
X173855836Y-97835284D01*
X173855836Y-97835284D02*
X173892122Y-97762713D01*
X173892122Y-97762713D02*
X173928408Y-97726427D01*
X173928408Y-97726427D02*
X174000979Y-97690141D01*
X174000979Y-97690141D02*
X174146122Y-97690141D01*
X174146122Y-97690141D02*
X174218694Y-97726427D01*
X174218694Y-97726427D02*
X174254979Y-97762713D01*
X174254979Y-97762713D02*
X174291265Y-97835284D01*
X174291265Y-97835284D02*
X174291265Y-97871570D01*
X174291265Y-97871570D02*
X174254979Y-97944141D01*
X174254979Y-97944141D02*
X174218694Y-97980427D01*
X174218694Y-97980427D02*
X174146122Y-98016713D01*
X174146122Y-98016713D02*
X174000979Y-98016713D01*
X174000979Y-98016713D02*
X173928408Y-98052998D01*
X173928408Y-98052998D02*
X173892122Y-98089284D01*
X173892122Y-98089284D02*
X173855836Y-98161856D01*
X173855836Y-98161856D02*
X173855836Y-98306998D01*
X173855836Y-98306998D02*
X173892122Y-98379570D01*
X173892122Y-98379570D02*
X173928408Y-98415856D01*
X173928408Y-98415856D02*
X174000979Y-98452141D01*
X174000979Y-98452141D02*
X174146122Y-98452141D01*
X174146122Y-98452141D02*
X174218694Y-98415856D01*
X174218694Y-98415856D02*
X174254979Y-98379570D01*
X174254979Y-98379570D02*
X174291265Y-98306998D01*
X174291265Y-98306998D02*
X174291265Y-98161856D01*
X174291265Y-98161856D02*
X174254979Y-98089284D01*
X174254979Y-98089284D02*
X174218694Y-98052998D01*
X174218694Y-98052998D02*
X174146122Y-98016713D01*
X183337200Y-97145311D02*
X183083200Y-96782454D01*
X182901771Y-97145311D02*
X182901771Y-96383311D01*
X182901771Y-96383311D02*
X183192057Y-96383311D01*
X183192057Y-96383311D02*
X183264628Y-96419597D01*
X183264628Y-96419597D02*
X183300914Y-96455883D01*
X183300914Y-96455883D02*
X183337200Y-96528454D01*
X183337200Y-96528454D02*
X183337200Y-96637311D01*
X183337200Y-96637311D02*
X183300914Y-96709883D01*
X183300914Y-96709883D02*
X183264628Y-96746168D01*
X183264628Y-96746168D02*
X183192057Y-96782454D01*
X183192057Y-96782454D02*
X182901771Y-96782454D01*
X184062914Y-97145311D02*
X183627485Y-97145311D01*
X183845200Y-97145311D02*
X183845200Y-96383311D01*
X183845200Y-96383311D02*
X183772628Y-96492168D01*
X183772628Y-96492168D02*
X183700057Y-96564740D01*
X183700057Y-96564740D02*
X183627485Y-96601026D01*
X177999571Y-118963911D02*
X177999571Y-118201911D01*
X177999571Y-118201911D02*
X178181000Y-118201911D01*
X178181000Y-118201911D02*
X178289857Y-118238197D01*
X178289857Y-118238197D02*
X178362428Y-118310768D01*
X178362428Y-118310768D02*
X178398714Y-118383340D01*
X178398714Y-118383340D02*
X178435000Y-118528483D01*
X178435000Y-118528483D02*
X178435000Y-118637340D01*
X178435000Y-118637340D02*
X178398714Y-118782483D01*
X178398714Y-118782483D02*
X178362428Y-118855054D01*
X178362428Y-118855054D02*
X178289857Y-118927626D01*
X178289857Y-118927626D02*
X178181000Y-118963911D01*
X178181000Y-118963911D02*
X177999571Y-118963911D01*
X179088143Y-118455911D02*
X179088143Y-118963911D01*
X178906714Y-118165626D02*
X178725285Y-118709911D01*
X178725285Y-118709911D02*
X179197000Y-118709911D01*
X182372000Y-104485911D02*
X182009143Y-104485911D01*
X182009143Y-104485911D02*
X182009143Y-103723911D01*
X183025143Y-104485911D02*
X182589714Y-104485911D01*
X182807429Y-104485911D02*
X182807429Y-103723911D01*
X182807429Y-103723911D02*
X182734857Y-103832768D01*
X182734857Y-103832768D02*
X182662286Y-103905340D01*
X182662286Y-103905340D02*
X182589714Y-103941626D01*
X195554600Y-112211140D02*
X195518314Y-112247426D01*
X195518314Y-112247426D02*
X195409457Y-112283711D01*
X195409457Y-112283711D02*
X195336885Y-112283711D01*
X195336885Y-112283711D02*
X195228028Y-112247426D01*
X195228028Y-112247426D02*
X195155457Y-112174854D01*
X195155457Y-112174854D02*
X195119171Y-112102283D01*
X195119171Y-112102283D02*
X195082885Y-111957140D01*
X195082885Y-111957140D02*
X195082885Y-111848283D01*
X195082885Y-111848283D02*
X195119171Y-111703140D01*
X195119171Y-111703140D02*
X195155457Y-111630568D01*
X195155457Y-111630568D02*
X195228028Y-111557997D01*
X195228028Y-111557997D02*
X195336885Y-111521711D01*
X195336885Y-111521711D02*
X195409457Y-111521711D01*
X195409457Y-111521711D02*
X195518314Y-111557997D01*
X195518314Y-111557997D02*
X195554600Y-111594283D01*
X195808600Y-111521711D02*
X196316600Y-111521711D01*
X196316600Y-111521711D02*
X195990028Y-112283711D01*
X210362800Y-102479311D02*
X210108800Y-102116454D01*
X209927371Y-102479311D02*
X209927371Y-101717311D01*
X209927371Y-101717311D02*
X210217657Y-101717311D01*
X210217657Y-101717311D02*
X210290228Y-101753597D01*
X210290228Y-101753597D02*
X210326514Y-101789883D01*
X210326514Y-101789883D02*
X210362800Y-101862454D01*
X210362800Y-101862454D02*
X210362800Y-101971311D01*
X210362800Y-101971311D02*
X210326514Y-102043883D01*
X210326514Y-102043883D02*
X210290228Y-102080168D01*
X210290228Y-102080168D02*
X210217657Y-102116454D01*
X210217657Y-102116454D02*
X209927371Y-102116454D01*
X211052228Y-101717311D02*
X210689371Y-101717311D01*
X210689371Y-101717311D02*
X210653085Y-102080168D01*
X210653085Y-102080168D02*
X210689371Y-102043883D01*
X210689371Y-102043883D02*
X210761943Y-102007597D01*
X210761943Y-102007597D02*
X210943371Y-102007597D01*
X210943371Y-102007597D02*
X211015943Y-102043883D01*
X211015943Y-102043883D02*
X211052228Y-102080168D01*
X211052228Y-102080168D02*
X211088514Y-102152740D01*
X211088514Y-102152740D02*
X211088514Y-102334168D01*
X211088514Y-102334168D02*
X211052228Y-102406740D01*
X211052228Y-102406740D02*
X211015943Y-102443026D01*
X211015943Y-102443026D02*
X210943371Y-102479311D01*
X210943371Y-102479311D02*
X210761943Y-102479311D01*
X210761943Y-102479311D02*
X210689371Y-102443026D01*
X210689371Y-102443026D02*
X210653085Y-102406740D01*
X188700228Y-104816111D02*
X188700228Y-105432968D01*
X188700228Y-105432968D02*
X188736514Y-105505540D01*
X188736514Y-105505540D02*
X188772800Y-105541826D01*
X188772800Y-105541826D02*
X188845371Y-105578111D01*
X188845371Y-105578111D02*
X188990514Y-105578111D01*
X188990514Y-105578111D02*
X189063085Y-105541826D01*
X189063085Y-105541826D02*
X189099371Y-105505540D01*
X189099371Y-105505540D02*
X189135657Y-105432968D01*
X189135657Y-105432968D02*
X189135657Y-104816111D01*
X189462228Y-104888683D02*
X189498514Y-104852397D01*
X189498514Y-104852397D02*
X189571086Y-104816111D01*
X189571086Y-104816111D02*
X189752514Y-104816111D01*
X189752514Y-104816111D02*
X189825086Y-104852397D01*
X189825086Y-104852397D02*
X189861371Y-104888683D01*
X189861371Y-104888683D02*
X189897657Y-104961254D01*
X189897657Y-104961254D02*
X189897657Y-105033826D01*
X189897657Y-105033826D02*
X189861371Y-105142683D01*
X189861371Y-105142683D02*
X189425943Y-105578111D01*
X189425943Y-105578111D02*
X189897657Y-105578111D01*
X200853511Y-112115599D02*
X201397797Y-112115599D01*
X201397797Y-112115599D02*
X201506654Y-112151884D01*
X201506654Y-112151884D02*
X201579226Y-112224456D01*
X201579226Y-112224456D02*
X201615511Y-112333313D01*
X201615511Y-112333313D02*
X201615511Y-112405884D01*
X200926083Y-111789028D02*
X200889797Y-111752742D01*
X200889797Y-111752742D02*
X200853511Y-111680171D01*
X200853511Y-111680171D02*
X200853511Y-111498742D01*
X200853511Y-111498742D02*
X200889797Y-111426171D01*
X200889797Y-111426171D02*
X200926083Y-111389885D01*
X200926083Y-111389885D02*
X200998654Y-111353599D01*
X200998654Y-111353599D02*
X201071226Y-111353599D01*
X201071226Y-111353599D02*
X201180083Y-111389885D01*
X201180083Y-111389885D02*
X201615511Y-111825313D01*
X201615511Y-111825313D02*
X201615511Y-111353599D01*
X207394628Y-97094511D02*
X207394628Y-97711368D01*
X207394628Y-97711368D02*
X207430914Y-97783940D01*
X207430914Y-97783940D02*
X207467200Y-97820226D01*
X207467200Y-97820226D02*
X207539771Y-97856511D01*
X207539771Y-97856511D02*
X207684914Y-97856511D01*
X207684914Y-97856511D02*
X207757485Y-97820226D01*
X207757485Y-97820226D02*
X207793771Y-97783940D01*
X207793771Y-97783940D02*
X207830057Y-97711368D01*
X207830057Y-97711368D02*
X207830057Y-97094511D01*
X208592057Y-97856511D02*
X208156628Y-97856511D01*
X208374343Y-97856511D02*
X208374343Y-97094511D01*
X208374343Y-97094511D02*
X208301771Y-97203368D01*
X208301771Y-97203368D02*
X208229200Y-97275940D01*
X208229200Y-97275940D02*
X208156628Y-97312226D01*
X167640000Y-97754911D02*
X167640000Y-98299197D01*
X167640000Y-98299197D02*
X167603715Y-98408054D01*
X167603715Y-98408054D02*
X167531143Y-98480626D01*
X167531143Y-98480626D02*
X167422286Y-98516911D01*
X167422286Y-98516911D02*
X167349715Y-98516911D01*
X168402000Y-98516911D02*
X167966571Y-98516911D01*
X168184286Y-98516911D02*
X168184286Y-97754911D01*
X168184286Y-97754911D02*
X168111714Y-97863768D01*
X168111714Y-97863768D02*
X168039143Y-97936340D01*
X168039143Y-97936340D02*
X167966571Y-97972626D01*
X203758800Y-122900911D02*
X203504800Y-122538054D01*
X203323371Y-122900911D02*
X203323371Y-122138911D01*
X203323371Y-122138911D02*
X203613657Y-122138911D01*
X203613657Y-122138911D02*
X203686228Y-122175197D01*
X203686228Y-122175197D02*
X203722514Y-122211483D01*
X203722514Y-122211483D02*
X203758800Y-122284054D01*
X203758800Y-122284054D02*
X203758800Y-122392911D01*
X203758800Y-122392911D02*
X203722514Y-122465483D01*
X203722514Y-122465483D02*
X203686228Y-122501768D01*
X203686228Y-122501768D02*
X203613657Y-122538054D01*
X203613657Y-122538054D02*
X203323371Y-122538054D01*
X204194228Y-122465483D02*
X204121657Y-122429197D01*
X204121657Y-122429197D02*
X204085371Y-122392911D01*
X204085371Y-122392911D02*
X204049085Y-122320340D01*
X204049085Y-122320340D02*
X204049085Y-122284054D01*
X204049085Y-122284054D02*
X204085371Y-122211483D01*
X204085371Y-122211483D02*
X204121657Y-122175197D01*
X204121657Y-122175197D02*
X204194228Y-122138911D01*
X204194228Y-122138911D02*
X204339371Y-122138911D01*
X204339371Y-122138911D02*
X204411943Y-122175197D01*
X204411943Y-122175197D02*
X204448228Y-122211483D01*
X204448228Y-122211483D02*
X204484514Y-122284054D01*
X204484514Y-122284054D02*
X204484514Y-122320340D01*
X204484514Y-122320340D02*
X204448228Y-122392911D01*
X204448228Y-122392911D02*
X204411943Y-122429197D01*
X204411943Y-122429197D02*
X204339371Y-122465483D01*
X204339371Y-122465483D02*
X204194228Y-122465483D01*
X204194228Y-122465483D02*
X204121657Y-122501768D01*
X204121657Y-122501768D02*
X204085371Y-122538054D01*
X204085371Y-122538054D02*
X204049085Y-122610626D01*
X204049085Y-122610626D02*
X204049085Y-122755768D01*
X204049085Y-122755768D02*
X204085371Y-122828340D01*
X204085371Y-122828340D02*
X204121657Y-122864626D01*
X204121657Y-122864626D02*
X204194228Y-122900911D01*
X204194228Y-122900911D02*
X204339371Y-122900911D01*
X204339371Y-122900911D02*
X204411943Y-122864626D01*
X204411943Y-122864626D02*
X204448228Y-122828340D01*
X204448228Y-122828340D02*
X204484514Y-122755768D01*
X204484514Y-122755768D02*
X204484514Y-122610626D01*
X204484514Y-122610626D02*
X204448228Y-122538054D01*
X204448228Y-122538054D02*
X204411943Y-122501768D01*
X204411943Y-122501768D02*
X204339371Y-122465483D01*
X194383682Y-99944833D02*
X194419968Y-99981119D01*
X194419968Y-99981119D02*
X194456253Y-100089976D01*
X194456253Y-100089976D02*
X194456253Y-100162548D01*
X194456253Y-100162548D02*
X194419968Y-100271405D01*
X194419968Y-100271405D02*
X194347396Y-100343976D01*
X194347396Y-100343976D02*
X194274825Y-100380262D01*
X194274825Y-100380262D02*
X194129682Y-100416548D01*
X194129682Y-100416548D02*
X194020825Y-100416548D01*
X194020825Y-100416548D02*
X193875682Y-100380262D01*
X193875682Y-100380262D02*
X193803110Y-100343976D01*
X193803110Y-100343976D02*
X193730539Y-100271405D01*
X193730539Y-100271405D02*
X193694253Y-100162548D01*
X193694253Y-100162548D02*
X193694253Y-100089976D01*
X193694253Y-100089976D02*
X193730539Y-99981119D01*
X193730539Y-99981119D02*
X193766825Y-99944833D01*
X193948253Y-99291691D02*
X194456253Y-99291691D01*
X193657968Y-99473119D02*
X194202253Y-99654548D01*
X194202253Y-99654548D02*
X194202253Y-99182833D01*
X211984771Y-98212111D02*
X211984771Y-97450111D01*
X211984771Y-97450111D02*
X212166200Y-97450111D01*
X212166200Y-97450111D02*
X212275057Y-97486397D01*
X212275057Y-97486397D02*
X212347628Y-97558968D01*
X212347628Y-97558968D02*
X212383914Y-97631540D01*
X212383914Y-97631540D02*
X212420200Y-97776683D01*
X212420200Y-97776683D02*
X212420200Y-97885540D01*
X212420200Y-97885540D02*
X212383914Y-98030683D01*
X212383914Y-98030683D02*
X212347628Y-98103254D01*
X212347628Y-98103254D02*
X212275057Y-98175826D01*
X212275057Y-98175826D02*
X212166200Y-98212111D01*
X212166200Y-98212111D02*
X211984771Y-98212111D01*
X213145914Y-98212111D02*
X212710485Y-98212111D01*
X212928200Y-98212111D02*
X212928200Y-97450111D01*
X212928200Y-97450111D02*
X212855628Y-97558968D01*
X212855628Y-97558968D02*
X212783057Y-97631540D01*
X212783057Y-97631540D02*
X212710485Y-97667826D01*
D12*
X215820744Y-100854933D02*
X214931744Y-100854933D01*
X214931744Y-100854933D02*
X214931744Y-100516266D01*
X214931744Y-100516266D02*
X214974077Y-100431600D01*
X214974077Y-100431600D02*
X215016411Y-100389266D01*
X215016411Y-100389266D02*
X215101077Y-100346933D01*
X215101077Y-100346933D02*
X215228077Y-100346933D01*
X215228077Y-100346933D02*
X215312744Y-100389266D01*
X215312744Y-100389266D02*
X215355077Y-100431600D01*
X215355077Y-100431600D02*
X215397411Y-100516266D01*
X215397411Y-100516266D02*
X215397411Y-100854933D01*
X214931744Y-100050600D02*
X215820744Y-99838933D01*
X215820744Y-99838933D02*
X215185744Y-99669600D01*
X215185744Y-99669600D02*
X215820744Y-99500266D01*
X215820744Y-99500266D02*
X214931744Y-99288600D01*
X215820744Y-98441933D02*
X215397411Y-98738266D01*
X215820744Y-98949933D02*
X214931744Y-98949933D01*
X214931744Y-98949933D02*
X214931744Y-98611266D01*
X214931744Y-98611266D02*
X214974077Y-98526600D01*
X214974077Y-98526600D02*
X215016411Y-98484266D01*
X215016411Y-98484266D02*
X215101077Y-98441933D01*
X215101077Y-98441933D02*
X215228077Y-98441933D01*
X215228077Y-98441933D02*
X215312744Y-98484266D01*
X215312744Y-98484266D02*
X215355077Y-98526600D01*
X215355077Y-98526600D02*
X215397411Y-98611266D01*
X215397411Y-98611266D02*
X215397411Y-98949933D01*
D10*
X186182000Y-117748340D02*
X186145714Y-117784626D01*
X186145714Y-117784626D02*
X186036857Y-117820911D01*
X186036857Y-117820911D02*
X185964285Y-117820911D01*
X185964285Y-117820911D02*
X185855428Y-117784626D01*
X185855428Y-117784626D02*
X185782857Y-117712054D01*
X185782857Y-117712054D02*
X185746571Y-117639483D01*
X185746571Y-117639483D02*
X185710285Y-117494340D01*
X185710285Y-117494340D02*
X185710285Y-117385483D01*
X185710285Y-117385483D02*
X185746571Y-117240340D01*
X185746571Y-117240340D02*
X185782857Y-117167768D01*
X185782857Y-117167768D02*
X185855428Y-117095197D01*
X185855428Y-117095197D02*
X185964285Y-117058911D01*
X185964285Y-117058911D02*
X186036857Y-117058911D01*
X186036857Y-117058911D02*
X186145714Y-117095197D01*
X186145714Y-117095197D02*
X186182000Y-117131483D01*
X186617428Y-117385483D02*
X186544857Y-117349197D01*
X186544857Y-117349197D02*
X186508571Y-117312911D01*
X186508571Y-117312911D02*
X186472285Y-117240340D01*
X186472285Y-117240340D02*
X186472285Y-117204054D01*
X186472285Y-117204054D02*
X186508571Y-117131483D01*
X186508571Y-117131483D02*
X186544857Y-117095197D01*
X186544857Y-117095197D02*
X186617428Y-117058911D01*
X186617428Y-117058911D02*
X186762571Y-117058911D01*
X186762571Y-117058911D02*
X186835143Y-117095197D01*
X186835143Y-117095197D02*
X186871428Y-117131483D01*
X186871428Y-117131483D02*
X186907714Y-117204054D01*
X186907714Y-117204054D02*
X186907714Y-117240340D01*
X186907714Y-117240340D02*
X186871428Y-117312911D01*
X186871428Y-117312911D02*
X186835143Y-117349197D01*
X186835143Y-117349197D02*
X186762571Y-117385483D01*
X186762571Y-117385483D02*
X186617428Y-117385483D01*
X186617428Y-117385483D02*
X186544857Y-117421768D01*
X186544857Y-117421768D02*
X186508571Y-117458054D01*
X186508571Y-117458054D02*
X186472285Y-117530626D01*
X186472285Y-117530626D02*
X186472285Y-117675768D01*
X186472285Y-117675768D02*
X186508571Y-117748340D01*
X186508571Y-117748340D02*
X186544857Y-117784626D01*
X186544857Y-117784626D02*
X186617428Y-117820911D01*
X186617428Y-117820911D02*
X186762571Y-117820911D01*
X186762571Y-117820911D02*
X186835143Y-117784626D01*
X186835143Y-117784626D02*
X186871428Y-117748340D01*
X186871428Y-117748340D02*
X186907714Y-117675768D01*
X186907714Y-117675768D02*
X186907714Y-117530626D01*
X186907714Y-117530626D02*
X186871428Y-117458054D01*
X186871428Y-117458054D02*
X186835143Y-117421768D01*
X186835143Y-117421768D02*
X186762571Y-117385483D01*
X175844200Y-105149940D02*
X175807914Y-105186226D01*
X175807914Y-105186226D02*
X175699057Y-105222511D01*
X175699057Y-105222511D02*
X175626485Y-105222511D01*
X175626485Y-105222511D02*
X175517628Y-105186226D01*
X175517628Y-105186226D02*
X175445057Y-105113654D01*
X175445057Y-105113654D02*
X175408771Y-105041083D01*
X175408771Y-105041083D02*
X175372485Y-104895940D01*
X175372485Y-104895940D02*
X175372485Y-104787083D01*
X175372485Y-104787083D02*
X175408771Y-104641940D01*
X175408771Y-104641940D02*
X175445057Y-104569368D01*
X175445057Y-104569368D02*
X175517628Y-104496797D01*
X175517628Y-104496797D02*
X175626485Y-104460511D01*
X175626485Y-104460511D02*
X175699057Y-104460511D01*
X175699057Y-104460511D02*
X175807914Y-104496797D01*
X175807914Y-104496797D02*
X175844200Y-104533083D01*
X176134485Y-104533083D02*
X176170771Y-104496797D01*
X176170771Y-104496797D02*
X176243343Y-104460511D01*
X176243343Y-104460511D02*
X176424771Y-104460511D01*
X176424771Y-104460511D02*
X176497343Y-104496797D01*
X176497343Y-104496797D02*
X176533628Y-104533083D01*
X176533628Y-104533083D02*
X176569914Y-104605654D01*
X176569914Y-104605654D02*
X176569914Y-104678226D01*
X176569914Y-104678226D02*
X176533628Y-104787083D01*
X176533628Y-104787083D02*
X176098200Y-105222511D01*
X176098200Y-105222511D02*
X176569914Y-105222511D01*
X176983571Y-120868911D02*
X176983571Y-120106911D01*
X176983571Y-120106911D02*
X177165000Y-120106911D01*
X177165000Y-120106911D02*
X177273857Y-120143197D01*
X177273857Y-120143197D02*
X177346428Y-120215768D01*
X177346428Y-120215768D02*
X177382714Y-120288340D01*
X177382714Y-120288340D02*
X177419000Y-120433483D01*
X177419000Y-120433483D02*
X177419000Y-120542340D01*
X177419000Y-120542340D02*
X177382714Y-120687483D01*
X177382714Y-120687483D02*
X177346428Y-120760054D01*
X177346428Y-120760054D02*
X177273857Y-120832626D01*
X177273857Y-120832626D02*
X177165000Y-120868911D01*
X177165000Y-120868911D02*
X176983571Y-120868911D01*
X178072143Y-120106911D02*
X177927000Y-120106911D01*
X177927000Y-120106911D02*
X177854428Y-120143197D01*
X177854428Y-120143197D02*
X177818143Y-120179483D01*
X177818143Y-120179483D02*
X177745571Y-120288340D01*
X177745571Y-120288340D02*
X177709285Y-120433483D01*
X177709285Y-120433483D02*
X177709285Y-120723768D01*
X177709285Y-120723768D02*
X177745571Y-120796340D01*
X177745571Y-120796340D02*
X177781857Y-120832626D01*
X177781857Y-120832626D02*
X177854428Y-120868911D01*
X177854428Y-120868911D02*
X177999571Y-120868911D01*
X177999571Y-120868911D02*
X178072143Y-120832626D01*
X178072143Y-120832626D02*
X178108428Y-120796340D01*
X178108428Y-120796340D02*
X178144714Y-120723768D01*
X178144714Y-120723768D02*
X178144714Y-120542340D01*
X178144714Y-120542340D02*
X178108428Y-120469768D01*
X178108428Y-120469768D02*
X178072143Y-120433483D01*
X178072143Y-120433483D02*
X177999571Y-120397197D01*
X177999571Y-120397197D02*
X177854428Y-120397197D01*
X177854428Y-120397197D02*
X177781857Y-120433483D01*
X177781857Y-120433483D02*
X177745571Y-120469768D01*
X177745571Y-120469768D02*
X177709285Y-120542340D01*
X175514000Y-107406911D02*
X175514000Y-107951197D01*
X175514000Y-107951197D02*
X175477715Y-108060054D01*
X175477715Y-108060054D02*
X175405143Y-108132626D01*
X175405143Y-108132626D02*
X175296286Y-108168911D01*
X175296286Y-108168911D02*
X175223715Y-108168911D01*
X175804286Y-107406911D02*
X176276000Y-107406911D01*
X176276000Y-107406911D02*
X176022000Y-107697197D01*
X176022000Y-107697197D02*
X176130857Y-107697197D01*
X176130857Y-107697197D02*
X176203429Y-107733483D01*
X176203429Y-107733483D02*
X176239714Y-107769768D01*
X176239714Y-107769768D02*
X176276000Y-107842340D01*
X176276000Y-107842340D02*
X176276000Y-108023768D01*
X176276000Y-108023768D02*
X176239714Y-108096340D01*
X176239714Y-108096340D02*
X176203429Y-108132626D01*
X176203429Y-108132626D02*
X176130857Y-108168911D01*
X176130857Y-108168911D02*
X175913143Y-108168911D01*
X175913143Y-108168911D02*
X175840571Y-108132626D01*
X175840571Y-108132626D02*
X175804286Y-108096340D01*
X195703371Y-119243311D02*
X195703371Y-118481311D01*
X195703371Y-118481311D02*
X195884800Y-118481311D01*
X195884800Y-118481311D02*
X195993657Y-118517597D01*
X195993657Y-118517597D02*
X196066228Y-118590168D01*
X196066228Y-118590168D02*
X196102514Y-118662740D01*
X196102514Y-118662740D02*
X196138800Y-118807883D01*
X196138800Y-118807883D02*
X196138800Y-118916740D01*
X196138800Y-118916740D02*
X196102514Y-119061883D01*
X196102514Y-119061883D02*
X196066228Y-119134454D01*
X196066228Y-119134454D02*
X195993657Y-119207026D01*
X195993657Y-119207026D02*
X195884800Y-119243311D01*
X195884800Y-119243311D02*
X195703371Y-119243311D01*
X196392800Y-118481311D02*
X196900800Y-118481311D01*
X196900800Y-118481311D02*
X196574228Y-119243311D01*
X207459943Y-122926311D02*
X207205943Y-122563454D01*
X207024514Y-122926311D02*
X207024514Y-122164311D01*
X207024514Y-122164311D02*
X207314800Y-122164311D01*
X207314800Y-122164311D02*
X207387371Y-122200597D01*
X207387371Y-122200597D02*
X207423657Y-122236883D01*
X207423657Y-122236883D02*
X207459943Y-122309454D01*
X207459943Y-122309454D02*
X207459943Y-122418311D01*
X207459943Y-122418311D02*
X207423657Y-122490883D01*
X207423657Y-122490883D02*
X207387371Y-122527168D01*
X207387371Y-122527168D02*
X207314800Y-122563454D01*
X207314800Y-122563454D02*
X207024514Y-122563454D01*
X208185657Y-122926311D02*
X207750228Y-122926311D01*
X207967943Y-122926311D02*
X207967943Y-122164311D01*
X207967943Y-122164311D02*
X207895371Y-122273168D01*
X207895371Y-122273168D02*
X207822800Y-122345740D01*
X207822800Y-122345740D02*
X207750228Y-122382026D01*
X208657371Y-122164311D02*
X208729942Y-122164311D01*
X208729942Y-122164311D02*
X208802514Y-122200597D01*
X208802514Y-122200597D02*
X208838800Y-122236883D01*
X208838800Y-122236883D02*
X208875085Y-122309454D01*
X208875085Y-122309454D02*
X208911371Y-122454597D01*
X208911371Y-122454597D02*
X208911371Y-122636026D01*
X208911371Y-122636026D02*
X208875085Y-122781168D01*
X208875085Y-122781168D02*
X208838800Y-122853740D01*
X208838800Y-122853740D02*
X208802514Y-122890026D01*
X208802514Y-122890026D02*
X208729942Y-122926311D01*
X208729942Y-122926311D02*
X208657371Y-122926311D01*
X208657371Y-122926311D02*
X208584800Y-122890026D01*
X208584800Y-122890026D02*
X208548514Y-122853740D01*
X208548514Y-122853740D02*
X208512228Y-122781168D01*
X208512228Y-122781168D02*
X208475942Y-122636026D01*
X208475942Y-122636026D02*
X208475942Y-122454597D01*
X208475942Y-122454597D02*
X208512228Y-122309454D01*
X208512228Y-122309454D02*
X208548514Y-122236883D01*
X208548514Y-122236883D02*
X208584800Y-122200597D01*
X208584800Y-122200597D02*
X208657371Y-122164311D01*
X195173600Y-105454740D02*
X195137314Y-105491026D01*
X195137314Y-105491026D02*
X195028457Y-105527311D01*
X195028457Y-105527311D02*
X194955885Y-105527311D01*
X194955885Y-105527311D02*
X194847028Y-105491026D01*
X194847028Y-105491026D02*
X194774457Y-105418454D01*
X194774457Y-105418454D02*
X194738171Y-105345883D01*
X194738171Y-105345883D02*
X194701885Y-105200740D01*
X194701885Y-105200740D02*
X194701885Y-105091883D01*
X194701885Y-105091883D02*
X194738171Y-104946740D01*
X194738171Y-104946740D02*
X194774457Y-104874168D01*
X194774457Y-104874168D02*
X194847028Y-104801597D01*
X194847028Y-104801597D02*
X194955885Y-104765311D01*
X194955885Y-104765311D02*
X195028457Y-104765311D01*
X195028457Y-104765311D02*
X195137314Y-104801597D01*
X195137314Y-104801597D02*
X195173600Y-104837883D01*
X195826743Y-104765311D02*
X195681600Y-104765311D01*
X195681600Y-104765311D02*
X195609028Y-104801597D01*
X195609028Y-104801597D02*
X195572743Y-104837883D01*
X195572743Y-104837883D02*
X195500171Y-104946740D01*
X195500171Y-104946740D02*
X195463885Y-105091883D01*
X195463885Y-105091883D02*
X195463885Y-105382168D01*
X195463885Y-105382168D02*
X195500171Y-105454740D01*
X195500171Y-105454740D02*
X195536457Y-105491026D01*
X195536457Y-105491026D02*
X195609028Y-105527311D01*
X195609028Y-105527311D02*
X195754171Y-105527311D01*
X195754171Y-105527311D02*
X195826743Y-105491026D01*
X195826743Y-105491026D02*
X195863028Y-105454740D01*
X195863028Y-105454740D02*
X195899314Y-105382168D01*
X195899314Y-105382168D02*
X195899314Y-105200740D01*
X195899314Y-105200740D02*
X195863028Y-105128168D01*
X195863028Y-105128168D02*
X195826743Y-105091883D01*
X195826743Y-105091883D02*
X195754171Y-105055597D01*
X195754171Y-105055597D02*
X195609028Y-105055597D01*
X195609028Y-105055597D02*
X195536457Y-105091883D01*
X195536457Y-105091883D02*
X195500171Y-105128168D01*
X195500171Y-105128168D02*
X195463885Y-105200740D01*
X187477400Y-97145311D02*
X187223400Y-96782454D01*
X187041971Y-97145311D02*
X187041971Y-96383311D01*
X187041971Y-96383311D02*
X187332257Y-96383311D01*
X187332257Y-96383311D02*
X187404828Y-96419597D01*
X187404828Y-96419597D02*
X187441114Y-96455883D01*
X187441114Y-96455883D02*
X187477400Y-96528454D01*
X187477400Y-96528454D02*
X187477400Y-96637311D01*
X187477400Y-96637311D02*
X187441114Y-96709883D01*
X187441114Y-96709883D02*
X187404828Y-96746168D01*
X187404828Y-96746168D02*
X187332257Y-96782454D01*
X187332257Y-96782454D02*
X187041971Y-96782454D01*
X187767685Y-96455883D02*
X187803971Y-96419597D01*
X187803971Y-96419597D02*
X187876543Y-96383311D01*
X187876543Y-96383311D02*
X188057971Y-96383311D01*
X188057971Y-96383311D02*
X188130543Y-96419597D01*
X188130543Y-96419597D02*
X188166828Y-96455883D01*
X188166828Y-96455883D02*
X188203114Y-96528454D01*
X188203114Y-96528454D02*
X188203114Y-96601026D01*
X188203114Y-96601026D02*
X188166828Y-96709883D01*
X188166828Y-96709883D02*
X187731400Y-97145311D01*
X187731400Y-97145311D02*
X188203114Y-97145311D01*
X171341143Y-121249911D02*
X171087143Y-120887054D01*
X170905714Y-121249911D02*
X170905714Y-120487911D01*
X170905714Y-120487911D02*
X171196000Y-120487911D01*
X171196000Y-120487911D02*
X171268571Y-120524197D01*
X171268571Y-120524197D02*
X171304857Y-120560483D01*
X171304857Y-120560483D02*
X171341143Y-120633054D01*
X171341143Y-120633054D02*
X171341143Y-120741911D01*
X171341143Y-120741911D02*
X171304857Y-120814483D01*
X171304857Y-120814483D02*
X171268571Y-120850768D01*
X171268571Y-120850768D02*
X171196000Y-120887054D01*
X171196000Y-120887054D02*
X170905714Y-120887054D01*
X172066857Y-121249911D02*
X171631428Y-121249911D01*
X171849143Y-121249911D02*
X171849143Y-120487911D01*
X171849143Y-120487911D02*
X171776571Y-120596768D01*
X171776571Y-120596768D02*
X171704000Y-120669340D01*
X171704000Y-120669340D02*
X171631428Y-120705626D01*
X172792571Y-121249911D02*
X172357142Y-121249911D01*
X172574857Y-121249911D02*
X172574857Y-120487911D01*
X172574857Y-120487911D02*
X172502285Y-120596768D01*
X172502285Y-120596768D02*
X172429714Y-120669340D01*
X172429714Y-120669340D02*
X172357142Y-120705626D01*
X191617600Y-97145311D02*
X191363600Y-96782454D01*
X191182171Y-97145311D02*
X191182171Y-96383311D01*
X191182171Y-96383311D02*
X191472457Y-96383311D01*
X191472457Y-96383311D02*
X191545028Y-96419597D01*
X191545028Y-96419597D02*
X191581314Y-96455883D01*
X191581314Y-96455883D02*
X191617600Y-96528454D01*
X191617600Y-96528454D02*
X191617600Y-96637311D01*
X191617600Y-96637311D02*
X191581314Y-96709883D01*
X191581314Y-96709883D02*
X191545028Y-96746168D01*
X191545028Y-96746168D02*
X191472457Y-96782454D01*
X191472457Y-96782454D02*
X191182171Y-96782454D01*
X191871600Y-96383311D02*
X192343314Y-96383311D01*
X192343314Y-96383311D02*
X192089314Y-96673597D01*
X192089314Y-96673597D02*
X192198171Y-96673597D01*
X192198171Y-96673597D02*
X192270743Y-96709883D01*
X192270743Y-96709883D02*
X192307028Y-96746168D01*
X192307028Y-96746168D02*
X192343314Y-96818740D01*
X192343314Y-96818740D02*
X192343314Y-97000168D01*
X192343314Y-97000168D02*
X192307028Y-97072740D01*
X192307028Y-97072740D02*
X192270743Y-97109026D01*
X192270743Y-97109026D02*
X192198171Y-97145311D01*
X192198171Y-97145311D02*
X191980457Y-97145311D01*
X191980457Y-97145311D02*
X191907885Y-97109026D01*
X191907885Y-97109026D02*
X191871600Y-97072740D01*
X187880171Y-114391911D02*
X187880171Y-113629911D01*
X187880171Y-113629911D02*
X188061600Y-113629911D01*
X188061600Y-113629911D02*
X188170457Y-113666197D01*
X188170457Y-113666197D02*
X188243028Y-113738768D01*
X188243028Y-113738768D02*
X188279314Y-113811340D01*
X188279314Y-113811340D02*
X188315600Y-113956483D01*
X188315600Y-113956483D02*
X188315600Y-114065340D01*
X188315600Y-114065340D02*
X188279314Y-114210483D01*
X188279314Y-114210483D02*
X188243028Y-114283054D01*
X188243028Y-114283054D02*
X188170457Y-114355626D01*
X188170457Y-114355626D02*
X188061600Y-114391911D01*
X188061600Y-114391911D02*
X187880171Y-114391911D01*
X188569600Y-113629911D02*
X189041314Y-113629911D01*
X189041314Y-113629911D02*
X188787314Y-113920197D01*
X188787314Y-113920197D02*
X188896171Y-113920197D01*
X188896171Y-113920197D02*
X188968743Y-113956483D01*
X188968743Y-113956483D02*
X189005028Y-113992768D01*
X189005028Y-113992768D02*
X189041314Y-114065340D01*
X189041314Y-114065340D02*
X189041314Y-114246768D01*
X189041314Y-114246768D02*
X189005028Y-114319340D01*
X189005028Y-114319340D02*
X188968743Y-114355626D01*
X188968743Y-114355626D02*
X188896171Y-114391911D01*
X188896171Y-114391911D02*
X188678457Y-114391911D01*
X188678457Y-114391911D02*
X188605885Y-114355626D01*
X188605885Y-114355626D02*
X188569600Y-114319340D01*
X198491311Y-97434399D02*
X198128454Y-97688399D01*
X198491311Y-97869828D02*
X197729311Y-97869828D01*
X197729311Y-97869828D02*
X197729311Y-97579542D01*
X197729311Y-97579542D02*
X197765597Y-97506971D01*
X197765597Y-97506971D02*
X197801883Y-97470685D01*
X197801883Y-97470685D02*
X197874454Y-97434399D01*
X197874454Y-97434399D02*
X197983311Y-97434399D01*
X197983311Y-97434399D02*
X198055883Y-97470685D01*
X198055883Y-97470685D02*
X198092168Y-97506971D01*
X198092168Y-97506971D02*
X198128454Y-97579542D01*
X198128454Y-97579542D02*
X198128454Y-97869828D01*
X197983311Y-96781257D02*
X198491311Y-96781257D01*
X197693026Y-96962685D02*
X198237311Y-97144114D01*
X198237311Y-97144114D02*
X198237311Y-96672399D01*
X187880171Y-110861311D02*
X187880171Y-110099311D01*
X187880171Y-110099311D02*
X188061600Y-110099311D01*
X188061600Y-110099311D02*
X188170457Y-110135597D01*
X188170457Y-110135597D02*
X188243028Y-110208168D01*
X188243028Y-110208168D02*
X188279314Y-110280740D01*
X188279314Y-110280740D02*
X188315600Y-110425883D01*
X188315600Y-110425883D02*
X188315600Y-110534740D01*
X188315600Y-110534740D02*
X188279314Y-110679883D01*
X188279314Y-110679883D02*
X188243028Y-110752454D01*
X188243028Y-110752454D02*
X188170457Y-110825026D01*
X188170457Y-110825026D02*
X188061600Y-110861311D01*
X188061600Y-110861311D02*
X187880171Y-110861311D01*
X188605885Y-110171883D02*
X188642171Y-110135597D01*
X188642171Y-110135597D02*
X188714743Y-110099311D01*
X188714743Y-110099311D02*
X188896171Y-110099311D01*
X188896171Y-110099311D02*
X188968743Y-110135597D01*
X188968743Y-110135597D02*
X189005028Y-110171883D01*
X189005028Y-110171883D02*
X189041314Y-110244454D01*
X189041314Y-110244454D02*
X189041314Y-110317026D01*
X189041314Y-110317026D02*
X189005028Y-110425883D01*
X189005028Y-110425883D02*
X188569600Y-110861311D01*
X188569600Y-110861311D02*
X189041314Y-110861311D01*
X199339200Y-102889340D02*
X199302914Y-102925626D01*
X199302914Y-102925626D02*
X199194057Y-102961911D01*
X199194057Y-102961911D02*
X199121485Y-102961911D01*
X199121485Y-102961911D02*
X199012628Y-102925626D01*
X199012628Y-102925626D02*
X198940057Y-102853054D01*
X198940057Y-102853054D02*
X198903771Y-102780483D01*
X198903771Y-102780483D02*
X198867485Y-102635340D01*
X198867485Y-102635340D02*
X198867485Y-102526483D01*
X198867485Y-102526483D02*
X198903771Y-102381340D01*
X198903771Y-102381340D02*
X198940057Y-102308768D01*
X198940057Y-102308768D02*
X199012628Y-102236197D01*
X199012628Y-102236197D02*
X199121485Y-102199911D01*
X199121485Y-102199911D02*
X199194057Y-102199911D01*
X199194057Y-102199911D02*
X199302914Y-102236197D01*
X199302914Y-102236197D02*
X199339200Y-102272483D01*
X200028628Y-102199911D02*
X199665771Y-102199911D01*
X199665771Y-102199911D02*
X199629485Y-102562768D01*
X199629485Y-102562768D02*
X199665771Y-102526483D01*
X199665771Y-102526483D02*
X199738343Y-102490197D01*
X199738343Y-102490197D02*
X199919771Y-102490197D01*
X199919771Y-102490197D02*
X199992343Y-102526483D01*
X199992343Y-102526483D02*
X200028628Y-102562768D01*
X200028628Y-102562768D02*
X200064914Y-102635340D01*
X200064914Y-102635340D02*
X200064914Y-102816768D01*
X200064914Y-102816768D02*
X200028628Y-102889340D01*
X200028628Y-102889340D02*
X199992343Y-102925626D01*
X199992343Y-102925626D02*
X199919771Y-102961911D01*
X199919771Y-102961911D02*
X199738343Y-102961911D01*
X199738343Y-102961911D02*
X199665771Y-102925626D01*
X199665771Y-102925626D02*
X199629485Y-102889340D01*
X205790800Y-122900911D02*
X205536800Y-122538054D01*
X205355371Y-122900911D02*
X205355371Y-122138911D01*
X205355371Y-122138911D02*
X205645657Y-122138911D01*
X205645657Y-122138911D02*
X205718228Y-122175197D01*
X205718228Y-122175197D02*
X205754514Y-122211483D01*
X205754514Y-122211483D02*
X205790800Y-122284054D01*
X205790800Y-122284054D02*
X205790800Y-122392911D01*
X205790800Y-122392911D02*
X205754514Y-122465483D01*
X205754514Y-122465483D02*
X205718228Y-122501768D01*
X205718228Y-122501768D02*
X205645657Y-122538054D01*
X205645657Y-122538054D02*
X205355371Y-122538054D01*
X206153657Y-122900911D02*
X206298800Y-122900911D01*
X206298800Y-122900911D02*
X206371371Y-122864626D01*
X206371371Y-122864626D02*
X206407657Y-122828340D01*
X206407657Y-122828340D02*
X206480228Y-122719483D01*
X206480228Y-122719483D02*
X206516514Y-122574340D01*
X206516514Y-122574340D02*
X206516514Y-122284054D01*
X206516514Y-122284054D02*
X206480228Y-122211483D01*
X206480228Y-122211483D02*
X206443943Y-122175197D01*
X206443943Y-122175197D02*
X206371371Y-122138911D01*
X206371371Y-122138911D02*
X206226228Y-122138911D01*
X206226228Y-122138911D02*
X206153657Y-122175197D01*
X206153657Y-122175197D02*
X206117371Y-122211483D01*
X206117371Y-122211483D02*
X206081085Y-122284054D01*
X206081085Y-122284054D02*
X206081085Y-122465483D01*
X206081085Y-122465483D02*
X206117371Y-122538054D01*
X206117371Y-122538054D02*
X206153657Y-122574340D01*
X206153657Y-122574340D02*
X206226228Y-122610626D01*
X206226228Y-122610626D02*
X206371371Y-122610626D01*
X206371371Y-122610626D02*
X206443943Y-122574340D01*
X206443943Y-122574340D02*
X206480228Y-122538054D01*
X206480228Y-122538054D02*
X206516514Y-122465483D01*
X190935428Y-122043311D02*
X190935428Y-122660168D01*
X190935428Y-122660168D02*
X190971714Y-122732740D01*
X190971714Y-122732740D02*
X191008000Y-122769026D01*
X191008000Y-122769026D02*
X191080571Y-122805311D01*
X191080571Y-122805311D02*
X191225714Y-122805311D01*
X191225714Y-122805311D02*
X191298285Y-122769026D01*
X191298285Y-122769026D02*
X191334571Y-122732740D01*
X191334571Y-122732740D02*
X191370857Y-122660168D01*
X191370857Y-122660168D02*
X191370857Y-122043311D01*
X191661143Y-122043311D02*
X192132857Y-122043311D01*
X192132857Y-122043311D02*
X191878857Y-122333597D01*
X191878857Y-122333597D02*
X191987714Y-122333597D01*
X191987714Y-122333597D02*
X192060286Y-122369883D01*
X192060286Y-122369883D02*
X192096571Y-122406168D01*
X192096571Y-122406168D02*
X192132857Y-122478740D01*
X192132857Y-122478740D02*
X192132857Y-122660168D01*
X192132857Y-122660168D02*
X192096571Y-122732740D01*
X192096571Y-122732740D02*
X192060286Y-122769026D01*
X192060286Y-122769026D02*
X191987714Y-122805311D01*
X191987714Y-122805311D02*
X191770000Y-122805311D01*
X191770000Y-122805311D02*
X191697428Y-122769026D01*
X191697428Y-122769026D02*
X191661143Y-122732740D01*
X194300311Y-105714799D02*
X193937454Y-105968799D01*
X194300311Y-106150228D02*
X193538311Y-106150228D01*
X193538311Y-106150228D02*
X193538311Y-105859942D01*
X193538311Y-105859942D02*
X193574597Y-105787371D01*
X193574597Y-105787371D02*
X193610883Y-105751085D01*
X193610883Y-105751085D02*
X193683454Y-105714799D01*
X193683454Y-105714799D02*
X193792311Y-105714799D01*
X193792311Y-105714799D02*
X193864883Y-105751085D01*
X193864883Y-105751085D02*
X193901168Y-105787371D01*
X193901168Y-105787371D02*
X193937454Y-105859942D01*
X193937454Y-105859942D02*
X193937454Y-106150228D01*
X193538311Y-105460799D02*
X193538311Y-104952799D01*
X193538311Y-104952799D02*
X194300311Y-105279371D01*
X193157311Y-105714799D02*
X192794454Y-105968799D01*
X193157311Y-106150228D02*
X192395311Y-106150228D01*
X192395311Y-106150228D02*
X192395311Y-105859942D01*
X192395311Y-105859942D02*
X192431597Y-105787371D01*
X192431597Y-105787371D02*
X192467883Y-105751085D01*
X192467883Y-105751085D02*
X192540454Y-105714799D01*
X192540454Y-105714799D02*
X192649311Y-105714799D01*
X192649311Y-105714799D02*
X192721883Y-105751085D01*
X192721883Y-105751085D02*
X192758168Y-105787371D01*
X192758168Y-105787371D02*
X192794454Y-105859942D01*
X192794454Y-105859942D02*
X192794454Y-106150228D01*
X192395311Y-105061657D02*
X192395311Y-105206799D01*
X192395311Y-105206799D02*
X192431597Y-105279371D01*
X192431597Y-105279371D02*
X192467883Y-105315657D01*
X192467883Y-105315657D02*
X192576740Y-105388228D01*
X192576740Y-105388228D02*
X192721883Y-105424514D01*
X192721883Y-105424514D02*
X193012168Y-105424514D01*
X193012168Y-105424514D02*
X193084740Y-105388228D01*
X193084740Y-105388228D02*
X193121026Y-105351942D01*
X193121026Y-105351942D02*
X193157311Y-105279371D01*
X193157311Y-105279371D02*
X193157311Y-105134228D01*
X193157311Y-105134228D02*
X193121026Y-105061657D01*
X193121026Y-105061657D02*
X193084740Y-105025371D01*
X193084740Y-105025371D02*
X193012168Y-104989085D01*
X193012168Y-104989085D02*
X192830740Y-104989085D01*
X192830740Y-104989085D02*
X192758168Y-105025371D01*
X192758168Y-105025371D02*
X192721883Y-105061657D01*
X192721883Y-105061657D02*
X192685597Y-105134228D01*
X192685597Y-105134228D02*
X192685597Y-105279371D01*
X192685597Y-105279371D02*
X192721883Y-105351942D01*
X192721883Y-105351942D02*
X192758168Y-105388228D01*
X192758168Y-105388228D02*
X192830740Y-105424514D01*
X211781571Y-121986511D02*
X211781571Y-121224511D01*
X211781571Y-121224511D02*
X211963000Y-121224511D01*
X211963000Y-121224511D02*
X212071857Y-121260797D01*
X212071857Y-121260797D02*
X212144428Y-121333368D01*
X212144428Y-121333368D02*
X212180714Y-121405940D01*
X212180714Y-121405940D02*
X212217000Y-121551083D01*
X212217000Y-121551083D02*
X212217000Y-121659940D01*
X212217000Y-121659940D02*
X212180714Y-121805083D01*
X212180714Y-121805083D02*
X212144428Y-121877654D01*
X212144428Y-121877654D02*
X212071857Y-121950226D01*
X212071857Y-121950226D02*
X211963000Y-121986511D01*
X211963000Y-121986511D02*
X211781571Y-121986511D01*
X212906428Y-121224511D02*
X212543571Y-121224511D01*
X212543571Y-121224511D02*
X212507285Y-121587368D01*
X212507285Y-121587368D02*
X212543571Y-121551083D01*
X212543571Y-121551083D02*
X212616143Y-121514797D01*
X212616143Y-121514797D02*
X212797571Y-121514797D01*
X212797571Y-121514797D02*
X212870143Y-121551083D01*
X212870143Y-121551083D02*
X212906428Y-121587368D01*
X212906428Y-121587368D02*
X212942714Y-121659940D01*
X212942714Y-121659940D02*
X212942714Y-121841368D01*
X212942714Y-121841368D02*
X212906428Y-121913940D01*
X212906428Y-121913940D02*
X212870143Y-121950226D01*
X212870143Y-121950226D02*
X212797571Y-121986511D01*
X212797571Y-121986511D02*
X212616143Y-121986511D01*
X212616143Y-121986511D02*
X212543571Y-121950226D01*
X212543571Y-121950226D02*
X212507285Y-121913940D01*
D12*
X215778411Y-120721966D02*
X215820744Y-120594966D01*
X215820744Y-120594966D02*
X215820744Y-120383300D01*
X215820744Y-120383300D02*
X215778411Y-120298633D01*
X215778411Y-120298633D02*
X215736077Y-120256300D01*
X215736077Y-120256300D02*
X215651411Y-120213966D01*
X215651411Y-120213966D02*
X215566744Y-120213966D01*
X215566744Y-120213966D02*
X215482077Y-120256300D01*
X215482077Y-120256300D02*
X215439744Y-120298633D01*
X215439744Y-120298633D02*
X215397411Y-120383300D01*
X215397411Y-120383300D02*
X215355077Y-120552633D01*
X215355077Y-120552633D02*
X215312744Y-120637300D01*
X215312744Y-120637300D02*
X215270411Y-120679633D01*
X215270411Y-120679633D02*
X215185744Y-120721966D01*
X215185744Y-120721966D02*
X215101077Y-120721966D01*
X215101077Y-120721966D02*
X215016411Y-120679633D01*
X215016411Y-120679633D02*
X214974077Y-120637300D01*
X214974077Y-120637300D02*
X214931744Y-120552633D01*
X214931744Y-120552633D02*
X214931744Y-120340966D01*
X214931744Y-120340966D02*
X214974077Y-120213966D01*
X215820744Y-119832966D02*
X214931744Y-119832966D01*
X214974077Y-118943966D02*
X214931744Y-119028633D01*
X214931744Y-119028633D02*
X214931744Y-119155633D01*
X214931744Y-119155633D02*
X214974077Y-119282633D01*
X214974077Y-119282633D02*
X215058744Y-119367300D01*
X215058744Y-119367300D02*
X215143411Y-119409633D01*
X215143411Y-119409633D02*
X215312744Y-119451966D01*
X215312744Y-119451966D02*
X215439744Y-119451966D01*
X215439744Y-119451966D02*
X215609077Y-119409633D01*
X215609077Y-119409633D02*
X215693744Y-119367300D01*
X215693744Y-119367300D02*
X215778411Y-119282633D01*
X215778411Y-119282633D02*
X215820744Y-119155633D01*
X215820744Y-119155633D02*
X215820744Y-119070966D01*
X215820744Y-119070966D02*
X215778411Y-118943966D01*
X215778411Y-118943966D02*
X215736077Y-118901633D01*
X215736077Y-118901633D02*
X215439744Y-118901633D01*
X215439744Y-118901633D02*
X215439744Y-119070966D01*
D10*
X188192228Y-106692083D02*
X188119657Y-106655797D01*
X188119657Y-106655797D02*
X188047085Y-106583226D01*
X188047085Y-106583226D02*
X187938228Y-106474368D01*
X187938228Y-106474368D02*
X187865657Y-106438083D01*
X187865657Y-106438083D02*
X187793085Y-106438083D01*
X187829371Y-106619511D02*
X187756800Y-106583226D01*
X187756800Y-106583226D02*
X187684228Y-106510654D01*
X187684228Y-106510654D02*
X187647942Y-106365511D01*
X187647942Y-106365511D02*
X187647942Y-106111511D01*
X187647942Y-106111511D02*
X187684228Y-105966368D01*
X187684228Y-105966368D02*
X187756800Y-105893797D01*
X187756800Y-105893797D02*
X187829371Y-105857511D01*
X187829371Y-105857511D02*
X187974514Y-105857511D01*
X187974514Y-105857511D02*
X188047085Y-105893797D01*
X188047085Y-105893797D02*
X188119657Y-105966368D01*
X188119657Y-105966368D02*
X188155942Y-106111511D01*
X188155942Y-106111511D02*
X188155942Y-106365511D01*
X188155942Y-106365511D02*
X188119657Y-106510654D01*
X188119657Y-106510654D02*
X188047085Y-106583226D01*
X188047085Y-106583226D02*
X187974514Y-106619511D01*
X187974514Y-106619511D02*
X187829371Y-106619511D01*
X188881657Y-106619511D02*
X188446228Y-106619511D01*
X188663943Y-106619511D02*
X188663943Y-105857511D01*
X188663943Y-105857511D02*
X188591371Y-105966368D01*
X188591371Y-105966368D02*
X188518800Y-106038940D01*
X188518800Y-106038940D02*
X188446228Y-106075226D01*
X183280340Y-102742999D02*
X183316626Y-102779285D01*
X183316626Y-102779285D02*
X183352911Y-102888142D01*
X183352911Y-102888142D02*
X183352911Y-102960714D01*
X183352911Y-102960714D02*
X183316626Y-103069571D01*
X183316626Y-103069571D02*
X183244054Y-103142142D01*
X183244054Y-103142142D02*
X183171483Y-103178428D01*
X183171483Y-103178428D02*
X183026340Y-103214714D01*
X183026340Y-103214714D02*
X182917483Y-103214714D01*
X182917483Y-103214714D02*
X182772340Y-103178428D01*
X182772340Y-103178428D02*
X182699768Y-103142142D01*
X182699768Y-103142142D02*
X182627197Y-103069571D01*
X182627197Y-103069571D02*
X182590911Y-102960714D01*
X182590911Y-102960714D02*
X182590911Y-102888142D01*
X182590911Y-102888142D02*
X182627197Y-102779285D01*
X182627197Y-102779285D02*
X182663483Y-102742999D01*
X182590911Y-102488999D02*
X182590911Y-102017285D01*
X182590911Y-102017285D02*
X182881197Y-102271285D01*
X182881197Y-102271285D02*
X182881197Y-102162428D01*
X182881197Y-102162428D02*
X182917483Y-102089857D01*
X182917483Y-102089857D02*
X182953768Y-102053571D01*
X182953768Y-102053571D02*
X183026340Y-102017285D01*
X183026340Y-102017285D02*
X183207768Y-102017285D01*
X183207768Y-102017285D02*
X183280340Y-102053571D01*
X183280340Y-102053571D02*
X183316626Y-102089857D01*
X183316626Y-102089857D02*
X183352911Y-102162428D01*
X183352911Y-102162428D02*
X183352911Y-102380142D01*
X183352911Y-102380142D02*
X183316626Y-102452714D01*
X183316626Y-102452714D02*
X183280340Y-102488999D01*
X196412140Y-97434399D02*
X196448426Y-97470685D01*
X196448426Y-97470685D02*
X196484711Y-97579542D01*
X196484711Y-97579542D02*
X196484711Y-97652114D01*
X196484711Y-97652114D02*
X196448426Y-97760971D01*
X196448426Y-97760971D02*
X196375854Y-97833542D01*
X196375854Y-97833542D02*
X196303283Y-97869828D01*
X196303283Y-97869828D02*
X196158140Y-97906114D01*
X196158140Y-97906114D02*
X196049283Y-97906114D01*
X196049283Y-97906114D02*
X195904140Y-97869828D01*
X195904140Y-97869828D02*
X195831568Y-97833542D01*
X195831568Y-97833542D02*
X195758997Y-97760971D01*
X195758997Y-97760971D02*
X195722711Y-97652114D01*
X195722711Y-97652114D02*
X195722711Y-97579542D01*
X195722711Y-97579542D02*
X195758997Y-97470685D01*
X195758997Y-97470685D02*
X195795283Y-97434399D01*
X196484711Y-96708685D02*
X196484711Y-97144114D01*
X196484711Y-96926399D02*
X195722711Y-96926399D01*
X195722711Y-96926399D02*
X195831568Y-96998971D01*
X195831568Y-96998971D02*
X195904140Y-97071542D01*
X195904140Y-97071542D02*
X195940426Y-97144114D01*
D13*
%TO.C,R1*%
X183691264Y-97461400D02*
X183237136Y-97461400D01*
X183691264Y-98931400D02*
X183237136Y-98931400D01*
%TO.C,D4*%
X185145400Y-115296800D02*
X179635400Y-115296800D01*
X185145400Y-118596800D02*
X179635400Y-118596800D01*
X185145400Y-118596800D02*
X185145400Y-115296800D01*
D14*
%TO.C,L1*%
X177241200Y-104851200D02*
X179273200Y-104851200D01*
X177241200Y-106883200D02*
X177241200Y-104851200D01*
X177241200Y-115112800D02*
X177241200Y-113080800D01*
X179273200Y-115112800D02*
X177241200Y-115112800D01*
X180848000Y-109982000D02*
X180340000Y-109982000D01*
X184404000Y-109982000D02*
X183896000Y-109982000D01*
X185470800Y-104851200D02*
X187502800Y-104851200D01*
X187502800Y-104851200D02*
X187502800Y-106883200D01*
X187502800Y-113080800D02*
X187502800Y-115112800D01*
X187502800Y-115112800D02*
X185470800Y-115112800D01*
X180848000Y-109982000D02*
G75*
G02*
X181864000Y-109982000I508000J0D01*
G01*
X181864000Y-109982000D02*
G75*
G02*
X182880000Y-109982000I508000J0D01*
G01*
X182880000Y-109982000D02*
G75*
G02*
X183896000Y-109982000I508000J0D01*
G01*
D13*
%TO.C,C7*%
X195156379Y-114955400D02*
X201616379Y-114955400D01*
X195156379Y-114995400D02*
X201616379Y-114995400D01*
X195157379Y-114915400D02*
X201615379Y-114915400D01*
X195158379Y-114875400D02*
X201614379Y-114875400D01*
X195160379Y-114835400D02*
X201612379Y-114835400D01*
X195162379Y-114795400D02*
X201610379Y-114795400D01*
X195165379Y-114755400D02*
X197346379Y-114755400D01*
X195168379Y-114715400D02*
X197346379Y-114715400D01*
X195172379Y-114675400D02*
X197346379Y-114675400D01*
X195176379Y-114635400D02*
X197346379Y-114635400D01*
X195181379Y-114595400D02*
X197346379Y-114595400D01*
X195186379Y-114555400D02*
X197346379Y-114555400D01*
X195191379Y-114515400D02*
X197346379Y-114515400D01*
X195198379Y-114475400D02*
X197346379Y-114475400D01*
X195204379Y-114435400D02*
X197346379Y-114435400D01*
X195212379Y-114395400D02*
X197346379Y-114395400D01*
X195219379Y-114355400D02*
X197346379Y-114355400D01*
X195227379Y-114315400D02*
X197346379Y-114315400D01*
X195236379Y-114275400D02*
X197346379Y-114275400D01*
X195246379Y-114235400D02*
X197346379Y-114235400D01*
X195255379Y-114195400D02*
X197346379Y-114195400D01*
X195266379Y-114155400D02*
X197346379Y-114155400D01*
X195277379Y-114115400D02*
X197346379Y-114115400D01*
X195288379Y-114075400D02*
X197346379Y-114075400D01*
X195300379Y-114035400D02*
X197346379Y-114035400D01*
X195313379Y-113995400D02*
X197346379Y-113995400D01*
X195326379Y-113955400D02*
X197346379Y-113955400D01*
X195339379Y-113915400D02*
X197346379Y-113915400D01*
X195354379Y-113875400D02*
X197346379Y-113875400D01*
X195369379Y-113835400D02*
X197346379Y-113835400D01*
X195384379Y-113795400D02*
X197346379Y-113795400D01*
X195400379Y-113755400D02*
X197346379Y-113755400D01*
X195417379Y-113715400D02*
X197346379Y-113715400D01*
X195434379Y-113675400D02*
X197346379Y-113675400D01*
X195452379Y-113635400D02*
X197346379Y-113635400D01*
X195471379Y-113595400D02*
X197346379Y-113595400D01*
X195490379Y-113555400D02*
X197346379Y-113555400D01*
X195510379Y-113515400D02*
X197346379Y-113515400D01*
X195531379Y-113475400D02*
X197346379Y-113475400D01*
X195552379Y-113435400D02*
X197346379Y-113435400D01*
X195574379Y-113395400D02*
X197346379Y-113395400D01*
X195597379Y-113355400D02*
X197346379Y-113355400D01*
X195621379Y-113315400D02*
X197346379Y-113315400D01*
X195645379Y-113275400D02*
X197346379Y-113275400D01*
X195670379Y-113235400D02*
X197346379Y-113235400D01*
X195696379Y-113195400D02*
X197346379Y-113195400D01*
X195723379Y-113155400D02*
X197346379Y-113155400D01*
X195750379Y-113115400D02*
X197346379Y-113115400D01*
X195779379Y-113075400D02*
X197346379Y-113075400D01*
X195809379Y-113035400D02*
X197346379Y-113035400D01*
X195839379Y-112995400D02*
X197346379Y-112995400D01*
X195870379Y-112955400D02*
X197346379Y-112955400D01*
X195903379Y-112915400D02*
X197346379Y-112915400D01*
X195936379Y-112875400D02*
X197346379Y-112875400D01*
X195971379Y-112835400D02*
X197346379Y-112835400D01*
X196007379Y-112795400D02*
X197346379Y-112795400D01*
X196044379Y-112755400D02*
X197346379Y-112755400D01*
X196082379Y-112715400D02*
X197346379Y-112715400D01*
X196122379Y-112675400D02*
X200650379Y-112675400D01*
X196163379Y-112635400D02*
X200609379Y-112635400D01*
X196205379Y-112595400D02*
X200567379Y-112595400D01*
X196249379Y-112555400D02*
X200523379Y-112555400D01*
X196295379Y-112515400D02*
X200477379Y-112515400D01*
X196342379Y-112475400D02*
X200430379Y-112475400D01*
X196391379Y-112435400D02*
X200381379Y-112435400D01*
X196443379Y-112395400D02*
X200329379Y-112395400D01*
X196496379Y-112355400D02*
X200276379Y-112355400D01*
X196552379Y-112315400D02*
X200220379Y-112315400D01*
X196611379Y-112275400D02*
X200161379Y-112275400D01*
X196672379Y-112235400D02*
X200100379Y-112235400D01*
X196737379Y-112195400D02*
X200035379Y-112195400D01*
X196805379Y-112155400D02*
X199967379Y-112155400D01*
X196877379Y-112115400D02*
X199895379Y-112115400D01*
X196954379Y-112075400D02*
X199818379Y-112075400D01*
X197036379Y-112035400D02*
X199736379Y-112035400D01*
X197125379Y-111995400D02*
X199647379Y-111995400D01*
X197221379Y-111955400D02*
X199551379Y-111955400D01*
X197328379Y-111915400D02*
X199444379Y-111915400D01*
X197447379Y-111875400D02*
X199325379Y-111875400D01*
X197585379Y-111835400D02*
X199187379Y-111835400D01*
X197753379Y-111795400D02*
X199019379Y-111795400D01*
X197984379Y-111755400D02*
X198788379Y-111755400D01*
X199426379Y-112715400D02*
X200690379Y-112715400D01*
X199426379Y-112755400D02*
X200728379Y-112755400D01*
X199426379Y-112795400D02*
X200765379Y-112795400D01*
X199426379Y-112835400D02*
X200801379Y-112835400D01*
X199426379Y-112875400D02*
X200836379Y-112875400D01*
X199426379Y-112915400D02*
X200869379Y-112915400D01*
X199426379Y-112955400D02*
X200902379Y-112955400D01*
X199426379Y-112995400D02*
X200933379Y-112995400D01*
X199426379Y-113035400D02*
X200963379Y-113035400D01*
X199426379Y-113075400D02*
X200993379Y-113075400D01*
X199426379Y-113115400D02*
X201022379Y-113115400D01*
X199426379Y-113155400D02*
X201049379Y-113155400D01*
X199426379Y-113195400D02*
X201076379Y-113195400D01*
X199426379Y-113235400D02*
X201102379Y-113235400D01*
X199426379Y-113275400D02*
X201127379Y-113275400D01*
X199426379Y-113315400D02*
X201151379Y-113315400D01*
X199426379Y-113355400D02*
X201175379Y-113355400D01*
X199426379Y-113395400D02*
X201198379Y-113395400D01*
X199426379Y-113435400D02*
X201220379Y-113435400D01*
X199426379Y-113475400D02*
X201241379Y-113475400D01*
X199426379Y-113515400D02*
X201262379Y-113515400D01*
X199426379Y-113555400D02*
X201282379Y-113555400D01*
X199426379Y-113595400D02*
X201301379Y-113595400D01*
X199426379Y-113635400D02*
X201320379Y-113635400D01*
X199426379Y-113675400D02*
X201338379Y-113675400D01*
X199426379Y-113715400D02*
X201355379Y-113715400D01*
X199426379Y-113755400D02*
X201372379Y-113755400D01*
X199426379Y-113795400D02*
X201388379Y-113795400D01*
X199426379Y-113835400D02*
X201403379Y-113835400D01*
X199426379Y-113875400D02*
X201418379Y-113875400D01*
X199426379Y-113915400D02*
X201433379Y-113915400D01*
X199426379Y-113955400D02*
X201446379Y-113955400D01*
X199426379Y-113995400D02*
X201459379Y-113995400D01*
X199426379Y-114035400D02*
X201472379Y-114035400D01*
X199426379Y-114075400D02*
X201484379Y-114075400D01*
X199426379Y-114115400D02*
X201495379Y-114115400D01*
X199426379Y-114155400D02*
X201506379Y-114155400D01*
X199426379Y-114195400D02*
X201517379Y-114195400D01*
X199426379Y-114235400D02*
X201526379Y-114235400D01*
X199426379Y-114275400D02*
X201536379Y-114275400D01*
X199426379Y-114315400D02*
X201545379Y-114315400D01*
X199426379Y-114355400D02*
X201553379Y-114355400D01*
X199426379Y-114395400D02*
X201560379Y-114395400D01*
X199426379Y-114435400D02*
X201568379Y-114435400D01*
X199426379Y-114475400D02*
X201574379Y-114475400D01*
X199426379Y-114515400D02*
X201581379Y-114515400D01*
X199426379Y-114555400D02*
X201586379Y-114555400D01*
X199426379Y-114595400D02*
X201591379Y-114595400D01*
X199426379Y-114635400D02*
X201596379Y-114635400D01*
X199426379Y-114675400D02*
X201600379Y-114675400D01*
X199426379Y-114715400D02*
X201604379Y-114715400D01*
X199426379Y-114755400D02*
X201607379Y-114755400D01*
X200471379Y-117845400D02*
X201101379Y-117845400D01*
X200786379Y-118160400D02*
X200786379Y-117530400D01*
X201656379Y-114995400D02*
G75*
G02*
X195116379Y-114995400I-3270000J0D01*
G01*
X195116379Y-114995400D02*
G75*
G02*
X201656379Y-114995400I3270000J0D01*
G01*
%TO.C,R5*%
X213349064Y-101347600D02*
X212894936Y-101347600D01*
X213349064Y-102817600D02*
X212894936Y-102817600D01*
%TO.C,U2*%
X187220800Y-99421000D02*
X191340800Y-99421000D01*
X187220800Y-99516000D02*
X187220800Y-99421000D01*
X187220800Y-104541000D02*
X187220800Y-104446000D01*
X188680800Y-104541000D02*
X187220800Y-104541000D01*
X191340800Y-99421000D02*
X191340800Y-99516000D01*
X191340800Y-104446000D02*
X191340800Y-104541000D01*
X191340800Y-104541000D02*
X189880800Y-104541000D01*
X188680800Y-104541000D02*
G75*
G02*
X189880800Y-104541000I600000J0D01*
G01*
X192120800Y-104781000D02*
X191640800Y-104781000D01*
X191880800Y-104451000D01*
X192120800Y-104781000D01*
G36*
X192120800Y-104781000D02*
G01*
X191640800Y-104781000D01*
X191880800Y-104451000D01*
X192120800Y-104781000D01*
G37*
D14*
%TO.C,J2*%
X201879200Y-103886000D02*
X210149200Y-103886000D01*
X201879200Y-118110000D02*
X201879200Y-103886000D01*
X201879200Y-118110000D02*
X210149200Y-118110000D01*
D13*
%TO.C,U1*%
X203001000Y-96793000D02*
X206761000Y-96793000D01*
X203001000Y-103613000D02*
X206761000Y-103613000D01*
X206761000Y-96793000D02*
X206761000Y-98053000D01*
X206761000Y-103613000D02*
X206761000Y-102353000D01*
X200416000Y-97838000D02*
X200086000Y-98078000D01*
X200086000Y-97598000D01*
X200416000Y-97838000D01*
G36*
X200416000Y-97838000D02*
G01*
X200086000Y-98078000D01*
X200086000Y-97598000D01*
X200416000Y-97838000D01*
G37*
D14*
%TO.C,J1*%
X168806000Y-98778000D02*
X163606000Y-98778000D01*
X174506000Y-98778000D02*
X170606000Y-98778000D01*
X174506000Y-98778000D02*
X174506000Y-107978000D01*
X174506000Y-107978000D02*
X163606000Y-107978000D01*
D13*
%TO.C,R8*%
X203150800Y-120292864D02*
X203150800Y-119838736D01*
X204620800Y-120292864D02*
X204620800Y-119838736D01*
%TO.C,C4*%
X193295600Y-102877252D02*
X193295600Y-102354748D01*
X194765600Y-102877252D02*
X194765600Y-102354748D01*
%TO.C,D1*%
X210440000Y-98534600D02*
X210440000Y-100804600D01*
X210440000Y-100804600D02*
X214325000Y-100804600D01*
X214325000Y-98534600D02*
X210440000Y-98534600D01*
%TO.C,C8*%
X185574000Y-119946052D02*
X185574000Y-119423548D01*
X187044000Y-119946052D02*
X187044000Y-119423548D01*
%TO.C,C2*%
X175292620Y-101224400D02*
X181752620Y-101224400D01*
X175292620Y-101264400D02*
X181752620Y-101264400D01*
X175293620Y-101184400D02*
X181751620Y-101184400D01*
X175294620Y-101144400D02*
X181750620Y-101144400D01*
X175296620Y-101104400D02*
X181748620Y-101104400D01*
X175298620Y-101064400D02*
X181746620Y-101064400D01*
X175301620Y-101024400D02*
X177482620Y-101024400D01*
X175304620Y-100984400D02*
X177482620Y-100984400D01*
X175308620Y-100944400D02*
X177482620Y-100944400D01*
X175312620Y-100904400D02*
X177482620Y-100904400D01*
X175317620Y-100864400D02*
X177482620Y-100864400D01*
X175322620Y-100824400D02*
X177482620Y-100824400D01*
X175327620Y-100784400D02*
X177482620Y-100784400D01*
X175334620Y-100744400D02*
X177482620Y-100744400D01*
X175340620Y-100704400D02*
X177482620Y-100704400D01*
X175348620Y-100664400D02*
X177482620Y-100664400D01*
X175355620Y-100624400D02*
X177482620Y-100624400D01*
X175363620Y-100584400D02*
X177482620Y-100584400D01*
X175372620Y-100544400D02*
X177482620Y-100544400D01*
X175382620Y-100504400D02*
X177482620Y-100504400D01*
X175391620Y-100464400D02*
X177482620Y-100464400D01*
X175402620Y-100424400D02*
X177482620Y-100424400D01*
X175407620Y-103829400D02*
X176037620Y-103829400D01*
X175413620Y-100384400D02*
X177482620Y-100384400D01*
X175424620Y-100344400D02*
X177482620Y-100344400D01*
X175436620Y-100304400D02*
X177482620Y-100304400D01*
X175449620Y-100264400D02*
X177482620Y-100264400D01*
X175462620Y-100224400D02*
X177482620Y-100224400D01*
X175475620Y-100184400D02*
X177482620Y-100184400D01*
X175490620Y-100144400D02*
X177482620Y-100144400D01*
X175505620Y-100104400D02*
X177482620Y-100104400D01*
X175520620Y-100064400D02*
X177482620Y-100064400D01*
X175536620Y-100024400D02*
X177482620Y-100024400D01*
X175553620Y-99984400D02*
X177482620Y-99984400D01*
X175570620Y-99944400D02*
X177482620Y-99944400D01*
X175588620Y-99904400D02*
X177482620Y-99904400D01*
X175607620Y-99864400D02*
X177482620Y-99864400D01*
X175626620Y-99824400D02*
X177482620Y-99824400D01*
X175646620Y-99784400D02*
X177482620Y-99784400D01*
X175667620Y-99744400D02*
X177482620Y-99744400D01*
X175688620Y-99704400D02*
X177482620Y-99704400D01*
X175710620Y-99664400D02*
X177482620Y-99664400D01*
X175722620Y-104144400D02*
X175722620Y-103514400D01*
X175733620Y-99624400D02*
X177482620Y-99624400D01*
X175757620Y-99584400D02*
X177482620Y-99584400D01*
X175781620Y-99544400D02*
X177482620Y-99544400D01*
X175806620Y-99504400D02*
X177482620Y-99504400D01*
X175832620Y-99464400D02*
X177482620Y-99464400D01*
X175859620Y-99424400D02*
X177482620Y-99424400D01*
X175886620Y-99384400D02*
X177482620Y-99384400D01*
X175915620Y-99344400D02*
X177482620Y-99344400D01*
X175945620Y-99304400D02*
X177482620Y-99304400D01*
X175975620Y-99264400D02*
X177482620Y-99264400D01*
X176006620Y-99224400D02*
X177482620Y-99224400D01*
X176039620Y-99184400D02*
X177482620Y-99184400D01*
X176072620Y-99144400D02*
X177482620Y-99144400D01*
X176107620Y-99104400D02*
X177482620Y-99104400D01*
X176143620Y-99064400D02*
X177482620Y-99064400D01*
X176180620Y-99024400D02*
X177482620Y-99024400D01*
X176218620Y-98984400D02*
X177482620Y-98984400D01*
X176258620Y-98944400D02*
X180786620Y-98944400D01*
X176299620Y-98904400D02*
X180745620Y-98904400D01*
X176341620Y-98864400D02*
X180703620Y-98864400D01*
X176385620Y-98824400D02*
X180659620Y-98824400D01*
X176431620Y-98784400D02*
X180613620Y-98784400D01*
X176478620Y-98744400D02*
X180566620Y-98744400D01*
X176527620Y-98704400D02*
X180517620Y-98704400D01*
X176579620Y-98664400D02*
X180465620Y-98664400D01*
X176632620Y-98624400D02*
X180412620Y-98624400D01*
X176688620Y-98584400D02*
X180356620Y-98584400D01*
X176747620Y-98544400D02*
X180297620Y-98544400D01*
X176808620Y-98504400D02*
X180236620Y-98504400D01*
X176873620Y-98464400D02*
X180171620Y-98464400D01*
X176941620Y-98424400D02*
X180103620Y-98424400D01*
X177013620Y-98384400D02*
X180031620Y-98384400D01*
X177090620Y-98344400D02*
X179954620Y-98344400D01*
X177172620Y-98304400D02*
X179872620Y-98304400D01*
X177261620Y-98264400D02*
X179783620Y-98264400D01*
X177357620Y-98224400D02*
X179687620Y-98224400D01*
X177464620Y-98184400D02*
X179580620Y-98184400D01*
X177583620Y-98144400D02*
X179461620Y-98144400D01*
X177721620Y-98104400D02*
X179323620Y-98104400D01*
X177889620Y-98064400D02*
X179155620Y-98064400D01*
X178120620Y-98024400D02*
X178924620Y-98024400D01*
X179562620Y-98984400D02*
X180826620Y-98984400D01*
X179562620Y-99024400D02*
X180864620Y-99024400D01*
X179562620Y-99064400D02*
X180901620Y-99064400D01*
X179562620Y-99104400D02*
X180937620Y-99104400D01*
X179562620Y-99144400D02*
X180972620Y-99144400D01*
X179562620Y-99184400D02*
X181005620Y-99184400D01*
X179562620Y-99224400D02*
X181038620Y-99224400D01*
X179562620Y-99264400D02*
X181069620Y-99264400D01*
X179562620Y-99304400D02*
X181099620Y-99304400D01*
X179562620Y-99344400D02*
X181129620Y-99344400D01*
X179562620Y-99384400D02*
X181158620Y-99384400D01*
X179562620Y-99424400D02*
X181185620Y-99424400D01*
X179562620Y-99464400D02*
X181212620Y-99464400D01*
X179562620Y-99504400D02*
X181238620Y-99504400D01*
X179562620Y-99544400D02*
X181263620Y-99544400D01*
X179562620Y-99584400D02*
X181287620Y-99584400D01*
X179562620Y-99624400D02*
X181311620Y-99624400D01*
X179562620Y-99664400D02*
X181334620Y-99664400D01*
X179562620Y-99704400D02*
X181356620Y-99704400D01*
X179562620Y-99744400D02*
X181377620Y-99744400D01*
X179562620Y-99784400D02*
X181398620Y-99784400D01*
X179562620Y-99824400D02*
X181418620Y-99824400D01*
X179562620Y-99864400D02*
X181437620Y-99864400D01*
X179562620Y-99904400D02*
X181456620Y-99904400D01*
X179562620Y-99944400D02*
X181474620Y-99944400D01*
X179562620Y-99984400D02*
X181491620Y-99984400D01*
X179562620Y-100024400D02*
X181508620Y-100024400D01*
X179562620Y-100064400D02*
X181524620Y-100064400D01*
X179562620Y-100104400D02*
X181539620Y-100104400D01*
X179562620Y-100144400D02*
X181554620Y-100144400D01*
X179562620Y-100184400D02*
X181569620Y-100184400D01*
X179562620Y-100224400D02*
X181582620Y-100224400D01*
X179562620Y-100264400D02*
X181595620Y-100264400D01*
X179562620Y-100304400D02*
X181608620Y-100304400D01*
X179562620Y-100344400D02*
X181620620Y-100344400D01*
X179562620Y-100384400D02*
X181631620Y-100384400D01*
X179562620Y-100424400D02*
X181642620Y-100424400D01*
X179562620Y-100464400D02*
X181653620Y-100464400D01*
X179562620Y-100504400D02*
X181662620Y-100504400D01*
X179562620Y-100544400D02*
X181672620Y-100544400D01*
X179562620Y-100584400D02*
X181681620Y-100584400D01*
X179562620Y-100624400D02*
X181689620Y-100624400D01*
X179562620Y-100664400D02*
X181696620Y-100664400D01*
X179562620Y-100704400D02*
X181704620Y-100704400D01*
X179562620Y-100744400D02*
X181710620Y-100744400D01*
X179562620Y-100784400D02*
X181717620Y-100784400D01*
X179562620Y-100824400D02*
X181722620Y-100824400D01*
X179562620Y-100864400D02*
X181727620Y-100864400D01*
X179562620Y-100904400D02*
X181732620Y-100904400D01*
X179562620Y-100944400D02*
X181736620Y-100944400D01*
X179562620Y-100984400D02*
X181740620Y-100984400D01*
X179562620Y-101024400D02*
X181743620Y-101024400D01*
X181792620Y-101264400D02*
G75*
G02*
X175252620Y-101264400I-3270000J0D01*
G01*
X175252620Y-101264400D02*
G75*
G02*
X181792620Y-101264400I3270000J0D01*
G01*
%TO.C,D6*%
X185145400Y-118852800D02*
X179635400Y-118852800D01*
X185145400Y-122152800D02*
X179635400Y-122152800D01*
X185145400Y-122152800D02*
X185145400Y-118852800D01*
%TO.C,J3*%
X168968000Y-119646000D02*
X176968000Y-119646000D01*
X176968000Y-108446000D02*
X168968000Y-108446000D01*
X176968000Y-119646000D02*
X176968000Y-108446000D01*
X177800000Y-117348000D02*
X177038000Y-116586000D01*
X177800000Y-115570000D01*
X177800000Y-117348000D01*
G36*
X177800000Y-117348000D02*
G01*
X177038000Y-116586000D01*
X177800000Y-115570000D01*
X177800000Y-117348000D01*
G37*
%TO.C,D7*%
X202620600Y-118949200D02*
X197110600Y-118949200D01*
X202620600Y-122249200D02*
X197110600Y-122249200D01*
X202620600Y-122249200D02*
X202620600Y-118949200D01*
%TO.C,R10*%
X207214800Y-120292864D02*
X207214800Y-119838736D01*
X208684800Y-120292864D02*
X208684800Y-119838736D01*
%TO.C,C6*%
X195155420Y-107955400D02*
X201615420Y-107955400D01*
X195155420Y-107995400D02*
X201615420Y-107995400D01*
X195156420Y-107915400D02*
X201614420Y-107915400D01*
X195157420Y-107875400D02*
X201613420Y-107875400D01*
X195159420Y-107835400D02*
X201611420Y-107835400D01*
X195161420Y-107795400D02*
X201609420Y-107795400D01*
X195164420Y-107755400D02*
X197345420Y-107755400D01*
X195167420Y-107715400D02*
X197345420Y-107715400D01*
X195171420Y-107675400D02*
X197345420Y-107675400D01*
X195175420Y-107635400D02*
X197345420Y-107635400D01*
X195180420Y-107595400D02*
X197345420Y-107595400D01*
X195185420Y-107555400D02*
X197345420Y-107555400D01*
X195190420Y-107515400D02*
X197345420Y-107515400D01*
X195197420Y-107475400D02*
X197345420Y-107475400D01*
X195203420Y-107435400D02*
X197345420Y-107435400D01*
X195211420Y-107395400D02*
X197345420Y-107395400D01*
X195218420Y-107355400D02*
X197345420Y-107355400D01*
X195226420Y-107315400D02*
X197345420Y-107315400D01*
X195235420Y-107275400D02*
X197345420Y-107275400D01*
X195245420Y-107235400D02*
X197345420Y-107235400D01*
X195254420Y-107195400D02*
X197345420Y-107195400D01*
X195265420Y-107155400D02*
X197345420Y-107155400D01*
X195276420Y-107115400D02*
X197345420Y-107115400D01*
X195287420Y-107075400D02*
X197345420Y-107075400D01*
X195299420Y-107035400D02*
X197345420Y-107035400D01*
X195312420Y-106995400D02*
X197345420Y-106995400D01*
X195325420Y-106955400D02*
X197345420Y-106955400D01*
X195338420Y-106915400D02*
X197345420Y-106915400D01*
X195353420Y-106875400D02*
X197345420Y-106875400D01*
X195368420Y-106835400D02*
X197345420Y-106835400D01*
X195383420Y-106795400D02*
X197345420Y-106795400D01*
X195399420Y-106755400D02*
X197345420Y-106755400D01*
X195416420Y-106715400D02*
X197345420Y-106715400D01*
X195433420Y-106675400D02*
X197345420Y-106675400D01*
X195451420Y-106635400D02*
X197345420Y-106635400D01*
X195470420Y-106595400D02*
X197345420Y-106595400D01*
X195489420Y-106555400D02*
X197345420Y-106555400D01*
X195509420Y-106515400D02*
X197345420Y-106515400D01*
X195530420Y-106475400D02*
X197345420Y-106475400D01*
X195551420Y-106435400D02*
X197345420Y-106435400D01*
X195573420Y-106395400D02*
X197345420Y-106395400D01*
X195596420Y-106355400D02*
X197345420Y-106355400D01*
X195620420Y-106315400D02*
X197345420Y-106315400D01*
X195644420Y-106275400D02*
X197345420Y-106275400D01*
X195669420Y-106235400D02*
X197345420Y-106235400D01*
X195695420Y-106195400D02*
X197345420Y-106195400D01*
X195722420Y-106155400D02*
X197345420Y-106155400D01*
X195749420Y-106115400D02*
X197345420Y-106115400D01*
X195778420Y-106075400D02*
X197345420Y-106075400D01*
X195808420Y-106035400D02*
X197345420Y-106035400D01*
X195838420Y-105995400D02*
X197345420Y-105995400D01*
X195869420Y-105955400D02*
X197345420Y-105955400D01*
X195902420Y-105915400D02*
X197345420Y-105915400D01*
X195935420Y-105875400D02*
X197345420Y-105875400D01*
X195970420Y-105835400D02*
X197345420Y-105835400D01*
X196006420Y-105795400D02*
X197345420Y-105795400D01*
X196043420Y-105755400D02*
X197345420Y-105755400D01*
X196081420Y-105715400D02*
X197345420Y-105715400D01*
X196121420Y-105675400D02*
X200649420Y-105675400D01*
X196162420Y-105635400D02*
X200608420Y-105635400D01*
X196204420Y-105595400D02*
X200566420Y-105595400D01*
X196231420Y-111180641D02*
X196861420Y-111180641D01*
X196248420Y-105555400D02*
X200522420Y-105555400D01*
X196294420Y-105515400D02*
X200476420Y-105515400D01*
X196341420Y-105475400D02*
X200429420Y-105475400D01*
X196390420Y-105435400D02*
X200380420Y-105435400D01*
X196442420Y-105395400D02*
X200328420Y-105395400D01*
X196495420Y-105355400D02*
X200275420Y-105355400D01*
X196546420Y-111495641D02*
X196546420Y-110865641D01*
X196551420Y-105315400D02*
X200219420Y-105315400D01*
X196610420Y-105275400D02*
X200160420Y-105275400D01*
X196671420Y-105235400D02*
X200099420Y-105235400D01*
X196736420Y-105195400D02*
X200034420Y-105195400D01*
X196804420Y-105155400D02*
X199966420Y-105155400D01*
X196876420Y-105115400D02*
X199894420Y-105115400D01*
X196953420Y-105075400D02*
X199817420Y-105075400D01*
X197035420Y-105035400D02*
X199735420Y-105035400D01*
X197124420Y-104995400D02*
X199646420Y-104995400D01*
X197220420Y-104955400D02*
X199550420Y-104955400D01*
X197327420Y-104915400D02*
X199443420Y-104915400D01*
X197446420Y-104875400D02*
X199324420Y-104875400D01*
X197584420Y-104835400D02*
X199186420Y-104835400D01*
X197752420Y-104795400D02*
X199018420Y-104795400D01*
X197983420Y-104755400D02*
X198787420Y-104755400D01*
X199425420Y-105715400D02*
X200689420Y-105715400D01*
X199425420Y-105755400D02*
X200727420Y-105755400D01*
X199425420Y-105795400D02*
X200764420Y-105795400D01*
X199425420Y-105835400D02*
X200800420Y-105835400D01*
X199425420Y-105875400D02*
X200835420Y-105875400D01*
X199425420Y-105915400D02*
X200868420Y-105915400D01*
X199425420Y-105955400D02*
X200901420Y-105955400D01*
X199425420Y-105995400D02*
X200932420Y-105995400D01*
X199425420Y-106035400D02*
X200962420Y-106035400D01*
X199425420Y-106075400D02*
X200992420Y-106075400D01*
X199425420Y-106115400D02*
X201021420Y-106115400D01*
X199425420Y-106155400D02*
X201048420Y-106155400D01*
X199425420Y-106195400D02*
X201075420Y-106195400D01*
X199425420Y-106235400D02*
X201101420Y-106235400D01*
X199425420Y-106275400D02*
X201126420Y-106275400D01*
X199425420Y-106315400D02*
X201150420Y-106315400D01*
X199425420Y-106355400D02*
X201174420Y-106355400D01*
X199425420Y-106395400D02*
X201197420Y-106395400D01*
X199425420Y-106435400D02*
X201219420Y-106435400D01*
X199425420Y-106475400D02*
X201240420Y-106475400D01*
X199425420Y-106515400D02*
X201261420Y-106515400D01*
X199425420Y-106555400D02*
X201281420Y-106555400D01*
X199425420Y-106595400D02*
X201300420Y-106595400D01*
X199425420Y-106635400D02*
X201319420Y-106635400D01*
X199425420Y-106675400D02*
X201337420Y-106675400D01*
X199425420Y-106715400D02*
X201354420Y-106715400D01*
X199425420Y-106755400D02*
X201371420Y-106755400D01*
X199425420Y-106795400D02*
X201387420Y-106795400D01*
X199425420Y-106835400D02*
X201402420Y-106835400D01*
X199425420Y-106875400D02*
X201417420Y-106875400D01*
X199425420Y-106915400D02*
X201432420Y-106915400D01*
X199425420Y-106955400D02*
X201445420Y-106955400D01*
X199425420Y-106995400D02*
X201458420Y-106995400D01*
X199425420Y-107035400D02*
X201471420Y-107035400D01*
X199425420Y-107075400D02*
X201483420Y-107075400D01*
X199425420Y-107115400D02*
X201494420Y-107115400D01*
X199425420Y-107155400D02*
X201505420Y-107155400D01*
X199425420Y-107195400D02*
X201516420Y-107195400D01*
X199425420Y-107235400D02*
X201525420Y-107235400D01*
X199425420Y-107275400D02*
X201535420Y-107275400D01*
X199425420Y-107315400D02*
X201544420Y-107315400D01*
X199425420Y-107355400D02*
X201552420Y-107355400D01*
X199425420Y-107395400D02*
X201559420Y-107395400D01*
X199425420Y-107435400D02*
X201567420Y-107435400D01*
X199425420Y-107475400D02*
X201573420Y-107475400D01*
X199425420Y-107515400D02*
X201580420Y-107515400D01*
X199425420Y-107555400D02*
X201585420Y-107555400D01*
X199425420Y-107595400D02*
X201590420Y-107595400D01*
X199425420Y-107635400D02*
X201595420Y-107635400D01*
X199425420Y-107675400D02*
X201599420Y-107675400D01*
X199425420Y-107715400D02*
X201603420Y-107715400D01*
X199425420Y-107755400D02*
X201606420Y-107755400D01*
X201655420Y-107995400D02*
G75*
G02*
X195115420Y-107995400I-3270000J0D01*
G01*
X195115420Y-107995400D02*
G75*
G02*
X201655420Y-107995400I3270000J0D01*
G01*
%TO.C,R2*%
X187377336Y-97461400D02*
X187831464Y-97461400D01*
X187377336Y-98931400D02*
X187831464Y-98931400D01*
%TO.C,R11*%
X175004464Y-120143600D02*
X174550336Y-120143600D01*
X175004464Y-121613600D02*
X174550336Y-121613600D01*
%TO.C,R3*%
X191517536Y-97461400D02*
X191971664Y-97461400D01*
X191517536Y-98931400D02*
X191971664Y-98931400D01*
%TO.C,D3*%
X194899000Y-113920000D02*
X189389000Y-113920000D01*
X194899000Y-117220000D02*
X189389000Y-117220000D01*
X194899000Y-117220000D02*
X194899000Y-113920000D01*
%TO.C,R4*%
X197385000Y-99467936D02*
X197385000Y-99922064D01*
X198855000Y-99467936D02*
X198855000Y-99922064D01*
%TO.C,D2*%
X194899000Y-110364000D02*
X189389000Y-110364000D01*
X194899000Y-113664000D02*
X189389000Y-113664000D01*
X194899000Y-113664000D02*
X194899000Y-110364000D01*
%TO.C,C5*%
X196817348Y-101881000D02*
X197339852Y-101881000D01*
X196817348Y-103351000D02*
X197339852Y-103351000D01*
%TO.C,R9*%
X205182800Y-119838736D02*
X205182800Y-120292864D01*
X206652800Y-119838736D02*
X206652800Y-120292864D01*
%TO.C,U3*%
X189131000Y-117699400D02*
X193901000Y-117699400D01*
X189131000Y-117729400D02*
X189131000Y-117699400D01*
X189131000Y-121619400D02*
X189131000Y-121589400D01*
X193901000Y-117699400D02*
X193901000Y-117729400D01*
X193901000Y-119049400D02*
X193901000Y-120269400D01*
X193901000Y-121589400D02*
X193901000Y-121619400D01*
X193901000Y-121619400D02*
X189131000Y-121619400D01*
X194666000Y-120269400D02*
X194326000Y-119799400D01*
X195006000Y-119799400D01*
X194666000Y-120269400D01*
G36*
X194666000Y-120269400D02*
G01*
X194326000Y-119799400D01*
X195006000Y-119799400D01*
X194666000Y-120269400D01*
G37*
%TO.C,R7*%
X193219400Y-107773736D02*
X193219400Y-108227864D01*
X194689400Y-107773736D02*
X194689400Y-108227864D01*
%TO.C,R6*%
X191263600Y-108227864D02*
X191263600Y-107773736D01*
X192733600Y-108227864D02*
X192733600Y-107773736D01*
%TO.C,D5*%
X210440000Y-118651400D02*
X210440000Y-120921400D01*
X210440000Y-120921400D02*
X214325000Y-120921400D01*
X214325000Y-118651400D02*
X210440000Y-118651400D01*
%TO.C,Q1*%
X187771600Y-106963800D02*
X188771600Y-106963800D01*
X187771600Y-108783800D02*
X187771600Y-106963800D01*
X187821600Y-108783800D02*
X187771600Y-108783800D01*
X189721600Y-108783800D02*
X188941600Y-108783800D01*
X189891600Y-106963800D02*
X190891600Y-106963800D01*
X190891600Y-106963800D02*
X190891600Y-108783800D01*
X190891600Y-108783800D02*
X190841600Y-108783800D01*
X189281600Y-109563800D02*
X188951600Y-109323800D01*
X189281600Y-109083800D01*
X189281600Y-109563800D01*
G36*
X189281600Y-109563800D02*
G01*
X188951600Y-109323800D01*
X189281600Y-109083800D01*
X189281600Y-109563800D01*
G37*
%TO.C,C3*%
X183694400Y-102877252D02*
X183694400Y-102354748D01*
X185164400Y-102877252D02*
X185164400Y-102354748D01*
%TO.C,C1*%
X195353000Y-99956252D02*
X195353000Y-99433748D01*
X196823000Y-99956252D02*
X196823000Y-99433748D01*
%TD*%
M02*
