%TF.GenerationSoftware,KiCad,Pcbnew,9.0.7-9.0.7~ubuntu24.04.1*%
%TF.CreationDate,2026-01-24T21:38:09-08:00*%
%TF.ProjectId,BeamBreak-v1,4265616d-4272-4656-916b-2d76312e6b69,1*%
%TF.SameCoordinates,Original*%
%TF.FileFunction,Copper,L1,Top*%
%TF.FilePolarity,Positive*%
%FSLAX46Y46*%
G04 Gerber Fmt 4.6, Leading zero omitted, Abs format (unit mm)*
G04 Created by KiCad (PCBNEW 9.0.7-9.0.7~ubuntu24.04.1) date 2026-01-24 21:38:09*
%MOMM*%
%LPD*%
G01*
G04 APERTURE LIST*
G04 Aperture macros list*
%AMRoundRect*
0 Rectangle with rounded corners*
0 $1 Rounding radius*
0 $2 $3 $4 $5 $6 $7 $8 $9 X,Y pos of 4 corners*
0 Add a 4 corners polygon primitive as box body*
4,1,4,$2,$3,$4,$5,$6,$7,$8,$9,$2,$3,0*
0 Add four circle primitives for the rounded corners*
1,1,$1+$1,$2,$3*
1,1,$1+$1,$4,$5*
1,1,$1+$1,$6,$7*
1,1,$1+$1,$8,$9*
0 Add four rect primitives between the rounded corners*
20,1,$1+$1,$2,$3,$4,$5,0*
20,1,$1+$1,$4,$5,$6,$7,0*
20,1,$1+$1,$6,$7,$8,$9,0*
20,1,$1+$1,$8,$9,$2,$3,0*%
G04 Aperture macros list end*
%TA.AperFunction,SMDPad,CuDef*%
%ADD10RoundRect,0.250000X0.350000X0.450000X-0.350000X0.450000X-0.350000X-0.450000X0.350000X-0.450000X0*%
%TD*%
%TA.AperFunction,SMDPad,CuDef*%
%ADD11RoundRect,0.250000X1.000000X0.650000X-1.000000X0.650000X-1.000000X-0.650000X1.000000X-0.650000X0*%
%TD*%
%TA.AperFunction,SMDPad,CuDef*%
%ADD12RoundRect,0.396240X0.924560X-2.270760X0.924560X2.270760X-0.924560X2.270760X-0.924560X-2.270760X0*%
%TD*%
%TA.AperFunction,SMDPad,CuDef*%
%ADD13RoundRect,0.426720X0.995680X-1.090930X0.995680X1.090930X-0.995680X1.090930X-0.995680X-1.090930X0*%
%TD*%
%TA.AperFunction,ComponentPad*%
%ADD14RoundRect,0.250000X0.550000X-0.550000X0.550000X0.550000X-0.550000X0.550000X-0.550000X-0.550000X0*%
%TD*%
%TA.AperFunction,ComponentPad*%
%ADD15C,1.600000*%
%TD*%
%TA.AperFunction,SMDPad,CuDef*%
%ADD16RoundRect,0.150000X0.825000X0.150000X-0.825000X0.150000X-0.825000X-0.150000X0.825000X-0.150000X0*%
%TD*%
%TA.AperFunction,ComponentPad*%
%ADD17R,1.778000X1.778000*%
%TD*%
%TA.AperFunction,ComponentPad*%
%ADD18C,1.778000*%
%TD*%
%TA.AperFunction,SMDPad,CuDef*%
%ADD19RoundRect,0.375000X-0.625000X-0.375000X0.625000X-0.375000X0.625000X0.375000X-0.625000X0.375000X0*%
%TD*%
%TA.AperFunction,SMDPad,CuDef*%
%ADD20RoundRect,0.500000X-0.500000X-1.400000X0.500000X-1.400000X0.500000X1.400000X-0.500000X1.400000X0*%
%TD*%
%TA.AperFunction,ComponentPad*%
%ADD21C,2.200000*%
%TD*%
%TA.AperFunction,SMDPad,CuDef*%
%ADD22RoundRect,0.250000X0.450000X-0.350000X0.450000X0.350000X-0.450000X0.350000X-0.450000X-0.350000X0*%
%TD*%
%TA.AperFunction,SMDPad,CuDef*%
%ADD23RoundRect,0.250000X0.475000X-0.337500X0.475000X0.337500X-0.475000X0.337500X-0.475000X-0.337500X0*%
%TD*%
%TA.AperFunction,SMDPad,CuDef*%
%ADD24RoundRect,0.250000X-0.375000X-0.625000X0.375000X-0.625000X0.375000X0.625000X-0.375000X0.625000X0*%
%TD*%
%TA.AperFunction,ComponentPad*%
%ADD25C,1.905000*%
%TD*%
%TA.AperFunction,SMDPad,CuDef*%
%ADD26RoundRect,0.250000X-0.350000X-0.450000X0.350000X-0.450000X0.350000X0.450000X-0.350000X0.450000X0*%
%TD*%
%TA.AperFunction,SMDPad,CuDef*%
%ADD27RoundRect,0.250000X-0.450000X0.350000X-0.450000X-0.350000X0.450000X-0.350000X0.450000X0.350000X0*%
%TD*%
%TA.AperFunction,SMDPad,CuDef*%
%ADD28RoundRect,0.250000X-0.337500X-0.475000X0.337500X-0.475000X0.337500X0.475000X-0.337500X0.475000X0*%
%TD*%
%TA.AperFunction,SMDPad,CuDef*%
%ADD29RoundRect,0.200000X0.400000X0.200000X-0.400000X0.200000X-0.400000X-0.200000X0.400000X-0.200000X0*%
%TD*%
%TA.AperFunction,SMDPad,CuDef*%
%ADD30RoundRect,0.150000X0.150000X-0.512500X0.150000X0.512500X-0.150000X0.512500X-0.150000X-0.512500X0*%
%TD*%
%TA.AperFunction,ViaPad*%
%ADD31C,0.889000*%
%TD*%
%TA.AperFunction,Conductor*%
%ADD32C,0.381000*%
%TD*%
%TA.AperFunction,Conductor*%
%ADD33C,0.508000*%
%TD*%
%TA.AperFunction,Conductor*%
%ADD34C,0.762000*%
%TD*%
%TA.AperFunction,Conductor*%
%ADD35C,0.304800*%
%TD*%
%TA.AperFunction,Conductor*%
%ADD36C,0.635000*%
%TD*%
G04 APERTURE END LIST*
D10*
%TO.P,R1,1*%
%TO.N,GND*%
X184464200Y-98196400D03*
%TO.P,R1,2*%
%TO.N,Net-(U2-FA{slash}SD)*%
X182464200Y-98196400D03*
%TD*%
D11*
%TO.P,D4,1,K*%
%TO.N,/Power Supply/DCDC_IN*%
X183635400Y-116946800D03*
%TO.P,D4,2,A*%
%TO.N,/Power Supply/DCIN*%
X179635400Y-116946800D03*
%TD*%
D12*
%TO.P,L1,1,1*%
%TO.N,/Power Supply/DCDC_IN*%
X177927000Y-109982000D03*
%TO.P,L1,2,2*%
%TO.N,Net-(D2-A)*%
X185547000Y-109982000D03*
D13*
%TO.P,L1,3,3*%
%TO.N,GND*%
X181737000Y-113595150D03*
X181737000Y-106368850D03*
%TD*%
D14*
%TO.P,C7,1*%
%TO.N,Net-(D2-K)*%
X199021379Y-116245400D03*
D15*
%TO.P,C7,2*%
%TO.N,GND*%
X199021379Y-113745400D03*
%TD*%
D10*
%TO.P,R5,1*%
%TO.N,Net-(D1-A)*%
X214122000Y-102082600D03*
%TO.P,R5,2*%
%TO.N,Net-(D2-K)*%
X212122000Y-102082600D03*
%TD*%
D16*
%TO.P,U2,1,I_{SEN}*%
%TO.N,Net-(U2-I_{SEN})*%
X191755800Y-103886000D03*
%TO.P,U2,2,COMP*%
%TO.N,Net-(U2-COMP)*%
X191755800Y-102616000D03*
%TO.P,U2,3,FB*%
%TO.N,Net-(U2-FB)*%
X191755800Y-101346000D03*
%TO.P,U2,4,AGND*%
%TO.N,GND*%
X191755800Y-100076000D03*
%TO.P,U2,5,PGND*%
X186805800Y-100076000D03*
%TO.P,U2,6,DR*%
%TO.N,Net-(Q1-G)*%
X186805800Y-101346000D03*
%TO.P,U2,7,FA/SD*%
%TO.N,Net-(U2-FA{slash}SD)*%
X186805800Y-102616000D03*
%TO.P,U2,8,V_{IN}*%
%TO.N,/Power Supply/DCDC_IN*%
X186805800Y-103886000D03*
%TD*%
D17*
%TO.P,J2,1,Pin_1*%
%TO.N,GND*%
X204419200Y-107188000D03*
D18*
%TO.P,J2,2,Pin_2*%
%TO.N,+12V*%
X204419200Y-109728000D03*
%TO.P,J2,3,Pin_3*%
%TO.N,/SIG*%
X204419200Y-112268000D03*
%TO.P,J2,4,Pin_4*%
%TO.N,unconnected-(J2-Pin_4-Pad4)*%
X204419200Y-114808000D03*
%TD*%
D19*
%TO.P,U1,1,IN*%
%TO.N,GND*%
X201701000Y-97903000D03*
%TO.P,U1,2,Vs*%
%TO.N,Net-(D2-K)*%
X201701000Y-100203000D03*
D20*
X208001000Y-100203000D03*
D19*
%TO.P,U1,3,OUT*%
%TO.N,+12V*%
X201701000Y-102503000D03*
%TD*%
D21*
%TO.P,J1,1,Pin_1*%
%TO.N,GND*%
X171536000Y-100878000D03*
X164510600Y-100878000D03*
%TO.P,J1,2,Pin_2*%
%TO.N,/Power Supply/DCIN*%
X171536000Y-105878000D03*
X164536000Y-105878000D03*
%TD*%
D22*
%TO.P,R8,1*%
%TO.N,Net-(D7-K)*%
X203885800Y-121065800D03*
%TO.P,R8,2*%
%TO.N,+12V*%
X203885800Y-119065800D03*
%TD*%
D23*
%TO.P,C4,1*%
%TO.N,Net-(U2-I_{SEN})*%
X194030600Y-103653500D03*
%TO.P,C4,2*%
%TO.N,GND*%
X194030600Y-101578500D03*
%TD*%
D24*
%TO.P,D1,1,K*%
%TO.N,GND*%
X211325000Y-99669600D03*
%TO.P,D1,2,A*%
%TO.N,Net-(D1-A)*%
X214125000Y-99669600D03*
%TD*%
D23*
%TO.P,C8,1*%
%TO.N,+5V_ISO*%
X186309000Y-120722300D03*
%TO.P,C8,2*%
%TO.N,GND_ISO*%
X186309000Y-118647300D03*
%TD*%
D14*
%TO.P,C2,1*%
%TO.N,/Power Supply/DCDC_IN*%
X178522620Y-102514400D03*
D15*
%TO.P,C2,2*%
%TO.N,GND*%
X178522620Y-100014400D03*
%TD*%
D11*
%TO.P,D6,1,K*%
%TO.N,+5V_ISO*%
X183635400Y-120502800D03*
%TO.P,D6,2,A*%
%TO.N,/+5V_RIO*%
X179635400Y-120502800D03*
%TD*%
D17*
%TO.P,J3,1,Pin_1*%
%TO.N,GND_ISO*%
X174498000Y-116586000D03*
D25*
%TO.P,J3,2,Pin_2*%
%TO.N,/+5V_RIO*%
X174498000Y-114046000D03*
D18*
%TO.P,J3,3,Pin_3*%
%TO.N,/DIO_RIO*%
X174498000Y-111506000D03*
%TD*%
D11*
%TO.P,D7,1,K*%
%TO.N,Net-(D7-K)*%
X201110600Y-120599200D03*
%TO.P,D7,2,A*%
%TO.N,Net-(D5-K)*%
X197110600Y-120599200D03*
%TD*%
D22*
%TO.P,R10,1*%
%TO.N,Net-(D5-K)*%
X207949800Y-121065800D03*
%TO.P,R10,2*%
%TO.N,Net-(D5-A)*%
X207949800Y-119065800D03*
%TD*%
D14*
%TO.P,C6,1*%
%TO.N,Net-(D2-K)*%
X199020420Y-109245400D03*
D15*
%TO.P,C6,2*%
%TO.N,GND*%
X199020420Y-106745400D03*
%TD*%
D26*
%TO.P,R2,1*%
%TO.N,GND*%
X186604400Y-98196400D03*
%TO.P,R2,2*%
%TO.N,Net-(U2-FB)*%
X188604400Y-98196400D03*
%TD*%
D10*
%TO.P,R11,1*%
%TO.N,Net-(U3-VO)*%
X175142400Y-120878600D03*
%TO.P,R11,2*%
%TO.N,/DIO_RIO*%
X173142400Y-120878600D03*
%TD*%
D26*
%TO.P,R3,1*%
%TO.N,Net-(U2-FB)*%
X190744600Y-98196400D03*
%TO.P,R3,2*%
%TO.N,Net-(D2-K)*%
X192744600Y-98196400D03*
%TD*%
D11*
%TO.P,D3,1,K*%
%TO.N,Net-(D2-K)*%
X193389000Y-115570000D03*
%TO.P,D3,2,A*%
%TO.N,/Power Supply/DCIN*%
X189389000Y-115570000D03*
%TD*%
D27*
%TO.P,R4,1*%
%TO.N,GND*%
X198120000Y-98695000D03*
%TO.P,R4,2*%
%TO.N,Net-(C5-Pad2)*%
X198120000Y-100695000D03*
%TD*%
D11*
%TO.P,D2,1,K*%
%TO.N,Net-(D2-K)*%
X193389000Y-112014000D03*
%TO.P,D2,2,A*%
%TO.N,Net-(D2-A)*%
X189389000Y-112014000D03*
%TD*%
D28*
%TO.P,C5,1*%
%TO.N,Net-(U2-COMP)*%
X196041100Y-102616000D03*
%TO.P,C5,2*%
%TO.N,Net-(C5-Pad2)*%
X198116100Y-102616000D03*
%TD*%
D27*
%TO.P,R9,1*%
%TO.N,/SIG*%
X205917800Y-119065800D03*
%TO.P,R9,2*%
%TO.N,Net-(D5-K)*%
X205917800Y-121065800D03*
%TD*%
D29*
%TO.P,U3,1,A*%
%TO.N,Net-(D7-K)*%
X194666000Y-120929400D03*
%TO.P,U3,3,K*%
%TO.N,Net-(D5-A)*%
X194666000Y-118389400D03*
%TO.P,U3,4,GND*%
%TO.N,GND_ISO*%
X188366000Y-118389400D03*
%TO.P,U3,5,VO*%
%TO.N,Net-(U3-VO)*%
X188366000Y-119659400D03*
%TO.P,U3,6,VDD*%
%TO.N,+5V_ISO*%
X188366000Y-120929400D03*
%TD*%
D27*
%TO.P,R7,1*%
%TO.N,Net-(U2-I_{SEN})*%
X194106800Y-107000800D03*
%TO.P,R7,2*%
%TO.N,Net-(Q1-S)*%
X194106800Y-109000800D03*
%TD*%
D22*
%TO.P,R6,1*%
%TO.N,Net-(Q1-S)*%
X192074800Y-109000800D03*
%TO.P,R6,2*%
%TO.N,GND*%
X192074800Y-107000800D03*
%TD*%
D24*
%TO.P,D5,1,K*%
%TO.N,Net-(D5-K)*%
X211325000Y-119786400D03*
%TO.P,D5,2,A*%
%TO.N,Net-(D5-A)*%
X214125000Y-119786400D03*
%TD*%
D30*
%TO.P,Q1,1,G*%
%TO.N,Net-(Q1-G)*%
X188381600Y-109011300D03*
%TO.P,Q1,2,S*%
%TO.N,Net-(Q1-S)*%
X190281600Y-109011300D03*
%TO.P,Q1,3,D*%
%TO.N,Net-(D2-A)*%
X189331600Y-106736300D03*
%TD*%
D23*
%TO.P,C3,1*%
%TO.N,/Power Supply/DCDC_IN*%
X184429400Y-103653500D03*
%TO.P,C3,2*%
%TO.N,GND*%
X184429400Y-101578500D03*
%TD*%
%TO.P,C1,1*%
%TO.N,Net-(U2-COMP)*%
X196088000Y-100732500D03*
%TO.P,C1,2*%
%TO.N,GND*%
X196088000Y-98657500D03*
%TD*%
D31*
%TO.N,GND*%
X192074800Y-105664000D03*
X189433200Y-102183724D03*
X181737000Y-108610400D03*
X181737000Y-111353600D03*
X203504800Y-97891600D03*
X185521600Y-97078800D03*
X194081400Y-100076000D03*
X209931000Y-99669600D03*
%TO.N,/Power Supply/DCIN*%
X177292000Y-116967000D03*
X187655200Y-117094000D03*
%TO.N,/SIG*%
X204749400Y-117398800D03*
%TO.N,/Power Supply/DCDC_IN*%
X175388322Y-108075678D03*
X185704600Y-116946800D03*
%TO.N,GND_ISO*%
X189748301Y-118364000D03*
%TO.N,Net-(D5-K)*%
X209677000Y-121666000D03*
%TO.N,Net-(D7-K)*%
X201193400Y-118973600D03*
%TD*%
D32*
%TO.N,GND*%
X184464200Y-98196400D02*
X185521600Y-98196400D01*
X185521600Y-97078800D02*
X185521600Y-98196400D01*
D33*
X191287400Y-105664000D02*
X189433200Y-103809800D01*
X192074800Y-105664000D02*
X191287400Y-105664000D01*
X189433200Y-103809800D02*
X189433200Y-102183724D01*
X181737000Y-113595150D02*
X181737000Y-111353600D01*
X184429400Y-100482400D02*
X184429400Y-101578500D01*
X189433200Y-101422200D02*
X188087000Y-100076000D01*
D32*
X194081400Y-99390200D02*
X194081400Y-100076000D01*
X184464200Y-98196400D02*
X184464200Y-98136200D01*
X191755800Y-100076000D02*
X194081400Y-100076000D01*
D33*
X192074800Y-107000800D02*
X192074800Y-105664000D01*
X188087000Y-100076000D02*
X186805800Y-100076000D01*
D32*
X194030600Y-101578500D02*
X194030600Y-100126800D01*
X194814100Y-98657500D02*
X194081400Y-99390200D01*
X194030600Y-100126800D02*
X194081400Y-100076000D01*
X198120000Y-98695000D02*
X196125500Y-98695000D01*
X185521600Y-98196400D02*
X186604400Y-98196400D01*
X196125500Y-98695000D02*
X196088000Y-98657500D01*
D33*
X186805800Y-100076000D02*
X184835800Y-100076000D01*
X181737000Y-106368850D02*
X181737000Y-108610400D01*
D32*
X201701000Y-97903000D02*
X203493400Y-97903000D01*
D33*
X184835800Y-100076000D02*
X184429400Y-100482400D01*
D32*
X203493400Y-97903000D02*
X203504800Y-97891600D01*
D33*
X189433200Y-102183724D02*
X189433200Y-101422200D01*
D32*
X196088000Y-98657500D02*
X194814100Y-98657500D01*
X211325000Y-99669600D02*
X209931000Y-99669600D01*
%TO.N,+12V*%
X203885800Y-117729000D02*
X202895200Y-116738400D01*
X203885800Y-119065800D02*
X203885800Y-117729000D01*
D34*
X206349600Y-104368600D02*
X206349600Y-109054835D01*
X206349600Y-109054835D02*
X205676435Y-109728000D01*
X201701000Y-102503000D02*
X204484000Y-102503000D01*
X205676435Y-109728000D02*
X204419200Y-109728000D01*
D32*
X202895200Y-111252000D02*
X204419200Y-109728000D01*
D34*
X204484000Y-102503000D02*
X206349600Y-104368600D01*
D32*
X202895200Y-116738400D02*
X202895200Y-111252000D01*
D34*
%TO.N,/Power Supply/DCIN*%
X187655200Y-117094000D02*
X187865000Y-117094000D01*
X189153800Y-115595400D02*
X189490600Y-115595400D01*
X179615200Y-116967000D02*
X179635400Y-116946800D01*
X171536000Y-105878000D02*
X164536000Y-105878000D01*
X187865000Y-117094000D02*
X189389000Y-115570000D01*
X177292000Y-116967000D02*
X179615200Y-116967000D01*
X189490600Y-115595400D02*
X189516000Y-115570000D01*
D32*
%TO.N,/DIO_RIO*%
X172720000Y-111506000D02*
X174498000Y-111506000D01*
X173142400Y-120878600D02*
X171805600Y-120878600D01*
X171348400Y-120421400D02*
X171348400Y-112877600D01*
X171805600Y-120878600D02*
X171348400Y-120421400D01*
X171348400Y-112877600D02*
X172720000Y-111506000D01*
%TO.N,/SIG*%
X205917800Y-117398800D02*
X205917800Y-119065800D01*
X204749400Y-117398800D02*
X205917800Y-117398800D01*
X205917800Y-117398800D02*
X205917800Y-113766600D01*
X205917800Y-113766600D02*
X204419200Y-112268000D01*
%TO.N,Net-(U2-I_{SEN})*%
X193954400Y-105308400D02*
X194106800Y-105460800D01*
X193954400Y-103729700D02*
X194030600Y-103653500D01*
X191755800Y-103886000D02*
X191755800Y-104532200D01*
X191755800Y-104532200D02*
X191973200Y-104749600D01*
X193954400Y-104749600D02*
X193954400Y-105308400D01*
X194106800Y-105460800D02*
X194106800Y-107000800D01*
X193954400Y-104749600D02*
X193954400Y-103729700D01*
X191973200Y-104749600D02*
X193954400Y-104749600D01*
%TO.N,Net-(U2-COMP)*%
X196041100Y-102616000D02*
X196041100Y-100779400D01*
D35*
X191755800Y-102616000D02*
X196041100Y-102616000D01*
D32*
X196041100Y-100779400D02*
X196088000Y-100732500D01*
%TO.N,Net-(D1-A)*%
X214122000Y-99799600D02*
X214125000Y-99796600D01*
X214125000Y-99669600D02*
X214125000Y-102079600D01*
X214125000Y-102079600D02*
X214122000Y-102082600D01*
D33*
%TO.N,Net-(Q1-S)*%
X191911900Y-109011300D02*
X191922400Y-109000800D01*
X190281600Y-109011300D02*
X192064300Y-109011300D01*
X191988100Y-109011300D02*
X191998600Y-109000800D01*
X192064300Y-109011300D02*
X192074800Y-109000800D01*
X192074800Y-109000800D02*
X194106800Y-109000800D01*
D32*
%TO.N,Net-(Q1-G)*%
X186805800Y-101346000D02*
X188061600Y-101346000D01*
X188061600Y-101346000D02*
X188381600Y-101666000D01*
X188381600Y-101666000D02*
X188381600Y-109011300D01*
D35*
%TO.N,Net-(U2-FA{slash}SD)*%
X183210200Y-102616000D02*
X186805800Y-102616000D01*
D32*
X182473600Y-101879400D02*
X183210200Y-102616000D01*
X186789800Y-102600000D02*
X186805800Y-102616000D01*
X182464200Y-98196400D02*
X182464200Y-101425314D01*
X182473600Y-101434714D02*
X182473600Y-101879400D01*
X182464200Y-101425314D02*
X182473600Y-101434714D01*
%TO.N,Net-(U2-FB)*%
X191755800Y-101346000D02*
X190346242Y-101346000D01*
X189611000Y-98196400D02*
X190744600Y-98196400D01*
X190346242Y-101346000D02*
X189611000Y-100610758D01*
X189611000Y-100610758D02*
X189611000Y-98196400D01*
X188604400Y-98196400D02*
X189611000Y-98196400D01*
D33*
%TO.N,/Power Supply/DCDC_IN*%
X184429400Y-103653500D02*
X184429400Y-104648000D01*
D34*
X178522620Y-104814380D02*
X178522620Y-102514400D01*
D33*
X186805800Y-104583000D02*
X186805800Y-103886000D01*
X182444300Y-103653500D02*
X181305200Y-102514400D01*
X184429400Y-103653500D02*
X182444300Y-103653500D01*
D34*
X177927000Y-109982000D02*
X177927000Y-106172000D01*
D33*
X184429400Y-104648000D02*
X184658000Y-104876600D01*
D34*
X178587400Y-110261400D02*
X178028600Y-110261400D01*
X177927000Y-105410000D02*
X178522620Y-104814380D01*
X178587400Y-110007400D02*
X178562000Y-109982000D01*
X185704600Y-116946800D02*
X183635400Y-116946800D01*
X175388322Y-108075678D02*
X175388322Y-103757678D01*
D33*
X186512200Y-104876600D02*
X186805800Y-104583000D01*
D34*
X178028600Y-110261400D02*
X178308000Y-109982000D01*
X177927000Y-106172000D02*
X177927000Y-105410000D01*
X178562000Y-102553780D02*
X178522620Y-102514400D01*
D33*
X181305200Y-102514400D02*
X178522620Y-102514400D01*
D34*
X175388322Y-103757678D02*
X176631600Y-102514400D01*
D33*
X184658000Y-104876600D02*
X186512200Y-104876600D01*
D34*
X176631600Y-102514400D02*
X178522620Y-102514400D01*
D33*
X184222300Y-103860600D02*
X184429400Y-103653500D01*
D32*
%TO.N,Net-(C5-Pad2)*%
X198116100Y-102095900D02*
X198120000Y-102092000D01*
X198120000Y-102612100D02*
X198116100Y-102616000D01*
X198120000Y-100695000D02*
X198120000Y-102612100D01*
%TO.N,Net-(D2-K)*%
X208001000Y-102540200D02*
X208001000Y-100203000D01*
X212122000Y-102082600D02*
X210515200Y-102082600D01*
X199872600Y-98272600D02*
X199059800Y-97459800D01*
X209524600Y-103073200D02*
X208534000Y-103073200D01*
D36*
X201701000Y-100203000D02*
X208001000Y-100203000D01*
D32*
X210515200Y-102082600D02*
X209524600Y-103073200D01*
D34*
X200126600Y-100203000D02*
X201701000Y-100203000D01*
D32*
X199872600Y-103784400D02*
X199872600Y-98272600D01*
X194564000Y-97459800D02*
X193827400Y-98196400D01*
D34*
X199771000Y-104267000D02*
X200660000Y-105156000D01*
X199771000Y-100558600D02*
X200126600Y-100203000D01*
D32*
X199059800Y-97459800D02*
X194564000Y-97459800D01*
X193827400Y-98196400D02*
X192744600Y-98196400D01*
X208534000Y-103073200D02*
X208001000Y-102540200D01*
D34*
X200660000Y-105156000D02*
X200660000Y-107696000D01*
X199771000Y-103886000D02*
X199771000Y-104267000D01*
X199771000Y-103886000D02*
X199771000Y-100558600D01*
D33*
%TO.N,Net-(D2-A)*%
X185547000Y-111760000D02*
X185801000Y-112014000D01*
X185547000Y-109982000D02*
X185547000Y-111760000D01*
X185801000Y-112014000D02*
X189389000Y-112014000D01*
X189331600Y-106736300D02*
X189331600Y-111956600D01*
X189331600Y-111956600D02*
X189389000Y-112014000D01*
D32*
%TO.N,GND_ISO*%
X189748301Y-118364000D02*
X189313910Y-118364000D01*
X189288510Y-118389400D02*
X187375800Y-118389400D01*
X187375800Y-118389400D02*
X186566900Y-118389400D01*
X189313910Y-118364000D02*
X189288510Y-118389400D01*
X186566900Y-118389400D02*
X186309000Y-118647300D01*
X188366000Y-118389400D02*
X187375800Y-118389400D01*
%TO.N,+5V_ISO*%
X186516100Y-120929400D02*
X186309000Y-120722300D01*
X183854900Y-120722300D02*
X183635400Y-120502800D01*
X188366000Y-120929400D02*
X186516100Y-120929400D01*
X186309000Y-120722300D02*
X183854900Y-120722300D01*
%TO.N,/+5V_RIO*%
X177525800Y-120502800D02*
X176098200Y-119075200D01*
X179635400Y-120502800D02*
X177525800Y-120502800D01*
X176098200Y-115646200D02*
X174498000Y-114046000D01*
X176098200Y-119075200D02*
X176098200Y-115646200D01*
%TO.N,Net-(U3-VO)*%
X188366000Y-119659400D02*
X189382400Y-119659400D01*
X189687200Y-119964200D02*
X189687200Y-121437400D01*
X177469800Y-122097800D02*
X176250600Y-120878600D01*
X189382400Y-119659400D02*
X189687200Y-119964200D01*
X176250600Y-120878600D02*
X175142400Y-120878600D01*
X189026800Y-122097800D02*
X177469800Y-122097800D01*
X189687200Y-121437400D02*
X189026800Y-122097800D01*
%TO.N,Net-(D5-K)*%
X209677000Y-121666000D02*
X209431425Y-121420425D01*
X209431425Y-121413825D02*
X209083400Y-121065800D01*
X209431425Y-121420425D02*
X209431425Y-121413825D01*
X211325000Y-119786400D02*
X210362800Y-119786400D01*
X209083400Y-121065800D02*
X207949800Y-121065800D01*
X205917800Y-121065800D02*
X205917800Y-121818400D01*
X205536800Y-122199400D02*
X197408800Y-122199400D01*
X197408800Y-122199400D02*
X197104000Y-121894600D01*
X197104000Y-121894600D02*
X197104000Y-121780800D01*
X197104000Y-121780800D02*
X197110600Y-121774200D01*
X205917800Y-121818400D02*
X205536800Y-122199400D01*
X205917800Y-121065800D02*
X207949800Y-121065800D01*
X210362800Y-119786400D02*
X209083400Y-121065800D01*
X197110600Y-121774200D02*
X197110600Y-120599200D01*
%TO.N,Net-(D5-A)*%
X210032600Y-118414800D02*
X209381600Y-119065800D01*
X212674200Y-120904000D02*
X212674200Y-119786400D01*
X212267800Y-118414800D02*
X210032600Y-118414800D01*
X212674200Y-118821200D02*
X212267800Y-118414800D01*
X210706700Y-122871500D02*
X212674200Y-120904000D01*
X193319400Y-121101216D02*
X195089684Y-122871500D01*
X209381600Y-119065800D02*
X207949800Y-119065800D01*
X193319400Y-118795800D02*
X193319400Y-121101216D01*
X195089684Y-122871500D02*
X210706700Y-122871500D01*
X212674200Y-119786400D02*
X212674200Y-118821200D01*
X193725800Y-118389400D02*
X193319400Y-118795800D01*
X214125000Y-119786400D02*
X212674200Y-119786400D01*
X194666000Y-118389400D02*
X193725800Y-118389400D01*
%TO.N,Net-(D7-K)*%
X194742200Y-121005600D02*
X194666000Y-120929400D01*
X195834000Y-118973600D02*
X201193400Y-118973600D01*
X194666000Y-120141600D02*
X195834000Y-118973600D01*
X201577200Y-121065800D02*
X201110600Y-120599200D01*
X203885800Y-121065800D02*
X201577200Y-121065800D01*
X201193400Y-120516400D02*
X201110600Y-120599200D01*
X201193400Y-118973600D02*
X201193400Y-120516400D01*
X194666000Y-120929400D02*
X194666000Y-120141600D01*
%TD*%
%TA.AperFunction,Conductor*%
%TO.N,Net-(D2-K)*%
G36*
X197885847Y-106142408D02*
G01*
X197952714Y-106162652D01*
X197998025Y-106215837D01*
X198007390Y-106285076D01*
X197997336Y-106316342D01*
X197997965Y-106316603D01*
X197996100Y-106321105D01*
X197942335Y-106486574D01*
X197915120Y-106658405D01*
X197915120Y-106832394D01*
X197942335Y-107004225D01*
X197996099Y-107169690D01*
X198075085Y-107324707D01*
X198177338Y-107465448D01*
X198177342Y-107465453D01*
X198300366Y-107588477D01*
X198300371Y-107588481D01*
X198423132Y-107677671D01*
X198441116Y-107690737D01*
X198596132Y-107769722D01*
X198721774Y-107810545D01*
X198761594Y-107823484D01*
X198933426Y-107850700D01*
X198933431Y-107850700D01*
X199107414Y-107850700D01*
X199279245Y-107823484D01*
X199444708Y-107769722D01*
X199599724Y-107690737D01*
X199740475Y-107588476D01*
X199863496Y-107465455D01*
X199965757Y-107324704D01*
X200044742Y-107169688D01*
X200098504Y-107004225D01*
X200125720Y-106832394D01*
X200125720Y-106658405D01*
X200098504Y-106486574D01*
X200045612Y-106323791D01*
X200043617Y-106253950D01*
X200079697Y-106194117D01*
X200142398Y-106163289D01*
X200164573Y-106161477D01*
X201299041Y-106170971D01*
X201365910Y-106191215D01*
X201411221Y-106244400D01*
X201422000Y-106294966D01*
X201422000Y-117196369D01*
X201402315Y-117263408D01*
X201349511Y-117309163D01*
X201298369Y-117320368D01*
X200116916Y-117323888D01*
X200049819Y-117304404D01*
X200003907Y-117251736D01*
X199993757Y-117182608D01*
X200017744Y-117124963D01*
X200059521Y-117069872D01*
X200115472Y-116927990D01*
X200126179Y-116838834D01*
X200126179Y-116499400D01*
X199333065Y-116499400D01*
X199341459Y-116491006D01*
X199394120Y-116399794D01*
X199421379Y-116298061D01*
X199421379Y-116192739D01*
X199394120Y-116091006D01*
X199341459Y-115999794D01*
X199333065Y-115991400D01*
X200126179Y-115991400D01*
X200126179Y-115651965D01*
X200115472Y-115562809D01*
X200059522Y-115420929D01*
X199967369Y-115299409D01*
X199845849Y-115207256D01*
X199703968Y-115151306D01*
X199703970Y-115151306D01*
X199614814Y-115140600D01*
X199275379Y-115140600D01*
X199275379Y-115933714D01*
X199266985Y-115925320D01*
X199175773Y-115872659D01*
X199074040Y-115845400D01*
X198968718Y-115845400D01*
X198866985Y-115872659D01*
X198775773Y-115925320D01*
X198767379Y-115933714D01*
X198767379Y-115140600D01*
X198427944Y-115140600D01*
X198338788Y-115151306D01*
X198196908Y-115207256D01*
X198075388Y-115299409D01*
X197983235Y-115420929D01*
X197927285Y-115562809D01*
X197916579Y-115651965D01*
X197916579Y-115991400D01*
X198709693Y-115991400D01*
X198701299Y-115999794D01*
X198648638Y-116091006D01*
X198621379Y-116192739D01*
X198621379Y-116298061D01*
X198648638Y-116399794D01*
X198701299Y-116491006D01*
X198709693Y-116499400D01*
X197916579Y-116499400D01*
X197916579Y-116838834D01*
X197927285Y-116927990D01*
X197983236Y-117069872D01*
X198029951Y-117131475D01*
X198054774Y-117196787D01*
X198040346Y-117265150D01*
X197991248Y-117314861D01*
X197931516Y-117330399D01*
X192148369Y-117347629D01*
X192081272Y-117328145D01*
X192035360Y-117275477D01*
X192024000Y-117223630D01*
X192024000Y-116854635D01*
X192043685Y-116787596D01*
X192096489Y-116741841D01*
X192165647Y-116731897D01*
X192193491Y-116739281D01*
X192256406Y-116764092D01*
X192256408Y-116764093D01*
X192345565Y-116774800D01*
X193135000Y-116774800D01*
X193643000Y-116774800D01*
X194432435Y-116774800D01*
X194521590Y-116764093D01*
X194663470Y-116708143D01*
X194784990Y-116615990D01*
X194877143Y-116494470D01*
X194933093Y-116352590D01*
X194943800Y-116263434D01*
X194943800Y-115824000D01*
X193643000Y-115824000D01*
X193643000Y-116774800D01*
X193135000Y-116774800D01*
X193135000Y-115316000D01*
X193643000Y-115316000D01*
X194943800Y-115316000D01*
X194943800Y-114876565D01*
X194933093Y-114787409D01*
X194877143Y-114645529D01*
X194784990Y-114524009D01*
X194663470Y-114431856D01*
X194521589Y-114375906D01*
X194521591Y-114375906D01*
X194432435Y-114365200D01*
X193643000Y-114365200D01*
X193643000Y-115316000D01*
X193135000Y-115316000D01*
X193135000Y-114365200D01*
X192345565Y-114365200D01*
X192256409Y-114375906D01*
X192193490Y-114400719D01*
X192123903Y-114407000D01*
X192061967Y-114374663D01*
X192027346Y-114313974D01*
X192024000Y-114285364D01*
X192024000Y-113658405D01*
X197916079Y-113658405D01*
X197916079Y-113832394D01*
X197943294Y-114004225D01*
X197983114Y-114126776D01*
X197997057Y-114169688D01*
X198055997Y-114285364D01*
X198076044Y-114324707D01*
X198178297Y-114465448D01*
X198178301Y-114465453D01*
X198301325Y-114588477D01*
X198301330Y-114588481D01*
X198379851Y-114645529D01*
X198442075Y-114690737D01*
X198597091Y-114769722D01*
X198722733Y-114810545D01*
X198762553Y-114823484D01*
X198934385Y-114850700D01*
X198934390Y-114850700D01*
X199108373Y-114850700D01*
X199280204Y-114823484D01*
X199445667Y-114769722D01*
X199600683Y-114690737D01*
X199741434Y-114588476D01*
X199864455Y-114465455D01*
X199966716Y-114324704D01*
X200045701Y-114169688D01*
X200099463Y-114004225D01*
X200126679Y-113832394D01*
X200126679Y-113658405D01*
X200099463Y-113486574D01*
X200086524Y-113446754D01*
X200045701Y-113321112D01*
X199966716Y-113166096D01*
X199889626Y-113059990D01*
X199864460Y-113025351D01*
X199864456Y-113025346D01*
X199741432Y-112902322D01*
X199741427Y-112902318D01*
X199600686Y-112800065D01*
X199600685Y-112800064D01*
X199600683Y-112800063D01*
X199445667Y-112721078D01*
X199402755Y-112707135D01*
X199280204Y-112667315D01*
X199108373Y-112640100D01*
X199108368Y-112640100D01*
X198934390Y-112640100D01*
X198934385Y-112640100D01*
X198762553Y-112667315D01*
X198597088Y-112721079D01*
X198442071Y-112800065D01*
X198301330Y-112902318D01*
X198301325Y-112902322D01*
X198178301Y-113025346D01*
X198178297Y-113025351D01*
X198076044Y-113166092D01*
X197997058Y-113321109D01*
X197943294Y-113486574D01*
X197916079Y-113658405D01*
X192024000Y-113658405D01*
X192024000Y-113298635D01*
X192043685Y-113231596D01*
X192096489Y-113185841D01*
X192165647Y-113175897D01*
X192193491Y-113183281D01*
X192256406Y-113208092D01*
X192256408Y-113208093D01*
X192345565Y-113218800D01*
X193135000Y-113218800D01*
X193643000Y-113218800D01*
X194432435Y-113218800D01*
X194521590Y-113208093D01*
X194663470Y-113152143D01*
X194784990Y-113059990D01*
X194877143Y-112938470D01*
X194933093Y-112796590D01*
X194943800Y-112707434D01*
X194943800Y-112268000D01*
X193643000Y-112268000D01*
X193643000Y-113218800D01*
X193135000Y-113218800D01*
X193135000Y-111760000D01*
X193643000Y-111760000D01*
X194943800Y-111760000D01*
X194943800Y-111320565D01*
X194933093Y-111231409D01*
X194877143Y-111089529D01*
X194784990Y-110968009D01*
X194663470Y-110875856D01*
X194521589Y-110819906D01*
X194521591Y-110819906D01*
X194432435Y-110809200D01*
X193643000Y-110809200D01*
X193643000Y-111760000D01*
X193135000Y-111760000D01*
X193135000Y-110809200D01*
X192636747Y-110809200D01*
X192569708Y-110789515D01*
X192523953Y-110736711D01*
X192514009Y-110667553D01*
X192543034Y-110603997D01*
X192600280Y-110566683D01*
X195326000Y-109728000D01*
X195333578Y-108651965D01*
X197915620Y-108651965D01*
X197915620Y-108991400D01*
X198708734Y-108991400D01*
X198700340Y-108999794D01*
X198647679Y-109091006D01*
X198620420Y-109192739D01*
X198620420Y-109298061D01*
X198647679Y-109399794D01*
X198700340Y-109491006D01*
X198708734Y-109499400D01*
X197915620Y-109499400D01*
X197915620Y-109838834D01*
X197926326Y-109927990D01*
X197982276Y-110069870D01*
X198074429Y-110191390D01*
X198195949Y-110283543D01*
X198337830Y-110339493D01*
X198337828Y-110339493D01*
X198426985Y-110350200D01*
X198766420Y-110350200D01*
X198766420Y-109557086D01*
X198774814Y-109565480D01*
X198866026Y-109618141D01*
X198967759Y-109645400D01*
X199073081Y-109645400D01*
X199174814Y-109618141D01*
X199266026Y-109565480D01*
X199274420Y-109557086D01*
X199274420Y-110350200D01*
X199613855Y-110350200D01*
X199703010Y-110339493D01*
X199844890Y-110283543D01*
X199966410Y-110191390D01*
X200058563Y-110069870D01*
X200114513Y-109927990D01*
X200125220Y-109838834D01*
X200125220Y-109499400D01*
X199332106Y-109499400D01*
X199340500Y-109491006D01*
X199393161Y-109399794D01*
X199420420Y-109298061D01*
X199420420Y-109192739D01*
X199393161Y-109091006D01*
X199340500Y-108999794D01*
X199332106Y-108991400D01*
X200125220Y-108991400D01*
X200125220Y-108651965D01*
X200114513Y-108562809D01*
X200058563Y-108420929D01*
X199966410Y-108299409D01*
X199844890Y-108207256D01*
X199703009Y-108151306D01*
X199703011Y-108151306D01*
X199613855Y-108140600D01*
X199274420Y-108140600D01*
X199274420Y-108933714D01*
X199266026Y-108925320D01*
X199174814Y-108872659D01*
X199073081Y-108845400D01*
X198967759Y-108845400D01*
X198866026Y-108872659D01*
X198774814Y-108925320D01*
X198766420Y-108933714D01*
X198766420Y-108140600D01*
X198426985Y-108140600D01*
X198337829Y-108151306D01*
X198195949Y-108207256D01*
X198074429Y-108299409D01*
X197982276Y-108420929D01*
X197926326Y-108562809D01*
X197915620Y-108651965D01*
X195333578Y-108651965D01*
X195350525Y-106245358D01*
X195370681Y-106178462D01*
X195423806Y-106133080D01*
X195475555Y-106122238D01*
X197885847Y-106142408D01*
G37*
%TD.AperFunction*%
%TD*%
M02*
