M48
; DRILL file {KiCad 9.0.7-9.0.7~ubuntu24.04.1} date 2026-01-04T23:11:15-0800
; FORMAT={-:-/ absolute / metric / decimal}
; #@! TF.CreationDate,2026-01-04T23:11:15-08:00
; #@! TF.GenerationSoftware,Kicad,Pcbnew,9.0.7-9.0.7~ubuntu24.04.1
; #@! TF.FileFunction,MixedPlating,1,2
FMAT,2
METRIC
; #@! TA.AperFunction,Plated,PTH,ViaDrill
T1C0.508
; #@! TA.AperFunction,Plated,PTH,ComponentDrill
T2C0.800
; #@! TA.AperFunction,Plated,PTH,ComponentDrill
T3C1.067
; #@! TA.AperFunction,Plated,PTH,ComponentDrill
T4C1.092
; #@! TA.AperFunction,Plated,PTH,ComponentDrill
T5C1.100
; #@! TA.AperFunction,NonPlated,NPTH,ComponentDrill
T6C1.500
; #@! TA.AperFunction,NonPlated,NPTH,ComponentDrill
T7C3.400
%
G90
G05
T1
X171.704Y-111.531
X177.419Y-118.325
X178.587Y-114.376
X182.372Y-108.61
X182.372Y-111.354
X185.522Y-97.079
X185.928Y-115.824
X187.655Y-117.094
X189.433Y-102.184
X189.738Y-118.389
X191.973Y-105.639
X194.081Y-100.076
X201.193Y-118.974
X203.505Y-97.892
X204.521Y-117.475
X209.431Y-121.878
X209.931Y-99.67
T2
X178.523Y-100.014
X178.523Y-102.514
X198.385Y-106.745
X198.385Y-109.245
X198.386Y-113.745
X198.386Y-116.245
T3
X175.768Y-111.506
X175.768Y-114.046
X175.768Y-116.586
T4
X203.149Y-107.188
X203.149Y-109.728
X203.149Y-112.268
X203.149Y-114.808
T5
X165.781Y-100.878
X165.806Y-105.878
X172.806Y-100.878
X172.806Y-105.878
T6
X168.504Y-122.174
X169.774Y-97.282
X214.605Y-97.282
X214.605Y-110.998
X214.605Y-122.174
T7
X167.128Y-110.106
X167.128Y-117.986
X211.789Y-105.788
X211.789Y-116.208
M30
