M48
; DRILL file {KiCad 9.0.7-9.0.7~ubuntu24.04.1} date 2026-01-24T21:38:09-0800
; FORMAT={-:-/ absolute / metric / decimal}
; #@! TF.CreationDate,2026-01-24T21:38:09-08:00
; #@! TF.GenerationSoftware,Kicad,Pcbnew,9.0.7-9.0.7~ubuntu24.04.1
; #@! TF.FileFunction,MixedPlating,1,2
FMAT,2
METRIC
; #@! TA.AperFunction,Plated,PTH,ViaDrill
T1C0.508
; #@! TA.AperFunction,Plated,PTH,ComponentDrill
T2C0.800
; #@! TA.AperFunction,Plated,PTH,ComponentDrill
T3C1.067
; #@! TA.AperFunction,Plated,PTH,ComponentDrill
T4C1.092
; #@! TA.AperFunction,Plated,PTH,ComponentDrill
T5C1.100
; #@! TA.AperFunction,NonPlated,NPTH,ComponentDrill
T6C1.500
; #@! TA.AperFunction,NonPlated,NPTH,ComponentDrill
T7C3.400
%
G90
G05
T1
X175.388Y-108.076
X177.292Y-116.967
X181.737Y-108.61
X181.737Y-111.354
X185.522Y-97.079
X185.705Y-116.947
X187.655Y-117.094
X189.433Y-102.184
X189.748Y-118.364
X192.075Y-105.664
X194.081Y-100.076
X201.193Y-118.974
X203.505Y-97.892
X204.749Y-117.399
X209.677Y-121.666
X209.931Y-99.67
T2
X178.523Y-100.014
X178.523Y-102.514
X199.02Y-106.745
X199.02Y-109.245
X199.021Y-113.745
X199.021Y-116.245
T3
X174.498Y-111.506
X174.498Y-114.046
X174.498Y-116.586
T4
X204.419Y-107.188
X204.419Y-109.728
X204.419Y-112.268
X204.419Y-114.808
T5
X164.511Y-100.878
X164.536Y-105.878
X171.536Y-100.878
X171.536Y-105.878
T6
X167.234Y-122.174
X168.504Y-97.282
X215.875Y-97.282
X215.875Y-110.998
X215.875Y-122.174
T7
X165.858Y-110.106
X165.858Y-117.986
X213.059Y-105.788
X213.059Y-116.208
M30
