M48
; DRILL file {KiCad 9.0.7-9.0.7~ubuntu24.04.1} date 2026-01-02T10:48:07-0800
; FORMAT={-:-/ absolute / metric / decimal}
; #@! TF.CreationDate,2026-01-02T10:48:07-08:00
; #@! TF.GenerationSoftware,Kicad,Pcbnew,9.0.7-9.0.7~ubuntu24.04.1
; #@! TF.FileFunction,MixedPlating,1,2
FMAT,2
METRIC
; #@! TA.AperFunction,Plated,PTH,ViaDrill
T1C0.508
; #@! TA.AperFunction,Plated,PTH,ComponentDrill
T2C0.800
; #@! TA.AperFunction,Plated,PTH,ComponentDrill
T3C1.067
; #@! TA.AperFunction,Plated,PTH,ComponentDrill
T4C1.100
; #@! TA.AperFunction,NonPlated,NPTH,ComponentDrill
T5C1.500
; #@! TA.AperFunction,NonPlated,NPTH,ComponentDrill
T6C3.400
%
G90
G05
T1
X182.118Y-108.61
X182.118Y-111.354
X185.522Y-97.079
X189.433Y-102.184
X191.922Y-105.664
X194.081Y-100.076
X194.894Y-118.897
X200.711Y-118.567
X203.581Y-98.146
X209.321Y-121.718
X209.804Y-101.473
T2
X176.745Y-101.244
X179.245Y-101.244
X197.242Y-108.483
X197.243Y-115.483
X199.742Y-108.483
X199.743Y-115.483
T3
X175.773Y-115.57
X175.773Y-118.11
X203.149Y-107.188
X203.149Y-109.728
X203.149Y-112.268
T4
X165.781Y-100.878
X165.806Y-105.878
X172.806Y-100.878
X172.806Y-105.878
T5
X169.774Y-97.942
X170.053Y-122.199
X214.325Y-121.92
X214.452Y-97.434
T6
X167.133Y-114.17
X167.133Y-119.51
X211.789Y-105.788
X211.789Y-113.668
M30
