%TF.GenerationSoftware,KiCad,Pcbnew,9.0.7-9.0.7~ubuntu24.04.1*%
%TF.CreationDate,2026-01-04T20:32:20-08:00*%
%TF.ProjectId,BeamBreak-v1,4265616d-4272-4656-916b-2d76312e6b69,1*%
%TF.SameCoordinates,Original*%
%TF.FileFunction,Copper,L2,Bot*%
%TF.FilePolarity,Positive*%
%FSLAX46Y46*%
G04 Gerber Fmt 4.6, Leading zero omitted, Abs format (unit mm)*
G04 Created by KiCad (PCBNEW 9.0.7-9.0.7~ubuntu24.04.1) date 2026-01-04 20:32:20*
%MOMM*%
%LPD*%
G01*
G04 APERTURE LIST*
G04 Aperture macros list*
%AMRoundRect*
0 Rectangle with rounded corners*
0 $1 Rounding radius*
0 $2 $3 $4 $5 $6 $7 $8 $9 X,Y pos of 4 corners*
0 Add a 4 corners polygon primitive as box body*
4,1,4,$2,$3,$4,$5,$6,$7,$8,$9,$2,$3,0*
0 Add four circle primitives for the rounded corners*
1,1,$1+$1,$2,$3*
1,1,$1+$1,$4,$5*
1,1,$1+$1,$6,$7*
1,1,$1+$1,$8,$9*
0 Add four rect primitives between the rounded corners*
20,1,$1+$1,$2,$3,$4,$5,0*
20,1,$1+$1,$4,$5,$6,$7,0*
20,1,$1+$1,$6,$7,$8,$9,0*
20,1,$1+$1,$8,$9,$2,$3,0*%
G04 Aperture macros list end*
%TA.AperFunction,ComponentPad*%
%ADD10RoundRect,0.250000X-0.550000X-0.550000X0.550000X-0.550000X0.550000X0.550000X-0.550000X0.550000X0*%
%TD*%
%TA.AperFunction,ComponentPad*%
%ADD11C,1.600000*%
%TD*%
%TA.AperFunction,ComponentPad*%
%ADD12R,1.778000X1.778000*%
%TD*%
%TA.AperFunction,ComponentPad*%
%ADD13C,1.778000*%
%TD*%
%TA.AperFunction,ComponentPad*%
%ADD14C,2.200000*%
%TD*%
%TA.AperFunction,ComponentPad*%
%ADD15C,1.905000*%
%TD*%
%TA.AperFunction,ViaPad*%
%ADD16C,0.889000*%
%TD*%
%TA.AperFunction,Conductor*%
%ADD17C,0.381000*%
%TD*%
%TA.AperFunction,Conductor*%
%ADD18C,0.762000*%
%TD*%
G04 APERTURE END LIST*
D10*
%TO.P,C7,1*%
%TO.N,Net-(D3-K)*%
X197116379Y-114975400D03*
D11*
%TO.P,C7,2*%
%TO.N,GND*%
X199616379Y-114975400D03*
%TD*%
D12*
%TO.P,J2,1,Pin_1*%
%TO.N,GND*%
X203149200Y-107188000D03*
D13*
%TO.P,J2,2,Pin_2*%
%TO.N,+12V*%
X203149200Y-109728000D03*
%TO.P,J2,3,Pin_3*%
%TO.N,/SIG*%
X203149200Y-112268000D03*
%TO.P,J2,4,Pin_4*%
%TO.N,unconnected-(J2-Pin_4-Pad4)*%
X203149200Y-114808000D03*
%TD*%
D14*
%TO.P,J1,1,Pin_1*%
%TO.N,GND*%
X172806000Y-100878000D03*
X165780600Y-100878000D03*
%TO.P,J1,2,Pin_2*%
%TO.N,/Power Supply/DCIN*%
X172806000Y-105878000D03*
X165806000Y-105878000D03*
%TD*%
D10*
%TO.P,C2,1*%
%TO.N,/Power Supply/DCDC_IN*%
X176744620Y-101244400D03*
D11*
%TO.P,C2,2*%
%TO.N,GND*%
X179244620Y-101244400D03*
%TD*%
D12*
%TO.P,J3,1,Pin_1*%
%TO.N,GND_ISO*%
X175768000Y-116586000D03*
D15*
%TO.P,J3,2,Pin_2*%
%TO.N,/+5V_RIO*%
X175768000Y-114046000D03*
D13*
%TO.P,J3,3,Pin_3*%
%TO.N,/DIO_RIO*%
X175768000Y-111506000D03*
%TD*%
D10*
%TO.P,C6,1*%
%TO.N,Net-(D3-K)*%
X197115420Y-107975400D03*
D11*
%TO.P,C6,2*%
%TO.N,GND*%
X199615420Y-107975400D03*
%TD*%
D16*
%TO.N,GND*%
X191922400Y-105664000D03*
X189433200Y-102183724D03*
X203504800Y-118186200D03*
X182245000Y-108610400D03*
X182245000Y-111353600D03*
X203504800Y-97891600D03*
X185521600Y-97078800D03*
X194081400Y-100076000D03*
X212674200Y-100279200D03*
%TO.N,+12V*%
X202133200Y-121589800D03*
%TO.N,/Power Supply/DCIN*%
X177419000Y-118324900D03*
X187655200Y-117094000D03*
%TO.N,/DIO_RIO*%
X171704000Y-111531400D03*
%TO.N,/SIG*%
X209188082Y-118065518D03*
X206617462Y-115329862D03*
%TO.N,Net-(D1-A)*%
X209086482Y-111093282D03*
X210362800Y-112369600D03*
%TO.N,Net-(D6-A)*%
X197865000Y-121015040D03*
X212598000Y-119684800D03*
%TO.N,/Power Supply/DCDC_IN*%
X179197000Y-113538000D03*
X185928000Y-115824000D03*
%TO.N,Net-(D1-K)*%
X201244200Y-117754400D03*
X198754000Y-121905040D03*
%TO.N,GND_ISO*%
X189738000Y-118389400D03*
%TD*%
D17*
%TO.N,+12V*%
X204749400Y-111328200D02*
X203149200Y-109728000D01*
X202133200Y-121589800D02*
X204749400Y-118973600D01*
X204749400Y-118973600D02*
X204749400Y-111328200D01*
D18*
%TO.N,/Power Supply/DCIN*%
X177419000Y-118324900D02*
X178093100Y-118999000D01*
X185750200Y-118999000D02*
X187655200Y-117094000D01*
X178093100Y-118999000D02*
X185750200Y-118999000D01*
D17*
%TO.N,/DIO_RIO*%
X171704000Y-111531400D02*
X171729400Y-111506000D01*
X171729400Y-111506000D02*
X175768000Y-111506000D01*
%TO.N,/SIG*%
X209188082Y-117900482D02*
X206617462Y-115329862D01*
X209188082Y-118065518D02*
X209188082Y-117900482D01*
%TO.N,Net-(D1-A)*%
X209086482Y-111093282D02*
X210362800Y-112369600D01*
%TO.N,Net-(D6-A)*%
X209411300Y-122871500D02*
X212598000Y-119684800D01*
X197865000Y-121015040D02*
X197865000Y-122300000D01*
X198436500Y-122871500D02*
X209411300Y-122871500D01*
X197865000Y-122300000D02*
X198436500Y-122871500D01*
D18*
%TO.N,/Power Supply/DCDC_IN*%
X180594000Y-116459000D02*
X185293000Y-116459000D01*
X185293000Y-116459000D02*
X185928000Y-115824000D01*
X179197000Y-115062000D02*
X180594000Y-116459000D01*
X179197000Y-115062000D02*
X179197000Y-113538000D01*
D17*
%TO.N,Net-(D1-K)*%
X200279000Y-121132600D02*
X201244200Y-120167400D01*
X201244200Y-120167400D02*
X201244200Y-117754400D01*
X199481160Y-121905040D02*
X200253600Y-121132600D01*
X198754000Y-121905040D02*
X199481160Y-121905040D01*
X200253600Y-121132600D02*
X200279000Y-121132600D01*
%TO.N,GND_ISO*%
X189738000Y-118389400D02*
X189636400Y-118389400D01*
X189636400Y-118389400D02*
X188010800Y-120015000D01*
X177419000Y-120015000D02*
X175768000Y-118364000D01*
X175768000Y-118364000D02*
X175768000Y-116586000D01*
X188010800Y-120015000D02*
X177419000Y-120015000D01*
%TD*%
%TA.AperFunction,Conductor*%
%TO.N,GND*%
G36*
X214865522Y-96394279D02*
G01*
X214985909Y-96407844D01*
X215012965Y-96414018D01*
X215120721Y-96451723D01*
X215145723Y-96463764D01*
X215242375Y-96524495D01*
X215264084Y-96541808D01*
X215344791Y-96622515D01*
X215362104Y-96644224D01*
X215422833Y-96740873D01*
X215434877Y-96765882D01*
X215472579Y-96873627D01*
X215478756Y-96900693D01*
X215492320Y-97021076D01*
X215493100Y-97034960D01*
X215493100Y-122421039D01*
X215492320Y-122434923D01*
X215478756Y-122555306D01*
X215472578Y-122582374D01*
X215434878Y-122690113D01*
X215422833Y-122715126D01*
X215362104Y-122811775D01*
X215344791Y-122833484D01*
X215264084Y-122914191D01*
X215242375Y-122931504D01*
X215145726Y-122992233D01*
X215120713Y-123004278D01*
X215012974Y-123041978D01*
X214985906Y-123048156D01*
X214900704Y-123057756D01*
X214865521Y-123061720D01*
X214851640Y-123062500D01*
X210220830Y-123062500D01*
X210153791Y-123042815D01*
X210108036Y-122990011D01*
X210098092Y-122920853D01*
X210127117Y-122857297D01*
X210133149Y-122850819D01*
X212513048Y-120470919D01*
X212574371Y-120437434D01*
X212600729Y-120434600D01*
X212671850Y-120434600D01*
X212671851Y-120434599D01*
X212816709Y-120405786D01*
X212953164Y-120349264D01*
X213075970Y-120267208D01*
X213180408Y-120162770D01*
X213262464Y-120039964D01*
X213318986Y-119903509D01*
X213347800Y-119758649D01*
X213347800Y-119610951D01*
X213318986Y-119466091D01*
X213262464Y-119329636D01*
X213262462Y-119329633D01*
X213262460Y-119329629D01*
X213180408Y-119206830D01*
X213180405Y-119206826D01*
X213075973Y-119102394D01*
X213075969Y-119102391D01*
X212953170Y-119020339D01*
X212953160Y-119020334D01*
X212816709Y-118963814D01*
X212816701Y-118963812D01*
X212671853Y-118935000D01*
X212671849Y-118935000D01*
X212524151Y-118935000D01*
X212524146Y-118935000D01*
X212379298Y-118963812D01*
X212379290Y-118963814D01*
X212242839Y-119020334D01*
X212242829Y-119020339D01*
X212120030Y-119102391D01*
X212120026Y-119102394D01*
X212015594Y-119206826D01*
X212015591Y-119206830D01*
X211933539Y-119329629D01*
X211933534Y-119329639D01*
X211877014Y-119466090D01*
X211877012Y-119466098D01*
X211848200Y-119610946D01*
X211848200Y-119682070D01*
X211828515Y-119749109D01*
X211811881Y-119769751D01*
X209242251Y-122339381D01*
X209180928Y-122372866D01*
X209154570Y-122375700D01*
X202707041Y-122375700D01*
X202640002Y-122356015D01*
X202594247Y-122303211D01*
X202584303Y-122234053D01*
X202613328Y-122170497D01*
X202619360Y-122164019D01*
X202715605Y-122067773D01*
X202715608Y-122067770D01*
X202797664Y-121944964D01*
X202854186Y-121808509D01*
X202883000Y-121663649D01*
X202883000Y-121592529D01*
X202902685Y-121525490D01*
X202919319Y-121504848D01*
X204018382Y-120405785D01*
X205146139Y-119278028D01*
X205211413Y-119164971D01*
X205245200Y-119038873D01*
X205245200Y-118908326D01*
X205245200Y-115256008D01*
X205867662Y-115256008D01*
X205867662Y-115403715D01*
X205896474Y-115548563D01*
X205896476Y-115548571D01*
X205952996Y-115685022D01*
X205953001Y-115685032D01*
X206035053Y-115807831D01*
X206035056Y-115807835D01*
X206139488Y-115912267D01*
X206139492Y-115912270D01*
X206262291Y-115994322D01*
X206262295Y-115994324D01*
X206262298Y-115994326D01*
X206398753Y-116050848D01*
X206494958Y-116069984D01*
X206543608Y-116079661D01*
X206543612Y-116079662D01*
X206543613Y-116079662D01*
X206614732Y-116079662D01*
X206681771Y-116099347D01*
X206702413Y-116115981D01*
X208414612Y-117828179D01*
X208448097Y-117889502D01*
X208448549Y-117940049D01*
X208438282Y-117991669D01*
X208438282Y-118139371D01*
X208467094Y-118284219D01*
X208467096Y-118284227D01*
X208523616Y-118420678D01*
X208523621Y-118420688D01*
X208605673Y-118543487D01*
X208605676Y-118543491D01*
X208710108Y-118647923D01*
X208710112Y-118647926D01*
X208832911Y-118729978D01*
X208832915Y-118729980D01*
X208832918Y-118729982D01*
X208969373Y-118786504D01*
X209114228Y-118815317D01*
X209114232Y-118815318D01*
X209114233Y-118815318D01*
X209261932Y-118815318D01*
X209261933Y-118815317D01*
X209406791Y-118786504D01*
X209543246Y-118729982D01*
X209666052Y-118647926D01*
X209770490Y-118543488D01*
X209852546Y-118420682D01*
X209909068Y-118284227D01*
X209937882Y-118139367D01*
X209937882Y-117991669D01*
X209909068Y-117846809D01*
X209852546Y-117710354D01*
X209852544Y-117710351D01*
X209852542Y-117710347D01*
X209770490Y-117587548D01*
X209770487Y-117587544D01*
X209666055Y-117483112D01*
X209666051Y-117483109D01*
X209543252Y-117401057D01*
X209543242Y-117401052D01*
X209406791Y-117344532D01*
X209351942Y-117333622D01*
X209290032Y-117301238D01*
X209288453Y-117299686D01*
X208152285Y-116163517D01*
X208068669Y-116079901D01*
X209834700Y-116079901D01*
X209834700Y-116336098D01*
X209834701Y-116336114D01*
X209868141Y-116590120D01*
X209934453Y-116837600D01*
X210032495Y-117074296D01*
X210032502Y-117074311D01*
X210160604Y-117296191D01*
X210316574Y-117499455D01*
X210316580Y-117499462D01*
X210497737Y-117680619D01*
X210497744Y-117680625D01*
X210701008Y-117836595D01*
X210922888Y-117964697D01*
X210922903Y-117964704D01*
X210988003Y-117991669D01*
X211159598Y-118062746D01*
X211407078Y-118129058D01*
X211661095Y-118162500D01*
X211661102Y-118162500D01*
X211917298Y-118162500D01*
X211917305Y-118162500D01*
X212171322Y-118129058D01*
X212418802Y-118062746D01*
X212655508Y-117964699D01*
X212877392Y-117836595D01*
X213080657Y-117680624D01*
X213261824Y-117499457D01*
X213417795Y-117296192D01*
X213545899Y-117074308D01*
X213643946Y-116837602D01*
X213710258Y-116590122D01*
X213743700Y-116336105D01*
X213743700Y-116079895D01*
X213710258Y-115825878D01*
X213643946Y-115578398D01*
X213586937Y-115440766D01*
X213545904Y-115341703D01*
X213545897Y-115341688D01*
X213417795Y-115119808D01*
X213261825Y-114916544D01*
X213261819Y-114916537D01*
X213080662Y-114735380D01*
X213080655Y-114735374D01*
X212877391Y-114579404D01*
X212655511Y-114451302D01*
X212655496Y-114451295D01*
X212418800Y-114353253D01*
X212171320Y-114286941D01*
X211917314Y-114253501D01*
X211917311Y-114253500D01*
X211917305Y-114253500D01*
X211661095Y-114253500D01*
X211661089Y-114253500D01*
X211661085Y-114253501D01*
X211407079Y-114286941D01*
X211159599Y-114353253D01*
X210922903Y-114451295D01*
X210922888Y-114451302D01*
X210701008Y-114579404D01*
X210497744Y-114735374D01*
X210497737Y-114735380D01*
X210316580Y-114916537D01*
X210316574Y-114916544D01*
X210160604Y-115119808D01*
X210032502Y-115341688D01*
X210032495Y-115341703D01*
X209934453Y-115578399D01*
X209868141Y-115825879D01*
X209834701Y-116079885D01*
X209834700Y-116079901D01*
X208068669Y-116079901D01*
X207403581Y-115414813D01*
X207370096Y-115353490D01*
X207367262Y-115327132D01*
X207367262Y-115256012D01*
X207367261Y-115256008D01*
X207338448Y-115111153D01*
X207281926Y-114974698D01*
X207281924Y-114974695D01*
X207281922Y-114974691D01*
X207199870Y-114851892D01*
X207199867Y-114851888D01*
X207095435Y-114747456D01*
X207095431Y-114747453D01*
X206972632Y-114665401D01*
X206972622Y-114665396D01*
X206836171Y-114608876D01*
X206836163Y-114608874D01*
X206691315Y-114580062D01*
X206691311Y-114580062D01*
X206543613Y-114580062D01*
X206543608Y-114580062D01*
X206398760Y-114608874D01*
X206398752Y-114608876D01*
X206262301Y-114665396D01*
X206262291Y-114665401D01*
X206139492Y-114747453D01*
X206139488Y-114747456D01*
X206035056Y-114851888D01*
X206035053Y-114851892D01*
X205953001Y-114974691D01*
X205952996Y-114974701D01*
X205896476Y-115111152D01*
X205896474Y-115111160D01*
X205867662Y-115256008D01*
X205245200Y-115256008D01*
X205245200Y-111262927D01*
X205225119Y-111187982D01*
X205211413Y-111136829D01*
X205146139Y-111023772D01*
X205141795Y-111019428D01*
X208336682Y-111019428D01*
X208336682Y-111167135D01*
X208365494Y-111311983D01*
X208365496Y-111311991D01*
X208422016Y-111448442D01*
X208422021Y-111448452D01*
X208504073Y-111571251D01*
X208504076Y-111571255D01*
X208608508Y-111675687D01*
X208608512Y-111675690D01*
X208731311Y-111757742D01*
X208731315Y-111757744D01*
X208731318Y-111757746D01*
X208867773Y-111814268D01*
X209012628Y-111843081D01*
X209012632Y-111843082D01*
X209012633Y-111843082D01*
X209083752Y-111843082D01*
X209150791Y-111862767D01*
X209171433Y-111879401D01*
X209576681Y-112284648D01*
X209610166Y-112345971D01*
X209613000Y-112372329D01*
X209613000Y-112443453D01*
X209641812Y-112588301D01*
X209641814Y-112588309D01*
X209698334Y-112724760D01*
X209698339Y-112724770D01*
X209780391Y-112847569D01*
X209780394Y-112847573D01*
X209884826Y-112952005D01*
X209884830Y-112952008D01*
X210007629Y-113034060D01*
X210007633Y-113034062D01*
X210007636Y-113034064D01*
X210144091Y-113090586D01*
X210288946Y-113119399D01*
X210288950Y-113119400D01*
X210288951Y-113119400D01*
X210436650Y-113119400D01*
X210436651Y-113119399D01*
X210581509Y-113090586D01*
X210717964Y-113034064D01*
X210840770Y-112952008D01*
X210945208Y-112847570D01*
X211027264Y-112724764D01*
X211083786Y-112588309D01*
X211112600Y-112443449D01*
X211112600Y-112295751D01*
X211083786Y-112150891D01*
X211027264Y-112014436D01*
X211027262Y-112014433D01*
X211027260Y-112014429D01*
X210945208Y-111891630D01*
X210945205Y-111891626D01*
X210840773Y-111787194D01*
X210840769Y-111787191D01*
X210717970Y-111705139D01*
X210717960Y-111705134D01*
X210581509Y-111648614D01*
X210581501Y-111648612D01*
X210436653Y-111619800D01*
X210436649Y-111619800D01*
X210365529Y-111619800D01*
X210298490Y-111600115D01*
X210277848Y-111583481D01*
X209872601Y-111178233D01*
X209861175Y-111157308D01*
X209846076Y-111138853D01*
X209843109Y-111124223D01*
X209839116Y-111116910D01*
X209837094Y-111104721D01*
X209836282Y-111097661D01*
X209836282Y-111096937D01*
X212944699Y-111096937D01*
X212983301Y-111290996D01*
X212983304Y-111291006D01*
X213059020Y-111473802D01*
X213059027Y-111473815D01*
X213168953Y-111638330D01*
X213168956Y-111638334D01*
X213308865Y-111778243D01*
X213308869Y-111778246D01*
X213473384Y-111888172D01*
X213473397Y-111888179D01*
X213648591Y-111960746D01*
X213656198Y-111963897D01*
X213656202Y-111963897D01*
X213656203Y-111963898D01*
X213850262Y-112002500D01*
X213850265Y-112002500D01*
X214048137Y-112002500D01*
X214178695Y-111976529D01*
X214242202Y-111963897D01*
X214425009Y-111888176D01*
X214589531Y-111778246D01*
X214729446Y-111638331D01*
X214839376Y-111473809D01*
X214915097Y-111291002D01*
X214945362Y-111138853D01*
X214953700Y-111096937D01*
X214953700Y-110899062D01*
X214915098Y-110705003D01*
X214915097Y-110705002D01*
X214915097Y-110704998D01*
X214887744Y-110638961D01*
X214839379Y-110522197D01*
X214839372Y-110522184D01*
X214729446Y-110357669D01*
X214729443Y-110357665D01*
X214589534Y-110217756D01*
X214589530Y-110217753D01*
X214425015Y-110107827D01*
X214425002Y-110107820D01*
X214242206Y-110032104D01*
X214242196Y-110032101D01*
X214048137Y-109993500D01*
X214048135Y-109993500D01*
X213850265Y-109993500D01*
X213850263Y-109993500D01*
X213656203Y-110032101D01*
X213656193Y-110032104D01*
X213473397Y-110107820D01*
X213473384Y-110107827D01*
X213308869Y-110217753D01*
X213308865Y-110217756D01*
X213168956Y-110357665D01*
X213168953Y-110357669D01*
X213059027Y-110522184D01*
X213059020Y-110522197D01*
X212983304Y-110704993D01*
X212983301Y-110705003D01*
X212944700Y-110899062D01*
X212944700Y-110899065D01*
X212944700Y-111096935D01*
X212944700Y-111096937D01*
X212944699Y-111096937D01*
X209836282Y-111096937D01*
X209836282Y-111019433D01*
X209807468Y-110874573D01*
X209750946Y-110738118D01*
X209750944Y-110738115D01*
X209750942Y-110738111D01*
X209668890Y-110615312D01*
X209668887Y-110615308D01*
X209564455Y-110510876D01*
X209564451Y-110510873D01*
X209441652Y-110428821D01*
X209441642Y-110428816D01*
X209305191Y-110372296D01*
X209305183Y-110372294D01*
X209160335Y-110343482D01*
X209160331Y-110343482D01*
X209012633Y-110343482D01*
X209012628Y-110343482D01*
X208867780Y-110372294D01*
X208867772Y-110372296D01*
X208731321Y-110428816D01*
X208731311Y-110428821D01*
X208608512Y-110510873D01*
X208608508Y-110510876D01*
X208504076Y-110615308D01*
X208504073Y-110615312D01*
X208422021Y-110738111D01*
X208422016Y-110738121D01*
X208365496Y-110874572D01*
X208365494Y-110874580D01*
X208336682Y-111019428D01*
X205141795Y-111019428D01*
X204737675Y-110615308D01*
X204322685Y-110200317D01*
X204289200Y-110138994D01*
X204292435Y-110074318D01*
X204314092Y-110007666D01*
X204343500Y-109821993D01*
X204343500Y-109634007D01*
X204314092Y-109448334D01*
X204314091Y-109448330D01*
X204314091Y-109448329D01*
X204256002Y-109269550D01*
X204170656Y-109102049D01*
X204154782Y-109080200D01*
X204060161Y-108949966D01*
X203927234Y-108817039D01*
X203775150Y-108706543D01*
X203607644Y-108621194D01*
X203605624Y-108620358D01*
X203604974Y-108619834D01*
X203603311Y-108618987D01*
X203603489Y-108618637D01*
X203551222Y-108576516D01*
X203529160Y-108510221D01*
X203546441Y-108442522D01*
X203597580Y-108394913D01*
X203653081Y-108381799D01*
X204083704Y-108381799D01*
X204083713Y-108381798D01*
X204109193Y-108378843D01*
X204213438Y-108332814D01*
X204294014Y-108252238D01*
X204340043Y-108147995D01*
X204342999Y-108122516D01*
X204343000Y-108122510D01*
X204343000Y-107438000D01*
X203635444Y-107438000D01*
X203658084Y-107398787D01*
X203695300Y-107259895D01*
X203695300Y-107116105D01*
X203658084Y-106977213D01*
X203635444Y-106938000D01*
X204342999Y-106938000D01*
X204342999Y-106253495D01*
X204342998Y-106253486D01*
X204340043Y-106228006D01*
X204294014Y-106123761D01*
X204213438Y-106043185D01*
X204109194Y-105997156D01*
X204109196Y-105997156D01*
X204083716Y-105994200D01*
X203399200Y-105994200D01*
X203399200Y-106701755D01*
X203359987Y-106679116D01*
X203221095Y-106641900D01*
X203077305Y-106641900D01*
X202938413Y-106679116D01*
X202899200Y-106701755D01*
X202899200Y-105994200D01*
X202214695Y-105994200D01*
X202214686Y-105994201D01*
X202189206Y-105997156D01*
X202084961Y-106043185D01*
X202004385Y-106123761D01*
X201958356Y-106228004D01*
X201955400Y-106253483D01*
X201955400Y-106938000D01*
X202662956Y-106938000D01*
X202640316Y-106977213D01*
X202603100Y-107116105D01*
X202603100Y-107259895D01*
X202640316Y-107398787D01*
X202662956Y-107438000D01*
X201955401Y-107438000D01*
X201955401Y-108122513D01*
X201958356Y-108147993D01*
X202004385Y-108252238D01*
X202084961Y-108332814D01*
X202189205Y-108378843D01*
X202189203Y-108378843D01*
X202214686Y-108381799D01*
X202645317Y-108381799D01*
X202712356Y-108401483D01*
X202758111Y-108454287D01*
X202768055Y-108523446D01*
X202739030Y-108587002D01*
X202694979Y-108618771D01*
X202695089Y-108618987D01*
X202693695Y-108619696D01*
X202692786Y-108620353D01*
X202690762Y-108621191D01*
X202523249Y-108706543D01*
X202436479Y-108769585D01*
X202371166Y-108817039D01*
X202371164Y-108817041D01*
X202371163Y-108817041D01*
X202238241Y-108949963D01*
X202238241Y-108949964D01*
X202238239Y-108949966D01*
X202202428Y-108999256D01*
X202127743Y-109102049D01*
X202042397Y-109269550D01*
X201984308Y-109448329D01*
X201984308Y-109448332D01*
X201954900Y-109634007D01*
X201954900Y-109821992D01*
X201984308Y-110007667D01*
X201984308Y-110007670D01*
X202042397Y-110186449D01*
X202066679Y-110234105D01*
X202127743Y-110353950D01*
X202238239Y-110506034D01*
X202371166Y-110638961D01*
X202523250Y-110749457D01*
X202586335Y-110781600D01*
X202690750Y-110834802D01*
X202830066Y-110880069D01*
X202887742Y-110919507D01*
X202914940Y-110983865D01*
X202903025Y-111052712D01*
X202855781Y-111104187D01*
X202830066Y-111115931D01*
X202690750Y-111161197D01*
X202523249Y-111246543D01*
X202462052Y-111291006D01*
X202371166Y-111357039D01*
X202371164Y-111357041D01*
X202371163Y-111357041D01*
X202238241Y-111489963D01*
X202238241Y-111489964D01*
X202238239Y-111489966D01*
X202206561Y-111533567D01*
X202127743Y-111642049D01*
X202042397Y-111809550D01*
X201984308Y-111988329D01*
X201984308Y-111988332D01*
X201976423Y-112038119D01*
X201954900Y-112174007D01*
X201954900Y-112361993D01*
X201967802Y-112443450D01*
X201984308Y-112547667D01*
X201984308Y-112547670D01*
X202042397Y-112726449D01*
X202110723Y-112860547D01*
X202127743Y-112893950D01*
X202238239Y-113046034D01*
X202371166Y-113178961D01*
X202523250Y-113289457D01*
X202581803Y-113319291D01*
X202690750Y-113374802D01*
X202830066Y-113420069D01*
X202887742Y-113459507D01*
X202914940Y-113523865D01*
X202903025Y-113592712D01*
X202855781Y-113644187D01*
X202830066Y-113655931D01*
X202690750Y-113701197D01*
X202523249Y-113786543D01*
X202449058Y-113840447D01*
X202371166Y-113897039D01*
X202371164Y-113897041D01*
X202371163Y-113897041D01*
X202238241Y-114029963D01*
X202238241Y-114029964D01*
X202238239Y-114029966D01*
X202190785Y-114095279D01*
X202127743Y-114182049D01*
X202042397Y-114349550D01*
X201984308Y-114528329D01*
X201984308Y-114528332D01*
X201956290Y-114705231D01*
X201954900Y-114714007D01*
X201954900Y-114901993D01*
X201966527Y-114975400D01*
X201984308Y-115087667D01*
X201984308Y-115087670D01*
X202042397Y-115266449D01*
X202112338Y-115403715D01*
X202127743Y-115433950D01*
X202238239Y-115586034D01*
X202371166Y-115718961D01*
X202523250Y-115829457D01*
X202685775Y-115912267D01*
X202690750Y-115914802D01*
X202869530Y-115972891D01*
X202869531Y-115972891D01*
X202869534Y-115972892D01*
X203055207Y-116002300D01*
X203055208Y-116002300D01*
X203243192Y-116002300D01*
X203243193Y-116002300D01*
X203428866Y-115972892D01*
X203428869Y-115972891D01*
X203428870Y-115972891D01*
X203607649Y-115914802D01*
X203607649Y-115914801D01*
X203607652Y-115914801D01*
X203775150Y-115829457D01*
X203927234Y-115718961D01*
X204041919Y-115604276D01*
X204103242Y-115570791D01*
X204172934Y-115575775D01*
X204228867Y-115617647D01*
X204253284Y-115683111D01*
X204253600Y-115691957D01*
X204253600Y-118716870D01*
X204233915Y-118783909D01*
X204217281Y-118804551D01*
X202218151Y-120803681D01*
X202156828Y-120837166D01*
X202130470Y-120840000D01*
X202059346Y-120840000D01*
X201914498Y-120868812D01*
X201914490Y-120868814D01*
X201778039Y-120925334D01*
X201778029Y-120925339D01*
X201655230Y-121007391D01*
X201655226Y-121007394D01*
X201550794Y-121111826D01*
X201550791Y-121111830D01*
X201468739Y-121234629D01*
X201468734Y-121234639D01*
X201412214Y-121371090D01*
X201412212Y-121371098D01*
X201383400Y-121515946D01*
X201383400Y-121663653D01*
X201412212Y-121808501D01*
X201412214Y-121808509D01*
X201468734Y-121944960D01*
X201468739Y-121944970D01*
X201550791Y-122067769D01*
X201550794Y-122067773D01*
X201647040Y-122164019D01*
X201680525Y-122225342D01*
X201675541Y-122295034D01*
X201633669Y-122350967D01*
X201568205Y-122375384D01*
X201559359Y-122375700D01*
X200011030Y-122375700D01*
X199943991Y-122356015D01*
X199898236Y-122303211D01*
X199888292Y-122234053D01*
X199917317Y-122170497D01*
X199923349Y-122164019D01*
X200180974Y-121906393D01*
X200511789Y-121575576D01*
X200537466Y-121555874D01*
X200556495Y-121544889D01*
X200583429Y-121529339D01*
X201640939Y-120471829D01*
X201679068Y-120405786D01*
X201706212Y-120358772D01*
X201723553Y-120294054D01*
X201740000Y-120232674D01*
X201740000Y-120102126D01*
X201740000Y-118370340D01*
X201759685Y-118303301D01*
X201776320Y-118282658D01*
X201826605Y-118232373D01*
X201826608Y-118232370D01*
X201908664Y-118109564D01*
X201965186Y-117973109D01*
X201994000Y-117828249D01*
X201994000Y-117680551D01*
X201965186Y-117535691D01*
X201908664Y-117399236D01*
X201908662Y-117399233D01*
X201908660Y-117399229D01*
X201826608Y-117276430D01*
X201826605Y-117276426D01*
X201722173Y-117171994D01*
X201722169Y-117171991D01*
X201599370Y-117089939D01*
X201599360Y-117089934D01*
X201462909Y-117033414D01*
X201462901Y-117033412D01*
X201318053Y-117004600D01*
X201318049Y-117004600D01*
X201170351Y-117004600D01*
X201170346Y-117004600D01*
X201025498Y-117033412D01*
X201025490Y-117033414D01*
X200889039Y-117089934D01*
X200889029Y-117089939D01*
X200766230Y-117171991D01*
X200766226Y-117171994D01*
X200661794Y-117276426D01*
X200661791Y-117276430D01*
X200579739Y-117399229D01*
X200579734Y-117399239D01*
X200523214Y-117535690D01*
X200523212Y-117535698D01*
X200494400Y-117680546D01*
X200494400Y-117828253D01*
X200523212Y-117973101D01*
X200523214Y-117973109D01*
X200579734Y-118109560D01*
X200579739Y-118109570D01*
X200661791Y-118232369D01*
X200661794Y-118232373D01*
X200712080Y-118282658D01*
X200745566Y-118343981D01*
X200748400Y-118370340D01*
X200748400Y-119910669D01*
X200728715Y-119977708D01*
X200712081Y-119998350D01*
X200020810Y-120689620D01*
X200000377Y-120706120D01*
X199997775Y-120707799D01*
X199949172Y-120735861D01*
X199949171Y-120735862D01*
X199939836Y-120745196D01*
X199939831Y-120745200D01*
X199382115Y-121302916D01*
X199320792Y-121336401D01*
X199251100Y-121331417D01*
X199225543Y-121318337D01*
X199109170Y-121240579D01*
X199109160Y-121240574D01*
X198972709Y-121184054D01*
X198972701Y-121184052D01*
X198827853Y-121155240D01*
X198827849Y-121155240D01*
X198738800Y-121155240D01*
X198671761Y-121135555D01*
X198626006Y-121082751D01*
X198614800Y-121031240D01*
X198614800Y-120941190D01*
X198614799Y-120941186D01*
X198611646Y-120925334D01*
X198585986Y-120796331D01*
X198529464Y-120659876D01*
X198529462Y-120659873D01*
X198529460Y-120659869D01*
X198447408Y-120537070D01*
X198447405Y-120537066D01*
X198342973Y-120432634D01*
X198342969Y-120432631D01*
X198220170Y-120350579D01*
X198220160Y-120350574D01*
X198083709Y-120294054D01*
X198083701Y-120294052D01*
X197938853Y-120265240D01*
X197938849Y-120265240D01*
X197791151Y-120265240D01*
X197791146Y-120265240D01*
X197646298Y-120294052D01*
X197646290Y-120294054D01*
X197509839Y-120350574D01*
X197509829Y-120350579D01*
X197387030Y-120432631D01*
X197387026Y-120432634D01*
X197282594Y-120537066D01*
X197282591Y-120537070D01*
X197200539Y-120659869D01*
X197200534Y-120659879D01*
X197144014Y-120796330D01*
X197144012Y-120796338D01*
X197115200Y-120941186D01*
X197115200Y-121088893D01*
X197144012Y-121233741D01*
X197144014Y-121233749D01*
X197200534Y-121370200D01*
X197200539Y-121370210D01*
X197282591Y-121493009D01*
X197282594Y-121493013D01*
X197332880Y-121543298D01*
X197366366Y-121604621D01*
X197369200Y-121630980D01*
X197369200Y-122365275D01*
X197378729Y-122400840D01*
X197378730Y-122400840D01*
X197402988Y-122491373D01*
X197402991Y-122491378D01*
X197435623Y-122547900D01*
X197435624Y-122547900D01*
X197468261Y-122604429D01*
X197687436Y-122823604D01*
X197714652Y-122850819D01*
X197748137Y-122912142D01*
X197743153Y-122981833D01*
X197701282Y-123037767D01*
X197635817Y-123062184D01*
X197626971Y-123062500D01*
X170909840Y-123062500D01*
X170842801Y-123042815D01*
X170797046Y-122990011D01*
X170787102Y-122920853D01*
X170816127Y-122857297D01*
X170822159Y-122850819D01*
X170833243Y-122839734D01*
X170833246Y-122839731D01*
X170943176Y-122675209D01*
X171018897Y-122492402D01*
X171049292Y-122339600D01*
X171057500Y-122298337D01*
X171057500Y-122100462D01*
X171018898Y-121906403D01*
X171018897Y-121906402D01*
X171018897Y-121906398D01*
X170978347Y-121808501D01*
X170943179Y-121723597D01*
X170943172Y-121723584D01*
X170833246Y-121559069D01*
X170833243Y-121559065D01*
X170693334Y-121419156D01*
X170693330Y-121419153D01*
X170528815Y-121309227D01*
X170528802Y-121309220D01*
X170346006Y-121233504D01*
X170345996Y-121233501D01*
X170151937Y-121194900D01*
X170151935Y-121194900D01*
X169954065Y-121194900D01*
X169954063Y-121194900D01*
X169760003Y-121233501D01*
X169759993Y-121233504D01*
X169577197Y-121309220D01*
X169577184Y-121309227D01*
X169412669Y-121419153D01*
X169412665Y-121419156D01*
X169272756Y-121559065D01*
X169272753Y-121559069D01*
X169162827Y-121723584D01*
X169162820Y-121723597D01*
X169087104Y-121906393D01*
X169087101Y-121906403D01*
X169048500Y-122100462D01*
X169048500Y-122100465D01*
X169048500Y-122298335D01*
X169048500Y-122298337D01*
X169048499Y-122298337D01*
X169087101Y-122492396D01*
X169087104Y-122492406D01*
X169162820Y-122675202D01*
X169162827Y-122675215D01*
X169272753Y-122839730D01*
X169272756Y-122839734D01*
X169283841Y-122850819D01*
X169317326Y-122912142D01*
X169312342Y-122981834D01*
X169270470Y-123037767D01*
X169205006Y-123062184D01*
X169196160Y-123062500D01*
X164065560Y-123062500D01*
X164051678Y-123061720D01*
X164004931Y-123056453D01*
X163931293Y-123048156D01*
X163904227Y-123041979D01*
X163796482Y-123004277D01*
X163771473Y-122992233D01*
X163674824Y-122931504D01*
X163653115Y-122914191D01*
X163572408Y-122833484D01*
X163555095Y-122811775D01*
X163494366Y-122715126D01*
X163482323Y-122690121D01*
X163444618Y-122582365D01*
X163438444Y-122555309D01*
X163424880Y-122434922D01*
X163424100Y-122421039D01*
X163424100Y-117857901D01*
X165173500Y-117857901D01*
X165173500Y-118114098D01*
X165173501Y-118114114D01*
X165206941Y-118368120D01*
X165273253Y-118615600D01*
X165371295Y-118852296D01*
X165371302Y-118852311D01*
X165499404Y-119074191D01*
X165655374Y-119277455D01*
X165655380Y-119277462D01*
X165836537Y-119458619D01*
X165836544Y-119458625D01*
X166039808Y-119614595D01*
X166261688Y-119742697D01*
X166261703Y-119742704D01*
X166300208Y-119758653D01*
X166498398Y-119840746D01*
X166745878Y-119907058D01*
X166999895Y-119940500D01*
X166999902Y-119940500D01*
X167256098Y-119940500D01*
X167256105Y-119940500D01*
X167510122Y-119907058D01*
X167757602Y-119840746D01*
X167994308Y-119742699D01*
X168216192Y-119614595D01*
X168419457Y-119458624D01*
X168600624Y-119277457D01*
X168756595Y-119074192D01*
X168884699Y-118852308D01*
X168982746Y-118615602D01*
X169049058Y-118368122D01*
X169082500Y-118114105D01*
X169082500Y-117857895D01*
X169049058Y-117603878D01*
X168982746Y-117356398D01*
X168906363Y-117171994D01*
X168884704Y-117119703D01*
X168884697Y-117119688D01*
X168756595Y-116897808D01*
X168600625Y-116694544D01*
X168600619Y-116694537D01*
X168419462Y-116513380D01*
X168419455Y-116513374D01*
X168216191Y-116357404D01*
X167994311Y-116229302D01*
X167994296Y-116229295D01*
X167757600Y-116131253D01*
X167510120Y-116064941D01*
X167256114Y-116031501D01*
X167256111Y-116031500D01*
X167256105Y-116031500D01*
X166999895Y-116031500D01*
X166999889Y-116031500D01*
X166999885Y-116031501D01*
X166745879Y-116064941D01*
X166498399Y-116131253D01*
X166261703Y-116229295D01*
X166261688Y-116229302D01*
X166039808Y-116357404D01*
X165836544Y-116513374D01*
X165836537Y-116513380D01*
X165655380Y-116694537D01*
X165655374Y-116694544D01*
X165499404Y-116897808D01*
X165371302Y-117119688D01*
X165371295Y-117119703D01*
X165273253Y-117356399D01*
X165206941Y-117603879D01*
X165173501Y-117857885D01*
X165173500Y-117857901D01*
X163424100Y-117857901D01*
X163424100Y-109977901D01*
X165173500Y-109977901D01*
X165173500Y-110234098D01*
X165173501Y-110234114D01*
X165206941Y-110488120D01*
X165273253Y-110735600D01*
X165371295Y-110972296D01*
X165371302Y-110972311D01*
X165499404Y-111194191D01*
X165655374Y-111397455D01*
X165655380Y-111397462D01*
X165836537Y-111578619D01*
X165836544Y-111578625D01*
X166039808Y-111734595D01*
X166261688Y-111862697D01*
X166261703Y-111862704D01*
X166331537Y-111891630D01*
X166498398Y-111960746D01*
X166745878Y-112027058D01*
X166999895Y-112060500D01*
X166999902Y-112060500D01*
X167256098Y-112060500D01*
X167256105Y-112060500D01*
X167510122Y-112027058D01*
X167757602Y-111960746D01*
X167994308Y-111862699D01*
X168216192Y-111734595D01*
X168419457Y-111578624D01*
X168540535Y-111457546D01*
X170954200Y-111457546D01*
X170954200Y-111605253D01*
X170983012Y-111750101D01*
X170983014Y-111750109D01*
X171039534Y-111886560D01*
X171039539Y-111886570D01*
X171121591Y-112009369D01*
X171121594Y-112009373D01*
X171226026Y-112113805D01*
X171226030Y-112113808D01*
X171348829Y-112195860D01*
X171348833Y-112195862D01*
X171348836Y-112195864D01*
X171485291Y-112252386D01*
X171630146Y-112281199D01*
X171630150Y-112281200D01*
X171630151Y-112281200D01*
X171777850Y-112281200D01*
X171777851Y-112281199D01*
X171922709Y-112252386D01*
X172059164Y-112195864D01*
X172181970Y-112113808D01*
X172181973Y-112113805D01*
X172257660Y-112038119D01*
X172318983Y-112004634D01*
X172345341Y-112001800D01*
X174604242Y-112001800D01*
X174671281Y-112021485D01*
X174714727Y-112069506D01*
X174746541Y-112131946D01*
X174746545Y-112131954D01*
X174777099Y-112174007D01*
X174857039Y-112284034D01*
X174989966Y-112416961D01*
X175142050Y-112527457D01*
X175309548Y-112612801D01*
X175309550Y-112612801D01*
X175309553Y-112612803D01*
X175309551Y-112612803D01*
X175346121Y-112624685D01*
X175403797Y-112664122D01*
X175430996Y-112728480D01*
X175419082Y-112797327D01*
X175371838Y-112848803D01*
X175346122Y-112860547D01*
X175285175Y-112880349D01*
X175285172Y-112880351D01*
X175108768Y-112970233D01*
X175020919Y-113034060D01*
X174948599Y-113086604D01*
X174948597Y-113086606D01*
X174948596Y-113086606D01*
X174808606Y-113226596D01*
X174808606Y-113226597D01*
X174808604Y-113226599D01*
X174762935Y-113289456D01*
X174692233Y-113386768D01*
X174602351Y-113563172D01*
X174602349Y-113563175D01*
X174541172Y-113751463D01*
X174527078Y-113840447D01*
X174511815Y-113936816D01*
X174510200Y-113947010D01*
X174510200Y-114144989D01*
X174541172Y-114340536D01*
X174602349Y-114528824D01*
X174602351Y-114528827D01*
X174692233Y-114705231D01*
X174808604Y-114865401D01*
X174948599Y-115005396D01*
X174979795Y-115028061D01*
X175108770Y-115121768D01*
X175178340Y-115157215D01*
X175229136Y-115205189D01*
X175245932Y-115273010D01*
X175223395Y-115339145D01*
X175168680Y-115382597D01*
X175122046Y-115391700D01*
X174833428Y-115391700D01*
X174833405Y-115391702D01*
X174807893Y-115394661D01*
X174807890Y-115394662D01*
X174703475Y-115440765D01*
X174622766Y-115521474D01*
X174576662Y-115625888D01*
X174576662Y-115625890D01*
X174573700Y-115651419D01*
X174573700Y-117520571D01*
X174573702Y-117520594D01*
X174576661Y-117546106D01*
X174576662Y-117546109D01*
X174622765Y-117650524D01*
X174622766Y-117650525D01*
X174703475Y-117731234D01*
X174807891Y-117777338D01*
X174833421Y-117780300D01*
X175148200Y-117780299D01*
X175215239Y-117799983D01*
X175260994Y-117852787D01*
X175272200Y-117904299D01*
X175272200Y-118429272D01*
X175305988Y-118555373D01*
X175334804Y-118605282D01*
X175334805Y-118605284D01*
X175336436Y-118608109D01*
X175371261Y-118668429D01*
X177114572Y-120411739D01*
X177227629Y-120477013D01*
X177353727Y-120510800D01*
X177353729Y-120510800D01*
X188076072Y-120510800D01*
X188076074Y-120510800D01*
X188139309Y-120493856D01*
X188202172Y-120477012D01*
X188275632Y-120434600D01*
X188315229Y-120411739D01*
X189553574Y-119173391D01*
X189614895Y-119139908D01*
X189657997Y-119139526D01*
X189658088Y-119138603D01*
X189664150Y-119139200D01*
X189664151Y-119139200D01*
X189811850Y-119139200D01*
X189811851Y-119139199D01*
X189956709Y-119110386D01*
X190093164Y-119053864D01*
X190215970Y-118971808D01*
X190320408Y-118867370D01*
X190402464Y-118744564D01*
X190458986Y-118608109D01*
X190487800Y-118463249D01*
X190487800Y-118315551D01*
X190458986Y-118170691D01*
X190402464Y-118034236D01*
X190402462Y-118034233D01*
X190402460Y-118034229D01*
X190320408Y-117911430D01*
X190320405Y-117911426D01*
X190215973Y-117806994D01*
X190215969Y-117806991D01*
X190093170Y-117724939D01*
X190093160Y-117724934D01*
X189956709Y-117668414D01*
X189956701Y-117668412D01*
X189811853Y-117639600D01*
X189811849Y-117639600D01*
X189664151Y-117639600D01*
X189664146Y-117639600D01*
X189519298Y-117668412D01*
X189519290Y-117668414D01*
X189382839Y-117724934D01*
X189382829Y-117724939D01*
X189260030Y-117806991D01*
X189260026Y-117806994D01*
X189155594Y-117911426D01*
X189155591Y-117911430D01*
X189073539Y-118034229D01*
X189073534Y-118034239D01*
X189017014Y-118170690D01*
X189017012Y-118170696D01*
X188990352Y-118304726D01*
X188957967Y-118366637D01*
X188956416Y-118368215D01*
X187841751Y-119482881D01*
X187780428Y-119516366D01*
X187754070Y-119519200D01*
X186499936Y-119519200D01*
X186432897Y-119499515D01*
X186387142Y-119446711D01*
X186377198Y-119377553D01*
X186406223Y-119313997D01*
X186412255Y-119307519D01*
X186784774Y-118935000D01*
X187909184Y-117810588D01*
X187949406Y-117783712D01*
X188010364Y-117758464D01*
X188133170Y-117676408D01*
X188237608Y-117571970D01*
X188319664Y-117449164D01*
X188376186Y-117312709D01*
X188405000Y-117167849D01*
X188405000Y-117020151D01*
X188376186Y-116875291D01*
X188319664Y-116738836D01*
X188319662Y-116738833D01*
X188319660Y-116738829D01*
X188237608Y-116616030D01*
X188237605Y-116616026D01*
X188133173Y-116511594D01*
X188133169Y-116511591D01*
X188010370Y-116429539D01*
X188010360Y-116429534D01*
X187873909Y-116373014D01*
X187873901Y-116373012D01*
X187729053Y-116344200D01*
X187729049Y-116344200D01*
X187581351Y-116344200D01*
X187581346Y-116344200D01*
X187436498Y-116373012D01*
X187436490Y-116373014D01*
X187300039Y-116429534D01*
X187300029Y-116429539D01*
X187177230Y-116511591D01*
X187177226Y-116511594D01*
X187072794Y-116616026D01*
X187072791Y-116616030D01*
X186990739Y-116738829D01*
X186990733Y-116738841D01*
X186965486Y-116799791D01*
X186938607Y-116840017D01*
X185502244Y-118276381D01*
X185440921Y-118309866D01*
X185414563Y-118312700D01*
X178428737Y-118312700D01*
X178361698Y-118293015D01*
X178341056Y-118276381D01*
X178135591Y-118070916D01*
X178108711Y-118030687D01*
X178083467Y-117969742D01*
X178083460Y-117969729D01*
X178001408Y-117846930D01*
X178001405Y-117846926D01*
X177896973Y-117742494D01*
X177896969Y-117742491D01*
X177774170Y-117660439D01*
X177774160Y-117660434D01*
X177637709Y-117603914D01*
X177637701Y-117603912D01*
X177492853Y-117575100D01*
X177492849Y-117575100D01*
X177345151Y-117575100D01*
X177345146Y-117575100D01*
X177200298Y-117603912D01*
X177200286Y-117603915D01*
X177133751Y-117631475D01*
X177064282Y-117638944D01*
X177001803Y-117607668D01*
X176966151Y-117547579D01*
X176962299Y-117516921D01*
X176962299Y-115651422D01*
X176959338Y-115625891D01*
X176913234Y-115521475D01*
X176832525Y-115440766D01*
X176773747Y-115414813D01*
X176728110Y-115394662D01*
X176702580Y-115391700D01*
X176413954Y-115391700D01*
X176346915Y-115372015D01*
X176301160Y-115319211D01*
X176291216Y-115250053D01*
X176320241Y-115186497D01*
X176357660Y-115157215D01*
X176427229Y-115121768D01*
X176427228Y-115121768D01*
X176427231Y-115121767D01*
X176587401Y-115005396D01*
X176727396Y-114865401D01*
X176843767Y-114705231D01*
X176933649Y-114528827D01*
X176994828Y-114340535D01*
X177025800Y-114144991D01*
X177025800Y-113947009D01*
X176994828Y-113751465D01*
X176933649Y-113563173D01*
X176913621Y-113523865D01*
X176908776Y-113514355D01*
X176908775Y-113514354D01*
X176883192Y-113464146D01*
X178447200Y-113464146D01*
X178447200Y-113611853D01*
X178476012Y-113756701D01*
X178476014Y-113756709D01*
X178501261Y-113817659D01*
X178510700Y-113865112D01*
X178510700Y-115129598D01*
X178537072Y-115262178D01*
X178537074Y-115262186D01*
X178588807Y-115387082D01*
X178588812Y-115387091D01*
X178663915Y-115499490D01*
X178663918Y-115499494D01*
X180156505Y-116992081D01*
X180156509Y-116992084D01*
X180268909Y-117067188D01*
X180268910Y-117067188D01*
X180268914Y-117067191D01*
X180323826Y-117089936D01*
X180393814Y-117118926D01*
X180526400Y-117145299D01*
X180526403Y-117145300D01*
X180526405Y-117145300D01*
X185360597Y-117145300D01*
X185360598Y-117145299D01*
X185493186Y-117118926D01*
X185618085Y-117067191D01*
X185730491Y-116992084D01*
X185826084Y-116896491D01*
X185826085Y-116896490D01*
X186181985Y-116540588D01*
X186222208Y-116513712D01*
X186283164Y-116488464D01*
X186405970Y-116406408D01*
X186510408Y-116301970D01*
X186592464Y-116179164D01*
X186648986Y-116042709D01*
X186677800Y-115897849D01*
X186677800Y-115750151D01*
X186648986Y-115605291D01*
X186592464Y-115468836D01*
X186592462Y-115468833D01*
X186592460Y-115468829D01*
X186510408Y-115346030D01*
X186510405Y-115346026D01*
X186405973Y-115241594D01*
X186405969Y-115241591D01*
X186283170Y-115159539D01*
X186283160Y-115159534D01*
X186146709Y-115103014D01*
X186146701Y-115103012D01*
X186001853Y-115074200D01*
X186001849Y-115074200D01*
X185854151Y-115074200D01*
X185854146Y-115074200D01*
X185709298Y-115103012D01*
X185709290Y-115103014D01*
X185572839Y-115159534D01*
X185572829Y-115159539D01*
X185450030Y-115241591D01*
X185450026Y-115241594D01*
X185345594Y-115346026D01*
X185345591Y-115346030D01*
X185263539Y-115468829D01*
X185263535Y-115468837D01*
X185238287Y-115529789D01*
X185233656Y-115536719D01*
X185232560Y-115541760D01*
X185211408Y-115570015D01*
X185045042Y-115736382D01*
X184983722Y-115769866D01*
X184957363Y-115772700D01*
X180929637Y-115772700D01*
X180862598Y-115753015D01*
X180841956Y-115736381D01*
X179919619Y-114814044D01*
X179886134Y-114752721D01*
X179883300Y-114726363D01*
X179883300Y-114381924D01*
X196011079Y-114381924D01*
X196011079Y-115568876D01*
X196013140Y-115586035D01*
X196021794Y-115658109D01*
X196077796Y-115800119D01*
X196170030Y-115921748D01*
X196265739Y-115994326D01*
X196291662Y-116013984D01*
X196433668Y-116069984D01*
X196522903Y-116080700D01*
X196522909Y-116080700D01*
X197709849Y-116080700D01*
X197709855Y-116080700D01*
X197799090Y-116069984D01*
X197941096Y-116013984D01*
X198062727Y-115921748D01*
X198154963Y-115800117D01*
X198210963Y-115658111D01*
X198221679Y-115568876D01*
X198221679Y-114888450D01*
X198511579Y-114888450D01*
X198511579Y-115062349D01*
X198538782Y-115234104D01*
X198592522Y-115399500D01*
X198671469Y-115554439D01*
X198671469Y-115554440D01*
X198676652Y-115561572D01*
X199216379Y-115021845D01*
X199216379Y-115028061D01*
X199243638Y-115129794D01*
X199296299Y-115221006D01*
X199370773Y-115295480D01*
X199461985Y-115348141D01*
X199563718Y-115375400D01*
X199569932Y-115375400D01*
X199030205Y-115915125D01*
X199037337Y-115920308D01*
X199192278Y-115999256D01*
X199357674Y-116052996D01*
X199357673Y-116052996D01*
X199529430Y-116080200D01*
X199703328Y-116080200D01*
X199875083Y-116052996D01*
X200040479Y-115999256D01*
X200195424Y-115920306D01*
X200202552Y-115915126D01*
X200202552Y-115915125D01*
X199662827Y-115375400D01*
X199669040Y-115375400D01*
X199770773Y-115348141D01*
X199861985Y-115295480D01*
X199936459Y-115221006D01*
X199989120Y-115129794D01*
X200016379Y-115028061D01*
X200016379Y-115021848D01*
X200556104Y-115561573D01*
X200556105Y-115561573D01*
X200561285Y-115554445D01*
X200640235Y-115399500D01*
X200693975Y-115234104D01*
X200721179Y-115062349D01*
X200721179Y-114888450D01*
X200693975Y-114716695D01*
X200640235Y-114551299D01*
X200561287Y-114396358D01*
X200556104Y-114389226D01*
X200016379Y-114928951D01*
X200016379Y-114922739D01*
X199989120Y-114821006D01*
X199936459Y-114729794D01*
X199861985Y-114655320D01*
X199770773Y-114602659D01*
X199669040Y-114575400D01*
X199662826Y-114575400D01*
X200202552Y-114035673D01*
X200195418Y-114030490D01*
X200040479Y-113951543D01*
X199875083Y-113897803D01*
X199875084Y-113897803D01*
X199703328Y-113870600D01*
X199529430Y-113870600D01*
X199357674Y-113897803D01*
X199192278Y-113951543D01*
X199037338Y-114030490D01*
X199037328Y-114030497D01*
X199030205Y-114035671D01*
X199030205Y-114035674D01*
X199569933Y-114575400D01*
X199563718Y-114575400D01*
X199461985Y-114602659D01*
X199370773Y-114655320D01*
X199296299Y-114729794D01*
X199243638Y-114821006D01*
X199216379Y-114922739D01*
X199216379Y-114928952D01*
X198676653Y-114389226D01*
X198676650Y-114389226D01*
X198671476Y-114396349D01*
X198671469Y-114396359D01*
X198592522Y-114551299D01*
X198538782Y-114716695D01*
X198511579Y-114888450D01*
X198221679Y-114888450D01*
X198221679Y-114381924D01*
X198210963Y-114292689D01*
X198154963Y-114150683D01*
X198150645Y-114144989D01*
X198062727Y-114029051D01*
X197941098Y-113936817D01*
X197941096Y-113936816D01*
X197840229Y-113897039D01*
X197799088Y-113880815D01*
X197753283Y-113875315D01*
X197709855Y-113870100D01*
X196522903Y-113870100D01*
X196482732Y-113874923D01*
X196433669Y-113880815D01*
X196291659Y-113936817D01*
X196170030Y-114029051D01*
X196077796Y-114150680D01*
X196021794Y-114292690D01*
X196016049Y-114340535D01*
X196011079Y-114381924D01*
X179883300Y-114381924D01*
X179883300Y-113865112D01*
X179892739Y-113817659D01*
X179905628Y-113786543D01*
X179917986Y-113756709D01*
X179946800Y-113611849D01*
X179946800Y-113464151D01*
X179917986Y-113319291D01*
X179861464Y-113182836D01*
X179861462Y-113182833D01*
X179861460Y-113182829D01*
X179779408Y-113060030D01*
X179779405Y-113060026D01*
X179674973Y-112955594D01*
X179674969Y-112955591D01*
X179552170Y-112873539D01*
X179552160Y-112873534D01*
X179415709Y-112817014D01*
X179415701Y-112817012D01*
X179270853Y-112788200D01*
X179270849Y-112788200D01*
X179123151Y-112788200D01*
X179123146Y-112788200D01*
X178978298Y-112817012D01*
X178978290Y-112817014D01*
X178841839Y-112873534D01*
X178841829Y-112873539D01*
X178719030Y-112955591D01*
X178719026Y-112955594D01*
X178614594Y-113060026D01*
X178614591Y-113060030D01*
X178532539Y-113182829D01*
X178532534Y-113182839D01*
X178476014Y-113319290D01*
X178476012Y-113319298D01*
X178447200Y-113464146D01*
X176883192Y-113464146D01*
X176843766Y-113386768D01*
X176835072Y-113374802D01*
X176727396Y-113226599D01*
X176587401Y-113086604D01*
X176427231Y-112970233D01*
X176250827Y-112880351D01*
X176250824Y-112880349D01*
X176189877Y-112860547D01*
X176132202Y-112821110D01*
X176105003Y-112756751D01*
X176116917Y-112687905D01*
X176164161Y-112636429D01*
X176189873Y-112624686D01*
X176226452Y-112612801D01*
X176393950Y-112527457D01*
X176546034Y-112416961D01*
X176678961Y-112284034D01*
X176789457Y-112131950D01*
X176874801Y-111964452D01*
X176899586Y-111888172D01*
X176932891Y-111785670D01*
X176932891Y-111785669D01*
X176932892Y-111785666D01*
X176962300Y-111599993D01*
X176962300Y-111412007D01*
X176932892Y-111226334D01*
X176932891Y-111226330D01*
X176932891Y-111226329D01*
X176874802Y-111047550D01*
X176836466Y-110972311D01*
X176789457Y-110880050D01*
X176678961Y-110727966D01*
X176546034Y-110595039D01*
X176393950Y-110484543D01*
X176284589Y-110428821D01*
X176226449Y-110399197D01*
X176047669Y-110341108D01*
X175908411Y-110319052D01*
X175861993Y-110311700D01*
X175674007Y-110311700D01*
X175612116Y-110321502D01*
X175488332Y-110341108D01*
X175488329Y-110341108D01*
X175309550Y-110399197D01*
X175142049Y-110484543D01*
X175090232Y-110522191D01*
X174989966Y-110595039D01*
X174989964Y-110595041D01*
X174989963Y-110595041D01*
X174857041Y-110727963D01*
X174857041Y-110727964D01*
X174857039Y-110727966D01*
X174849661Y-110738121D01*
X174746545Y-110880045D01*
X174746541Y-110880053D01*
X174714727Y-110942494D01*
X174666753Y-110993290D01*
X174604242Y-111010200D01*
X172294541Y-111010200D01*
X172227502Y-110990515D01*
X172206860Y-110973881D01*
X172181973Y-110948994D01*
X172181969Y-110948991D01*
X172059170Y-110866939D01*
X172059160Y-110866934D01*
X171922709Y-110810414D01*
X171922701Y-110810412D01*
X171777853Y-110781600D01*
X171777849Y-110781600D01*
X171630151Y-110781600D01*
X171630146Y-110781600D01*
X171485298Y-110810412D01*
X171485290Y-110810414D01*
X171348839Y-110866934D01*
X171348829Y-110866939D01*
X171226030Y-110948991D01*
X171226026Y-110948994D01*
X171121594Y-111053426D01*
X171121591Y-111053430D01*
X171039539Y-111176229D01*
X171039534Y-111176239D01*
X170983014Y-111312690D01*
X170983012Y-111312698D01*
X170954200Y-111457546D01*
X168540535Y-111457546D01*
X168600624Y-111397457D01*
X168608345Y-111387393D01*
X168617111Y-111375972D01*
X168703854Y-111262925D01*
X168756595Y-111194192D01*
X168884699Y-110972308D01*
X168982746Y-110735602D01*
X169049058Y-110488122D01*
X169082500Y-110234105D01*
X169082500Y-109977895D01*
X169049058Y-109723878D01*
X168982746Y-109476398D01*
X168884699Y-109239692D01*
X168792905Y-109080700D01*
X168756595Y-109017808D01*
X168600625Y-108814544D01*
X168600619Y-108814537D01*
X168419462Y-108633380D01*
X168419455Y-108633374D01*
X168216191Y-108477404D01*
X167994311Y-108349302D01*
X167994296Y-108349295D01*
X167757600Y-108251253D01*
X167510120Y-108184941D01*
X167256114Y-108151501D01*
X167256111Y-108151500D01*
X167256105Y-108151500D01*
X166999895Y-108151500D01*
X166999889Y-108151500D01*
X166999885Y-108151501D01*
X166745879Y-108184941D01*
X166498399Y-108251253D01*
X166261703Y-108349295D01*
X166261688Y-108349302D01*
X166039808Y-108477404D01*
X165836544Y-108633374D01*
X165836537Y-108633380D01*
X165655380Y-108814537D01*
X165655374Y-108814544D01*
X165499404Y-109017808D01*
X165371302Y-109239688D01*
X165371295Y-109239703D01*
X165273253Y-109476399D01*
X165206941Y-109723879D01*
X165173501Y-109977885D01*
X165173500Y-109977901D01*
X163424100Y-109977901D01*
X163424100Y-107381924D01*
X196010120Y-107381924D01*
X196010120Y-108568876D01*
X196012297Y-108587002D01*
X196020835Y-108658109D01*
X196076837Y-108800119D01*
X196169071Y-108921748D01*
X196271281Y-108999256D01*
X196290703Y-109013984D01*
X196432709Y-109069984D01*
X196521944Y-109080700D01*
X196521950Y-109080700D01*
X197708890Y-109080700D01*
X197708896Y-109080700D01*
X197798131Y-109069984D01*
X197940137Y-109013984D01*
X198061768Y-108921748D01*
X198154004Y-108800117D01*
X198210004Y-108658111D01*
X198220720Y-108568876D01*
X198220720Y-107888450D01*
X198510620Y-107888450D01*
X198510620Y-108062349D01*
X198537823Y-108234104D01*
X198591563Y-108399500D01*
X198670510Y-108554439D01*
X198670510Y-108554440D01*
X198675693Y-108561572D01*
X199215420Y-108021845D01*
X199215420Y-108028061D01*
X199242679Y-108129794D01*
X199295340Y-108221006D01*
X199369814Y-108295480D01*
X199461026Y-108348141D01*
X199562759Y-108375400D01*
X199568973Y-108375400D01*
X199029246Y-108915125D01*
X199036378Y-108920308D01*
X199191319Y-108999256D01*
X199356715Y-109052996D01*
X199356714Y-109052996D01*
X199528471Y-109080200D01*
X199702369Y-109080200D01*
X199874124Y-109052996D01*
X200039520Y-108999256D01*
X200194465Y-108920306D01*
X200201593Y-108915126D01*
X200201593Y-108915125D01*
X199661868Y-108375400D01*
X199668081Y-108375400D01*
X199769814Y-108348141D01*
X199861026Y-108295480D01*
X199935500Y-108221006D01*
X199988161Y-108129794D01*
X200015420Y-108028061D01*
X200015420Y-108021848D01*
X200555145Y-108561573D01*
X200555146Y-108561573D01*
X200560326Y-108554445D01*
X200639276Y-108399500D01*
X200693016Y-108234104D01*
X200720220Y-108062349D01*
X200720220Y-107888450D01*
X200693016Y-107716695D01*
X200639276Y-107551299D01*
X200560328Y-107396358D01*
X200555145Y-107389226D01*
X200015420Y-107928951D01*
X200015420Y-107922739D01*
X199988161Y-107821006D01*
X199935500Y-107729794D01*
X199861026Y-107655320D01*
X199769814Y-107602659D01*
X199668081Y-107575400D01*
X199661867Y-107575400D01*
X200201593Y-107035673D01*
X200194459Y-107030490D01*
X200039520Y-106951543D01*
X199874124Y-106897803D01*
X199874125Y-106897803D01*
X199702369Y-106870600D01*
X199528471Y-106870600D01*
X199356715Y-106897803D01*
X199191319Y-106951543D01*
X199036379Y-107030490D01*
X199036369Y-107030497D01*
X199029246Y-107035671D01*
X199029246Y-107035674D01*
X199568974Y-107575400D01*
X199562759Y-107575400D01*
X199461026Y-107602659D01*
X199369814Y-107655320D01*
X199295340Y-107729794D01*
X199242679Y-107821006D01*
X199215420Y-107922739D01*
X199215420Y-107928952D01*
X198675694Y-107389226D01*
X198675691Y-107389226D01*
X198670517Y-107396349D01*
X198670510Y-107396359D01*
X198591563Y-107551299D01*
X198537823Y-107716695D01*
X198510620Y-107888450D01*
X198220720Y-107888450D01*
X198220720Y-107381924D01*
X198210004Y-107292689D01*
X198154004Y-107150683D01*
X198100342Y-107079919D01*
X198061768Y-107029051D01*
X197940139Y-106936817D01*
X197940137Y-106936816D01*
X197841207Y-106897803D01*
X197798129Y-106880815D01*
X197752324Y-106875315D01*
X197708896Y-106870100D01*
X196521944Y-106870100D01*
X196481773Y-106874923D01*
X196432710Y-106880815D01*
X196290700Y-106936817D01*
X196169071Y-107029051D01*
X196076837Y-107150680D01*
X196020835Y-107292690D01*
X196014943Y-107341753D01*
X196010120Y-107381924D01*
X163424100Y-107381924D01*
X163424100Y-105767401D01*
X164400700Y-105767401D01*
X164400700Y-105988598D01*
X164435304Y-106207076D01*
X164435304Y-106207079D01*
X164503656Y-106417445D01*
X164503658Y-106417448D01*
X164604080Y-106614537D01*
X164734098Y-106793491D01*
X164890509Y-106949902D01*
X165069463Y-107079920D01*
X165208337Y-107150680D01*
X165266554Y-107180343D01*
X165462775Y-107244098D01*
X165476925Y-107248696D01*
X165695401Y-107283300D01*
X165695402Y-107283300D01*
X165916598Y-107283300D01*
X165916599Y-107283300D01*
X166135075Y-107248696D01*
X166135078Y-107248695D01*
X166135079Y-107248695D01*
X166345445Y-107180343D01*
X166345445Y-107180342D01*
X166345448Y-107180342D01*
X166542537Y-107079920D01*
X166721491Y-106949902D01*
X166877902Y-106793491D01*
X167007920Y-106614537D01*
X167108342Y-106417448D01*
X167108343Y-106417445D01*
X167176695Y-106207079D01*
X167176695Y-106207077D01*
X167176696Y-106207075D01*
X167211300Y-105988599D01*
X167211300Y-105767401D01*
X171400700Y-105767401D01*
X171400700Y-105988598D01*
X171435304Y-106207076D01*
X171435304Y-106207079D01*
X171503656Y-106417445D01*
X171503658Y-106417448D01*
X171604080Y-106614537D01*
X171734098Y-106793491D01*
X171890509Y-106949902D01*
X172069463Y-107079920D01*
X172208337Y-107150680D01*
X172266554Y-107180343D01*
X172462775Y-107244098D01*
X172476925Y-107248696D01*
X172695401Y-107283300D01*
X172695402Y-107283300D01*
X172916598Y-107283300D01*
X172916599Y-107283300D01*
X173059760Y-107260625D01*
X173090571Y-107255745D01*
X173095114Y-107255025D01*
X173135075Y-107248696D01*
X173135078Y-107248695D01*
X173135079Y-107248695D01*
X173345445Y-107180343D01*
X173345445Y-107180342D01*
X173345448Y-107180342D01*
X173542537Y-107079920D01*
X173721491Y-106949902D01*
X173877902Y-106793491D01*
X174007920Y-106614537D01*
X174108342Y-106417448D01*
X174108343Y-106417445D01*
X174175230Y-106211588D01*
X174175230Y-106211587D01*
X174175231Y-106211585D01*
X174175993Y-106209236D01*
X174176696Y-106207075D01*
X174211300Y-105988599D01*
X174211300Y-105767401D01*
X174194273Y-105659901D01*
X209834700Y-105659901D01*
X209834700Y-105916098D01*
X209834701Y-105916114D01*
X209868141Y-106170120D01*
X209934453Y-106417600D01*
X210032495Y-106654296D01*
X210032502Y-106654311D01*
X210160604Y-106876191D01*
X210316574Y-107079455D01*
X210316580Y-107079462D01*
X210497737Y-107260619D01*
X210497744Y-107260625D01*
X210701008Y-107416595D01*
X210922888Y-107544697D01*
X210922903Y-107544704D01*
X211045310Y-107595406D01*
X211159598Y-107642746D01*
X211407078Y-107709058D01*
X211661095Y-107742500D01*
X211661102Y-107742500D01*
X211917298Y-107742500D01*
X211917305Y-107742500D01*
X212171322Y-107709058D01*
X212418802Y-107642746D01*
X212655508Y-107544699D01*
X212877392Y-107416595D01*
X213080657Y-107260624D01*
X213261824Y-107079457D01*
X213417795Y-106876192D01*
X213545899Y-106654308D01*
X213643946Y-106417602D01*
X213710258Y-106170122D01*
X213743700Y-105916105D01*
X213743700Y-105659895D01*
X213710258Y-105405878D01*
X213643946Y-105158398D01*
X213545899Y-104921692D01*
X213417795Y-104699808D01*
X213261824Y-104496543D01*
X213261819Y-104496537D01*
X213080662Y-104315380D01*
X213080655Y-104315374D01*
X212877391Y-104159404D01*
X212655511Y-104031302D01*
X212655496Y-104031295D01*
X212418800Y-103933253D01*
X212171320Y-103866941D01*
X211917314Y-103833501D01*
X211917311Y-103833500D01*
X211917305Y-103833500D01*
X211661095Y-103833500D01*
X211661089Y-103833500D01*
X211661085Y-103833501D01*
X211407079Y-103866941D01*
X211159599Y-103933253D01*
X210922903Y-104031295D01*
X210922888Y-104031302D01*
X210701008Y-104159404D01*
X210497744Y-104315374D01*
X210497737Y-104315380D01*
X210316580Y-104496537D01*
X210316574Y-104496544D01*
X210160604Y-104699808D01*
X210032502Y-104921688D01*
X210032495Y-104921703D01*
X209934453Y-105158399D01*
X209868141Y-105405879D01*
X209834701Y-105659885D01*
X209834700Y-105659901D01*
X174194273Y-105659901D01*
X174176696Y-105548925D01*
X174176695Y-105548921D01*
X174176695Y-105548920D01*
X174108343Y-105338554D01*
X174016549Y-105158399D01*
X174007920Y-105141463D01*
X173877902Y-104962509D01*
X173721491Y-104806098D01*
X173542537Y-104676080D01*
X173345445Y-104575656D01*
X173135077Y-104507304D01*
X172989424Y-104484234D01*
X172916599Y-104472700D01*
X172695401Y-104472700D01*
X172622575Y-104484234D01*
X172476923Y-104507304D01*
X172476920Y-104507304D01*
X172266554Y-104575656D01*
X172069462Y-104676080D01*
X172036804Y-104699808D01*
X171890509Y-104806098D01*
X171890507Y-104806100D01*
X171890506Y-104806100D01*
X171734100Y-104962506D01*
X171734100Y-104962507D01*
X171734098Y-104962509D01*
X171678260Y-105039362D01*
X171604080Y-105141462D01*
X171503656Y-105338554D01*
X171435304Y-105548920D01*
X171435304Y-105548923D01*
X171400700Y-105767401D01*
X167211300Y-105767401D01*
X167176696Y-105548925D01*
X167176695Y-105548921D01*
X167176695Y-105548920D01*
X167108343Y-105338554D01*
X167016549Y-105158399D01*
X167007920Y-105141463D01*
X166877902Y-104962509D01*
X166721491Y-104806098D01*
X166542537Y-104676080D01*
X166345445Y-104575656D01*
X166135077Y-104507304D01*
X165989424Y-104484234D01*
X165916599Y-104472700D01*
X165695401Y-104472700D01*
X165622575Y-104484234D01*
X165476923Y-104507304D01*
X165476920Y-104507304D01*
X165266554Y-104575656D01*
X165069462Y-104676080D01*
X165036804Y-104699808D01*
X164890509Y-104806098D01*
X164890507Y-104806100D01*
X164890506Y-104806100D01*
X164734100Y-104962506D01*
X164734100Y-104962507D01*
X164734098Y-104962509D01*
X164678260Y-105039362D01*
X164604080Y-105141462D01*
X164503656Y-105338554D01*
X164435304Y-105548920D01*
X164435304Y-105548923D01*
X164400700Y-105767401D01*
X163424100Y-105767401D01*
X163424100Y-100767440D01*
X164375800Y-100767440D01*
X164375800Y-100988559D01*
X164410391Y-101206959D01*
X164410391Y-101206962D01*
X164478719Y-101417253D01*
X164579109Y-101614279D01*
X164626094Y-101678949D01*
X164626095Y-101678949D01*
X165256812Y-101048233D01*
X165268082Y-101090292D01*
X165340490Y-101215708D01*
X165442892Y-101318110D01*
X165568308Y-101390518D01*
X165610365Y-101401787D01*
X164979648Y-102032503D01*
X164979649Y-102032504D01*
X165044319Y-102079490D01*
X165241346Y-102179880D01*
X165451638Y-102248208D01*
X165670041Y-102282800D01*
X165891159Y-102282800D01*
X166109559Y-102248208D01*
X166109562Y-102248208D01*
X166319853Y-102179880D01*
X166516876Y-102079492D01*
X166581549Y-102032503D01*
X166581550Y-102032502D01*
X165950835Y-101401787D01*
X165992892Y-101390518D01*
X166118308Y-101318110D01*
X166220710Y-101215708D01*
X166293118Y-101090292D01*
X166304387Y-101048234D01*
X166935102Y-101678950D01*
X166935103Y-101678949D01*
X166982092Y-101614276D01*
X167082480Y-101417253D01*
X167150808Y-101206962D01*
X167150808Y-101206959D01*
X167185400Y-100988559D01*
X167185400Y-100767440D01*
X171401200Y-100767440D01*
X171401200Y-100988559D01*
X171435791Y-101206959D01*
X171435791Y-101206962D01*
X171504119Y-101417253D01*
X171604509Y-101614279D01*
X171651494Y-101678949D01*
X171651495Y-101678949D01*
X172282212Y-101048233D01*
X172293482Y-101090292D01*
X172365890Y-101215708D01*
X172468292Y-101318110D01*
X172593708Y-101390518D01*
X172635765Y-101401787D01*
X172005048Y-102032503D01*
X172005049Y-102032504D01*
X172069719Y-102079490D01*
X172266746Y-102179880D01*
X172477038Y-102248208D01*
X172695441Y-102282800D01*
X172916559Y-102282800D01*
X173134959Y-102248208D01*
X173134962Y-102248208D01*
X173345253Y-102179880D01*
X173542276Y-102079492D01*
X173606949Y-102032503D01*
X173606950Y-102032502D01*
X172976235Y-101401787D01*
X173018292Y-101390518D01*
X173143708Y-101318110D01*
X173246110Y-101215708D01*
X173318518Y-101090292D01*
X173329787Y-101048234D01*
X173960502Y-101678950D01*
X173960503Y-101678949D01*
X174007492Y-101614276D01*
X174107880Y-101417253D01*
X174176208Y-101206962D01*
X174176208Y-101206959D01*
X174210800Y-100988559D01*
X174210800Y-100767440D01*
X174194831Y-100666616D01*
X174192346Y-100650924D01*
X175639320Y-100650924D01*
X175639320Y-101837876D01*
X175644947Y-101884741D01*
X175650035Y-101927109D01*
X175706037Y-102069119D01*
X175798271Y-102190748D01*
X175874044Y-102248208D01*
X175919903Y-102282984D01*
X176061909Y-102338984D01*
X176151144Y-102349700D01*
X176151150Y-102349700D01*
X177338090Y-102349700D01*
X177338096Y-102349700D01*
X177427331Y-102338984D01*
X177569337Y-102282984D01*
X177690968Y-102190748D01*
X177783204Y-102069117D01*
X177839204Y-101927111D01*
X177849920Y-101837876D01*
X177849920Y-101157450D01*
X178139820Y-101157450D01*
X178139820Y-101331349D01*
X178167023Y-101503104D01*
X178220763Y-101668500D01*
X178299710Y-101823439D01*
X178299710Y-101823440D01*
X178304893Y-101830572D01*
X178844620Y-101290845D01*
X178844620Y-101297061D01*
X178871879Y-101398794D01*
X178924540Y-101490006D01*
X178999014Y-101564480D01*
X179090226Y-101617141D01*
X179191959Y-101644400D01*
X179198173Y-101644400D01*
X178658446Y-102184125D01*
X178665578Y-102189308D01*
X178820519Y-102268256D01*
X178985915Y-102321996D01*
X178985914Y-102321996D01*
X179157671Y-102349200D01*
X179331569Y-102349200D01*
X179503324Y-102321996D01*
X179668720Y-102268256D01*
X179823665Y-102189306D01*
X179830793Y-102184126D01*
X179830793Y-102184125D01*
X179291068Y-101644400D01*
X179297281Y-101644400D01*
X179399014Y-101617141D01*
X179490226Y-101564480D01*
X179564700Y-101490006D01*
X179617361Y-101398794D01*
X179644620Y-101297061D01*
X179644620Y-101290848D01*
X180184345Y-101830573D01*
X180184346Y-101830573D01*
X180189526Y-101823445D01*
X180268476Y-101668500D01*
X180322216Y-101503104D01*
X180349420Y-101331349D01*
X180349420Y-101157450D01*
X180322216Y-100985695D01*
X180268476Y-100820299D01*
X180189528Y-100665358D01*
X180184345Y-100658226D01*
X179644620Y-101197951D01*
X179644620Y-101191739D01*
X179617361Y-101090006D01*
X179564700Y-100998794D01*
X179490226Y-100924320D01*
X179399014Y-100871659D01*
X179297281Y-100844400D01*
X179291067Y-100844400D01*
X179830793Y-100304673D01*
X179823659Y-100299490D01*
X179668720Y-100220543D01*
X179503324Y-100166803D01*
X179503325Y-100166803D01*
X179331569Y-100139600D01*
X179157671Y-100139600D01*
X178985915Y-100166803D01*
X178820519Y-100220543D01*
X178665579Y-100299490D01*
X178665569Y-100299497D01*
X178658446Y-100304671D01*
X178658446Y-100304674D01*
X179198174Y-100844400D01*
X179191959Y-100844400D01*
X179090226Y-100871659D01*
X178999014Y-100924320D01*
X178924540Y-100998794D01*
X178871879Y-101090006D01*
X178844620Y-101191739D01*
X178844620Y-101197952D01*
X178304894Y-100658226D01*
X178304891Y-100658226D01*
X178299717Y-100665349D01*
X178299710Y-100665359D01*
X178220763Y-100820299D01*
X178167023Y-100985695D01*
X178139820Y-101157450D01*
X177849920Y-101157450D01*
X177849920Y-100650924D01*
X177839204Y-100561689D01*
X177783204Y-100419683D01*
X177742102Y-100365482D01*
X177690968Y-100298051D01*
X177569339Y-100205817D01*
X177569337Y-100205816D01*
X177470407Y-100166803D01*
X177427329Y-100149815D01*
X177381524Y-100144315D01*
X177338096Y-100139100D01*
X176151144Y-100139100D01*
X176110973Y-100143923D01*
X176061910Y-100149815D01*
X175919900Y-100205817D01*
X175798271Y-100298051D01*
X175706037Y-100419680D01*
X175650035Y-100561690D01*
X175644143Y-100610753D01*
X175639320Y-100650924D01*
X174192346Y-100650924D01*
X174176208Y-100549040D01*
X174176208Y-100549037D01*
X174107880Y-100338746D01*
X174007490Y-100141719D01*
X173960504Y-100077049D01*
X173960503Y-100077048D01*
X173329787Y-100707764D01*
X173318518Y-100665708D01*
X173246110Y-100540292D01*
X173143708Y-100437890D01*
X173018292Y-100365482D01*
X172976233Y-100354212D01*
X173606949Y-99723495D01*
X173606949Y-99723494D01*
X173542279Y-99676509D01*
X173345253Y-99576119D01*
X173134961Y-99507791D01*
X172916559Y-99473200D01*
X172695441Y-99473200D01*
X172477040Y-99507791D01*
X172477037Y-99507791D01*
X172266746Y-99576119D01*
X172069721Y-99676508D01*
X172005049Y-99723494D01*
X172005049Y-99723495D01*
X172635766Y-100354212D01*
X172593708Y-100365482D01*
X172468292Y-100437890D01*
X172365890Y-100540292D01*
X172293482Y-100665708D01*
X172282212Y-100707766D01*
X171651495Y-100077049D01*
X171651494Y-100077049D01*
X171604508Y-100141721D01*
X171504119Y-100338746D01*
X171435791Y-100549037D01*
X171435791Y-100549040D01*
X171401200Y-100767440D01*
X167185400Y-100767440D01*
X167150808Y-100549040D01*
X167150808Y-100549037D01*
X167082480Y-100338746D01*
X166982090Y-100141719D01*
X166935104Y-100077049D01*
X166935103Y-100077048D01*
X166304387Y-100707764D01*
X166293118Y-100665708D01*
X166220710Y-100540292D01*
X166118308Y-100437890D01*
X165992892Y-100365482D01*
X165950833Y-100354212D01*
X166581549Y-99723495D01*
X166581549Y-99723494D01*
X166516879Y-99676509D01*
X166319853Y-99576119D01*
X166109561Y-99507791D01*
X165891159Y-99473200D01*
X165670041Y-99473200D01*
X165451640Y-99507791D01*
X165451637Y-99507791D01*
X165241346Y-99576119D01*
X165044321Y-99676508D01*
X164979649Y-99723494D01*
X164979649Y-99723495D01*
X165610366Y-100354212D01*
X165568308Y-100365482D01*
X165442892Y-100437890D01*
X165340490Y-100540292D01*
X165268082Y-100665708D01*
X165256812Y-100707766D01*
X164626095Y-100077049D01*
X164626094Y-100077049D01*
X164579108Y-100141721D01*
X164478719Y-100338746D01*
X164410391Y-100549037D01*
X164410391Y-100549040D01*
X164375800Y-100767440D01*
X163424100Y-100767440D01*
X163424100Y-98041337D01*
X168769099Y-98041337D01*
X168807701Y-98235396D01*
X168807704Y-98235406D01*
X168883420Y-98418202D01*
X168883427Y-98418215D01*
X168993353Y-98582730D01*
X168993356Y-98582734D01*
X169133265Y-98722643D01*
X169133269Y-98722646D01*
X169297784Y-98832572D01*
X169297797Y-98832579D01*
X169480593Y-98908295D01*
X169480598Y-98908297D01*
X169480602Y-98908297D01*
X169480603Y-98908298D01*
X169674662Y-98946900D01*
X169674665Y-98946900D01*
X169872537Y-98946900D01*
X170003095Y-98920929D01*
X170066602Y-98908297D01*
X170249409Y-98832576D01*
X170413931Y-98722646D01*
X170553846Y-98582731D01*
X170663776Y-98418209D01*
X170739497Y-98235402D01*
X170778100Y-98041335D01*
X170778100Y-97843465D01*
X170778100Y-97843462D01*
X170739498Y-97649403D01*
X170739497Y-97649402D01*
X170739497Y-97649398D01*
X170739495Y-97649393D01*
X170663779Y-97466597D01*
X170663772Y-97466584D01*
X170553846Y-97302069D01*
X170553843Y-97302065D01*
X170413934Y-97162156D01*
X170413930Y-97162153D01*
X170249415Y-97052227D01*
X170249402Y-97052220D01*
X170066606Y-96976504D01*
X170066596Y-96976501D01*
X169872537Y-96937900D01*
X169872535Y-96937900D01*
X169674665Y-96937900D01*
X169674663Y-96937900D01*
X169480603Y-96976501D01*
X169480593Y-96976504D01*
X169297797Y-97052220D01*
X169297784Y-97052227D01*
X169133269Y-97162153D01*
X169133265Y-97162156D01*
X168993356Y-97302065D01*
X168993353Y-97302069D01*
X168883427Y-97466584D01*
X168883420Y-97466597D01*
X168807704Y-97649393D01*
X168807701Y-97649403D01*
X168769100Y-97843462D01*
X168769100Y-97843465D01*
X168769100Y-98041335D01*
X168769100Y-98041337D01*
X168769099Y-98041337D01*
X163424100Y-98041337D01*
X163424100Y-97034960D01*
X163424880Y-97021077D01*
X163431152Y-96965409D01*
X163438444Y-96900686D01*
X163444617Y-96873635D01*
X163482325Y-96765875D01*
X163494362Y-96740880D01*
X163555099Y-96644218D01*
X163572404Y-96622519D01*
X163653119Y-96541804D01*
X163674818Y-96524499D01*
X163771480Y-96463762D01*
X163796475Y-96451725D01*
X163904235Y-96414017D01*
X163931288Y-96407844D01*
X164051677Y-96394279D01*
X164065560Y-96393500D01*
X164130204Y-96393500D01*
X214786996Y-96393500D01*
X214851640Y-96393500D01*
X214865522Y-96394279D01*
G37*
%TD.AperFunction*%
%TD*%
M02*
