%TF.GenerationSoftware,KiCad,Pcbnew,9.0.7-9.0.7~ubuntu24.04.1*%
%TF.CreationDate,2026-01-02T10:48:07-08:00*%
%TF.ProjectId,BeamBreak-v1,4265616d-4272-4656-916b-2d76312e6b69,1*%
%TF.SameCoordinates,Original*%
%TF.FileFunction,Copper,L2,Bot*%
%TF.FilePolarity,Positive*%
%FSLAX46Y46*%
G04 Gerber Fmt 4.6, Leading zero omitted, Abs format (unit mm)*
G04 Created by KiCad (PCBNEW 9.0.7-9.0.7~ubuntu24.04.1) date 2026-01-02 10:48:07*
%MOMM*%
%LPD*%
G01*
G04 APERTURE LIST*
G04 Aperture macros list*
%AMRoundRect*
0 Rectangle with rounded corners*
0 $1 Rounding radius*
0 $2 $3 $4 $5 $6 $7 $8 $9 X,Y pos of 4 corners*
0 Add a 4 corners polygon primitive as box body*
4,1,4,$2,$3,$4,$5,$6,$7,$8,$9,$2,$3,0*
0 Add four circle primitives for the rounded corners*
1,1,$1+$1,$2,$3*
1,1,$1+$1,$4,$5*
1,1,$1+$1,$6,$7*
1,1,$1+$1,$8,$9*
0 Add four rect primitives between the rounded corners*
20,1,$1+$1,$2,$3,$4,$5,0*
20,1,$1+$1,$4,$5,$6,$7,0*
20,1,$1+$1,$6,$7,$8,$9,0*
20,1,$1+$1,$8,$9,$2,$3,0*%
G04 Aperture macros list end*
%TA.AperFunction,ComponentPad*%
%ADD10RoundRect,0.250000X-0.550000X-0.550000X0.550000X-0.550000X0.550000X0.550000X-0.550000X0.550000X0*%
%TD*%
%TA.AperFunction,ComponentPad*%
%ADD11C,1.600000*%
%TD*%
%TA.AperFunction,ComponentPad*%
%ADD12C,2.200000*%
%TD*%
%TA.AperFunction,ComponentPad*%
%ADD13R,1.778000X1.778000*%
%TD*%
%TA.AperFunction,ComponentPad*%
%ADD14C,1.778000*%
%TD*%
%TA.AperFunction,ComponentPad*%
%ADD15C,1.905000*%
%TD*%
%TA.AperFunction,ViaPad*%
%ADD16C,0.889000*%
%TD*%
%TA.AperFunction,Conductor*%
%ADD17C,0.381000*%
%TD*%
G04 APERTURE END LIST*
D10*
%TO.P,C7,1*%
%TO.N,Net-(D3-K)*%
X197243379Y-115483400D03*
D11*
%TO.P,C7,2*%
%TO.N,GND*%
X199743379Y-115483400D03*
%TD*%
D12*
%TO.P,J1,1,Pin_1*%
%TO.N,GND*%
X172806000Y-100878000D03*
X165780600Y-100878000D03*
%TO.P,J1,2,Pin_2*%
%TO.N,/Power Supply/DCIN*%
X172806000Y-105878000D03*
X165806000Y-105878000D03*
%TD*%
D10*
%TO.P,C2,1*%
%TO.N,/Power Supply/DCDC_IN*%
X176744620Y-101244400D03*
D11*
%TO.P,C2,2*%
%TO.N,GND*%
X179244620Y-101244400D03*
%TD*%
D10*
%TO.P,C6,1*%
%TO.N,Net-(D3-K)*%
X197242420Y-108483400D03*
D11*
%TO.P,C6,2*%
%TO.N,GND*%
X199742420Y-108483400D03*
%TD*%
D13*
%TO.P,J3,1,Pin_1*%
%TO.N,/GND_RIO*%
X175773500Y-118110000D03*
D14*
%TO.P,J3,2,Pin_2*%
%TO.N,/DIO_RIO*%
X175773500Y-115570000D03*
%TD*%
D13*
%TO.P,J2,1,Pin_1*%
%TO.N,GND*%
X203149200Y-107188000D03*
D15*
%TO.P,J2,2,Pin_2*%
%TO.N,+12V*%
X203149200Y-109728000D03*
D14*
%TO.P,J2,3,Pin_3*%
%TO.N,/SIG*%
X203149200Y-112268000D03*
%TD*%
D16*
%TO.N,GND*%
X191922400Y-105664000D03*
X194894200Y-118897400D03*
X209804000Y-101473000D03*
X189433200Y-102183724D03*
X182118000Y-108610400D03*
X182118000Y-111353600D03*
X203581000Y-98145600D03*
X185521600Y-97078800D03*
X194081400Y-100076000D03*
%TO.N,+12V*%
X209321400Y-121717800D03*
%TO.N,/SIG*%
X200710800Y-118567200D03*
%TD*%
D17*
%TO.N,+12V*%
X209321400Y-121717800D02*
X209321400Y-115900200D01*
X209321400Y-115900200D02*
X203149200Y-109728000D01*
%TO.N,/SIG*%
X203149200Y-116128800D02*
X200710800Y-118567200D01*
X203149200Y-112268000D02*
X203149200Y-116128800D01*
%TD*%
%TA.AperFunction,Conductor*%
%TO.N,GND*%
G36*
X213860231Y-96413185D02*
G01*
X213905986Y-96465989D01*
X213915930Y-96535147D01*
X213886905Y-96598703D01*
X213862082Y-96620602D01*
X213811873Y-96654150D01*
X213811865Y-96654156D01*
X213671956Y-96794065D01*
X213671953Y-96794069D01*
X213562027Y-96958584D01*
X213562020Y-96958597D01*
X213486304Y-97141393D01*
X213486301Y-97141403D01*
X213447700Y-97335462D01*
X213447700Y-97335465D01*
X213447700Y-97533335D01*
X213447700Y-97533337D01*
X213447699Y-97533337D01*
X213486301Y-97727396D01*
X213486304Y-97727406D01*
X213562020Y-97910202D01*
X213562027Y-97910215D01*
X213671953Y-98074730D01*
X213671956Y-98074734D01*
X213811865Y-98214643D01*
X213811869Y-98214646D01*
X213976384Y-98324572D01*
X213976397Y-98324579D01*
X214159193Y-98400295D01*
X214159198Y-98400297D01*
X214159202Y-98400297D01*
X214159203Y-98400298D01*
X214353262Y-98438900D01*
X214353265Y-98438900D01*
X214551137Y-98438900D01*
X214681695Y-98412929D01*
X214745202Y-98400297D01*
X214928009Y-98324576D01*
X215092531Y-98214646D01*
X215232446Y-98074731D01*
X215242723Y-98059350D01*
X215265998Y-98024518D01*
X215319610Y-97979712D01*
X215388935Y-97971005D01*
X215451962Y-98001159D01*
X215488682Y-98060602D01*
X215493100Y-98093408D01*
X215493100Y-121491286D01*
X215473415Y-121558325D01*
X215420611Y-121604080D01*
X215351453Y-121614024D01*
X215287897Y-121584999D01*
X215254539Y-121538738D01*
X215215379Y-121444197D01*
X215215372Y-121444184D01*
X215105446Y-121279669D01*
X215105443Y-121279665D01*
X214965534Y-121139756D01*
X214965530Y-121139753D01*
X214801015Y-121029827D01*
X214801002Y-121029820D01*
X214618206Y-120954104D01*
X214618196Y-120954101D01*
X214424137Y-120915500D01*
X214424135Y-120915500D01*
X214226265Y-120915500D01*
X214226263Y-120915500D01*
X214032203Y-120954101D01*
X214032193Y-120954104D01*
X213849397Y-121029820D01*
X213849384Y-121029827D01*
X213684869Y-121139753D01*
X213684865Y-121139756D01*
X213544956Y-121279665D01*
X213544953Y-121279669D01*
X213435027Y-121444184D01*
X213435020Y-121444197D01*
X213359304Y-121626993D01*
X213359301Y-121627003D01*
X213320700Y-121821062D01*
X213320700Y-121821065D01*
X213320700Y-122018935D01*
X213320700Y-122018937D01*
X213320699Y-122018937D01*
X213359301Y-122212996D01*
X213359304Y-122213006D01*
X213435020Y-122395802D01*
X213435027Y-122395815D01*
X213544953Y-122560330D01*
X213544956Y-122560334D01*
X213684865Y-122700243D01*
X213684869Y-122700246D01*
X213849384Y-122810172D01*
X213849397Y-122810179D01*
X213882617Y-122823939D01*
X213937021Y-122867779D01*
X213959086Y-122934073D01*
X213941807Y-123001773D01*
X213890670Y-123049384D01*
X213835165Y-123062500D01*
X170909840Y-123062500D01*
X170842801Y-123042815D01*
X170797046Y-122990011D01*
X170787102Y-122920853D01*
X170816127Y-122857297D01*
X170822159Y-122850819D01*
X170833243Y-122839734D01*
X170833246Y-122839731D01*
X170943176Y-122675209D01*
X171018897Y-122492402D01*
X171056918Y-122301261D01*
X171057500Y-122298337D01*
X171057500Y-122100462D01*
X171018898Y-121906403D01*
X171018897Y-121906402D01*
X171018897Y-121906398D01*
X170983550Y-121821062D01*
X170943179Y-121723597D01*
X170943172Y-121723584D01*
X170833246Y-121559069D01*
X170833243Y-121559065D01*
X170693334Y-121419156D01*
X170693330Y-121419153D01*
X170528815Y-121309227D01*
X170528802Y-121309220D01*
X170346006Y-121233504D01*
X170345996Y-121233501D01*
X170151937Y-121194900D01*
X170151935Y-121194900D01*
X169954065Y-121194900D01*
X169954063Y-121194900D01*
X169760003Y-121233501D01*
X169759993Y-121233504D01*
X169577197Y-121309220D01*
X169577184Y-121309227D01*
X169412669Y-121419153D01*
X169412665Y-121419156D01*
X169272756Y-121559065D01*
X169272753Y-121559069D01*
X169162827Y-121723584D01*
X169162820Y-121723597D01*
X169087104Y-121906393D01*
X169087101Y-121906403D01*
X169048500Y-122100462D01*
X169048500Y-122100465D01*
X169048500Y-122298335D01*
X169048500Y-122298337D01*
X169048499Y-122298337D01*
X169087101Y-122492396D01*
X169087104Y-122492406D01*
X169162820Y-122675202D01*
X169162827Y-122675215D01*
X169272753Y-122839730D01*
X169272756Y-122839734D01*
X169283841Y-122850819D01*
X169317326Y-122912142D01*
X169312342Y-122981834D01*
X169270470Y-123037767D01*
X169205006Y-123062184D01*
X169196160Y-123062500D01*
X164065560Y-123062500D01*
X164051678Y-123061720D01*
X164004931Y-123056453D01*
X163931293Y-123048156D01*
X163904227Y-123041979D01*
X163796482Y-123004277D01*
X163771473Y-122992233D01*
X163674824Y-122931504D01*
X163653115Y-122914191D01*
X163572408Y-122833484D01*
X163555095Y-122811775D01*
X163554092Y-122810179D01*
X163494364Y-122715123D01*
X163482323Y-122690121D01*
X163444618Y-122582365D01*
X163438444Y-122555309D01*
X163424880Y-122434922D01*
X163424100Y-122421039D01*
X163424100Y-119381901D01*
X165179000Y-119381901D01*
X165179000Y-119638098D01*
X165179001Y-119638114D01*
X165212441Y-119892120D01*
X165278753Y-120139600D01*
X165376795Y-120376296D01*
X165376802Y-120376311D01*
X165504904Y-120598191D01*
X165660874Y-120801455D01*
X165660880Y-120801462D01*
X165842037Y-120982619D01*
X165842044Y-120982625D01*
X166045308Y-121138595D01*
X166267188Y-121266697D01*
X166267203Y-121266704D01*
X166389610Y-121317406D01*
X166503898Y-121364746D01*
X166751378Y-121431058D01*
X167005395Y-121464500D01*
X167005402Y-121464500D01*
X167261598Y-121464500D01*
X167261605Y-121464500D01*
X167515622Y-121431058D01*
X167763102Y-121364746D01*
X167999808Y-121266699D01*
X168221692Y-121138595D01*
X168424957Y-120982624D01*
X168606124Y-120801457D01*
X168762095Y-120598192D01*
X168890199Y-120376308D01*
X168988246Y-120139602D01*
X169054558Y-119892122D01*
X169088000Y-119638105D01*
X169088000Y-119381895D01*
X169054558Y-119127878D01*
X168988246Y-118880398D01*
X168890199Y-118643692D01*
X168888675Y-118641053D01*
X168762095Y-118421808D01*
X168606125Y-118218544D01*
X168606119Y-118218537D01*
X168424962Y-118037380D01*
X168424955Y-118037374D01*
X168221691Y-117881404D01*
X167999811Y-117753302D01*
X167999796Y-117753295D01*
X167763100Y-117655253D01*
X167515620Y-117588941D01*
X167261614Y-117555501D01*
X167261611Y-117555500D01*
X167261605Y-117555500D01*
X167005395Y-117555500D01*
X167005389Y-117555500D01*
X167005385Y-117555501D01*
X166751379Y-117588941D01*
X166503899Y-117655253D01*
X166267203Y-117753295D01*
X166267188Y-117753302D01*
X166045308Y-117881404D01*
X165842044Y-118037374D01*
X165842037Y-118037380D01*
X165660880Y-118218537D01*
X165660874Y-118218544D01*
X165504904Y-118421808D01*
X165376802Y-118643688D01*
X165376795Y-118643703D01*
X165278753Y-118880399D01*
X165212441Y-119127879D01*
X165179001Y-119381885D01*
X165179000Y-119381901D01*
X163424100Y-119381901D01*
X163424100Y-114041901D01*
X165179000Y-114041901D01*
X165179000Y-114298098D01*
X165179001Y-114298114D01*
X165212441Y-114552120D01*
X165278753Y-114799600D01*
X165376795Y-115036296D01*
X165376802Y-115036311D01*
X165504904Y-115258191D01*
X165660874Y-115461455D01*
X165660880Y-115461462D01*
X165842037Y-115642619D01*
X165842044Y-115642625D01*
X166045308Y-115798595D01*
X166267188Y-115926697D01*
X166267203Y-115926704D01*
X166297152Y-115939109D01*
X166503898Y-116024746D01*
X166751378Y-116091058D01*
X167005395Y-116124500D01*
X167005402Y-116124500D01*
X167261598Y-116124500D01*
X167261605Y-116124500D01*
X167515622Y-116091058D01*
X167763102Y-116024746D01*
X167999808Y-115926699D01*
X168221692Y-115798595D01*
X168424957Y-115642624D01*
X168591574Y-115476007D01*
X174579200Y-115476007D01*
X174579200Y-115663992D01*
X174608608Y-115849667D01*
X174608608Y-115849670D01*
X174666697Y-116028449D01*
X174718731Y-116130572D01*
X174752043Y-116195950D01*
X174862539Y-116348034D01*
X174995466Y-116480961D01*
X175147550Y-116591457D01*
X175228166Y-116632533D01*
X175315045Y-116676800D01*
X175315857Y-116677136D01*
X175316118Y-116677346D01*
X175319389Y-116679013D01*
X175319038Y-116679699D01*
X175370263Y-116720974D01*
X175392332Y-116787267D01*
X175375057Y-116854967D01*
X175323922Y-116902581D01*
X175268411Y-116915700D01*
X174838928Y-116915700D01*
X174838905Y-116915702D01*
X174813393Y-116918661D01*
X174813390Y-116918662D01*
X174708975Y-116964765D01*
X174628266Y-117045474D01*
X174582162Y-117149888D01*
X174582162Y-117149890D01*
X174579200Y-117175419D01*
X174579200Y-119044571D01*
X174579202Y-119044594D01*
X174582161Y-119070106D01*
X174582162Y-119070109D01*
X174628265Y-119174524D01*
X174628266Y-119174525D01*
X174708975Y-119255234D01*
X174813391Y-119301338D01*
X174838921Y-119304300D01*
X176708078Y-119304299D01*
X176733609Y-119301338D01*
X176838025Y-119255234D01*
X176918734Y-119174525D01*
X176964838Y-119070109D01*
X176967800Y-119044579D01*
X176967799Y-118493346D01*
X199961000Y-118493346D01*
X199961000Y-118641053D01*
X199989812Y-118785901D01*
X199989814Y-118785909D01*
X200046334Y-118922360D01*
X200046339Y-118922370D01*
X200128391Y-119045169D01*
X200128394Y-119045173D01*
X200232826Y-119149605D01*
X200232830Y-119149608D01*
X200355629Y-119231660D01*
X200355633Y-119231662D01*
X200355636Y-119231664D01*
X200492091Y-119288186D01*
X200636946Y-119316999D01*
X200636950Y-119317000D01*
X200636951Y-119317000D01*
X200784650Y-119317000D01*
X200784651Y-119316999D01*
X200929509Y-119288186D01*
X201065964Y-119231664D01*
X201188770Y-119149608D01*
X201293208Y-119045170D01*
X201375264Y-118922364D01*
X201431786Y-118785909D01*
X201460600Y-118641049D01*
X201460600Y-118569929D01*
X201480285Y-118502890D01*
X201496919Y-118482248D01*
X203545935Y-116433232D01*
X203545938Y-116433229D01*
X203567433Y-116396000D01*
X203611212Y-116320172D01*
X203617437Y-116296939D01*
X203645000Y-116194074D01*
X203645000Y-116063527D01*
X203645000Y-113431758D01*
X203664685Y-113364719D01*
X203712704Y-113321274D01*
X203775150Y-113289457D01*
X203927234Y-113178961D01*
X204060161Y-113046034D01*
X204170657Y-112893950D01*
X204256001Y-112726452D01*
X204265449Y-112697374D01*
X204314091Y-112547670D01*
X204314091Y-112547669D01*
X204314092Y-112547666D01*
X204343500Y-112361993D01*
X204343500Y-112174007D01*
X204314092Y-111988334D01*
X204314091Y-111988330D01*
X204314091Y-111988329D01*
X204283933Y-111895512D01*
X204281938Y-111825671D01*
X204318018Y-111765838D01*
X204380719Y-111735010D01*
X204450134Y-111742975D01*
X204489545Y-111769513D01*
X208789281Y-116069249D01*
X208822766Y-116130572D01*
X208825600Y-116156930D01*
X208825600Y-121101859D01*
X208805915Y-121168898D01*
X208789281Y-121189540D01*
X208738994Y-121239826D01*
X208738991Y-121239830D01*
X208656939Y-121362629D01*
X208656934Y-121362639D01*
X208600414Y-121499090D01*
X208600412Y-121499098D01*
X208571600Y-121643946D01*
X208571600Y-121791653D01*
X208600412Y-121936501D01*
X208600414Y-121936509D01*
X208656934Y-122072960D01*
X208656939Y-122072970D01*
X208738991Y-122195769D01*
X208738994Y-122195773D01*
X208843426Y-122300205D01*
X208843430Y-122300208D01*
X208966229Y-122382260D01*
X208966233Y-122382262D01*
X208966236Y-122382264D01*
X209102691Y-122438786D01*
X209247546Y-122467599D01*
X209247550Y-122467600D01*
X209247551Y-122467600D01*
X209395250Y-122467600D01*
X209395251Y-122467599D01*
X209540109Y-122438786D01*
X209676564Y-122382264D01*
X209799370Y-122300208D01*
X209903808Y-122195770D01*
X209985864Y-122072964D01*
X210042386Y-121936509D01*
X210071200Y-121791649D01*
X210071200Y-121643951D01*
X210042386Y-121499091D01*
X209985864Y-121362636D01*
X209985862Y-121362633D01*
X209985860Y-121362629D01*
X209903808Y-121239830D01*
X209903805Y-121239826D01*
X209853519Y-121189540D01*
X209820034Y-121128217D01*
X209817200Y-121101859D01*
X209817200Y-115834927D01*
X209812526Y-115817485D01*
X209800306Y-115771877D01*
X209783412Y-115708828D01*
X209739633Y-115633000D01*
X209718139Y-115595771D01*
X207662269Y-113539901D01*
X209834700Y-113539901D01*
X209834700Y-113796098D01*
X209834701Y-113796114D01*
X209868141Y-114050120D01*
X209934453Y-114297600D01*
X210032495Y-114534296D01*
X210032502Y-114534311D01*
X210160604Y-114756191D01*
X210316574Y-114959455D01*
X210316580Y-114959462D01*
X210497737Y-115140619D01*
X210497744Y-115140625D01*
X210701008Y-115296595D01*
X210922888Y-115424697D01*
X210922903Y-115424704D01*
X211045310Y-115475406D01*
X211159598Y-115522746D01*
X211407078Y-115589058D01*
X211661095Y-115622500D01*
X211661102Y-115622500D01*
X211917298Y-115622500D01*
X211917305Y-115622500D01*
X212171322Y-115589058D01*
X212418802Y-115522746D01*
X212655508Y-115424699D01*
X212877392Y-115296595D01*
X213080657Y-115140624D01*
X213261824Y-114959457D01*
X213417795Y-114756192D01*
X213545899Y-114534308D01*
X213643946Y-114297602D01*
X213710258Y-114050122D01*
X213743700Y-113796105D01*
X213743700Y-113539895D01*
X213710258Y-113285878D01*
X213643946Y-113038398D01*
X213545899Y-112801692D01*
X213502459Y-112726452D01*
X213417795Y-112579808D01*
X213261825Y-112376544D01*
X213261819Y-112376537D01*
X213080662Y-112195380D01*
X213080655Y-112195374D01*
X212877391Y-112039404D01*
X212655511Y-111911302D01*
X212655496Y-111911295D01*
X212418800Y-111813253D01*
X212171320Y-111746941D01*
X211917314Y-111713501D01*
X211917311Y-111713500D01*
X211917305Y-111713500D01*
X211661095Y-111713500D01*
X211661089Y-111713500D01*
X211661085Y-111713501D01*
X211407079Y-111746941D01*
X211159599Y-111813253D01*
X210922903Y-111911295D01*
X210922888Y-111911302D01*
X210701008Y-112039404D01*
X210497744Y-112195374D01*
X210497737Y-112195380D01*
X210316580Y-112376537D01*
X210316574Y-112376544D01*
X210160604Y-112579808D01*
X210032502Y-112801688D01*
X210032495Y-112801703D01*
X209934453Y-113038399D01*
X209868141Y-113285879D01*
X209834701Y-113539885D01*
X209834700Y-113539901D01*
X207662269Y-113539901D01*
X204373079Y-110250711D01*
X204339594Y-110189388D01*
X204342829Y-110124712D01*
X204376028Y-110022535D01*
X204407000Y-109826989D01*
X204407000Y-109629010D01*
X204407000Y-109629009D01*
X204376028Y-109433465D01*
X204335301Y-109308119D01*
X204314850Y-109245175D01*
X204314848Y-109245172D01*
X204229098Y-109076876D01*
X204224967Y-109068769D01*
X204108596Y-108908599D01*
X203968601Y-108768604D01*
X203808431Y-108652233D01*
X203737877Y-108616284D01*
X203687081Y-108568309D01*
X203670286Y-108500488D01*
X203692823Y-108434353D01*
X203747539Y-108390902D01*
X203794172Y-108381799D01*
X204083704Y-108381799D01*
X204083713Y-108381798D01*
X204109193Y-108378843D01*
X204213438Y-108332814D01*
X204294014Y-108252238D01*
X204340043Y-108147995D01*
X204342999Y-108122516D01*
X204343000Y-108122510D01*
X204343000Y-107438000D01*
X203620780Y-107438000D01*
X203646250Y-107393885D01*
X203682600Y-107258223D01*
X203682600Y-107117777D01*
X203646250Y-106982115D01*
X203620780Y-106938000D01*
X204342999Y-106938000D01*
X204342999Y-106253495D01*
X204342998Y-106253486D01*
X204340043Y-106228006D01*
X204294014Y-106123761D01*
X204213438Y-106043185D01*
X204109194Y-105997156D01*
X204109196Y-105997156D01*
X204083716Y-105994200D01*
X203399200Y-105994200D01*
X203399200Y-106716420D01*
X203355085Y-106690950D01*
X203219423Y-106654600D01*
X203078977Y-106654600D01*
X202943315Y-106690950D01*
X202899200Y-106716420D01*
X202899200Y-105994200D01*
X202214695Y-105994200D01*
X202214686Y-105994201D01*
X202189206Y-105997156D01*
X202084961Y-106043185D01*
X202004385Y-106123761D01*
X201958356Y-106228004D01*
X201955400Y-106253483D01*
X201955400Y-106938000D01*
X202677620Y-106938000D01*
X202652150Y-106982115D01*
X202615800Y-107117777D01*
X202615800Y-107258223D01*
X202652150Y-107393885D01*
X202677620Y-107438000D01*
X201955401Y-107438000D01*
X201955401Y-108122513D01*
X201958356Y-108147993D01*
X202004385Y-108252238D01*
X202084961Y-108332814D01*
X202189205Y-108378843D01*
X202189203Y-108378843D01*
X202214686Y-108381799D01*
X202504226Y-108381799D01*
X202571265Y-108401483D01*
X202617020Y-108454287D01*
X202626964Y-108523446D01*
X202597939Y-108587001D01*
X202560522Y-108616283D01*
X202489971Y-108652231D01*
X202409884Y-108710418D01*
X202329799Y-108768604D01*
X202329797Y-108768606D01*
X202329796Y-108768606D01*
X202189806Y-108908596D01*
X202189806Y-108908597D01*
X202189804Y-108908599D01*
X202139827Y-108977385D01*
X202073433Y-109068768D01*
X201983551Y-109245172D01*
X201983549Y-109245175D01*
X201922372Y-109433463D01*
X201901724Y-109563827D01*
X201897785Y-109588700D01*
X201891400Y-109629010D01*
X201891400Y-109826989D01*
X201922372Y-110022536D01*
X201983549Y-110210824D01*
X201983551Y-110210827D01*
X202073433Y-110387231D01*
X202189804Y-110547401D01*
X202329799Y-110687396D01*
X202489969Y-110803767D01*
X202666373Y-110893649D01*
X202666375Y-110893649D01*
X202666378Y-110893651D01*
X202727321Y-110913452D01*
X202784997Y-110952888D01*
X202812196Y-111017247D01*
X202800282Y-111086093D01*
X202753039Y-111137569D01*
X202727324Y-111149313D01*
X202690753Y-111161196D01*
X202523249Y-111246543D01*
X202436479Y-111309585D01*
X202371166Y-111357039D01*
X202371164Y-111357041D01*
X202371163Y-111357041D01*
X202238241Y-111489963D01*
X202238241Y-111489964D01*
X202238239Y-111489966D01*
X202190785Y-111555279D01*
X202127743Y-111642049D01*
X202042397Y-111809550D01*
X201984308Y-111988329D01*
X201984308Y-111988332D01*
X201984308Y-111988334D01*
X201954900Y-112174007D01*
X201954900Y-112361993D01*
X201963027Y-112413302D01*
X201984308Y-112547667D01*
X201984308Y-112547670D01*
X202042397Y-112726449D01*
X202042399Y-112726452D01*
X202127743Y-112893950D01*
X202238239Y-113046034D01*
X202371166Y-113178961D01*
X202457022Y-113241340D01*
X202523245Y-113289454D01*
X202523247Y-113289455D01*
X202523250Y-113289457D01*
X202585695Y-113321273D01*
X202636490Y-113369247D01*
X202653400Y-113431758D01*
X202653400Y-115872070D01*
X202633715Y-115939109D01*
X202617081Y-115959751D01*
X200795751Y-117781081D01*
X200734428Y-117814566D01*
X200708070Y-117817400D01*
X200636946Y-117817400D01*
X200492098Y-117846212D01*
X200492090Y-117846214D01*
X200355639Y-117902734D01*
X200355629Y-117902739D01*
X200232830Y-117984791D01*
X200232826Y-117984794D01*
X200128394Y-118089226D01*
X200128391Y-118089230D01*
X200046339Y-118212029D01*
X200046334Y-118212039D01*
X199989814Y-118348490D01*
X199989812Y-118348498D01*
X199961000Y-118493346D01*
X176967799Y-118493346D01*
X176967799Y-118089230D01*
X176967799Y-117175428D01*
X176967799Y-117175422D01*
X176964838Y-117149891D01*
X176918734Y-117045475D01*
X176838025Y-116964766D01*
X176838023Y-116964765D01*
X176733610Y-116918662D01*
X176708080Y-116915700D01*
X176278589Y-116915700D01*
X176211550Y-116896015D01*
X176165795Y-116843211D01*
X176155851Y-116774053D01*
X176184876Y-116710497D01*
X176227860Y-116679502D01*
X176227611Y-116679013D01*
X176230777Y-116677399D01*
X176231143Y-116677136D01*
X176231954Y-116676800D01*
X176235084Y-116675205D01*
X176399450Y-116591457D01*
X176551534Y-116480961D01*
X176684461Y-116348034D01*
X176794957Y-116195950D01*
X176880301Y-116028452D01*
X176938392Y-115849666D01*
X176967800Y-115663993D01*
X176967800Y-115476007D01*
X176938392Y-115290334D01*
X176938391Y-115290330D01*
X176938391Y-115290329D01*
X176880302Y-115111550D01*
X176794957Y-114944050D01*
X176794956Y-114944049D01*
X176755632Y-114889924D01*
X196138079Y-114889924D01*
X196138079Y-116076876D01*
X196141525Y-116105568D01*
X196148794Y-116166109D01*
X196148795Y-116166111D01*
X196200387Y-116296940D01*
X196204796Y-116308119D01*
X196297030Y-116429748D01*
X196364561Y-116480958D01*
X196418662Y-116521984D01*
X196560668Y-116577984D01*
X196649903Y-116588700D01*
X196649909Y-116588700D01*
X197836849Y-116588700D01*
X197836855Y-116588700D01*
X197926090Y-116577984D01*
X198068096Y-116521984D01*
X198189727Y-116429748D01*
X198281963Y-116308117D01*
X198337963Y-116166111D01*
X198348679Y-116076876D01*
X198348679Y-115396450D01*
X198638579Y-115396450D01*
X198638579Y-115570349D01*
X198665782Y-115742104D01*
X198719522Y-115907500D01*
X198798469Y-116062439D01*
X198798469Y-116062440D01*
X198803652Y-116069572D01*
X199343379Y-115529845D01*
X199343379Y-115536061D01*
X199370638Y-115637794D01*
X199423299Y-115729006D01*
X199497773Y-115803480D01*
X199588985Y-115856141D01*
X199690718Y-115883400D01*
X199696932Y-115883400D01*
X199157205Y-116423125D01*
X199164337Y-116428308D01*
X199319278Y-116507256D01*
X199484674Y-116560996D01*
X199484673Y-116560996D01*
X199656430Y-116588200D01*
X199830328Y-116588200D01*
X200002083Y-116560996D01*
X200167479Y-116507256D01*
X200322424Y-116428306D01*
X200329552Y-116423126D01*
X200329552Y-116423125D01*
X199789827Y-115883400D01*
X199796040Y-115883400D01*
X199897773Y-115856141D01*
X199988985Y-115803480D01*
X200063459Y-115729006D01*
X200116120Y-115637794D01*
X200143379Y-115536061D01*
X200143379Y-115529847D01*
X200683104Y-116069573D01*
X200683105Y-116069573D01*
X200688285Y-116062445D01*
X200767235Y-115907500D01*
X200820975Y-115742104D01*
X200848179Y-115570349D01*
X200848179Y-115396450D01*
X200820975Y-115224695D01*
X200767235Y-115059299D01*
X200688287Y-114904358D01*
X200683104Y-114897226D01*
X200143379Y-115436951D01*
X200143379Y-115430739D01*
X200116120Y-115329006D01*
X200063459Y-115237794D01*
X199988985Y-115163320D01*
X199897773Y-115110659D01*
X199796040Y-115083400D01*
X199789826Y-115083400D01*
X200329552Y-114543673D01*
X200322418Y-114538490D01*
X200167479Y-114459543D01*
X200002083Y-114405803D01*
X200002084Y-114405803D01*
X199830328Y-114378600D01*
X199656430Y-114378600D01*
X199484674Y-114405803D01*
X199319278Y-114459543D01*
X199164338Y-114538490D01*
X199164328Y-114538497D01*
X199157205Y-114543671D01*
X199157205Y-114543674D01*
X199696933Y-115083400D01*
X199690718Y-115083400D01*
X199588985Y-115110659D01*
X199497773Y-115163320D01*
X199423299Y-115237794D01*
X199370638Y-115329006D01*
X199343379Y-115430739D01*
X199343379Y-115436952D01*
X198803653Y-114897226D01*
X198803650Y-114897226D01*
X198798476Y-114904349D01*
X198798469Y-114904359D01*
X198719522Y-115059299D01*
X198665782Y-115224695D01*
X198638579Y-115396450D01*
X198348679Y-115396450D01*
X198348679Y-114889924D01*
X198337963Y-114800689D01*
X198281963Y-114658683D01*
X198281961Y-114658680D01*
X198189727Y-114537051D01*
X198068098Y-114444817D01*
X198068096Y-114444816D01*
X197967404Y-114405108D01*
X197926088Y-114388815D01*
X197880283Y-114383315D01*
X197836855Y-114378100D01*
X196649903Y-114378100D01*
X196609732Y-114382923D01*
X196560669Y-114388815D01*
X196418659Y-114444817D01*
X196297030Y-114537051D01*
X196204796Y-114658680D01*
X196148794Y-114800690D01*
X196142902Y-114849753D01*
X196138079Y-114889924D01*
X176755632Y-114889924D01*
X176684461Y-114791966D01*
X176551534Y-114659039D01*
X176399450Y-114548543D01*
X176371489Y-114534296D01*
X176231949Y-114463197D01*
X176053169Y-114405108D01*
X175913911Y-114383052D01*
X175867493Y-114375700D01*
X175679507Y-114375700D01*
X175617616Y-114385502D01*
X175493832Y-114405108D01*
X175493829Y-114405108D01*
X175315050Y-114463197D01*
X175147549Y-114548543D01*
X175060779Y-114611585D01*
X174995466Y-114659039D01*
X174995464Y-114659041D01*
X174995463Y-114659041D01*
X174862541Y-114791963D01*
X174862541Y-114791964D01*
X174862539Y-114791966D01*
X174856201Y-114800690D01*
X174752043Y-114944049D01*
X174666697Y-115111550D01*
X174608608Y-115290329D01*
X174608608Y-115290332D01*
X174579200Y-115476007D01*
X168591574Y-115476007D01*
X168606124Y-115461457D01*
X168762095Y-115258192D01*
X168890199Y-115036308D01*
X168988246Y-114799602D01*
X169054558Y-114552122D01*
X169088000Y-114298105D01*
X169088000Y-114041895D01*
X169054558Y-113787878D01*
X168988246Y-113540398D01*
X168911771Y-113355771D01*
X168890204Y-113303703D01*
X168890197Y-113303688D01*
X168762095Y-113081808D01*
X168606125Y-112878544D01*
X168606119Y-112878537D01*
X168424962Y-112697380D01*
X168424955Y-112697374D01*
X168221691Y-112541404D01*
X167999811Y-112413302D01*
X167999796Y-112413295D01*
X167763100Y-112315253D01*
X167515620Y-112248941D01*
X167261614Y-112215501D01*
X167261611Y-112215500D01*
X167261605Y-112215500D01*
X167005395Y-112215500D01*
X167005389Y-112215500D01*
X167005385Y-112215501D01*
X166751379Y-112248941D01*
X166503899Y-112315253D01*
X166267203Y-112413295D01*
X166267188Y-112413302D01*
X166045308Y-112541404D01*
X165842044Y-112697374D01*
X165842037Y-112697380D01*
X165660880Y-112878537D01*
X165660874Y-112878544D01*
X165504904Y-113081808D01*
X165376802Y-113303688D01*
X165376795Y-113303703D01*
X165278753Y-113540399D01*
X165212441Y-113787879D01*
X165179001Y-114041885D01*
X165179000Y-114041901D01*
X163424100Y-114041901D01*
X163424100Y-107889924D01*
X196137120Y-107889924D01*
X196137120Y-109076876D01*
X196142747Y-109123741D01*
X196147835Y-109166109D01*
X196203837Y-109308119D01*
X196296071Y-109429748D01*
X196398281Y-109507256D01*
X196417703Y-109521984D01*
X196559709Y-109577984D01*
X196648944Y-109588700D01*
X196648950Y-109588700D01*
X197835890Y-109588700D01*
X197835896Y-109588700D01*
X197925131Y-109577984D01*
X198067137Y-109521984D01*
X198188768Y-109429748D01*
X198281004Y-109308117D01*
X198337004Y-109166111D01*
X198347720Y-109076876D01*
X198347720Y-108396450D01*
X198637620Y-108396450D01*
X198637620Y-108570349D01*
X198664823Y-108742104D01*
X198718563Y-108907500D01*
X198797510Y-109062439D01*
X198797510Y-109062440D01*
X198802693Y-109069572D01*
X199342420Y-108529845D01*
X199342420Y-108536061D01*
X199369679Y-108637794D01*
X199422340Y-108729006D01*
X199496814Y-108803480D01*
X199588026Y-108856141D01*
X199689759Y-108883400D01*
X199695973Y-108883400D01*
X199156246Y-109423125D01*
X199163378Y-109428308D01*
X199318319Y-109507256D01*
X199483715Y-109560996D01*
X199483714Y-109560996D01*
X199655471Y-109588200D01*
X199829369Y-109588200D01*
X200001124Y-109560996D01*
X200166520Y-109507256D01*
X200321465Y-109428306D01*
X200328593Y-109423126D01*
X200328593Y-109423125D01*
X199788868Y-108883400D01*
X199795081Y-108883400D01*
X199896814Y-108856141D01*
X199988026Y-108803480D01*
X200062500Y-108729006D01*
X200115161Y-108637794D01*
X200142420Y-108536061D01*
X200142420Y-108529848D01*
X200682145Y-109069573D01*
X200682146Y-109069573D01*
X200687326Y-109062445D01*
X200766276Y-108907500D01*
X200820016Y-108742104D01*
X200847220Y-108570349D01*
X200847220Y-108396450D01*
X200820016Y-108224695D01*
X200766276Y-108059299D01*
X200687328Y-107904358D01*
X200682145Y-107897226D01*
X200142420Y-108436951D01*
X200142420Y-108430739D01*
X200115161Y-108329006D01*
X200062500Y-108237794D01*
X199988026Y-108163320D01*
X199896814Y-108110659D01*
X199795081Y-108083400D01*
X199788867Y-108083400D01*
X200328593Y-107543673D01*
X200321459Y-107538490D01*
X200166520Y-107459543D01*
X200001124Y-107405803D01*
X200001125Y-107405803D01*
X199829369Y-107378600D01*
X199655471Y-107378600D01*
X199483715Y-107405803D01*
X199318319Y-107459543D01*
X199163379Y-107538490D01*
X199163369Y-107538497D01*
X199156246Y-107543671D01*
X199156246Y-107543674D01*
X199695974Y-108083400D01*
X199689759Y-108083400D01*
X199588026Y-108110659D01*
X199496814Y-108163320D01*
X199422340Y-108237794D01*
X199369679Y-108329006D01*
X199342420Y-108430739D01*
X199342420Y-108436952D01*
X198802694Y-107897226D01*
X198802691Y-107897226D01*
X198797517Y-107904349D01*
X198797510Y-107904359D01*
X198718563Y-108059299D01*
X198664823Y-108224695D01*
X198637620Y-108396450D01*
X198347720Y-108396450D01*
X198347720Y-107889924D01*
X198337004Y-107800689D01*
X198281004Y-107658683D01*
X198268919Y-107642746D01*
X198188768Y-107537051D01*
X198067139Y-107444817D01*
X198067137Y-107444816D01*
X197968207Y-107405803D01*
X197925129Y-107388815D01*
X197879324Y-107383315D01*
X197835896Y-107378100D01*
X196648944Y-107378100D01*
X196608773Y-107382923D01*
X196559710Y-107388815D01*
X196417700Y-107444817D01*
X196296071Y-107537051D01*
X196203837Y-107658680D01*
X196147835Y-107800690D01*
X196141943Y-107849753D01*
X196137120Y-107889924D01*
X163424100Y-107889924D01*
X163424100Y-105767401D01*
X164400700Y-105767401D01*
X164400700Y-105988598D01*
X164435304Y-106207076D01*
X164435304Y-106207079D01*
X164503656Y-106417445D01*
X164503658Y-106417448D01*
X164604080Y-106614537D01*
X164734098Y-106793491D01*
X164890509Y-106949902D01*
X165069463Y-107079920D01*
X165266552Y-107180342D01*
X165266554Y-107180343D01*
X165462775Y-107244098D01*
X165476925Y-107248696D01*
X165695401Y-107283300D01*
X165695402Y-107283300D01*
X165916598Y-107283300D01*
X165916599Y-107283300D01*
X166135075Y-107248696D01*
X166135078Y-107248695D01*
X166135079Y-107248695D01*
X166345445Y-107180343D01*
X166345445Y-107180342D01*
X166345448Y-107180342D01*
X166542537Y-107079920D01*
X166721491Y-106949902D01*
X166877902Y-106793491D01*
X167007920Y-106614537D01*
X167108342Y-106417448D01*
X167108343Y-106417445D01*
X167176695Y-106207079D01*
X167176695Y-106207077D01*
X167176696Y-106207075D01*
X167211300Y-105988599D01*
X167211300Y-105767401D01*
X171400700Y-105767401D01*
X171400700Y-105988598D01*
X171435304Y-106207076D01*
X171435304Y-106207079D01*
X171503656Y-106417445D01*
X171503658Y-106417448D01*
X171604080Y-106614537D01*
X171734098Y-106793491D01*
X171890509Y-106949902D01*
X172069463Y-107079920D01*
X172266552Y-107180342D01*
X172266554Y-107180343D01*
X172462775Y-107244098D01*
X172476925Y-107248696D01*
X172695401Y-107283300D01*
X172695402Y-107283300D01*
X172916598Y-107283300D01*
X172916599Y-107283300D01*
X173135075Y-107248696D01*
X173135078Y-107248695D01*
X173135079Y-107248695D01*
X173345445Y-107180343D01*
X173345445Y-107180342D01*
X173345448Y-107180342D01*
X173542537Y-107079920D01*
X173721491Y-106949902D01*
X173877902Y-106793491D01*
X174007920Y-106614537D01*
X174108342Y-106417448D01*
X174108343Y-106417445D01*
X174175230Y-106211588D01*
X174175230Y-106211587D01*
X174175231Y-106211585D01*
X174175993Y-106209236D01*
X174176696Y-106207075D01*
X174211300Y-105988599D01*
X174211300Y-105767401D01*
X174194273Y-105659901D01*
X209834700Y-105659901D01*
X209834700Y-105916098D01*
X209834701Y-105916114D01*
X209868141Y-106170120D01*
X209934453Y-106417600D01*
X210032495Y-106654296D01*
X210032502Y-106654311D01*
X210160604Y-106876191D01*
X210316574Y-107079455D01*
X210316580Y-107079462D01*
X210497737Y-107260619D01*
X210497744Y-107260625D01*
X210701008Y-107416595D01*
X210922888Y-107544697D01*
X210922903Y-107544704D01*
X211045310Y-107595406D01*
X211159598Y-107642746D01*
X211407078Y-107709058D01*
X211661095Y-107742500D01*
X211661102Y-107742500D01*
X211917298Y-107742500D01*
X211917305Y-107742500D01*
X212171322Y-107709058D01*
X212418802Y-107642746D01*
X212655508Y-107544699D01*
X212877392Y-107416595D01*
X213080657Y-107260624D01*
X213261824Y-107079457D01*
X213417795Y-106876192D01*
X213545899Y-106654308D01*
X213643946Y-106417602D01*
X213710258Y-106170122D01*
X213743700Y-105916105D01*
X213743700Y-105659895D01*
X213710258Y-105405878D01*
X213643946Y-105158398D01*
X213545899Y-104921692D01*
X213417795Y-104699808D01*
X213261824Y-104496543D01*
X213261819Y-104496537D01*
X213080662Y-104315380D01*
X213080655Y-104315374D01*
X212877391Y-104159404D01*
X212655511Y-104031302D01*
X212655496Y-104031295D01*
X212418800Y-103933253D01*
X212171320Y-103866941D01*
X211917314Y-103833501D01*
X211917311Y-103833500D01*
X211917305Y-103833500D01*
X211661095Y-103833500D01*
X211661089Y-103833500D01*
X211661085Y-103833501D01*
X211407079Y-103866941D01*
X211159599Y-103933253D01*
X210922903Y-104031295D01*
X210922888Y-104031302D01*
X210701008Y-104159404D01*
X210497744Y-104315374D01*
X210497737Y-104315380D01*
X210316580Y-104496537D01*
X210316574Y-104496544D01*
X210160604Y-104699808D01*
X210032502Y-104921688D01*
X210032495Y-104921703D01*
X209934453Y-105158399D01*
X209868141Y-105405879D01*
X209834701Y-105659885D01*
X209834700Y-105659901D01*
X174194273Y-105659901D01*
X174176696Y-105548925D01*
X174176695Y-105548921D01*
X174176695Y-105548920D01*
X174108343Y-105338554D01*
X174016549Y-105158399D01*
X174007920Y-105141463D01*
X173877902Y-104962509D01*
X173721491Y-104806098D01*
X173542537Y-104676080D01*
X173345445Y-104575656D01*
X173135077Y-104507304D01*
X172989424Y-104484234D01*
X172916599Y-104472700D01*
X172695401Y-104472700D01*
X172622575Y-104484234D01*
X172476923Y-104507304D01*
X172476920Y-104507304D01*
X172266554Y-104575656D01*
X172069462Y-104676080D01*
X172036804Y-104699808D01*
X171890509Y-104806098D01*
X171890507Y-104806100D01*
X171890506Y-104806100D01*
X171734100Y-104962506D01*
X171734100Y-104962507D01*
X171734098Y-104962509D01*
X171678260Y-105039362D01*
X171604080Y-105141462D01*
X171503656Y-105338554D01*
X171435304Y-105548920D01*
X171435304Y-105548923D01*
X171400700Y-105767401D01*
X167211300Y-105767401D01*
X167176696Y-105548925D01*
X167176695Y-105548921D01*
X167176695Y-105548920D01*
X167108343Y-105338554D01*
X167016549Y-105158399D01*
X167007920Y-105141463D01*
X166877902Y-104962509D01*
X166721491Y-104806098D01*
X166542537Y-104676080D01*
X166345445Y-104575656D01*
X166135077Y-104507304D01*
X165989424Y-104484234D01*
X165916599Y-104472700D01*
X165695401Y-104472700D01*
X165622575Y-104484234D01*
X165476923Y-104507304D01*
X165476920Y-104507304D01*
X165266554Y-104575656D01*
X165069462Y-104676080D01*
X165036804Y-104699808D01*
X164890509Y-104806098D01*
X164890507Y-104806100D01*
X164890506Y-104806100D01*
X164734100Y-104962506D01*
X164734100Y-104962507D01*
X164734098Y-104962509D01*
X164678260Y-105039362D01*
X164604080Y-105141462D01*
X164503656Y-105338554D01*
X164435304Y-105548920D01*
X164435304Y-105548923D01*
X164400700Y-105767401D01*
X163424100Y-105767401D01*
X163424100Y-100767440D01*
X164375800Y-100767440D01*
X164375800Y-100988559D01*
X164410391Y-101206959D01*
X164410391Y-101206962D01*
X164478719Y-101417253D01*
X164579109Y-101614279D01*
X164626094Y-101678949D01*
X164626095Y-101678949D01*
X165256812Y-101048233D01*
X165268082Y-101090292D01*
X165340490Y-101215708D01*
X165442892Y-101318110D01*
X165568308Y-101390518D01*
X165610365Y-101401787D01*
X164979648Y-102032503D01*
X164979649Y-102032504D01*
X165044319Y-102079490D01*
X165241346Y-102179880D01*
X165451638Y-102248208D01*
X165670041Y-102282800D01*
X165891159Y-102282800D01*
X166109559Y-102248208D01*
X166109562Y-102248208D01*
X166319853Y-102179880D01*
X166516876Y-102079492D01*
X166581549Y-102032503D01*
X166581550Y-102032502D01*
X165950835Y-101401787D01*
X165992892Y-101390518D01*
X166118308Y-101318110D01*
X166220710Y-101215708D01*
X166293118Y-101090292D01*
X166304387Y-101048234D01*
X166935102Y-101678950D01*
X166935103Y-101678949D01*
X166982092Y-101614276D01*
X167082480Y-101417253D01*
X167150808Y-101206962D01*
X167150808Y-101206959D01*
X167185400Y-100988559D01*
X167185400Y-100767440D01*
X171401200Y-100767440D01*
X171401200Y-100988559D01*
X171435791Y-101206959D01*
X171435791Y-101206962D01*
X171504119Y-101417253D01*
X171604509Y-101614279D01*
X171651494Y-101678949D01*
X171651495Y-101678949D01*
X172282212Y-101048233D01*
X172293482Y-101090292D01*
X172365890Y-101215708D01*
X172468292Y-101318110D01*
X172593708Y-101390518D01*
X172635765Y-101401787D01*
X172005048Y-102032503D01*
X172005049Y-102032504D01*
X172069719Y-102079490D01*
X172266746Y-102179880D01*
X172477038Y-102248208D01*
X172695441Y-102282800D01*
X172916559Y-102282800D01*
X173134959Y-102248208D01*
X173134962Y-102248208D01*
X173345253Y-102179880D01*
X173542276Y-102079492D01*
X173606949Y-102032503D01*
X173606950Y-102032502D01*
X172976235Y-101401787D01*
X173018292Y-101390518D01*
X173143708Y-101318110D01*
X173246110Y-101215708D01*
X173318518Y-101090292D01*
X173329787Y-101048234D01*
X173960502Y-101678950D01*
X173960503Y-101678949D01*
X174007492Y-101614276D01*
X174107880Y-101417253D01*
X174176208Y-101206962D01*
X174176208Y-101206959D01*
X174210800Y-100988559D01*
X174210800Y-100767440D01*
X174194831Y-100666616D01*
X174192346Y-100650924D01*
X175639320Y-100650924D01*
X175639320Y-101837876D01*
X175644947Y-101884741D01*
X175650035Y-101927109D01*
X175706037Y-102069119D01*
X175798271Y-102190748D01*
X175874044Y-102248208D01*
X175919903Y-102282984D01*
X176061909Y-102338984D01*
X176151144Y-102349700D01*
X176151150Y-102349700D01*
X177338090Y-102349700D01*
X177338096Y-102349700D01*
X177427331Y-102338984D01*
X177569337Y-102282984D01*
X177690968Y-102190748D01*
X177783204Y-102069117D01*
X177839204Y-101927111D01*
X177849920Y-101837876D01*
X177849920Y-101157450D01*
X178139820Y-101157450D01*
X178139820Y-101331349D01*
X178167023Y-101503104D01*
X178220763Y-101668500D01*
X178299710Y-101823439D01*
X178299710Y-101823440D01*
X178304893Y-101830572D01*
X178844620Y-101290845D01*
X178844620Y-101297061D01*
X178871879Y-101398794D01*
X178924540Y-101490006D01*
X178999014Y-101564480D01*
X179090226Y-101617141D01*
X179191959Y-101644400D01*
X179198173Y-101644400D01*
X178658446Y-102184125D01*
X178665578Y-102189308D01*
X178820519Y-102268256D01*
X178985915Y-102321996D01*
X178985914Y-102321996D01*
X179157671Y-102349200D01*
X179331569Y-102349200D01*
X179503324Y-102321996D01*
X179668720Y-102268256D01*
X179823665Y-102189306D01*
X179830793Y-102184126D01*
X179830793Y-102184125D01*
X179291068Y-101644400D01*
X179297281Y-101644400D01*
X179399014Y-101617141D01*
X179490226Y-101564480D01*
X179564700Y-101490006D01*
X179617361Y-101398794D01*
X179644620Y-101297061D01*
X179644620Y-101290848D01*
X180184345Y-101830573D01*
X180184346Y-101830573D01*
X180189526Y-101823445D01*
X180268476Y-101668500D01*
X180322216Y-101503104D01*
X180349420Y-101331349D01*
X180349420Y-101157450D01*
X180322216Y-100985695D01*
X180268476Y-100820299D01*
X180189528Y-100665358D01*
X180184345Y-100658226D01*
X179644620Y-101197951D01*
X179644620Y-101191739D01*
X179617361Y-101090006D01*
X179564700Y-100998794D01*
X179490226Y-100924320D01*
X179399014Y-100871659D01*
X179297281Y-100844400D01*
X179291067Y-100844400D01*
X179830793Y-100304673D01*
X179823659Y-100299490D01*
X179668720Y-100220543D01*
X179503324Y-100166803D01*
X179503325Y-100166803D01*
X179331569Y-100139600D01*
X179157671Y-100139600D01*
X178985915Y-100166803D01*
X178820519Y-100220543D01*
X178665579Y-100299490D01*
X178665569Y-100299497D01*
X178658446Y-100304671D01*
X178658446Y-100304674D01*
X179198174Y-100844400D01*
X179191959Y-100844400D01*
X179090226Y-100871659D01*
X178999014Y-100924320D01*
X178924540Y-100998794D01*
X178871879Y-101090006D01*
X178844620Y-101191739D01*
X178844620Y-101197952D01*
X178304894Y-100658226D01*
X178304891Y-100658226D01*
X178299717Y-100665349D01*
X178299710Y-100665359D01*
X178220763Y-100820299D01*
X178167023Y-100985695D01*
X178139820Y-101157450D01*
X177849920Y-101157450D01*
X177849920Y-100650924D01*
X177839204Y-100561689D01*
X177783204Y-100419683D01*
X177742102Y-100365482D01*
X177690968Y-100298051D01*
X177569339Y-100205817D01*
X177569337Y-100205816D01*
X177470407Y-100166803D01*
X177427329Y-100149815D01*
X177381524Y-100144315D01*
X177338096Y-100139100D01*
X176151144Y-100139100D01*
X176110973Y-100143923D01*
X176061910Y-100149815D01*
X175919900Y-100205817D01*
X175798271Y-100298051D01*
X175706037Y-100419680D01*
X175650035Y-100561690D01*
X175644143Y-100610753D01*
X175639320Y-100650924D01*
X174192346Y-100650924D01*
X174176208Y-100549040D01*
X174176208Y-100549037D01*
X174107880Y-100338746D01*
X174007490Y-100141719D01*
X173960504Y-100077049D01*
X173960503Y-100077048D01*
X173329787Y-100707764D01*
X173318518Y-100665708D01*
X173246110Y-100540292D01*
X173143708Y-100437890D01*
X173018292Y-100365482D01*
X172976233Y-100354212D01*
X173606949Y-99723495D01*
X173606949Y-99723494D01*
X173542279Y-99676509D01*
X173345253Y-99576119D01*
X173134961Y-99507791D01*
X172916559Y-99473200D01*
X172695441Y-99473200D01*
X172477040Y-99507791D01*
X172477037Y-99507791D01*
X172266746Y-99576119D01*
X172069721Y-99676508D01*
X172005049Y-99723494D01*
X172005049Y-99723495D01*
X172635766Y-100354212D01*
X172593708Y-100365482D01*
X172468292Y-100437890D01*
X172365890Y-100540292D01*
X172293482Y-100665708D01*
X172282212Y-100707766D01*
X171651495Y-100077049D01*
X171651494Y-100077049D01*
X171604508Y-100141721D01*
X171504119Y-100338746D01*
X171435791Y-100549037D01*
X171435791Y-100549040D01*
X171401200Y-100767440D01*
X167185400Y-100767440D01*
X167150808Y-100549040D01*
X167150808Y-100549037D01*
X167082480Y-100338746D01*
X166982090Y-100141719D01*
X166935104Y-100077049D01*
X166935103Y-100077048D01*
X166304387Y-100707764D01*
X166293118Y-100665708D01*
X166220710Y-100540292D01*
X166118308Y-100437890D01*
X165992892Y-100365482D01*
X165950833Y-100354212D01*
X166581549Y-99723495D01*
X166581549Y-99723494D01*
X166516879Y-99676509D01*
X166319853Y-99576119D01*
X166109561Y-99507791D01*
X165891159Y-99473200D01*
X165670041Y-99473200D01*
X165451640Y-99507791D01*
X165451637Y-99507791D01*
X165241346Y-99576119D01*
X165044321Y-99676508D01*
X164979649Y-99723494D01*
X164979649Y-99723495D01*
X165610366Y-100354212D01*
X165568308Y-100365482D01*
X165442892Y-100437890D01*
X165340490Y-100540292D01*
X165268082Y-100665708D01*
X165256812Y-100707766D01*
X164626095Y-100077049D01*
X164626094Y-100077049D01*
X164579108Y-100141721D01*
X164478719Y-100338746D01*
X164410391Y-100549037D01*
X164410391Y-100549040D01*
X164375800Y-100767440D01*
X163424100Y-100767440D01*
X163424100Y-98041337D01*
X168769099Y-98041337D01*
X168807701Y-98235396D01*
X168807704Y-98235406D01*
X168883420Y-98418202D01*
X168883427Y-98418215D01*
X168993353Y-98582730D01*
X168993356Y-98582734D01*
X169133265Y-98722643D01*
X169133269Y-98722646D01*
X169297784Y-98832572D01*
X169297797Y-98832579D01*
X169480593Y-98908295D01*
X169480598Y-98908297D01*
X169480602Y-98908297D01*
X169480603Y-98908298D01*
X169674662Y-98946900D01*
X169674665Y-98946900D01*
X169872537Y-98946900D01*
X170003095Y-98920929D01*
X170066602Y-98908297D01*
X170249409Y-98832576D01*
X170413931Y-98722646D01*
X170553846Y-98582731D01*
X170663776Y-98418209D01*
X170739497Y-98235402D01*
X170767742Y-98093408D01*
X170778100Y-98041337D01*
X170778100Y-97843462D01*
X170739498Y-97649403D01*
X170739497Y-97649402D01*
X170739497Y-97649398D01*
X170691423Y-97533337D01*
X170663779Y-97466597D01*
X170663772Y-97466584D01*
X170553846Y-97302069D01*
X170553843Y-97302065D01*
X170413934Y-97162156D01*
X170413930Y-97162153D01*
X170249415Y-97052227D01*
X170249402Y-97052220D01*
X170066606Y-96976504D01*
X170066596Y-96976501D01*
X169872537Y-96937900D01*
X169872535Y-96937900D01*
X169674665Y-96937900D01*
X169674663Y-96937900D01*
X169480603Y-96976501D01*
X169480593Y-96976504D01*
X169297797Y-97052220D01*
X169297784Y-97052227D01*
X169133269Y-97162153D01*
X169133265Y-97162156D01*
X168993356Y-97302065D01*
X168993353Y-97302069D01*
X168883427Y-97466584D01*
X168883420Y-97466597D01*
X168807704Y-97649393D01*
X168807701Y-97649403D01*
X168769100Y-97843462D01*
X168769100Y-97843465D01*
X168769100Y-98041335D01*
X168769100Y-98041337D01*
X168769099Y-98041337D01*
X163424100Y-98041337D01*
X163424100Y-97034960D01*
X163424880Y-97021077D01*
X163431152Y-96965409D01*
X163438444Y-96900688D01*
X163444617Y-96873635D01*
X163482325Y-96765875D01*
X163494362Y-96740880D01*
X163555099Y-96644218D01*
X163572404Y-96622519D01*
X163653119Y-96541804D01*
X163674818Y-96524499D01*
X163771480Y-96463762D01*
X163796475Y-96451725D01*
X163904235Y-96414017D01*
X163931288Y-96407844D01*
X164051677Y-96394279D01*
X164065560Y-96393500D01*
X164130204Y-96393500D01*
X213793192Y-96393500D01*
X213860231Y-96413185D01*
G37*
%TD.AperFunction*%
%TD*%
M02*
