%TF.GenerationSoftware,KiCad,Pcbnew,9.0.7-9.0.7~ubuntu24.04.1*%
%TF.CreationDate,2026-01-04T20:32:20-08:00*%
%TF.ProjectId,BeamBreak-v1,4265616d-4272-4656-916b-2d76312e6b69,1*%
%TF.SameCoordinates,Original*%
%TF.FileFunction,Legend,Top*%
%TF.FilePolarity,Positive*%
%FSLAX46Y46*%
G04 Gerber Fmt 4.6, Leading zero omitted, Abs format (unit mm)*
G04 Created by KiCad (PCBNEW 9.0.7-9.0.7~ubuntu24.04.1) date 2026-01-04 20:32:20*
%MOMM*%
%LPD*%
G01*
G04 APERTURE LIST*
%ADD10C,0.127000*%
%ADD11C,0.152400*%
%ADD12C,0.120000*%
%ADD13C,0.100000*%
G04 APERTURE END LIST*
D10*
X199644000Y-123190000D02*
X208280000Y-123190000D01*
X204503800Y-123190000D02*
X204503800Y-122809000D01*
X208280000Y-123190000D02*
X208280000Y-122809000D01*
X164348376Y-97199964D02*
X164094376Y-96837107D01*
X163912947Y-97199964D02*
X163912947Y-96437964D01*
X163912947Y-96437964D02*
X164203233Y-96437964D01*
X164203233Y-96437964D02*
X164275804Y-96474250D01*
X164275804Y-96474250D02*
X164312090Y-96510536D01*
X164312090Y-96510536D02*
X164348376Y-96583107D01*
X164348376Y-96583107D02*
X164348376Y-96691964D01*
X164348376Y-96691964D02*
X164312090Y-96764536D01*
X164312090Y-96764536D02*
X164275804Y-96800821D01*
X164275804Y-96800821D02*
X164203233Y-96837107D01*
X164203233Y-96837107D02*
X163912947Y-96837107D01*
X164566090Y-96437964D02*
X165001519Y-96437964D01*
X164783804Y-97199964D02*
X164783804Y-96437964D01*
X165255518Y-97199964D02*
X165255518Y-96437964D01*
X165255518Y-96437964D02*
X165690947Y-97199964D01*
X165690947Y-97199964D02*
X165690947Y-96437964D01*
X163804090Y-97664741D02*
X164058090Y-98426741D01*
X164058090Y-98426741D02*
X164312090Y-97664741D01*
X164820090Y-98027598D02*
X164928947Y-98063884D01*
X164928947Y-98063884D02*
X164965233Y-98100170D01*
X164965233Y-98100170D02*
X165001519Y-98172741D01*
X165001519Y-98172741D02*
X165001519Y-98281598D01*
X165001519Y-98281598D02*
X164965233Y-98354170D01*
X164965233Y-98354170D02*
X164928947Y-98390456D01*
X164928947Y-98390456D02*
X164856376Y-98426741D01*
X164856376Y-98426741D02*
X164566090Y-98426741D01*
X164566090Y-98426741D02*
X164566090Y-97664741D01*
X164566090Y-97664741D02*
X164820090Y-97664741D01*
X164820090Y-97664741D02*
X164892662Y-97701027D01*
X164892662Y-97701027D02*
X164928947Y-97737313D01*
X164928947Y-97737313D02*
X164965233Y-97809884D01*
X164965233Y-97809884D02*
X164965233Y-97882456D01*
X164965233Y-97882456D02*
X164928947Y-97955027D01*
X164928947Y-97955027D02*
X164892662Y-97991313D01*
X164892662Y-97991313D02*
X164820090Y-98027598D01*
X164820090Y-98027598D02*
X164566090Y-98027598D01*
X165291804Y-98209027D02*
X165654662Y-98209027D01*
X165219233Y-98426741D02*
X165473233Y-97664741D01*
X165473233Y-97664741D02*
X165727233Y-98426741D01*
X165872376Y-97664741D02*
X166307805Y-97664741D01*
X166090090Y-98426741D02*
X166090090Y-97664741D01*
X174254980Y-122817998D02*
X174363837Y-122854284D01*
X174363837Y-122854284D02*
X174400123Y-122890570D01*
X174400123Y-122890570D02*
X174436409Y-122963141D01*
X174436409Y-122963141D02*
X174436409Y-123071998D01*
X174436409Y-123071998D02*
X174400123Y-123144570D01*
X174400123Y-123144570D02*
X174363837Y-123180856D01*
X174363837Y-123180856D02*
X174291266Y-123217141D01*
X174291266Y-123217141D02*
X174000980Y-123217141D01*
X174000980Y-123217141D02*
X174000980Y-122455141D01*
X174000980Y-122455141D02*
X174254980Y-122455141D01*
X174254980Y-122455141D02*
X174327552Y-122491427D01*
X174327552Y-122491427D02*
X174363837Y-122527713D01*
X174363837Y-122527713D02*
X174400123Y-122600284D01*
X174400123Y-122600284D02*
X174400123Y-122672856D01*
X174400123Y-122672856D02*
X174363837Y-122745427D01*
X174363837Y-122745427D02*
X174327552Y-122781713D01*
X174327552Y-122781713D02*
X174254980Y-122817998D01*
X174254980Y-122817998D02*
X174000980Y-122817998D01*
X174762980Y-122817998D02*
X175016980Y-122817998D01*
X175125837Y-123217141D02*
X174762980Y-123217141D01*
X174762980Y-123217141D02*
X174762980Y-122455141D01*
X174762980Y-122455141D02*
X175125837Y-122455141D01*
X175416123Y-122999427D02*
X175778981Y-122999427D01*
X175343552Y-123217141D02*
X175597552Y-122455141D01*
X175597552Y-122455141D02*
X175851552Y-123217141D01*
X176105552Y-123217141D02*
X176105552Y-122455141D01*
X176105552Y-122455141D02*
X176359552Y-122999427D01*
X176359552Y-122999427D02*
X176613552Y-122455141D01*
X176613552Y-122455141D02*
X176613552Y-123217141D01*
X177810980Y-122817998D02*
X177919837Y-122854284D01*
X177919837Y-122854284D02*
X177956123Y-122890570D01*
X177956123Y-122890570D02*
X177992409Y-122963141D01*
X177992409Y-122963141D02*
X177992409Y-123071998D01*
X177992409Y-123071998D02*
X177956123Y-123144570D01*
X177956123Y-123144570D02*
X177919837Y-123180856D01*
X177919837Y-123180856D02*
X177847266Y-123217141D01*
X177847266Y-123217141D02*
X177556980Y-123217141D01*
X177556980Y-123217141D02*
X177556980Y-122455141D01*
X177556980Y-122455141D02*
X177810980Y-122455141D01*
X177810980Y-122455141D02*
X177883552Y-122491427D01*
X177883552Y-122491427D02*
X177919837Y-122527713D01*
X177919837Y-122527713D02*
X177956123Y-122600284D01*
X177956123Y-122600284D02*
X177956123Y-122672856D01*
X177956123Y-122672856D02*
X177919837Y-122745427D01*
X177919837Y-122745427D02*
X177883552Y-122781713D01*
X177883552Y-122781713D02*
X177810980Y-122817998D01*
X177810980Y-122817998D02*
X177556980Y-122817998D01*
X178754409Y-123217141D02*
X178500409Y-122854284D01*
X178318980Y-123217141D02*
X178318980Y-122455141D01*
X178318980Y-122455141D02*
X178609266Y-122455141D01*
X178609266Y-122455141D02*
X178681837Y-122491427D01*
X178681837Y-122491427D02*
X178718123Y-122527713D01*
X178718123Y-122527713D02*
X178754409Y-122600284D01*
X178754409Y-122600284D02*
X178754409Y-122709141D01*
X178754409Y-122709141D02*
X178718123Y-122781713D01*
X178718123Y-122781713D02*
X178681837Y-122817998D01*
X178681837Y-122817998D02*
X178609266Y-122854284D01*
X178609266Y-122854284D02*
X178318980Y-122854284D01*
X179080980Y-122817998D02*
X179334980Y-122817998D01*
X179443837Y-123217141D02*
X179080980Y-123217141D01*
X179080980Y-123217141D02*
X179080980Y-122455141D01*
X179080980Y-122455141D02*
X179443837Y-122455141D01*
X179734123Y-122999427D02*
X180096981Y-122999427D01*
X179661552Y-123217141D02*
X179915552Y-122455141D01*
X179915552Y-122455141D02*
X180169552Y-123217141D01*
X180423552Y-123217141D02*
X180423552Y-122455141D01*
X180858981Y-123217141D02*
X180532409Y-122781713D01*
X180858981Y-122455141D02*
X180423552Y-122890570D01*
X181729837Y-122999427D02*
X182092695Y-122999427D01*
X181657266Y-123217141D02*
X181911266Y-122455141D01*
X181911266Y-122455141D02*
X182165266Y-123217141D01*
X182419266Y-123217141D02*
X182419266Y-122455141D01*
X182419266Y-122455141D02*
X182600695Y-122455141D01*
X182600695Y-122455141D02*
X182709552Y-122491427D01*
X182709552Y-122491427D02*
X182782123Y-122563998D01*
X182782123Y-122563998D02*
X182818409Y-122636570D01*
X182818409Y-122636570D02*
X182854695Y-122781713D01*
X182854695Y-122781713D02*
X182854695Y-122890570D01*
X182854695Y-122890570D02*
X182818409Y-123035713D01*
X182818409Y-123035713D02*
X182782123Y-123108284D01*
X182782123Y-123108284D02*
X182709552Y-123180856D01*
X182709552Y-123180856D02*
X182600695Y-123217141D01*
X182600695Y-123217141D02*
X182419266Y-123217141D01*
X183144980Y-122999427D02*
X183507838Y-122999427D01*
X183072409Y-123217141D02*
X183326409Y-122455141D01*
X183326409Y-122455141D02*
X183580409Y-123217141D01*
X183834409Y-123217141D02*
X183834409Y-122455141D01*
X183834409Y-122455141D02*
X184124695Y-122455141D01*
X184124695Y-122455141D02*
X184197266Y-122491427D01*
X184197266Y-122491427D02*
X184233552Y-122527713D01*
X184233552Y-122527713D02*
X184269838Y-122600284D01*
X184269838Y-122600284D02*
X184269838Y-122709141D01*
X184269838Y-122709141D02*
X184233552Y-122781713D01*
X184233552Y-122781713D02*
X184197266Y-122817998D01*
X184197266Y-122817998D02*
X184124695Y-122854284D01*
X184124695Y-122854284D02*
X183834409Y-122854284D01*
X184487552Y-122455141D02*
X184922981Y-122455141D01*
X184705266Y-123217141D02*
X184705266Y-122455141D01*
X185176980Y-122817998D02*
X185430980Y-122817998D01*
X185539837Y-123217141D02*
X185176980Y-123217141D01*
X185176980Y-123217141D02*
X185176980Y-122455141D01*
X185176980Y-122455141D02*
X185539837Y-122455141D01*
X186301838Y-123217141D02*
X186047838Y-122854284D01*
X185866409Y-123217141D02*
X185866409Y-122455141D01*
X185866409Y-122455141D02*
X186156695Y-122455141D01*
X186156695Y-122455141D02*
X186229266Y-122491427D01*
X186229266Y-122491427D02*
X186265552Y-122527713D01*
X186265552Y-122527713D02*
X186301838Y-122600284D01*
X186301838Y-122600284D02*
X186301838Y-122709141D01*
X186301838Y-122709141D02*
X186265552Y-122781713D01*
X186265552Y-122781713D02*
X186229266Y-122817998D01*
X186229266Y-122817998D02*
X186156695Y-122854284D01*
X186156695Y-122854284D02*
X185866409Y-122854284D01*
X187100123Y-122455141D02*
X187354123Y-123217141D01*
X187354123Y-123217141D02*
X187608123Y-122455141D01*
X188261266Y-123217141D02*
X187825837Y-123217141D01*
X188043552Y-123217141D02*
X188043552Y-122455141D01*
X188043552Y-122455141D02*
X187970980Y-122563998D01*
X187970980Y-122563998D02*
X187898409Y-122636570D01*
X187898409Y-122636570D02*
X187825837Y-122672856D01*
X164076232Y-120687387D02*
X164076232Y-119925387D01*
X164076232Y-119925387D02*
X164257661Y-119925387D01*
X164257661Y-119925387D02*
X164366518Y-119961673D01*
X164366518Y-119961673D02*
X164439089Y-120034244D01*
X164439089Y-120034244D02*
X164475375Y-120106816D01*
X164475375Y-120106816D02*
X164511661Y-120251959D01*
X164511661Y-120251959D02*
X164511661Y-120360816D01*
X164511661Y-120360816D02*
X164475375Y-120505959D01*
X164475375Y-120505959D02*
X164439089Y-120578530D01*
X164439089Y-120578530D02*
X164366518Y-120651102D01*
X164366518Y-120651102D02*
X164257661Y-120687387D01*
X164257661Y-120687387D02*
X164076232Y-120687387D01*
X164838232Y-120687387D02*
X164838232Y-119925387D01*
X165346232Y-119925387D02*
X165491375Y-119925387D01*
X165491375Y-119925387D02*
X165563946Y-119961673D01*
X165563946Y-119961673D02*
X165636518Y-120034244D01*
X165636518Y-120034244D02*
X165672803Y-120179387D01*
X165672803Y-120179387D02*
X165672803Y-120433387D01*
X165672803Y-120433387D02*
X165636518Y-120578530D01*
X165636518Y-120578530D02*
X165563946Y-120651102D01*
X165563946Y-120651102D02*
X165491375Y-120687387D01*
X165491375Y-120687387D02*
X165346232Y-120687387D01*
X165346232Y-120687387D02*
X165273661Y-120651102D01*
X165273661Y-120651102D02*
X165201089Y-120578530D01*
X165201089Y-120578530D02*
X165164803Y-120433387D01*
X165164803Y-120433387D02*
X165164803Y-120179387D01*
X165164803Y-120179387D02*
X165201089Y-120034244D01*
X165201089Y-120034244D02*
X165273661Y-119961673D01*
X165273661Y-119961673D02*
X165346232Y-119925387D01*
X164439089Y-121152164D02*
X164076232Y-121152164D01*
X164076232Y-121152164D02*
X164039946Y-121515021D01*
X164039946Y-121515021D02*
X164076232Y-121478736D01*
X164076232Y-121478736D02*
X164148804Y-121442450D01*
X164148804Y-121442450D02*
X164330232Y-121442450D01*
X164330232Y-121442450D02*
X164402804Y-121478736D01*
X164402804Y-121478736D02*
X164439089Y-121515021D01*
X164439089Y-121515021D02*
X164475375Y-121587593D01*
X164475375Y-121587593D02*
X164475375Y-121769021D01*
X164475375Y-121769021D02*
X164439089Y-121841593D01*
X164439089Y-121841593D02*
X164402804Y-121877879D01*
X164402804Y-121877879D02*
X164330232Y-121914164D01*
X164330232Y-121914164D02*
X164148804Y-121914164D01*
X164148804Y-121914164D02*
X164076232Y-121877879D01*
X164076232Y-121877879D02*
X164039946Y-121841593D01*
X164693089Y-121152164D02*
X164947089Y-121914164D01*
X164947089Y-121914164D02*
X165201089Y-121152164D01*
X164475375Y-122415227D02*
X164402804Y-122378941D01*
X164402804Y-122378941D02*
X164293946Y-122378941D01*
X164293946Y-122378941D02*
X164185089Y-122415227D01*
X164185089Y-122415227D02*
X164112518Y-122487798D01*
X164112518Y-122487798D02*
X164076232Y-122560370D01*
X164076232Y-122560370D02*
X164039946Y-122705513D01*
X164039946Y-122705513D02*
X164039946Y-122814370D01*
X164039946Y-122814370D02*
X164076232Y-122959513D01*
X164076232Y-122959513D02*
X164112518Y-123032084D01*
X164112518Y-123032084D02*
X164185089Y-123104656D01*
X164185089Y-123104656D02*
X164293946Y-123140941D01*
X164293946Y-123140941D02*
X164366518Y-123140941D01*
X164366518Y-123140941D02*
X164475375Y-123104656D01*
X164475375Y-123104656D02*
X164511661Y-123068370D01*
X164511661Y-123068370D02*
X164511661Y-122814370D01*
X164511661Y-122814370D02*
X164366518Y-122814370D01*
X164838232Y-123140941D02*
X164838232Y-122378941D01*
X164838232Y-122378941D02*
X165273661Y-123140941D01*
X165273661Y-123140941D02*
X165273661Y-122378941D01*
X165636518Y-123140941D02*
X165636518Y-122378941D01*
X165636518Y-122378941D02*
X165817947Y-122378941D01*
X165817947Y-122378941D02*
X165926804Y-122415227D01*
X165926804Y-122415227D02*
X165999375Y-122487798D01*
X165999375Y-122487798D02*
X166035661Y-122560370D01*
X166035661Y-122560370D02*
X166071947Y-122705513D01*
X166071947Y-122705513D02*
X166071947Y-122814370D01*
X166071947Y-122814370D02*
X166035661Y-122959513D01*
X166035661Y-122959513D02*
X165999375Y-123032084D01*
X165999375Y-123032084D02*
X165926804Y-123104656D01*
X165926804Y-123104656D02*
X165817947Y-123140941D01*
X165817947Y-123140941D02*
X165636518Y-123140941D01*
X171678694Y-97189079D02*
X171787552Y-97225364D01*
X171787552Y-97225364D02*
X171968980Y-97225364D01*
X171968980Y-97225364D02*
X172041552Y-97189079D01*
X172041552Y-97189079D02*
X172077837Y-97152793D01*
X172077837Y-97152793D02*
X172114123Y-97080221D01*
X172114123Y-97080221D02*
X172114123Y-97007650D01*
X172114123Y-97007650D02*
X172077837Y-96935079D01*
X172077837Y-96935079D02*
X172041552Y-96898793D01*
X172041552Y-96898793D02*
X171968980Y-96862507D01*
X171968980Y-96862507D02*
X171823837Y-96826221D01*
X171823837Y-96826221D02*
X171751266Y-96789936D01*
X171751266Y-96789936D02*
X171714980Y-96753650D01*
X171714980Y-96753650D02*
X171678694Y-96681079D01*
X171678694Y-96681079D02*
X171678694Y-96608507D01*
X171678694Y-96608507D02*
X171714980Y-96535936D01*
X171714980Y-96535936D02*
X171751266Y-96499650D01*
X171751266Y-96499650D02*
X171823837Y-96463364D01*
X171823837Y-96463364D02*
X172005266Y-96463364D01*
X172005266Y-96463364D02*
X172114123Y-96499650D01*
X172440694Y-97225364D02*
X172440694Y-96463364D01*
X172440694Y-96463364D02*
X172730980Y-96463364D01*
X172730980Y-96463364D02*
X172803551Y-96499650D01*
X172803551Y-96499650D02*
X172839837Y-96535936D01*
X172839837Y-96535936D02*
X172876123Y-96608507D01*
X172876123Y-96608507D02*
X172876123Y-96717364D01*
X172876123Y-96717364D02*
X172839837Y-96789936D01*
X172839837Y-96789936D02*
X172803551Y-96826221D01*
X172803551Y-96826221D02*
X172730980Y-96862507D01*
X172730980Y-96862507D02*
X172440694Y-96862507D01*
X173166408Y-97007650D02*
X173529266Y-97007650D01*
X173093837Y-97225364D02*
X173347837Y-96463364D01*
X173347837Y-96463364D02*
X173601837Y-97225364D01*
X174291266Y-97152793D02*
X174254980Y-97189079D01*
X174254980Y-97189079D02*
X174146123Y-97225364D01*
X174146123Y-97225364D02*
X174073551Y-97225364D01*
X174073551Y-97225364D02*
X173964694Y-97189079D01*
X173964694Y-97189079D02*
X173892123Y-97116507D01*
X173892123Y-97116507D02*
X173855837Y-97043936D01*
X173855837Y-97043936D02*
X173819551Y-96898793D01*
X173819551Y-96898793D02*
X173819551Y-96789936D01*
X173819551Y-96789936D02*
X173855837Y-96644793D01*
X173855837Y-96644793D02*
X173892123Y-96572221D01*
X173892123Y-96572221D02*
X173964694Y-96499650D01*
X173964694Y-96499650D02*
X174073551Y-96463364D01*
X174073551Y-96463364D02*
X174146123Y-96463364D01*
X174146123Y-96463364D02*
X174254980Y-96499650D01*
X174254980Y-96499650D02*
X174291266Y-96535936D01*
X174617837Y-96826221D02*
X174871837Y-96826221D01*
X174980694Y-97225364D02*
X174617837Y-97225364D01*
X174617837Y-97225364D02*
X174617837Y-96463364D01*
X174617837Y-96463364D02*
X174980694Y-96463364D01*
X176323266Y-97152793D02*
X176286980Y-97189079D01*
X176286980Y-97189079D02*
X176178123Y-97225364D01*
X176178123Y-97225364D02*
X176105551Y-97225364D01*
X176105551Y-97225364D02*
X175996694Y-97189079D01*
X175996694Y-97189079D02*
X175924123Y-97116507D01*
X175924123Y-97116507D02*
X175887837Y-97043936D01*
X175887837Y-97043936D02*
X175851551Y-96898793D01*
X175851551Y-96898793D02*
X175851551Y-96789936D01*
X175851551Y-96789936D02*
X175887837Y-96644793D01*
X175887837Y-96644793D02*
X175924123Y-96572221D01*
X175924123Y-96572221D02*
X175996694Y-96499650D01*
X175996694Y-96499650D02*
X176105551Y-96463364D01*
X176105551Y-96463364D02*
X176178123Y-96463364D01*
X176178123Y-96463364D02*
X176286980Y-96499650D01*
X176286980Y-96499650D02*
X176323266Y-96535936D01*
X176794980Y-96463364D02*
X176940123Y-96463364D01*
X176940123Y-96463364D02*
X177012694Y-96499650D01*
X177012694Y-96499650D02*
X177085266Y-96572221D01*
X177085266Y-96572221D02*
X177121551Y-96717364D01*
X177121551Y-96717364D02*
X177121551Y-96971364D01*
X177121551Y-96971364D02*
X177085266Y-97116507D01*
X177085266Y-97116507D02*
X177012694Y-97189079D01*
X177012694Y-97189079D02*
X176940123Y-97225364D01*
X176940123Y-97225364D02*
X176794980Y-97225364D01*
X176794980Y-97225364D02*
X176722409Y-97189079D01*
X176722409Y-97189079D02*
X176649837Y-97116507D01*
X176649837Y-97116507D02*
X176613551Y-96971364D01*
X176613551Y-96971364D02*
X176613551Y-96717364D01*
X176613551Y-96717364D02*
X176649837Y-96572221D01*
X176649837Y-96572221D02*
X176722409Y-96499650D01*
X176722409Y-96499650D02*
X176794980Y-96463364D01*
X177593266Y-96463364D02*
X177738409Y-96463364D01*
X177738409Y-96463364D02*
X177810980Y-96499650D01*
X177810980Y-96499650D02*
X177883552Y-96572221D01*
X177883552Y-96572221D02*
X177919837Y-96717364D01*
X177919837Y-96717364D02*
X177919837Y-96971364D01*
X177919837Y-96971364D02*
X177883552Y-97116507D01*
X177883552Y-97116507D02*
X177810980Y-97189079D01*
X177810980Y-97189079D02*
X177738409Y-97225364D01*
X177738409Y-97225364D02*
X177593266Y-97225364D01*
X177593266Y-97225364D02*
X177520695Y-97189079D01*
X177520695Y-97189079D02*
X177448123Y-97116507D01*
X177448123Y-97116507D02*
X177411837Y-96971364D01*
X177411837Y-96971364D02*
X177411837Y-96717364D01*
X177411837Y-96717364D02*
X177448123Y-96572221D01*
X177448123Y-96572221D02*
X177520695Y-96499650D01*
X177520695Y-96499650D02*
X177593266Y-96463364D01*
X178246409Y-97225364D02*
X178246409Y-96463364D01*
X178681838Y-97225364D02*
X178355266Y-96789936D01*
X178681838Y-96463364D02*
X178246409Y-96898793D01*
X179008409Y-97225364D02*
X179008409Y-96463364D01*
X179371266Y-96826221D02*
X179625266Y-96826221D01*
X179734123Y-97225364D02*
X179371266Y-97225364D01*
X179371266Y-97225364D02*
X179371266Y-96463364D01*
X179371266Y-96463364D02*
X179734123Y-96463364D01*
X180024409Y-97189079D02*
X180133267Y-97225364D01*
X180133267Y-97225364D02*
X180314695Y-97225364D01*
X180314695Y-97225364D02*
X180387267Y-97189079D01*
X180387267Y-97189079D02*
X180423552Y-97152793D01*
X180423552Y-97152793D02*
X180459838Y-97080221D01*
X180459838Y-97080221D02*
X180459838Y-97007650D01*
X180459838Y-97007650D02*
X180423552Y-96935079D01*
X180423552Y-96935079D02*
X180387267Y-96898793D01*
X180387267Y-96898793D02*
X180314695Y-96862507D01*
X180314695Y-96862507D02*
X180169552Y-96826221D01*
X180169552Y-96826221D02*
X180096981Y-96789936D01*
X180096981Y-96789936D02*
X180060695Y-96753650D01*
X180060695Y-96753650D02*
X180024409Y-96681079D01*
X180024409Y-96681079D02*
X180024409Y-96608507D01*
X180024409Y-96608507D02*
X180060695Y-96535936D01*
X180060695Y-96535936D02*
X180096981Y-96499650D01*
X180096981Y-96499650D02*
X180169552Y-96463364D01*
X180169552Y-96463364D02*
X180350981Y-96463364D01*
X180350981Y-96463364D02*
X180459838Y-96499650D01*
X172114123Y-98452141D02*
X171678694Y-98452141D01*
X171896409Y-98452141D02*
X171896409Y-97690141D01*
X171896409Y-97690141D02*
X171823837Y-97798998D01*
X171823837Y-97798998D02*
X171751266Y-97871570D01*
X171751266Y-97871570D02*
X171678694Y-97907856D01*
X172549551Y-98016713D02*
X172476980Y-97980427D01*
X172476980Y-97980427D02*
X172440694Y-97944141D01*
X172440694Y-97944141D02*
X172404408Y-97871570D01*
X172404408Y-97871570D02*
X172404408Y-97835284D01*
X172404408Y-97835284D02*
X172440694Y-97762713D01*
X172440694Y-97762713D02*
X172476980Y-97726427D01*
X172476980Y-97726427D02*
X172549551Y-97690141D01*
X172549551Y-97690141D02*
X172694694Y-97690141D01*
X172694694Y-97690141D02*
X172767266Y-97726427D01*
X172767266Y-97726427D02*
X172803551Y-97762713D01*
X172803551Y-97762713D02*
X172839837Y-97835284D01*
X172839837Y-97835284D02*
X172839837Y-97871570D01*
X172839837Y-97871570D02*
X172803551Y-97944141D01*
X172803551Y-97944141D02*
X172767266Y-97980427D01*
X172767266Y-97980427D02*
X172694694Y-98016713D01*
X172694694Y-98016713D02*
X172549551Y-98016713D01*
X172549551Y-98016713D02*
X172476980Y-98052998D01*
X172476980Y-98052998D02*
X172440694Y-98089284D01*
X172440694Y-98089284D02*
X172404408Y-98161856D01*
X172404408Y-98161856D02*
X172404408Y-98306998D01*
X172404408Y-98306998D02*
X172440694Y-98379570D01*
X172440694Y-98379570D02*
X172476980Y-98415856D01*
X172476980Y-98415856D02*
X172549551Y-98452141D01*
X172549551Y-98452141D02*
X172694694Y-98452141D01*
X172694694Y-98452141D02*
X172767266Y-98415856D01*
X172767266Y-98415856D02*
X172803551Y-98379570D01*
X172803551Y-98379570D02*
X172839837Y-98306998D01*
X172839837Y-98306998D02*
X172839837Y-98161856D01*
X172839837Y-98161856D02*
X172803551Y-98089284D01*
X172803551Y-98089284D02*
X172767266Y-98052998D01*
X172767266Y-98052998D02*
X172694694Y-98016713D01*
X173492980Y-97690141D02*
X173347837Y-97690141D01*
X173347837Y-97690141D02*
X173275265Y-97726427D01*
X173275265Y-97726427D02*
X173238980Y-97762713D01*
X173238980Y-97762713D02*
X173166408Y-97871570D01*
X173166408Y-97871570D02*
X173130122Y-98016713D01*
X173130122Y-98016713D02*
X173130122Y-98306998D01*
X173130122Y-98306998D02*
X173166408Y-98379570D01*
X173166408Y-98379570D02*
X173202694Y-98415856D01*
X173202694Y-98415856D02*
X173275265Y-98452141D01*
X173275265Y-98452141D02*
X173420408Y-98452141D01*
X173420408Y-98452141D02*
X173492980Y-98415856D01*
X173492980Y-98415856D02*
X173529265Y-98379570D01*
X173529265Y-98379570D02*
X173565551Y-98306998D01*
X173565551Y-98306998D02*
X173565551Y-98125570D01*
X173565551Y-98125570D02*
X173529265Y-98052998D01*
X173529265Y-98052998D02*
X173492980Y-98016713D01*
X173492980Y-98016713D02*
X173420408Y-97980427D01*
X173420408Y-97980427D02*
X173275265Y-97980427D01*
X173275265Y-97980427D02*
X173202694Y-98016713D01*
X173202694Y-98016713D02*
X173166408Y-98052998D01*
X173166408Y-98052998D02*
X173130122Y-98125570D01*
X174000979Y-98016713D02*
X173928408Y-97980427D01*
X173928408Y-97980427D02*
X173892122Y-97944141D01*
X173892122Y-97944141D02*
X173855836Y-97871570D01*
X173855836Y-97871570D02*
X173855836Y-97835284D01*
X173855836Y-97835284D02*
X173892122Y-97762713D01*
X173892122Y-97762713D02*
X173928408Y-97726427D01*
X173928408Y-97726427D02*
X174000979Y-97690141D01*
X174000979Y-97690141D02*
X174146122Y-97690141D01*
X174146122Y-97690141D02*
X174218694Y-97726427D01*
X174218694Y-97726427D02*
X174254979Y-97762713D01*
X174254979Y-97762713D02*
X174291265Y-97835284D01*
X174291265Y-97835284D02*
X174291265Y-97871570D01*
X174291265Y-97871570D02*
X174254979Y-97944141D01*
X174254979Y-97944141D02*
X174218694Y-97980427D01*
X174218694Y-97980427D02*
X174146122Y-98016713D01*
X174146122Y-98016713D02*
X174000979Y-98016713D01*
X174000979Y-98016713D02*
X173928408Y-98052998D01*
X173928408Y-98052998D02*
X173892122Y-98089284D01*
X173892122Y-98089284D02*
X173855836Y-98161856D01*
X173855836Y-98161856D02*
X173855836Y-98306998D01*
X173855836Y-98306998D02*
X173892122Y-98379570D01*
X173892122Y-98379570D02*
X173928408Y-98415856D01*
X173928408Y-98415856D02*
X174000979Y-98452141D01*
X174000979Y-98452141D02*
X174146122Y-98452141D01*
X174146122Y-98452141D02*
X174218694Y-98415856D01*
X174218694Y-98415856D02*
X174254979Y-98379570D01*
X174254979Y-98379570D02*
X174291265Y-98306998D01*
X174291265Y-98306998D02*
X174291265Y-98161856D01*
X174291265Y-98161856D02*
X174254979Y-98089284D01*
X174254979Y-98089284D02*
X174218694Y-98052998D01*
X174218694Y-98052998D02*
X174146122Y-98016713D01*
X183337200Y-97145311D02*
X183083200Y-96782454D01*
X182901771Y-97145311D02*
X182901771Y-96383311D01*
X182901771Y-96383311D02*
X183192057Y-96383311D01*
X183192057Y-96383311D02*
X183264628Y-96419597D01*
X183264628Y-96419597D02*
X183300914Y-96455883D01*
X183300914Y-96455883D02*
X183337200Y-96528454D01*
X183337200Y-96528454D02*
X183337200Y-96637311D01*
X183337200Y-96637311D02*
X183300914Y-96709883D01*
X183300914Y-96709883D02*
X183264628Y-96746168D01*
X183264628Y-96746168D02*
X183192057Y-96782454D01*
X183192057Y-96782454D02*
X182901771Y-96782454D01*
X184062914Y-97145311D02*
X183627485Y-97145311D01*
X183845200Y-97145311D02*
X183845200Y-96383311D01*
X183845200Y-96383311D02*
X183772628Y-96492168D01*
X183772628Y-96492168D02*
X183700057Y-96564740D01*
X183700057Y-96564740D02*
X183627485Y-96601026D01*
X201234511Y-122282856D02*
X200871654Y-122536856D01*
X201234511Y-122718285D02*
X200472511Y-122718285D01*
X200472511Y-122718285D02*
X200472511Y-122427999D01*
X200472511Y-122427999D02*
X200508797Y-122355428D01*
X200508797Y-122355428D02*
X200545083Y-122319142D01*
X200545083Y-122319142D02*
X200617654Y-122282856D01*
X200617654Y-122282856D02*
X200726511Y-122282856D01*
X200726511Y-122282856D02*
X200799083Y-122319142D01*
X200799083Y-122319142D02*
X200835368Y-122355428D01*
X200835368Y-122355428D02*
X200871654Y-122427999D01*
X200871654Y-122427999D02*
X200871654Y-122718285D01*
X201234511Y-121557142D02*
X201234511Y-121992571D01*
X201234511Y-121774856D02*
X200472511Y-121774856D01*
X200472511Y-121774856D02*
X200581368Y-121847428D01*
X200581368Y-121847428D02*
X200653940Y-121919999D01*
X200653940Y-121919999D02*
X200690226Y-121992571D01*
X200545083Y-121266857D02*
X200508797Y-121230571D01*
X200508797Y-121230571D02*
X200472511Y-121158000D01*
X200472511Y-121158000D02*
X200472511Y-120976571D01*
X200472511Y-120976571D02*
X200508797Y-120904000D01*
X200508797Y-120904000D02*
X200545083Y-120867714D01*
X200545083Y-120867714D02*
X200617654Y-120831428D01*
X200617654Y-120831428D02*
X200690226Y-120831428D01*
X200690226Y-120831428D02*
X200799083Y-120867714D01*
X200799083Y-120867714D02*
X201234511Y-121303142D01*
X201234511Y-121303142D02*
X201234511Y-120831428D01*
X177999571Y-118963911D02*
X177999571Y-118201911D01*
X177999571Y-118201911D02*
X178181000Y-118201911D01*
X178181000Y-118201911D02*
X178289857Y-118238197D01*
X178289857Y-118238197D02*
X178362428Y-118310768D01*
X178362428Y-118310768D02*
X178398714Y-118383340D01*
X178398714Y-118383340D02*
X178435000Y-118528483D01*
X178435000Y-118528483D02*
X178435000Y-118637340D01*
X178435000Y-118637340D02*
X178398714Y-118782483D01*
X178398714Y-118782483D02*
X178362428Y-118855054D01*
X178362428Y-118855054D02*
X178289857Y-118927626D01*
X178289857Y-118927626D02*
X178181000Y-118963911D01*
X178181000Y-118963911D02*
X177999571Y-118963911D01*
X179124428Y-118201911D02*
X178761571Y-118201911D01*
X178761571Y-118201911D02*
X178725285Y-118564768D01*
X178725285Y-118564768D02*
X178761571Y-118528483D01*
X178761571Y-118528483D02*
X178834143Y-118492197D01*
X178834143Y-118492197D02*
X179015571Y-118492197D01*
X179015571Y-118492197D02*
X179088143Y-118528483D01*
X179088143Y-118528483D02*
X179124428Y-118564768D01*
X179124428Y-118564768D02*
X179160714Y-118637340D01*
X179160714Y-118637340D02*
X179160714Y-118818768D01*
X179160714Y-118818768D02*
X179124428Y-118891340D01*
X179124428Y-118891340D02*
X179088143Y-118927626D01*
X179088143Y-118927626D02*
X179015571Y-118963911D01*
X179015571Y-118963911D02*
X178834143Y-118963911D01*
X178834143Y-118963911D02*
X178761571Y-118927626D01*
X178761571Y-118927626D02*
X178725285Y-118891340D01*
X182245000Y-104485911D02*
X181882143Y-104485911D01*
X181882143Y-104485911D02*
X181882143Y-103723911D01*
X182898143Y-104485911D02*
X182462714Y-104485911D01*
X182680429Y-104485911D02*
X182680429Y-103723911D01*
X182680429Y-103723911D02*
X182607857Y-103832768D01*
X182607857Y-103832768D02*
X182535286Y-103905340D01*
X182535286Y-103905340D02*
X182462714Y-103941626D01*
X195538739Y-112388940D02*
X195502453Y-112425226D01*
X195502453Y-112425226D02*
X195393596Y-112461511D01*
X195393596Y-112461511D02*
X195321024Y-112461511D01*
X195321024Y-112461511D02*
X195212167Y-112425226D01*
X195212167Y-112425226D02*
X195139596Y-112352654D01*
X195139596Y-112352654D02*
X195103310Y-112280083D01*
X195103310Y-112280083D02*
X195067024Y-112134940D01*
X195067024Y-112134940D02*
X195067024Y-112026083D01*
X195067024Y-112026083D02*
X195103310Y-111880940D01*
X195103310Y-111880940D02*
X195139596Y-111808368D01*
X195139596Y-111808368D02*
X195212167Y-111735797D01*
X195212167Y-111735797D02*
X195321024Y-111699511D01*
X195321024Y-111699511D02*
X195393596Y-111699511D01*
X195393596Y-111699511D02*
X195502453Y-111735797D01*
X195502453Y-111735797D02*
X195538739Y-111772083D01*
X195792739Y-111699511D02*
X196300739Y-111699511D01*
X196300739Y-111699511D02*
X195974167Y-112461511D01*
X196560911Y-119633999D02*
X196198054Y-119887999D01*
X196560911Y-120069428D02*
X195798911Y-120069428D01*
X195798911Y-120069428D02*
X195798911Y-119779142D01*
X195798911Y-119779142D02*
X195835197Y-119706571D01*
X195835197Y-119706571D02*
X195871483Y-119670285D01*
X195871483Y-119670285D02*
X195944054Y-119633999D01*
X195944054Y-119633999D02*
X196052911Y-119633999D01*
X196052911Y-119633999D02*
X196125483Y-119670285D01*
X196125483Y-119670285D02*
X196161768Y-119706571D01*
X196161768Y-119706571D02*
X196198054Y-119779142D01*
X196198054Y-119779142D02*
X196198054Y-120069428D01*
X195798911Y-119379999D02*
X195798911Y-118871999D01*
X195798911Y-118871999D02*
X196560911Y-119198571D01*
X188700228Y-104816111D02*
X188700228Y-105432968D01*
X188700228Y-105432968D02*
X188736514Y-105505540D01*
X188736514Y-105505540D02*
X188772800Y-105541826D01*
X188772800Y-105541826D02*
X188845371Y-105578111D01*
X188845371Y-105578111D02*
X188990514Y-105578111D01*
X188990514Y-105578111D02*
X189063085Y-105541826D01*
X189063085Y-105541826D02*
X189099371Y-105505540D01*
X189099371Y-105505540D02*
X189135657Y-105432968D01*
X189135657Y-105432968D02*
X189135657Y-104816111D01*
X189462228Y-104888683D02*
X189498514Y-104852397D01*
X189498514Y-104852397D02*
X189571086Y-104816111D01*
X189571086Y-104816111D02*
X189752514Y-104816111D01*
X189752514Y-104816111D02*
X189825086Y-104852397D01*
X189825086Y-104852397D02*
X189861371Y-104888683D01*
X189861371Y-104888683D02*
X189897657Y-104961254D01*
X189897657Y-104961254D02*
X189897657Y-105033826D01*
X189897657Y-105033826D02*
X189861371Y-105142683D01*
X189861371Y-105142683D02*
X189425943Y-105578111D01*
X189425943Y-105578111D02*
X189897657Y-105578111D01*
X200853511Y-112115599D02*
X201397797Y-112115599D01*
X201397797Y-112115599D02*
X201506654Y-112151884D01*
X201506654Y-112151884D02*
X201579226Y-112224456D01*
X201579226Y-112224456D02*
X201615511Y-112333313D01*
X201615511Y-112333313D02*
X201615511Y-112405884D01*
X200926083Y-111789028D02*
X200889797Y-111752742D01*
X200889797Y-111752742D02*
X200853511Y-111680171D01*
X200853511Y-111680171D02*
X200853511Y-111498742D01*
X200853511Y-111498742D02*
X200889797Y-111426171D01*
X200889797Y-111426171D02*
X200926083Y-111389885D01*
X200926083Y-111389885D02*
X200998654Y-111353599D01*
X200998654Y-111353599D02*
X201071226Y-111353599D01*
X201071226Y-111353599D02*
X201180083Y-111389885D01*
X201180083Y-111389885D02*
X201615511Y-111825313D01*
X201615511Y-111825313D02*
X201615511Y-111353599D01*
X199405711Y-100885171D02*
X200022568Y-100885171D01*
X200022568Y-100885171D02*
X200095140Y-100848885D01*
X200095140Y-100848885D02*
X200131426Y-100812600D01*
X200131426Y-100812600D02*
X200167711Y-100740028D01*
X200167711Y-100740028D02*
X200167711Y-100594885D01*
X200167711Y-100594885D02*
X200131426Y-100522314D01*
X200131426Y-100522314D02*
X200095140Y-100486028D01*
X200095140Y-100486028D02*
X200022568Y-100449742D01*
X200022568Y-100449742D02*
X199405711Y-100449742D01*
X200167711Y-99687742D02*
X200167711Y-100123171D01*
X200167711Y-99905456D02*
X199405711Y-99905456D01*
X199405711Y-99905456D02*
X199514568Y-99978028D01*
X199514568Y-99978028D02*
X199587140Y-100050599D01*
X199587140Y-100050599D02*
X199623426Y-100123171D01*
X167640000Y-97754911D02*
X167640000Y-98299197D01*
X167640000Y-98299197D02*
X167603715Y-98408054D01*
X167603715Y-98408054D02*
X167531143Y-98480626D01*
X167531143Y-98480626D02*
X167422286Y-98516911D01*
X167422286Y-98516911D02*
X167349715Y-98516911D01*
X168402000Y-98516911D02*
X167966571Y-98516911D01*
X168184286Y-98516911D02*
X168184286Y-97754911D01*
X168184286Y-97754911D02*
X168111714Y-97863768D01*
X168111714Y-97863768D02*
X168039143Y-97936340D01*
X168039143Y-97936340D02*
X167966571Y-97972626D01*
X200040711Y-122257456D02*
X199677854Y-122511456D01*
X200040711Y-122692885D02*
X199278711Y-122692885D01*
X199278711Y-122692885D02*
X199278711Y-122402599D01*
X199278711Y-122402599D02*
X199314997Y-122330028D01*
X199314997Y-122330028D02*
X199351283Y-122293742D01*
X199351283Y-122293742D02*
X199423854Y-122257456D01*
X199423854Y-122257456D02*
X199532711Y-122257456D01*
X199532711Y-122257456D02*
X199605283Y-122293742D01*
X199605283Y-122293742D02*
X199641568Y-122330028D01*
X199641568Y-122330028D02*
X199677854Y-122402599D01*
X199677854Y-122402599D02*
X199677854Y-122692885D01*
X200040711Y-121531742D02*
X200040711Y-121967171D01*
X200040711Y-121749456D02*
X199278711Y-121749456D01*
X199278711Y-121749456D02*
X199387568Y-121822028D01*
X199387568Y-121822028D02*
X199460140Y-121894599D01*
X199460140Y-121894599D02*
X199496426Y-121967171D01*
X200040711Y-120806028D02*
X200040711Y-121241457D01*
X200040711Y-121023742D02*
X199278711Y-121023742D01*
X199278711Y-121023742D02*
X199387568Y-121096314D01*
X199387568Y-121096314D02*
X199460140Y-121168885D01*
X199460140Y-121168885D02*
X199496426Y-121241457D01*
X194383682Y-99944833D02*
X194419968Y-99981119D01*
X194419968Y-99981119D02*
X194456253Y-100089976D01*
X194456253Y-100089976D02*
X194456253Y-100162548D01*
X194456253Y-100162548D02*
X194419968Y-100271405D01*
X194419968Y-100271405D02*
X194347396Y-100343976D01*
X194347396Y-100343976D02*
X194274825Y-100380262D01*
X194274825Y-100380262D02*
X194129682Y-100416548D01*
X194129682Y-100416548D02*
X194020825Y-100416548D01*
X194020825Y-100416548D02*
X193875682Y-100380262D01*
X193875682Y-100380262D02*
X193803110Y-100343976D01*
X193803110Y-100343976D02*
X193730539Y-100271405D01*
X193730539Y-100271405D02*
X193694253Y-100162548D01*
X193694253Y-100162548D02*
X193694253Y-100089976D01*
X193694253Y-100089976D02*
X193730539Y-99981119D01*
X193730539Y-99981119D02*
X193766825Y-99944833D01*
X193948253Y-99291691D02*
X194456253Y-99291691D01*
X193657968Y-99473119D02*
X194202253Y-99654548D01*
X194202253Y-99654548D02*
X194202253Y-99182833D01*
X214874311Y-105312028D02*
X214112311Y-105312028D01*
X214112311Y-105312028D02*
X214112311Y-105130599D01*
X214112311Y-105130599D02*
X214148597Y-105021742D01*
X214148597Y-105021742D02*
X214221168Y-104949171D01*
X214221168Y-104949171D02*
X214293740Y-104912885D01*
X214293740Y-104912885D02*
X214438883Y-104876599D01*
X214438883Y-104876599D02*
X214547740Y-104876599D01*
X214547740Y-104876599D02*
X214692883Y-104912885D01*
X214692883Y-104912885D02*
X214765454Y-104949171D01*
X214765454Y-104949171D02*
X214838026Y-105021742D01*
X214838026Y-105021742D02*
X214874311Y-105130599D01*
X214874311Y-105130599D02*
X214874311Y-105312028D01*
X214184883Y-104586314D02*
X214148597Y-104550028D01*
X214148597Y-104550028D02*
X214112311Y-104477457D01*
X214112311Y-104477457D02*
X214112311Y-104296028D01*
X214112311Y-104296028D02*
X214148597Y-104223457D01*
X214148597Y-104223457D02*
X214184883Y-104187171D01*
X214184883Y-104187171D02*
X214257454Y-104150885D01*
X214257454Y-104150885D02*
X214330026Y-104150885D01*
X214330026Y-104150885D02*
X214438883Y-104187171D01*
X214438883Y-104187171D02*
X214874311Y-104622599D01*
X214874311Y-104622599D02*
X214874311Y-104150885D01*
D11*
X214880944Y-98746733D02*
X213991944Y-98746733D01*
X213991944Y-98746733D02*
X213991944Y-98408066D01*
X213991944Y-98408066D02*
X214034277Y-98323400D01*
X214034277Y-98323400D02*
X214076611Y-98281066D01*
X214076611Y-98281066D02*
X214161277Y-98238733D01*
X214161277Y-98238733D02*
X214288277Y-98238733D01*
X214288277Y-98238733D02*
X214372944Y-98281066D01*
X214372944Y-98281066D02*
X214415277Y-98323400D01*
X214415277Y-98323400D02*
X214457611Y-98408066D01*
X214457611Y-98408066D02*
X214457611Y-98746733D01*
X213991944Y-97942400D02*
X214880944Y-97730733D01*
X214880944Y-97730733D02*
X214245944Y-97561400D01*
X214245944Y-97561400D02*
X214880944Y-97392066D01*
X214880944Y-97392066D02*
X213991944Y-97180400D01*
X214880944Y-96333733D02*
X214457611Y-96630066D01*
X214880944Y-96841733D02*
X213991944Y-96841733D01*
X213991944Y-96841733D02*
X213991944Y-96503066D01*
X213991944Y-96503066D02*
X214034277Y-96418400D01*
X214034277Y-96418400D02*
X214076611Y-96376066D01*
X214076611Y-96376066D02*
X214161277Y-96333733D01*
X214161277Y-96333733D02*
X214288277Y-96333733D01*
X214288277Y-96333733D02*
X214372944Y-96376066D01*
X214372944Y-96376066D02*
X214415277Y-96418400D01*
X214415277Y-96418400D02*
X214457611Y-96503066D01*
X214457611Y-96503066D02*
X214457611Y-96841733D01*
D10*
X186182000Y-117748340D02*
X186145714Y-117784626D01*
X186145714Y-117784626D02*
X186036857Y-117820911D01*
X186036857Y-117820911D02*
X185964285Y-117820911D01*
X185964285Y-117820911D02*
X185855428Y-117784626D01*
X185855428Y-117784626D02*
X185782857Y-117712054D01*
X185782857Y-117712054D02*
X185746571Y-117639483D01*
X185746571Y-117639483D02*
X185710285Y-117494340D01*
X185710285Y-117494340D02*
X185710285Y-117385483D01*
X185710285Y-117385483D02*
X185746571Y-117240340D01*
X185746571Y-117240340D02*
X185782857Y-117167768D01*
X185782857Y-117167768D02*
X185855428Y-117095197D01*
X185855428Y-117095197D02*
X185964285Y-117058911D01*
X185964285Y-117058911D02*
X186036857Y-117058911D01*
X186036857Y-117058911D02*
X186145714Y-117095197D01*
X186145714Y-117095197D02*
X186182000Y-117131483D01*
X186617428Y-117385483D02*
X186544857Y-117349197D01*
X186544857Y-117349197D02*
X186508571Y-117312911D01*
X186508571Y-117312911D02*
X186472285Y-117240340D01*
X186472285Y-117240340D02*
X186472285Y-117204054D01*
X186472285Y-117204054D02*
X186508571Y-117131483D01*
X186508571Y-117131483D02*
X186544857Y-117095197D01*
X186544857Y-117095197D02*
X186617428Y-117058911D01*
X186617428Y-117058911D02*
X186762571Y-117058911D01*
X186762571Y-117058911D02*
X186835143Y-117095197D01*
X186835143Y-117095197D02*
X186871428Y-117131483D01*
X186871428Y-117131483D02*
X186907714Y-117204054D01*
X186907714Y-117204054D02*
X186907714Y-117240340D01*
X186907714Y-117240340D02*
X186871428Y-117312911D01*
X186871428Y-117312911D02*
X186835143Y-117349197D01*
X186835143Y-117349197D02*
X186762571Y-117385483D01*
X186762571Y-117385483D02*
X186617428Y-117385483D01*
X186617428Y-117385483D02*
X186544857Y-117421768D01*
X186544857Y-117421768D02*
X186508571Y-117458054D01*
X186508571Y-117458054D02*
X186472285Y-117530626D01*
X186472285Y-117530626D02*
X186472285Y-117675768D01*
X186472285Y-117675768D02*
X186508571Y-117748340D01*
X186508571Y-117748340D02*
X186544857Y-117784626D01*
X186544857Y-117784626D02*
X186617428Y-117820911D01*
X186617428Y-117820911D02*
X186762571Y-117820911D01*
X186762571Y-117820911D02*
X186835143Y-117784626D01*
X186835143Y-117784626D02*
X186871428Y-117748340D01*
X186871428Y-117748340D02*
X186907714Y-117675768D01*
X186907714Y-117675768D02*
X186907714Y-117530626D01*
X186907714Y-117530626D02*
X186871428Y-117458054D01*
X186871428Y-117458054D02*
X186835143Y-117421768D01*
X186835143Y-117421768D02*
X186762571Y-117385483D01*
X175641000Y-105048340D02*
X175604714Y-105084626D01*
X175604714Y-105084626D02*
X175495857Y-105120911D01*
X175495857Y-105120911D02*
X175423285Y-105120911D01*
X175423285Y-105120911D02*
X175314428Y-105084626D01*
X175314428Y-105084626D02*
X175241857Y-105012054D01*
X175241857Y-105012054D02*
X175205571Y-104939483D01*
X175205571Y-104939483D02*
X175169285Y-104794340D01*
X175169285Y-104794340D02*
X175169285Y-104685483D01*
X175169285Y-104685483D02*
X175205571Y-104540340D01*
X175205571Y-104540340D02*
X175241857Y-104467768D01*
X175241857Y-104467768D02*
X175314428Y-104395197D01*
X175314428Y-104395197D02*
X175423285Y-104358911D01*
X175423285Y-104358911D02*
X175495857Y-104358911D01*
X175495857Y-104358911D02*
X175604714Y-104395197D01*
X175604714Y-104395197D02*
X175641000Y-104431483D01*
X175931285Y-104431483D02*
X175967571Y-104395197D01*
X175967571Y-104395197D02*
X176040143Y-104358911D01*
X176040143Y-104358911D02*
X176221571Y-104358911D01*
X176221571Y-104358911D02*
X176294143Y-104395197D01*
X176294143Y-104395197D02*
X176330428Y-104431483D01*
X176330428Y-104431483D02*
X176366714Y-104504054D01*
X176366714Y-104504054D02*
X176366714Y-104576626D01*
X176366714Y-104576626D02*
X176330428Y-104685483D01*
X176330428Y-104685483D02*
X175895000Y-105120911D01*
X175895000Y-105120911D02*
X176366714Y-105120911D01*
X176983571Y-120868911D02*
X176983571Y-120106911D01*
X176983571Y-120106911D02*
X177165000Y-120106911D01*
X177165000Y-120106911D02*
X177273857Y-120143197D01*
X177273857Y-120143197D02*
X177346428Y-120215768D01*
X177346428Y-120215768D02*
X177382714Y-120288340D01*
X177382714Y-120288340D02*
X177419000Y-120433483D01*
X177419000Y-120433483D02*
X177419000Y-120542340D01*
X177419000Y-120542340D02*
X177382714Y-120687483D01*
X177382714Y-120687483D02*
X177346428Y-120760054D01*
X177346428Y-120760054D02*
X177273857Y-120832626D01*
X177273857Y-120832626D02*
X177165000Y-120868911D01*
X177165000Y-120868911D02*
X176983571Y-120868911D01*
X177673000Y-120106911D02*
X178181000Y-120106911D01*
X178181000Y-120106911D02*
X177854428Y-120868911D01*
X175514000Y-107406911D02*
X175514000Y-107951197D01*
X175514000Y-107951197D02*
X175477715Y-108060054D01*
X175477715Y-108060054D02*
X175405143Y-108132626D01*
X175405143Y-108132626D02*
X175296286Y-108168911D01*
X175296286Y-108168911D02*
X175223715Y-108168911D01*
X175804286Y-107406911D02*
X176276000Y-107406911D01*
X176276000Y-107406911D02*
X176022000Y-107697197D01*
X176022000Y-107697197D02*
X176130857Y-107697197D01*
X176130857Y-107697197D02*
X176203429Y-107733483D01*
X176203429Y-107733483D02*
X176239714Y-107769768D01*
X176239714Y-107769768D02*
X176276000Y-107842340D01*
X176276000Y-107842340D02*
X176276000Y-108023768D01*
X176276000Y-108023768D02*
X176239714Y-108096340D01*
X176239714Y-108096340D02*
X176203429Y-108132626D01*
X176203429Y-108132626D02*
X176130857Y-108168911D01*
X176130857Y-108168911D02*
X175913143Y-108168911D01*
X175913143Y-108168911D02*
X175840571Y-108132626D01*
X175840571Y-108132626D02*
X175804286Y-108096340D01*
X209159311Y-97920628D02*
X208397311Y-97920628D01*
X208397311Y-97920628D02*
X208397311Y-97739199D01*
X208397311Y-97739199D02*
X208433597Y-97630342D01*
X208433597Y-97630342D02*
X208506168Y-97557771D01*
X208506168Y-97557771D02*
X208578740Y-97521485D01*
X208578740Y-97521485D02*
X208723883Y-97485199D01*
X208723883Y-97485199D02*
X208832740Y-97485199D01*
X208832740Y-97485199D02*
X208977883Y-97521485D01*
X208977883Y-97521485D02*
X209050454Y-97557771D01*
X209050454Y-97557771D02*
X209123026Y-97630342D01*
X209123026Y-97630342D02*
X209159311Y-97739199D01*
X209159311Y-97739199D02*
X209159311Y-97920628D01*
X209159311Y-96759485D02*
X209159311Y-97194914D01*
X209159311Y-96977199D02*
X208397311Y-96977199D01*
X208397311Y-96977199D02*
X208506168Y-97049771D01*
X208506168Y-97049771D02*
X208578740Y-97122342D01*
X208578740Y-97122342D02*
X208615026Y-97194914D01*
X215306111Y-122460656D02*
X214943254Y-122714656D01*
X215306111Y-122896085D02*
X214544111Y-122896085D01*
X214544111Y-122896085D02*
X214544111Y-122605799D01*
X214544111Y-122605799D02*
X214580397Y-122533228D01*
X214580397Y-122533228D02*
X214616683Y-122496942D01*
X214616683Y-122496942D02*
X214689254Y-122460656D01*
X214689254Y-122460656D02*
X214798111Y-122460656D01*
X214798111Y-122460656D02*
X214870683Y-122496942D01*
X214870683Y-122496942D02*
X214906968Y-122533228D01*
X214906968Y-122533228D02*
X214943254Y-122605799D01*
X214943254Y-122605799D02*
X214943254Y-122896085D01*
X215306111Y-121734942D02*
X215306111Y-122170371D01*
X215306111Y-121952656D02*
X214544111Y-121952656D01*
X214544111Y-121952656D02*
X214652968Y-122025228D01*
X214652968Y-122025228D02*
X214725540Y-122097799D01*
X214725540Y-122097799D02*
X214761826Y-122170371D01*
X214544111Y-121480942D02*
X214544111Y-121009228D01*
X214544111Y-121009228D02*
X214834397Y-121263228D01*
X214834397Y-121263228D02*
X214834397Y-121154371D01*
X214834397Y-121154371D02*
X214870683Y-121081800D01*
X214870683Y-121081800D02*
X214906968Y-121045514D01*
X214906968Y-121045514D02*
X214979540Y-121009228D01*
X214979540Y-121009228D02*
X215160968Y-121009228D01*
X215160968Y-121009228D02*
X215233540Y-121045514D01*
X215233540Y-121045514D02*
X215269826Y-121081800D01*
X215269826Y-121081800D02*
X215306111Y-121154371D01*
X215306111Y-121154371D02*
X215306111Y-121372085D01*
X215306111Y-121372085D02*
X215269826Y-121444657D01*
X215269826Y-121444657D02*
X215233540Y-121480942D01*
X195554600Y-111423740D02*
X195518314Y-111460026D01*
X195518314Y-111460026D02*
X195409457Y-111496311D01*
X195409457Y-111496311D02*
X195336885Y-111496311D01*
X195336885Y-111496311D02*
X195228028Y-111460026D01*
X195228028Y-111460026D02*
X195155457Y-111387454D01*
X195155457Y-111387454D02*
X195119171Y-111314883D01*
X195119171Y-111314883D02*
X195082885Y-111169740D01*
X195082885Y-111169740D02*
X195082885Y-111060883D01*
X195082885Y-111060883D02*
X195119171Y-110915740D01*
X195119171Y-110915740D02*
X195155457Y-110843168D01*
X195155457Y-110843168D02*
X195228028Y-110770597D01*
X195228028Y-110770597D02*
X195336885Y-110734311D01*
X195336885Y-110734311D02*
X195409457Y-110734311D01*
X195409457Y-110734311D02*
X195518314Y-110770597D01*
X195518314Y-110770597D02*
X195554600Y-110806883D01*
X196207743Y-110734311D02*
X196062600Y-110734311D01*
X196062600Y-110734311D02*
X195990028Y-110770597D01*
X195990028Y-110770597D02*
X195953743Y-110806883D01*
X195953743Y-110806883D02*
X195881171Y-110915740D01*
X195881171Y-110915740D02*
X195844885Y-111060883D01*
X195844885Y-111060883D02*
X195844885Y-111351168D01*
X195844885Y-111351168D02*
X195881171Y-111423740D01*
X195881171Y-111423740D02*
X195917457Y-111460026D01*
X195917457Y-111460026D02*
X195990028Y-111496311D01*
X195990028Y-111496311D02*
X196135171Y-111496311D01*
X196135171Y-111496311D02*
X196207743Y-111460026D01*
X196207743Y-111460026D02*
X196244028Y-111423740D01*
X196244028Y-111423740D02*
X196280314Y-111351168D01*
X196280314Y-111351168D02*
X196280314Y-111169740D01*
X196280314Y-111169740D02*
X196244028Y-111097168D01*
X196244028Y-111097168D02*
X196207743Y-111060883D01*
X196207743Y-111060883D02*
X196135171Y-111024597D01*
X196135171Y-111024597D02*
X195990028Y-111024597D01*
X195990028Y-111024597D02*
X195917457Y-111060883D01*
X195917457Y-111060883D02*
X195881171Y-111097168D01*
X195881171Y-111097168D02*
X195844885Y-111169740D01*
X187477400Y-97145311D02*
X187223400Y-96782454D01*
X187041971Y-97145311D02*
X187041971Y-96383311D01*
X187041971Y-96383311D02*
X187332257Y-96383311D01*
X187332257Y-96383311D02*
X187404828Y-96419597D01*
X187404828Y-96419597D02*
X187441114Y-96455883D01*
X187441114Y-96455883D02*
X187477400Y-96528454D01*
X187477400Y-96528454D02*
X187477400Y-96637311D01*
X187477400Y-96637311D02*
X187441114Y-96709883D01*
X187441114Y-96709883D02*
X187404828Y-96746168D01*
X187404828Y-96746168D02*
X187332257Y-96782454D01*
X187332257Y-96782454D02*
X187041971Y-96782454D01*
X187767685Y-96455883D02*
X187803971Y-96419597D01*
X187803971Y-96419597D02*
X187876543Y-96383311D01*
X187876543Y-96383311D02*
X188057971Y-96383311D01*
X188057971Y-96383311D02*
X188130543Y-96419597D01*
X188130543Y-96419597D02*
X188166828Y-96455883D01*
X188166828Y-96455883D02*
X188203114Y-96528454D01*
X188203114Y-96528454D02*
X188203114Y-96601026D01*
X188203114Y-96601026D02*
X188166828Y-96709883D01*
X188166828Y-96709883D02*
X187731400Y-97145311D01*
X187731400Y-97145311D02*
X188203114Y-97145311D01*
X171341143Y-121249911D02*
X171087143Y-120887054D01*
X170905714Y-121249911D02*
X170905714Y-120487911D01*
X170905714Y-120487911D02*
X171196000Y-120487911D01*
X171196000Y-120487911D02*
X171268571Y-120524197D01*
X171268571Y-120524197D02*
X171304857Y-120560483D01*
X171304857Y-120560483D02*
X171341143Y-120633054D01*
X171341143Y-120633054D02*
X171341143Y-120741911D01*
X171341143Y-120741911D02*
X171304857Y-120814483D01*
X171304857Y-120814483D02*
X171268571Y-120850768D01*
X171268571Y-120850768D02*
X171196000Y-120887054D01*
X171196000Y-120887054D02*
X170905714Y-120887054D01*
X172066857Y-121249911D02*
X171631428Y-121249911D01*
X171849143Y-121249911D02*
X171849143Y-120487911D01*
X171849143Y-120487911D02*
X171776571Y-120596768D01*
X171776571Y-120596768D02*
X171704000Y-120669340D01*
X171704000Y-120669340D02*
X171631428Y-120705626D01*
X172538571Y-120487911D02*
X172611142Y-120487911D01*
X172611142Y-120487911D02*
X172683714Y-120524197D01*
X172683714Y-120524197D02*
X172720000Y-120560483D01*
X172720000Y-120560483D02*
X172756285Y-120633054D01*
X172756285Y-120633054D02*
X172792571Y-120778197D01*
X172792571Y-120778197D02*
X172792571Y-120959626D01*
X172792571Y-120959626D02*
X172756285Y-121104768D01*
X172756285Y-121104768D02*
X172720000Y-121177340D01*
X172720000Y-121177340D02*
X172683714Y-121213626D01*
X172683714Y-121213626D02*
X172611142Y-121249911D01*
X172611142Y-121249911D02*
X172538571Y-121249911D01*
X172538571Y-121249911D02*
X172466000Y-121213626D01*
X172466000Y-121213626D02*
X172429714Y-121177340D01*
X172429714Y-121177340D02*
X172393428Y-121104768D01*
X172393428Y-121104768D02*
X172357142Y-120959626D01*
X172357142Y-120959626D02*
X172357142Y-120778197D01*
X172357142Y-120778197D02*
X172393428Y-120633054D01*
X172393428Y-120633054D02*
X172429714Y-120560483D01*
X172429714Y-120560483D02*
X172466000Y-120524197D01*
X172466000Y-120524197D02*
X172538571Y-120487911D01*
X197576911Y-119633999D02*
X197214054Y-119887999D01*
X197576911Y-120069428D02*
X196814911Y-120069428D01*
X196814911Y-120069428D02*
X196814911Y-119779142D01*
X196814911Y-119779142D02*
X196851197Y-119706571D01*
X196851197Y-119706571D02*
X196887483Y-119670285D01*
X196887483Y-119670285D02*
X196960054Y-119633999D01*
X196960054Y-119633999D02*
X197068911Y-119633999D01*
X197068911Y-119633999D02*
X197141483Y-119670285D01*
X197141483Y-119670285D02*
X197177768Y-119706571D01*
X197177768Y-119706571D02*
X197214054Y-119779142D01*
X197214054Y-119779142D02*
X197214054Y-120069428D01*
X197141483Y-119198571D02*
X197105197Y-119271142D01*
X197105197Y-119271142D02*
X197068911Y-119307428D01*
X197068911Y-119307428D02*
X196996340Y-119343714D01*
X196996340Y-119343714D02*
X196960054Y-119343714D01*
X196960054Y-119343714D02*
X196887483Y-119307428D01*
X196887483Y-119307428D02*
X196851197Y-119271142D01*
X196851197Y-119271142D02*
X196814911Y-119198571D01*
X196814911Y-119198571D02*
X196814911Y-119053428D01*
X196814911Y-119053428D02*
X196851197Y-118980857D01*
X196851197Y-118980857D02*
X196887483Y-118944571D01*
X196887483Y-118944571D02*
X196960054Y-118908285D01*
X196960054Y-118908285D02*
X196996340Y-118908285D01*
X196996340Y-118908285D02*
X197068911Y-118944571D01*
X197068911Y-118944571D02*
X197105197Y-118980857D01*
X197105197Y-118980857D02*
X197141483Y-119053428D01*
X197141483Y-119053428D02*
X197141483Y-119198571D01*
X197141483Y-119198571D02*
X197177768Y-119271142D01*
X197177768Y-119271142D02*
X197214054Y-119307428D01*
X197214054Y-119307428D02*
X197286626Y-119343714D01*
X197286626Y-119343714D02*
X197431768Y-119343714D01*
X197431768Y-119343714D02*
X197504340Y-119307428D01*
X197504340Y-119307428D02*
X197540626Y-119271142D01*
X197540626Y-119271142D02*
X197576911Y-119198571D01*
X197576911Y-119198571D02*
X197576911Y-119053428D01*
X197576911Y-119053428D02*
X197540626Y-118980857D01*
X197540626Y-118980857D02*
X197504340Y-118944571D01*
X197504340Y-118944571D02*
X197431768Y-118908285D01*
X197431768Y-118908285D02*
X197286626Y-118908285D01*
X197286626Y-118908285D02*
X197214054Y-118944571D01*
X197214054Y-118944571D02*
X197177768Y-118980857D01*
X197177768Y-118980857D02*
X197141483Y-119053428D01*
X191617600Y-97145311D02*
X191363600Y-96782454D01*
X191182171Y-97145311D02*
X191182171Y-96383311D01*
X191182171Y-96383311D02*
X191472457Y-96383311D01*
X191472457Y-96383311D02*
X191545028Y-96419597D01*
X191545028Y-96419597D02*
X191581314Y-96455883D01*
X191581314Y-96455883D02*
X191617600Y-96528454D01*
X191617600Y-96528454D02*
X191617600Y-96637311D01*
X191617600Y-96637311D02*
X191581314Y-96709883D01*
X191581314Y-96709883D02*
X191545028Y-96746168D01*
X191545028Y-96746168D02*
X191472457Y-96782454D01*
X191472457Y-96782454D02*
X191182171Y-96782454D01*
X191871600Y-96383311D02*
X192343314Y-96383311D01*
X192343314Y-96383311D02*
X192089314Y-96673597D01*
X192089314Y-96673597D02*
X192198171Y-96673597D01*
X192198171Y-96673597D02*
X192270743Y-96709883D01*
X192270743Y-96709883D02*
X192307028Y-96746168D01*
X192307028Y-96746168D02*
X192343314Y-96818740D01*
X192343314Y-96818740D02*
X192343314Y-97000168D01*
X192343314Y-97000168D02*
X192307028Y-97072740D01*
X192307028Y-97072740D02*
X192270743Y-97109026D01*
X192270743Y-97109026D02*
X192198171Y-97145311D01*
X192198171Y-97145311D02*
X191980457Y-97145311D01*
X191980457Y-97145311D02*
X191907885Y-97109026D01*
X191907885Y-97109026D02*
X191871600Y-97072740D01*
X187880171Y-114391911D02*
X187880171Y-113629911D01*
X187880171Y-113629911D02*
X188061600Y-113629911D01*
X188061600Y-113629911D02*
X188170457Y-113666197D01*
X188170457Y-113666197D02*
X188243028Y-113738768D01*
X188243028Y-113738768D02*
X188279314Y-113811340D01*
X188279314Y-113811340D02*
X188315600Y-113956483D01*
X188315600Y-113956483D02*
X188315600Y-114065340D01*
X188315600Y-114065340D02*
X188279314Y-114210483D01*
X188279314Y-114210483D02*
X188243028Y-114283054D01*
X188243028Y-114283054D02*
X188170457Y-114355626D01*
X188170457Y-114355626D02*
X188061600Y-114391911D01*
X188061600Y-114391911D02*
X187880171Y-114391911D01*
X188968743Y-113883911D02*
X188968743Y-114391911D01*
X188787314Y-113593626D02*
X188605885Y-114137911D01*
X188605885Y-114137911D02*
X189077600Y-114137911D01*
X198491311Y-97434399D02*
X198128454Y-97688399D01*
X198491311Y-97869828D02*
X197729311Y-97869828D01*
X197729311Y-97869828D02*
X197729311Y-97579542D01*
X197729311Y-97579542D02*
X197765597Y-97506971D01*
X197765597Y-97506971D02*
X197801883Y-97470685D01*
X197801883Y-97470685D02*
X197874454Y-97434399D01*
X197874454Y-97434399D02*
X197983311Y-97434399D01*
X197983311Y-97434399D02*
X198055883Y-97470685D01*
X198055883Y-97470685D02*
X198092168Y-97506971D01*
X198092168Y-97506971D02*
X198128454Y-97579542D01*
X198128454Y-97579542D02*
X198128454Y-97869828D01*
X197983311Y-96781257D02*
X198491311Y-96781257D01*
X197693026Y-96962685D02*
X198237311Y-97144114D01*
X198237311Y-97144114D02*
X198237311Y-96672399D01*
X187880171Y-110861311D02*
X187880171Y-110099311D01*
X187880171Y-110099311D02*
X188061600Y-110099311D01*
X188061600Y-110099311D02*
X188170457Y-110135597D01*
X188170457Y-110135597D02*
X188243028Y-110208168D01*
X188243028Y-110208168D02*
X188279314Y-110280740D01*
X188279314Y-110280740D02*
X188315600Y-110425883D01*
X188315600Y-110425883D02*
X188315600Y-110534740D01*
X188315600Y-110534740D02*
X188279314Y-110679883D01*
X188279314Y-110679883D02*
X188243028Y-110752454D01*
X188243028Y-110752454D02*
X188170457Y-110825026D01*
X188170457Y-110825026D02*
X188061600Y-110861311D01*
X188061600Y-110861311D02*
X187880171Y-110861311D01*
X188569600Y-110099311D02*
X189041314Y-110099311D01*
X189041314Y-110099311D02*
X188787314Y-110389597D01*
X188787314Y-110389597D02*
X188896171Y-110389597D01*
X188896171Y-110389597D02*
X188968743Y-110425883D01*
X188968743Y-110425883D02*
X189005028Y-110462168D01*
X189005028Y-110462168D02*
X189041314Y-110534740D01*
X189041314Y-110534740D02*
X189041314Y-110716168D01*
X189041314Y-110716168D02*
X189005028Y-110788740D01*
X189005028Y-110788740D02*
X188968743Y-110825026D01*
X188968743Y-110825026D02*
X188896171Y-110861311D01*
X188896171Y-110861311D02*
X188678457Y-110861311D01*
X188678457Y-110861311D02*
X188605885Y-110825026D01*
X188605885Y-110825026D02*
X188569600Y-110788740D01*
X199339200Y-102889340D02*
X199302914Y-102925626D01*
X199302914Y-102925626D02*
X199194057Y-102961911D01*
X199194057Y-102961911D02*
X199121485Y-102961911D01*
X199121485Y-102961911D02*
X199012628Y-102925626D01*
X199012628Y-102925626D02*
X198940057Y-102853054D01*
X198940057Y-102853054D02*
X198903771Y-102780483D01*
X198903771Y-102780483D02*
X198867485Y-102635340D01*
X198867485Y-102635340D02*
X198867485Y-102526483D01*
X198867485Y-102526483D02*
X198903771Y-102381340D01*
X198903771Y-102381340D02*
X198940057Y-102308768D01*
X198940057Y-102308768D02*
X199012628Y-102236197D01*
X199012628Y-102236197D02*
X199121485Y-102199911D01*
X199121485Y-102199911D02*
X199194057Y-102199911D01*
X199194057Y-102199911D02*
X199302914Y-102236197D01*
X199302914Y-102236197D02*
X199339200Y-102272483D01*
X200028628Y-102199911D02*
X199665771Y-102199911D01*
X199665771Y-102199911D02*
X199629485Y-102562768D01*
X199629485Y-102562768D02*
X199665771Y-102526483D01*
X199665771Y-102526483D02*
X199738343Y-102490197D01*
X199738343Y-102490197D02*
X199919771Y-102490197D01*
X199919771Y-102490197D02*
X199992343Y-102526483D01*
X199992343Y-102526483D02*
X200028628Y-102562768D01*
X200028628Y-102562768D02*
X200064914Y-102635340D01*
X200064914Y-102635340D02*
X200064914Y-102816768D01*
X200064914Y-102816768D02*
X200028628Y-102889340D01*
X200028628Y-102889340D02*
X199992343Y-102925626D01*
X199992343Y-102925626D02*
X199919771Y-102961911D01*
X199919771Y-102961911D02*
X199738343Y-102961911D01*
X199738343Y-102961911D02*
X199665771Y-102925626D01*
X199665771Y-102925626D02*
X199629485Y-102889340D01*
X198592911Y-119633999D02*
X198230054Y-119887999D01*
X198592911Y-120069428D02*
X197830911Y-120069428D01*
X197830911Y-120069428D02*
X197830911Y-119779142D01*
X197830911Y-119779142D02*
X197867197Y-119706571D01*
X197867197Y-119706571D02*
X197903483Y-119670285D01*
X197903483Y-119670285D02*
X197976054Y-119633999D01*
X197976054Y-119633999D02*
X198084911Y-119633999D01*
X198084911Y-119633999D02*
X198157483Y-119670285D01*
X198157483Y-119670285D02*
X198193768Y-119706571D01*
X198193768Y-119706571D02*
X198230054Y-119779142D01*
X198230054Y-119779142D02*
X198230054Y-120069428D01*
X198592911Y-119271142D02*
X198592911Y-119125999D01*
X198592911Y-119125999D02*
X198556626Y-119053428D01*
X198556626Y-119053428D02*
X198520340Y-119017142D01*
X198520340Y-119017142D02*
X198411483Y-118944571D01*
X198411483Y-118944571D02*
X198266340Y-118908285D01*
X198266340Y-118908285D02*
X197976054Y-118908285D01*
X197976054Y-118908285D02*
X197903483Y-118944571D01*
X197903483Y-118944571D02*
X197867197Y-118980857D01*
X197867197Y-118980857D02*
X197830911Y-119053428D01*
X197830911Y-119053428D02*
X197830911Y-119198571D01*
X197830911Y-119198571D02*
X197867197Y-119271142D01*
X197867197Y-119271142D02*
X197903483Y-119307428D01*
X197903483Y-119307428D02*
X197976054Y-119343714D01*
X197976054Y-119343714D02*
X198157483Y-119343714D01*
X198157483Y-119343714D02*
X198230054Y-119307428D01*
X198230054Y-119307428D02*
X198266340Y-119271142D01*
X198266340Y-119271142D02*
X198302626Y-119198571D01*
X198302626Y-119198571D02*
X198302626Y-119053428D01*
X198302626Y-119053428D02*
X198266340Y-118980857D01*
X198266340Y-118980857D02*
X198230054Y-118944571D01*
X198230054Y-118944571D02*
X198157483Y-118908285D01*
X190935428Y-122043311D02*
X190935428Y-122660168D01*
X190935428Y-122660168D02*
X190971714Y-122732740D01*
X190971714Y-122732740D02*
X191008000Y-122769026D01*
X191008000Y-122769026D02*
X191080571Y-122805311D01*
X191080571Y-122805311D02*
X191225714Y-122805311D01*
X191225714Y-122805311D02*
X191298285Y-122769026D01*
X191298285Y-122769026D02*
X191334571Y-122732740D01*
X191334571Y-122732740D02*
X191370857Y-122660168D01*
X191370857Y-122660168D02*
X191370857Y-122043311D01*
X191661143Y-122043311D02*
X192132857Y-122043311D01*
X192132857Y-122043311D02*
X191878857Y-122333597D01*
X191878857Y-122333597D02*
X191987714Y-122333597D01*
X191987714Y-122333597D02*
X192060286Y-122369883D01*
X192060286Y-122369883D02*
X192096571Y-122406168D01*
X192096571Y-122406168D02*
X192132857Y-122478740D01*
X192132857Y-122478740D02*
X192132857Y-122660168D01*
X192132857Y-122660168D02*
X192096571Y-122732740D01*
X192096571Y-122732740D02*
X192060286Y-122769026D01*
X192060286Y-122769026D02*
X191987714Y-122805311D01*
X191987714Y-122805311D02*
X191770000Y-122805311D01*
X191770000Y-122805311D02*
X191697428Y-122769026D01*
X191697428Y-122769026D02*
X191661143Y-122732740D01*
X194300311Y-105714799D02*
X193937454Y-105968799D01*
X194300311Y-106150228D02*
X193538311Y-106150228D01*
X193538311Y-106150228D02*
X193538311Y-105859942D01*
X193538311Y-105859942D02*
X193574597Y-105787371D01*
X193574597Y-105787371D02*
X193610883Y-105751085D01*
X193610883Y-105751085D02*
X193683454Y-105714799D01*
X193683454Y-105714799D02*
X193792311Y-105714799D01*
X193792311Y-105714799D02*
X193864883Y-105751085D01*
X193864883Y-105751085D02*
X193901168Y-105787371D01*
X193901168Y-105787371D02*
X193937454Y-105859942D01*
X193937454Y-105859942D02*
X193937454Y-106150228D01*
X193538311Y-105061657D02*
X193538311Y-105206799D01*
X193538311Y-105206799D02*
X193574597Y-105279371D01*
X193574597Y-105279371D02*
X193610883Y-105315657D01*
X193610883Y-105315657D02*
X193719740Y-105388228D01*
X193719740Y-105388228D02*
X193864883Y-105424514D01*
X193864883Y-105424514D02*
X194155168Y-105424514D01*
X194155168Y-105424514D02*
X194227740Y-105388228D01*
X194227740Y-105388228D02*
X194264026Y-105351942D01*
X194264026Y-105351942D02*
X194300311Y-105279371D01*
X194300311Y-105279371D02*
X194300311Y-105134228D01*
X194300311Y-105134228D02*
X194264026Y-105061657D01*
X194264026Y-105061657D02*
X194227740Y-105025371D01*
X194227740Y-105025371D02*
X194155168Y-104989085D01*
X194155168Y-104989085D02*
X193973740Y-104989085D01*
X193973740Y-104989085D02*
X193901168Y-105025371D01*
X193901168Y-105025371D02*
X193864883Y-105061657D01*
X193864883Y-105061657D02*
X193828597Y-105134228D01*
X193828597Y-105134228D02*
X193828597Y-105279371D01*
X193828597Y-105279371D02*
X193864883Y-105351942D01*
X193864883Y-105351942D02*
X193901168Y-105388228D01*
X193901168Y-105388228D02*
X193973740Y-105424514D01*
X193081111Y-105714799D02*
X192718254Y-105968799D01*
X193081111Y-106150228D02*
X192319111Y-106150228D01*
X192319111Y-106150228D02*
X192319111Y-105859942D01*
X192319111Y-105859942D02*
X192355397Y-105787371D01*
X192355397Y-105787371D02*
X192391683Y-105751085D01*
X192391683Y-105751085D02*
X192464254Y-105714799D01*
X192464254Y-105714799D02*
X192573111Y-105714799D01*
X192573111Y-105714799D02*
X192645683Y-105751085D01*
X192645683Y-105751085D02*
X192681968Y-105787371D01*
X192681968Y-105787371D02*
X192718254Y-105859942D01*
X192718254Y-105859942D02*
X192718254Y-106150228D01*
X192319111Y-105025371D02*
X192319111Y-105388228D01*
X192319111Y-105388228D02*
X192681968Y-105424514D01*
X192681968Y-105424514D02*
X192645683Y-105388228D01*
X192645683Y-105388228D02*
X192609397Y-105315657D01*
X192609397Y-105315657D02*
X192609397Y-105134228D01*
X192609397Y-105134228D02*
X192645683Y-105061657D01*
X192645683Y-105061657D02*
X192681968Y-105025371D01*
X192681968Y-105025371D02*
X192754540Y-104989085D01*
X192754540Y-104989085D02*
X192935968Y-104989085D01*
X192935968Y-104989085D02*
X193008540Y-105025371D01*
X193008540Y-105025371D02*
X193044826Y-105061657D01*
X193044826Y-105061657D02*
X193081111Y-105134228D01*
X193081111Y-105134228D02*
X193081111Y-105315657D01*
X193081111Y-105315657D02*
X193044826Y-105388228D01*
X193044826Y-105388228D02*
X193008540Y-105424514D01*
X213940571Y-118074911D02*
X213940571Y-117312911D01*
X213940571Y-117312911D02*
X214122000Y-117312911D01*
X214122000Y-117312911D02*
X214230857Y-117349197D01*
X214230857Y-117349197D02*
X214303428Y-117421768D01*
X214303428Y-117421768D02*
X214339714Y-117494340D01*
X214339714Y-117494340D02*
X214376000Y-117639483D01*
X214376000Y-117639483D02*
X214376000Y-117748340D01*
X214376000Y-117748340D02*
X214339714Y-117893483D01*
X214339714Y-117893483D02*
X214303428Y-117966054D01*
X214303428Y-117966054D02*
X214230857Y-118038626D01*
X214230857Y-118038626D02*
X214122000Y-118074911D01*
X214122000Y-118074911D02*
X213940571Y-118074911D01*
X215029143Y-117312911D02*
X214884000Y-117312911D01*
X214884000Y-117312911D02*
X214811428Y-117349197D01*
X214811428Y-117349197D02*
X214775143Y-117385483D01*
X214775143Y-117385483D02*
X214702571Y-117494340D01*
X214702571Y-117494340D02*
X214666285Y-117639483D01*
X214666285Y-117639483D02*
X214666285Y-117929768D01*
X214666285Y-117929768D02*
X214702571Y-118002340D01*
X214702571Y-118002340D02*
X214738857Y-118038626D01*
X214738857Y-118038626D02*
X214811428Y-118074911D01*
X214811428Y-118074911D02*
X214956571Y-118074911D01*
X214956571Y-118074911D02*
X215029143Y-118038626D01*
X215029143Y-118038626D02*
X215065428Y-118002340D01*
X215065428Y-118002340D02*
X215101714Y-117929768D01*
X215101714Y-117929768D02*
X215101714Y-117748340D01*
X215101714Y-117748340D02*
X215065428Y-117675768D01*
X215065428Y-117675768D02*
X215029143Y-117639483D01*
X215029143Y-117639483D02*
X214956571Y-117603197D01*
X214956571Y-117603197D02*
X214811428Y-117603197D01*
X214811428Y-117603197D02*
X214738857Y-117639483D01*
X214738857Y-117639483D02*
X214702571Y-117675768D01*
X214702571Y-117675768D02*
X214666285Y-117748340D01*
D11*
X215727611Y-120620366D02*
X215769944Y-120493366D01*
X215769944Y-120493366D02*
X215769944Y-120281700D01*
X215769944Y-120281700D02*
X215727611Y-120197033D01*
X215727611Y-120197033D02*
X215685277Y-120154700D01*
X215685277Y-120154700D02*
X215600611Y-120112366D01*
X215600611Y-120112366D02*
X215515944Y-120112366D01*
X215515944Y-120112366D02*
X215431277Y-120154700D01*
X215431277Y-120154700D02*
X215388944Y-120197033D01*
X215388944Y-120197033D02*
X215346611Y-120281700D01*
X215346611Y-120281700D02*
X215304277Y-120451033D01*
X215304277Y-120451033D02*
X215261944Y-120535700D01*
X215261944Y-120535700D02*
X215219611Y-120578033D01*
X215219611Y-120578033D02*
X215134944Y-120620366D01*
X215134944Y-120620366D02*
X215050277Y-120620366D01*
X215050277Y-120620366D02*
X214965611Y-120578033D01*
X214965611Y-120578033D02*
X214923277Y-120535700D01*
X214923277Y-120535700D02*
X214880944Y-120451033D01*
X214880944Y-120451033D02*
X214880944Y-120239366D01*
X214880944Y-120239366D02*
X214923277Y-120112366D01*
X215769944Y-119731366D02*
X214880944Y-119731366D01*
X214923277Y-118842366D02*
X214880944Y-118927033D01*
X214880944Y-118927033D02*
X214880944Y-119054033D01*
X214880944Y-119054033D02*
X214923277Y-119181033D01*
X214923277Y-119181033D02*
X215007944Y-119265700D01*
X215007944Y-119265700D02*
X215092611Y-119308033D01*
X215092611Y-119308033D02*
X215261944Y-119350366D01*
X215261944Y-119350366D02*
X215388944Y-119350366D01*
X215388944Y-119350366D02*
X215558277Y-119308033D01*
X215558277Y-119308033D02*
X215642944Y-119265700D01*
X215642944Y-119265700D02*
X215727611Y-119181033D01*
X215727611Y-119181033D02*
X215769944Y-119054033D01*
X215769944Y-119054033D02*
X215769944Y-118969366D01*
X215769944Y-118969366D02*
X215727611Y-118842366D01*
X215727611Y-118842366D02*
X215685277Y-118800033D01*
X215685277Y-118800033D02*
X215388944Y-118800033D01*
X215388944Y-118800033D02*
X215388944Y-118969366D01*
D10*
X188141428Y-106692083D02*
X188068857Y-106655797D01*
X188068857Y-106655797D02*
X187996285Y-106583226D01*
X187996285Y-106583226D02*
X187887428Y-106474368D01*
X187887428Y-106474368D02*
X187814857Y-106438083D01*
X187814857Y-106438083D02*
X187742285Y-106438083D01*
X187778571Y-106619511D02*
X187706000Y-106583226D01*
X187706000Y-106583226D02*
X187633428Y-106510654D01*
X187633428Y-106510654D02*
X187597142Y-106365511D01*
X187597142Y-106365511D02*
X187597142Y-106111511D01*
X187597142Y-106111511D02*
X187633428Y-105966368D01*
X187633428Y-105966368D02*
X187706000Y-105893797D01*
X187706000Y-105893797D02*
X187778571Y-105857511D01*
X187778571Y-105857511D02*
X187923714Y-105857511D01*
X187923714Y-105857511D02*
X187996285Y-105893797D01*
X187996285Y-105893797D02*
X188068857Y-105966368D01*
X188068857Y-105966368D02*
X188105142Y-106111511D01*
X188105142Y-106111511D02*
X188105142Y-106365511D01*
X188105142Y-106365511D02*
X188068857Y-106510654D01*
X188068857Y-106510654D02*
X187996285Y-106583226D01*
X187996285Y-106583226D02*
X187923714Y-106619511D01*
X187923714Y-106619511D02*
X187778571Y-106619511D01*
X188830857Y-106619511D02*
X188395428Y-106619511D01*
X188613143Y-106619511D02*
X188613143Y-105857511D01*
X188613143Y-105857511D02*
X188540571Y-105966368D01*
X188540571Y-105966368D02*
X188468000Y-106038940D01*
X188468000Y-106038940D02*
X188395428Y-106075226D01*
X183280340Y-102742999D02*
X183316626Y-102779285D01*
X183316626Y-102779285D02*
X183352911Y-102888142D01*
X183352911Y-102888142D02*
X183352911Y-102960714D01*
X183352911Y-102960714D02*
X183316626Y-103069571D01*
X183316626Y-103069571D02*
X183244054Y-103142142D01*
X183244054Y-103142142D02*
X183171483Y-103178428D01*
X183171483Y-103178428D02*
X183026340Y-103214714D01*
X183026340Y-103214714D02*
X182917483Y-103214714D01*
X182917483Y-103214714D02*
X182772340Y-103178428D01*
X182772340Y-103178428D02*
X182699768Y-103142142D01*
X182699768Y-103142142D02*
X182627197Y-103069571D01*
X182627197Y-103069571D02*
X182590911Y-102960714D01*
X182590911Y-102960714D02*
X182590911Y-102888142D01*
X182590911Y-102888142D02*
X182627197Y-102779285D01*
X182627197Y-102779285D02*
X182663483Y-102742999D01*
X182590911Y-102488999D02*
X182590911Y-102017285D01*
X182590911Y-102017285D02*
X182881197Y-102271285D01*
X182881197Y-102271285D02*
X182881197Y-102162428D01*
X182881197Y-102162428D02*
X182917483Y-102089857D01*
X182917483Y-102089857D02*
X182953768Y-102053571D01*
X182953768Y-102053571D02*
X183026340Y-102017285D01*
X183026340Y-102017285D02*
X183207768Y-102017285D01*
X183207768Y-102017285D02*
X183280340Y-102053571D01*
X183280340Y-102053571D02*
X183316626Y-102089857D01*
X183316626Y-102089857D02*
X183352911Y-102162428D01*
X183352911Y-102162428D02*
X183352911Y-102380142D01*
X183352911Y-102380142D02*
X183316626Y-102452714D01*
X183316626Y-102452714D02*
X183280340Y-102488999D01*
X196412140Y-97434399D02*
X196448426Y-97470685D01*
X196448426Y-97470685D02*
X196484711Y-97579542D01*
X196484711Y-97579542D02*
X196484711Y-97652114D01*
X196484711Y-97652114D02*
X196448426Y-97760971D01*
X196448426Y-97760971D02*
X196375854Y-97833542D01*
X196375854Y-97833542D02*
X196303283Y-97869828D01*
X196303283Y-97869828D02*
X196158140Y-97906114D01*
X196158140Y-97906114D02*
X196049283Y-97906114D01*
X196049283Y-97906114D02*
X195904140Y-97869828D01*
X195904140Y-97869828D02*
X195831568Y-97833542D01*
X195831568Y-97833542D02*
X195758997Y-97760971D01*
X195758997Y-97760971D02*
X195722711Y-97652114D01*
X195722711Y-97652114D02*
X195722711Y-97579542D01*
X195722711Y-97579542D02*
X195758997Y-97470685D01*
X195758997Y-97470685D02*
X195795283Y-97434399D01*
X196484711Y-96708685D02*
X196484711Y-97144114D01*
X196484711Y-96926399D02*
X195722711Y-96926399D01*
X195722711Y-96926399D02*
X195831568Y-96998971D01*
X195831568Y-96998971D02*
X195904140Y-97071542D01*
X195904140Y-97071542D02*
X195940426Y-97144114D01*
D12*
%TO.C,R1*%
X183691264Y-97461400D02*
X183237136Y-97461400D01*
X183691264Y-98931400D02*
X183237136Y-98931400D01*
%TO.C,R12*%
X208540864Y-120854800D02*
X208086736Y-120854800D01*
X208540864Y-122324800D02*
X208086736Y-122324800D01*
%TO.C,D5*%
X185145400Y-115296800D02*
X179635400Y-115296800D01*
X185145400Y-118596800D02*
X179635400Y-118596800D01*
X185145400Y-118596800D02*
X185145400Y-115296800D01*
D13*
%TO.C,L1*%
X177114200Y-104851200D02*
X179146200Y-104851200D01*
X177114200Y-106883200D02*
X177114200Y-104851200D01*
X177114200Y-115112800D02*
X177114200Y-113080800D01*
X179146200Y-115112800D02*
X177114200Y-115112800D01*
X180721000Y-109982000D02*
X180213000Y-109982000D01*
X184277000Y-109982000D02*
X183769000Y-109982000D01*
X185343800Y-104851200D02*
X187375800Y-104851200D01*
X187375800Y-104851200D02*
X187375800Y-106883200D01*
X187375800Y-113080800D02*
X187375800Y-115112800D01*
X187375800Y-115112800D02*
X185343800Y-115112800D01*
X180721000Y-109982000D02*
G75*
G02*
X181737000Y-109982000I508000J0D01*
G01*
X181737000Y-109982000D02*
G75*
G02*
X182753000Y-109982000I508000J0D01*
G01*
X182753000Y-109982000D02*
G75*
G02*
X183769000Y-109982000I508000J0D01*
G01*
D12*
%TO.C,C7*%
X195201379Y-117375400D02*
X195831379Y-117375400D01*
X195516379Y-117060400D02*
X195516379Y-117690400D01*
X198366379Y-111745400D02*
X198366379Y-118205400D01*
X198406379Y-111745400D02*
X198406379Y-118205400D01*
X198446379Y-111746400D02*
X198446379Y-118204400D01*
X198486379Y-111747400D02*
X198486379Y-118203400D01*
X198526379Y-111749400D02*
X198526379Y-118201400D01*
X198566379Y-111751400D02*
X198566379Y-118199400D01*
X198606379Y-111754400D02*
X198606379Y-113935400D01*
X198606379Y-116015400D02*
X198606379Y-118196400D01*
X198646379Y-111757400D02*
X198646379Y-113935400D01*
X198646379Y-116015400D02*
X198646379Y-118193400D01*
X198686379Y-111761400D02*
X198686379Y-113935400D01*
X198686379Y-116015400D02*
X198686379Y-118189400D01*
X198726379Y-111765400D02*
X198726379Y-113935400D01*
X198726379Y-116015400D02*
X198726379Y-118185400D01*
X198766379Y-111770400D02*
X198766379Y-113935400D01*
X198766379Y-116015400D02*
X198766379Y-118180400D01*
X198806379Y-111775400D02*
X198806379Y-113935400D01*
X198806379Y-116015400D02*
X198806379Y-118175400D01*
X198846379Y-111780400D02*
X198846379Y-113935400D01*
X198846379Y-116015400D02*
X198846379Y-118170400D01*
X198886379Y-111787400D02*
X198886379Y-113935400D01*
X198886379Y-116015400D02*
X198886379Y-118163400D01*
X198926379Y-111793400D02*
X198926379Y-113935400D01*
X198926379Y-116015400D02*
X198926379Y-118157400D01*
X198966379Y-111801400D02*
X198966379Y-113935400D01*
X198966379Y-116015400D02*
X198966379Y-118149400D01*
X199006379Y-111808400D02*
X199006379Y-113935400D01*
X199006379Y-116015400D02*
X199006379Y-118142400D01*
X199046379Y-111816400D02*
X199046379Y-113935400D01*
X199046379Y-116015400D02*
X199046379Y-118134400D01*
X199086379Y-111825400D02*
X199086379Y-113935400D01*
X199086379Y-116015400D02*
X199086379Y-118125400D01*
X199126379Y-111835400D02*
X199126379Y-113935400D01*
X199126379Y-116015400D02*
X199126379Y-118115400D01*
X199166379Y-111844400D02*
X199166379Y-113935400D01*
X199166379Y-116015400D02*
X199166379Y-118106400D01*
X199206379Y-111855400D02*
X199206379Y-113935400D01*
X199206379Y-116015400D02*
X199206379Y-118095400D01*
X199246379Y-111866400D02*
X199246379Y-113935400D01*
X199246379Y-116015400D02*
X199246379Y-118084400D01*
X199286379Y-111877400D02*
X199286379Y-113935400D01*
X199286379Y-116015400D02*
X199286379Y-118073400D01*
X199326379Y-111889400D02*
X199326379Y-113935400D01*
X199326379Y-116015400D02*
X199326379Y-118061400D01*
X199366379Y-111902400D02*
X199366379Y-113935400D01*
X199366379Y-116015400D02*
X199366379Y-118048400D01*
X199406379Y-111915400D02*
X199406379Y-113935400D01*
X199406379Y-116015400D02*
X199406379Y-118035400D01*
X199446379Y-111928400D02*
X199446379Y-113935400D01*
X199446379Y-116015400D02*
X199446379Y-118022400D01*
X199486379Y-111943400D02*
X199486379Y-113935400D01*
X199486379Y-116015400D02*
X199486379Y-118007400D01*
X199526379Y-111958400D02*
X199526379Y-113935400D01*
X199526379Y-116015400D02*
X199526379Y-117992400D01*
X199566379Y-111973400D02*
X199566379Y-113935400D01*
X199566379Y-116015400D02*
X199566379Y-117977400D01*
X199606379Y-111989400D02*
X199606379Y-113935400D01*
X199606379Y-116015400D02*
X199606379Y-117961400D01*
X199646379Y-112006400D02*
X199646379Y-113935400D01*
X199646379Y-116015400D02*
X199646379Y-117944400D01*
X199686379Y-112023400D02*
X199686379Y-113935400D01*
X199686379Y-116015400D02*
X199686379Y-117927400D01*
X199726379Y-112041400D02*
X199726379Y-113935400D01*
X199726379Y-116015400D02*
X199726379Y-117909400D01*
X199766379Y-112060400D02*
X199766379Y-113935400D01*
X199766379Y-116015400D02*
X199766379Y-117890400D01*
X199806379Y-112079400D02*
X199806379Y-113935400D01*
X199806379Y-116015400D02*
X199806379Y-117871400D01*
X199846379Y-112099400D02*
X199846379Y-113935400D01*
X199846379Y-116015400D02*
X199846379Y-117851400D01*
X199886379Y-112120400D02*
X199886379Y-113935400D01*
X199886379Y-116015400D02*
X199886379Y-117830400D01*
X199926379Y-112141400D02*
X199926379Y-113935400D01*
X199926379Y-116015400D02*
X199926379Y-117809400D01*
X199966379Y-112163400D02*
X199966379Y-113935400D01*
X199966379Y-116015400D02*
X199966379Y-117787400D01*
X200006379Y-112186400D02*
X200006379Y-113935400D01*
X200006379Y-116015400D02*
X200006379Y-117764400D01*
X200046379Y-112210400D02*
X200046379Y-113935400D01*
X200046379Y-116015400D02*
X200046379Y-117740400D01*
X200086379Y-112234400D02*
X200086379Y-113935400D01*
X200086379Y-116015400D02*
X200086379Y-117716400D01*
X200126379Y-112259400D02*
X200126379Y-113935400D01*
X200126379Y-116015400D02*
X200126379Y-117691400D01*
X200166379Y-112285400D02*
X200166379Y-113935400D01*
X200166379Y-116015400D02*
X200166379Y-117665400D01*
X200206379Y-112312400D02*
X200206379Y-113935400D01*
X200206379Y-116015400D02*
X200206379Y-117638400D01*
X200246379Y-112339400D02*
X200246379Y-113935400D01*
X200246379Y-116015400D02*
X200246379Y-117611400D01*
X200286379Y-112368400D02*
X200286379Y-113935400D01*
X200286379Y-116015400D02*
X200286379Y-117582400D01*
X200326379Y-112398400D02*
X200326379Y-113935400D01*
X200326379Y-116015400D02*
X200326379Y-117552400D01*
X200366379Y-112428400D02*
X200366379Y-113935400D01*
X200366379Y-116015400D02*
X200366379Y-117522400D01*
X200406379Y-112459400D02*
X200406379Y-113935400D01*
X200406379Y-116015400D02*
X200406379Y-117491400D01*
X200446379Y-112492400D02*
X200446379Y-113935400D01*
X200446379Y-116015400D02*
X200446379Y-117458400D01*
X200486379Y-112525400D02*
X200486379Y-113935400D01*
X200486379Y-116015400D02*
X200486379Y-117425400D01*
X200526379Y-112560400D02*
X200526379Y-113935400D01*
X200526379Y-116015400D02*
X200526379Y-117390400D01*
X200566379Y-112596400D02*
X200566379Y-113935400D01*
X200566379Y-116015400D02*
X200566379Y-117354400D01*
X200606379Y-112633400D02*
X200606379Y-113935400D01*
X200606379Y-116015400D02*
X200606379Y-117317400D01*
X200646379Y-112671400D02*
X200646379Y-113935400D01*
X200646379Y-116015400D02*
X200646379Y-117279400D01*
X200686379Y-112711400D02*
X200686379Y-117239400D01*
X200726379Y-112752400D02*
X200726379Y-117198400D01*
X200766379Y-112794400D02*
X200766379Y-117156400D01*
X200806379Y-112838400D02*
X200806379Y-117112400D01*
X200846379Y-112884400D02*
X200846379Y-117066400D01*
X200886379Y-112931400D02*
X200886379Y-117019400D01*
X200926379Y-112980400D02*
X200926379Y-116970400D01*
X200966379Y-113032400D02*
X200966379Y-116918400D01*
X201006379Y-113085400D02*
X201006379Y-116865400D01*
X201046379Y-113141400D02*
X201046379Y-116809400D01*
X201086379Y-113200400D02*
X201086379Y-116750400D01*
X201126379Y-113261400D02*
X201126379Y-116689400D01*
X201166379Y-113326400D02*
X201166379Y-116624400D01*
X201206379Y-113394400D02*
X201206379Y-116556400D01*
X201246379Y-113466400D02*
X201246379Y-116484400D01*
X201286379Y-113543400D02*
X201286379Y-116407400D01*
X201326379Y-113625400D02*
X201326379Y-116325400D01*
X201366379Y-113714400D02*
X201366379Y-116236400D01*
X201406379Y-113810400D02*
X201406379Y-116140400D01*
X201446379Y-113917400D02*
X201446379Y-116033400D01*
X201486379Y-114036400D02*
X201486379Y-115914400D01*
X201526379Y-114174400D02*
X201526379Y-115776400D01*
X201566379Y-114342400D02*
X201566379Y-115608400D01*
X201606379Y-114573400D02*
X201606379Y-115377400D01*
X201636379Y-114975400D02*
G75*
G02*
X195096379Y-114975400I-3270000J0D01*
G01*
X195096379Y-114975400D02*
G75*
G02*
X201636379Y-114975400I3270000J0D01*
G01*
%TO.C,R7*%
X200920864Y-118822800D02*
X200466736Y-118822800D01*
X200920864Y-120292800D02*
X200466736Y-120292800D01*
%TO.C,U2*%
X187220800Y-99421000D02*
X191340800Y-99421000D01*
X187220800Y-99516000D02*
X187220800Y-99421000D01*
X187220800Y-104541000D02*
X187220800Y-104446000D01*
X188680800Y-104541000D02*
X187220800Y-104541000D01*
X191340800Y-99421000D02*
X191340800Y-99516000D01*
X191340800Y-104446000D02*
X191340800Y-104541000D01*
X191340800Y-104541000D02*
X189880800Y-104541000D01*
X188680800Y-104541000D02*
G75*
G02*
X189880800Y-104541000I600000J0D01*
G01*
X192120800Y-104781000D02*
X191640800Y-104781000D01*
X191880800Y-104451000D01*
X192120800Y-104781000D01*
G36*
X192120800Y-104781000D02*
G01*
X191640800Y-104781000D01*
X191880800Y-104451000D01*
X192120800Y-104781000D01*
G37*
D13*
%TO.C,J2*%
X201879200Y-103886000D02*
X210149200Y-103886000D01*
X201879200Y-118110000D02*
X201879200Y-103886000D01*
X201879200Y-118110000D02*
X210149200Y-118110000D01*
D12*
%TO.C,U1*%
X203001000Y-96793000D02*
X206761000Y-96793000D01*
X203001000Y-103613000D02*
X206761000Y-103613000D01*
X206761000Y-96793000D02*
X206761000Y-98053000D01*
X206761000Y-103613000D02*
X206761000Y-102353000D01*
X200416000Y-97838000D02*
X200086000Y-98078000D01*
X200086000Y-97598000D01*
X200416000Y-97838000D01*
G36*
X200416000Y-97838000D02*
G01*
X200086000Y-98078000D01*
X200086000Y-97598000D01*
X200416000Y-97838000D01*
G37*
D13*
%TO.C,J1*%
X168806000Y-98778000D02*
X163606000Y-98778000D01*
X174506000Y-98778000D02*
X170606000Y-98778000D01*
X174506000Y-98778000D02*
X174506000Y-107978000D01*
X174506000Y-107978000D02*
X163606000Y-107978000D01*
D12*
%TO.C,R11*%
X204730864Y-120854800D02*
X204276736Y-120854800D01*
X204730864Y-122324800D02*
X204276736Y-122324800D01*
%TO.C,C4*%
X193295600Y-102877252D02*
X193295600Y-102354748D01*
X194765600Y-102877252D02*
X194765600Y-102354748D01*
%TO.C,D2*%
X213368000Y-99137200D02*
X213368000Y-103022200D01*
X215638000Y-99137200D02*
X213368000Y-99137200D01*
X215638000Y-103022200D02*
X215638000Y-99137200D01*
%TO.C,C8*%
X185574000Y-119946052D02*
X185574000Y-119423548D01*
X187044000Y-119946052D02*
X187044000Y-119423548D01*
%TO.C,C2*%
X175114620Y-98444400D02*
X175744620Y-98444400D01*
X175429620Y-98129400D02*
X175429620Y-98759400D01*
X177994620Y-98014400D02*
X177994620Y-104474400D01*
X178034620Y-98014400D02*
X178034620Y-104474400D01*
X178074620Y-98015400D02*
X178074620Y-104473400D01*
X178114620Y-98016400D02*
X178114620Y-104472400D01*
X178154620Y-98018400D02*
X178154620Y-104470400D01*
X178194620Y-98020400D02*
X178194620Y-104468400D01*
X178234620Y-98023400D02*
X178234620Y-100204400D01*
X178234620Y-102284400D02*
X178234620Y-104465400D01*
X178274620Y-98026400D02*
X178274620Y-100204400D01*
X178274620Y-102284400D02*
X178274620Y-104462400D01*
X178314620Y-98030400D02*
X178314620Y-100204400D01*
X178314620Y-102284400D02*
X178314620Y-104458400D01*
X178354620Y-98034400D02*
X178354620Y-100204400D01*
X178354620Y-102284400D02*
X178354620Y-104454400D01*
X178394620Y-98039400D02*
X178394620Y-100204400D01*
X178394620Y-102284400D02*
X178394620Y-104449400D01*
X178434620Y-98044400D02*
X178434620Y-100204400D01*
X178434620Y-102284400D02*
X178434620Y-104444400D01*
X178474620Y-98049400D02*
X178474620Y-100204400D01*
X178474620Y-102284400D02*
X178474620Y-104439400D01*
X178514620Y-98056400D02*
X178514620Y-100204400D01*
X178514620Y-102284400D02*
X178514620Y-104432400D01*
X178554620Y-98062400D02*
X178554620Y-100204400D01*
X178554620Y-102284400D02*
X178554620Y-104426400D01*
X178594620Y-98070400D02*
X178594620Y-100204400D01*
X178594620Y-102284400D02*
X178594620Y-104418400D01*
X178634620Y-98077400D02*
X178634620Y-100204400D01*
X178634620Y-102284400D02*
X178634620Y-104411400D01*
X178674620Y-98085400D02*
X178674620Y-100204400D01*
X178674620Y-102284400D02*
X178674620Y-104403400D01*
X178714620Y-98094400D02*
X178714620Y-100204400D01*
X178714620Y-102284400D02*
X178714620Y-104394400D01*
X178754620Y-98104400D02*
X178754620Y-100204400D01*
X178754620Y-102284400D02*
X178754620Y-104384400D01*
X178794620Y-98113400D02*
X178794620Y-100204400D01*
X178794620Y-102284400D02*
X178794620Y-104375400D01*
X178834620Y-98124400D02*
X178834620Y-100204400D01*
X178834620Y-102284400D02*
X178834620Y-104364400D01*
X178874620Y-98135400D02*
X178874620Y-100204400D01*
X178874620Y-102284400D02*
X178874620Y-104353400D01*
X178914620Y-98146400D02*
X178914620Y-100204400D01*
X178914620Y-102284400D02*
X178914620Y-104342400D01*
X178954620Y-98158400D02*
X178954620Y-100204400D01*
X178954620Y-102284400D02*
X178954620Y-104330400D01*
X178994620Y-98171400D02*
X178994620Y-100204400D01*
X178994620Y-102284400D02*
X178994620Y-104317400D01*
X179034620Y-98184400D02*
X179034620Y-100204400D01*
X179034620Y-102284400D02*
X179034620Y-104304400D01*
X179074620Y-98197400D02*
X179074620Y-100204400D01*
X179074620Y-102284400D02*
X179074620Y-104291400D01*
X179114620Y-98212400D02*
X179114620Y-100204400D01*
X179114620Y-102284400D02*
X179114620Y-104276400D01*
X179154620Y-98227400D02*
X179154620Y-100204400D01*
X179154620Y-102284400D02*
X179154620Y-104261400D01*
X179194620Y-98242400D02*
X179194620Y-100204400D01*
X179194620Y-102284400D02*
X179194620Y-104246400D01*
X179234620Y-98258400D02*
X179234620Y-100204400D01*
X179234620Y-102284400D02*
X179234620Y-104230400D01*
X179274620Y-98275400D02*
X179274620Y-100204400D01*
X179274620Y-102284400D02*
X179274620Y-104213400D01*
X179314620Y-98292400D02*
X179314620Y-100204400D01*
X179314620Y-102284400D02*
X179314620Y-104196400D01*
X179354620Y-98310400D02*
X179354620Y-100204400D01*
X179354620Y-102284400D02*
X179354620Y-104178400D01*
X179394620Y-98329400D02*
X179394620Y-100204400D01*
X179394620Y-102284400D02*
X179394620Y-104159400D01*
X179434620Y-98348400D02*
X179434620Y-100204400D01*
X179434620Y-102284400D02*
X179434620Y-104140400D01*
X179474620Y-98368400D02*
X179474620Y-100204400D01*
X179474620Y-102284400D02*
X179474620Y-104120400D01*
X179514620Y-98389400D02*
X179514620Y-100204400D01*
X179514620Y-102284400D02*
X179514620Y-104099400D01*
X179554620Y-98410400D02*
X179554620Y-100204400D01*
X179554620Y-102284400D02*
X179554620Y-104078400D01*
X179594620Y-98432400D02*
X179594620Y-100204400D01*
X179594620Y-102284400D02*
X179594620Y-104056400D01*
X179634620Y-98455400D02*
X179634620Y-100204400D01*
X179634620Y-102284400D02*
X179634620Y-104033400D01*
X179674620Y-98479400D02*
X179674620Y-100204400D01*
X179674620Y-102284400D02*
X179674620Y-104009400D01*
X179714620Y-98503400D02*
X179714620Y-100204400D01*
X179714620Y-102284400D02*
X179714620Y-103985400D01*
X179754620Y-98528400D02*
X179754620Y-100204400D01*
X179754620Y-102284400D02*
X179754620Y-103960400D01*
X179794620Y-98554400D02*
X179794620Y-100204400D01*
X179794620Y-102284400D02*
X179794620Y-103934400D01*
X179834620Y-98581400D02*
X179834620Y-100204400D01*
X179834620Y-102284400D02*
X179834620Y-103907400D01*
X179874620Y-98608400D02*
X179874620Y-100204400D01*
X179874620Y-102284400D02*
X179874620Y-103880400D01*
X179914620Y-98637400D02*
X179914620Y-100204400D01*
X179914620Y-102284400D02*
X179914620Y-103851400D01*
X179954620Y-98667400D02*
X179954620Y-100204400D01*
X179954620Y-102284400D02*
X179954620Y-103821400D01*
X179994620Y-98697400D02*
X179994620Y-100204400D01*
X179994620Y-102284400D02*
X179994620Y-103791400D01*
X180034620Y-98728400D02*
X180034620Y-100204400D01*
X180034620Y-102284400D02*
X180034620Y-103760400D01*
X180074620Y-98761400D02*
X180074620Y-100204400D01*
X180074620Y-102284400D02*
X180074620Y-103727400D01*
X180114620Y-98794400D02*
X180114620Y-100204400D01*
X180114620Y-102284400D02*
X180114620Y-103694400D01*
X180154620Y-98829400D02*
X180154620Y-100204400D01*
X180154620Y-102284400D02*
X180154620Y-103659400D01*
X180194620Y-98865400D02*
X180194620Y-100204400D01*
X180194620Y-102284400D02*
X180194620Y-103623400D01*
X180234620Y-98902400D02*
X180234620Y-100204400D01*
X180234620Y-102284400D02*
X180234620Y-103586400D01*
X180274620Y-98940400D02*
X180274620Y-100204400D01*
X180274620Y-102284400D02*
X180274620Y-103548400D01*
X180314620Y-98980400D02*
X180314620Y-103508400D01*
X180354620Y-99021400D02*
X180354620Y-103467400D01*
X180394620Y-99063400D02*
X180394620Y-103425400D01*
X180434620Y-99107400D02*
X180434620Y-103381400D01*
X180474620Y-99153400D02*
X180474620Y-103335400D01*
X180514620Y-99200400D02*
X180514620Y-103288400D01*
X180554620Y-99249400D02*
X180554620Y-103239400D01*
X180594620Y-99301400D02*
X180594620Y-103187400D01*
X180634620Y-99354400D02*
X180634620Y-103134400D01*
X180674620Y-99410400D02*
X180674620Y-103078400D01*
X180714620Y-99469400D02*
X180714620Y-103019400D01*
X180754620Y-99530400D02*
X180754620Y-102958400D01*
X180794620Y-99595400D02*
X180794620Y-102893400D01*
X180834620Y-99663400D02*
X180834620Y-102825400D01*
X180874620Y-99735400D02*
X180874620Y-102753400D01*
X180914620Y-99812400D02*
X180914620Y-102676400D01*
X180954620Y-99894400D02*
X180954620Y-102594400D01*
X180994620Y-99983400D02*
X180994620Y-102505400D01*
X181034620Y-100079400D02*
X181034620Y-102409400D01*
X181074620Y-100186400D02*
X181074620Y-102302400D01*
X181114620Y-100305400D02*
X181114620Y-102183400D01*
X181154620Y-100443400D02*
X181154620Y-102045400D01*
X181194620Y-100611400D02*
X181194620Y-101877400D01*
X181234620Y-100842400D02*
X181234620Y-101646400D01*
X181264620Y-101244400D02*
G75*
G02*
X174724620Y-101244400I-3270000J0D01*
G01*
X174724620Y-101244400D02*
G75*
G02*
X181264620Y-101244400I3270000J0D01*
G01*
%TO.C,D7*%
X185145400Y-118852800D02*
X179635400Y-118852800D01*
X185145400Y-122152800D02*
X179635400Y-122152800D01*
X185145400Y-122152800D02*
X185145400Y-118852800D01*
%TO.C,J3*%
X168968000Y-119646000D02*
X176968000Y-119646000D01*
X176968000Y-108446000D02*
X168968000Y-108446000D01*
X176968000Y-119646000D02*
X176968000Y-108446000D01*
X177800000Y-117348000D02*
X177038000Y-116586000D01*
X177800000Y-115570000D01*
X177800000Y-117348000D01*
G36*
X177800000Y-117348000D02*
G01*
X177038000Y-116586000D01*
X177800000Y-115570000D01*
X177800000Y-117348000D01*
G37*
%TO.C,D1*%
X209627200Y-96718400D02*
X209627200Y-102228400D01*
X212927200Y-96718400D02*
X209627200Y-96718400D01*
X212927200Y-96718400D02*
X212927200Y-102228400D01*
%TO.C,R13*%
X212024736Y-121134200D02*
X212478864Y-121134200D01*
X212024736Y-122604200D02*
X212478864Y-122604200D01*
%TO.C,C6*%
X194865179Y-106136400D02*
X195495179Y-106136400D01*
X195180179Y-105821400D02*
X195180179Y-106451400D01*
X198365420Y-104745400D02*
X198365420Y-111205400D01*
X198405420Y-104745400D02*
X198405420Y-111205400D01*
X198445420Y-104746400D02*
X198445420Y-111204400D01*
X198485420Y-104747400D02*
X198485420Y-111203400D01*
X198525420Y-104749400D02*
X198525420Y-111201400D01*
X198565420Y-104751400D02*
X198565420Y-111199400D01*
X198605420Y-104754400D02*
X198605420Y-106935400D01*
X198605420Y-109015400D02*
X198605420Y-111196400D01*
X198645420Y-104757400D02*
X198645420Y-106935400D01*
X198645420Y-109015400D02*
X198645420Y-111193400D01*
X198685420Y-104761400D02*
X198685420Y-106935400D01*
X198685420Y-109015400D02*
X198685420Y-111189400D01*
X198725420Y-104765400D02*
X198725420Y-106935400D01*
X198725420Y-109015400D02*
X198725420Y-111185400D01*
X198765420Y-104770400D02*
X198765420Y-106935400D01*
X198765420Y-109015400D02*
X198765420Y-111180400D01*
X198805420Y-104775400D02*
X198805420Y-106935400D01*
X198805420Y-109015400D02*
X198805420Y-111175400D01*
X198845420Y-104780400D02*
X198845420Y-106935400D01*
X198845420Y-109015400D02*
X198845420Y-111170400D01*
X198885420Y-104787400D02*
X198885420Y-106935400D01*
X198885420Y-109015400D02*
X198885420Y-111163400D01*
X198925420Y-104793400D02*
X198925420Y-106935400D01*
X198925420Y-109015400D02*
X198925420Y-111157400D01*
X198965420Y-104801400D02*
X198965420Y-106935400D01*
X198965420Y-109015400D02*
X198965420Y-111149400D01*
X199005420Y-104808400D02*
X199005420Y-106935400D01*
X199005420Y-109015400D02*
X199005420Y-111142400D01*
X199045420Y-104816400D02*
X199045420Y-106935400D01*
X199045420Y-109015400D02*
X199045420Y-111134400D01*
X199085420Y-104825400D02*
X199085420Y-106935400D01*
X199085420Y-109015400D02*
X199085420Y-111125400D01*
X199125420Y-104835400D02*
X199125420Y-106935400D01*
X199125420Y-109015400D02*
X199125420Y-111115400D01*
X199165420Y-104844400D02*
X199165420Y-106935400D01*
X199165420Y-109015400D02*
X199165420Y-111106400D01*
X199205420Y-104855400D02*
X199205420Y-106935400D01*
X199205420Y-109015400D02*
X199205420Y-111095400D01*
X199245420Y-104866400D02*
X199245420Y-106935400D01*
X199245420Y-109015400D02*
X199245420Y-111084400D01*
X199285420Y-104877400D02*
X199285420Y-106935400D01*
X199285420Y-109015400D02*
X199285420Y-111073400D01*
X199325420Y-104889400D02*
X199325420Y-106935400D01*
X199325420Y-109015400D02*
X199325420Y-111061400D01*
X199365420Y-104902400D02*
X199365420Y-106935400D01*
X199365420Y-109015400D02*
X199365420Y-111048400D01*
X199405420Y-104915400D02*
X199405420Y-106935400D01*
X199405420Y-109015400D02*
X199405420Y-111035400D01*
X199445420Y-104928400D02*
X199445420Y-106935400D01*
X199445420Y-109015400D02*
X199445420Y-111022400D01*
X199485420Y-104943400D02*
X199485420Y-106935400D01*
X199485420Y-109015400D02*
X199485420Y-111007400D01*
X199525420Y-104958400D02*
X199525420Y-106935400D01*
X199525420Y-109015400D02*
X199525420Y-110992400D01*
X199565420Y-104973400D02*
X199565420Y-106935400D01*
X199565420Y-109015400D02*
X199565420Y-110977400D01*
X199605420Y-104989400D02*
X199605420Y-106935400D01*
X199605420Y-109015400D02*
X199605420Y-110961400D01*
X199645420Y-105006400D02*
X199645420Y-106935400D01*
X199645420Y-109015400D02*
X199645420Y-110944400D01*
X199685420Y-105023400D02*
X199685420Y-106935400D01*
X199685420Y-109015400D02*
X199685420Y-110927400D01*
X199725420Y-105041400D02*
X199725420Y-106935400D01*
X199725420Y-109015400D02*
X199725420Y-110909400D01*
X199765420Y-105060400D02*
X199765420Y-106935400D01*
X199765420Y-109015400D02*
X199765420Y-110890400D01*
X199805420Y-105079400D02*
X199805420Y-106935400D01*
X199805420Y-109015400D02*
X199805420Y-110871400D01*
X199845420Y-105099400D02*
X199845420Y-106935400D01*
X199845420Y-109015400D02*
X199845420Y-110851400D01*
X199885420Y-105120400D02*
X199885420Y-106935400D01*
X199885420Y-109015400D02*
X199885420Y-110830400D01*
X199925420Y-105141400D02*
X199925420Y-106935400D01*
X199925420Y-109015400D02*
X199925420Y-110809400D01*
X199965420Y-105163400D02*
X199965420Y-106935400D01*
X199965420Y-109015400D02*
X199965420Y-110787400D01*
X200005420Y-105186400D02*
X200005420Y-106935400D01*
X200005420Y-109015400D02*
X200005420Y-110764400D01*
X200045420Y-105210400D02*
X200045420Y-106935400D01*
X200045420Y-109015400D02*
X200045420Y-110740400D01*
X200085420Y-105234400D02*
X200085420Y-106935400D01*
X200085420Y-109015400D02*
X200085420Y-110716400D01*
X200125420Y-105259400D02*
X200125420Y-106935400D01*
X200125420Y-109015400D02*
X200125420Y-110691400D01*
X200165420Y-105285400D02*
X200165420Y-106935400D01*
X200165420Y-109015400D02*
X200165420Y-110665400D01*
X200205420Y-105312400D02*
X200205420Y-106935400D01*
X200205420Y-109015400D02*
X200205420Y-110638400D01*
X200245420Y-105339400D02*
X200245420Y-106935400D01*
X200245420Y-109015400D02*
X200245420Y-110611400D01*
X200285420Y-105368400D02*
X200285420Y-106935400D01*
X200285420Y-109015400D02*
X200285420Y-110582400D01*
X200325420Y-105398400D02*
X200325420Y-106935400D01*
X200325420Y-109015400D02*
X200325420Y-110552400D01*
X200365420Y-105428400D02*
X200365420Y-106935400D01*
X200365420Y-109015400D02*
X200365420Y-110522400D01*
X200405420Y-105459400D02*
X200405420Y-106935400D01*
X200405420Y-109015400D02*
X200405420Y-110491400D01*
X200445420Y-105492400D02*
X200445420Y-106935400D01*
X200445420Y-109015400D02*
X200445420Y-110458400D01*
X200485420Y-105525400D02*
X200485420Y-106935400D01*
X200485420Y-109015400D02*
X200485420Y-110425400D01*
X200525420Y-105560400D02*
X200525420Y-106935400D01*
X200525420Y-109015400D02*
X200525420Y-110390400D01*
X200565420Y-105596400D02*
X200565420Y-106935400D01*
X200565420Y-109015400D02*
X200565420Y-110354400D01*
X200605420Y-105633400D02*
X200605420Y-106935400D01*
X200605420Y-109015400D02*
X200605420Y-110317400D01*
X200645420Y-105671400D02*
X200645420Y-106935400D01*
X200645420Y-109015400D02*
X200645420Y-110279400D01*
X200685420Y-105711400D02*
X200685420Y-110239400D01*
X200725420Y-105752400D02*
X200725420Y-110198400D01*
X200765420Y-105794400D02*
X200765420Y-110156400D01*
X200805420Y-105838400D02*
X200805420Y-110112400D01*
X200845420Y-105884400D02*
X200845420Y-110066400D01*
X200885420Y-105931400D02*
X200885420Y-110019400D01*
X200925420Y-105980400D02*
X200925420Y-109970400D01*
X200965420Y-106032400D02*
X200965420Y-109918400D01*
X201005420Y-106085400D02*
X201005420Y-109865400D01*
X201045420Y-106141400D02*
X201045420Y-109809400D01*
X201085420Y-106200400D02*
X201085420Y-109750400D01*
X201125420Y-106261400D02*
X201125420Y-109689400D01*
X201165420Y-106326400D02*
X201165420Y-109624400D01*
X201205420Y-106394400D02*
X201205420Y-109556400D01*
X201245420Y-106466400D02*
X201245420Y-109484400D01*
X201285420Y-106543400D02*
X201285420Y-109407400D01*
X201325420Y-106625400D02*
X201325420Y-109325400D01*
X201365420Y-106714400D02*
X201365420Y-109236400D01*
X201405420Y-106810400D02*
X201405420Y-109140400D01*
X201445420Y-106917400D02*
X201445420Y-109033400D01*
X201485420Y-107036400D02*
X201485420Y-108914400D01*
X201525420Y-107174400D02*
X201525420Y-108776400D01*
X201565420Y-107342400D02*
X201565420Y-108608400D01*
X201605420Y-107573400D02*
X201605420Y-108377400D01*
X201635420Y-107975400D02*
G75*
G02*
X195095420Y-107975400I-3270000J0D01*
G01*
X195095420Y-107975400D02*
G75*
G02*
X201635420Y-107975400I3270000J0D01*
G01*
%TO.C,R2*%
X187377336Y-97461400D02*
X187831464Y-97461400D01*
X187377336Y-98931400D02*
X187831464Y-98931400D01*
%TO.C,R10*%
X175004464Y-120143600D02*
X174550336Y-120143600D01*
X175004464Y-121613600D02*
X174550336Y-121613600D01*
%TO.C,R8*%
X204276736Y-118822800D02*
X204730864Y-118822800D01*
X204276736Y-120292800D02*
X204730864Y-120292800D01*
%TO.C,R3*%
X191517536Y-97461400D02*
X191971664Y-97461400D01*
X191517536Y-98931400D02*
X191971664Y-98931400D01*
%TO.C,D4*%
X194899000Y-113920000D02*
X189389000Y-113920000D01*
X194899000Y-117220000D02*
X189389000Y-117220000D01*
X194899000Y-117220000D02*
X194899000Y-113920000D01*
%TO.C,R4*%
X197385000Y-99467936D02*
X197385000Y-99922064D01*
X198855000Y-99467936D02*
X198855000Y-99922064D01*
%TO.C,D3*%
X194899000Y-110364000D02*
X189389000Y-110364000D01*
X194899000Y-113664000D02*
X189389000Y-113664000D01*
X194899000Y-113664000D02*
X194899000Y-110364000D01*
%TO.C,C5*%
X196817348Y-101881000D02*
X197339852Y-101881000D01*
X196817348Y-103351000D02*
X197339852Y-103351000D01*
%TO.C,R9*%
X208540864Y-118822800D02*
X208086736Y-118822800D01*
X208540864Y-120292800D02*
X208086736Y-120292800D01*
%TO.C,U3*%
X189131000Y-117699400D02*
X193901000Y-117699400D01*
X189131000Y-117729400D02*
X189131000Y-117699400D01*
X189131000Y-121619400D02*
X189131000Y-121589400D01*
X193901000Y-117699400D02*
X193901000Y-117729400D01*
X193901000Y-119049400D02*
X193901000Y-120269400D01*
X193901000Y-121589400D02*
X193901000Y-121619400D01*
X193901000Y-121619400D02*
X189131000Y-121619400D01*
X194666000Y-120269400D02*
X194326000Y-119799400D01*
X195006000Y-119799400D01*
X194666000Y-120269400D01*
G36*
X194666000Y-120269400D02*
G01*
X194326000Y-119799400D01*
X195006000Y-119799400D01*
X194666000Y-120269400D01*
G37*
%TO.C,R6*%
X193219400Y-107773736D02*
X193219400Y-108227864D01*
X194689400Y-107773736D02*
X194689400Y-108227864D01*
%TO.C,R5*%
X191187400Y-108227864D02*
X191187400Y-107773736D01*
X192657400Y-108227864D02*
X192657400Y-107773736D01*
%TO.C,D6*%
X210338400Y-118575200D02*
X210338400Y-120845200D01*
X210338400Y-120845200D02*
X214223400Y-120845200D01*
X214223400Y-118575200D02*
X210338400Y-118575200D01*
%TO.C,Q1*%
X187720800Y-106963800D02*
X188720800Y-106963800D01*
X187720800Y-108783800D02*
X187720800Y-106963800D01*
X187770800Y-108783800D02*
X187720800Y-108783800D01*
X189670800Y-108783800D02*
X188890800Y-108783800D01*
X189840800Y-106963800D02*
X190840800Y-106963800D01*
X190840800Y-106963800D02*
X190840800Y-108783800D01*
X190840800Y-108783800D02*
X190790800Y-108783800D01*
X189230800Y-109563800D02*
X188900800Y-109323800D01*
X189230800Y-109083800D01*
X189230800Y-109563800D01*
G36*
X189230800Y-109563800D02*
G01*
X188900800Y-109323800D01*
X189230800Y-109083800D01*
X189230800Y-109563800D01*
G37*
%TO.C,C3*%
X183694400Y-102877252D02*
X183694400Y-102354748D01*
X185164400Y-102877252D02*
X185164400Y-102354748D01*
%TO.C,C1*%
X195353000Y-99956252D02*
X195353000Y-99433748D01*
X196823000Y-99956252D02*
X196823000Y-99433748D01*
%TD*%
M02*
