%TF.GenerationSoftware,KiCad,Pcbnew,9.0.7-9.0.7~ubuntu24.04.1*%
%TF.CreationDate,2026-01-03T17:13:33-08:00*%
%TF.ProjectId,BeamBreak-v1,4265616d-4272-4656-916b-2d76312e6b69,1*%
%TF.SameCoordinates,Original*%
%TF.FileFunction,Paste,Top*%
%TF.FilePolarity,Positive*%
%FSLAX46Y46*%
G04 Gerber Fmt 4.6, Leading zero omitted, Abs format (unit mm)*
G04 Created by KiCad (PCBNEW 9.0.7-9.0.7~ubuntu24.04.1) date 2026-01-03 17:13:33*
%MOMM*%
%LPD*%
G01*
G04 APERTURE LIST*
G04 Aperture macros list*
%AMRoundRect*
0 Rectangle with rounded corners*
0 $1 Rounding radius*
0 $2 $3 $4 $5 $6 $7 $8 $9 X,Y pos of 4 corners*
0 Add a 4 corners polygon primitive as box body*
4,1,4,$2,$3,$4,$5,$6,$7,$8,$9,$2,$3,0*
0 Add four circle primitives for the rounded corners*
1,1,$1+$1,$2,$3*
1,1,$1+$1,$4,$5*
1,1,$1+$1,$6,$7*
1,1,$1+$1,$8,$9*
0 Add four rect primitives between the rounded corners*
20,1,$1+$1,$2,$3,$4,$5,0*
20,1,$1+$1,$4,$5,$6,$7,0*
20,1,$1+$1,$6,$7,$8,$9,0*
20,1,$1+$1,$8,$9,$2,$3,0*%
G04 Aperture macros list end*
%ADD10RoundRect,0.250000X0.350000X0.450000X-0.350000X0.450000X-0.350000X-0.450000X0.350000X-0.450000X0*%
%ADD11RoundRect,0.250000X1.000000X0.650000X-1.000000X0.650000X-1.000000X-0.650000X1.000000X-0.650000X0*%
%ADD12RoundRect,0.396240X0.924560X-2.270760X0.924560X2.270760X-0.924560X2.270760X-0.924560X-2.270760X0*%
%ADD13RoundRect,0.426720X0.995680X-1.090930X0.995680X1.090930X-0.995680X1.090930X-0.995680X-1.090930X0*%
%ADD14RoundRect,0.150000X0.825000X0.150000X-0.825000X0.150000X-0.825000X-0.150000X0.825000X-0.150000X0*%
%ADD15RoundRect,0.375000X-0.625000X-0.375000X0.625000X-0.375000X0.625000X0.375000X-0.625000X0.375000X0*%
%ADD16RoundRect,0.500000X-0.500000X-1.400000X0.500000X-1.400000X0.500000X1.400000X-0.500000X1.400000X0*%
%ADD17RoundRect,0.250000X-0.350000X-0.450000X0.350000X-0.450000X0.350000X0.450000X-0.350000X0.450000X0*%
%ADD18RoundRect,0.250000X0.475000X-0.337500X0.475000X0.337500X-0.475000X0.337500X-0.475000X-0.337500X0*%
%ADD19RoundRect,0.250000X-0.375000X-0.625000X0.375000X-0.625000X0.375000X0.625000X-0.375000X0.625000X0*%
%ADD20RoundRect,0.120000X-0.380000X0.280000X-0.380000X-0.280000X0.380000X-0.280000X0.380000X0.280000X0*%
%ADD21RoundRect,0.250000X-0.450000X0.350000X-0.450000X-0.350000X0.450000X-0.350000X0.450000X0.350000X0*%
%ADD22RoundRect,0.250000X-0.337500X-0.475000X0.337500X-0.475000X0.337500X0.475000X-0.337500X0.475000X0*%
%ADD23RoundRect,0.250000X0.450000X-0.350000X0.450000X0.350000X-0.450000X0.350000X-0.450000X-0.350000X0*%
%ADD24RoundRect,0.150000X0.150000X-0.512500X0.150000X0.512500X-0.150000X0.512500X-0.150000X-0.512500X0*%
G04 APERTURE END LIST*
D10*
%TO.C,R1*%
X184464200Y-98196400D03*
X182464200Y-98196400D03*
%TD*%
%TO.C,R9*%
X200694800Y-120319800D03*
X198694800Y-120319800D03*
%TD*%
D11*
%TO.C,D2*%
X174720000Y-110236000D03*
X170720000Y-110236000D03*
%TD*%
D12*
%TO.C,L1*%
X178308000Y-109982000D03*
X185928000Y-109982000D03*
D13*
X182118000Y-113595150D03*
X182118000Y-106368850D03*
%TD*%
D10*
%TO.C,R4*%
X213012000Y-99187000D03*
X211012000Y-99187000D03*
%TD*%
D14*
%TO.C,U2*%
X191755800Y-103886000D03*
X191755800Y-102616000D03*
X191755800Y-101346000D03*
X191755800Y-100076000D03*
X186805800Y-100076000D03*
X186805800Y-101346000D03*
X186805800Y-102616000D03*
X186805800Y-103886000D03*
%TD*%
D15*
%TO.C,U1*%
X201701000Y-98157000D03*
X201701000Y-100457000D03*
D16*
X208001000Y-100457000D03*
D15*
X201701000Y-102757000D03*
%TD*%
D17*
%TO.C,R11*%
X206314800Y-120319800D03*
X208314800Y-120319800D03*
%TD*%
D18*
%TO.C,C4*%
X194030600Y-103653500D03*
X194030600Y-101578500D03*
%TD*%
D19*
%TO.C,D1*%
X211198000Y-101473000D03*
X213998000Y-101473000D03*
%TD*%
D11*
%TO.C,D7*%
X183991000Y-118872000D03*
X179991000Y-118872000D03*
%TD*%
%TO.C,D5*%
X207714600Y-117322600D03*
X203714600Y-117322600D03*
%TD*%
D17*
%TO.C,R12*%
X210124800Y-120319800D03*
X212124800Y-120319800D03*
%TD*%
%TO.C,R2*%
X186604400Y-98196400D03*
X188604400Y-98196400D03*
%TD*%
%TO.C,R8*%
X194884800Y-120319800D03*
X196884800Y-120319800D03*
%TD*%
%TO.C,R3*%
X190744600Y-98196400D03*
X192744600Y-98196400D03*
%TD*%
D20*
%TO.C,U3*%
X193140400Y-120904000D03*
X193140400Y-118364000D03*
X186640400Y-118364000D03*
X186640400Y-120904000D03*
%TD*%
D11*
%TO.C,D4*%
X193516000Y-115570000D03*
X189516000Y-115570000D03*
%TD*%
D21*
%TO.C,R5*%
X198120000Y-98695000D03*
X198120000Y-100695000D03*
%TD*%
D11*
%TO.C,D3*%
X193516000Y-112014000D03*
X189516000Y-112014000D03*
%TD*%
D22*
%TO.C,C5*%
X196041100Y-102616000D03*
X198116100Y-102616000D03*
%TD*%
D17*
%TO.C,R10*%
X202504800Y-120319800D03*
X204504800Y-120319800D03*
%TD*%
D21*
%TO.C,R7*%
X193954400Y-107000800D03*
X193954400Y-109000800D03*
%TD*%
D23*
%TO.C,R6*%
X191922400Y-109000800D03*
X191922400Y-107000800D03*
%TD*%
D19*
%TO.C,D6*%
X211198000Y-117983000D03*
X213998000Y-117983000D03*
%TD*%
D24*
%TO.C,Q1*%
X188203800Y-109011300D03*
X190103800Y-109011300D03*
X189153800Y-106736300D03*
%TD*%
D18*
%TO.C,C3*%
X184429400Y-103653500D03*
X184429400Y-101578500D03*
%TD*%
%TO.C,C1*%
X196088000Y-100732500D03*
X196088000Y-98657500D03*
%TD*%
M02*
