M48
; DRILL file {KiCad 9.0.1-9.0.1-0~ubuntu24.04.1} date 2025-04-27T22:25:53-0700
; FORMAT={-:-/ absolute / metric / decimal}
; #@! TF.CreationDate,2025-04-27T22:25:53-07:00
; #@! TF.GenerationSoftware,Kicad,Pcbnew,9.0.1-9.0.1-0~ubuntu24.04.1
; #@! TF.FileFunction,MixedPlating,1,2
FMAT,2
METRIC
; #@! TA.AperFunction,Plated,PTH,ComponentDrill
T1C0.250
; #@! TA.AperFunction,Plated,PTH,ComponentDrill
T2C0.500
; #@! TA.AperFunction,Plated,PTH,ComponentDrill
T3C0.650
; #@! TA.AperFunction,NonPlated,NPTH,ComponentDrill
T4C3.400
%
G90
G05
T1
X242.162Y-141.056
X242.162Y-142.431
X242.162Y-143.806
X243.537Y-141.056
X243.537Y-142.431
X243.537Y-143.806
X244.912Y-141.056
X244.912Y-142.431
X244.912Y-143.806
T2
X266.217Y-160.961
T3
X267.716Y-119.38
X267.716Y-120.65
X268.986Y-119.38
X268.986Y-120.65
X270.256Y-119.38
X270.256Y-120.65
X271.526Y-119.38
X271.526Y-120.65
X272.796Y-119.38
X272.796Y-120.65
T4
X232.134Y-103.4
X232.134Y-108.74
X232.134Y-113.56
X232.134Y-118.9
X232.183Y-88.11
X232.183Y-98.53
X294.408Y-109.09
X294.408Y-116.97
X294.41Y-91.31
X294.41Y-104.27
M30
