%TF.GenerationSoftware,KiCad,Pcbnew,9.0.1-9.0.1-0~ubuntu24.04.1*%
%TF.CreationDate,2025-04-27T20:23:53-07:00*%
%TF.ProjectId,CAN-IO-expander,43414e2d-494f-42d6-9578-70616e646572,1*%
%TF.SameCoordinates,Original*%
%TF.FileFunction,Soldermask,Bot*%
%TF.FilePolarity,Negative*%
%FSLAX46Y46*%
G04 Gerber Fmt 4.6, Leading zero omitted, Abs format (unit mm)*
G04 Created by KiCad (PCBNEW 9.0.1-9.0.1-0~ubuntu24.04.1) date 2025-04-27 20:23:53*
%MOMM*%
%LPD*%
G01*
G04 APERTURE LIST*
%ADD10C,3.400000*%
%ADD11R,1.778000X1.778000*%
%ADD12C,1.778000*%
%ADD13R,1.000000X1.000000*%
%ADD14C,1.000000*%
%ADD15C,1.905000*%
%ADD16R,2.000000X2.000000*%
%ADD17C,2.000000*%
%ADD18C,2.200000*%
G04 APERTURE END LIST*
D10*
%TO.C,J2*%
X172208000Y-118403200D03*
X172208000Y-113063200D03*
D11*
X180848000Y-117003200D03*
D12*
X180848000Y-114463200D03*
%TD*%
D13*
%TO.C,J1*%
X174625000Y-134645400D03*
D14*
X175895000Y-134645400D03*
X174625000Y-135915400D03*
X175895000Y-135915400D03*
X174625000Y-137185400D03*
X175895000Y-137185400D03*
X174625000Y-138455400D03*
X175895000Y-138455400D03*
X174625000Y-139725400D03*
X175895000Y-139725400D03*
%TD*%
%TO.C,TP1*%
X-15792100Y-95946800D03*
%TD*%
D10*
%TO.C,J7*%
X239526000Y-140687600D03*
X239526000Y-148567600D03*
D11*
X230886000Y-142087600D03*
D15*
X230886000Y-144627600D03*
D12*
X230886000Y-147167600D03*
%TD*%
D10*
%TO.C,J6*%
X239572800Y-89756800D03*
X239572800Y-105256800D03*
D11*
X230932800Y-91156800D03*
D15*
X230932800Y-93696800D03*
D12*
X230932800Y-96236800D03*
X230932800Y-98776800D03*
X230932800Y-101316800D03*
X230932800Y-103856800D03*
%TD*%
D10*
%TO.C,J5*%
X239602200Y-109115400D03*
X239602200Y-116995400D03*
D11*
X230962200Y-110515400D03*
D15*
X230962200Y-113055400D03*
D12*
X230962200Y-115595400D03*
%TD*%
D10*
%TO.C,J3*%
X172208000Y-108283200D03*
X172208000Y-102943200D03*
D11*
X180848000Y-106883200D03*
D12*
X180848000Y-104343200D03*
%TD*%
D16*
%TO.C,C22*%
X-69467454Y-152976800D03*
D17*
X-64467454Y-152976800D03*
%TD*%
D18*
%TO.C,J8*%
X172948600Y-91592400D03*
X172948600Y-96592400D03*
X181148600Y-91592400D03*
X181148600Y-96592400D03*
%TD*%
D10*
%TO.C,J4*%
X239526000Y-121078800D03*
X239526000Y-136578800D03*
D11*
X230886000Y-122478800D03*
D15*
X230886000Y-125018800D03*
D12*
X230886000Y-127558800D03*
X230886000Y-130098800D03*
X230886000Y-132638800D03*
X230886000Y-135178800D03*
%TD*%
M02*
