%TF.GenerationSoftware,KiCad,Pcbnew,9.0.1-9.0.1-0~ubuntu24.04.1*%
%TF.CreationDate,2025-04-27T22:25:52-07:00*%
%TF.ProjectId,CAN-IO-expander,43414e2d-494f-42d6-9578-70616e646572,1*%
%TF.SameCoordinates,Original*%
%TF.FileFunction,Legend,Bot*%
%TF.FilePolarity,Positive*%
%FSLAX46Y46*%
G04 Gerber Fmt 4.6, Leading zero omitted, Abs format (unit mm)*
G04 Created by KiCad (PCBNEW 9.0.1-9.0.1-0~ubuntu24.04.1) date 2025-04-27 22:25:52*
%MOMM*%
%LPD*%
G01*
G04 APERTURE LIST*
%ADD10C,0.150000*%
%ADD11C,0.120000*%
G04 APERTURE END LIST*
D10*
X247476666Y-144404580D02*
X247524285Y-144452200D01*
X247524285Y-144452200D02*
X247667142Y-144499819D01*
X247667142Y-144499819D02*
X247762380Y-144499819D01*
X247762380Y-144499819D02*
X247905237Y-144452200D01*
X247905237Y-144452200D02*
X248000475Y-144356961D01*
X248000475Y-144356961D02*
X248048094Y-144261723D01*
X248048094Y-144261723D02*
X248095713Y-144071247D01*
X248095713Y-144071247D02*
X248095713Y-143928390D01*
X248095713Y-143928390D02*
X248048094Y-143737914D01*
X248048094Y-143737914D02*
X248000475Y-143642676D01*
X248000475Y-143642676D02*
X247905237Y-143547438D01*
X247905237Y-143547438D02*
X247762380Y-143499819D01*
X247762380Y-143499819D02*
X247667142Y-143499819D01*
X247667142Y-143499819D02*
X247524285Y-143547438D01*
X247524285Y-143547438D02*
X247476666Y-143595057D01*
X246619523Y-143499819D02*
X246809999Y-143499819D01*
X246809999Y-143499819D02*
X246905237Y-143547438D01*
X246905237Y-143547438D02*
X246952856Y-143595057D01*
X246952856Y-143595057D02*
X247048094Y-143737914D01*
X247048094Y-143737914D02*
X247095713Y-143928390D01*
X247095713Y-143928390D02*
X247095713Y-144309342D01*
X247095713Y-144309342D02*
X247048094Y-144404580D01*
X247048094Y-144404580D02*
X247000475Y-144452200D01*
X247000475Y-144452200D02*
X246905237Y-144499819D01*
X246905237Y-144499819D02*
X246714761Y-144499819D01*
X246714761Y-144499819D02*
X246619523Y-144452200D01*
X246619523Y-144452200D02*
X246571904Y-144404580D01*
X246571904Y-144404580D02*
X246524285Y-144309342D01*
X246524285Y-144309342D02*
X246524285Y-144071247D01*
X246524285Y-144071247D02*
X246571904Y-143976009D01*
X246571904Y-143976009D02*
X246619523Y-143928390D01*
X246619523Y-143928390D02*
X246714761Y-143880771D01*
X246714761Y-143880771D02*
X246905237Y-143880771D01*
X246905237Y-143880771D02*
X247000475Y-143928390D01*
X247000475Y-143928390D02*
X247048094Y-143976009D01*
X247048094Y-143976009D02*
X247095713Y-144071247D01*
X240599857Y-140086580D02*
X240647476Y-140134200D01*
X240647476Y-140134200D02*
X240790333Y-140181819D01*
X240790333Y-140181819D02*
X240885571Y-140181819D01*
X240885571Y-140181819D02*
X241028428Y-140134200D01*
X241028428Y-140134200D02*
X241123666Y-140038961D01*
X241123666Y-140038961D02*
X241171285Y-139943723D01*
X241171285Y-139943723D02*
X241218904Y-139753247D01*
X241218904Y-139753247D02*
X241218904Y-139610390D01*
X241218904Y-139610390D02*
X241171285Y-139419914D01*
X241171285Y-139419914D02*
X241123666Y-139324676D01*
X241123666Y-139324676D02*
X241028428Y-139229438D01*
X241028428Y-139229438D02*
X240885571Y-139181819D01*
X240885571Y-139181819D02*
X240790333Y-139181819D01*
X240790333Y-139181819D02*
X240647476Y-139229438D01*
X240647476Y-139229438D02*
X240599857Y-139277057D01*
X239647476Y-140181819D02*
X240218904Y-140181819D01*
X239933190Y-140181819D02*
X239933190Y-139181819D01*
X239933190Y-139181819D02*
X240028428Y-139324676D01*
X240028428Y-139324676D02*
X240123666Y-139419914D01*
X240123666Y-139419914D02*
X240218904Y-139467533D01*
X238742714Y-139181819D02*
X239218904Y-139181819D01*
X239218904Y-139181819D02*
X239266523Y-139658009D01*
X239266523Y-139658009D02*
X239218904Y-139610390D01*
X239218904Y-139610390D02*
X239123666Y-139562771D01*
X239123666Y-139562771D02*
X238885571Y-139562771D01*
X238885571Y-139562771D02*
X238790333Y-139610390D01*
X238790333Y-139610390D02*
X238742714Y-139658009D01*
X238742714Y-139658009D02*
X238695095Y-139753247D01*
X238695095Y-139753247D02*
X238695095Y-139991342D01*
X238695095Y-139991342D02*
X238742714Y-140086580D01*
X238742714Y-140086580D02*
X238790333Y-140134200D01*
X238790333Y-140134200D02*
X238885571Y-140181819D01*
X238885571Y-140181819D02*
X239123666Y-140181819D01*
X239123666Y-140181819D02*
X239218904Y-140134200D01*
X239218904Y-140134200D02*
X239266523Y-140086580D01*
X257662819Y-86987142D02*
X257186628Y-86653809D01*
X257662819Y-86415714D02*
X256662819Y-86415714D01*
X256662819Y-86415714D02*
X256662819Y-86796666D01*
X256662819Y-86796666D02*
X256710438Y-86891904D01*
X256710438Y-86891904D02*
X256758057Y-86939523D01*
X256758057Y-86939523D02*
X256853295Y-86987142D01*
X256853295Y-86987142D02*
X256996152Y-86987142D01*
X256996152Y-86987142D02*
X257091390Y-86939523D01*
X257091390Y-86939523D02*
X257139009Y-86891904D01*
X257139009Y-86891904D02*
X257186628Y-86796666D01*
X257186628Y-86796666D02*
X257186628Y-86415714D01*
X257662819Y-87939523D02*
X257662819Y-87368095D01*
X257662819Y-87653809D02*
X256662819Y-87653809D01*
X256662819Y-87653809D02*
X256805676Y-87558571D01*
X256805676Y-87558571D02*
X256900914Y-87463333D01*
X256900914Y-87463333D02*
X256948533Y-87368095D01*
X256662819Y-88272857D02*
X256662819Y-88891904D01*
X256662819Y-88891904D02*
X257043771Y-88558571D01*
X257043771Y-88558571D02*
X257043771Y-88701428D01*
X257043771Y-88701428D02*
X257091390Y-88796666D01*
X257091390Y-88796666D02*
X257139009Y-88844285D01*
X257139009Y-88844285D02*
X257234247Y-88891904D01*
X257234247Y-88891904D02*
X257472342Y-88891904D01*
X257472342Y-88891904D02*
X257567580Y-88844285D01*
X257567580Y-88844285D02*
X257615200Y-88796666D01*
X257615200Y-88796666D02*
X257662819Y-88701428D01*
X257662819Y-88701428D02*
X257662819Y-88415714D01*
X257662819Y-88415714D02*
X257615200Y-88320476D01*
X257615200Y-88320476D02*
X257567580Y-88272857D01*
X254007580Y-96385142D02*
X254055200Y-96337523D01*
X254055200Y-96337523D02*
X254102819Y-96194666D01*
X254102819Y-96194666D02*
X254102819Y-96099428D01*
X254102819Y-96099428D02*
X254055200Y-95956571D01*
X254055200Y-95956571D02*
X253959961Y-95861333D01*
X253959961Y-95861333D02*
X253864723Y-95813714D01*
X253864723Y-95813714D02*
X253674247Y-95766095D01*
X253674247Y-95766095D02*
X253531390Y-95766095D01*
X253531390Y-95766095D02*
X253340914Y-95813714D01*
X253340914Y-95813714D02*
X253245676Y-95861333D01*
X253245676Y-95861333D02*
X253150438Y-95956571D01*
X253150438Y-95956571D02*
X253102819Y-96099428D01*
X253102819Y-96099428D02*
X253102819Y-96194666D01*
X253102819Y-96194666D02*
X253150438Y-96337523D01*
X253150438Y-96337523D02*
X253198057Y-96385142D01*
X253198057Y-96766095D02*
X253150438Y-96813714D01*
X253150438Y-96813714D02*
X253102819Y-96908952D01*
X253102819Y-96908952D02*
X253102819Y-97147047D01*
X253102819Y-97147047D02*
X253150438Y-97242285D01*
X253150438Y-97242285D02*
X253198057Y-97289904D01*
X253198057Y-97289904D02*
X253293295Y-97337523D01*
X253293295Y-97337523D02*
X253388533Y-97337523D01*
X253388533Y-97337523D02*
X253531390Y-97289904D01*
X253531390Y-97289904D02*
X254102819Y-96718476D01*
X254102819Y-96718476D02*
X254102819Y-97337523D01*
X253102819Y-98194666D02*
X253102819Y-98004190D01*
X253102819Y-98004190D02*
X253150438Y-97908952D01*
X253150438Y-97908952D02*
X253198057Y-97861333D01*
X253198057Y-97861333D02*
X253340914Y-97766095D01*
X253340914Y-97766095D02*
X253531390Y-97718476D01*
X253531390Y-97718476D02*
X253912342Y-97718476D01*
X253912342Y-97718476D02*
X254007580Y-97766095D01*
X254007580Y-97766095D02*
X254055200Y-97813714D01*
X254055200Y-97813714D02*
X254102819Y-97908952D01*
X254102819Y-97908952D02*
X254102819Y-98099428D01*
X254102819Y-98099428D02*
X254055200Y-98194666D01*
X254055200Y-98194666D02*
X254007580Y-98242285D01*
X254007580Y-98242285D02*
X253912342Y-98289904D01*
X253912342Y-98289904D02*
X253674247Y-98289904D01*
X253674247Y-98289904D02*
X253579009Y-98242285D01*
X253579009Y-98242285D02*
X253531390Y-98194666D01*
X253531390Y-98194666D02*
X253483771Y-98099428D01*
X253483771Y-98099428D02*
X253483771Y-97908952D01*
X253483771Y-97908952D02*
X253531390Y-97813714D01*
X253531390Y-97813714D02*
X253579009Y-97766095D01*
X253579009Y-97766095D02*
X253674247Y-97718476D01*
X214058760Y-158017514D02*
X214106379Y-158065134D01*
X214106379Y-158065134D02*
X214249236Y-158112753D01*
X214249236Y-158112753D02*
X214344474Y-158112753D01*
X214344474Y-158112753D02*
X214487331Y-158065134D01*
X214487331Y-158065134D02*
X214582569Y-157969895D01*
X214582569Y-157969895D02*
X214630188Y-157874657D01*
X214630188Y-157874657D02*
X214677807Y-157684181D01*
X214677807Y-157684181D02*
X214677807Y-157541324D01*
X214677807Y-157541324D02*
X214630188Y-157350848D01*
X214630188Y-157350848D02*
X214582569Y-157255610D01*
X214582569Y-157255610D02*
X214487331Y-157160372D01*
X214487331Y-157160372D02*
X214344474Y-157112753D01*
X214344474Y-157112753D02*
X214249236Y-157112753D01*
X214249236Y-157112753D02*
X214106379Y-157160372D01*
X214106379Y-157160372D02*
X214058760Y-157207991D01*
X213725426Y-157112753D02*
X213106379Y-157112753D01*
X213106379Y-157112753D02*
X213439712Y-157493705D01*
X213439712Y-157493705D02*
X213296855Y-157493705D01*
X213296855Y-157493705D02*
X213201617Y-157541324D01*
X213201617Y-157541324D02*
X213153998Y-157588943D01*
X213153998Y-157588943D02*
X213106379Y-157684181D01*
X213106379Y-157684181D02*
X213106379Y-157922276D01*
X213106379Y-157922276D02*
X213153998Y-158017514D01*
X213153998Y-158017514D02*
X213201617Y-158065134D01*
X213201617Y-158065134D02*
X213296855Y-158112753D01*
X213296855Y-158112753D02*
X213582569Y-158112753D01*
X213582569Y-158112753D02*
X213677807Y-158065134D01*
X213677807Y-158065134D02*
X213725426Y-158017514D01*
X212487331Y-157112753D02*
X212392093Y-157112753D01*
X212392093Y-157112753D02*
X212296855Y-157160372D01*
X212296855Y-157160372D02*
X212249236Y-157207991D01*
X212249236Y-157207991D02*
X212201617Y-157303229D01*
X212201617Y-157303229D02*
X212153998Y-157493705D01*
X212153998Y-157493705D02*
X212153998Y-157731800D01*
X212153998Y-157731800D02*
X212201617Y-157922276D01*
X212201617Y-157922276D02*
X212249236Y-158017514D01*
X212249236Y-158017514D02*
X212296855Y-158065134D01*
X212296855Y-158065134D02*
X212392093Y-158112753D01*
X212392093Y-158112753D02*
X212487331Y-158112753D01*
X212487331Y-158112753D02*
X212582569Y-158065134D01*
X212582569Y-158065134D02*
X212630188Y-158017514D01*
X212630188Y-158017514D02*
X212677807Y-157922276D01*
X212677807Y-157922276D02*
X212725426Y-157731800D01*
X212725426Y-157731800D02*
X212725426Y-157493705D01*
X212725426Y-157493705D02*
X212677807Y-157303229D01*
X212677807Y-157303229D02*
X212630188Y-157207991D01*
X212630188Y-157207991D02*
X212582569Y-157160372D01*
X212582569Y-157160372D02*
X212487331Y-157112753D01*
X251754819Y-86987142D02*
X251278628Y-86653809D01*
X251754819Y-86415714D02*
X250754819Y-86415714D01*
X250754819Y-86415714D02*
X250754819Y-86796666D01*
X250754819Y-86796666D02*
X250802438Y-86891904D01*
X250802438Y-86891904D02*
X250850057Y-86939523D01*
X250850057Y-86939523D02*
X250945295Y-86987142D01*
X250945295Y-86987142D02*
X251088152Y-86987142D01*
X251088152Y-86987142D02*
X251183390Y-86939523D01*
X251183390Y-86939523D02*
X251231009Y-86891904D01*
X251231009Y-86891904D02*
X251278628Y-86796666D01*
X251278628Y-86796666D02*
X251278628Y-86415714D01*
X251754819Y-87939523D02*
X251754819Y-87368095D01*
X251754819Y-87653809D02*
X250754819Y-87653809D01*
X250754819Y-87653809D02*
X250897676Y-87558571D01*
X250897676Y-87558571D02*
X250992914Y-87463333D01*
X250992914Y-87463333D02*
X251040533Y-87368095D01*
X250754819Y-88796666D02*
X250754819Y-88606190D01*
X250754819Y-88606190D02*
X250802438Y-88510952D01*
X250802438Y-88510952D02*
X250850057Y-88463333D01*
X250850057Y-88463333D02*
X250992914Y-88368095D01*
X250992914Y-88368095D02*
X251183390Y-88320476D01*
X251183390Y-88320476D02*
X251564342Y-88320476D01*
X251564342Y-88320476D02*
X251659580Y-88368095D01*
X251659580Y-88368095D02*
X251707200Y-88415714D01*
X251707200Y-88415714D02*
X251754819Y-88510952D01*
X251754819Y-88510952D02*
X251754819Y-88701428D01*
X251754819Y-88701428D02*
X251707200Y-88796666D01*
X251707200Y-88796666D02*
X251659580Y-88844285D01*
X251659580Y-88844285D02*
X251564342Y-88891904D01*
X251564342Y-88891904D02*
X251326247Y-88891904D01*
X251326247Y-88891904D02*
X251231009Y-88844285D01*
X251231009Y-88844285D02*
X251183390Y-88796666D01*
X251183390Y-88796666D02*
X251135771Y-88701428D01*
X251135771Y-88701428D02*
X251135771Y-88510952D01*
X251135771Y-88510952D02*
X251183390Y-88415714D01*
X251183390Y-88415714D02*
X251231009Y-88368095D01*
X251231009Y-88368095D02*
X251326247Y-88320476D01*
X214051907Y-148069775D02*
X214099526Y-148117395D01*
X214099526Y-148117395D02*
X214242383Y-148165014D01*
X214242383Y-148165014D02*
X214337621Y-148165014D01*
X214337621Y-148165014D02*
X214480478Y-148117395D01*
X214480478Y-148117395D02*
X214575716Y-148022156D01*
X214575716Y-148022156D02*
X214623335Y-147926918D01*
X214623335Y-147926918D02*
X214670954Y-147736442D01*
X214670954Y-147736442D02*
X214670954Y-147593585D01*
X214670954Y-147593585D02*
X214623335Y-147403109D01*
X214623335Y-147403109D02*
X214575716Y-147307871D01*
X214575716Y-147307871D02*
X214480478Y-147212633D01*
X214480478Y-147212633D02*
X214337621Y-147165014D01*
X214337621Y-147165014D02*
X214242383Y-147165014D01*
X214242383Y-147165014D02*
X214099526Y-147212633D01*
X214099526Y-147212633D02*
X214051907Y-147260252D01*
X213718573Y-147165014D02*
X213099526Y-147165014D01*
X213099526Y-147165014D02*
X213432859Y-147545966D01*
X213432859Y-147545966D02*
X213290002Y-147545966D01*
X213290002Y-147545966D02*
X213194764Y-147593585D01*
X213194764Y-147593585D02*
X213147145Y-147641204D01*
X213147145Y-147641204D02*
X213099526Y-147736442D01*
X213099526Y-147736442D02*
X213099526Y-147974537D01*
X213099526Y-147974537D02*
X213147145Y-148069775D01*
X213147145Y-148069775D02*
X213194764Y-148117395D01*
X213194764Y-148117395D02*
X213290002Y-148165014D01*
X213290002Y-148165014D02*
X213575716Y-148165014D01*
X213575716Y-148165014D02*
X213670954Y-148117395D01*
X213670954Y-148117395D02*
X213718573Y-148069775D01*
X212194764Y-147165014D02*
X212670954Y-147165014D01*
X212670954Y-147165014D02*
X212718573Y-147641204D01*
X212718573Y-147641204D02*
X212670954Y-147593585D01*
X212670954Y-147593585D02*
X212575716Y-147545966D01*
X212575716Y-147545966D02*
X212337621Y-147545966D01*
X212337621Y-147545966D02*
X212242383Y-147593585D01*
X212242383Y-147593585D02*
X212194764Y-147641204D01*
X212194764Y-147641204D02*
X212147145Y-147736442D01*
X212147145Y-147736442D02*
X212147145Y-147974537D01*
X212147145Y-147974537D02*
X212194764Y-148069775D01*
X212194764Y-148069775D02*
X212242383Y-148117395D01*
X212242383Y-148117395D02*
X212337621Y-148165014D01*
X212337621Y-148165014D02*
X212575716Y-148165014D01*
X212575716Y-148165014D02*
X212670954Y-148117395D01*
X212670954Y-148117395D02*
X212718573Y-148069775D01*
X254007580Y-91813142D02*
X254055200Y-91765523D01*
X254055200Y-91765523D02*
X254102819Y-91622666D01*
X254102819Y-91622666D02*
X254102819Y-91527428D01*
X254102819Y-91527428D02*
X254055200Y-91384571D01*
X254055200Y-91384571D02*
X253959961Y-91289333D01*
X253959961Y-91289333D02*
X253864723Y-91241714D01*
X253864723Y-91241714D02*
X253674247Y-91194095D01*
X253674247Y-91194095D02*
X253531390Y-91194095D01*
X253531390Y-91194095D02*
X253340914Y-91241714D01*
X253340914Y-91241714D02*
X253245676Y-91289333D01*
X253245676Y-91289333D02*
X253150438Y-91384571D01*
X253150438Y-91384571D02*
X253102819Y-91527428D01*
X253102819Y-91527428D02*
X253102819Y-91622666D01*
X253102819Y-91622666D02*
X253150438Y-91765523D01*
X253150438Y-91765523D02*
X253198057Y-91813142D01*
X253198057Y-92194095D02*
X253150438Y-92241714D01*
X253150438Y-92241714D02*
X253102819Y-92336952D01*
X253102819Y-92336952D02*
X253102819Y-92575047D01*
X253102819Y-92575047D02*
X253150438Y-92670285D01*
X253150438Y-92670285D02*
X253198057Y-92717904D01*
X253198057Y-92717904D02*
X253293295Y-92765523D01*
X253293295Y-92765523D02*
X253388533Y-92765523D01*
X253388533Y-92765523D02*
X253531390Y-92717904D01*
X253531390Y-92717904D02*
X254102819Y-92146476D01*
X254102819Y-92146476D02*
X254102819Y-92765523D01*
X253102819Y-93098857D02*
X253102819Y-93765523D01*
X253102819Y-93765523D02*
X254102819Y-93336952D01*
X214051907Y-152641775D02*
X214099526Y-152689395D01*
X214099526Y-152689395D02*
X214242383Y-152737014D01*
X214242383Y-152737014D02*
X214337621Y-152737014D01*
X214337621Y-152737014D02*
X214480478Y-152689395D01*
X214480478Y-152689395D02*
X214575716Y-152594156D01*
X214575716Y-152594156D02*
X214623335Y-152498918D01*
X214623335Y-152498918D02*
X214670954Y-152308442D01*
X214670954Y-152308442D02*
X214670954Y-152165585D01*
X214670954Y-152165585D02*
X214623335Y-151975109D01*
X214623335Y-151975109D02*
X214575716Y-151879871D01*
X214575716Y-151879871D02*
X214480478Y-151784633D01*
X214480478Y-151784633D02*
X214337621Y-151737014D01*
X214337621Y-151737014D02*
X214242383Y-151737014D01*
X214242383Y-151737014D02*
X214099526Y-151784633D01*
X214099526Y-151784633D02*
X214051907Y-151832252D01*
X213718573Y-151737014D02*
X213099526Y-151737014D01*
X213099526Y-151737014D02*
X213432859Y-152117966D01*
X213432859Y-152117966D02*
X213290002Y-152117966D01*
X213290002Y-152117966D02*
X213194764Y-152165585D01*
X213194764Y-152165585D02*
X213147145Y-152213204D01*
X213147145Y-152213204D02*
X213099526Y-152308442D01*
X213099526Y-152308442D02*
X213099526Y-152546537D01*
X213099526Y-152546537D02*
X213147145Y-152641775D01*
X213147145Y-152641775D02*
X213194764Y-152689395D01*
X213194764Y-152689395D02*
X213290002Y-152737014D01*
X213290002Y-152737014D02*
X213575716Y-152737014D01*
X213575716Y-152737014D02*
X213670954Y-152689395D01*
X213670954Y-152689395D02*
X213718573Y-152641775D01*
X212242383Y-152070347D02*
X212242383Y-152737014D01*
X212480478Y-151689395D02*
X212718573Y-152403680D01*
X212718573Y-152403680D02*
X212099526Y-152403680D01*
X253090819Y-87463333D02*
X252614628Y-87130000D01*
X253090819Y-86891905D02*
X252090819Y-86891905D01*
X252090819Y-86891905D02*
X252090819Y-87272857D01*
X252090819Y-87272857D02*
X252138438Y-87368095D01*
X252138438Y-87368095D02*
X252186057Y-87415714D01*
X252186057Y-87415714D02*
X252281295Y-87463333D01*
X252281295Y-87463333D02*
X252424152Y-87463333D01*
X252424152Y-87463333D02*
X252519390Y-87415714D01*
X252519390Y-87415714D02*
X252567009Y-87368095D01*
X252567009Y-87368095D02*
X252614628Y-87272857D01*
X252614628Y-87272857D02*
X252614628Y-86891905D01*
X252519390Y-88034762D02*
X252471771Y-87939524D01*
X252471771Y-87939524D02*
X252424152Y-87891905D01*
X252424152Y-87891905D02*
X252328914Y-87844286D01*
X252328914Y-87844286D02*
X252281295Y-87844286D01*
X252281295Y-87844286D02*
X252186057Y-87891905D01*
X252186057Y-87891905D02*
X252138438Y-87939524D01*
X252138438Y-87939524D02*
X252090819Y-88034762D01*
X252090819Y-88034762D02*
X252090819Y-88225238D01*
X252090819Y-88225238D02*
X252138438Y-88320476D01*
X252138438Y-88320476D02*
X252186057Y-88368095D01*
X252186057Y-88368095D02*
X252281295Y-88415714D01*
X252281295Y-88415714D02*
X252328914Y-88415714D01*
X252328914Y-88415714D02*
X252424152Y-88368095D01*
X252424152Y-88368095D02*
X252471771Y-88320476D01*
X252471771Y-88320476D02*
X252519390Y-88225238D01*
X252519390Y-88225238D02*
X252519390Y-88034762D01*
X252519390Y-88034762D02*
X252567009Y-87939524D01*
X252567009Y-87939524D02*
X252614628Y-87891905D01*
X252614628Y-87891905D02*
X252709866Y-87844286D01*
X252709866Y-87844286D02*
X252900342Y-87844286D01*
X252900342Y-87844286D02*
X252995580Y-87891905D01*
X252995580Y-87891905D02*
X253043200Y-87939524D01*
X253043200Y-87939524D02*
X253090819Y-88034762D01*
X253090819Y-88034762D02*
X253090819Y-88225238D01*
X253090819Y-88225238D02*
X253043200Y-88320476D01*
X253043200Y-88320476D02*
X252995580Y-88368095D01*
X252995580Y-88368095D02*
X252900342Y-88415714D01*
X252900342Y-88415714D02*
X252709866Y-88415714D01*
X252709866Y-88415714D02*
X252614628Y-88368095D01*
X252614628Y-88368095D02*
X252567009Y-88320476D01*
X252567009Y-88320476D02*
X252519390Y-88225238D01*
X240885666Y-144404580D02*
X240933285Y-144452200D01*
X240933285Y-144452200D02*
X241076142Y-144499819D01*
X241076142Y-144499819D02*
X241171380Y-144499819D01*
X241171380Y-144499819D02*
X241314237Y-144452200D01*
X241314237Y-144452200D02*
X241409475Y-144356961D01*
X241409475Y-144356961D02*
X241457094Y-144261723D01*
X241457094Y-144261723D02*
X241504713Y-144071247D01*
X241504713Y-144071247D02*
X241504713Y-143928390D01*
X241504713Y-143928390D02*
X241457094Y-143737914D01*
X241457094Y-143737914D02*
X241409475Y-143642676D01*
X241409475Y-143642676D02*
X241314237Y-143547438D01*
X241314237Y-143547438D02*
X241171380Y-143499819D01*
X241171380Y-143499819D02*
X241076142Y-143499819D01*
X241076142Y-143499819D02*
X240933285Y-143547438D01*
X240933285Y-143547438D02*
X240885666Y-143595057D01*
X240314237Y-143928390D02*
X240409475Y-143880771D01*
X240409475Y-143880771D02*
X240457094Y-143833152D01*
X240457094Y-143833152D02*
X240504713Y-143737914D01*
X240504713Y-143737914D02*
X240504713Y-143690295D01*
X240504713Y-143690295D02*
X240457094Y-143595057D01*
X240457094Y-143595057D02*
X240409475Y-143547438D01*
X240409475Y-143547438D02*
X240314237Y-143499819D01*
X240314237Y-143499819D02*
X240123761Y-143499819D01*
X240123761Y-143499819D02*
X240028523Y-143547438D01*
X240028523Y-143547438D02*
X239980904Y-143595057D01*
X239980904Y-143595057D02*
X239933285Y-143690295D01*
X239933285Y-143690295D02*
X239933285Y-143737914D01*
X239933285Y-143737914D02*
X239980904Y-143833152D01*
X239980904Y-143833152D02*
X240028523Y-143880771D01*
X240028523Y-143880771D02*
X240123761Y-143928390D01*
X240123761Y-143928390D02*
X240314237Y-143928390D01*
X240314237Y-143928390D02*
X240409475Y-143976009D01*
X240409475Y-143976009D02*
X240457094Y-144023628D01*
X240457094Y-144023628D02*
X240504713Y-144118866D01*
X240504713Y-144118866D02*
X240504713Y-144309342D01*
X240504713Y-144309342D02*
X240457094Y-144404580D01*
X240457094Y-144404580D02*
X240409475Y-144452200D01*
X240409475Y-144452200D02*
X240314237Y-144499819D01*
X240314237Y-144499819D02*
X240123761Y-144499819D01*
X240123761Y-144499819D02*
X240028523Y-144452200D01*
X240028523Y-144452200D02*
X239980904Y-144404580D01*
X239980904Y-144404580D02*
X239933285Y-144309342D01*
X239933285Y-144309342D02*
X239933285Y-144118866D01*
X239933285Y-144118866D02*
X239980904Y-144023628D01*
X239980904Y-144023628D02*
X240028523Y-143976009D01*
X240028523Y-143976009D02*
X240123761Y-143928390D01*
X244174666Y-144404580D02*
X244222285Y-144452200D01*
X244222285Y-144452200D02*
X244365142Y-144499819D01*
X244365142Y-144499819D02*
X244460380Y-144499819D01*
X244460380Y-144499819D02*
X244603237Y-144452200D01*
X244603237Y-144452200D02*
X244698475Y-144356961D01*
X244698475Y-144356961D02*
X244746094Y-144261723D01*
X244746094Y-144261723D02*
X244793713Y-144071247D01*
X244793713Y-144071247D02*
X244793713Y-143928390D01*
X244793713Y-143928390D02*
X244746094Y-143737914D01*
X244746094Y-143737914D02*
X244698475Y-143642676D01*
X244698475Y-143642676D02*
X244603237Y-143547438D01*
X244603237Y-143547438D02*
X244460380Y-143499819D01*
X244460380Y-143499819D02*
X244365142Y-143499819D01*
X244365142Y-143499819D02*
X244222285Y-143547438D01*
X244222285Y-143547438D02*
X244174666Y-143595057D01*
X243841332Y-143499819D02*
X243174666Y-143499819D01*
X243174666Y-143499819D02*
X243603237Y-144499819D01*
X247203857Y-141864580D02*
X247251476Y-141912200D01*
X247251476Y-141912200D02*
X247394333Y-141959819D01*
X247394333Y-141959819D02*
X247489571Y-141959819D01*
X247489571Y-141959819D02*
X247632428Y-141912200D01*
X247632428Y-141912200D02*
X247727666Y-141816961D01*
X247727666Y-141816961D02*
X247775285Y-141721723D01*
X247775285Y-141721723D02*
X247822904Y-141531247D01*
X247822904Y-141531247D02*
X247822904Y-141388390D01*
X247822904Y-141388390D02*
X247775285Y-141197914D01*
X247775285Y-141197914D02*
X247727666Y-141102676D01*
X247727666Y-141102676D02*
X247632428Y-141007438D01*
X247632428Y-141007438D02*
X247489571Y-140959819D01*
X247489571Y-140959819D02*
X247394333Y-140959819D01*
X247394333Y-140959819D02*
X247251476Y-141007438D01*
X247251476Y-141007438D02*
X247203857Y-141055057D01*
X246251476Y-141959819D02*
X246822904Y-141959819D01*
X246537190Y-141959819D02*
X246537190Y-140959819D01*
X246537190Y-140959819D02*
X246632428Y-141102676D01*
X246632428Y-141102676D02*
X246727666Y-141197914D01*
X246727666Y-141197914D02*
X246822904Y-141245533D01*
X245918142Y-140959819D02*
X245299095Y-140959819D01*
X245299095Y-140959819D02*
X245632428Y-141340771D01*
X245632428Y-141340771D02*
X245489571Y-141340771D01*
X245489571Y-141340771D02*
X245394333Y-141388390D01*
X245394333Y-141388390D02*
X245346714Y-141436009D01*
X245346714Y-141436009D02*
X245299095Y-141531247D01*
X245299095Y-141531247D02*
X245299095Y-141769342D01*
X245299095Y-141769342D02*
X245346714Y-141864580D01*
X245346714Y-141864580D02*
X245394333Y-141912200D01*
X245394333Y-141912200D02*
X245489571Y-141959819D01*
X245489571Y-141959819D02*
X245775285Y-141959819D01*
X245775285Y-141959819D02*
X245870523Y-141912200D01*
X245870523Y-141912200D02*
X245918142Y-141864580D01*
X243847857Y-141804580D02*
X243895476Y-141852200D01*
X243895476Y-141852200D02*
X244038333Y-141899819D01*
X244038333Y-141899819D02*
X244133571Y-141899819D01*
X244133571Y-141899819D02*
X244276428Y-141852200D01*
X244276428Y-141852200D02*
X244371666Y-141756961D01*
X244371666Y-141756961D02*
X244419285Y-141661723D01*
X244419285Y-141661723D02*
X244466904Y-141471247D01*
X244466904Y-141471247D02*
X244466904Y-141328390D01*
X244466904Y-141328390D02*
X244419285Y-141137914D01*
X244419285Y-141137914D02*
X244371666Y-141042676D01*
X244371666Y-141042676D02*
X244276428Y-140947438D01*
X244276428Y-140947438D02*
X244133571Y-140899819D01*
X244133571Y-140899819D02*
X244038333Y-140899819D01*
X244038333Y-140899819D02*
X243895476Y-140947438D01*
X243895476Y-140947438D02*
X243847857Y-140995057D01*
X242895476Y-141899819D02*
X243466904Y-141899819D01*
X243181190Y-141899819D02*
X243181190Y-140899819D01*
X243181190Y-140899819D02*
X243276428Y-141042676D01*
X243276428Y-141042676D02*
X243371666Y-141137914D01*
X243371666Y-141137914D02*
X243466904Y-141185533D01*
X242276428Y-140899819D02*
X242181190Y-140899819D01*
X242181190Y-140899819D02*
X242085952Y-140947438D01*
X242085952Y-140947438D02*
X242038333Y-140995057D01*
X242038333Y-140995057D02*
X241990714Y-141090295D01*
X241990714Y-141090295D02*
X241943095Y-141280771D01*
X241943095Y-141280771D02*
X241943095Y-141518866D01*
X241943095Y-141518866D02*
X241990714Y-141709342D01*
X241990714Y-141709342D02*
X242038333Y-141804580D01*
X242038333Y-141804580D02*
X242085952Y-141852200D01*
X242085952Y-141852200D02*
X242181190Y-141899819D01*
X242181190Y-141899819D02*
X242276428Y-141899819D01*
X242276428Y-141899819D02*
X242371666Y-141852200D01*
X242371666Y-141852200D02*
X242419285Y-141804580D01*
X242419285Y-141804580D02*
X242466904Y-141709342D01*
X242466904Y-141709342D02*
X242514523Y-141518866D01*
X242514523Y-141518866D02*
X242514523Y-141280771D01*
X242514523Y-141280771D02*
X242466904Y-141090295D01*
X242466904Y-141090295D02*
X242419285Y-140995057D01*
X242419285Y-140995057D02*
X242371666Y-140947438D01*
X242371666Y-140947438D02*
X242276428Y-140899819D01*
X258833580Y-96385142D02*
X258881200Y-96337523D01*
X258881200Y-96337523D02*
X258928819Y-96194666D01*
X258928819Y-96194666D02*
X258928819Y-96099428D01*
X258928819Y-96099428D02*
X258881200Y-95956571D01*
X258881200Y-95956571D02*
X258785961Y-95861333D01*
X258785961Y-95861333D02*
X258690723Y-95813714D01*
X258690723Y-95813714D02*
X258500247Y-95766095D01*
X258500247Y-95766095D02*
X258357390Y-95766095D01*
X258357390Y-95766095D02*
X258166914Y-95813714D01*
X258166914Y-95813714D02*
X258071676Y-95861333D01*
X258071676Y-95861333D02*
X257976438Y-95956571D01*
X257976438Y-95956571D02*
X257928819Y-96099428D01*
X257928819Y-96099428D02*
X257928819Y-96194666D01*
X257928819Y-96194666D02*
X257976438Y-96337523D01*
X257976438Y-96337523D02*
X258024057Y-96385142D01*
X258928819Y-97337523D02*
X258928819Y-96766095D01*
X258928819Y-97051809D02*
X257928819Y-97051809D01*
X257928819Y-97051809D02*
X258071676Y-96956571D01*
X258071676Y-96956571D02*
X258166914Y-96861333D01*
X258166914Y-96861333D02*
X258214533Y-96766095D01*
X258357390Y-97908952D02*
X258309771Y-97813714D01*
X258309771Y-97813714D02*
X258262152Y-97766095D01*
X258262152Y-97766095D02*
X258166914Y-97718476D01*
X258166914Y-97718476D02*
X258119295Y-97718476D01*
X258119295Y-97718476D02*
X258024057Y-97766095D01*
X258024057Y-97766095D02*
X257976438Y-97813714D01*
X257976438Y-97813714D02*
X257928819Y-97908952D01*
X257928819Y-97908952D02*
X257928819Y-98099428D01*
X257928819Y-98099428D02*
X257976438Y-98194666D01*
X257976438Y-98194666D02*
X258024057Y-98242285D01*
X258024057Y-98242285D02*
X258119295Y-98289904D01*
X258119295Y-98289904D02*
X258166914Y-98289904D01*
X258166914Y-98289904D02*
X258262152Y-98242285D01*
X258262152Y-98242285D02*
X258309771Y-98194666D01*
X258309771Y-98194666D02*
X258357390Y-98099428D01*
X258357390Y-98099428D02*
X258357390Y-97908952D01*
X258357390Y-97908952D02*
X258405009Y-97813714D01*
X258405009Y-97813714D02*
X258452628Y-97766095D01*
X258452628Y-97766095D02*
X258547866Y-97718476D01*
X258547866Y-97718476D02*
X258738342Y-97718476D01*
X258738342Y-97718476D02*
X258833580Y-97766095D01*
X258833580Y-97766095D02*
X258881200Y-97813714D01*
X258881200Y-97813714D02*
X258928819Y-97908952D01*
X258928819Y-97908952D02*
X258928819Y-98099428D01*
X258928819Y-98099428D02*
X258881200Y-98194666D01*
X258881200Y-98194666D02*
X258833580Y-98242285D01*
X258833580Y-98242285D02*
X258738342Y-98289904D01*
X258738342Y-98289904D02*
X258547866Y-98289904D01*
X258547866Y-98289904D02*
X258452628Y-98242285D01*
X258452628Y-98242285D02*
X258405009Y-98194666D01*
X258405009Y-98194666D02*
X258357390Y-98099428D01*
X240612857Y-141864580D02*
X240660476Y-141912200D01*
X240660476Y-141912200D02*
X240803333Y-141959819D01*
X240803333Y-141959819D02*
X240898571Y-141959819D01*
X240898571Y-141959819D02*
X241041428Y-141912200D01*
X241041428Y-141912200D02*
X241136666Y-141816961D01*
X241136666Y-141816961D02*
X241184285Y-141721723D01*
X241184285Y-141721723D02*
X241231904Y-141531247D01*
X241231904Y-141531247D02*
X241231904Y-141388390D01*
X241231904Y-141388390D02*
X241184285Y-141197914D01*
X241184285Y-141197914D02*
X241136666Y-141102676D01*
X241136666Y-141102676D02*
X241041428Y-141007438D01*
X241041428Y-141007438D02*
X240898571Y-140959819D01*
X240898571Y-140959819D02*
X240803333Y-140959819D01*
X240803333Y-140959819D02*
X240660476Y-141007438D01*
X240660476Y-141007438D02*
X240612857Y-141055057D01*
X239660476Y-141959819D02*
X240231904Y-141959819D01*
X239946190Y-141959819D02*
X239946190Y-140959819D01*
X239946190Y-140959819D02*
X240041428Y-141102676D01*
X240041428Y-141102676D02*
X240136666Y-141197914D01*
X240136666Y-141197914D02*
X240231904Y-141245533D01*
X238708095Y-141959819D02*
X239279523Y-141959819D01*
X238993809Y-141959819D02*
X238993809Y-140959819D01*
X238993809Y-140959819D02*
X239089047Y-141102676D01*
X239089047Y-141102676D02*
X239184285Y-141197914D01*
X239184285Y-141197914D02*
X239279523Y-141245533D01*
X243393857Y-138308580D02*
X243441476Y-138356200D01*
X243441476Y-138356200D02*
X243584333Y-138403819D01*
X243584333Y-138403819D02*
X243679571Y-138403819D01*
X243679571Y-138403819D02*
X243822428Y-138356200D01*
X243822428Y-138356200D02*
X243917666Y-138260961D01*
X243917666Y-138260961D02*
X243965285Y-138165723D01*
X243965285Y-138165723D02*
X244012904Y-137975247D01*
X244012904Y-137975247D02*
X244012904Y-137832390D01*
X244012904Y-137832390D02*
X243965285Y-137641914D01*
X243965285Y-137641914D02*
X243917666Y-137546676D01*
X243917666Y-137546676D02*
X243822428Y-137451438D01*
X243822428Y-137451438D02*
X243679571Y-137403819D01*
X243679571Y-137403819D02*
X243584333Y-137403819D01*
X243584333Y-137403819D02*
X243441476Y-137451438D01*
X243441476Y-137451438D02*
X243393857Y-137499057D01*
X242441476Y-138403819D02*
X243012904Y-138403819D01*
X242727190Y-138403819D02*
X242727190Y-137403819D01*
X242727190Y-137403819D02*
X242822428Y-137546676D01*
X242822428Y-137546676D02*
X242917666Y-137641914D01*
X242917666Y-137641914D02*
X243012904Y-137689533D01*
X241584333Y-137737152D02*
X241584333Y-138403819D01*
X241822428Y-137356200D02*
X242060523Y-138070485D01*
X242060523Y-138070485D02*
X241441476Y-138070485D01*
X243839904Y-112386819D02*
X243839904Y-113196342D01*
X243839904Y-113196342D02*
X243792285Y-113291580D01*
X243792285Y-113291580D02*
X243744666Y-113339200D01*
X243744666Y-113339200D02*
X243649428Y-113386819D01*
X243649428Y-113386819D02*
X243458952Y-113386819D01*
X243458952Y-113386819D02*
X243363714Y-113339200D01*
X243363714Y-113339200D02*
X243316095Y-113291580D01*
X243316095Y-113291580D02*
X243268476Y-113196342D01*
X243268476Y-113196342D02*
X243268476Y-112386819D01*
X242316095Y-112386819D02*
X242792285Y-112386819D01*
X242792285Y-112386819D02*
X242839904Y-112863009D01*
X242839904Y-112863009D02*
X242792285Y-112815390D01*
X242792285Y-112815390D02*
X242697047Y-112767771D01*
X242697047Y-112767771D02*
X242458952Y-112767771D01*
X242458952Y-112767771D02*
X242363714Y-112815390D01*
X242363714Y-112815390D02*
X242316095Y-112863009D01*
X242316095Y-112863009D02*
X242268476Y-112958247D01*
X242268476Y-112958247D02*
X242268476Y-113196342D01*
X242268476Y-113196342D02*
X242316095Y-113291580D01*
X242316095Y-113291580D02*
X242363714Y-113339200D01*
X242363714Y-113339200D02*
X242458952Y-113386819D01*
X242458952Y-113386819D02*
X242697047Y-113386819D01*
X242697047Y-113386819D02*
X242792285Y-113339200D01*
X242792285Y-113339200D02*
X242839904Y-113291580D01*
X240657580Y-92575142D02*
X240705200Y-92527523D01*
X240705200Y-92527523D02*
X240752819Y-92384666D01*
X240752819Y-92384666D02*
X240752819Y-92289428D01*
X240752819Y-92289428D02*
X240705200Y-92146571D01*
X240705200Y-92146571D02*
X240609961Y-92051333D01*
X240609961Y-92051333D02*
X240514723Y-92003714D01*
X240514723Y-92003714D02*
X240324247Y-91956095D01*
X240324247Y-91956095D02*
X240181390Y-91956095D01*
X240181390Y-91956095D02*
X239990914Y-92003714D01*
X239990914Y-92003714D02*
X239895676Y-92051333D01*
X239895676Y-92051333D02*
X239800438Y-92146571D01*
X239800438Y-92146571D02*
X239752819Y-92289428D01*
X239752819Y-92289428D02*
X239752819Y-92384666D01*
X239752819Y-92384666D02*
X239800438Y-92527523D01*
X239800438Y-92527523D02*
X239848057Y-92575142D01*
X240752819Y-93527523D02*
X240752819Y-92956095D01*
X240752819Y-93241809D02*
X239752819Y-93241809D01*
X239752819Y-93241809D02*
X239895676Y-93146571D01*
X239895676Y-93146571D02*
X239990914Y-93051333D01*
X239990914Y-93051333D02*
X240038533Y-92956095D01*
X239752819Y-93860857D02*
X239752819Y-94527523D01*
X239752819Y-94527523D02*
X240752819Y-94098952D01*
X247203857Y-139832580D02*
X247251476Y-139880200D01*
X247251476Y-139880200D02*
X247394333Y-139927819D01*
X247394333Y-139927819D02*
X247489571Y-139927819D01*
X247489571Y-139927819D02*
X247632428Y-139880200D01*
X247632428Y-139880200D02*
X247727666Y-139784961D01*
X247727666Y-139784961D02*
X247775285Y-139689723D01*
X247775285Y-139689723D02*
X247822904Y-139499247D01*
X247822904Y-139499247D02*
X247822904Y-139356390D01*
X247822904Y-139356390D02*
X247775285Y-139165914D01*
X247775285Y-139165914D02*
X247727666Y-139070676D01*
X247727666Y-139070676D02*
X247632428Y-138975438D01*
X247632428Y-138975438D02*
X247489571Y-138927819D01*
X247489571Y-138927819D02*
X247394333Y-138927819D01*
X247394333Y-138927819D02*
X247251476Y-138975438D01*
X247251476Y-138975438D02*
X247203857Y-139023057D01*
X246251476Y-139927819D02*
X246822904Y-139927819D01*
X246537190Y-139927819D02*
X246537190Y-138927819D01*
X246537190Y-138927819D02*
X246632428Y-139070676D01*
X246632428Y-139070676D02*
X246727666Y-139165914D01*
X246727666Y-139165914D02*
X246822904Y-139213533D01*
X245870523Y-139023057D02*
X245822904Y-138975438D01*
X245822904Y-138975438D02*
X245727666Y-138927819D01*
X245727666Y-138927819D02*
X245489571Y-138927819D01*
X245489571Y-138927819D02*
X245394333Y-138975438D01*
X245394333Y-138975438D02*
X245346714Y-139023057D01*
X245346714Y-139023057D02*
X245299095Y-139118295D01*
X245299095Y-139118295D02*
X245299095Y-139213533D01*
X245299095Y-139213533D02*
X245346714Y-139356390D01*
X245346714Y-139356390D02*
X245918142Y-139927819D01*
X245918142Y-139927819D02*
X245299095Y-139927819D01*
X244148594Y-109026819D02*
X244148594Y-108026819D01*
X244148594Y-108026819D02*
X243910499Y-108026819D01*
X243910499Y-108026819D02*
X243767642Y-108074438D01*
X243767642Y-108074438D02*
X243672404Y-108169676D01*
X243672404Y-108169676D02*
X243624785Y-108264914D01*
X243624785Y-108264914D02*
X243577166Y-108455390D01*
X243577166Y-108455390D02*
X243577166Y-108598247D01*
X243577166Y-108598247D02*
X243624785Y-108788723D01*
X243624785Y-108788723D02*
X243672404Y-108883961D01*
X243672404Y-108883961D02*
X243767642Y-108979200D01*
X243767642Y-108979200D02*
X243910499Y-109026819D01*
X243910499Y-109026819D02*
X244148594Y-109026819D01*
X243196213Y-108122057D02*
X243148594Y-108074438D01*
X243148594Y-108074438D02*
X243053356Y-108026819D01*
X243053356Y-108026819D02*
X242815261Y-108026819D01*
X242815261Y-108026819D02*
X242720023Y-108074438D01*
X242720023Y-108074438D02*
X242672404Y-108122057D01*
X242672404Y-108122057D02*
X242624785Y-108217295D01*
X242624785Y-108217295D02*
X242624785Y-108312533D01*
X242624785Y-108312533D02*
X242672404Y-108455390D01*
X242672404Y-108455390D02*
X243243832Y-109026819D01*
X243243832Y-109026819D02*
X242624785Y-109026819D01*
X245752857Y-121677580D02*
X245800476Y-121725200D01*
X245800476Y-121725200D02*
X245943333Y-121772819D01*
X245943333Y-121772819D02*
X246038571Y-121772819D01*
X246038571Y-121772819D02*
X246181428Y-121725200D01*
X246181428Y-121725200D02*
X246276666Y-121629961D01*
X246276666Y-121629961D02*
X246324285Y-121534723D01*
X246324285Y-121534723D02*
X246371904Y-121344247D01*
X246371904Y-121344247D02*
X246371904Y-121201390D01*
X246371904Y-121201390D02*
X246324285Y-121010914D01*
X246324285Y-121010914D02*
X246276666Y-120915676D01*
X246276666Y-120915676D02*
X246181428Y-120820438D01*
X246181428Y-120820438D02*
X246038571Y-120772819D01*
X246038571Y-120772819D02*
X245943333Y-120772819D01*
X245943333Y-120772819D02*
X245800476Y-120820438D01*
X245800476Y-120820438D02*
X245752857Y-120868057D01*
X245371904Y-120868057D02*
X245324285Y-120820438D01*
X245324285Y-120820438D02*
X245229047Y-120772819D01*
X245229047Y-120772819D02*
X244990952Y-120772819D01*
X244990952Y-120772819D02*
X244895714Y-120820438D01*
X244895714Y-120820438D02*
X244848095Y-120868057D01*
X244848095Y-120868057D02*
X244800476Y-120963295D01*
X244800476Y-120963295D02*
X244800476Y-121058533D01*
X244800476Y-121058533D02*
X244848095Y-121201390D01*
X244848095Y-121201390D02*
X245419523Y-121772819D01*
X245419523Y-121772819D02*
X244800476Y-121772819D01*
X243848095Y-121772819D02*
X244419523Y-121772819D01*
X244133809Y-121772819D02*
X244133809Y-120772819D01*
X244133809Y-120772819D02*
X244229047Y-120915676D01*
X244229047Y-120915676D02*
X244324285Y-121010914D01*
X244324285Y-121010914D02*
X244419523Y-121058533D01*
X242450857Y-121677580D02*
X242498476Y-121725200D01*
X242498476Y-121725200D02*
X242641333Y-121772819D01*
X242641333Y-121772819D02*
X242736571Y-121772819D01*
X242736571Y-121772819D02*
X242879428Y-121725200D01*
X242879428Y-121725200D02*
X242974666Y-121629961D01*
X242974666Y-121629961D02*
X243022285Y-121534723D01*
X243022285Y-121534723D02*
X243069904Y-121344247D01*
X243069904Y-121344247D02*
X243069904Y-121201390D01*
X243069904Y-121201390D02*
X243022285Y-121010914D01*
X243022285Y-121010914D02*
X242974666Y-120915676D01*
X242974666Y-120915676D02*
X242879428Y-120820438D01*
X242879428Y-120820438D02*
X242736571Y-120772819D01*
X242736571Y-120772819D02*
X242641333Y-120772819D01*
X242641333Y-120772819D02*
X242498476Y-120820438D01*
X242498476Y-120820438D02*
X242450857Y-120868057D01*
X242069904Y-120868057D02*
X242022285Y-120820438D01*
X242022285Y-120820438D02*
X241927047Y-120772819D01*
X241927047Y-120772819D02*
X241688952Y-120772819D01*
X241688952Y-120772819D02*
X241593714Y-120820438D01*
X241593714Y-120820438D02*
X241546095Y-120868057D01*
X241546095Y-120868057D02*
X241498476Y-120963295D01*
X241498476Y-120963295D02*
X241498476Y-121058533D01*
X241498476Y-121058533D02*
X241546095Y-121201390D01*
X241546095Y-121201390D02*
X242117523Y-121772819D01*
X242117523Y-121772819D02*
X241498476Y-121772819D01*
X240879428Y-120772819D02*
X240784190Y-120772819D01*
X240784190Y-120772819D02*
X240688952Y-120820438D01*
X240688952Y-120820438D02*
X240641333Y-120868057D01*
X240641333Y-120868057D02*
X240593714Y-120963295D01*
X240593714Y-120963295D02*
X240546095Y-121153771D01*
X240546095Y-121153771D02*
X240546095Y-121391866D01*
X240546095Y-121391866D02*
X240593714Y-121582342D01*
X240593714Y-121582342D02*
X240641333Y-121677580D01*
X240641333Y-121677580D02*
X240688952Y-121725200D01*
X240688952Y-121725200D02*
X240784190Y-121772819D01*
X240784190Y-121772819D02*
X240879428Y-121772819D01*
X240879428Y-121772819D02*
X240974666Y-121725200D01*
X240974666Y-121725200D02*
X241022285Y-121677580D01*
X241022285Y-121677580D02*
X241069904Y-121582342D01*
X241069904Y-121582342D02*
X241117523Y-121391866D01*
X241117523Y-121391866D02*
X241117523Y-121153771D01*
X241117523Y-121153771D02*
X241069904Y-120963295D01*
X241069904Y-120963295D02*
X241022285Y-120868057D01*
X241022285Y-120868057D02*
X240974666Y-120820438D01*
X240974666Y-120820438D02*
X240879428Y-120772819D01*
X247341580Y-113911142D02*
X247389200Y-113863523D01*
X247389200Y-113863523D02*
X247436819Y-113720666D01*
X247436819Y-113720666D02*
X247436819Y-113625428D01*
X247436819Y-113625428D02*
X247389200Y-113482571D01*
X247389200Y-113482571D02*
X247293961Y-113387333D01*
X247293961Y-113387333D02*
X247198723Y-113339714D01*
X247198723Y-113339714D02*
X247008247Y-113292095D01*
X247008247Y-113292095D02*
X246865390Y-113292095D01*
X246865390Y-113292095D02*
X246674914Y-113339714D01*
X246674914Y-113339714D02*
X246579676Y-113387333D01*
X246579676Y-113387333D02*
X246484438Y-113482571D01*
X246484438Y-113482571D02*
X246436819Y-113625428D01*
X246436819Y-113625428D02*
X246436819Y-113720666D01*
X246436819Y-113720666D02*
X246484438Y-113863523D01*
X246484438Y-113863523D02*
X246532057Y-113911142D01*
X247436819Y-114863523D02*
X247436819Y-114292095D01*
X247436819Y-114577809D02*
X246436819Y-114577809D01*
X246436819Y-114577809D02*
X246579676Y-114482571D01*
X246579676Y-114482571D02*
X246674914Y-114387333D01*
X246674914Y-114387333D02*
X246722533Y-114292095D01*
X247436819Y-115339714D02*
X247436819Y-115530190D01*
X247436819Y-115530190D02*
X247389200Y-115625428D01*
X247389200Y-115625428D02*
X247341580Y-115673047D01*
X247341580Y-115673047D02*
X247198723Y-115768285D01*
X247198723Y-115768285D02*
X247008247Y-115815904D01*
X247008247Y-115815904D02*
X246627295Y-115815904D01*
X246627295Y-115815904D02*
X246532057Y-115768285D01*
X246532057Y-115768285D02*
X246484438Y-115720666D01*
X246484438Y-115720666D02*
X246436819Y-115625428D01*
X246436819Y-115625428D02*
X246436819Y-115434952D01*
X246436819Y-115434952D02*
X246484438Y-115339714D01*
X246484438Y-115339714D02*
X246532057Y-115292095D01*
X246532057Y-115292095D02*
X246627295Y-115244476D01*
X246627295Y-115244476D02*
X246865390Y-115244476D01*
X246865390Y-115244476D02*
X246960628Y-115292095D01*
X246960628Y-115292095D02*
X247008247Y-115339714D01*
X247008247Y-115339714D02*
X247055866Y-115434952D01*
X247055866Y-115434952D02*
X247055866Y-115625428D01*
X247055866Y-115625428D02*
X247008247Y-115720666D01*
X247008247Y-115720666D02*
X246960628Y-115768285D01*
X246960628Y-115768285D02*
X246865390Y-115815904D01*
X243371666Y-140056580D02*
X243419285Y-140104200D01*
X243419285Y-140104200D02*
X243562142Y-140151819D01*
X243562142Y-140151819D02*
X243657380Y-140151819D01*
X243657380Y-140151819D02*
X243800237Y-140104200D01*
X243800237Y-140104200D02*
X243895475Y-140008961D01*
X243895475Y-140008961D02*
X243943094Y-139913723D01*
X243943094Y-139913723D02*
X243990713Y-139723247D01*
X243990713Y-139723247D02*
X243990713Y-139580390D01*
X243990713Y-139580390D02*
X243943094Y-139389914D01*
X243943094Y-139389914D02*
X243895475Y-139294676D01*
X243895475Y-139294676D02*
X243800237Y-139199438D01*
X243800237Y-139199438D02*
X243657380Y-139151819D01*
X243657380Y-139151819D02*
X243562142Y-139151819D01*
X243562142Y-139151819D02*
X243419285Y-139199438D01*
X243419285Y-139199438D02*
X243371666Y-139247057D01*
X242895475Y-140151819D02*
X242704999Y-140151819D01*
X242704999Y-140151819D02*
X242609761Y-140104200D01*
X242609761Y-140104200D02*
X242562142Y-140056580D01*
X242562142Y-140056580D02*
X242466904Y-139913723D01*
X242466904Y-139913723D02*
X242419285Y-139723247D01*
X242419285Y-139723247D02*
X242419285Y-139342295D01*
X242419285Y-139342295D02*
X242466904Y-139247057D01*
X242466904Y-139247057D02*
X242514523Y-139199438D01*
X242514523Y-139199438D02*
X242609761Y-139151819D01*
X242609761Y-139151819D02*
X242800237Y-139151819D01*
X242800237Y-139151819D02*
X242895475Y-139199438D01*
X242895475Y-139199438D02*
X242943094Y-139247057D01*
X242943094Y-139247057D02*
X242990713Y-139342295D01*
X242990713Y-139342295D02*
X242990713Y-139580390D01*
X242990713Y-139580390D02*
X242943094Y-139675628D01*
X242943094Y-139675628D02*
X242895475Y-139723247D01*
X242895475Y-139723247D02*
X242800237Y-139770866D01*
X242800237Y-139770866D02*
X242609761Y-139770866D01*
X242609761Y-139770866D02*
X242514523Y-139723247D01*
X242514523Y-139723247D02*
X242466904Y-139675628D01*
X242466904Y-139675628D02*
X242419285Y-139580390D01*
X214051907Y-146545775D02*
X214099526Y-146593395D01*
X214099526Y-146593395D02*
X214242383Y-146641014D01*
X214242383Y-146641014D02*
X214337621Y-146641014D01*
X214337621Y-146641014D02*
X214480478Y-146593395D01*
X214480478Y-146593395D02*
X214575716Y-146498156D01*
X214575716Y-146498156D02*
X214623335Y-146402918D01*
X214623335Y-146402918D02*
X214670954Y-146212442D01*
X214670954Y-146212442D02*
X214670954Y-146069585D01*
X214670954Y-146069585D02*
X214623335Y-145879109D01*
X214623335Y-145879109D02*
X214575716Y-145783871D01*
X214575716Y-145783871D02*
X214480478Y-145688633D01*
X214480478Y-145688633D02*
X214337621Y-145641014D01*
X214337621Y-145641014D02*
X214242383Y-145641014D01*
X214242383Y-145641014D02*
X214099526Y-145688633D01*
X214099526Y-145688633D02*
X214051907Y-145736252D01*
X213718573Y-145641014D02*
X213099526Y-145641014D01*
X213099526Y-145641014D02*
X213432859Y-146021966D01*
X213432859Y-146021966D02*
X213290002Y-146021966D01*
X213290002Y-146021966D02*
X213194764Y-146069585D01*
X213194764Y-146069585D02*
X213147145Y-146117204D01*
X213147145Y-146117204D02*
X213099526Y-146212442D01*
X213099526Y-146212442D02*
X213099526Y-146450537D01*
X213099526Y-146450537D02*
X213147145Y-146545775D01*
X213147145Y-146545775D02*
X213194764Y-146593395D01*
X213194764Y-146593395D02*
X213290002Y-146641014D01*
X213290002Y-146641014D02*
X213575716Y-146641014D01*
X213575716Y-146641014D02*
X213670954Y-146593395D01*
X213670954Y-146593395D02*
X213718573Y-146545775D01*
X212766192Y-145641014D02*
X212099526Y-145641014D01*
X212099526Y-145641014D02*
X212528097Y-146641014D01*
X253278819Y-87463333D02*
X252802628Y-87130000D01*
X253278819Y-86891905D02*
X252278819Y-86891905D01*
X252278819Y-86891905D02*
X252278819Y-87272857D01*
X252278819Y-87272857D02*
X252326438Y-87368095D01*
X252326438Y-87368095D02*
X252374057Y-87415714D01*
X252374057Y-87415714D02*
X252469295Y-87463333D01*
X252469295Y-87463333D02*
X252612152Y-87463333D01*
X252612152Y-87463333D02*
X252707390Y-87415714D01*
X252707390Y-87415714D02*
X252755009Y-87368095D01*
X252755009Y-87368095D02*
X252802628Y-87272857D01*
X252802628Y-87272857D02*
X252802628Y-86891905D01*
X252278819Y-87796667D02*
X252278819Y-88463333D01*
X252278819Y-88463333D02*
X253278819Y-88034762D01*
D11*
%TO.C,C6*%
X247450580Y-144965000D02*
X247169420Y-144965000D01*
X247450580Y-145985000D02*
X247169420Y-145985000D01*
%TO.C,C15*%
X240097580Y-140647000D02*
X239816420Y-140647000D01*
X240097580Y-141667000D02*
X239816420Y-141667000D01*
%TO.C,R13*%
X255255500Y-87867258D02*
X255255500Y-87392742D01*
X256300500Y-87867258D02*
X256300500Y-87392742D01*
%TO.C,C26*%
X251233000Y-97289252D02*
X251233000Y-96766748D01*
X252703000Y-97289252D02*
X252703000Y-96766748D01*
%TO.C,C30*%
X213275323Y-155717934D02*
X213556483Y-155717934D01*
X213275323Y-156737934D02*
X213556483Y-156737934D01*
%TO.C,R16*%
X252207500Y-87392742D02*
X252207500Y-87867258D01*
X253252500Y-87392742D02*
X253252500Y-87867258D01*
%TO.C,C35*%
X213549630Y-148630195D02*
X213268470Y-148630195D01*
X213549630Y-149650195D02*
X213268470Y-149650195D01*
%TO.C,C27*%
X251233000Y-92717252D02*
X251233000Y-92194748D01*
X252703000Y-92717252D02*
X252703000Y-92194748D01*
%TO.C,C34*%
X213549630Y-153202195D02*
X213268470Y-153202195D01*
X213549630Y-154222195D02*
X213268470Y-154222195D01*
%TO.C,R8*%
X250683500Y-87867258D02*
X250683500Y-87392742D01*
X251728500Y-87867258D02*
X251728500Y-87392742D01*
%TO.C,C8*%
X240859580Y-144965000D02*
X240578420Y-144965000D01*
X240859580Y-145985000D02*
X240578420Y-145985000D01*
%TO.C,C7*%
X244148580Y-144965000D02*
X243867420Y-144965000D01*
X244148580Y-145985000D02*
X243867420Y-145985000D01*
%TO.C,C13*%
X246701580Y-142425000D02*
X246420420Y-142425000D01*
X246701580Y-143445000D02*
X246420420Y-143445000D01*
%TO.C,C10*%
X243345580Y-142365000D02*
X243064420Y-142365000D01*
X243345580Y-143385000D02*
X243064420Y-143385000D01*
%TO.C,C18*%
X256059000Y-97289252D02*
X256059000Y-96766748D01*
X257529000Y-97289252D02*
X257529000Y-96766748D01*
%TO.C,C11*%
X240110580Y-142425000D02*
X239829420Y-142425000D01*
X240110580Y-143445000D02*
X239829420Y-143445000D01*
%TO.C,C14*%
X242891580Y-138869000D02*
X242610420Y-138869000D01*
X242891580Y-139889000D02*
X242610420Y-139889000D01*
%TO.C,U5*%
X243078000Y-113772000D02*
X241128000Y-113772000D01*
X243078000Y-113772000D02*
X245028000Y-113772000D01*
X243078000Y-118892000D02*
X241128000Y-118892000D01*
X243078000Y-118892000D02*
X245028000Y-118892000D01*
X245778000Y-113867000D02*
X245538000Y-113537000D01*
X246018000Y-113537000D01*
X245778000Y-113867000D01*
G36*
X245778000Y-113867000D02*
G01*
X245538000Y-113537000D01*
X246018000Y-113537000D01*
X245778000Y-113867000D01*
G37*
%TO.C,C17*%
X236638000Y-93929252D02*
X236638000Y-92506748D01*
X239358000Y-93929252D02*
X239358000Y-92506748D01*
%TO.C,C12*%
X246701580Y-140393000D02*
X246420420Y-140393000D01*
X246701580Y-141413000D02*
X246420420Y-141413000D01*
%TO.C,D2*%
X243410500Y-104612000D02*
X242760500Y-104612000D01*
X243410500Y-104612000D02*
X244060500Y-104612000D01*
X243410500Y-107732000D02*
X242760500Y-107732000D01*
X243410500Y-107732000D02*
X244060500Y-107732000D01*
X242488000Y-108012000D02*
X242008000Y-108012000D01*
X242248000Y-107682000D01*
X242488000Y-108012000D01*
G36*
X242488000Y-108012000D02*
G01*
X242008000Y-108012000D01*
X242248000Y-107682000D01*
X242488000Y-108012000D01*
G37*
%TO.C,C21*%
X244969420Y-119378000D02*
X245250580Y-119378000D01*
X244969420Y-120398000D02*
X245250580Y-120398000D01*
%TO.C,C20*%
X241667420Y-119378000D02*
X241948580Y-119378000D01*
X241667420Y-120398000D02*
X241948580Y-120398000D01*
%TO.C,C19*%
X247902000Y-114413420D02*
X247902000Y-114694580D01*
X248922000Y-114413420D02*
X248922000Y-114694580D01*
%TO.C,C9*%
X243345580Y-140617000D02*
X243064420Y-140617000D01*
X243345580Y-141637000D02*
X243064420Y-141637000D01*
%TO.C,C37*%
X213549630Y-147106195D02*
X213268470Y-147106195D01*
X213549630Y-148126195D02*
X213268470Y-148126195D01*
%TO.C,R7*%
X253731500Y-87392742D02*
X253731500Y-87867258D01*
X254776500Y-87392742D02*
X254776500Y-87867258D01*
%TD*%
M02*
