M48
; DRILL file {KiCad 9.0.1-9.0.1-0~ubuntu24.04.1} date 2025-04-27T20:23:54-0700
; FORMAT={-:-/ absolute / metric / decimal}
; #@! TF.CreationDate,2025-04-27T20:23:54-07:00
; #@! TF.GenerationSoftware,Kicad,Pcbnew,9.0.1-9.0.1-0~ubuntu24.04.1
; #@! TF.FileFunction,MixedPlating,1,2
FMAT,2
METRIC
; #@! TA.AperFunction,Plated,PTH,ComponentDrill
T1C0.250
; #@! TA.AperFunction,Plated,PTH,ComponentDrill
T2C0.500
; #@! TA.AperFunction,Plated,PTH,ComponentDrill
T3C0.650
; #@! TA.AperFunction,Plated,PTH,ComponentDrill
T4C1.000
; #@! TA.AperFunction,Plated,PTH,ComponentDrill
T5C1.067
; #@! TA.AperFunction,Plated,PTH,ComponentDrill
T6C1.300
; #@! TA.AperFunction,NonPlated,NPTH,ComponentDrill
T7C3.400
%
G90
G05
T1
X-31.296Y-125.291
X-31.296Y-126.666
X-31.296Y-128.041
X-29.921Y-125.291
X-29.921Y-126.666
X-29.921Y-128.041
X-28.546Y-125.291
X-28.546Y-126.666
X-28.546Y-128.041
T2
X-15.792Y-95.947
T3
X174.625Y-134.645
X174.625Y-135.915
X174.625Y-137.185
X174.625Y-138.455
X174.625Y-139.725
X175.895Y-134.645
X175.895Y-135.915
X175.895Y-137.185
X175.895Y-138.455
X175.895Y-139.725
T4
X-69.467Y-152.977
X-64.467Y-152.977
T5
X180.848Y-104.343
X180.848Y-106.883
X180.848Y-114.463
X180.848Y-117.003
X230.886Y-122.479
X230.886Y-125.019
X230.886Y-127.559
X230.886Y-130.099
X230.886Y-132.639
X230.886Y-135.179
X230.886Y-142.088
X230.886Y-144.628
X230.886Y-147.168
X230.933Y-91.157
X230.933Y-93.697
X230.933Y-96.237
X230.933Y-98.777
X230.933Y-101.317
X230.933Y-103.857
X230.962Y-110.515
X230.962Y-113.055
X230.962Y-115.595
T6
X172.949Y-91.592
X172.949Y-96.592
X181.149Y-91.592
X181.149Y-96.592
T7
X172.208Y-102.943
X172.208Y-108.283
X172.208Y-113.063
X172.208Y-118.403
X239.526Y-121.079
X239.526Y-136.579
X239.526Y-140.688
X239.526Y-148.568
X239.573Y-89.757
X239.573Y-105.257
X239.602Y-109.115
X239.602Y-116.995
M30
