%TF.GenerationSoftware,KiCad,Pcbnew,9.0.1-9.0.1-0~ubuntu24.04.1*%
%TF.CreationDate,2025-04-27T22:25:51-07:00*%
%TF.ProjectId,CAN-IO-expander,43414e2d-494f-42d6-9578-70616e646572,1*%
%TF.SameCoordinates,Original*%
%TF.FileFunction,Copper,L2,Bot*%
%TF.FilePolarity,Positive*%
%FSLAX46Y46*%
G04 Gerber Fmt 4.6, Leading zero omitted, Abs format (unit mm)*
G04 Created by KiCad (PCBNEW 9.0.1-9.0.1-0~ubuntu24.04.1) date 2025-04-27 22:25:51*
%MOMM*%
%LPD*%
G01*
G04 APERTURE LIST*
G04 Aperture macros list*
%AMRoundRect*
0 Rectangle with rounded corners*
0 $1 Rounding radius*
0 $2 $3 $4 $5 $6 $7 $8 $9 X,Y pos of 4 corners*
0 Add a 4 corners polygon primitive as box body*
4,1,4,$2,$3,$4,$5,$6,$7,$8,$9,$2,$3,0*
0 Add four circle primitives for the rounded corners*
1,1,$1+$1,$2,$3*
1,1,$1+$1,$4,$5*
1,1,$1+$1,$6,$7*
1,1,$1+$1,$8,$9*
0 Add four rect primitives between the rounded corners*
20,1,$1+$1,$2,$3,$4,$5,0*
20,1,$1+$1,$4,$5,$6,$7,0*
20,1,$1+$1,$6,$7,$8,$9,0*
20,1,$1+$1,$8,$9,$2,$3,0*%
G04 Aperture macros list end*
%TA.AperFunction,ComponentPad*%
%ADD10C,1.000000*%
%TD*%
%TA.AperFunction,ComponentPad*%
%ADD11C,0.600000*%
%TD*%
%TA.AperFunction,ComponentPad*%
%ADD12R,1.000000X1.000000*%
%TD*%
%TA.AperFunction,SMDPad,CuDef*%
%ADD13RoundRect,0.225000X0.225000X0.250000X-0.225000X0.250000X-0.225000X-0.250000X0.225000X-0.250000X0*%
%TD*%
%TA.AperFunction,SMDPad,CuDef*%
%ADD14RoundRect,0.200000X0.275000X-0.200000X0.275000X0.200000X-0.275000X0.200000X-0.275000X-0.200000X0*%
%TD*%
%TA.AperFunction,SMDPad,CuDef*%
%ADD15RoundRect,0.250000X0.475000X-0.250000X0.475000X0.250000X-0.475000X0.250000X-0.475000X-0.250000X0*%
%TD*%
%TA.AperFunction,SMDPad,CuDef*%
%ADD16RoundRect,0.225000X-0.225000X-0.250000X0.225000X-0.250000X0.225000X0.250000X-0.225000X0.250000X0*%
%TD*%
%TA.AperFunction,SMDPad,CuDef*%
%ADD17RoundRect,0.200000X-0.275000X0.200000X-0.275000X-0.200000X0.275000X-0.200000X0.275000X0.200000X0*%
%TD*%
%TA.AperFunction,SMDPad,CuDef*%
%ADD18RoundRect,0.150000X0.725000X0.150000X-0.725000X0.150000X-0.725000X-0.150000X0.725000X-0.150000X0*%
%TD*%
%TA.AperFunction,SMDPad,CuDef*%
%ADD19RoundRect,0.250000X1.100000X-0.325000X1.100000X0.325000X-1.100000X0.325000X-1.100000X-0.325000X0*%
%TD*%
%TA.AperFunction,SMDPad,CuDef*%
%ADD20RoundRect,0.150000X-0.587500X-0.150000X0.587500X-0.150000X0.587500X0.150000X-0.587500X0.150000X0*%
%TD*%
%TA.AperFunction,SMDPad,CuDef*%
%ADD21RoundRect,0.225000X-0.250000X0.225000X-0.250000X-0.225000X0.250000X-0.225000X0.250000X0.225000X0*%
%TD*%
G04 APERTURE END LIST*
D10*
%TO.P,TP1,1,1*%
%TO.N,Net-(U4-CLKO{slash}SOF)*%
X266217000Y-160961000D03*
%TD*%
D11*
%TO.P,U1,61,GND*%
%TO.N,GND*%
X242162000Y-141056000D03*
X242162000Y-142431000D03*
X242162000Y-143806000D03*
X243537000Y-141056000D03*
X243537000Y-142431000D03*
X243537000Y-143806000D03*
X244912000Y-141056000D03*
X244912000Y-142431000D03*
X244912000Y-143806000D03*
%TD*%
D12*
%TO.P,J1,1,Pin_1*%
%TO.N,/USB_D-*%
X267716000Y-120650000D03*
D10*
%TO.P,J1,2,Pin_2*%
%TO.N,/USB_D+*%
X267716000Y-119380000D03*
%TO.P,J1,3,Pin_3*%
%TO.N,/USB_5V*%
X268986000Y-120650000D03*
%TO.P,J1,4,Pin_4*%
%TO.N,/SWCLK*%
X268986000Y-119380000D03*
%TO.P,J1,5,Pin_5*%
%TO.N,GND*%
X270256000Y-120650000D03*
%TO.P,J1,6,Pin_6*%
%TO.N,/SWD*%
X270256000Y-119380000D03*
%TO.P,J1,7,Pin_7*%
%TO.N,GND*%
X271526000Y-120650000D03*
%TO.P,J1,8,Pin_8*%
%TO.N,/~{USB_BOOT}*%
X271526000Y-119380000D03*
%TO.P,J1,9,Pin_9*%
%TO.N,GND*%
X272796000Y-120650000D03*
%TO.P,J1,10,Pin_10*%
%TO.N,/~{RESET}*%
X272796000Y-119380000D03*
%TD*%
D13*
%TO.P,C6,1*%
%TO.N,+1V1*%
X248085000Y-145475000D03*
%TO.P,C6,2*%
%TO.N,GND*%
X246535000Y-145475000D03*
%TD*%
%TO.P,C15,1*%
%TO.N,Net-(U1-ADC_AVDD)*%
X240732000Y-141157000D03*
%TO.P,C15,2*%
%TO.N,GND*%
X239182000Y-141157000D03*
%TD*%
D14*
%TO.P,R13,1*%
%TO.N,GND*%
X255778000Y-88455000D03*
%TO.P,R13,2*%
%TO.N,Net-(U9-FB)*%
X255778000Y-86805000D03*
%TD*%
D15*
%TO.P,C26,1*%
%TO.N,+3V3*%
X251968000Y-97978000D03*
%TO.P,C26,2*%
%TO.N,GND*%
X251968000Y-96078000D03*
%TD*%
D16*
%TO.P,C30,1*%
%TO.N,+5V*%
X212640903Y-156227934D03*
%TO.P,C30,2*%
%TO.N,GND*%
X214190903Y-156227934D03*
%TD*%
D17*
%TO.P,R16,1*%
%TO.N,GND*%
X252730000Y-86805000D03*
%TO.P,R16,2*%
%TO.N,Net-(U9-EN)*%
X252730000Y-88455000D03*
%TD*%
D13*
%TO.P,C35,1*%
%TO.N,/5V_ADC*%
X214184050Y-149140195D03*
%TO.P,C35,2*%
%TO.N,GND*%
X212634050Y-149140195D03*
%TD*%
D15*
%TO.P,C27,1*%
%TO.N,+3V3*%
X251968000Y-93406000D03*
%TO.P,C27,2*%
%TO.N,GND*%
X251968000Y-91506000D03*
%TD*%
D13*
%TO.P,C34,1*%
%TO.N,/AIN0_ADC*%
X214184050Y-153712195D03*
%TO.P,C34,2*%
%TO.N,GND*%
X212634050Y-153712195D03*
%TD*%
D14*
%TO.P,R8,1*%
%TO.N,Net-(U9-EN)*%
X251206000Y-88455000D03*
%TO.P,R8,2*%
%TO.N,Net-(D3-K)*%
X251206000Y-86805000D03*
%TD*%
D13*
%TO.P,C8,1*%
%TO.N,+1V1*%
X241494000Y-145475000D03*
%TO.P,C8,2*%
%TO.N,GND*%
X239944000Y-145475000D03*
%TD*%
%TO.P,C7,1*%
%TO.N,+1V1*%
X244783000Y-145475000D03*
%TO.P,C7,2*%
%TO.N,GND*%
X243233000Y-145475000D03*
%TD*%
%TO.P,C13,1*%
%TO.N,Net-(U1-ADC_AVDD)*%
X247336000Y-142935000D03*
%TO.P,C13,2*%
%TO.N,GND*%
X245786000Y-142935000D03*
%TD*%
%TO.P,C10,1*%
%TO.N,Net-(U1-ADC_AVDD)*%
X243980000Y-142875000D03*
%TO.P,C10,2*%
%TO.N,GND*%
X242430000Y-142875000D03*
%TD*%
D15*
%TO.P,C18,1*%
%TO.N,+3V3*%
X256794000Y-97978000D03*
%TO.P,C18,2*%
%TO.N,GND*%
X256794000Y-96078000D03*
%TD*%
D13*
%TO.P,C11,1*%
%TO.N,Net-(U1-ADC_AVDD)*%
X240745000Y-142935000D03*
%TO.P,C11,2*%
%TO.N,GND*%
X239195000Y-142935000D03*
%TD*%
%TO.P,C14,1*%
%TO.N,Net-(U1-ADC_AVDD)*%
X243526000Y-139379000D03*
%TO.P,C14,2*%
%TO.N,GND*%
X241976000Y-139379000D03*
%TD*%
D18*
%TO.P,U5,1,TXD*%
%TO.N,/CAN-FD/CANTX*%
X245653000Y-114427000D03*
%TO.P,U5,2,V_{SS}*%
%TO.N,GND*%
X245653000Y-115697000D03*
%TO.P,U5,3,V_{DD}*%
%TO.N,+5V*%
X245653000Y-116967000D03*
%TO.P,U5,4,RXD*%
%TO.N,/CAN-FD/CANRX*%
X245653000Y-118237000D03*
%TO.P,U5,5,V_{IO}*%
%TO.N,+3V3*%
X240503000Y-118237000D03*
%TO.P,U5,6,CANL*%
%TO.N,/CAN1_L*%
X240503000Y-116967000D03*
%TO.P,U5,7,CANH*%
%TO.N,/CAN1_H*%
X240503000Y-115697000D03*
%TO.P,U5,8,S*%
%TO.N,/SILENT*%
X240503000Y-114427000D03*
%TD*%
D19*
%TO.P,C17,1*%
%TO.N,GND*%
X237998000Y-94693000D03*
%TO.P,C17,2*%
%TO.N,/V_{BAT}*%
X237998000Y-91743000D03*
%TD*%
D13*
%TO.P,C12,1*%
%TO.N,Net-(U1-ADC_AVDD)*%
X247336000Y-140903000D03*
%TO.P,C12,2*%
%TO.N,GND*%
X245786000Y-140903000D03*
%TD*%
D20*
%TO.P,D2,1,K1*%
%TO.N,/CAN1_L*%
X242473000Y-107122000D03*
%TO.P,D2,2,K1*%
%TO.N,/CAN1_H*%
X242473000Y-105222000D03*
%TO.P,D2,3,KK*%
%TO.N,GND*%
X244348000Y-106172000D03*
%TD*%
D16*
%TO.P,C21,1*%
%TO.N,+5V*%
X244335000Y-119888000D03*
%TO.P,C21,2*%
%TO.N,GND*%
X245885000Y-119888000D03*
%TD*%
%TO.P,C20,1*%
%TO.N,+3V3*%
X241033000Y-119888000D03*
%TO.P,C20,2*%
%TO.N,GND*%
X242583000Y-119888000D03*
%TD*%
D21*
%TO.P,C19,1*%
%TO.N,+3V3*%
X248412000Y-113779000D03*
%TO.P,C19,2*%
%TO.N,GND*%
X248412000Y-115329000D03*
%TD*%
D13*
%TO.P,C9,1*%
%TO.N,Net-(U1-ADC_AVDD)*%
X243980000Y-141127000D03*
%TO.P,C9,2*%
%TO.N,GND*%
X242430000Y-141127000D03*
%TD*%
%TO.P,C37,1*%
%TO.N,/VBAT_ADC*%
X214184050Y-147616195D03*
%TO.P,C37,2*%
%TO.N,GND*%
X212634050Y-147616195D03*
%TD*%
D17*
%TO.P,R7,1*%
%TO.N,Net-(U9-FB)*%
X254254000Y-86805000D03*
%TO.P,R7,2*%
%TO.N,+3V3*%
X254254000Y-88455000D03*
%TD*%
M02*
