%TF.GenerationSoftware,KiCad,Pcbnew,9.0.6-9.0.6~ubuntu24.04.1*%
%TF.CreationDate,2025-12-27T11:39:35-08:00*%
%TF.ProjectId,Pico-ButtonBoard-v1,5069636f-2d42-4757-9474-6f6e426f6172,1*%
%TF.SameCoordinates,Original*%
%TF.FileFunction,Soldermask,Top*%
%TF.FilePolarity,Negative*%
%FSLAX46Y46*%
G04 Gerber Fmt 4.6, Leading zero omitted, Abs format (unit mm)*
G04 Created by KiCad (PCBNEW 9.0.6-9.0.6~ubuntu24.04.1) date 2025-12-27 11:39:35*
%MOMM*%
%LPD*%
G01*
G04 APERTURE LIST*
G04 Aperture macros list*
%AMRoundRect*
0 Rectangle with rounded corners*
0 $1 Rounding radius*
0 $2 $3 $4 $5 $6 $7 $8 $9 X,Y pos of 4 corners*
0 Add a 4 corners polygon primitive as box body*
4,1,4,$2,$3,$4,$5,$6,$7,$8,$9,$2,$3,0*
0 Add four circle primitives for the rounded corners*
1,1,$1+$1,$2,$3*
1,1,$1+$1,$4,$5*
1,1,$1+$1,$6,$7*
1,1,$1+$1,$8,$9*
0 Add four rect primitives between the rounded corners*
20,1,$1+$1,$2,$3,$4,$5,0*
20,1,$1+$1,$4,$5,$6,$7,0*
20,1,$1+$1,$6,$7,$8,$9,0*
20,1,$1+$1,$8,$9,$2,$3,0*%
%AMFreePoly0*
4,1,37,0.800000,0.796148,0.878414,0.796148,1.032228,0.765552,1.177117,0.705537,1.307515,0.618408,1.418408,0.507515,1.505537,0.377117,1.565552,0.232228,1.596148,0.078414,1.596148,-0.078414,1.565552,-0.232228,1.505537,-0.377117,1.418408,-0.507515,1.307515,-0.618408,1.177117,-0.705537,1.032228,-0.765552,0.878414,-0.796148,0.800000,-0.796148,0.800000,-0.800000,-1.400000,-0.800000,
-1.403843,-0.796157,-1.439018,-0.796157,-1.511114,-0.766294,-1.566294,-0.711114,-1.596157,-0.639018,-1.596157,-0.603843,-1.600000,-0.600000,-1.600000,0.600000,-1.596157,0.603843,-1.596157,0.639018,-1.566294,0.711114,-1.511114,0.766294,-1.439018,0.796157,-1.403843,0.796157,-1.400000,0.800000,0.800000,0.800000,0.800000,0.796148,0.800000,0.796148,$1*%
%AMFreePoly1*
4,1,37,1.403843,0.796157,1.439018,0.796157,1.511114,0.766294,1.566294,0.711114,1.596157,0.639018,1.596157,0.603843,1.600000,0.600000,1.600000,-0.600000,1.596157,-0.603843,1.596157,-0.639018,1.566294,-0.711114,1.511114,-0.766294,1.439018,-0.796157,1.403843,-0.796157,1.400000,-0.800000,-0.800000,-0.800000,-0.800000,-0.796148,-0.878414,-0.796148,-1.032228,-0.765552,-1.177117,-0.705537,
-1.307515,-0.618408,-1.418408,-0.507515,-1.505537,-0.377117,-1.565552,-0.232228,-1.596148,-0.078414,-1.596148,0.078414,-1.565552,0.232228,-1.505537,0.377117,-1.418408,0.507515,-1.307515,0.618408,-1.177117,0.705537,-1.032228,0.765552,-0.878414,0.796148,-0.800000,0.796148,-0.800000,0.800000,1.400000,0.800000,1.403843,0.796157,1.403843,0.796157,$1*%
%AMFreePoly2*
4,1,37,0.603843,0.796157,0.639018,0.796157,0.711114,0.766294,0.766294,0.711114,0.796157,0.639018,0.796157,0.603843,0.800000,0.600000,0.800000,-0.600000,0.796157,-0.603843,0.796157,-0.639018,0.766294,-0.711114,0.711114,-0.766294,0.639018,-0.796157,0.603843,-0.796157,0.600000,-0.800000,0.000000,-0.800000,0.000000,-0.796148,-0.078414,-0.796148,-0.232228,-0.765552,-0.377117,-0.705537,
-0.507515,-0.618408,-0.618408,-0.507515,-0.705537,-0.377117,-0.765552,-0.232228,-0.796148,-0.078414,-0.796148,0.078414,-0.765552,0.232228,-0.705537,0.377117,-0.618408,0.507515,-0.507515,0.618408,-0.377117,0.705537,-0.232228,0.765552,-0.078414,0.796148,0.000000,0.796148,0.000000,0.800000,0.600000,0.800000,0.603843,0.796157,0.603843,0.796157,$1*%
%AMFreePoly3*
4,1,37,0.000000,0.796148,0.078414,0.796148,0.232228,0.765552,0.377117,0.705537,0.507515,0.618408,0.618408,0.507515,0.705537,0.377117,0.765552,0.232228,0.796148,0.078414,0.796148,-0.078414,0.765552,-0.232228,0.705537,-0.377117,0.618408,-0.507515,0.507515,-0.618408,0.377117,-0.705537,0.232228,-0.765552,0.078414,-0.796148,0.000000,-0.796148,0.000000,-0.800000,-0.600000,-0.800000,
-0.603843,-0.796157,-0.639018,-0.796157,-0.711114,-0.766294,-0.766294,-0.711114,-0.796157,-0.639018,-0.796157,-0.603843,-0.800000,-0.600000,-0.800000,0.600000,-0.796157,0.603843,-0.796157,0.639018,-0.766294,0.711114,-0.711114,0.766294,-0.639018,0.796157,-0.603843,0.796157,-0.600000,0.800000,0.000000,0.800000,0.000000,0.796148,0.000000,0.796148,$1*%
%AMFreePoly4*
4,1,13,0.125000,0.125000,0.750000,0.125000,0.750000,-0.125000,0.125000,-0.125000,0.125000,-0.750000,-0.125000,-0.750000,-0.125000,-0.125000,-0.750000,-0.125000,-0.750000,0.125000,-0.125000,0.125000,-0.125000,0.750000,0.125000,0.750000,0.125000,0.125000,0.125000,0.125000,$1*%
G04 Aperture macros list end*
%ADD10R,1.600200X1.905000*%
%ADD11O,1.600200X1.905000*%
%ADD12RoundRect,0.250000X-0.350000X-0.450000X0.350000X-0.450000X0.350000X0.450000X-0.350000X0.450000X0*%
%ADD13RoundRect,0.250000X-0.337500X-0.475000X0.337500X-0.475000X0.337500X0.475000X-0.337500X0.475000X0*%
%ADD14RoundRect,0.150000X-0.587500X-0.150000X0.587500X-0.150000X0.587500X0.150000X-0.587500X0.150000X0*%
%ADD15RoundRect,0.250000X-0.375000X-0.625000X0.375000X-0.625000X0.375000X0.625000X-0.375000X0.625000X0*%
%ADD16RoundRect,0.150000X-0.825000X-0.150000X0.825000X-0.150000X0.825000X0.150000X-0.825000X0.150000X0*%
%ADD17RoundRect,0.250000X-1.000000X-0.650000X1.000000X-0.650000X1.000000X0.650000X-1.000000X0.650000X0*%
%ADD18R,1.905000X1.600200*%
%ADD19O,1.905000X1.600200*%
%ADD20RoundRect,0.150000X-0.512500X-0.150000X0.512500X-0.150000X0.512500X0.150000X-0.512500X0.150000X0*%
%ADD21C,2.000000*%
%ADD22RoundRect,0.250000X-0.275000X-0.350000X0.275000X-0.350000X0.275000X0.350000X-0.275000X0.350000X0*%
%ADD23C,2.200000*%
%ADD24C,1.850000*%
%ADD25FreePoly0,0.000000*%
%ADD26RoundRect,0.200000X-0.600000X-0.600000X0.600000X-0.600000X0.600000X0.600000X-0.600000X0.600000X0*%
%ADD27RoundRect,0.800000X-0.800000X-0.000010X0.800000X-0.000010X0.800000X0.000010X-0.800000X0.000010X0*%
%ADD28C,1.600000*%
%ADD29FreePoly1,0.000000*%
%ADD30FreePoly2,0.000000*%
%ADD31FreePoly3,0.000000*%
%ADD32R,1.700000X1.700000*%
%ADD33C,1.700000*%
%ADD34C,3.200000*%
%ADD35FreePoly4,0.000000*%
%ADD36RoundRect,0.200000X0.450000X-0.200000X0.450000X0.200000X-0.450000X0.200000X-0.450000X-0.200000X0*%
%ADD37O,1.300000X0.800000*%
%ADD38RoundRect,0.162500X-0.617500X-0.162500X0.617500X-0.162500X0.617500X0.162500X-0.617500X0.162500X0*%
%ADD39RoundRect,0.240000X-0.660000X-0.560000X0.660000X-0.560000X0.660000X0.560000X-0.660000X0.560000X0*%
%ADD40RoundRect,0.150000X-0.725000X-0.150000X0.725000X-0.150000X0.725000X0.150000X-0.725000X0.150000X0*%
%ADD41RoundRect,0.250000X-0.412500X-0.650000X0.412500X-0.650000X0.412500X0.650000X-0.412500X0.650000X0*%
%ADD42RoundRect,0.250000X-0.412500X-1.100000X0.412500X-1.100000X0.412500X1.100000X-0.412500X1.100000X0*%
%ADD43RoundRect,0.276000X-0.644000X-1.474000X0.644000X-1.474000X0.644000X1.474000X-0.644000X1.474000X0*%
%ADD44RoundRect,0.375000X-0.625000X-0.375000X0.625000X-0.375000X0.625000X0.375000X-0.625000X0.375000X0*%
%ADD45RoundRect,0.500000X-0.500000X-1.400000X0.500000X-1.400000X0.500000X1.400000X-0.500000X1.400000X0*%
G04 APERTURE END LIST*
D10*
%TO.C,J212*%
X210185000Y-176530000D03*
D11*
X212725000Y-176530000D03*
%TD*%
D12*
%TO.C,R303*%
X246987500Y-79225000D03*
X248987500Y-79225000D03*
%TD*%
%TO.C,R605*%
X63653000Y-93614000D03*
X65653000Y-93614000D03*
%TD*%
%TO.C,R101*%
X233585000Y-100965000D03*
X235585000Y-100965000D03*
%TD*%
%TO.C,R234*%
X89480000Y-207294000D03*
X91480000Y-207294000D03*
%TD*%
D13*
%TO.C,C203*%
X105432500Y-178484000D03*
X107507500Y-178484000D03*
%TD*%
%TO.C,C210*%
X110242500Y-178484000D03*
X112317500Y-178484000D03*
%TD*%
D14*
%TO.C,Q402*%
X225857500Y65975000D03*
X225857500Y64075000D03*
X227732500Y65025000D03*
%TD*%
D15*
%TO.C,D203*%
X105510000Y-200504000D03*
X108310000Y-200504000D03*
%TD*%
D12*
%TO.C,R201*%
X70480000Y-204344000D03*
X72480000Y-204344000D03*
%TD*%
%TO.C,R608*%
X68403000Y-81814000D03*
X70403000Y-81814000D03*
%TD*%
%TO.C,R607*%
X63653000Y-99514000D03*
X65653000Y-99514000D03*
%TD*%
D13*
%TO.C,C305*%
X251730000Y-85395000D03*
X253805000Y-85395000D03*
%TD*%
%TO.C,C216*%
X115052500Y-175474000D03*
X117127500Y-175474000D03*
%TD*%
D12*
%TO.C,R238*%
X89480000Y-219094000D03*
X91480000Y-219094000D03*
%TD*%
D13*
%TO.C,C308*%
X256540000Y-76365000D03*
X258615000Y-76365000D03*
%TD*%
%TO.C,C206*%
X105432500Y-187514000D03*
X107507500Y-187514000D03*
%TD*%
D16*
%TO.C,U102*%
X299075000Y-105835200D03*
X299075000Y-107105200D03*
X299075000Y-108375200D03*
X299075000Y-109645200D03*
X299075000Y-110915200D03*
X299075000Y-112185200D03*
X299075000Y-113455200D03*
X304025000Y-113455200D03*
X304025000Y-112185200D03*
X304025000Y-110915200D03*
X304025000Y-109645200D03*
X304025000Y-108375200D03*
X304025000Y-107105200D03*
X304025000Y-105835200D03*
%TD*%
D17*
%TO.C,D402*%
X208820000Y64875000D03*
X212820000Y64875000D03*
%TD*%
D15*
%TO.C,D212*%
X111160000Y-210674000D03*
X113960000Y-210674000D03*
%TD*%
D13*
%TO.C,C310*%
X256540000Y-82385000D03*
X258615000Y-82385000D03*
%TD*%
D15*
%TO.C,D206*%
X105510000Y-210674000D03*
X108310000Y-210674000D03*
%TD*%
D12*
%TO.C,R615*%
X73153000Y-81814000D03*
X75153000Y-81814000D03*
%TD*%
%TO.C,R206*%
X70480000Y-219094000D03*
X72480000Y-219094000D03*
%TD*%
D18*
%TO.C,J102*%
X227330000Y-138667820D03*
D19*
X227330000Y-136127820D03*
%TD*%
D12*
%TO.C,R616*%
X73153000Y-84764000D03*
X75153000Y-84764000D03*
%TD*%
%TO.C,R404*%
X203375000Y61375000D03*
X205375000Y61375000D03*
%TD*%
D20*
%TO.C,D404*%
X216277500Y70425000D03*
X216277500Y68525000D03*
X218552500Y69475000D03*
%TD*%
D21*
%TO.C,TP401*%
X222165000Y69525000D03*
%TD*%
%TO.C,TP101*%
X304310000Y-123780200D03*
%TD*%
D13*
%TO.C,C304*%
X251730000Y-82385000D03*
X253805000Y-82385000D03*
%TD*%
D18*
%TO.C,J204*%
X180411590Y-136138311D03*
D19*
X180411590Y-138678311D03*
%TD*%
D20*
%TO.C,D406*%
X216277500Y61525000D03*
X216277500Y59625000D03*
X218552500Y60575000D03*
%TD*%
D22*
%TO.C,L301*%
X261287500Y-92445000D03*
X263587500Y-92445000D03*
%TD*%
D17*
%TO.C,D401*%
X208820000Y69425000D03*
X212820000Y69425000D03*
%TD*%
D12*
%TO.C,R232*%
X84730000Y-224994000D03*
X86730000Y-224994000D03*
%TD*%
D13*
%TO.C,C403*%
X226057500Y56845000D03*
X228132500Y56845000D03*
%TD*%
%TO.C,C404*%
X226057500Y53835000D03*
X228132500Y53835000D03*
%TD*%
D12*
%TO.C,R221*%
X79980000Y-216144000D03*
X81980000Y-216144000D03*
%TD*%
%TO.C,R212*%
X75230000Y-213194000D03*
X77230000Y-213194000D03*
%TD*%
D17*
%TO.C,D407*%
X208820000Y55775000D03*
X212820000Y55775000D03*
%TD*%
D20*
%TO.C,U301*%
X266330000Y-92520000D03*
X266330000Y-93470000D03*
X266330000Y-94420000D03*
X268605000Y-94420000D03*
X268605000Y-92520000D03*
%TD*%
D13*
%TO.C,C309*%
X256540000Y-79375000D03*
X258615000Y-79375000D03*
%TD*%
D12*
%TO.C,R408*%
X203375000Y49575000D03*
X205375000Y49575000D03*
%TD*%
D13*
%TO.C,C103*%
X298692500Y-129130200D03*
X300767500Y-129130200D03*
%TD*%
D12*
%TO.C,R207*%
X70480000Y-222044000D03*
X72480000Y-222044000D03*
%TD*%
%TO.C,R233*%
X89480000Y-204344000D03*
X91480000Y-204344000D03*
%TD*%
D23*
%TO.C,A101*%
X201110000Y-71885000D03*
D24*
X201410000Y-74915000D03*
X206260000Y-74915000D03*
D23*
X206560000Y-71885000D03*
D25*
X194145000Y-71755000D03*
D26*
X194945000Y-71755000D03*
D27*
X194145000Y-74295000D03*
D28*
X194945000Y-74295000D03*
D29*
X194145000Y-76835000D03*
D30*
X194945000Y-76835000D03*
D27*
X194145000Y-79375000D03*
D28*
X194945000Y-79375000D03*
D27*
X194145000Y-81915000D03*
D28*
X194945000Y-81915000D03*
D27*
X194145000Y-84455000D03*
D28*
X194945000Y-84455000D03*
D27*
X194145000Y-86995000D03*
D28*
X194945000Y-86995000D03*
D29*
X194145000Y-89535000D03*
D30*
X194945000Y-89535000D03*
D27*
X194145000Y-92075000D03*
D28*
X194945000Y-92075000D03*
D27*
X194145000Y-94615000D03*
D28*
X194945000Y-94615000D03*
D27*
X194145000Y-97155000D03*
D28*
X194945000Y-97155000D03*
D27*
X194145000Y-99695000D03*
D28*
X194945000Y-99695000D03*
D29*
X194145000Y-102235000D03*
D30*
X194945000Y-102235000D03*
D27*
X194145000Y-104775000D03*
D28*
X194945000Y-104775000D03*
D27*
X194145000Y-107315000D03*
D28*
X194945000Y-107315000D03*
D27*
X194145000Y-109855000D03*
D28*
X194945000Y-109855000D03*
D27*
X194145000Y-112395000D03*
D28*
X194945000Y-112395000D03*
D29*
X194145000Y-114935000D03*
D30*
X194945000Y-114935000D03*
D27*
X194145000Y-117475000D03*
D28*
X194945000Y-117475000D03*
D27*
X194145000Y-120015000D03*
D28*
X194945000Y-120015000D03*
X212725000Y-120015000D03*
D27*
X213525000Y-120015000D03*
D28*
X212725000Y-117475000D03*
D27*
X213525000Y-117475000D03*
D31*
X212725000Y-114935000D03*
D25*
X213525000Y-114935000D03*
D28*
X212725000Y-112395000D03*
D27*
X213525000Y-112395000D03*
D28*
X212725000Y-109855000D03*
D27*
X213525000Y-109855000D03*
D28*
X212725000Y-107315000D03*
D27*
X213525000Y-107315000D03*
D28*
X212725000Y-104775000D03*
D27*
X213525000Y-104775000D03*
D31*
X212725000Y-102235000D03*
D25*
X213525000Y-102235000D03*
D28*
X212725000Y-99695000D03*
D27*
X213525000Y-99695000D03*
D28*
X212725000Y-97155000D03*
D27*
X213525000Y-97155000D03*
D28*
X212725000Y-94615000D03*
D27*
X213525000Y-94615000D03*
D28*
X212725000Y-92075000D03*
D27*
X213525000Y-92075000D03*
D31*
X212725000Y-89535000D03*
D25*
X213525000Y-89535000D03*
D28*
X212725000Y-86995000D03*
D27*
X213525000Y-86995000D03*
D28*
X212725000Y-84455000D03*
D27*
X213525000Y-84455000D03*
D28*
X212725000Y-81915000D03*
D27*
X213525000Y-81915000D03*
D28*
X212725000Y-79375000D03*
D27*
X213525000Y-79375000D03*
D31*
X212725000Y-76835000D03*
D25*
X213525000Y-76835000D03*
D28*
X212725000Y-74295000D03*
D27*
X213525000Y-74295000D03*
D28*
X212725000Y-71755000D03*
D27*
X213525000Y-71755000D03*
%TD*%
D12*
%TO.C,R407*%
X203375000Y52525000D03*
X205375000Y52525000D03*
%TD*%
D13*
%TO.C,C218*%
X115052500Y-181494000D03*
X117127500Y-181494000D03*
%TD*%
D21*
%TO.C,TP301*%
X262157500Y-84545000D03*
%TD*%
D18*
%TO.C,J206*%
X180411590Y-151378311D03*
D19*
X180411590Y-153918311D03*
%TD*%
D15*
%TO.C,D214*%
X116810000Y-197114000D03*
X119610000Y-197114000D03*
%TD*%
D13*
%TO.C,C201*%
X105432500Y-172464000D03*
X107507500Y-172464000D03*
%TD*%
D15*
%TO.C,D207*%
X111160000Y-193724000D03*
X113960000Y-193724000D03*
%TD*%
D12*
%TO.C,R308*%
X246987500Y-93975000D03*
X248987500Y-93975000D03*
%TD*%
D32*
%TO.C,J604*%
X220472000Y-71882000D03*
D33*
X220472000Y-74422000D03*
X220472000Y-76962000D03*
%TD*%
D12*
%TO.C,R216*%
X75230000Y-224994000D03*
X77230000Y-224994000D03*
%TD*%
D18*
%TO.C,J201*%
X180411590Y-113278311D03*
D19*
X180411590Y-115818311D03*
%TD*%
D12*
%TO.C,R244*%
X94230000Y-213194000D03*
X96230000Y-213194000D03*
%TD*%
D34*
%TO.C,H102*%
X179705000Y-177165000D03*
%TD*%
D12*
%TO.C,R202*%
X70480000Y-207294000D03*
X72480000Y-207294000D03*
%TD*%
D18*
%TO.C,J603*%
X180411590Y-98038311D03*
D19*
X180411590Y-100578311D03*
X180411590Y-103118311D03*
X180411590Y-105658311D03*
X180411590Y-108198311D03*
%TD*%
D12*
%TO.C,R235*%
X89480000Y-210244000D03*
X91480000Y-210244000D03*
%TD*%
D13*
%TO.C,C303*%
X251730000Y-79375000D03*
X253805000Y-79375000D03*
%TD*%
%TO.C,C215*%
X115052500Y-172464000D03*
X117127500Y-172464000D03*
%TD*%
D12*
%TO.C,R242*%
X94230000Y-207294000D03*
X96230000Y-207294000D03*
%TD*%
%TO.C,R239*%
X89480000Y-222044000D03*
X91480000Y-222044000D03*
%TD*%
D18*
%TO.C,J205*%
X180411590Y-143758311D03*
D19*
X180411590Y-146298311D03*
%TD*%
D21*
%TO.C,FID103*%
X281819000Y-47885000D03*
D35*
X281819000Y-47885000D03*
%TD*%
D12*
%TO.C,R307*%
X246987500Y-91025000D03*
X248987500Y-91025000D03*
%TD*%
%TO.C,R606*%
X63653000Y-96564000D03*
X65653000Y-96564000D03*
%TD*%
%TO.C,R618*%
X73153000Y-90664000D03*
X75153000Y-90664000D03*
%TD*%
D18*
%TO.C,J216*%
X227330000Y-153907820D03*
D19*
X227330000Y-151367820D03*
%TD*%
D15*
%TO.C,D216*%
X116810000Y-203894000D03*
X119610000Y-203894000D03*
%TD*%
D12*
%TO.C,R229*%
X84730000Y-216144000D03*
X86730000Y-216144000D03*
%TD*%
D21*
%TO.C,TP402*%
X222165000Y65175000D03*
%TD*%
D36*
%TO.C,J302*%
X229055000Y-114748000D03*
D37*
X229055000Y-113498000D03*
X229055000Y-112248000D03*
X229055000Y-110998000D03*
X229055000Y-109748000D03*
X229055000Y-108498000D03*
%TD*%
D18*
%TO.C,J101*%
X227330000Y-146287820D03*
D19*
X227330000Y-143747820D03*
%TD*%
D10*
%TO.C,J210*%
X194945000Y-176530000D03*
D11*
X197485000Y-176530000D03*
%TD*%
D12*
%TO.C,R609*%
X68403000Y-84764000D03*
X70403000Y-84764000D03*
%TD*%
D21*
%TO.C,TP102*%
X304310000Y-128130200D03*
%TD*%
D38*
%TO.C,U302*%
X265907500Y-83870000D03*
X265907500Y-84820000D03*
X265907500Y-85770000D03*
X268607500Y-85770000D03*
X268607500Y-84820000D03*
X268607500Y-83870000D03*
%TD*%
D12*
%TO.C,R205*%
X70480000Y-216144000D03*
X72480000Y-216144000D03*
%TD*%
D15*
%TO.C,D210*%
X111160000Y-203894000D03*
X113960000Y-203894000D03*
%TD*%
D34*
%TO.C,H103*%
X227965000Y-177165000D03*
%TD*%
D12*
%TO.C,R248*%
X94230000Y-224994000D03*
X96230000Y-224994000D03*
%TD*%
D10*
%TO.C,J209*%
X187325000Y-176530000D03*
D11*
X189865000Y-176530000D03*
%TD*%
D12*
%TO.C,R612*%
X68403000Y-93614000D03*
X70403000Y-93614000D03*
%TD*%
D13*
%TO.C,C204*%
X105432500Y-181494000D03*
X107507500Y-181494000D03*
%TD*%
D21*
%TO.C,FID104*%
X281819000Y-51435000D03*
D35*
X281819000Y-51435000D03*
%TD*%
D21*
%TO.C,TP302*%
X262157500Y-88895000D03*
%TD*%
D22*
%TO.C,L302*%
X261287500Y-95195000D03*
X263587500Y-95195000D03*
%TD*%
D18*
%TO.C,J215*%
X227330000Y-161527820D03*
D19*
X227330000Y-158987820D03*
%TD*%
D12*
%TO.C,R228*%
X84730000Y-213194000D03*
X86730000Y-213194000D03*
%TD*%
D15*
%TO.C,D208*%
X111160000Y-197114000D03*
X113960000Y-197114000D03*
%TD*%
D13*
%TO.C,C213*%
X110242500Y-187514000D03*
X112317500Y-187514000D03*
%TD*%
D12*
%TO.C,R246*%
X94230000Y-219094000D03*
X96230000Y-219094000D03*
%TD*%
%TO.C,R247*%
X94230000Y-222044000D03*
X96230000Y-222044000D03*
%TD*%
D20*
%TO.C,D405*%
X216277500Y65975000D03*
X216277500Y64075000D03*
X218552500Y65025000D03*
%TD*%
D18*
%TO.C,J104*%
X227330000Y-123427820D03*
D19*
X227330000Y-120887820D03*
%TD*%
D12*
%TO.C,R237*%
X89480000Y-216144000D03*
X91480000Y-216144000D03*
%TD*%
%TO.C,R209*%
X75230000Y-204344000D03*
X77230000Y-204344000D03*
%TD*%
%TO.C,R604*%
X63653000Y-90664000D03*
X65653000Y-90664000D03*
%TD*%
D13*
%TO.C,C101*%
X233577500Y-85945000D03*
X235652500Y-85945000D03*
%TD*%
%TO.C,C306*%
X251730000Y-88405000D03*
X253805000Y-88405000D03*
%TD*%
D39*
%TO.C,U101*%
X299085000Y-120015000D03*
X304165000Y-120015000D03*
X304165000Y-116215000D03*
X299085000Y-116215000D03*
%TD*%
D12*
%TO.C,R236*%
X89480000Y-213194000D03*
X91480000Y-213194000D03*
%TD*%
D13*
%TO.C,C501*%
X128100000Y50800000D03*
X130175000Y50800000D03*
%TD*%
D12*
%TO.C,R230*%
X84730000Y-219094000D03*
X86730000Y-219094000D03*
%TD*%
D18*
%TO.C,J203*%
X180411590Y-128518311D03*
D19*
X180411590Y-131058311D03*
%TD*%
D12*
%TO.C,R215*%
X75230000Y-222044000D03*
X77230000Y-222044000D03*
%TD*%
%TO.C,R243*%
X94230000Y-210244000D03*
X96230000Y-210244000D03*
%TD*%
D10*
%TO.C,J211*%
X202565000Y-176530000D03*
D11*
X205105000Y-176530000D03*
%TD*%
D40*
%TO.C,U103*%
X298975000Y-99260200D03*
X298975000Y-100530200D03*
X298975000Y-101800200D03*
X298975000Y-103070200D03*
X304125000Y-103070200D03*
X304125000Y-101800200D03*
X304125000Y-100530200D03*
X304125000Y-99260200D03*
%TD*%
D12*
%TO.C,R231*%
X84730000Y-222044000D03*
X86730000Y-222044000D03*
%TD*%
%TO.C,R503*%
X123357500Y52900000D03*
X125357500Y52900000D03*
%TD*%
D15*
%TO.C,D204*%
X105510000Y-203894000D03*
X108310000Y-203894000D03*
%TD*%
D12*
%TO.C,R245*%
X94230000Y-216144000D03*
X96230000Y-216144000D03*
%TD*%
%TO.C,R617*%
X73153000Y-87714000D03*
X75153000Y-87714000D03*
%TD*%
D36*
%TO.C,J301*%
X229055000Y-103455000D03*
D37*
X229055000Y-102205000D03*
X229055000Y-100955000D03*
X229055000Y-99705000D03*
X229055000Y-98455000D03*
X229055000Y-97205000D03*
%TD*%
D13*
%TO.C,C301*%
X251730000Y-73355000D03*
X253805000Y-73355000D03*
%TD*%
D12*
%TO.C,R227*%
X84730000Y-210244000D03*
X86730000Y-210244000D03*
%TD*%
%TO.C,R309*%
X246987500Y-96925000D03*
X248987500Y-96925000D03*
%TD*%
D41*
%TO.C,C401*%
X208192500Y51825000D03*
X211317500Y51825000D03*
%TD*%
D12*
%TO.C,R218*%
X79980000Y-207294000D03*
X81980000Y-207294000D03*
%TD*%
D18*
%TO.C,J202*%
X180411590Y-120898311D03*
D19*
X180411590Y-123438311D03*
%TD*%
D12*
%TO.C,R504*%
X123357500Y49950000D03*
X125357500Y49950000D03*
%TD*%
D18*
%TO.C,J208*%
X180340000Y-166607820D03*
D19*
X180340000Y-169147820D03*
%TD*%
D42*
%TO.C,C405*%
X225782500Y60675000D03*
X228907500Y60675000D03*
%TD*%
D43*
%TO.C,L401*%
X216620000Y47380000D03*
X219960000Y47380000D03*
%TD*%
D14*
%TO.C,Q401*%
X225857500Y70425000D03*
X225857500Y68525000D03*
X227732500Y69475000D03*
%TD*%
D21*
%TO.C,FID102*%
X278269000Y-51435000D03*
D35*
X278269000Y-51435000D03*
%TD*%
D12*
%TO.C,R302*%
X246987500Y-76275000D03*
X248987500Y-76275000D03*
%TD*%
D21*
%TO.C,FID106*%
X285369000Y-51435000D03*
D35*
X285369000Y-51435000D03*
%TD*%
D12*
%TO.C,R222*%
X79980000Y-219094000D03*
X81980000Y-219094000D03*
%TD*%
D13*
%TO.C,C207*%
X105432500Y-190524000D03*
X107507500Y-190524000D03*
%TD*%
D12*
%TO.C,R208*%
X70480000Y-224994000D03*
X72480000Y-224994000D03*
%TD*%
%TO.C,R601*%
X63653000Y-81814000D03*
X65653000Y-81814000D03*
%TD*%
D40*
%TO.C,U202*%
X114165000Y-213824000D03*
X114165000Y-215094000D03*
X114165000Y-216364000D03*
X114165000Y-217634000D03*
X114165000Y-218904000D03*
X114165000Y-220174000D03*
X114165000Y-221444000D03*
X114165000Y-222714000D03*
X119315000Y-222714000D03*
X119315000Y-221444000D03*
X119315000Y-220174000D03*
X119315000Y-218904000D03*
X119315000Y-217634000D03*
X119315000Y-216364000D03*
X119315000Y-215094000D03*
X119315000Y-213824000D03*
%TD*%
D13*
%TO.C,C208*%
X110242500Y-172464000D03*
X112317500Y-172464000D03*
%TD*%
D18*
%TO.C,J602*%
X180411590Y-82798311D03*
D19*
X180411590Y-85338311D03*
X180411590Y-87878311D03*
X180411590Y-90418311D03*
X180411590Y-92958311D03*
%TD*%
D12*
%TO.C,R225*%
X84730000Y-204344000D03*
X86730000Y-204344000D03*
%TD*%
D13*
%TO.C,C209*%
X110242500Y-175474000D03*
X112317500Y-175474000D03*
%TD*%
%TO.C,C311*%
X256540000Y-85395000D03*
X258615000Y-85395000D03*
%TD*%
D12*
%TO.C,R213*%
X75230000Y-216144000D03*
X77230000Y-216144000D03*
%TD*%
D15*
%TO.C,D211*%
X111160000Y-207284000D03*
X113960000Y-207284000D03*
%TD*%
D20*
%TO.C,U402*%
X226127500Y50880000D03*
X226127500Y49930000D03*
X226127500Y48980000D03*
X228402500Y48980000D03*
X228402500Y49930000D03*
X228402500Y50880000D03*
%TD*%
D40*
%TO.C,U201*%
X105715000Y-213824000D03*
X105715000Y-215094000D03*
X105715000Y-216364000D03*
X105715000Y-217634000D03*
X105715000Y-218904000D03*
X105715000Y-220174000D03*
X105715000Y-221444000D03*
X105715000Y-222714000D03*
X110865000Y-222714000D03*
X110865000Y-221444000D03*
X110865000Y-220174000D03*
X110865000Y-218904000D03*
X110865000Y-217634000D03*
X110865000Y-216364000D03*
X110865000Y-215094000D03*
X110865000Y-213824000D03*
%TD*%
D13*
%TO.C,C217*%
X115052500Y-178484000D03*
X117127500Y-178484000D03*
%TD*%
D12*
%TO.C,R241*%
X94230000Y-204344000D03*
X96230000Y-204344000D03*
%TD*%
D13*
%TO.C,C104*%
X298692500Y-132140200D03*
X300767500Y-132140200D03*
%TD*%
%TO.C,C502*%
X128100000Y47790000D03*
X130175000Y47790000D03*
%TD*%
D15*
%TO.C,D215*%
X116810000Y-200504000D03*
X119610000Y-200504000D03*
%TD*%
D12*
%TO.C,R220*%
X79980000Y-213194000D03*
X81980000Y-213194000D03*
%TD*%
D13*
%TO.C,C307*%
X256540000Y-73355000D03*
X258615000Y-73355000D03*
%TD*%
D12*
%TO.C,R603*%
X63653000Y-87714000D03*
X65653000Y-87714000D03*
%TD*%
%TO.C,R610*%
X68403000Y-87714000D03*
X70403000Y-87714000D03*
%TD*%
D13*
%TO.C,C102*%
X298692500Y-126120200D03*
X300767500Y-126120200D03*
%TD*%
%TO.C,C205*%
X105432500Y-184504000D03*
X107507500Y-184504000D03*
%TD*%
D44*
%TO.C,U401*%
X216615000Y56450000D03*
X216615000Y54150000D03*
D45*
X222915000Y54150000D03*
D44*
X216615000Y51850000D03*
%TD*%
D17*
%TO.C,D403*%
X208820000Y60325000D03*
X212820000Y60325000D03*
%TD*%
D21*
%TO.C,FID101*%
X278269000Y-47885000D03*
D35*
X278269000Y-47885000D03*
%TD*%
D12*
%TO.C,R203*%
X70480000Y-210244000D03*
X72480000Y-210244000D03*
%TD*%
%TO.C,R501*%
X123357500Y58800000D03*
X125357500Y58800000D03*
%TD*%
D10*
%TO.C,J213*%
X217805000Y-176530000D03*
D11*
X220345000Y-176530000D03*
%TD*%
D12*
%TO.C,R502*%
X123357500Y55850000D03*
X125357500Y55850000D03*
%TD*%
%TO.C,R219*%
X79980000Y-210244000D03*
X81980000Y-210244000D03*
%TD*%
D13*
%TO.C,C105*%
X298692500Y-135150200D03*
X300767500Y-135150200D03*
%TD*%
D12*
%TO.C,R226*%
X84730000Y-207294000D03*
X86730000Y-207294000D03*
%TD*%
D18*
%TO.C,J103*%
X227330000Y-131047820D03*
D19*
X227330000Y-128507820D03*
%TD*%
D12*
%TO.C,R405*%
X203375000Y58425000D03*
X205375000Y58425000D03*
%TD*%
D18*
%TO.C,J207*%
X180340000Y-158987820D03*
D19*
X180340000Y-161527820D03*
%TD*%
D13*
%TO.C,C302*%
X251730000Y-76365000D03*
X253805000Y-76365000D03*
%TD*%
D12*
%TO.C,R217*%
X79980000Y-204344000D03*
X81980000Y-204344000D03*
%TD*%
%TO.C,R304*%
X246987500Y-82175000D03*
X248987500Y-82175000D03*
%TD*%
%TO.C,R223*%
X79980000Y-222044000D03*
X81980000Y-222044000D03*
%TD*%
%TO.C,R614*%
X68403000Y-99514000D03*
X70403000Y-99514000D03*
%TD*%
%TO.C,R214*%
X75230000Y-219094000D03*
X77230000Y-219094000D03*
%TD*%
D13*
%TO.C,C212*%
X110242500Y-184504000D03*
X112317500Y-184504000D03*
%TD*%
%TO.C,C211*%
X110242500Y-181494000D03*
X112317500Y-181494000D03*
%TD*%
D41*
%TO.C,C402*%
X208192500Y48475000D03*
X211317500Y48475000D03*
%TD*%
D34*
%TO.C,H104*%
X227965000Y-73025000D03*
%TD*%
D12*
%TO.C,R611*%
X68403000Y-90664000D03*
X70403000Y-90664000D03*
%TD*%
D21*
%TO.C,FID105*%
X285369000Y-47885000D03*
D35*
X285369000Y-47885000D03*
%TD*%
D12*
%TO.C,R401*%
X203375000Y70225000D03*
X205375000Y70225000D03*
%TD*%
D15*
%TO.C,D202*%
X105510000Y-197114000D03*
X108310000Y-197114000D03*
%TD*%
D13*
%TO.C,C202*%
X105432500Y-175474000D03*
X107507500Y-175474000D03*
%TD*%
D12*
%TO.C,R240*%
X89480000Y-224994000D03*
X91480000Y-224994000D03*
%TD*%
%TO.C,R613*%
X68403000Y-96564000D03*
X70403000Y-96564000D03*
%TD*%
D18*
%TO.C,J501*%
X188595000Y-73660000D03*
D19*
X188595000Y-76200000D03*
X188595000Y-78740000D03*
X188595000Y-81280000D03*
%TD*%
D12*
%TO.C,R211*%
X75230000Y-210244000D03*
X77230000Y-210244000D03*
%TD*%
%TO.C,R204*%
X70480000Y-213194000D03*
X72480000Y-213194000D03*
%TD*%
D15*
%TO.C,D209*%
X111160000Y-200504000D03*
X113960000Y-200504000D03*
%TD*%
D12*
%TO.C,R406*%
X203375000Y55475000D03*
X205375000Y55475000D03*
%TD*%
D15*
%TO.C,D213*%
X116810000Y-193724000D03*
X119610000Y-193724000D03*
%TD*%
D21*
%TO.C,TP403*%
X222165000Y60825000D03*
%TD*%
D13*
%TO.C,C214*%
X110242500Y-190524000D03*
X112317500Y-190524000D03*
%TD*%
D18*
%TO.C,J601*%
X227330000Y-90805000D03*
D19*
X227330000Y-88265000D03*
X227330000Y-85725000D03*
X227330000Y-83185000D03*
X227330000Y-80645000D03*
%TD*%
D12*
%TO.C,R305*%
X246987500Y-85125000D03*
X248987500Y-85125000D03*
%TD*%
%TO.C,R224*%
X79980000Y-224994000D03*
X81980000Y-224994000D03*
%TD*%
%TO.C,R301*%
X246987500Y-73325000D03*
X248987500Y-73325000D03*
%TD*%
D15*
%TO.C,D201*%
X105510000Y-193724000D03*
X108310000Y-193724000D03*
%TD*%
%TO.C,D205*%
X105510000Y-207284000D03*
X108310000Y-207284000D03*
%TD*%
D12*
%TO.C,R602*%
X63653000Y-84764000D03*
X65653000Y-84764000D03*
%TD*%
%TO.C,R210*%
X75230000Y-207294000D03*
X77230000Y-207294000D03*
%TD*%
D34*
%TO.C,H101*%
X179705000Y-73025000D03*
%TD*%
D12*
%TO.C,R403*%
X203375000Y64325000D03*
X205375000Y64325000D03*
%TD*%
D18*
%TO.C,J214*%
X227330000Y-169147820D03*
D19*
X227330000Y-166607820D03*
%TD*%
D12*
%TO.C,R306*%
X246987500Y-88075000D03*
X248987500Y-88075000D03*
%TD*%
%TO.C,R402*%
X203375000Y67275000D03*
X205375000Y67275000D03*
%TD*%
M02*
