%TF.GenerationSoftware,KiCad,Pcbnew,9.0.6-9.0.6~ubuntu24.04.1*%
%TF.CreationDate,2025-12-29T17:09:32-08:00*%
%TF.ProjectId,Pico-ButtonBoard-v1,5069636f-2d42-4757-9474-6f6e426f6172,1*%
%TF.SameCoordinates,Original*%
%TF.FileFunction,Soldermask,Bot*%
%TF.FilePolarity,Negative*%
%FSLAX46Y46*%
G04 Gerber Fmt 4.6, Leading zero omitted, Abs format (unit mm)*
G04 Created by KiCad (PCBNEW 9.0.6-9.0.6~ubuntu24.04.1) date 2025-12-29 17:09:32*
%MOMM*%
%LPD*%
G01*
G04 APERTURE LIST*
G04 Aperture macros list*
%AMRoundRect*
0 Rectangle with rounded corners*
0 $1 Rounding radius*
0 $2 $3 $4 $5 $6 $7 $8 $9 X,Y pos of 4 corners*
0 Add a 4 corners polygon primitive as box body*
4,1,4,$2,$3,$4,$5,$6,$7,$8,$9,$2,$3,0*
0 Add four circle primitives for the rounded corners*
1,1,$1+$1,$2,$3*
1,1,$1+$1,$4,$5*
1,1,$1+$1,$6,$7*
1,1,$1+$1,$8,$9*
0 Add four rect primitives between the rounded corners*
20,1,$1+$1,$2,$3,$4,$5,0*
20,1,$1+$1,$4,$5,$6,$7,0*
20,1,$1+$1,$6,$7,$8,$9,0*
20,1,$1+$1,$8,$9,$2,$3,0*%
%AMFreePoly0*
4,1,37,0.603843,0.796157,0.639018,0.796157,0.711114,0.766294,0.766294,0.711114,0.796157,0.639018,0.796157,0.603843,0.800000,0.600000,0.800000,-0.600000,0.796157,-0.603843,0.796157,-0.639018,0.766294,-0.711114,0.711114,-0.766294,0.639018,-0.796157,0.603843,-0.796157,0.600000,-0.800000,0.000000,-0.800000,0.000000,-0.796148,-0.078414,-0.796148,-0.232228,-0.765552,-0.377117,-0.705537,
-0.507515,-0.618408,-0.618408,-0.507515,-0.705537,-0.377117,-0.765552,-0.232228,-0.796148,-0.078414,-0.796148,0.078414,-0.765552,0.232228,-0.705537,0.377117,-0.618408,0.507515,-0.507515,0.618408,-0.377117,0.705537,-0.232228,0.765552,-0.078414,0.796148,0.000000,0.796148,0.000000,0.800000,0.600000,0.800000,0.603843,0.796157,0.603843,0.796157,$1*%
%AMFreePoly1*
4,1,37,0.000000,0.796148,0.078414,0.796148,0.232228,0.765552,0.377117,0.705537,0.507515,0.618408,0.618408,0.507515,0.705537,0.377117,0.765552,0.232228,0.796148,0.078414,0.796148,-0.078414,0.765552,-0.232228,0.705537,-0.377117,0.618408,-0.507515,0.507515,-0.618408,0.377117,-0.705537,0.232228,-0.765552,0.078414,-0.796148,0.000000,-0.796148,0.000000,-0.800000,-0.600000,-0.800000,
-0.603843,-0.796157,-0.639018,-0.796157,-0.711114,-0.766294,-0.766294,-0.711114,-0.796157,-0.639018,-0.796157,-0.603843,-0.800000,-0.600000,-0.800000,0.600000,-0.796157,0.603843,-0.796157,0.639018,-0.766294,0.711114,-0.711114,0.766294,-0.639018,0.796157,-0.603843,0.796157,-0.600000,0.800000,0.000000,0.800000,0.000000,0.796148,0.000000,0.796148,$1*%
G04 Aperture macros list end*
%ADD10C,0.100000*%
%ADD11R,1.600200X1.905000*%
%ADD12O,1.600200X1.905000*%
%ADD13R,1.905000X1.600200*%
%ADD14O,1.905000X1.600200*%
%ADD15C,2.000000*%
%ADD16RoundRect,0.200000X-0.600000X-0.600000X0.600000X-0.600000X0.600000X0.600000X-0.600000X0.600000X0*%
%ADD17C,1.600000*%
%ADD18FreePoly0,0.000000*%
%ADD19FreePoly1,0.000000*%
%ADD20R,1.700000X1.700000*%
%ADD21C,1.700000*%
%ADD22C,3.200000*%
%ADD23RoundRect,0.200000X0.450000X-0.200000X0.450000X0.200000X-0.450000X0.200000X-0.450000X-0.200000X0*%
%ADD24O,1.300000X0.800000*%
%ADD25RoundRect,0.250000X-0.350000X-0.450000X0.350000X-0.450000X0.350000X0.450000X-0.350000X0.450000X0*%
%ADD26RoundRect,0.250000X-0.337500X-0.475000X0.337500X-0.475000X0.337500X0.475000X-0.337500X0.475000X0*%
%ADD27RoundRect,0.250000X0.475000X-0.337500X0.475000X0.337500X-0.475000X0.337500X-0.475000X-0.337500X0*%
%ADD28RoundRect,0.150000X-0.512500X-0.150000X0.512500X-0.150000X0.512500X0.150000X-0.512500X0.150000X0*%
%ADD29RoundRect,0.250000X0.350000X0.450000X-0.350000X0.450000X-0.350000X-0.450000X0.350000X-0.450000X0*%
%ADD30RoundRect,0.250000X0.337500X0.475000X-0.337500X0.475000X-0.337500X-0.475000X0.337500X-0.475000X0*%
%ADD31RoundRect,0.250000X-0.450000X0.350000X-0.450000X-0.350000X0.450000X-0.350000X0.450000X0.350000X0*%
%ADD32RoundRect,0.150000X0.512500X0.150000X-0.512500X0.150000X-0.512500X-0.150000X0.512500X-0.150000X0*%
%ADD33RoundRect,0.250000X-0.475000X0.337500X-0.475000X-0.337500X0.475000X-0.337500X0.475000X0.337500X0*%
%ADD34RoundRect,0.250000X0.450000X-0.350000X0.450000X0.350000X-0.450000X0.350000X-0.450000X-0.350000X0*%
%ADD35C,3.124000*%
%ADD36RoundRect,0.250000X0.412500X0.650000X-0.412500X0.650000X-0.412500X-0.650000X0.412500X-0.650000X0*%
G04 APERTURE END LIST*
D10*
%TO.C,FID5*%
X185345200Y-174550200D02*
X182345200Y-174550200D01*
X182345200Y-171550200D01*
X185345200Y-171550200D01*
X185345200Y-174550200D01*
G36*
X185345200Y-174550200D02*
G01*
X182345200Y-174550200D01*
X182345200Y-171550200D01*
X185345200Y-171550200D01*
X185345200Y-174550200D01*
G37*
%TO.C,FID4*%
X224410400Y-180544600D02*
X221410400Y-180544600D01*
X221410400Y-177544600D01*
X224410400Y-177544600D01*
X224410400Y-180544600D01*
G36*
X224410400Y-180544600D02*
G01*
X221410400Y-180544600D01*
X221410400Y-177544600D01*
X224410400Y-177544600D01*
X224410400Y-180544600D01*
G37*
%TO.C,FID6*%
X181967000Y-79732000D02*
X178967000Y-79732000D01*
X178967000Y-76732000D01*
X181967000Y-76732000D01*
X181967000Y-79732000D01*
G36*
X181967000Y-79732000D02*
G01*
X178967000Y-79732000D01*
X178967000Y-76732000D01*
X181967000Y-76732000D01*
X181967000Y-79732000D01*
G37*
%TD*%
D11*
%TO.C,J14*%
X210185000Y-176530000D03*
D12*
X212725000Y-176530000D03*
%TD*%
D13*
%TO.C,J20*%
X227330000Y-138667820D03*
D14*
X227330000Y-136127820D03*
%TD*%
D15*
%TO.C,TP1*%
X195707000Y-146050000D03*
%TD*%
%TO.C,TP4*%
X216789000Y-127381000D03*
%TD*%
D13*
%TO.C,J6*%
X180411590Y-136138311D03*
D14*
X180411590Y-138678311D03*
%TD*%
D16*
%TO.C,A1*%
X194945000Y-71755000D03*
D17*
X194945000Y-74295000D03*
D18*
X194945000Y-76835000D03*
D17*
X194945000Y-79375000D03*
X194945000Y-81915000D03*
X194945000Y-84455000D03*
X194945000Y-86995000D03*
D18*
X194945000Y-89535000D03*
D17*
X194945000Y-92075000D03*
X194945000Y-94615000D03*
X194945000Y-97155000D03*
X194945000Y-99695000D03*
D18*
X194945000Y-102235000D03*
D17*
X194945000Y-104775000D03*
X194945000Y-107315000D03*
X194945000Y-109855000D03*
X194945000Y-112395000D03*
D18*
X194945000Y-114935000D03*
D17*
X194945000Y-117475000D03*
X194945000Y-120015000D03*
X212725000Y-120015000D03*
X212725000Y-117475000D03*
D19*
X212725000Y-114935000D03*
D17*
X212725000Y-112395000D03*
X212725000Y-109855000D03*
X212725000Y-107315000D03*
X212725000Y-104775000D03*
D19*
X212725000Y-102235000D03*
D17*
X212725000Y-99695000D03*
X212725000Y-97155000D03*
X212725000Y-94615000D03*
X212725000Y-92075000D03*
D19*
X212725000Y-89535000D03*
D17*
X212725000Y-86995000D03*
X212725000Y-84455000D03*
X212725000Y-81915000D03*
X212725000Y-79375000D03*
D19*
X212725000Y-76835000D03*
D17*
X212725000Y-74295000D03*
X212725000Y-71755000D03*
%TD*%
D15*
%TO.C,TP7*%
X224536000Y-95504000D03*
%TD*%
D13*
%TO.C,J8*%
X180411590Y-151378311D03*
D14*
X180411590Y-153918311D03*
%TD*%
D20*
%TO.C,J16*%
X219456000Y-76962000D03*
D21*
X219456000Y-74422000D03*
X219456000Y-71882000D03*
%TD*%
D13*
%TO.C,J3*%
X180411590Y-113278311D03*
D14*
X180411590Y-115818311D03*
%TD*%
D22*
%TO.C,H2*%
X179705000Y-177165000D03*
%TD*%
D13*
%TO.C,J7*%
X180411590Y-143758311D03*
D14*
X180411590Y-146298311D03*
%TD*%
D13*
%TO.C,J22*%
X227330000Y-153907820D03*
D14*
X227330000Y-151367820D03*
%TD*%
D15*
%TO.C,TP2*%
X196088000Y-133985000D03*
%TD*%
D23*
%TO.C,J26*%
X228801000Y-114748000D03*
D24*
X228801000Y-113498000D03*
X228801000Y-112248000D03*
X228801000Y-110998000D03*
X228801000Y-109748000D03*
X228801000Y-108498000D03*
%TD*%
D13*
%TO.C,J21*%
X227330000Y-146287820D03*
D14*
X227330000Y-143747820D03*
%TD*%
D11*
%TO.C,J12*%
X194945000Y-176530000D03*
D12*
X197485000Y-176530000D03*
%TD*%
D15*
%TO.C,TP5*%
X220218000Y-127381000D03*
%TD*%
D22*
%TO.C,H4*%
X227965000Y-177165000D03*
%TD*%
D11*
%TO.C,J11*%
X187325000Y-176530000D03*
D12*
X189865000Y-176530000D03*
%TD*%
D15*
%TO.C,TP6*%
X224028000Y-106349800D03*
%TD*%
D13*
%TO.C,J23*%
X227330000Y-161527820D03*
D14*
X227330000Y-158987820D03*
%TD*%
D13*
%TO.C,J18*%
X227330000Y-123427820D03*
D14*
X227330000Y-120887820D03*
%TD*%
D13*
%TO.C,J5*%
X180411590Y-128518311D03*
D14*
X180411590Y-131058311D03*
%TD*%
D11*
%TO.C,J13*%
X202565000Y-176530000D03*
D12*
X205105000Y-176530000D03*
%TD*%
D23*
%TO.C,J25*%
X228801000Y-103455000D03*
D24*
X228801000Y-102205000D03*
X228801000Y-100955000D03*
X228801000Y-99705000D03*
X228801000Y-98455000D03*
X228801000Y-97205000D03*
%TD*%
D13*
%TO.C,J4*%
X180411590Y-120898311D03*
D14*
X180411590Y-123438311D03*
%TD*%
D13*
%TO.C,J10*%
X180340000Y-166607820D03*
D14*
X180340000Y-169147820D03*
%TD*%
D13*
%TO.C,J2*%
X180411590Y-96768311D03*
D14*
X180411590Y-99308311D03*
X180411590Y-101848311D03*
X180411590Y-104388311D03*
X180411590Y-106928311D03*
%TD*%
D11*
%TO.C,J15*%
X217805000Y-176530000D03*
D12*
X220345000Y-176530000D03*
%TD*%
D13*
%TO.C,J19*%
X227330000Y-131047820D03*
D14*
X227330000Y-128507820D03*
%TD*%
D13*
%TO.C,J9*%
X180340000Y-158987820D03*
D14*
X180340000Y-161527820D03*
%TD*%
D22*
%TO.C,H3*%
X227965000Y-73025000D03*
%TD*%
D13*
%TO.C,J1*%
X180411590Y-82798311D03*
D14*
X180411590Y-85338311D03*
X180411590Y-87878311D03*
X180411590Y-90418311D03*
%TD*%
D15*
%TO.C,TP3*%
X204343000Y-149606000D03*
%TD*%
D13*
%TO.C,J17*%
X227330000Y-90805000D03*
D14*
X227330000Y-88265000D03*
X227330000Y-85725000D03*
X227330000Y-83185000D03*
X227330000Y-80645000D03*
%TD*%
D22*
%TO.C,H1*%
X179705000Y-73025000D03*
%TD*%
D13*
%TO.C,J24*%
X227330000Y-169147820D03*
D14*
X227330000Y-166607820D03*
%TD*%
D25*
%TO.C,R55*%
X206645000Y-99187000D03*
X208645000Y-99187000D03*
%TD*%
%TO.C,R68*%
X184928000Y-121158000D03*
X186928000Y-121158000D03*
%TD*%
D26*
%TO.C,C34*%
X184890500Y-123190000D03*
X186965500Y-123190000D03*
%TD*%
D27*
%TO.C,C14*%
X221107000Y-171913500D03*
X221107000Y-169838500D03*
%TD*%
D28*
%TO.C,Q2*%
X210469500Y-142682000D03*
X210469500Y-140782000D03*
X212744500Y-141732000D03*
%TD*%
D29*
%TO.C,R67*%
X186928000Y-117602000D03*
X184928000Y-117602000D03*
%TD*%
%TO.C,R64*%
X188960000Y-95504000D03*
X186960000Y-95504000D03*
%TD*%
%TO.C,R63*%
X188960000Y-93472000D03*
X186960000Y-93472000D03*
%TD*%
D26*
%TO.C,C10*%
X222990500Y-112649000D03*
X225065500Y-112649000D03*
%TD*%
D30*
%TO.C,C11*%
X223033500Y-153162000D03*
X220958500Y-153162000D03*
%TD*%
D25*
%TO.C,R76*%
X184928000Y-151638000D03*
X186928000Y-151638000D03*
%TD*%
D27*
%TO.C,C20*%
X218694000Y-99843500D03*
X218694000Y-97768500D03*
%TD*%
%TO.C,C27*%
X201803000Y-171913500D03*
X201803000Y-169838500D03*
%TD*%
D26*
%TO.C,C18*%
X219434500Y-92075000D03*
X221509500Y-92075000D03*
%TD*%
D31*
%TO.C,R60*%
X196215000Y-169876000D03*
X196215000Y-171876000D03*
%TD*%
D29*
%TO.C,R52*%
X212607000Y-146558000D03*
X210607000Y-146558000D03*
%TD*%
D28*
%TO.C,D23*%
X207269500Y-151318000D03*
X207269500Y-149418000D03*
X209544500Y-150368000D03*
%TD*%
D26*
%TO.C,C9*%
X222990500Y-103378000D03*
X225065500Y-103378000D03*
%TD*%
D32*
%TO.C,D22*%
X215894500Y-149418000D03*
X215894500Y-151318000D03*
X213619500Y-150368000D03*
%TD*%
D30*
%TO.C,C28*%
X198522500Y-141732000D03*
X196447500Y-141732000D03*
%TD*%
D33*
%TO.C,C26*%
X204520800Y-138611700D03*
X204520800Y-140686700D03*
%TD*%
D29*
%TO.C,R77*%
X186928000Y-155702000D03*
X184928000Y-155702000D03*
%TD*%
D26*
%TO.C,C17*%
X219434500Y-90043000D03*
X221509500Y-90043000D03*
%TD*%
D31*
%TO.C,R58*%
X202488800Y-138649200D03*
X202488800Y-140649200D03*
%TD*%
D30*
%TO.C,C23*%
X214397500Y-135487500D03*
X212322500Y-135487500D03*
%TD*%
D25*
%TO.C,R66*%
X184928000Y-113538000D03*
X186928000Y-113538000D03*
%TD*%
D26*
%TO.C,C33*%
X184890500Y-115570000D03*
X186965500Y-115570000D03*
%TD*%
D34*
%TO.C,R51*%
X213487000Y-171876000D03*
X213487000Y-169876000D03*
%TD*%
D31*
%TO.C,R62*%
X188595000Y-169876000D03*
X188595000Y-171876000D03*
%TD*%
D25*
%TO.C,R70*%
X184928000Y-128778000D03*
X186928000Y-128778000D03*
%TD*%
D26*
%TO.C,C40*%
X184890500Y-165862000D03*
X186965500Y-165862000D03*
%TD*%
D34*
%TO.C,R59*%
X198247000Y-171876000D03*
X198247000Y-169876000D03*
%TD*%
D25*
%TO.C,R78*%
X184928000Y-157734000D03*
X186928000Y-157734000D03*
%TD*%
D29*
%TO.C,R81*%
X186928000Y-167894000D03*
X184928000Y-167894000D03*
%TD*%
%TO.C,R65*%
X188960000Y-97536000D03*
X186960000Y-97536000D03*
%TD*%
%TO.C,R69*%
X186928000Y-125222000D03*
X184928000Y-125222000D03*
%TD*%
%TO.C,R41*%
X222996000Y-155194000D03*
X220996000Y-155194000D03*
%TD*%
D27*
%TO.C,C29*%
X194183000Y-171913500D03*
X194183000Y-169838500D03*
%TD*%
D35*
%TO.C,FID5*%
X183845200Y-173050200D03*
%TD*%
D26*
%TO.C,C39*%
X184890500Y-159766000D03*
X186965500Y-159766000D03*
%TD*%
D29*
%TO.C,R44*%
X222996000Y-163322000D03*
X220996000Y-163322000D03*
%TD*%
%TO.C,R43*%
X222996000Y-161290000D03*
X220996000Y-161290000D03*
%TD*%
D25*
%TO.C,R74*%
X184928000Y-144018000D03*
X186928000Y-144018000D03*
%TD*%
D29*
%TO.C,R71*%
X186928000Y-132842000D03*
X184928000Y-132842000D03*
%TD*%
D25*
%TO.C,R46*%
X219472000Y-79883000D03*
X221472000Y-79883000D03*
%TD*%
D30*
%TO.C,C25*%
X208682500Y-97155000D03*
X206607500Y-97155000D03*
%TD*%
D26*
%TO.C,C16*%
X219434500Y-88011000D03*
X221509500Y-88011000D03*
%TD*%
D25*
%TO.C,R72*%
X184928000Y-136398000D03*
X186928000Y-136398000D03*
%TD*%
D26*
%TO.C,C31*%
X186922500Y-89408000D03*
X188997500Y-89408000D03*
%TD*%
D25*
%TO.C,R40*%
X220996000Y-151130000D03*
X222996000Y-151130000D03*
%TD*%
D34*
%TO.C,R56*%
X205867000Y-171876000D03*
X205867000Y-169876000D03*
%TD*%
%TO.C,R50*%
X217043000Y-171876000D03*
X217043000Y-169876000D03*
%TD*%
D30*
%TO.C,C15*%
X221509500Y-85979000D03*
X219434500Y-85979000D03*
%TD*%
D36*
%TO.C,C22*%
X217259300Y-139623800D03*
X214134300Y-139623800D03*
%TD*%
D31*
%TO.C,R49*%
X219075000Y-169876000D03*
X219075000Y-171876000D03*
%TD*%
D35*
%TO.C,FID4*%
X222910400Y-179044600D03*
%TD*%
D25*
%TO.C,R38*%
X223028000Y-110617000D03*
X225028000Y-110617000D03*
%TD*%
D35*
%TO.C,FID6*%
X180467000Y-78232000D03*
%TD*%
D25*
%TO.C,R45*%
X220996000Y-165354000D03*
X222996000Y-165354000D03*
%TD*%
D26*
%TO.C,C36*%
X184890500Y-138430000D03*
X186965500Y-138430000D03*
%TD*%
D25*
%TO.C,R48*%
X219472000Y-83947000D03*
X221472000Y-83947000D03*
%TD*%
D27*
%TO.C,C24*%
X209423000Y-171913500D03*
X209423000Y-169838500D03*
%TD*%
D29*
%TO.C,R79*%
X186928000Y-161798000D03*
X184928000Y-161798000D03*
%TD*%
D26*
%TO.C,C37*%
X184890500Y-146050000D03*
X186965500Y-146050000D03*
%TD*%
D29*
%TO.C,R73*%
X186928000Y-140462000D03*
X184928000Y-140462000D03*
%TD*%
D34*
%TO.C,R61*%
X190627000Y-171876000D03*
X190627000Y-169876000D03*
%TD*%
D27*
%TO.C,C19*%
X220472000Y-133400800D03*
X220472000Y-131325800D03*
%TD*%
D26*
%TO.C,C30*%
X186922500Y-85344000D03*
X188997500Y-85344000D03*
%TD*%
D25*
%TO.C,R47*%
X219472000Y-81915000D03*
X221472000Y-81915000D03*
%TD*%
D26*
%TO.C,C35*%
X184890500Y-130810000D03*
X186965500Y-130810000D03*
%TD*%
D27*
%TO.C,C21*%
X218440000Y-133400800D03*
X218440000Y-131325800D03*
%TD*%
D25*
%TO.C,R42*%
X220996000Y-157226000D03*
X222996000Y-157226000D03*
%TD*%
D26*
%TO.C,C8*%
X222990500Y-99314000D03*
X225065500Y-99314000D03*
%TD*%
D29*
%TO.C,R75*%
X186928000Y-148082000D03*
X184928000Y-148082000D03*
%TD*%
D25*
%TO.C,R39*%
X223028000Y-114681000D03*
X225028000Y-114681000D03*
%TD*%
D31*
%TO.C,R54*%
X211455000Y-169876000D03*
X211455000Y-171876000D03*
%TD*%
D30*
%TO.C,C13*%
X223033500Y-167386000D03*
X220958500Y-167386000D03*
%TD*%
D26*
%TO.C,C38*%
X184890500Y-153670000D03*
X186965500Y-153670000D03*
%TD*%
D25*
%TO.C,R53*%
X210607000Y-148590000D03*
X212607000Y-148590000D03*
%TD*%
D27*
%TO.C,C32*%
X186563000Y-171913500D03*
X186563000Y-169838500D03*
%TD*%
D25*
%TO.C,R80*%
X184928000Y-163830000D03*
X186928000Y-163830000D03*
%TD*%
D30*
%TO.C,C12*%
X223033500Y-159258000D03*
X220958500Y-159258000D03*
%TD*%
D31*
%TO.C,R57*%
X203835000Y-169876000D03*
X203835000Y-171876000D03*
%TD*%
D25*
%TO.C,R37*%
X223028000Y-101346000D03*
X225028000Y-101346000D03*
%TD*%
M02*
