M48
; DRILL file {KiCad 9.0.6-9.0.6~ubuntu24.04.1} date 2025-12-27T23:57:12-0800
; FORMAT={-:-/ absolute / metric / decimal}
; #@! TF.CreationDate,2025-12-27T23:57:12-08:00
; #@! TF.GenerationSoftware,Kicad,Pcbnew,9.0.6-9.0.6~ubuntu24.04.1
; #@! TF.FileFunction,MixedPlating,1,4
FMAT,2
METRIC
; #@! TA.AperFunction,Plated,PTH,ComponentDrill
T1C0.500
; #@! TA.AperFunction,Plated,PTH,ViaDrill
T2C0.508
; #@! TA.AperFunction,Plated,PTH,ComponentDrill
T3C1.000
; #@! TA.AperFunction,Plated,PTH,ComponentDrill
T4C1.092
; #@! TA.AperFunction,NonPlated,NPTH,ComponentDrill
T5C3.200
%
G90
G05
T1
X229.055Y-97.205
X229.055Y-98.455
X229.055Y-99.705
X229.055Y-100.955
X229.055Y-102.205
X229.055Y-103.455
X229.055Y-108.498
X229.055Y-109.748
X229.055Y-110.998
X229.055Y-112.248
X229.055Y-113.498
X229.055Y-114.748
T2
X184.683Y-170.891
X185.318Y-87.376
X185.445Y-97.536
X185.497Y-95.504
X185.522Y-89.408
X185.522Y-103.632
X185.522Y-105.658
X185.572Y-107.696
X185.623Y-93.472
X187.369Y-141.967
X188.316Y-117.627
X188.316Y-157.734
X188.316Y-163.83
X188.341Y-165.837
X188.343Y-115.586
X188.343Y-128.829
X188.343Y-144.069
X188.366Y-132.842
X188.392Y-156.159
X188.417Y-136.398
X188.468Y-125.222
X188.468Y-145.999
X188.468Y-148.082
X188.468Y-151.638
X188.544Y-123.215
X188.57Y-130.759
X188.595Y-159.893
X188.773Y-161.874
X189.231Y-153.771
X189.306Y-138.379
X189.611Y-166.294
X190.322Y-91.465
X190.449Y-87.325
X190.488Y-89.802
X190.509Y-86.184
X190.602Y-96.596
X190.729Y-106.68
X190.932Y-152.006
X194.208Y-168.554
X194.462Y-150.876
X195.377Y-164.059
X195.402Y-141.732
X195.529Y-155.194
X195.58Y-156.439
X195.707Y-137.566
X195.758Y-153.289
X196.164Y-160.934
X197.002Y-158.521
X197.028Y-160.045
X197.231Y-168.427
X198.222Y-144.577
X198.272Y-139.751
X198.755Y-117.602
X199.752Y-75.305
X200.482Y-153.314
X200.533Y-139.751
X200.533Y-155.194
X200.558Y-156.439
X201.803Y-168.529
X202.374Y-79.184
X202.489Y-142.697
X204.038Y-155.372
X204.064Y-75.584
X204.114Y-156.566
X204.368Y-158.191
X204.851Y-167.157
X205.283Y-97.18
X205.308Y-99.187
X205.994Y-135.407
X206.07Y-130.429
X206.096Y-127.61
X206.604Y-141.732
X206.629Y-153.213
X207.264Y-148.361
X208.077Y-164.109
X208.229Y-160.274
X208.255Y-121.666
X208.966Y-156.87
X208.991Y-158.115
X209.036Y-116.122
X209.067Y-146.533
X209.423Y-168.453
X209.804Y-161.544
X209.956Y-160.274
X210.058Y-124.206
X210.312Y-113.589
X210.871Y-151.318
X211.633Y-154.153
X211.785Y-167.03
X211.855Y-140.545
X212.217Y-150.368
X212.331Y-137.096
X212.724Y-132.437
X213.03Y-140.487
X213.258Y-156.464
X213.487Y-126.441
X213.487Y-167.716
X213.592Y-161.963
X214.179Y-146.869
X214.238Y-133.082
X214.605Y-138.735
X215.138Y-81.534
X215.646Y-147.066
X215.798Y-135.484
X215.799Y-100.33
X215.849Y-148.361
X216.154Y-103.251
X216.51Y-142.723
X216.916Y-145.542
X217.094Y-153.238
X217.703Y-90.78
X217.839Y-88.011
X217.839Y-85.172
X217.907Y-80.899
X218.465Y-134.899
X218.567Y-130.023
X219.227Y-151.105
X219.304Y-153.187
X219.304Y-165.354
X219.329Y-159.182
X219.507Y-157.175
X220.353Y-112.006
X220.421Y-130.023
X220.523Y-134.849
X220.542Y-110.725
X221.031Y-97.434
X221.056Y-103.251
X221.325Y-115.364
X221.539Y-99.187
X221.539Y-100.33
X222.834Y-88.036
X222.885Y-79.883
X222.885Y-81.915
X222.885Y-83.947
X222.885Y-86.004
X223.082Y-171.652
X223.469Y-92.05
X226.416Y-98.425
X226.568Y-112.649
T3
X194.945Y-71.755
X194.945Y-74.295
X194.945Y-76.835
X194.945Y-79.375
X194.945Y-81.915
X194.945Y-84.455
X194.945Y-86.995
X194.945Y-89.535
X194.945Y-92.075
X194.945Y-94.615
X194.945Y-97.155
X194.945Y-99.695
X194.945Y-102.235
X194.945Y-104.775
X194.945Y-107.315
X194.945Y-109.855
X194.945Y-112.395
X194.945Y-114.935
X194.945Y-117.475
X194.945Y-120.015
X195.707Y-146.05
X196.088Y-133.985
X204.343Y-149.606
X212.725Y-71.755
X212.725Y-74.295
X212.725Y-76.835
X212.725Y-79.375
X212.725Y-81.915
X212.725Y-84.455
X212.725Y-86.995
X212.725Y-89.535
X212.725Y-92.075
X212.725Y-94.615
X212.725Y-97.155
X212.725Y-99.695
X212.725Y-102.235
X212.725Y-104.775
X212.725Y-107.315
X212.725Y-109.855
X212.725Y-112.395
X212.725Y-114.935
X212.725Y-117.475
X212.725Y-120.015
X216.789Y-127.381
X219.456Y-71.882
X219.456Y-74.422
X219.456Y-76.962
X220.218Y-127.381
X224.536Y-95.504
X224.536Y-106.045
T4
X180.34Y-158.988
X180.34Y-161.528
X180.34Y-166.608
X180.34Y-169.148
X180.412Y-82.798
X180.412Y-85.338
X180.412Y-87.878
X180.412Y-90.418
X180.412Y-92.958
X180.412Y-98.038
X180.412Y-100.578
X180.412Y-103.118
X180.412Y-105.658
X180.412Y-108.198
X180.412Y-113.278
X180.412Y-115.818
X180.412Y-120.898
X180.412Y-123.438
X180.412Y-128.518
X180.412Y-131.058
X180.412Y-136.138
X180.412Y-138.678
X180.412Y-143.758
X180.412Y-146.298
X180.412Y-151.378
X180.412Y-153.918
X187.325Y-176.53
X188.595Y-73.66
X188.595Y-76.2
X188.595Y-78.74
X188.595Y-81.28
X189.865Y-176.53
X194.945Y-176.53
X197.485Y-176.53
X202.565Y-176.53
X205.105Y-176.53
X210.185Y-176.53
X212.725Y-176.53
X217.805Y-176.53
X220.345Y-176.53
X227.33Y-80.645
X227.33Y-83.185
X227.33Y-85.725
X227.33Y-88.265
X227.33Y-90.805
X227.33Y-120.888
X227.33Y-123.428
X227.33Y-128.508
X227.33Y-131.048
X227.33Y-136.128
X227.33Y-138.668
X227.33Y-143.748
X227.33Y-146.288
X227.33Y-151.368
X227.33Y-153.908
X227.33Y-158.988
X227.33Y-161.528
X227.33Y-166.608
X227.33Y-169.148
T5
X179.705Y-73.025
X179.705Y-177.165
X227.965Y-73.025
X227.965Y-177.165
M30
