%TF.GenerationSoftware,KiCad,Pcbnew,9.0.7-9.0.7~ubuntu24.04.1*%
%TF.CreationDate,2026-01-24T20:55:52-08:00*%
%TF.ProjectId,Pico-ButtonBoard-v1,5069636f-2d42-4757-9474-6f6e426f6172,1*%
%TF.SameCoordinates,Original*%
%TF.FileFunction,Paste,Bot*%
%TF.FilePolarity,Positive*%
%FSLAX46Y46*%
G04 Gerber Fmt 4.6, Leading zero omitted, Abs format (unit mm)*
G04 Created by KiCad (PCBNEW 9.0.7-9.0.7~ubuntu24.04.1) date 2026-01-24 20:55:52*
%MOMM*%
%LPD*%
G01*
G04 APERTURE LIST*
G04 Aperture macros list*
%AMRoundRect*
0 Rectangle with rounded corners*
0 $1 Rounding radius*
0 $2 $3 $4 $5 $6 $7 $8 $9 X,Y pos of 4 corners*
0 Add a 4 corners polygon primitive as box body*
4,1,4,$2,$3,$4,$5,$6,$7,$8,$9,$2,$3,0*
0 Add four circle primitives for the rounded corners*
1,1,$1+$1,$2,$3*
1,1,$1+$1,$4,$5*
1,1,$1+$1,$6,$7*
1,1,$1+$1,$8,$9*
0 Add four rect primitives between the rounded corners*
20,1,$1+$1,$2,$3,$4,$5,0*
20,1,$1+$1,$4,$5,$6,$7,0*
20,1,$1+$1,$6,$7,$8,$9,0*
20,1,$1+$1,$8,$9,$2,$3,0*%
G04 Aperture macros list end*
%ADD10C,0.254000*%
%ADD11C,0.500000*%
%ADD12RoundRect,0.250000X-0.350000X-0.450000X0.350000X-0.450000X0.350000X0.450000X-0.350000X0.450000X0*%
%ADD13RoundRect,0.250000X-0.337500X-0.475000X0.337500X-0.475000X0.337500X0.475000X-0.337500X0.475000X0*%
%ADD14RoundRect,0.250000X0.475000X-0.337500X0.475000X0.337500X-0.475000X0.337500X-0.475000X-0.337500X0*%
%ADD15RoundRect,0.250000X-0.450000X0.350000X-0.450000X-0.350000X0.450000X-0.350000X0.450000X0.350000X0*%
%ADD16RoundRect,0.150000X-0.512500X-0.150000X0.512500X-0.150000X0.512500X0.150000X-0.512500X0.150000X0*%
%ADD17RoundRect,0.250000X0.350000X0.450000X-0.350000X0.450000X-0.350000X-0.450000X0.350000X-0.450000X0*%
%ADD18RoundRect,0.250000X0.337500X0.475000X-0.337500X0.475000X-0.337500X-0.475000X0.337500X-0.475000X0*%
%ADD19RoundRect,0.150000X0.512500X0.150000X-0.512500X0.150000X-0.512500X-0.150000X0.512500X-0.150000X0*%
%ADD20RoundRect,0.250000X0.450000X-0.350000X0.450000X0.350000X-0.450000X0.350000X-0.450000X-0.350000X0*%
%ADD21RoundRect,0.250000X-0.475000X0.337500X-0.475000X-0.337500X0.475000X-0.337500X0.475000X0.337500X0*%
%ADD22RoundRect,0.250000X0.412500X0.650000X-0.412500X0.650000X-0.412500X-0.650000X0.412500X-0.650000X0*%
G04 APERTURE END LIST*
D10*
%TO.C,FID5*%
X183845200Y-171850200D02*
X183845200Y-174250200D01*
X185045200Y-173050200D02*
X182645200Y-173050200D01*
D11*
X184095200Y-173050200D02*
G75*
G02*
X183595200Y-173050200I-250000J0D01*
G01*
X183595200Y-173050200D02*
G75*
G02*
X184095200Y-173050200I250000J0D01*
G01*
D10*
%TO.C,FID4*%
X222910400Y-177844600D02*
X222910400Y-180244600D01*
X224110400Y-179044600D02*
X221710400Y-179044600D01*
D11*
X223160400Y-179044600D02*
G75*
G02*
X222660400Y-179044600I-250000J0D01*
G01*
X222660400Y-179044600D02*
G75*
G02*
X223160400Y-179044600I250000J0D01*
G01*
D10*
%TO.C,FID6*%
X180467000Y-77032000D02*
X180467000Y-79432000D01*
X181667000Y-78232000D02*
X179267000Y-78232000D01*
D11*
X180717000Y-78232000D02*
G75*
G02*
X180217000Y-78232000I-250000J0D01*
G01*
X180217000Y-78232000D02*
G75*
G02*
X180717000Y-78232000I250000J0D01*
G01*
%TD*%
D12*
%TO.C,R49*%
X217262200Y-103708200D03*
X219262200Y-103708200D03*
%TD*%
%TO.C,R56*%
X206645000Y-99187000D03*
X208645000Y-99187000D03*
%TD*%
%TO.C,R74*%
X184928000Y-121158000D03*
X186928000Y-121158000D03*
%TD*%
D13*
%TO.C,C35*%
X184890500Y-123190000D03*
X186965500Y-123190000D03*
%TD*%
D14*
%TO.C,C12*%
X221107000Y-171913500D03*
X221107000Y-169838500D03*
%TD*%
D15*
%TO.C,R65*%
X196596000Y-128413000D03*
X196596000Y-130413000D03*
%TD*%
D16*
%TO.C,Q2*%
X210469500Y-142682000D03*
X210469500Y-140782000D03*
X212744500Y-141732000D03*
%TD*%
D17*
%TO.C,R73*%
X186928000Y-117602000D03*
X184928000Y-117602000D03*
%TD*%
%TO.C,R70*%
X188960000Y-95504000D03*
X186960000Y-95504000D03*
%TD*%
%TO.C,R69*%
X188960000Y-93472000D03*
X186960000Y-93472000D03*
%TD*%
D13*
%TO.C,C20*%
X217220800Y-98171000D03*
X219295800Y-98171000D03*
%TD*%
D18*
%TO.C,C9*%
X223033500Y-153162000D03*
X220958500Y-153162000D03*
%TD*%
D12*
%TO.C,R82*%
X184928000Y-151638000D03*
X186928000Y-151638000D03*
%TD*%
D14*
%TO.C,C18*%
X219515500Y-113686500D03*
X219515500Y-111611500D03*
%TD*%
%TO.C,C27*%
X201803000Y-171913500D03*
X201803000Y-169838500D03*
%TD*%
D13*
%TO.C,C16*%
X219434500Y-92075000D03*
X221509500Y-92075000D03*
%TD*%
D15*
%TO.C,R66*%
X196215000Y-169876000D03*
X196215000Y-171876000D03*
%TD*%
D17*
%TO.C,R54*%
X212607000Y-146558000D03*
X210607000Y-146558000D03*
%TD*%
D16*
%TO.C,D24*%
X207269500Y-151318000D03*
X207269500Y-149418000D03*
X209544500Y-150368000D03*
%TD*%
D13*
%TO.C,C21*%
X217224700Y-105740200D03*
X219299700Y-105740200D03*
%TD*%
D19*
%TO.C,D23*%
X215894500Y-149418000D03*
X215894500Y-151318000D03*
X213619500Y-150368000D03*
%TD*%
D20*
%TO.C,R62*%
X200660000Y-130413000D03*
X200660000Y-128413000D03*
%TD*%
%TO.C,R63*%
X198628000Y-130413000D03*
X198628000Y-128413000D03*
%TD*%
D18*
%TO.C,C29*%
X198522500Y-141732000D03*
X196447500Y-141732000D03*
%TD*%
D21*
%TO.C,C26*%
X204520800Y-138611700D03*
X204520800Y-140686700D03*
%TD*%
D17*
%TO.C,R83*%
X186928000Y-155702000D03*
X184928000Y-155702000D03*
%TD*%
D13*
%TO.C,C15*%
X219434500Y-90043000D03*
X221509500Y-90043000D03*
%TD*%
D15*
%TO.C,R59*%
X202488800Y-138649200D03*
X202488800Y-140649200D03*
%TD*%
D18*
%TO.C,C23*%
X214397500Y-135487500D03*
X212322500Y-135487500D03*
%TD*%
D12*
%TO.C,R72*%
X184928000Y-113538000D03*
X186928000Y-113538000D03*
%TD*%
D13*
%TO.C,C34*%
X184890500Y-115570000D03*
X186965500Y-115570000D03*
%TD*%
D20*
%TO.C,R52*%
X213487000Y-171876000D03*
X213487000Y-169876000D03*
%TD*%
D15*
%TO.C,R68*%
X188595000Y-169876000D03*
X188595000Y-171876000D03*
%TD*%
D12*
%TO.C,R76*%
X184928000Y-128778000D03*
X186928000Y-128778000D03*
%TD*%
D13*
%TO.C,C41*%
X184890500Y-165862000D03*
X186965500Y-165862000D03*
%TD*%
D20*
%TO.C,R64*%
X198247000Y-171876000D03*
X198247000Y-169876000D03*
%TD*%
D12*
%TO.C,R84*%
X184928000Y-157734000D03*
X186928000Y-157734000D03*
%TD*%
D17*
%TO.C,R87*%
X186928000Y-167894000D03*
X184928000Y-167894000D03*
%TD*%
%TO.C,R71*%
X188960000Y-97536000D03*
X186960000Y-97536000D03*
%TD*%
%TO.C,R75*%
X186928000Y-125222000D03*
X184928000Y-125222000D03*
%TD*%
%TO.C,R38*%
X222996000Y-155194000D03*
X220996000Y-155194000D03*
%TD*%
D14*
%TO.C,C30*%
X194183000Y-171913500D03*
X194183000Y-169838500D03*
%TD*%
D13*
%TO.C,C40*%
X184890500Y-159766000D03*
X186965500Y-159766000D03*
%TD*%
D17*
%TO.C,R41*%
X222996000Y-163322000D03*
X220996000Y-163322000D03*
%TD*%
%TO.C,R40*%
X222996000Y-161290000D03*
X220996000Y-161290000D03*
%TD*%
D12*
%TO.C,R80*%
X184928000Y-144018000D03*
X186928000Y-144018000D03*
%TD*%
D17*
%TO.C,R77*%
X186928000Y-132842000D03*
X184928000Y-132842000D03*
%TD*%
D12*
%TO.C,R43*%
X219472000Y-79883000D03*
X221472000Y-79883000D03*
%TD*%
D19*
%TO.C,Q4*%
X197911300Y-124119600D03*
X197911300Y-126019600D03*
X195636300Y-125069600D03*
%TD*%
D18*
%TO.C,C25*%
X208682500Y-97155000D03*
X206607500Y-97155000D03*
%TD*%
D13*
%TO.C,C14*%
X219434500Y-88011000D03*
X221509500Y-88011000D03*
%TD*%
D12*
%TO.C,R78*%
X184928000Y-136398000D03*
X186928000Y-136398000D03*
%TD*%
D13*
%TO.C,C32*%
X186922500Y-89408000D03*
X188997500Y-89408000D03*
%TD*%
D12*
%TO.C,R37*%
X220996000Y-151130000D03*
X222996000Y-151130000D03*
%TD*%
D16*
%TO.C,Q3*%
X200081300Y-126019600D03*
X200081300Y-124119600D03*
X202356300Y-125069600D03*
%TD*%
D20*
%TO.C,R57*%
X205867000Y-171876000D03*
X205867000Y-169876000D03*
%TD*%
%TO.C,R51*%
X217043000Y-171876000D03*
X217043000Y-169876000D03*
%TD*%
D18*
%TO.C,C13*%
X221509500Y-85979000D03*
X219434500Y-85979000D03*
%TD*%
D17*
%TO.C,R35*%
X222996000Y-147066000D03*
X220996000Y-147066000D03*
%TD*%
D22*
%TO.C,C22*%
X217259300Y-139623800D03*
X214134300Y-139623800D03*
%TD*%
D15*
%TO.C,R46*%
X219075000Y-169876000D03*
X219075000Y-171876000D03*
%TD*%
D17*
%TO.C,R61*%
X202193400Y-122224800D03*
X200193400Y-122224800D03*
%TD*%
D12*
%TO.C,R47*%
X217258300Y-96139000D03*
X219258300Y-96139000D03*
%TD*%
%TO.C,R42*%
X220996000Y-165354000D03*
X222996000Y-165354000D03*
%TD*%
D13*
%TO.C,C37*%
X184890500Y-138430000D03*
X186965500Y-138430000D03*
%TD*%
D12*
%TO.C,R45*%
X219472000Y-83947000D03*
X221472000Y-83947000D03*
%TD*%
D14*
%TO.C,C24*%
X209423000Y-171913500D03*
X209423000Y-169838500D03*
%TD*%
D17*
%TO.C,R85*%
X186928000Y-161798000D03*
X184928000Y-161798000D03*
%TD*%
D13*
%TO.C,C38*%
X184890500Y-146050000D03*
X186965500Y-146050000D03*
%TD*%
D17*
%TO.C,R79*%
X186928000Y-140462000D03*
X184928000Y-140462000D03*
%TD*%
D20*
%TO.C,R67*%
X190627000Y-171876000D03*
X190627000Y-169876000D03*
%TD*%
D14*
%TO.C,C17*%
X220472000Y-133400800D03*
X220472000Y-131325800D03*
%TD*%
D13*
%TO.C,C31*%
X186922500Y-85344000D03*
X188997500Y-85344000D03*
%TD*%
D12*
%TO.C,R44*%
X219472000Y-81915000D03*
X221472000Y-81915000D03*
%TD*%
D13*
%TO.C,C36*%
X184890500Y-130810000D03*
X186965500Y-130810000D03*
%TD*%
D14*
%TO.C,C19*%
X218440000Y-133400800D03*
X218440000Y-131325800D03*
%TD*%
D12*
%TO.C,R39*%
X220996000Y-157226000D03*
X222996000Y-157226000D03*
%TD*%
D17*
%TO.C,R81*%
X186928000Y-148082000D03*
X184928000Y-148082000D03*
%TD*%
D12*
%TO.C,R48*%
X217258300Y-100203000D03*
X219258300Y-100203000D03*
%TD*%
D15*
%TO.C,R55*%
X211455000Y-169876000D03*
X211455000Y-171876000D03*
%TD*%
D18*
%TO.C,C11*%
X223033500Y-167386000D03*
X220958500Y-167386000D03*
%TD*%
D13*
%TO.C,C39*%
X184890500Y-153670000D03*
X186965500Y-153670000D03*
%TD*%
%TO.C,C28*%
X200155900Y-118160800D03*
X202230900Y-118160800D03*
%TD*%
D12*
%TO.C,R60*%
X200193400Y-120192800D03*
X202193400Y-120192800D03*
%TD*%
%TO.C,R36*%
X220996000Y-149098000D03*
X222996000Y-149098000D03*
%TD*%
D14*
%TO.C,C33*%
X186563000Y-171913500D03*
X186563000Y-169838500D03*
%TD*%
D12*
%TO.C,R86*%
X184928000Y-163830000D03*
X186928000Y-163830000D03*
%TD*%
D18*
%TO.C,C10*%
X223033500Y-159258000D03*
X220958500Y-159258000D03*
%TD*%
D12*
%TO.C,R50*%
X217262200Y-107772200D03*
X219262200Y-107772200D03*
%TD*%
D15*
%TO.C,R58*%
X203835000Y-169876000D03*
X203835000Y-171876000D03*
%TD*%
D12*
%TO.C,R53*%
X210607000Y-144526000D03*
X212607000Y-144526000D03*
%TD*%
M02*
