%TF.GenerationSoftware,KiCad,Pcbnew,9.0.6-9.0.6~ubuntu24.04.1*%
%TF.CreationDate,2025-12-28T11:28:19-08:00*%
%TF.ProjectId,Pico-ButtonBoard-v1,5069636f-2d42-4757-9474-6f6e426f6172,1*%
%TF.SameCoordinates,Original*%
%TF.FileFunction,Copper,L4,Bot*%
%TF.FilePolarity,Positive*%
%FSLAX46Y46*%
G04 Gerber Fmt 4.6, Leading zero omitted, Abs format (unit mm)*
G04 Created by KiCad (PCBNEW 9.0.6-9.0.6~ubuntu24.04.1) date 2025-12-28 11:28:19*
%MOMM*%
%LPD*%
G01*
G04 APERTURE LIST*
G04 Aperture macros list*
%AMRoundRect*
0 Rectangle with rounded corners*
0 $1 Rounding radius*
0 $2 $3 $4 $5 $6 $7 $8 $9 X,Y pos of 4 corners*
0 Add a 4 corners polygon primitive as box body*
4,1,4,$2,$3,$4,$5,$6,$7,$8,$9,$2,$3,0*
0 Add four circle primitives for the rounded corners*
1,1,$1+$1,$2,$3*
1,1,$1+$1,$4,$5*
1,1,$1+$1,$6,$7*
1,1,$1+$1,$8,$9*
0 Add four rect primitives between the rounded corners*
20,1,$1+$1,$2,$3,$4,$5,0*
20,1,$1+$1,$4,$5,$6,$7,0*
20,1,$1+$1,$6,$7,$8,$9,0*
20,1,$1+$1,$8,$9,$2,$3,0*%
%AMFreePoly0*
4,1,37,0.603843,0.796157,0.639018,0.796157,0.711114,0.766294,0.766294,0.711114,0.796157,0.639018,0.796157,0.603843,0.800000,0.600000,0.800000,-0.600000,0.796157,-0.603843,0.796157,-0.639018,0.766294,-0.711114,0.711114,-0.766294,0.639018,-0.796157,0.603843,-0.796157,0.600000,-0.800000,0.000000,-0.800000,0.000000,-0.796148,-0.078414,-0.796148,-0.232228,-0.765552,-0.377117,-0.705537,
-0.507515,-0.618408,-0.618408,-0.507515,-0.705537,-0.377117,-0.765552,-0.232228,-0.796148,-0.078414,-0.796148,0.078414,-0.765552,0.232228,-0.705537,0.377117,-0.618408,0.507515,-0.507515,0.618408,-0.377117,0.705537,-0.232228,0.765552,-0.078414,0.796148,0.000000,0.796148,0.000000,0.800000,0.600000,0.800000,0.603843,0.796157,0.603843,0.796157,$1*%
%AMFreePoly1*
4,1,37,0.000000,0.796148,0.078414,0.796148,0.232228,0.765552,0.377117,0.705537,0.507515,0.618408,0.618408,0.507515,0.705537,0.377117,0.765552,0.232228,0.796148,0.078414,0.796148,-0.078414,0.765552,-0.232228,0.705537,-0.377117,0.618408,-0.507515,0.507515,-0.618408,0.377117,-0.705537,0.232228,-0.765552,0.078414,-0.796148,0.000000,-0.796148,0.000000,-0.800000,-0.600000,-0.800000,
-0.603843,-0.796157,-0.639018,-0.796157,-0.711114,-0.766294,-0.766294,-0.711114,-0.796157,-0.639018,-0.796157,-0.603843,-0.800000,-0.600000,-0.800000,0.600000,-0.796157,0.603843,-0.796157,0.639018,-0.766294,0.711114,-0.711114,0.766294,-0.639018,0.796157,-0.603843,0.796157,-0.600000,0.800000,0.000000,0.800000,0.000000,0.796148,0.000000,0.796148,$1*%
G04 Aperture macros list end*
%TA.AperFunction,ComponentPad*%
%ADD10R,1.600200X1.905000*%
%TD*%
%TA.AperFunction,ComponentPad*%
%ADD11O,1.600200X1.905000*%
%TD*%
%TA.AperFunction,ComponentPad*%
%ADD12R,1.905000X1.600200*%
%TD*%
%TA.AperFunction,ComponentPad*%
%ADD13O,1.905000X1.600200*%
%TD*%
%TA.AperFunction,ComponentPad*%
%ADD14C,2.000000*%
%TD*%
%TA.AperFunction,ComponentPad*%
%ADD15RoundRect,0.200000X-0.600000X-0.600000X0.600000X-0.600000X0.600000X0.600000X-0.600000X0.600000X0*%
%TD*%
%TA.AperFunction,ComponentPad*%
%ADD16C,1.600000*%
%TD*%
%TA.AperFunction,ComponentPad*%
%ADD17FreePoly0,0.000000*%
%TD*%
%TA.AperFunction,ComponentPad*%
%ADD18FreePoly1,0.000000*%
%TD*%
%TA.AperFunction,ComponentPad*%
%ADD19R,1.700000X1.700000*%
%TD*%
%TA.AperFunction,ComponentPad*%
%ADD20C,1.700000*%
%TD*%
%TA.AperFunction,ComponentPad*%
%ADD21RoundRect,0.200000X0.450000X-0.200000X0.450000X0.200000X-0.450000X0.200000X-0.450000X-0.200000X0*%
%TD*%
%TA.AperFunction,ComponentPad*%
%ADD22O,1.300000X0.800000*%
%TD*%
%TA.AperFunction,SMDPad,CuDef*%
%ADD23RoundRect,0.250000X-0.350000X-0.450000X0.350000X-0.450000X0.350000X0.450000X-0.350000X0.450000X0*%
%TD*%
%TA.AperFunction,SMDPad,CuDef*%
%ADD24RoundRect,0.250000X-0.337500X-0.475000X0.337500X-0.475000X0.337500X0.475000X-0.337500X0.475000X0*%
%TD*%
%TA.AperFunction,SMDPad,CuDef*%
%ADD25RoundRect,0.250000X0.475000X-0.337500X0.475000X0.337500X-0.475000X0.337500X-0.475000X-0.337500X0*%
%TD*%
%TA.AperFunction,SMDPad,CuDef*%
%ADD26RoundRect,0.150000X-0.512500X-0.150000X0.512500X-0.150000X0.512500X0.150000X-0.512500X0.150000X0*%
%TD*%
%TA.AperFunction,SMDPad,CuDef*%
%ADD27RoundRect,0.250000X0.350000X0.450000X-0.350000X0.450000X-0.350000X-0.450000X0.350000X-0.450000X0*%
%TD*%
%TA.AperFunction,SMDPad,CuDef*%
%ADD28RoundRect,0.250000X0.337500X0.475000X-0.337500X0.475000X-0.337500X-0.475000X0.337500X-0.475000X0*%
%TD*%
%TA.AperFunction,SMDPad,CuDef*%
%ADD29RoundRect,0.250000X-0.450000X0.350000X-0.450000X-0.350000X0.450000X-0.350000X0.450000X0.350000X0*%
%TD*%
%TA.AperFunction,SMDPad,CuDef*%
%ADD30RoundRect,0.150000X0.512500X0.150000X-0.512500X0.150000X-0.512500X-0.150000X0.512500X-0.150000X0*%
%TD*%
%TA.AperFunction,SMDPad,CuDef*%
%ADD31RoundRect,0.250000X-0.475000X0.337500X-0.475000X-0.337500X0.475000X-0.337500X0.475000X0.337500X0*%
%TD*%
%TA.AperFunction,SMDPad,CuDef*%
%ADD32RoundRect,0.250000X0.450000X-0.350000X0.450000X0.350000X-0.450000X0.350000X-0.450000X-0.350000X0*%
%TD*%
%TA.AperFunction,SMDPad,CuDef*%
%ADD33C,1.600000*%
%TD*%
%TA.AperFunction,SMDPad,CuDef*%
%ADD34RoundRect,0.250000X-0.412500X-0.650000X0.412500X-0.650000X0.412500X0.650000X-0.412500X0.650000X0*%
%TD*%
%TA.AperFunction,ViaPad*%
%ADD35C,0.889000*%
%TD*%
%TA.AperFunction,Conductor*%
%ADD36C,0.381000*%
%TD*%
%TA.AperFunction,Conductor*%
%ADD37C,0.635000*%
%TD*%
%TA.AperFunction,Conductor*%
%ADD38C,0.508000*%
%TD*%
G04 APERTURE END LIST*
D10*
%TO.P,J15,1,Pin_1*%
%TO.N,GND*%
X210185000Y-176530000D03*
D11*
%TO.P,J15,2,Pin_2*%
%TO.N,Net-(D14-K)*%
X212725000Y-176530000D03*
%TD*%
D12*
%TO.P,J21,1,Pin_1*%
%TO.N,GND*%
X227330000Y-138667820D03*
D13*
%TO.P,J21,2,Pin_2*%
%TO.N,/Power Supply/+V_BAT*%
X227330000Y-136127820D03*
%TD*%
D14*
%TO.P,TP1,1,1*%
%TO.N,/Power Supply/V_PS*%
X195707000Y-146050000D03*
%TD*%
%TO.P,TP4,1,1*%
%TO.N,/CANTX*%
X216789000Y-127381000D03*
%TD*%
D12*
%TO.P,J6,1,Pin_1*%
%TO.N,GND*%
X180411590Y-136138311D03*
D13*
%TO.P,J6,2,Pin_2*%
%TO.N,Net-(D4-K)*%
X180411590Y-138678311D03*
%TD*%
D15*
%TO.P,A1,1,GPIO0*%
%TO.N,/ENC0_A*%
X194945000Y-71755000D03*
D16*
%TO.P,A1,2,GPIO1*%
%TO.N,/ENC0_B*%
X194945000Y-74295000D03*
D17*
%TO.P,A1,3,GND*%
%TO.N,GND*%
X194945000Y-76835000D03*
D16*
%TO.P,A1,4,GPIO2*%
%TO.N,/ID0*%
X194945000Y-79375000D03*
%TO.P,A1,5,GPIO3*%
%TO.N,/ID1*%
X194945000Y-81915000D03*
%TO.P,A1,6,GPIO4*%
%TO.N,/ENC0_PWM*%
X194945000Y-84455000D03*
%TO.P,A1,7,GPIO5*%
%TO.N,/ENC1_A*%
X194945000Y-86995000D03*
D17*
%TO.P,A1,8,GND*%
%TO.N,GND*%
X194945000Y-89535000D03*
D16*
%TO.P,A1,9,GPIO6*%
%TO.N,/ENC1_B*%
X194945000Y-92075000D03*
%TO.P,A1,10,GPIO7*%
%TO.N,/ENC1_PWM*%
X194945000Y-94615000D03*
%TO.P,A1,11,GPIO8*%
%TO.N,/ENC2_A*%
X194945000Y-97155000D03*
%TO.P,A1,12,GPIO9*%
%TO.N,/ENC2_B*%
X194945000Y-99695000D03*
D17*
%TO.P,A1,13,GND*%
%TO.N,GND*%
X194945000Y-102235000D03*
D16*
%TO.P,A1,14,SPI1_SCK*%
%TO.N,/BUTTON_SCK*%
X194945000Y-104775000D03*
%TO.P,A1,15,GPIO11*%
%TO.N,/ENC2_PWM*%
X194945000Y-107315000D03*
%TO.P,A1,16,SPI1_RX*%
%TO.N,/BUTTON_MISO*%
X194945000Y-109855000D03*
%TO.P,A1,17,GPIO13*%
%TO.N,/~{BUTTON_LD}*%
X194945000Y-112395000D03*
D17*
%TO.P,A1,18,GND*%
%TO.N,GND*%
X194945000Y-114935000D03*
D16*
%TO.P,A1,19,GPIO14*%
%TO.N,/~{CAN_TX_IRQ}*%
X194945000Y-117475000D03*
%TO.P,A1,20,GPIO15*%
%TO.N,/XCVR_STBY*%
X194945000Y-120015000D03*
%TO.P,A1,21,GPIO16*%
%TO.N,/ADC3{slash}~{ADC2}*%
X212725000Y-120015000D03*
%TO.P,A1,22,GPIO17*%
%TO.N,/~{CAN_IRQ}*%
X212725000Y-117475000D03*
D18*
%TO.P,A1,23,GND*%
%TO.N,GND*%
X212725000Y-114935000D03*
D16*
%TO.P,A1,24,GPIO18*%
%TO.N,/~{CAN_RX_IRQ}*%
X212725000Y-112395000D03*
%TO.P,A1,25,SPI0_TX*%
%TO.N,/SPI0_MOSI*%
X212725000Y-109855000D03*
%TO.P,A1,26,SPI0_RX*%
%TO.N,/SPI0_MISO*%
X212725000Y-107315000D03*
%TO.P,A1,27,~{SPI0_CSn}*%
%TO.N,/~{SPI0_CS}*%
X212725000Y-104775000D03*
D18*
%TO.P,A1,28,GND*%
%TO.N,GND*%
X212725000Y-102235000D03*
D16*
%TO.P,A1,29,SPI0_SCK*%
%TO.N,/SPI0_SCK*%
X212725000Y-99695000D03*
%TO.P,A1,30,~{RESET}*%
%TO.N,Net-(A1-RUN)*%
X212725000Y-97155000D03*
%TO.P,A1,31,ADC0*%
%TO.N,/X0_ADC*%
X212725000Y-94615000D03*
%TO.P,A1,32,ADC1*%
%TO.N,/Y0_ADC*%
X212725000Y-92075000D03*
D18*
%TO.P,A1,33,AGND*%
%TO.N,GNDA*%
X212725000Y-89535000D03*
D16*
%TO.P,A1,34,ADC2*%
%TO.N,/XY1_ADC*%
X212725000Y-86995000D03*
%TO.P,A1,35,ADC_VREF*%
%TO.N,+3V3A*%
X212725000Y-84455000D03*
%TO.P,A1,36,3V3*%
%TO.N,+3V3*%
X212725000Y-81915000D03*
%TO.P,A1,37,3V3_EN*%
%TO.N,+5V*%
X212725000Y-79375000D03*
D18*
%TO.P,A1,38,GND*%
%TO.N,GND*%
X212725000Y-76835000D03*
D16*
%TO.P,A1,39,VSYS*%
%TO.N,+5V*%
X212725000Y-74295000D03*
%TO.P,A1,40,VBUS*%
%TO.N,unconnected-(A1-VBUS-Pad40)*%
X212725000Y-71755000D03*
%TD*%
D14*
%TO.P,TP6,1,1*%
%TO.N,+3V3A*%
X224536000Y-95504000D03*
%TD*%
D12*
%TO.P,J8,1,Pin_1*%
%TO.N,GND*%
X180411590Y-151378311D03*
D13*
%TO.P,J8,2,Pin_2*%
%TO.N,Net-(D6-K)*%
X180411590Y-153918311D03*
%TD*%
D19*
%TO.P,J17,1,Pin_1*%
%TO.N,+3V3*%
X219456000Y-76962000D03*
D20*
%TO.P,J17,2,Pin_2*%
%TO.N,/Encoder Inputs/ENC_VCC*%
X219456000Y-74422000D03*
%TO.P,J17,3,Pin_3*%
%TO.N,+5V*%
X219456000Y-71882000D03*
%TD*%
D12*
%TO.P,J3,1,Pin_1*%
%TO.N,GND*%
X180411590Y-113278311D03*
D13*
%TO.P,J3,2,Pin_2*%
%TO.N,Net-(D1-K)*%
X180411590Y-115818311D03*
%TD*%
D12*
%TO.P,J2,1,Pin_1*%
%TO.N,GND*%
X180411590Y-98038311D03*
D13*
%TO.P,J2,2,Pin_2*%
%TO.N,/Encoder Inputs/ENC_VCC*%
X180411590Y-100578311D03*
%TO.P,J2,3,Pin_3*%
%TO.N,Net-(J2-Pin_3)*%
X180411590Y-103118311D03*
%TO.P,J2,4,Pin_4*%
%TO.N,Net-(J2-Pin_4)*%
X180411590Y-105658311D03*
%TO.P,J2,5,Pin_5*%
%TO.N,Net-(J2-Pin_5)*%
X180411590Y-108198311D03*
%TD*%
D12*
%TO.P,J7,1,Pin_1*%
%TO.N,GND*%
X180411590Y-143758311D03*
D13*
%TO.P,J7,2,Pin_2*%
%TO.N,Net-(D5-K)*%
X180411590Y-146298311D03*
%TD*%
D12*
%TO.P,J23,1,Pin_1*%
%TO.N,GND*%
X227330000Y-153907820D03*
D13*
%TO.P,J23,2,Pin_2*%
%TO.N,Net-(D19-K)*%
X227330000Y-151367820D03*
%TD*%
D14*
%TO.P,TP2,1,1*%
%TO.N,Net-(D10-A)*%
X196088000Y-133985000D03*
%TD*%
D21*
%TO.P,J27,1,Pin_1*%
%TO.N,Net-(J27-Pin_1)*%
X228801000Y-114748000D03*
D22*
%TO.P,J27,2,Pin_2*%
%TO.N,+3V3A*%
X228801000Y-113498000D03*
%TO.P,J27,3,Pin_3*%
%TO.N,GNDA*%
X228801000Y-112248000D03*
%TO.P,J27,4,Pin_4*%
%TO.N,Net-(J27-Pin_4)*%
X228801000Y-110998000D03*
%TO.P,J27,5,Pin_5*%
%TO.N,+3V3A*%
X228801000Y-109748000D03*
%TO.P,J27,6,Pin_6*%
%TO.N,GNDA*%
X228801000Y-108498000D03*
%TD*%
D12*
%TO.P,J22,1,Pin_1*%
%TO.N,GND*%
X227330000Y-146287820D03*
D13*
%TO.P,J22,2,Pin_2*%
%TO.N,/Power Supply/+V_DC*%
X227330000Y-143747820D03*
%TD*%
D10*
%TO.P,J13,1,Pin_1*%
%TO.N,GND*%
X194945000Y-176530000D03*
D11*
%TO.P,J13,2,Pin_2*%
%TO.N,Net-(D11-K)*%
X197485000Y-176530000D03*
%TD*%
D14*
%TO.P,TP5,1,1*%
%TO.N,/CANRX*%
X220218000Y-127381000D03*
%TD*%
D10*
%TO.P,J11,1,Pin_1*%
%TO.N,GND*%
X187325000Y-176530000D03*
D11*
%TO.P,J11,2,Pin_2*%
%TO.N,Net-(D9-K)*%
X189865000Y-176530000D03*
%TD*%
D14*
%TO.P,TP7,1,1*%
%TO.N,GNDA*%
X224028000Y-106349800D03*
%TD*%
D12*
%TO.P,J24,1,Pin_1*%
%TO.N,GND*%
X227330000Y-161527820D03*
D13*
%TO.P,J24,2,Pin_2*%
%TO.N,Net-(D20-K)*%
X227330000Y-158987820D03*
%TD*%
D12*
%TO.P,J19,1,Pin_1*%
%TO.N,/CAN_L*%
X227330000Y-123427820D03*
D13*
%TO.P,J19,2,Pin_2*%
%TO.N,/CAN_H*%
X227330000Y-120887820D03*
%TD*%
D12*
%TO.P,J5,1,Pin_1*%
%TO.N,GND*%
X180411590Y-128518311D03*
D13*
%TO.P,J5,2,Pin_2*%
%TO.N,Net-(D3-K)*%
X180411590Y-131058311D03*
%TD*%
D10*
%TO.P,J14,1,Pin_1*%
%TO.N,GND*%
X202565000Y-176530000D03*
D11*
%TO.P,J14,2,Pin_2*%
%TO.N,Net-(D12-K)*%
X205105000Y-176530000D03*
%TD*%
D21*
%TO.P,J26,1,Pin_1*%
%TO.N,Net-(J26-Pin_1)*%
X228801000Y-103455000D03*
D22*
%TO.P,J26,2,Pin_2*%
%TO.N,+3V3A*%
X228801000Y-102205000D03*
%TO.P,J26,3,Pin_3*%
%TO.N,GNDA*%
X228801000Y-100955000D03*
%TO.P,J26,4,Pin_4*%
%TO.N,Net-(J26-Pin_4)*%
X228801000Y-99705000D03*
%TO.P,J26,5,Pin_5*%
%TO.N,+3V3A*%
X228801000Y-98455000D03*
%TO.P,J26,6,Pin_6*%
%TO.N,GNDA*%
X228801000Y-97205000D03*
%TD*%
D12*
%TO.P,J4,1,Pin_1*%
%TO.N,GND*%
X180411590Y-120898311D03*
D13*
%TO.P,J4,2,Pin_2*%
%TO.N,Net-(D2-K)*%
X180411590Y-123438311D03*
%TD*%
D12*
%TO.P,J10,1,Pin_1*%
%TO.N,GND*%
X180340000Y-166607820D03*
D13*
%TO.P,J10,2,Pin_2*%
%TO.N,Net-(D8-K)*%
X180340000Y-169147820D03*
%TD*%
D12*
%TO.P,J1,1,Pin_1*%
%TO.N,GND*%
X180411590Y-82798311D03*
D13*
%TO.P,J1,2,Pin_2*%
%TO.N,/Encoder Inputs/ENC_VCC*%
X180411590Y-85338311D03*
%TO.P,J1,3,Pin_3*%
%TO.N,Net-(J1-Pin_3)*%
X180411590Y-87878311D03*
%TO.P,J1,4,Pin_4*%
%TO.N,Net-(J1-Pin_4)*%
X180411590Y-90418311D03*
%TO.P,J1,5,Pin_5*%
%TO.N,Net-(J1-Pin_5)*%
X180411590Y-92958311D03*
%TD*%
D10*
%TO.P,J16,1,Pin_1*%
%TO.N,GND*%
X217805000Y-176530000D03*
D11*
%TO.P,J16,2,Pin_2*%
%TO.N,Net-(D15-K)*%
X220345000Y-176530000D03*
%TD*%
D12*
%TO.P,J20,1,Pin_1*%
%TO.N,/CAN_L*%
X227330000Y-131047820D03*
D13*
%TO.P,J20,2,Pin_2*%
%TO.N,/CAN_H*%
X227330000Y-128507820D03*
%TD*%
D12*
%TO.P,J9,1,Pin_1*%
%TO.N,GND*%
X180340000Y-158987820D03*
D13*
%TO.P,J9,2,Pin_2*%
%TO.N,Net-(D7-K)*%
X180340000Y-161527820D03*
%TD*%
D12*
%TO.P,J12,1,Pin_1*%
%TO.N,GND*%
X188595000Y-73660000D03*
D13*
%TO.P,J12,2,Pin_2*%
%TO.N,Net-(J12-Pin_2)*%
X188595000Y-76200000D03*
%TO.P,J12,3,Pin_3*%
%TO.N,GND*%
X188595000Y-78740000D03*
%TO.P,J12,4,Pin_4*%
%TO.N,Net-(J12-Pin_4)*%
X188595000Y-81280000D03*
%TD*%
D14*
%TO.P,TP3,1,1*%
%TO.N,Net-(D16-K)*%
X204343000Y-149606000D03*
%TD*%
D12*
%TO.P,J18,1,Pin_1*%
%TO.N,GND*%
X227330000Y-90805000D03*
D13*
%TO.P,J18,2,Pin_2*%
%TO.N,/Encoder Inputs/ENC_VCC*%
X227330000Y-88265000D03*
%TO.P,J18,3,Pin_3*%
%TO.N,Net-(J18-Pin_3)*%
X227330000Y-85725000D03*
%TO.P,J18,4,Pin_4*%
%TO.N,Net-(J18-Pin_4)*%
X227330000Y-83185000D03*
%TO.P,J18,5,Pin_5*%
%TO.N,Net-(J18-Pin_5)*%
X227330000Y-80645000D03*
%TD*%
D12*
%TO.P,J25,1,Pin_1*%
%TO.N,GND*%
X227330000Y-169147820D03*
D13*
%TO.P,J25,2,Pin_2*%
%TO.N,Net-(D21-K)*%
X227330000Y-166607820D03*
%TD*%
D23*
%TO.P,R41,1*%
%TO.N,GNDA*%
X223028000Y-103378000D03*
%TO.P,R41,2*%
%TO.N,Net-(J26-Pin_1)*%
X225028000Y-103378000D03*
%TD*%
%TO.P,R59,1*%
%TO.N,+3V3*%
X206645000Y-99187000D03*
%TO.P,R59,2*%
%TO.N,Net-(A1-RUN)*%
X208645000Y-99187000D03*
%TD*%
%TO.P,R75,1*%
%TO.N,Net-(D2-K)*%
X184928000Y-121158000D03*
%TO.P,R75,2*%
%TO.N,Net-(U1-D1)*%
X186928000Y-121158000D03*
%TD*%
D24*
%TO.P,C35,1*%
%TO.N,Net-(D2-K)*%
X184890500Y-123190000D03*
%TO.P,C35,2*%
%TO.N,GND*%
X186965500Y-123190000D03*
%TD*%
D25*
%TO.P,C15,1*%
%TO.N,Net-(D15-K)*%
X221107000Y-171913500D03*
%TO.P,C15,2*%
%TO.N,GND*%
X221107000Y-169838500D03*
%TD*%
D26*
%TO.P,Q2,1,G*%
%TO.N,Net-(D22-K)*%
X210469500Y-142682000D03*
%TO.P,Q2,2,S*%
%TO.N,GND*%
X210469500Y-140782000D03*
%TO.P,Q2,3,D*%
%TO.N,Net-(Q2-D)*%
X212744500Y-141732000D03*
%TD*%
D27*
%TO.P,R74,1*%
%TO.N,+3V3*%
X186928000Y-117602000D03*
%TO.P,R74,2*%
%TO.N,Net-(D1-K)*%
X184928000Y-117602000D03*
%TD*%
%TO.P,R68,1*%
%TO.N,GND*%
X188960000Y-95504000D03*
%TO.P,R68,2*%
%TO.N,Net-(J1-Pin_4)*%
X186960000Y-95504000D03*
%TD*%
%TO.P,R67,1*%
%TO.N,GND*%
X188960000Y-93472000D03*
%TO.P,R67,2*%
%TO.N,Net-(J1-Pin_3)*%
X186960000Y-93472000D03*
%TD*%
D24*
%TO.P,C11,1*%
%TO.N,/X0_ADC*%
X222990500Y-112649000D03*
%TO.P,C11,2*%
%TO.N,GNDA*%
X225065500Y-112649000D03*
%TD*%
D28*
%TO.P,C12,1*%
%TO.N,Net-(D19-K)*%
X223033500Y-153162000D03*
%TO.P,C12,2*%
%TO.N,GND*%
X220958500Y-153162000D03*
%TD*%
D23*
%TO.P,R83,1*%
%TO.N,Net-(D6-K)*%
X184928000Y-151638000D03*
%TO.P,R83,2*%
%TO.N,Net-(U1-D5)*%
X186928000Y-151638000D03*
%TD*%
D24*
%TO.P,C21,1*%
%TO.N,+3V3A*%
X217656500Y-100330000D03*
%TO.P,C21,2*%
%TO.N,GNDA*%
X219731500Y-100330000D03*
%TD*%
D25*
%TO.P,C28,1*%
%TO.N,Net-(D12-K)*%
X201803000Y-171913500D03*
%TO.P,C28,2*%
%TO.N,GND*%
X201803000Y-169838500D03*
%TD*%
D28*
%TO.P,C19,1*%
%TO.N,+3V3A*%
X221509500Y-92075000D03*
%TO.P,C19,2*%
%TO.N,GNDA*%
X219434500Y-92075000D03*
%TD*%
D27*
%TO.P,R72,1*%
%TO.N,GND*%
X188960000Y-107696000D03*
%TO.P,R72,2*%
%TO.N,Net-(J2-Pin_5)*%
X186960000Y-107696000D03*
%TD*%
D29*
%TO.P,R64,1*%
%TO.N,+3V3*%
X196215000Y-169876000D03*
%TO.P,R64,2*%
%TO.N,Net-(D11-K)*%
X196215000Y-171876000D03*
%TD*%
D27*
%TO.P,R56,1*%
%TO.N,GND*%
X212607000Y-146558000D03*
%TO.P,R56,2*%
%TO.N,Net-(D22-K)*%
X210607000Y-146558000D03*
%TD*%
D26*
%TO.P,D23,1,A*%
%TO.N,Net-(D13-K)*%
X207269500Y-151318000D03*
%TO.P,D23,2*%
%TO.N,N/C*%
X207269500Y-149418000D03*
%TO.P,D23,3,K*%
%TO.N,Net-(D23-K)*%
X209544500Y-150368000D03*
%TD*%
D30*
%TO.P,D22,1,A*%
%TO.N,GND*%
X215894500Y-149418000D03*
%TO.P,D22,2*%
%TO.N,N/C*%
X215894500Y-151318000D03*
%TO.P,D22,3,K*%
%TO.N,Net-(D22-K)*%
X213619500Y-150368000D03*
%TD*%
D28*
%TO.P,C29,1*%
%TO.N,Net-(U2-BOOT)*%
X200427500Y-141732000D03*
%TO.P,C29,2*%
%TO.N,Net-(U2-SW)*%
X198352500Y-141732000D03*
%TD*%
D31*
%TO.P,C27,1*%
%TO.N,Net-(D10-A)*%
X204520800Y-138611700D03*
%TO.P,C27,2*%
%TO.N,Net-(U2-FB)*%
X204520800Y-140686700D03*
%TD*%
D27*
%TO.P,R84,1*%
%TO.N,+3V3*%
X186928000Y-155702000D03*
%TO.P,R84,2*%
%TO.N,Net-(D6-K)*%
X184928000Y-155702000D03*
%TD*%
D28*
%TO.P,C18,1*%
%TO.N,+3V3A*%
X221509500Y-90043000D03*
%TO.P,C18,2*%
%TO.N,GNDA*%
X219434500Y-90043000D03*
%TD*%
D29*
%TO.P,R62,1*%
%TO.N,Net-(D10-A)*%
X202488800Y-138649200D03*
%TO.P,R62,2*%
%TO.N,Net-(U2-FB)*%
X202488800Y-140649200D03*
%TD*%
D28*
%TO.P,C23,1*%
%TO.N,+3V3*%
X214397500Y-135487500D03*
%TO.P,C23,2*%
%TO.N,GND*%
X212322500Y-135487500D03*
%TD*%
D23*
%TO.P,R73,1*%
%TO.N,Net-(D1-K)*%
X184928000Y-113538000D03*
%TO.P,R73,2*%
%TO.N,Net-(U1-D0)*%
X186928000Y-113538000D03*
%TD*%
D24*
%TO.P,C34,1*%
%TO.N,Net-(D1-K)*%
X184890500Y-115570000D03*
%TO.P,C34,2*%
%TO.N,GND*%
X186965500Y-115570000D03*
%TD*%
D32*
%TO.P,R55,1*%
%TO.N,Net-(D14-K)*%
X213487000Y-171876000D03*
%TO.P,R55,2*%
%TO.N,Net-(U3-D3)*%
X213487000Y-169876000D03*
%TD*%
D29*
%TO.P,R66,1*%
%TO.N,+3V3*%
X188595000Y-169876000D03*
%TO.P,R66,2*%
%TO.N,Net-(D9-K)*%
X188595000Y-171876000D03*
%TD*%
D23*
%TO.P,R77,1*%
%TO.N,Net-(D3-K)*%
X184928000Y-128778000D03*
%TO.P,R77,2*%
%TO.N,Net-(U1-D2)*%
X186928000Y-128778000D03*
%TD*%
D24*
%TO.P,C41,1*%
%TO.N,Net-(D8-K)*%
X184890500Y-165862000D03*
%TO.P,C41,2*%
%TO.N,GND*%
X186965500Y-165862000D03*
%TD*%
D32*
%TO.P,R63,1*%
%TO.N,Net-(D11-K)*%
X198247000Y-171876000D03*
%TO.P,R63,2*%
%TO.N,Net-(U3-D1)*%
X198247000Y-169876000D03*
%TD*%
D23*
%TO.P,R85,1*%
%TO.N,Net-(D7-K)*%
X184928000Y-157734000D03*
%TO.P,R85,2*%
%TO.N,Net-(U1-D6)*%
X186928000Y-157734000D03*
%TD*%
D27*
%TO.P,R88,1*%
%TO.N,+3V3*%
X186928000Y-167894000D03*
%TO.P,R88,2*%
%TO.N,Net-(D8-K)*%
X184928000Y-167894000D03*
%TD*%
%TO.P,R69,1*%
%TO.N,GND*%
X188960000Y-97536000D03*
%TO.P,R69,2*%
%TO.N,Net-(J1-Pin_5)*%
X186960000Y-97536000D03*
%TD*%
%TO.P,R76,1*%
%TO.N,+3V3*%
X186928000Y-125222000D03*
%TO.P,R76,2*%
%TO.N,Net-(D2-K)*%
X184928000Y-125222000D03*
%TD*%
%TO.P,R45,1*%
%TO.N,Net-(D19-K)*%
X222996000Y-155194000D03*
%TO.P,R45,2*%
%TO.N,Net-(U3-D7)*%
X220996000Y-155194000D03*
%TD*%
D25*
%TO.P,C30,1*%
%TO.N,Net-(D11-K)*%
X194183000Y-171913500D03*
%TO.P,C30,2*%
%TO.N,GND*%
X194183000Y-169838500D03*
%TD*%
D33*
%TO.P,FID5,*%
%TO.N,*%
X183845200Y-173050200D03*
%TD*%
D24*
%TO.P,C40,1*%
%TO.N,Net-(D7-K)*%
X184890500Y-159766000D03*
%TO.P,C40,2*%
%TO.N,GND*%
X186965500Y-159766000D03*
%TD*%
D27*
%TO.P,R48,1*%
%TO.N,Net-(D21-K)*%
X222996000Y-163322000D03*
%TO.P,R48,2*%
%TO.N,Net-(U3-D5)*%
X220996000Y-163322000D03*
%TD*%
%TO.P,R47,1*%
%TO.N,Net-(D20-K)*%
X222996000Y-161290000D03*
%TO.P,R47,2*%
%TO.N,Net-(U3-D6)*%
X220996000Y-161290000D03*
%TD*%
D23*
%TO.P,R81,1*%
%TO.N,Net-(D5-K)*%
X184928000Y-144018000D03*
%TO.P,R81,2*%
%TO.N,Net-(U1-D4)*%
X186928000Y-144018000D03*
%TD*%
D27*
%TO.P,R78,1*%
%TO.N,+3V3*%
X186928000Y-132842000D03*
%TO.P,R78,2*%
%TO.N,Net-(D3-K)*%
X184928000Y-132842000D03*
%TD*%
D23*
%TO.P,R50,1*%
%TO.N,GND*%
X219472000Y-79883000D03*
%TO.P,R50,2*%
%TO.N,Net-(J18-Pin_5)*%
X221472000Y-79883000D03*
%TD*%
D28*
%TO.P,C26,1*%
%TO.N,Net-(A1-RUN)*%
X208682500Y-97155000D03*
%TO.P,C26,2*%
%TO.N,GND*%
X206607500Y-97155000D03*
%TD*%
D24*
%TO.P,C17,1*%
%TO.N,Net-(U9-EN)*%
X219434500Y-88011000D03*
%TO.P,C17,2*%
%TO.N,GNDA*%
X221509500Y-88011000D03*
%TD*%
D23*
%TO.P,R79,1*%
%TO.N,Net-(D4-K)*%
X184928000Y-136398000D03*
%TO.P,R79,2*%
%TO.N,Net-(U1-D3)*%
X186928000Y-136398000D03*
%TD*%
D24*
%TO.P,C32,1*%
%TO.N,Net-(J12-Pin_2)*%
X186922500Y-89408000D03*
%TO.P,C32,2*%
%TO.N,GND*%
X188997500Y-89408000D03*
%TD*%
D23*
%TO.P,R44,1*%
%TO.N,+3V3*%
X220996000Y-151130000D03*
%TO.P,R44,2*%
%TO.N,Net-(D19-K)*%
X222996000Y-151130000D03*
%TD*%
D32*
%TO.P,R60,1*%
%TO.N,Net-(D12-K)*%
X205867000Y-171876000D03*
%TO.P,R60,2*%
%TO.N,Net-(U3-D2)*%
X205867000Y-169876000D03*
%TD*%
%TO.P,R54,1*%
%TO.N,Net-(D15-K)*%
X217043000Y-171876000D03*
%TO.P,R54,2*%
%TO.N,Net-(U3-D4)*%
X217043000Y-169876000D03*
%TD*%
D28*
%TO.P,C16,1*%
%TO.N,+5V*%
X221509500Y-85979000D03*
%TO.P,C16,2*%
%TO.N,GND*%
X219434500Y-85979000D03*
%TD*%
D34*
%TO.P,C24,1*%
%TO.N,Net-(D16-K)*%
X210019500Y-138684000D03*
%TO.P,C24,2*%
%TO.N,GND*%
X213144500Y-138684000D03*
%TD*%
D29*
%TO.P,R53,1*%
%TO.N,+3V3*%
X219075000Y-169876000D03*
%TO.P,R53,2*%
%TO.N,Net-(D15-K)*%
X219075000Y-171876000D03*
%TD*%
D33*
%TO.P,FID4,*%
%TO.N,*%
X222910400Y-179044600D03*
%TD*%
D23*
%TO.P,R42,1*%
%TO.N,GNDA*%
X223028000Y-110617000D03*
%TO.P,R42,2*%
%TO.N,Net-(J27-Pin_4)*%
X225028000Y-110617000D03*
%TD*%
D33*
%TO.P,FID6,*%
%TO.N,*%
X180467000Y-78232000D03*
%TD*%
D23*
%TO.P,R49,1*%
%TO.N,+3V3*%
X220996000Y-165354000D03*
%TO.P,R49,2*%
%TO.N,Net-(D21-K)*%
X222996000Y-165354000D03*
%TD*%
D24*
%TO.P,C37,1*%
%TO.N,Net-(D4-K)*%
X184890500Y-138430000D03*
%TO.P,C37,2*%
%TO.N,GND*%
X186965500Y-138430000D03*
%TD*%
D23*
%TO.P,R52,1*%
%TO.N,GND*%
X219472000Y-83947000D03*
%TO.P,R52,2*%
%TO.N,Net-(J18-Pin_3)*%
X221472000Y-83947000D03*
%TD*%
D25*
%TO.P,C25,1*%
%TO.N,Net-(D14-K)*%
X209423000Y-171913500D03*
%TO.P,C25,2*%
%TO.N,GND*%
X209423000Y-169838500D03*
%TD*%
D27*
%TO.P,R86,1*%
%TO.N,+3V3*%
X186928000Y-161798000D03*
%TO.P,R86,2*%
%TO.N,Net-(D7-K)*%
X184928000Y-161798000D03*
%TD*%
D24*
%TO.P,C38,1*%
%TO.N,Net-(D5-K)*%
X184890500Y-146050000D03*
%TO.P,C38,2*%
%TO.N,GND*%
X186965500Y-146050000D03*
%TD*%
D27*
%TO.P,R80,1*%
%TO.N,+3V3*%
X186928000Y-140462000D03*
%TO.P,R80,2*%
%TO.N,Net-(D4-K)*%
X184928000Y-140462000D03*
%TD*%
D32*
%TO.P,R65,1*%
%TO.N,Net-(D9-K)*%
X190627000Y-171876000D03*
%TO.P,R65,2*%
%TO.N,Net-(U3-D0)*%
X190627000Y-169876000D03*
%TD*%
D25*
%TO.P,C20,1*%
%TO.N,+3V3*%
X220472000Y-133400800D03*
%TO.P,C20,2*%
%TO.N,GND*%
X220472000Y-131325800D03*
%TD*%
D24*
%TO.P,C31,1*%
%TO.N,Net-(J12-Pin_4)*%
X186922500Y-85344000D03*
%TO.P,C31,2*%
%TO.N,GND*%
X188997500Y-85344000D03*
%TD*%
D23*
%TO.P,R51,1*%
%TO.N,GND*%
X219472000Y-81915000D03*
%TO.P,R51,2*%
%TO.N,Net-(J18-Pin_4)*%
X221472000Y-81915000D03*
%TD*%
D24*
%TO.P,C36,1*%
%TO.N,Net-(D3-K)*%
X184890500Y-130810000D03*
%TO.P,C36,2*%
%TO.N,GND*%
X186965500Y-130810000D03*
%TD*%
D25*
%TO.P,C22,1*%
%TO.N,+5V*%
X218440000Y-133400800D03*
%TO.P,C22,2*%
%TO.N,GND*%
X218440000Y-131325800D03*
%TD*%
D23*
%TO.P,R46,1*%
%TO.N,+3V3*%
X220996000Y-157226000D03*
%TO.P,R46,2*%
%TO.N,Net-(D20-K)*%
X222996000Y-157226000D03*
%TD*%
D24*
%TO.P,C10,1*%
%TO.N,Net-(C10-Pad1)*%
X222990500Y-99314000D03*
%TO.P,C10,2*%
%TO.N,GNDA*%
X225065500Y-99314000D03*
%TD*%
D27*
%TO.P,R82,1*%
%TO.N,+3V3*%
X186928000Y-148082000D03*
%TO.P,R82,2*%
%TO.N,Net-(D5-K)*%
X184928000Y-148082000D03*
%TD*%
D23*
%TO.P,R43,1*%
%TO.N,GNDA*%
X223028000Y-114681000D03*
%TO.P,R43,2*%
%TO.N,Net-(J27-Pin_1)*%
X225028000Y-114681000D03*
%TD*%
D27*
%TO.P,R71,1*%
%TO.N,GND*%
X188960000Y-105664000D03*
%TO.P,R71,2*%
%TO.N,Net-(J2-Pin_4)*%
X186960000Y-105664000D03*
%TD*%
D29*
%TO.P,R58,1*%
%TO.N,+3V3*%
X211455000Y-169876000D03*
%TO.P,R58,2*%
%TO.N,Net-(D14-K)*%
X211455000Y-171876000D03*
%TD*%
D28*
%TO.P,C14,1*%
%TO.N,Net-(D21-K)*%
X223033500Y-167386000D03*
%TO.P,C14,2*%
%TO.N,GND*%
X220958500Y-167386000D03*
%TD*%
D24*
%TO.P,C39,1*%
%TO.N,Net-(D6-K)*%
X184890500Y-153670000D03*
%TO.P,C39,2*%
%TO.N,GND*%
X186965500Y-153670000D03*
%TD*%
D23*
%TO.P,R57,1*%
%TO.N,Net-(D23-K)*%
X210607000Y-148590000D03*
%TO.P,R57,2*%
%TO.N,Net-(D18-K)*%
X212607000Y-148590000D03*
%TD*%
D25*
%TO.P,C33,1*%
%TO.N,Net-(D9-K)*%
X186563000Y-171913500D03*
%TO.P,C33,2*%
%TO.N,GND*%
X186563000Y-169838500D03*
%TD*%
D23*
%TO.P,R87,1*%
%TO.N,Net-(D8-K)*%
X184928000Y-163830000D03*
%TO.P,R87,2*%
%TO.N,Net-(U1-D7)*%
X186928000Y-163830000D03*
%TD*%
D27*
%TO.P,R70,1*%
%TO.N,GND*%
X188960000Y-103632000D03*
%TO.P,R70,2*%
%TO.N,Net-(J2-Pin_3)*%
X186960000Y-103632000D03*
%TD*%
D28*
%TO.P,C13,1*%
%TO.N,Net-(D20-K)*%
X223033500Y-159258000D03*
%TO.P,C13,2*%
%TO.N,GND*%
X220958500Y-159258000D03*
%TD*%
D23*
%TO.P,R40,1*%
%TO.N,GNDA*%
X223028000Y-101346000D03*
%TO.P,R40,2*%
%TO.N,Net-(J26-Pin_4)*%
X225028000Y-101346000D03*
%TD*%
D29*
%TO.P,R61,1*%
%TO.N,+3V3*%
X203835000Y-169876000D03*
%TO.P,R61,2*%
%TO.N,Net-(D12-K)*%
X203835000Y-171876000D03*
%TD*%
D35*
%TO.N,/BUTTON_MISO*%
X194462400Y-150876000D03*
%TO.N,GND*%
X201803000Y-168529000D03*
X214604600Y-138734800D03*
X215849200Y-148361400D03*
X198221600Y-144576800D03*
X210058000Y-124206000D03*
X217838857Y-85171824D03*
X217906600Y-80899000D03*
X209423000Y-168452800D03*
X194208400Y-168554400D03*
X188544200Y-123215400D03*
X219329000Y-159181800D03*
X198272400Y-139750800D03*
X206629000Y-153212800D03*
X190601600Y-96596200D03*
X188342500Y-115586492D03*
X190487944Y-89802344D03*
X189231499Y-153770775D03*
X195757800Y-153289000D03*
X212330949Y-137096000D03*
X219303600Y-153187400D03*
X190509275Y-86183777D03*
X211855082Y-140544518D03*
X217093800Y-153238200D03*
X200558400Y-156438600D03*
X218567000Y-130022600D03*
X213258400Y-156464000D03*
X206070200Y-130429000D03*
X195376800Y-164058600D03*
X220421200Y-130022600D03*
X188595000Y-159893000D03*
X214179118Y-146869118D03*
X188569600Y-130759200D03*
X208076800Y-164109400D03*
X207264000Y-148361400D03*
X205282800Y-97180400D03*
X188341000Y-165836600D03*
X184683400Y-170891200D03*
X223082403Y-171652209D03*
X188468000Y-145999200D03*
X189306200Y-138379200D03*
X190728600Y-106680000D03*
%TO.N,/~{CAN_IRQ}*%
X212723838Y-132436762D03*
%TO.N,/~{BUTTON_LD}*%
X195529200Y-155194000D03*
X204038200Y-155371800D03*
%TO.N,/~{CAN_TX_IRQ}*%
X198755000Y-117602000D03*
%TO.N,+5V*%
X222885000Y-86004400D03*
X218465400Y-134899400D03*
%TO.N,+3V3A*%
X215799400Y-100330000D03*
X223469200Y-92049600D03*
%TO.N,GNDA*%
X221030800Y-97434400D03*
X221325276Y-115363949D03*
X220541882Y-110724918D03*
X226568000Y-112649000D03*
X217703400Y-90779600D03*
X221538800Y-100330000D03*
X226415600Y-98425000D03*
X221056200Y-103251000D03*
X222834200Y-88036400D03*
%TO.N,/~{CAN_RX_IRQ}*%
X205994000Y-135407400D03*
%TO.N,+3V3*%
X190449200Y-87325200D03*
X206095600Y-127609600D03*
X188315600Y-117627400D03*
X188468000Y-125222000D03*
X188366400Y-132842000D03*
X204851000Y-167157400D03*
X211632800Y-154152600D03*
X205308200Y-99187000D03*
X187369418Y-141966982D03*
X188468000Y-148082000D03*
X219303600Y-165354000D03*
X211785200Y-167030400D03*
X213487000Y-126441200D03*
X219227400Y-151104600D03*
X189611000Y-166293800D03*
X190322200Y-91465400D03*
X219506800Y-157175200D03*
X200533000Y-155194000D03*
X200482200Y-153314400D03*
X188772800Y-161874200D03*
X215798400Y-135483600D03*
X220522800Y-134848600D03*
X188391800Y-156159200D03*
X197231000Y-168427400D03*
%TO.N,/ADC3{slash}~{ADC2}*%
X216154000Y-103251000D03*
%TO.N,/ENC0_A*%
X202374500Y-79184500D03*
X215138000Y-81534000D03*
%TO.N,/ENC0_B*%
X199751918Y-75304682D03*
%TO.N,/SPI0_MISO*%
X210312000Y-113588800D03*
%TO.N,/BUTTON_SCK*%
X204114400Y-156565600D03*
X195580000Y-156438600D03*
%TO.N,/X0_ADC*%
X220353000Y-112006000D03*
%TO.N,/XCVR_STBY*%
X208254600Y-121666000D03*
%TO.N,/ENC0_PWM*%
X204063600Y-75584500D03*
%TO.N,/~{SPI0_CS}*%
X209035618Y-116122418D03*
%TO.N,Net-(D10-A)*%
X195707000Y-137566400D03*
%TO.N,Net-(U9-EN)*%
X217838518Y-88011000D03*
%TO.N,Net-(C10-Pad1)*%
X221538800Y-99186997D03*
%TO.N,Net-(D16-K)*%
X216916000Y-145542000D03*
X216509600Y-142722600D03*
X206603600Y-141732000D03*
%TO.N,Net-(U2-FB)*%
X202488800Y-142697200D03*
%TO.N,Net-(U2-BOOT)*%
X200533000Y-139750800D03*
%TO.N,Net-(U2-SW)*%
X195402200Y-141732000D03*
%TO.N,Net-(J12-Pin_4)*%
X185318400Y-87376000D03*
%TO.N,Net-(J12-Pin_2)*%
X185521600Y-89408000D03*
%TO.N,Net-(D13-K)*%
X210870800Y-151318000D03*
%TO.N,Net-(D18-K)*%
X215646000Y-147066000D03*
%TO.N,Net-(D22-K)*%
X212217000Y-150368000D03*
X209067400Y-146532600D03*
%TO.N,Net-(J1-Pin_4)*%
X185497279Y-95504000D03*
%TO.N,Net-(J1-Pin_5)*%
X185445400Y-97536000D03*
%TO.N,Net-(J1-Pin_3)*%
X185623200Y-93472000D03*
%TO.N,Net-(J2-Pin_5)*%
X185572400Y-107696000D03*
%TO.N,Net-(J2-Pin_4)*%
X185521600Y-105658311D03*
%TO.N,Net-(J2-Pin_3)*%
X185521600Y-103632000D03*
%TO.N,Net-(J18-Pin_5)*%
X222885000Y-79883000D03*
%TO.N,Net-(J18-Pin_3)*%
X222885000Y-83947000D03*
%TO.N,Net-(J18-Pin_4)*%
X222885000Y-81915000D03*
%TO.N,Net-(Q2-D)*%
X213029800Y-140487400D03*
%TO.N,Net-(U3-D7)*%
X204368400Y-158191200D03*
%TO.N,Net-(U3-D6)*%
X208229200Y-160274000D03*
%TO.N,Net-(U3-D5)*%
X208991200Y-158115000D03*
%TO.N,Net-(U3-D4)*%
X208965800Y-156870400D03*
%TO.N,Net-(U3-D3)*%
X213487000Y-167716200D03*
%TO.N,Net-(U3-D2)*%
X213592417Y-161963205D03*
%TO.N,Net-(U3-D1)*%
X209956400Y-160274000D03*
%TO.N,Net-(U3-D0)*%
X209804000Y-161544000D03*
%TO.N,Net-(U1-D0)*%
X196164200Y-160934400D03*
%TO.N,Net-(U1-D1)*%
X197027800Y-160045400D03*
%TO.N,Net-(U1-D2)*%
X188342500Y-128828800D03*
X190931799Y-152006235D03*
X197002400Y-158521400D03*
%TO.N,Net-(U1-D3)*%
X188417200Y-136398000D03*
%TO.N,Net-(U1-D4)*%
X188342500Y-144068800D03*
%TO.N,Net-(U1-D5)*%
X188468000Y-151638000D03*
%TO.N,Net-(U1-D6)*%
X188315600Y-157734000D03*
%TO.N,/CANRX*%
X214237710Y-133081890D03*
%TO.N,Net-(U1-D7)*%
X188315600Y-163830000D03*
%TD*%
D36*
%TO.N,/BUTTON_MISO*%
X194056000Y-150876000D02*
X192380600Y-149200600D01*
X192380600Y-149200600D02*
X192380600Y-112419400D01*
X194462400Y-150876000D02*
X194056000Y-150876000D01*
X192380600Y-112419400D02*
X194945000Y-109855000D01*
%TO.N,GND*%
X210469500Y-140782000D02*
X211617600Y-140782000D01*
X218440000Y-131325800D02*
X218440000Y-130149600D01*
X218440000Y-130149600D02*
X218567000Y-130022600D01*
X206607500Y-97155000D02*
X205308200Y-97155000D01*
X220472000Y-131325800D02*
X220472000Y-130073400D01*
X190449200Y-86123702D02*
X190509275Y-86183777D01*
X186965500Y-115570000D02*
X188326008Y-115570000D01*
X218567000Y-83947000D02*
X219472000Y-83947000D01*
X188960000Y-95504000D02*
X190576200Y-95504000D01*
X201803000Y-169838500D02*
X201803000Y-168529000D01*
X190500000Y-107696000D02*
X190728600Y-107467400D01*
X194183000Y-168579800D02*
X194208400Y-168554400D01*
D37*
X213144500Y-138684000D02*
X214553800Y-138684000D01*
D36*
X188960000Y-105664000D02*
X190728600Y-105664000D01*
X218287600Y-79883000D02*
X219472000Y-79883000D01*
X190576200Y-95504000D02*
X190601600Y-95529400D01*
X218109800Y-85979000D02*
X217838857Y-85708057D01*
X220958500Y-153162000D02*
X219329000Y-153162000D01*
X217838857Y-85708057D02*
X217838857Y-85171824D01*
X190728600Y-105664000D02*
X190728600Y-104216200D01*
X217906600Y-80899000D02*
X217906600Y-83286600D01*
X188960000Y-97536000D02*
X190068200Y-97536000D01*
X186965500Y-130810000D02*
X188518800Y-130810000D01*
X212607000Y-146558000D02*
X213868000Y-146558000D01*
X188997500Y-85344000D02*
X190119000Y-85344000D01*
X211617600Y-140782000D02*
X211855082Y-140544518D01*
X190144400Y-103632000D02*
X188960000Y-103632000D01*
X190728600Y-107467400D02*
X190728600Y-106680000D01*
X188441775Y-153770775D02*
X188341000Y-153670000D01*
X190093600Y-89408000D02*
X190487944Y-89802344D01*
X220958500Y-159258000D02*
X219405200Y-159258000D01*
X190068200Y-97536000D02*
X190601600Y-97002600D01*
X190144400Y-93472000D02*
X188960000Y-93472000D01*
X184683400Y-170357800D02*
X184683400Y-170891200D01*
X186965500Y-159766000D02*
X188468000Y-159766000D01*
X188518800Y-130810000D02*
X188569600Y-130759200D01*
X205308200Y-97155000D02*
X205282800Y-97180400D01*
D38*
X214553800Y-138684000D02*
X214604600Y-138734800D01*
D36*
X188341000Y-153670000D02*
X186965500Y-153670000D01*
X209423000Y-169838500D02*
X209423000Y-168452800D01*
X188468000Y-159766000D02*
X188595000Y-159893000D01*
X190601600Y-93929200D02*
X190144400Y-93472000D01*
X189231499Y-153770775D02*
X188441775Y-153770775D01*
X217906600Y-80899000D02*
X217906600Y-80264000D01*
X190119000Y-85344000D02*
X190449200Y-85674200D01*
X217906600Y-80899000D02*
X217906600Y-81813400D01*
X220980000Y-168757600D02*
X221107000Y-168884600D01*
X221107000Y-169838500D02*
X222416500Y-169838500D01*
X217906600Y-83286600D02*
X218567000Y-83947000D01*
X188326008Y-115570000D02*
X188342500Y-115586492D01*
X220958500Y-168753700D02*
X220954600Y-168757600D01*
X219434500Y-85979000D02*
X218109800Y-85979000D01*
X221107000Y-168884600D02*
X221107000Y-169838500D01*
X219329000Y-153162000D02*
X219303600Y-153187400D01*
X188997500Y-89408000D02*
X190093600Y-89408000D01*
X217906600Y-81813400D02*
X218008200Y-81915000D01*
X186965500Y-146050000D02*
X188417200Y-146050000D01*
X190601600Y-96596200D02*
X190601600Y-95529400D01*
X213868000Y-146558000D02*
X214179118Y-146869118D01*
X220958500Y-167386000D02*
X220958500Y-168753700D01*
X188417200Y-146050000D02*
X188468000Y-145999200D01*
X189255400Y-138430000D02*
X189306200Y-138379200D01*
X190728600Y-104216200D02*
X190144400Y-103632000D01*
X186965500Y-138430000D02*
X189255400Y-138430000D01*
X215849200Y-148361400D02*
X215849200Y-149372700D01*
X190728600Y-106680000D02*
X190728600Y-105664000D01*
X186965500Y-123190000D02*
X188518800Y-123190000D01*
X215849200Y-149372700D02*
X215894500Y-149418000D01*
X212322500Y-135487500D02*
X212322500Y-137087551D01*
X218008200Y-81915000D02*
X219472000Y-81915000D01*
X185202700Y-169838500D02*
X184683400Y-170357800D01*
X188315600Y-165862000D02*
X188341000Y-165836600D01*
X212322500Y-137087551D02*
X212330949Y-137096000D01*
X220472000Y-130073400D02*
X220421200Y-130022600D01*
X220954600Y-168757600D02*
X220980000Y-168757600D01*
X186965500Y-165862000D02*
X188315600Y-165862000D01*
X219405200Y-159258000D02*
X219329000Y-159181800D01*
X217906600Y-80264000D02*
X218287600Y-79883000D01*
X186563000Y-169838500D02*
X185202700Y-169838500D01*
X190601600Y-97002600D02*
X190601600Y-96596200D01*
X194183000Y-169838500D02*
X194183000Y-168579800D01*
X222416500Y-169838500D02*
X223082403Y-170504403D01*
X188960000Y-107696000D02*
X190500000Y-107696000D01*
X190449200Y-85674200D02*
X190449200Y-86123702D01*
X223082403Y-170504403D02*
X223082403Y-171652209D01*
X188518800Y-123190000D02*
X188544200Y-123215400D01*
X190601600Y-95529400D02*
X190601600Y-93929200D01*
%TO.N,/~{CAN_IRQ}*%
X211201000Y-130913924D02*
X211201000Y-118999000D01*
X212723838Y-132436762D02*
X211201000Y-130913924D01*
X211201000Y-118999000D02*
X212725000Y-117475000D01*
%TO.N,/~{BUTTON_LD}*%
X202133200Y-157226000D02*
X203987400Y-155371800D01*
X193016600Y-131332960D02*
X193015600Y-131331960D01*
X198551800Y-156819600D02*
X199060800Y-157328600D01*
X193016600Y-148058600D02*
X193016600Y-131332960D01*
X194867800Y-152920349D02*
X195352400Y-152435749D01*
X194867800Y-154532600D02*
X194867800Y-152920349D01*
X196926200Y-155194000D02*
X198551800Y-156819600D01*
X202030600Y-157328600D02*
X202133200Y-157226000D01*
X193015600Y-114324400D02*
X194945000Y-112395000D01*
X195529200Y-155194000D02*
X196926200Y-155194000D01*
X203987400Y-155371800D02*
X204038200Y-155371800D01*
X195352400Y-150394400D02*
X193016600Y-148058600D01*
X195529200Y-155194000D02*
X194867800Y-154532600D01*
X193015600Y-131331960D02*
X193015600Y-114324400D01*
X199060800Y-157328600D02*
X202030600Y-157328600D01*
X195352400Y-152435749D02*
X195352400Y-150394400D01*
%TO.N,/~{CAN_TX_IRQ}*%
X198628000Y-117475000D02*
X194945000Y-117475000D01*
X198755000Y-117602000D02*
X198628000Y-117475000D01*
%TO.N,Net-(A1-RUN)*%
X208645000Y-99187000D02*
X209829400Y-99187000D01*
X210388200Y-98628200D02*
X210388200Y-97155000D01*
X210388200Y-97155000D02*
X208682500Y-97155000D01*
X209829400Y-99187000D02*
X210388200Y-98628200D01*
X212725000Y-97155000D02*
X210388200Y-97155000D01*
D37*
%TO.N,+5V*%
X224536000Y-78994000D02*
X224536000Y-84353400D01*
X212725000Y-74295000D02*
X214503000Y-74295000D01*
X215138000Y-78359000D02*
X215138000Y-76962000D01*
X214122000Y-79375000D02*
X215138000Y-78359000D01*
X221869000Y-72517000D02*
X221869000Y-76327000D01*
X217525600Y-71882000D02*
X219456000Y-71882000D01*
D36*
X222859600Y-85979000D02*
X222885000Y-86004400D01*
D37*
X221234000Y-71882000D02*
X221869000Y-72517000D01*
X219456000Y-71882000D02*
X221234000Y-71882000D01*
X214503000Y-74295000D02*
X214807800Y-74599800D01*
X214807800Y-74599800D02*
X215138000Y-74930000D01*
D36*
X218465400Y-133426200D02*
X218440000Y-133400800D01*
D37*
X214807800Y-74599800D02*
X217525600Y-71882000D01*
X212725000Y-79375000D02*
X214122000Y-79375000D01*
X215138000Y-74930000D02*
X215138000Y-76962000D01*
D36*
X221509500Y-85979000D02*
X222859600Y-85979000D01*
D37*
X224536000Y-84353400D02*
X222885000Y-86004400D01*
X221869000Y-76327000D02*
X224536000Y-78994000D01*
D36*
X218465400Y-134899400D02*
X218465400Y-133426200D01*
%TO.N,+3V3A*%
X221509500Y-92075000D02*
X223443800Y-92075000D01*
X215799400Y-100330000D02*
X217656500Y-100330000D01*
X223139000Y-90043000D02*
X223469200Y-90373200D01*
X223469200Y-90373200D02*
X223469200Y-92049600D01*
X223443800Y-92075000D02*
X223469200Y-92049600D01*
X221509500Y-90043000D02*
X223139000Y-90043000D01*
%TO.N,GNDA*%
X223028000Y-103378000D02*
X221183200Y-103378000D01*
X223028000Y-114681000D02*
X222008225Y-114681000D01*
X225065500Y-112649000D02*
X226568000Y-112649000D01*
X226161600Y-99314000D02*
X226415600Y-99060000D01*
X221509500Y-88011000D02*
X222808800Y-88011000D01*
X218059000Y-90043000D02*
X217703400Y-90398600D01*
X221996000Y-101346000D02*
X221538800Y-100888800D01*
X223028000Y-101346000D02*
X221996000Y-101346000D01*
X221538800Y-100888800D02*
X221538800Y-100330000D01*
X221183200Y-103378000D02*
X221056200Y-103251000D01*
X225065500Y-99314000D02*
X226161600Y-99314000D01*
X219731500Y-100330000D02*
X221538800Y-100330000D01*
X222808800Y-88011000D02*
X222834200Y-88036400D01*
X222008225Y-114681000D02*
X221325276Y-115363949D01*
X220649800Y-110617000D02*
X220541882Y-110724918D01*
X219434500Y-92075000D02*
X218186000Y-92075000D01*
X226415600Y-99060000D02*
X226415600Y-98425000D01*
X219434500Y-90043000D02*
X218059000Y-90043000D01*
X217703400Y-90398600D02*
X217703400Y-90779600D01*
X223028000Y-110617000D02*
X220649800Y-110617000D01*
X217703400Y-91592400D02*
X217703400Y-90779600D01*
X218186000Y-92075000D02*
X217703400Y-91592400D01*
%TO.N,/~{CAN_RX_IRQ}*%
X209092800Y-132308600D02*
X209092800Y-123240800D01*
X210489800Y-114669651D02*
X212725000Y-112434451D01*
X210489800Y-121843800D02*
X210489800Y-114669651D01*
X209092800Y-123240800D02*
X210489800Y-121843800D01*
X205994000Y-135407400D02*
X209092800Y-132308600D01*
X212725000Y-112434451D02*
X212725000Y-112395000D01*
%TO.N,+3V3*%
X204851000Y-167157400D02*
X203860400Y-168148000D01*
X219075000Y-169876000D02*
X219075000Y-165582600D01*
X186928000Y-155702000D02*
X187934600Y-155702000D01*
X211785200Y-168452800D02*
X211455000Y-168783000D01*
X196215000Y-169876000D02*
X196215000Y-168808400D01*
X187934600Y-155702000D02*
X188391800Y-156159200D01*
X186928000Y-132842000D02*
X188366400Y-132842000D01*
X186928000Y-141525564D02*
X187369418Y-141966982D01*
X219252800Y-151130000D02*
X219227400Y-151104600D01*
X219075000Y-165582600D02*
X219303600Y-165354000D01*
X188290200Y-117602000D02*
X188315600Y-117627400D01*
X219557600Y-157226000D02*
X219506800Y-157175200D01*
X203835000Y-168732200D02*
X203835000Y-169876000D01*
X214401400Y-135483600D02*
X214397500Y-135487500D01*
X203860400Y-168706800D02*
X203835000Y-168732200D01*
X211785200Y-167030400D02*
X211785200Y-168452800D01*
X186928000Y-140462000D02*
X186928000Y-141525564D01*
X186928000Y-117602000D02*
X188290200Y-117602000D01*
X186928000Y-161798000D02*
X188696600Y-161798000D01*
X220996000Y-165354000D02*
X219303600Y-165354000D01*
X188595000Y-167309800D02*
X189611000Y-166293800D01*
X220472000Y-134797800D02*
X220522800Y-134848600D01*
X188569600Y-167894000D02*
X188595000Y-167868600D01*
X211455000Y-168783000D02*
X211455000Y-169876000D01*
X206645000Y-99187000D02*
X205308200Y-99187000D01*
X188595000Y-167868600D02*
X188595000Y-167309800D01*
X188696600Y-161798000D02*
X188772800Y-161874200D01*
X188595000Y-169876000D02*
X188595000Y-167868600D01*
X196215000Y-168808400D02*
X196596000Y-168427400D01*
X220996000Y-151130000D02*
X219252800Y-151130000D01*
X186928000Y-167894000D02*
X188569600Y-167894000D01*
X186928000Y-125222000D02*
X188468000Y-125222000D01*
X220472000Y-133400800D02*
X220472000Y-134797800D01*
X186928000Y-148082000D02*
X188468000Y-148082000D01*
X215798400Y-135483600D02*
X214401400Y-135483600D01*
X196596000Y-168427400D02*
X197231000Y-168427400D01*
X203860400Y-168148000D02*
X203860400Y-168706800D01*
X220996000Y-157226000D02*
X219557600Y-157226000D01*
%TO.N,/ADC3{slash}~{ADC2}*%
X216154000Y-116586000D02*
X216154000Y-103251000D01*
X212725000Y-120015000D02*
X216154000Y-116586000D01*
%TO.N,/ENC0_A*%
X202477000Y-79184500D02*
X203962000Y-80669500D01*
X202374500Y-79184500D02*
X202477000Y-79184500D01*
X203962000Y-80669500D02*
X214273500Y-80669500D01*
X214273500Y-80669500D02*
X215138000Y-81534000D01*
%TO.N,/ENC0_B*%
X198742236Y-74295000D02*
X194945000Y-74295000D01*
X199751918Y-75304682D02*
X198742236Y-74295000D01*
%TO.N,/SPI0_MISO*%
X210312000Y-113588800D02*
X210312000Y-109728000D01*
X210312000Y-109728000D02*
X212725000Y-107315000D01*
%TO.N,/BUTTON_SCK*%
X191744600Y-150571200D02*
X191744600Y-107975400D01*
X193954400Y-152781000D02*
X191744600Y-150571200D01*
X194945000Y-156438600D02*
X193954400Y-155448000D01*
X195580000Y-156438600D02*
X194945000Y-156438600D01*
X198830291Y-158191200D02*
X202488800Y-158191200D01*
X202488800Y-158191200D02*
X204114400Y-156565600D01*
X197077691Y-156438600D02*
X198830291Y-158191200D01*
X195580000Y-156438600D02*
X197077691Y-156438600D01*
X191744600Y-107975400D02*
X194945000Y-104775000D01*
X193954400Y-155448000D02*
X193954400Y-152781000D01*
%TO.N,/X0_ADC*%
X220996000Y-112649000D02*
X220353000Y-112006000D01*
X222990500Y-112649000D02*
X220996000Y-112649000D01*
%TO.N,/XCVR_STBY*%
X208254600Y-121666000D02*
X206603600Y-120015000D01*
X206603600Y-120015000D02*
X194945000Y-120015000D01*
%TO.N,/ENC0_PWM*%
X194945000Y-84455000D02*
X195122800Y-84455000D01*
X195122800Y-84455000D02*
X203815500Y-75762300D01*
X203815500Y-75762300D02*
X203815500Y-75584500D01*
%TO.N,/~{SPI0_CS}*%
X209042000Y-108458000D02*
X212725000Y-104775000D01*
X209035618Y-116122418D02*
X209035618Y-114255582D01*
X209035618Y-114255582D02*
X209042000Y-114249200D01*
X209042000Y-114249200D02*
X209042000Y-108458000D01*
%TO.N,Net-(D10-A)*%
X204520800Y-137541000D02*
X204165200Y-137185400D01*
X196088000Y-137185400D02*
X195707000Y-137566400D01*
X204165200Y-137185400D02*
X202488800Y-137185400D01*
X202488800Y-137185400D02*
X196088000Y-137185400D01*
X204520800Y-138611700D02*
X204520800Y-137541000D01*
X202488800Y-138649200D02*
X202488800Y-137185400D01*
%TO.N,Net-(U9-EN)*%
X217838518Y-88011000D02*
X219434500Y-88011000D01*
%TO.N,Net-(C10-Pad1)*%
X222990500Y-99314000D02*
X221665803Y-99314000D01*
X221665803Y-99314000D02*
X221538800Y-99186997D01*
%TO.N,Net-(D19-K)*%
X224637600Y-153162000D02*
X224688400Y-153111200D01*
X222996000Y-155194000D02*
X224358200Y-155194000D01*
X224688400Y-154863800D02*
X224688400Y-153111200D01*
X224358200Y-155194000D02*
X224688400Y-154863800D01*
X227092180Y-151130000D02*
X227330000Y-151367820D01*
X223033500Y-153162000D02*
X224637600Y-153162000D01*
X224688400Y-151130000D02*
X227092180Y-151130000D01*
X222996000Y-151130000D02*
X224688400Y-151130000D01*
X224688400Y-153111200D02*
X224688400Y-151130000D01*
%TO.N,Net-(D20-K)*%
X224586800Y-159308800D02*
X224586800Y-160782000D01*
X227330000Y-158987820D02*
X224596020Y-158987820D01*
X222996000Y-157226000D02*
X224028000Y-157226000D01*
X224028000Y-157226000D02*
X224586800Y-157784800D01*
X224078800Y-161290000D02*
X222996000Y-161290000D01*
X224586800Y-157784800D02*
X224586800Y-158978600D01*
X223033500Y-159258000D02*
X224536000Y-159258000D01*
X224586800Y-160782000D02*
X224078800Y-161290000D01*
X224536000Y-159258000D02*
X224586800Y-159308800D01*
X224596020Y-158987820D02*
X224586800Y-158978600D01*
X224586800Y-158978600D02*
X224586800Y-159308800D01*
%TO.N,Net-(D21-K)*%
X224637600Y-166624000D02*
X224653780Y-166607820D01*
X224637600Y-167030400D02*
X224637600Y-166624000D01*
X223033500Y-167386000D02*
X224282000Y-167386000D01*
X224637600Y-167030400D02*
X224637600Y-165328600D01*
X224653780Y-166607820D02*
X227330000Y-166607820D01*
X224612200Y-165354000D02*
X224637600Y-165328600D01*
X224637600Y-163728400D02*
X224231200Y-163322000D01*
X224282000Y-167386000D02*
X224637600Y-167030400D01*
X224231200Y-163322000D02*
X222996000Y-163322000D01*
X224637600Y-165328600D02*
X224637600Y-163728400D01*
X222996000Y-165354000D02*
X224612200Y-165354000D01*
%TO.N,Net-(D15-K)*%
X220345000Y-176530000D02*
X220345000Y-173761400D01*
X217043000Y-173050200D02*
X217703400Y-173710600D01*
X221107000Y-173278800D02*
X221107000Y-171913500D01*
X220345000Y-173761400D02*
X220294200Y-173710600D01*
X217043000Y-171876000D02*
X217043000Y-173050200D01*
X217703400Y-173710600D02*
X219075000Y-173710600D01*
X219075000Y-173710600D02*
X220294200Y-173710600D01*
X219075000Y-171876000D02*
X219075000Y-173710600D01*
X220294200Y-173710600D02*
X220675200Y-173710600D01*
X220675200Y-173710600D02*
X221107000Y-173278800D01*
D37*
%TO.N,Net-(D16-K)*%
X204343000Y-149606000D02*
X206603600Y-147345400D01*
X206603600Y-140436600D02*
X206603600Y-141732000D01*
D36*
X216535000Y-143637000D02*
X216535000Y-142748000D01*
D37*
X206603600Y-147345400D02*
X206603600Y-141732000D01*
X208356200Y-138684000D02*
X206603600Y-140436600D01*
D36*
X216916000Y-145542000D02*
X216916000Y-144018000D01*
D37*
X210019500Y-138684000D02*
X208356200Y-138684000D01*
D36*
X216535000Y-142748000D02*
X216509600Y-142722600D01*
X216916000Y-144018000D02*
X216535000Y-143637000D01*
%TO.N,Net-(D14-K)*%
X211455000Y-173837600D02*
X212674200Y-173837600D01*
X212979000Y-173837600D02*
X213487000Y-173329600D01*
X212674200Y-173837600D02*
X212979000Y-173837600D01*
X209423000Y-173050200D02*
X210210400Y-173837600D01*
X212725000Y-173888400D02*
X212674200Y-173837600D01*
X209423000Y-171913500D02*
X209423000Y-173050200D01*
X211455000Y-171876000D02*
X211455000Y-173837600D01*
X210210400Y-173837600D02*
X211455000Y-173837600D01*
X212725000Y-176530000D02*
X212725000Y-173888400D01*
X213487000Y-173329600D02*
X213487000Y-171876000D01*
%TO.N,Net-(U2-FB)*%
X203987400Y-142697200D02*
X202488800Y-142697200D01*
X202488800Y-142697200D02*
X202488800Y-140649200D01*
X204520800Y-140686700D02*
X204520800Y-142163800D01*
X204520800Y-142163800D02*
X203987400Y-142697200D01*
%TO.N,Net-(D12-K)*%
X205435200Y-173710600D02*
X205867000Y-173278800D01*
X203885800Y-173710600D02*
X205105000Y-173710600D01*
X205867000Y-173278800D02*
X205867000Y-171876000D01*
X201803000Y-173050200D02*
X202463400Y-173710600D01*
X203835000Y-171876000D02*
X203835000Y-173659800D01*
X203835000Y-173659800D02*
X203885800Y-173710600D01*
X205105000Y-176530000D02*
X205105000Y-173710600D01*
X205105000Y-173710600D02*
X205435200Y-173710600D01*
X202463400Y-173710600D02*
X203885800Y-173710600D01*
X201803000Y-171913500D02*
X201803000Y-173050200D01*
D38*
%TO.N,Net-(U2-BOOT)*%
X200427500Y-139856300D02*
X200533000Y-139750800D01*
X200427500Y-141732000D02*
X200427500Y-139856300D01*
%TO.N,Net-(U2-SW)*%
X198352500Y-141732000D02*
X195402200Y-141732000D01*
D36*
%TO.N,Net-(D11-K)*%
X197688200Y-173685200D02*
X198247000Y-173126400D01*
X197485000Y-173736000D02*
X197434200Y-173685200D01*
X194183000Y-171913500D02*
X194183000Y-172999400D01*
X197485000Y-176530000D02*
X197485000Y-173736000D01*
X196215000Y-171876000D02*
X196215000Y-173685200D01*
X194183000Y-172999400D02*
X194868800Y-173685200D01*
X194868800Y-173685200D02*
X196215000Y-173685200D01*
X197434200Y-173685200D02*
X197688200Y-173685200D01*
X196215000Y-173685200D02*
X197434200Y-173685200D01*
X198247000Y-173126400D02*
X198247000Y-171876000D01*
%TO.N,Net-(J12-Pin_4)*%
X185470800Y-84886800D02*
X185470800Y-85369400D01*
X185496200Y-85344000D02*
X185470800Y-85369400D01*
X186922500Y-85344000D02*
X185496200Y-85344000D01*
X185470800Y-84404200D02*
X185470800Y-84886800D01*
X185470800Y-85369400D02*
X185470800Y-87223600D01*
X188595000Y-81280000D02*
X185470800Y-84404200D01*
X185470800Y-87223600D02*
X185318400Y-87376000D01*
%TO.N,Net-(J12-Pin_2)*%
X186922500Y-89408000D02*
X185521600Y-89408000D01*
%TO.N,Net-(D9-K)*%
X189865000Y-176530000D02*
X189865000Y-173964600D01*
X187426600Y-173913800D02*
X188569600Y-173913800D01*
X188595000Y-171876000D02*
X188595000Y-173888400D01*
X190627000Y-173482000D02*
X190627000Y-171876000D01*
X189865000Y-173964600D02*
X189814200Y-173913800D01*
X190195200Y-173913800D02*
X190627000Y-173482000D01*
X188569600Y-173913800D02*
X189814200Y-173913800D01*
X189814200Y-173913800D02*
X190195200Y-173913800D01*
X186563000Y-173050200D02*
X187426600Y-173913800D01*
X188595000Y-173888400D02*
X188569600Y-173913800D01*
X186563000Y-171913500D02*
X186563000Y-173050200D01*
%TO.N,Net-(D1-K)*%
X182854600Y-114071400D02*
X182854600Y-115646200D01*
X182854600Y-115849400D02*
X182854600Y-116941600D01*
X184890500Y-115570000D02*
X182930800Y-115570000D01*
X182930800Y-115570000D02*
X182854600Y-115646200D01*
X184928000Y-113538000D02*
X183388000Y-113538000D01*
X180411590Y-115818311D02*
X182823511Y-115818311D01*
X183515000Y-117602000D02*
X184928000Y-117602000D01*
X182823511Y-115818311D02*
X182854600Y-115849400D01*
X183388000Y-113538000D02*
X182854600Y-114071400D01*
X182854600Y-115646200D02*
X182854600Y-115849400D01*
X182854600Y-116941600D02*
X183515000Y-117602000D01*
%TO.N,Net-(D2-K)*%
X184890500Y-123190000D02*
X183134000Y-123190000D01*
X183114289Y-123438311D02*
X183134000Y-123418600D01*
X183134000Y-121666000D02*
X183134000Y-123190000D01*
X183642000Y-121158000D02*
X183134000Y-121666000D01*
X180411590Y-123438311D02*
X183114289Y-123438311D01*
X184928000Y-121158000D02*
X183642000Y-121158000D01*
X183134000Y-123418600D02*
X183134000Y-124968000D01*
X183388000Y-125222000D02*
X184928000Y-125222000D01*
X183134000Y-124968000D02*
X183388000Y-125222000D01*
X183134000Y-123190000D02*
X183134000Y-123418600D01*
%TO.N,Net-(D3-K)*%
X184928000Y-128778000D02*
X183464200Y-128778000D01*
X183139689Y-131058311D02*
X183159400Y-131038600D01*
X183464200Y-128778000D02*
X183159400Y-129082800D01*
X183159400Y-130708400D02*
X183159400Y-131038600D01*
X180411590Y-131058311D02*
X183139689Y-131058311D01*
X184890500Y-130810000D02*
X183261000Y-130810000D01*
X183159400Y-129082800D02*
X183159400Y-130708400D01*
X183159400Y-132232400D02*
X183769000Y-132842000D01*
X183261000Y-130810000D02*
X183159400Y-130708400D01*
X183769000Y-132842000D02*
X184928000Y-132842000D01*
X183159400Y-131038600D02*
X183159400Y-132232400D01*
%TO.N,Net-(D4-K)*%
X183286400Y-136398000D02*
X182905400Y-136779000D01*
X182905400Y-139725400D02*
X183642000Y-140462000D01*
X184928000Y-136398000D02*
X183286400Y-136398000D01*
X184890500Y-138430000D02*
X182956200Y-138430000D01*
X182956200Y-138430000D02*
X182905400Y-138480800D01*
X182905400Y-136779000D02*
X182905400Y-138480800D01*
X182905400Y-138480800D02*
X182905400Y-138760200D01*
X180411590Y-138678311D02*
X182823511Y-138678311D01*
X182823511Y-138678311D02*
X182905400Y-138760200D01*
X182905400Y-138760200D02*
X182905400Y-139725400D01*
X183642000Y-140462000D02*
X184928000Y-140462000D01*
%TO.N,Net-(D5-K)*%
X184890500Y-146050000D02*
X183159400Y-146050000D01*
X184928000Y-144018000D02*
X183616600Y-144018000D01*
X180411590Y-146298311D02*
X183114289Y-146298311D01*
X183159400Y-146050000D02*
X183159400Y-146253200D01*
X183159400Y-146253200D02*
X183159400Y-147523200D01*
X183184800Y-147523200D02*
X183743600Y-148082000D01*
X183616600Y-144018000D02*
X183159400Y-144475200D01*
X183159400Y-147523200D02*
X183184800Y-147523200D01*
X183114289Y-146298311D02*
X183159400Y-146253200D01*
X183743600Y-148082000D02*
X184928000Y-148082000D01*
X183159400Y-144475200D02*
X183159400Y-146050000D01*
%TO.N,Net-(D6-K)*%
X184928000Y-151638000D02*
X183515000Y-151638000D01*
X183515000Y-151638000D02*
X183032400Y-152120600D01*
X182975911Y-153918311D02*
X183032400Y-153974800D01*
X183032400Y-153670000D02*
X183032400Y-153974800D01*
X184890500Y-153670000D02*
X183032400Y-153670000D01*
X183032400Y-152120600D02*
X183032400Y-153670000D01*
X183388000Y-155702000D02*
X184928000Y-155702000D01*
X180411590Y-153918311D02*
X182975911Y-153918311D01*
X183032400Y-155346400D02*
X183388000Y-155702000D01*
X183032400Y-153974800D02*
X183032400Y-155346400D01*
%TO.N,Net-(D7-K)*%
X182854600Y-159715200D02*
X182854600Y-161315400D01*
X182854600Y-158343600D02*
X182854600Y-159715200D01*
X184890500Y-159766000D02*
X182905400Y-159766000D01*
X184928000Y-157734000D02*
X183464200Y-157734000D01*
X182854600Y-161315400D02*
X183337200Y-161798000D01*
X183048580Y-161527820D02*
X183057800Y-161518600D01*
X183337200Y-161798000D02*
X184928000Y-161798000D01*
X182905400Y-159766000D02*
X182854600Y-159715200D01*
X180340000Y-161527820D02*
X183048580Y-161527820D01*
X182854600Y-161315400D02*
X183057800Y-161518600D01*
X183464200Y-157734000D02*
X182854600Y-158343600D01*
%TO.N,Net-(D8-K)*%
X183057800Y-167868600D02*
X183083200Y-167894000D01*
X183108600Y-165862000D02*
X183057800Y-165912800D01*
X184928000Y-163830000D02*
X183642000Y-163830000D01*
X183083200Y-167894000D02*
X184928000Y-167894000D01*
X183642000Y-163830000D02*
X183057800Y-164414200D01*
X181829380Y-169147820D02*
X180340000Y-169147820D01*
X183083200Y-167894000D02*
X181829380Y-169147820D01*
X184890500Y-165862000D02*
X183108600Y-165862000D01*
X183057800Y-164414200D02*
X183057800Y-165912800D01*
X183057800Y-165912800D02*
X183057800Y-167868600D01*
%TO.N,Net-(D13-K)*%
X210870800Y-151318000D02*
X207269500Y-151318000D01*
%TO.N,Net-(D18-K)*%
X215646000Y-147066000D02*
X215595200Y-147066000D01*
X214071200Y-148590000D02*
X212607000Y-148590000D01*
X215595200Y-147066000D02*
X214071200Y-148590000D01*
%TO.N,Net-(D22-K)*%
X210464400Y-144424400D02*
X209067400Y-145821400D01*
X209067400Y-145821400D02*
X209067400Y-146532600D01*
X213619500Y-150368000D02*
X212217000Y-150368000D01*
X210581600Y-146532600D02*
X210607000Y-146558000D01*
X210464400Y-142687100D02*
X210464400Y-144424400D01*
X210469500Y-142682000D02*
X210464400Y-142687100D01*
X209067400Y-146532600D02*
X210581600Y-146532600D01*
%TO.N,Net-(D23-K)*%
X209473800Y-149352000D02*
X209473800Y-148666200D01*
X209544500Y-149422700D02*
X209473800Y-149352000D01*
X209550000Y-148590000D02*
X210607000Y-148590000D01*
X209473800Y-148666200D02*
X209550000Y-148590000D01*
X209544500Y-150368000D02*
X209544500Y-149422700D01*
%TO.N,Net-(J1-Pin_4)*%
X185497279Y-95504000D02*
X186960000Y-95504000D01*
X180411590Y-90418311D02*
X185497279Y-95504000D01*
%TO.N,Net-(J1-Pin_5)*%
X184989279Y-97536000D02*
X186960000Y-97536000D01*
X180411590Y-92958311D02*
X184989279Y-97536000D01*
%TO.N,Net-(J1-Pin_3)*%
X180562911Y-87878311D02*
X183083200Y-90398600D01*
X183083200Y-90398600D02*
X183083200Y-91287600D01*
X183083200Y-91287600D02*
X185267600Y-93472000D01*
X185267600Y-93472000D02*
X186960000Y-93472000D01*
X180411590Y-87878311D02*
X180562911Y-87878311D01*
%TO.N,Net-(J2-Pin_5)*%
X185572400Y-107696000D02*
X186960000Y-107696000D01*
%TO.N,Net-(J2-Pin_4)*%
X186960000Y-105664000D02*
X185527289Y-105664000D01*
X185527289Y-105664000D02*
X185521600Y-105658311D01*
%TO.N,Net-(J2-Pin_3)*%
X185521600Y-103632000D02*
X186960000Y-103632000D01*
%TO.N,Net-(J18-Pin_5)*%
X221472000Y-79883000D02*
X222885000Y-79883000D01*
%TO.N,Net-(J18-Pin_3)*%
X221472000Y-83947000D02*
X222885000Y-83947000D01*
%TO.N,Net-(J18-Pin_4)*%
X221472000Y-81915000D02*
X222885000Y-81915000D01*
%TO.N,Net-(J26-Pin_1)*%
X226593400Y-103378000D02*
X226670400Y-103455000D01*
X226670400Y-103455000D02*
X228801000Y-103455000D01*
X225028000Y-103378000D02*
X226593400Y-103378000D01*
%TO.N,Net-(J26-Pin_4)*%
X226187000Y-101346000D02*
X227828000Y-99705000D01*
X227828000Y-99705000D02*
X228801000Y-99705000D01*
X225028000Y-101346000D02*
X226187000Y-101346000D01*
%TO.N,Net-(J27-Pin_4)*%
X227101400Y-110617000D02*
X227482400Y-110998000D01*
X227482400Y-110998000D02*
X228801000Y-110998000D01*
X225028000Y-110617000D02*
X227101400Y-110617000D01*
%TO.N,Net-(J27-Pin_1)*%
X228988000Y-114681000D02*
X229055000Y-114748000D01*
X226364800Y-114681000D02*
X226431800Y-114748000D01*
X226431800Y-114748000D02*
X228801000Y-114748000D01*
X225028000Y-114681000D02*
X226364800Y-114681000D01*
%TO.N,Net-(Q2-D)*%
X212953600Y-140487400D02*
X212750400Y-140690600D01*
X213029800Y-140487400D02*
X212953600Y-140487400D01*
X212750400Y-141726100D02*
X212744500Y-141732000D01*
X212750400Y-140690600D02*
X212750400Y-141726100D01*
%TO.N,Net-(U3-D7)*%
X207365600Y-155194000D02*
X220996000Y-155194000D01*
X204368400Y-158191200D02*
X207365600Y-155194000D01*
%TO.N,Net-(U3-D6)*%
X216738200Y-161290000D02*
X220996000Y-161290000D01*
X208229200Y-160274000D02*
X208229200Y-160248600D01*
X207137000Y-156768800D02*
X207925400Y-155980400D01*
X207925400Y-155980400D02*
X210615800Y-155980400D01*
X207137000Y-159156400D02*
X207137000Y-156768800D01*
X210615800Y-155980400D02*
X211899500Y-157264100D01*
X212712300Y-157264100D02*
X216738200Y-161290000D01*
X208229200Y-160248600D02*
X207137000Y-159156400D01*
X211899500Y-157264100D02*
X212712300Y-157264100D01*
%TO.N,Net-(U3-D5)*%
X217805000Y-163322000D02*
X220996000Y-163322000D01*
X212598000Y-158115000D02*
X217805000Y-163322000D01*
X208991200Y-158115000D02*
X212598000Y-158115000D01*
%TO.N,Net-(U3-D4)*%
X217043000Y-163459440D02*
X217043000Y-169876000D01*
X209001549Y-159384000D02*
X212967560Y-159384000D01*
X208965800Y-156870400D02*
X208101200Y-157735000D01*
X212967560Y-159384000D02*
X217043000Y-163459440D01*
X208101200Y-157735000D02*
X208101200Y-158483651D01*
X208101200Y-158483651D02*
X209001549Y-159384000D01*
%TO.N,Net-(U3-D3)*%
X213487000Y-167716200D02*
X213487000Y-169876000D01*
%TO.N,Net-(U3-D2)*%
X213588600Y-161975800D02*
X208432400Y-167132000D01*
X206705200Y-167132000D02*
X205867000Y-167970200D01*
X205867000Y-167970200D02*
X205867000Y-169876000D01*
X213588600Y-161967022D02*
X213588600Y-161975800D01*
X213592417Y-161963205D02*
X213588600Y-161967022D01*
X208432400Y-167132000D02*
X206705200Y-167132000D01*
%TO.N,Net-(U3-D1)*%
X202031600Y-162839400D02*
X198247000Y-166624000D01*
X209956400Y-160274000D02*
X209981800Y-160274000D01*
X210261200Y-162839400D02*
X202031600Y-162839400D01*
X210769200Y-161061400D02*
X210769200Y-162331400D01*
X210769200Y-162331400D02*
X210261200Y-162839400D01*
X198247000Y-166624000D02*
X198247000Y-169876000D01*
X209981800Y-160274000D02*
X210769200Y-161061400D01*
%TO.N,Net-(U3-D0)*%
X192372100Y-165844100D02*
X195358900Y-165844100D01*
X190627000Y-169876000D02*
X190627000Y-167589200D01*
X190627000Y-167589200D02*
X192372100Y-165844100D01*
X195358900Y-165844100D02*
X199659000Y-161544000D01*
X199659000Y-161544000D02*
X209804000Y-161544000D01*
%TO.N,Net-(U1-D0)*%
X196659149Y-160935400D02*
X197396451Y-160935400D01*
X188391800Y-113538000D02*
X186928000Y-113538000D01*
X191871600Y-151688800D02*
X191033400Y-150850600D01*
X191033400Y-116179600D02*
X188391800Y-113538000D01*
X196164200Y-160934400D02*
X196658149Y-160934400D01*
X191871600Y-156834560D02*
X191871600Y-151688800D01*
X191033400Y-150850600D02*
X191033400Y-116179600D01*
X198348600Y-158608949D02*
X197371051Y-157631400D01*
X192668440Y-157631400D02*
X191871600Y-156834560D01*
X197371051Y-157631400D02*
X192668440Y-157631400D01*
X196658149Y-160934400D02*
X196659149Y-160935400D01*
X197396451Y-160935400D02*
X198348600Y-159983251D01*
X198348600Y-159983251D02*
X198348600Y-158608949D01*
%TO.N,Net-(U1-D1)*%
X190373000Y-123469400D02*
X190373000Y-151003000D01*
X189941200Y-151434800D02*
X189941200Y-152882600D01*
X190599600Y-157361440D02*
X190652400Y-157414240D01*
X193268600Y-160045400D02*
X197027800Y-160045400D01*
X190599600Y-153541000D02*
X190599600Y-157361440D01*
X190652400Y-157414240D02*
X190652400Y-157429200D01*
X190652400Y-157429200D02*
X193268600Y-160045400D01*
X190373000Y-151003000D02*
X189941200Y-151434800D01*
X189941200Y-152882600D02*
X190599600Y-153541000D01*
X188061600Y-121158000D02*
X190373000Y-123469400D01*
X186928000Y-121158000D02*
X188061600Y-121158000D01*
%TO.N,Net-(U1-D2)*%
X188291700Y-128778000D02*
X188342500Y-128828800D01*
X191235600Y-153192784D02*
X191235600Y-157098000D01*
X190931799Y-152006235D02*
X190931799Y-152888983D01*
X190931799Y-152888983D02*
X191235600Y-153192784D01*
X191235600Y-157098000D02*
X192659000Y-158521400D01*
X192659000Y-158521400D02*
X197002400Y-158521400D01*
X186928000Y-128778000D02*
X188291700Y-128778000D01*
%TO.N,Net-(U1-D3)*%
X186928000Y-136398000D02*
X188417200Y-136398000D01*
%TO.N,Net-(U1-D4)*%
X186928000Y-144018000D02*
X188291700Y-144018000D01*
X188291700Y-144018000D02*
X188342500Y-144068800D01*
%TO.N,Net-(U1-D5)*%
X188468000Y-151638000D02*
X186928000Y-151638000D01*
%TO.N,Net-(U1-D6)*%
X186928000Y-157734000D02*
X188315600Y-157734000D01*
%TO.N,/CANRX*%
X214237710Y-133081890D02*
X219938600Y-127381000D01*
X219938600Y-127381000D02*
X220218000Y-127381000D01*
%TO.N,Net-(U1-D7)*%
X186928000Y-163830000D02*
X188315600Y-163830000D01*
%TD*%
M02*
