M48
; DRILL file {KiCad 9.0.7-9.0.7~ubuntu24.04.1} date 2026-01-21T16:48:32-0800
; FORMAT={-:-/ absolute / metric / decimal}
; #@! TF.CreationDate,2026-01-21T16:48:32-08:00
; #@! TF.GenerationSoftware,Kicad,Pcbnew,9.0.7-9.0.7~ubuntu24.04.1
; #@! TF.FileFunction,MixedPlating,1,4
FMAT,2
METRIC
; #@! TA.AperFunction,Plated,PTH,ViaDrill
T1C0.508
; #@! TA.AperFunction,Plated,PTH,ComponentDrill
T2C0.508
; #@! TA.AperFunction,Plated,PTH,ComponentDrill
T3C1.000
; #@! TA.AperFunction,Plated,PTH,ComponentDrill
T4C1.092
; #@! TA.AperFunction,NonPlated,NPTH,ComponentDrill
T5C3.200
%
G90
G05
T1
X184.683Y-170.891
X185.318Y-87.376
X185.445Y-97.536
X185.497Y-95.504
X185.522Y-89.408
X185.623Y-93.472
X188.011Y-141.783
X188.316Y-117.627
X188.328Y-159.79
X188.341Y-165.837
X188.343Y-115.586
X188.343Y-128.829
X188.343Y-144.069
X188.366Y-132.842
X188.392Y-156.159
X188.417Y-136.398
X188.468Y-125.222
X188.468Y-145.999
X188.468Y-148.082
X188.544Y-123.215
X188.57Y-130.759
X188.57Y-153.695
X188.773Y-161.874
X189.306Y-138.379
X189.611Y-166.294
X190.297Y-86.309
X190.297Y-90.424
X190.449Y-83.718
X190.576Y-156.134
X190.602Y-96.596
X190.621Y-154.261
X191.11Y-157.886
X192.17Y-88.513
X192.507Y-159.283
X192.786Y-85.725
X192.862Y-150.317
X193.065Y-154.153
X193.497Y-156.515
X193.802Y-164.186
X194.208Y-168.554
X195.072Y-141.732
X195.707Y-137.566
X195.758Y-153.289
X196.525Y-126.092
X197.231Y-168.427
X198.222Y-144.577
X198.272Y-139.751
X198.603Y-157.201
X198.629Y-159.284
X198.755Y-116.789
X198.806Y-132.004
X198.856Y-154.864
X200.533Y-139.751
X200.584Y-132.029
X200.609Y-154.28
X201.803Y-168.529
X202.159Y-135.458
X202.159Y-143.078
X202.387Y-159.131
X202.641Y-155.981
X203.302Y-161.087
X203.312Y-157.609
X203.657Y-116.662
X204.622Y-159.156
X204.835Y-168.284
X205.283Y-97.18
X205.308Y-99.187
X205.892Y-122.326
X205.994Y-135.407
X206.019Y-78.085
X206.07Y-130.429
X206.096Y-127.61
X206.553Y-140.233
X206.604Y-142.824
X206.629Y-153.213
X206.807Y-119.869
X207.264Y-148.361
X207.677Y-117.481
X208.204Y-121.437
X208.229Y-163.627
X208.585Y-115.265
X208.636Y-160.757
X208.915Y-119.761
X209.067Y-146.533
X209.321Y-155.321
X209.423Y-157.328
X209.423Y-168.453
X210.058Y-124.206
X210.972Y-128.016
X211.506Y-152.019
X211.633Y-154.153
X211.785Y-167.03
X212.217Y-150.368
X212.319Y-139.598
X212.331Y-137.096
X213.436Y-159.106
X213.487Y-126.441
X213.741Y-155.956
X213.995Y-146.558
X214.82Y-132.524
X215.011Y-157.861
X215.138Y-81.534
X215.417Y-105.105
X215.595Y-145.974
X215.748Y-101.879
X215.798Y-135.484
X216.459Y-94.183
X216.459Y-111.582
X216.51Y-109.245
X217.093Y-88.011
X217.094Y-153.238
X217.475Y-149.403
X217.839Y-85.172
X217.907Y-80.899
X217.983Y-90.018
X218.465Y-134.899
X218.491Y-137.77
X218.567Y-130.023
X219.075Y-155.143
X219.304Y-153.187
X219.304Y-165.354
X219.329Y-159.182
X219.437Y-150.463
X219.507Y-157.175
X220.421Y-130.023
X220.523Y-134.849
X220.65Y-103.708
X220.675Y-105.689
X220.701Y-107.772
X220.828Y-100.203
X220.853Y-98.171
X220.929Y-96.139
X221.421Y-114.91
X222.58Y-125.095
X222.834Y-88.036
X222.885Y-79.883
X222.885Y-81.915
X222.885Y-83.947
X222.885Y-86.004
X222.987Y-92.05
X223.082Y-171.652
T2
X223.24Y-98.097
X223.24Y-105.717
X224.49Y-98.097
X224.49Y-105.717
X225.74Y-98.097
X225.74Y-105.717
X226.99Y-98.097
X226.99Y-105.717
X228.24Y-98.097
X228.24Y-105.717
X229.49Y-98.097
X229.49Y-105.717
T3
X194.945Y-71.755
X194.945Y-74.295
X194.945Y-76.835
X194.945Y-79.375
X194.945Y-81.915
X194.945Y-84.455
X194.945Y-86.995
X194.945Y-89.535
X194.945Y-92.075
X194.945Y-94.615
X194.945Y-97.155
X194.945Y-99.695
X194.945Y-102.235
X194.945Y-104.775
X194.945Y-107.315
X194.945Y-109.855
X194.945Y-112.395
X194.945Y-114.935
X194.945Y-117.475
X194.945Y-120.015
X196.088Y-133.985
X204.292Y-152.984
X205.105Y-144.348
X212.725Y-71.755
X212.725Y-74.295
X212.725Y-76.835
X212.725Y-79.375
X212.725Y-81.915
X212.725Y-84.455
X212.725Y-86.995
X212.725Y-89.535
X212.725Y-92.075
X212.725Y-94.615
X212.725Y-97.155
X212.725Y-99.695
X212.725Y-102.235
X212.725Y-104.775
X212.725Y-107.315
X212.725Y-109.855
X212.725Y-112.395
X212.725Y-114.935
X212.725Y-117.475
X212.725Y-120.015
X216.23Y-155.905
X216.789Y-127.381
X219.456Y-71.882
X219.456Y-74.422
X219.456Y-76.962
X220.218Y-127.381
X223.952Y-110.541
T4
X180.34Y-158.988
X180.34Y-161.528
X180.34Y-166.608
X180.34Y-169.148
X180.412Y-82.798
X180.412Y-85.338
X180.412Y-87.878
X180.412Y-90.418
X180.412Y-96.768
X180.412Y-99.308
X180.412Y-101.848
X180.412Y-104.388
X180.412Y-106.928
X180.412Y-113.278
X180.412Y-115.818
X180.412Y-120.898
X180.412Y-123.438
X180.412Y-128.518
X180.412Y-131.058
X180.412Y-136.138
X180.412Y-138.678
X180.412Y-143.758
X180.412Y-146.298
X180.412Y-151.378
X180.412Y-153.918
X187.325Y-176.53
X189.865Y-176.53
X194.945Y-176.53
X197.485Y-176.53
X202.565Y-176.53
X205.105Y-176.53
X210.185Y-176.53
X212.725Y-176.53
X217.805Y-176.53
X220.345Y-176.53
X227.33Y-80.645
X227.33Y-83.185
X227.33Y-85.725
X227.33Y-88.265
X227.33Y-90.805
X227.33Y-115.173
X227.33Y-117.713
X227.33Y-120.253
X227.33Y-122.793
X227.33Y-128.508
X227.33Y-131.048
X227.33Y-136.128
X227.33Y-138.668
X227.33Y-143.748
X227.33Y-146.288
X227.33Y-151.368
X227.33Y-153.908
X227.33Y-158.988
X227.33Y-161.528
X227.33Y-166.608
X227.33Y-169.148
T5
X179.705Y-73.025
X179.705Y-177.165
X227.965Y-73.025
X227.965Y-177.165
M30
