M48
; DRILL file {KiCad 9.0.6-9.0.6~ubuntu24.04.1} date 2025-12-27T11:39:35-0800
; FORMAT={-:-/ absolute / metric / decimal}
; #@! TF.CreationDate,2025-12-27T11:39:35-08:00
; #@! TF.GenerationSoftware,Kicad,Pcbnew,9.0.6-9.0.6~ubuntu24.04.1
; #@! TF.FileFunction,MixedPlating,1,2
FMAT,2
METRIC
; #@! TA.AperFunction,Plated,PTH,ComponentDrill
T1C0.500
; #@! TA.AperFunction,Plated,PTH,ComponentDrill
T2C1.000
; #@! TA.AperFunction,Plated,PTH,ComponentDrill
T3C1.092
; #@! TA.AperFunction,NonPlated,NPTH,ComponentDrill
T4C1.850
; #@! TA.AperFunction,NonPlated,NPTH,ComponentDrill
T5C2.200
; #@! TA.AperFunction,NonPlated,NPTH,ComponentDrill
T6C3.200
%
G90
G05
T1
X229.055Y-97.205
X229.055Y-98.455
X229.055Y-99.705
X229.055Y-100.955
X229.055Y-102.205
X229.055Y-103.455
X229.055Y-108.498
X229.055Y-109.748
X229.055Y-110.998
X229.055Y-112.248
X229.055Y-113.498
X229.055Y-114.748
T2
X194.945Y-71.755
X194.945Y-74.295
X194.945Y-76.835
X194.945Y-79.375
X194.945Y-81.915
X194.945Y-84.455
X194.945Y-86.995
X194.945Y-89.535
X194.945Y-92.075
X194.945Y-94.615
X194.945Y-97.155
X194.945Y-99.695
X194.945Y-102.235
X194.945Y-104.775
X194.945Y-107.315
X194.945Y-109.855
X194.945Y-112.395
X194.945Y-114.935
X194.945Y-117.475
X194.945Y-120.015
X212.725Y-71.755
X212.725Y-74.295
X212.725Y-76.835
X212.725Y-79.375
X212.725Y-81.915
X212.725Y-84.455
X212.725Y-86.995
X212.725Y-89.535
X212.725Y-92.075
X212.725Y-94.615
X212.725Y-97.155
X212.725Y-99.695
X212.725Y-102.235
X212.725Y-104.775
X212.725Y-107.315
X212.725Y-109.855
X212.725Y-112.395
X212.725Y-114.935
X212.725Y-117.475
X212.725Y-120.015
X220.472Y-71.882
X220.472Y-74.422
X220.472Y-76.962
X222.165Y69.525
X222.165Y65.175
X222.165Y60.825
X262.157Y-84.545
X262.157Y-88.895
X304.31Y-123.78
X304.31Y-128.13
T3
X180.34Y-158.988
X180.34Y-161.528
X180.34Y-166.608
X180.34Y-169.148
X180.412Y-82.798
X180.412Y-85.338
X180.412Y-87.878
X180.412Y-90.418
X180.412Y-92.958
X180.412Y-98.038
X180.412Y-100.578
X180.412Y-103.118
X180.412Y-105.658
X180.412Y-108.198
X180.412Y-113.278
X180.412Y-115.818
X180.412Y-120.898
X180.412Y-123.438
X180.412Y-128.518
X180.412Y-131.058
X180.412Y-136.138
X180.412Y-138.678
X180.412Y-143.758
X180.412Y-146.298
X180.412Y-151.378
X180.412Y-153.918
X187.325Y-176.53
X188.595Y-73.66
X188.595Y-76.2
X188.595Y-78.74
X188.595Y-81.28
X189.865Y-176.53
X194.945Y-176.53
X197.485Y-176.53
X202.565Y-176.53
X205.105Y-176.53
X210.185Y-176.53
X212.725Y-176.53
X217.805Y-176.53
X220.345Y-176.53
X227.33Y-80.645
X227.33Y-83.185
X227.33Y-85.725
X227.33Y-88.265
X227.33Y-90.805
X227.33Y-120.888
X227.33Y-123.428
X227.33Y-128.508
X227.33Y-131.048
X227.33Y-136.128
X227.33Y-138.668
X227.33Y-143.748
X227.33Y-146.288
X227.33Y-151.368
X227.33Y-153.908
X227.33Y-158.988
X227.33Y-161.528
X227.33Y-166.608
X227.33Y-169.148
T4
X201.41Y-74.915
X206.26Y-74.915
T5
X201.11Y-71.885
X206.56Y-71.885
T6
X179.705Y-73.025
X179.705Y-177.165
X227.965Y-73.025
X227.965Y-177.165
M30
