%TF.GenerationSoftware,KiCad,Pcbnew,9.0.6-9.0.6~ubuntu24.04.1*%
%TF.CreationDate,2025-12-28T11:43:02-08:00*%
%TF.ProjectId,Pico-ButtonBoard-v1,5069636f-2d42-4757-9474-6f6e426f6172,1*%
%TF.SameCoordinates,Original*%
%TF.FileFunction,Paste,Top*%
%TF.FilePolarity,Positive*%
%FSLAX46Y46*%
G04 Gerber Fmt 4.6, Leading zero omitted, Abs format (unit mm)*
G04 Created by KiCad (PCBNEW 9.0.6-9.0.6~ubuntu24.04.1) date 2025-12-28 11:43:02*
%MOMM*%
%LPD*%
G01*
G04 APERTURE LIST*
G04 Aperture macros list*
%AMRoundRect*
0 Rectangle with rounded corners*
0 $1 Rounding radius*
0 $2 $3 $4 $5 $6 $7 $8 $9 X,Y pos of 4 corners*
0 Add a 4 corners polygon primitive as box body*
4,1,4,$2,$3,$4,$5,$6,$7,$8,$9,$2,$3,0*
0 Add four circle primitives for the rounded corners*
1,1,$1+$1,$2,$3*
1,1,$1+$1,$4,$5*
1,1,$1+$1,$6,$7*
1,1,$1+$1,$8,$9*
0 Add four rect primitives between the rounded corners*
20,1,$1+$1,$2,$3,$4,$5,0*
20,1,$1+$1,$4,$5,$6,$7,0*
20,1,$1+$1,$6,$7,$8,$9,0*
20,1,$1+$1,$8,$9,$2,$3,0*%
G04 Aperture macros list end*
%ADD10C,0.254000*%
%ADD11C,0.500000*%
%ADD12RoundRect,0.250000X-0.350000X-0.450000X0.350000X-0.450000X0.350000X0.450000X-0.350000X0.450000X0*%
%ADD13RoundRect,0.250000X0.625000X-0.375000X0.625000X0.375000X-0.625000X0.375000X-0.625000X-0.375000X0*%
%ADD14RoundRect,0.150000X-0.150000X0.825000X-0.150000X-0.825000X0.150000X-0.825000X0.150000X0.825000X0*%
%ADD15RoundRect,0.250000X-1.000000X-0.650000X1.000000X-0.650000X1.000000X0.650000X-1.000000X0.650000X0*%
%ADD16RoundRect,0.250000X-0.625000X0.375000X-0.625000X-0.375000X0.625000X-0.375000X0.625000X0.375000X0*%
%ADD17RoundRect,0.250000X0.375000X0.625000X-0.375000X0.625000X-0.375000X-0.625000X0.375000X-0.625000X0*%
%ADD18RoundRect,0.250000X0.350000X0.450000X-0.350000X0.450000X-0.350000X-0.450000X0.350000X-0.450000X0*%
%ADD19RoundRect,0.250000X-0.337500X-0.475000X0.337500X-0.475000X0.337500X0.475000X-0.337500X0.475000X0*%
%ADD20RoundRect,0.250000X0.275000X0.350000X-0.275000X0.350000X-0.275000X-0.350000X0.275000X-0.350000X0*%
%ADD21RoundRect,0.250000X-0.450000X0.350000X-0.450000X-0.350000X0.450000X-0.350000X0.450000X0.350000X0*%
%ADD22RoundRect,0.250000X-0.650000X1.000000X-0.650000X-1.000000X0.650000X-1.000000X0.650000X1.000000X0*%
%ADD23RoundRect,0.150000X-0.512500X-0.150000X0.512500X-0.150000X0.512500X0.150000X-0.512500X0.150000X0*%
%ADD24RoundRect,0.250000X0.450000X-0.350000X0.450000X0.350000X-0.450000X0.350000X-0.450000X-0.350000X0*%
%ADD25RoundRect,0.250000X0.337500X0.475000X-0.337500X0.475000X-0.337500X-0.475000X0.337500X-0.475000X0*%
%ADD26RoundRect,0.162500X0.617500X0.162500X-0.617500X0.162500X-0.617500X-0.162500X0.617500X-0.162500X0*%
%ADD27RoundRect,0.240000X0.660000X0.560000X-0.660000X0.560000X-0.660000X-0.560000X0.660000X-0.560000X0*%
%ADD28RoundRect,0.150000X-0.725000X-0.150000X0.725000X-0.150000X0.725000X0.150000X-0.725000X0.150000X0*%
%ADD29RoundRect,0.250000X-0.412500X-1.100000X0.412500X-1.100000X0.412500X1.100000X-0.412500X1.100000X0*%
%ADD30RoundRect,0.276000X1.474000X-0.644000X1.474000X0.644000X-1.474000X0.644000X-1.474000X-0.644000X0*%
%ADD31RoundRect,0.150000X0.512500X0.150000X-0.512500X0.150000X-0.512500X-0.150000X0.512500X-0.150000X0*%
%ADD32RoundRect,0.250000X0.475000X-0.337500X0.475000X0.337500X-0.475000X0.337500X-0.475000X-0.337500X0*%
%ADD33RoundRect,0.375000X-0.625000X-0.375000X0.625000X-0.375000X0.625000X0.375000X-0.625000X0.375000X0*%
%ADD34RoundRect,0.500000X-0.500000X-1.400000X0.500000X-1.400000X0.500000X1.400000X-0.500000X1.400000X0*%
%ADD35RoundRect,0.250000X0.650000X-0.412500X0.650000X0.412500X-0.650000X0.412500X-0.650000X-0.412500X0*%
G04 APERTURE END LIST*
D10*
%TO.C,FID2*%
X222066000Y-76200000D02*
X224466000Y-76200000D01*
X223266000Y-75000000D02*
X223266000Y-77400000D01*
D11*
X223516000Y-76200000D02*
G75*
G02*
X223016000Y-76200000I-250000J0D01*
G01*
X223016000Y-76200000D02*
G75*
G02*
X223516000Y-76200000I250000J0D01*
G01*
D10*
%TO.C,FID3*%
X216224000Y-162687000D02*
X218624000Y-162687000D01*
X217424000Y-161487000D02*
X217424000Y-163887000D01*
D11*
X217674000Y-162687000D02*
G75*
G02*
X217174000Y-162687000I-250000J0D01*
G01*
X217174000Y-162687000D02*
G75*
G02*
X217674000Y-162687000I250000J0D01*
G01*
D10*
%TO.C,FID1*%
X179267000Y-78232000D02*
X181667000Y-78232000D01*
X180467000Y-77032000D02*
X180467000Y-79432000D01*
D11*
X180717000Y-78232000D02*
G75*
G02*
X180217000Y-78232000I-250000J0D01*
G01*
X180217000Y-78232000D02*
G75*
G02*
X180717000Y-78232000I250000J0D01*
G01*
%TD*%
D12*
%TO.C,R31*%
X219472000Y-81915000D03*
X221472000Y-81915000D03*
%TD*%
D13*
%TO.C,D2*%
X184658000Y-123574000D03*
X184658000Y-120774000D03*
%TD*%
D14*
%TO.C,U5*%
X214757000Y-130472500D03*
X213487000Y-130472500D03*
X212217000Y-130472500D03*
X210947000Y-130472500D03*
X209677000Y-130472500D03*
X208407000Y-130472500D03*
X207137000Y-130472500D03*
X207137000Y-135422500D03*
X208407000Y-135422500D03*
X209677000Y-135422500D03*
X210947000Y-135422500D03*
X212217000Y-135422500D03*
X213487000Y-135422500D03*
X214757000Y-135422500D03*
%TD*%
D15*
%TO.C,D18*%
X218472000Y-147574000D03*
X222472000Y-147574000D03*
%TD*%
D16*
%TO.C,D21*%
X223083590Y-166488311D03*
X223083590Y-169288311D03*
%TD*%
D17*
%TO.C,D12*%
X205235000Y-172212000D03*
X202435000Y-172212000D03*
%TD*%
D18*
%TO.C,R15*%
X188960000Y-103632000D03*
X186960000Y-103632000D03*
%TD*%
D19*
%TO.C,C8*%
X222990500Y-101346000D03*
X225065500Y-101346000D03*
%TD*%
D20*
%TO.C,L2*%
X221622000Y-85979000D03*
X219322000Y-85979000D03*
%TD*%
D15*
%TO.C,D17*%
X218472000Y-143764000D03*
X222472000Y-143764000D03*
%TD*%
D21*
%TO.C,R33*%
X220797590Y-151648311D03*
X220797590Y-153648311D03*
%TD*%
D18*
%TO.C,R24*%
X204835000Y-169926000D03*
X202835000Y-169926000D03*
%TD*%
D22*
%TO.C,D10*%
X192659000Y-131350000D03*
X192659000Y-135350000D03*
%TD*%
D23*
%TO.C,U9*%
X219331770Y-89863311D03*
X219331770Y-90813311D03*
X219331770Y-91763311D03*
X221606770Y-91763311D03*
X221606770Y-89863311D03*
%TD*%
D24*
%TO.C,R2*%
X186944000Y-123174000D03*
X186944000Y-121174000D03*
%TD*%
D18*
%TO.C,R21*%
X201533000Y-144602200D03*
X199533000Y-144602200D03*
%TD*%
D25*
%TO.C,C5*%
X210052500Y-153206000D03*
X207977500Y-153206000D03*
%TD*%
D16*
%TO.C,D20*%
X223083590Y-158868311D03*
X223083590Y-161668311D03*
%TD*%
D13*
%TO.C,D4*%
X184658000Y-138814000D03*
X184658000Y-136014000D03*
%TD*%
D12*
%TO.C,R39*%
X223028000Y-114681000D03*
X225028000Y-114681000D03*
%TD*%
D18*
%TO.C,R25*%
X212455000Y-169926000D03*
X210455000Y-169926000D03*
%TD*%
D19*
%TO.C,C9*%
X222990500Y-112649000D03*
X225065500Y-112649000D03*
%TD*%
D12*
%TO.C,R38*%
X223028000Y-110617000D03*
X225028000Y-110617000D03*
%TD*%
%TO.C,R30*%
X219472000Y-79883000D03*
X221472000Y-79883000D03*
%TD*%
D18*
%TO.C,R17*%
X188960000Y-107696000D03*
X186960000Y-107696000D03*
%TD*%
D16*
%TO.C,D19*%
X223083590Y-151248311D03*
X223083590Y-154048311D03*
%TD*%
D26*
%TO.C,U7*%
X220044000Y-101280000D03*
X220044000Y-100330000D03*
X220044000Y-99380000D03*
X217344000Y-99380000D03*
X217344000Y-100330000D03*
X217344000Y-101280000D03*
%TD*%
D17*
%TO.C,D15*%
X220475000Y-172212000D03*
X217675000Y-172212000D03*
%TD*%
D18*
%TO.C,R14*%
X188960000Y-97536000D03*
X186960000Y-97536000D03*
%TD*%
D21*
%TO.C,R34*%
X220797590Y-159268311D03*
X220797590Y-161268311D03*
%TD*%
D17*
%TO.C,D14*%
X212855000Y-172212000D03*
X210055000Y-172212000D03*
%TD*%
D23*
%TO.C,D13*%
X207269500Y-149418000D03*
X207269500Y-151318000D03*
X209544500Y-150368000D03*
%TD*%
D27*
%TO.C,U4*%
X213487000Y-124189500D03*
X208407000Y-124189500D03*
X208407000Y-127989500D03*
X213487000Y-127989500D03*
%TD*%
D24*
%TO.C,R4*%
X186944000Y-138414000D03*
X186944000Y-136414000D03*
%TD*%
D28*
%TO.C,U8*%
X216881000Y-130458300D03*
X216881000Y-131728300D03*
X216881000Y-132998300D03*
X216881000Y-134268300D03*
X222031000Y-134268300D03*
X222031000Y-132998300D03*
X222031000Y-131728300D03*
X222031000Y-130458300D03*
%TD*%
D18*
%TO.C,R18*%
X189595000Y-167894000D03*
X187595000Y-167894000D03*
%TD*%
D12*
%TO.C,R10*%
X186960000Y-89408000D03*
X188960000Y-89408000D03*
%TD*%
D17*
%TO.C,D11*%
X197615000Y-172212000D03*
X194815000Y-172212000D03*
%TD*%
D18*
%TO.C,R16*%
X188960000Y-105664000D03*
X186960000Y-105664000D03*
%TD*%
D24*
%TO.C,R7*%
X186944000Y-161274000D03*
X186944000Y-159274000D03*
%TD*%
D18*
%TO.C,R28*%
X219694000Y-103251000D03*
X217694000Y-103251000D03*
%TD*%
D12*
%TO.C,R8*%
X186960000Y-85344000D03*
X188960000Y-85344000D03*
%TD*%
D29*
%TO.C,C3*%
X197065500Y-137541000D03*
X200190500Y-137541000D03*
%TD*%
D30*
%TO.C,L1*%
X192659000Y-141751000D03*
X192659000Y-138411000D03*
%TD*%
D31*
%TO.C,Q1*%
X215894500Y-151318000D03*
X215894500Y-149418000D03*
X213619500Y-150368000D03*
%TD*%
D18*
%TO.C,R20*%
X197215000Y-169926000D03*
X195215000Y-169926000D03*
%TD*%
D28*
%TO.C,U3*%
X206467000Y-155194000D03*
X206467000Y-156464000D03*
X206467000Y-157734000D03*
X206467000Y-159004000D03*
X206467000Y-160274000D03*
X206467000Y-161544000D03*
X206467000Y-162814000D03*
X206467000Y-164084000D03*
X211617000Y-164084000D03*
X211617000Y-162814000D03*
X211617000Y-161544000D03*
X211617000Y-160274000D03*
X211617000Y-159004000D03*
X211617000Y-157734000D03*
X211617000Y-156464000D03*
X211617000Y-155194000D03*
%TD*%
D19*
%TO.C,C6*%
X217656500Y-97409000D03*
X219731500Y-97409000D03*
%TD*%
D13*
%TO.C,D6*%
X184658000Y-154054000D03*
X184658000Y-151254000D03*
%TD*%
D23*
%TO.C,U2*%
X198252500Y-140782000D03*
X198252500Y-141732000D03*
X198252500Y-142682000D03*
X200527500Y-142682000D03*
X200527500Y-141732000D03*
X200527500Y-140782000D03*
%TD*%
D28*
%TO.C,U1*%
X193767000Y-155194000D03*
X193767000Y-156464000D03*
X193767000Y-157734000D03*
X193767000Y-159004000D03*
X193767000Y-160274000D03*
X193767000Y-161544000D03*
X193767000Y-162814000D03*
X193767000Y-164084000D03*
X198917000Y-164084000D03*
X198917000Y-162814000D03*
X198917000Y-161544000D03*
X198917000Y-160274000D03*
X198917000Y-159004000D03*
X198917000Y-157734000D03*
X198917000Y-156464000D03*
X198917000Y-155194000D03*
%TD*%
D25*
%TO.C,C2*%
X199157500Y-153289000D03*
X197082500Y-153289000D03*
%TD*%
D13*
%TO.C,D8*%
X184658000Y-169294000D03*
X184658000Y-166494000D03*
%TD*%
D21*
%TO.C,R29*%
X218765590Y-166888311D03*
X218765590Y-168888311D03*
%TD*%
D19*
%TO.C,C7*%
X219434500Y-88011000D03*
X221509500Y-88011000D03*
%TD*%
D18*
%TO.C,R12*%
X188960000Y-93472000D03*
X186960000Y-93472000D03*
%TD*%
D32*
%TO.C,C4*%
X206121000Y-126259500D03*
X206121000Y-124184500D03*
%TD*%
D33*
%TO.C,U6*%
X208457000Y-139432000D03*
X208457000Y-141732000D03*
D34*
X214757000Y-141732000D03*
D33*
X208457000Y-144032000D03*
%TD*%
D15*
%TO.C,D16*%
X218472000Y-139954000D03*
X222472000Y-139954000D03*
%TD*%
D24*
%TO.C,R1*%
X186944000Y-115554000D03*
X186944000Y-113554000D03*
%TD*%
D18*
%TO.C,R11*%
X188960000Y-91440000D03*
X186960000Y-91440000D03*
%TD*%
%TO.C,R9*%
X188960000Y-87376000D03*
X186960000Y-87376000D03*
%TD*%
D24*
%TO.C,R5*%
X186944000Y-146034000D03*
X186944000Y-144034000D03*
%TD*%
D18*
%TO.C,R22*%
X201533000Y-146634200D03*
X199533000Y-146634200D03*
%TD*%
D24*
%TO.C,R6*%
X186944000Y-153654000D03*
X186944000Y-151654000D03*
%TD*%
D35*
%TO.C,C1*%
X196088000Y-143294500D03*
X196088000Y-140169500D03*
%TD*%
D18*
%TO.C,R13*%
X188960000Y-95504000D03*
X186960000Y-95504000D03*
%TD*%
D17*
%TO.C,D9*%
X189995000Y-172212000D03*
X187195000Y-172212000D03*
%TD*%
D24*
%TO.C,R3*%
X186944000Y-130794000D03*
X186944000Y-128794000D03*
%TD*%
D18*
%TO.C,R19*%
X189595000Y-169926000D03*
X187595000Y-169926000D03*
%TD*%
D13*
%TO.C,D5*%
X184658000Y-146434000D03*
X184658000Y-143634000D03*
%TD*%
D24*
%TO.C,R23*%
X202488800Y-140649200D03*
X202488800Y-138649200D03*
%TD*%
D13*
%TO.C,D7*%
X184658000Y-161674000D03*
X184658000Y-158874000D03*
%TD*%
D12*
%TO.C,R36*%
X223028000Y-99314000D03*
X225028000Y-99314000D03*
%TD*%
D21*
%TO.C,R35*%
X220797590Y-166888311D03*
X220797590Y-168888311D03*
%TD*%
D13*
%TO.C,D1*%
X184658000Y-115954000D03*
X184658000Y-113154000D03*
%TD*%
%TO.C,D3*%
X184658000Y-131194000D03*
X184658000Y-128394000D03*
%TD*%
D12*
%TO.C,R32*%
X219472000Y-83947000D03*
X221472000Y-83947000D03*
%TD*%
%TO.C,R26*%
X210607000Y-146558000D03*
X212607000Y-146558000D03*
%TD*%
%TO.C,R37*%
X223028000Y-103378000D03*
X225028000Y-103378000D03*
%TD*%
D18*
%TO.C,R27*%
X215757000Y-153187400D03*
X213757000Y-153187400D03*
%TD*%
M02*
