%TF.GenerationSoftware,KiCad,Pcbnew,9.0.6-9.0.6~ubuntu24.04.1*%
%TF.CreationDate,2025-12-28T11:43:02-08:00*%
%TF.ProjectId,Pico-ButtonBoard-v1,5069636f-2d42-4757-9474-6f6e426f6172,1*%
%TF.SameCoordinates,Original*%
%TF.FileFunction,Legend,Bot*%
%TF.FilePolarity,Positive*%
%FSLAX46Y46*%
G04 Gerber Fmt 4.6, Leading zero omitted, Abs format (unit mm)*
G04 Created by KiCad (PCBNEW 9.0.6-9.0.6~ubuntu24.04.1) date 2025-12-28 11:43:02*
%MOMM*%
%LPD*%
G01*
G04 APERTURE LIST*
%ADD10C,0.127000*%
%ADD11C,0.120000*%
G04 APERTURE END LIST*
D10*
X227179414Y-103665159D02*
X227391081Y-103362778D01*
X227542271Y-103665159D02*
X227542271Y-103030159D01*
X227542271Y-103030159D02*
X227300366Y-103030159D01*
X227300366Y-103030159D02*
X227239890Y-103060397D01*
X227239890Y-103060397D02*
X227209652Y-103090635D01*
X227209652Y-103090635D02*
X227179414Y-103151111D01*
X227179414Y-103151111D02*
X227179414Y-103241825D01*
X227179414Y-103241825D02*
X227209652Y-103302301D01*
X227209652Y-103302301D02*
X227239890Y-103332540D01*
X227239890Y-103332540D02*
X227300366Y-103362778D01*
X227300366Y-103362778D02*
X227542271Y-103362778D01*
X226635128Y-103241825D02*
X226635128Y-103665159D01*
X226786319Y-102999921D02*
X226937509Y-103453492D01*
X226937509Y-103453492D02*
X226544414Y-103453492D01*
X225969890Y-103665159D02*
X226332747Y-103665159D01*
X226151319Y-103665159D02*
X226151319Y-103030159D01*
X226151319Y-103030159D02*
X226211795Y-103120873D01*
X226211795Y-103120873D02*
X226272271Y-103181349D01*
X226272271Y-103181349D02*
X226332747Y-103211587D01*
X208053214Y-101124159D02*
X208264881Y-100821778D01*
X208416071Y-101124159D02*
X208416071Y-100489159D01*
X208416071Y-100489159D02*
X208174166Y-100489159D01*
X208174166Y-100489159D02*
X208113690Y-100519397D01*
X208113690Y-100519397D02*
X208083452Y-100549635D01*
X208083452Y-100549635D02*
X208053214Y-100610111D01*
X208053214Y-100610111D02*
X208053214Y-100700825D01*
X208053214Y-100700825D02*
X208083452Y-100761301D01*
X208083452Y-100761301D02*
X208113690Y-100791540D01*
X208113690Y-100791540D02*
X208174166Y-100821778D01*
X208174166Y-100821778D02*
X208416071Y-100821778D01*
X207478690Y-100489159D02*
X207781071Y-100489159D01*
X207781071Y-100489159D02*
X207811309Y-100791540D01*
X207811309Y-100791540D02*
X207781071Y-100761301D01*
X207781071Y-100761301D02*
X207720595Y-100731063D01*
X207720595Y-100731063D02*
X207569404Y-100731063D01*
X207569404Y-100731063D02*
X207508928Y-100761301D01*
X207508928Y-100761301D02*
X207478690Y-100791540D01*
X207478690Y-100791540D02*
X207448452Y-100852016D01*
X207448452Y-100852016D02*
X207448452Y-101003206D01*
X207448452Y-101003206D02*
X207478690Y-101063682D01*
X207478690Y-101063682D02*
X207508928Y-101093921D01*
X207508928Y-101093921D02*
X207569404Y-101124159D01*
X207569404Y-101124159D02*
X207720595Y-101124159D01*
X207720595Y-101124159D02*
X207781071Y-101093921D01*
X207781071Y-101093921D02*
X207811309Y-101063682D01*
X207146071Y-101124159D02*
X207025119Y-101124159D01*
X207025119Y-101124159D02*
X206964642Y-101093921D01*
X206964642Y-101093921D02*
X206934404Y-101063682D01*
X206934404Y-101063682D02*
X206873928Y-100972968D01*
X206873928Y-100972968D02*
X206843690Y-100852016D01*
X206843690Y-100852016D02*
X206843690Y-100610111D01*
X206843690Y-100610111D02*
X206873928Y-100549635D01*
X206873928Y-100549635D02*
X206904166Y-100519397D01*
X206904166Y-100519397D02*
X206964642Y-100489159D01*
X206964642Y-100489159D02*
X207085595Y-100489159D01*
X207085595Y-100489159D02*
X207146071Y-100519397D01*
X207146071Y-100519397D02*
X207176309Y-100549635D01*
X207176309Y-100549635D02*
X207206547Y-100610111D01*
X207206547Y-100610111D02*
X207206547Y-100761301D01*
X207206547Y-100761301D02*
X207176309Y-100821778D01*
X207176309Y-100821778D02*
X207146071Y-100852016D01*
X207146071Y-100852016D02*
X207085595Y-100882254D01*
X207085595Y-100882254D02*
X206964642Y-100882254D01*
X206964642Y-100882254D02*
X206904166Y-100852016D01*
X206904166Y-100852016D02*
X206873928Y-100821778D01*
X206873928Y-100821778D02*
X206843690Y-100761301D01*
X183618414Y-121445159D02*
X183830081Y-121142778D01*
X183981271Y-121445159D02*
X183981271Y-120810159D01*
X183981271Y-120810159D02*
X183739366Y-120810159D01*
X183739366Y-120810159D02*
X183678890Y-120840397D01*
X183678890Y-120840397D02*
X183648652Y-120870635D01*
X183648652Y-120870635D02*
X183618414Y-120931111D01*
X183618414Y-120931111D02*
X183618414Y-121021825D01*
X183618414Y-121021825D02*
X183648652Y-121082301D01*
X183648652Y-121082301D02*
X183678890Y-121112540D01*
X183678890Y-121112540D02*
X183739366Y-121142778D01*
X183739366Y-121142778D02*
X183981271Y-121142778D01*
X183406747Y-120810159D02*
X182983414Y-120810159D01*
X182983414Y-120810159D02*
X183255557Y-121445159D01*
X182439128Y-120810159D02*
X182741509Y-120810159D01*
X182741509Y-120810159D02*
X182771747Y-121112540D01*
X182771747Y-121112540D02*
X182741509Y-121082301D01*
X182741509Y-121082301D02*
X182681033Y-121052063D01*
X182681033Y-121052063D02*
X182529842Y-121052063D01*
X182529842Y-121052063D02*
X182469366Y-121082301D01*
X182469366Y-121082301D02*
X182439128Y-121112540D01*
X182439128Y-121112540D02*
X182408890Y-121173016D01*
X182408890Y-121173016D02*
X182408890Y-121324206D01*
X182408890Y-121324206D02*
X182439128Y-121384682D01*
X182439128Y-121384682D02*
X182469366Y-121414921D01*
X182469366Y-121414921D02*
X182529842Y-121445159D01*
X182529842Y-121445159D02*
X182681033Y-121445159D01*
X182681033Y-121445159D02*
X182741509Y-121414921D01*
X182741509Y-121414921D02*
X182771747Y-121384682D01*
X183618414Y-123391282D02*
X183648652Y-123421521D01*
X183648652Y-123421521D02*
X183739366Y-123451759D01*
X183739366Y-123451759D02*
X183799842Y-123451759D01*
X183799842Y-123451759D02*
X183890557Y-123421521D01*
X183890557Y-123421521D02*
X183951033Y-123361044D01*
X183951033Y-123361044D02*
X183981271Y-123300568D01*
X183981271Y-123300568D02*
X184011509Y-123179616D01*
X184011509Y-123179616D02*
X184011509Y-123088901D01*
X184011509Y-123088901D02*
X183981271Y-122967949D01*
X183981271Y-122967949D02*
X183951033Y-122907473D01*
X183951033Y-122907473D02*
X183890557Y-122846997D01*
X183890557Y-122846997D02*
X183799842Y-122816759D01*
X183799842Y-122816759D02*
X183739366Y-122816759D01*
X183739366Y-122816759D02*
X183648652Y-122846997D01*
X183648652Y-122846997D02*
X183618414Y-122877235D01*
X183406747Y-122816759D02*
X183013652Y-122816759D01*
X183013652Y-122816759D02*
X183225319Y-123058663D01*
X183225319Y-123058663D02*
X183134604Y-123058663D01*
X183134604Y-123058663D02*
X183074128Y-123088901D01*
X183074128Y-123088901D02*
X183043890Y-123119140D01*
X183043890Y-123119140D02*
X183013652Y-123179616D01*
X183013652Y-123179616D02*
X183013652Y-123330806D01*
X183013652Y-123330806D02*
X183043890Y-123391282D01*
X183043890Y-123391282D02*
X183074128Y-123421521D01*
X183074128Y-123421521D02*
X183134604Y-123451759D01*
X183134604Y-123451759D02*
X183316033Y-123451759D01*
X183316033Y-123451759D02*
X183376509Y-123421521D01*
X183376509Y-123421521D02*
X183406747Y-123391282D01*
X182439128Y-122816759D02*
X182741509Y-122816759D01*
X182741509Y-122816759D02*
X182771747Y-123119140D01*
X182771747Y-123119140D02*
X182741509Y-123088901D01*
X182741509Y-123088901D02*
X182681033Y-123058663D01*
X182681033Y-123058663D02*
X182529842Y-123058663D01*
X182529842Y-123058663D02*
X182469366Y-123088901D01*
X182469366Y-123088901D02*
X182439128Y-123119140D01*
X182439128Y-123119140D02*
X182408890Y-123179616D01*
X182408890Y-123179616D02*
X182408890Y-123330806D01*
X182408890Y-123330806D02*
X182439128Y-123391282D01*
X182439128Y-123391282D02*
X182469366Y-123421521D01*
X182469366Y-123421521D02*
X182529842Y-123451759D01*
X182529842Y-123451759D02*
X182681033Y-123451759D01*
X182681033Y-123451759D02*
X182741509Y-123421521D01*
X182741509Y-123421521D02*
X182771747Y-123391282D01*
X221308282Y-173302385D02*
X221338521Y-173272147D01*
X221338521Y-173272147D02*
X221368759Y-173181433D01*
X221368759Y-173181433D02*
X221368759Y-173120957D01*
X221368759Y-173120957D02*
X221338521Y-173030242D01*
X221338521Y-173030242D02*
X221278044Y-172969766D01*
X221278044Y-172969766D02*
X221217568Y-172939528D01*
X221217568Y-172939528D02*
X221096616Y-172909290D01*
X221096616Y-172909290D02*
X221005901Y-172909290D01*
X221005901Y-172909290D02*
X220884949Y-172939528D01*
X220884949Y-172939528D02*
X220824473Y-172969766D01*
X220824473Y-172969766D02*
X220763997Y-173030242D01*
X220763997Y-173030242D02*
X220733759Y-173120957D01*
X220733759Y-173120957D02*
X220733759Y-173181433D01*
X220733759Y-173181433D02*
X220763997Y-173272147D01*
X220763997Y-173272147D02*
X220794235Y-173302385D01*
X221368759Y-173907147D02*
X221368759Y-173544290D01*
X221368759Y-173725718D02*
X220733759Y-173725718D01*
X220733759Y-173725718D02*
X220824473Y-173665242D01*
X220824473Y-173665242D02*
X220884949Y-173604766D01*
X220884949Y-173604766D02*
X220915187Y-173544290D01*
X220733759Y-174481671D02*
X220733759Y-174179290D01*
X220733759Y-174179290D02*
X221036140Y-174149052D01*
X221036140Y-174149052D02*
X221005901Y-174179290D01*
X221005901Y-174179290D02*
X220975663Y-174239766D01*
X220975663Y-174239766D02*
X220975663Y-174390957D01*
X220975663Y-174390957D02*
X221005901Y-174451433D01*
X221005901Y-174451433D02*
X221036140Y-174481671D01*
X221036140Y-174481671D02*
X221096616Y-174511909D01*
X221096616Y-174511909D02*
X221247806Y-174511909D01*
X221247806Y-174511909D02*
X221308282Y-174481671D01*
X221308282Y-174481671D02*
X221338521Y-174451433D01*
X221338521Y-174451433D02*
X221368759Y-174390957D01*
X221368759Y-174390957D02*
X221368759Y-174239766D01*
X221368759Y-174239766D02*
X221338521Y-174179290D01*
X221338521Y-174179290D02*
X221308282Y-174149052D01*
X213471276Y-143197235D02*
X213531752Y-143166997D01*
X213531752Y-143166997D02*
X213592228Y-143106521D01*
X213592228Y-143106521D02*
X213682942Y-143015806D01*
X213682942Y-143015806D02*
X213743419Y-142985568D01*
X213743419Y-142985568D02*
X213803895Y-142985568D01*
X213773657Y-143136759D02*
X213834133Y-143106521D01*
X213834133Y-143106521D02*
X213894609Y-143046044D01*
X213894609Y-143046044D02*
X213924847Y-142925092D01*
X213924847Y-142925092D02*
X213924847Y-142713425D01*
X213924847Y-142713425D02*
X213894609Y-142592473D01*
X213894609Y-142592473D02*
X213834133Y-142531997D01*
X213834133Y-142531997D02*
X213773657Y-142501759D01*
X213773657Y-142501759D02*
X213652704Y-142501759D01*
X213652704Y-142501759D02*
X213592228Y-142531997D01*
X213592228Y-142531997D02*
X213531752Y-142592473D01*
X213531752Y-142592473D02*
X213501514Y-142713425D01*
X213501514Y-142713425D02*
X213501514Y-142925092D01*
X213501514Y-142925092D02*
X213531752Y-143046044D01*
X213531752Y-143046044D02*
X213592228Y-143106521D01*
X213592228Y-143106521D02*
X213652704Y-143136759D01*
X213652704Y-143136759D02*
X213773657Y-143136759D01*
X213259609Y-142562235D02*
X213229371Y-142531997D01*
X213229371Y-142531997D02*
X213168895Y-142501759D01*
X213168895Y-142501759D02*
X213017704Y-142501759D01*
X213017704Y-142501759D02*
X212957228Y-142531997D01*
X212957228Y-142531997D02*
X212926990Y-142562235D01*
X212926990Y-142562235D02*
X212896752Y-142622711D01*
X212896752Y-142622711D02*
X212896752Y-142683187D01*
X212896752Y-142683187D02*
X212926990Y-142773901D01*
X212926990Y-142773901D02*
X213289847Y-143136759D01*
X213289847Y-143136759D02*
X212896752Y-143136759D01*
X183618414Y-117889159D02*
X183830081Y-117586778D01*
X183981271Y-117889159D02*
X183981271Y-117254159D01*
X183981271Y-117254159D02*
X183739366Y-117254159D01*
X183739366Y-117254159D02*
X183678890Y-117284397D01*
X183678890Y-117284397D02*
X183648652Y-117314635D01*
X183648652Y-117314635D02*
X183618414Y-117375111D01*
X183618414Y-117375111D02*
X183618414Y-117465825D01*
X183618414Y-117465825D02*
X183648652Y-117526301D01*
X183648652Y-117526301D02*
X183678890Y-117556540D01*
X183678890Y-117556540D02*
X183739366Y-117586778D01*
X183739366Y-117586778D02*
X183981271Y-117586778D01*
X183406747Y-117254159D02*
X182983414Y-117254159D01*
X182983414Y-117254159D02*
X183255557Y-117889159D01*
X182469366Y-117465825D02*
X182469366Y-117889159D01*
X182620557Y-117223921D02*
X182771747Y-117677492D01*
X182771747Y-117677492D02*
X182378652Y-117677492D01*
X191136814Y-95791159D02*
X191348481Y-95488778D01*
X191499671Y-95791159D02*
X191499671Y-95156159D01*
X191499671Y-95156159D02*
X191257766Y-95156159D01*
X191257766Y-95156159D02*
X191197290Y-95186397D01*
X191197290Y-95186397D02*
X191167052Y-95216635D01*
X191167052Y-95216635D02*
X191136814Y-95277111D01*
X191136814Y-95277111D02*
X191136814Y-95367825D01*
X191136814Y-95367825D02*
X191167052Y-95428301D01*
X191167052Y-95428301D02*
X191197290Y-95458540D01*
X191197290Y-95458540D02*
X191257766Y-95488778D01*
X191257766Y-95488778D02*
X191499671Y-95488778D01*
X190592528Y-95156159D02*
X190713481Y-95156159D01*
X190713481Y-95156159D02*
X190773957Y-95186397D01*
X190773957Y-95186397D02*
X190804195Y-95216635D01*
X190804195Y-95216635D02*
X190864671Y-95307349D01*
X190864671Y-95307349D02*
X190894909Y-95428301D01*
X190894909Y-95428301D02*
X190894909Y-95670206D01*
X190894909Y-95670206D02*
X190864671Y-95730682D01*
X190864671Y-95730682D02*
X190834433Y-95760921D01*
X190834433Y-95760921D02*
X190773957Y-95791159D01*
X190773957Y-95791159D02*
X190653004Y-95791159D01*
X190653004Y-95791159D02*
X190592528Y-95760921D01*
X190592528Y-95760921D02*
X190562290Y-95730682D01*
X190562290Y-95730682D02*
X190532052Y-95670206D01*
X190532052Y-95670206D02*
X190532052Y-95519016D01*
X190532052Y-95519016D02*
X190562290Y-95458540D01*
X190562290Y-95458540D02*
X190592528Y-95428301D01*
X190592528Y-95428301D02*
X190653004Y-95398063D01*
X190653004Y-95398063D02*
X190773957Y-95398063D01*
X190773957Y-95398063D02*
X190834433Y-95428301D01*
X190834433Y-95428301D02*
X190864671Y-95458540D01*
X190864671Y-95458540D02*
X190894909Y-95519016D01*
X190169195Y-95428301D02*
X190229671Y-95398063D01*
X190229671Y-95398063D02*
X190259909Y-95367825D01*
X190259909Y-95367825D02*
X190290147Y-95307349D01*
X190290147Y-95307349D02*
X190290147Y-95277111D01*
X190290147Y-95277111D02*
X190259909Y-95216635D01*
X190259909Y-95216635D02*
X190229671Y-95186397D01*
X190229671Y-95186397D02*
X190169195Y-95156159D01*
X190169195Y-95156159D02*
X190048242Y-95156159D01*
X190048242Y-95156159D02*
X189987766Y-95186397D01*
X189987766Y-95186397D02*
X189957528Y-95216635D01*
X189957528Y-95216635D02*
X189927290Y-95277111D01*
X189927290Y-95277111D02*
X189927290Y-95307349D01*
X189927290Y-95307349D02*
X189957528Y-95367825D01*
X189957528Y-95367825D02*
X189987766Y-95398063D01*
X189987766Y-95398063D02*
X190048242Y-95428301D01*
X190048242Y-95428301D02*
X190169195Y-95428301D01*
X190169195Y-95428301D02*
X190229671Y-95458540D01*
X190229671Y-95458540D02*
X190259909Y-95488778D01*
X190259909Y-95488778D02*
X190290147Y-95549254D01*
X190290147Y-95549254D02*
X190290147Y-95670206D01*
X190290147Y-95670206D02*
X190259909Y-95730682D01*
X190259909Y-95730682D02*
X190229671Y-95760921D01*
X190229671Y-95760921D02*
X190169195Y-95791159D01*
X190169195Y-95791159D02*
X190048242Y-95791159D01*
X190048242Y-95791159D02*
X189987766Y-95760921D01*
X189987766Y-95760921D02*
X189957528Y-95730682D01*
X189957528Y-95730682D02*
X189927290Y-95670206D01*
X189927290Y-95670206D02*
X189927290Y-95549254D01*
X189927290Y-95549254D02*
X189957528Y-95488778D01*
X189957528Y-95488778D02*
X189987766Y-95458540D01*
X189987766Y-95458540D02*
X190048242Y-95428301D01*
X191136814Y-93759159D02*
X191348481Y-93456778D01*
X191499671Y-93759159D02*
X191499671Y-93124159D01*
X191499671Y-93124159D02*
X191257766Y-93124159D01*
X191257766Y-93124159D02*
X191197290Y-93154397D01*
X191197290Y-93154397D02*
X191167052Y-93184635D01*
X191167052Y-93184635D02*
X191136814Y-93245111D01*
X191136814Y-93245111D02*
X191136814Y-93335825D01*
X191136814Y-93335825D02*
X191167052Y-93396301D01*
X191167052Y-93396301D02*
X191197290Y-93426540D01*
X191197290Y-93426540D02*
X191257766Y-93456778D01*
X191257766Y-93456778D02*
X191499671Y-93456778D01*
X190592528Y-93124159D02*
X190713481Y-93124159D01*
X190713481Y-93124159D02*
X190773957Y-93154397D01*
X190773957Y-93154397D02*
X190804195Y-93184635D01*
X190804195Y-93184635D02*
X190864671Y-93275349D01*
X190864671Y-93275349D02*
X190894909Y-93396301D01*
X190894909Y-93396301D02*
X190894909Y-93638206D01*
X190894909Y-93638206D02*
X190864671Y-93698682D01*
X190864671Y-93698682D02*
X190834433Y-93728921D01*
X190834433Y-93728921D02*
X190773957Y-93759159D01*
X190773957Y-93759159D02*
X190653004Y-93759159D01*
X190653004Y-93759159D02*
X190592528Y-93728921D01*
X190592528Y-93728921D02*
X190562290Y-93698682D01*
X190562290Y-93698682D02*
X190532052Y-93638206D01*
X190532052Y-93638206D02*
X190532052Y-93487016D01*
X190532052Y-93487016D02*
X190562290Y-93426540D01*
X190562290Y-93426540D02*
X190592528Y-93396301D01*
X190592528Y-93396301D02*
X190653004Y-93366063D01*
X190653004Y-93366063D02*
X190773957Y-93366063D01*
X190773957Y-93366063D02*
X190834433Y-93396301D01*
X190834433Y-93396301D02*
X190864671Y-93426540D01*
X190864671Y-93426540D02*
X190894909Y-93487016D01*
X190320385Y-93124159D02*
X189897052Y-93124159D01*
X189897052Y-93124159D02*
X190169195Y-93759159D01*
X221667614Y-112850282D02*
X221697852Y-112880521D01*
X221697852Y-112880521D02*
X221788566Y-112910759D01*
X221788566Y-112910759D02*
X221849042Y-112910759D01*
X221849042Y-112910759D02*
X221939757Y-112880521D01*
X221939757Y-112880521D02*
X222000233Y-112820044D01*
X222000233Y-112820044D02*
X222030471Y-112759568D01*
X222030471Y-112759568D02*
X222060709Y-112638616D01*
X222060709Y-112638616D02*
X222060709Y-112547901D01*
X222060709Y-112547901D02*
X222030471Y-112426949D01*
X222030471Y-112426949D02*
X222000233Y-112366473D01*
X222000233Y-112366473D02*
X221939757Y-112305997D01*
X221939757Y-112305997D02*
X221849042Y-112275759D01*
X221849042Y-112275759D02*
X221788566Y-112275759D01*
X221788566Y-112275759D02*
X221697852Y-112305997D01*
X221697852Y-112305997D02*
X221667614Y-112336235D01*
X221062852Y-112910759D02*
X221425709Y-112910759D01*
X221244281Y-112910759D02*
X221244281Y-112275759D01*
X221244281Y-112275759D02*
X221304757Y-112366473D01*
X221304757Y-112366473D02*
X221365233Y-112426949D01*
X221365233Y-112426949D02*
X221425709Y-112457187D01*
X220458090Y-112910759D02*
X220820947Y-112910759D01*
X220639519Y-112910759D02*
X220639519Y-112275759D01*
X220639519Y-112275759D02*
X220699995Y-112366473D01*
X220699995Y-112366473D02*
X220760471Y-112426949D01*
X220760471Y-112426949D02*
X220820947Y-112457187D01*
X225299814Y-153337882D02*
X225330052Y-153368121D01*
X225330052Y-153368121D02*
X225420766Y-153398359D01*
X225420766Y-153398359D02*
X225481242Y-153398359D01*
X225481242Y-153398359D02*
X225571957Y-153368121D01*
X225571957Y-153368121D02*
X225632433Y-153307644D01*
X225632433Y-153307644D02*
X225662671Y-153247168D01*
X225662671Y-153247168D02*
X225692909Y-153126216D01*
X225692909Y-153126216D02*
X225692909Y-153035501D01*
X225692909Y-153035501D02*
X225662671Y-152914549D01*
X225662671Y-152914549D02*
X225632433Y-152854073D01*
X225632433Y-152854073D02*
X225571957Y-152793597D01*
X225571957Y-152793597D02*
X225481242Y-152763359D01*
X225481242Y-152763359D02*
X225420766Y-152763359D01*
X225420766Y-152763359D02*
X225330052Y-152793597D01*
X225330052Y-152793597D02*
X225299814Y-152823835D01*
X224695052Y-153398359D02*
X225057909Y-153398359D01*
X224876481Y-153398359D02*
X224876481Y-152763359D01*
X224876481Y-152763359D02*
X224936957Y-152854073D01*
X224936957Y-152854073D02*
X224997433Y-152914549D01*
X224997433Y-152914549D02*
X225057909Y-152944787D01*
X224453147Y-152823835D02*
X224422909Y-152793597D01*
X224422909Y-152793597D02*
X224362433Y-152763359D01*
X224362433Y-152763359D02*
X224211242Y-152763359D01*
X224211242Y-152763359D02*
X224150766Y-152793597D01*
X224150766Y-152793597D02*
X224120528Y-152823835D01*
X224120528Y-152823835D02*
X224090290Y-152884311D01*
X224090290Y-152884311D02*
X224090290Y-152944787D01*
X224090290Y-152944787D02*
X224120528Y-153035501D01*
X224120528Y-153035501D02*
X224483385Y-153398359D01*
X224483385Y-153398359D02*
X224090290Y-153398359D01*
X183618414Y-151925159D02*
X183830081Y-151622778D01*
X183981271Y-151925159D02*
X183981271Y-151290159D01*
X183981271Y-151290159D02*
X183739366Y-151290159D01*
X183739366Y-151290159D02*
X183678890Y-151320397D01*
X183678890Y-151320397D02*
X183648652Y-151350635D01*
X183648652Y-151350635D02*
X183618414Y-151411111D01*
X183618414Y-151411111D02*
X183618414Y-151501825D01*
X183618414Y-151501825D02*
X183648652Y-151562301D01*
X183648652Y-151562301D02*
X183678890Y-151592540D01*
X183678890Y-151592540D02*
X183739366Y-151622778D01*
X183739366Y-151622778D02*
X183981271Y-151622778D01*
X183255557Y-151562301D02*
X183316033Y-151532063D01*
X183316033Y-151532063D02*
X183346271Y-151501825D01*
X183346271Y-151501825D02*
X183376509Y-151441349D01*
X183376509Y-151441349D02*
X183376509Y-151411111D01*
X183376509Y-151411111D02*
X183346271Y-151350635D01*
X183346271Y-151350635D02*
X183316033Y-151320397D01*
X183316033Y-151320397D02*
X183255557Y-151290159D01*
X183255557Y-151290159D02*
X183134604Y-151290159D01*
X183134604Y-151290159D02*
X183074128Y-151320397D01*
X183074128Y-151320397D02*
X183043890Y-151350635D01*
X183043890Y-151350635D02*
X183013652Y-151411111D01*
X183013652Y-151411111D02*
X183013652Y-151441349D01*
X183013652Y-151441349D02*
X183043890Y-151501825D01*
X183043890Y-151501825D02*
X183074128Y-151532063D01*
X183074128Y-151532063D02*
X183134604Y-151562301D01*
X183134604Y-151562301D02*
X183255557Y-151562301D01*
X183255557Y-151562301D02*
X183316033Y-151592540D01*
X183316033Y-151592540D02*
X183346271Y-151622778D01*
X183346271Y-151622778D02*
X183376509Y-151683254D01*
X183376509Y-151683254D02*
X183376509Y-151804206D01*
X183376509Y-151804206D02*
X183346271Y-151864682D01*
X183346271Y-151864682D02*
X183316033Y-151894921D01*
X183316033Y-151894921D02*
X183255557Y-151925159D01*
X183255557Y-151925159D02*
X183134604Y-151925159D01*
X183134604Y-151925159D02*
X183074128Y-151894921D01*
X183074128Y-151894921D02*
X183043890Y-151864682D01*
X183043890Y-151864682D02*
X183013652Y-151804206D01*
X183013652Y-151804206D02*
X183013652Y-151683254D01*
X183013652Y-151683254D02*
X183043890Y-151622778D01*
X183043890Y-151622778D02*
X183074128Y-151592540D01*
X183074128Y-151592540D02*
X183134604Y-151562301D01*
X182801985Y-151290159D02*
X182408890Y-151290159D01*
X182408890Y-151290159D02*
X182620557Y-151532063D01*
X182620557Y-151532063D02*
X182529842Y-151532063D01*
X182529842Y-151532063D02*
X182469366Y-151562301D01*
X182469366Y-151562301D02*
X182439128Y-151592540D01*
X182439128Y-151592540D02*
X182408890Y-151653016D01*
X182408890Y-151653016D02*
X182408890Y-151804206D01*
X182408890Y-151804206D02*
X182439128Y-151864682D01*
X182439128Y-151864682D02*
X182469366Y-151894921D01*
X182469366Y-151894921D02*
X182529842Y-151925159D01*
X182529842Y-151925159D02*
X182711271Y-151925159D01*
X182711271Y-151925159D02*
X182771747Y-151894921D01*
X182771747Y-151894921D02*
X182801985Y-151864682D01*
X219127614Y-101902882D02*
X219157852Y-101933121D01*
X219157852Y-101933121D02*
X219248566Y-101963359D01*
X219248566Y-101963359D02*
X219309042Y-101963359D01*
X219309042Y-101963359D02*
X219399757Y-101933121D01*
X219399757Y-101933121D02*
X219460233Y-101872644D01*
X219460233Y-101872644D02*
X219490471Y-101812168D01*
X219490471Y-101812168D02*
X219520709Y-101691216D01*
X219520709Y-101691216D02*
X219520709Y-101600501D01*
X219520709Y-101600501D02*
X219490471Y-101479549D01*
X219490471Y-101479549D02*
X219460233Y-101419073D01*
X219460233Y-101419073D02*
X219399757Y-101358597D01*
X219399757Y-101358597D02*
X219309042Y-101328359D01*
X219309042Y-101328359D02*
X219248566Y-101328359D01*
X219248566Y-101328359D02*
X219157852Y-101358597D01*
X219157852Y-101358597D02*
X219127614Y-101388835D01*
X218885709Y-101388835D02*
X218855471Y-101358597D01*
X218855471Y-101358597D02*
X218794995Y-101328359D01*
X218794995Y-101328359D02*
X218643804Y-101328359D01*
X218643804Y-101328359D02*
X218583328Y-101358597D01*
X218583328Y-101358597D02*
X218553090Y-101388835D01*
X218553090Y-101388835D02*
X218522852Y-101449311D01*
X218522852Y-101449311D02*
X218522852Y-101509787D01*
X218522852Y-101509787D02*
X218553090Y-101600501D01*
X218553090Y-101600501D02*
X218915947Y-101963359D01*
X218915947Y-101963359D02*
X218522852Y-101963359D01*
X217918090Y-101963359D02*
X218280947Y-101963359D01*
X218099519Y-101963359D02*
X218099519Y-101328359D01*
X218099519Y-101328359D02*
X218159995Y-101419073D01*
X218159995Y-101419073D02*
X218220471Y-101479549D01*
X218220471Y-101479549D02*
X218280947Y-101509787D01*
X202004282Y-173302385D02*
X202034521Y-173272147D01*
X202034521Y-173272147D02*
X202064759Y-173181433D01*
X202064759Y-173181433D02*
X202064759Y-173120957D01*
X202064759Y-173120957D02*
X202034521Y-173030242D01*
X202034521Y-173030242D02*
X201974044Y-172969766D01*
X201974044Y-172969766D02*
X201913568Y-172939528D01*
X201913568Y-172939528D02*
X201792616Y-172909290D01*
X201792616Y-172909290D02*
X201701901Y-172909290D01*
X201701901Y-172909290D02*
X201580949Y-172939528D01*
X201580949Y-172939528D02*
X201520473Y-172969766D01*
X201520473Y-172969766D02*
X201459997Y-173030242D01*
X201459997Y-173030242D02*
X201429759Y-173120957D01*
X201429759Y-173120957D02*
X201429759Y-173181433D01*
X201429759Y-173181433D02*
X201459997Y-173272147D01*
X201459997Y-173272147D02*
X201490235Y-173302385D01*
X201490235Y-173544290D02*
X201459997Y-173574528D01*
X201459997Y-173574528D02*
X201429759Y-173635004D01*
X201429759Y-173635004D02*
X201429759Y-173786195D01*
X201429759Y-173786195D02*
X201459997Y-173846671D01*
X201459997Y-173846671D02*
X201490235Y-173876909D01*
X201490235Y-173876909D02*
X201550711Y-173907147D01*
X201550711Y-173907147D02*
X201611187Y-173907147D01*
X201611187Y-173907147D02*
X201701901Y-173876909D01*
X201701901Y-173876909D02*
X202064759Y-173514052D01*
X202064759Y-173514052D02*
X202064759Y-173907147D01*
X201701901Y-174270004D02*
X201671663Y-174209528D01*
X201671663Y-174209528D02*
X201641425Y-174179290D01*
X201641425Y-174179290D02*
X201580949Y-174149052D01*
X201580949Y-174149052D02*
X201550711Y-174149052D01*
X201550711Y-174149052D02*
X201490235Y-174179290D01*
X201490235Y-174179290D02*
X201459997Y-174209528D01*
X201459997Y-174209528D02*
X201429759Y-174270004D01*
X201429759Y-174270004D02*
X201429759Y-174390957D01*
X201429759Y-174390957D02*
X201459997Y-174451433D01*
X201459997Y-174451433D02*
X201490235Y-174481671D01*
X201490235Y-174481671D02*
X201550711Y-174511909D01*
X201550711Y-174511909D02*
X201580949Y-174511909D01*
X201580949Y-174511909D02*
X201641425Y-174481671D01*
X201641425Y-174481671D02*
X201671663Y-174451433D01*
X201671663Y-174451433D02*
X201701901Y-174390957D01*
X201701901Y-174390957D02*
X201701901Y-174270004D01*
X201701901Y-174270004D02*
X201732140Y-174209528D01*
X201732140Y-174209528D02*
X201762378Y-174179290D01*
X201762378Y-174179290D02*
X201822854Y-174149052D01*
X201822854Y-174149052D02*
X201943806Y-174149052D01*
X201943806Y-174149052D02*
X202004282Y-174179290D01*
X202004282Y-174179290D02*
X202034521Y-174209528D01*
X202034521Y-174209528D02*
X202064759Y-174270004D01*
X202064759Y-174270004D02*
X202064759Y-174390957D01*
X202064759Y-174390957D02*
X202034521Y-174451433D01*
X202034521Y-174451433D02*
X202004282Y-174481671D01*
X202004282Y-174481671D02*
X201943806Y-174511909D01*
X201943806Y-174511909D02*
X201822854Y-174511909D01*
X201822854Y-174511909D02*
X201762378Y-174481671D01*
X201762378Y-174481671D02*
X201732140Y-174451433D01*
X201732140Y-174451433D02*
X201701901Y-174390957D01*
X217959214Y-92301682D02*
X217989452Y-92331921D01*
X217989452Y-92331921D02*
X218080166Y-92362159D01*
X218080166Y-92362159D02*
X218140642Y-92362159D01*
X218140642Y-92362159D02*
X218231357Y-92331921D01*
X218231357Y-92331921D02*
X218291833Y-92271444D01*
X218291833Y-92271444D02*
X218322071Y-92210968D01*
X218322071Y-92210968D02*
X218352309Y-92090016D01*
X218352309Y-92090016D02*
X218352309Y-91999301D01*
X218352309Y-91999301D02*
X218322071Y-91878349D01*
X218322071Y-91878349D02*
X218291833Y-91817873D01*
X218291833Y-91817873D02*
X218231357Y-91757397D01*
X218231357Y-91757397D02*
X218140642Y-91727159D01*
X218140642Y-91727159D02*
X218080166Y-91727159D01*
X218080166Y-91727159D02*
X217989452Y-91757397D01*
X217989452Y-91757397D02*
X217959214Y-91787635D01*
X217354452Y-92362159D02*
X217717309Y-92362159D01*
X217535881Y-92362159D02*
X217535881Y-91727159D01*
X217535881Y-91727159D02*
X217596357Y-91817873D01*
X217596357Y-91817873D02*
X217656833Y-91878349D01*
X217656833Y-91878349D02*
X217717309Y-91908587D01*
X217052071Y-92362159D02*
X216931119Y-92362159D01*
X216931119Y-92362159D02*
X216870642Y-92331921D01*
X216870642Y-92331921D02*
X216840404Y-92301682D01*
X216840404Y-92301682D02*
X216779928Y-92210968D01*
X216779928Y-92210968D02*
X216749690Y-92090016D01*
X216749690Y-92090016D02*
X216749690Y-91848111D01*
X216749690Y-91848111D02*
X216779928Y-91787635D01*
X216779928Y-91787635D02*
X216810166Y-91757397D01*
X216810166Y-91757397D02*
X216870642Y-91727159D01*
X216870642Y-91727159D02*
X216991595Y-91727159D01*
X216991595Y-91727159D02*
X217052071Y-91757397D01*
X217052071Y-91757397D02*
X217082309Y-91787635D01*
X217082309Y-91787635D02*
X217112547Y-91848111D01*
X217112547Y-91848111D02*
X217112547Y-91999301D01*
X217112547Y-91999301D02*
X217082309Y-92059778D01*
X217082309Y-92059778D02*
X217052071Y-92090016D01*
X217052071Y-92090016D02*
X216991595Y-92120254D01*
X216991595Y-92120254D02*
X216870642Y-92120254D01*
X216870642Y-92120254D02*
X216810166Y-92090016D01*
X216810166Y-92090016D02*
X216779928Y-92059778D01*
X216779928Y-92059778D02*
X216749690Y-91999301D01*
X191136814Y-107983159D02*
X191348481Y-107680778D01*
X191499671Y-107983159D02*
X191499671Y-107348159D01*
X191499671Y-107348159D02*
X191257766Y-107348159D01*
X191257766Y-107348159D02*
X191197290Y-107378397D01*
X191197290Y-107378397D02*
X191167052Y-107408635D01*
X191167052Y-107408635D02*
X191136814Y-107469111D01*
X191136814Y-107469111D02*
X191136814Y-107559825D01*
X191136814Y-107559825D02*
X191167052Y-107620301D01*
X191167052Y-107620301D02*
X191197290Y-107650540D01*
X191197290Y-107650540D02*
X191257766Y-107680778D01*
X191257766Y-107680778D02*
X191499671Y-107680778D01*
X190925147Y-107348159D02*
X190501814Y-107348159D01*
X190501814Y-107348159D02*
X190773957Y-107983159D01*
X190290147Y-107408635D02*
X190259909Y-107378397D01*
X190259909Y-107378397D02*
X190199433Y-107348159D01*
X190199433Y-107348159D02*
X190048242Y-107348159D01*
X190048242Y-107348159D02*
X189987766Y-107378397D01*
X189987766Y-107378397D02*
X189957528Y-107408635D01*
X189957528Y-107408635D02*
X189927290Y-107469111D01*
X189927290Y-107469111D02*
X189927290Y-107529587D01*
X189927290Y-107529587D02*
X189957528Y-107620301D01*
X189957528Y-107620301D02*
X190320385Y-107983159D01*
X190320385Y-107983159D02*
X189927290Y-107983159D01*
X196552959Y-173302385D02*
X196250578Y-173090718D01*
X196552959Y-172939528D02*
X195917959Y-172939528D01*
X195917959Y-172939528D02*
X195917959Y-173181433D01*
X195917959Y-173181433D02*
X195948197Y-173241909D01*
X195948197Y-173241909D02*
X195978435Y-173272147D01*
X195978435Y-173272147D02*
X196038911Y-173302385D01*
X196038911Y-173302385D02*
X196129625Y-173302385D01*
X196129625Y-173302385D02*
X196190101Y-173272147D01*
X196190101Y-173272147D02*
X196220340Y-173241909D01*
X196220340Y-173241909D02*
X196250578Y-173181433D01*
X196250578Y-173181433D02*
X196250578Y-172939528D01*
X195917959Y-173846671D02*
X195917959Y-173725718D01*
X195917959Y-173725718D02*
X195948197Y-173665242D01*
X195948197Y-173665242D02*
X195978435Y-173635004D01*
X195978435Y-173635004D02*
X196069149Y-173574528D01*
X196069149Y-173574528D02*
X196190101Y-173544290D01*
X196190101Y-173544290D02*
X196432006Y-173544290D01*
X196432006Y-173544290D02*
X196492482Y-173574528D01*
X196492482Y-173574528D02*
X196522721Y-173604766D01*
X196522721Y-173604766D02*
X196552959Y-173665242D01*
X196552959Y-173665242D02*
X196552959Y-173786195D01*
X196552959Y-173786195D02*
X196522721Y-173846671D01*
X196522721Y-173846671D02*
X196492482Y-173876909D01*
X196492482Y-173876909D02*
X196432006Y-173907147D01*
X196432006Y-173907147D02*
X196280816Y-173907147D01*
X196280816Y-173907147D02*
X196220340Y-173876909D01*
X196220340Y-173876909D02*
X196190101Y-173846671D01*
X196190101Y-173846671D02*
X196159863Y-173786195D01*
X196159863Y-173786195D02*
X196159863Y-173665242D01*
X196159863Y-173665242D02*
X196190101Y-173604766D01*
X196190101Y-173604766D02*
X196220340Y-173574528D01*
X196220340Y-173574528D02*
X196280816Y-173544290D01*
X196129625Y-174451433D02*
X196552959Y-174451433D01*
X195887721Y-174300242D02*
X196341292Y-174149052D01*
X196341292Y-174149052D02*
X196341292Y-174542147D01*
X212015214Y-145549759D02*
X212226881Y-145247378D01*
X212378071Y-145549759D02*
X212378071Y-144914759D01*
X212378071Y-144914759D02*
X212136166Y-144914759D01*
X212136166Y-144914759D02*
X212075690Y-144944997D01*
X212075690Y-144944997D02*
X212045452Y-144975235D01*
X212045452Y-144975235D02*
X212015214Y-145035711D01*
X212015214Y-145035711D02*
X212015214Y-145126425D01*
X212015214Y-145126425D02*
X212045452Y-145186901D01*
X212045452Y-145186901D02*
X212075690Y-145217140D01*
X212075690Y-145217140D02*
X212136166Y-145247378D01*
X212136166Y-145247378D02*
X212378071Y-145247378D01*
X211440690Y-144914759D02*
X211743071Y-144914759D01*
X211743071Y-144914759D02*
X211773309Y-145217140D01*
X211773309Y-145217140D02*
X211743071Y-145186901D01*
X211743071Y-145186901D02*
X211682595Y-145156663D01*
X211682595Y-145156663D02*
X211531404Y-145156663D01*
X211531404Y-145156663D02*
X211470928Y-145186901D01*
X211470928Y-145186901D02*
X211440690Y-145217140D01*
X211440690Y-145217140D02*
X211410452Y-145277616D01*
X211410452Y-145277616D02*
X211410452Y-145428806D01*
X211410452Y-145428806D02*
X211440690Y-145489282D01*
X211440690Y-145489282D02*
X211470928Y-145519521D01*
X211470928Y-145519521D02*
X211531404Y-145549759D01*
X211531404Y-145549759D02*
X211682595Y-145549759D01*
X211682595Y-145549759D02*
X211743071Y-145519521D01*
X211743071Y-145519521D02*
X211773309Y-145489282D01*
X210866166Y-144914759D02*
X210987119Y-144914759D01*
X210987119Y-144914759D02*
X211047595Y-144944997D01*
X211047595Y-144944997D02*
X211077833Y-144975235D01*
X211077833Y-144975235D02*
X211138309Y-145065949D01*
X211138309Y-145065949D02*
X211168547Y-145186901D01*
X211168547Y-145186901D02*
X211168547Y-145428806D01*
X211168547Y-145428806D02*
X211138309Y-145489282D01*
X211138309Y-145489282D02*
X211108071Y-145519521D01*
X211108071Y-145519521D02*
X211047595Y-145549759D01*
X211047595Y-145549759D02*
X210926642Y-145549759D01*
X210926642Y-145549759D02*
X210866166Y-145519521D01*
X210866166Y-145519521D02*
X210835928Y-145489282D01*
X210835928Y-145489282D02*
X210805690Y-145428806D01*
X210805690Y-145428806D02*
X210805690Y-145277616D01*
X210805690Y-145277616D02*
X210835928Y-145217140D01*
X210835928Y-145217140D02*
X210866166Y-145186901D01*
X210866166Y-145186901D02*
X210926642Y-145156663D01*
X210926642Y-145156663D02*
X211047595Y-145156663D01*
X211047595Y-145156663D02*
X211108071Y-145186901D01*
X211108071Y-145186901D02*
X211138309Y-145217140D01*
X211138309Y-145217140D02*
X211168547Y-145277616D01*
X209178071Y-153055159D02*
X209178071Y-152420159D01*
X209178071Y-152420159D02*
X209026881Y-152420159D01*
X209026881Y-152420159D02*
X208936166Y-152450397D01*
X208936166Y-152450397D02*
X208875690Y-152510873D01*
X208875690Y-152510873D02*
X208845452Y-152571349D01*
X208845452Y-152571349D02*
X208815214Y-152692301D01*
X208815214Y-152692301D02*
X208815214Y-152783016D01*
X208815214Y-152783016D02*
X208845452Y-152903968D01*
X208845452Y-152903968D02*
X208875690Y-152964444D01*
X208875690Y-152964444D02*
X208936166Y-153024921D01*
X208936166Y-153024921D02*
X209026881Y-153055159D01*
X209026881Y-153055159D02*
X209178071Y-153055159D01*
X208573309Y-152480635D02*
X208543071Y-152450397D01*
X208543071Y-152450397D02*
X208482595Y-152420159D01*
X208482595Y-152420159D02*
X208331404Y-152420159D01*
X208331404Y-152420159D02*
X208270928Y-152450397D01*
X208270928Y-152450397D02*
X208240690Y-152480635D01*
X208240690Y-152480635D02*
X208210452Y-152541111D01*
X208210452Y-152541111D02*
X208210452Y-152601587D01*
X208210452Y-152601587D02*
X208240690Y-152692301D01*
X208240690Y-152692301D02*
X208603547Y-153055159D01*
X208603547Y-153055159D02*
X208210452Y-153055159D01*
X207998785Y-152420159D02*
X207605690Y-152420159D01*
X207605690Y-152420159D02*
X207817357Y-152662063D01*
X207817357Y-152662063D02*
X207726642Y-152662063D01*
X207726642Y-152662063D02*
X207666166Y-152692301D01*
X207666166Y-152692301D02*
X207635928Y-152722540D01*
X207635928Y-152722540D02*
X207605690Y-152783016D01*
X207605690Y-152783016D02*
X207605690Y-152934206D01*
X207605690Y-152934206D02*
X207635928Y-152994682D01*
X207635928Y-152994682D02*
X207666166Y-153024921D01*
X207666166Y-153024921D02*
X207726642Y-153055159D01*
X207726642Y-153055159D02*
X207908071Y-153055159D01*
X207908071Y-153055159D02*
X207968547Y-153024921D01*
X207968547Y-153024921D02*
X207998785Y-152994682D01*
X215528071Y-148255159D02*
X215528071Y-147620159D01*
X215528071Y-147620159D02*
X215376881Y-147620159D01*
X215376881Y-147620159D02*
X215286166Y-147650397D01*
X215286166Y-147650397D02*
X215225690Y-147710873D01*
X215225690Y-147710873D02*
X215195452Y-147771349D01*
X215195452Y-147771349D02*
X215165214Y-147892301D01*
X215165214Y-147892301D02*
X215165214Y-147983016D01*
X215165214Y-147983016D02*
X215195452Y-148103968D01*
X215195452Y-148103968D02*
X215225690Y-148164444D01*
X215225690Y-148164444D02*
X215286166Y-148224921D01*
X215286166Y-148224921D02*
X215376881Y-148255159D01*
X215376881Y-148255159D02*
X215528071Y-148255159D01*
X214923309Y-147680635D02*
X214893071Y-147650397D01*
X214893071Y-147650397D02*
X214832595Y-147620159D01*
X214832595Y-147620159D02*
X214681404Y-147620159D01*
X214681404Y-147620159D02*
X214620928Y-147650397D01*
X214620928Y-147650397D02*
X214590690Y-147680635D01*
X214590690Y-147680635D02*
X214560452Y-147741111D01*
X214560452Y-147741111D02*
X214560452Y-147801587D01*
X214560452Y-147801587D02*
X214590690Y-147892301D01*
X214590690Y-147892301D02*
X214953547Y-148255159D01*
X214953547Y-148255159D02*
X214560452Y-148255159D01*
X214318547Y-147680635D02*
X214288309Y-147650397D01*
X214288309Y-147650397D02*
X214227833Y-147620159D01*
X214227833Y-147620159D02*
X214076642Y-147620159D01*
X214076642Y-147620159D02*
X214016166Y-147650397D01*
X214016166Y-147650397D02*
X213985928Y-147680635D01*
X213985928Y-147680635D02*
X213955690Y-147741111D01*
X213955690Y-147741111D02*
X213955690Y-147801587D01*
X213955690Y-147801587D02*
X213985928Y-147892301D01*
X213985928Y-147892301D02*
X214348785Y-148255159D01*
X214348785Y-148255159D02*
X213955690Y-148255159D01*
X199772814Y-143457282D02*
X199803052Y-143487521D01*
X199803052Y-143487521D02*
X199893766Y-143517759D01*
X199893766Y-143517759D02*
X199954242Y-143517759D01*
X199954242Y-143517759D02*
X200044957Y-143487521D01*
X200044957Y-143487521D02*
X200105433Y-143427044D01*
X200105433Y-143427044D02*
X200135671Y-143366568D01*
X200135671Y-143366568D02*
X200165909Y-143245616D01*
X200165909Y-143245616D02*
X200165909Y-143154901D01*
X200165909Y-143154901D02*
X200135671Y-143033949D01*
X200135671Y-143033949D02*
X200105433Y-142973473D01*
X200105433Y-142973473D02*
X200044957Y-142912997D01*
X200044957Y-142912997D02*
X199954242Y-142882759D01*
X199954242Y-142882759D02*
X199893766Y-142882759D01*
X199893766Y-142882759D02*
X199803052Y-142912997D01*
X199803052Y-142912997D02*
X199772814Y-142943235D01*
X199530909Y-142943235D02*
X199500671Y-142912997D01*
X199500671Y-142912997D02*
X199440195Y-142882759D01*
X199440195Y-142882759D02*
X199289004Y-142882759D01*
X199289004Y-142882759D02*
X199228528Y-142912997D01*
X199228528Y-142912997D02*
X199198290Y-142943235D01*
X199198290Y-142943235D02*
X199168052Y-143003711D01*
X199168052Y-143003711D02*
X199168052Y-143064187D01*
X199168052Y-143064187D02*
X199198290Y-143154901D01*
X199198290Y-143154901D02*
X199561147Y-143517759D01*
X199561147Y-143517759D02*
X199168052Y-143517759D01*
X198865671Y-143517759D02*
X198744719Y-143517759D01*
X198744719Y-143517759D02*
X198684242Y-143487521D01*
X198684242Y-143487521D02*
X198654004Y-143457282D01*
X198654004Y-143457282D02*
X198593528Y-143366568D01*
X198593528Y-143366568D02*
X198563290Y-143245616D01*
X198563290Y-143245616D02*
X198563290Y-143003711D01*
X198563290Y-143003711D02*
X198593528Y-142943235D01*
X198593528Y-142943235D02*
X198623766Y-142912997D01*
X198623766Y-142912997D02*
X198684242Y-142882759D01*
X198684242Y-142882759D02*
X198805195Y-142882759D01*
X198805195Y-142882759D02*
X198865671Y-142912997D01*
X198865671Y-142912997D02*
X198895909Y-142943235D01*
X198895909Y-142943235D02*
X198926147Y-143003711D01*
X198926147Y-143003711D02*
X198926147Y-143154901D01*
X198926147Y-143154901D02*
X198895909Y-143215378D01*
X198895909Y-143215378D02*
X198865671Y-143245616D01*
X198865671Y-143245616D02*
X198805195Y-143275854D01*
X198805195Y-143275854D02*
X198684242Y-143275854D01*
X198684242Y-143275854D02*
X198623766Y-143245616D01*
X198623766Y-143245616D02*
X198593528Y-143215378D01*
X198593528Y-143215378D02*
X198563290Y-143154901D01*
X204696682Y-136523185D02*
X204726921Y-136492947D01*
X204726921Y-136492947D02*
X204757159Y-136402233D01*
X204757159Y-136402233D02*
X204757159Y-136341757D01*
X204757159Y-136341757D02*
X204726921Y-136251042D01*
X204726921Y-136251042D02*
X204666444Y-136190566D01*
X204666444Y-136190566D02*
X204605968Y-136160328D01*
X204605968Y-136160328D02*
X204485016Y-136130090D01*
X204485016Y-136130090D02*
X204394301Y-136130090D01*
X204394301Y-136130090D02*
X204273349Y-136160328D01*
X204273349Y-136160328D02*
X204212873Y-136190566D01*
X204212873Y-136190566D02*
X204152397Y-136251042D01*
X204152397Y-136251042D02*
X204122159Y-136341757D01*
X204122159Y-136341757D02*
X204122159Y-136402233D01*
X204122159Y-136402233D02*
X204152397Y-136492947D01*
X204152397Y-136492947D02*
X204182635Y-136523185D01*
X204182635Y-136765090D02*
X204152397Y-136795328D01*
X204152397Y-136795328D02*
X204122159Y-136855804D01*
X204122159Y-136855804D02*
X204122159Y-137006995D01*
X204122159Y-137006995D02*
X204152397Y-137067471D01*
X204152397Y-137067471D02*
X204182635Y-137097709D01*
X204182635Y-137097709D02*
X204243111Y-137127947D01*
X204243111Y-137127947D02*
X204303587Y-137127947D01*
X204303587Y-137127947D02*
X204394301Y-137097709D01*
X204394301Y-137097709D02*
X204757159Y-136734852D01*
X204757159Y-136734852D02*
X204757159Y-137127947D01*
X204122159Y-137339614D02*
X204122159Y-137762947D01*
X204122159Y-137762947D02*
X204757159Y-137490804D01*
X183618414Y-155989159D02*
X183830081Y-155686778D01*
X183981271Y-155989159D02*
X183981271Y-155354159D01*
X183981271Y-155354159D02*
X183739366Y-155354159D01*
X183739366Y-155354159D02*
X183678890Y-155384397D01*
X183678890Y-155384397D02*
X183648652Y-155414635D01*
X183648652Y-155414635D02*
X183618414Y-155475111D01*
X183618414Y-155475111D02*
X183618414Y-155565825D01*
X183618414Y-155565825D02*
X183648652Y-155626301D01*
X183648652Y-155626301D02*
X183678890Y-155656540D01*
X183678890Y-155656540D02*
X183739366Y-155686778D01*
X183739366Y-155686778D02*
X183981271Y-155686778D01*
X183255557Y-155626301D02*
X183316033Y-155596063D01*
X183316033Y-155596063D02*
X183346271Y-155565825D01*
X183346271Y-155565825D02*
X183376509Y-155505349D01*
X183376509Y-155505349D02*
X183376509Y-155475111D01*
X183376509Y-155475111D02*
X183346271Y-155414635D01*
X183346271Y-155414635D02*
X183316033Y-155384397D01*
X183316033Y-155384397D02*
X183255557Y-155354159D01*
X183255557Y-155354159D02*
X183134604Y-155354159D01*
X183134604Y-155354159D02*
X183074128Y-155384397D01*
X183074128Y-155384397D02*
X183043890Y-155414635D01*
X183043890Y-155414635D02*
X183013652Y-155475111D01*
X183013652Y-155475111D02*
X183013652Y-155505349D01*
X183013652Y-155505349D02*
X183043890Y-155565825D01*
X183043890Y-155565825D02*
X183074128Y-155596063D01*
X183074128Y-155596063D02*
X183134604Y-155626301D01*
X183134604Y-155626301D02*
X183255557Y-155626301D01*
X183255557Y-155626301D02*
X183316033Y-155656540D01*
X183316033Y-155656540D02*
X183346271Y-155686778D01*
X183346271Y-155686778D02*
X183376509Y-155747254D01*
X183376509Y-155747254D02*
X183376509Y-155868206D01*
X183376509Y-155868206D02*
X183346271Y-155928682D01*
X183346271Y-155928682D02*
X183316033Y-155958921D01*
X183316033Y-155958921D02*
X183255557Y-155989159D01*
X183255557Y-155989159D02*
X183134604Y-155989159D01*
X183134604Y-155989159D02*
X183074128Y-155958921D01*
X183074128Y-155958921D02*
X183043890Y-155928682D01*
X183043890Y-155928682D02*
X183013652Y-155868206D01*
X183013652Y-155868206D02*
X183013652Y-155747254D01*
X183013652Y-155747254D02*
X183043890Y-155686778D01*
X183043890Y-155686778D02*
X183074128Y-155656540D01*
X183074128Y-155656540D02*
X183134604Y-155626301D01*
X182469366Y-155565825D02*
X182469366Y-155989159D01*
X182620557Y-155323921D02*
X182771747Y-155777492D01*
X182771747Y-155777492D02*
X182378652Y-155777492D01*
X217959214Y-90244282D02*
X217989452Y-90274521D01*
X217989452Y-90274521D02*
X218080166Y-90304759D01*
X218080166Y-90304759D02*
X218140642Y-90304759D01*
X218140642Y-90304759D02*
X218231357Y-90274521D01*
X218231357Y-90274521D02*
X218291833Y-90214044D01*
X218291833Y-90214044D02*
X218322071Y-90153568D01*
X218322071Y-90153568D02*
X218352309Y-90032616D01*
X218352309Y-90032616D02*
X218352309Y-89941901D01*
X218352309Y-89941901D02*
X218322071Y-89820949D01*
X218322071Y-89820949D02*
X218291833Y-89760473D01*
X218291833Y-89760473D02*
X218231357Y-89699997D01*
X218231357Y-89699997D02*
X218140642Y-89669759D01*
X218140642Y-89669759D02*
X218080166Y-89669759D01*
X218080166Y-89669759D02*
X217989452Y-89699997D01*
X217989452Y-89699997D02*
X217959214Y-89730235D01*
X217354452Y-90304759D02*
X217717309Y-90304759D01*
X217535881Y-90304759D02*
X217535881Y-89669759D01*
X217535881Y-89669759D02*
X217596357Y-89760473D01*
X217596357Y-89760473D02*
X217656833Y-89820949D01*
X217656833Y-89820949D02*
X217717309Y-89851187D01*
X216991595Y-89941901D02*
X217052071Y-89911663D01*
X217052071Y-89911663D02*
X217082309Y-89881425D01*
X217082309Y-89881425D02*
X217112547Y-89820949D01*
X217112547Y-89820949D02*
X217112547Y-89790711D01*
X217112547Y-89790711D02*
X217082309Y-89730235D01*
X217082309Y-89730235D02*
X217052071Y-89699997D01*
X217052071Y-89699997D02*
X216991595Y-89669759D01*
X216991595Y-89669759D02*
X216870642Y-89669759D01*
X216870642Y-89669759D02*
X216810166Y-89699997D01*
X216810166Y-89699997D02*
X216779928Y-89730235D01*
X216779928Y-89730235D02*
X216749690Y-89790711D01*
X216749690Y-89790711D02*
X216749690Y-89820949D01*
X216749690Y-89820949D02*
X216779928Y-89881425D01*
X216779928Y-89881425D02*
X216810166Y-89911663D01*
X216810166Y-89911663D02*
X216870642Y-89941901D01*
X216870642Y-89941901D02*
X216991595Y-89941901D01*
X216991595Y-89941901D02*
X217052071Y-89972140D01*
X217052071Y-89972140D02*
X217082309Y-90002378D01*
X217082309Y-90002378D02*
X217112547Y-90062854D01*
X217112547Y-90062854D02*
X217112547Y-90183806D01*
X217112547Y-90183806D02*
X217082309Y-90244282D01*
X217082309Y-90244282D02*
X217052071Y-90274521D01*
X217052071Y-90274521D02*
X216991595Y-90304759D01*
X216991595Y-90304759D02*
X216870642Y-90304759D01*
X216870642Y-90304759D02*
X216810166Y-90274521D01*
X216810166Y-90274521D02*
X216779928Y-90244282D01*
X216779928Y-90244282D02*
X216749690Y-90183806D01*
X216749690Y-90183806D02*
X216749690Y-90062854D01*
X216749690Y-90062854D02*
X216779928Y-90002378D01*
X216779928Y-90002378D02*
X216810166Y-89972140D01*
X216810166Y-89972140D02*
X216870642Y-89941901D01*
X202801359Y-136523185D02*
X202498978Y-136311518D01*
X202801359Y-136160328D02*
X202166359Y-136160328D01*
X202166359Y-136160328D02*
X202166359Y-136402233D01*
X202166359Y-136402233D02*
X202196597Y-136462709D01*
X202196597Y-136462709D02*
X202226835Y-136492947D01*
X202226835Y-136492947D02*
X202287311Y-136523185D01*
X202287311Y-136523185D02*
X202378025Y-136523185D01*
X202378025Y-136523185D02*
X202438501Y-136492947D01*
X202438501Y-136492947D02*
X202468740Y-136462709D01*
X202468740Y-136462709D02*
X202498978Y-136402233D01*
X202498978Y-136402233D02*
X202498978Y-136160328D01*
X202166359Y-137067471D02*
X202166359Y-136946518D01*
X202166359Y-136946518D02*
X202196597Y-136886042D01*
X202196597Y-136886042D02*
X202226835Y-136855804D01*
X202226835Y-136855804D02*
X202317549Y-136795328D01*
X202317549Y-136795328D02*
X202438501Y-136765090D01*
X202438501Y-136765090D02*
X202680406Y-136765090D01*
X202680406Y-136765090D02*
X202740882Y-136795328D01*
X202740882Y-136795328D02*
X202771121Y-136825566D01*
X202771121Y-136825566D02*
X202801359Y-136886042D01*
X202801359Y-136886042D02*
X202801359Y-137006995D01*
X202801359Y-137006995D02*
X202771121Y-137067471D01*
X202771121Y-137067471D02*
X202740882Y-137097709D01*
X202740882Y-137097709D02*
X202680406Y-137127947D01*
X202680406Y-137127947D02*
X202529216Y-137127947D01*
X202529216Y-137127947D02*
X202468740Y-137097709D01*
X202468740Y-137097709D02*
X202438501Y-137067471D01*
X202438501Y-137067471D02*
X202408263Y-137006995D01*
X202408263Y-137006995D02*
X202408263Y-136886042D01*
X202408263Y-136886042D02*
X202438501Y-136825566D01*
X202438501Y-136825566D02*
X202468740Y-136795328D01*
X202468740Y-136795328D02*
X202529216Y-136765090D01*
X202226835Y-137369852D02*
X202196597Y-137400090D01*
X202196597Y-137400090D02*
X202166359Y-137460566D01*
X202166359Y-137460566D02*
X202166359Y-137611757D01*
X202166359Y-137611757D02*
X202196597Y-137672233D01*
X202196597Y-137672233D02*
X202226835Y-137702471D01*
X202226835Y-137702471D02*
X202287311Y-137732709D01*
X202287311Y-137732709D02*
X202347787Y-137732709D01*
X202347787Y-137732709D02*
X202438501Y-137702471D01*
X202438501Y-137702471D02*
X202801359Y-137339614D01*
X202801359Y-137339614D02*
X202801359Y-137732709D01*
X213768214Y-134034182D02*
X213798452Y-134064421D01*
X213798452Y-134064421D02*
X213889166Y-134094659D01*
X213889166Y-134094659D02*
X213949642Y-134094659D01*
X213949642Y-134094659D02*
X214040357Y-134064421D01*
X214040357Y-134064421D02*
X214100833Y-134003944D01*
X214100833Y-134003944D02*
X214131071Y-133943468D01*
X214131071Y-133943468D02*
X214161309Y-133822516D01*
X214161309Y-133822516D02*
X214161309Y-133731801D01*
X214161309Y-133731801D02*
X214131071Y-133610849D01*
X214131071Y-133610849D02*
X214100833Y-133550373D01*
X214100833Y-133550373D02*
X214040357Y-133489897D01*
X214040357Y-133489897D02*
X213949642Y-133459659D01*
X213949642Y-133459659D02*
X213889166Y-133459659D01*
X213889166Y-133459659D02*
X213798452Y-133489897D01*
X213798452Y-133489897D02*
X213768214Y-133520135D01*
X213526309Y-133520135D02*
X213496071Y-133489897D01*
X213496071Y-133489897D02*
X213435595Y-133459659D01*
X213435595Y-133459659D02*
X213284404Y-133459659D01*
X213284404Y-133459659D02*
X213223928Y-133489897D01*
X213223928Y-133489897D02*
X213193690Y-133520135D01*
X213193690Y-133520135D02*
X213163452Y-133580611D01*
X213163452Y-133580611D02*
X213163452Y-133641087D01*
X213163452Y-133641087D02*
X213193690Y-133731801D01*
X213193690Y-133731801D02*
X213556547Y-134094659D01*
X213556547Y-134094659D02*
X213163452Y-134094659D01*
X212951785Y-133459659D02*
X212558690Y-133459659D01*
X212558690Y-133459659D02*
X212770357Y-133701563D01*
X212770357Y-133701563D02*
X212679642Y-133701563D01*
X212679642Y-133701563D02*
X212619166Y-133731801D01*
X212619166Y-133731801D02*
X212588928Y-133762040D01*
X212588928Y-133762040D02*
X212558690Y-133822516D01*
X212558690Y-133822516D02*
X212558690Y-133973706D01*
X212558690Y-133973706D02*
X212588928Y-134034182D01*
X212588928Y-134034182D02*
X212619166Y-134064421D01*
X212619166Y-134064421D02*
X212679642Y-134094659D01*
X212679642Y-134094659D02*
X212861071Y-134094659D01*
X212861071Y-134094659D02*
X212921547Y-134064421D01*
X212921547Y-134064421D02*
X212951785Y-134034182D01*
X183618414Y-113850559D02*
X183830081Y-113548178D01*
X183981271Y-113850559D02*
X183981271Y-113215559D01*
X183981271Y-113215559D02*
X183739366Y-113215559D01*
X183739366Y-113215559D02*
X183678890Y-113245797D01*
X183678890Y-113245797D02*
X183648652Y-113276035D01*
X183648652Y-113276035D02*
X183618414Y-113336511D01*
X183618414Y-113336511D02*
X183618414Y-113427225D01*
X183618414Y-113427225D02*
X183648652Y-113487701D01*
X183648652Y-113487701D02*
X183678890Y-113517940D01*
X183678890Y-113517940D02*
X183739366Y-113548178D01*
X183739366Y-113548178D02*
X183981271Y-113548178D01*
X183406747Y-113215559D02*
X182983414Y-113215559D01*
X182983414Y-113215559D02*
X183255557Y-113850559D01*
X182801985Y-113215559D02*
X182408890Y-113215559D01*
X182408890Y-113215559D02*
X182620557Y-113457463D01*
X182620557Y-113457463D02*
X182529842Y-113457463D01*
X182529842Y-113457463D02*
X182469366Y-113487701D01*
X182469366Y-113487701D02*
X182439128Y-113517940D01*
X182439128Y-113517940D02*
X182408890Y-113578416D01*
X182408890Y-113578416D02*
X182408890Y-113729606D01*
X182408890Y-113729606D02*
X182439128Y-113790082D01*
X182439128Y-113790082D02*
X182469366Y-113820321D01*
X182469366Y-113820321D02*
X182529842Y-113850559D01*
X182529842Y-113850559D02*
X182711271Y-113850559D01*
X182711271Y-113850559D02*
X182771747Y-113820321D01*
X182771747Y-113820321D02*
X182801985Y-113790082D01*
X183618414Y-115796682D02*
X183648652Y-115826921D01*
X183648652Y-115826921D02*
X183739366Y-115857159D01*
X183739366Y-115857159D02*
X183799842Y-115857159D01*
X183799842Y-115857159D02*
X183890557Y-115826921D01*
X183890557Y-115826921D02*
X183951033Y-115766444D01*
X183951033Y-115766444D02*
X183981271Y-115705968D01*
X183981271Y-115705968D02*
X184011509Y-115585016D01*
X184011509Y-115585016D02*
X184011509Y-115494301D01*
X184011509Y-115494301D02*
X183981271Y-115373349D01*
X183981271Y-115373349D02*
X183951033Y-115312873D01*
X183951033Y-115312873D02*
X183890557Y-115252397D01*
X183890557Y-115252397D02*
X183799842Y-115222159D01*
X183799842Y-115222159D02*
X183739366Y-115222159D01*
X183739366Y-115222159D02*
X183648652Y-115252397D01*
X183648652Y-115252397D02*
X183618414Y-115282635D01*
X183406747Y-115222159D02*
X183013652Y-115222159D01*
X183013652Y-115222159D02*
X183225319Y-115464063D01*
X183225319Y-115464063D02*
X183134604Y-115464063D01*
X183134604Y-115464063D02*
X183074128Y-115494301D01*
X183074128Y-115494301D02*
X183043890Y-115524540D01*
X183043890Y-115524540D02*
X183013652Y-115585016D01*
X183013652Y-115585016D02*
X183013652Y-115736206D01*
X183013652Y-115736206D02*
X183043890Y-115796682D01*
X183043890Y-115796682D02*
X183074128Y-115826921D01*
X183074128Y-115826921D02*
X183134604Y-115857159D01*
X183134604Y-115857159D02*
X183316033Y-115857159D01*
X183316033Y-115857159D02*
X183376509Y-115826921D01*
X183376509Y-115826921D02*
X183406747Y-115796682D01*
X182469366Y-115433825D02*
X182469366Y-115857159D01*
X182620557Y-115191921D02*
X182771747Y-115645492D01*
X182771747Y-115645492D02*
X182378652Y-115645492D01*
X213774159Y-173302385D02*
X213471778Y-173090718D01*
X213774159Y-172939528D02*
X213139159Y-172939528D01*
X213139159Y-172939528D02*
X213139159Y-173181433D01*
X213139159Y-173181433D02*
X213169397Y-173241909D01*
X213169397Y-173241909D02*
X213199635Y-173272147D01*
X213199635Y-173272147D02*
X213260111Y-173302385D01*
X213260111Y-173302385D02*
X213350825Y-173302385D01*
X213350825Y-173302385D02*
X213411301Y-173272147D01*
X213411301Y-173272147D02*
X213441540Y-173241909D01*
X213441540Y-173241909D02*
X213471778Y-173181433D01*
X213471778Y-173181433D02*
X213471778Y-172939528D01*
X213139159Y-173876909D02*
X213139159Y-173574528D01*
X213139159Y-173574528D02*
X213441540Y-173544290D01*
X213441540Y-173544290D02*
X213411301Y-173574528D01*
X213411301Y-173574528D02*
X213381063Y-173635004D01*
X213381063Y-173635004D02*
X213381063Y-173786195D01*
X213381063Y-173786195D02*
X213411301Y-173846671D01*
X213411301Y-173846671D02*
X213441540Y-173876909D01*
X213441540Y-173876909D02*
X213502016Y-173907147D01*
X213502016Y-173907147D02*
X213653206Y-173907147D01*
X213653206Y-173907147D02*
X213713682Y-173876909D01*
X213713682Y-173876909D02*
X213743921Y-173846671D01*
X213743921Y-173846671D02*
X213774159Y-173786195D01*
X213774159Y-173786195D02*
X213774159Y-173635004D01*
X213774159Y-173635004D02*
X213743921Y-173574528D01*
X213743921Y-173574528D02*
X213713682Y-173544290D01*
X213139159Y-174481671D02*
X213139159Y-174179290D01*
X213139159Y-174179290D02*
X213441540Y-174149052D01*
X213441540Y-174149052D02*
X213411301Y-174179290D01*
X213411301Y-174179290D02*
X213381063Y-174239766D01*
X213381063Y-174239766D02*
X213381063Y-174390957D01*
X213381063Y-174390957D02*
X213411301Y-174451433D01*
X213411301Y-174451433D02*
X213441540Y-174481671D01*
X213441540Y-174481671D02*
X213502016Y-174511909D01*
X213502016Y-174511909D02*
X213653206Y-174511909D01*
X213653206Y-174511909D02*
X213713682Y-174481671D01*
X213713682Y-174481671D02*
X213743921Y-174451433D01*
X213743921Y-174451433D02*
X213774159Y-174390957D01*
X213774159Y-174390957D02*
X213774159Y-174239766D01*
X213774159Y-174239766D02*
X213743921Y-174179290D01*
X213743921Y-174179290D02*
X213713682Y-174149052D01*
X188907559Y-173302385D02*
X188605178Y-173090718D01*
X188907559Y-172939528D02*
X188272559Y-172939528D01*
X188272559Y-172939528D02*
X188272559Y-173181433D01*
X188272559Y-173181433D02*
X188302797Y-173241909D01*
X188302797Y-173241909D02*
X188333035Y-173272147D01*
X188333035Y-173272147D02*
X188393511Y-173302385D01*
X188393511Y-173302385D02*
X188484225Y-173302385D01*
X188484225Y-173302385D02*
X188544701Y-173272147D01*
X188544701Y-173272147D02*
X188574940Y-173241909D01*
X188574940Y-173241909D02*
X188605178Y-173181433D01*
X188605178Y-173181433D02*
X188605178Y-172939528D01*
X188272559Y-173846671D02*
X188272559Y-173725718D01*
X188272559Y-173725718D02*
X188302797Y-173665242D01*
X188302797Y-173665242D02*
X188333035Y-173635004D01*
X188333035Y-173635004D02*
X188423749Y-173574528D01*
X188423749Y-173574528D02*
X188544701Y-173544290D01*
X188544701Y-173544290D02*
X188786606Y-173544290D01*
X188786606Y-173544290D02*
X188847082Y-173574528D01*
X188847082Y-173574528D02*
X188877321Y-173604766D01*
X188877321Y-173604766D02*
X188907559Y-173665242D01*
X188907559Y-173665242D02*
X188907559Y-173786195D01*
X188907559Y-173786195D02*
X188877321Y-173846671D01*
X188877321Y-173846671D02*
X188847082Y-173876909D01*
X188847082Y-173876909D02*
X188786606Y-173907147D01*
X188786606Y-173907147D02*
X188635416Y-173907147D01*
X188635416Y-173907147D02*
X188574940Y-173876909D01*
X188574940Y-173876909D02*
X188544701Y-173846671D01*
X188544701Y-173846671D02*
X188514463Y-173786195D01*
X188514463Y-173786195D02*
X188514463Y-173665242D01*
X188514463Y-173665242D02*
X188544701Y-173604766D01*
X188544701Y-173604766D02*
X188574940Y-173574528D01*
X188574940Y-173574528D02*
X188635416Y-173544290D01*
X188272559Y-174451433D02*
X188272559Y-174330480D01*
X188272559Y-174330480D02*
X188302797Y-174270004D01*
X188302797Y-174270004D02*
X188333035Y-174239766D01*
X188333035Y-174239766D02*
X188423749Y-174179290D01*
X188423749Y-174179290D02*
X188544701Y-174149052D01*
X188544701Y-174149052D02*
X188786606Y-174149052D01*
X188786606Y-174149052D02*
X188847082Y-174179290D01*
X188847082Y-174179290D02*
X188877321Y-174209528D01*
X188877321Y-174209528D02*
X188907559Y-174270004D01*
X188907559Y-174270004D02*
X188907559Y-174390957D01*
X188907559Y-174390957D02*
X188877321Y-174451433D01*
X188877321Y-174451433D02*
X188847082Y-174481671D01*
X188847082Y-174481671D02*
X188786606Y-174511909D01*
X188786606Y-174511909D02*
X188635416Y-174511909D01*
X188635416Y-174511909D02*
X188574940Y-174481671D01*
X188574940Y-174481671D02*
X188544701Y-174451433D01*
X188544701Y-174451433D02*
X188514463Y-174390957D01*
X188514463Y-174390957D02*
X188514463Y-174270004D01*
X188514463Y-174270004D02*
X188544701Y-174209528D01*
X188544701Y-174209528D02*
X188574940Y-174179290D01*
X188574940Y-174179290D02*
X188635416Y-174149052D01*
X183618414Y-129065159D02*
X183830081Y-128762778D01*
X183981271Y-129065159D02*
X183981271Y-128430159D01*
X183981271Y-128430159D02*
X183739366Y-128430159D01*
X183739366Y-128430159D02*
X183678890Y-128460397D01*
X183678890Y-128460397D02*
X183648652Y-128490635D01*
X183648652Y-128490635D02*
X183618414Y-128551111D01*
X183618414Y-128551111D02*
X183618414Y-128641825D01*
X183618414Y-128641825D02*
X183648652Y-128702301D01*
X183648652Y-128702301D02*
X183678890Y-128732540D01*
X183678890Y-128732540D02*
X183739366Y-128762778D01*
X183739366Y-128762778D02*
X183981271Y-128762778D01*
X183406747Y-128430159D02*
X182983414Y-128430159D01*
X182983414Y-128430159D02*
X183255557Y-129065159D01*
X182801985Y-128430159D02*
X182378652Y-128430159D01*
X182378652Y-128430159D02*
X182650795Y-129065159D01*
X183618414Y-166139482D02*
X183648652Y-166169721D01*
X183648652Y-166169721D02*
X183739366Y-166199959D01*
X183739366Y-166199959D02*
X183799842Y-166199959D01*
X183799842Y-166199959D02*
X183890557Y-166169721D01*
X183890557Y-166169721D02*
X183951033Y-166109244D01*
X183951033Y-166109244D02*
X183981271Y-166048768D01*
X183981271Y-166048768D02*
X184011509Y-165927816D01*
X184011509Y-165927816D02*
X184011509Y-165837101D01*
X184011509Y-165837101D02*
X183981271Y-165716149D01*
X183981271Y-165716149D02*
X183951033Y-165655673D01*
X183951033Y-165655673D02*
X183890557Y-165595197D01*
X183890557Y-165595197D02*
X183799842Y-165564959D01*
X183799842Y-165564959D02*
X183739366Y-165564959D01*
X183739366Y-165564959D02*
X183648652Y-165595197D01*
X183648652Y-165595197D02*
X183618414Y-165625435D01*
X183074128Y-165776625D02*
X183074128Y-166199959D01*
X183225319Y-165534721D02*
X183376509Y-165988292D01*
X183376509Y-165988292D02*
X182983414Y-165988292D01*
X182408890Y-166199959D02*
X182771747Y-166199959D01*
X182590319Y-166199959D02*
X182590319Y-165564959D01*
X182590319Y-165564959D02*
X182650795Y-165655673D01*
X182650795Y-165655673D02*
X182711271Y-165716149D01*
X182711271Y-165716149D02*
X182771747Y-165746387D01*
X198534159Y-173302385D02*
X198231778Y-173090718D01*
X198534159Y-172939528D02*
X197899159Y-172939528D01*
X197899159Y-172939528D02*
X197899159Y-173181433D01*
X197899159Y-173181433D02*
X197929397Y-173241909D01*
X197929397Y-173241909D02*
X197959635Y-173272147D01*
X197959635Y-173272147D02*
X198020111Y-173302385D01*
X198020111Y-173302385D02*
X198110825Y-173302385D01*
X198110825Y-173302385D02*
X198171301Y-173272147D01*
X198171301Y-173272147D02*
X198201540Y-173241909D01*
X198201540Y-173241909D02*
X198231778Y-173181433D01*
X198231778Y-173181433D02*
X198231778Y-172939528D01*
X197899159Y-173846671D02*
X197899159Y-173725718D01*
X197899159Y-173725718D02*
X197929397Y-173665242D01*
X197929397Y-173665242D02*
X197959635Y-173635004D01*
X197959635Y-173635004D02*
X198050349Y-173574528D01*
X198050349Y-173574528D02*
X198171301Y-173544290D01*
X198171301Y-173544290D02*
X198413206Y-173544290D01*
X198413206Y-173544290D02*
X198473682Y-173574528D01*
X198473682Y-173574528D02*
X198503921Y-173604766D01*
X198503921Y-173604766D02*
X198534159Y-173665242D01*
X198534159Y-173665242D02*
X198534159Y-173786195D01*
X198534159Y-173786195D02*
X198503921Y-173846671D01*
X198503921Y-173846671D02*
X198473682Y-173876909D01*
X198473682Y-173876909D02*
X198413206Y-173907147D01*
X198413206Y-173907147D02*
X198262016Y-173907147D01*
X198262016Y-173907147D02*
X198201540Y-173876909D01*
X198201540Y-173876909D02*
X198171301Y-173846671D01*
X198171301Y-173846671D02*
X198141063Y-173786195D01*
X198141063Y-173786195D02*
X198141063Y-173665242D01*
X198141063Y-173665242D02*
X198171301Y-173604766D01*
X198171301Y-173604766D02*
X198201540Y-173574528D01*
X198201540Y-173574528D02*
X198262016Y-173544290D01*
X197899159Y-174118814D02*
X197899159Y-174511909D01*
X197899159Y-174511909D02*
X198141063Y-174300242D01*
X198141063Y-174300242D02*
X198141063Y-174390957D01*
X198141063Y-174390957D02*
X198171301Y-174451433D01*
X198171301Y-174451433D02*
X198201540Y-174481671D01*
X198201540Y-174481671D02*
X198262016Y-174511909D01*
X198262016Y-174511909D02*
X198413206Y-174511909D01*
X198413206Y-174511909D02*
X198473682Y-174481671D01*
X198473682Y-174481671D02*
X198503921Y-174451433D01*
X198503921Y-174451433D02*
X198534159Y-174390957D01*
X198534159Y-174390957D02*
X198534159Y-174209528D01*
X198534159Y-174209528D02*
X198503921Y-174149052D01*
X198503921Y-174149052D02*
X198473682Y-174118814D01*
X183618414Y-157995759D02*
X183830081Y-157693378D01*
X183981271Y-157995759D02*
X183981271Y-157360759D01*
X183981271Y-157360759D02*
X183739366Y-157360759D01*
X183739366Y-157360759D02*
X183678890Y-157390997D01*
X183678890Y-157390997D02*
X183648652Y-157421235D01*
X183648652Y-157421235D02*
X183618414Y-157481711D01*
X183618414Y-157481711D02*
X183618414Y-157572425D01*
X183618414Y-157572425D02*
X183648652Y-157632901D01*
X183648652Y-157632901D02*
X183678890Y-157663140D01*
X183678890Y-157663140D02*
X183739366Y-157693378D01*
X183739366Y-157693378D02*
X183981271Y-157693378D01*
X183255557Y-157632901D02*
X183316033Y-157602663D01*
X183316033Y-157602663D02*
X183346271Y-157572425D01*
X183346271Y-157572425D02*
X183376509Y-157511949D01*
X183376509Y-157511949D02*
X183376509Y-157481711D01*
X183376509Y-157481711D02*
X183346271Y-157421235D01*
X183346271Y-157421235D02*
X183316033Y-157390997D01*
X183316033Y-157390997D02*
X183255557Y-157360759D01*
X183255557Y-157360759D02*
X183134604Y-157360759D01*
X183134604Y-157360759D02*
X183074128Y-157390997D01*
X183074128Y-157390997D02*
X183043890Y-157421235D01*
X183043890Y-157421235D02*
X183013652Y-157481711D01*
X183013652Y-157481711D02*
X183013652Y-157511949D01*
X183013652Y-157511949D02*
X183043890Y-157572425D01*
X183043890Y-157572425D02*
X183074128Y-157602663D01*
X183074128Y-157602663D02*
X183134604Y-157632901D01*
X183134604Y-157632901D02*
X183255557Y-157632901D01*
X183255557Y-157632901D02*
X183316033Y-157663140D01*
X183316033Y-157663140D02*
X183346271Y-157693378D01*
X183346271Y-157693378D02*
X183376509Y-157753854D01*
X183376509Y-157753854D02*
X183376509Y-157874806D01*
X183376509Y-157874806D02*
X183346271Y-157935282D01*
X183346271Y-157935282D02*
X183316033Y-157965521D01*
X183316033Y-157965521D02*
X183255557Y-157995759D01*
X183255557Y-157995759D02*
X183134604Y-157995759D01*
X183134604Y-157995759D02*
X183074128Y-157965521D01*
X183074128Y-157965521D02*
X183043890Y-157935282D01*
X183043890Y-157935282D02*
X183013652Y-157874806D01*
X183013652Y-157874806D02*
X183013652Y-157753854D01*
X183013652Y-157753854D02*
X183043890Y-157693378D01*
X183043890Y-157693378D02*
X183074128Y-157663140D01*
X183074128Y-157663140D02*
X183134604Y-157632901D01*
X182439128Y-157360759D02*
X182741509Y-157360759D01*
X182741509Y-157360759D02*
X182771747Y-157663140D01*
X182771747Y-157663140D02*
X182741509Y-157632901D01*
X182741509Y-157632901D02*
X182681033Y-157602663D01*
X182681033Y-157602663D02*
X182529842Y-157602663D01*
X182529842Y-157602663D02*
X182469366Y-157632901D01*
X182469366Y-157632901D02*
X182439128Y-157663140D01*
X182439128Y-157663140D02*
X182408890Y-157723616D01*
X182408890Y-157723616D02*
X182408890Y-157874806D01*
X182408890Y-157874806D02*
X182439128Y-157935282D01*
X182439128Y-157935282D02*
X182469366Y-157965521D01*
X182469366Y-157965521D02*
X182529842Y-157995759D01*
X182529842Y-157995759D02*
X182681033Y-157995759D01*
X182681033Y-157995759D02*
X182741509Y-157965521D01*
X182741509Y-157965521D02*
X182771747Y-157935282D01*
X183618414Y-168104959D02*
X183830081Y-167802578D01*
X183981271Y-168104959D02*
X183981271Y-167469959D01*
X183981271Y-167469959D02*
X183739366Y-167469959D01*
X183739366Y-167469959D02*
X183678890Y-167500197D01*
X183678890Y-167500197D02*
X183648652Y-167530435D01*
X183648652Y-167530435D02*
X183618414Y-167590911D01*
X183618414Y-167590911D02*
X183618414Y-167681625D01*
X183618414Y-167681625D02*
X183648652Y-167742101D01*
X183648652Y-167742101D02*
X183678890Y-167772340D01*
X183678890Y-167772340D02*
X183739366Y-167802578D01*
X183739366Y-167802578D02*
X183981271Y-167802578D01*
X183255557Y-167742101D02*
X183316033Y-167711863D01*
X183316033Y-167711863D02*
X183346271Y-167681625D01*
X183346271Y-167681625D02*
X183376509Y-167621149D01*
X183376509Y-167621149D02*
X183376509Y-167590911D01*
X183376509Y-167590911D02*
X183346271Y-167530435D01*
X183346271Y-167530435D02*
X183316033Y-167500197D01*
X183316033Y-167500197D02*
X183255557Y-167469959D01*
X183255557Y-167469959D02*
X183134604Y-167469959D01*
X183134604Y-167469959D02*
X183074128Y-167500197D01*
X183074128Y-167500197D02*
X183043890Y-167530435D01*
X183043890Y-167530435D02*
X183013652Y-167590911D01*
X183013652Y-167590911D02*
X183013652Y-167621149D01*
X183013652Y-167621149D02*
X183043890Y-167681625D01*
X183043890Y-167681625D02*
X183074128Y-167711863D01*
X183074128Y-167711863D02*
X183134604Y-167742101D01*
X183134604Y-167742101D02*
X183255557Y-167742101D01*
X183255557Y-167742101D02*
X183316033Y-167772340D01*
X183316033Y-167772340D02*
X183346271Y-167802578D01*
X183346271Y-167802578D02*
X183376509Y-167863054D01*
X183376509Y-167863054D02*
X183376509Y-167984006D01*
X183376509Y-167984006D02*
X183346271Y-168044482D01*
X183346271Y-168044482D02*
X183316033Y-168074721D01*
X183316033Y-168074721D02*
X183255557Y-168104959D01*
X183255557Y-168104959D02*
X183134604Y-168104959D01*
X183134604Y-168104959D02*
X183074128Y-168074721D01*
X183074128Y-168074721D02*
X183043890Y-168044482D01*
X183043890Y-168044482D02*
X183013652Y-167984006D01*
X183013652Y-167984006D02*
X183013652Y-167863054D01*
X183013652Y-167863054D02*
X183043890Y-167802578D01*
X183043890Y-167802578D02*
X183074128Y-167772340D01*
X183074128Y-167772340D02*
X183134604Y-167742101D01*
X182650795Y-167742101D02*
X182711271Y-167711863D01*
X182711271Y-167711863D02*
X182741509Y-167681625D01*
X182741509Y-167681625D02*
X182771747Y-167621149D01*
X182771747Y-167621149D02*
X182771747Y-167590911D01*
X182771747Y-167590911D02*
X182741509Y-167530435D01*
X182741509Y-167530435D02*
X182711271Y-167500197D01*
X182711271Y-167500197D02*
X182650795Y-167469959D01*
X182650795Y-167469959D02*
X182529842Y-167469959D01*
X182529842Y-167469959D02*
X182469366Y-167500197D01*
X182469366Y-167500197D02*
X182439128Y-167530435D01*
X182439128Y-167530435D02*
X182408890Y-167590911D01*
X182408890Y-167590911D02*
X182408890Y-167621149D01*
X182408890Y-167621149D02*
X182439128Y-167681625D01*
X182439128Y-167681625D02*
X182469366Y-167711863D01*
X182469366Y-167711863D02*
X182529842Y-167742101D01*
X182529842Y-167742101D02*
X182650795Y-167742101D01*
X182650795Y-167742101D02*
X182711271Y-167772340D01*
X182711271Y-167772340D02*
X182741509Y-167802578D01*
X182741509Y-167802578D02*
X182771747Y-167863054D01*
X182771747Y-167863054D02*
X182771747Y-167984006D01*
X182771747Y-167984006D02*
X182741509Y-168044482D01*
X182741509Y-168044482D02*
X182711271Y-168074721D01*
X182711271Y-168074721D02*
X182650795Y-168104959D01*
X182650795Y-168104959D02*
X182529842Y-168104959D01*
X182529842Y-168104959D02*
X182469366Y-168074721D01*
X182469366Y-168074721D02*
X182439128Y-168044482D01*
X182439128Y-168044482D02*
X182408890Y-167984006D01*
X182408890Y-167984006D02*
X182408890Y-167863054D01*
X182408890Y-167863054D02*
X182439128Y-167802578D01*
X182439128Y-167802578D02*
X182469366Y-167772340D01*
X182469366Y-167772340D02*
X182529842Y-167742101D01*
X191136814Y-97848559D02*
X191348481Y-97546178D01*
X191499671Y-97848559D02*
X191499671Y-97213559D01*
X191499671Y-97213559D02*
X191257766Y-97213559D01*
X191257766Y-97213559D02*
X191197290Y-97243797D01*
X191197290Y-97243797D02*
X191167052Y-97274035D01*
X191167052Y-97274035D02*
X191136814Y-97334511D01*
X191136814Y-97334511D02*
X191136814Y-97425225D01*
X191136814Y-97425225D02*
X191167052Y-97485701D01*
X191167052Y-97485701D02*
X191197290Y-97515940D01*
X191197290Y-97515940D02*
X191257766Y-97546178D01*
X191257766Y-97546178D02*
X191499671Y-97546178D01*
X190592528Y-97213559D02*
X190713481Y-97213559D01*
X190713481Y-97213559D02*
X190773957Y-97243797D01*
X190773957Y-97243797D02*
X190804195Y-97274035D01*
X190804195Y-97274035D02*
X190864671Y-97364749D01*
X190864671Y-97364749D02*
X190894909Y-97485701D01*
X190894909Y-97485701D02*
X190894909Y-97727606D01*
X190894909Y-97727606D02*
X190864671Y-97788082D01*
X190864671Y-97788082D02*
X190834433Y-97818321D01*
X190834433Y-97818321D02*
X190773957Y-97848559D01*
X190773957Y-97848559D02*
X190653004Y-97848559D01*
X190653004Y-97848559D02*
X190592528Y-97818321D01*
X190592528Y-97818321D02*
X190562290Y-97788082D01*
X190562290Y-97788082D02*
X190532052Y-97727606D01*
X190532052Y-97727606D02*
X190532052Y-97576416D01*
X190532052Y-97576416D02*
X190562290Y-97515940D01*
X190562290Y-97515940D02*
X190592528Y-97485701D01*
X190592528Y-97485701D02*
X190653004Y-97455463D01*
X190653004Y-97455463D02*
X190773957Y-97455463D01*
X190773957Y-97455463D02*
X190834433Y-97485701D01*
X190834433Y-97485701D02*
X190864671Y-97515940D01*
X190864671Y-97515940D02*
X190894909Y-97576416D01*
X190229671Y-97848559D02*
X190108719Y-97848559D01*
X190108719Y-97848559D02*
X190048242Y-97818321D01*
X190048242Y-97818321D02*
X190018004Y-97788082D01*
X190018004Y-97788082D02*
X189957528Y-97697368D01*
X189957528Y-97697368D02*
X189927290Y-97576416D01*
X189927290Y-97576416D02*
X189927290Y-97334511D01*
X189927290Y-97334511D02*
X189957528Y-97274035D01*
X189957528Y-97274035D02*
X189987766Y-97243797D01*
X189987766Y-97243797D02*
X190048242Y-97213559D01*
X190048242Y-97213559D02*
X190169195Y-97213559D01*
X190169195Y-97213559D02*
X190229671Y-97243797D01*
X190229671Y-97243797D02*
X190259909Y-97274035D01*
X190259909Y-97274035D02*
X190290147Y-97334511D01*
X190290147Y-97334511D02*
X190290147Y-97485701D01*
X190290147Y-97485701D02*
X190259909Y-97546178D01*
X190259909Y-97546178D02*
X190229671Y-97576416D01*
X190229671Y-97576416D02*
X190169195Y-97606654D01*
X190169195Y-97606654D02*
X190048242Y-97606654D01*
X190048242Y-97606654D02*
X189987766Y-97576416D01*
X189987766Y-97576416D02*
X189957528Y-97546178D01*
X189957528Y-97546178D02*
X189927290Y-97485701D01*
X183618414Y-125559959D02*
X183830081Y-125257578D01*
X183981271Y-125559959D02*
X183981271Y-124924959D01*
X183981271Y-124924959D02*
X183739366Y-124924959D01*
X183739366Y-124924959D02*
X183678890Y-124955197D01*
X183678890Y-124955197D02*
X183648652Y-124985435D01*
X183648652Y-124985435D02*
X183618414Y-125045911D01*
X183618414Y-125045911D02*
X183618414Y-125136625D01*
X183618414Y-125136625D02*
X183648652Y-125197101D01*
X183648652Y-125197101D02*
X183678890Y-125227340D01*
X183678890Y-125227340D02*
X183739366Y-125257578D01*
X183739366Y-125257578D02*
X183981271Y-125257578D01*
X183406747Y-124924959D02*
X182983414Y-124924959D01*
X182983414Y-124924959D02*
X183255557Y-125559959D01*
X182469366Y-124924959D02*
X182590319Y-124924959D01*
X182590319Y-124924959D02*
X182650795Y-124955197D01*
X182650795Y-124955197D02*
X182681033Y-124985435D01*
X182681033Y-124985435D02*
X182741509Y-125076149D01*
X182741509Y-125076149D02*
X182771747Y-125197101D01*
X182771747Y-125197101D02*
X182771747Y-125439006D01*
X182771747Y-125439006D02*
X182741509Y-125499482D01*
X182741509Y-125499482D02*
X182711271Y-125529721D01*
X182711271Y-125529721D02*
X182650795Y-125559959D01*
X182650795Y-125559959D02*
X182529842Y-125559959D01*
X182529842Y-125559959D02*
X182469366Y-125529721D01*
X182469366Y-125529721D02*
X182439128Y-125499482D01*
X182439128Y-125499482D02*
X182408890Y-125439006D01*
X182408890Y-125439006D02*
X182408890Y-125287816D01*
X182408890Y-125287816D02*
X182439128Y-125227340D01*
X182439128Y-125227340D02*
X182469366Y-125197101D01*
X182469366Y-125197101D02*
X182529842Y-125166863D01*
X182529842Y-125166863D02*
X182650795Y-125166863D01*
X182650795Y-125166863D02*
X182711271Y-125197101D01*
X182711271Y-125197101D02*
X182741509Y-125227340D01*
X182741509Y-125227340D02*
X182771747Y-125287816D01*
X225299814Y-155481159D02*
X225511481Y-155178778D01*
X225662671Y-155481159D02*
X225662671Y-154846159D01*
X225662671Y-154846159D02*
X225420766Y-154846159D01*
X225420766Y-154846159D02*
X225360290Y-154876397D01*
X225360290Y-154876397D02*
X225330052Y-154906635D01*
X225330052Y-154906635D02*
X225299814Y-154967111D01*
X225299814Y-154967111D02*
X225299814Y-155057825D01*
X225299814Y-155057825D02*
X225330052Y-155118301D01*
X225330052Y-155118301D02*
X225360290Y-155148540D01*
X225360290Y-155148540D02*
X225420766Y-155178778D01*
X225420766Y-155178778D02*
X225662671Y-155178778D01*
X224755528Y-155057825D02*
X224755528Y-155481159D01*
X224906719Y-154815921D02*
X225057909Y-155269492D01*
X225057909Y-155269492D02*
X224664814Y-155269492D01*
X224120528Y-154846159D02*
X224422909Y-154846159D01*
X224422909Y-154846159D02*
X224453147Y-155148540D01*
X224453147Y-155148540D02*
X224422909Y-155118301D01*
X224422909Y-155118301D02*
X224362433Y-155088063D01*
X224362433Y-155088063D02*
X224211242Y-155088063D01*
X224211242Y-155088063D02*
X224150766Y-155118301D01*
X224150766Y-155118301D02*
X224120528Y-155148540D01*
X224120528Y-155148540D02*
X224090290Y-155209016D01*
X224090290Y-155209016D02*
X224090290Y-155360206D01*
X224090290Y-155360206D02*
X224120528Y-155420682D01*
X224120528Y-155420682D02*
X224150766Y-155450921D01*
X224150766Y-155450921D02*
X224211242Y-155481159D01*
X224211242Y-155481159D02*
X224362433Y-155481159D01*
X224362433Y-155481159D02*
X224422909Y-155450921D01*
X224422909Y-155450921D02*
X224453147Y-155420682D01*
X194409682Y-173302385D02*
X194439921Y-173272147D01*
X194439921Y-173272147D02*
X194470159Y-173181433D01*
X194470159Y-173181433D02*
X194470159Y-173120957D01*
X194470159Y-173120957D02*
X194439921Y-173030242D01*
X194439921Y-173030242D02*
X194379444Y-172969766D01*
X194379444Y-172969766D02*
X194318968Y-172939528D01*
X194318968Y-172939528D02*
X194198016Y-172909290D01*
X194198016Y-172909290D02*
X194107301Y-172909290D01*
X194107301Y-172909290D02*
X193986349Y-172939528D01*
X193986349Y-172939528D02*
X193925873Y-172969766D01*
X193925873Y-172969766D02*
X193865397Y-173030242D01*
X193865397Y-173030242D02*
X193835159Y-173120957D01*
X193835159Y-173120957D02*
X193835159Y-173181433D01*
X193835159Y-173181433D02*
X193865397Y-173272147D01*
X193865397Y-173272147D02*
X193895635Y-173302385D01*
X193835159Y-173514052D02*
X193835159Y-173907147D01*
X193835159Y-173907147D02*
X194077063Y-173695480D01*
X194077063Y-173695480D02*
X194077063Y-173786195D01*
X194077063Y-173786195D02*
X194107301Y-173846671D01*
X194107301Y-173846671D02*
X194137540Y-173876909D01*
X194137540Y-173876909D02*
X194198016Y-173907147D01*
X194198016Y-173907147D02*
X194349206Y-173907147D01*
X194349206Y-173907147D02*
X194409682Y-173876909D01*
X194409682Y-173876909D02*
X194439921Y-173846671D01*
X194439921Y-173846671D02*
X194470159Y-173786195D01*
X194470159Y-173786195D02*
X194470159Y-173604766D01*
X194470159Y-173604766D02*
X194439921Y-173544290D01*
X194439921Y-173544290D02*
X194409682Y-173514052D01*
X193835159Y-174300242D02*
X193835159Y-174360719D01*
X193835159Y-174360719D02*
X193865397Y-174421195D01*
X193865397Y-174421195D02*
X193895635Y-174451433D01*
X193895635Y-174451433D02*
X193956111Y-174481671D01*
X193956111Y-174481671D02*
X194077063Y-174511909D01*
X194077063Y-174511909D02*
X194228254Y-174511909D01*
X194228254Y-174511909D02*
X194349206Y-174481671D01*
X194349206Y-174481671D02*
X194409682Y-174451433D01*
X194409682Y-174451433D02*
X194439921Y-174421195D01*
X194439921Y-174421195D02*
X194470159Y-174360719D01*
X194470159Y-174360719D02*
X194470159Y-174300242D01*
X194470159Y-174300242D02*
X194439921Y-174239766D01*
X194439921Y-174239766D02*
X194409682Y-174209528D01*
X194409682Y-174209528D02*
X194349206Y-174179290D01*
X194349206Y-174179290D02*
X194228254Y-174149052D01*
X194228254Y-174149052D02*
X194077063Y-174149052D01*
X194077063Y-174149052D02*
X193956111Y-174179290D01*
X193956111Y-174179290D02*
X193895635Y-174209528D01*
X193895635Y-174209528D02*
X193865397Y-174239766D01*
X193865397Y-174239766D02*
X193835159Y-174300242D01*
X183618414Y-159967282D02*
X183648652Y-159997521D01*
X183648652Y-159997521D02*
X183739366Y-160027759D01*
X183739366Y-160027759D02*
X183799842Y-160027759D01*
X183799842Y-160027759D02*
X183890557Y-159997521D01*
X183890557Y-159997521D02*
X183951033Y-159937044D01*
X183951033Y-159937044D02*
X183981271Y-159876568D01*
X183981271Y-159876568D02*
X184011509Y-159755616D01*
X184011509Y-159755616D02*
X184011509Y-159664901D01*
X184011509Y-159664901D02*
X183981271Y-159543949D01*
X183981271Y-159543949D02*
X183951033Y-159483473D01*
X183951033Y-159483473D02*
X183890557Y-159422997D01*
X183890557Y-159422997D02*
X183799842Y-159392759D01*
X183799842Y-159392759D02*
X183739366Y-159392759D01*
X183739366Y-159392759D02*
X183648652Y-159422997D01*
X183648652Y-159422997D02*
X183618414Y-159453235D01*
X183074128Y-159604425D02*
X183074128Y-160027759D01*
X183225319Y-159362521D02*
X183376509Y-159816092D01*
X183376509Y-159816092D02*
X182983414Y-159816092D01*
X182620557Y-159392759D02*
X182560080Y-159392759D01*
X182560080Y-159392759D02*
X182499604Y-159422997D01*
X182499604Y-159422997D02*
X182469366Y-159453235D01*
X182469366Y-159453235D02*
X182439128Y-159513711D01*
X182439128Y-159513711D02*
X182408890Y-159634663D01*
X182408890Y-159634663D02*
X182408890Y-159785854D01*
X182408890Y-159785854D02*
X182439128Y-159906806D01*
X182439128Y-159906806D02*
X182469366Y-159967282D01*
X182469366Y-159967282D02*
X182499604Y-159997521D01*
X182499604Y-159997521D02*
X182560080Y-160027759D01*
X182560080Y-160027759D02*
X182620557Y-160027759D01*
X182620557Y-160027759D02*
X182681033Y-159997521D01*
X182681033Y-159997521D02*
X182711271Y-159967282D01*
X182711271Y-159967282D02*
X182741509Y-159906806D01*
X182741509Y-159906806D02*
X182771747Y-159785854D01*
X182771747Y-159785854D02*
X182771747Y-159634663D01*
X182771747Y-159634663D02*
X182741509Y-159513711D01*
X182741509Y-159513711D02*
X182711271Y-159453235D01*
X182711271Y-159453235D02*
X182681033Y-159422997D01*
X182681033Y-159422997D02*
X182620557Y-159392759D01*
X225299814Y-163659959D02*
X225511481Y-163357578D01*
X225662671Y-163659959D02*
X225662671Y-163024959D01*
X225662671Y-163024959D02*
X225420766Y-163024959D01*
X225420766Y-163024959D02*
X225360290Y-163055197D01*
X225360290Y-163055197D02*
X225330052Y-163085435D01*
X225330052Y-163085435D02*
X225299814Y-163145911D01*
X225299814Y-163145911D02*
X225299814Y-163236625D01*
X225299814Y-163236625D02*
X225330052Y-163297101D01*
X225330052Y-163297101D02*
X225360290Y-163327340D01*
X225360290Y-163327340D02*
X225420766Y-163357578D01*
X225420766Y-163357578D02*
X225662671Y-163357578D01*
X224755528Y-163236625D02*
X224755528Y-163659959D01*
X224906719Y-162994721D02*
X225057909Y-163448292D01*
X225057909Y-163448292D02*
X224664814Y-163448292D01*
X224332195Y-163297101D02*
X224392671Y-163266863D01*
X224392671Y-163266863D02*
X224422909Y-163236625D01*
X224422909Y-163236625D02*
X224453147Y-163176149D01*
X224453147Y-163176149D02*
X224453147Y-163145911D01*
X224453147Y-163145911D02*
X224422909Y-163085435D01*
X224422909Y-163085435D02*
X224392671Y-163055197D01*
X224392671Y-163055197D02*
X224332195Y-163024959D01*
X224332195Y-163024959D02*
X224211242Y-163024959D01*
X224211242Y-163024959D02*
X224150766Y-163055197D01*
X224150766Y-163055197D02*
X224120528Y-163085435D01*
X224120528Y-163085435D02*
X224090290Y-163145911D01*
X224090290Y-163145911D02*
X224090290Y-163176149D01*
X224090290Y-163176149D02*
X224120528Y-163236625D01*
X224120528Y-163236625D02*
X224150766Y-163266863D01*
X224150766Y-163266863D02*
X224211242Y-163297101D01*
X224211242Y-163297101D02*
X224332195Y-163297101D01*
X224332195Y-163297101D02*
X224392671Y-163327340D01*
X224392671Y-163327340D02*
X224422909Y-163357578D01*
X224422909Y-163357578D02*
X224453147Y-163418054D01*
X224453147Y-163418054D02*
X224453147Y-163539006D01*
X224453147Y-163539006D02*
X224422909Y-163599482D01*
X224422909Y-163599482D02*
X224392671Y-163629721D01*
X224392671Y-163629721D02*
X224332195Y-163659959D01*
X224332195Y-163659959D02*
X224211242Y-163659959D01*
X224211242Y-163659959D02*
X224150766Y-163629721D01*
X224150766Y-163629721D02*
X224120528Y-163599482D01*
X224120528Y-163599482D02*
X224090290Y-163539006D01*
X224090290Y-163539006D02*
X224090290Y-163418054D01*
X224090290Y-163418054D02*
X224120528Y-163357578D01*
X224120528Y-163357578D02*
X224150766Y-163327340D01*
X224150766Y-163327340D02*
X224211242Y-163297101D01*
X225299814Y-161577159D02*
X225511481Y-161274778D01*
X225662671Y-161577159D02*
X225662671Y-160942159D01*
X225662671Y-160942159D02*
X225420766Y-160942159D01*
X225420766Y-160942159D02*
X225360290Y-160972397D01*
X225360290Y-160972397D02*
X225330052Y-161002635D01*
X225330052Y-161002635D02*
X225299814Y-161063111D01*
X225299814Y-161063111D02*
X225299814Y-161153825D01*
X225299814Y-161153825D02*
X225330052Y-161214301D01*
X225330052Y-161214301D02*
X225360290Y-161244540D01*
X225360290Y-161244540D02*
X225420766Y-161274778D01*
X225420766Y-161274778D02*
X225662671Y-161274778D01*
X224755528Y-161153825D02*
X224755528Y-161577159D01*
X224906719Y-160911921D02*
X225057909Y-161365492D01*
X225057909Y-161365492D02*
X224664814Y-161365492D01*
X224483385Y-160942159D02*
X224060052Y-160942159D01*
X224060052Y-160942159D02*
X224332195Y-161577159D01*
X183618414Y-144381359D02*
X183830081Y-144078978D01*
X183981271Y-144381359D02*
X183981271Y-143746359D01*
X183981271Y-143746359D02*
X183739366Y-143746359D01*
X183739366Y-143746359D02*
X183678890Y-143776597D01*
X183678890Y-143776597D02*
X183648652Y-143806835D01*
X183648652Y-143806835D02*
X183618414Y-143867311D01*
X183618414Y-143867311D02*
X183618414Y-143958025D01*
X183618414Y-143958025D02*
X183648652Y-144018501D01*
X183648652Y-144018501D02*
X183678890Y-144048740D01*
X183678890Y-144048740D02*
X183739366Y-144078978D01*
X183739366Y-144078978D02*
X183981271Y-144078978D01*
X183255557Y-144018501D02*
X183316033Y-143988263D01*
X183316033Y-143988263D02*
X183346271Y-143958025D01*
X183346271Y-143958025D02*
X183376509Y-143897549D01*
X183376509Y-143897549D02*
X183376509Y-143867311D01*
X183376509Y-143867311D02*
X183346271Y-143806835D01*
X183346271Y-143806835D02*
X183316033Y-143776597D01*
X183316033Y-143776597D02*
X183255557Y-143746359D01*
X183255557Y-143746359D02*
X183134604Y-143746359D01*
X183134604Y-143746359D02*
X183074128Y-143776597D01*
X183074128Y-143776597D02*
X183043890Y-143806835D01*
X183043890Y-143806835D02*
X183013652Y-143867311D01*
X183013652Y-143867311D02*
X183013652Y-143897549D01*
X183013652Y-143897549D02*
X183043890Y-143958025D01*
X183043890Y-143958025D02*
X183074128Y-143988263D01*
X183074128Y-143988263D02*
X183134604Y-144018501D01*
X183134604Y-144018501D02*
X183255557Y-144018501D01*
X183255557Y-144018501D02*
X183316033Y-144048740D01*
X183316033Y-144048740D02*
X183346271Y-144078978D01*
X183346271Y-144078978D02*
X183376509Y-144139454D01*
X183376509Y-144139454D02*
X183376509Y-144260406D01*
X183376509Y-144260406D02*
X183346271Y-144320882D01*
X183346271Y-144320882D02*
X183316033Y-144351121D01*
X183316033Y-144351121D02*
X183255557Y-144381359D01*
X183255557Y-144381359D02*
X183134604Y-144381359D01*
X183134604Y-144381359D02*
X183074128Y-144351121D01*
X183074128Y-144351121D02*
X183043890Y-144320882D01*
X183043890Y-144320882D02*
X183013652Y-144260406D01*
X183013652Y-144260406D02*
X183013652Y-144139454D01*
X183013652Y-144139454D02*
X183043890Y-144078978D01*
X183043890Y-144078978D02*
X183074128Y-144048740D01*
X183074128Y-144048740D02*
X183134604Y-144018501D01*
X182408890Y-144381359D02*
X182771747Y-144381359D01*
X182590319Y-144381359D02*
X182590319Y-143746359D01*
X182590319Y-143746359D02*
X182650795Y-143837073D01*
X182650795Y-143837073D02*
X182711271Y-143897549D01*
X182711271Y-143897549D02*
X182771747Y-143927787D01*
X183618414Y-133154559D02*
X183830081Y-132852178D01*
X183981271Y-133154559D02*
X183981271Y-132519559D01*
X183981271Y-132519559D02*
X183739366Y-132519559D01*
X183739366Y-132519559D02*
X183678890Y-132549797D01*
X183678890Y-132549797D02*
X183648652Y-132580035D01*
X183648652Y-132580035D02*
X183618414Y-132640511D01*
X183618414Y-132640511D02*
X183618414Y-132731225D01*
X183618414Y-132731225D02*
X183648652Y-132791701D01*
X183648652Y-132791701D02*
X183678890Y-132821940D01*
X183678890Y-132821940D02*
X183739366Y-132852178D01*
X183739366Y-132852178D02*
X183981271Y-132852178D01*
X183406747Y-132519559D02*
X182983414Y-132519559D01*
X182983414Y-132519559D02*
X183255557Y-133154559D01*
X182650795Y-132791701D02*
X182711271Y-132761463D01*
X182711271Y-132761463D02*
X182741509Y-132731225D01*
X182741509Y-132731225D02*
X182771747Y-132670749D01*
X182771747Y-132670749D02*
X182771747Y-132640511D01*
X182771747Y-132640511D02*
X182741509Y-132580035D01*
X182741509Y-132580035D02*
X182711271Y-132549797D01*
X182711271Y-132549797D02*
X182650795Y-132519559D01*
X182650795Y-132519559D02*
X182529842Y-132519559D01*
X182529842Y-132519559D02*
X182469366Y-132549797D01*
X182469366Y-132549797D02*
X182439128Y-132580035D01*
X182439128Y-132580035D02*
X182408890Y-132640511D01*
X182408890Y-132640511D02*
X182408890Y-132670749D01*
X182408890Y-132670749D02*
X182439128Y-132731225D01*
X182439128Y-132731225D02*
X182469366Y-132761463D01*
X182469366Y-132761463D02*
X182529842Y-132791701D01*
X182529842Y-132791701D02*
X182650795Y-132791701D01*
X182650795Y-132791701D02*
X182711271Y-132821940D01*
X182711271Y-132821940D02*
X182741509Y-132852178D01*
X182741509Y-132852178D02*
X182771747Y-132912654D01*
X182771747Y-132912654D02*
X182771747Y-133033606D01*
X182771747Y-133033606D02*
X182741509Y-133094082D01*
X182741509Y-133094082D02*
X182711271Y-133124321D01*
X182711271Y-133124321D02*
X182650795Y-133154559D01*
X182650795Y-133154559D02*
X182529842Y-133154559D01*
X182529842Y-133154559D02*
X182469366Y-133124321D01*
X182469366Y-133124321D02*
X182439128Y-133094082D01*
X182439128Y-133094082D02*
X182408890Y-133033606D01*
X182408890Y-133033606D02*
X182408890Y-132912654D01*
X182408890Y-132912654D02*
X182439128Y-132852178D01*
X182439128Y-132852178D02*
X182469366Y-132821940D01*
X182469366Y-132821940D02*
X182529842Y-132791701D01*
X217959214Y-80195559D02*
X218170881Y-79893178D01*
X218322071Y-80195559D02*
X218322071Y-79560559D01*
X218322071Y-79560559D02*
X218080166Y-79560559D01*
X218080166Y-79560559D02*
X218019690Y-79590797D01*
X218019690Y-79590797D02*
X217989452Y-79621035D01*
X217989452Y-79621035D02*
X217959214Y-79681511D01*
X217959214Y-79681511D02*
X217959214Y-79772225D01*
X217959214Y-79772225D02*
X217989452Y-79832701D01*
X217989452Y-79832701D02*
X218019690Y-79862940D01*
X218019690Y-79862940D02*
X218080166Y-79893178D01*
X218080166Y-79893178D02*
X218322071Y-79893178D01*
X217384690Y-79560559D02*
X217687071Y-79560559D01*
X217687071Y-79560559D02*
X217717309Y-79862940D01*
X217717309Y-79862940D02*
X217687071Y-79832701D01*
X217687071Y-79832701D02*
X217626595Y-79802463D01*
X217626595Y-79802463D02*
X217475404Y-79802463D01*
X217475404Y-79802463D02*
X217414928Y-79832701D01*
X217414928Y-79832701D02*
X217384690Y-79862940D01*
X217384690Y-79862940D02*
X217354452Y-79923416D01*
X217354452Y-79923416D02*
X217354452Y-80074606D01*
X217354452Y-80074606D02*
X217384690Y-80135082D01*
X217384690Y-80135082D02*
X217414928Y-80165321D01*
X217414928Y-80165321D02*
X217475404Y-80195559D01*
X217475404Y-80195559D02*
X217626595Y-80195559D01*
X217626595Y-80195559D02*
X217687071Y-80165321D01*
X217687071Y-80165321D02*
X217717309Y-80135082D01*
X216961357Y-79560559D02*
X216900880Y-79560559D01*
X216900880Y-79560559D02*
X216840404Y-79590797D01*
X216840404Y-79590797D02*
X216810166Y-79621035D01*
X216810166Y-79621035D02*
X216779928Y-79681511D01*
X216779928Y-79681511D02*
X216749690Y-79802463D01*
X216749690Y-79802463D02*
X216749690Y-79953654D01*
X216749690Y-79953654D02*
X216779928Y-80074606D01*
X216779928Y-80074606D02*
X216810166Y-80135082D01*
X216810166Y-80135082D02*
X216840404Y-80165321D01*
X216840404Y-80165321D02*
X216900880Y-80195559D01*
X216900880Y-80195559D02*
X216961357Y-80195559D01*
X216961357Y-80195559D02*
X217021833Y-80165321D01*
X217021833Y-80165321D02*
X217052071Y-80135082D01*
X217052071Y-80135082D02*
X217082309Y-80074606D01*
X217082309Y-80074606D02*
X217112547Y-79953654D01*
X217112547Y-79953654D02*
X217112547Y-79802463D01*
X217112547Y-79802463D02*
X217082309Y-79681511D01*
X217082309Y-79681511D02*
X217052071Y-79621035D01*
X217052071Y-79621035D02*
X217021833Y-79590797D01*
X217021833Y-79590797D02*
X216961357Y-79560559D01*
X208053214Y-95701682D02*
X208083452Y-95731921D01*
X208083452Y-95731921D02*
X208174166Y-95762159D01*
X208174166Y-95762159D02*
X208234642Y-95762159D01*
X208234642Y-95762159D02*
X208325357Y-95731921D01*
X208325357Y-95731921D02*
X208385833Y-95671444D01*
X208385833Y-95671444D02*
X208416071Y-95610968D01*
X208416071Y-95610968D02*
X208446309Y-95490016D01*
X208446309Y-95490016D02*
X208446309Y-95399301D01*
X208446309Y-95399301D02*
X208416071Y-95278349D01*
X208416071Y-95278349D02*
X208385833Y-95217873D01*
X208385833Y-95217873D02*
X208325357Y-95157397D01*
X208325357Y-95157397D02*
X208234642Y-95127159D01*
X208234642Y-95127159D02*
X208174166Y-95127159D01*
X208174166Y-95127159D02*
X208083452Y-95157397D01*
X208083452Y-95157397D02*
X208053214Y-95187635D01*
X207811309Y-95187635D02*
X207781071Y-95157397D01*
X207781071Y-95157397D02*
X207720595Y-95127159D01*
X207720595Y-95127159D02*
X207569404Y-95127159D01*
X207569404Y-95127159D02*
X207508928Y-95157397D01*
X207508928Y-95157397D02*
X207478690Y-95187635D01*
X207478690Y-95187635D02*
X207448452Y-95248111D01*
X207448452Y-95248111D02*
X207448452Y-95308587D01*
X207448452Y-95308587D02*
X207478690Y-95399301D01*
X207478690Y-95399301D02*
X207841547Y-95762159D01*
X207841547Y-95762159D02*
X207448452Y-95762159D01*
X206904166Y-95127159D02*
X207025119Y-95127159D01*
X207025119Y-95127159D02*
X207085595Y-95157397D01*
X207085595Y-95157397D02*
X207115833Y-95187635D01*
X207115833Y-95187635D02*
X207176309Y-95278349D01*
X207176309Y-95278349D02*
X207206547Y-95399301D01*
X207206547Y-95399301D02*
X207206547Y-95641206D01*
X207206547Y-95641206D02*
X207176309Y-95701682D01*
X207176309Y-95701682D02*
X207146071Y-95731921D01*
X207146071Y-95731921D02*
X207085595Y-95762159D01*
X207085595Y-95762159D02*
X206964642Y-95762159D01*
X206964642Y-95762159D02*
X206904166Y-95731921D01*
X206904166Y-95731921D02*
X206873928Y-95701682D01*
X206873928Y-95701682D02*
X206843690Y-95641206D01*
X206843690Y-95641206D02*
X206843690Y-95490016D01*
X206843690Y-95490016D02*
X206873928Y-95429540D01*
X206873928Y-95429540D02*
X206904166Y-95399301D01*
X206904166Y-95399301D02*
X206964642Y-95369063D01*
X206964642Y-95369063D02*
X207085595Y-95369063D01*
X207085595Y-95369063D02*
X207146071Y-95399301D01*
X207146071Y-95399301D02*
X207176309Y-95429540D01*
X207176309Y-95429540D02*
X207206547Y-95490016D01*
X217959214Y-87526482D02*
X217989452Y-87556721D01*
X217989452Y-87556721D02*
X218080166Y-87586959D01*
X218080166Y-87586959D02*
X218140642Y-87586959D01*
X218140642Y-87586959D02*
X218231357Y-87556721D01*
X218231357Y-87556721D02*
X218291833Y-87496244D01*
X218291833Y-87496244D02*
X218322071Y-87435768D01*
X218322071Y-87435768D02*
X218352309Y-87314816D01*
X218352309Y-87314816D02*
X218352309Y-87224101D01*
X218352309Y-87224101D02*
X218322071Y-87103149D01*
X218322071Y-87103149D02*
X218291833Y-87042673D01*
X218291833Y-87042673D02*
X218231357Y-86982197D01*
X218231357Y-86982197D02*
X218140642Y-86951959D01*
X218140642Y-86951959D02*
X218080166Y-86951959D01*
X218080166Y-86951959D02*
X217989452Y-86982197D01*
X217989452Y-86982197D02*
X217959214Y-87012435D01*
X217354452Y-87586959D02*
X217717309Y-87586959D01*
X217535881Y-87586959D02*
X217535881Y-86951959D01*
X217535881Y-86951959D02*
X217596357Y-87042673D01*
X217596357Y-87042673D02*
X217656833Y-87103149D01*
X217656833Y-87103149D02*
X217717309Y-87133387D01*
X217142785Y-86951959D02*
X216719452Y-86951959D01*
X216719452Y-86951959D02*
X216991595Y-87586959D01*
X183618414Y-136659759D02*
X183830081Y-136357378D01*
X183981271Y-136659759D02*
X183981271Y-136024759D01*
X183981271Y-136024759D02*
X183739366Y-136024759D01*
X183739366Y-136024759D02*
X183678890Y-136054997D01*
X183678890Y-136054997D02*
X183648652Y-136085235D01*
X183648652Y-136085235D02*
X183618414Y-136145711D01*
X183618414Y-136145711D02*
X183618414Y-136236425D01*
X183618414Y-136236425D02*
X183648652Y-136296901D01*
X183648652Y-136296901D02*
X183678890Y-136327140D01*
X183678890Y-136327140D02*
X183739366Y-136357378D01*
X183739366Y-136357378D02*
X183981271Y-136357378D01*
X183406747Y-136024759D02*
X182983414Y-136024759D01*
X182983414Y-136024759D02*
X183255557Y-136659759D01*
X182711271Y-136659759D02*
X182590319Y-136659759D01*
X182590319Y-136659759D02*
X182529842Y-136629521D01*
X182529842Y-136629521D02*
X182499604Y-136599282D01*
X182499604Y-136599282D02*
X182439128Y-136508568D01*
X182439128Y-136508568D02*
X182408890Y-136387616D01*
X182408890Y-136387616D02*
X182408890Y-136145711D01*
X182408890Y-136145711D02*
X182439128Y-136085235D01*
X182439128Y-136085235D02*
X182469366Y-136054997D01*
X182469366Y-136054997D02*
X182529842Y-136024759D01*
X182529842Y-136024759D02*
X182650795Y-136024759D01*
X182650795Y-136024759D02*
X182711271Y-136054997D01*
X182711271Y-136054997D02*
X182741509Y-136085235D01*
X182741509Y-136085235D02*
X182771747Y-136145711D01*
X182771747Y-136145711D02*
X182771747Y-136296901D01*
X182771747Y-136296901D02*
X182741509Y-136357378D01*
X182741509Y-136357378D02*
X182711271Y-136387616D01*
X182711271Y-136387616D02*
X182650795Y-136417854D01*
X182650795Y-136417854D02*
X182529842Y-136417854D01*
X182529842Y-136417854D02*
X182469366Y-136387616D01*
X182469366Y-136387616D02*
X182439128Y-136357378D01*
X182439128Y-136357378D02*
X182408890Y-136296901D01*
X191136814Y-89152082D02*
X191167052Y-89182321D01*
X191167052Y-89182321D02*
X191257766Y-89212559D01*
X191257766Y-89212559D02*
X191318242Y-89212559D01*
X191318242Y-89212559D02*
X191408957Y-89182321D01*
X191408957Y-89182321D02*
X191469433Y-89121844D01*
X191469433Y-89121844D02*
X191499671Y-89061368D01*
X191499671Y-89061368D02*
X191529909Y-88940416D01*
X191529909Y-88940416D02*
X191529909Y-88849701D01*
X191529909Y-88849701D02*
X191499671Y-88728749D01*
X191499671Y-88728749D02*
X191469433Y-88668273D01*
X191469433Y-88668273D02*
X191408957Y-88607797D01*
X191408957Y-88607797D02*
X191318242Y-88577559D01*
X191318242Y-88577559D02*
X191257766Y-88577559D01*
X191257766Y-88577559D02*
X191167052Y-88607797D01*
X191167052Y-88607797D02*
X191136814Y-88638035D01*
X190925147Y-88577559D02*
X190532052Y-88577559D01*
X190532052Y-88577559D02*
X190743719Y-88819463D01*
X190743719Y-88819463D02*
X190653004Y-88819463D01*
X190653004Y-88819463D02*
X190592528Y-88849701D01*
X190592528Y-88849701D02*
X190562290Y-88879940D01*
X190562290Y-88879940D02*
X190532052Y-88940416D01*
X190532052Y-88940416D02*
X190532052Y-89091606D01*
X190532052Y-89091606D02*
X190562290Y-89152082D01*
X190562290Y-89152082D02*
X190592528Y-89182321D01*
X190592528Y-89182321D02*
X190653004Y-89212559D01*
X190653004Y-89212559D02*
X190834433Y-89212559D01*
X190834433Y-89212559D02*
X190894909Y-89182321D01*
X190894909Y-89182321D02*
X190925147Y-89152082D01*
X190290147Y-88638035D02*
X190259909Y-88607797D01*
X190259909Y-88607797D02*
X190199433Y-88577559D01*
X190199433Y-88577559D02*
X190048242Y-88577559D01*
X190048242Y-88577559D02*
X189987766Y-88607797D01*
X189987766Y-88607797D02*
X189957528Y-88638035D01*
X189957528Y-88638035D02*
X189927290Y-88698511D01*
X189927290Y-88698511D02*
X189927290Y-88758987D01*
X189927290Y-88758987D02*
X189957528Y-88849701D01*
X189957528Y-88849701D02*
X190320385Y-89212559D01*
X190320385Y-89212559D02*
X189927290Y-89212559D01*
X225299814Y-151467959D02*
X225511481Y-151165578D01*
X225662671Y-151467959D02*
X225662671Y-150832959D01*
X225662671Y-150832959D02*
X225420766Y-150832959D01*
X225420766Y-150832959D02*
X225360290Y-150863197D01*
X225360290Y-150863197D02*
X225330052Y-150893435D01*
X225330052Y-150893435D02*
X225299814Y-150953911D01*
X225299814Y-150953911D02*
X225299814Y-151044625D01*
X225299814Y-151044625D02*
X225330052Y-151105101D01*
X225330052Y-151105101D02*
X225360290Y-151135340D01*
X225360290Y-151135340D02*
X225420766Y-151165578D01*
X225420766Y-151165578D02*
X225662671Y-151165578D01*
X224755528Y-151044625D02*
X224755528Y-151467959D01*
X224906719Y-150802721D02*
X225057909Y-151256292D01*
X225057909Y-151256292D02*
X224664814Y-151256292D01*
X224150766Y-151044625D02*
X224150766Y-151467959D01*
X224301957Y-150802721D02*
X224453147Y-151256292D01*
X224453147Y-151256292D02*
X224060052Y-151256292D01*
X206103359Y-173302385D02*
X205800978Y-173090718D01*
X206103359Y-172939528D02*
X205468359Y-172939528D01*
X205468359Y-172939528D02*
X205468359Y-173181433D01*
X205468359Y-173181433D02*
X205498597Y-173241909D01*
X205498597Y-173241909D02*
X205528835Y-173272147D01*
X205528835Y-173272147D02*
X205589311Y-173302385D01*
X205589311Y-173302385D02*
X205680025Y-173302385D01*
X205680025Y-173302385D02*
X205740501Y-173272147D01*
X205740501Y-173272147D02*
X205770740Y-173241909D01*
X205770740Y-173241909D02*
X205800978Y-173181433D01*
X205800978Y-173181433D02*
X205800978Y-172939528D01*
X205468359Y-173846671D02*
X205468359Y-173725718D01*
X205468359Y-173725718D02*
X205498597Y-173665242D01*
X205498597Y-173665242D02*
X205528835Y-173635004D01*
X205528835Y-173635004D02*
X205619549Y-173574528D01*
X205619549Y-173574528D02*
X205740501Y-173544290D01*
X205740501Y-173544290D02*
X205982406Y-173544290D01*
X205982406Y-173544290D02*
X206042882Y-173574528D01*
X206042882Y-173574528D02*
X206073121Y-173604766D01*
X206073121Y-173604766D02*
X206103359Y-173665242D01*
X206103359Y-173665242D02*
X206103359Y-173786195D01*
X206103359Y-173786195D02*
X206073121Y-173846671D01*
X206073121Y-173846671D02*
X206042882Y-173876909D01*
X206042882Y-173876909D02*
X205982406Y-173907147D01*
X205982406Y-173907147D02*
X205831216Y-173907147D01*
X205831216Y-173907147D02*
X205770740Y-173876909D01*
X205770740Y-173876909D02*
X205740501Y-173846671D01*
X205740501Y-173846671D02*
X205710263Y-173786195D01*
X205710263Y-173786195D02*
X205710263Y-173665242D01*
X205710263Y-173665242D02*
X205740501Y-173604766D01*
X205740501Y-173604766D02*
X205770740Y-173574528D01*
X205770740Y-173574528D02*
X205831216Y-173544290D01*
X205468359Y-174300242D02*
X205468359Y-174360719D01*
X205468359Y-174360719D02*
X205498597Y-174421195D01*
X205498597Y-174421195D02*
X205528835Y-174451433D01*
X205528835Y-174451433D02*
X205589311Y-174481671D01*
X205589311Y-174481671D02*
X205710263Y-174511909D01*
X205710263Y-174511909D02*
X205861454Y-174511909D01*
X205861454Y-174511909D02*
X205982406Y-174481671D01*
X205982406Y-174481671D02*
X206042882Y-174451433D01*
X206042882Y-174451433D02*
X206073121Y-174421195D01*
X206073121Y-174421195D02*
X206103359Y-174360719D01*
X206103359Y-174360719D02*
X206103359Y-174300242D01*
X206103359Y-174300242D02*
X206073121Y-174239766D01*
X206073121Y-174239766D02*
X206042882Y-174209528D01*
X206042882Y-174209528D02*
X205982406Y-174179290D01*
X205982406Y-174179290D02*
X205861454Y-174149052D01*
X205861454Y-174149052D02*
X205710263Y-174149052D01*
X205710263Y-174149052D02*
X205589311Y-174179290D01*
X205589311Y-174179290D02*
X205528835Y-174209528D01*
X205528835Y-174209528D02*
X205498597Y-174239766D01*
X205498597Y-174239766D02*
X205468359Y-174300242D01*
X217279359Y-173302385D02*
X216976978Y-173090718D01*
X217279359Y-172939528D02*
X216644359Y-172939528D01*
X216644359Y-172939528D02*
X216644359Y-173181433D01*
X216644359Y-173181433D02*
X216674597Y-173241909D01*
X216674597Y-173241909D02*
X216704835Y-173272147D01*
X216704835Y-173272147D02*
X216765311Y-173302385D01*
X216765311Y-173302385D02*
X216856025Y-173302385D01*
X216856025Y-173302385D02*
X216916501Y-173272147D01*
X216916501Y-173272147D02*
X216946740Y-173241909D01*
X216946740Y-173241909D02*
X216976978Y-173181433D01*
X216976978Y-173181433D02*
X216976978Y-172939528D01*
X216644359Y-173876909D02*
X216644359Y-173574528D01*
X216644359Y-173574528D02*
X216946740Y-173544290D01*
X216946740Y-173544290D02*
X216916501Y-173574528D01*
X216916501Y-173574528D02*
X216886263Y-173635004D01*
X216886263Y-173635004D02*
X216886263Y-173786195D01*
X216886263Y-173786195D02*
X216916501Y-173846671D01*
X216916501Y-173846671D02*
X216946740Y-173876909D01*
X216946740Y-173876909D02*
X217007216Y-173907147D01*
X217007216Y-173907147D02*
X217158406Y-173907147D01*
X217158406Y-173907147D02*
X217218882Y-173876909D01*
X217218882Y-173876909D02*
X217249121Y-173846671D01*
X217249121Y-173846671D02*
X217279359Y-173786195D01*
X217279359Y-173786195D02*
X217279359Y-173635004D01*
X217279359Y-173635004D02*
X217249121Y-173574528D01*
X217249121Y-173574528D02*
X217218882Y-173544290D01*
X216856025Y-174451433D02*
X217279359Y-174451433D01*
X216614121Y-174300242D02*
X217067692Y-174149052D01*
X217067692Y-174149052D02*
X217067692Y-174542147D01*
X217959214Y-86205682D02*
X217989452Y-86235921D01*
X217989452Y-86235921D02*
X218080166Y-86266159D01*
X218080166Y-86266159D02*
X218140642Y-86266159D01*
X218140642Y-86266159D02*
X218231357Y-86235921D01*
X218231357Y-86235921D02*
X218291833Y-86175444D01*
X218291833Y-86175444D02*
X218322071Y-86114968D01*
X218322071Y-86114968D02*
X218352309Y-85994016D01*
X218352309Y-85994016D02*
X218352309Y-85903301D01*
X218352309Y-85903301D02*
X218322071Y-85782349D01*
X218322071Y-85782349D02*
X218291833Y-85721873D01*
X218291833Y-85721873D02*
X218231357Y-85661397D01*
X218231357Y-85661397D02*
X218140642Y-85631159D01*
X218140642Y-85631159D02*
X218080166Y-85631159D01*
X218080166Y-85631159D02*
X217989452Y-85661397D01*
X217989452Y-85661397D02*
X217959214Y-85691635D01*
X217354452Y-86266159D02*
X217717309Y-86266159D01*
X217535881Y-86266159D02*
X217535881Y-85631159D01*
X217535881Y-85631159D02*
X217596357Y-85721873D01*
X217596357Y-85721873D02*
X217656833Y-85782349D01*
X217656833Y-85782349D02*
X217717309Y-85812587D01*
X216810166Y-85631159D02*
X216931119Y-85631159D01*
X216931119Y-85631159D02*
X216991595Y-85661397D01*
X216991595Y-85661397D02*
X217021833Y-85691635D01*
X217021833Y-85691635D02*
X217082309Y-85782349D01*
X217082309Y-85782349D02*
X217112547Y-85903301D01*
X217112547Y-85903301D02*
X217112547Y-86145206D01*
X217112547Y-86145206D02*
X217082309Y-86205682D01*
X217082309Y-86205682D02*
X217052071Y-86235921D01*
X217052071Y-86235921D02*
X216991595Y-86266159D01*
X216991595Y-86266159D02*
X216870642Y-86266159D01*
X216870642Y-86266159D02*
X216810166Y-86235921D01*
X216810166Y-86235921D02*
X216779928Y-86205682D01*
X216779928Y-86205682D02*
X216749690Y-86145206D01*
X216749690Y-86145206D02*
X216749690Y-85994016D01*
X216749690Y-85994016D02*
X216779928Y-85933540D01*
X216779928Y-85933540D02*
X216810166Y-85903301D01*
X216810166Y-85903301D02*
X216870642Y-85873063D01*
X216870642Y-85873063D02*
X216991595Y-85873063D01*
X216991595Y-85873063D02*
X217052071Y-85903301D01*
X217052071Y-85903301D02*
X217082309Y-85933540D01*
X217082309Y-85933540D02*
X217112547Y-85994016D01*
X208688214Y-138885282D02*
X208718452Y-138915521D01*
X208718452Y-138915521D02*
X208809166Y-138945759D01*
X208809166Y-138945759D02*
X208869642Y-138945759D01*
X208869642Y-138945759D02*
X208960357Y-138915521D01*
X208960357Y-138915521D02*
X209020833Y-138855044D01*
X209020833Y-138855044D02*
X209051071Y-138794568D01*
X209051071Y-138794568D02*
X209081309Y-138673616D01*
X209081309Y-138673616D02*
X209081309Y-138582901D01*
X209081309Y-138582901D02*
X209051071Y-138461949D01*
X209051071Y-138461949D02*
X209020833Y-138401473D01*
X209020833Y-138401473D02*
X208960357Y-138340997D01*
X208960357Y-138340997D02*
X208869642Y-138310759D01*
X208869642Y-138310759D02*
X208809166Y-138310759D01*
X208809166Y-138310759D02*
X208718452Y-138340997D01*
X208718452Y-138340997D02*
X208688214Y-138371235D01*
X208446309Y-138371235D02*
X208416071Y-138340997D01*
X208416071Y-138340997D02*
X208355595Y-138310759D01*
X208355595Y-138310759D02*
X208204404Y-138310759D01*
X208204404Y-138310759D02*
X208143928Y-138340997D01*
X208143928Y-138340997D02*
X208113690Y-138371235D01*
X208113690Y-138371235D02*
X208083452Y-138431711D01*
X208083452Y-138431711D02*
X208083452Y-138492187D01*
X208083452Y-138492187D02*
X208113690Y-138582901D01*
X208113690Y-138582901D02*
X208476547Y-138945759D01*
X208476547Y-138945759D02*
X208083452Y-138945759D01*
X207539166Y-138522425D02*
X207539166Y-138945759D01*
X207690357Y-138280521D02*
X207841547Y-138734092D01*
X207841547Y-138734092D02*
X207448452Y-138734092D01*
X219336759Y-173302385D02*
X219034378Y-173090718D01*
X219336759Y-172939528D02*
X218701759Y-172939528D01*
X218701759Y-172939528D02*
X218701759Y-173181433D01*
X218701759Y-173181433D02*
X218731997Y-173241909D01*
X218731997Y-173241909D02*
X218762235Y-173272147D01*
X218762235Y-173272147D02*
X218822711Y-173302385D01*
X218822711Y-173302385D02*
X218913425Y-173302385D01*
X218913425Y-173302385D02*
X218973901Y-173272147D01*
X218973901Y-173272147D02*
X219004140Y-173241909D01*
X219004140Y-173241909D02*
X219034378Y-173181433D01*
X219034378Y-173181433D02*
X219034378Y-172939528D01*
X218701759Y-173876909D02*
X218701759Y-173574528D01*
X218701759Y-173574528D02*
X219004140Y-173544290D01*
X219004140Y-173544290D02*
X218973901Y-173574528D01*
X218973901Y-173574528D02*
X218943663Y-173635004D01*
X218943663Y-173635004D02*
X218943663Y-173786195D01*
X218943663Y-173786195D02*
X218973901Y-173846671D01*
X218973901Y-173846671D02*
X219004140Y-173876909D01*
X219004140Y-173876909D02*
X219064616Y-173907147D01*
X219064616Y-173907147D02*
X219215806Y-173907147D01*
X219215806Y-173907147D02*
X219276282Y-173876909D01*
X219276282Y-173876909D02*
X219306521Y-173846671D01*
X219306521Y-173846671D02*
X219336759Y-173786195D01*
X219336759Y-173786195D02*
X219336759Y-173635004D01*
X219336759Y-173635004D02*
X219306521Y-173574528D01*
X219306521Y-173574528D02*
X219276282Y-173544290D01*
X218701759Y-174118814D02*
X218701759Y-174511909D01*
X218701759Y-174511909D02*
X218943663Y-174300242D01*
X218943663Y-174300242D02*
X218943663Y-174390957D01*
X218943663Y-174390957D02*
X218973901Y-174451433D01*
X218973901Y-174451433D02*
X219004140Y-174481671D01*
X219004140Y-174481671D02*
X219064616Y-174511909D01*
X219064616Y-174511909D02*
X219215806Y-174511909D01*
X219215806Y-174511909D02*
X219276282Y-174481671D01*
X219276282Y-174481671D02*
X219306521Y-174451433D01*
X219306521Y-174451433D02*
X219336759Y-174390957D01*
X219336759Y-174390957D02*
X219336759Y-174209528D01*
X219336759Y-174209528D02*
X219306521Y-174149052D01*
X219306521Y-174149052D02*
X219276282Y-174118814D01*
X227179414Y-110904159D02*
X227391081Y-110601778D01*
X227542271Y-110904159D02*
X227542271Y-110269159D01*
X227542271Y-110269159D02*
X227300366Y-110269159D01*
X227300366Y-110269159D02*
X227239890Y-110299397D01*
X227239890Y-110299397D02*
X227209652Y-110329635D01*
X227209652Y-110329635D02*
X227179414Y-110390111D01*
X227179414Y-110390111D02*
X227179414Y-110480825D01*
X227179414Y-110480825D02*
X227209652Y-110541301D01*
X227209652Y-110541301D02*
X227239890Y-110571540D01*
X227239890Y-110571540D02*
X227300366Y-110601778D01*
X227300366Y-110601778D02*
X227542271Y-110601778D01*
X226635128Y-110480825D02*
X226635128Y-110904159D01*
X226786319Y-110238921D02*
X226937509Y-110692492D01*
X226937509Y-110692492D02*
X226544414Y-110692492D01*
X226332747Y-110329635D02*
X226302509Y-110299397D01*
X226302509Y-110299397D02*
X226242033Y-110269159D01*
X226242033Y-110269159D02*
X226090842Y-110269159D01*
X226090842Y-110269159D02*
X226030366Y-110299397D01*
X226030366Y-110299397D02*
X226000128Y-110329635D01*
X226000128Y-110329635D02*
X225969890Y-110390111D01*
X225969890Y-110390111D02*
X225969890Y-110450587D01*
X225969890Y-110450587D02*
X226000128Y-110541301D01*
X226000128Y-110541301D02*
X226362985Y-110904159D01*
X226362985Y-110904159D02*
X225969890Y-110904159D01*
X225299814Y-165666559D02*
X225511481Y-165364178D01*
X225662671Y-165666559D02*
X225662671Y-165031559D01*
X225662671Y-165031559D02*
X225420766Y-165031559D01*
X225420766Y-165031559D02*
X225360290Y-165061797D01*
X225360290Y-165061797D02*
X225330052Y-165092035D01*
X225330052Y-165092035D02*
X225299814Y-165152511D01*
X225299814Y-165152511D02*
X225299814Y-165243225D01*
X225299814Y-165243225D02*
X225330052Y-165303701D01*
X225330052Y-165303701D02*
X225360290Y-165333940D01*
X225360290Y-165333940D02*
X225420766Y-165364178D01*
X225420766Y-165364178D02*
X225662671Y-165364178D01*
X224755528Y-165243225D02*
X224755528Y-165666559D01*
X224906719Y-165001321D02*
X225057909Y-165454892D01*
X225057909Y-165454892D02*
X224664814Y-165454892D01*
X224392671Y-165666559D02*
X224271719Y-165666559D01*
X224271719Y-165666559D02*
X224211242Y-165636321D01*
X224211242Y-165636321D02*
X224181004Y-165606082D01*
X224181004Y-165606082D02*
X224120528Y-165515368D01*
X224120528Y-165515368D02*
X224090290Y-165394416D01*
X224090290Y-165394416D02*
X224090290Y-165152511D01*
X224090290Y-165152511D02*
X224120528Y-165092035D01*
X224120528Y-165092035D02*
X224150766Y-165061797D01*
X224150766Y-165061797D02*
X224211242Y-165031559D01*
X224211242Y-165031559D02*
X224332195Y-165031559D01*
X224332195Y-165031559D02*
X224392671Y-165061797D01*
X224392671Y-165061797D02*
X224422909Y-165092035D01*
X224422909Y-165092035D02*
X224453147Y-165152511D01*
X224453147Y-165152511D02*
X224453147Y-165303701D01*
X224453147Y-165303701D02*
X224422909Y-165364178D01*
X224422909Y-165364178D02*
X224392671Y-165394416D01*
X224392671Y-165394416D02*
X224332195Y-165424654D01*
X224332195Y-165424654D02*
X224211242Y-165424654D01*
X224211242Y-165424654D02*
X224150766Y-165394416D01*
X224150766Y-165394416D02*
X224120528Y-165364178D01*
X224120528Y-165364178D02*
X224090290Y-165303701D01*
X183618414Y-138707482D02*
X183648652Y-138737721D01*
X183648652Y-138737721D02*
X183739366Y-138767959D01*
X183739366Y-138767959D02*
X183799842Y-138767959D01*
X183799842Y-138767959D02*
X183890557Y-138737721D01*
X183890557Y-138737721D02*
X183951033Y-138677244D01*
X183951033Y-138677244D02*
X183981271Y-138616768D01*
X183981271Y-138616768D02*
X184011509Y-138495816D01*
X184011509Y-138495816D02*
X184011509Y-138405101D01*
X184011509Y-138405101D02*
X183981271Y-138284149D01*
X183981271Y-138284149D02*
X183951033Y-138223673D01*
X183951033Y-138223673D02*
X183890557Y-138163197D01*
X183890557Y-138163197D02*
X183799842Y-138132959D01*
X183799842Y-138132959D02*
X183739366Y-138132959D01*
X183739366Y-138132959D02*
X183648652Y-138163197D01*
X183648652Y-138163197D02*
X183618414Y-138193435D01*
X183406747Y-138132959D02*
X183013652Y-138132959D01*
X183013652Y-138132959D02*
X183225319Y-138374863D01*
X183225319Y-138374863D02*
X183134604Y-138374863D01*
X183134604Y-138374863D02*
X183074128Y-138405101D01*
X183074128Y-138405101D02*
X183043890Y-138435340D01*
X183043890Y-138435340D02*
X183013652Y-138495816D01*
X183013652Y-138495816D02*
X183013652Y-138647006D01*
X183013652Y-138647006D02*
X183043890Y-138707482D01*
X183043890Y-138707482D02*
X183074128Y-138737721D01*
X183074128Y-138737721D02*
X183134604Y-138767959D01*
X183134604Y-138767959D02*
X183316033Y-138767959D01*
X183316033Y-138767959D02*
X183376509Y-138737721D01*
X183376509Y-138737721D02*
X183406747Y-138707482D01*
X182801985Y-138132959D02*
X182378652Y-138132959D01*
X182378652Y-138132959D02*
X182650795Y-138767959D01*
X217959214Y-84234159D02*
X218170881Y-83931778D01*
X218322071Y-84234159D02*
X218322071Y-83599159D01*
X218322071Y-83599159D02*
X218080166Y-83599159D01*
X218080166Y-83599159D02*
X218019690Y-83629397D01*
X218019690Y-83629397D02*
X217989452Y-83659635D01*
X217989452Y-83659635D02*
X217959214Y-83720111D01*
X217959214Y-83720111D02*
X217959214Y-83810825D01*
X217959214Y-83810825D02*
X217989452Y-83871301D01*
X217989452Y-83871301D02*
X218019690Y-83901540D01*
X218019690Y-83901540D02*
X218080166Y-83931778D01*
X218080166Y-83931778D02*
X218322071Y-83931778D01*
X217384690Y-83599159D02*
X217687071Y-83599159D01*
X217687071Y-83599159D02*
X217717309Y-83901540D01*
X217717309Y-83901540D02*
X217687071Y-83871301D01*
X217687071Y-83871301D02*
X217626595Y-83841063D01*
X217626595Y-83841063D02*
X217475404Y-83841063D01*
X217475404Y-83841063D02*
X217414928Y-83871301D01*
X217414928Y-83871301D02*
X217384690Y-83901540D01*
X217384690Y-83901540D02*
X217354452Y-83962016D01*
X217354452Y-83962016D02*
X217354452Y-84113206D01*
X217354452Y-84113206D02*
X217384690Y-84173682D01*
X217384690Y-84173682D02*
X217414928Y-84203921D01*
X217414928Y-84203921D02*
X217475404Y-84234159D01*
X217475404Y-84234159D02*
X217626595Y-84234159D01*
X217626595Y-84234159D02*
X217687071Y-84203921D01*
X217687071Y-84203921D02*
X217717309Y-84173682D01*
X217112547Y-83659635D02*
X217082309Y-83629397D01*
X217082309Y-83629397D02*
X217021833Y-83599159D01*
X217021833Y-83599159D02*
X216870642Y-83599159D01*
X216870642Y-83599159D02*
X216810166Y-83629397D01*
X216810166Y-83629397D02*
X216779928Y-83659635D01*
X216779928Y-83659635D02*
X216749690Y-83720111D01*
X216749690Y-83720111D02*
X216749690Y-83780587D01*
X216749690Y-83780587D02*
X216779928Y-83871301D01*
X216779928Y-83871301D02*
X217142785Y-84234159D01*
X217142785Y-84234159D02*
X216749690Y-84234159D01*
X209725882Y-173302385D02*
X209756121Y-173272147D01*
X209756121Y-173272147D02*
X209786359Y-173181433D01*
X209786359Y-173181433D02*
X209786359Y-173120957D01*
X209786359Y-173120957D02*
X209756121Y-173030242D01*
X209756121Y-173030242D02*
X209695644Y-172969766D01*
X209695644Y-172969766D02*
X209635168Y-172939528D01*
X209635168Y-172939528D02*
X209514216Y-172909290D01*
X209514216Y-172909290D02*
X209423501Y-172909290D01*
X209423501Y-172909290D02*
X209302549Y-172939528D01*
X209302549Y-172939528D02*
X209242073Y-172969766D01*
X209242073Y-172969766D02*
X209181597Y-173030242D01*
X209181597Y-173030242D02*
X209151359Y-173120957D01*
X209151359Y-173120957D02*
X209151359Y-173181433D01*
X209151359Y-173181433D02*
X209181597Y-173272147D01*
X209181597Y-173272147D02*
X209211835Y-173302385D01*
X209211835Y-173544290D02*
X209181597Y-173574528D01*
X209181597Y-173574528D02*
X209151359Y-173635004D01*
X209151359Y-173635004D02*
X209151359Y-173786195D01*
X209151359Y-173786195D02*
X209181597Y-173846671D01*
X209181597Y-173846671D02*
X209211835Y-173876909D01*
X209211835Y-173876909D02*
X209272311Y-173907147D01*
X209272311Y-173907147D02*
X209332787Y-173907147D01*
X209332787Y-173907147D02*
X209423501Y-173876909D01*
X209423501Y-173876909D02*
X209786359Y-173514052D01*
X209786359Y-173514052D02*
X209786359Y-173907147D01*
X209151359Y-174481671D02*
X209151359Y-174179290D01*
X209151359Y-174179290D02*
X209453740Y-174149052D01*
X209453740Y-174149052D02*
X209423501Y-174179290D01*
X209423501Y-174179290D02*
X209393263Y-174239766D01*
X209393263Y-174239766D02*
X209393263Y-174390957D01*
X209393263Y-174390957D02*
X209423501Y-174451433D01*
X209423501Y-174451433D02*
X209453740Y-174481671D01*
X209453740Y-174481671D02*
X209514216Y-174511909D01*
X209514216Y-174511909D02*
X209665406Y-174511909D01*
X209665406Y-174511909D02*
X209725882Y-174481671D01*
X209725882Y-174481671D02*
X209756121Y-174451433D01*
X209756121Y-174451433D02*
X209786359Y-174390957D01*
X209786359Y-174390957D02*
X209786359Y-174239766D01*
X209786359Y-174239766D02*
X209756121Y-174179290D01*
X209756121Y-174179290D02*
X209725882Y-174149052D01*
X183618414Y-162110559D02*
X183830081Y-161808178D01*
X183981271Y-162110559D02*
X183981271Y-161475559D01*
X183981271Y-161475559D02*
X183739366Y-161475559D01*
X183739366Y-161475559D02*
X183678890Y-161505797D01*
X183678890Y-161505797D02*
X183648652Y-161536035D01*
X183648652Y-161536035D02*
X183618414Y-161596511D01*
X183618414Y-161596511D02*
X183618414Y-161687225D01*
X183618414Y-161687225D02*
X183648652Y-161747701D01*
X183648652Y-161747701D02*
X183678890Y-161777940D01*
X183678890Y-161777940D02*
X183739366Y-161808178D01*
X183739366Y-161808178D02*
X183981271Y-161808178D01*
X183255557Y-161747701D02*
X183316033Y-161717463D01*
X183316033Y-161717463D02*
X183346271Y-161687225D01*
X183346271Y-161687225D02*
X183376509Y-161626749D01*
X183376509Y-161626749D02*
X183376509Y-161596511D01*
X183376509Y-161596511D02*
X183346271Y-161536035D01*
X183346271Y-161536035D02*
X183316033Y-161505797D01*
X183316033Y-161505797D02*
X183255557Y-161475559D01*
X183255557Y-161475559D02*
X183134604Y-161475559D01*
X183134604Y-161475559D02*
X183074128Y-161505797D01*
X183074128Y-161505797D02*
X183043890Y-161536035D01*
X183043890Y-161536035D02*
X183013652Y-161596511D01*
X183013652Y-161596511D02*
X183013652Y-161626749D01*
X183013652Y-161626749D02*
X183043890Y-161687225D01*
X183043890Y-161687225D02*
X183074128Y-161717463D01*
X183074128Y-161717463D02*
X183134604Y-161747701D01*
X183134604Y-161747701D02*
X183255557Y-161747701D01*
X183255557Y-161747701D02*
X183316033Y-161777940D01*
X183316033Y-161777940D02*
X183346271Y-161808178D01*
X183346271Y-161808178D02*
X183376509Y-161868654D01*
X183376509Y-161868654D02*
X183376509Y-161989606D01*
X183376509Y-161989606D02*
X183346271Y-162050082D01*
X183346271Y-162050082D02*
X183316033Y-162080321D01*
X183316033Y-162080321D02*
X183255557Y-162110559D01*
X183255557Y-162110559D02*
X183134604Y-162110559D01*
X183134604Y-162110559D02*
X183074128Y-162080321D01*
X183074128Y-162080321D02*
X183043890Y-162050082D01*
X183043890Y-162050082D02*
X183013652Y-161989606D01*
X183013652Y-161989606D02*
X183013652Y-161868654D01*
X183013652Y-161868654D02*
X183043890Y-161808178D01*
X183043890Y-161808178D02*
X183074128Y-161777940D01*
X183074128Y-161777940D02*
X183134604Y-161747701D01*
X182469366Y-161475559D02*
X182590319Y-161475559D01*
X182590319Y-161475559D02*
X182650795Y-161505797D01*
X182650795Y-161505797D02*
X182681033Y-161536035D01*
X182681033Y-161536035D02*
X182741509Y-161626749D01*
X182741509Y-161626749D02*
X182771747Y-161747701D01*
X182771747Y-161747701D02*
X182771747Y-161989606D01*
X182771747Y-161989606D02*
X182741509Y-162050082D01*
X182741509Y-162050082D02*
X182711271Y-162080321D01*
X182711271Y-162080321D02*
X182650795Y-162110559D01*
X182650795Y-162110559D02*
X182529842Y-162110559D01*
X182529842Y-162110559D02*
X182469366Y-162080321D01*
X182469366Y-162080321D02*
X182439128Y-162050082D01*
X182439128Y-162050082D02*
X182408890Y-161989606D01*
X182408890Y-161989606D02*
X182408890Y-161838416D01*
X182408890Y-161838416D02*
X182439128Y-161777940D01*
X182439128Y-161777940D02*
X182469366Y-161747701D01*
X182469366Y-161747701D02*
X182529842Y-161717463D01*
X182529842Y-161717463D02*
X182650795Y-161717463D01*
X182650795Y-161717463D02*
X182711271Y-161747701D01*
X182711271Y-161747701D02*
X182741509Y-161777940D01*
X182741509Y-161777940D02*
X182771747Y-161838416D01*
X183618414Y-146276682D02*
X183648652Y-146306921D01*
X183648652Y-146306921D02*
X183739366Y-146337159D01*
X183739366Y-146337159D02*
X183799842Y-146337159D01*
X183799842Y-146337159D02*
X183890557Y-146306921D01*
X183890557Y-146306921D02*
X183951033Y-146246444D01*
X183951033Y-146246444D02*
X183981271Y-146185968D01*
X183981271Y-146185968D02*
X184011509Y-146065016D01*
X184011509Y-146065016D02*
X184011509Y-145974301D01*
X184011509Y-145974301D02*
X183981271Y-145853349D01*
X183981271Y-145853349D02*
X183951033Y-145792873D01*
X183951033Y-145792873D02*
X183890557Y-145732397D01*
X183890557Y-145732397D02*
X183799842Y-145702159D01*
X183799842Y-145702159D02*
X183739366Y-145702159D01*
X183739366Y-145702159D02*
X183648652Y-145732397D01*
X183648652Y-145732397D02*
X183618414Y-145762635D01*
X183406747Y-145702159D02*
X183013652Y-145702159D01*
X183013652Y-145702159D02*
X183225319Y-145944063D01*
X183225319Y-145944063D02*
X183134604Y-145944063D01*
X183134604Y-145944063D02*
X183074128Y-145974301D01*
X183074128Y-145974301D02*
X183043890Y-146004540D01*
X183043890Y-146004540D02*
X183013652Y-146065016D01*
X183013652Y-146065016D02*
X183013652Y-146216206D01*
X183013652Y-146216206D02*
X183043890Y-146276682D01*
X183043890Y-146276682D02*
X183074128Y-146306921D01*
X183074128Y-146306921D02*
X183134604Y-146337159D01*
X183134604Y-146337159D02*
X183316033Y-146337159D01*
X183316033Y-146337159D02*
X183376509Y-146306921D01*
X183376509Y-146306921D02*
X183406747Y-146276682D01*
X182650795Y-145974301D02*
X182711271Y-145944063D01*
X182711271Y-145944063D02*
X182741509Y-145913825D01*
X182741509Y-145913825D02*
X182771747Y-145853349D01*
X182771747Y-145853349D02*
X182771747Y-145823111D01*
X182771747Y-145823111D02*
X182741509Y-145762635D01*
X182741509Y-145762635D02*
X182711271Y-145732397D01*
X182711271Y-145732397D02*
X182650795Y-145702159D01*
X182650795Y-145702159D02*
X182529842Y-145702159D01*
X182529842Y-145702159D02*
X182469366Y-145732397D01*
X182469366Y-145732397D02*
X182439128Y-145762635D01*
X182439128Y-145762635D02*
X182408890Y-145823111D01*
X182408890Y-145823111D02*
X182408890Y-145853349D01*
X182408890Y-145853349D02*
X182439128Y-145913825D01*
X182439128Y-145913825D02*
X182469366Y-145944063D01*
X182469366Y-145944063D02*
X182529842Y-145974301D01*
X182529842Y-145974301D02*
X182650795Y-145974301D01*
X182650795Y-145974301D02*
X182711271Y-146004540D01*
X182711271Y-146004540D02*
X182741509Y-146034778D01*
X182741509Y-146034778D02*
X182771747Y-146095254D01*
X182771747Y-146095254D02*
X182771747Y-146216206D01*
X182771747Y-146216206D02*
X182741509Y-146276682D01*
X182741509Y-146276682D02*
X182711271Y-146306921D01*
X182711271Y-146306921D02*
X182650795Y-146337159D01*
X182650795Y-146337159D02*
X182529842Y-146337159D01*
X182529842Y-146337159D02*
X182469366Y-146306921D01*
X182469366Y-146306921D02*
X182439128Y-146276682D01*
X182439128Y-146276682D02*
X182408890Y-146216206D01*
X182408890Y-146216206D02*
X182408890Y-146095254D01*
X182408890Y-146095254D02*
X182439128Y-146034778D01*
X182439128Y-146034778D02*
X182469366Y-146004540D01*
X182469366Y-146004540D02*
X182529842Y-145974301D01*
X183618414Y-140723759D02*
X183830081Y-140421378D01*
X183981271Y-140723759D02*
X183981271Y-140088759D01*
X183981271Y-140088759D02*
X183739366Y-140088759D01*
X183739366Y-140088759D02*
X183678890Y-140118997D01*
X183678890Y-140118997D02*
X183648652Y-140149235D01*
X183648652Y-140149235D02*
X183618414Y-140209711D01*
X183618414Y-140209711D02*
X183618414Y-140300425D01*
X183618414Y-140300425D02*
X183648652Y-140360901D01*
X183648652Y-140360901D02*
X183678890Y-140391140D01*
X183678890Y-140391140D02*
X183739366Y-140421378D01*
X183739366Y-140421378D02*
X183981271Y-140421378D01*
X183255557Y-140360901D02*
X183316033Y-140330663D01*
X183316033Y-140330663D02*
X183346271Y-140300425D01*
X183346271Y-140300425D02*
X183376509Y-140239949D01*
X183376509Y-140239949D02*
X183376509Y-140209711D01*
X183376509Y-140209711D02*
X183346271Y-140149235D01*
X183346271Y-140149235D02*
X183316033Y-140118997D01*
X183316033Y-140118997D02*
X183255557Y-140088759D01*
X183255557Y-140088759D02*
X183134604Y-140088759D01*
X183134604Y-140088759D02*
X183074128Y-140118997D01*
X183074128Y-140118997D02*
X183043890Y-140149235D01*
X183043890Y-140149235D02*
X183013652Y-140209711D01*
X183013652Y-140209711D02*
X183013652Y-140239949D01*
X183013652Y-140239949D02*
X183043890Y-140300425D01*
X183043890Y-140300425D02*
X183074128Y-140330663D01*
X183074128Y-140330663D02*
X183134604Y-140360901D01*
X183134604Y-140360901D02*
X183255557Y-140360901D01*
X183255557Y-140360901D02*
X183316033Y-140391140D01*
X183316033Y-140391140D02*
X183346271Y-140421378D01*
X183346271Y-140421378D02*
X183376509Y-140481854D01*
X183376509Y-140481854D02*
X183376509Y-140602806D01*
X183376509Y-140602806D02*
X183346271Y-140663282D01*
X183346271Y-140663282D02*
X183316033Y-140693521D01*
X183316033Y-140693521D02*
X183255557Y-140723759D01*
X183255557Y-140723759D02*
X183134604Y-140723759D01*
X183134604Y-140723759D02*
X183074128Y-140693521D01*
X183074128Y-140693521D02*
X183043890Y-140663282D01*
X183043890Y-140663282D02*
X183013652Y-140602806D01*
X183013652Y-140602806D02*
X183013652Y-140481854D01*
X183013652Y-140481854D02*
X183043890Y-140421378D01*
X183043890Y-140421378D02*
X183074128Y-140391140D01*
X183074128Y-140391140D02*
X183134604Y-140360901D01*
X182620557Y-140088759D02*
X182560080Y-140088759D01*
X182560080Y-140088759D02*
X182499604Y-140118997D01*
X182499604Y-140118997D02*
X182469366Y-140149235D01*
X182469366Y-140149235D02*
X182439128Y-140209711D01*
X182439128Y-140209711D02*
X182408890Y-140330663D01*
X182408890Y-140330663D02*
X182408890Y-140481854D01*
X182408890Y-140481854D02*
X182439128Y-140602806D01*
X182439128Y-140602806D02*
X182469366Y-140663282D01*
X182469366Y-140663282D02*
X182499604Y-140693521D01*
X182499604Y-140693521D02*
X182560080Y-140723759D01*
X182560080Y-140723759D02*
X182620557Y-140723759D01*
X182620557Y-140723759D02*
X182681033Y-140693521D01*
X182681033Y-140693521D02*
X182711271Y-140663282D01*
X182711271Y-140663282D02*
X182741509Y-140602806D01*
X182741509Y-140602806D02*
X182771747Y-140481854D01*
X182771747Y-140481854D02*
X182771747Y-140330663D01*
X182771747Y-140330663D02*
X182741509Y-140209711D01*
X182741509Y-140209711D02*
X182711271Y-140149235D01*
X182711271Y-140149235D02*
X182681033Y-140118997D01*
X182681033Y-140118997D02*
X182620557Y-140088759D01*
X190964959Y-173302385D02*
X190662578Y-173090718D01*
X190964959Y-172939528D02*
X190329959Y-172939528D01*
X190329959Y-172939528D02*
X190329959Y-173181433D01*
X190329959Y-173181433D02*
X190360197Y-173241909D01*
X190360197Y-173241909D02*
X190390435Y-173272147D01*
X190390435Y-173272147D02*
X190450911Y-173302385D01*
X190450911Y-173302385D02*
X190541625Y-173302385D01*
X190541625Y-173302385D02*
X190602101Y-173272147D01*
X190602101Y-173272147D02*
X190632340Y-173241909D01*
X190632340Y-173241909D02*
X190662578Y-173181433D01*
X190662578Y-173181433D02*
X190662578Y-172939528D01*
X190329959Y-173846671D02*
X190329959Y-173725718D01*
X190329959Y-173725718D02*
X190360197Y-173665242D01*
X190360197Y-173665242D02*
X190390435Y-173635004D01*
X190390435Y-173635004D02*
X190481149Y-173574528D01*
X190481149Y-173574528D02*
X190602101Y-173544290D01*
X190602101Y-173544290D02*
X190844006Y-173544290D01*
X190844006Y-173544290D02*
X190904482Y-173574528D01*
X190904482Y-173574528D02*
X190934721Y-173604766D01*
X190934721Y-173604766D02*
X190964959Y-173665242D01*
X190964959Y-173665242D02*
X190964959Y-173786195D01*
X190964959Y-173786195D02*
X190934721Y-173846671D01*
X190934721Y-173846671D02*
X190904482Y-173876909D01*
X190904482Y-173876909D02*
X190844006Y-173907147D01*
X190844006Y-173907147D02*
X190692816Y-173907147D01*
X190692816Y-173907147D02*
X190632340Y-173876909D01*
X190632340Y-173876909D02*
X190602101Y-173846671D01*
X190602101Y-173846671D02*
X190571863Y-173786195D01*
X190571863Y-173786195D02*
X190571863Y-173665242D01*
X190571863Y-173665242D02*
X190602101Y-173604766D01*
X190602101Y-173604766D02*
X190632340Y-173574528D01*
X190632340Y-173574528D02*
X190692816Y-173544290D01*
X190329959Y-174481671D02*
X190329959Y-174179290D01*
X190329959Y-174179290D02*
X190632340Y-174149052D01*
X190632340Y-174149052D02*
X190602101Y-174179290D01*
X190602101Y-174179290D02*
X190571863Y-174239766D01*
X190571863Y-174239766D02*
X190571863Y-174390957D01*
X190571863Y-174390957D02*
X190602101Y-174451433D01*
X190602101Y-174451433D02*
X190632340Y-174481671D01*
X190632340Y-174481671D02*
X190692816Y-174511909D01*
X190692816Y-174511909D02*
X190844006Y-174511909D01*
X190844006Y-174511909D02*
X190904482Y-174481671D01*
X190904482Y-174481671D02*
X190934721Y-174451433D01*
X190934721Y-174451433D02*
X190964959Y-174390957D01*
X190964959Y-174390957D02*
X190964959Y-174239766D01*
X190964959Y-174239766D02*
X190934721Y-174179290D01*
X190934721Y-174179290D02*
X190904482Y-174149052D01*
X222146482Y-131951185D02*
X222176721Y-131920947D01*
X222176721Y-131920947D02*
X222206959Y-131830233D01*
X222206959Y-131830233D02*
X222206959Y-131769757D01*
X222206959Y-131769757D02*
X222176721Y-131679042D01*
X222176721Y-131679042D02*
X222116244Y-131618566D01*
X222116244Y-131618566D02*
X222055768Y-131588328D01*
X222055768Y-131588328D02*
X221934816Y-131558090D01*
X221934816Y-131558090D02*
X221844101Y-131558090D01*
X221844101Y-131558090D02*
X221723149Y-131588328D01*
X221723149Y-131588328D02*
X221662673Y-131618566D01*
X221662673Y-131618566D02*
X221602197Y-131679042D01*
X221602197Y-131679042D02*
X221571959Y-131769757D01*
X221571959Y-131769757D02*
X221571959Y-131830233D01*
X221571959Y-131830233D02*
X221602197Y-131920947D01*
X221602197Y-131920947D02*
X221632435Y-131951185D01*
X221632435Y-132193090D02*
X221602197Y-132223328D01*
X221602197Y-132223328D02*
X221571959Y-132283804D01*
X221571959Y-132283804D02*
X221571959Y-132434995D01*
X221571959Y-132434995D02*
X221602197Y-132495471D01*
X221602197Y-132495471D02*
X221632435Y-132525709D01*
X221632435Y-132525709D02*
X221692911Y-132555947D01*
X221692911Y-132555947D02*
X221753387Y-132555947D01*
X221753387Y-132555947D02*
X221844101Y-132525709D01*
X221844101Y-132525709D02*
X222206959Y-132162852D01*
X222206959Y-132162852D02*
X222206959Y-132555947D01*
X221571959Y-132949042D02*
X221571959Y-133009519D01*
X221571959Y-133009519D02*
X221602197Y-133069995D01*
X221602197Y-133069995D02*
X221632435Y-133100233D01*
X221632435Y-133100233D02*
X221692911Y-133130471D01*
X221692911Y-133130471D02*
X221813863Y-133160709D01*
X221813863Y-133160709D02*
X221965054Y-133160709D01*
X221965054Y-133160709D02*
X222086006Y-133130471D01*
X222086006Y-133130471D02*
X222146482Y-133100233D01*
X222146482Y-133100233D02*
X222176721Y-133069995D01*
X222176721Y-133069995D02*
X222206959Y-133009519D01*
X222206959Y-133009519D02*
X222206959Y-132949042D01*
X222206959Y-132949042D02*
X222176721Y-132888566D01*
X222176721Y-132888566D02*
X222146482Y-132858328D01*
X222146482Y-132858328D02*
X222086006Y-132828090D01*
X222086006Y-132828090D02*
X221965054Y-132797852D01*
X221965054Y-132797852D02*
X221813863Y-132797852D01*
X221813863Y-132797852D02*
X221692911Y-132828090D01*
X221692911Y-132828090D02*
X221632435Y-132858328D01*
X221632435Y-132858328D02*
X221602197Y-132888566D01*
X221602197Y-132888566D02*
X221571959Y-132949042D01*
X191136814Y-85570682D02*
X191167052Y-85600921D01*
X191167052Y-85600921D02*
X191257766Y-85631159D01*
X191257766Y-85631159D02*
X191318242Y-85631159D01*
X191318242Y-85631159D02*
X191408957Y-85600921D01*
X191408957Y-85600921D02*
X191469433Y-85540444D01*
X191469433Y-85540444D02*
X191499671Y-85479968D01*
X191499671Y-85479968D02*
X191529909Y-85359016D01*
X191529909Y-85359016D02*
X191529909Y-85268301D01*
X191529909Y-85268301D02*
X191499671Y-85147349D01*
X191499671Y-85147349D02*
X191469433Y-85086873D01*
X191469433Y-85086873D02*
X191408957Y-85026397D01*
X191408957Y-85026397D02*
X191318242Y-84996159D01*
X191318242Y-84996159D02*
X191257766Y-84996159D01*
X191257766Y-84996159D02*
X191167052Y-85026397D01*
X191167052Y-85026397D02*
X191136814Y-85056635D01*
X190925147Y-84996159D02*
X190532052Y-84996159D01*
X190532052Y-84996159D02*
X190743719Y-85238063D01*
X190743719Y-85238063D02*
X190653004Y-85238063D01*
X190653004Y-85238063D02*
X190592528Y-85268301D01*
X190592528Y-85268301D02*
X190562290Y-85298540D01*
X190562290Y-85298540D02*
X190532052Y-85359016D01*
X190532052Y-85359016D02*
X190532052Y-85510206D01*
X190532052Y-85510206D02*
X190562290Y-85570682D01*
X190562290Y-85570682D02*
X190592528Y-85600921D01*
X190592528Y-85600921D02*
X190653004Y-85631159D01*
X190653004Y-85631159D02*
X190834433Y-85631159D01*
X190834433Y-85631159D02*
X190894909Y-85600921D01*
X190894909Y-85600921D02*
X190925147Y-85570682D01*
X189927290Y-85631159D02*
X190290147Y-85631159D01*
X190108719Y-85631159D02*
X190108719Y-84996159D01*
X190108719Y-84996159D02*
X190169195Y-85086873D01*
X190169195Y-85086873D02*
X190229671Y-85147349D01*
X190229671Y-85147349D02*
X190290147Y-85177587D01*
X217959214Y-82202159D02*
X218170881Y-81899778D01*
X218322071Y-82202159D02*
X218322071Y-81567159D01*
X218322071Y-81567159D02*
X218080166Y-81567159D01*
X218080166Y-81567159D02*
X218019690Y-81597397D01*
X218019690Y-81597397D02*
X217989452Y-81627635D01*
X217989452Y-81627635D02*
X217959214Y-81688111D01*
X217959214Y-81688111D02*
X217959214Y-81778825D01*
X217959214Y-81778825D02*
X217989452Y-81839301D01*
X217989452Y-81839301D02*
X218019690Y-81869540D01*
X218019690Y-81869540D02*
X218080166Y-81899778D01*
X218080166Y-81899778D02*
X218322071Y-81899778D01*
X217384690Y-81567159D02*
X217687071Y-81567159D01*
X217687071Y-81567159D02*
X217717309Y-81869540D01*
X217717309Y-81869540D02*
X217687071Y-81839301D01*
X217687071Y-81839301D02*
X217626595Y-81809063D01*
X217626595Y-81809063D02*
X217475404Y-81809063D01*
X217475404Y-81809063D02*
X217414928Y-81839301D01*
X217414928Y-81839301D02*
X217384690Y-81869540D01*
X217384690Y-81869540D02*
X217354452Y-81930016D01*
X217354452Y-81930016D02*
X217354452Y-82081206D01*
X217354452Y-82081206D02*
X217384690Y-82141682D01*
X217384690Y-82141682D02*
X217414928Y-82171921D01*
X217414928Y-82171921D02*
X217475404Y-82202159D01*
X217475404Y-82202159D02*
X217626595Y-82202159D01*
X217626595Y-82202159D02*
X217687071Y-82171921D01*
X217687071Y-82171921D02*
X217717309Y-82141682D01*
X216749690Y-82202159D02*
X217112547Y-82202159D01*
X216931119Y-82202159D02*
X216931119Y-81567159D01*
X216931119Y-81567159D02*
X216991595Y-81657873D01*
X216991595Y-81657873D02*
X217052071Y-81718349D01*
X217052071Y-81718349D02*
X217112547Y-81748587D01*
X183618414Y-130985882D02*
X183648652Y-131016121D01*
X183648652Y-131016121D02*
X183739366Y-131046359D01*
X183739366Y-131046359D02*
X183799842Y-131046359D01*
X183799842Y-131046359D02*
X183890557Y-131016121D01*
X183890557Y-131016121D02*
X183951033Y-130955644D01*
X183951033Y-130955644D02*
X183981271Y-130895168D01*
X183981271Y-130895168D02*
X184011509Y-130774216D01*
X184011509Y-130774216D02*
X184011509Y-130683501D01*
X184011509Y-130683501D02*
X183981271Y-130562549D01*
X183981271Y-130562549D02*
X183951033Y-130502073D01*
X183951033Y-130502073D02*
X183890557Y-130441597D01*
X183890557Y-130441597D02*
X183799842Y-130411359D01*
X183799842Y-130411359D02*
X183739366Y-130411359D01*
X183739366Y-130411359D02*
X183648652Y-130441597D01*
X183648652Y-130441597D02*
X183618414Y-130471835D01*
X183406747Y-130411359D02*
X183013652Y-130411359D01*
X183013652Y-130411359D02*
X183225319Y-130653263D01*
X183225319Y-130653263D02*
X183134604Y-130653263D01*
X183134604Y-130653263D02*
X183074128Y-130683501D01*
X183074128Y-130683501D02*
X183043890Y-130713740D01*
X183043890Y-130713740D02*
X183013652Y-130774216D01*
X183013652Y-130774216D02*
X183013652Y-130925406D01*
X183013652Y-130925406D02*
X183043890Y-130985882D01*
X183043890Y-130985882D02*
X183074128Y-131016121D01*
X183074128Y-131016121D02*
X183134604Y-131046359D01*
X183134604Y-131046359D02*
X183316033Y-131046359D01*
X183316033Y-131046359D02*
X183376509Y-131016121D01*
X183376509Y-131016121D02*
X183406747Y-130985882D01*
X182469366Y-130411359D02*
X182590319Y-130411359D01*
X182590319Y-130411359D02*
X182650795Y-130441597D01*
X182650795Y-130441597D02*
X182681033Y-130471835D01*
X182681033Y-130471835D02*
X182741509Y-130562549D01*
X182741509Y-130562549D02*
X182771747Y-130683501D01*
X182771747Y-130683501D02*
X182771747Y-130925406D01*
X182771747Y-130925406D02*
X182741509Y-130985882D01*
X182741509Y-130985882D02*
X182711271Y-131016121D01*
X182711271Y-131016121D02*
X182650795Y-131046359D01*
X182650795Y-131046359D02*
X182529842Y-131046359D01*
X182529842Y-131046359D02*
X182469366Y-131016121D01*
X182469366Y-131016121D02*
X182439128Y-130985882D01*
X182439128Y-130985882D02*
X182408890Y-130925406D01*
X182408890Y-130925406D02*
X182408890Y-130774216D01*
X182408890Y-130774216D02*
X182439128Y-130713740D01*
X182439128Y-130713740D02*
X182469366Y-130683501D01*
X182469366Y-130683501D02*
X182529842Y-130653263D01*
X182529842Y-130653263D02*
X182650795Y-130653263D01*
X182650795Y-130653263D02*
X182711271Y-130683501D01*
X182711271Y-130683501D02*
X182741509Y-130713740D01*
X182741509Y-130713740D02*
X182771747Y-130774216D01*
X217168082Y-131951185D02*
X217198321Y-131920947D01*
X217198321Y-131920947D02*
X217228559Y-131830233D01*
X217228559Y-131830233D02*
X217228559Y-131769757D01*
X217228559Y-131769757D02*
X217198321Y-131679042D01*
X217198321Y-131679042D02*
X217137844Y-131618566D01*
X217137844Y-131618566D02*
X217077368Y-131588328D01*
X217077368Y-131588328D02*
X216956416Y-131558090D01*
X216956416Y-131558090D02*
X216865701Y-131558090D01*
X216865701Y-131558090D02*
X216744749Y-131588328D01*
X216744749Y-131588328D02*
X216684273Y-131618566D01*
X216684273Y-131618566D02*
X216623797Y-131679042D01*
X216623797Y-131679042D02*
X216593559Y-131769757D01*
X216593559Y-131769757D02*
X216593559Y-131830233D01*
X216593559Y-131830233D02*
X216623797Y-131920947D01*
X216623797Y-131920947D02*
X216654035Y-131951185D01*
X216654035Y-132193090D02*
X216623797Y-132223328D01*
X216623797Y-132223328D02*
X216593559Y-132283804D01*
X216593559Y-132283804D02*
X216593559Y-132434995D01*
X216593559Y-132434995D02*
X216623797Y-132495471D01*
X216623797Y-132495471D02*
X216654035Y-132525709D01*
X216654035Y-132525709D02*
X216714511Y-132555947D01*
X216714511Y-132555947D02*
X216774987Y-132555947D01*
X216774987Y-132555947D02*
X216865701Y-132525709D01*
X216865701Y-132525709D02*
X217228559Y-132162852D01*
X217228559Y-132162852D02*
X217228559Y-132555947D01*
X216654035Y-132797852D02*
X216623797Y-132828090D01*
X216623797Y-132828090D02*
X216593559Y-132888566D01*
X216593559Y-132888566D02*
X216593559Y-133039757D01*
X216593559Y-133039757D02*
X216623797Y-133100233D01*
X216623797Y-133100233D02*
X216654035Y-133130471D01*
X216654035Y-133130471D02*
X216714511Y-133160709D01*
X216714511Y-133160709D02*
X216774987Y-133160709D01*
X216774987Y-133160709D02*
X216865701Y-133130471D01*
X216865701Y-133130471D02*
X217228559Y-132767614D01*
X217228559Y-132767614D02*
X217228559Y-133160709D01*
X225299814Y-157513159D02*
X225511481Y-157210778D01*
X225662671Y-157513159D02*
X225662671Y-156878159D01*
X225662671Y-156878159D02*
X225420766Y-156878159D01*
X225420766Y-156878159D02*
X225360290Y-156908397D01*
X225360290Y-156908397D02*
X225330052Y-156938635D01*
X225330052Y-156938635D02*
X225299814Y-156999111D01*
X225299814Y-156999111D02*
X225299814Y-157089825D01*
X225299814Y-157089825D02*
X225330052Y-157150301D01*
X225330052Y-157150301D02*
X225360290Y-157180540D01*
X225360290Y-157180540D02*
X225420766Y-157210778D01*
X225420766Y-157210778D02*
X225662671Y-157210778D01*
X224755528Y-157089825D02*
X224755528Y-157513159D01*
X224906719Y-156847921D02*
X225057909Y-157301492D01*
X225057909Y-157301492D02*
X224664814Y-157301492D01*
X224150766Y-156878159D02*
X224271719Y-156878159D01*
X224271719Y-156878159D02*
X224332195Y-156908397D01*
X224332195Y-156908397D02*
X224362433Y-156938635D01*
X224362433Y-156938635D02*
X224422909Y-157029349D01*
X224422909Y-157029349D02*
X224453147Y-157150301D01*
X224453147Y-157150301D02*
X224453147Y-157392206D01*
X224453147Y-157392206D02*
X224422909Y-157452682D01*
X224422909Y-157452682D02*
X224392671Y-157482921D01*
X224392671Y-157482921D02*
X224332195Y-157513159D01*
X224332195Y-157513159D02*
X224211242Y-157513159D01*
X224211242Y-157513159D02*
X224150766Y-157482921D01*
X224150766Y-157482921D02*
X224120528Y-157452682D01*
X224120528Y-157452682D02*
X224090290Y-157392206D01*
X224090290Y-157392206D02*
X224090290Y-157241016D01*
X224090290Y-157241016D02*
X224120528Y-157180540D01*
X224120528Y-157180540D02*
X224150766Y-157150301D01*
X224150766Y-157150301D02*
X224211242Y-157120063D01*
X224211242Y-157120063D02*
X224332195Y-157120063D01*
X224332195Y-157120063D02*
X224392671Y-157150301D01*
X224392671Y-157150301D02*
X224422909Y-157180540D01*
X224422909Y-157180540D02*
X224453147Y-157241016D01*
X227179414Y-99591482D02*
X227209652Y-99621721D01*
X227209652Y-99621721D02*
X227300366Y-99651959D01*
X227300366Y-99651959D02*
X227360842Y-99651959D01*
X227360842Y-99651959D02*
X227451557Y-99621721D01*
X227451557Y-99621721D02*
X227512033Y-99561244D01*
X227512033Y-99561244D02*
X227542271Y-99500768D01*
X227542271Y-99500768D02*
X227572509Y-99379816D01*
X227572509Y-99379816D02*
X227572509Y-99289101D01*
X227572509Y-99289101D02*
X227542271Y-99168149D01*
X227542271Y-99168149D02*
X227512033Y-99107673D01*
X227512033Y-99107673D02*
X227451557Y-99047197D01*
X227451557Y-99047197D02*
X227360842Y-99016959D01*
X227360842Y-99016959D02*
X227300366Y-99016959D01*
X227300366Y-99016959D02*
X227209652Y-99047197D01*
X227209652Y-99047197D02*
X227179414Y-99077435D01*
X226574652Y-99651959D02*
X226937509Y-99651959D01*
X226756081Y-99651959D02*
X226756081Y-99016959D01*
X226756081Y-99016959D02*
X226816557Y-99107673D01*
X226816557Y-99107673D02*
X226877033Y-99168149D01*
X226877033Y-99168149D02*
X226937509Y-99198387D01*
X226181557Y-99016959D02*
X226121080Y-99016959D01*
X226121080Y-99016959D02*
X226060604Y-99047197D01*
X226060604Y-99047197D02*
X226030366Y-99077435D01*
X226030366Y-99077435D02*
X226000128Y-99137911D01*
X226000128Y-99137911D02*
X225969890Y-99258863D01*
X225969890Y-99258863D02*
X225969890Y-99410054D01*
X225969890Y-99410054D02*
X226000128Y-99531006D01*
X226000128Y-99531006D02*
X226030366Y-99591482D01*
X226030366Y-99591482D02*
X226060604Y-99621721D01*
X226060604Y-99621721D02*
X226121080Y-99651959D01*
X226121080Y-99651959D02*
X226181557Y-99651959D01*
X226181557Y-99651959D02*
X226242033Y-99621721D01*
X226242033Y-99621721D02*
X226272271Y-99591482D01*
X226272271Y-99591482D02*
X226302509Y-99531006D01*
X226302509Y-99531006D02*
X226332747Y-99410054D01*
X226332747Y-99410054D02*
X226332747Y-99258863D01*
X226332747Y-99258863D02*
X226302509Y-99137911D01*
X226302509Y-99137911D02*
X226272271Y-99077435D01*
X226272271Y-99077435D02*
X226242033Y-99047197D01*
X226242033Y-99047197D02*
X226181557Y-99016959D01*
X183618414Y-148343759D02*
X183830081Y-148041378D01*
X183981271Y-148343759D02*
X183981271Y-147708759D01*
X183981271Y-147708759D02*
X183739366Y-147708759D01*
X183739366Y-147708759D02*
X183678890Y-147738997D01*
X183678890Y-147738997D02*
X183648652Y-147769235D01*
X183648652Y-147769235D02*
X183618414Y-147829711D01*
X183618414Y-147829711D02*
X183618414Y-147920425D01*
X183618414Y-147920425D02*
X183648652Y-147980901D01*
X183648652Y-147980901D02*
X183678890Y-148011140D01*
X183678890Y-148011140D02*
X183739366Y-148041378D01*
X183739366Y-148041378D02*
X183981271Y-148041378D01*
X183255557Y-147980901D02*
X183316033Y-147950663D01*
X183316033Y-147950663D02*
X183346271Y-147920425D01*
X183346271Y-147920425D02*
X183376509Y-147859949D01*
X183376509Y-147859949D02*
X183376509Y-147829711D01*
X183376509Y-147829711D02*
X183346271Y-147769235D01*
X183346271Y-147769235D02*
X183316033Y-147738997D01*
X183316033Y-147738997D02*
X183255557Y-147708759D01*
X183255557Y-147708759D02*
X183134604Y-147708759D01*
X183134604Y-147708759D02*
X183074128Y-147738997D01*
X183074128Y-147738997D02*
X183043890Y-147769235D01*
X183043890Y-147769235D02*
X183013652Y-147829711D01*
X183013652Y-147829711D02*
X183013652Y-147859949D01*
X183013652Y-147859949D02*
X183043890Y-147920425D01*
X183043890Y-147920425D02*
X183074128Y-147950663D01*
X183074128Y-147950663D02*
X183134604Y-147980901D01*
X183134604Y-147980901D02*
X183255557Y-147980901D01*
X183255557Y-147980901D02*
X183316033Y-148011140D01*
X183316033Y-148011140D02*
X183346271Y-148041378D01*
X183346271Y-148041378D02*
X183376509Y-148101854D01*
X183376509Y-148101854D02*
X183376509Y-148222806D01*
X183376509Y-148222806D02*
X183346271Y-148283282D01*
X183346271Y-148283282D02*
X183316033Y-148313521D01*
X183316033Y-148313521D02*
X183255557Y-148343759D01*
X183255557Y-148343759D02*
X183134604Y-148343759D01*
X183134604Y-148343759D02*
X183074128Y-148313521D01*
X183074128Y-148313521D02*
X183043890Y-148283282D01*
X183043890Y-148283282D02*
X183013652Y-148222806D01*
X183013652Y-148222806D02*
X183013652Y-148101854D01*
X183013652Y-148101854D02*
X183043890Y-148041378D01*
X183043890Y-148041378D02*
X183074128Y-148011140D01*
X183074128Y-148011140D02*
X183134604Y-147980901D01*
X182771747Y-147769235D02*
X182741509Y-147738997D01*
X182741509Y-147738997D02*
X182681033Y-147708759D01*
X182681033Y-147708759D02*
X182529842Y-147708759D01*
X182529842Y-147708759D02*
X182469366Y-147738997D01*
X182469366Y-147738997D02*
X182439128Y-147769235D01*
X182439128Y-147769235D02*
X182408890Y-147829711D01*
X182408890Y-147829711D02*
X182408890Y-147890187D01*
X182408890Y-147890187D02*
X182439128Y-147980901D01*
X182439128Y-147980901D02*
X182801985Y-148343759D01*
X182801985Y-148343759D02*
X182408890Y-148343759D01*
X227179414Y-114993559D02*
X227391081Y-114691178D01*
X227542271Y-114993559D02*
X227542271Y-114358559D01*
X227542271Y-114358559D02*
X227300366Y-114358559D01*
X227300366Y-114358559D02*
X227239890Y-114388797D01*
X227239890Y-114388797D02*
X227209652Y-114419035D01*
X227209652Y-114419035D02*
X227179414Y-114479511D01*
X227179414Y-114479511D02*
X227179414Y-114570225D01*
X227179414Y-114570225D02*
X227209652Y-114630701D01*
X227209652Y-114630701D02*
X227239890Y-114660940D01*
X227239890Y-114660940D02*
X227300366Y-114691178D01*
X227300366Y-114691178D02*
X227542271Y-114691178D01*
X226635128Y-114570225D02*
X226635128Y-114993559D01*
X226786319Y-114328321D02*
X226937509Y-114781892D01*
X226937509Y-114781892D02*
X226544414Y-114781892D01*
X226362985Y-114358559D02*
X225969890Y-114358559D01*
X225969890Y-114358559D02*
X226181557Y-114600463D01*
X226181557Y-114600463D02*
X226090842Y-114600463D01*
X226090842Y-114600463D02*
X226030366Y-114630701D01*
X226030366Y-114630701D02*
X226000128Y-114660940D01*
X226000128Y-114660940D02*
X225969890Y-114721416D01*
X225969890Y-114721416D02*
X225969890Y-114872606D01*
X225969890Y-114872606D02*
X226000128Y-114933082D01*
X226000128Y-114933082D02*
X226030366Y-114963321D01*
X226030366Y-114963321D02*
X226090842Y-114993559D01*
X226090842Y-114993559D02*
X226272271Y-114993559D01*
X226272271Y-114993559D02*
X226332747Y-114963321D01*
X226332747Y-114963321D02*
X226362985Y-114933082D01*
X191136814Y-105951159D02*
X191348481Y-105648778D01*
X191499671Y-105951159D02*
X191499671Y-105316159D01*
X191499671Y-105316159D02*
X191257766Y-105316159D01*
X191257766Y-105316159D02*
X191197290Y-105346397D01*
X191197290Y-105346397D02*
X191167052Y-105376635D01*
X191167052Y-105376635D02*
X191136814Y-105437111D01*
X191136814Y-105437111D02*
X191136814Y-105527825D01*
X191136814Y-105527825D02*
X191167052Y-105588301D01*
X191167052Y-105588301D02*
X191197290Y-105618540D01*
X191197290Y-105618540D02*
X191257766Y-105648778D01*
X191257766Y-105648778D02*
X191499671Y-105648778D01*
X190925147Y-105316159D02*
X190501814Y-105316159D01*
X190501814Y-105316159D02*
X190773957Y-105951159D01*
X189927290Y-105951159D02*
X190290147Y-105951159D01*
X190108719Y-105951159D02*
X190108719Y-105316159D01*
X190108719Y-105316159D02*
X190169195Y-105406873D01*
X190169195Y-105406873D02*
X190229671Y-105467349D01*
X190229671Y-105467349D02*
X190290147Y-105497587D01*
X211742159Y-173302385D02*
X211439778Y-173090718D01*
X211742159Y-172939528D02*
X211107159Y-172939528D01*
X211107159Y-172939528D02*
X211107159Y-173181433D01*
X211107159Y-173181433D02*
X211137397Y-173241909D01*
X211137397Y-173241909D02*
X211167635Y-173272147D01*
X211167635Y-173272147D02*
X211228111Y-173302385D01*
X211228111Y-173302385D02*
X211318825Y-173302385D01*
X211318825Y-173302385D02*
X211379301Y-173272147D01*
X211379301Y-173272147D02*
X211409540Y-173241909D01*
X211409540Y-173241909D02*
X211439778Y-173181433D01*
X211439778Y-173181433D02*
X211439778Y-172939528D01*
X211107159Y-173876909D02*
X211107159Y-173574528D01*
X211107159Y-173574528D02*
X211409540Y-173544290D01*
X211409540Y-173544290D02*
X211379301Y-173574528D01*
X211379301Y-173574528D02*
X211349063Y-173635004D01*
X211349063Y-173635004D02*
X211349063Y-173786195D01*
X211349063Y-173786195D02*
X211379301Y-173846671D01*
X211379301Y-173846671D02*
X211409540Y-173876909D01*
X211409540Y-173876909D02*
X211470016Y-173907147D01*
X211470016Y-173907147D02*
X211621206Y-173907147D01*
X211621206Y-173907147D02*
X211681682Y-173876909D01*
X211681682Y-173876909D02*
X211711921Y-173846671D01*
X211711921Y-173846671D02*
X211742159Y-173786195D01*
X211742159Y-173786195D02*
X211742159Y-173635004D01*
X211742159Y-173635004D02*
X211711921Y-173574528D01*
X211711921Y-173574528D02*
X211681682Y-173544290D01*
X211379301Y-174270004D02*
X211349063Y-174209528D01*
X211349063Y-174209528D02*
X211318825Y-174179290D01*
X211318825Y-174179290D02*
X211258349Y-174149052D01*
X211258349Y-174149052D02*
X211228111Y-174149052D01*
X211228111Y-174149052D02*
X211167635Y-174179290D01*
X211167635Y-174179290D02*
X211137397Y-174209528D01*
X211137397Y-174209528D02*
X211107159Y-174270004D01*
X211107159Y-174270004D02*
X211107159Y-174390957D01*
X211107159Y-174390957D02*
X211137397Y-174451433D01*
X211137397Y-174451433D02*
X211167635Y-174481671D01*
X211167635Y-174481671D02*
X211228111Y-174511909D01*
X211228111Y-174511909D02*
X211258349Y-174511909D01*
X211258349Y-174511909D02*
X211318825Y-174481671D01*
X211318825Y-174481671D02*
X211349063Y-174451433D01*
X211349063Y-174451433D02*
X211379301Y-174390957D01*
X211379301Y-174390957D02*
X211379301Y-174270004D01*
X211379301Y-174270004D02*
X211409540Y-174209528D01*
X211409540Y-174209528D02*
X211439778Y-174179290D01*
X211439778Y-174179290D02*
X211500254Y-174149052D01*
X211500254Y-174149052D02*
X211621206Y-174149052D01*
X211621206Y-174149052D02*
X211681682Y-174179290D01*
X211681682Y-174179290D02*
X211711921Y-174209528D01*
X211711921Y-174209528D02*
X211742159Y-174270004D01*
X211742159Y-174270004D02*
X211742159Y-174390957D01*
X211742159Y-174390957D02*
X211711921Y-174451433D01*
X211711921Y-174451433D02*
X211681682Y-174481671D01*
X211681682Y-174481671D02*
X211621206Y-174511909D01*
X211621206Y-174511909D02*
X211500254Y-174511909D01*
X211500254Y-174511909D02*
X211439778Y-174481671D01*
X211439778Y-174481671D02*
X211409540Y-174451433D01*
X211409540Y-174451433D02*
X211379301Y-174390957D01*
X225299814Y-167587282D02*
X225330052Y-167617521D01*
X225330052Y-167617521D02*
X225420766Y-167647759D01*
X225420766Y-167647759D02*
X225481242Y-167647759D01*
X225481242Y-167647759D02*
X225571957Y-167617521D01*
X225571957Y-167617521D02*
X225632433Y-167557044D01*
X225632433Y-167557044D02*
X225662671Y-167496568D01*
X225662671Y-167496568D02*
X225692909Y-167375616D01*
X225692909Y-167375616D02*
X225692909Y-167284901D01*
X225692909Y-167284901D02*
X225662671Y-167163949D01*
X225662671Y-167163949D02*
X225632433Y-167103473D01*
X225632433Y-167103473D02*
X225571957Y-167042997D01*
X225571957Y-167042997D02*
X225481242Y-167012759D01*
X225481242Y-167012759D02*
X225420766Y-167012759D01*
X225420766Y-167012759D02*
X225330052Y-167042997D01*
X225330052Y-167042997D02*
X225299814Y-167073235D01*
X224695052Y-167647759D02*
X225057909Y-167647759D01*
X224876481Y-167647759D02*
X224876481Y-167012759D01*
X224876481Y-167012759D02*
X224936957Y-167103473D01*
X224936957Y-167103473D02*
X224997433Y-167163949D01*
X224997433Y-167163949D02*
X225057909Y-167194187D01*
X224150766Y-167224425D02*
X224150766Y-167647759D01*
X224301957Y-166982521D02*
X224453147Y-167436092D01*
X224453147Y-167436092D02*
X224060052Y-167436092D01*
X183618414Y-153896682D02*
X183648652Y-153926921D01*
X183648652Y-153926921D02*
X183739366Y-153957159D01*
X183739366Y-153957159D02*
X183799842Y-153957159D01*
X183799842Y-153957159D02*
X183890557Y-153926921D01*
X183890557Y-153926921D02*
X183951033Y-153866444D01*
X183951033Y-153866444D02*
X183981271Y-153805968D01*
X183981271Y-153805968D02*
X184011509Y-153685016D01*
X184011509Y-153685016D02*
X184011509Y-153594301D01*
X184011509Y-153594301D02*
X183981271Y-153473349D01*
X183981271Y-153473349D02*
X183951033Y-153412873D01*
X183951033Y-153412873D02*
X183890557Y-153352397D01*
X183890557Y-153352397D02*
X183799842Y-153322159D01*
X183799842Y-153322159D02*
X183739366Y-153322159D01*
X183739366Y-153322159D02*
X183648652Y-153352397D01*
X183648652Y-153352397D02*
X183618414Y-153382635D01*
X183406747Y-153322159D02*
X183013652Y-153322159D01*
X183013652Y-153322159D02*
X183225319Y-153564063D01*
X183225319Y-153564063D02*
X183134604Y-153564063D01*
X183134604Y-153564063D02*
X183074128Y-153594301D01*
X183074128Y-153594301D02*
X183043890Y-153624540D01*
X183043890Y-153624540D02*
X183013652Y-153685016D01*
X183013652Y-153685016D02*
X183013652Y-153836206D01*
X183013652Y-153836206D02*
X183043890Y-153896682D01*
X183043890Y-153896682D02*
X183074128Y-153926921D01*
X183074128Y-153926921D02*
X183134604Y-153957159D01*
X183134604Y-153957159D02*
X183316033Y-153957159D01*
X183316033Y-153957159D02*
X183376509Y-153926921D01*
X183376509Y-153926921D02*
X183406747Y-153896682D01*
X182711271Y-153957159D02*
X182590319Y-153957159D01*
X182590319Y-153957159D02*
X182529842Y-153926921D01*
X182529842Y-153926921D02*
X182499604Y-153896682D01*
X182499604Y-153896682D02*
X182439128Y-153805968D01*
X182439128Y-153805968D02*
X182408890Y-153685016D01*
X182408890Y-153685016D02*
X182408890Y-153443111D01*
X182408890Y-153443111D02*
X182439128Y-153382635D01*
X182439128Y-153382635D02*
X182469366Y-153352397D01*
X182469366Y-153352397D02*
X182529842Y-153322159D01*
X182529842Y-153322159D02*
X182650795Y-153322159D01*
X182650795Y-153322159D02*
X182711271Y-153352397D01*
X182711271Y-153352397D02*
X182741509Y-153382635D01*
X182741509Y-153382635D02*
X182771747Y-153443111D01*
X182771747Y-153443111D02*
X182771747Y-153594301D01*
X182771747Y-153594301D02*
X182741509Y-153654778D01*
X182741509Y-153654778D02*
X182711271Y-153685016D01*
X182711271Y-153685016D02*
X182650795Y-153715254D01*
X182650795Y-153715254D02*
X182529842Y-153715254D01*
X182529842Y-153715254D02*
X182469366Y-153685016D01*
X182469366Y-153685016D02*
X182439128Y-153654778D01*
X182439128Y-153654778D02*
X182408890Y-153594301D01*
X209323214Y-148267559D02*
X209534881Y-147965178D01*
X209686071Y-148267559D02*
X209686071Y-147632559D01*
X209686071Y-147632559D02*
X209444166Y-147632559D01*
X209444166Y-147632559D02*
X209383690Y-147662797D01*
X209383690Y-147662797D02*
X209353452Y-147693035D01*
X209353452Y-147693035D02*
X209323214Y-147753511D01*
X209323214Y-147753511D02*
X209323214Y-147844225D01*
X209323214Y-147844225D02*
X209353452Y-147904701D01*
X209353452Y-147904701D02*
X209383690Y-147934940D01*
X209383690Y-147934940D02*
X209444166Y-147965178D01*
X209444166Y-147965178D02*
X209686071Y-147965178D01*
X208748690Y-147632559D02*
X209051071Y-147632559D01*
X209051071Y-147632559D02*
X209081309Y-147934940D01*
X209081309Y-147934940D02*
X209051071Y-147904701D01*
X209051071Y-147904701D02*
X208990595Y-147874463D01*
X208990595Y-147874463D02*
X208839404Y-147874463D01*
X208839404Y-147874463D02*
X208778928Y-147904701D01*
X208778928Y-147904701D02*
X208748690Y-147934940D01*
X208748690Y-147934940D02*
X208718452Y-147995416D01*
X208718452Y-147995416D02*
X208718452Y-148146606D01*
X208718452Y-148146606D02*
X208748690Y-148207082D01*
X208748690Y-148207082D02*
X208778928Y-148237321D01*
X208778928Y-148237321D02*
X208839404Y-148267559D01*
X208839404Y-148267559D02*
X208990595Y-148267559D01*
X208990595Y-148267559D02*
X209051071Y-148237321D01*
X209051071Y-148237321D02*
X209081309Y-148207082D01*
X208506785Y-147632559D02*
X208083452Y-147632559D01*
X208083452Y-147632559D02*
X208355595Y-148267559D01*
X186840482Y-173302385D02*
X186870721Y-173272147D01*
X186870721Y-173272147D02*
X186900959Y-173181433D01*
X186900959Y-173181433D02*
X186900959Y-173120957D01*
X186900959Y-173120957D02*
X186870721Y-173030242D01*
X186870721Y-173030242D02*
X186810244Y-172969766D01*
X186810244Y-172969766D02*
X186749768Y-172939528D01*
X186749768Y-172939528D02*
X186628816Y-172909290D01*
X186628816Y-172909290D02*
X186538101Y-172909290D01*
X186538101Y-172909290D02*
X186417149Y-172939528D01*
X186417149Y-172939528D02*
X186356673Y-172969766D01*
X186356673Y-172969766D02*
X186296197Y-173030242D01*
X186296197Y-173030242D02*
X186265959Y-173120957D01*
X186265959Y-173120957D02*
X186265959Y-173181433D01*
X186265959Y-173181433D02*
X186296197Y-173272147D01*
X186296197Y-173272147D02*
X186326435Y-173302385D01*
X186265959Y-173514052D02*
X186265959Y-173907147D01*
X186265959Y-173907147D02*
X186507863Y-173695480D01*
X186507863Y-173695480D02*
X186507863Y-173786195D01*
X186507863Y-173786195D02*
X186538101Y-173846671D01*
X186538101Y-173846671D02*
X186568340Y-173876909D01*
X186568340Y-173876909D02*
X186628816Y-173907147D01*
X186628816Y-173907147D02*
X186780006Y-173907147D01*
X186780006Y-173907147D02*
X186840482Y-173876909D01*
X186840482Y-173876909D02*
X186870721Y-173846671D01*
X186870721Y-173846671D02*
X186900959Y-173786195D01*
X186900959Y-173786195D02*
X186900959Y-173604766D01*
X186900959Y-173604766D02*
X186870721Y-173544290D01*
X186870721Y-173544290D02*
X186840482Y-173514052D01*
X186265959Y-174118814D02*
X186265959Y-174511909D01*
X186265959Y-174511909D02*
X186507863Y-174300242D01*
X186507863Y-174300242D02*
X186507863Y-174390957D01*
X186507863Y-174390957D02*
X186538101Y-174451433D01*
X186538101Y-174451433D02*
X186568340Y-174481671D01*
X186568340Y-174481671D02*
X186628816Y-174511909D01*
X186628816Y-174511909D02*
X186780006Y-174511909D01*
X186780006Y-174511909D02*
X186840482Y-174481671D01*
X186840482Y-174481671D02*
X186870721Y-174451433D01*
X186870721Y-174451433D02*
X186900959Y-174390957D01*
X186900959Y-174390957D02*
X186900959Y-174209528D01*
X186900959Y-174209528D02*
X186870721Y-174149052D01*
X186870721Y-174149052D02*
X186840482Y-174118814D01*
X183618414Y-164117159D02*
X183830081Y-163814778D01*
X183981271Y-164117159D02*
X183981271Y-163482159D01*
X183981271Y-163482159D02*
X183739366Y-163482159D01*
X183739366Y-163482159D02*
X183678890Y-163512397D01*
X183678890Y-163512397D02*
X183648652Y-163542635D01*
X183648652Y-163542635D02*
X183618414Y-163603111D01*
X183618414Y-163603111D02*
X183618414Y-163693825D01*
X183618414Y-163693825D02*
X183648652Y-163754301D01*
X183648652Y-163754301D02*
X183678890Y-163784540D01*
X183678890Y-163784540D02*
X183739366Y-163814778D01*
X183739366Y-163814778D02*
X183981271Y-163814778D01*
X183255557Y-163754301D02*
X183316033Y-163724063D01*
X183316033Y-163724063D02*
X183346271Y-163693825D01*
X183346271Y-163693825D02*
X183376509Y-163633349D01*
X183376509Y-163633349D02*
X183376509Y-163603111D01*
X183376509Y-163603111D02*
X183346271Y-163542635D01*
X183346271Y-163542635D02*
X183316033Y-163512397D01*
X183316033Y-163512397D02*
X183255557Y-163482159D01*
X183255557Y-163482159D02*
X183134604Y-163482159D01*
X183134604Y-163482159D02*
X183074128Y-163512397D01*
X183074128Y-163512397D02*
X183043890Y-163542635D01*
X183043890Y-163542635D02*
X183013652Y-163603111D01*
X183013652Y-163603111D02*
X183013652Y-163633349D01*
X183013652Y-163633349D02*
X183043890Y-163693825D01*
X183043890Y-163693825D02*
X183074128Y-163724063D01*
X183074128Y-163724063D02*
X183134604Y-163754301D01*
X183134604Y-163754301D02*
X183255557Y-163754301D01*
X183255557Y-163754301D02*
X183316033Y-163784540D01*
X183316033Y-163784540D02*
X183346271Y-163814778D01*
X183346271Y-163814778D02*
X183376509Y-163875254D01*
X183376509Y-163875254D02*
X183376509Y-163996206D01*
X183376509Y-163996206D02*
X183346271Y-164056682D01*
X183346271Y-164056682D02*
X183316033Y-164086921D01*
X183316033Y-164086921D02*
X183255557Y-164117159D01*
X183255557Y-164117159D02*
X183134604Y-164117159D01*
X183134604Y-164117159D02*
X183074128Y-164086921D01*
X183074128Y-164086921D02*
X183043890Y-164056682D01*
X183043890Y-164056682D02*
X183013652Y-163996206D01*
X183013652Y-163996206D02*
X183013652Y-163875254D01*
X183013652Y-163875254D02*
X183043890Y-163814778D01*
X183043890Y-163814778D02*
X183074128Y-163784540D01*
X183074128Y-163784540D02*
X183134604Y-163754301D01*
X182801985Y-163482159D02*
X182378652Y-163482159D01*
X182378652Y-163482159D02*
X182650795Y-164117159D01*
X191136814Y-103919159D02*
X191348481Y-103616778D01*
X191499671Y-103919159D02*
X191499671Y-103284159D01*
X191499671Y-103284159D02*
X191257766Y-103284159D01*
X191257766Y-103284159D02*
X191197290Y-103314397D01*
X191197290Y-103314397D02*
X191167052Y-103344635D01*
X191167052Y-103344635D02*
X191136814Y-103405111D01*
X191136814Y-103405111D02*
X191136814Y-103495825D01*
X191136814Y-103495825D02*
X191167052Y-103556301D01*
X191167052Y-103556301D02*
X191197290Y-103586540D01*
X191197290Y-103586540D02*
X191257766Y-103616778D01*
X191257766Y-103616778D02*
X191499671Y-103616778D01*
X190925147Y-103284159D02*
X190501814Y-103284159D01*
X190501814Y-103284159D02*
X190773957Y-103919159D01*
X190138957Y-103284159D02*
X190078480Y-103284159D01*
X190078480Y-103284159D02*
X190018004Y-103314397D01*
X190018004Y-103314397D02*
X189987766Y-103344635D01*
X189987766Y-103344635D02*
X189957528Y-103405111D01*
X189957528Y-103405111D02*
X189927290Y-103526063D01*
X189927290Y-103526063D02*
X189927290Y-103677254D01*
X189927290Y-103677254D02*
X189957528Y-103798206D01*
X189957528Y-103798206D02*
X189987766Y-103858682D01*
X189987766Y-103858682D02*
X190018004Y-103888921D01*
X190018004Y-103888921D02*
X190078480Y-103919159D01*
X190078480Y-103919159D02*
X190138957Y-103919159D01*
X190138957Y-103919159D02*
X190199433Y-103888921D01*
X190199433Y-103888921D02*
X190229671Y-103858682D01*
X190229671Y-103858682D02*
X190259909Y-103798206D01*
X190259909Y-103798206D02*
X190290147Y-103677254D01*
X190290147Y-103677254D02*
X190290147Y-103526063D01*
X190290147Y-103526063D02*
X190259909Y-103405111D01*
X190259909Y-103405111D02*
X190229671Y-103344635D01*
X190229671Y-103344635D02*
X190199433Y-103314397D01*
X190199433Y-103314397D02*
X190138957Y-103284159D01*
X225299814Y-159560882D02*
X225330052Y-159591121D01*
X225330052Y-159591121D02*
X225420766Y-159621359D01*
X225420766Y-159621359D02*
X225481242Y-159621359D01*
X225481242Y-159621359D02*
X225571957Y-159591121D01*
X225571957Y-159591121D02*
X225632433Y-159530644D01*
X225632433Y-159530644D02*
X225662671Y-159470168D01*
X225662671Y-159470168D02*
X225692909Y-159349216D01*
X225692909Y-159349216D02*
X225692909Y-159258501D01*
X225692909Y-159258501D02*
X225662671Y-159137549D01*
X225662671Y-159137549D02*
X225632433Y-159077073D01*
X225632433Y-159077073D02*
X225571957Y-159016597D01*
X225571957Y-159016597D02*
X225481242Y-158986359D01*
X225481242Y-158986359D02*
X225420766Y-158986359D01*
X225420766Y-158986359D02*
X225330052Y-159016597D01*
X225330052Y-159016597D02*
X225299814Y-159046835D01*
X224695052Y-159621359D02*
X225057909Y-159621359D01*
X224876481Y-159621359D02*
X224876481Y-158986359D01*
X224876481Y-158986359D02*
X224936957Y-159077073D01*
X224936957Y-159077073D02*
X224997433Y-159137549D01*
X224997433Y-159137549D02*
X225057909Y-159167787D01*
X224483385Y-158986359D02*
X224090290Y-158986359D01*
X224090290Y-158986359D02*
X224301957Y-159228263D01*
X224301957Y-159228263D02*
X224211242Y-159228263D01*
X224211242Y-159228263D02*
X224150766Y-159258501D01*
X224150766Y-159258501D02*
X224120528Y-159288740D01*
X224120528Y-159288740D02*
X224090290Y-159349216D01*
X224090290Y-159349216D02*
X224090290Y-159500406D01*
X224090290Y-159500406D02*
X224120528Y-159560882D01*
X224120528Y-159560882D02*
X224150766Y-159591121D01*
X224150766Y-159591121D02*
X224211242Y-159621359D01*
X224211242Y-159621359D02*
X224392671Y-159621359D01*
X224392671Y-159621359D02*
X224453147Y-159591121D01*
X224453147Y-159591121D02*
X224483385Y-159560882D01*
X227179414Y-101658559D02*
X227391081Y-101356178D01*
X227542271Y-101658559D02*
X227542271Y-101023559D01*
X227542271Y-101023559D02*
X227300366Y-101023559D01*
X227300366Y-101023559D02*
X227239890Y-101053797D01*
X227239890Y-101053797D02*
X227209652Y-101084035D01*
X227209652Y-101084035D02*
X227179414Y-101144511D01*
X227179414Y-101144511D02*
X227179414Y-101235225D01*
X227179414Y-101235225D02*
X227209652Y-101295701D01*
X227209652Y-101295701D02*
X227239890Y-101325940D01*
X227239890Y-101325940D02*
X227300366Y-101356178D01*
X227300366Y-101356178D02*
X227542271Y-101356178D01*
X226635128Y-101235225D02*
X226635128Y-101658559D01*
X226786319Y-100993321D02*
X226937509Y-101446892D01*
X226937509Y-101446892D02*
X226544414Y-101446892D01*
X226181557Y-101023559D02*
X226121080Y-101023559D01*
X226121080Y-101023559D02*
X226060604Y-101053797D01*
X226060604Y-101053797D02*
X226030366Y-101084035D01*
X226030366Y-101084035D02*
X226000128Y-101144511D01*
X226000128Y-101144511D02*
X225969890Y-101265463D01*
X225969890Y-101265463D02*
X225969890Y-101416654D01*
X225969890Y-101416654D02*
X226000128Y-101537606D01*
X226000128Y-101537606D02*
X226030366Y-101598082D01*
X226030366Y-101598082D02*
X226060604Y-101628321D01*
X226060604Y-101628321D02*
X226121080Y-101658559D01*
X226121080Y-101658559D02*
X226181557Y-101658559D01*
X226181557Y-101658559D02*
X226242033Y-101628321D01*
X226242033Y-101628321D02*
X226272271Y-101598082D01*
X226272271Y-101598082D02*
X226302509Y-101537606D01*
X226302509Y-101537606D02*
X226332747Y-101416654D01*
X226332747Y-101416654D02*
X226332747Y-101265463D01*
X226332747Y-101265463D02*
X226302509Y-101144511D01*
X226302509Y-101144511D02*
X226272271Y-101084035D01*
X226272271Y-101084035D02*
X226242033Y-101053797D01*
X226242033Y-101053797D02*
X226181557Y-101023559D01*
X203995159Y-173302385D02*
X203692778Y-173090718D01*
X203995159Y-172939528D02*
X203360159Y-172939528D01*
X203360159Y-172939528D02*
X203360159Y-173181433D01*
X203360159Y-173181433D02*
X203390397Y-173241909D01*
X203390397Y-173241909D02*
X203420635Y-173272147D01*
X203420635Y-173272147D02*
X203481111Y-173302385D01*
X203481111Y-173302385D02*
X203571825Y-173302385D01*
X203571825Y-173302385D02*
X203632301Y-173272147D01*
X203632301Y-173272147D02*
X203662540Y-173241909D01*
X203662540Y-173241909D02*
X203692778Y-173181433D01*
X203692778Y-173181433D02*
X203692778Y-172939528D01*
X203360159Y-173846671D02*
X203360159Y-173725718D01*
X203360159Y-173725718D02*
X203390397Y-173665242D01*
X203390397Y-173665242D02*
X203420635Y-173635004D01*
X203420635Y-173635004D02*
X203511349Y-173574528D01*
X203511349Y-173574528D02*
X203632301Y-173544290D01*
X203632301Y-173544290D02*
X203874206Y-173544290D01*
X203874206Y-173544290D02*
X203934682Y-173574528D01*
X203934682Y-173574528D02*
X203964921Y-173604766D01*
X203964921Y-173604766D02*
X203995159Y-173665242D01*
X203995159Y-173665242D02*
X203995159Y-173786195D01*
X203995159Y-173786195D02*
X203964921Y-173846671D01*
X203964921Y-173846671D02*
X203934682Y-173876909D01*
X203934682Y-173876909D02*
X203874206Y-173907147D01*
X203874206Y-173907147D02*
X203723016Y-173907147D01*
X203723016Y-173907147D02*
X203662540Y-173876909D01*
X203662540Y-173876909D02*
X203632301Y-173846671D01*
X203632301Y-173846671D02*
X203602063Y-173786195D01*
X203602063Y-173786195D02*
X203602063Y-173665242D01*
X203602063Y-173665242D02*
X203632301Y-173604766D01*
X203632301Y-173604766D02*
X203662540Y-173574528D01*
X203662540Y-173574528D02*
X203723016Y-173544290D01*
X203995159Y-174511909D02*
X203995159Y-174149052D01*
X203995159Y-174330480D02*
X203360159Y-174330480D01*
X203360159Y-174330480D02*
X203450873Y-174270004D01*
X203450873Y-174270004D02*
X203511349Y-174209528D01*
X203511349Y-174209528D02*
X203541587Y-174149052D01*
D11*
%TO.C,R41*%
X223800936Y-102643000D02*
X224255064Y-102643000D01*
X223800936Y-104113000D02*
X224255064Y-104113000D01*
%TO.C,R59*%
X207417936Y-98452000D02*
X207872064Y-98452000D01*
X207417936Y-99922000D02*
X207872064Y-99922000D01*
%TO.C,R75*%
X185700936Y-120423000D02*
X186155064Y-120423000D01*
X185700936Y-121893000D02*
X186155064Y-121893000D01*
%TO.C,C35*%
X185666748Y-122455000D02*
X186189252Y-122455000D01*
X185666748Y-123925000D02*
X186189252Y-123925000D01*
%TO.C,C15*%
X220372000Y-171137252D02*
X220372000Y-170614748D01*
X221842000Y-171137252D02*
X221842000Y-170614748D01*
%TO.C,Q2*%
X210697000Y-140172000D02*
X210697000Y-140222000D01*
X210697000Y-141342000D02*
X210697000Y-142122000D01*
X210697000Y-143242000D02*
X210697000Y-143292000D01*
X210697000Y-143292000D02*
X212517000Y-143292000D01*
X212517000Y-140172000D02*
X210697000Y-140172000D01*
X212517000Y-141172000D02*
X212517000Y-140172000D01*
X212517000Y-143292000D02*
X212517000Y-142292000D01*
X210157000Y-142112000D02*
X209917000Y-141782000D01*
X210397000Y-141782000D01*
X210157000Y-142112000D01*
G36*
X210157000Y-142112000D02*
G01*
X209917000Y-141782000D01*
X210397000Y-141782000D01*
X210157000Y-142112000D01*
G37*
%TO.C,R74*%
X186155064Y-116867000D02*
X185700936Y-116867000D01*
X186155064Y-118337000D02*
X185700936Y-118337000D01*
%TO.C,R68*%
X188187064Y-94769000D02*
X187732936Y-94769000D01*
X188187064Y-96239000D02*
X187732936Y-96239000D01*
%TO.C,R67*%
X188187064Y-92737000D02*
X187732936Y-92737000D01*
X188187064Y-94207000D02*
X187732936Y-94207000D01*
%TO.C,C11*%
X223766748Y-111914000D02*
X224289252Y-111914000D01*
X223766748Y-113384000D02*
X224289252Y-113384000D01*
%TO.C,C12*%
X222257252Y-152427000D02*
X221734748Y-152427000D01*
X222257252Y-153897000D02*
X221734748Y-153897000D01*
%TO.C,R83*%
X185700936Y-150903000D02*
X186155064Y-150903000D01*
X185700936Y-152373000D02*
X186155064Y-152373000D01*
%TO.C,C21*%
X218432748Y-99595000D02*
X218955252Y-99595000D01*
X218432748Y-101065000D02*
X218955252Y-101065000D01*
%TO.C,C28*%
X201068000Y-171137252D02*
X201068000Y-170614748D01*
X202538000Y-171137252D02*
X202538000Y-170614748D01*
%TO.C,C19*%
X220733252Y-91340000D02*
X220210748Y-91340000D01*
X220733252Y-92810000D02*
X220210748Y-92810000D01*
%TO.C,R72*%
X188187064Y-106961000D02*
X187732936Y-106961000D01*
X188187064Y-108431000D02*
X187732936Y-108431000D01*
%TO.C,R64*%
X195480000Y-170648936D02*
X195480000Y-171103064D01*
X196950000Y-170648936D02*
X196950000Y-171103064D01*
%TO.C,R56*%
X211834064Y-145823000D02*
X211379936Y-145823000D01*
X211834064Y-147293000D02*
X211379936Y-147293000D01*
%TO.C,D23*%
X207497000Y-148808000D02*
X207497000Y-148858000D01*
X207497000Y-149978000D02*
X207497000Y-150758000D01*
X207497000Y-151878000D02*
X207497000Y-151928000D01*
X207497000Y-151928000D02*
X209317000Y-151928000D01*
X209317000Y-148808000D02*
X207497000Y-148808000D01*
X209317000Y-149808000D02*
X209317000Y-148808000D01*
X209317000Y-151928000D02*
X209317000Y-150928000D01*
X206957000Y-150748000D02*
X206717000Y-150418000D01*
X207197000Y-150418000D01*
X206957000Y-150748000D01*
G36*
X206957000Y-150748000D02*
G01*
X206717000Y-150418000D01*
X207197000Y-150418000D01*
X206957000Y-150748000D01*
G37*
%TO.C,D22*%
X213847000Y-148808000D02*
X213847000Y-149808000D01*
X213847000Y-150928000D02*
X213847000Y-151928000D01*
X213847000Y-151928000D02*
X215667000Y-151928000D01*
X215667000Y-148808000D02*
X213847000Y-148808000D01*
X215667000Y-148858000D02*
X215667000Y-148808000D01*
X215667000Y-150758000D02*
X215667000Y-149978000D01*
X215667000Y-151928000D02*
X215667000Y-151878000D01*
X216447000Y-150318000D02*
X215967000Y-150318000D01*
X216207000Y-149988000D01*
X216447000Y-150318000D01*
G36*
X216447000Y-150318000D02*
G01*
X215967000Y-150318000D01*
X216207000Y-149988000D01*
X216447000Y-150318000D01*
G37*
%TO.C,C29*%
X199651252Y-140997000D02*
X199128748Y-140997000D01*
X199651252Y-142467000D02*
X199128748Y-142467000D01*
%TO.C,C27*%
X203785800Y-139387948D02*
X203785800Y-139910452D01*
X205255800Y-139387948D02*
X205255800Y-139910452D01*
%TO.C,R84*%
X186155064Y-154967000D02*
X185700936Y-154967000D01*
X186155064Y-156437000D02*
X185700936Y-156437000D01*
%TO.C,C18*%
X220733252Y-89308000D02*
X220210748Y-89308000D01*
X220733252Y-90778000D02*
X220210748Y-90778000D01*
%TO.C,R62*%
X201753800Y-139422136D02*
X201753800Y-139876264D01*
X203223800Y-139422136D02*
X203223800Y-139876264D01*
%TO.C,C23*%
X213621252Y-134752500D02*
X213098748Y-134752500D01*
X213621252Y-136222500D02*
X213098748Y-136222500D01*
%TO.C,R73*%
X185700936Y-112803000D02*
X186155064Y-112803000D01*
X185700936Y-114273000D02*
X186155064Y-114273000D01*
%TO.C,C34*%
X185666748Y-114835000D02*
X186189252Y-114835000D01*
X185666748Y-116305000D02*
X186189252Y-116305000D01*
%TO.C,R55*%
X212752000Y-171103064D02*
X212752000Y-170648936D01*
X214222000Y-171103064D02*
X214222000Y-170648936D01*
%TO.C,R66*%
X187860000Y-170648936D02*
X187860000Y-171103064D01*
X189330000Y-170648936D02*
X189330000Y-171103064D01*
%TO.C,R77*%
X185700936Y-128043000D02*
X186155064Y-128043000D01*
X185700936Y-129513000D02*
X186155064Y-129513000D01*
%TO.C,C41*%
X185666748Y-165127000D02*
X186189252Y-165127000D01*
X185666748Y-166597000D02*
X186189252Y-166597000D01*
%TO.C,R63*%
X197512000Y-171103064D02*
X197512000Y-170648936D01*
X198982000Y-171103064D02*
X198982000Y-170648936D01*
%TO.C,R85*%
X185700936Y-156999000D02*
X186155064Y-156999000D01*
X185700936Y-158469000D02*
X186155064Y-158469000D01*
%TO.C,R88*%
X186155064Y-167159000D02*
X185700936Y-167159000D01*
X186155064Y-168629000D02*
X185700936Y-168629000D01*
%TO.C,R69*%
X188187064Y-96801000D02*
X187732936Y-96801000D01*
X188187064Y-98271000D02*
X187732936Y-98271000D01*
%TO.C,R76*%
X186155064Y-124487000D02*
X185700936Y-124487000D01*
X186155064Y-125957000D02*
X185700936Y-125957000D01*
%TO.C,R45*%
X222223064Y-154459000D02*
X221768936Y-154459000D01*
X222223064Y-155929000D02*
X221768936Y-155929000D01*
%TO.C,C30*%
X193448000Y-171137252D02*
X193448000Y-170614748D01*
X194918000Y-171137252D02*
X194918000Y-170614748D01*
%TO.C,C40*%
X185666748Y-159031000D02*
X186189252Y-159031000D01*
X185666748Y-160501000D02*
X186189252Y-160501000D01*
%TO.C,R48*%
X222223064Y-162587000D02*
X221768936Y-162587000D01*
X222223064Y-164057000D02*
X221768936Y-164057000D01*
%TO.C,R47*%
X222223064Y-160555000D02*
X221768936Y-160555000D01*
X222223064Y-162025000D02*
X221768936Y-162025000D01*
%TO.C,R81*%
X185700936Y-143283000D02*
X186155064Y-143283000D01*
X185700936Y-144753000D02*
X186155064Y-144753000D01*
%TO.C,R78*%
X186155064Y-132107000D02*
X185700936Y-132107000D01*
X186155064Y-133577000D02*
X185700936Y-133577000D01*
%TO.C,R50*%
X220244936Y-79148000D02*
X220699064Y-79148000D01*
X220244936Y-80618000D02*
X220699064Y-80618000D01*
%TO.C,C26*%
X207906252Y-96420000D02*
X207383748Y-96420000D01*
X207906252Y-97890000D02*
X207383748Y-97890000D01*
%TO.C,C17*%
X220210748Y-87276000D02*
X220733252Y-87276000D01*
X220210748Y-88746000D02*
X220733252Y-88746000D01*
%TO.C,R79*%
X185700936Y-135663000D02*
X186155064Y-135663000D01*
X185700936Y-137133000D02*
X186155064Y-137133000D01*
%TO.C,C32*%
X187698748Y-88673000D02*
X188221252Y-88673000D01*
X187698748Y-90143000D02*
X188221252Y-90143000D01*
%TO.C,R44*%
X221768936Y-150395000D02*
X222223064Y-150395000D01*
X221768936Y-151865000D02*
X222223064Y-151865000D01*
%TO.C,R60*%
X205132000Y-171103064D02*
X205132000Y-170648936D01*
X206602000Y-171103064D02*
X206602000Y-170648936D01*
%TO.C,R54*%
X216308000Y-171103064D02*
X216308000Y-170648936D01*
X217778000Y-171103064D02*
X217778000Y-170648936D01*
%TO.C,C16*%
X220733252Y-85244000D02*
X220210748Y-85244000D01*
X220733252Y-86714000D02*
X220210748Y-86714000D01*
%TO.C,C24*%
X210870748Y-137774000D02*
X212293252Y-137774000D01*
X210870748Y-139594000D02*
X212293252Y-139594000D01*
%TO.C,R53*%
X218340000Y-170648936D02*
X218340000Y-171103064D01*
X219810000Y-170648936D02*
X219810000Y-171103064D01*
%TO.C,R42*%
X223800936Y-109882000D02*
X224255064Y-109882000D01*
X223800936Y-111352000D02*
X224255064Y-111352000D01*
%TO.C,R49*%
X221768936Y-164619000D02*
X222223064Y-164619000D01*
X221768936Y-166089000D02*
X222223064Y-166089000D01*
%TO.C,C37*%
X185666748Y-137695000D02*
X186189252Y-137695000D01*
X185666748Y-139165000D02*
X186189252Y-139165000D01*
%TO.C,R52*%
X220244936Y-83212000D02*
X220699064Y-83212000D01*
X220244936Y-84682000D02*
X220699064Y-84682000D01*
%TO.C,C25*%
X208688000Y-171137252D02*
X208688000Y-170614748D01*
X210158000Y-171137252D02*
X210158000Y-170614748D01*
%TO.C,R86*%
X186155064Y-161063000D02*
X185700936Y-161063000D01*
X186155064Y-162533000D02*
X185700936Y-162533000D01*
%TO.C,C38*%
X185666748Y-145315000D02*
X186189252Y-145315000D01*
X185666748Y-146785000D02*
X186189252Y-146785000D01*
%TO.C,R80*%
X186155064Y-139727000D02*
X185700936Y-139727000D01*
X186155064Y-141197000D02*
X185700936Y-141197000D01*
%TO.C,R65*%
X189892000Y-171103064D02*
X189892000Y-170648936D01*
X191362000Y-171103064D02*
X191362000Y-170648936D01*
%TO.C,C20*%
X219737000Y-132624552D02*
X219737000Y-132102048D01*
X221207000Y-132624552D02*
X221207000Y-132102048D01*
%TO.C,C31*%
X187698748Y-84609000D02*
X188221252Y-84609000D01*
X187698748Y-86079000D02*
X188221252Y-86079000D01*
%TO.C,R51*%
X220244936Y-81180000D02*
X220699064Y-81180000D01*
X220244936Y-82650000D02*
X220699064Y-82650000D01*
%TO.C,C36*%
X185666748Y-130075000D02*
X186189252Y-130075000D01*
X185666748Y-131545000D02*
X186189252Y-131545000D01*
%TO.C,C22*%
X217705000Y-132624552D02*
X217705000Y-132102048D01*
X219175000Y-132624552D02*
X219175000Y-132102048D01*
%TO.C,R46*%
X221768936Y-156491000D02*
X222223064Y-156491000D01*
X221768936Y-157961000D02*
X222223064Y-157961000D01*
%TO.C,C10*%
X223766748Y-98579000D02*
X224289252Y-98579000D01*
X223766748Y-100049000D02*
X224289252Y-100049000D01*
%TO.C,R82*%
X186155064Y-147347000D02*
X185700936Y-147347000D01*
X186155064Y-148817000D02*
X185700936Y-148817000D01*
%TO.C,R43*%
X223800936Y-113946000D02*
X224255064Y-113946000D01*
X223800936Y-115416000D02*
X224255064Y-115416000D01*
%TO.C,R71*%
X188187064Y-104929000D02*
X187732936Y-104929000D01*
X188187064Y-106399000D02*
X187732936Y-106399000D01*
%TO.C,R58*%
X210720000Y-170648936D02*
X210720000Y-171103064D01*
X212190000Y-170648936D02*
X212190000Y-171103064D01*
%TO.C,C14*%
X222257252Y-166651000D02*
X221734748Y-166651000D01*
X222257252Y-168121000D02*
X221734748Y-168121000D01*
%TO.C,C39*%
X185666748Y-152935000D02*
X186189252Y-152935000D01*
X185666748Y-154405000D02*
X186189252Y-154405000D01*
%TO.C,R57*%
X211379936Y-147855000D02*
X211834064Y-147855000D01*
X211379936Y-149325000D02*
X211834064Y-149325000D01*
%TO.C,C33*%
X185828000Y-171137252D02*
X185828000Y-170614748D01*
X187298000Y-171137252D02*
X187298000Y-170614748D01*
%TO.C,R87*%
X185700936Y-163095000D02*
X186155064Y-163095000D01*
X185700936Y-164565000D02*
X186155064Y-164565000D01*
%TO.C,R70*%
X188187064Y-102897000D02*
X187732936Y-102897000D01*
X188187064Y-104367000D02*
X187732936Y-104367000D01*
%TO.C,C13*%
X222257252Y-158523000D02*
X221734748Y-158523000D01*
X222257252Y-159993000D02*
X221734748Y-159993000D01*
%TO.C,R40*%
X223800936Y-100611000D02*
X224255064Y-100611000D01*
X223800936Y-102081000D02*
X224255064Y-102081000D01*
%TO.C,R61*%
X203100000Y-170648936D02*
X203100000Y-171103064D01*
X204570000Y-170648936D02*
X204570000Y-171103064D01*
%TD*%
M02*
