%TF.GenerationSoftware,KiCad,Pcbnew,9.0.7-9.0.7~ubuntu24.04.1*%
%TF.CreationDate,2026-01-21T16:48:32-08:00*%
%TF.ProjectId,Pico-ButtonBoard-v1,5069636f-2d42-4757-9474-6f6e426f6172,1*%
%TF.SameCoordinates,Original*%
%TF.FileFunction,Legend,Bot*%
%TF.FilePolarity,Positive*%
%FSLAX46Y46*%
G04 Gerber Fmt 4.6, Leading zero omitted, Abs format (unit mm)*
G04 Created by KiCad (PCBNEW 9.0.7-9.0.7~ubuntu24.04.1) date 2026-01-21 16:48:32*
%MOMM*%
%LPD*%
G01*
G04 APERTURE LIST*
%ADD10C,0.127000*%
%ADD11C,0.120000*%
G04 APERTURE END LIST*
D10*
X215729456Y-103952511D02*
X215983456Y-103589654D01*
X216164885Y-103952511D02*
X216164885Y-103190511D01*
X216164885Y-103190511D02*
X215874599Y-103190511D01*
X215874599Y-103190511D02*
X215802028Y-103226797D01*
X215802028Y-103226797D02*
X215765742Y-103263083D01*
X215765742Y-103263083D02*
X215729456Y-103335654D01*
X215729456Y-103335654D02*
X215729456Y-103444511D01*
X215729456Y-103444511D02*
X215765742Y-103517083D01*
X215765742Y-103517083D02*
X215802028Y-103553368D01*
X215802028Y-103553368D02*
X215874599Y-103589654D01*
X215874599Y-103589654D02*
X216164885Y-103589654D01*
X215076314Y-103444511D02*
X215076314Y-103952511D01*
X215257742Y-103154226D02*
X215439171Y-103698511D01*
X215439171Y-103698511D02*
X214967456Y-103698511D01*
X214640885Y-103952511D02*
X214495742Y-103952511D01*
X214495742Y-103952511D02*
X214423171Y-103916226D01*
X214423171Y-103916226D02*
X214386885Y-103879940D01*
X214386885Y-103879940D02*
X214314314Y-103771083D01*
X214314314Y-103771083D02*
X214278028Y-103625940D01*
X214278028Y-103625940D02*
X214278028Y-103335654D01*
X214278028Y-103335654D02*
X214314314Y-103263083D01*
X214314314Y-103263083D02*
X214350600Y-103226797D01*
X214350600Y-103226797D02*
X214423171Y-103190511D01*
X214423171Y-103190511D02*
X214568314Y-103190511D01*
X214568314Y-103190511D02*
X214640885Y-103226797D01*
X214640885Y-103226797D02*
X214677171Y-103263083D01*
X214677171Y-103263083D02*
X214713457Y-103335654D01*
X214713457Y-103335654D02*
X214713457Y-103517083D01*
X214713457Y-103517083D02*
X214677171Y-103589654D01*
X214677171Y-103589654D02*
X214640885Y-103625940D01*
X214640885Y-103625940D02*
X214568314Y-103662226D01*
X214568314Y-103662226D02*
X214423171Y-103662226D01*
X214423171Y-103662226D02*
X214350600Y-103625940D01*
X214350600Y-103625940D02*
X214314314Y-103589654D01*
X214314314Y-103589654D02*
X214278028Y-103517083D01*
X208134856Y-101182911D02*
X208388856Y-100820054D01*
X208570285Y-101182911D02*
X208570285Y-100420911D01*
X208570285Y-100420911D02*
X208279999Y-100420911D01*
X208279999Y-100420911D02*
X208207428Y-100457197D01*
X208207428Y-100457197D02*
X208171142Y-100493483D01*
X208171142Y-100493483D02*
X208134856Y-100566054D01*
X208134856Y-100566054D02*
X208134856Y-100674911D01*
X208134856Y-100674911D02*
X208171142Y-100747483D01*
X208171142Y-100747483D02*
X208207428Y-100783768D01*
X208207428Y-100783768D02*
X208279999Y-100820054D01*
X208279999Y-100820054D02*
X208570285Y-100820054D01*
X207445428Y-100420911D02*
X207808285Y-100420911D01*
X207808285Y-100420911D02*
X207844571Y-100783768D01*
X207844571Y-100783768D02*
X207808285Y-100747483D01*
X207808285Y-100747483D02*
X207735714Y-100711197D01*
X207735714Y-100711197D02*
X207554285Y-100711197D01*
X207554285Y-100711197D02*
X207481714Y-100747483D01*
X207481714Y-100747483D02*
X207445428Y-100783768D01*
X207445428Y-100783768D02*
X207409142Y-100856340D01*
X207409142Y-100856340D02*
X207409142Y-101037768D01*
X207409142Y-101037768D02*
X207445428Y-101110340D01*
X207445428Y-101110340D02*
X207481714Y-101146626D01*
X207481714Y-101146626D02*
X207554285Y-101182911D01*
X207554285Y-101182911D02*
X207735714Y-101182911D01*
X207735714Y-101182911D02*
X207808285Y-101146626D01*
X207808285Y-101146626D02*
X207844571Y-101110340D01*
X206756000Y-100420911D02*
X206901142Y-100420911D01*
X206901142Y-100420911D02*
X206973714Y-100457197D01*
X206973714Y-100457197D02*
X207010000Y-100493483D01*
X207010000Y-100493483D02*
X207082571Y-100602340D01*
X207082571Y-100602340D02*
X207118857Y-100747483D01*
X207118857Y-100747483D02*
X207118857Y-101037768D01*
X207118857Y-101037768D02*
X207082571Y-101110340D01*
X207082571Y-101110340D02*
X207046285Y-101146626D01*
X207046285Y-101146626D02*
X206973714Y-101182911D01*
X206973714Y-101182911D02*
X206828571Y-101182911D01*
X206828571Y-101182911D02*
X206756000Y-101146626D01*
X206756000Y-101146626D02*
X206719714Y-101110340D01*
X206719714Y-101110340D02*
X206683428Y-101037768D01*
X206683428Y-101037768D02*
X206683428Y-100856340D01*
X206683428Y-100856340D02*
X206719714Y-100783768D01*
X206719714Y-100783768D02*
X206756000Y-100747483D01*
X206756000Y-100747483D02*
X206828571Y-100711197D01*
X206828571Y-100711197D02*
X206973714Y-100711197D01*
X206973714Y-100711197D02*
X207046285Y-100747483D01*
X207046285Y-100747483D02*
X207082571Y-100783768D01*
X207082571Y-100783768D02*
X207118857Y-100856340D01*
X183547656Y-121453111D02*
X183801656Y-121090254D01*
X183983085Y-121453111D02*
X183983085Y-120691111D01*
X183983085Y-120691111D02*
X183692799Y-120691111D01*
X183692799Y-120691111D02*
X183620228Y-120727397D01*
X183620228Y-120727397D02*
X183583942Y-120763683D01*
X183583942Y-120763683D02*
X183547656Y-120836254D01*
X183547656Y-120836254D02*
X183547656Y-120945111D01*
X183547656Y-120945111D02*
X183583942Y-121017683D01*
X183583942Y-121017683D02*
X183620228Y-121053968D01*
X183620228Y-121053968D02*
X183692799Y-121090254D01*
X183692799Y-121090254D02*
X183983085Y-121090254D01*
X183293656Y-120691111D02*
X182785656Y-120691111D01*
X182785656Y-120691111D02*
X183112228Y-121453111D01*
X182168800Y-120945111D02*
X182168800Y-121453111D01*
X182350228Y-120654826D02*
X182531657Y-121199111D01*
X182531657Y-121199111D02*
X182059942Y-121199111D01*
X183547656Y-123387140D02*
X183583942Y-123423426D01*
X183583942Y-123423426D02*
X183692799Y-123459711D01*
X183692799Y-123459711D02*
X183765371Y-123459711D01*
X183765371Y-123459711D02*
X183874228Y-123423426D01*
X183874228Y-123423426D02*
X183946799Y-123350854D01*
X183946799Y-123350854D02*
X183983085Y-123278283D01*
X183983085Y-123278283D02*
X184019371Y-123133140D01*
X184019371Y-123133140D02*
X184019371Y-123024283D01*
X184019371Y-123024283D02*
X183983085Y-122879140D01*
X183983085Y-122879140D02*
X183946799Y-122806568D01*
X183946799Y-122806568D02*
X183874228Y-122733997D01*
X183874228Y-122733997D02*
X183765371Y-122697711D01*
X183765371Y-122697711D02*
X183692799Y-122697711D01*
X183692799Y-122697711D02*
X183583942Y-122733997D01*
X183583942Y-122733997D02*
X183547656Y-122770283D01*
X183293656Y-122697711D02*
X182821942Y-122697711D01*
X182821942Y-122697711D02*
X183075942Y-122987997D01*
X183075942Y-122987997D02*
X182967085Y-122987997D01*
X182967085Y-122987997D02*
X182894514Y-123024283D01*
X182894514Y-123024283D02*
X182858228Y-123060568D01*
X182858228Y-123060568D02*
X182821942Y-123133140D01*
X182821942Y-123133140D02*
X182821942Y-123314568D01*
X182821942Y-123314568D02*
X182858228Y-123387140D01*
X182858228Y-123387140D02*
X182894514Y-123423426D01*
X182894514Y-123423426D02*
X182967085Y-123459711D01*
X182967085Y-123459711D02*
X183184799Y-123459711D01*
X183184799Y-123459711D02*
X183257371Y-123423426D01*
X183257371Y-123423426D02*
X183293656Y-123387140D01*
X182132514Y-122697711D02*
X182495371Y-122697711D01*
X182495371Y-122697711D02*
X182531657Y-123060568D01*
X182531657Y-123060568D02*
X182495371Y-123024283D01*
X182495371Y-123024283D02*
X182422800Y-122987997D01*
X182422800Y-122987997D02*
X182241371Y-122987997D01*
X182241371Y-122987997D02*
X182168800Y-123024283D01*
X182168800Y-123024283D02*
X182132514Y-123060568D01*
X182132514Y-123060568D02*
X182096228Y-123133140D01*
X182096228Y-123133140D02*
X182096228Y-123314568D01*
X182096228Y-123314568D02*
X182132514Y-123387140D01*
X182132514Y-123387140D02*
X182168800Y-123423426D01*
X182168800Y-123423426D02*
X182241371Y-123459711D01*
X182241371Y-123459711D02*
X182422800Y-123459711D01*
X182422800Y-123459711D02*
X182495371Y-123423426D01*
X182495371Y-123423426D02*
X182531657Y-123387140D01*
X221354940Y-173220743D02*
X221391226Y-173184457D01*
X221391226Y-173184457D02*
X221427511Y-173075600D01*
X221427511Y-173075600D02*
X221427511Y-173003028D01*
X221427511Y-173003028D02*
X221391226Y-172894171D01*
X221391226Y-172894171D02*
X221318654Y-172821600D01*
X221318654Y-172821600D02*
X221246083Y-172785314D01*
X221246083Y-172785314D02*
X221100940Y-172749028D01*
X221100940Y-172749028D02*
X220992083Y-172749028D01*
X220992083Y-172749028D02*
X220846940Y-172785314D01*
X220846940Y-172785314D02*
X220774368Y-172821600D01*
X220774368Y-172821600D02*
X220701797Y-172894171D01*
X220701797Y-172894171D02*
X220665511Y-173003028D01*
X220665511Y-173003028D02*
X220665511Y-173075600D01*
X220665511Y-173075600D02*
X220701797Y-173184457D01*
X220701797Y-173184457D02*
X220738083Y-173220743D01*
X221427511Y-173946457D02*
X221427511Y-173511028D01*
X221427511Y-173728743D02*
X220665511Y-173728743D01*
X220665511Y-173728743D02*
X220774368Y-173656171D01*
X220774368Y-173656171D02*
X220846940Y-173583600D01*
X220846940Y-173583600D02*
X220883226Y-173511028D01*
X220738083Y-174236742D02*
X220701797Y-174273028D01*
X220701797Y-174273028D02*
X220665511Y-174345600D01*
X220665511Y-174345600D02*
X220665511Y-174527028D01*
X220665511Y-174527028D02*
X220701797Y-174599600D01*
X220701797Y-174599600D02*
X220738083Y-174635885D01*
X220738083Y-174635885D02*
X220810654Y-174672171D01*
X220810654Y-174672171D02*
X220883226Y-174672171D01*
X220883226Y-174672171D02*
X220992083Y-174635885D01*
X220992083Y-174635885D02*
X221427511Y-174200457D01*
X221427511Y-174200457D02*
X221427511Y-174672171D01*
X195443311Y-128923143D02*
X195080454Y-128669143D01*
X195443311Y-128487714D02*
X194681311Y-128487714D01*
X194681311Y-128487714D02*
X194681311Y-128778000D01*
X194681311Y-128778000D02*
X194717597Y-128850571D01*
X194717597Y-128850571D02*
X194753883Y-128886857D01*
X194753883Y-128886857D02*
X194826454Y-128923143D01*
X194826454Y-128923143D02*
X194935311Y-128923143D01*
X194935311Y-128923143D02*
X195007883Y-128886857D01*
X195007883Y-128886857D02*
X195044168Y-128850571D01*
X195044168Y-128850571D02*
X195080454Y-128778000D01*
X195080454Y-128778000D02*
X195080454Y-128487714D01*
X194681311Y-129576286D02*
X194681311Y-129431143D01*
X194681311Y-129431143D02*
X194717597Y-129358571D01*
X194717597Y-129358571D02*
X194753883Y-129322286D01*
X194753883Y-129322286D02*
X194862740Y-129249714D01*
X194862740Y-129249714D02*
X195007883Y-129213428D01*
X195007883Y-129213428D02*
X195298168Y-129213428D01*
X195298168Y-129213428D02*
X195370740Y-129249714D01*
X195370740Y-129249714D02*
X195407026Y-129286000D01*
X195407026Y-129286000D02*
X195443311Y-129358571D01*
X195443311Y-129358571D02*
X195443311Y-129503714D01*
X195443311Y-129503714D02*
X195407026Y-129576286D01*
X195407026Y-129576286D02*
X195370740Y-129612571D01*
X195370740Y-129612571D02*
X195298168Y-129648857D01*
X195298168Y-129648857D02*
X195116740Y-129648857D01*
X195116740Y-129648857D02*
X195044168Y-129612571D01*
X195044168Y-129612571D02*
X195007883Y-129576286D01*
X195007883Y-129576286D02*
X194971597Y-129503714D01*
X194971597Y-129503714D02*
X194971597Y-129358571D01*
X194971597Y-129358571D02*
X195007883Y-129286000D01*
X195007883Y-129286000D02*
X195044168Y-129249714D01*
X195044168Y-129249714D02*
X195116740Y-129213428D01*
X194681311Y-130338285D02*
X194681311Y-129975428D01*
X194681311Y-129975428D02*
X195044168Y-129939142D01*
X195044168Y-129939142D02*
X195007883Y-129975428D01*
X195007883Y-129975428D02*
X194971597Y-130048000D01*
X194971597Y-130048000D02*
X194971597Y-130229428D01*
X194971597Y-130229428D02*
X195007883Y-130302000D01*
X195007883Y-130302000D02*
X195044168Y-130338285D01*
X195044168Y-130338285D02*
X195116740Y-130374571D01*
X195116740Y-130374571D02*
X195298168Y-130374571D01*
X195298168Y-130374571D02*
X195370740Y-130338285D01*
X195370740Y-130338285D02*
X195407026Y-130302000D01*
X195407026Y-130302000D02*
X195443311Y-130229428D01*
X195443311Y-130229428D02*
X195443311Y-130048000D01*
X195443311Y-130048000D02*
X195407026Y-129975428D01*
X195407026Y-129975428D02*
X195370740Y-129939142D01*
X211171971Y-139889883D02*
X211244542Y-139853597D01*
X211244542Y-139853597D02*
X211317114Y-139781026D01*
X211317114Y-139781026D02*
X211425971Y-139672168D01*
X211425971Y-139672168D02*
X211498542Y-139635883D01*
X211498542Y-139635883D02*
X211571114Y-139635883D01*
X211534828Y-139817311D02*
X211607400Y-139781026D01*
X211607400Y-139781026D02*
X211679971Y-139708454D01*
X211679971Y-139708454D02*
X211716257Y-139563311D01*
X211716257Y-139563311D02*
X211716257Y-139309311D01*
X211716257Y-139309311D02*
X211679971Y-139164168D01*
X211679971Y-139164168D02*
X211607400Y-139091597D01*
X211607400Y-139091597D02*
X211534828Y-139055311D01*
X211534828Y-139055311D02*
X211389685Y-139055311D01*
X211389685Y-139055311D02*
X211317114Y-139091597D01*
X211317114Y-139091597D02*
X211244542Y-139164168D01*
X211244542Y-139164168D02*
X211208257Y-139309311D01*
X211208257Y-139309311D02*
X211208257Y-139563311D01*
X211208257Y-139563311D02*
X211244542Y-139708454D01*
X211244542Y-139708454D02*
X211317114Y-139781026D01*
X211317114Y-139781026D02*
X211389685Y-139817311D01*
X211389685Y-139817311D02*
X211534828Y-139817311D01*
X210917971Y-139127883D02*
X210881685Y-139091597D01*
X210881685Y-139091597D02*
X210809114Y-139055311D01*
X210809114Y-139055311D02*
X210627685Y-139055311D01*
X210627685Y-139055311D02*
X210555114Y-139091597D01*
X210555114Y-139091597D02*
X210518828Y-139127883D01*
X210518828Y-139127883D02*
X210482542Y-139200454D01*
X210482542Y-139200454D02*
X210482542Y-139273026D01*
X210482542Y-139273026D02*
X210518828Y-139381883D01*
X210518828Y-139381883D02*
X210954256Y-139817311D01*
X210954256Y-139817311D02*
X210482542Y-139817311D01*
X183547656Y-117897111D02*
X183801656Y-117534254D01*
X183983085Y-117897111D02*
X183983085Y-117135111D01*
X183983085Y-117135111D02*
X183692799Y-117135111D01*
X183692799Y-117135111D02*
X183620228Y-117171397D01*
X183620228Y-117171397D02*
X183583942Y-117207683D01*
X183583942Y-117207683D02*
X183547656Y-117280254D01*
X183547656Y-117280254D02*
X183547656Y-117389111D01*
X183547656Y-117389111D02*
X183583942Y-117461683D01*
X183583942Y-117461683D02*
X183620228Y-117497968D01*
X183620228Y-117497968D02*
X183692799Y-117534254D01*
X183692799Y-117534254D02*
X183983085Y-117534254D01*
X183293656Y-117135111D02*
X182785656Y-117135111D01*
X182785656Y-117135111D02*
X183112228Y-117897111D01*
X182567942Y-117135111D02*
X182096228Y-117135111D01*
X182096228Y-117135111D02*
X182350228Y-117425397D01*
X182350228Y-117425397D02*
X182241371Y-117425397D01*
X182241371Y-117425397D02*
X182168800Y-117461683D01*
X182168800Y-117461683D02*
X182132514Y-117497968D01*
X182132514Y-117497968D02*
X182096228Y-117570540D01*
X182096228Y-117570540D02*
X182096228Y-117751968D01*
X182096228Y-117751968D02*
X182132514Y-117824540D01*
X182132514Y-117824540D02*
X182168800Y-117860826D01*
X182168800Y-117860826D02*
X182241371Y-117897111D01*
X182241371Y-117897111D02*
X182459085Y-117897111D01*
X182459085Y-117897111D02*
X182531657Y-117860826D01*
X182531657Y-117860826D02*
X182567942Y-117824540D01*
X191421656Y-95799111D02*
X191675656Y-95436254D01*
X191857085Y-95799111D02*
X191857085Y-95037111D01*
X191857085Y-95037111D02*
X191566799Y-95037111D01*
X191566799Y-95037111D02*
X191494228Y-95073397D01*
X191494228Y-95073397D02*
X191457942Y-95109683D01*
X191457942Y-95109683D02*
X191421656Y-95182254D01*
X191421656Y-95182254D02*
X191421656Y-95291111D01*
X191421656Y-95291111D02*
X191457942Y-95363683D01*
X191457942Y-95363683D02*
X191494228Y-95399968D01*
X191494228Y-95399968D02*
X191566799Y-95436254D01*
X191566799Y-95436254D02*
X191857085Y-95436254D01*
X191167656Y-95037111D02*
X190659656Y-95037111D01*
X190659656Y-95037111D02*
X190986228Y-95799111D01*
X190224228Y-95037111D02*
X190151657Y-95037111D01*
X190151657Y-95037111D02*
X190079085Y-95073397D01*
X190079085Y-95073397D02*
X190042800Y-95109683D01*
X190042800Y-95109683D02*
X190006514Y-95182254D01*
X190006514Y-95182254D02*
X189970228Y-95327397D01*
X189970228Y-95327397D02*
X189970228Y-95508826D01*
X189970228Y-95508826D02*
X190006514Y-95653968D01*
X190006514Y-95653968D02*
X190042800Y-95726540D01*
X190042800Y-95726540D02*
X190079085Y-95762826D01*
X190079085Y-95762826D02*
X190151657Y-95799111D01*
X190151657Y-95799111D02*
X190224228Y-95799111D01*
X190224228Y-95799111D02*
X190296800Y-95762826D01*
X190296800Y-95762826D02*
X190333085Y-95726540D01*
X190333085Y-95726540D02*
X190369371Y-95653968D01*
X190369371Y-95653968D02*
X190405657Y-95508826D01*
X190405657Y-95508826D02*
X190405657Y-95327397D01*
X190405657Y-95327397D02*
X190369371Y-95182254D01*
X190369371Y-95182254D02*
X190333085Y-95109683D01*
X190333085Y-95109683D02*
X190296800Y-95073397D01*
X190296800Y-95073397D02*
X190224228Y-95037111D01*
X191421656Y-93767111D02*
X191675656Y-93404254D01*
X191857085Y-93767111D02*
X191857085Y-93005111D01*
X191857085Y-93005111D02*
X191566799Y-93005111D01*
X191566799Y-93005111D02*
X191494228Y-93041397D01*
X191494228Y-93041397D02*
X191457942Y-93077683D01*
X191457942Y-93077683D02*
X191421656Y-93150254D01*
X191421656Y-93150254D02*
X191421656Y-93259111D01*
X191421656Y-93259111D02*
X191457942Y-93331683D01*
X191457942Y-93331683D02*
X191494228Y-93367968D01*
X191494228Y-93367968D02*
X191566799Y-93404254D01*
X191566799Y-93404254D02*
X191857085Y-93404254D01*
X190768514Y-93005111D02*
X190913656Y-93005111D01*
X190913656Y-93005111D02*
X190986228Y-93041397D01*
X190986228Y-93041397D02*
X191022514Y-93077683D01*
X191022514Y-93077683D02*
X191095085Y-93186540D01*
X191095085Y-93186540D02*
X191131371Y-93331683D01*
X191131371Y-93331683D02*
X191131371Y-93621968D01*
X191131371Y-93621968D02*
X191095085Y-93694540D01*
X191095085Y-93694540D02*
X191058799Y-93730826D01*
X191058799Y-93730826D02*
X190986228Y-93767111D01*
X190986228Y-93767111D02*
X190841085Y-93767111D01*
X190841085Y-93767111D02*
X190768514Y-93730826D01*
X190768514Y-93730826D02*
X190732228Y-93694540D01*
X190732228Y-93694540D02*
X190695942Y-93621968D01*
X190695942Y-93621968D02*
X190695942Y-93440540D01*
X190695942Y-93440540D02*
X190732228Y-93367968D01*
X190732228Y-93367968D02*
X190768514Y-93331683D01*
X190768514Y-93331683D02*
X190841085Y-93295397D01*
X190841085Y-93295397D02*
X190986228Y-93295397D01*
X190986228Y-93295397D02*
X191058799Y-93331683D01*
X191058799Y-93331683D02*
X191095085Y-93367968D01*
X191095085Y-93367968D02*
X191131371Y-93440540D01*
X190333085Y-93767111D02*
X190187942Y-93767111D01*
X190187942Y-93767111D02*
X190115371Y-93730826D01*
X190115371Y-93730826D02*
X190079085Y-93694540D01*
X190079085Y-93694540D02*
X190006514Y-93585683D01*
X190006514Y-93585683D02*
X189970228Y-93440540D01*
X189970228Y-93440540D02*
X189970228Y-93150254D01*
X189970228Y-93150254D02*
X190006514Y-93077683D01*
X190006514Y-93077683D02*
X190042800Y-93041397D01*
X190042800Y-93041397D02*
X190115371Y-93005111D01*
X190115371Y-93005111D02*
X190260514Y-93005111D01*
X190260514Y-93005111D02*
X190333085Y-93041397D01*
X190333085Y-93041397D02*
X190369371Y-93077683D01*
X190369371Y-93077683D02*
X190405657Y-93150254D01*
X190405657Y-93150254D02*
X190405657Y-93331683D01*
X190405657Y-93331683D02*
X190369371Y-93404254D01*
X190369371Y-93404254D02*
X190333085Y-93440540D01*
X190333085Y-93440540D02*
X190260514Y-93476826D01*
X190260514Y-93476826D02*
X190115371Y-93476826D01*
X190115371Y-93476826D02*
X190042800Y-93440540D01*
X190042800Y-93440540D02*
X190006514Y-93404254D01*
X190006514Y-93404254D02*
X189970228Y-93331683D01*
X215729456Y-98342740D02*
X215765742Y-98379026D01*
X215765742Y-98379026D02*
X215874599Y-98415311D01*
X215874599Y-98415311D02*
X215947171Y-98415311D01*
X215947171Y-98415311D02*
X216056028Y-98379026D01*
X216056028Y-98379026D02*
X216128599Y-98306454D01*
X216128599Y-98306454D02*
X216164885Y-98233883D01*
X216164885Y-98233883D02*
X216201171Y-98088740D01*
X216201171Y-98088740D02*
X216201171Y-97979883D01*
X216201171Y-97979883D02*
X216164885Y-97834740D01*
X216164885Y-97834740D02*
X216128599Y-97762168D01*
X216128599Y-97762168D02*
X216056028Y-97689597D01*
X216056028Y-97689597D02*
X215947171Y-97653311D01*
X215947171Y-97653311D02*
X215874599Y-97653311D01*
X215874599Y-97653311D02*
X215765742Y-97689597D01*
X215765742Y-97689597D02*
X215729456Y-97725883D01*
X215439171Y-97725883D02*
X215402885Y-97689597D01*
X215402885Y-97689597D02*
X215330314Y-97653311D01*
X215330314Y-97653311D02*
X215148885Y-97653311D01*
X215148885Y-97653311D02*
X215076314Y-97689597D01*
X215076314Y-97689597D02*
X215040028Y-97725883D01*
X215040028Y-97725883D02*
X215003742Y-97798454D01*
X215003742Y-97798454D02*
X215003742Y-97871026D01*
X215003742Y-97871026D02*
X215040028Y-97979883D01*
X215040028Y-97979883D02*
X215475456Y-98415311D01*
X215475456Y-98415311D02*
X215003742Y-98415311D01*
X214532028Y-97653311D02*
X214459457Y-97653311D01*
X214459457Y-97653311D02*
X214386885Y-97689597D01*
X214386885Y-97689597D02*
X214350600Y-97725883D01*
X214350600Y-97725883D02*
X214314314Y-97798454D01*
X214314314Y-97798454D02*
X214278028Y-97943597D01*
X214278028Y-97943597D02*
X214278028Y-98125026D01*
X214278028Y-98125026D02*
X214314314Y-98270168D01*
X214314314Y-98270168D02*
X214350600Y-98342740D01*
X214350600Y-98342740D02*
X214386885Y-98379026D01*
X214386885Y-98379026D02*
X214459457Y-98415311D01*
X214459457Y-98415311D02*
X214532028Y-98415311D01*
X214532028Y-98415311D02*
X214604600Y-98379026D01*
X214604600Y-98379026D02*
X214640885Y-98342740D01*
X214640885Y-98342740D02*
X214677171Y-98270168D01*
X214677171Y-98270168D02*
X214713457Y-98125026D01*
X214713457Y-98125026D02*
X214713457Y-97943597D01*
X214713457Y-97943597D02*
X214677171Y-97798454D01*
X214677171Y-97798454D02*
X214640885Y-97725883D01*
X214640885Y-97725883D02*
X214604600Y-97689597D01*
X214604600Y-97689597D02*
X214532028Y-97653311D01*
X225018599Y-153384540D02*
X225054885Y-153420826D01*
X225054885Y-153420826D02*
X225163742Y-153457111D01*
X225163742Y-153457111D02*
X225236314Y-153457111D01*
X225236314Y-153457111D02*
X225345171Y-153420826D01*
X225345171Y-153420826D02*
X225417742Y-153348254D01*
X225417742Y-153348254D02*
X225454028Y-153275683D01*
X225454028Y-153275683D02*
X225490314Y-153130540D01*
X225490314Y-153130540D02*
X225490314Y-153021683D01*
X225490314Y-153021683D02*
X225454028Y-152876540D01*
X225454028Y-152876540D02*
X225417742Y-152803968D01*
X225417742Y-152803968D02*
X225345171Y-152731397D01*
X225345171Y-152731397D02*
X225236314Y-152695111D01*
X225236314Y-152695111D02*
X225163742Y-152695111D01*
X225163742Y-152695111D02*
X225054885Y-152731397D01*
X225054885Y-152731397D02*
X225018599Y-152767683D01*
X224655742Y-153457111D02*
X224510599Y-153457111D01*
X224510599Y-153457111D02*
X224438028Y-153420826D01*
X224438028Y-153420826D02*
X224401742Y-153384540D01*
X224401742Y-153384540D02*
X224329171Y-153275683D01*
X224329171Y-153275683D02*
X224292885Y-153130540D01*
X224292885Y-153130540D02*
X224292885Y-152840254D01*
X224292885Y-152840254D02*
X224329171Y-152767683D01*
X224329171Y-152767683D02*
X224365457Y-152731397D01*
X224365457Y-152731397D02*
X224438028Y-152695111D01*
X224438028Y-152695111D02*
X224583171Y-152695111D01*
X224583171Y-152695111D02*
X224655742Y-152731397D01*
X224655742Y-152731397D02*
X224692028Y-152767683D01*
X224692028Y-152767683D02*
X224728314Y-152840254D01*
X224728314Y-152840254D02*
X224728314Y-153021683D01*
X224728314Y-153021683D02*
X224692028Y-153094254D01*
X224692028Y-153094254D02*
X224655742Y-153130540D01*
X224655742Y-153130540D02*
X224583171Y-153166826D01*
X224583171Y-153166826D02*
X224438028Y-153166826D01*
X224438028Y-153166826D02*
X224365457Y-153130540D01*
X224365457Y-153130540D02*
X224329171Y-153094254D01*
X224329171Y-153094254D02*
X224292885Y-153021683D01*
X183547656Y-151933111D02*
X183801656Y-151570254D01*
X183983085Y-151933111D02*
X183983085Y-151171111D01*
X183983085Y-151171111D02*
X183692799Y-151171111D01*
X183692799Y-151171111D02*
X183620228Y-151207397D01*
X183620228Y-151207397D02*
X183583942Y-151243683D01*
X183583942Y-151243683D02*
X183547656Y-151316254D01*
X183547656Y-151316254D02*
X183547656Y-151425111D01*
X183547656Y-151425111D02*
X183583942Y-151497683D01*
X183583942Y-151497683D02*
X183620228Y-151533968D01*
X183620228Y-151533968D02*
X183692799Y-151570254D01*
X183692799Y-151570254D02*
X183983085Y-151570254D01*
X183112228Y-151497683D02*
X183184799Y-151461397D01*
X183184799Y-151461397D02*
X183221085Y-151425111D01*
X183221085Y-151425111D02*
X183257371Y-151352540D01*
X183257371Y-151352540D02*
X183257371Y-151316254D01*
X183257371Y-151316254D02*
X183221085Y-151243683D01*
X183221085Y-151243683D02*
X183184799Y-151207397D01*
X183184799Y-151207397D02*
X183112228Y-151171111D01*
X183112228Y-151171111D02*
X182967085Y-151171111D01*
X182967085Y-151171111D02*
X182894514Y-151207397D01*
X182894514Y-151207397D02*
X182858228Y-151243683D01*
X182858228Y-151243683D02*
X182821942Y-151316254D01*
X182821942Y-151316254D02*
X182821942Y-151352540D01*
X182821942Y-151352540D02*
X182858228Y-151425111D01*
X182858228Y-151425111D02*
X182894514Y-151461397D01*
X182894514Y-151461397D02*
X182967085Y-151497683D01*
X182967085Y-151497683D02*
X183112228Y-151497683D01*
X183112228Y-151497683D02*
X183184799Y-151533968D01*
X183184799Y-151533968D02*
X183221085Y-151570254D01*
X183221085Y-151570254D02*
X183257371Y-151642826D01*
X183257371Y-151642826D02*
X183257371Y-151787968D01*
X183257371Y-151787968D02*
X183221085Y-151860540D01*
X183221085Y-151860540D02*
X183184799Y-151896826D01*
X183184799Y-151896826D02*
X183112228Y-151933111D01*
X183112228Y-151933111D02*
X182967085Y-151933111D01*
X182967085Y-151933111D02*
X182894514Y-151896826D01*
X182894514Y-151896826D02*
X182858228Y-151860540D01*
X182858228Y-151860540D02*
X182821942Y-151787968D01*
X182821942Y-151787968D02*
X182821942Y-151642826D01*
X182821942Y-151642826D02*
X182858228Y-151570254D01*
X182858228Y-151570254D02*
X182894514Y-151533968D01*
X182894514Y-151533968D02*
X182967085Y-151497683D01*
X182531657Y-151243683D02*
X182495371Y-151207397D01*
X182495371Y-151207397D02*
X182422800Y-151171111D01*
X182422800Y-151171111D02*
X182241371Y-151171111D01*
X182241371Y-151171111D02*
X182168800Y-151207397D01*
X182168800Y-151207397D02*
X182132514Y-151243683D01*
X182132514Y-151243683D02*
X182096228Y-151316254D01*
X182096228Y-151316254D02*
X182096228Y-151388826D01*
X182096228Y-151388826D02*
X182132514Y-151497683D01*
X182132514Y-151497683D02*
X182567942Y-151933111D01*
X182567942Y-151933111D02*
X182096228Y-151933111D01*
X217922556Y-112947740D02*
X217958842Y-112984026D01*
X217958842Y-112984026D02*
X218067699Y-113020311D01*
X218067699Y-113020311D02*
X218140271Y-113020311D01*
X218140271Y-113020311D02*
X218249128Y-112984026D01*
X218249128Y-112984026D02*
X218321699Y-112911454D01*
X218321699Y-112911454D02*
X218357985Y-112838883D01*
X218357985Y-112838883D02*
X218394271Y-112693740D01*
X218394271Y-112693740D02*
X218394271Y-112584883D01*
X218394271Y-112584883D02*
X218357985Y-112439740D01*
X218357985Y-112439740D02*
X218321699Y-112367168D01*
X218321699Y-112367168D02*
X218249128Y-112294597D01*
X218249128Y-112294597D02*
X218140271Y-112258311D01*
X218140271Y-112258311D02*
X218067699Y-112258311D01*
X218067699Y-112258311D02*
X217958842Y-112294597D01*
X217958842Y-112294597D02*
X217922556Y-112330883D01*
X217196842Y-113020311D02*
X217632271Y-113020311D01*
X217414556Y-113020311D02*
X217414556Y-112258311D01*
X217414556Y-112258311D02*
X217487128Y-112367168D01*
X217487128Y-112367168D02*
X217559699Y-112439740D01*
X217559699Y-112439740D02*
X217632271Y-112476026D01*
X216761414Y-112584883D02*
X216833985Y-112548597D01*
X216833985Y-112548597D02*
X216870271Y-112512311D01*
X216870271Y-112512311D02*
X216906557Y-112439740D01*
X216906557Y-112439740D02*
X216906557Y-112403454D01*
X216906557Y-112403454D02*
X216870271Y-112330883D01*
X216870271Y-112330883D02*
X216833985Y-112294597D01*
X216833985Y-112294597D02*
X216761414Y-112258311D01*
X216761414Y-112258311D02*
X216616271Y-112258311D01*
X216616271Y-112258311D02*
X216543700Y-112294597D01*
X216543700Y-112294597D02*
X216507414Y-112330883D01*
X216507414Y-112330883D02*
X216471128Y-112403454D01*
X216471128Y-112403454D02*
X216471128Y-112439740D01*
X216471128Y-112439740D02*
X216507414Y-112512311D01*
X216507414Y-112512311D02*
X216543700Y-112548597D01*
X216543700Y-112548597D02*
X216616271Y-112584883D01*
X216616271Y-112584883D02*
X216761414Y-112584883D01*
X216761414Y-112584883D02*
X216833985Y-112621168D01*
X216833985Y-112621168D02*
X216870271Y-112657454D01*
X216870271Y-112657454D02*
X216906557Y-112730026D01*
X216906557Y-112730026D02*
X216906557Y-112875168D01*
X216906557Y-112875168D02*
X216870271Y-112947740D01*
X216870271Y-112947740D02*
X216833985Y-112984026D01*
X216833985Y-112984026D02*
X216761414Y-113020311D01*
X216761414Y-113020311D02*
X216616271Y-113020311D01*
X216616271Y-113020311D02*
X216543700Y-112984026D01*
X216543700Y-112984026D02*
X216507414Y-112947740D01*
X216507414Y-112947740D02*
X216471128Y-112875168D01*
X216471128Y-112875168D02*
X216471128Y-112730026D01*
X216471128Y-112730026D02*
X216507414Y-112657454D01*
X216507414Y-112657454D02*
X216543700Y-112621168D01*
X216543700Y-112621168D02*
X216616271Y-112584883D01*
X202050940Y-173220743D02*
X202087226Y-173184457D01*
X202087226Y-173184457D02*
X202123511Y-173075600D01*
X202123511Y-173075600D02*
X202123511Y-173003028D01*
X202123511Y-173003028D02*
X202087226Y-172894171D01*
X202087226Y-172894171D02*
X202014654Y-172821600D01*
X202014654Y-172821600D02*
X201942083Y-172785314D01*
X201942083Y-172785314D02*
X201796940Y-172749028D01*
X201796940Y-172749028D02*
X201688083Y-172749028D01*
X201688083Y-172749028D02*
X201542940Y-172785314D01*
X201542940Y-172785314D02*
X201470368Y-172821600D01*
X201470368Y-172821600D02*
X201397797Y-172894171D01*
X201397797Y-172894171D02*
X201361511Y-173003028D01*
X201361511Y-173003028D02*
X201361511Y-173075600D01*
X201361511Y-173075600D02*
X201397797Y-173184457D01*
X201397797Y-173184457D02*
X201434083Y-173220743D01*
X201434083Y-173511028D02*
X201397797Y-173547314D01*
X201397797Y-173547314D02*
X201361511Y-173619886D01*
X201361511Y-173619886D02*
X201361511Y-173801314D01*
X201361511Y-173801314D02*
X201397797Y-173873886D01*
X201397797Y-173873886D02*
X201434083Y-173910171D01*
X201434083Y-173910171D02*
X201506654Y-173946457D01*
X201506654Y-173946457D02*
X201579226Y-173946457D01*
X201579226Y-173946457D02*
X201688083Y-173910171D01*
X201688083Y-173910171D02*
X202123511Y-173474743D01*
X202123511Y-173474743D02*
X202123511Y-173946457D01*
X201361511Y-174200457D02*
X201361511Y-174708457D01*
X201361511Y-174708457D02*
X202123511Y-174381885D01*
X218117056Y-92348340D02*
X218153342Y-92384626D01*
X218153342Y-92384626D02*
X218262199Y-92420911D01*
X218262199Y-92420911D02*
X218334771Y-92420911D01*
X218334771Y-92420911D02*
X218443628Y-92384626D01*
X218443628Y-92384626D02*
X218516199Y-92312054D01*
X218516199Y-92312054D02*
X218552485Y-92239483D01*
X218552485Y-92239483D02*
X218588771Y-92094340D01*
X218588771Y-92094340D02*
X218588771Y-91985483D01*
X218588771Y-91985483D02*
X218552485Y-91840340D01*
X218552485Y-91840340D02*
X218516199Y-91767768D01*
X218516199Y-91767768D02*
X218443628Y-91695197D01*
X218443628Y-91695197D02*
X218334771Y-91658911D01*
X218334771Y-91658911D02*
X218262199Y-91658911D01*
X218262199Y-91658911D02*
X218153342Y-91695197D01*
X218153342Y-91695197D02*
X218117056Y-91731483D01*
X217391342Y-92420911D02*
X217826771Y-92420911D01*
X217609056Y-92420911D02*
X217609056Y-91658911D01*
X217609056Y-91658911D02*
X217681628Y-91767768D01*
X217681628Y-91767768D02*
X217754199Y-91840340D01*
X217754199Y-91840340D02*
X217826771Y-91876626D01*
X216738200Y-91658911D02*
X216883342Y-91658911D01*
X216883342Y-91658911D02*
X216955914Y-91695197D01*
X216955914Y-91695197D02*
X216992200Y-91731483D01*
X216992200Y-91731483D02*
X217064771Y-91840340D01*
X217064771Y-91840340D02*
X217101057Y-91985483D01*
X217101057Y-91985483D02*
X217101057Y-92275768D01*
X217101057Y-92275768D02*
X217064771Y-92348340D01*
X217064771Y-92348340D02*
X217028485Y-92384626D01*
X217028485Y-92384626D02*
X216955914Y-92420911D01*
X216955914Y-92420911D02*
X216810771Y-92420911D01*
X216810771Y-92420911D02*
X216738200Y-92384626D01*
X216738200Y-92384626D02*
X216701914Y-92348340D01*
X216701914Y-92348340D02*
X216665628Y-92275768D01*
X216665628Y-92275768D02*
X216665628Y-92094340D01*
X216665628Y-92094340D02*
X216701914Y-92021768D01*
X216701914Y-92021768D02*
X216738200Y-91985483D01*
X216738200Y-91985483D02*
X216810771Y-91949197D01*
X216810771Y-91949197D02*
X216955914Y-91949197D01*
X216955914Y-91949197D02*
X217028485Y-91985483D01*
X217028485Y-91985483D02*
X217064771Y-92021768D01*
X217064771Y-92021768D02*
X217101057Y-92094340D01*
X196611711Y-173220743D02*
X196248854Y-172966743D01*
X196611711Y-172785314D02*
X195849711Y-172785314D01*
X195849711Y-172785314D02*
X195849711Y-173075600D01*
X195849711Y-173075600D02*
X195885997Y-173148171D01*
X195885997Y-173148171D02*
X195922283Y-173184457D01*
X195922283Y-173184457D02*
X195994854Y-173220743D01*
X195994854Y-173220743D02*
X196103711Y-173220743D01*
X196103711Y-173220743D02*
X196176283Y-173184457D01*
X196176283Y-173184457D02*
X196212568Y-173148171D01*
X196212568Y-173148171D02*
X196248854Y-173075600D01*
X196248854Y-173075600D02*
X196248854Y-172785314D01*
X195849711Y-173873886D02*
X195849711Y-173728743D01*
X195849711Y-173728743D02*
X195885997Y-173656171D01*
X195885997Y-173656171D02*
X195922283Y-173619886D01*
X195922283Y-173619886D02*
X196031140Y-173547314D01*
X196031140Y-173547314D02*
X196176283Y-173511028D01*
X196176283Y-173511028D02*
X196466568Y-173511028D01*
X196466568Y-173511028D02*
X196539140Y-173547314D01*
X196539140Y-173547314D02*
X196575426Y-173583600D01*
X196575426Y-173583600D02*
X196611711Y-173656171D01*
X196611711Y-173656171D02*
X196611711Y-173801314D01*
X196611711Y-173801314D02*
X196575426Y-173873886D01*
X196575426Y-173873886D02*
X196539140Y-173910171D01*
X196539140Y-173910171D02*
X196466568Y-173946457D01*
X196466568Y-173946457D02*
X196285140Y-173946457D01*
X196285140Y-173946457D02*
X196212568Y-173910171D01*
X196212568Y-173910171D02*
X196176283Y-173873886D01*
X196176283Y-173873886D02*
X196139997Y-173801314D01*
X196139997Y-173801314D02*
X196139997Y-173656171D01*
X196139997Y-173656171D02*
X196176283Y-173583600D01*
X196176283Y-173583600D02*
X196212568Y-173547314D01*
X196212568Y-173547314D02*
X196285140Y-173511028D01*
X195849711Y-174599600D02*
X195849711Y-174454457D01*
X195849711Y-174454457D02*
X195885997Y-174381885D01*
X195885997Y-174381885D02*
X195922283Y-174345600D01*
X195922283Y-174345600D02*
X196031140Y-174273028D01*
X196031140Y-174273028D02*
X196176283Y-174236742D01*
X196176283Y-174236742D02*
X196466568Y-174236742D01*
X196466568Y-174236742D02*
X196539140Y-174273028D01*
X196539140Y-174273028D02*
X196575426Y-174309314D01*
X196575426Y-174309314D02*
X196611711Y-174381885D01*
X196611711Y-174381885D02*
X196611711Y-174527028D01*
X196611711Y-174527028D02*
X196575426Y-174599600D01*
X196575426Y-174599600D02*
X196539140Y-174635885D01*
X196539140Y-174635885D02*
X196466568Y-174672171D01*
X196466568Y-174672171D02*
X196285140Y-174672171D01*
X196285140Y-174672171D02*
X196212568Y-174635885D01*
X196212568Y-174635885D02*
X196176283Y-174599600D01*
X196176283Y-174599600D02*
X196139997Y-174527028D01*
X196139997Y-174527028D02*
X196139997Y-174381885D01*
X196139997Y-174381885D02*
X196176283Y-174309314D01*
X196176283Y-174309314D02*
X196212568Y-174273028D01*
X196212568Y-174273028D02*
X196285140Y-174236742D01*
X209201656Y-146141911D02*
X209455656Y-145779054D01*
X209637085Y-146141911D02*
X209637085Y-145379911D01*
X209637085Y-145379911D02*
X209346799Y-145379911D01*
X209346799Y-145379911D02*
X209274228Y-145416197D01*
X209274228Y-145416197D02*
X209237942Y-145452483D01*
X209237942Y-145452483D02*
X209201656Y-145525054D01*
X209201656Y-145525054D02*
X209201656Y-145633911D01*
X209201656Y-145633911D02*
X209237942Y-145706483D01*
X209237942Y-145706483D02*
X209274228Y-145742768D01*
X209274228Y-145742768D02*
X209346799Y-145779054D01*
X209346799Y-145779054D02*
X209637085Y-145779054D01*
X208512228Y-145379911D02*
X208875085Y-145379911D01*
X208875085Y-145379911D02*
X208911371Y-145742768D01*
X208911371Y-145742768D02*
X208875085Y-145706483D01*
X208875085Y-145706483D02*
X208802514Y-145670197D01*
X208802514Y-145670197D02*
X208621085Y-145670197D01*
X208621085Y-145670197D02*
X208548514Y-145706483D01*
X208548514Y-145706483D02*
X208512228Y-145742768D01*
X208512228Y-145742768D02*
X208475942Y-145815340D01*
X208475942Y-145815340D02*
X208475942Y-145996768D01*
X208475942Y-145996768D02*
X208512228Y-146069340D01*
X208512228Y-146069340D02*
X208548514Y-146105626D01*
X208548514Y-146105626D02*
X208621085Y-146141911D01*
X208621085Y-146141911D02*
X208802514Y-146141911D01*
X208802514Y-146141911D02*
X208875085Y-146105626D01*
X208875085Y-146105626D02*
X208911371Y-146069340D01*
X207822800Y-145633911D02*
X207822800Y-146141911D01*
X208004228Y-145343626D02*
X208185657Y-145887911D01*
X208185657Y-145887911D02*
X207713942Y-145887911D01*
X209332285Y-153113911D02*
X209332285Y-152351911D01*
X209332285Y-152351911D02*
X209150856Y-152351911D01*
X209150856Y-152351911D02*
X209041999Y-152388197D01*
X209041999Y-152388197D02*
X208969428Y-152460768D01*
X208969428Y-152460768D02*
X208933142Y-152533340D01*
X208933142Y-152533340D02*
X208896856Y-152678483D01*
X208896856Y-152678483D02*
X208896856Y-152787340D01*
X208896856Y-152787340D02*
X208933142Y-152932483D01*
X208933142Y-152932483D02*
X208969428Y-153005054D01*
X208969428Y-153005054D02*
X209041999Y-153077626D01*
X209041999Y-153077626D02*
X209150856Y-153113911D01*
X209150856Y-153113911D02*
X209332285Y-153113911D01*
X208606571Y-152424483D02*
X208570285Y-152388197D01*
X208570285Y-152388197D02*
X208497714Y-152351911D01*
X208497714Y-152351911D02*
X208316285Y-152351911D01*
X208316285Y-152351911D02*
X208243714Y-152388197D01*
X208243714Y-152388197D02*
X208207428Y-152424483D01*
X208207428Y-152424483D02*
X208171142Y-152497054D01*
X208171142Y-152497054D02*
X208171142Y-152569626D01*
X208171142Y-152569626D02*
X208207428Y-152678483D01*
X208207428Y-152678483D02*
X208642856Y-153113911D01*
X208642856Y-153113911D02*
X208171142Y-153113911D01*
X207518000Y-152605911D02*
X207518000Y-153113911D01*
X207699428Y-152315626D02*
X207880857Y-152859911D01*
X207880857Y-152859911D02*
X207409142Y-152859911D01*
X215729456Y-106165940D02*
X215765742Y-106202226D01*
X215765742Y-106202226D02*
X215874599Y-106238511D01*
X215874599Y-106238511D02*
X215947171Y-106238511D01*
X215947171Y-106238511D02*
X216056028Y-106202226D01*
X216056028Y-106202226D02*
X216128599Y-106129654D01*
X216128599Y-106129654D02*
X216164885Y-106057083D01*
X216164885Y-106057083D02*
X216201171Y-105911940D01*
X216201171Y-105911940D02*
X216201171Y-105803083D01*
X216201171Y-105803083D02*
X216164885Y-105657940D01*
X216164885Y-105657940D02*
X216128599Y-105585368D01*
X216128599Y-105585368D02*
X216056028Y-105512797D01*
X216056028Y-105512797D02*
X215947171Y-105476511D01*
X215947171Y-105476511D02*
X215874599Y-105476511D01*
X215874599Y-105476511D02*
X215765742Y-105512797D01*
X215765742Y-105512797D02*
X215729456Y-105549083D01*
X215439171Y-105549083D02*
X215402885Y-105512797D01*
X215402885Y-105512797D02*
X215330314Y-105476511D01*
X215330314Y-105476511D02*
X215148885Y-105476511D01*
X215148885Y-105476511D02*
X215076314Y-105512797D01*
X215076314Y-105512797D02*
X215040028Y-105549083D01*
X215040028Y-105549083D02*
X215003742Y-105621654D01*
X215003742Y-105621654D02*
X215003742Y-105694226D01*
X215003742Y-105694226D02*
X215040028Y-105803083D01*
X215040028Y-105803083D02*
X215475456Y-106238511D01*
X215475456Y-106238511D02*
X215003742Y-106238511D01*
X214278028Y-106238511D02*
X214713457Y-106238511D01*
X214495742Y-106238511D02*
X214495742Y-105476511D01*
X214495742Y-105476511D02*
X214568314Y-105585368D01*
X214568314Y-105585368D02*
X214640885Y-105657940D01*
X214640885Y-105657940D02*
X214713457Y-105694226D01*
X215682285Y-152999911D02*
X215682285Y-152237911D01*
X215682285Y-152237911D02*
X215500856Y-152237911D01*
X215500856Y-152237911D02*
X215391999Y-152274197D01*
X215391999Y-152274197D02*
X215319428Y-152346768D01*
X215319428Y-152346768D02*
X215283142Y-152419340D01*
X215283142Y-152419340D02*
X215246856Y-152564483D01*
X215246856Y-152564483D02*
X215246856Y-152673340D01*
X215246856Y-152673340D02*
X215283142Y-152818483D01*
X215283142Y-152818483D02*
X215319428Y-152891054D01*
X215319428Y-152891054D02*
X215391999Y-152963626D01*
X215391999Y-152963626D02*
X215500856Y-152999911D01*
X215500856Y-152999911D02*
X215682285Y-152999911D01*
X214956571Y-152310483D02*
X214920285Y-152274197D01*
X214920285Y-152274197D02*
X214847714Y-152237911D01*
X214847714Y-152237911D02*
X214666285Y-152237911D01*
X214666285Y-152237911D02*
X214593714Y-152274197D01*
X214593714Y-152274197D02*
X214557428Y-152310483D01*
X214557428Y-152310483D02*
X214521142Y-152383054D01*
X214521142Y-152383054D02*
X214521142Y-152455626D01*
X214521142Y-152455626D02*
X214557428Y-152564483D01*
X214557428Y-152564483D02*
X214992856Y-152999911D01*
X214992856Y-152999911D02*
X214521142Y-152999911D01*
X214267142Y-152237911D02*
X213795428Y-152237911D01*
X213795428Y-152237911D02*
X214049428Y-152528197D01*
X214049428Y-152528197D02*
X213940571Y-152528197D01*
X213940571Y-152528197D02*
X213868000Y-152564483D01*
X213868000Y-152564483D02*
X213831714Y-152600768D01*
X213831714Y-152600768D02*
X213795428Y-152673340D01*
X213795428Y-152673340D02*
X213795428Y-152854768D01*
X213795428Y-152854768D02*
X213831714Y-152927340D01*
X213831714Y-152927340D02*
X213868000Y-152963626D01*
X213868000Y-152963626D02*
X213940571Y-152999911D01*
X213940571Y-152999911D02*
X214158285Y-152999911D01*
X214158285Y-152999911D02*
X214230857Y-152963626D01*
X214230857Y-152963626D02*
X214267142Y-152927340D01*
X202529911Y-128923143D02*
X202167054Y-128669143D01*
X202529911Y-128487714D02*
X201767911Y-128487714D01*
X201767911Y-128487714D02*
X201767911Y-128778000D01*
X201767911Y-128778000D02*
X201804197Y-128850571D01*
X201804197Y-128850571D02*
X201840483Y-128886857D01*
X201840483Y-128886857D02*
X201913054Y-128923143D01*
X201913054Y-128923143D02*
X202021911Y-128923143D01*
X202021911Y-128923143D02*
X202094483Y-128886857D01*
X202094483Y-128886857D02*
X202130768Y-128850571D01*
X202130768Y-128850571D02*
X202167054Y-128778000D01*
X202167054Y-128778000D02*
X202167054Y-128487714D01*
X201767911Y-129576286D02*
X201767911Y-129431143D01*
X201767911Y-129431143D02*
X201804197Y-129358571D01*
X201804197Y-129358571D02*
X201840483Y-129322286D01*
X201840483Y-129322286D02*
X201949340Y-129249714D01*
X201949340Y-129249714D02*
X202094483Y-129213428D01*
X202094483Y-129213428D02*
X202384768Y-129213428D01*
X202384768Y-129213428D02*
X202457340Y-129249714D01*
X202457340Y-129249714D02*
X202493626Y-129286000D01*
X202493626Y-129286000D02*
X202529911Y-129358571D01*
X202529911Y-129358571D02*
X202529911Y-129503714D01*
X202529911Y-129503714D02*
X202493626Y-129576286D01*
X202493626Y-129576286D02*
X202457340Y-129612571D01*
X202457340Y-129612571D02*
X202384768Y-129648857D01*
X202384768Y-129648857D02*
X202203340Y-129648857D01*
X202203340Y-129648857D02*
X202130768Y-129612571D01*
X202130768Y-129612571D02*
X202094483Y-129576286D01*
X202094483Y-129576286D02*
X202058197Y-129503714D01*
X202058197Y-129503714D02*
X202058197Y-129358571D01*
X202058197Y-129358571D02*
X202094483Y-129286000D01*
X202094483Y-129286000D02*
X202130768Y-129249714D01*
X202130768Y-129249714D02*
X202203340Y-129213428D01*
X201840483Y-129939142D02*
X201804197Y-129975428D01*
X201804197Y-129975428D02*
X201767911Y-130048000D01*
X201767911Y-130048000D02*
X201767911Y-130229428D01*
X201767911Y-130229428D02*
X201804197Y-130302000D01*
X201804197Y-130302000D02*
X201840483Y-130338285D01*
X201840483Y-130338285D02*
X201913054Y-130374571D01*
X201913054Y-130374571D02*
X201985626Y-130374571D01*
X201985626Y-130374571D02*
X202094483Y-130338285D01*
X202094483Y-130338285D02*
X202529911Y-129902857D01*
X202529911Y-129902857D02*
X202529911Y-130374571D01*
X199117856Y-127599911D02*
X199371856Y-127237054D01*
X199553285Y-127599911D02*
X199553285Y-126837911D01*
X199553285Y-126837911D02*
X199262999Y-126837911D01*
X199262999Y-126837911D02*
X199190428Y-126874197D01*
X199190428Y-126874197D02*
X199154142Y-126910483D01*
X199154142Y-126910483D02*
X199117856Y-126983054D01*
X199117856Y-126983054D02*
X199117856Y-127091911D01*
X199117856Y-127091911D02*
X199154142Y-127164483D01*
X199154142Y-127164483D02*
X199190428Y-127200768D01*
X199190428Y-127200768D02*
X199262999Y-127237054D01*
X199262999Y-127237054D02*
X199553285Y-127237054D01*
X198464714Y-126837911D02*
X198609856Y-126837911D01*
X198609856Y-126837911D02*
X198682428Y-126874197D01*
X198682428Y-126874197D02*
X198718714Y-126910483D01*
X198718714Y-126910483D02*
X198791285Y-127019340D01*
X198791285Y-127019340D02*
X198827571Y-127164483D01*
X198827571Y-127164483D02*
X198827571Y-127454768D01*
X198827571Y-127454768D02*
X198791285Y-127527340D01*
X198791285Y-127527340D02*
X198754999Y-127563626D01*
X198754999Y-127563626D02*
X198682428Y-127599911D01*
X198682428Y-127599911D02*
X198537285Y-127599911D01*
X198537285Y-127599911D02*
X198464714Y-127563626D01*
X198464714Y-127563626D02*
X198428428Y-127527340D01*
X198428428Y-127527340D02*
X198392142Y-127454768D01*
X198392142Y-127454768D02*
X198392142Y-127273340D01*
X198392142Y-127273340D02*
X198428428Y-127200768D01*
X198428428Y-127200768D02*
X198464714Y-127164483D01*
X198464714Y-127164483D02*
X198537285Y-127128197D01*
X198537285Y-127128197D02*
X198682428Y-127128197D01*
X198682428Y-127128197D02*
X198754999Y-127164483D01*
X198754999Y-127164483D02*
X198791285Y-127200768D01*
X198791285Y-127200768D02*
X198827571Y-127273340D01*
X198138142Y-126837911D02*
X197666428Y-126837911D01*
X197666428Y-126837911D02*
X197920428Y-127128197D01*
X197920428Y-127128197D02*
X197811571Y-127128197D01*
X197811571Y-127128197D02*
X197739000Y-127164483D01*
X197739000Y-127164483D02*
X197702714Y-127200768D01*
X197702714Y-127200768D02*
X197666428Y-127273340D01*
X197666428Y-127273340D02*
X197666428Y-127454768D01*
X197666428Y-127454768D02*
X197702714Y-127527340D01*
X197702714Y-127527340D02*
X197739000Y-127563626D01*
X197739000Y-127563626D02*
X197811571Y-127599911D01*
X197811571Y-127599911D02*
X198029285Y-127599911D01*
X198029285Y-127599911D02*
X198101857Y-127563626D01*
X198101857Y-127563626D02*
X198138142Y-127527340D01*
X197949456Y-143503940D02*
X197985742Y-143540226D01*
X197985742Y-143540226D02*
X198094599Y-143576511D01*
X198094599Y-143576511D02*
X198167171Y-143576511D01*
X198167171Y-143576511D02*
X198276028Y-143540226D01*
X198276028Y-143540226D02*
X198348599Y-143467654D01*
X198348599Y-143467654D02*
X198384885Y-143395083D01*
X198384885Y-143395083D02*
X198421171Y-143249940D01*
X198421171Y-143249940D02*
X198421171Y-143141083D01*
X198421171Y-143141083D02*
X198384885Y-142995940D01*
X198384885Y-142995940D02*
X198348599Y-142923368D01*
X198348599Y-142923368D02*
X198276028Y-142850797D01*
X198276028Y-142850797D02*
X198167171Y-142814511D01*
X198167171Y-142814511D02*
X198094599Y-142814511D01*
X198094599Y-142814511D02*
X197985742Y-142850797D01*
X197985742Y-142850797D02*
X197949456Y-142887083D01*
X197659171Y-142887083D02*
X197622885Y-142850797D01*
X197622885Y-142850797D02*
X197550314Y-142814511D01*
X197550314Y-142814511D02*
X197368885Y-142814511D01*
X197368885Y-142814511D02*
X197296314Y-142850797D01*
X197296314Y-142850797D02*
X197260028Y-142887083D01*
X197260028Y-142887083D02*
X197223742Y-142959654D01*
X197223742Y-142959654D02*
X197223742Y-143032226D01*
X197223742Y-143032226D02*
X197260028Y-143141083D01*
X197260028Y-143141083D02*
X197695456Y-143576511D01*
X197695456Y-143576511D02*
X197223742Y-143576511D01*
X196860885Y-143576511D02*
X196715742Y-143576511D01*
X196715742Y-143576511D02*
X196643171Y-143540226D01*
X196643171Y-143540226D02*
X196606885Y-143503940D01*
X196606885Y-143503940D02*
X196534314Y-143395083D01*
X196534314Y-143395083D02*
X196498028Y-143249940D01*
X196498028Y-143249940D02*
X196498028Y-142959654D01*
X196498028Y-142959654D02*
X196534314Y-142887083D01*
X196534314Y-142887083D02*
X196570600Y-142850797D01*
X196570600Y-142850797D02*
X196643171Y-142814511D01*
X196643171Y-142814511D02*
X196788314Y-142814511D01*
X196788314Y-142814511D02*
X196860885Y-142850797D01*
X196860885Y-142850797D02*
X196897171Y-142887083D01*
X196897171Y-142887083D02*
X196933457Y-142959654D01*
X196933457Y-142959654D02*
X196933457Y-143141083D01*
X196933457Y-143141083D02*
X196897171Y-143213654D01*
X196897171Y-143213654D02*
X196860885Y-143249940D01*
X196860885Y-143249940D02*
X196788314Y-143286226D01*
X196788314Y-143286226D02*
X196643171Y-143286226D01*
X196643171Y-143286226D02*
X196570600Y-143249940D01*
X196570600Y-143249940D02*
X196534314Y-143213654D01*
X196534314Y-143213654D02*
X196498028Y-143141083D01*
X204717940Y-136162143D02*
X204754226Y-136125857D01*
X204754226Y-136125857D02*
X204790511Y-136017000D01*
X204790511Y-136017000D02*
X204790511Y-135944428D01*
X204790511Y-135944428D02*
X204754226Y-135835571D01*
X204754226Y-135835571D02*
X204681654Y-135763000D01*
X204681654Y-135763000D02*
X204609083Y-135726714D01*
X204609083Y-135726714D02*
X204463940Y-135690428D01*
X204463940Y-135690428D02*
X204355083Y-135690428D01*
X204355083Y-135690428D02*
X204209940Y-135726714D01*
X204209940Y-135726714D02*
X204137368Y-135763000D01*
X204137368Y-135763000D02*
X204064797Y-135835571D01*
X204064797Y-135835571D02*
X204028511Y-135944428D01*
X204028511Y-135944428D02*
X204028511Y-136017000D01*
X204028511Y-136017000D02*
X204064797Y-136125857D01*
X204064797Y-136125857D02*
X204101083Y-136162143D01*
X204101083Y-136452428D02*
X204064797Y-136488714D01*
X204064797Y-136488714D02*
X204028511Y-136561286D01*
X204028511Y-136561286D02*
X204028511Y-136742714D01*
X204028511Y-136742714D02*
X204064797Y-136815286D01*
X204064797Y-136815286D02*
X204101083Y-136851571D01*
X204101083Y-136851571D02*
X204173654Y-136887857D01*
X204173654Y-136887857D02*
X204246226Y-136887857D01*
X204246226Y-136887857D02*
X204355083Y-136851571D01*
X204355083Y-136851571D02*
X204790511Y-136416143D01*
X204790511Y-136416143D02*
X204790511Y-136887857D01*
X204028511Y-137541000D02*
X204028511Y-137395857D01*
X204028511Y-137395857D02*
X204064797Y-137323285D01*
X204064797Y-137323285D02*
X204101083Y-137287000D01*
X204101083Y-137287000D02*
X204209940Y-137214428D01*
X204209940Y-137214428D02*
X204355083Y-137178142D01*
X204355083Y-137178142D02*
X204645368Y-137178142D01*
X204645368Y-137178142D02*
X204717940Y-137214428D01*
X204717940Y-137214428D02*
X204754226Y-137250714D01*
X204754226Y-137250714D02*
X204790511Y-137323285D01*
X204790511Y-137323285D02*
X204790511Y-137468428D01*
X204790511Y-137468428D02*
X204754226Y-137541000D01*
X204754226Y-137541000D02*
X204717940Y-137577285D01*
X204717940Y-137577285D02*
X204645368Y-137613571D01*
X204645368Y-137613571D02*
X204463940Y-137613571D01*
X204463940Y-137613571D02*
X204391368Y-137577285D01*
X204391368Y-137577285D02*
X204355083Y-137541000D01*
X204355083Y-137541000D02*
X204318797Y-137468428D01*
X204318797Y-137468428D02*
X204318797Y-137323285D01*
X204318797Y-137323285D02*
X204355083Y-137250714D01*
X204355083Y-137250714D02*
X204391368Y-137214428D01*
X204391368Y-137214428D02*
X204463940Y-137178142D01*
X183547656Y-155997111D02*
X183801656Y-155634254D01*
X183983085Y-155997111D02*
X183983085Y-155235111D01*
X183983085Y-155235111D02*
X183692799Y-155235111D01*
X183692799Y-155235111D02*
X183620228Y-155271397D01*
X183620228Y-155271397D02*
X183583942Y-155307683D01*
X183583942Y-155307683D02*
X183547656Y-155380254D01*
X183547656Y-155380254D02*
X183547656Y-155489111D01*
X183547656Y-155489111D02*
X183583942Y-155561683D01*
X183583942Y-155561683D02*
X183620228Y-155597968D01*
X183620228Y-155597968D02*
X183692799Y-155634254D01*
X183692799Y-155634254D02*
X183983085Y-155634254D01*
X183112228Y-155561683D02*
X183184799Y-155525397D01*
X183184799Y-155525397D02*
X183221085Y-155489111D01*
X183221085Y-155489111D02*
X183257371Y-155416540D01*
X183257371Y-155416540D02*
X183257371Y-155380254D01*
X183257371Y-155380254D02*
X183221085Y-155307683D01*
X183221085Y-155307683D02*
X183184799Y-155271397D01*
X183184799Y-155271397D02*
X183112228Y-155235111D01*
X183112228Y-155235111D02*
X182967085Y-155235111D01*
X182967085Y-155235111D02*
X182894514Y-155271397D01*
X182894514Y-155271397D02*
X182858228Y-155307683D01*
X182858228Y-155307683D02*
X182821942Y-155380254D01*
X182821942Y-155380254D02*
X182821942Y-155416540D01*
X182821942Y-155416540D02*
X182858228Y-155489111D01*
X182858228Y-155489111D02*
X182894514Y-155525397D01*
X182894514Y-155525397D02*
X182967085Y-155561683D01*
X182967085Y-155561683D02*
X183112228Y-155561683D01*
X183112228Y-155561683D02*
X183184799Y-155597968D01*
X183184799Y-155597968D02*
X183221085Y-155634254D01*
X183221085Y-155634254D02*
X183257371Y-155706826D01*
X183257371Y-155706826D02*
X183257371Y-155851968D01*
X183257371Y-155851968D02*
X183221085Y-155924540D01*
X183221085Y-155924540D02*
X183184799Y-155960826D01*
X183184799Y-155960826D02*
X183112228Y-155997111D01*
X183112228Y-155997111D02*
X182967085Y-155997111D01*
X182967085Y-155997111D02*
X182894514Y-155960826D01*
X182894514Y-155960826D02*
X182858228Y-155924540D01*
X182858228Y-155924540D02*
X182821942Y-155851968D01*
X182821942Y-155851968D02*
X182821942Y-155706826D01*
X182821942Y-155706826D02*
X182858228Y-155634254D01*
X182858228Y-155634254D02*
X182894514Y-155597968D01*
X182894514Y-155597968D02*
X182967085Y-155561683D01*
X182567942Y-155235111D02*
X182096228Y-155235111D01*
X182096228Y-155235111D02*
X182350228Y-155525397D01*
X182350228Y-155525397D02*
X182241371Y-155525397D01*
X182241371Y-155525397D02*
X182168800Y-155561683D01*
X182168800Y-155561683D02*
X182132514Y-155597968D01*
X182132514Y-155597968D02*
X182096228Y-155670540D01*
X182096228Y-155670540D02*
X182096228Y-155851968D01*
X182096228Y-155851968D02*
X182132514Y-155924540D01*
X182132514Y-155924540D02*
X182168800Y-155960826D01*
X182168800Y-155960826D02*
X182241371Y-155997111D01*
X182241371Y-155997111D02*
X182459085Y-155997111D01*
X182459085Y-155997111D02*
X182531657Y-155960826D01*
X182531657Y-155960826D02*
X182567942Y-155924540D01*
X223882856Y-90341740D02*
X223919142Y-90378026D01*
X223919142Y-90378026D02*
X224027999Y-90414311D01*
X224027999Y-90414311D02*
X224100571Y-90414311D01*
X224100571Y-90414311D02*
X224209428Y-90378026D01*
X224209428Y-90378026D02*
X224281999Y-90305454D01*
X224281999Y-90305454D02*
X224318285Y-90232883D01*
X224318285Y-90232883D02*
X224354571Y-90087740D01*
X224354571Y-90087740D02*
X224354571Y-89978883D01*
X224354571Y-89978883D02*
X224318285Y-89833740D01*
X224318285Y-89833740D02*
X224281999Y-89761168D01*
X224281999Y-89761168D02*
X224209428Y-89688597D01*
X224209428Y-89688597D02*
X224100571Y-89652311D01*
X224100571Y-89652311D02*
X224027999Y-89652311D01*
X224027999Y-89652311D02*
X223919142Y-89688597D01*
X223919142Y-89688597D02*
X223882856Y-89724883D01*
X223157142Y-90414311D02*
X223592571Y-90414311D01*
X223374856Y-90414311D02*
X223374856Y-89652311D01*
X223374856Y-89652311D02*
X223447428Y-89761168D01*
X223447428Y-89761168D02*
X223519999Y-89833740D01*
X223519999Y-89833740D02*
X223592571Y-89870026D01*
X222467714Y-89652311D02*
X222830571Y-89652311D01*
X222830571Y-89652311D02*
X222866857Y-90015168D01*
X222866857Y-90015168D02*
X222830571Y-89978883D01*
X222830571Y-89978883D02*
X222758000Y-89942597D01*
X222758000Y-89942597D02*
X222576571Y-89942597D01*
X222576571Y-89942597D02*
X222504000Y-89978883D01*
X222504000Y-89978883D02*
X222467714Y-90015168D01*
X222467714Y-90015168D02*
X222431428Y-90087740D01*
X222431428Y-90087740D02*
X222431428Y-90269168D01*
X222431428Y-90269168D02*
X222467714Y-90341740D01*
X222467714Y-90341740D02*
X222504000Y-90378026D01*
X222504000Y-90378026D02*
X222576571Y-90414311D01*
X222576571Y-90414311D02*
X222758000Y-90414311D01*
X222758000Y-90414311D02*
X222830571Y-90378026D01*
X222830571Y-90378026D02*
X222866857Y-90341740D01*
X202834711Y-136162143D02*
X202471854Y-135908143D01*
X202834711Y-135726714D02*
X202072711Y-135726714D01*
X202072711Y-135726714D02*
X202072711Y-136017000D01*
X202072711Y-136017000D02*
X202108997Y-136089571D01*
X202108997Y-136089571D02*
X202145283Y-136125857D01*
X202145283Y-136125857D02*
X202217854Y-136162143D01*
X202217854Y-136162143D02*
X202326711Y-136162143D01*
X202326711Y-136162143D02*
X202399283Y-136125857D01*
X202399283Y-136125857D02*
X202435568Y-136089571D01*
X202435568Y-136089571D02*
X202471854Y-136017000D01*
X202471854Y-136017000D02*
X202471854Y-135726714D01*
X202072711Y-136851571D02*
X202072711Y-136488714D01*
X202072711Y-136488714D02*
X202435568Y-136452428D01*
X202435568Y-136452428D02*
X202399283Y-136488714D01*
X202399283Y-136488714D02*
X202362997Y-136561286D01*
X202362997Y-136561286D02*
X202362997Y-136742714D01*
X202362997Y-136742714D02*
X202399283Y-136815286D01*
X202399283Y-136815286D02*
X202435568Y-136851571D01*
X202435568Y-136851571D02*
X202508140Y-136887857D01*
X202508140Y-136887857D02*
X202689568Y-136887857D01*
X202689568Y-136887857D02*
X202762140Y-136851571D01*
X202762140Y-136851571D02*
X202798426Y-136815286D01*
X202798426Y-136815286D02*
X202834711Y-136742714D01*
X202834711Y-136742714D02*
X202834711Y-136561286D01*
X202834711Y-136561286D02*
X202798426Y-136488714D01*
X202798426Y-136488714D02*
X202762140Y-136452428D01*
X202834711Y-137250714D02*
X202834711Y-137395857D01*
X202834711Y-137395857D02*
X202798426Y-137468428D01*
X202798426Y-137468428D02*
X202762140Y-137504714D01*
X202762140Y-137504714D02*
X202653283Y-137577285D01*
X202653283Y-137577285D02*
X202508140Y-137613571D01*
X202508140Y-137613571D02*
X202217854Y-137613571D01*
X202217854Y-137613571D02*
X202145283Y-137577285D01*
X202145283Y-137577285D02*
X202108997Y-137541000D01*
X202108997Y-137541000D02*
X202072711Y-137468428D01*
X202072711Y-137468428D02*
X202072711Y-137323285D01*
X202072711Y-137323285D02*
X202108997Y-137250714D01*
X202108997Y-137250714D02*
X202145283Y-137214428D01*
X202145283Y-137214428D02*
X202217854Y-137178142D01*
X202217854Y-137178142D02*
X202399283Y-137178142D01*
X202399283Y-137178142D02*
X202471854Y-137214428D01*
X202471854Y-137214428D02*
X202508140Y-137250714D01*
X202508140Y-137250714D02*
X202544426Y-137323285D01*
X202544426Y-137323285D02*
X202544426Y-137468428D01*
X202544426Y-137468428D02*
X202508140Y-137541000D01*
X202508140Y-137541000D02*
X202471854Y-137577285D01*
X202471854Y-137577285D02*
X202399283Y-137613571D01*
X213849856Y-134080840D02*
X213886142Y-134117126D01*
X213886142Y-134117126D02*
X213994999Y-134153411D01*
X213994999Y-134153411D02*
X214067571Y-134153411D01*
X214067571Y-134153411D02*
X214176428Y-134117126D01*
X214176428Y-134117126D02*
X214248999Y-134044554D01*
X214248999Y-134044554D02*
X214285285Y-133971983D01*
X214285285Y-133971983D02*
X214321571Y-133826840D01*
X214321571Y-133826840D02*
X214321571Y-133717983D01*
X214321571Y-133717983D02*
X214285285Y-133572840D01*
X214285285Y-133572840D02*
X214248999Y-133500268D01*
X214248999Y-133500268D02*
X214176428Y-133427697D01*
X214176428Y-133427697D02*
X214067571Y-133391411D01*
X214067571Y-133391411D02*
X213994999Y-133391411D01*
X213994999Y-133391411D02*
X213886142Y-133427697D01*
X213886142Y-133427697D02*
X213849856Y-133463983D01*
X213559571Y-133463983D02*
X213523285Y-133427697D01*
X213523285Y-133427697D02*
X213450714Y-133391411D01*
X213450714Y-133391411D02*
X213269285Y-133391411D01*
X213269285Y-133391411D02*
X213196714Y-133427697D01*
X213196714Y-133427697D02*
X213160428Y-133463983D01*
X213160428Y-133463983D02*
X213124142Y-133536554D01*
X213124142Y-133536554D02*
X213124142Y-133609126D01*
X213124142Y-133609126D02*
X213160428Y-133717983D01*
X213160428Y-133717983D02*
X213595856Y-134153411D01*
X213595856Y-134153411D02*
X213124142Y-134153411D01*
X212870142Y-133391411D02*
X212398428Y-133391411D01*
X212398428Y-133391411D02*
X212652428Y-133681697D01*
X212652428Y-133681697D02*
X212543571Y-133681697D01*
X212543571Y-133681697D02*
X212471000Y-133717983D01*
X212471000Y-133717983D02*
X212434714Y-133754268D01*
X212434714Y-133754268D02*
X212398428Y-133826840D01*
X212398428Y-133826840D02*
X212398428Y-134008268D01*
X212398428Y-134008268D02*
X212434714Y-134080840D01*
X212434714Y-134080840D02*
X212471000Y-134117126D01*
X212471000Y-134117126D02*
X212543571Y-134153411D01*
X212543571Y-134153411D02*
X212761285Y-134153411D01*
X212761285Y-134153411D02*
X212833857Y-134117126D01*
X212833857Y-134117126D02*
X212870142Y-134080840D01*
X183547656Y-113858511D02*
X183801656Y-113495654D01*
X183983085Y-113858511D02*
X183983085Y-113096511D01*
X183983085Y-113096511D02*
X183692799Y-113096511D01*
X183692799Y-113096511D02*
X183620228Y-113132797D01*
X183620228Y-113132797D02*
X183583942Y-113169083D01*
X183583942Y-113169083D02*
X183547656Y-113241654D01*
X183547656Y-113241654D02*
X183547656Y-113350511D01*
X183547656Y-113350511D02*
X183583942Y-113423083D01*
X183583942Y-113423083D02*
X183620228Y-113459368D01*
X183620228Y-113459368D02*
X183692799Y-113495654D01*
X183692799Y-113495654D02*
X183983085Y-113495654D01*
X183293656Y-113096511D02*
X182785656Y-113096511D01*
X182785656Y-113096511D02*
X183112228Y-113858511D01*
X182531657Y-113169083D02*
X182495371Y-113132797D01*
X182495371Y-113132797D02*
X182422800Y-113096511D01*
X182422800Y-113096511D02*
X182241371Y-113096511D01*
X182241371Y-113096511D02*
X182168800Y-113132797D01*
X182168800Y-113132797D02*
X182132514Y-113169083D01*
X182132514Y-113169083D02*
X182096228Y-113241654D01*
X182096228Y-113241654D02*
X182096228Y-113314226D01*
X182096228Y-113314226D02*
X182132514Y-113423083D01*
X182132514Y-113423083D02*
X182567942Y-113858511D01*
X182567942Y-113858511D02*
X182096228Y-113858511D01*
X183547656Y-115792540D02*
X183583942Y-115828826D01*
X183583942Y-115828826D02*
X183692799Y-115865111D01*
X183692799Y-115865111D02*
X183765371Y-115865111D01*
X183765371Y-115865111D02*
X183874228Y-115828826D01*
X183874228Y-115828826D02*
X183946799Y-115756254D01*
X183946799Y-115756254D02*
X183983085Y-115683683D01*
X183983085Y-115683683D02*
X184019371Y-115538540D01*
X184019371Y-115538540D02*
X184019371Y-115429683D01*
X184019371Y-115429683D02*
X183983085Y-115284540D01*
X183983085Y-115284540D02*
X183946799Y-115211968D01*
X183946799Y-115211968D02*
X183874228Y-115139397D01*
X183874228Y-115139397D02*
X183765371Y-115103111D01*
X183765371Y-115103111D02*
X183692799Y-115103111D01*
X183692799Y-115103111D02*
X183583942Y-115139397D01*
X183583942Y-115139397D02*
X183547656Y-115175683D01*
X183293656Y-115103111D02*
X182821942Y-115103111D01*
X182821942Y-115103111D02*
X183075942Y-115393397D01*
X183075942Y-115393397D02*
X182967085Y-115393397D01*
X182967085Y-115393397D02*
X182894514Y-115429683D01*
X182894514Y-115429683D02*
X182858228Y-115465968D01*
X182858228Y-115465968D02*
X182821942Y-115538540D01*
X182821942Y-115538540D02*
X182821942Y-115719968D01*
X182821942Y-115719968D02*
X182858228Y-115792540D01*
X182858228Y-115792540D02*
X182894514Y-115828826D01*
X182894514Y-115828826D02*
X182967085Y-115865111D01*
X182967085Y-115865111D02*
X183184799Y-115865111D01*
X183184799Y-115865111D02*
X183257371Y-115828826D01*
X183257371Y-115828826D02*
X183293656Y-115792540D01*
X182168800Y-115357111D02*
X182168800Y-115865111D01*
X182350228Y-115066826D02*
X182531657Y-115611111D01*
X182531657Y-115611111D02*
X182059942Y-115611111D01*
X213832911Y-173220743D02*
X213470054Y-172966743D01*
X213832911Y-172785314D02*
X213070911Y-172785314D01*
X213070911Y-172785314D02*
X213070911Y-173075600D01*
X213070911Y-173075600D02*
X213107197Y-173148171D01*
X213107197Y-173148171D02*
X213143483Y-173184457D01*
X213143483Y-173184457D02*
X213216054Y-173220743D01*
X213216054Y-173220743D02*
X213324911Y-173220743D01*
X213324911Y-173220743D02*
X213397483Y-173184457D01*
X213397483Y-173184457D02*
X213433768Y-173148171D01*
X213433768Y-173148171D02*
X213470054Y-173075600D01*
X213470054Y-173075600D02*
X213470054Y-172785314D01*
X213070911Y-173910171D02*
X213070911Y-173547314D01*
X213070911Y-173547314D02*
X213433768Y-173511028D01*
X213433768Y-173511028D02*
X213397483Y-173547314D01*
X213397483Y-173547314D02*
X213361197Y-173619886D01*
X213361197Y-173619886D02*
X213361197Y-173801314D01*
X213361197Y-173801314D02*
X213397483Y-173873886D01*
X213397483Y-173873886D02*
X213433768Y-173910171D01*
X213433768Y-173910171D02*
X213506340Y-173946457D01*
X213506340Y-173946457D02*
X213687768Y-173946457D01*
X213687768Y-173946457D02*
X213760340Y-173910171D01*
X213760340Y-173910171D02*
X213796626Y-173873886D01*
X213796626Y-173873886D02*
X213832911Y-173801314D01*
X213832911Y-173801314D02*
X213832911Y-173619886D01*
X213832911Y-173619886D02*
X213796626Y-173547314D01*
X213796626Y-173547314D02*
X213760340Y-173511028D01*
X213143483Y-174236742D02*
X213107197Y-174273028D01*
X213107197Y-174273028D02*
X213070911Y-174345600D01*
X213070911Y-174345600D02*
X213070911Y-174527028D01*
X213070911Y-174527028D02*
X213107197Y-174599600D01*
X213107197Y-174599600D02*
X213143483Y-174635885D01*
X213143483Y-174635885D02*
X213216054Y-174672171D01*
X213216054Y-174672171D02*
X213288626Y-174672171D01*
X213288626Y-174672171D02*
X213397483Y-174635885D01*
X213397483Y-174635885D02*
X213832911Y-174200457D01*
X213832911Y-174200457D02*
X213832911Y-174672171D01*
X188966311Y-173220743D02*
X188603454Y-172966743D01*
X188966311Y-172785314D02*
X188204311Y-172785314D01*
X188204311Y-172785314D02*
X188204311Y-173075600D01*
X188204311Y-173075600D02*
X188240597Y-173148171D01*
X188240597Y-173148171D02*
X188276883Y-173184457D01*
X188276883Y-173184457D02*
X188349454Y-173220743D01*
X188349454Y-173220743D02*
X188458311Y-173220743D01*
X188458311Y-173220743D02*
X188530883Y-173184457D01*
X188530883Y-173184457D02*
X188567168Y-173148171D01*
X188567168Y-173148171D02*
X188603454Y-173075600D01*
X188603454Y-173075600D02*
X188603454Y-172785314D01*
X188204311Y-173873886D02*
X188204311Y-173728743D01*
X188204311Y-173728743D02*
X188240597Y-173656171D01*
X188240597Y-173656171D02*
X188276883Y-173619886D01*
X188276883Y-173619886D02*
X188385740Y-173547314D01*
X188385740Y-173547314D02*
X188530883Y-173511028D01*
X188530883Y-173511028D02*
X188821168Y-173511028D01*
X188821168Y-173511028D02*
X188893740Y-173547314D01*
X188893740Y-173547314D02*
X188930026Y-173583600D01*
X188930026Y-173583600D02*
X188966311Y-173656171D01*
X188966311Y-173656171D02*
X188966311Y-173801314D01*
X188966311Y-173801314D02*
X188930026Y-173873886D01*
X188930026Y-173873886D02*
X188893740Y-173910171D01*
X188893740Y-173910171D02*
X188821168Y-173946457D01*
X188821168Y-173946457D02*
X188639740Y-173946457D01*
X188639740Y-173946457D02*
X188567168Y-173910171D01*
X188567168Y-173910171D02*
X188530883Y-173873886D01*
X188530883Y-173873886D02*
X188494597Y-173801314D01*
X188494597Y-173801314D02*
X188494597Y-173656171D01*
X188494597Y-173656171D02*
X188530883Y-173583600D01*
X188530883Y-173583600D02*
X188567168Y-173547314D01*
X188567168Y-173547314D02*
X188639740Y-173511028D01*
X188530883Y-174381885D02*
X188494597Y-174309314D01*
X188494597Y-174309314D02*
X188458311Y-174273028D01*
X188458311Y-174273028D02*
X188385740Y-174236742D01*
X188385740Y-174236742D02*
X188349454Y-174236742D01*
X188349454Y-174236742D02*
X188276883Y-174273028D01*
X188276883Y-174273028D02*
X188240597Y-174309314D01*
X188240597Y-174309314D02*
X188204311Y-174381885D01*
X188204311Y-174381885D02*
X188204311Y-174527028D01*
X188204311Y-174527028D02*
X188240597Y-174599600D01*
X188240597Y-174599600D02*
X188276883Y-174635885D01*
X188276883Y-174635885D02*
X188349454Y-174672171D01*
X188349454Y-174672171D02*
X188385740Y-174672171D01*
X188385740Y-174672171D02*
X188458311Y-174635885D01*
X188458311Y-174635885D02*
X188494597Y-174599600D01*
X188494597Y-174599600D02*
X188530883Y-174527028D01*
X188530883Y-174527028D02*
X188530883Y-174381885D01*
X188530883Y-174381885D02*
X188567168Y-174309314D01*
X188567168Y-174309314D02*
X188603454Y-174273028D01*
X188603454Y-174273028D02*
X188676026Y-174236742D01*
X188676026Y-174236742D02*
X188821168Y-174236742D01*
X188821168Y-174236742D02*
X188893740Y-174273028D01*
X188893740Y-174273028D02*
X188930026Y-174309314D01*
X188930026Y-174309314D02*
X188966311Y-174381885D01*
X188966311Y-174381885D02*
X188966311Y-174527028D01*
X188966311Y-174527028D02*
X188930026Y-174599600D01*
X188930026Y-174599600D02*
X188893740Y-174635885D01*
X188893740Y-174635885D02*
X188821168Y-174672171D01*
X188821168Y-174672171D02*
X188676026Y-174672171D01*
X188676026Y-174672171D02*
X188603454Y-174635885D01*
X188603454Y-174635885D02*
X188567168Y-174599600D01*
X188567168Y-174599600D02*
X188530883Y-174527028D01*
X183547656Y-129073111D02*
X183801656Y-128710254D01*
X183983085Y-129073111D02*
X183983085Y-128311111D01*
X183983085Y-128311111D02*
X183692799Y-128311111D01*
X183692799Y-128311111D02*
X183620228Y-128347397D01*
X183620228Y-128347397D02*
X183583942Y-128383683D01*
X183583942Y-128383683D02*
X183547656Y-128456254D01*
X183547656Y-128456254D02*
X183547656Y-128565111D01*
X183547656Y-128565111D02*
X183583942Y-128637683D01*
X183583942Y-128637683D02*
X183620228Y-128673968D01*
X183620228Y-128673968D02*
X183692799Y-128710254D01*
X183692799Y-128710254D02*
X183983085Y-128710254D01*
X183293656Y-128311111D02*
X182785656Y-128311111D01*
X182785656Y-128311111D02*
X183112228Y-129073111D01*
X182168800Y-128311111D02*
X182313942Y-128311111D01*
X182313942Y-128311111D02*
X182386514Y-128347397D01*
X182386514Y-128347397D02*
X182422800Y-128383683D01*
X182422800Y-128383683D02*
X182495371Y-128492540D01*
X182495371Y-128492540D02*
X182531657Y-128637683D01*
X182531657Y-128637683D02*
X182531657Y-128927968D01*
X182531657Y-128927968D02*
X182495371Y-129000540D01*
X182495371Y-129000540D02*
X182459085Y-129036826D01*
X182459085Y-129036826D02*
X182386514Y-129073111D01*
X182386514Y-129073111D02*
X182241371Y-129073111D01*
X182241371Y-129073111D02*
X182168800Y-129036826D01*
X182168800Y-129036826D02*
X182132514Y-129000540D01*
X182132514Y-129000540D02*
X182096228Y-128927968D01*
X182096228Y-128927968D02*
X182096228Y-128746540D01*
X182096228Y-128746540D02*
X182132514Y-128673968D01*
X182132514Y-128673968D02*
X182168800Y-128637683D01*
X182168800Y-128637683D02*
X182241371Y-128601397D01*
X182241371Y-128601397D02*
X182386514Y-128601397D01*
X182386514Y-128601397D02*
X182459085Y-128637683D01*
X182459085Y-128637683D02*
X182495371Y-128673968D01*
X182495371Y-128673968D02*
X182531657Y-128746540D01*
X183547656Y-166135340D02*
X183583942Y-166171626D01*
X183583942Y-166171626D02*
X183692799Y-166207911D01*
X183692799Y-166207911D02*
X183765371Y-166207911D01*
X183765371Y-166207911D02*
X183874228Y-166171626D01*
X183874228Y-166171626D02*
X183946799Y-166099054D01*
X183946799Y-166099054D02*
X183983085Y-166026483D01*
X183983085Y-166026483D02*
X184019371Y-165881340D01*
X184019371Y-165881340D02*
X184019371Y-165772483D01*
X184019371Y-165772483D02*
X183983085Y-165627340D01*
X183983085Y-165627340D02*
X183946799Y-165554768D01*
X183946799Y-165554768D02*
X183874228Y-165482197D01*
X183874228Y-165482197D02*
X183765371Y-165445911D01*
X183765371Y-165445911D02*
X183692799Y-165445911D01*
X183692799Y-165445911D02*
X183583942Y-165482197D01*
X183583942Y-165482197D02*
X183547656Y-165518483D01*
X182894514Y-165699911D02*
X182894514Y-166207911D01*
X183075942Y-165409626D02*
X183257371Y-165953911D01*
X183257371Y-165953911D02*
X182785656Y-165953911D01*
X182096228Y-166207911D02*
X182531657Y-166207911D01*
X182313942Y-166207911D02*
X182313942Y-165445911D01*
X182313942Y-165445911D02*
X182386514Y-165554768D01*
X182386514Y-165554768D02*
X182459085Y-165627340D01*
X182459085Y-165627340D02*
X182531657Y-165663626D01*
X198592911Y-173220743D02*
X198230054Y-172966743D01*
X198592911Y-172785314D02*
X197830911Y-172785314D01*
X197830911Y-172785314D02*
X197830911Y-173075600D01*
X197830911Y-173075600D02*
X197867197Y-173148171D01*
X197867197Y-173148171D02*
X197903483Y-173184457D01*
X197903483Y-173184457D02*
X197976054Y-173220743D01*
X197976054Y-173220743D02*
X198084911Y-173220743D01*
X198084911Y-173220743D02*
X198157483Y-173184457D01*
X198157483Y-173184457D02*
X198193768Y-173148171D01*
X198193768Y-173148171D02*
X198230054Y-173075600D01*
X198230054Y-173075600D02*
X198230054Y-172785314D01*
X197830911Y-173873886D02*
X197830911Y-173728743D01*
X197830911Y-173728743D02*
X197867197Y-173656171D01*
X197867197Y-173656171D02*
X197903483Y-173619886D01*
X197903483Y-173619886D02*
X198012340Y-173547314D01*
X198012340Y-173547314D02*
X198157483Y-173511028D01*
X198157483Y-173511028D02*
X198447768Y-173511028D01*
X198447768Y-173511028D02*
X198520340Y-173547314D01*
X198520340Y-173547314D02*
X198556626Y-173583600D01*
X198556626Y-173583600D02*
X198592911Y-173656171D01*
X198592911Y-173656171D02*
X198592911Y-173801314D01*
X198592911Y-173801314D02*
X198556626Y-173873886D01*
X198556626Y-173873886D02*
X198520340Y-173910171D01*
X198520340Y-173910171D02*
X198447768Y-173946457D01*
X198447768Y-173946457D02*
X198266340Y-173946457D01*
X198266340Y-173946457D02*
X198193768Y-173910171D01*
X198193768Y-173910171D02*
X198157483Y-173873886D01*
X198157483Y-173873886D02*
X198121197Y-173801314D01*
X198121197Y-173801314D02*
X198121197Y-173656171D01*
X198121197Y-173656171D02*
X198157483Y-173583600D01*
X198157483Y-173583600D02*
X198193768Y-173547314D01*
X198193768Y-173547314D02*
X198266340Y-173511028D01*
X198084911Y-174599600D02*
X198592911Y-174599600D01*
X197794626Y-174418171D02*
X198338911Y-174236742D01*
X198338911Y-174236742D02*
X198338911Y-174708457D01*
X183547656Y-158003711D02*
X183801656Y-157640854D01*
X183983085Y-158003711D02*
X183983085Y-157241711D01*
X183983085Y-157241711D02*
X183692799Y-157241711D01*
X183692799Y-157241711D02*
X183620228Y-157277997D01*
X183620228Y-157277997D02*
X183583942Y-157314283D01*
X183583942Y-157314283D02*
X183547656Y-157386854D01*
X183547656Y-157386854D02*
X183547656Y-157495711D01*
X183547656Y-157495711D02*
X183583942Y-157568283D01*
X183583942Y-157568283D02*
X183620228Y-157604568D01*
X183620228Y-157604568D02*
X183692799Y-157640854D01*
X183692799Y-157640854D02*
X183983085Y-157640854D01*
X183112228Y-157568283D02*
X183184799Y-157531997D01*
X183184799Y-157531997D02*
X183221085Y-157495711D01*
X183221085Y-157495711D02*
X183257371Y-157423140D01*
X183257371Y-157423140D02*
X183257371Y-157386854D01*
X183257371Y-157386854D02*
X183221085Y-157314283D01*
X183221085Y-157314283D02*
X183184799Y-157277997D01*
X183184799Y-157277997D02*
X183112228Y-157241711D01*
X183112228Y-157241711D02*
X182967085Y-157241711D01*
X182967085Y-157241711D02*
X182894514Y-157277997D01*
X182894514Y-157277997D02*
X182858228Y-157314283D01*
X182858228Y-157314283D02*
X182821942Y-157386854D01*
X182821942Y-157386854D02*
X182821942Y-157423140D01*
X182821942Y-157423140D02*
X182858228Y-157495711D01*
X182858228Y-157495711D02*
X182894514Y-157531997D01*
X182894514Y-157531997D02*
X182967085Y-157568283D01*
X182967085Y-157568283D02*
X183112228Y-157568283D01*
X183112228Y-157568283D02*
X183184799Y-157604568D01*
X183184799Y-157604568D02*
X183221085Y-157640854D01*
X183221085Y-157640854D02*
X183257371Y-157713426D01*
X183257371Y-157713426D02*
X183257371Y-157858568D01*
X183257371Y-157858568D02*
X183221085Y-157931140D01*
X183221085Y-157931140D02*
X183184799Y-157967426D01*
X183184799Y-157967426D02*
X183112228Y-158003711D01*
X183112228Y-158003711D02*
X182967085Y-158003711D01*
X182967085Y-158003711D02*
X182894514Y-157967426D01*
X182894514Y-157967426D02*
X182858228Y-157931140D01*
X182858228Y-157931140D02*
X182821942Y-157858568D01*
X182821942Y-157858568D02*
X182821942Y-157713426D01*
X182821942Y-157713426D02*
X182858228Y-157640854D01*
X182858228Y-157640854D02*
X182894514Y-157604568D01*
X182894514Y-157604568D02*
X182967085Y-157568283D01*
X182168800Y-157495711D02*
X182168800Y-158003711D01*
X182350228Y-157205426D02*
X182531657Y-157749711D01*
X182531657Y-157749711D02*
X182059942Y-157749711D01*
X183547656Y-168112911D02*
X183801656Y-167750054D01*
X183983085Y-168112911D02*
X183983085Y-167350911D01*
X183983085Y-167350911D02*
X183692799Y-167350911D01*
X183692799Y-167350911D02*
X183620228Y-167387197D01*
X183620228Y-167387197D02*
X183583942Y-167423483D01*
X183583942Y-167423483D02*
X183547656Y-167496054D01*
X183547656Y-167496054D02*
X183547656Y-167604911D01*
X183547656Y-167604911D02*
X183583942Y-167677483D01*
X183583942Y-167677483D02*
X183620228Y-167713768D01*
X183620228Y-167713768D02*
X183692799Y-167750054D01*
X183692799Y-167750054D02*
X183983085Y-167750054D01*
X183112228Y-167677483D02*
X183184799Y-167641197D01*
X183184799Y-167641197D02*
X183221085Y-167604911D01*
X183221085Y-167604911D02*
X183257371Y-167532340D01*
X183257371Y-167532340D02*
X183257371Y-167496054D01*
X183257371Y-167496054D02*
X183221085Y-167423483D01*
X183221085Y-167423483D02*
X183184799Y-167387197D01*
X183184799Y-167387197D02*
X183112228Y-167350911D01*
X183112228Y-167350911D02*
X182967085Y-167350911D01*
X182967085Y-167350911D02*
X182894514Y-167387197D01*
X182894514Y-167387197D02*
X182858228Y-167423483D01*
X182858228Y-167423483D02*
X182821942Y-167496054D01*
X182821942Y-167496054D02*
X182821942Y-167532340D01*
X182821942Y-167532340D02*
X182858228Y-167604911D01*
X182858228Y-167604911D02*
X182894514Y-167641197D01*
X182894514Y-167641197D02*
X182967085Y-167677483D01*
X182967085Y-167677483D02*
X183112228Y-167677483D01*
X183112228Y-167677483D02*
X183184799Y-167713768D01*
X183184799Y-167713768D02*
X183221085Y-167750054D01*
X183221085Y-167750054D02*
X183257371Y-167822626D01*
X183257371Y-167822626D02*
X183257371Y-167967768D01*
X183257371Y-167967768D02*
X183221085Y-168040340D01*
X183221085Y-168040340D02*
X183184799Y-168076626D01*
X183184799Y-168076626D02*
X183112228Y-168112911D01*
X183112228Y-168112911D02*
X182967085Y-168112911D01*
X182967085Y-168112911D02*
X182894514Y-168076626D01*
X182894514Y-168076626D02*
X182858228Y-168040340D01*
X182858228Y-168040340D02*
X182821942Y-167967768D01*
X182821942Y-167967768D02*
X182821942Y-167822626D01*
X182821942Y-167822626D02*
X182858228Y-167750054D01*
X182858228Y-167750054D02*
X182894514Y-167713768D01*
X182894514Y-167713768D02*
X182967085Y-167677483D01*
X182567942Y-167350911D02*
X182059942Y-167350911D01*
X182059942Y-167350911D02*
X182386514Y-168112911D01*
X191421656Y-97856511D02*
X191675656Y-97493654D01*
X191857085Y-97856511D02*
X191857085Y-97094511D01*
X191857085Y-97094511D02*
X191566799Y-97094511D01*
X191566799Y-97094511D02*
X191494228Y-97130797D01*
X191494228Y-97130797D02*
X191457942Y-97167083D01*
X191457942Y-97167083D02*
X191421656Y-97239654D01*
X191421656Y-97239654D02*
X191421656Y-97348511D01*
X191421656Y-97348511D02*
X191457942Y-97421083D01*
X191457942Y-97421083D02*
X191494228Y-97457368D01*
X191494228Y-97457368D02*
X191566799Y-97493654D01*
X191566799Y-97493654D02*
X191857085Y-97493654D01*
X191167656Y-97094511D02*
X190659656Y-97094511D01*
X190659656Y-97094511D02*
X190986228Y-97856511D01*
X189970228Y-97856511D02*
X190405657Y-97856511D01*
X190187942Y-97856511D02*
X190187942Y-97094511D01*
X190187942Y-97094511D02*
X190260514Y-97203368D01*
X190260514Y-97203368D02*
X190333085Y-97275940D01*
X190333085Y-97275940D02*
X190405657Y-97312226D01*
X183547656Y-125567911D02*
X183801656Y-125205054D01*
X183983085Y-125567911D02*
X183983085Y-124805911D01*
X183983085Y-124805911D02*
X183692799Y-124805911D01*
X183692799Y-124805911D02*
X183620228Y-124842197D01*
X183620228Y-124842197D02*
X183583942Y-124878483D01*
X183583942Y-124878483D02*
X183547656Y-124951054D01*
X183547656Y-124951054D02*
X183547656Y-125059911D01*
X183547656Y-125059911D02*
X183583942Y-125132483D01*
X183583942Y-125132483D02*
X183620228Y-125168768D01*
X183620228Y-125168768D02*
X183692799Y-125205054D01*
X183692799Y-125205054D02*
X183983085Y-125205054D01*
X183293656Y-124805911D02*
X182785656Y-124805911D01*
X182785656Y-124805911D02*
X183112228Y-125567911D01*
X182132514Y-124805911D02*
X182495371Y-124805911D01*
X182495371Y-124805911D02*
X182531657Y-125168768D01*
X182531657Y-125168768D02*
X182495371Y-125132483D01*
X182495371Y-125132483D02*
X182422800Y-125096197D01*
X182422800Y-125096197D02*
X182241371Y-125096197D01*
X182241371Y-125096197D02*
X182168800Y-125132483D01*
X182168800Y-125132483D02*
X182132514Y-125168768D01*
X182132514Y-125168768D02*
X182096228Y-125241340D01*
X182096228Y-125241340D02*
X182096228Y-125422768D01*
X182096228Y-125422768D02*
X182132514Y-125495340D01*
X182132514Y-125495340D02*
X182168800Y-125531626D01*
X182168800Y-125531626D02*
X182241371Y-125567911D01*
X182241371Y-125567911D02*
X182422800Y-125567911D01*
X182422800Y-125567911D02*
X182495371Y-125531626D01*
X182495371Y-125531626D02*
X182531657Y-125495340D01*
X225381456Y-155539911D02*
X225635456Y-155177054D01*
X225816885Y-155539911D02*
X225816885Y-154777911D01*
X225816885Y-154777911D02*
X225526599Y-154777911D01*
X225526599Y-154777911D02*
X225454028Y-154814197D01*
X225454028Y-154814197D02*
X225417742Y-154850483D01*
X225417742Y-154850483D02*
X225381456Y-154923054D01*
X225381456Y-154923054D02*
X225381456Y-155031911D01*
X225381456Y-155031911D02*
X225417742Y-155104483D01*
X225417742Y-155104483D02*
X225454028Y-155140768D01*
X225454028Y-155140768D02*
X225526599Y-155177054D01*
X225526599Y-155177054D02*
X225816885Y-155177054D01*
X225127456Y-154777911D02*
X224655742Y-154777911D01*
X224655742Y-154777911D02*
X224909742Y-155068197D01*
X224909742Y-155068197D02*
X224800885Y-155068197D01*
X224800885Y-155068197D02*
X224728314Y-155104483D01*
X224728314Y-155104483D02*
X224692028Y-155140768D01*
X224692028Y-155140768D02*
X224655742Y-155213340D01*
X224655742Y-155213340D02*
X224655742Y-155394768D01*
X224655742Y-155394768D02*
X224692028Y-155467340D01*
X224692028Y-155467340D02*
X224728314Y-155503626D01*
X224728314Y-155503626D02*
X224800885Y-155539911D01*
X224800885Y-155539911D02*
X225018599Y-155539911D01*
X225018599Y-155539911D02*
X225091171Y-155503626D01*
X225091171Y-155503626D02*
X225127456Y-155467340D01*
X224220314Y-155104483D02*
X224292885Y-155068197D01*
X224292885Y-155068197D02*
X224329171Y-155031911D01*
X224329171Y-155031911D02*
X224365457Y-154959340D01*
X224365457Y-154959340D02*
X224365457Y-154923054D01*
X224365457Y-154923054D02*
X224329171Y-154850483D01*
X224329171Y-154850483D02*
X224292885Y-154814197D01*
X224292885Y-154814197D02*
X224220314Y-154777911D01*
X224220314Y-154777911D02*
X224075171Y-154777911D01*
X224075171Y-154777911D02*
X224002600Y-154814197D01*
X224002600Y-154814197D02*
X223966314Y-154850483D01*
X223966314Y-154850483D02*
X223930028Y-154923054D01*
X223930028Y-154923054D02*
X223930028Y-154959340D01*
X223930028Y-154959340D02*
X223966314Y-155031911D01*
X223966314Y-155031911D02*
X224002600Y-155068197D01*
X224002600Y-155068197D02*
X224075171Y-155104483D01*
X224075171Y-155104483D02*
X224220314Y-155104483D01*
X224220314Y-155104483D02*
X224292885Y-155140768D01*
X224292885Y-155140768D02*
X224329171Y-155177054D01*
X224329171Y-155177054D02*
X224365457Y-155249626D01*
X224365457Y-155249626D02*
X224365457Y-155394768D01*
X224365457Y-155394768D02*
X224329171Y-155467340D01*
X224329171Y-155467340D02*
X224292885Y-155503626D01*
X224292885Y-155503626D02*
X224220314Y-155539911D01*
X224220314Y-155539911D02*
X224075171Y-155539911D01*
X224075171Y-155539911D02*
X224002600Y-155503626D01*
X224002600Y-155503626D02*
X223966314Y-155467340D01*
X223966314Y-155467340D02*
X223930028Y-155394768D01*
X223930028Y-155394768D02*
X223930028Y-155249626D01*
X223930028Y-155249626D02*
X223966314Y-155177054D01*
X223966314Y-155177054D02*
X224002600Y-155140768D01*
X224002600Y-155140768D02*
X224075171Y-155104483D01*
X194456340Y-173220743D02*
X194492626Y-173184457D01*
X194492626Y-173184457D02*
X194528911Y-173075600D01*
X194528911Y-173075600D02*
X194528911Y-173003028D01*
X194528911Y-173003028D02*
X194492626Y-172894171D01*
X194492626Y-172894171D02*
X194420054Y-172821600D01*
X194420054Y-172821600D02*
X194347483Y-172785314D01*
X194347483Y-172785314D02*
X194202340Y-172749028D01*
X194202340Y-172749028D02*
X194093483Y-172749028D01*
X194093483Y-172749028D02*
X193948340Y-172785314D01*
X193948340Y-172785314D02*
X193875768Y-172821600D01*
X193875768Y-172821600D02*
X193803197Y-172894171D01*
X193803197Y-172894171D02*
X193766911Y-173003028D01*
X193766911Y-173003028D02*
X193766911Y-173075600D01*
X193766911Y-173075600D02*
X193803197Y-173184457D01*
X193803197Y-173184457D02*
X193839483Y-173220743D01*
X193766911Y-173474743D02*
X193766911Y-173946457D01*
X193766911Y-173946457D02*
X194057197Y-173692457D01*
X194057197Y-173692457D02*
X194057197Y-173801314D01*
X194057197Y-173801314D02*
X194093483Y-173873886D01*
X194093483Y-173873886D02*
X194129768Y-173910171D01*
X194129768Y-173910171D02*
X194202340Y-173946457D01*
X194202340Y-173946457D02*
X194383768Y-173946457D01*
X194383768Y-173946457D02*
X194456340Y-173910171D01*
X194456340Y-173910171D02*
X194492626Y-173873886D01*
X194492626Y-173873886D02*
X194528911Y-173801314D01*
X194528911Y-173801314D02*
X194528911Y-173583600D01*
X194528911Y-173583600D02*
X194492626Y-173511028D01*
X194492626Y-173511028D02*
X194456340Y-173474743D01*
X193766911Y-174418171D02*
X193766911Y-174490742D01*
X193766911Y-174490742D02*
X193803197Y-174563314D01*
X193803197Y-174563314D02*
X193839483Y-174599600D01*
X193839483Y-174599600D02*
X193912054Y-174635885D01*
X193912054Y-174635885D02*
X194057197Y-174672171D01*
X194057197Y-174672171D02*
X194238626Y-174672171D01*
X194238626Y-174672171D02*
X194383768Y-174635885D01*
X194383768Y-174635885D02*
X194456340Y-174599600D01*
X194456340Y-174599600D02*
X194492626Y-174563314D01*
X194492626Y-174563314D02*
X194528911Y-174490742D01*
X194528911Y-174490742D02*
X194528911Y-174418171D01*
X194528911Y-174418171D02*
X194492626Y-174345600D01*
X194492626Y-174345600D02*
X194456340Y-174309314D01*
X194456340Y-174309314D02*
X194383768Y-174273028D01*
X194383768Y-174273028D02*
X194238626Y-174236742D01*
X194238626Y-174236742D02*
X194057197Y-174236742D01*
X194057197Y-174236742D02*
X193912054Y-174273028D01*
X193912054Y-174273028D02*
X193839483Y-174309314D01*
X193839483Y-174309314D02*
X193803197Y-174345600D01*
X193803197Y-174345600D02*
X193766911Y-174418171D01*
X183547656Y-159963140D02*
X183583942Y-159999426D01*
X183583942Y-159999426D02*
X183692799Y-160035711D01*
X183692799Y-160035711D02*
X183765371Y-160035711D01*
X183765371Y-160035711D02*
X183874228Y-159999426D01*
X183874228Y-159999426D02*
X183946799Y-159926854D01*
X183946799Y-159926854D02*
X183983085Y-159854283D01*
X183983085Y-159854283D02*
X184019371Y-159709140D01*
X184019371Y-159709140D02*
X184019371Y-159600283D01*
X184019371Y-159600283D02*
X183983085Y-159455140D01*
X183983085Y-159455140D02*
X183946799Y-159382568D01*
X183946799Y-159382568D02*
X183874228Y-159309997D01*
X183874228Y-159309997D02*
X183765371Y-159273711D01*
X183765371Y-159273711D02*
X183692799Y-159273711D01*
X183692799Y-159273711D02*
X183583942Y-159309997D01*
X183583942Y-159309997D02*
X183547656Y-159346283D01*
X182894514Y-159527711D02*
X182894514Y-160035711D01*
X183075942Y-159237426D02*
X183257371Y-159781711D01*
X183257371Y-159781711D02*
X182785656Y-159781711D01*
X182350228Y-159273711D02*
X182277657Y-159273711D01*
X182277657Y-159273711D02*
X182205085Y-159309997D01*
X182205085Y-159309997D02*
X182168800Y-159346283D01*
X182168800Y-159346283D02*
X182132514Y-159418854D01*
X182132514Y-159418854D02*
X182096228Y-159563997D01*
X182096228Y-159563997D02*
X182096228Y-159745426D01*
X182096228Y-159745426D02*
X182132514Y-159890568D01*
X182132514Y-159890568D02*
X182168800Y-159963140D01*
X182168800Y-159963140D02*
X182205085Y-159999426D01*
X182205085Y-159999426D02*
X182277657Y-160035711D01*
X182277657Y-160035711D02*
X182350228Y-160035711D01*
X182350228Y-160035711D02*
X182422800Y-159999426D01*
X182422800Y-159999426D02*
X182459085Y-159963140D01*
X182459085Y-159963140D02*
X182495371Y-159890568D01*
X182495371Y-159890568D02*
X182531657Y-159745426D01*
X182531657Y-159745426D02*
X182531657Y-159563997D01*
X182531657Y-159563997D02*
X182495371Y-159418854D01*
X182495371Y-159418854D02*
X182459085Y-159346283D01*
X182459085Y-159346283D02*
X182422800Y-159309997D01*
X182422800Y-159309997D02*
X182350228Y-159273711D01*
X225381456Y-163718711D02*
X225635456Y-163355854D01*
X225816885Y-163718711D02*
X225816885Y-162956711D01*
X225816885Y-162956711D02*
X225526599Y-162956711D01*
X225526599Y-162956711D02*
X225454028Y-162992997D01*
X225454028Y-162992997D02*
X225417742Y-163029283D01*
X225417742Y-163029283D02*
X225381456Y-163101854D01*
X225381456Y-163101854D02*
X225381456Y-163210711D01*
X225381456Y-163210711D02*
X225417742Y-163283283D01*
X225417742Y-163283283D02*
X225454028Y-163319568D01*
X225454028Y-163319568D02*
X225526599Y-163355854D01*
X225526599Y-163355854D02*
X225816885Y-163355854D01*
X224728314Y-163210711D02*
X224728314Y-163718711D01*
X224909742Y-162920426D02*
X225091171Y-163464711D01*
X225091171Y-163464711D02*
X224619456Y-163464711D01*
X223930028Y-163718711D02*
X224365457Y-163718711D01*
X224147742Y-163718711D02*
X224147742Y-162956711D01*
X224147742Y-162956711D02*
X224220314Y-163065568D01*
X224220314Y-163065568D02*
X224292885Y-163138140D01*
X224292885Y-163138140D02*
X224365457Y-163174426D01*
X225381456Y-161635911D02*
X225635456Y-161273054D01*
X225816885Y-161635911D02*
X225816885Y-160873911D01*
X225816885Y-160873911D02*
X225526599Y-160873911D01*
X225526599Y-160873911D02*
X225454028Y-160910197D01*
X225454028Y-160910197D02*
X225417742Y-160946483D01*
X225417742Y-160946483D02*
X225381456Y-161019054D01*
X225381456Y-161019054D02*
X225381456Y-161127911D01*
X225381456Y-161127911D02*
X225417742Y-161200483D01*
X225417742Y-161200483D02*
X225454028Y-161236768D01*
X225454028Y-161236768D02*
X225526599Y-161273054D01*
X225526599Y-161273054D02*
X225816885Y-161273054D01*
X224728314Y-161127911D02*
X224728314Y-161635911D01*
X224909742Y-160837626D02*
X225091171Y-161381911D01*
X225091171Y-161381911D02*
X224619456Y-161381911D01*
X224184028Y-160873911D02*
X224111457Y-160873911D01*
X224111457Y-160873911D02*
X224038885Y-160910197D01*
X224038885Y-160910197D02*
X224002600Y-160946483D01*
X224002600Y-160946483D02*
X223966314Y-161019054D01*
X223966314Y-161019054D02*
X223930028Y-161164197D01*
X223930028Y-161164197D02*
X223930028Y-161345626D01*
X223930028Y-161345626D02*
X223966314Y-161490768D01*
X223966314Y-161490768D02*
X224002600Y-161563340D01*
X224002600Y-161563340D02*
X224038885Y-161599626D01*
X224038885Y-161599626D02*
X224111457Y-161635911D01*
X224111457Y-161635911D02*
X224184028Y-161635911D01*
X224184028Y-161635911D02*
X224256600Y-161599626D01*
X224256600Y-161599626D02*
X224292885Y-161563340D01*
X224292885Y-161563340D02*
X224329171Y-161490768D01*
X224329171Y-161490768D02*
X224365457Y-161345626D01*
X224365457Y-161345626D02*
X224365457Y-161164197D01*
X224365457Y-161164197D02*
X224329171Y-161019054D01*
X224329171Y-161019054D02*
X224292885Y-160946483D01*
X224292885Y-160946483D02*
X224256600Y-160910197D01*
X224256600Y-160910197D02*
X224184028Y-160873911D01*
X183547656Y-144389311D02*
X183801656Y-144026454D01*
X183983085Y-144389311D02*
X183983085Y-143627311D01*
X183983085Y-143627311D02*
X183692799Y-143627311D01*
X183692799Y-143627311D02*
X183620228Y-143663597D01*
X183620228Y-143663597D02*
X183583942Y-143699883D01*
X183583942Y-143699883D02*
X183547656Y-143772454D01*
X183547656Y-143772454D02*
X183547656Y-143881311D01*
X183547656Y-143881311D02*
X183583942Y-143953883D01*
X183583942Y-143953883D02*
X183620228Y-143990168D01*
X183620228Y-143990168D02*
X183692799Y-144026454D01*
X183692799Y-144026454D02*
X183983085Y-144026454D01*
X183112228Y-143953883D02*
X183184799Y-143917597D01*
X183184799Y-143917597D02*
X183221085Y-143881311D01*
X183221085Y-143881311D02*
X183257371Y-143808740D01*
X183257371Y-143808740D02*
X183257371Y-143772454D01*
X183257371Y-143772454D02*
X183221085Y-143699883D01*
X183221085Y-143699883D02*
X183184799Y-143663597D01*
X183184799Y-143663597D02*
X183112228Y-143627311D01*
X183112228Y-143627311D02*
X182967085Y-143627311D01*
X182967085Y-143627311D02*
X182894514Y-143663597D01*
X182894514Y-143663597D02*
X182858228Y-143699883D01*
X182858228Y-143699883D02*
X182821942Y-143772454D01*
X182821942Y-143772454D02*
X182821942Y-143808740D01*
X182821942Y-143808740D02*
X182858228Y-143881311D01*
X182858228Y-143881311D02*
X182894514Y-143917597D01*
X182894514Y-143917597D02*
X182967085Y-143953883D01*
X182967085Y-143953883D02*
X183112228Y-143953883D01*
X183112228Y-143953883D02*
X183184799Y-143990168D01*
X183184799Y-143990168D02*
X183221085Y-144026454D01*
X183221085Y-144026454D02*
X183257371Y-144099026D01*
X183257371Y-144099026D02*
X183257371Y-144244168D01*
X183257371Y-144244168D02*
X183221085Y-144316740D01*
X183221085Y-144316740D02*
X183184799Y-144353026D01*
X183184799Y-144353026D02*
X183112228Y-144389311D01*
X183112228Y-144389311D02*
X182967085Y-144389311D01*
X182967085Y-144389311D02*
X182894514Y-144353026D01*
X182894514Y-144353026D02*
X182858228Y-144316740D01*
X182858228Y-144316740D02*
X182821942Y-144244168D01*
X182821942Y-144244168D02*
X182821942Y-144099026D01*
X182821942Y-144099026D02*
X182858228Y-144026454D01*
X182858228Y-144026454D02*
X182894514Y-143990168D01*
X182894514Y-143990168D02*
X182967085Y-143953883D01*
X182350228Y-143627311D02*
X182277657Y-143627311D01*
X182277657Y-143627311D02*
X182205085Y-143663597D01*
X182205085Y-143663597D02*
X182168800Y-143699883D01*
X182168800Y-143699883D02*
X182132514Y-143772454D01*
X182132514Y-143772454D02*
X182096228Y-143917597D01*
X182096228Y-143917597D02*
X182096228Y-144099026D01*
X182096228Y-144099026D02*
X182132514Y-144244168D01*
X182132514Y-144244168D02*
X182168800Y-144316740D01*
X182168800Y-144316740D02*
X182205085Y-144353026D01*
X182205085Y-144353026D02*
X182277657Y-144389311D01*
X182277657Y-144389311D02*
X182350228Y-144389311D01*
X182350228Y-144389311D02*
X182422800Y-144353026D01*
X182422800Y-144353026D02*
X182459085Y-144316740D01*
X182459085Y-144316740D02*
X182495371Y-144244168D01*
X182495371Y-144244168D02*
X182531657Y-144099026D01*
X182531657Y-144099026D02*
X182531657Y-143917597D01*
X182531657Y-143917597D02*
X182495371Y-143772454D01*
X182495371Y-143772454D02*
X182459085Y-143699883D01*
X182459085Y-143699883D02*
X182422800Y-143663597D01*
X182422800Y-143663597D02*
X182350228Y-143627311D01*
X183547656Y-133162511D02*
X183801656Y-132799654D01*
X183983085Y-133162511D02*
X183983085Y-132400511D01*
X183983085Y-132400511D02*
X183692799Y-132400511D01*
X183692799Y-132400511D02*
X183620228Y-132436797D01*
X183620228Y-132436797D02*
X183583942Y-132473083D01*
X183583942Y-132473083D02*
X183547656Y-132545654D01*
X183547656Y-132545654D02*
X183547656Y-132654511D01*
X183547656Y-132654511D02*
X183583942Y-132727083D01*
X183583942Y-132727083D02*
X183620228Y-132763368D01*
X183620228Y-132763368D02*
X183692799Y-132799654D01*
X183692799Y-132799654D02*
X183983085Y-132799654D01*
X183293656Y-132400511D02*
X182785656Y-132400511D01*
X182785656Y-132400511D02*
X183112228Y-133162511D01*
X182567942Y-132400511D02*
X182059942Y-132400511D01*
X182059942Y-132400511D02*
X182386514Y-133162511D01*
X218040856Y-80254311D02*
X218294856Y-79891454D01*
X218476285Y-80254311D02*
X218476285Y-79492311D01*
X218476285Y-79492311D02*
X218185999Y-79492311D01*
X218185999Y-79492311D02*
X218113428Y-79528597D01*
X218113428Y-79528597D02*
X218077142Y-79564883D01*
X218077142Y-79564883D02*
X218040856Y-79637454D01*
X218040856Y-79637454D02*
X218040856Y-79746311D01*
X218040856Y-79746311D02*
X218077142Y-79818883D01*
X218077142Y-79818883D02*
X218113428Y-79855168D01*
X218113428Y-79855168D02*
X218185999Y-79891454D01*
X218185999Y-79891454D02*
X218476285Y-79891454D01*
X217387714Y-79746311D02*
X217387714Y-80254311D01*
X217569142Y-79456026D02*
X217750571Y-80000311D01*
X217750571Y-80000311D02*
X217278856Y-80000311D01*
X217061142Y-79492311D02*
X216589428Y-79492311D01*
X216589428Y-79492311D02*
X216843428Y-79782597D01*
X216843428Y-79782597D02*
X216734571Y-79782597D01*
X216734571Y-79782597D02*
X216662000Y-79818883D01*
X216662000Y-79818883D02*
X216625714Y-79855168D01*
X216625714Y-79855168D02*
X216589428Y-79927740D01*
X216589428Y-79927740D02*
X216589428Y-80109168D01*
X216589428Y-80109168D02*
X216625714Y-80181740D01*
X216625714Y-80181740D02*
X216662000Y-80218026D01*
X216662000Y-80218026D02*
X216734571Y-80254311D01*
X216734571Y-80254311D02*
X216952285Y-80254311D01*
X216952285Y-80254311D02*
X217024857Y-80218026D01*
X217024857Y-80218026D02*
X217061142Y-80181740D01*
X194788971Y-124472083D02*
X194861542Y-124435797D01*
X194861542Y-124435797D02*
X194934114Y-124363226D01*
X194934114Y-124363226D02*
X195042971Y-124254368D01*
X195042971Y-124254368D02*
X195115542Y-124218083D01*
X195115542Y-124218083D02*
X195188114Y-124218083D01*
X195151828Y-124399511D02*
X195224400Y-124363226D01*
X195224400Y-124363226D02*
X195296971Y-124290654D01*
X195296971Y-124290654D02*
X195333257Y-124145511D01*
X195333257Y-124145511D02*
X195333257Y-123891511D01*
X195333257Y-123891511D02*
X195296971Y-123746368D01*
X195296971Y-123746368D02*
X195224400Y-123673797D01*
X195224400Y-123673797D02*
X195151828Y-123637511D01*
X195151828Y-123637511D02*
X195006685Y-123637511D01*
X195006685Y-123637511D02*
X194934114Y-123673797D01*
X194934114Y-123673797D02*
X194861542Y-123746368D01*
X194861542Y-123746368D02*
X194825257Y-123891511D01*
X194825257Y-123891511D02*
X194825257Y-124145511D01*
X194825257Y-124145511D02*
X194861542Y-124290654D01*
X194861542Y-124290654D02*
X194934114Y-124363226D01*
X194934114Y-124363226D02*
X195006685Y-124399511D01*
X195006685Y-124399511D02*
X195151828Y-124399511D01*
X194172114Y-123891511D02*
X194172114Y-124399511D01*
X194353542Y-123601226D02*
X194534971Y-124145511D01*
X194534971Y-124145511D02*
X194063256Y-124145511D01*
X208134856Y-95748340D02*
X208171142Y-95784626D01*
X208171142Y-95784626D02*
X208279999Y-95820911D01*
X208279999Y-95820911D02*
X208352571Y-95820911D01*
X208352571Y-95820911D02*
X208461428Y-95784626D01*
X208461428Y-95784626D02*
X208533999Y-95712054D01*
X208533999Y-95712054D02*
X208570285Y-95639483D01*
X208570285Y-95639483D02*
X208606571Y-95494340D01*
X208606571Y-95494340D02*
X208606571Y-95385483D01*
X208606571Y-95385483D02*
X208570285Y-95240340D01*
X208570285Y-95240340D02*
X208533999Y-95167768D01*
X208533999Y-95167768D02*
X208461428Y-95095197D01*
X208461428Y-95095197D02*
X208352571Y-95058911D01*
X208352571Y-95058911D02*
X208279999Y-95058911D01*
X208279999Y-95058911D02*
X208171142Y-95095197D01*
X208171142Y-95095197D02*
X208134856Y-95131483D01*
X207844571Y-95131483D02*
X207808285Y-95095197D01*
X207808285Y-95095197D02*
X207735714Y-95058911D01*
X207735714Y-95058911D02*
X207554285Y-95058911D01*
X207554285Y-95058911D02*
X207481714Y-95095197D01*
X207481714Y-95095197D02*
X207445428Y-95131483D01*
X207445428Y-95131483D02*
X207409142Y-95204054D01*
X207409142Y-95204054D02*
X207409142Y-95276626D01*
X207409142Y-95276626D02*
X207445428Y-95385483D01*
X207445428Y-95385483D02*
X207880856Y-95820911D01*
X207880856Y-95820911D02*
X207409142Y-95820911D01*
X206719714Y-95058911D02*
X207082571Y-95058911D01*
X207082571Y-95058911D02*
X207118857Y-95421768D01*
X207118857Y-95421768D02*
X207082571Y-95385483D01*
X207082571Y-95385483D02*
X207010000Y-95349197D01*
X207010000Y-95349197D02*
X206828571Y-95349197D01*
X206828571Y-95349197D02*
X206756000Y-95385483D01*
X206756000Y-95385483D02*
X206719714Y-95421768D01*
X206719714Y-95421768D02*
X206683428Y-95494340D01*
X206683428Y-95494340D02*
X206683428Y-95675768D01*
X206683428Y-95675768D02*
X206719714Y-95748340D01*
X206719714Y-95748340D02*
X206756000Y-95784626D01*
X206756000Y-95784626D02*
X206828571Y-95820911D01*
X206828571Y-95820911D02*
X207010000Y-95820911D01*
X207010000Y-95820911D02*
X207082571Y-95784626D01*
X207082571Y-95784626D02*
X207118857Y-95748340D01*
X218040856Y-87573140D02*
X218077142Y-87609426D01*
X218077142Y-87609426D02*
X218185999Y-87645711D01*
X218185999Y-87645711D02*
X218258571Y-87645711D01*
X218258571Y-87645711D02*
X218367428Y-87609426D01*
X218367428Y-87609426D02*
X218439999Y-87536854D01*
X218439999Y-87536854D02*
X218476285Y-87464283D01*
X218476285Y-87464283D02*
X218512571Y-87319140D01*
X218512571Y-87319140D02*
X218512571Y-87210283D01*
X218512571Y-87210283D02*
X218476285Y-87065140D01*
X218476285Y-87065140D02*
X218439999Y-86992568D01*
X218439999Y-86992568D02*
X218367428Y-86919997D01*
X218367428Y-86919997D02*
X218258571Y-86883711D01*
X218258571Y-86883711D02*
X218185999Y-86883711D01*
X218185999Y-86883711D02*
X218077142Y-86919997D01*
X218077142Y-86919997D02*
X218040856Y-86956283D01*
X217315142Y-87645711D02*
X217750571Y-87645711D01*
X217532856Y-87645711D02*
X217532856Y-86883711D01*
X217532856Y-86883711D02*
X217605428Y-86992568D01*
X217605428Y-86992568D02*
X217677999Y-87065140D01*
X217677999Y-87065140D02*
X217750571Y-87101426D01*
X216662000Y-87137711D02*
X216662000Y-87645711D01*
X216843428Y-86847426D02*
X217024857Y-87391711D01*
X217024857Y-87391711D02*
X216553142Y-87391711D01*
X183547656Y-136667711D02*
X183801656Y-136304854D01*
X183983085Y-136667711D02*
X183983085Y-135905711D01*
X183983085Y-135905711D02*
X183692799Y-135905711D01*
X183692799Y-135905711D02*
X183620228Y-135941997D01*
X183620228Y-135941997D02*
X183583942Y-135978283D01*
X183583942Y-135978283D02*
X183547656Y-136050854D01*
X183547656Y-136050854D02*
X183547656Y-136159711D01*
X183547656Y-136159711D02*
X183583942Y-136232283D01*
X183583942Y-136232283D02*
X183620228Y-136268568D01*
X183620228Y-136268568D02*
X183692799Y-136304854D01*
X183692799Y-136304854D02*
X183983085Y-136304854D01*
X183293656Y-135905711D02*
X182785656Y-135905711D01*
X182785656Y-135905711D02*
X183112228Y-136667711D01*
X182386514Y-136232283D02*
X182459085Y-136195997D01*
X182459085Y-136195997D02*
X182495371Y-136159711D01*
X182495371Y-136159711D02*
X182531657Y-136087140D01*
X182531657Y-136087140D02*
X182531657Y-136050854D01*
X182531657Y-136050854D02*
X182495371Y-135978283D01*
X182495371Y-135978283D02*
X182459085Y-135941997D01*
X182459085Y-135941997D02*
X182386514Y-135905711D01*
X182386514Y-135905711D02*
X182241371Y-135905711D01*
X182241371Y-135905711D02*
X182168800Y-135941997D01*
X182168800Y-135941997D02*
X182132514Y-135978283D01*
X182132514Y-135978283D02*
X182096228Y-136050854D01*
X182096228Y-136050854D02*
X182096228Y-136087140D01*
X182096228Y-136087140D02*
X182132514Y-136159711D01*
X182132514Y-136159711D02*
X182168800Y-136195997D01*
X182168800Y-136195997D02*
X182241371Y-136232283D01*
X182241371Y-136232283D02*
X182386514Y-136232283D01*
X182386514Y-136232283D02*
X182459085Y-136268568D01*
X182459085Y-136268568D02*
X182495371Y-136304854D01*
X182495371Y-136304854D02*
X182531657Y-136377426D01*
X182531657Y-136377426D02*
X182531657Y-136522568D01*
X182531657Y-136522568D02*
X182495371Y-136595140D01*
X182495371Y-136595140D02*
X182459085Y-136631426D01*
X182459085Y-136631426D02*
X182386514Y-136667711D01*
X182386514Y-136667711D02*
X182241371Y-136667711D01*
X182241371Y-136667711D02*
X182168800Y-136631426D01*
X182168800Y-136631426D02*
X182132514Y-136595140D01*
X182132514Y-136595140D02*
X182096228Y-136522568D01*
X182096228Y-136522568D02*
X182096228Y-136377426D01*
X182096228Y-136377426D02*
X182132514Y-136304854D01*
X182132514Y-136304854D02*
X182168800Y-136268568D01*
X182168800Y-136268568D02*
X182241371Y-136232283D01*
X191421656Y-89147940D02*
X191457942Y-89184226D01*
X191457942Y-89184226D02*
X191566799Y-89220511D01*
X191566799Y-89220511D02*
X191639371Y-89220511D01*
X191639371Y-89220511D02*
X191748228Y-89184226D01*
X191748228Y-89184226D02*
X191820799Y-89111654D01*
X191820799Y-89111654D02*
X191857085Y-89039083D01*
X191857085Y-89039083D02*
X191893371Y-88893940D01*
X191893371Y-88893940D02*
X191893371Y-88785083D01*
X191893371Y-88785083D02*
X191857085Y-88639940D01*
X191857085Y-88639940D02*
X191820799Y-88567368D01*
X191820799Y-88567368D02*
X191748228Y-88494797D01*
X191748228Y-88494797D02*
X191639371Y-88458511D01*
X191639371Y-88458511D02*
X191566799Y-88458511D01*
X191566799Y-88458511D02*
X191457942Y-88494797D01*
X191457942Y-88494797D02*
X191421656Y-88531083D01*
X191167656Y-88458511D02*
X190695942Y-88458511D01*
X190695942Y-88458511D02*
X190949942Y-88748797D01*
X190949942Y-88748797D02*
X190841085Y-88748797D01*
X190841085Y-88748797D02*
X190768514Y-88785083D01*
X190768514Y-88785083D02*
X190732228Y-88821368D01*
X190732228Y-88821368D02*
X190695942Y-88893940D01*
X190695942Y-88893940D02*
X190695942Y-89075368D01*
X190695942Y-89075368D02*
X190732228Y-89147940D01*
X190732228Y-89147940D02*
X190768514Y-89184226D01*
X190768514Y-89184226D02*
X190841085Y-89220511D01*
X190841085Y-89220511D02*
X191058799Y-89220511D01*
X191058799Y-89220511D02*
X191131371Y-89184226D01*
X191131371Y-89184226D02*
X191167656Y-89147940D01*
X190405657Y-88531083D02*
X190369371Y-88494797D01*
X190369371Y-88494797D02*
X190296800Y-88458511D01*
X190296800Y-88458511D02*
X190115371Y-88458511D01*
X190115371Y-88458511D02*
X190042800Y-88494797D01*
X190042800Y-88494797D02*
X190006514Y-88531083D01*
X190006514Y-88531083D02*
X189970228Y-88603654D01*
X189970228Y-88603654D02*
X189970228Y-88676226D01*
X189970228Y-88676226D02*
X190006514Y-88785083D01*
X190006514Y-88785083D02*
X190441942Y-89220511D01*
X190441942Y-89220511D02*
X189970228Y-89220511D01*
X225381456Y-151526711D02*
X225635456Y-151163854D01*
X225816885Y-151526711D02*
X225816885Y-150764711D01*
X225816885Y-150764711D02*
X225526599Y-150764711D01*
X225526599Y-150764711D02*
X225454028Y-150800997D01*
X225454028Y-150800997D02*
X225417742Y-150837283D01*
X225417742Y-150837283D02*
X225381456Y-150909854D01*
X225381456Y-150909854D02*
X225381456Y-151018711D01*
X225381456Y-151018711D02*
X225417742Y-151091283D01*
X225417742Y-151091283D02*
X225454028Y-151127568D01*
X225454028Y-151127568D02*
X225526599Y-151163854D01*
X225526599Y-151163854D02*
X225816885Y-151163854D01*
X225127456Y-150764711D02*
X224655742Y-150764711D01*
X224655742Y-150764711D02*
X224909742Y-151054997D01*
X224909742Y-151054997D02*
X224800885Y-151054997D01*
X224800885Y-151054997D02*
X224728314Y-151091283D01*
X224728314Y-151091283D02*
X224692028Y-151127568D01*
X224692028Y-151127568D02*
X224655742Y-151200140D01*
X224655742Y-151200140D02*
X224655742Y-151381568D01*
X224655742Y-151381568D02*
X224692028Y-151454140D01*
X224692028Y-151454140D02*
X224728314Y-151490426D01*
X224728314Y-151490426D02*
X224800885Y-151526711D01*
X224800885Y-151526711D02*
X225018599Y-151526711D01*
X225018599Y-151526711D02*
X225091171Y-151490426D01*
X225091171Y-151490426D02*
X225127456Y-151454140D01*
X224401742Y-150764711D02*
X223893742Y-150764711D01*
X223893742Y-150764711D02*
X224220314Y-151526711D01*
X203323371Y-124446683D02*
X203395942Y-124410397D01*
X203395942Y-124410397D02*
X203468514Y-124337826D01*
X203468514Y-124337826D02*
X203577371Y-124228968D01*
X203577371Y-124228968D02*
X203649942Y-124192683D01*
X203649942Y-124192683D02*
X203722514Y-124192683D01*
X203686228Y-124374111D02*
X203758800Y-124337826D01*
X203758800Y-124337826D02*
X203831371Y-124265254D01*
X203831371Y-124265254D02*
X203867657Y-124120111D01*
X203867657Y-124120111D02*
X203867657Y-123866111D01*
X203867657Y-123866111D02*
X203831371Y-123720968D01*
X203831371Y-123720968D02*
X203758800Y-123648397D01*
X203758800Y-123648397D02*
X203686228Y-123612111D01*
X203686228Y-123612111D02*
X203541085Y-123612111D01*
X203541085Y-123612111D02*
X203468514Y-123648397D01*
X203468514Y-123648397D02*
X203395942Y-123720968D01*
X203395942Y-123720968D02*
X203359657Y-123866111D01*
X203359657Y-123866111D02*
X203359657Y-124120111D01*
X203359657Y-124120111D02*
X203395942Y-124265254D01*
X203395942Y-124265254D02*
X203468514Y-124337826D01*
X203468514Y-124337826D02*
X203541085Y-124374111D01*
X203541085Y-124374111D02*
X203686228Y-124374111D01*
X203105656Y-123612111D02*
X202633942Y-123612111D01*
X202633942Y-123612111D02*
X202887942Y-123902397D01*
X202887942Y-123902397D02*
X202779085Y-123902397D01*
X202779085Y-123902397D02*
X202706514Y-123938683D01*
X202706514Y-123938683D02*
X202670228Y-123974968D01*
X202670228Y-123974968D02*
X202633942Y-124047540D01*
X202633942Y-124047540D02*
X202633942Y-124228968D01*
X202633942Y-124228968D02*
X202670228Y-124301540D01*
X202670228Y-124301540D02*
X202706514Y-124337826D01*
X202706514Y-124337826D02*
X202779085Y-124374111D01*
X202779085Y-124374111D02*
X202996799Y-124374111D01*
X202996799Y-124374111D02*
X203069371Y-124337826D01*
X203069371Y-124337826D02*
X203105656Y-124301540D01*
X206162111Y-173220743D02*
X205799254Y-172966743D01*
X206162111Y-172785314D02*
X205400111Y-172785314D01*
X205400111Y-172785314D02*
X205400111Y-173075600D01*
X205400111Y-173075600D02*
X205436397Y-173148171D01*
X205436397Y-173148171D02*
X205472683Y-173184457D01*
X205472683Y-173184457D02*
X205545254Y-173220743D01*
X205545254Y-173220743D02*
X205654111Y-173220743D01*
X205654111Y-173220743D02*
X205726683Y-173184457D01*
X205726683Y-173184457D02*
X205762968Y-173148171D01*
X205762968Y-173148171D02*
X205799254Y-173075600D01*
X205799254Y-173075600D02*
X205799254Y-172785314D01*
X205400111Y-173910171D02*
X205400111Y-173547314D01*
X205400111Y-173547314D02*
X205762968Y-173511028D01*
X205762968Y-173511028D02*
X205726683Y-173547314D01*
X205726683Y-173547314D02*
X205690397Y-173619886D01*
X205690397Y-173619886D02*
X205690397Y-173801314D01*
X205690397Y-173801314D02*
X205726683Y-173873886D01*
X205726683Y-173873886D02*
X205762968Y-173910171D01*
X205762968Y-173910171D02*
X205835540Y-173946457D01*
X205835540Y-173946457D02*
X206016968Y-173946457D01*
X206016968Y-173946457D02*
X206089540Y-173910171D01*
X206089540Y-173910171D02*
X206125826Y-173873886D01*
X206125826Y-173873886D02*
X206162111Y-173801314D01*
X206162111Y-173801314D02*
X206162111Y-173619886D01*
X206162111Y-173619886D02*
X206125826Y-173547314D01*
X206125826Y-173547314D02*
X206089540Y-173511028D01*
X205400111Y-174200457D02*
X205400111Y-174708457D01*
X205400111Y-174708457D02*
X206162111Y-174381885D01*
X217338111Y-173220743D02*
X216975254Y-172966743D01*
X217338111Y-172785314D02*
X216576111Y-172785314D01*
X216576111Y-172785314D02*
X216576111Y-173075600D01*
X216576111Y-173075600D02*
X216612397Y-173148171D01*
X216612397Y-173148171D02*
X216648683Y-173184457D01*
X216648683Y-173184457D02*
X216721254Y-173220743D01*
X216721254Y-173220743D02*
X216830111Y-173220743D01*
X216830111Y-173220743D02*
X216902683Y-173184457D01*
X216902683Y-173184457D02*
X216938968Y-173148171D01*
X216938968Y-173148171D02*
X216975254Y-173075600D01*
X216975254Y-173075600D02*
X216975254Y-172785314D01*
X216576111Y-173910171D02*
X216576111Y-173547314D01*
X216576111Y-173547314D02*
X216938968Y-173511028D01*
X216938968Y-173511028D02*
X216902683Y-173547314D01*
X216902683Y-173547314D02*
X216866397Y-173619886D01*
X216866397Y-173619886D02*
X216866397Y-173801314D01*
X216866397Y-173801314D02*
X216902683Y-173873886D01*
X216902683Y-173873886D02*
X216938968Y-173910171D01*
X216938968Y-173910171D02*
X217011540Y-173946457D01*
X217011540Y-173946457D02*
X217192968Y-173946457D01*
X217192968Y-173946457D02*
X217265540Y-173910171D01*
X217265540Y-173910171D02*
X217301826Y-173873886D01*
X217301826Y-173873886D02*
X217338111Y-173801314D01*
X217338111Y-173801314D02*
X217338111Y-173619886D01*
X217338111Y-173619886D02*
X217301826Y-173547314D01*
X217301826Y-173547314D02*
X217265540Y-173511028D01*
X217338111Y-174672171D02*
X217338111Y-174236742D01*
X217338111Y-174454457D02*
X216576111Y-174454457D01*
X216576111Y-174454457D02*
X216684968Y-174381885D01*
X216684968Y-174381885D02*
X216757540Y-174309314D01*
X216757540Y-174309314D02*
X216793826Y-174236742D01*
X218040856Y-86252340D02*
X218077142Y-86288626D01*
X218077142Y-86288626D02*
X218185999Y-86324911D01*
X218185999Y-86324911D02*
X218258571Y-86324911D01*
X218258571Y-86324911D02*
X218367428Y-86288626D01*
X218367428Y-86288626D02*
X218439999Y-86216054D01*
X218439999Y-86216054D02*
X218476285Y-86143483D01*
X218476285Y-86143483D02*
X218512571Y-85998340D01*
X218512571Y-85998340D02*
X218512571Y-85889483D01*
X218512571Y-85889483D02*
X218476285Y-85744340D01*
X218476285Y-85744340D02*
X218439999Y-85671768D01*
X218439999Y-85671768D02*
X218367428Y-85599197D01*
X218367428Y-85599197D02*
X218258571Y-85562911D01*
X218258571Y-85562911D02*
X218185999Y-85562911D01*
X218185999Y-85562911D02*
X218077142Y-85599197D01*
X218077142Y-85599197D02*
X218040856Y-85635483D01*
X217315142Y-86324911D02*
X217750571Y-86324911D01*
X217532856Y-86324911D02*
X217532856Y-85562911D01*
X217532856Y-85562911D02*
X217605428Y-85671768D01*
X217605428Y-85671768D02*
X217677999Y-85744340D01*
X217677999Y-85744340D02*
X217750571Y-85780626D01*
X217061142Y-85562911D02*
X216589428Y-85562911D01*
X216589428Y-85562911D02*
X216843428Y-85853197D01*
X216843428Y-85853197D02*
X216734571Y-85853197D01*
X216734571Y-85853197D02*
X216662000Y-85889483D01*
X216662000Y-85889483D02*
X216625714Y-85925768D01*
X216625714Y-85925768D02*
X216589428Y-85998340D01*
X216589428Y-85998340D02*
X216589428Y-86179768D01*
X216589428Y-86179768D02*
X216625714Y-86252340D01*
X216625714Y-86252340D02*
X216662000Y-86288626D01*
X216662000Y-86288626D02*
X216734571Y-86324911D01*
X216734571Y-86324911D02*
X216952285Y-86324911D01*
X216952285Y-86324911D02*
X217024857Y-86288626D01*
X217024857Y-86288626D02*
X217061142Y-86252340D01*
X225381456Y-147411911D02*
X225635456Y-147049054D01*
X225816885Y-147411911D02*
X225816885Y-146649911D01*
X225816885Y-146649911D02*
X225526599Y-146649911D01*
X225526599Y-146649911D02*
X225454028Y-146686197D01*
X225454028Y-146686197D02*
X225417742Y-146722483D01*
X225417742Y-146722483D02*
X225381456Y-146795054D01*
X225381456Y-146795054D02*
X225381456Y-146903911D01*
X225381456Y-146903911D02*
X225417742Y-146976483D01*
X225417742Y-146976483D02*
X225454028Y-147012768D01*
X225454028Y-147012768D02*
X225526599Y-147049054D01*
X225526599Y-147049054D02*
X225816885Y-147049054D01*
X225127456Y-146649911D02*
X224655742Y-146649911D01*
X224655742Y-146649911D02*
X224909742Y-146940197D01*
X224909742Y-146940197D02*
X224800885Y-146940197D01*
X224800885Y-146940197D02*
X224728314Y-146976483D01*
X224728314Y-146976483D02*
X224692028Y-147012768D01*
X224692028Y-147012768D02*
X224655742Y-147085340D01*
X224655742Y-147085340D02*
X224655742Y-147266768D01*
X224655742Y-147266768D02*
X224692028Y-147339340D01*
X224692028Y-147339340D02*
X224728314Y-147375626D01*
X224728314Y-147375626D02*
X224800885Y-147411911D01*
X224800885Y-147411911D02*
X225018599Y-147411911D01*
X225018599Y-147411911D02*
X225091171Y-147375626D01*
X225091171Y-147375626D02*
X225127456Y-147339340D01*
X223966314Y-146649911D02*
X224329171Y-146649911D01*
X224329171Y-146649911D02*
X224365457Y-147012768D01*
X224365457Y-147012768D02*
X224329171Y-146976483D01*
X224329171Y-146976483D02*
X224256600Y-146940197D01*
X224256600Y-146940197D02*
X224075171Y-146940197D01*
X224075171Y-146940197D02*
X224002600Y-146976483D01*
X224002600Y-146976483D02*
X223966314Y-147012768D01*
X223966314Y-147012768D02*
X223930028Y-147085340D01*
X223930028Y-147085340D02*
X223930028Y-147266768D01*
X223930028Y-147266768D02*
X223966314Y-147339340D01*
X223966314Y-147339340D02*
X224002600Y-147375626D01*
X224002600Y-147375626D02*
X224075171Y-147411911D01*
X224075171Y-147411911D02*
X224256600Y-147411911D01*
X224256600Y-147411911D02*
X224329171Y-147375626D01*
X224329171Y-147375626D02*
X224365457Y-147339340D01*
X219844256Y-139922540D02*
X219880542Y-139958826D01*
X219880542Y-139958826D02*
X219989399Y-139995111D01*
X219989399Y-139995111D02*
X220061971Y-139995111D01*
X220061971Y-139995111D02*
X220170828Y-139958826D01*
X220170828Y-139958826D02*
X220243399Y-139886254D01*
X220243399Y-139886254D02*
X220279685Y-139813683D01*
X220279685Y-139813683D02*
X220315971Y-139668540D01*
X220315971Y-139668540D02*
X220315971Y-139559683D01*
X220315971Y-139559683D02*
X220279685Y-139414540D01*
X220279685Y-139414540D02*
X220243399Y-139341968D01*
X220243399Y-139341968D02*
X220170828Y-139269397D01*
X220170828Y-139269397D02*
X220061971Y-139233111D01*
X220061971Y-139233111D02*
X219989399Y-139233111D01*
X219989399Y-139233111D02*
X219880542Y-139269397D01*
X219880542Y-139269397D02*
X219844256Y-139305683D01*
X219553971Y-139305683D02*
X219517685Y-139269397D01*
X219517685Y-139269397D02*
X219445114Y-139233111D01*
X219445114Y-139233111D02*
X219263685Y-139233111D01*
X219263685Y-139233111D02*
X219191114Y-139269397D01*
X219191114Y-139269397D02*
X219154828Y-139305683D01*
X219154828Y-139305683D02*
X219118542Y-139378254D01*
X219118542Y-139378254D02*
X219118542Y-139450826D01*
X219118542Y-139450826D02*
X219154828Y-139559683D01*
X219154828Y-139559683D02*
X219590256Y-139995111D01*
X219590256Y-139995111D02*
X219118542Y-139995111D01*
X218828257Y-139305683D02*
X218791971Y-139269397D01*
X218791971Y-139269397D02*
X218719400Y-139233111D01*
X218719400Y-139233111D02*
X218537971Y-139233111D01*
X218537971Y-139233111D02*
X218465400Y-139269397D01*
X218465400Y-139269397D02*
X218429114Y-139305683D01*
X218429114Y-139305683D02*
X218392828Y-139378254D01*
X218392828Y-139378254D02*
X218392828Y-139450826D01*
X218392828Y-139450826D02*
X218429114Y-139559683D01*
X218429114Y-139559683D02*
X218864542Y-139995111D01*
X218864542Y-139995111D02*
X218392828Y-139995111D01*
X219395511Y-173220743D02*
X219032654Y-172966743D01*
X219395511Y-172785314D02*
X218633511Y-172785314D01*
X218633511Y-172785314D02*
X218633511Y-173075600D01*
X218633511Y-173075600D02*
X218669797Y-173148171D01*
X218669797Y-173148171D02*
X218706083Y-173184457D01*
X218706083Y-173184457D02*
X218778654Y-173220743D01*
X218778654Y-173220743D02*
X218887511Y-173220743D01*
X218887511Y-173220743D02*
X218960083Y-173184457D01*
X218960083Y-173184457D02*
X218996368Y-173148171D01*
X218996368Y-173148171D02*
X219032654Y-173075600D01*
X219032654Y-173075600D02*
X219032654Y-172785314D01*
X218887511Y-173873886D02*
X219395511Y-173873886D01*
X218597226Y-173692457D02*
X219141511Y-173511028D01*
X219141511Y-173511028D02*
X219141511Y-173982743D01*
X218633511Y-174599600D02*
X218633511Y-174454457D01*
X218633511Y-174454457D02*
X218669797Y-174381885D01*
X218669797Y-174381885D02*
X218706083Y-174345600D01*
X218706083Y-174345600D02*
X218814940Y-174273028D01*
X218814940Y-174273028D02*
X218960083Y-174236742D01*
X218960083Y-174236742D02*
X219250368Y-174236742D01*
X219250368Y-174236742D02*
X219322940Y-174273028D01*
X219322940Y-174273028D02*
X219359226Y-174309314D01*
X219359226Y-174309314D02*
X219395511Y-174381885D01*
X219395511Y-174381885D02*
X219395511Y-174527028D01*
X219395511Y-174527028D02*
X219359226Y-174599600D01*
X219359226Y-174599600D02*
X219322940Y-174635885D01*
X219322940Y-174635885D02*
X219250368Y-174672171D01*
X219250368Y-174672171D02*
X219068940Y-174672171D01*
X219068940Y-174672171D02*
X218996368Y-174635885D01*
X218996368Y-174635885D02*
X218960083Y-174599600D01*
X218960083Y-174599600D02*
X218923797Y-174527028D01*
X218923797Y-174527028D02*
X218923797Y-174381885D01*
X218923797Y-174381885D02*
X218960083Y-174309314D01*
X218960083Y-174309314D02*
X218996368Y-174273028D01*
X218996368Y-174273028D02*
X219068940Y-174236742D01*
X204578856Y-122545311D02*
X204832856Y-122182454D01*
X205014285Y-122545311D02*
X205014285Y-121783311D01*
X205014285Y-121783311D02*
X204723999Y-121783311D01*
X204723999Y-121783311D02*
X204651428Y-121819597D01*
X204651428Y-121819597D02*
X204615142Y-121855883D01*
X204615142Y-121855883D02*
X204578856Y-121928454D01*
X204578856Y-121928454D02*
X204578856Y-122037311D01*
X204578856Y-122037311D02*
X204615142Y-122109883D01*
X204615142Y-122109883D02*
X204651428Y-122146168D01*
X204651428Y-122146168D02*
X204723999Y-122182454D01*
X204723999Y-122182454D02*
X205014285Y-122182454D01*
X203925714Y-121783311D02*
X204070856Y-121783311D01*
X204070856Y-121783311D02*
X204143428Y-121819597D01*
X204143428Y-121819597D02*
X204179714Y-121855883D01*
X204179714Y-121855883D02*
X204252285Y-121964740D01*
X204252285Y-121964740D02*
X204288571Y-122109883D01*
X204288571Y-122109883D02*
X204288571Y-122400168D01*
X204288571Y-122400168D02*
X204252285Y-122472740D01*
X204252285Y-122472740D02*
X204215999Y-122509026D01*
X204215999Y-122509026D02*
X204143428Y-122545311D01*
X204143428Y-122545311D02*
X203998285Y-122545311D01*
X203998285Y-122545311D02*
X203925714Y-122509026D01*
X203925714Y-122509026D02*
X203889428Y-122472740D01*
X203889428Y-122472740D02*
X203853142Y-122400168D01*
X203853142Y-122400168D02*
X203853142Y-122218740D01*
X203853142Y-122218740D02*
X203889428Y-122146168D01*
X203889428Y-122146168D02*
X203925714Y-122109883D01*
X203925714Y-122109883D02*
X203998285Y-122073597D01*
X203998285Y-122073597D02*
X204143428Y-122073597D01*
X204143428Y-122073597D02*
X204215999Y-122109883D01*
X204215999Y-122109883D02*
X204252285Y-122146168D01*
X204252285Y-122146168D02*
X204288571Y-122218740D01*
X203127428Y-122545311D02*
X203562857Y-122545311D01*
X203345142Y-122545311D02*
X203345142Y-121783311D01*
X203345142Y-121783311D02*
X203417714Y-121892168D01*
X203417714Y-121892168D02*
X203490285Y-121964740D01*
X203490285Y-121964740D02*
X203562857Y-122001026D01*
X215729456Y-96383311D02*
X215983456Y-96020454D01*
X216164885Y-96383311D02*
X216164885Y-95621311D01*
X216164885Y-95621311D02*
X215874599Y-95621311D01*
X215874599Y-95621311D02*
X215802028Y-95657597D01*
X215802028Y-95657597D02*
X215765742Y-95693883D01*
X215765742Y-95693883D02*
X215729456Y-95766454D01*
X215729456Y-95766454D02*
X215729456Y-95875311D01*
X215729456Y-95875311D02*
X215765742Y-95947883D01*
X215765742Y-95947883D02*
X215802028Y-95984168D01*
X215802028Y-95984168D02*
X215874599Y-96020454D01*
X215874599Y-96020454D02*
X216164885Y-96020454D01*
X215076314Y-95875311D02*
X215076314Y-96383311D01*
X215257742Y-95585026D02*
X215439171Y-96129311D01*
X215439171Y-96129311D02*
X214967456Y-96129311D01*
X214749742Y-95621311D02*
X214241742Y-95621311D01*
X214241742Y-95621311D02*
X214568314Y-96383311D01*
X225381456Y-165725311D02*
X225635456Y-165362454D01*
X225816885Y-165725311D02*
X225816885Y-164963311D01*
X225816885Y-164963311D02*
X225526599Y-164963311D01*
X225526599Y-164963311D02*
X225454028Y-164999597D01*
X225454028Y-164999597D02*
X225417742Y-165035883D01*
X225417742Y-165035883D02*
X225381456Y-165108454D01*
X225381456Y-165108454D02*
X225381456Y-165217311D01*
X225381456Y-165217311D02*
X225417742Y-165289883D01*
X225417742Y-165289883D02*
X225454028Y-165326168D01*
X225454028Y-165326168D02*
X225526599Y-165362454D01*
X225526599Y-165362454D02*
X225816885Y-165362454D01*
X224728314Y-165217311D02*
X224728314Y-165725311D01*
X224909742Y-164927026D02*
X225091171Y-165471311D01*
X225091171Y-165471311D02*
X224619456Y-165471311D01*
X224365457Y-165035883D02*
X224329171Y-164999597D01*
X224329171Y-164999597D02*
X224256600Y-164963311D01*
X224256600Y-164963311D02*
X224075171Y-164963311D01*
X224075171Y-164963311D02*
X224002600Y-164999597D01*
X224002600Y-164999597D02*
X223966314Y-165035883D01*
X223966314Y-165035883D02*
X223930028Y-165108454D01*
X223930028Y-165108454D02*
X223930028Y-165181026D01*
X223930028Y-165181026D02*
X223966314Y-165289883D01*
X223966314Y-165289883D02*
X224401742Y-165725311D01*
X224401742Y-165725311D02*
X223930028Y-165725311D01*
X183547656Y-138703340D02*
X183583942Y-138739626D01*
X183583942Y-138739626D02*
X183692799Y-138775911D01*
X183692799Y-138775911D02*
X183765371Y-138775911D01*
X183765371Y-138775911D02*
X183874228Y-138739626D01*
X183874228Y-138739626D02*
X183946799Y-138667054D01*
X183946799Y-138667054D02*
X183983085Y-138594483D01*
X183983085Y-138594483D02*
X184019371Y-138449340D01*
X184019371Y-138449340D02*
X184019371Y-138340483D01*
X184019371Y-138340483D02*
X183983085Y-138195340D01*
X183983085Y-138195340D02*
X183946799Y-138122768D01*
X183946799Y-138122768D02*
X183874228Y-138050197D01*
X183874228Y-138050197D02*
X183765371Y-138013911D01*
X183765371Y-138013911D02*
X183692799Y-138013911D01*
X183692799Y-138013911D02*
X183583942Y-138050197D01*
X183583942Y-138050197D02*
X183547656Y-138086483D01*
X183293656Y-138013911D02*
X182821942Y-138013911D01*
X182821942Y-138013911D02*
X183075942Y-138304197D01*
X183075942Y-138304197D02*
X182967085Y-138304197D01*
X182967085Y-138304197D02*
X182894514Y-138340483D01*
X182894514Y-138340483D02*
X182858228Y-138376768D01*
X182858228Y-138376768D02*
X182821942Y-138449340D01*
X182821942Y-138449340D02*
X182821942Y-138630768D01*
X182821942Y-138630768D02*
X182858228Y-138703340D01*
X182858228Y-138703340D02*
X182894514Y-138739626D01*
X182894514Y-138739626D02*
X182967085Y-138775911D01*
X182967085Y-138775911D02*
X183184799Y-138775911D01*
X183184799Y-138775911D02*
X183257371Y-138739626D01*
X183257371Y-138739626D02*
X183293656Y-138703340D01*
X182567942Y-138013911D02*
X182059942Y-138013911D01*
X182059942Y-138013911D02*
X182386514Y-138775911D01*
X218040856Y-84292911D02*
X218294856Y-83930054D01*
X218476285Y-84292911D02*
X218476285Y-83530911D01*
X218476285Y-83530911D02*
X218185999Y-83530911D01*
X218185999Y-83530911D02*
X218113428Y-83567197D01*
X218113428Y-83567197D02*
X218077142Y-83603483D01*
X218077142Y-83603483D02*
X218040856Y-83676054D01*
X218040856Y-83676054D02*
X218040856Y-83784911D01*
X218040856Y-83784911D02*
X218077142Y-83857483D01*
X218077142Y-83857483D02*
X218113428Y-83893768D01*
X218113428Y-83893768D02*
X218185999Y-83930054D01*
X218185999Y-83930054D02*
X218476285Y-83930054D01*
X217387714Y-83784911D02*
X217387714Y-84292911D01*
X217569142Y-83494626D02*
X217750571Y-84038911D01*
X217750571Y-84038911D02*
X217278856Y-84038911D01*
X216625714Y-83530911D02*
X216988571Y-83530911D01*
X216988571Y-83530911D02*
X217024857Y-83893768D01*
X217024857Y-83893768D02*
X216988571Y-83857483D01*
X216988571Y-83857483D02*
X216916000Y-83821197D01*
X216916000Y-83821197D02*
X216734571Y-83821197D01*
X216734571Y-83821197D02*
X216662000Y-83857483D01*
X216662000Y-83857483D02*
X216625714Y-83893768D01*
X216625714Y-83893768D02*
X216589428Y-83966340D01*
X216589428Y-83966340D02*
X216589428Y-84147768D01*
X216589428Y-84147768D02*
X216625714Y-84220340D01*
X216625714Y-84220340D02*
X216662000Y-84256626D01*
X216662000Y-84256626D02*
X216734571Y-84292911D01*
X216734571Y-84292911D02*
X216916000Y-84292911D01*
X216916000Y-84292911D02*
X216988571Y-84256626D01*
X216988571Y-84256626D02*
X217024857Y-84220340D01*
X209772540Y-173220743D02*
X209808826Y-173184457D01*
X209808826Y-173184457D02*
X209845111Y-173075600D01*
X209845111Y-173075600D02*
X209845111Y-173003028D01*
X209845111Y-173003028D02*
X209808826Y-172894171D01*
X209808826Y-172894171D02*
X209736254Y-172821600D01*
X209736254Y-172821600D02*
X209663683Y-172785314D01*
X209663683Y-172785314D02*
X209518540Y-172749028D01*
X209518540Y-172749028D02*
X209409683Y-172749028D01*
X209409683Y-172749028D02*
X209264540Y-172785314D01*
X209264540Y-172785314D02*
X209191968Y-172821600D01*
X209191968Y-172821600D02*
X209119397Y-172894171D01*
X209119397Y-172894171D02*
X209083111Y-173003028D01*
X209083111Y-173003028D02*
X209083111Y-173075600D01*
X209083111Y-173075600D02*
X209119397Y-173184457D01*
X209119397Y-173184457D02*
X209155683Y-173220743D01*
X209155683Y-173511028D02*
X209119397Y-173547314D01*
X209119397Y-173547314D02*
X209083111Y-173619886D01*
X209083111Y-173619886D02*
X209083111Y-173801314D01*
X209083111Y-173801314D02*
X209119397Y-173873886D01*
X209119397Y-173873886D02*
X209155683Y-173910171D01*
X209155683Y-173910171D02*
X209228254Y-173946457D01*
X209228254Y-173946457D02*
X209300826Y-173946457D01*
X209300826Y-173946457D02*
X209409683Y-173910171D01*
X209409683Y-173910171D02*
X209845111Y-173474743D01*
X209845111Y-173474743D02*
X209845111Y-173946457D01*
X209337111Y-174599600D02*
X209845111Y-174599600D01*
X209046826Y-174418171D02*
X209591111Y-174236742D01*
X209591111Y-174236742D02*
X209591111Y-174708457D01*
X183547656Y-162118511D02*
X183801656Y-161755654D01*
X183983085Y-162118511D02*
X183983085Y-161356511D01*
X183983085Y-161356511D02*
X183692799Y-161356511D01*
X183692799Y-161356511D02*
X183620228Y-161392797D01*
X183620228Y-161392797D02*
X183583942Y-161429083D01*
X183583942Y-161429083D02*
X183547656Y-161501654D01*
X183547656Y-161501654D02*
X183547656Y-161610511D01*
X183547656Y-161610511D02*
X183583942Y-161683083D01*
X183583942Y-161683083D02*
X183620228Y-161719368D01*
X183620228Y-161719368D02*
X183692799Y-161755654D01*
X183692799Y-161755654D02*
X183983085Y-161755654D01*
X183112228Y-161683083D02*
X183184799Y-161646797D01*
X183184799Y-161646797D02*
X183221085Y-161610511D01*
X183221085Y-161610511D02*
X183257371Y-161537940D01*
X183257371Y-161537940D02*
X183257371Y-161501654D01*
X183257371Y-161501654D02*
X183221085Y-161429083D01*
X183221085Y-161429083D02*
X183184799Y-161392797D01*
X183184799Y-161392797D02*
X183112228Y-161356511D01*
X183112228Y-161356511D02*
X182967085Y-161356511D01*
X182967085Y-161356511D02*
X182894514Y-161392797D01*
X182894514Y-161392797D02*
X182858228Y-161429083D01*
X182858228Y-161429083D02*
X182821942Y-161501654D01*
X182821942Y-161501654D02*
X182821942Y-161537940D01*
X182821942Y-161537940D02*
X182858228Y-161610511D01*
X182858228Y-161610511D02*
X182894514Y-161646797D01*
X182894514Y-161646797D02*
X182967085Y-161683083D01*
X182967085Y-161683083D02*
X183112228Y-161683083D01*
X183112228Y-161683083D02*
X183184799Y-161719368D01*
X183184799Y-161719368D02*
X183221085Y-161755654D01*
X183221085Y-161755654D02*
X183257371Y-161828226D01*
X183257371Y-161828226D02*
X183257371Y-161973368D01*
X183257371Y-161973368D02*
X183221085Y-162045940D01*
X183221085Y-162045940D02*
X183184799Y-162082226D01*
X183184799Y-162082226D02*
X183112228Y-162118511D01*
X183112228Y-162118511D02*
X182967085Y-162118511D01*
X182967085Y-162118511D02*
X182894514Y-162082226D01*
X182894514Y-162082226D02*
X182858228Y-162045940D01*
X182858228Y-162045940D02*
X182821942Y-161973368D01*
X182821942Y-161973368D02*
X182821942Y-161828226D01*
X182821942Y-161828226D02*
X182858228Y-161755654D01*
X182858228Y-161755654D02*
X182894514Y-161719368D01*
X182894514Y-161719368D02*
X182967085Y-161683083D01*
X182132514Y-161356511D02*
X182495371Y-161356511D01*
X182495371Y-161356511D02*
X182531657Y-161719368D01*
X182531657Y-161719368D02*
X182495371Y-161683083D01*
X182495371Y-161683083D02*
X182422800Y-161646797D01*
X182422800Y-161646797D02*
X182241371Y-161646797D01*
X182241371Y-161646797D02*
X182168800Y-161683083D01*
X182168800Y-161683083D02*
X182132514Y-161719368D01*
X182132514Y-161719368D02*
X182096228Y-161791940D01*
X182096228Y-161791940D02*
X182096228Y-161973368D01*
X182096228Y-161973368D02*
X182132514Y-162045940D01*
X182132514Y-162045940D02*
X182168800Y-162082226D01*
X182168800Y-162082226D02*
X182241371Y-162118511D01*
X182241371Y-162118511D02*
X182422800Y-162118511D01*
X182422800Y-162118511D02*
X182495371Y-162082226D01*
X182495371Y-162082226D02*
X182531657Y-162045940D01*
X183547656Y-146272540D02*
X183583942Y-146308826D01*
X183583942Y-146308826D02*
X183692799Y-146345111D01*
X183692799Y-146345111D02*
X183765371Y-146345111D01*
X183765371Y-146345111D02*
X183874228Y-146308826D01*
X183874228Y-146308826D02*
X183946799Y-146236254D01*
X183946799Y-146236254D02*
X183983085Y-146163683D01*
X183983085Y-146163683D02*
X184019371Y-146018540D01*
X184019371Y-146018540D02*
X184019371Y-145909683D01*
X184019371Y-145909683D02*
X183983085Y-145764540D01*
X183983085Y-145764540D02*
X183946799Y-145691968D01*
X183946799Y-145691968D02*
X183874228Y-145619397D01*
X183874228Y-145619397D02*
X183765371Y-145583111D01*
X183765371Y-145583111D02*
X183692799Y-145583111D01*
X183692799Y-145583111D02*
X183583942Y-145619397D01*
X183583942Y-145619397D02*
X183547656Y-145655683D01*
X183293656Y-145583111D02*
X182821942Y-145583111D01*
X182821942Y-145583111D02*
X183075942Y-145873397D01*
X183075942Y-145873397D02*
X182967085Y-145873397D01*
X182967085Y-145873397D02*
X182894514Y-145909683D01*
X182894514Y-145909683D02*
X182858228Y-145945968D01*
X182858228Y-145945968D02*
X182821942Y-146018540D01*
X182821942Y-146018540D02*
X182821942Y-146199968D01*
X182821942Y-146199968D02*
X182858228Y-146272540D01*
X182858228Y-146272540D02*
X182894514Y-146308826D01*
X182894514Y-146308826D02*
X182967085Y-146345111D01*
X182967085Y-146345111D02*
X183184799Y-146345111D01*
X183184799Y-146345111D02*
X183257371Y-146308826D01*
X183257371Y-146308826D02*
X183293656Y-146272540D01*
X182386514Y-145909683D02*
X182459085Y-145873397D01*
X182459085Y-145873397D02*
X182495371Y-145837111D01*
X182495371Y-145837111D02*
X182531657Y-145764540D01*
X182531657Y-145764540D02*
X182531657Y-145728254D01*
X182531657Y-145728254D02*
X182495371Y-145655683D01*
X182495371Y-145655683D02*
X182459085Y-145619397D01*
X182459085Y-145619397D02*
X182386514Y-145583111D01*
X182386514Y-145583111D02*
X182241371Y-145583111D01*
X182241371Y-145583111D02*
X182168800Y-145619397D01*
X182168800Y-145619397D02*
X182132514Y-145655683D01*
X182132514Y-145655683D02*
X182096228Y-145728254D01*
X182096228Y-145728254D02*
X182096228Y-145764540D01*
X182096228Y-145764540D02*
X182132514Y-145837111D01*
X182132514Y-145837111D02*
X182168800Y-145873397D01*
X182168800Y-145873397D02*
X182241371Y-145909683D01*
X182241371Y-145909683D02*
X182386514Y-145909683D01*
X182386514Y-145909683D02*
X182459085Y-145945968D01*
X182459085Y-145945968D02*
X182495371Y-145982254D01*
X182495371Y-145982254D02*
X182531657Y-146054826D01*
X182531657Y-146054826D02*
X182531657Y-146199968D01*
X182531657Y-146199968D02*
X182495371Y-146272540D01*
X182495371Y-146272540D02*
X182459085Y-146308826D01*
X182459085Y-146308826D02*
X182386514Y-146345111D01*
X182386514Y-146345111D02*
X182241371Y-146345111D01*
X182241371Y-146345111D02*
X182168800Y-146308826D01*
X182168800Y-146308826D02*
X182132514Y-146272540D01*
X182132514Y-146272540D02*
X182096228Y-146199968D01*
X182096228Y-146199968D02*
X182096228Y-146054826D01*
X182096228Y-146054826D02*
X182132514Y-145982254D01*
X182132514Y-145982254D02*
X182168800Y-145945968D01*
X182168800Y-145945968D02*
X182241371Y-145909683D01*
X183547656Y-140731711D02*
X183801656Y-140368854D01*
X183983085Y-140731711D02*
X183983085Y-139969711D01*
X183983085Y-139969711D02*
X183692799Y-139969711D01*
X183692799Y-139969711D02*
X183620228Y-140005997D01*
X183620228Y-140005997D02*
X183583942Y-140042283D01*
X183583942Y-140042283D02*
X183547656Y-140114854D01*
X183547656Y-140114854D02*
X183547656Y-140223711D01*
X183547656Y-140223711D02*
X183583942Y-140296283D01*
X183583942Y-140296283D02*
X183620228Y-140332568D01*
X183620228Y-140332568D02*
X183692799Y-140368854D01*
X183692799Y-140368854D02*
X183983085Y-140368854D01*
X183293656Y-139969711D02*
X182785656Y-139969711D01*
X182785656Y-139969711D02*
X183112228Y-140731711D01*
X182459085Y-140731711D02*
X182313942Y-140731711D01*
X182313942Y-140731711D02*
X182241371Y-140695426D01*
X182241371Y-140695426D02*
X182205085Y-140659140D01*
X182205085Y-140659140D02*
X182132514Y-140550283D01*
X182132514Y-140550283D02*
X182096228Y-140405140D01*
X182096228Y-140405140D02*
X182096228Y-140114854D01*
X182096228Y-140114854D02*
X182132514Y-140042283D01*
X182132514Y-140042283D02*
X182168800Y-140005997D01*
X182168800Y-140005997D02*
X182241371Y-139969711D01*
X182241371Y-139969711D02*
X182386514Y-139969711D01*
X182386514Y-139969711D02*
X182459085Y-140005997D01*
X182459085Y-140005997D02*
X182495371Y-140042283D01*
X182495371Y-140042283D02*
X182531657Y-140114854D01*
X182531657Y-140114854D02*
X182531657Y-140296283D01*
X182531657Y-140296283D02*
X182495371Y-140368854D01*
X182495371Y-140368854D02*
X182459085Y-140405140D01*
X182459085Y-140405140D02*
X182386514Y-140441426D01*
X182386514Y-140441426D02*
X182241371Y-140441426D01*
X182241371Y-140441426D02*
X182168800Y-140405140D01*
X182168800Y-140405140D02*
X182132514Y-140368854D01*
X182132514Y-140368854D02*
X182096228Y-140296283D01*
X191023711Y-173220743D02*
X190660854Y-172966743D01*
X191023711Y-172785314D02*
X190261711Y-172785314D01*
X190261711Y-172785314D02*
X190261711Y-173075600D01*
X190261711Y-173075600D02*
X190297997Y-173148171D01*
X190297997Y-173148171D02*
X190334283Y-173184457D01*
X190334283Y-173184457D02*
X190406854Y-173220743D01*
X190406854Y-173220743D02*
X190515711Y-173220743D01*
X190515711Y-173220743D02*
X190588283Y-173184457D01*
X190588283Y-173184457D02*
X190624568Y-173148171D01*
X190624568Y-173148171D02*
X190660854Y-173075600D01*
X190660854Y-173075600D02*
X190660854Y-172785314D01*
X190261711Y-173873886D02*
X190261711Y-173728743D01*
X190261711Y-173728743D02*
X190297997Y-173656171D01*
X190297997Y-173656171D02*
X190334283Y-173619886D01*
X190334283Y-173619886D02*
X190443140Y-173547314D01*
X190443140Y-173547314D02*
X190588283Y-173511028D01*
X190588283Y-173511028D02*
X190878568Y-173511028D01*
X190878568Y-173511028D02*
X190951140Y-173547314D01*
X190951140Y-173547314D02*
X190987426Y-173583600D01*
X190987426Y-173583600D02*
X191023711Y-173656171D01*
X191023711Y-173656171D02*
X191023711Y-173801314D01*
X191023711Y-173801314D02*
X190987426Y-173873886D01*
X190987426Y-173873886D02*
X190951140Y-173910171D01*
X190951140Y-173910171D02*
X190878568Y-173946457D01*
X190878568Y-173946457D02*
X190697140Y-173946457D01*
X190697140Y-173946457D02*
X190624568Y-173910171D01*
X190624568Y-173910171D02*
X190588283Y-173873886D01*
X190588283Y-173873886D02*
X190551997Y-173801314D01*
X190551997Y-173801314D02*
X190551997Y-173656171D01*
X190551997Y-173656171D02*
X190588283Y-173583600D01*
X190588283Y-173583600D02*
X190624568Y-173547314D01*
X190624568Y-173547314D02*
X190697140Y-173511028D01*
X190261711Y-174200457D02*
X190261711Y-174708457D01*
X190261711Y-174708457D02*
X191023711Y-174381885D01*
X222193140Y-131869543D02*
X222229426Y-131833257D01*
X222229426Y-131833257D02*
X222265711Y-131724400D01*
X222265711Y-131724400D02*
X222265711Y-131651828D01*
X222265711Y-131651828D02*
X222229426Y-131542971D01*
X222229426Y-131542971D02*
X222156854Y-131470400D01*
X222156854Y-131470400D02*
X222084283Y-131434114D01*
X222084283Y-131434114D02*
X221939140Y-131397828D01*
X221939140Y-131397828D02*
X221830283Y-131397828D01*
X221830283Y-131397828D02*
X221685140Y-131434114D01*
X221685140Y-131434114D02*
X221612568Y-131470400D01*
X221612568Y-131470400D02*
X221539997Y-131542971D01*
X221539997Y-131542971D02*
X221503711Y-131651828D01*
X221503711Y-131651828D02*
X221503711Y-131724400D01*
X221503711Y-131724400D02*
X221539997Y-131833257D01*
X221539997Y-131833257D02*
X221576283Y-131869543D01*
X222265711Y-132595257D02*
X222265711Y-132159828D01*
X222265711Y-132377543D02*
X221503711Y-132377543D01*
X221503711Y-132377543D02*
X221612568Y-132304971D01*
X221612568Y-132304971D02*
X221685140Y-132232400D01*
X221685140Y-132232400D02*
X221721426Y-132159828D01*
X221503711Y-132849257D02*
X221503711Y-133357257D01*
X221503711Y-133357257D02*
X222265711Y-133030685D01*
X191421656Y-85566540D02*
X191457942Y-85602826D01*
X191457942Y-85602826D02*
X191566799Y-85639111D01*
X191566799Y-85639111D02*
X191639371Y-85639111D01*
X191639371Y-85639111D02*
X191748228Y-85602826D01*
X191748228Y-85602826D02*
X191820799Y-85530254D01*
X191820799Y-85530254D02*
X191857085Y-85457683D01*
X191857085Y-85457683D02*
X191893371Y-85312540D01*
X191893371Y-85312540D02*
X191893371Y-85203683D01*
X191893371Y-85203683D02*
X191857085Y-85058540D01*
X191857085Y-85058540D02*
X191820799Y-84985968D01*
X191820799Y-84985968D02*
X191748228Y-84913397D01*
X191748228Y-84913397D02*
X191639371Y-84877111D01*
X191639371Y-84877111D02*
X191566799Y-84877111D01*
X191566799Y-84877111D02*
X191457942Y-84913397D01*
X191457942Y-84913397D02*
X191421656Y-84949683D01*
X191167656Y-84877111D02*
X190695942Y-84877111D01*
X190695942Y-84877111D02*
X190949942Y-85167397D01*
X190949942Y-85167397D02*
X190841085Y-85167397D01*
X190841085Y-85167397D02*
X190768514Y-85203683D01*
X190768514Y-85203683D02*
X190732228Y-85239968D01*
X190732228Y-85239968D02*
X190695942Y-85312540D01*
X190695942Y-85312540D02*
X190695942Y-85493968D01*
X190695942Y-85493968D02*
X190732228Y-85566540D01*
X190732228Y-85566540D02*
X190768514Y-85602826D01*
X190768514Y-85602826D02*
X190841085Y-85639111D01*
X190841085Y-85639111D02*
X191058799Y-85639111D01*
X191058799Y-85639111D02*
X191131371Y-85602826D01*
X191131371Y-85602826D02*
X191167656Y-85566540D01*
X189970228Y-85639111D02*
X190405657Y-85639111D01*
X190187942Y-85639111D02*
X190187942Y-84877111D01*
X190187942Y-84877111D02*
X190260514Y-84985968D01*
X190260514Y-84985968D02*
X190333085Y-85058540D01*
X190333085Y-85058540D02*
X190405657Y-85094826D01*
X218040856Y-82260911D02*
X218294856Y-81898054D01*
X218476285Y-82260911D02*
X218476285Y-81498911D01*
X218476285Y-81498911D02*
X218185999Y-81498911D01*
X218185999Y-81498911D02*
X218113428Y-81535197D01*
X218113428Y-81535197D02*
X218077142Y-81571483D01*
X218077142Y-81571483D02*
X218040856Y-81644054D01*
X218040856Y-81644054D02*
X218040856Y-81752911D01*
X218040856Y-81752911D02*
X218077142Y-81825483D01*
X218077142Y-81825483D02*
X218113428Y-81861768D01*
X218113428Y-81861768D02*
X218185999Y-81898054D01*
X218185999Y-81898054D02*
X218476285Y-81898054D01*
X217387714Y-81752911D02*
X217387714Y-82260911D01*
X217569142Y-81462626D02*
X217750571Y-82006911D01*
X217750571Y-82006911D02*
X217278856Y-82006911D01*
X216662000Y-81752911D02*
X216662000Y-82260911D01*
X216843428Y-81462626D02*
X217024857Y-82006911D01*
X217024857Y-82006911D02*
X216553142Y-82006911D01*
X183547656Y-130981740D02*
X183583942Y-131018026D01*
X183583942Y-131018026D02*
X183692799Y-131054311D01*
X183692799Y-131054311D02*
X183765371Y-131054311D01*
X183765371Y-131054311D02*
X183874228Y-131018026D01*
X183874228Y-131018026D02*
X183946799Y-130945454D01*
X183946799Y-130945454D02*
X183983085Y-130872883D01*
X183983085Y-130872883D02*
X184019371Y-130727740D01*
X184019371Y-130727740D02*
X184019371Y-130618883D01*
X184019371Y-130618883D02*
X183983085Y-130473740D01*
X183983085Y-130473740D02*
X183946799Y-130401168D01*
X183946799Y-130401168D02*
X183874228Y-130328597D01*
X183874228Y-130328597D02*
X183765371Y-130292311D01*
X183765371Y-130292311D02*
X183692799Y-130292311D01*
X183692799Y-130292311D02*
X183583942Y-130328597D01*
X183583942Y-130328597D02*
X183547656Y-130364883D01*
X183293656Y-130292311D02*
X182821942Y-130292311D01*
X182821942Y-130292311D02*
X183075942Y-130582597D01*
X183075942Y-130582597D02*
X182967085Y-130582597D01*
X182967085Y-130582597D02*
X182894514Y-130618883D01*
X182894514Y-130618883D02*
X182858228Y-130655168D01*
X182858228Y-130655168D02*
X182821942Y-130727740D01*
X182821942Y-130727740D02*
X182821942Y-130909168D01*
X182821942Y-130909168D02*
X182858228Y-130981740D01*
X182858228Y-130981740D02*
X182894514Y-131018026D01*
X182894514Y-131018026D02*
X182967085Y-131054311D01*
X182967085Y-131054311D02*
X183184799Y-131054311D01*
X183184799Y-131054311D02*
X183257371Y-131018026D01*
X183257371Y-131018026D02*
X183293656Y-130981740D01*
X182168800Y-130292311D02*
X182313942Y-130292311D01*
X182313942Y-130292311D02*
X182386514Y-130328597D01*
X182386514Y-130328597D02*
X182422800Y-130364883D01*
X182422800Y-130364883D02*
X182495371Y-130473740D01*
X182495371Y-130473740D02*
X182531657Y-130618883D01*
X182531657Y-130618883D02*
X182531657Y-130909168D01*
X182531657Y-130909168D02*
X182495371Y-130981740D01*
X182495371Y-130981740D02*
X182459085Y-131018026D01*
X182459085Y-131018026D02*
X182386514Y-131054311D01*
X182386514Y-131054311D02*
X182241371Y-131054311D01*
X182241371Y-131054311D02*
X182168800Y-131018026D01*
X182168800Y-131018026D02*
X182132514Y-130981740D01*
X182132514Y-130981740D02*
X182096228Y-130909168D01*
X182096228Y-130909168D02*
X182096228Y-130727740D01*
X182096228Y-130727740D02*
X182132514Y-130655168D01*
X182132514Y-130655168D02*
X182168800Y-130618883D01*
X182168800Y-130618883D02*
X182241371Y-130582597D01*
X182241371Y-130582597D02*
X182386514Y-130582597D01*
X182386514Y-130582597D02*
X182459085Y-130618883D01*
X182459085Y-130618883D02*
X182495371Y-130655168D01*
X182495371Y-130655168D02*
X182531657Y-130727740D01*
X217214740Y-131869543D02*
X217251026Y-131833257D01*
X217251026Y-131833257D02*
X217287311Y-131724400D01*
X217287311Y-131724400D02*
X217287311Y-131651828D01*
X217287311Y-131651828D02*
X217251026Y-131542971D01*
X217251026Y-131542971D02*
X217178454Y-131470400D01*
X217178454Y-131470400D02*
X217105883Y-131434114D01*
X217105883Y-131434114D02*
X216960740Y-131397828D01*
X216960740Y-131397828D02*
X216851883Y-131397828D01*
X216851883Y-131397828D02*
X216706740Y-131434114D01*
X216706740Y-131434114D02*
X216634168Y-131470400D01*
X216634168Y-131470400D02*
X216561597Y-131542971D01*
X216561597Y-131542971D02*
X216525311Y-131651828D01*
X216525311Y-131651828D02*
X216525311Y-131724400D01*
X216525311Y-131724400D02*
X216561597Y-131833257D01*
X216561597Y-131833257D02*
X216597883Y-131869543D01*
X217287311Y-132595257D02*
X217287311Y-132159828D01*
X217287311Y-132377543D02*
X216525311Y-132377543D01*
X216525311Y-132377543D02*
X216634168Y-132304971D01*
X216634168Y-132304971D02*
X216706740Y-132232400D01*
X216706740Y-132232400D02*
X216743026Y-132159828D01*
X217287311Y-132958114D02*
X217287311Y-133103257D01*
X217287311Y-133103257D02*
X217251026Y-133175828D01*
X217251026Y-133175828D02*
X217214740Y-133212114D01*
X217214740Y-133212114D02*
X217105883Y-133284685D01*
X217105883Y-133284685D02*
X216960740Y-133320971D01*
X216960740Y-133320971D02*
X216670454Y-133320971D01*
X216670454Y-133320971D02*
X216597883Y-133284685D01*
X216597883Y-133284685D02*
X216561597Y-133248400D01*
X216561597Y-133248400D02*
X216525311Y-133175828D01*
X216525311Y-133175828D02*
X216525311Y-133030685D01*
X216525311Y-133030685D02*
X216561597Y-132958114D01*
X216561597Y-132958114D02*
X216597883Y-132921828D01*
X216597883Y-132921828D02*
X216670454Y-132885542D01*
X216670454Y-132885542D02*
X216851883Y-132885542D01*
X216851883Y-132885542D02*
X216924454Y-132921828D01*
X216924454Y-132921828D02*
X216960740Y-132958114D01*
X216960740Y-132958114D02*
X216997026Y-133030685D01*
X216997026Y-133030685D02*
X216997026Y-133175828D01*
X216997026Y-133175828D02*
X216960740Y-133248400D01*
X216960740Y-133248400D02*
X216924454Y-133284685D01*
X216924454Y-133284685D02*
X216851883Y-133320971D01*
X225381456Y-157571911D02*
X225635456Y-157209054D01*
X225816885Y-157571911D02*
X225816885Y-156809911D01*
X225816885Y-156809911D02*
X225526599Y-156809911D01*
X225526599Y-156809911D02*
X225454028Y-156846197D01*
X225454028Y-156846197D02*
X225417742Y-156882483D01*
X225417742Y-156882483D02*
X225381456Y-156955054D01*
X225381456Y-156955054D02*
X225381456Y-157063911D01*
X225381456Y-157063911D02*
X225417742Y-157136483D01*
X225417742Y-157136483D02*
X225454028Y-157172768D01*
X225454028Y-157172768D02*
X225526599Y-157209054D01*
X225526599Y-157209054D02*
X225816885Y-157209054D01*
X225127456Y-156809911D02*
X224655742Y-156809911D01*
X224655742Y-156809911D02*
X224909742Y-157100197D01*
X224909742Y-157100197D02*
X224800885Y-157100197D01*
X224800885Y-157100197D02*
X224728314Y-157136483D01*
X224728314Y-157136483D02*
X224692028Y-157172768D01*
X224692028Y-157172768D02*
X224655742Y-157245340D01*
X224655742Y-157245340D02*
X224655742Y-157426768D01*
X224655742Y-157426768D02*
X224692028Y-157499340D01*
X224692028Y-157499340D02*
X224728314Y-157535626D01*
X224728314Y-157535626D02*
X224800885Y-157571911D01*
X224800885Y-157571911D02*
X225018599Y-157571911D01*
X225018599Y-157571911D02*
X225091171Y-157535626D01*
X225091171Y-157535626D02*
X225127456Y-157499340D01*
X224292885Y-157571911D02*
X224147742Y-157571911D01*
X224147742Y-157571911D02*
X224075171Y-157535626D01*
X224075171Y-157535626D02*
X224038885Y-157499340D01*
X224038885Y-157499340D02*
X223966314Y-157390483D01*
X223966314Y-157390483D02*
X223930028Y-157245340D01*
X223930028Y-157245340D02*
X223930028Y-156955054D01*
X223930028Y-156955054D02*
X223966314Y-156882483D01*
X223966314Y-156882483D02*
X224002600Y-156846197D01*
X224002600Y-156846197D02*
X224075171Y-156809911D01*
X224075171Y-156809911D02*
X224220314Y-156809911D01*
X224220314Y-156809911D02*
X224292885Y-156846197D01*
X224292885Y-156846197D02*
X224329171Y-156882483D01*
X224329171Y-156882483D02*
X224365457Y-156955054D01*
X224365457Y-156955054D02*
X224365457Y-157136483D01*
X224365457Y-157136483D02*
X224329171Y-157209054D01*
X224329171Y-157209054D02*
X224292885Y-157245340D01*
X224292885Y-157245340D02*
X224220314Y-157281626D01*
X224220314Y-157281626D02*
X224075171Y-157281626D01*
X224075171Y-157281626D02*
X224002600Y-157245340D01*
X224002600Y-157245340D02*
X223966314Y-157209054D01*
X223966314Y-157209054D02*
X223930028Y-157136483D01*
X183547656Y-148351711D02*
X183801656Y-147988854D01*
X183983085Y-148351711D02*
X183983085Y-147589711D01*
X183983085Y-147589711D02*
X183692799Y-147589711D01*
X183692799Y-147589711D02*
X183620228Y-147625997D01*
X183620228Y-147625997D02*
X183583942Y-147662283D01*
X183583942Y-147662283D02*
X183547656Y-147734854D01*
X183547656Y-147734854D02*
X183547656Y-147843711D01*
X183547656Y-147843711D02*
X183583942Y-147916283D01*
X183583942Y-147916283D02*
X183620228Y-147952568D01*
X183620228Y-147952568D02*
X183692799Y-147988854D01*
X183692799Y-147988854D02*
X183983085Y-147988854D01*
X183112228Y-147916283D02*
X183184799Y-147879997D01*
X183184799Y-147879997D02*
X183221085Y-147843711D01*
X183221085Y-147843711D02*
X183257371Y-147771140D01*
X183257371Y-147771140D02*
X183257371Y-147734854D01*
X183257371Y-147734854D02*
X183221085Y-147662283D01*
X183221085Y-147662283D02*
X183184799Y-147625997D01*
X183184799Y-147625997D02*
X183112228Y-147589711D01*
X183112228Y-147589711D02*
X182967085Y-147589711D01*
X182967085Y-147589711D02*
X182894514Y-147625997D01*
X182894514Y-147625997D02*
X182858228Y-147662283D01*
X182858228Y-147662283D02*
X182821942Y-147734854D01*
X182821942Y-147734854D02*
X182821942Y-147771140D01*
X182821942Y-147771140D02*
X182858228Y-147843711D01*
X182858228Y-147843711D02*
X182894514Y-147879997D01*
X182894514Y-147879997D02*
X182967085Y-147916283D01*
X182967085Y-147916283D02*
X183112228Y-147916283D01*
X183112228Y-147916283D02*
X183184799Y-147952568D01*
X183184799Y-147952568D02*
X183221085Y-147988854D01*
X183221085Y-147988854D02*
X183257371Y-148061426D01*
X183257371Y-148061426D02*
X183257371Y-148206568D01*
X183257371Y-148206568D02*
X183221085Y-148279140D01*
X183221085Y-148279140D02*
X183184799Y-148315426D01*
X183184799Y-148315426D02*
X183112228Y-148351711D01*
X183112228Y-148351711D02*
X182967085Y-148351711D01*
X182967085Y-148351711D02*
X182894514Y-148315426D01*
X182894514Y-148315426D02*
X182858228Y-148279140D01*
X182858228Y-148279140D02*
X182821942Y-148206568D01*
X182821942Y-148206568D02*
X182821942Y-148061426D01*
X182821942Y-148061426D02*
X182858228Y-147988854D01*
X182858228Y-147988854D02*
X182894514Y-147952568D01*
X182894514Y-147952568D02*
X182967085Y-147916283D01*
X182096228Y-148351711D02*
X182531657Y-148351711D01*
X182313942Y-148351711D02*
X182313942Y-147589711D01*
X182313942Y-147589711D02*
X182386514Y-147698568D01*
X182386514Y-147698568D02*
X182459085Y-147771140D01*
X182459085Y-147771140D02*
X182531657Y-147807426D01*
X215729456Y-100472711D02*
X215983456Y-100109854D01*
X216164885Y-100472711D02*
X216164885Y-99710711D01*
X216164885Y-99710711D02*
X215874599Y-99710711D01*
X215874599Y-99710711D02*
X215802028Y-99746997D01*
X215802028Y-99746997D02*
X215765742Y-99783283D01*
X215765742Y-99783283D02*
X215729456Y-99855854D01*
X215729456Y-99855854D02*
X215729456Y-99964711D01*
X215729456Y-99964711D02*
X215765742Y-100037283D01*
X215765742Y-100037283D02*
X215802028Y-100073568D01*
X215802028Y-100073568D02*
X215874599Y-100109854D01*
X215874599Y-100109854D02*
X216164885Y-100109854D01*
X215076314Y-99964711D02*
X215076314Y-100472711D01*
X215257742Y-99674426D02*
X215439171Y-100218711D01*
X215439171Y-100218711D02*
X214967456Y-100218711D01*
X214568314Y-100037283D02*
X214640885Y-100000997D01*
X214640885Y-100000997D02*
X214677171Y-99964711D01*
X214677171Y-99964711D02*
X214713457Y-99892140D01*
X214713457Y-99892140D02*
X214713457Y-99855854D01*
X214713457Y-99855854D02*
X214677171Y-99783283D01*
X214677171Y-99783283D02*
X214640885Y-99746997D01*
X214640885Y-99746997D02*
X214568314Y-99710711D01*
X214568314Y-99710711D02*
X214423171Y-99710711D01*
X214423171Y-99710711D02*
X214350600Y-99746997D01*
X214350600Y-99746997D02*
X214314314Y-99783283D01*
X214314314Y-99783283D02*
X214278028Y-99855854D01*
X214278028Y-99855854D02*
X214278028Y-99892140D01*
X214278028Y-99892140D02*
X214314314Y-99964711D01*
X214314314Y-99964711D02*
X214350600Y-100000997D01*
X214350600Y-100000997D02*
X214423171Y-100037283D01*
X214423171Y-100037283D02*
X214568314Y-100037283D01*
X214568314Y-100037283D02*
X214640885Y-100073568D01*
X214640885Y-100073568D02*
X214677171Y-100109854D01*
X214677171Y-100109854D02*
X214713457Y-100182426D01*
X214713457Y-100182426D02*
X214713457Y-100327568D01*
X214713457Y-100327568D02*
X214677171Y-100400140D01*
X214677171Y-100400140D02*
X214640885Y-100436426D01*
X214640885Y-100436426D02*
X214568314Y-100472711D01*
X214568314Y-100472711D02*
X214423171Y-100472711D01*
X214423171Y-100472711D02*
X214350600Y-100436426D01*
X214350600Y-100436426D02*
X214314314Y-100400140D01*
X214314314Y-100400140D02*
X214278028Y-100327568D01*
X214278028Y-100327568D02*
X214278028Y-100182426D01*
X214278028Y-100182426D02*
X214314314Y-100109854D01*
X214314314Y-100109854D02*
X214350600Y-100073568D01*
X214350600Y-100073568D02*
X214423171Y-100037283D01*
X211800911Y-173220743D02*
X211438054Y-172966743D01*
X211800911Y-172785314D02*
X211038911Y-172785314D01*
X211038911Y-172785314D02*
X211038911Y-173075600D01*
X211038911Y-173075600D02*
X211075197Y-173148171D01*
X211075197Y-173148171D02*
X211111483Y-173184457D01*
X211111483Y-173184457D02*
X211184054Y-173220743D01*
X211184054Y-173220743D02*
X211292911Y-173220743D01*
X211292911Y-173220743D02*
X211365483Y-173184457D01*
X211365483Y-173184457D02*
X211401768Y-173148171D01*
X211401768Y-173148171D02*
X211438054Y-173075600D01*
X211438054Y-173075600D02*
X211438054Y-172785314D01*
X211038911Y-173910171D02*
X211038911Y-173547314D01*
X211038911Y-173547314D02*
X211401768Y-173511028D01*
X211401768Y-173511028D02*
X211365483Y-173547314D01*
X211365483Y-173547314D02*
X211329197Y-173619886D01*
X211329197Y-173619886D02*
X211329197Y-173801314D01*
X211329197Y-173801314D02*
X211365483Y-173873886D01*
X211365483Y-173873886D02*
X211401768Y-173910171D01*
X211401768Y-173910171D02*
X211474340Y-173946457D01*
X211474340Y-173946457D02*
X211655768Y-173946457D01*
X211655768Y-173946457D02*
X211728340Y-173910171D01*
X211728340Y-173910171D02*
X211764626Y-173873886D01*
X211764626Y-173873886D02*
X211800911Y-173801314D01*
X211800911Y-173801314D02*
X211800911Y-173619886D01*
X211800911Y-173619886D02*
X211764626Y-173547314D01*
X211764626Y-173547314D02*
X211728340Y-173511028D01*
X211038911Y-174635885D02*
X211038911Y-174273028D01*
X211038911Y-174273028D02*
X211401768Y-174236742D01*
X211401768Y-174236742D02*
X211365483Y-174273028D01*
X211365483Y-174273028D02*
X211329197Y-174345600D01*
X211329197Y-174345600D02*
X211329197Y-174527028D01*
X211329197Y-174527028D02*
X211365483Y-174599600D01*
X211365483Y-174599600D02*
X211401768Y-174635885D01*
X211401768Y-174635885D02*
X211474340Y-174672171D01*
X211474340Y-174672171D02*
X211655768Y-174672171D01*
X211655768Y-174672171D02*
X211728340Y-174635885D01*
X211728340Y-174635885D02*
X211764626Y-174599600D01*
X211764626Y-174599600D02*
X211800911Y-174527028D01*
X211800911Y-174527028D02*
X211800911Y-174345600D01*
X211800911Y-174345600D02*
X211764626Y-174273028D01*
X211764626Y-174273028D02*
X211728340Y-174236742D01*
X225381456Y-167633940D02*
X225417742Y-167670226D01*
X225417742Y-167670226D02*
X225526599Y-167706511D01*
X225526599Y-167706511D02*
X225599171Y-167706511D01*
X225599171Y-167706511D02*
X225708028Y-167670226D01*
X225708028Y-167670226D02*
X225780599Y-167597654D01*
X225780599Y-167597654D02*
X225816885Y-167525083D01*
X225816885Y-167525083D02*
X225853171Y-167379940D01*
X225853171Y-167379940D02*
X225853171Y-167271083D01*
X225853171Y-167271083D02*
X225816885Y-167125940D01*
X225816885Y-167125940D02*
X225780599Y-167053368D01*
X225780599Y-167053368D02*
X225708028Y-166980797D01*
X225708028Y-166980797D02*
X225599171Y-166944511D01*
X225599171Y-166944511D02*
X225526599Y-166944511D01*
X225526599Y-166944511D02*
X225417742Y-166980797D01*
X225417742Y-166980797D02*
X225381456Y-167017083D01*
X224655742Y-167706511D02*
X225091171Y-167706511D01*
X224873456Y-167706511D02*
X224873456Y-166944511D01*
X224873456Y-166944511D02*
X224946028Y-167053368D01*
X224946028Y-167053368D02*
X225018599Y-167125940D01*
X225018599Y-167125940D02*
X225091171Y-167162226D01*
X223930028Y-167706511D02*
X224365457Y-167706511D01*
X224147742Y-167706511D02*
X224147742Y-166944511D01*
X224147742Y-166944511D02*
X224220314Y-167053368D01*
X224220314Y-167053368D02*
X224292885Y-167125940D01*
X224292885Y-167125940D02*
X224365457Y-167162226D01*
X183547656Y-153892540D02*
X183583942Y-153928826D01*
X183583942Y-153928826D02*
X183692799Y-153965111D01*
X183692799Y-153965111D02*
X183765371Y-153965111D01*
X183765371Y-153965111D02*
X183874228Y-153928826D01*
X183874228Y-153928826D02*
X183946799Y-153856254D01*
X183946799Y-153856254D02*
X183983085Y-153783683D01*
X183983085Y-153783683D02*
X184019371Y-153638540D01*
X184019371Y-153638540D02*
X184019371Y-153529683D01*
X184019371Y-153529683D02*
X183983085Y-153384540D01*
X183983085Y-153384540D02*
X183946799Y-153311968D01*
X183946799Y-153311968D02*
X183874228Y-153239397D01*
X183874228Y-153239397D02*
X183765371Y-153203111D01*
X183765371Y-153203111D02*
X183692799Y-153203111D01*
X183692799Y-153203111D02*
X183583942Y-153239397D01*
X183583942Y-153239397D02*
X183547656Y-153275683D01*
X183293656Y-153203111D02*
X182821942Y-153203111D01*
X182821942Y-153203111D02*
X183075942Y-153493397D01*
X183075942Y-153493397D02*
X182967085Y-153493397D01*
X182967085Y-153493397D02*
X182894514Y-153529683D01*
X182894514Y-153529683D02*
X182858228Y-153565968D01*
X182858228Y-153565968D02*
X182821942Y-153638540D01*
X182821942Y-153638540D02*
X182821942Y-153819968D01*
X182821942Y-153819968D02*
X182858228Y-153892540D01*
X182858228Y-153892540D02*
X182894514Y-153928826D01*
X182894514Y-153928826D02*
X182967085Y-153965111D01*
X182967085Y-153965111D02*
X183184799Y-153965111D01*
X183184799Y-153965111D02*
X183257371Y-153928826D01*
X183257371Y-153928826D02*
X183293656Y-153892540D01*
X182459085Y-153965111D02*
X182313942Y-153965111D01*
X182313942Y-153965111D02*
X182241371Y-153928826D01*
X182241371Y-153928826D02*
X182205085Y-153892540D01*
X182205085Y-153892540D02*
X182132514Y-153783683D01*
X182132514Y-153783683D02*
X182096228Y-153638540D01*
X182096228Y-153638540D02*
X182096228Y-153348254D01*
X182096228Y-153348254D02*
X182132514Y-153275683D01*
X182132514Y-153275683D02*
X182168800Y-153239397D01*
X182168800Y-153239397D02*
X182241371Y-153203111D01*
X182241371Y-153203111D02*
X182386514Y-153203111D01*
X182386514Y-153203111D02*
X182459085Y-153239397D01*
X182459085Y-153239397D02*
X182495371Y-153275683D01*
X182495371Y-153275683D02*
X182531657Y-153348254D01*
X182531657Y-153348254D02*
X182531657Y-153529683D01*
X182531657Y-153529683D02*
X182495371Y-153602254D01*
X182495371Y-153602254D02*
X182459085Y-153638540D01*
X182459085Y-153638540D02*
X182386514Y-153674826D01*
X182386514Y-153674826D02*
X182241371Y-153674826D01*
X182241371Y-153674826D02*
X182168800Y-153638540D01*
X182168800Y-153638540D02*
X182132514Y-153602254D01*
X182132514Y-153602254D02*
X182096228Y-153529683D01*
X204705856Y-118434140D02*
X204742142Y-118470426D01*
X204742142Y-118470426D02*
X204850999Y-118506711D01*
X204850999Y-118506711D02*
X204923571Y-118506711D01*
X204923571Y-118506711D02*
X205032428Y-118470426D01*
X205032428Y-118470426D02*
X205104999Y-118397854D01*
X205104999Y-118397854D02*
X205141285Y-118325283D01*
X205141285Y-118325283D02*
X205177571Y-118180140D01*
X205177571Y-118180140D02*
X205177571Y-118071283D01*
X205177571Y-118071283D02*
X205141285Y-117926140D01*
X205141285Y-117926140D02*
X205104999Y-117853568D01*
X205104999Y-117853568D02*
X205032428Y-117780997D01*
X205032428Y-117780997D02*
X204923571Y-117744711D01*
X204923571Y-117744711D02*
X204850999Y-117744711D01*
X204850999Y-117744711D02*
X204742142Y-117780997D01*
X204742142Y-117780997D02*
X204705856Y-117817283D01*
X204415571Y-117817283D02*
X204379285Y-117780997D01*
X204379285Y-117780997D02*
X204306714Y-117744711D01*
X204306714Y-117744711D02*
X204125285Y-117744711D01*
X204125285Y-117744711D02*
X204052714Y-117780997D01*
X204052714Y-117780997D02*
X204016428Y-117817283D01*
X204016428Y-117817283D02*
X203980142Y-117889854D01*
X203980142Y-117889854D02*
X203980142Y-117962426D01*
X203980142Y-117962426D02*
X204016428Y-118071283D01*
X204016428Y-118071283D02*
X204451856Y-118506711D01*
X204451856Y-118506711D02*
X203980142Y-118506711D01*
X203544714Y-118071283D02*
X203617285Y-118034997D01*
X203617285Y-118034997D02*
X203653571Y-117998711D01*
X203653571Y-117998711D02*
X203689857Y-117926140D01*
X203689857Y-117926140D02*
X203689857Y-117889854D01*
X203689857Y-117889854D02*
X203653571Y-117817283D01*
X203653571Y-117817283D02*
X203617285Y-117780997D01*
X203617285Y-117780997D02*
X203544714Y-117744711D01*
X203544714Y-117744711D02*
X203399571Y-117744711D01*
X203399571Y-117744711D02*
X203327000Y-117780997D01*
X203327000Y-117780997D02*
X203290714Y-117817283D01*
X203290714Y-117817283D02*
X203254428Y-117889854D01*
X203254428Y-117889854D02*
X203254428Y-117926140D01*
X203254428Y-117926140D02*
X203290714Y-117998711D01*
X203290714Y-117998711D02*
X203327000Y-118034997D01*
X203327000Y-118034997D02*
X203399571Y-118071283D01*
X203399571Y-118071283D02*
X203544714Y-118071283D01*
X203544714Y-118071283D02*
X203617285Y-118107568D01*
X203617285Y-118107568D02*
X203653571Y-118143854D01*
X203653571Y-118143854D02*
X203689857Y-118216426D01*
X203689857Y-118216426D02*
X203689857Y-118361568D01*
X203689857Y-118361568D02*
X203653571Y-118434140D01*
X203653571Y-118434140D02*
X203617285Y-118470426D01*
X203617285Y-118470426D02*
X203544714Y-118506711D01*
X203544714Y-118506711D02*
X203399571Y-118506711D01*
X203399571Y-118506711D02*
X203327000Y-118470426D01*
X203327000Y-118470426D02*
X203290714Y-118434140D01*
X203290714Y-118434140D02*
X203254428Y-118361568D01*
X203254428Y-118361568D02*
X203254428Y-118216426D01*
X203254428Y-118216426D02*
X203290714Y-118143854D01*
X203290714Y-118143854D02*
X203327000Y-118107568D01*
X203327000Y-118107568D02*
X203399571Y-118071283D01*
X204680456Y-120538711D02*
X204934456Y-120175854D01*
X205115885Y-120538711D02*
X205115885Y-119776711D01*
X205115885Y-119776711D02*
X204825599Y-119776711D01*
X204825599Y-119776711D02*
X204753028Y-119812997D01*
X204753028Y-119812997D02*
X204716742Y-119849283D01*
X204716742Y-119849283D02*
X204680456Y-119921854D01*
X204680456Y-119921854D02*
X204680456Y-120030711D01*
X204680456Y-120030711D02*
X204716742Y-120103283D01*
X204716742Y-120103283D02*
X204753028Y-120139568D01*
X204753028Y-120139568D02*
X204825599Y-120175854D01*
X204825599Y-120175854D02*
X205115885Y-120175854D01*
X204027314Y-119776711D02*
X204172456Y-119776711D01*
X204172456Y-119776711D02*
X204245028Y-119812997D01*
X204245028Y-119812997D02*
X204281314Y-119849283D01*
X204281314Y-119849283D02*
X204353885Y-119958140D01*
X204353885Y-119958140D02*
X204390171Y-120103283D01*
X204390171Y-120103283D02*
X204390171Y-120393568D01*
X204390171Y-120393568D02*
X204353885Y-120466140D01*
X204353885Y-120466140D02*
X204317599Y-120502426D01*
X204317599Y-120502426D02*
X204245028Y-120538711D01*
X204245028Y-120538711D02*
X204099885Y-120538711D01*
X204099885Y-120538711D02*
X204027314Y-120502426D01*
X204027314Y-120502426D02*
X203991028Y-120466140D01*
X203991028Y-120466140D02*
X203954742Y-120393568D01*
X203954742Y-120393568D02*
X203954742Y-120212140D01*
X203954742Y-120212140D02*
X203991028Y-120139568D01*
X203991028Y-120139568D02*
X204027314Y-120103283D01*
X204027314Y-120103283D02*
X204099885Y-120066997D01*
X204099885Y-120066997D02*
X204245028Y-120066997D01*
X204245028Y-120066997D02*
X204317599Y-120103283D01*
X204317599Y-120103283D02*
X204353885Y-120139568D01*
X204353885Y-120139568D02*
X204390171Y-120212140D01*
X203483028Y-119776711D02*
X203410457Y-119776711D01*
X203410457Y-119776711D02*
X203337885Y-119812997D01*
X203337885Y-119812997D02*
X203301600Y-119849283D01*
X203301600Y-119849283D02*
X203265314Y-119921854D01*
X203265314Y-119921854D02*
X203229028Y-120066997D01*
X203229028Y-120066997D02*
X203229028Y-120248426D01*
X203229028Y-120248426D02*
X203265314Y-120393568D01*
X203265314Y-120393568D02*
X203301600Y-120466140D01*
X203301600Y-120466140D02*
X203337885Y-120502426D01*
X203337885Y-120502426D02*
X203410457Y-120538711D01*
X203410457Y-120538711D02*
X203483028Y-120538711D01*
X203483028Y-120538711D02*
X203555600Y-120502426D01*
X203555600Y-120502426D02*
X203591885Y-120466140D01*
X203591885Y-120466140D02*
X203628171Y-120393568D01*
X203628171Y-120393568D02*
X203664457Y-120248426D01*
X203664457Y-120248426D02*
X203664457Y-120066997D01*
X203664457Y-120066997D02*
X203628171Y-119921854D01*
X203628171Y-119921854D02*
X203591885Y-119849283D01*
X203591885Y-119849283D02*
X203555600Y-119812997D01*
X203555600Y-119812997D02*
X203483028Y-119776711D01*
X225381456Y-149443911D02*
X225635456Y-149081054D01*
X225816885Y-149443911D02*
X225816885Y-148681911D01*
X225816885Y-148681911D02*
X225526599Y-148681911D01*
X225526599Y-148681911D02*
X225454028Y-148718197D01*
X225454028Y-148718197D02*
X225417742Y-148754483D01*
X225417742Y-148754483D02*
X225381456Y-148827054D01*
X225381456Y-148827054D02*
X225381456Y-148935911D01*
X225381456Y-148935911D02*
X225417742Y-149008483D01*
X225417742Y-149008483D02*
X225454028Y-149044768D01*
X225454028Y-149044768D02*
X225526599Y-149081054D01*
X225526599Y-149081054D02*
X225816885Y-149081054D01*
X225127456Y-148681911D02*
X224655742Y-148681911D01*
X224655742Y-148681911D02*
X224909742Y-148972197D01*
X224909742Y-148972197D02*
X224800885Y-148972197D01*
X224800885Y-148972197D02*
X224728314Y-149008483D01*
X224728314Y-149008483D02*
X224692028Y-149044768D01*
X224692028Y-149044768D02*
X224655742Y-149117340D01*
X224655742Y-149117340D02*
X224655742Y-149298768D01*
X224655742Y-149298768D02*
X224692028Y-149371340D01*
X224692028Y-149371340D02*
X224728314Y-149407626D01*
X224728314Y-149407626D02*
X224800885Y-149443911D01*
X224800885Y-149443911D02*
X225018599Y-149443911D01*
X225018599Y-149443911D02*
X225091171Y-149407626D01*
X225091171Y-149407626D02*
X225127456Y-149371340D01*
X224002600Y-148681911D02*
X224147742Y-148681911D01*
X224147742Y-148681911D02*
X224220314Y-148718197D01*
X224220314Y-148718197D02*
X224256600Y-148754483D01*
X224256600Y-148754483D02*
X224329171Y-148863340D01*
X224329171Y-148863340D02*
X224365457Y-149008483D01*
X224365457Y-149008483D02*
X224365457Y-149298768D01*
X224365457Y-149298768D02*
X224329171Y-149371340D01*
X224329171Y-149371340D02*
X224292885Y-149407626D01*
X224292885Y-149407626D02*
X224220314Y-149443911D01*
X224220314Y-149443911D02*
X224075171Y-149443911D01*
X224075171Y-149443911D02*
X224002600Y-149407626D01*
X224002600Y-149407626D02*
X223966314Y-149371340D01*
X223966314Y-149371340D02*
X223930028Y-149298768D01*
X223930028Y-149298768D02*
X223930028Y-149117340D01*
X223930028Y-149117340D02*
X223966314Y-149044768D01*
X223966314Y-149044768D02*
X224002600Y-149008483D01*
X224002600Y-149008483D02*
X224075171Y-148972197D01*
X224075171Y-148972197D02*
X224220314Y-148972197D01*
X224220314Y-148972197D02*
X224292885Y-149008483D01*
X224292885Y-149008483D02*
X224329171Y-149044768D01*
X224329171Y-149044768D02*
X224365457Y-149117340D01*
X186887140Y-173220743D02*
X186923426Y-173184457D01*
X186923426Y-173184457D02*
X186959711Y-173075600D01*
X186959711Y-173075600D02*
X186959711Y-173003028D01*
X186959711Y-173003028D02*
X186923426Y-172894171D01*
X186923426Y-172894171D02*
X186850854Y-172821600D01*
X186850854Y-172821600D02*
X186778283Y-172785314D01*
X186778283Y-172785314D02*
X186633140Y-172749028D01*
X186633140Y-172749028D02*
X186524283Y-172749028D01*
X186524283Y-172749028D02*
X186379140Y-172785314D01*
X186379140Y-172785314D02*
X186306568Y-172821600D01*
X186306568Y-172821600D02*
X186233997Y-172894171D01*
X186233997Y-172894171D02*
X186197711Y-173003028D01*
X186197711Y-173003028D02*
X186197711Y-173075600D01*
X186197711Y-173075600D02*
X186233997Y-173184457D01*
X186233997Y-173184457D02*
X186270283Y-173220743D01*
X186197711Y-173474743D02*
X186197711Y-173946457D01*
X186197711Y-173946457D02*
X186487997Y-173692457D01*
X186487997Y-173692457D02*
X186487997Y-173801314D01*
X186487997Y-173801314D02*
X186524283Y-173873886D01*
X186524283Y-173873886D02*
X186560568Y-173910171D01*
X186560568Y-173910171D02*
X186633140Y-173946457D01*
X186633140Y-173946457D02*
X186814568Y-173946457D01*
X186814568Y-173946457D02*
X186887140Y-173910171D01*
X186887140Y-173910171D02*
X186923426Y-173873886D01*
X186923426Y-173873886D02*
X186959711Y-173801314D01*
X186959711Y-173801314D02*
X186959711Y-173583600D01*
X186959711Y-173583600D02*
X186923426Y-173511028D01*
X186923426Y-173511028D02*
X186887140Y-173474743D01*
X186197711Y-174200457D02*
X186197711Y-174672171D01*
X186197711Y-174672171D02*
X186487997Y-174418171D01*
X186487997Y-174418171D02*
X186487997Y-174527028D01*
X186487997Y-174527028D02*
X186524283Y-174599600D01*
X186524283Y-174599600D02*
X186560568Y-174635885D01*
X186560568Y-174635885D02*
X186633140Y-174672171D01*
X186633140Y-174672171D02*
X186814568Y-174672171D01*
X186814568Y-174672171D02*
X186887140Y-174635885D01*
X186887140Y-174635885D02*
X186923426Y-174599600D01*
X186923426Y-174599600D02*
X186959711Y-174527028D01*
X186959711Y-174527028D02*
X186959711Y-174309314D01*
X186959711Y-174309314D02*
X186923426Y-174236742D01*
X186923426Y-174236742D02*
X186887140Y-174200457D01*
X183547656Y-164125111D02*
X183801656Y-163762254D01*
X183983085Y-164125111D02*
X183983085Y-163363111D01*
X183983085Y-163363111D02*
X183692799Y-163363111D01*
X183692799Y-163363111D02*
X183620228Y-163399397D01*
X183620228Y-163399397D02*
X183583942Y-163435683D01*
X183583942Y-163435683D02*
X183547656Y-163508254D01*
X183547656Y-163508254D02*
X183547656Y-163617111D01*
X183547656Y-163617111D02*
X183583942Y-163689683D01*
X183583942Y-163689683D02*
X183620228Y-163725968D01*
X183620228Y-163725968D02*
X183692799Y-163762254D01*
X183692799Y-163762254D02*
X183983085Y-163762254D01*
X183112228Y-163689683D02*
X183184799Y-163653397D01*
X183184799Y-163653397D02*
X183221085Y-163617111D01*
X183221085Y-163617111D02*
X183257371Y-163544540D01*
X183257371Y-163544540D02*
X183257371Y-163508254D01*
X183257371Y-163508254D02*
X183221085Y-163435683D01*
X183221085Y-163435683D02*
X183184799Y-163399397D01*
X183184799Y-163399397D02*
X183112228Y-163363111D01*
X183112228Y-163363111D02*
X182967085Y-163363111D01*
X182967085Y-163363111D02*
X182894514Y-163399397D01*
X182894514Y-163399397D02*
X182858228Y-163435683D01*
X182858228Y-163435683D02*
X182821942Y-163508254D01*
X182821942Y-163508254D02*
X182821942Y-163544540D01*
X182821942Y-163544540D02*
X182858228Y-163617111D01*
X182858228Y-163617111D02*
X182894514Y-163653397D01*
X182894514Y-163653397D02*
X182967085Y-163689683D01*
X182967085Y-163689683D02*
X183112228Y-163689683D01*
X183112228Y-163689683D02*
X183184799Y-163725968D01*
X183184799Y-163725968D02*
X183221085Y-163762254D01*
X183221085Y-163762254D02*
X183257371Y-163834826D01*
X183257371Y-163834826D02*
X183257371Y-163979968D01*
X183257371Y-163979968D02*
X183221085Y-164052540D01*
X183221085Y-164052540D02*
X183184799Y-164088826D01*
X183184799Y-164088826D02*
X183112228Y-164125111D01*
X183112228Y-164125111D02*
X182967085Y-164125111D01*
X182967085Y-164125111D02*
X182894514Y-164088826D01*
X182894514Y-164088826D02*
X182858228Y-164052540D01*
X182858228Y-164052540D02*
X182821942Y-163979968D01*
X182821942Y-163979968D02*
X182821942Y-163834826D01*
X182821942Y-163834826D02*
X182858228Y-163762254D01*
X182858228Y-163762254D02*
X182894514Y-163725968D01*
X182894514Y-163725968D02*
X182967085Y-163689683D01*
X182168800Y-163363111D02*
X182313942Y-163363111D01*
X182313942Y-163363111D02*
X182386514Y-163399397D01*
X182386514Y-163399397D02*
X182422800Y-163435683D01*
X182422800Y-163435683D02*
X182495371Y-163544540D01*
X182495371Y-163544540D02*
X182531657Y-163689683D01*
X182531657Y-163689683D02*
X182531657Y-163979968D01*
X182531657Y-163979968D02*
X182495371Y-164052540D01*
X182495371Y-164052540D02*
X182459085Y-164088826D01*
X182459085Y-164088826D02*
X182386514Y-164125111D01*
X182386514Y-164125111D02*
X182241371Y-164125111D01*
X182241371Y-164125111D02*
X182168800Y-164088826D01*
X182168800Y-164088826D02*
X182132514Y-164052540D01*
X182132514Y-164052540D02*
X182096228Y-163979968D01*
X182096228Y-163979968D02*
X182096228Y-163798540D01*
X182096228Y-163798540D02*
X182132514Y-163725968D01*
X182132514Y-163725968D02*
X182168800Y-163689683D01*
X182168800Y-163689683D02*
X182241371Y-163653397D01*
X182241371Y-163653397D02*
X182386514Y-163653397D01*
X182386514Y-163653397D02*
X182459085Y-163689683D01*
X182459085Y-163689683D02*
X182495371Y-163725968D01*
X182495371Y-163725968D02*
X182531657Y-163798540D01*
X225381456Y-159607540D02*
X225417742Y-159643826D01*
X225417742Y-159643826D02*
X225526599Y-159680111D01*
X225526599Y-159680111D02*
X225599171Y-159680111D01*
X225599171Y-159680111D02*
X225708028Y-159643826D01*
X225708028Y-159643826D02*
X225780599Y-159571254D01*
X225780599Y-159571254D02*
X225816885Y-159498683D01*
X225816885Y-159498683D02*
X225853171Y-159353540D01*
X225853171Y-159353540D02*
X225853171Y-159244683D01*
X225853171Y-159244683D02*
X225816885Y-159099540D01*
X225816885Y-159099540D02*
X225780599Y-159026968D01*
X225780599Y-159026968D02*
X225708028Y-158954397D01*
X225708028Y-158954397D02*
X225599171Y-158918111D01*
X225599171Y-158918111D02*
X225526599Y-158918111D01*
X225526599Y-158918111D02*
X225417742Y-158954397D01*
X225417742Y-158954397D02*
X225381456Y-158990683D01*
X224655742Y-159680111D02*
X225091171Y-159680111D01*
X224873456Y-159680111D02*
X224873456Y-158918111D01*
X224873456Y-158918111D02*
X224946028Y-159026968D01*
X224946028Y-159026968D02*
X225018599Y-159099540D01*
X225018599Y-159099540D02*
X225091171Y-159135826D01*
X224184028Y-158918111D02*
X224111457Y-158918111D01*
X224111457Y-158918111D02*
X224038885Y-158954397D01*
X224038885Y-158954397D02*
X224002600Y-158990683D01*
X224002600Y-158990683D02*
X223966314Y-159063254D01*
X223966314Y-159063254D02*
X223930028Y-159208397D01*
X223930028Y-159208397D02*
X223930028Y-159389826D01*
X223930028Y-159389826D02*
X223966314Y-159534968D01*
X223966314Y-159534968D02*
X224002600Y-159607540D01*
X224002600Y-159607540D02*
X224038885Y-159643826D01*
X224038885Y-159643826D02*
X224111457Y-159680111D01*
X224111457Y-159680111D02*
X224184028Y-159680111D01*
X224184028Y-159680111D02*
X224256600Y-159643826D01*
X224256600Y-159643826D02*
X224292885Y-159607540D01*
X224292885Y-159607540D02*
X224329171Y-159534968D01*
X224329171Y-159534968D02*
X224365457Y-159389826D01*
X224365457Y-159389826D02*
X224365457Y-159208397D01*
X224365457Y-159208397D02*
X224329171Y-159063254D01*
X224329171Y-159063254D02*
X224292885Y-158990683D01*
X224292885Y-158990683D02*
X224256600Y-158954397D01*
X224256600Y-158954397D02*
X224184028Y-158918111D01*
X215729456Y-108143511D02*
X215983456Y-107780654D01*
X216164885Y-108143511D02*
X216164885Y-107381511D01*
X216164885Y-107381511D02*
X215874599Y-107381511D01*
X215874599Y-107381511D02*
X215802028Y-107417797D01*
X215802028Y-107417797D02*
X215765742Y-107454083D01*
X215765742Y-107454083D02*
X215729456Y-107526654D01*
X215729456Y-107526654D02*
X215729456Y-107635511D01*
X215729456Y-107635511D02*
X215765742Y-107708083D01*
X215765742Y-107708083D02*
X215802028Y-107744368D01*
X215802028Y-107744368D02*
X215874599Y-107780654D01*
X215874599Y-107780654D02*
X216164885Y-107780654D01*
X215040028Y-107381511D02*
X215402885Y-107381511D01*
X215402885Y-107381511D02*
X215439171Y-107744368D01*
X215439171Y-107744368D02*
X215402885Y-107708083D01*
X215402885Y-107708083D02*
X215330314Y-107671797D01*
X215330314Y-107671797D02*
X215148885Y-107671797D01*
X215148885Y-107671797D02*
X215076314Y-107708083D01*
X215076314Y-107708083D02*
X215040028Y-107744368D01*
X215040028Y-107744368D02*
X215003742Y-107816940D01*
X215003742Y-107816940D02*
X215003742Y-107998368D01*
X215003742Y-107998368D02*
X215040028Y-108070940D01*
X215040028Y-108070940D02*
X215076314Y-108107226D01*
X215076314Y-108107226D02*
X215148885Y-108143511D01*
X215148885Y-108143511D02*
X215330314Y-108143511D01*
X215330314Y-108143511D02*
X215402885Y-108107226D01*
X215402885Y-108107226D02*
X215439171Y-108070940D01*
X214532028Y-107381511D02*
X214459457Y-107381511D01*
X214459457Y-107381511D02*
X214386885Y-107417797D01*
X214386885Y-107417797D02*
X214350600Y-107454083D01*
X214350600Y-107454083D02*
X214314314Y-107526654D01*
X214314314Y-107526654D02*
X214278028Y-107671797D01*
X214278028Y-107671797D02*
X214278028Y-107853226D01*
X214278028Y-107853226D02*
X214314314Y-107998368D01*
X214314314Y-107998368D02*
X214350600Y-108070940D01*
X214350600Y-108070940D02*
X214386885Y-108107226D01*
X214386885Y-108107226D02*
X214459457Y-108143511D01*
X214459457Y-108143511D02*
X214532028Y-108143511D01*
X214532028Y-108143511D02*
X214604600Y-108107226D01*
X214604600Y-108107226D02*
X214640885Y-108070940D01*
X214640885Y-108070940D02*
X214677171Y-107998368D01*
X214677171Y-107998368D02*
X214713457Y-107853226D01*
X214713457Y-107853226D02*
X214713457Y-107671797D01*
X214713457Y-107671797D02*
X214677171Y-107526654D01*
X214677171Y-107526654D02*
X214640885Y-107454083D01*
X214640885Y-107454083D02*
X214604600Y-107417797D01*
X214604600Y-107417797D02*
X214532028Y-107381511D01*
X204053911Y-173220743D02*
X203691054Y-172966743D01*
X204053911Y-172785314D02*
X203291911Y-172785314D01*
X203291911Y-172785314D02*
X203291911Y-173075600D01*
X203291911Y-173075600D02*
X203328197Y-173148171D01*
X203328197Y-173148171D02*
X203364483Y-173184457D01*
X203364483Y-173184457D02*
X203437054Y-173220743D01*
X203437054Y-173220743D02*
X203545911Y-173220743D01*
X203545911Y-173220743D02*
X203618483Y-173184457D01*
X203618483Y-173184457D02*
X203654768Y-173148171D01*
X203654768Y-173148171D02*
X203691054Y-173075600D01*
X203691054Y-173075600D02*
X203691054Y-172785314D01*
X203291911Y-173910171D02*
X203291911Y-173547314D01*
X203291911Y-173547314D02*
X203654768Y-173511028D01*
X203654768Y-173511028D02*
X203618483Y-173547314D01*
X203618483Y-173547314D02*
X203582197Y-173619886D01*
X203582197Y-173619886D02*
X203582197Y-173801314D01*
X203582197Y-173801314D02*
X203618483Y-173873886D01*
X203618483Y-173873886D02*
X203654768Y-173910171D01*
X203654768Y-173910171D02*
X203727340Y-173946457D01*
X203727340Y-173946457D02*
X203908768Y-173946457D01*
X203908768Y-173946457D02*
X203981340Y-173910171D01*
X203981340Y-173910171D02*
X204017626Y-173873886D01*
X204017626Y-173873886D02*
X204053911Y-173801314D01*
X204053911Y-173801314D02*
X204053911Y-173619886D01*
X204053911Y-173619886D02*
X204017626Y-173547314D01*
X204017626Y-173547314D02*
X203981340Y-173511028D01*
X203618483Y-174381885D02*
X203582197Y-174309314D01*
X203582197Y-174309314D02*
X203545911Y-174273028D01*
X203545911Y-174273028D02*
X203473340Y-174236742D01*
X203473340Y-174236742D02*
X203437054Y-174236742D01*
X203437054Y-174236742D02*
X203364483Y-174273028D01*
X203364483Y-174273028D02*
X203328197Y-174309314D01*
X203328197Y-174309314D02*
X203291911Y-174381885D01*
X203291911Y-174381885D02*
X203291911Y-174527028D01*
X203291911Y-174527028D02*
X203328197Y-174599600D01*
X203328197Y-174599600D02*
X203364483Y-174635885D01*
X203364483Y-174635885D02*
X203437054Y-174672171D01*
X203437054Y-174672171D02*
X203473340Y-174672171D01*
X203473340Y-174672171D02*
X203545911Y-174635885D01*
X203545911Y-174635885D02*
X203582197Y-174599600D01*
X203582197Y-174599600D02*
X203618483Y-174527028D01*
X203618483Y-174527028D02*
X203618483Y-174381885D01*
X203618483Y-174381885D02*
X203654768Y-174309314D01*
X203654768Y-174309314D02*
X203691054Y-174273028D01*
X203691054Y-174273028D02*
X203763626Y-174236742D01*
X203763626Y-174236742D02*
X203908768Y-174236742D01*
X203908768Y-174236742D02*
X203981340Y-174273028D01*
X203981340Y-174273028D02*
X204017626Y-174309314D01*
X204017626Y-174309314D02*
X204053911Y-174381885D01*
X204053911Y-174381885D02*
X204053911Y-174527028D01*
X204053911Y-174527028D02*
X204017626Y-174599600D01*
X204017626Y-174599600D02*
X203981340Y-174635885D01*
X203981340Y-174635885D02*
X203908768Y-174672171D01*
X203908768Y-174672171D02*
X203763626Y-174672171D01*
X203763626Y-174672171D02*
X203691054Y-174635885D01*
X203691054Y-174635885D02*
X203654768Y-174599600D01*
X203654768Y-174599600D02*
X203618483Y-174527028D01*
X209201656Y-144795711D02*
X209455656Y-144432854D01*
X209637085Y-144795711D02*
X209637085Y-144033711D01*
X209637085Y-144033711D02*
X209346799Y-144033711D01*
X209346799Y-144033711D02*
X209274228Y-144069997D01*
X209274228Y-144069997D02*
X209237942Y-144106283D01*
X209237942Y-144106283D02*
X209201656Y-144178854D01*
X209201656Y-144178854D02*
X209201656Y-144287711D01*
X209201656Y-144287711D02*
X209237942Y-144360283D01*
X209237942Y-144360283D02*
X209274228Y-144396568D01*
X209274228Y-144396568D02*
X209346799Y-144432854D01*
X209346799Y-144432854D02*
X209637085Y-144432854D01*
X208512228Y-144033711D02*
X208875085Y-144033711D01*
X208875085Y-144033711D02*
X208911371Y-144396568D01*
X208911371Y-144396568D02*
X208875085Y-144360283D01*
X208875085Y-144360283D02*
X208802514Y-144323997D01*
X208802514Y-144323997D02*
X208621085Y-144323997D01*
X208621085Y-144323997D02*
X208548514Y-144360283D01*
X208548514Y-144360283D02*
X208512228Y-144396568D01*
X208512228Y-144396568D02*
X208475942Y-144469140D01*
X208475942Y-144469140D02*
X208475942Y-144650568D01*
X208475942Y-144650568D02*
X208512228Y-144723140D01*
X208512228Y-144723140D02*
X208548514Y-144759426D01*
X208548514Y-144759426D02*
X208621085Y-144795711D01*
X208621085Y-144795711D02*
X208802514Y-144795711D01*
X208802514Y-144795711D02*
X208875085Y-144759426D01*
X208875085Y-144759426D02*
X208911371Y-144723140D01*
X208221942Y-144033711D02*
X207750228Y-144033711D01*
X207750228Y-144033711D02*
X208004228Y-144323997D01*
X208004228Y-144323997D02*
X207895371Y-144323997D01*
X207895371Y-144323997D02*
X207822800Y-144360283D01*
X207822800Y-144360283D02*
X207786514Y-144396568D01*
X207786514Y-144396568D02*
X207750228Y-144469140D01*
X207750228Y-144469140D02*
X207750228Y-144650568D01*
X207750228Y-144650568D02*
X207786514Y-144723140D01*
X207786514Y-144723140D02*
X207822800Y-144759426D01*
X207822800Y-144759426D02*
X207895371Y-144795711D01*
X207895371Y-144795711D02*
X208113085Y-144795711D01*
X208113085Y-144795711D02*
X208185657Y-144759426D01*
X208185657Y-144759426D02*
X208221942Y-144723140D01*
D11*
%TO.C,R49*%
X218035136Y-102973200D02*
X218489264Y-102973200D01*
X218035136Y-104443200D02*
X218489264Y-104443200D01*
%TO.C,R56*%
X207417936Y-98452000D02*
X207872064Y-98452000D01*
X207417936Y-99922000D02*
X207872064Y-99922000D01*
%TO.C,R74*%
X185700936Y-120423000D02*
X186155064Y-120423000D01*
X185700936Y-121893000D02*
X186155064Y-121893000D01*
%TO.C,C35*%
X185666748Y-122455000D02*
X186189252Y-122455000D01*
X185666748Y-123925000D02*
X186189252Y-123925000D01*
%TO.C,C12*%
X220372000Y-171137252D02*
X220372000Y-170614748D01*
X221842000Y-171137252D02*
X221842000Y-170614748D01*
%TO.C,R65*%
X195861000Y-129185936D02*
X195861000Y-129640064D01*
X197331000Y-129185936D02*
X197331000Y-129640064D01*
%TO.C,Q2*%
X210697000Y-140172000D02*
X210697000Y-140222000D01*
X210697000Y-141342000D02*
X210697000Y-142122000D01*
X210697000Y-143242000D02*
X210697000Y-143292000D01*
X210697000Y-143292000D02*
X212517000Y-143292000D01*
X212517000Y-140172000D02*
X210697000Y-140172000D01*
X212517000Y-141172000D02*
X212517000Y-140172000D01*
X212517000Y-143292000D02*
X212517000Y-142292000D01*
X210157000Y-142112000D02*
X209917000Y-141782000D01*
X210397000Y-141782000D01*
X210157000Y-142112000D01*
G36*
X210157000Y-142112000D02*
G01*
X209917000Y-141782000D01*
X210397000Y-141782000D01*
X210157000Y-142112000D01*
G37*
%TO.C,R73*%
X186155064Y-116867000D02*
X185700936Y-116867000D01*
X186155064Y-118337000D02*
X185700936Y-118337000D01*
%TO.C,R70*%
X188187064Y-94769000D02*
X187732936Y-94769000D01*
X188187064Y-96239000D02*
X187732936Y-96239000D01*
%TO.C,R69*%
X188187064Y-92737000D02*
X187732936Y-92737000D01*
X188187064Y-94207000D02*
X187732936Y-94207000D01*
%TO.C,C20*%
X217997048Y-97436000D02*
X218519552Y-97436000D01*
X217997048Y-98906000D02*
X218519552Y-98906000D01*
%TO.C,C9*%
X222257252Y-152427000D02*
X221734748Y-152427000D01*
X222257252Y-153897000D02*
X221734748Y-153897000D01*
%TO.C,R82*%
X185700936Y-150903000D02*
X186155064Y-150903000D01*
X185700936Y-152373000D02*
X186155064Y-152373000D01*
%TO.C,C18*%
X218780500Y-112910252D02*
X218780500Y-112387748D01*
X220250500Y-112910252D02*
X220250500Y-112387748D01*
%TO.C,C27*%
X201068000Y-171137252D02*
X201068000Y-170614748D01*
X202538000Y-171137252D02*
X202538000Y-170614748D01*
%TO.C,C16*%
X220210748Y-91340000D02*
X220733252Y-91340000D01*
X220210748Y-92810000D02*
X220733252Y-92810000D01*
%TO.C,R66*%
X195480000Y-170648936D02*
X195480000Y-171103064D01*
X196950000Y-170648936D02*
X196950000Y-171103064D01*
%TO.C,R54*%
X211834064Y-145823000D02*
X211379936Y-145823000D01*
X211834064Y-147293000D02*
X211379936Y-147293000D01*
%TO.C,D24*%
X207497000Y-148808000D02*
X207497000Y-148858000D01*
X207497000Y-149978000D02*
X207497000Y-150758000D01*
X207497000Y-151878000D02*
X207497000Y-151928000D01*
X207497000Y-151928000D02*
X209317000Y-151928000D01*
X209317000Y-148808000D02*
X207497000Y-148808000D01*
X209317000Y-149808000D02*
X209317000Y-148808000D01*
X209317000Y-151928000D02*
X209317000Y-150928000D01*
X206957000Y-150748000D02*
X206717000Y-150418000D01*
X207197000Y-150418000D01*
X206957000Y-150748000D01*
G36*
X206957000Y-150748000D02*
G01*
X206717000Y-150418000D01*
X207197000Y-150418000D01*
X206957000Y-150748000D01*
G37*
%TO.C,C21*%
X218000948Y-105005200D02*
X218523452Y-105005200D01*
X218000948Y-106475200D02*
X218523452Y-106475200D01*
%TO.C,D23*%
X213847000Y-148808000D02*
X213847000Y-149808000D01*
X213847000Y-150928000D02*
X213847000Y-151928000D01*
X213847000Y-151928000D02*
X215667000Y-151928000D01*
X215667000Y-148808000D02*
X213847000Y-148808000D01*
X215667000Y-148858000D02*
X215667000Y-148808000D01*
X215667000Y-150758000D02*
X215667000Y-149978000D01*
X215667000Y-151928000D02*
X215667000Y-151878000D01*
X216447000Y-150318000D02*
X215967000Y-150318000D01*
X216207000Y-149988000D01*
X216447000Y-150318000D01*
G36*
X216447000Y-150318000D02*
G01*
X215967000Y-150318000D01*
X216207000Y-149988000D01*
X216447000Y-150318000D01*
G37*
%TO.C,R62*%
X199925000Y-129640064D02*
X199925000Y-129185936D01*
X201395000Y-129640064D02*
X201395000Y-129185936D01*
%TO.C,R63*%
X197893000Y-129640064D02*
X197893000Y-129185936D01*
X199363000Y-129640064D02*
X199363000Y-129185936D01*
%TO.C,C29*%
X197746252Y-140997000D02*
X197223748Y-140997000D01*
X197746252Y-142467000D02*
X197223748Y-142467000D01*
%TO.C,C26*%
X203785800Y-139387948D02*
X203785800Y-139910452D01*
X205255800Y-139387948D02*
X205255800Y-139910452D01*
%TO.C,R83*%
X186155064Y-154967000D02*
X185700936Y-154967000D01*
X186155064Y-156437000D02*
X185700936Y-156437000D01*
%TO.C,C15*%
X220210748Y-89308000D02*
X220733252Y-89308000D01*
X220210748Y-90778000D02*
X220733252Y-90778000D01*
%TO.C,R59*%
X201753800Y-139422136D02*
X201753800Y-139876264D01*
X203223800Y-139422136D02*
X203223800Y-139876264D01*
%TO.C,C23*%
X213621252Y-134752500D02*
X213098748Y-134752500D01*
X213621252Y-136222500D02*
X213098748Y-136222500D01*
%TO.C,R72*%
X185700936Y-112803000D02*
X186155064Y-112803000D01*
X185700936Y-114273000D02*
X186155064Y-114273000D01*
%TO.C,C34*%
X185666748Y-114835000D02*
X186189252Y-114835000D01*
X185666748Y-116305000D02*
X186189252Y-116305000D01*
%TO.C,R52*%
X212752000Y-171103064D02*
X212752000Y-170648936D01*
X214222000Y-171103064D02*
X214222000Y-170648936D01*
%TO.C,R68*%
X187860000Y-170648936D02*
X187860000Y-171103064D01*
X189330000Y-170648936D02*
X189330000Y-171103064D01*
%TO.C,R76*%
X185700936Y-128043000D02*
X186155064Y-128043000D01*
X185700936Y-129513000D02*
X186155064Y-129513000D01*
%TO.C,C41*%
X185666748Y-165127000D02*
X186189252Y-165127000D01*
X185666748Y-166597000D02*
X186189252Y-166597000D01*
%TO.C,R64*%
X197512000Y-171103064D02*
X197512000Y-170648936D01*
X198982000Y-171103064D02*
X198982000Y-170648936D01*
%TO.C,R84*%
X185700936Y-156999000D02*
X186155064Y-156999000D01*
X185700936Y-158469000D02*
X186155064Y-158469000D01*
%TO.C,R87*%
X186155064Y-167159000D02*
X185700936Y-167159000D01*
X186155064Y-168629000D02*
X185700936Y-168629000D01*
%TO.C,R71*%
X188187064Y-96801000D02*
X187732936Y-96801000D01*
X188187064Y-98271000D02*
X187732936Y-98271000D01*
%TO.C,R75*%
X186155064Y-124487000D02*
X185700936Y-124487000D01*
X186155064Y-125957000D02*
X185700936Y-125957000D01*
%TO.C,R38*%
X222223064Y-154459000D02*
X221768936Y-154459000D01*
X222223064Y-155929000D02*
X221768936Y-155929000D01*
%TO.C,C30*%
X193448000Y-171137252D02*
X193448000Y-170614748D01*
X194918000Y-171137252D02*
X194918000Y-170614748D01*
%TO.C,C40*%
X185666748Y-159031000D02*
X186189252Y-159031000D01*
X185666748Y-160501000D02*
X186189252Y-160501000D01*
%TO.C,R41*%
X222223064Y-162587000D02*
X221768936Y-162587000D01*
X222223064Y-164057000D02*
X221768936Y-164057000D01*
%TO.C,R40*%
X222223064Y-160555000D02*
X221768936Y-160555000D01*
X222223064Y-162025000D02*
X221768936Y-162025000D01*
%TO.C,R80*%
X185700936Y-143283000D02*
X186155064Y-143283000D01*
X185700936Y-144753000D02*
X186155064Y-144753000D01*
%TO.C,R77*%
X186155064Y-132107000D02*
X185700936Y-132107000D01*
X186155064Y-133577000D02*
X185700936Y-133577000D01*
%TO.C,R43*%
X220244936Y-79148000D02*
X220699064Y-79148000D01*
X220244936Y-80618000D02*
X220699064Y-80618000D01*
%TO.C,Q4*%
X195863800Y-123509600D02*
X195863800Y-124509600D01*
X195863800Y-125629600D02*
X195863800Y-126629600D01*
X195863800Y-126629600D02*
X197683800Y-126629600D01*
X197683800Y-123509600D02*
X195863800Y-123509600D01*
X197683800Y-123559600D02*
X197683800Y-123509600D01*
X197683800Y-125459600D02*
X197683800Y-124679600D01*
X197683800Y-126629600D02*
X197683800Y-126579600D01*
X198463800Y-125019600D02*
X197983800Y-125019600D01*
X198223800Y-124689600D01*
X198463800Y-125019600D01*
G36*
X198463800Y-125019600D02*
G01*
X197983800Y-125019600D01*
X198223800Y-124689600D01*
X198463800Y-125019600D01*
G37*
%TO.C,C25*%
X207906252Y-96420000D02*
X207383748Y-96420000D01*
X207906252Y-97890000D02*
X207383748Y-97890000D01*
%TO.C,C14*%
X220210748Y-87276000D02*
X220733252Y-87276000D01*
X220210748Y-88746000D02*
X220733252Y-88746000D01*
%TO.C,R78*%
X185700936Y-135663000D02*
X186155064Y-135663000D01*
X185700936Y-137133000D02*
X186155064Y-137133000D01*
%TO.C,C32*%
X187698748Y-88673000D02*
X188221252Y-88673000D01*
X187698748Y-90143000D02*
X188221252Y-90143000D01*
%TO.C,R37*%
X221768936Y-150395000D02*
X222223064Y-150395000D01*
X221768936Y-151865000D02*
X222223064Y-151865000D01*
%TO.C,Q3*%
X200308800Y-123509600D02*
X200308800Y-123559600D01*
X200308800Y-124679600D02*
X200308800Y-125459600D01*
X200308800Y-126579600D02*
X200308800Y-126629600D01*
X200308800Y-126629600D02*
X202128800Y-126629600D01*
X202128800Y-123509600D02*
X200308800Y-123509600D01*
X202128800Y-124509600D02*
X202128800Y-123509600D01*
X202128800Y-126629600D02*
X202128800Y-125629600D01*
X199768800Y-125449600D02*
X199528800Y-125119600D01*
X200008800Y-125119600D01*
X199768800Y-125449600D01*
G36*
X199768800Y-125449600D02*
G01*
X199528800Y-125119600D01*
X200008800Y-125119600D01*
X199768800Y-125449600D01*
G37*
%TO.C,R57*%
X205132000Y-171103064D02*
X205132000Y-170648936D01*
X206602000Y-171103064D02*
X206602000Y-170648936D01*
%TO.C,R51*%
X216308000Y-171103064D02*
X216308000Y-170648936D01*
X217778000Y-171103064D02*
X217778000Y-170648936D01*
%TO.C,C13*%
X220733252Y-85244000D02*
X220210748Y-85244000D01*
X220733252Y-86714000D02*
X220210748Y-86714000D01*
%TO.C,R35*%
X222223064Y-146331000D02*
X221768936Y-146331000D01*
X222223064Y-147801000D02*
X221768936Y-147801000D01*
%TO.C,C22*%
X216408052Y-138713800D02*
X214985548Y-138713800D01*
X216408052Y-140533800D02*
X214985548Y-140533800D01*
%TO.C,R46*%
X218340000Y-170648936D02*
X218340000Y-171103064D01*
X219810000Y-170648936D02*
X219810000Y-171103064D01*
%TO.C,R61*%
X201420464Y-121489800D02*
X200966336Y-121489800D01*
X201420464Y-122959800D02*
X200966336Y-122959800D01*
%TO.C,R47*%
X218031236Y-95404000D02*
X218485364Y-95404000D01*
X218031236Y-96874000D02*
X218485364Y-96874000D01*
%TO.C,R42*%
X221768936Y-164619000D02*
X222223064Y-164619000D01*
X221768936Y-166089000D02*
X222223064Y-166089000D01*
%TO.C,C37*%
X185666748Y-137695000D02*
X186189252Y-137695000D01*
X185666748Y-139165000D02*
X186189252Y-139165000D01*
%TO.C,R45*%
X220244936Y-83212000D02*
X220699064Y-83212000D01*
X220244936Y-84682000D02*
X220699064Y-84682000D01*
%TO.C,C24*%
X208688000Y-171137252D02*
X208688000Y-170614748D01*
X210158000Y-171137252D02*
X210158000Y-170614748D01*
%TO.C,R85*%
X186155064Y-161063000D02*
X185700936Y-161063000D01*
X186155064Y-162533000D02*
X185700936Y-162533000D01*
%TO.C,C38*%
X185666748Y-145315000D02*
X186189252Y-145315000D01*
X185666748Y-146785000D02*
X186189252Y-146785000D01*
%TO.C,R79*%
X186155064Y-139727000D02*
X185700936Y-139727000D01*
X186155064Y-141197000D02*
X185700936Y-141197000D01*
%TO.C,R67*%
X189892000Y-171103064D02*
X189892000Y-170648936D01*
X191362000Y-171103064D02*
X191362000Y-170648936D01*
%TO.C,C17*%
X219737000Y-132624552D02*
X219737000Y-132102048D01*
X221207000Y-132624552D02*
X221207000Y-132102048D01*
%TO.C,C31*%
X187698748Y-84609000D02*
X188221252Y-84609000D01*
X187698748Y-86079000D02*
X188221252Y-86079000D01*
%TO.C,R44*%
X220244936Y-81180000D02*
X220699064Y-81180000D01*
X220244936Y-82650000D02*
X220699064Y-82650000D01*
%TO.C,C36*%
X185666748Y-130075000D02*
X186189252Y-130075000D01*
X185666748Y-131545000D02*
X186189252Y-131545000D01*
%TO.C,C19*%
X217705000Y-132624552D02*
X217705000Y-132102048D01*
X219175000Y-132624552D02*
X219175000Y-132102048D01*
%TO.C,R39*%
X221768936Y-156491000D02*
X222223064Y-156491000D01*
X221768936Y-157961000D02*
X222223064Y-157961000D01*
%TO.C,R81*%
X186155064Y-147347000D02*
X185700936Y-147347000D01*
X186155064Y-148817000D02*
X185700936Y-148817000D01*
%TO.C,R48*%
X218031236Y-99468000D02*
X218485364Y-99468000D01*
X218031236Y-100938000D02*
X218485364Y-100938000D01*
%TO.C,R55*%
X210720000Y-170648936D02*
X210720000Y-171103064D01*
X212190000Y-170648936D02*
X212190000Y-171103064D01*
%TO.C,C11*%
X222257252Y-166651000D02*
X221734748Y-166651000D01*
X222257252Y-168121000D02*
X221734748Y-168121000D01*
%TO.C,C39*%
X185666748Y-152935000D02*
X186189252Y-152935000D01*
X185666748Y-154405000D02*
X186189252Y-154405000D01*
%TO.C,C28*%
X200932148Y-117425800D02*
X201454652Y-117425800D01*
X200932148Y-118895800D02*
X201454652Y-118895800D01*
%TO.C,R60*%
X200966336Y-119457800D02*
X201420464Y-119457800D01*
X200966336Y-120927800D02*
X201420464Y-120927800D01*
%TO.C,R36*%
X221768936Y-148363000D02*
X222223064Y-148363000D01*
X221768936Y-149833000D02*
X222223064Y-149833000D01*
%TO.C,C33*%
X185828000Y-171137252D02*
X185828000Y-170614748D01*
X187298000Y-171137252D02*
X187298000Y-170614748D01*
%TO.C,R86*%
X185700936Y-163095000D02*
X186155064Y-163095000D01*
X185700936Y-164565000D02*
X186155064Y-164565000D01*
%TO.C,C10*%
X222257252Y-158523000D02*
X221734748Y-158523000D01*
X222257252Y-159993000D02*
X221734748Y-159993000D01*
%TO.C,R50*%
X218035136Y-107037200D02*
X218489264Y-107037200D01*
X218035136Y-108507200D02*
X218489264Y-108507200D01*
%TO.C,R58*%
X203100000Y-170648936D02*
X203100000Y-171103064D01*
X204570000Y-170648936D02*
X204570000Y-171103064D01*
%TO.C,R53*%
X211379936Y-143791000D02*
X211834064Y-143791000D01*
X211379936Y-145261000D02*
X211834064Y-145261000D01*
%TD*%
M02*
