%TF.GenerationSoftware,KiCad,Pcbnew,10.0.3-10.0.3~ubuntu26.04.1*%
%TF.CreationDate,2026-05-25T16:34:00-07:00*%
%TF.ProjectId,NX-J401-Adapter-v6,4e582d4a-3430-4312-9d41-646170746572,1*%
%TF.SameCoordinates,Original*%
%TF.FileFunction,Profile,NP*%
%FSLAX46Y46*%
G04 Gerber Fmt 4.6, Leading zero omitted, Abs format (unit mm)*
G04 Created by KiCad (PCBNEW 10.0.3-10.0.3~ubuntu26.04.1) date 2026-05-25 16:34:00*
%MOMM*%
%LPD*%
G01*
G04 APERTURE LIST*
%TA.AperFunction,Profile*%
%ADD10C,0.100000*%
%TD*%
G04 APERTURE END LIST*
D10*
X156000200Y-75538000D02*
X156000200Y-152500000D01*
X156000200Y-75538000D02*
G75*
G02*
X157016200Y-74522000I1016000J0D01*
G01*
X157016200Y-74522021D02*
X254983980Y-74522021D01*
X157016200Y-153516000D02*
G75*
G02*
X156000200Y-152500000I0J1016000D01*
G01*
X157016200Y-153516000D02*
X254984000Y-153516000D01*
X158540200Y-88138000D02*
X158540200Y-99314000D01*
X158540200Y-88138000D02*
G75*
G02*
X159556200Y-87122000I1016000J0D01*
G01*
X159556200Y-87122000D02*
X172524200Y-87122000D01*
X159556200Y-100330000D02*
G75*
G02*
X158540200Y-99314000I0J1016000D01*
G01*
X172524200Y-87122000D02*
G75*
G02*
X173540200Y-88138000I0J-1016000D01*
G01*
X172524200Y-100330000D02*
X159556200Y-100330000D01*
X173540200Y-88138000D02*
X173540200Y-99314000D01*
X173540200Y-99314000D02*
G75*
G02*
X172524200Y-100330000I-1016000J0D01*
G01*
X254984000Y-74522000D02*
G75*
G02*
X256000000Y-75538000I0J-1016000D01*
G01*
X256000000Y-75538000D02*
X256000000Y-80618000D01*
X256000000Y-85063000D02*
X256000000Y-101573000D01*
X256000000Y-85064250D02*
G75*
G02*
X258532380Y-85064250I1266190J0D01*
G01*
X256000000Y-106018000D02*
X256000000Y-131724050D01*
X256000000Y-106019250D02*
G75*
G02*
X258532380Y-106019250I1266190J0D01*
G01*
X256000000Y-136169050D02*
X256000000Y-152501250D01*
X256000000Y-136169050D02*
G75*
G02*
X258532380Y-136169050I1266190J0D01*
G01*
X256000000Y-152500000D02*
G75*
G02*
X254984000Y-153516000I-1016000J0D01*
G01*
X258532380Y-75792000D02*
G75*
G02*
X259802380Y-74521980I1270020J0D01*
G01*
X258532380Y-80618000D02*
G75*
G02*
X256000000Y-80618000I-1266190J0D01*
G01*
X258532380Y-80618000D02*
X258532380Y-75792000D01*
X258532380Y-101573000D02*
X258532380Y-85063000D01*
X258532380Y-101574250D02*
G75*
G02*
X256000000Y-101574250I-1266190J0D01*
G01*
X258532380Y-131724050D02*
G75*
G02*
X256000000Y-131724050I-1266190J0D01*
G01*
X258532380Y-131724050D02*
X258532380Y-106018000D01*
X258532380Y-138377600D02*
X258532380Y-136167800D01*
X259802380Y-74522000D02*
X274741380Y-74522000D01*
X259802380Y-139647600D02*
G75*
G02*
X258532400Y-138377600I20J1270000D01*
G01*
X274741380Y-74522000D02*
G75*
G02*
X276011400Y-75792000I20J-1270000D01*
G01*
X274741380Y-139647600D02*
X259802380Y-139647600D01*
X276011380Y-75792000D02*
X276011380Y-138377600D01*
X276011380Y-138377600D02*
G75*
G02*
X274741380Y-139647580I-1269980J0D01*
G01*
M02*
