M48
; DRILL file KiCad 10.0.3-10.0.3~ubuntu24.04.1 date 2026-05-26T08:50:33
; FORMAT={-:-/ absolute / metric / decimal}
; #@! TF.CreationDate,2026-05-26T08:50:33-07:00
; #@! TF.GenerationSoftware,Kicad,Pcbnew,10.0.3-10.0.3~ubuntu24.04.1
; #@! TF.FileFunction,MixedPlating,1,4
FMAT,2
METRIC
; #@! TA.AperFunction,Plated,PTH,ViaDrill
T1C0.300
; #@! TA.AperFunction,Plated,PTH,ComponentDrill
T2C0.300
; #@! TA.AperFunction,Plated,PTH,ViaDrill
T3C0.305
; #@! TA.AperFunction,Plated,PTH,ViaDrill
T4C0.381
; #@! TA.AperFunction,Plated,PTH,ViaDrill
T5C0.635
; #@! TA.AperFunction,Plated,PTH,ComponentDrill
T6C0.991
; #@! TA.AperFunction,Plated,PTH,ComponentDrill
T7C1.000
; #@! TA.AperFunction,Plated,PTH,ComponentDrill
T8C1.020
; #@! TA.AperFunction,Plated,PTH,ComponentDrill
T9C1.067
; #@! TA.AperFunction,Plated,PTH,ComponentDrill
T10C1.295
; #@! TA.AperFunction,Plated,PTH,ComponentDrill
T11C1.575
; #@! TA.AperFunction,NonPlated,NPTH,ComponentDrill
T12C0.650
; #@! TA.AperFunction,NonPlated,NPTH,ComponentDrill
T13C2.000
; #@! TA.AperFunction,NonPlated,NPTH,ComponentDrill
T14C2.500
; #@! TA.AperFunction,NonPlated,NPTH,ComponentDrill
T15C3.000
; #@! TA.AperFunction,NonPlated,NPTH,ComponentDrill
T16C3.400
; #@! TA.AperFunction,NonPlated,NPTH,ComponentDrill
T17C3.700
%
G90
G05
T1
X180.924Y-108.407
X182.956Y-119.329
X184.508Y-117.986
X184.785Y-127.508
X185.496Y-108.179
X186.03Y-119.634
X186.055Y-117.577
X186.309Y-137.414
X186.766Y-125.425
X187.554Y-119.355
X189.103Y-119.304
X189.382Y-137.439
X189.636Y-114.783
X189.865Y-119.304
X190.194Y-123.839
X190.881Y-137.439
X191.211Y-122.961
X191.372Y-119.005
X192.151Y-119.355
X192.43Y-137.439
X193.484Y-122.643
X193.675Y-119.558
X193.98Y-137.439
X195.453Y-137.465
X196.418Y-140.462
X196.589Y-116.265
X196.723Y-119.507
X196.723Y-123.012
X197.333Y-108.407
X197.478Y-117.653
X198.298Y-108.128
X200.0Y-133.807
X200.025Y-143.231
X201.498Y-137.439
X202.057Y-123.876
X202.108Y-125.374
X202.87Y-125.882
X204.905Y-140.434
X205.842Y-143.256
X208.331Y-138.887
X211.76Y-128.139
X213.055Y-128.143
X222.656Y-121.844
X224.536Y-107.442
X224.561Y-104.699
X226.06Y-122.584
X226.339Y-100.025
X227.355Y-117.196
X228.219Y-107.417
X229.032Y-117.221
X229.21Y-109.855
X229.921Y-100.0
X230.149Y-108.331
X230.708Y-106.578
X231.191Y-98.73
X231.369Y-89.484
X231.597Y-109.804
X233.045Y-131.801
X233.782Y-137.566
X233.832Y-113.284
X234.213Y-102.87
X234.569Y-125.73
X234.645Y-96.342
X234.899Y-127.33
X234.975Y-103.708
X234.975Y-105.867
X235.356Y-113.259
X236.525Y-96.368
X236.576Y-101.905
X236.576Y-103.937
X237.769Y-100.762
X238.125Y-87.249
X238.218Y-131.157
X238.252Y-125.73
X238.506Y-83.337
X238.531Y-92.1
X238.531Y-96.139
X238.557Y-85.344
X238.989Y-102.997
X239.649Y-125.705
X239.827Y-131.166
X240.64Y-138.118
X240.741Y-135.636
X240.843Y-140.183
X242.291Y-102.21
X242.291Y-103.734
X242.316Y-100.711
X242.595Y-85.344
X242.697Y-83.312
X242.849Y-88.214
X243.205Y-127.381
X244.069Y-140.614
X244.551Y-135.357
X244.754Y-145.059
X245.161Y-129.896
X246.126Y-128.651
X246.863Y-123.622
X247.041Y-124.453
X248.107Y-141.859
X248.107Y-143.383
X248.133Y-138.836
X248.133Y-140.335
X249.555Y-145.059
T2
X187.321Y-126.97
X187.321Y-128.27
X187.321Y-129.57
X189.101Y-126.97
X189.101Y-128.27
X189.101Y-129.57
X190.881Y-126.97
X190.881Y-128.27
X190.881Y-129.57
X192.661Y-126.97
X192.661Y-128.27
X192.661Y-129.57
X194.441Y-126.97
X194.441Y-128.27
X194.441Y-129.57
X196.221Y-126.97
X196.221Y-128.27
X196.221Y-129.57
T3
X243.51Y-145.085
X248.209Y-135.357
X250.622Y-145.085
T4
X210.515Y-130.2
X212.395Y-133.756
X212.598Y-100.584
X214.325Y-130.048
X230.835Y-115.316
T5
X165.227Y-130.15
X167.488Y-117.221
X167.513Y-106.299
X171.069Y-106.299
X171.069Y-117.221
X173.838Y-130.175
X174.625Y-106.299
X174.65Y-117.221
X177.47Y-130.175
X178.181Y-106.299
X178.181Y-117.221
X195.453Y-115.697
X195.453Y-116.84
X195.453Y-117.983
X199.898Y-102.743
X201.566Y-104.065
X203.835Y-106.299
X203.835Y-117.221
X207.391Y-106.299
X207.391Y-117.221
X210.947Y-106.299
X210.947Y-117.221
X214.503Y-106.299
X214.503Y-117.221
X218.059Y-106.299
X218.059Y-117.221
X223.342Y-86.893
X225.146Y-98.019
X226.873Y-86.944
X226.873Y-96.52
X240.132Y-146.736
X241.986Y-148.692
X243.992Y-150.673
X250.266Y-150.673
X252.197Y-144.805
T6
X220.762Y-150.647
X225.262Y-150.647
X231.43Y-150.698
X235.93Y-150.698
T7
X185.343Y-84.74
X187.883Y-84.74
X190.423Y-84.74
X192.963Y-84.74
X195.503Y-84.74
X198.043Y-84.74
X200.583Y-84.74
X203.123Y-84.74
X205.663Y-84.74
X208.203Y-84.74
X210.743Y-84.74
X213.283Y-84.74
X215.823Y-84.74
X218.363Y-84.74
X220.903Y-84.74
X245.424Y-108.331
X245.424Y-110.871
X245.424Y-113.411
X245.424Y-115.951
X245.424Y-118.491
X262.274Y-93.142
X262.274Y-95.682
X262.274Y-98.222
X262.274Y-100.762
X262.274Y-103.302
X262.274Y-105.842
X262.274Y-108.382
X262.274Y-110.922
X262.274Y-113.462
X262.274Y-116.002
X262.274Y-118.542
X262.274Y-121.082
X262.274Y-123.622
X262.274Y-126.162
X262.274Y-128.702
X271.874Y-93.142
X271.874Y-95.682
X271.874Y-98.222
X271.874Y-100.762
X271.874Y-103.302
X271.874Y-105.842
X271.874Y-108.382
X271.874Y-110.922
X271.874Y-113.462
X271.874Y-116.002
X271.874Y-118.542
X271.874Y-121.082
X271.874Y-123.622
X271.874Y-126.162
X271.874Y-128.702
T8
X164.235Y-144.596
X167.235Y-144.596
X192.46Y-89.826
X192.46Y-92.826
T9
X179.299Y-140.507
X181.839Y-140.507
T10
X219.512Y-148.147
X226.512Y-148.147
X230.18Y-148.198
X237.18Y-148.198
T11
X175.463Y-76.637
X175.463Y-81.717
X180.898Y-76.637
X180.898Y-81.717
X225.348Y-76.637
X225.348Y-81.717
X230.784Y-76.637
X230.784Y-81.717
T12
X244.252Y-147.229
X250.032Y-147.229
T14
X159.983Y-78.49
X159.983Y-136.49
X168.873Y-78.49
X219.964Y-100.203
X227.203Y-141.478
X251.983Y-78.49
X251.983Y-136.49
T15
X165.735Y-148.916
X188.14Y-91.326
T16
X177.899Y-149.147
X183.239Y-149.147
T17
X263.324Y-85.979
X263.324Y-135.865
T13
X189.484Y-142.979G85X189.484Y-143.279
G05
X211.884Y-142.979G85X211.884Y-143.279
G05
M30
