%TF.GenerationSoftware,KiCad,Pcbnew,9.0.5-9.0.5~ubuntu24.04.1*%
%TF.CreationDate,2025-10-22T23:17:41-07:00*%
%TF.ProjectId,mag-encoder,6d61672d-656e-4636-9f64-65722e6b6963,1*%
%TF.SameCoordinates,Original*%
%TF.FileFunction,Copper,L3,Inr*%
%TF.FilePolarity,Positive*%
%FSLAX46Y46*%
G04 Gerber Fmt 4.6, Leading zero omitted, Abs format (unit mm)*
G04 Created by KiCad (PCBNEW 9.0.5-9.0.5~ubuntu24.04.1) date 2025-10-22 23:17:41*
%MOMM*%
%LPD*%
G01*
G04 APERTURE LIST*
%TA.AperFunction,ComponentPad*%
%ADD10C,3.810000*%
%TD*%
%TA.AperFunction,ComponentPad*%
%ADD11R,1.700000X1.700000*%
%TD*%
%TA.AperFunction,ComponentPad*%
%ADD12O,1.700000X1.700000*%
%TD*%
%TA.AperFunction,ViaPad*%
%ADD13C,0.600000*%
%TD*%
%TA.AperFunction,ViaPad*%
%ADD14C,0.609600*%
%TD*%
%TA.AperFunction,ViaPad*%
%ADD15C,0.500000*%
%TD*%
G04 APERTURE END LIST*
D10*
%TO.N,*%
%TO.C,H1*%
X224840800Y-114046000D03*
%TD*%
D11*
%TO.N,GND*%
%TO.C,J1*%
X221411800Y-117221000D03*
D12*
%TO.N,+3.3V*%
X221411800Y-119761000D03*
%TO.N,/CS*%
X221411800Y-122301000D03*
%TO.N,/MOSI*%
X221411800Y-124841000D03*
%TO.N,/MISO*%
X221411800Y-127381000D03*
%TO.N,/SCLK*%
X221411800Y-129921000D03*
%TD*%
D10*
%TO.N,*%
%TO.C,H2*%
X224840800Y-133096000D03*
%TD*%
D13*
%TO.N,+3.3V*%
X234696000Y-135939583D03*
X233248200Y-112344200D03*
D14*
X233464100Y-125260100D03*
X231317800Y-125984000D03*
D13*
X229857300Y-118021100D03*
X228463539Y-115122261D03*
%TO.N,GND*%
X229946200Y-115112800D03*
D14*
X226466400Y-117068600D03*
X232003600Y-122097800D03*
D13*
X227838000Y-135661400D03*
X234443344Y-118992046D03*
D15*
X232706800Y-118059200D03*
D13*
X232867200Y-135509000D03*
D15*
X231706800Y-118059200D03*
D13*
X238658400Y-127762000D03*
D14*
X233984800Y-121793000D03*
D13*
%TO.N,+5V*%
X230530400Y-111226600D03*
%TO.N,Net-(D4-A)*%
X232511600Y-131724400D03*
%TO.N,Net-(D1-K)*%
X228981000Y-111226600D03*
%TO.N,Net-(D3-A)*%
X230835200Y-131826000D03*
%TO.N,+5V_IN*%
X236474000Y-113792000D03*
X223139000Y-121031000D03*
%TO.N,Net-(C1-Pad1)*%
X229692200Y-116586000D03*
X233150883Y-115950999D03*
X233274839Y-120568637D03*
X230505000Y-119257800D03*
X236082570Y-125386858D03*
%TO.N,/A*%
X234645200Y-125501400D03*
%TO.N,/B*%
X237032800Y-125425200D03*
%TO.N,/PWM*%
X237744000Y-121437400D03*
%TO.N,Net-(D2-A)*%
X233984800Y-131449800D03*
%TO.N,Net-(D3-K)*%
X231622600Y-115595400D03*
D14*
%TO.N,Net-(U3-MGH)*%
X229368646Y-130086100D03*
D13*
X227545900Y-116776500D03*
D14*
X231343200Y-129692400D03*
%TO.N,/MISO*%
X231123451Y-121098347D03*
X231278250Y-126904864D03*
D13*
%TO.N,Net-(U3-A)*%
X229539800Y-119710200D03*
X229694099Y-126321418D03*
%TO.N,Net-(U3-PWM)*%
X232909286Y-122614514D03*
X236971960Y-121066440D03*
X233920500Y-115611177D03*
%TO.N,Net-(R3-Pad1)*%
X235458000Y-121793000D03*
X232435400Y-120624600D03*
%TD*%
%TA.AperFunction,Conductor*%
%TO.N,GND*%
G36*
X230652776Y-110157519D02*
G01*
X231362590Y-110181477D01*
X231369200Y-110181877D01*
X232076716Y-110243755D01*
X232083287Y-110244506D01*
X232786511Y-110344132D01*
X232793030Y-110345234D01*
X233489888Y-110482312D01*
X233496334Y-110483760D01*
X234184914Y-110657918D01*
X234191260Y-110659705D01*
X234869528Y-110870428D01*
X234875790Y-110872560D01*
X235541810Y-111119247D01*
X235547910Y-111121694D01*
X236199823Y-111403658D01*
X236205786Y-111406429D01*
X236789813Y-111697035D01*
X236841653Y-111722830D01*
X236847507Y-111725941D01*
X237338108Y-112003732D01*
X237465526Y-112075879D01*
X237471203Y-112079297D01*
X237736191Y-112248665D01*
X238069642Y-112461792D01*
X238075133Y-112465513D01*
X238652222Y-112879431D01*
X238657507Y-112883439D01*
X238987856Y-113148243D01*
X239027853Y-113205532D01*
X239034300Y-113244996D01*
X239034300Y-115345242D01*
X239014615Y-115412281D01*
X238961811Y-115458036D01*
X238892653Y-115467980D01*
X238829097Y-115438955D01*
X238822619Y-115432923D01*
X238721011Y-115331315D01*
X238721004Y-115331309D01*
X238478126Y-115144942D01*
X238478124Y-115144940D01*
X238478118Y-115144936D01*
X238478113Y-115144933D01*
X238478110Y-115144931D01*
X238212989Y-114991862D01*
X238212973Y-114991854D01*
X237930140Y-114874702D01*
X237785826Y-114836033D01*
X237634411Y-114795461D01*
X237634410Y-114795460D01*
X237634407Y-114795460D01*
X237330886Y-114755501D01*
X237330883Y-114755500D01*
X237330877Y-114755500D01*
X237024723Y-114755500D01*
X237024717Y-114755500D01*
X237024713Y-114755501D01*
X236721192Y-114795460D01*
X236425459Y-114874702D01*
X236142626Y-114991854D01*
X236142610Y-114991862D01*
X235877489Y-115144931D01*
X235877473Y-115144942D01*
X235634595Y-115331309D01*
X235634588Y-115331315D01*
X235418115Y-115547788D01*
X235418109Y-115547795D01*
X235231742Y-115790673D01*
X235231731Y-115790689D01*
X235078662Y-116055810D01*
X235078654Y-116055826D01*
X234961502Y-116338659D01*
X234882260Y-116634392D01*
X234842301Y-116937913D01*
X234842300Y-116937929D01*
X234842300Y-117244070D01*
X234842301Y-117244086D01*
X234882260Y-117547607D01*
X234961502Y-117843340D01*
X235078654Y-118126173D01*
X235078662Y-118126189D01*
X235231731Y-118391310D01*
X235231742Y-118391326D01*
X235418109Y-118634204D01*
X235418115Y-118634211D01*
X235634588Y-118850684D01*
X235634595Y-118850690D01*
X235723012Y-118918535D01*
X235877482Y-119037064D01*
X235877489Y-119037068D01*
X236142610Y-119190137D01*
X236142626Y-119190145D01*
X236425459Y-119307297D01*
X236425461Y-119307297D01*
X236425467Y-119307300D01*
X236721189Y-119386539D01*
X237024723Y-119426500D01*
X237024730Y-119426500D01*
X237330870Y-119426500D01*
X237330877Y-119426500D01*
X237634411Y-119386539D01*
X237930133Y-119307300D01*
X238028660Y-119266489D01*
X238212973Y-119190145D01*
X238212976Y-119190143D01*
X238212982Y-119190141D01*
X238478118Y-119037064D01*
X238721006Y-118850689D01*
X238766210Y-118805485D01*
X238822619Y-118749077D01*
X238883942Y-118715592D01*
X238953634Y-118720576D01*
X239009567Y-118762448D01*
X239033984Y-118827912D01*
X239034300Y-118836758D01*
X239034300Y-128305242D01*
X239014615Y-128372281D01*
X238961811Y-128418036D01*
X238892653Y-128427980D01*
X238829097Y-128398955D01*
X238822619Y-128392923D01*
X238721011Y-128291315D01*
X238721004Y-128291309D01*
X238478126Y-128104942D01*
X238478124Y-128104940D01*
X238478118Y-128104936D01*
X238478113Y-128104933D01*
X238478110Y-128104931D01*
X238212989Y-127951862D01*
X238212973Y-127951854D01*
X237930140Y-127834702D01*
X237819209Y-127804978D01*
X237634411Y-127755461D01*
X237634410Y-127755460D01*
X237634407Y-127755460D01*
X237330886Y-127715501D01*
X237330883Y-127715500D01*
X237330877Y-127715500D01*
X237024723Y-127715500D01*
X237024717Y-127715500D01*
X237024713Y-127715501D01*
X236721192Y-127755460D01*
X236425459Y-127834702D01*
X236142626Y-127951854D01*
X236142610Y-127951862D01*
X235877489Y-128104931D01*
X235877473Y-128104942D01*
X235634595Y-128291309D01*
X235634588Y-128291315D01*
X235418115Y-128507788D01*
X235418109Y-128507795D01*
X235231742Y-128750673D01*
X235231731Y-128750689D01*
X235078662Y-129015810D01*
X235078654Y-129015826D01*
X234961502Y-129298659D01*
X234882260Y-129594392D01*
X234842301Y-129897913D01*
X234842300Y-129897929D01*
X234842300Y-130204070D01*
X234842301Y-130204086D01*
X234881243Y-130499884D01*
X234882261Y-130507611D01*
X234908968Y-130607284D01*
X234961502Y-130803340D01*
X235078654Y-131086173D01*
X235078662Y-131086189D01*
X235231731Y-131351310D01*
X235231742Y-131351326D01*
X235418109Y-131594204D01*
X235418115Y-131594211D01*
X235634588Y-131810684D01*
X235634595Y-131810690D01*
X235749683Y-131899000D01*
X235877482Y-131997064D01*
X235877489Y-131997068D01*
X236142610Y-132150137D01*
X236142626Y-132150145D01*
X236425459Y-132267297D01*
X236425461Y-132267297D01*
X236425467Y-132267300D01*
X236721189Y-132346539D01*
X237024723Y-132386500D01*
X237024730Y-132386500D01*
X237330870Y-132386500D01*
X237330877Y-132386500D01*
X237634411Y-132346539D01*
X237930133Y-132267300D01*
X238131154Y-132184035D01*
X238212973Y-132150145D01*
X238212976Y-132150143D01*
X238212982Y-132150141D01*
X238478118Y-131997064D01*
X238721006Y-131810689D01*
X238743783Y-131787912D01*
X238822619Y-131709077D01*
X238883942Y-131675592D01*
X238953634Y-131680576D01*
X239009567Y-131722448D01*
X239033984Y-131787912D01*
X239034300Y-131796758D01*
X239034300Y-133896564D01*
X239014615Y-133963603D01*
X238987747Y-133993404D01*
X238657823Y-134257259D01*
X238652545Y-134261254D01*
X238075365Y-134674353D01*
X238069882Y-134678060D01*
X237471473Y-135059777D01*
X237465799Y-135063186D01*
X236847901Y-135412412D01*
X236842054Y-135415514D01*
X236206385Y-135731278D01*
X236200380Y-135734064D01*
X235548759Y-136015461D01*
X235542615Y-136017922D01*
X235417516Y-136064192D01*
X235347810Y-136068986D01*
X235286579Y-136035333D01*
X235253262Y-135973918D01*
X235250500Y-135947892D01*
X235250500Y-135866584D01*
X235250500Y-135866582D01*
X235212712Y-135725554D01*
X235139711Y-135599112D01*
X235036471Y-135495872D01*
X235036470Y-135495871D01*
X235036467Y-135495869D01*
X234910031Y-135422872D01*
X234910030Y-135422871D01*
X234910029Y-135422871D01*
X234769001Y-135385083D01*
X234622999Y-135385083D01*
X234481971Y-135422871D01*
X234481968Y-135422872D01*
X234355532Y-135495869D01*
X234355527Y-135495873D01*
X234252290Y-135599110D01*
X234252286Y-135599115D01*
X234179289Y-135725551D01*
X234179288Y-135725554D01*
X234141500Y-135866582D01*
X234141500Y-136012584D01*
X234175223Y-136138439D01*
X234179288Y-136153611D01*
X234179289Y-136153614D01*
X234252286Y-136280050D01*
X234254332Y-136282716D01*
X234255358Y-136285371D01*
X234256352Y-136287092D01*
X234256083Y-136287246D01*
X234279528Y-136347885D01*
X234265491Y-136416330D01*
X234216678Y-136466321D01*
X234186335Y-136478427D01*
X233498224Y-136652293D01*
X233491765Y-136653742D01*
X232795333Y-136790646D01*
X232788807Y-136791749D01*
X232086040Y-136891300D01*
X232079463Y-136892053D01*
X231372413Y-136953957D01*
X231365806Y-136954359D01*
X230656421Y-136978448D01*
X230649802Y-136978496D01*
X229940147Y-136964698D01*
X229933535Y-136964392D01*
X229225665Y-136912746D01*
X229219079Y-136912089D01*
X228514921Y-136822738D01*
X228508379Y-136821729D01*
X227810051Y-136694942D01*
X227803572Y-136693587D01*
X227112949Y-136529703D01*
X227106552Y-136528003D01*
X226425687Y-136327508D01*
X226419389Y-136325469D01*
X225750198Y-136088930D01*
X225744019Y-136086559D01*
X225213623Y-135866582D01*
X225088385Y-135814640D01*
X225082356Y-135811949D01*
X224442147Y-135505424D01*
X224436259Y-135502408D01*
X224340221Y-135449951D01*
X224290822Y-135400540D01*
X224275979Y-135332265D01*
X224300405Y-135266804D01*
X224356344Y-135224940D01*
X224415847Y-135218188D01*
X224418591Y-135218549D01*
X224418598Y-135218551D01*
X224660501Y-135250397D01*
X224699258Y-135255500D01*
X224699259Y-135255500D01*
X224982342Y-135255500D01*
X225046066Y-135247110D01*
X225263002Y-135218551D01*
X225536438Y-135145284D01*
X225742870Y-135059777D01*
X225797963Y-135036957D01*
X225797966Y-135036955D01*
X225797972Y-135036953D01*
X226043128Y-134895412D01*
X226267713Y-134723082D01*
X226467882Y-134522913D01*
X226640212Y-134298328D01*
X226781753Y-134053172D01*
X226890084Y-133791638D01*
X226963351Y-133518202D01*
X227000300Y-133237541D01*
X227000300Y-132954459D01*
X226963351Y-132673798D01*
X226890084Y-132400362D01*
X226839772Y-132278899D01*
X226781757Y-132138836D01*
X226781749Y-132138820D01*
X226640216Y-131893679D01*
X226640212Y-131893672D01*
X226640208Y-131893667D01*
X226640205Y-131893662D01*
X226583957Y-131820358D01*
X226532270Y-131752999D01*
X230280700Y-131752999D01*
X230280700Y-131899001D01*
X230308915Y-132004299D01*
X230318488Y-132040028D01*
X230318489Y-132040031D01*
X230391486Y-132166467D01*
X230391488Y-132166470D01*
X230391489Y-132166471D01*
X230494729Y-132269711D01*
X230494730Y-132269712D01*
X230494732Y-132269713D01*
X230557950Y-132306211D01*
X230621171Y-132342712D01*
X230762199Y-132380500D01*
X230762201Y-132380500D01*
X230908199Y-132380500D01*
X230908201Y-132380500D01*
X231049229Y-132342712D01*
X231175671Y-132269711D01*
X231278911Y-132166471D01*
X231351912Y-132040029D01*
X231389700Y-131899001D01*
X231389700Y-131752999D01*
X231362477Y-131651399D01*
X231957100Y-131651399D01*
X231957100Y-131797401D01*
X231984324Y-131899001D01*
X231994888Y-131938428D01*
X231994889Y-131938431D01*
X232067886Y-132064867D01*
X232067888Y-132064870D01*
X232067889Y-132064871D01*
X232171129Y-132168111D01*
X232297571Y-132241112D01*
X232438599Y-132278900D01*
X232438601Y-132278900D01*
X232584599Y-132278900D01*
X232584601Y-132278900D01*
X232725629Y-132241112D01*
X232852071Y-132168111D01*
X232955311Y-132064871D01*
X233028312Y-131938429D01*
X233066100Y-131797401D01*
X233066100Y-131651399D01*
X233028312Y-131510371D01*
X232955311Y-131383929D01*
X232948181Y-131376799D01*
X233430300Y-131376799D01*
X233430300Y-131522801D01*
X233464758Y-131651399D01*
X233468088Y-131663828D01*
X233468089Y-131663831D01*
X233541086Y-131790267D01*
X233541088Y-131790270D01*
X233541089Y-131790271D01*
X233644329Y-131893511D01*
X233644330Y-131893512D01*
X233644332Y-131893513D01*
X233653836Y-131899000D01*
X233770771Y-131966512D01*
X233911799Y-132004300D01*
X233911801Y-132004300D01*
X234057799Y-132004300D01*
X234057801Y-132004300D01*
X234198829Y-131966512D01*
X234325271Y-131893511D01*
X234428511Y-131790271D01*
X234501512Y-131663829D01*
X234539300Y-131522801D01*
X234539300Y-131376799D01*
X234501512Y-131235771D01*
X234428511Y-131109329D01*
X234325271Y-131006089D01*
X234325270Y-131006088D01*
X234325267Y-131006086D01*
X234198831Y-130933089D01*
X234198830Y-130933088D01*
X234198829Y-130933088D01*
X234057801Y-130895300D01*
X233911799Y-130895300D01*
X233770771Y-130933088D01*
X233770768Y-130933089D01*
X233644332Y-131006086D01*
X233644327Y-131006090D01*
X233541090Y-131109327D01*
X233541086Y-131109332D01*
X233468089Y-131235768D01*
X233468088Y-131235771D01*
X233430300Y-131376799D01*
X232948181Y-131376799D01*
X232852071Y-131280689D01*
X232852070Y-131280688D01*
X232852067Y-131280686D01*
X232725631Y-131207689D01*
X232725630Y-131207688D01*
X232725629Y-131207688D01*
X232584601Y-131169900D01*
X232438599Y-131169900D01*
X232297571Y-131207688D01*
X232297568Y-131207689D01*
X232171132Y-131280686D01*
X232171127Y-131280690D01*
X232067890Y-131383927D01*
X232067886Y-131383932D01*
X231994889Y-131510368D01*
X231994888Y-131510371D01*
X231957100Y-131651399D01*
X231362477Y-131651399D01*
X231351912Y-131611971D01*
X231300429Y-131522799D01*
X231278913Y-131485532D01*
X231278909Y-131485527D01*
X231175672Y-131382290D01*
X231175667Y-131382286D01*
X231049231Y-131309289D01*
X231049230Y-131309288D01*
X231049229Y-131309288D01*
X230908201Y-131271500D01*
X230762199Y-131271500D01*
X230621171Y-131309288D01*
X230621168Y-131309289D01*
X230494732Y-131382286D01*
X230494727Y-131382290D01*
X230391490Y-131485527D01*
X230391486Y-131485532D01*
X230318489Y-131611968D01*
X230318488Y-131611971D01*
X230280700Y-131752999D01*
X226532270Y-131752999D01*
X226467883Y-131669088D01*
X226467877Y-131669081D01*
X226267718Y-131468922D01*
X226267711Y-131468916D01*
X226043136Y-131296594D01*
X226043134Y-131296592D01*
X226043128Y-131296588D01*
X226043123Y-131296585D01*
X226043120Y-131296583D01*
X225797979Y-131155050D01*
X225797963Y-131155042D01*
X225536436Y-131046715D01*
X225355758Y-130998303D01*
X225263002Y-130973449D01*
X225262996Y-130973448D01*
X225262991Y-130973447D01*
X224982342Y-130936500D01*
X224982341Y-130936500D01*
X224699259Y-130936500D01*
X224699258Y-130936500D01*
X224418608Y-130973447D01*
X224418601Y-130973448D01*
X224418598Y-130973449D01*
X224360812Y-130988932D01*
X224145163Y-131046715D01*
X223883636Y-131155042D01*
X223883620Y-131155050D01*
X223638479Y-131296583D01*
X223638463Y-131296594D01*
X223413888Y-131468916D01*
X223413881Y-131468922D01*
X223213722Y-131669081D01*
X223213716Y-131669088D01*
X223041394Y-131893663D01*
X223041383Y-131893679D01*
X222899850Y-132138820D01*
X222899842Y-132138836D01*
X222791515Y-132400363D01*
X222718250Y-132673795D01*
X222718247Y-132673808D01*
X222681300Y-132954458D01*
X222681300Y-133237541D01*
X222718247Y-133518191D01*
X222718248Y-133518196D01*
X222718249Y-133518202D01*
X222718250Y-133518204D01*
X222791515Y-133791636D01*
X222899842Y-134053163D01*
X222899850Y-134053179D01*
X223041383Y-134298320D01*
X223041394Y-134298336D01*
X223173292Y-134470229D01*
X223198486Y-134535398D01*
X223184448Y-134603843D01*
X223135634Y-134653832D01*
X223067542Y-134669496D01*
X223004218Y-134647586D01*
X222615105Y-134377537D01*
X222609799Y-134373641D01*
X222527583Y-134309822D01*
X222414175Y-134221790D01*
X222049095Y-133938400D01*
X222043977Y-133934203D01*
X221507332Y-133469693D01*
X221502445Y-133465229D01*
X220991325Y-132972721D01*
X220986693Y-132968013D01*
X220502583Y-132448933D01*
X220498204Y-132443978D01*
X220469421Y-132409609D01*
X220179334Y-132063218D01*
X220151383Y-131999183D01*
X220150400Y-131983628D01*
X220150397Y-131966510D01*
X220150094Y-130393508D01*
X220169766Y-130326468D01*
X220222561Y-130280703D01*
X220291717Y-130270746D01*
X220355279Y-130299758D01*
X220385103Y-130341100D01*
X220386008Y-130340640D01*
X220388220Y-130344981D01*
X220467147Y-130499884D01*
X220569335Y-130640533D01*
X220692267Y-130763465D01*
X220832916Y-130865653D01*
X220891102Y-130895300D01*
X220987821Y-130944581D01*
X221153158Y-130998302D01*
X221153159Y-130998302D01*
X221153162Y-130998303D01*
X221324874Y-131025500D01*
X221324875Y-131025500D01*
X221498725Y-131025500D01*
X221498726Y-131025500D01*
X221670438Y-130998303D01*
X221670441Y-130998302D01*
X221670442Y-130998302D01*
X221835778Y-130944581D01*
X221835778Y-130944580D01*
X221835781Y-130944580D01*
X221990684Y-130865653D01*
X222131333Y-130763465D01*
X222254265Y-130640533D01*
X222356453Y-130499884D01*
X222435380Y-130344981D01*
X222436641Y-130341100D01*
X222489102Y-130179642D01*
X222489102Y-130179641D01*
X222489103Y-130179638D01*
X222515581Y-130012467D01*
X228809346Y-130012467D01*
X228809346Y-130159733D01*
X228846866Y-130299758D01*
X228847463Y-130301985D01*
X228899218Y-130391626D01*
X228921095Y-130429518D01*
X229025228Y-130533651D01*
X229114872Y-130585407D01*
X229152760Y-130607282D01*
X229152761Y-130607282D01*
X229152764Y-130607284D01*
X229295013Y-130645400D01*
X229295016Y-130645400D01*
X229442276Y-130645400D01*
X229442279Y-130645400D01*
X229584528Y-130607284D01*
X229712064Y-130533651D01*
X229816197Y-130429518D01*
X229889830Y-130301982D01*
X229927946Y-130159733D01*
X229927946Y-130012467D01*
X229889830Y-129870218D01*
X229816197Y-129742682D01*
X229712064Y-129638549D01*
X229677801Y-129618767D01*
X230783900Y-129618767D01*
X230783900Y-129766033D01*
X230819242Y-129897929D01*
X230822017Y-129908285D01*
X230873772Y-129997926D01*
X230895649Y-130035818D01*
X230999782Y-130139951D01*
X231068522Y-130179638D01*
X231127314Y-130213582D01*
X231127315Y-130213582D01*
X231127318Y-130213584D01*
X231269567Y-130251700D01*
X231269570Y-130251700D01*
X231416830Y-130251700D01*
X231416833Y-130251700D01*
X231559082Y-130213584D01*
X231686618Y-130139951D01*
X231790751Y-130035818D01*
X231864384Y-129908282D01*
X231902500Y-129766033D01*
X231902500Y-129618767D01*
X231864384Y-129476518D01*
X231848481Y-129448974D01*
X231842507Y-129438626D01*
X231790751Y-129348982D01*
X231686618Y-129244849D01*
X231648726Y-129222972D01*
X231559085Y-129171217D01*
X231559086Y-129171217D01*
X231547420Y-129168091D01*
X231416833Y-129133100D01*
X231269567Y-129133100D01*
X231138979Y-129168091D01*
X231127314Y-129171217D01*
X230999785Y-129244847D01*
X230999779Y-129244851D01*
X230895651Y-129348979D01*
X230895647Y-129348985D01*
X230822017Y-129476514D01*
X230822016Y-129476518D01*
X230783900Y-129618767D01*
X229677801Y-129618767D01*
X229635577Y-129594389D01*
X229584531Y-129564917D01*
X229584532Y-129564917D01*
X229572866Y-129561791D01*
X229442279Y-129526800D01*
X229295013Y-129526800D01*
X229164425Y-129561791D01*
X229152760Y-129564917D01*
X229025231Y-129638547D01*
X229025225Y-129638551D01*
X228921097Y-129742679D01*
X228921093Y-129742685D01*
X228847463Y-129870214D01*
X228847462Y-129870218D01*
X228809346Y-130012467D01*
X222515581Y-130012467D01*
X222516300Y-130007926D01*
X222516300Y-129834074D01*
X222489103Y-129662362D01*
X222489102Y-129662358D01*
X222489102Y-129662357D01*
X222435381Y-129497021D01*
X222410900Y-129448974D01*
X222356453Y-129342116D01*
X222254265Y-129201467D01*
X222131333Y-129078535D01*
X221990684Y-128976347D01*
X221835778Y-128897418D01*
X221670441Y-128843697D01*
X221541654Y-128823299D01*
X221498726Y-128816500D01*
X221324874Y-128816500D01*
X221267636Y-128825565D01*
X221153160Y-128843697D01*
X221153157Y-128843697D01*
X220987821Y-128897418D01*
X220832915Y-128976347D01*
X220778600Y-129015810D01*
X220692267Y-129078535D01*
X220692265Y-129078537D01*
X220692264Y-129078537D01*
X220569337Y-129201464D01*
X220569337Y-129201465D01*
X220569335Y-129201467D01*
X220537816Y-129244849D01*
X220467147Y-129342115D01*
X220386008Y-129501360D01*
X220384928Y-129500810D01*
X220344616Y-129550818D01*
X220278318Y-129572872D01*
X220210621Y-129555581D01*
X220163020Y-129504436D01*
X220149913Y-129448974D01*
X220149894Y-129348979D01*
X220149606Y-127852329D01*
X220169278Y-127785289D01*
X220222073Y-127739524D01*
X220291229Y-127729567D01*
X220354791Y-127758579D01*
X220385365Y-127800967D01*
X220386008Y-127800640D01*
X220388122Y-127804789D01*
X220388163Y-127804846D01*
X220388214Y-127804971D01*
X220463058Y-127951859D01*
X220467147Y-127959884D01*
X220569335Y-128100533D01*
X220692267Y-128223465D01*
X220832916Y-128325653D01*
X220924429Y-128372281D01*
X220987821Y-128404581D01*
X221153158Y-128458302D01*
X221153159Y-128458302D01*
X221153162Y-128458303D01*
X221324874Y-128485500D01*
X221324875Y-128485500D01*
X221498725Y-128485500D01*
X221498726Y-128485500D01*
X221670438Y-128458303D01*
X221670441Y-128458302D01*
X221670442Y-128458302D01*
X221835778Y-128404581D01*
X221835778Y-128404580D01*
X221835781Y-128404580D01*
X221990684Y-128325653D01*
X222131333Y-128223465D01*
X222254265Y-128100533D01*
X222356453Y-127959884D01*
X222435380Y-127804981D01*
X222436684Y-127800967D01*
X222489102Y-127639642D01*
X222489102Y-127639641D01*
X222489103Y-127639638D01*
X222516300Y-127467926D01*
X222516300Y-127294074D01*
X222489103Y-127122362D01*
X222489102Y-127122358D01*
X222489102Y-127122357D01*
X222435381Y-126957021D01*
X222374803Y-126838130D01*
X222356453Y-126802116D01*
X222254265Y-126661467D01*
X222131333Y-126538535D01*
X221990684Y-126436347D01*
X221873279Y-126376526D01*
X221835778Y-126357418D01*
X221670440Y-126303697D01*
X221555963Y-126285565D01*
X221498726Y-126276500D01*
X221324874Y-126276500D01*
X221267636Y-126285565D01*
X221153160Y-126303697D01*
X221153157Y-126303697D01*
X220987821Y-126357418D01*
X220832915Y-126436347D01*
X220789363Y-126467990D01*
X220692267Y-126538535D01*
X220692265Y-126538537D01*
X220692264Y-126538537D01*
X220569337Y-126661464D01*
X220569337Y-126661465D01*
X220569335Y-126661467D01*
X220569028Y-126661890D01*
X220467147Y-126802115D01*
X220388212Y-126957033D01*
X220387979Y-126957597D01*
X220387833Y-126957777D01*
X220386008Y-126961360D01*
X220385255Y-126960976D01*
X220344131Y-127011994D01*
X220277833Y-127034050D01*
X220210136Y-127016761D01*
X220162533Y-126965617D01*
X220149425Y-126910154D01*
X220149298Y-126248417D01*
X229139599Y-126248417D01*
X229139599Y-126394419D01*
X229171195Y-126512336D01*
X229177387Y-126535446D01*
X229177388Y-126535449D01*
X229250385Y-126661885D01*
X229250387Y-126661888D01*
X229250388Y-126661889D01*
X229353628Y-126765129D01*
X229480070Y-126838130D01*
X229621098Y-126875918D01*
X229621100Y-126875918D01*
X229767098Y-126875918D01*
X229767100Y-126875918D01*
X229908128Y-126838130D01*
X229920077Y-126831231D01*
X230718950Y-126831231D01*
X230718950Y-126978497D01*
X230733836Y-127034050D01*
X230757067Y-127120749D01*
X230808822Y-127210390D01*
X230830699Y-127248282D01*
X230934832Y-127352415D01*
X231024476Y-127404171D01*
X231062364Y-127426046D01*
X231062365Y-127426046D01*
X231062368Y-127426048D01*
X231204617Y-127464164D01*
X231204620Y-127464164D01*
X231351880Y-127464164D01*
X231351883Y-127464164D01*
X231494132Y-127426048D01*
X231621668Y-127352415D01*
X231725801Y-127248282D01*
X231799434Y-127120746D01*
X231837550Y-126978497D01*
X231837550Y-126831231D01*
X231799434Y-126688982D01*
X231783792Y-126661890D01*
X231777557Y-126651090D01*
X231725801Y-126561446D01*
X231716243Y-126551888D01*
X231682758Y-126490565D01*
X231687742Y-126420873D01*
X231716243Y-126376526D01*
X231735351Y-126357418D01*
X231765351Y-126327418D01*
X231838984Y-126199882D01*
X231877100Y-126057633D01*
X231877100Y-125910367D01*
X231838984Y-125768118D01*
X231837571Y-125765671D01*
X231808565Y-125715431D01*
X231765351Y-125640582D01*
X231661218Y-125536449D01*
X231594969Y-125498200D01*
X231533685Y-125462817D01*
X231533686Y-125462817D01*
X231522020Y-125459691D01*
X231391433Y-125424700D01*
X231244167Y-125424700D01*
X231113579Y-125459691D01*
X231101914Y-125462817D01*
X230974385Y-125536447D01*
X230974379Y-125536451D01*
X230870251Y-125640579D01*
X230870247Y-125640585D01*
X230796617Y-125768114D01*
X230796616Y-125768118D01*
X230758500Y-125910367D01*
X230758500Y-126057633D01*
X230796616Y-126199882D01*
X230796617Y-126199885D01*
X230824639Y-126248419D01*
X230870249Y-126327418D01*
X230870251Y-126327420D01*
X230879806Y-126336975D01*
X230913291Y-126398298D01*
X230908307Y-126467990D01*
X230879808Y-126512336D01*
X230830699Y-126561446D01*
X230830697Y-126561449D01*
X230757067Y-126688978D01*
X230757066Y-126688982D01*
X230718950Y-126831231D01*
X229920077Y-126831231D01*
X230034570Y-126765129D01*
X230137810Y-126661889D01*
X230210811Y-126535447D01*
X230248599Y-126394419D01*
X230248599Y-126248417D01*
X230210811Y-126107389D01*
X230137810Y-125980947D01*
X230034570Y-125877707D01*
X230034569Y-125877706D01*
X230034566Y-125877704D01*
X229908130Y-125804707D01*
X229908129Y-125804706D01*
X229908128Y-125804706D01*
X229767100Y-125766918D01*
X229621098Y-125766918D01*
X229480070Y-125804706D01*
X229480067Y-125804707D01*
X229353631Y-125877704D01*
X229353626Y-125877708D01*
X229250389Y-125980945D01*
X229250385Y-125980950D01*
X229177388Y-126107386D01*
X229177387Y-126107389D01*
X229139599Y-126248417D01*
X220149298Y-126248417D01*
X220149118Y-125311151D01*
X220168790Y-125244110D01*
X220221585Y-125198345D01*
X220290741Y-125188388D01*
X220354303Y-125217400D01*
X220385629Y-125260833D01*
X220386008Y-125260640D01*
X220387254Y-125263086D01*
X220387679Y-125263675D01*
X220388220Y-125264982D01*
X220423249Y-125333730D01*
X220467147Y-125419884D01*
X220569335Y-125560533D01*
X220692267Y-125683465D01*
X220832916Y-125785653D01*
X220943250Y-125841871D01*
X220987821Y-125864581D01*
X221153158Y-125918302D01*
X221153159Y-125918302D01*
X221153162Y-125918303D01*
X221324874Y-125945500D01*
X221324875Y-125945500D01*
X221498725Y-125945500D01*
X221498726Y-125945500D01*
X221670438Y-125918303D01*
X221670441Y-125918302D01*
X221670442Y-125918302D01*
X221835778Y-125864581D01*
X221835778Y-125864580D01*
X221835781Y-125864580D01*
X221990684Y-125785653D01*
X222131333Y-125683465D01*
X222254265Y-125560533D01*
X222356453Y-125419884D01*
X222435380Y-125264981D01*
X222436728Y-125260833D01*
X222460891Y-125186467D01*
X232904800Y-125186467D01*
X232904800Y-125333733D01*
X232942916Y-125475982D01*
X232942917Y-125475985D01*
X232977828Y-125536451D01*
X233016549Y-125603518D01*
X233120682Y-125707651D01*
X233210326Y-125759407D01*
X233248214Y-125781282D01*
X233248215Y-125781282D01*
X233248218Y-125781284D01*
X233390467Y-125819400D01*
X233390470Y-125819400D01*
X233537730Y-125819400D01*
X233537733Y-125819400D01*
X233679982Y-125781284D01*
X233807518Y-125707651D01*
X233907150Y-125608018D01*
X233968469Y-125574536D01*
X234038161Y-125579520D01*
X234094095Y-125621391D01*
X234114603Y-125663608D01*
X234128488Y-125715430D01*
X234128489Y-125715431D01*
X234201486Y-125841867D01*
X234201488Y-125841870D01*
X234201489Y-125841871D01*
X234304729Y-125945111D01*
X234304730Y-125945112D01*
X234304732Y-125945113D01*
X234364637Y-125979699D01*
X234431171Y-126018112D01*
X234572199Y-126055900D01*
X234572201Y-126055900D01*
X234718199Y-126055900D01*
X234718201Y-126055900D01*
X234859229Y-126018112D01*
X234985671Y-125945111D01*
X235088911Y-125841871D01*
X235161912Y-125715429D01*
X235199700Y-125574401D01*
X235199700Y-125428399D01*
X235169009Y-125313857D01*
X235528070Y-125313857D01*
X235528070Y-125459859D01*
X235558798Y-125574536D01*
X235565858Y-125600886D01*
X235565859Y-125600889D01*
X235638856Y-125727325D01*
X235638858Y-125727328D01*
X235638859Y-125727329D01*
X235742099Y-125830569D01*
X235742100Y-125830570D01*
X235742102Y-125830571D01*
X235761676Y-125841872D01*
X235868541Y-125903570D01*
X236009569Y-125941358D01*
X236009571Y-125941358D01*
X236155569Y-125941358D01*
X236155571Y-125941358D01*
X236296599Y-125903570D01*
X236423041Y-125830569D01*
X236450833Y-125802777D01*
X236512156Y-125769292D01*
X236581848Y-125774276D01*
X236626195Y-125802777D01*
X236692329Y-125868911D01*
X236818771Y-125941912D01*
X236959799Y-125979700D01*
X236959801Y-125979700D01*
X237105799Y-125979700D01*
X237105801Y-125979700D01*
X237246829Y-125941912D01*
X237373271Y-125868911D01*
X237476511Y-125765671D01*
X237549512Y-125639229D01*
X237587300Y-125498201D01*
X237587300Y-125352199D01*
X237549512Y-125211171D01*
X237485119Y-125099638D01*
X237476513Y-125084732D01*
X237476509Y-125084727D01*
X237373272Y-124981490D01*
X237373267Y-124981486D01*
X237246831Y-124908489D01*
X237246830Y-124908488D01*
X237246829Y-124908488D01*
X237105801Y-124870700D01*
X236959799Y-124870700D01*
X236818771Y-124908488D01*
X236818768Y-124908489D01*
X236692332Y-124981486D01*
X236692330Y-124981488D01*
X236664534Y-125009283D01*
X236603209Y-125042766D01*
X236533518Y-125037779D01*
X236489174Y-125009280D01*
X236423042Y-124943148D01*
X236423037Y-124943144D01*
X236296601Y-124870147D01*
X236296600Y-124870146D01*
X236296599Y-124870146D01*
X236155571Y-124832358D01*
X236009569Y-124832358D01*
X235868541Y-124870146D01*
X235868538Y-124870147D01*
X235742102Y-124943144D01*
X235742097Y-124943148D01*
X235638860Y-125046385D01*
X235638856Y-125046390D01*
X235565859Y-125172826D01*
X235565858Y-125172829D01*
X235528070Y-125313857D01*
X235169009Y-125313857D01*
X235161912Y-125287371D01*
X235104770Y-125188397D01*
X235088913Y-125160932D01*
X235088909Y-125160927D01*
X234985672Y-125057690D01*
X234985667Y-125057686D01*
X234859231Y-124984689D01*
X234859230Y-124984688D01*
X234859229Y-124984688D01*
X234718201Y-124946900D01*
X234572199Y-124946900D01*
X234431171Y-124984688D01*
X234431168Y-124984689D01*
X234304732Y-125057686D01*
X234207505Y-125154913D01*
X234146182Y-125188397D01*
X234076490Y-125183413D01*
X234020557Y-125141541D01*
X234000050Y-125099327D01*
X233985284Y-125044218D01*
X233981566Y-125037779D01*
X233949067Y-124981488D01*
X233911651Y-124916682D01*
X233807518Y-124812549D01*
X233769626Y-124790672D01*
X233679985Y-124738917D01*
X233679986Y-124738917D01*
X233668320Y-124735791D01*
X233537733Y-124700800D01*
X233390467Y-124700800D01*
X233259879Y-124735791D01*
X233248214Y-124738917D01*
X233120685Y-124812547D01*
X233120679Y-124812551D01*
X233016551Y-124916679D01*
X233016547Y-124916685D01*
X232942917Y-125044214D01*
X232942916Y-125044218D01*
X232904800Y-125186467D01*
X222460891Y-125186467D01*
X222475982Y-125140022D01*
X222489102Y-125099642D01*
X222489102Y-125099641D01*
X222489103Y-125099638D01*
X222516300Y-124927926D01*
X222516300Y-124754074D01*
X222489103Y-124582362D01*
X222489102Y-124582358D01*
X222489102Y-124582357D01*
X222435381Y-124417021D01*
X222356452Y-124262115D01*
X222254265Y-124121467D01*
X222131333Y-123998535D01*
X221990684Y-123896347D01*
X221835778Y-123817418D01*
X221670441Y-123763697D01*
X221541654Y-123743299D01*
X221498726Y-123736500D01*
X221324874Y-123736500D01*
X221267636Y-123745565D01*
X221153160Y-123763697D01*
X221153157Y-123763697D01*
X220987821Y-123817418D01*
X220832915Y-123896347D01*
X220752669Y-123954649D01*
X220692267Y-123998535D01*
X220692265Y-123998537D01*
X220692264Y-123998537D01*
X220569337Y-124121464D01*
X220569337Y-124121465D01*
X220569335Y-124121467D01*
X220525449Y-124181869D01*
X220467147Y-124262115D01*
X220388214Y-124417030D01*
X220387492Y-124418773D01*
X220387041Y-124419332D01*
X220386008Y-124421360D01*
X220385581Y-124421142D01*
X220343645Y-124473171D01*
X220277348Y-124495228D01*
X220209650Y-124477940D01*
X220162046Y-124426797D01*
X220148937Y-124371333D01*
X220148630Y-122769969D01*
X220168301Y-122702931D01*
X220221096Y-122657166D01*
X220290252Y-122647209D01*
X220353814Y-122676221D01*
X220385895Y-122720697D01*
X220386008Y-122720640D01*
X220386379Y-122721368D01*
X220387186Y-122722487D01*
X220388216Y-122724975D01*
X220440987Y-122828542D01*
X220467147Y-122879884D01*
X220569335Y-123020533D01*
X220692267Y-123143465D01*
X220832916Y-123245653D01*
X220987819Y-123324580D01*
X220987821Y-123324581D01*
X221153158Y-123378302D01*
X221153159Y-123378302D01*
X221153162Y-123378303D01*
X221324874Y-123405500D01*
X221324875Y-123405500D01*
X221498725Y-123405500D01*
X221498726Y-123405500D01*
X221670438Y-123378303D01*
X221670441Y-123378302D01*
X221670442Y-123378302D01*
X221835778Y-123324581D01*
X221835778Y-123324580D01*
X221835781Y-123324580D01*
X221990684Y-123245653D01*
X222131333Y-123143465D01*
X222254265Y-123020533D01*
X222356453Y-122879884D01*
X222435380Y-122724981D01*
X222489103Y-122559638D01*
X222491974Y-122541513D01*
X232354786Y-122541513D01*
X232354786Y-122687515D01*
X232364824Y-122724975D01*
X232392574Y-122828542D01*
X232392575Y-122828545D01*
X232465572Y-122954981D01*
X232465574Y-122954984D01*
X232465575Y-122954985D01*
X232568815Y-123058225D01*
X232695257Y-123131226D01*
X232836285Y-123169014D01*
X232836287Y-123169014D01*
X232982285Y-123169014D01*
X232982287Y-123169014D01*
X233123315Y-123131226D01*
X233249757Y-123058225D01*
X233352997Y-122954985D01*
X233425998Y-122828543D01*
X233463786Y-122687515D01*
X233463786Y-122541513D01*
X233425998Y-122400485D01*
X233389497Y-122337264D01*
X233352999Y-122274046D01*
X233352995Y-122274041D01*
X233249758Y-122170804D01*
X233249753Y-122170800D01*
X233123317Y-122097803D01*
X233123316Y-122097802D01*
X233123315Y-122097802D01*
X232982287Y-122060014D01*
X232836285Y-122060014D01*
X232695257Y-122097802D01*
X232695254Y-122097803D01*
X232568818Y-122170800D01*
X232568813Y-122170804D01*
X232465576Y-122274041D01*
X232465572Y-122274046D01*
X232392575Y-122400482D01*
X232392574Y-122400485D01*
X232354786Y-122541513D01*
X222491974Y-122541513D01*
X222516300Y-122387926D01*
X222516300Y-122214074D01*
X222489103Y-122042362D01*
X222489102Y-122042358D01*
X222489102Y-122042357D01*
X222435381Y-121877021D01*
X222429766Y-121866001D01*
X222356453Y-121722116D01*
X222354915Y-121719999D01*
X234903500Y-121719999D01*
X234903500Y-121866001D01*
X234937235Y-121991900D01*
X234941288Y-122007028D01*
X234941289Y-122007031D01*
X235014286Y-122133467D01*
X235014288Y-122133470D01*
X235014289Y-122133471D01*
X235117529Y-122236711D01*
X235243971Y-122309712D01*
X235384999Y-122347500D01*
X235385001Y-122347500D01*
X235530999Y-122347500D01*
X235531001Y-122347500D01*
X235672029Y-122309712D01*
X235798471Y-122236711D01*
X235901711Y-122133471D01*
X235974712Y-122007029D01*
X236012500Y-121866001D01*
X236012500Y-121719999D01*
X235974712Y-121578971D01*
X235901711Y-121452529D01*
X235798471Y-121349289D01*
X235798470Y-121349288D01*
X235798467Y-121349286D01*
X235672031Y-121276289D01*
X235672030Y-121276288D01*
X235672029Y-121276288D01*
X235531001Y-121238500D01*
X235384999Y-121238500D01*
X235243971Y-121276288D01*
X235243968Y-121276289D01*
X235117532Y-121349286D01*
X235117527Y-121349290D01*
X235014290Y-121452527D01*
X235014286Y-121452532D01*
X234941289Y-121578968D01*
X234941288Y-121578971D01*
X234903500Y-121719999D01*
X222354915Y-121719999D01*
X222254265Y-121581467D01*
X222131333Y-121458535D01*
X221990684Y-121356347D01*
X221908023Y-121314229D01*
X221835778Y-121277418D01*
X221670441Y-121223697D01*
X221541654Y-121203299D01*
X221498726Y-121196500D01*
X221324874Y-121196500D01*
X221267636Y-121205565D01*
X221153160Y-121223697D01*
X221153157Y-121223697D01*
X220987821Y-121277418D01*
X220832915Y-121356347D01*
X220752669Y-121414649D01*
X220692267Y-121458535D01*
X220692265Y-121458537D01*
X220692264Y-121458537D01*
X220569337Y-121581464D01*
X220569337Y-121581465D01*
X220569335Y-121581467D01*
X220549328Y-121609004D01*
X220467147Y-121722115D01*
X220388216Y-121877025D01*
X220387003Y-121879954D01*
X220386245Y-121880893D01*
X220386008Y-121881360D01*
X220385909Y-121881310D01*
X220343153Y-121934350D01*
X220276855Y-121956405D01*
X220209159Y-121939115D01*
X220161556Y-121887970D01*
X220148450Y-121832511D01*
X220148282Y-120957999D01*
X222584500Y-120957999D01*
X222584500Y-121104001D01*
X222604623Y-121179099D01*
X222622288Y-121245028D01*
X222622289Y-121245031D01*
X222695286Y-121371467D01*
X222695288Y-121371470D01*
X222695289Y-121371471D01*
X222798529Y-121474711D01*
X222924971Y-121547712D01*
X223065999Y-121585500D01*
X223066001Y-121585500D01*
X223211999Y-121585500D01*
X223212001Y-121585500D01*
X223353029Y-121547712D01*
X223479471Y-121474711D01*
X223582711Y-121371471D01*
X223655712Y-121245029D01*
X223693500Y-121104001D01*
X223693500Y-121024714D01*
X230564151Y-121024714D01*
X230564151Y-121171980D01*
X230602267Y-121314229D01*
X230602268Y-121314232D01*
X230635316Y-121371472D01*
X230675900Y-121441765D01*
X230780033Y-121545898D01*
X230844557Y-121583151D01*
X230907565Y-121619529D01*
X230907566Y-121619529D01*
X230907569Y-121619531D01*
X231049818Y-121657647D01*
X231049821Y-121657647D01*
X231197081Y-121657647D01*
X231197084Y-121657647D01*
X231339333Y-121619531D01*
X231466869Y-121545898D01*
X231571002Y-121441765D01*
X231644635Y-121314229D01*
X231682751Y-121171980D01*
X231682751Y-121024714D01*
X231644635Y-120882465D01*
X231629165Y-120855671D01*
X231606820Y-120816968D01*
X231571002Y-120754929D01*
X231466869Y-120650796D01*
X231418256Y-120622729D01*
X231339336Y-120577164D01*
X231339337Y-120577164D01*
X231327671Y-120574038D01*
X231243928Y-120551599D01*
X231880900Y-120551599D01*
X231880900Y-120697601D01*
X231918601Y-120838302D01*
X231918688Y-120838628D01*
X231918689Y-120838631D01*
X231991686Y-120965067D01*
X231991688Y-120965070D01*
X231991689Y-120965071D01*
X232094929Y-121068311D01*
X232094930Y-121068312D01*
X232094932Y-121068313D01*
X232144497Y-121096929D01*
X232221371Y-121141312D01*
X232362399Y-121179100D01*
X232362401Y-121179100D01*
X232508399Y-121179100D01*
X232508401Y-121179100D01*
X232649429Y-121141312D01*
X232775871Y-121068311D01*
X232802085Y-121042096D01*
X232863404Y-121008613D01*
X232933096Y-121013597D01*
X232951764Y-121022392D01*
X232985898Y-121042099D01*
X233060810Y-121085349D01*
X233201838Y-121123137D01*
X233201840Y-121123137D01*
X233347838Y-121123137D01*
X233347840Y-121123137D01*
X233488868Y-121085349D01*
X233615310Y-121012348D01*
X233634219Y-120993439D01*
X236417460Y-120993439D01*
X236417460Y-121139441D01*
X236454431Y-121277418D01*
X236455248Y-121280468D01*
X236455249Y-121280471D01*
X236528246Y-121406907D01*
X236528248Y-121406910D01*
X236528249Y-121406911D01*
X236631489Y-121510151D01*
X236631490Y-121510152D01*
X236631492Y-121510153D01*
X236631920Y-121510400D01*
X236757931Y-121583152D01*
X236898959Y-121620940D01*
X236898961Y-121620940D01*
X237044958Y-121620940D01*
X237044961Y-121620940D01*
X237095713Y-121607341D01*
X237165558Y-121609004D01*
X237223421Y-121648166D01*
X237235190Y-121665116D01*
X237300286Y-121777867D01*
X237300288Y-121777870D01*
X237300289Y-121777871D01*
X237403529Y-121881111D01*
X237403530Y-121881112D01*
X237403532Y-121881113D01*
X237403960Y-121881360D01*
X237529971Y-121954112D01*
X237670999Y-121991900D01*
X237671001Y-121991900D01*
X237816999Y-121991900D01*
X237817001Y-121991900D01*
X237958029Y-121954112D01*
X238084471Y-121881111D01*
X238187711Y-121777871D01*
X238260712Y-121651429D01*
X238298500Y-121510401D01*
X238298500Y-121364399D01*
X238260712Y-121223371D01*
X238224211Y-121160150D01*
X238187713Y-121096932D01*
X238187709Y-121096927D01*
X238084472Y-120993690D01*
X238084467Y-120993686D01*
X237958031Y-120920689D01*
X237958030Y-120920688D01*
X237958029Y-120920688D01*
X237817001Y-120882900D01*
X237670999Y-120882900D01*
X237670997Y-120882900D01*
X237620248Y-120896498D01*
X237550398Y-120894835D01*
X237492536Y-120855671D01*
X237480772Y-120838727D01*
X237415671Y-120725969D01*
X237312431Y-120622729D01*
X237312430Y-120622728D01*
X237312427Y-120622726D01*
X237185991Y-120549729D01*
X237185990Y-120549728D01*
X237185989Y-120549728D01*
X237044961Y-120511940D01*
X236898959Y-120511940D01*
X236757931Y-120549728D01*
X236757928Y-120549729D01*
X236631492Y-120622726D01*
X236631487Y-120622730D01*
X236528250Y-120725967D01*
X236528246Y-120725972D01*
X236455249Y-120852408D01*
X236455248Y-120852411D01*
X236417460Y-120993439D01*
X233634219Y-120993439D01*
X233718550Y-120909108D01*
X233791551Y-120782666D01*
X233829339Y-120641638D01*
X233829339Y-120495636D01*
X233791551Y-120354608D01*
X233718550Y-120228166D01*
X233615310Y-120124926D01*
X233615309Y-120124925D01*
X233615306Y-120124923D01*
X233488870Y-120051926D01*
X233488869Y-120051925D01*
X233488868Y-120051925D01*
X233347840Y-120014137D01*
X233201838Y-120014137D01*
X233060810Y-120051925D01*
X233060807Y-120051926D01*
X232934371Y-120124923D01*
X232908154Y-120151140D01*
X232846830Y-120184624D01*
X232777139Y-120179638D01*
X232758475Y-120170845D01*
X232649429Y-120107888D01*
X232508401Y-120070100D01*
X232362399Y-120070100D01*
X232221371Y-120107888D01*
X232221368Y-120107889D01*
X232094932Y-120180886D01*
X232094927Y-120180890D01*
X231991690Y-120284127D01*
X231991686Y-120284132D01*
X231918689Y-120410568D01*
X231918688Y-120410571D01*
X231880900Y-120551599D01*
X231243928Y-120551599D01*
X231197084Y-120539047D01*
X231049818Y-120539047D01*
X230919230Y-120574038D01*
X230907565Y-120577164D01*
X230780036Y-120650794D01*
X230780030Y-120650798D01*
X230675902Y-120754926D01*
X230675898Y-120754932D01*
X230602268Y-120882461D01*
X230602267Y-120882465D01*
X230564151Y-121024714D01*
X223693500Y-121024714D01*
X223693500Y-120957999D01*
X223655712Y-120816971D01*
X223586794Y-120697601D01*
X223582713Y-120690532D01*
X223582709Y-120690527D01*
X223479472Y-120587290D01*
X223479467Y-120587286D01*
X223353031Y-120514289D01*
X223353030Y-120514288D01*
X223353029Y-120514288D01*
X223212001Y-120476500D01*
X223065999Y-120476500D01*
X222924971Y-120514288D01*
X222924968Y-120514289D01*
X222798532Y-120587286D01*
X222798527Y-120587290D01*
X222695290Y-120690527D01*
X222695286Y-120690532D01*
X222622289Y-120816968D01*
X222622288Y-120816971D01*
X222584500Y-120957999D01*
X220148282Y-120957999D01*
X220148141Y-120228792D01*
X220167813Y-120161753D01*
X220220608Y-120115988D01*
X220289764Y-120106031D01*
X220353326Y-120135043D01*
X220386698Y-120181310D01*
X220388214Y-120184971D01*
X220438737Y-120284127D01*
X220467147Y-120339884D01*
X220569335Y-120480533D01*
X220692267Y-120603465D01*
X220832916Y-120705653D01*
X220987819Y-120784580D01*
X220987821Y-120784581D01*
X221153158Y-120838302D01*
X221153159Y-120838302D01*
X221153162Y-120838303D01*
X221324874Y-120865500D01*
X221324875Y-120865500D01*
X221498725Y-120865500D01*
X221498726Y-120865500D01*
X221670438Y-120838303D01*
X221670441Y-120838302D01*
X221670442Y-120838302D01*
X221690020Y-120831941D01*
X221835778Y-120784581D01*
X221835778Y-120784580D01*
X221835781Y-120784580D01*
X221990684Y-120705653D01*
X222131333Y-120603465D01*
X222254265Y-120480533D01*
X222356453Y-120339884D01*
X222435380Y-120184981D01*
X222478612Y-120051926D01*
X222489102Y-120019642D01*
X222489102Y-120019641D01*
X222489103Y-120019638D01*
X222516300Y-119847926D01*
X222516300Y-119674074D01*
X222510459Y-119637199D01*
X228985300Y-119637199D01*
X228985300Y-119783201D01*
X229023088Y-119924227D01*
X229023088Y-119924228D01*
X229023089Y-119924231D01*
X229096086Y-120050667D01*
X229096088Y-120050670D01*
X229096089Y-120050671D01*
X229199329Y-120153911D01*
X229199330Y-120153912D01*
X229199332Y-120153913D01*
X229243890Y-120179638D01*
X229325771Y-120226912D01*
X229466799Y-120264700D01*
X229466801Y-120264700D01*
X229612799Y-120264700D01*
X229612801Y-120264700D01*
X229753829Y-120226912D01*
X229880271Y-120153911D01*
X229983511Y-120050671D01*
X230056512Y-119924229D01*
X230080840Y-119833432D01*
X230117203Y-119773774D01*
X230180050Y-119743244D01*
X230249425Y-119751538D01*
X230262612Y-119758139D01*
X230290971Y-119774512D01*
X230431999Y-119812300D01*
X230432001Y-119812300D01*
X230577999Y-119812300D01*
X230578001Y-119812300D01*
X230719029Y-119774512D01*
X230845471Y-119701511D01*
X230948711Y-119598271D01*
X231021712Y-119471829D01*
X231059500Y-119330801D01*
X231059500Y-119184799D01*
X231021712Y-119043771D01*
X230985211Y-118980550D01*
X230948713Y-118917332D01*
X230948709Y-118917327D01*
X230845472Y-118814090D01*
X230845467Y-118814086D01*
X230719031Y-118741089D01*
X230719030Y-118741088D01*
X230719029Y-118741088D01*
X230578001Y-118703300D01*
X230431999Y-118703300D01*
X230290971Y-118741088D01*
X230290968Y-118741089D01*
X230164532Y-118814086D01*
X230164527Y-118814090D01*
X230061290Y-118917327D01*
X230061286Y-118917332D01*
X229988289Y-119043768D01*
X229988288Y-119043769D01*
X229963960Y-119134566D01*
X229927595Y-119194226D01*
X229864748Y-119224755D01*
X229795372Y-119216460D01*
X229782186Y-119209860D01*
X229753829Y-119193488D01*
X229721401Y-119184799D01*
X229612801Y-119155700D01*
X229466799Y-119155700D01*
X229325771Y-119193488D01*
X229325768Y-119193489D01*
X229199332Y-119266486D01*
X229199327Y-119266490D01*
X229096090Y-119369727D01*
X229096086Y-119369732D01*
X229023089Y-119496168D01*
X229023088Y-119496171D01*
X228985300Y-119637199D01*
X222510459Y-119637199D01*
X222504293Y-119598267D01*
X222489103Y-119502362D01*
X222489102Y-119502358D01*
X222489102Y-119502357D01*
X222435381Y-119337021D01*
X222413300Y-119293685D01*
X222356453Y-119182116D01*
X222254265Y-119041467D01*
X222131333Y-118918535D01*
X221990684Y-118816347D01*
X221969365Y-118805484D01*
X221918570Y-118757510D01*
X221901775Y-118689689D01*
X221924313Y-118623554D01*
X221979028Y-118580103D01*
X222025661Y-118571000D01*
X222309628Y-118571000D01*
X222309644Y-118570999D01*
X222369172Y-118564598D01*
X222369179Y-118564596D01*
X222503886Y-118514354D01*
X222503893Y-118514350D01*
X222618987Y-118428190D01*
X222618990Y-118428187D01*
X222705150Y-118313093D01*
X222705154Y-118313086D01*
X222755396Y-118178379D01*
X222755398Y-118178372D01*
X222761799Y-118118844D01*
X222761800Y-118118827D01*
X222761800Y-117948099D01*
X229302800Y-117948099D01*
X229302800Y-118094101D01*
X229309426Y-118118827D01*
X229340588Y-118235128D01*
X229340589Y-118235131D01*
X229413586Y-118361567D01*
X229413588Y-118361570D01*
X229413589Y-118361571D01*
X229516829Y-118464811D01*
X229643271Y-118537812D01*
X229784299Y-118575600D01*
X229784301Y-118575600D01*
X229930299Y-118575600D01*
X229930301Y-118575600D01*
X230071329Y-118537812D01*
X230197771Y-118464811D01*
X230301011Y-118361571D01*
X230374012Y-118235129D01*
X230411800Y-118094101D01*
X230411800Y-117948099D01*
X230374012Y-117807071D01*
X230301011Y-117680629D01*
X230197771Y-117577389D01*
X230197770Y-117577388D01*
X230197767Y-117577386D01*
X230071331Y-117504389D01*
X230071330Y-117504388D01*
X230071329Y-117504388D01*
X229930301Y-117466600D01*
X229784299Y-117466600D01*
X229643271Y-117504388D01*
X229643268Y-117504389D01*
X229516832Y-117577386D01*
X229516827Y-117577390D01*
X229413590Y-117680627D01*
X229413586Y-117680632D01*
X229340589Y-117807068D01*
X229340588Y-117807071D01*
X229302800Y-117948099D01*
X222761800Y-117948099D01*
X222761800Y-117471000D01*
X221844812Y-117471000D01*
X221877725Y-117413993D01*
X221911800Y-117286826D01*
X221911800Y-117155174D01*
X221877725Y-117028007D01*
X221844812Y-116971000D01*
X222761800Y-116971000D01*
X222761800Y-116703499D01*
X226991400Y-116703499D01*
X226991400Y-116849501D01*
X227023956Y-116971000D01*
X227029188Y-116990528D01*
X227029189Y-116990531D01*
X227102186Y-117116967D01*
X227102188Y-117116970D01*
X227102189Y-117116971D01*
X227205429Y-117220211D01*
X227205430Y-117220212D01*
X227205432Y-117220213D01*
X227246754Y-117244070D01*
X227331871Y-117293212D01*
X227472899Y-117331000D01*
X227472901Y-117331000D01*
X227618899Y-117331000D01*
X227618901Y-117331000D01*
X227759929Y-117293212D01*
X227886371Y-117220211D01*
X227989611Y-117116971D01*
X228062612Y-116990529D01*
X228100400Y-116849501D01*
X228100400Y-116703499D01*
X228062612Y-116562471D01*
X228034049Y-116512999D01*
X229137700Y-116512999D01*
X229137700Y-116659001D01*
X229154313Y-116721000D01*
X229175488Y-116800028D01*
X229175489Y-116800031D01*
X229248486Y-116926467D01*
X229248488Y-116926470D01*
X229248489Y-116926471D01*
X229351729Y-117029711D01*
X229478171Y-117102712D01*
X229619199Y-117140500D01*
X229619201Y-117140500D01*
X229765199Y-117140500D01*
X229765201Y-117140500D01*
X229906229Y-117102712D01*
X230032671Y-117029711D01*
X230135911Y-116926471D01*
X230208912Y-116800029D01*
X230246700Y-116659001D01*
X230246700Y-116512999D01*
X230208912Y-116371971D01*
X230144144Y-116259789D01*
X230135913Y-116245532D01*
X230135909Y-116245527D01*
X230032672Y-116142290D01*
X230032667Y-116142286D01*
X229906231Y-116069289D01*
X229906230Y-116069288D01*
X229906229Y-116069288D01*
X229765201Y-116031500D01*
X229619199Y-116031500D01*
X229478171Y-116069288D01*
X229478168Y-116069289D01*
X229351732Y-116142286D01*
X229351727Y-116142290D01*
X229248490Y-116245527D01*
X229248486Y-116245532D01*
X229175489Y-116371968D01*
X229175488Y-116371971D01*
X229137700Y-116512999D01*
X228034049Y-116512999D01*
X228007902Y-116467710D01*
X227989613Y-116436032D01*
X227989609Y-116436027D01*
X227886372Y-116332790D01*
X227886367Y-116332786D01*
X227759931Y-116259789D01*
X227759930Y-116259788D01*
X227759929Y-116259788D01*
X227618901Y-116222000D01*
X227472899Y-116222000D01*
X227331871Y-116259788D01*
X227331868Y-116259789D01*
X227205432Y-116332786D01*
X227205427Y-116332790D01*
X227102190Y-116436027D01*
X227102186Y-116436032D01*
X227029189Y-116562468D01*
X227029188Y-116562471D01*
X226991400Y-116703499D01*
X222761800Y-116703499D01*
X222761800Y-116323172D01*
X222761799Y-116323155D01*
X222755398Y-116263627D01*
X222755396Y-116263620D01*
X222705154Y-116128913D01*
X222705150Y-116128906D01*
X222618990Y-116013812D01*
X222618987Y-116013809D01*
X222503893Y-115927649D01*
X222503886Y-115927645D01*
X222369179Y-115877403D01*
X222369172Y-115877401D01*
X222309644Y-115871000D01*
X221661800Y-115871000D01*
X221661800Y-116787988D01*
X221604793Y-116755075D01*
X221477626Y-116721000D01*
X221345974Y-116721000D01*
X221218807Y-116755075D01*
X221161800Y-116787988D01*
X221161800Y-115871000D01*
X220513955Y-115871000D01*
X220454427Y-115877401D01*
X220454420Y-115877403D01*
X220314626Y-115929543D01*
X220244934Y-115934527D01*
X220183611Y-115901042D01*
X220150127Y-115839719D01*
X220147293Y-115813391D01*
X220147169Y-115167612D01*
X220166841Y-115100572D01*
X220175931Y-115088182D01*
X220494723Y-114705895D01*
X220499061Y-114700967D01*
X220982480Y-114180565D01*
X220987072Y-114175881D01*
X221497623Y-113682077D01*
X221502445Y-113677656D01*
X222038684Y-113211848D01*
X222043745Y-113207683D01*
X222604103Y-112771231D01*
X222609380Y-112767342D01*
X223007344Y-112490244D01*
X223073605Y-112468093D01*
X223141327Y-112485282D01*
X223189006Y-112536356D01*
X223201503Y-112605098D01*
X223176572Y-112667494D01*
X223041394Y-112843662D01*
X223041383Y-112843679D01*
X222899850Y-113088820D01*
X222899842Y-113088836D01*
X222791515Y-113350363D01*
X222718250Y-113623795D01*
X222718247Y-113623808D01*
X222681300Y-113904458D01*
X222681300Y-114187541D01*
X222718247Y-114468191D01*
X222718248Y-114468196D01*
X222718249Y-114468202D01*
X222718250Y-114468204D01*
X222791515Y-114741636D01*
X222899842Y-115003163D01*
X222899850Y-115003179D01*
X223041383Y-115248320D01*
X223041394Y-115248336D01*
X223213716Y-115472911D01*
X223213722Y-115472918D01*
X223413881Y-115673077D01*
X223413888Y-115673083D01*
X223567135Y-115790673D01*
X223638472Y-115845412D01*
X223638479Y-115845416D01*
X223883620Y-115986949D01*
X223883636Y-115986957D01*
X224009548Y-116039111D01*
X224145162Y-116095284D01*
X224418598Y-116168551D01*
X224616813Y-116194646D01*
X224699258Y-116205500D01*
X224699259Y-116205500D01*
X224982342Y-116205500D01*
X225046066Y-116197110D01*
X225263002Y-116168551D01*
X225536438Y-116095284D01*
X225733306Y-116013738D01*
X225797963Y-115986957D01*
X225797966Y-115986955D01*
X225797972Y-115986953D01*
X226043128Y-115845412D01*
X226267713Y-115673082D01*
X226467882Y-115472913D01*
X226640212Y-115248328D01*
X226755144Y-115049260D01*
X227909039Y-115049260D01*
X227909039Y-115195262D01*
X227945493Y-115331309D01*
X227946827Y-115336289D01*
X227946828Y-115336292D01*
X228019825Y-115462728D01*
X228019827Y-115462731D01*
X228019828Y-115462732D01*
X228123068Y-115565972D01*
X228249510Y-115638973D01*
X228390538Y-115676761D01*
X228390540Y-115676761D01*
X228536538Y-115676761D01*
X228536540Y-115676761D01*
X228677568Y-115638973D01*
X228804010Y-115565972D01*
X228847583Y-115522399D01*
X231068100Y-115522399D01*
X231068100Y-115668401D01*
X231100863Y-115790673D01*
X231105888Y-115809428D01*
X231105889Y-115809431D01*
X231178886Y-115935867D01*
X231178888Y-115935870D01*
X231178889Y-115935871D01*
X231282129Y-116039111D01*
X231282130Y-116039112D01*
X231282132Y-116039113D01*
X231311080Y-116055826D01*
X231408571Y-116112112D01*
X231549599Y-116149900D01*
X231549601Y-116149900D01*
X231695599Y-116149900D01*
X231695601Y-116149900D01*
X231836629Y-116112112D01*
X231963071Y-116039111D01*
X232066311Y-115935871D01*
X232099724Y-115877998D01*
X232596383Y-115877998D01*
X232596383Y-116024000D01*
X232630118Y-116149899D01*
X232634171Y-116165027D01*
X232634172Y-116165030D01*
X232707169Y-116291466D01*
X232707171Y-116291469D01*
X232707172Y-116291470D01*
X232810412Y-116394710D01*
X232936854Y-116467711D01*
X233077882Y-116505499D01*
X233077884Y-116505499D01*
X233223882Y-116505499D01*
X233223884Y-116505499D01*
X233364912Y-116467711D01*
X233491354Y-116394710D01*
X233594594Y-116291470D01*
X233621119Y-116245527D01*
X233643799Y-116206245D01*
X233694365Y-116158029D01*
X233762972Y-116144805D01*
X233783273Y-116148468D01*
X233847499Y-116165677D01*
X233847501Y-116165677D01*
X233993499Y-116165677D01*
X233993501Y-116165677D01*
X234134529Y-116127889D01*
X234260971Y-116054888D01*
X234364211Y-115951648D01*
X234437212Y-115825206D01*
X234475000Y-115684178D01*
X234475000Y-115538176D01*
X234437212Y-115397148D01*
X234364211Y-115270706D01*
X234260971Y-115167466D01*
X234260970Y-115167465D01*
X234260967Y-115167463D01*
X234134531Y-115094466D01*
X234134530Y-115094465D01*
X234134529Y-115094465D01*
X233993501Y-115056677D01*
X233847499Y-115056677D01*
X233706471Y-115094465D01*
X233706468Y-115094466D01*
X233580032Y-115167463D01*
X233580027Y-115167467D01*
X233476788Y-115270706D01*
X233427583Y-115355932D01*
X233377015Y-115404147D01*
X233308408Y-115417369D01*
X233288104Y-115413706D01*
X233223885Y-115396499D01*
X233223884Y-115396499D01*
X233077882Y-115396499D01*
X232936854Y-115434287D01*
X232936851Y-115434288D01*
X232810415Y-115507285D01*
X232810410Y-115507289D01*
X232707173Y-115610526D01*
X232707169Y-115610531D01*
X232634172Y-115736967D01*
X232634171Y-115736970D01*
X232596383Y-115877998D01*
X232099724Y-115877998D01*
X232139312Y-115809429D01*
X232177100Y-115668401D01*
X232177100Y-115522399D01*
X232139312Y-115381371D01*
X232066311Y-115254929D01*
X231963071Y-115151689D01*
X231963070Y-115151688D01*
X231963067Y-115151686D01*
X231836631Y-115078689D01*
X231836630Y-115078688D01*
X231836629Y-115078688D01*
X231695601Y-115040900D01*
X231549599Y-115040900D01*
X231408571Y-115078688D01*
X231408568Y-115078689D01*
X231282132Y-115151686D01*
X231282127Y-115151690D01*
X231178890Y-115254927D01*
X231178886Y-115254932D01*
X231105889Y-115381368D01*
X231105888Y-115381371D01*
X231068100Y-115522399D01*
X228847583Y-115522399D01*
X228907250Y-115462732D01*
X228980251Y-115336290D01*
X229018039Y-115195262D01*
X229018039Y-115049260D01*
X228980251Y-114908232D01*
X228915143Y-114795461D01*
X228907252Y-114781793D01*
X228907248Y-114781788D01*
X228804011Y-114678551D01*
X228804006Y-114678547D01*
X228677570Y-114605550D01*
X228677569Y-114605549D01*
X228677568Y-114605549D01*
X228536540Y-114567761D01*
X228390538Y-114567761D01*
X228249510Y-114605549D01*
X228249507Y-114605550D01*
X228123071Y-114678547D01*
X228123066Y-114678551D01*
X228019829Y-114781788D01*
X228019825Y-114781793D01*
X227946828Y-114908229D01*
X227946827Y-114908232D01*
X227909039Y-115049260D01*
X226755144Y-115049260D01*
X226781753Y-115003172D01*
X226890084Y-114741638D01*
X226963351Y-114468202D01*
X227000300Y-114187541D01*
X227000300Y-113904459D01*
X226975884Y-113718999D01*
X235919500Y-113718999D01*
X235919500Y-113865001D01*
X235930073Y-113904458D01*
X235957288Y-114006028D01*
X235957289Y-114006031D01*
X236030286Y-114132467D01*
X236030288Y-114132470D01*
X236030289Y-114132471D01*
X236133529Y-114235711D01*
X236259971Y-114308712D01*
X236400999Y-114346500D01*
X236401001Y-114346500D01*
X236546999Y-114346500D01*
X236547001Y-114346500D01*
X236688029Y-114308712D01*
X236814471Y-114235711D01*
X236917711Y-114132471D01*
X236990712Y-114006029D01*
X237028500Y-113865001D01*
X237028500Y-113718999D01*
X236990712Y-113577971D01*
X236917711Y-113451529D01*
X236814471Y-113348289D01*
X236814470Y-113348288D01*
X236814467Y-113348286D01*
X236688031Y-113275289D01*
X236688030Y-113275288D01*
X236688029Y-113275288D01*
X236547001Y-113237500D01*
X236400999Y-113237500D01*
X236259971Y-113275288D01*
X236259968Y-113275289D01*
X236133532Y-113348286D01*
X236133527Y-113348290D01*
X236030290Y-113451527D01*
X236030286Y-113451532D01*
X235957289Y-113577968D01*
X235957288Y-113577971D01*
X235919500Y-113718999D01*
X226975884Y-113718999D01*
X226963351Y-113623798D01*
X226890084Y-113350362D01*
X226831820Y-113209701D01*
X226781757Y-113088836D01*
X226781749Y-113088820D01*
X226640216Y-112843679D01*
X226640212Y-112843672D01*
X226505026Y-112667494D01*
X226467883Y-112619088D01*
X226467877Y-112619081D01*
X226267718Y-112418922D01*
X226267711Y-112418916D01*
X226192817Y-112361448D01*
X226075202Y-112271199D01*
X232693700Y-112271199D01*
X232693700Y-112417201D01*
X232707337Y-112468093D01*
X232731488Y-112558228D01*
X232731489Y-112558231D01*
X232804486Y-112684667D01*
X232804488Y-112684670D01*
X232804489Y-112684671D01*
X232907729Y-112787911D01*
X232907730Y-112787912D01*
X232907732Y-112787913D01*
X232970950Y-112824411D01*
X233034171Y-112860912D01*
X233175199Y-112898700D01*
X233175201Y-112898700D01*
X233321199Y-112898700D01*
X233321201Y-112898700D01*
X233462229Y-112860912D01*
X233588671Y-112787911D01*
X233691911Y-112684671D01*
X233764912Y-112558229D01*
X233802700Y-112417201D01*
X233802700Y-112271199D01*
X233764912Y-112130171D01*
X233691911Y-112003729D01*
X233588671Y-111900489D01*
X233588670Y-111900488D01*
X233588667Y-111900486D01*
X233462231Y-111827489D01*
X233462230Y-111827488D01*
X233462229Y-111827488D01*
X233321201Y-111789700D01*
X233175199Y-111789700D01*
X233034171Y-111827488D01*
X233034168Y-111827489D01*
X232907732Y-111900486D01*
X232907727Y-111900490D01*
X232804490Y-112003727D01*
X232804486Y-112003732D01*
X232731489Y-112130168D01*
X232731488Y-112130171D01*
X232693700Y-112271199D01*
X226075202Y-112271199D01*
X226043136Y-112246594D01*
X226043134Y-112246592D01*
X226043128Y-112246588D01*
X226043123Y-112246585D01*
X226043120Y-112246583D01*
X225797979Y-112105050D01*
X225797963Y-112105042D01*
X225536436Y-111996715D01*
X225399720Y-111960082D01*
X225263002Y-111923449D01*
X225262996Y-111923448D01*
X225262991Y-111923447D01*
X224982342Y-111886500D01*
X224982341Y-111886500D01*
X224699259Y-111886500D01*
X224699258Y-111886500D01*
X224418608Y-111923447D01*
X224414621Y-111924241D01*
X224414289Y-111922574D01*
X224400649Y-111922242D01*
X224380535Y-111926648D01*
X224366427Y-111921409D01*
X224351383Y-111921043D01*
X224334337Y-111909492D01*
X224315036Y-111902325D01*
X224306000Y-111890290D01*
X224293542Y-111881849D01*
X224285446Y-111862917D01*
X224273084Y-111846452D01*
X224271988Y-111831443D01*
X224266072Y-111817606D01*
X224269497Y-111797301D01*
X224267999Y-111776767D01*
X224275191Y-111763550D01*
X224277695Y-111748710D01*
X224291554Y-111733480D01*
X224301396Y-111715396D01*
X224322290Y-111699706D01*
X224324722Y-111697035D01*
X224329569Y-111694232D01*
X224430143Y-111639126D01*
X224435962Y-111636139D01*
X225076202Y-111328650D01*
X225082217Y-111325956D01*
X225496515Y-111153599D01*
X228426500Y-111153599D01*
X228426500Y-111299601D01*
X228455128Y-111406441D01*
X228464288Y-111440628D01*
X228464289Y-111440631D01*
X228537286Y-111567067D01*
X228537288Y-111567070D01*
X228537289Y-111567071D01*
X228640529Y-111670311D01*
X228640530Y-111670312D01*
X228640532Y-111670313D01*
X228691443Y-111699706D01*
X228766971Y-111743312D01*
X228907999Y-111781100D01*
X228908001Y-111781100D01*
X229053999Y-111781100D01*
X229054001Y-111781100D01*
X229195029Y-111743312D01*
X229321471Y-111670311D01*
X229424711Y-111567071D01*
X229497712Y-111440629D01*
X229535500Y-111299601D01*
X229535500Y-111153599D01*
X229975900Y-111153599D01*
X229975900Y-111299601D01*
X230004528Y-111406441D01*
X230013688Y-111440628D01*
X230013689Y-111440631D01*
X230086686Y-111567067D01*
X230086688Y-111567070D01*
X230086689Y-111567071D01*
X230189929Y-111670311D01*
X230189930Y-111670312D01*
X230189932Y-111670313D01*
X230240843Y-111699706D01*
X230316371Y-111743312D01*
X230457399Y-111781100D01*
X230457401Y-111781100D01*
X230603399Y-111781100D01*
X230603401Y-111781100D01*
X230744429Y-111743312D01*
X230870871Y-111670311D01*
X230974111Y-111567071D01*
X231047112Y-111440629D01*
X231084900Y-111299601D01*
X231084900Y-111153599D01*
X231047112Y-111012571D01*
X230974111Y-110886129D01*
X230870871Y-110782889D01*
X230870870Y-110782888D01*
X230870867Y-110782886D01*
X230744431Y-110709889D01*
X230744430Y-110709888D01*
X230744429Y-110709888D01*
X230603401Y-110672100D01*
X230457399Y-110672100D01*
X230316371Y-110709888D01*
X230316368Y-110709889D01*
X230189932Y-110782886D01*
X230189927Y-110782890D01*
X230086690Y-110886127D01*
X230086686Y-110886132D01*
X230013689Y-111012568D01*
X230013688Y-111012571D01*
X229975900Y-111153599D01*
X229535500Y-111153599D01*
X229497712Y-111012571D01*
X229424711Y-110886129D01*
X229321471Y-110782889D01*
X229321470Y-110782888D01*
X229321467Y-110782886D01*
X229195031Y-110709889D01*
X229195030Y-110709888D01*
X229195029Y-110709888D01*
X229054001Y-110672100D01*
X228907999Y-110672100D01*
X228766971Y-110709888D01*
X228766968Y-110709889D01*
X228640532Y-110782886D01*
X228640527Y-110782890D01*
X228537290Y-110886127D01*
X228537286Y-110886132D01*
X228464289Y-111012568D01*
X228464288Y-111012571D01*
X228426500Y-111153599D01*
X225496515Y-111153599D01*
X225738009Y-111053132D01*
X225744149Y-111050768D01*
X226128222Y-110914585D01*
X226413560Y-110813412D01*
X226419868Y-110811364D01*
X226516254Y-110782890D01*
X227100965Y-110610156D01*
X227107355Y-110608452D01*
X227798312Y-110443934D01*
X227804738Y-110442584D01*
X228503493Y-110315250D01*
X228510003Y-110314243D01*
X229214574Y-110224453D01*
X229221109Y-110223798D01*
X229929459Y-110171813D01*
X229936033Y-110171507D01*
X230646166Y-110157473D01*
X230652776Y-110157519D01*
G37*
%TD.AperFunction*%
%TD*%
M02*
