%TF.GenerationSoftware,KiCad,Pcbnew,9.0.8-9.0.8~ubuntu24.04.1*%
%TF.CreationDate,2026-03-22T20:36:14-07:00*%
%TF.ProjectId,mag-encoder,6d61672d-656e-4636-9f64-65722e6b6963,1*%
%TF.SameCoordinates,Original*%
%TF.FileFunction,Legend,Bot*%
%TF.FilePolarity,Positive*%
%FSLAX46Y46*%
G04 Gerber Fmt 4.6, Leading zero omitted, Abs format (unit mm)*
G04 Created by KiCad (PCBNEW 9.0.8-9.0.8~ubuntu24.04.1) date 2026-03-22 20:36:14*
%MOMM*%
%LPD*%
G01*
G04 APERTURE LIST*
%ADD10C,0.000000*%
%ADD11C,0.152400*%
%ADD12C,0.127000*%
%ADD13C,0.120000*%
%ADD14C,0.100000*%
G04 APERTURE END LIST*
D10*
G36*
X232651063Y-134169688D02*
G01*
X232651063Y-134272559D01*
X232245457Y-134393605D01*
X232245457Y-134395907D01*
X232651063Y-134517033D01*
X232651063Y-134619903D01*
X232071863Y-134804927D01*
X232071863Y-134681499D01*
X232477390Y-134570771D01*
X232477390Y-134568389D01*
X232071863Y-134437023D01*
X232071863Y-134352489D01*
X232477390Y-134221124D01*
X232477390Y-134218821D01*
X232071863Y-134108014D01*
X232071863Y-133984665D01*
X232651063Y-134169688D01*
G37*
G36*
X231736107Y-135669003D02*
G01*
X231387651Y-135669003D01*
X231379866Y-135669165D01*
X231372360Y-135669645D01*
X231365130Y-135670433D01*
X231358176Y-135671519D01*
X231351493Y-135672892D01*
X231345082Y-135674544D01*
X231338939Y-135676463D01*
X231333062Y-135678639D01*
X231327449Y-135681064D01*
X231322099Y-135683726D01*
X231317009Y-135686615D01*
X231312177Y-135689722D01*
X231307600Y-135693037D01*
X231303278Y-135696549D01*
X231299208Y-135700249D01*
X231295387Y-135704126D01*
X231291814Y-135708171D01*
X231288487Y-135712373D01*
X231285403Y-135716722D01*
X231282560Y-135721209D01*
X231279957Y-135725823D01*
X231277591Y-135730554D01*
X231275460Y-135735393D01*
X231273563Y-135740329D01*
X231270458Y-135750452D01*
X231268262Y-135760844D01*
X231266956Y-135771424D01*
X231266524Y-135782112D01*
X231266619Y-135787576D01*
X231266909Y-135792823D01*
X231267400Y-135797880D01*
X231268098Y-135802775D01*
X231269011Y-135807533D01*
X231270145Y-135812183D01*
X231271507Y-135816751D01*
X231273103Y-135821264D01*
X231274940Y-135825749D01*
X231277024Y-135830233D01*
X231279362Y-135834744D01*
X231281962Y-135839307D01*
X231284828Y-135843950D01*
X231287969Y-135848700D01*
X231291391Y-135853585D01*
X231295099Y-135858630D01*
X231194531Y-135943164D01*
X231189518Y-135936472D01*
X231184756Y-135929697D01*
X231180253Y-135922831D01*
X231176021Y-135915867D01*
X231172069Y-135908798D01*
X231168408Y-135901616D01*
X231165047Y-135894315D01*
X231161998Y-135886887D01*
X231159269Y-135879326D01*
X231156871Y-135871623D01*
X231154814Y-135863772D01*
X231153109Y-135855765D01*
X231151765Y-135847595D01*
X231150792Y-135839256D01*
X231150201Y-135830739D01*
X231150002Y-135822038D01*
X231150270Y-135810582D01*
X231151074Y-135799348D01*
X231152413Y-135788347D01*
X231154288Y-135777589D01*
X231156699Y-135767085D01*
X231159646Y-135756844D01*
X231163129Y-135746878D01*
X231167147Y-135737196D01*
X231171701Y-135727809D01*
X231176791Y-135718727D01*
X231182417Y-135709961D01*
X231188578Y-135701521D01*
X231195276Y-135693416D01*
X231202509Y-135685659D01*
X231210278Y-135678259D01*
X231218582Y-135671225D01*
X231218582Y-135669003D01*
X231156908Y-135669003D01*
X231156908Y-135552480D01*
X231736107Y-135552480D01*
X231736107Y-135669003D01*
G37*
G36*
X232651063Y-133066455D02*
G01*
X232651063Y-133182978D01*
X232302606Y-133182978D01*
X232294828Y-133183140D01*
X232287328Y-133183621D01*
X232280104Y-133184410D01*
X232273154Y-133185497D01*
X232266475Y-133186872D01*
X232260067Y-133188526D01*
X232253926Y-133190447D01*
X232248051Y-133192626D01*
X232242439Y-133195052D01*
X232237089Y-133197717D01*
X232231999Y-133200609D01*
X232227167Y-133203718D01*
X232222590Y-133207035D01*
X232218267Y-133210550D01*
X232214195Y-133214252D01*
X232210372Y-133218131D01*
X232206797Y-133222177D01*
X232203468Y-133226381D01*
X232200381Y-133230731D01*
X232197537Y-133235219D01*
X232194931Y-133239833D01*
X232192563Y-133244564D01*
X232190429Y-133249402D01*
X232188529Y-133254337D01*
X232185421Y-133264456D01*
X232183221Y-133274841D01*
X232181912Y-133285412D01*
X232181480Y-133296087D01*
X232181575Y-133301538D01*
X232181865Y-133306775D01*
X232182355Y-133311826D01*
X232183054Y-133316716D01*
X232183967Y-133321473D01*
X232185101Y-133326123D01*
X232186462Y-133330693D01*
X232188058Y-133335209D01*
X232189895Y-133339698D01*
X232191979Y-133344187D01*
X232194318Y-133348702D01*
X232196917Y-133353271D01*
X232199784Y-133357918D01*
X232202924Y-133362672D01*
X232206346Y-133367559D01*
X232210054Y-133372605D01*
X232109487Y-133457139D01*
X232104474Y-133450460D01*
X232099711Y-133443695D01*
X232095208Y-133436835D01*
X232090976Y-133429875D01*
X232087024Y-133422808D01*
X232083363Y-133415626D01*
X232080002Y-133408323D01*
X232076953Y-133400892D01*
X232074224Y-133393326D01*
X232071826Y-133385619D01*
X232069769Y-133377763D01*
X232068064Y-133369751D01*
X232066720Y-133361577D01*
X232065747Y-133353234D01*
X232065156Y-133344715D01*
X232064957Y-133336013D01*
X232065225Y-133324557D01*
X232066029Y-133313323D01*
X232067368Y-133302322D01*
X232069243Y-133291564D01*
X232071654Y-133281060D01*
X232074601Y-133270819D01*
X232078084Y-133260853D01*
X232082102Y-133251171D01*
X232086656Y-133241784D01*
X232091746Y-133232702D01*
X232097372Y-133223936D01*
X232103534Y-133215496D01*
X232110231Y-133207392D01*
X232117464Y-133199634D01*
X232125233Y-133192234D01*
X232133537Y-133185200D01*
X232133537Y-133182899D01*
X232071863Y-133182899D01*
X232071863Y-133066376D01*
X232651063Y-133066376D01*
X232651063Y-133066455D01*
G37*
G36*
X232651063Y-135408177D02*
G01*
X232651063Y-135524699D01*
X232302606Y-135524699D01*
X232294828Y-135524861D01*
X232287328Y-135525341D01*
X232280104Y-135526129D01*
X232273154Y-135527215D01*
X232266475Y-135528589D01*
X232260067Y-135530240D01*
X232253926Y-135532159D01*
X232248051Y-135534336D01*
X232242439Y-135536760D01*
X232237089Y-135539422D01*
X232231999Y-135542311D01*
X232227167Y-135545419D01*
X232222590Y-135548733D01*
X232218267Y-135552246D01*
X232214195Y-135555945D01*
X232210372Y-135559822D01*
X232206797Y-135563867D01*
X232203468Y-135568069D01*
X232200381Y-135572418D01*
X232197537Y-135576905D01*
X232194931Y-135581519D01*
X232192563Y-135586250D01*
X232190429Y-135591089D01*
X232188529Y-135596025D01*
X232185421Y-135606148D01*
X232183221Y-135616540D01*
X232181912Y-135627120D01*
X232181480Y-135637808D01*
X232181575Y-135643272D01*
X232181865Y-135648519D01*
X232182355Y-135653576D01*
X232183054Y-135658471D01*
X232183967Y-135663229D01*
X232185101Y-135667879D01*
X232186462Y-135672447D01*
X232188058Y-135676960D01*
X232189895Y-135681445D01*
X232191979Y-135685929D01*
X232194318Y-135690440D01*
X232196917Y-135695003D01*
X232199784Y-135699646D01*
X232202924Y-135704397D01*
X232206346Y-135709281D01*
X232210054Y-135714326D01*
X232109487Y-135798861D01*
X232104474Y-135792181D01*
X232099711Y-135785413D01*
X232095208Y-135778550D01*
X232090976Y-135771585D01*
X232087024Y-135764513D01*
X232083363Y-135757326D01*
X232080002Y-135750019D01*
X232076953Y-135742584D01*
X232074224Y-135735015D01*
X232071826Y-135727305D01*
X232069769Y-135719449D01*
X232068064Y-135711439D01*
X232066720Y-135703269D01*
X232065747Y-135694933D01*
X232065156Y-135686423D01*
X232064957Y-135677734D01*
X232065225Y-135666279D01*
X232066029Y-135655048D01*
X232067368Y-135644050D01*
X232069243Y-135633297D01*
X232071654Y-135622797D01*
X232074601Y-135612562D01*
X232078084Y-135602600D01*
X232082102Y-135592922D01*
X232086656Y-135583538D01*
X232091746Y-135574458D01*
X232097372Y-135565693D01*
X232103534Y-135557251D01*
X232110231Y-135549142D01*
X232117464Y-135541378D01*
X232125233Y-135533968D01*
X232133537Y-135526922D01*
X232133537Y-135524620D01*
X232071863Y-135524620D01*
X232071863Y-135408098D01*
X232651063Y-135408098D01*
X232651063Y-135408177D01*
G37*
G36*
X231736107Y-133162817D02*
G01*
X231391143Y-133162817D01*
X231383844Y-133162960D01*
X231376742Y-133163385D01*
X231369840Y-133164086D01*
X231363139Y-133165057D01*
X231356643Y-133166293D01*
X231350352Y-133167788D01*
X231344270Y-133169535D01*
X231338398Y-133171529D01*
X231332740Y-133173765D01*
X231327297Y-133176235D01*
X231322072Y-133178935D01*
X231317066Y-133181858D01*
X231312282Y-133184999D01*
X231307723Y-133188351D01*
X231303390Y-133191910D01*
X231299287Y-133195668D01*
X231295414Y-133199621D01*
X231291775Y-133203762D01*
X231288371Y-133208085D01*
X231285206Y-133212585D01*
X231282280Y-133217256D01*
X231279597Y-133222091D01*
X231277159Y-133227086D01*
X231274968Y-133232234D01*
X231273026Y-133237529D01*
X231271336Y-133242966D01*
X231269900Y-133248538D01*
X231268719Y-133254240D01*
X231267797Y-133260066D01*
X231267136Y-133266009D01*
X231266737Y-133272066D01*
X231266604Y-133278228D01*
X231266737Y-133284387D01*
X231267136Y-133290434D01*
X231267797Y-133296363D01*
X231268719Y-133302168D01*
X231269900Y-133307845D01*
X231271336Y-133313388D01*
X231273026Y-133318791D01*
X231274968Y-133324048D01*
X231277159Y-133329156D01*
X231279597Y-133334107D01*
X231282280Y-133338896D01*
X231285206Y-133343519D01*
X231288371Y-133347970D01*
X231291775Y-133352242D01*
X231295414Y-133356332D01*
X231299287Y-133360232D01*
X231303390Y-133363939D01*
X231307723Y-133367445D01*
X231312282Y-133370747D01*
X231317066Y-133373838D01*
X231322072Y-133376714D01*
X231327297Y-133379367D01*
X231332740Y-133381794D01*
X231338398Y-133383989D01*
X231344270Y-133385946D01*
X231350352Y-133387659D01*
X231356643Y-133389124D01*
X231363139Y-133390335D01*
X231369840Y-133391286D01*
X231376742Y-133391973D01*
X231383844Y-133392388D01*
X231391143Y-133392528D01*
X231736107Y-133392528D01*
X231736107Y-133509050D01*
X231351138Y-133509050D01*
X231338997Y-133508753D01*
X231327218Y-133507874D01*
X231315804Y-133506435D01*
X231304757Y-133504457D01*
X231294077Y-133501962D01*
X231283766Y-133498969D01*
X231273826Y-133495502D01*
X231264258Y-133491579D01*
X231255063Y-133487224D01*
X231246243Y-133482456D01*
X231237799Y-133477297D01*
X231229734Y-133471768D01*
X231222047Y-133465890D01*
X231214742Y-133459684D01*
X231207818Y-133453172D01*
X231201278Y-133446374D01*
X231195124Y-133439312D01*
X231189355Y-133432006D01*
X231183975Y-133424479D01*
X231178985Y-133416750D01*
X231174385Y-133408841D01*
X231170177Y-133400774D01*
X231166364Y-133392569D01*
X231162945Y-133384247D01*
X231157300Y-133367338D01*
X231153253Y-133350216D01*
X231150817Y-133333051D01*
X231150206Y-133324504D01*
X231150002Y-133316010D01*
X231150270Y-133304554D01*
X231151074Y-133293320D01*
X231152413Y-133282319D01*
X231154288Y-133271562D01*
X231156699Y-133261057D01*
X231159646Y-133250817D01*
X231163129Y-133240850D01*
X231167147Y-133231168D01*
X231171701Y-133221781D01*
X231176791Y-133212700D01*
X231182417Y-133203933D01*
X231188578Y-133195493D01*
X231195276Y-133187389D01*
X231202509Y-133179632D01*
X231210278Y-133172231D01*
X231218582Y-133165198D01*
X231218582Y-133162896D01*
X231156908Y-133162896D01*
X231156908Y-133046374D01*
X231736107Y-133046374D01*
X231736107Y-133162817D01*
G37*
G36*
X231541956Y-134962089D02*
G01*
X231554090Y-134962387D01*
X231565862Y-134963267D01*
X231577270Y-134964707D01*
X231588311Y-134966688D01*
X231598986Y-134969187D01*
X231609291Y-134972185D01*
X231619227Y-134975659D01*
X231628791Y-134979590D01*
X231637982Y-134983956D01*
X231646798Y-134988736D01*
X231655238Y-134993910D01*
X231663301Y-134999456D01*
X231670984Y-135005353D01*
X231678287Y-135011581D01*
X231685209Y-135018118D01*
X231691746Y-135024944D01*
X231697899Y-135032038D01*
X231703666Y-135039378D01*
X231709045Y-135046944D01*
X231714035Y-135054715D01*
X231718633Y-135062670D01*
X231722840Y-135070788D01*
X231726653Y-135079047D01*
X231730071Y-135087428D01*
X231733092Y-135095909D01*
X231735715Y-135104469D01*
X231739762Y-135121743D01*
X231742198Y-135139083D01*
X231742809Y-135147724D01*
X231743013Y-135156320D01*
X231742745Y-135167566D01*
X231741941Y-135178617D01*
X231740602Y-135189459D01*
X231738727Y-135200080D01*
X231736315Y-135210469D01*
X231733369Y-135220613D01*
X231729886Y-135230501D01*
X231725868Y-135240120D01*
X231721314Y-135249458D01*
X231716224Y-135258503D01*
X231710598Y-135267242D01*
X231704436Y-135275665D01*
X231697739Y-135283758D01*
X231690506Y-135291510D01*
X231682737Y-135298909D01*
X231674433Y-135305942D01*
X231674433Y-135308164D01*
X231736187Y-135308164D01*
X231736187Y-135424687D01*
X231156908Y-135424687D01*
X231156908Y-135308164D01*
X231501951Y-135308164D01*
X231509243Y-135308021D01*
X231516339Y-135307597D01*
X231523236Y-135306896D01*
X231529932Y-135305926D01*
X231536426Y-135304692D01*
X231542713Y-135303201D01*
X231548793Y-135301458D01*
X231554663Y-135299469D01*
X231560320Y-135297241D01*
X231565762Y-135294780D01*
X231570988Y-135292092D01*
X231575994Y-135289182D01*
X231580778Y-135286057D01*
X231585339Y-135282723D01*
X231589673Y-135279186D01*
X231593778Y-135275452D01*
X231597653Y-135271527D01*
X231601294Y-135267417D01*
X231604700Y-135263129D01*
X231607868Y-135258667D01*
X231610796Y-135254039D01*
X231613482Y-135249251D01*
X231615922Y-135244308D01*
X231618116Y-135239216D01*
X231620060Y-135233982D01*
X231621752Y-135228612D01*
X231623190Y-135223111D01*
X231624372Y-135217486D01*
X231625296Y-135211743D01*
X231625958Y-135205887D01*
X231626357Y-135199926D01*
X231626491Y-135193864D01*
X231626357Y-135187800D01*
X231625958Y-135181830D01*
X231625296Y-135175961D01*
X231624372Y-135170199D01*
X231623190Y-135164550D01*
X231621752Y-135159022D01*
X231620060Y-135153620D01*
X231618116Y-135148352D01*
X231615922Y-135143222D01*
X231613482Y-135138239D01*
X231610796Y-135133407D01*
X231607868Y-135128735D01*
X231604700Y-135124228D01*
X231601294Y-135119892D01*
X231597653Y-135115734D01*
X231593778Y-135111761D01*
X231589673Y-135107979D01*
X231585339Y-135104394D01*
X231580778Y-135101013D01*
X231575994Y-135097842D01*
X231570988Y-135094887D01*
X231565762Y-135092156D01*
X231560320Y-135089655D01*
X231554663Y-135087389D01*
X231548793Y-135085366D01*
X231542713Y-135083592D01*
X231536426Y-135082073D01*
X231529932Y-135080815D01*
X231523236Y-135079826D01*
X231516339Y-135079112D01*
X231509243Y-135078678D01*
X231501951Y-135078533D01*
X231156909Y-135078533D01*
X231156909Y-134962010D01*
X231541957Y-134962010D01*
X231541956Y-134962089D01*
G37*
G36*
X231466647Y-135929806D02*
G01*
X231485443Y-135930914D01*
X231503499Y-135932733D01*
X231520825Y-135935239D01*
X231537427Y-135938410D01*
X231553315Y-135942224D01*
X231568497Y-135946657D01*
X231582982Y-135951687D01*
X231596777Y-135957291D01*
X231609891Y-135963446D01*
X231622332Y-135970129D01*
X231634109Y-135977318D01*
X231645230Y-135984989D01*
X231655703Y-135993121D01*
X231665537Y-136001689D01*
X231674741Y-136010672D01*
X231683321Y-136020047D01*
X231691288Y-136029791D01*
X231698649Y-136039880D01*
X231705412Y-136050293D01*
X231711586Y-136061006D01*
X231717180Y-136071997D01*
X231722201Y-136083243D01*
X231726658Y-136094721D01*
X231733914Y-136118281D01*
X231739014Y-136142497D01*
X231742025Y-136167185D01*
X231743013Y-136192163D01*
X231742524Y-136208440D01*
X231741082Y-136224289D01*
X231738725Y-136239707D01*
X231735494Y-136254693D01*
X231731425Y-136269245D01*
X231726559Y-136283360D01*
X231720933Y-136297037D01*
X231714587Y-136310273D01*
X231707559Y-136323066D01*
X231699888Y-136335415D01*
X231691612Y-136347316D01*
X231682771Y-136358769D01*
X231673403Y-136369770D01*
X231663547Y-136380318D01*
X231653241Y-136390411D01*
X231642525Y-136400046D01*
X231566007Y-136314401D01*
X231565927Y-136314401D01*
X231572441Y-136308897D01*
X231578694Y-136303108D01*
X231584662Y-136297042D01*
X231590325Y-136290707D01*
X231595661Y-136284112D01*
X231600647Y-136277264D01*
X231605262Y-136270173D01*
X231609484Y-136262847D01*
X231613292Y-136255293D01*
X231616662Y-136247521D01*
X231619574Y-136239539D01*
X231622006Y-136231355D01*
X231623935Y-136222977D01*
X231625340Y-136214414D01*
X231625839Y-136210066D01*
X231626199Y-136205675D01*
X231626417Y-136201241D01*
X231626490Y-136196767D01*
X231626332Y-136187996D01*
X231625856Y-136179455D01*
X231625059Y-136171148D01*
X231623936Y-136163076D01*
X231622485Y-136155245D01*
X231620703Y-136147656D01*
X231618585Y-136140314D01*
X231616129Y-136133220D01*
X231613332Y-136126379D01*
X231610190Y-136119793D01*
X231606700Y-136113466D01*
X231602857Y-136107400D01*
X231598660Y-136101600D01*
X231594105Y-136096068D01*
X231589188Y-136090807D01*
X231583906Y-136085821D01*
X231578255Y-136081112D01*
X231572233Y-136076684D01*
X231565836Y-136072540D01*
X231559060Y-136068683D01*
X231551903Y-136065117D01*
X231544361Y-136061844D01*
X231536430Y-136058868D01*
X231528108Y-136056191D01*
X231519390Y-136053818D01*
X231510274Y-136051751D01*
X231500756Y-136049993D01*
X231490833Y-136048548D01*
X231480502Y-136047418D01*
X231469759Y-136046607D01*
X231458601Y-136046118D01*
X231447024Y-136045954D01*
X231424278Y-136046607D01*
X231403173Y-136048548D01*
X231393229Y-136049993D01*
X231383685Y-136051751D01*
X231374541Y-136053818D01*
X231365791Y-136056191D01*
X231357434Y-136058868D01*
X231349466Y-136061844D01*
X231341884Y-136065117D01*
X231334686Y-136068683D01*
X231327868Y-136072540D01*
X231321427Y-136076684D01*
X231315360Y-136081112D01*
X231309665Y-136085821D01*
X231304339Y-136090807D01*
X231299377Y-136096068D01*
X231294778Y-136101600D01*
X231290539Y-136107400D01*
X231286656Y-136113466D01*
X231283126Y-136119793D01*
X231279946Y-136126379D01*
X231277114Y-136133220D01*
X231274627Y-136140314D01*
X231272480Y-136147656D01*
X231270672Y-136155245D01*
X231269200Y-136163076D01*
X231267249Y-136179455D01*
X231266604Y-136196767D01*
X231266896Y-136205676D01*
X231267755Y-136214418D01*
X231269160Y-136222984D01*
X231271089Y-136231366D01*
X231273521Y-136239555D01*
X231276433Y-136247542D01*
X231279803Y-136255319D01*
X231283611Y-136262876D01*
X231287833Y-136270206D01*
X231292448Y-136277299D01*
X231297434Y-136284147D01*
X231302770Y-136290741D01*
X231308433Y-136297072D01*
X231314401Y-136303131D01*
X231320653Y-136308910D01*
X231327167Y-136314401D01*
X231250650Y-136400046D01*
X231239919Y-136390398D01*
X231229601Y-136380295D01*
X231219734Y-136369741D01*
X231210357Y-136358735D01*
X231201508Y-136347281D01*
X231193227Y-136335380D01*
X231185550Y-136323033D01*
X231178518Y-136310243D01*
X231172169Y-136297012D01*
X231166540Y-136283339D01*
X231161672Y-136269229D01*
X231157603Y-136254682D01*
X231154370Y-136239700D01*
X231152014Y-136224285D01*
X231151176Y-136216416D01*
X231150571Y-136208439D01*
X231150205Y-136200355D01*
X231150082Y-136192163D01*
X231151083Y-136167185D01*
X231152347Y-136154793D01*
X231154129Y-136142497D01*
X231156439Y-136130318D01*
X231159284Y-136118281D01*
X231162672Y-136106408D01*
X231166611Y-136094720D01*
X231171108Y-136083243D01*
X231176173Y-136071997D01*
X231181812Y-136061006D01*
X231188035Y-136050293D01*
X231194848Y-136039880D01*
X231202259Y-136029790D01*
X231210277Y-136020047D01*
X231218910Y-136010672D01*
X231228165Y-136001689D01*
X231238051Y-135993120D01*
X231248575Y-135984989D01*
X231259746Y-135977317D01*
X231271571Y-135970129D01*
X231284058Y-135963445D01*
X231297215Y-135957291D01*
X231311051Y-135951687D01*
X231325572Y-135946657D01*
X231340788Y-135942224D01*
X231356706Y-135938410D01*
X231373333Y-135935239D01*
X231390679Y-135932733D01*
X231408751Y-135930914D01*
X231427556Y-135929806D01*
X231447103Y-135929432D01*
X231466647Y-135929806D01*
G37*
G36*
X232360947Y-133459602D02*
G01*
X232409323Y-133460055D01*
X232449429Y-133461526D01*
X232466709Y-133462693D01*
X232482345Y-133464175D01*
X232496494Y-133465991D01*
X232509309Y-133468163D01*
X232520946Y-133470709D01*
X232531559Y-133473649D01*
X232541303Y-133477006D01*
X232550332Y-133480797D01*
X232558802Y-133485043D01*
X232566868Y-133489765D01*
X232574683Y-133494983D01*
X232582404Y-133500716D01*
X232590405Y-133507137D01*
X232598109Y-133513990D01*
X232605485Y-133521275D01*
X232612502Y-133528995D01*
X232619132Y-133537150D01*
X232625342Y-133545743D01*
X232631105Y-133554774D01*
X232636388Y-133564246D01*
X232641163Y-133574160D01*
X232643350Y-133579282D01*
X232645399Y-133584516D01*
X232647305Y-133589862D01*
X232649065Y-133595318D01*
X232650676Y-133600886D01*
X232652133Y-133606566D01*
X232653433Y-133612358D01*
X232654571Y-133618262D01*
X232655545Y-133624279D01*
X232656350Y-133630408D01*
X232656983Y-133636650D01*
X232657440Y-133643004D01*
X232657716Y-133649472D01*
X232657810Y-133656053D01*
X232657491Y-133667130D01*
X232656552Y-133678054D01*
X232655012Y-133688809D01*
X232652894Y-133699379D01*
X232650221Y-133709748D01*
X232647014Y-133719897D01*
X232643296Y-133729812D01*
X232639087Y-133739476D01*
X232634410Y-133748872D01*
X232629288Y-133757983D01*
X232623742Y-133766794D01*
X232617793Y-133775287D01*
X232611465Y-133783446D01*
X232604779Y-133791254D01*
X232597757Y-133798696D01*
X232590420Y-133805754D01*
X232650983Y-133805754D01*
X232651063Y-133805754D01*
X232651063Y-133922277D01*
X231837548Y-133922277D01*
X231837548Y-133805754D01*
X232133458Y-133805754D01*
X232125912Y-133797571D01*
X232118707Y-133789294D01*
X232111861Y-133780911D01*
X232105397Y-133772407D01*
X232099333Y-133763769D01*
X232093691Y-133754983D01*
X232088489Y-133746037D01*
X232083750Y-133736916D01*
X232079492Y-133727608D01*
X232075736Y-133718098D01*
X232072503Y-133708373D01*
X232069812Y-133698419D01*
X232068375Y-133691534D01*
X232181480Y-133691534D01*
X232181758Y-133701415D01*
X232182579Y-133710711D01*
X232183923Y-133719441D01*
X232185770Y-133727621D01*
X232188100Y-133735269D01*
X232190894Y-133742403D01*
X232194130Y-133749042D01*
X232197791Y-133755202D01*
X232201854Y-133760902D01*
X232206302Y-133766159D01*
X232211113Y-133770991D01*
X232216268Y-133775417D01*
X232221748Y-133779453D01*
X232227531Y-133783117D01*
X232233598Y-133786428D01*
X232239930Y-133789403D01*
X232246506Y-133792060D01*
X232253307Y-133794416D01*
X232260312Y-133796490D01*
X232267502Y-133798299D01*
X232274857Y-133799861D01*
X232282357Y-133801194D01*
X232297711Y-133803244D01*
X232313407Y-133804590D01*
X232329284Y-133805376D01*
X232345184Y-133805743D01*
X232360947Y-133805833D01*
X232392651Y-133805376D01*
X232408575Y-133804590D01*
X232424332Y-133803244D01*
X232439758Y-133801194D01*
X232454693Y-133798299D01*
X232468974Y-133794416D01*
X232482440Y-133789403D01*
X232488816Y-133786428D01*
X232494928Y-133783117D01*
X232500755Y-133779453D01*
X232506277Y-133775417D01*
X232511473Y-133770991D01*
X232516323Y-133766159D01*
X232520808Y-133760902D01*
X232524907Y-133755202D01*
X232528599Y-133749042D01*
X232531865Y-133742403D01*
X232534684Y-133735269D01*
X232537035Y-133727621D01*
X232538900Y-133719441D01*
X232540256Y-133710711D01*
X232541085Y-133701415D01*
X232541366Y-133691534D01*
X232541104Y-133681649D01*
X232540330Y-133672343D01*
X232539061Y-133663599D01*
X232537312Y-133655399D01*
X232535100Y-133647725D01*
X232532443Y-133640561D01*
X232529356Y-133633889D01*
X232525856Y-133627691D01*
X232521959Y-133621951D01*
X232517682Y-133616650D01*
X232513042Y-133611772D01*
X232508056Y-133607299D01*
X232502738Y-133603213D01*
X232497107Y-133599498D01*
X232491179Y-133596135D01*
X232484970Y-133593108D01*
X232478497Y-133590400D01*
X232471776Y-133587992D01*
X232464825Y-133585867D01*
X232457658Y-133584008D01*
X232450294Y-133582398D01*
X232442748Y-133581019D01*
X232427178Y-133578885D01*
X232411081Y-133577468D01*
X232394588Y-133576628D01*
X232377833Y-133576225D01*
X232360947Y-133576122D01*
X232327347Y-133576582D01*
X232310902Y-133577373D01*
X232294865Y-133578729D01*
X232279367Y-133580795D01*
X232264537Y-133583715D01*
X232250505Y-133587633D01*
X232243829Y-133590010D01*
X232237400Y-133592692D01*
X232231236Y-133595694D01*
X232225352Y-133599036D01*
X232219764Y-133602736D01*
X232214490Y-133606810D01*
X232209544Y-133611278D01*
X232204943Y-133616158D01*
X232200704Y-133621466D01*
X232196842Y-133627222D01*
X232193374Y-133633444D01*
X232190316Y-133640148D01*
X232187683Y-133647354D01*
X232185493Y-133655080D01*
X232183762Y-133663342D01*
X232182505Y-133672160D01*
X232181739Y-133681551D01*
X232181480Y-133691534D01*
X232068375Y-133691534D01*
X232067684Y-133688224D01*
X232066139Y-133677774D01*
X232065197Y-133667055D01*
X232064878Y-133656053D01*
X232065247Y-133643004D01*
X232066334Y-133630408D01*
X232068110Y-133618262D01*
X232070544Y-133606566D01*
X232073607Y-133595318D01*
X232077268Y-133584516D01*
X232081499Y-133574160D01*
X232086270Y-133564246D01*
X232091550Y-133554774D01*
X232097310Y-133545743D01*
X232103521Y-133537150D01*
X232110152Y-133528995D01*
X232117173Y-133521275D01*
X232124556Y-133513990D01*
X232132269Y-133507137D01*
X232140284Y-133500716D01*
X232147966Y-133494983D01*
X232155727Y-133489765D01*
X232163724Y-133485043D01*
X232172115Y-133480797D01*
X232176507Y-133478845D01*
X232181057Y-133477006D01*
X232185784Y-133475274D01*
X232190708Y-133473649D01*
X232195848Y-133472128D01*
X232201224Y-133470709D01*
X232212764Y-133468163D01*
X232225484Y-133465991D01*
X232239541Y-133464175D01*
X232255094Y-133462693D01*
X232272299Y-133461526D01*
X232291314Y-133460653D01*
X232312295Y-133460055D01*
X232335401Y-133459710D01*
X232360789Y-133459600D01*
X232360947Y-133459602D01*
G37*
G36*
X231469961Y-132469717D02*
G01*
X231490674Y-132470898D01*
X231510375Y-132472831D01*
X231529086Y-132475487D01*
X231546830Y-132478838D01*
X231563631Y-132482854D01*
X231579509Y-132487506D01*
X231594488Y-132492766D01*
X231608591Y-132498606D01*
X231621840Y-132504995D01*
X231634257Y-132511905D01*
X231645866Y-132519308D01*
X231656688Y-132527175D01*
X231666746Y-132535476D01*
X231676063Y-132544183D01*
X231684662Y-132553266D01*
X231692565Y-132562698D01*
X231699794Y-132572449D01*
X231706372Y-132582491D01*
X231712323Y-132592794D01*
X231717667Y-132603330D01*
X231722428Y-132614070D01*
X231730291Y-132636046D01*
X231736093Y-132658491D01*
X231740014Y-132681174D01*
X231742233Y-132703866D01*
X231742933Y-132726334D01*
X231742609Y-132740860D01*
X231741627Y-132755284D01*
X231739969Y-132769587D01*
X231737619Y-132783748D01*
X231734559Y-132797747D01*
X231730773Y-132811566D01*
X231726245Y-132825183D01*
X231720956Y-132838580D01*
X231714891Y-132851735D01*
X231708032Y-132864630D01*
X231700363Y-132877244D01*
X231691867Y-132889557D01*
X231682526Y-132901550D01*
X231672325Y-132913203D01*
X231661245Y-132924495D01*
X231649271Y-132935407D01*
X231577357Y-132850873D01*
X231583821Y-132844288D01*
X231589929Y-132837408D01*
X231595675Y-132830257D01*
X231601048Y-132822862D01*
X231606041Y-132815247D01*
X231610645Y-132807437D01*
X231614852Y-132799457D01*
X231618652Y-132791332D01*
X231622037Y-132783087D01*
X231624999Y-132774747D01*
X231627529Y-132766337D01*
X231629618Y-132757881D01*
X231631258Y-132749406D01*
X231632440Y-132740936D01*
X231633155Y-132732496D01*
X231633396Y-132724111D01*
X231633255Y-132716675D01*
X231632833Y-132709373D01*
X231632131Y-132702212D01*
X231631147Y-132695198D01*
X231629883Y-132688339D01*
X231628339Y-132681640D01*
X231626515Y-132675109D01*
X231624410Y-132668752D01*
X231622027Y-132662576D01*
X231619363Y-132656588D01*
X231616421Y-132650794D01*
X231613199Y-132645201D01*
X231609699Y-132639815D01*
X231605921Y-132634644D01*
X231601863Y-132629694D01*
X231597528Y-132624972D01*
X231592915Y-132620484D01*
X231588025Y-132616237D01*
X231582856Y-132612238D01*
X231577411Y-132608493D01*
X231571689Y-132605010D01*
X231565689Y-132601794D01*
X231559413Y-132598853D01*
X231552861Y-132596193D01*
X231546033Y-132593821D01*
X231538929Y-132591744D01*
X231531549Y-132589968D01*
X231523893Y-132588500D01*
X231515963Y-132587346D01*
X231507757Y-132586514D01*
X231499276Y-132586009D01*
X231490521Y-132585840D01*
X231490521Y-132946837D01*
X231394556Y-132946837D01*
X231380684Y-132946516D01*
X231367140Y-132945562D01*
X231353932Y-132943993D01*
X231341067Y-132941826D01*
X231328554Y-132939079D01*
X231316398Y-132935768D01*
X231304607Y-132931911D01*
X231293190Y-132927524D01*
X231282152Y-132922626D01*
X231271501Y-132917233D01*
X231261245Y-132911361D01*
X231251391Y-132905030D01*
X231241946Y-132898254D01*
X231232918Y-132891053D01*
X231224314Y-132883442D01*
X231216141Y-132875439D01*
X231208407Y-132867062D01*
X231201118Y-132858327D01*
X231194283Y-132849251D01*
X231187909Y-132839852D01*
X231182002Y-132830146D01*
X231176570Y-132820151D01*
X231171621Y-132809885D01*
X231167162Y-132799363D01*
X231163200Y-132788604D01*
X231159742Y-132777625D01*
X231156797Y-132766442D01*
X231154370Y-132755073D01*
X231152470Y-132743535D01*
X231151104Y-132731845D01*
X231150279Y-132720020D01*
X231150002Y-132708077D01*
X231259778Y-132708077D01*
X231259915Y-132714445D01*
X231260325Y-132720701D01*
X231261008Y-132726840D01*
X231261962Y-132732857D01*
X231263186Y-132738746D01*
X231264680Y-132744502D01*
X231266442Y-132750121D01*
X231268471Y-132755596D01*
X231270766Y-132760922D01*
X231273326Y-132766094D01*
X231276150Y-132771108D01*
X231279238Y-132775957D01*
X231282587Y-132780636D01*
X231286197Y-132785141D01*
X231290068Y-132789465D01*
X231294197Y-132793604D01*
X231298584Y-132797552D01*
X231303228Y-132801304D01*
X231308128Y-132804855D01*
X231313282Y-132808200D01*
X231318691Y-132811333D01*
X231324352Y-132814249D01*
X231330265Y-132816942D01*
X231336428Y-132819408D01*
X231342841Y-132821641D01*
X231349503Y-132823637D01*
X231356412Y-132825389D01*
X231363568Y-132826892D01*
X231370969Y-132828142D01*
X231378615Y-132829132D01*
X231386504Y-132829858D01*
X231394636Y-132830315D01*
X231394636Y-132585840D01*
X231386504Y-132586199D01*
X231378615Y-132586839D01*
X231370969Y-132587756D01*
X231363568Y-132588944D01*
X231356412Y-132590395D01*
X231349503Y-132592105D01*
X231342841Y-132594068D01*
X231336428Y-132596278D01*
X231330264Y-132598728D01*
X231324352Y-132601414D01*
X231318691Y-132604328D01*
X231313282Y-132607466D01*
X231308128Y-132610822D01*
X231303228Y-132614389D01*
X231298584Y-132618162D01*
X231294197Y-132622134D01*
X231290067Y-132626300D01*
X231286197Y-132630655D01*
X231282587Y-132635192D01*
X231279237Y-132639905D01*
X231276150Y-132644788D01*
X231273326Y-132649836D01*
X231270766Y-132655043D01*
X231268471Y-132660403D01*
X231266442Y-132665909D01*
X231264680Y-132671557D01*
X231263186Y-132677340D01*
X231261962Y-132683252D01*
X231261008Y-132689288D01*
X231260325Y-132695441D01*
X231259915Y-132701706D01*
X231259778Y-132708077D01*
X231150002Y-132708077D01*
X231150879Y-132686939D01*
X231153586Y-132665662D01*
X231155662Y-132655037D01*
X231158239Y-132644454D01*
X231161331Y-132633941D01*
X231164953Y-132623522D01*
X231169119Y-132613224D01*
X231173843Y-132603073D01*
X231179140Y-132593094D01*
X231185024Y-132583314D01*
X231191510Y-132573759D01*
X231198612Y-132564454D01*
X231206345Y-132555425D01*
X231214722Y-132546698D01*
X231223759Y-132538300D01*
X231233469Y-132530255D01*
X231243868Y-132522590D01*
X231254968Y-132515332D01*
X231266786Y-132508505D01*
X231279335Y-132502136D01*
X231292630Y-132496250D01*
X231306684Y-132490874D01*
X231321514Y-132486033D01*
X231337132Y-132481754D01*
X231353553Y-132478062D01*
X231370792Y-132474983D01*
X231388864Y-132472543D01*
X231394636Y-132472002D01*
X231407781Y-132470768D01*
X231427560Y-132469684D01*
X231448214Y-132469317D01*
X231469961Y-132469717D01*
G37*
G36*
X231469961Y-136430133D02*
G01*
X231490674Y-136431314D01*
X231510375Y-136433247D01*
X231529086Y-136435903D01*
X231546830Y-136439253D01*
X231563631Y-136443269D01*
X231579509Y-136447922D01*
X231594488Y-136453183D01*
X231608591Y-136459023D01*
X231621840Y-136465412D01*
X231634257Y-136472324D01*
X231645866Y-136479728D01*
X231656688Y-136487595D01*
X231666746Y-136495897D01*
X231676063Y-136504606D01*
X231684662Y-136513691D01*
X231692565Y-136523125D01*
X231699794Y-136532879D01*
X231706372Y-136542923D01*
X231712323Y-136553229D01*
X231717667Y-136563768D01*
X231722428Y-136574511D01*
X231730291Y-136596494D01*
X231736093Y-136618948D01*
X231740014Y-136641643D01*
X231742233Y-136664346D01*
X231742933Y-136686828D01*
X231742609Y-136701355D01*
X231741627Y-136715782D01*
X231739969Y-136730088D01*
X231737619Y-136744254D01*
X231734559Y-136758258D01*
X231730773Y-136772082D01*
X231726245Y-136785704D01*
X231720956Y-136799104D01*
X231714891Y-136812263D01*
X231708032Y-136825159D01*
X231700363Y-136837774D01*
X231691867Y-136850085D01*
X231682526Y-136862074D01*
X231672325Y-136873720D01*
X231661245Y-136885003D01*
X231649271Y-136895902D01*
X231577357Y-136811367D01*
X231583821Y-136804782D01*
X231589929Y-136797902D01*
X231595675Y-136790752D01*
X231601048Y-136783357D01*
X231606041Y-136775742D01*
X231610645Y-136767932D01*
X231614852Y-136759952D01*
X231618652Y-136751826D01*
X231622037Y-136743581D01*
X231624999Y-136735241D01*
X231627529Y-136726831D01*
X231629618Y-136718376D01*
X231631258Y-136709901D01*
X231632440Y-136701431D01*
X231633155Y-136692991D01*
X231633396Y-136684606D01*
X231633255Y-136677170D01*
X231632833Y-136669869D01*
X231632131Y-136662709D01*
X231631147Y-136655696D01*
X231629883Y-136648839D01*
X231628339Y-136642142D01*
X231626515Y-136635613D01*
X231624410Y-136629259D01*
X231622027Y-136623086D01*
X231619363Y-136617101D01*
X231616421Y-136611310D01*
X231613199Y-136605721D01*
X231609699Y-136600339D01*
X231605921Y-136595171D01*
X231601863Y-136590225D01*
X231597528Y-136585506D01*
X231592915Y-136581022D01*
X231588025Y-136576779D01*
X231582856Y-136572784D01*
X231577411Y-136569043D01*
X231571689Y-136565563D01*
X231565689Y-136562350D01*
X231559413Y-136559412D01*
X231552861Y-136556755D01*
X231546033Y-136554386D01*
X231538929Y-136552311D01*
X231531549Y-136550537D01*
X231523893Y-136549070D01*
X231515963Y-136547918D01*
X231507757Y-136547087D01*
X231499276Y-136546584D01*
X231490521Y-136546414D01*
X231490521Y-136907253D01*
X231394556Y-136907253D01*
X231380684Y-136906931D01*
X231367140Y-136905976D01*
X231353932Y-136904406D01*
X231341067Y-136902238D01*
X231328554Y-136899489D01*
X231316398Y-136896177D01*
X231304607Y-136892317D01*
X231293190Y-136887929D01*
X231282152Y-136883028D01*
X231271501Y-136877632D01*
X231261245Y-136871758D01*
X231251391Y-136865424D01*
X231241946Y-136858647D01*
X231232918Y-136851443D01*
X231224314Y-136843830D01*
X231216141Y-136835825D01*
X231208407Y-136827446D01*
X231201118Y-136818709D01*
X231194283Y-136809632D01*
X231187909Y-136800232D01*
X231182002Y-136790526D01*
X231176570Y-136780532D01*
X231171621Y-136770266D01*
X231167162Y-136759745D01*
X231163200Y-136748988D01*
X231159742Y-136738011D01*
X231156797Y-136726831D01*
X231154370Y-136715465D01*
X231152470Y-136703932D01*
X231151104Y-136692247D01*
X231150279Y-136680428D01*
X231150002Y-136668493D01*
X231259778Y-136668493D01*
X231259915Y-136674868D01*
X231260325Y-136681129D01*
X231261008Y-136687272D01*
X231261962Y-136693292D01*
X231263186Y-136699183D01*
X231264680Y-136704941D01*
X231266442Y-136710559D01*
X231268471Y-136716034D01*
X231270766Y-136721359D01*
X231273326Y-136726530D01*
X231276150Y-136731541D01*
X231279238Y-136736387D01*
X231282587Y-136741063D01*
X231286197Y-136745564D01*
X231290068Y-136749885D01*
X231294197Y-136754020D01*
X231298584Y-136757964D01*
X231303228Y-136761713D01*
X231308128Y-136765260D01*
X231313282Y-136768602D01*
X231318691Y-136771732D01*
X231324352Y-136774645D01*
X231330265Y-136777337D01*
X231336428Y-136779802D01*
X231342841Y-136782035D01*
X231349503Y-136784030D01*
X231356412Y-136785783D01*
X231363568Y-136787289D01*
X231370969Y-136788541D01*
X231378615Y-136789536D01*
X231386504Y-136790268D01*
X231394636Y-136790731D01*
X231394636Y-136546256D01*
X231394636Y-136546255D01*
X231386504Y-136546607D01*
X231378615Y-136547241D01*
X231370969Y-136548152D01*
X231363568Y-136549333D01*
X231356412Y-136550779D01*
X231349503Y-136552485D01*
X231342841Y-136554443D01*
X231336428Y-136556649D01*
X231330264Y-136559096D01*
X231324352Y-136561778D01*
X231318691Y-136564690D01*
X231313282Y-136567826D01*
X231308128Y-136571180D01*
X231303228Y-136574746D01*
X231298584Y-136578518D01*
X231294197Y-136582490D01*
X231290067Y-136586657D01*
X231286197Y-136591012D01*
X231282587Y-136595550D01*
X231279237Y-136600265D01*
X231276150Y-136605150D01*
X231273326Y-136610201D01*
X231270766Y-136615411D01*
X231268471Y-136620774D01*
X231266442Y-136626284D01*
X231264680Y-136631936D01*
X231263186Y-136637724D01*
X231261962Y-136643642D01*
X231261008Y-136649683D01*
X231260325Y-136655843D01*
X231259915Y-136662115D01*
X231259778Y-136668493D01*
X231150002Y-136668493D01*
X231150002Y-136668492D01*
X231150879Y-136647354D01*
X231153586Y-136626078D01*
X231155662Y-136615452D01*
X231158239Y-136604869D01*
X231161331Y-136594356D01*
X231164953Y-136583937D01*
X231169119Y-136573639D01*
X231173843Y-136563488D01*
X231179140Y-136553510D01*
X231185024Y-136543730D01*
X231191510Y-136534174D01*
X231198612Y-136524869D01*
X231206345Y-136515840D01*
X231214722Y-136507113D01*
X231223759Y-136498715D01*
X231233469Y-136490670D01*
X231243868Y-136483006D01*
X231254968Y-136475747D01*
X231266786Y-136468920D01*
X231279335Y-136462551D01*
X231292630Y-136456665D01*
X231306684Y-136451289D01*
X231321514Y-136446448D01*
X231337132Y-136442169D01*
X231353553Y-136438477D01*
X231370792Y-136435398D01*
X231388864Y-136432958D01*
X231394636Y-136432417D01*
X231407781Y-136431183D01*
X231427560Y-136430100D01*
X231448214Y-136429733D01*
X231469961Y-136430133D01*
G37*
G36*
X232384845Y-135801483D02*
G01*
X232405565Y-135802663D01*
X232425272Y-135804596D01*
X232443989Y-135807253D01*
X232461739Y-135810603D01*
X232478544Y-135814619D01*
X232494427Y-135819272D01*
X232509411Y-135824533D01*
X232523518Y-135830373D01*
X232536770Y-135836762D01*
X232549191Y-135843674D01*
X232560802Y-135851077D01*
X232571627Y-135858945D01*
X232581688Y-135867247D01*
X232591008Y-135875956D01*
X232599608Y-135885041D01*
X232607513Y-135894475D01*
X232614744Y-135904229D01*
X232621323Y-135914273D01*
X232627275Y-135924579D01*
X232632620Y-135935118D01*
X232637382Y-135945861D01*
X232645247Y-135967844D01*
X232651049Y-135990298D01*
X232654970Y-136012993D01*
X232657190Y-136035696D01*
X232657890Y-136058178D01*
X232657566Y-136072704D01*
X232656584Y-136087128D01*
X232654926Y-136101431D01*
X232652575Y-136115592D01*
X232649516Y-136129592D01*
X232645730Y-136143411D01*
X232641201Y-136157028D01*
X232635913Y-136170424D01*
X232629847Y-136183580D01*
X232622989Y-136196475D01*
X232615319Y-136209088D01*
X232606823Y-136221402D01*
X232597482Y-136233395D01*
X232587281Y-136245047D01*
X232576201Y-136256340D01*
X232564227Y-136267252D01*
X232492234Y-136182717D01*
X232498710Y-136176131D01*
X232504829Y-136169249D01*
X232510581Y-136162095D01*
X232515958Y-136154696D01*
X232520953Y-136147076D01*
X232525557Y-136139261D01*
X232529762Y-136131276D01*
X232533559Y-136123147D01*
X232536940Y-136114898D01*
X232539897Y-136106556D01*
X232542422Y-136098146D01*
X232544506Y-136089692D01*
X232546142Y-136081221D01*
X232547320Y-136072758D01*
X232548033Y-136064328D01*
X232548273Y-136055956D01*
X232548132Y-136048520D01*
X232547710Y-136041219D01*
X232547008Y-136034058D01*
X232546024Y-136027046D01*
X232544760Y-136020189D01*
X232543216Y-136013492D01*
X232541392Y-136006963D01*
X232539288Y-136000609D01*
X232536905Y-135994436D01*
X232534243Y-135988451D01*
X232531301Y-135982660D01*
X232528080Y-135977070D01*
X232524581Y-135971689D01*
X232520804Y-135966521D01*
X232516748Y-135961575D01*
X232512415Y-135956856D01*
X232507804Y-135952372D01*
X232502916Y-135948129D01*
X232497750Y-135944134D01*
X232492307Y-135940393D01*
X232486588Y-135936912D01*
X232480592Y-135933700D01*
X232474320Y-135930762D01*
X232467772Y-135928105D01*
X232460948Y-135925736D01*
X232453848Y-135923661D01*
X232446473Y-135921887D01*
X232438823Y-135920420D01*
X232430898Y-135919268D01*
X232422699Y-135918437D01*
X232414225Y-135917934D01*
X232405477Y-135917764D01*
X232405477Y-136278523D01*
X232309433Y-136278523D01*
X232295568Y-136278201D01*
X232282031Y-136277248D01*
X232268829Y-136275679D01*
X232255971Y-136273512D01*
X232243462Y-136270765D01*
X232231312Y-136267454D01*
X232219526Y-136263597D01*
X232208112Y-136259211D01*
X232197079Y-136254313D01*
X232186432Y-136248921D01*
X232176179Y-136243050D01*
X232166328Y-136236720D01*
X232156886Y-136229946D01*
X232147861Y-136222745D01*
X232139259Y-136215136D01*
X232131088Y-136207135D01*
X232123355Y-136198760D01*
X232116068Y-136190027D01*
X232109234Y-136180953D01*
X232102861Y-136171557D01*
X232096955Y-136161854D01*
X232091524Y-136151863D01*
X232086576Y-136141600D01*
X232082117Y-136131083D01*
X232078156Y-136120328D01*
X232074698Y-136109353D01*
X232071753Y-136098175D01*
X232069326Y-136086812D01*
X232067426Y-136075280D01*
X232066060Y-136063596D01*
X232065235Y-136051778D01*
X232064958Y-136039843D01*
X232174575Y-136039843D01*
X232174712Y-136046218D01*
X232175123Y-136052480D01*
X232175807Y-136058624D01*
X232176762Y-136064645D01*
X232177988Y-136070538D01*
X232179483Y-136076298D01*
X232181247Y-136081918D01*
X232183278Y-136087395D01*
X232185576Y-136092722D01*
X232188139Y-136097895D01*
X232190965Y-136102909D01*
X232194055Y-136107758D01*
X232197407Y-136112436D01*
X232201020Y-136116939D01*
X232204892Y-136121262D01*
X232209023Y-136125399D01*
X232213412Y-136129346D01*
X232218057Y-136133096D01*
X232222958Y-136136644D01*
X232228114Y-136139987D01*
X232233522Y-136143117D01*
X232239184Y-136146030D01*
X232245096Y-136148722D01*
X232251258Y-136151185D01*
X232257669Y-136153416D01*
X232264329Y-136155409D01*
X232271235Y-136157160D01*
X232278387Y-136158661D01*
X232285784Y-136159910D01*
X232293425Y-136160899D01*
X232301308Y-136161625D01*
X232309433Y-136162081D01*
X232309433Y-135917606D01*
X232309433Y-135917605D01*
X232301308Y-135917957D01*
X232293425Y-135918591D01*
X232285784Y-135919502D01*
X232278387Y-135920683D01*
X232271235Y-135922129D01*
X232264329Y-135923835D01*
X232257669Y-135925793D01*
X232251258Y-135927999D01*
X232245096Y-135930446D01*
X232239184Y-135933128D01*
X232233522Y-135936040D01*
X232228114Y-135939176D01*
X232222958Y-135942530D01*
X232218057Y-135946096D01*
X232213412Y-135949868D01*
X232209023Y-135953840D01*
X232204892Y-135958007D01*
X232201020Y-135962362D01*
X232197407Y-135966900D01*
X232194055Y-135971615D01*
X232190965Y-135976500D01*
X232188139Y-135981551D01*
X232185576Y-135986761D01*
X232183278Y-135992124D01*
X232181247Y-135997634D01*
X232179483Y-136003286D01*
X232177988Y-136009074D01*
X232176762Y-136014992D01*
X232175807Y-136021033D01*
X232175123Y-136027193D01*
X232174712Y-136033465D01*
X232174575Y-136039843D01*
X232064958Y-136039843D01*
X232064958Y-136039842D01*
X232065834Y-136018704D01*
X232068539Y-135997428D01*
X232070613Y-135986802D01*
X232073188Y-135976219D01*
X232076278Y-135965706D01*
X232079897Y-135955287D01*
X232084060Y-135944989D01*
X232088781Y-135934838D01*
X232094075Y-135924859D01*
X232099956Y-135915079D01*
X232106438Y-135905524D01*
X232113537Y-135896219D01*
X232121266Y-135887190D01*
X232129639Y-135878463D01*
X232138672Y-135870065D01*
X232148379Y-135862020D01*
X232158773Y-135854356D01*
X232169871Y-135847097D01*
X232181685Y-135840270D01*
X232194231Y-135833901D01*
X232207522Y-135828015D01*
X232221574Y-135822639D01*
X232236401Y-135817798D01*
X232252016Y-135813519D01*
X232268435Y-135809827D01*
X232285673Y-135806748D01*
X232303743Y-135804308D01*
X232309433Y-135803774D01*
X232322659Y-135802533D01*
X232342437Y-135801450D01*
X232363091Y-135801082D01*
X232384845Y-135801483D01*
G37*
G36*
X231468661Y-131351219D02*
G01*
X231489625Y-131351874D01*
X231509002Y-131352981D01*
X231526904Y-131354551D01*
X231543449Y-131356596D01*
X231558751Y-131359128D01*
X231572926Y-131362157D01*
X231586088Y-131365697D01*
X231598354Y-131369759D01*
X231609839Y-131374354D01*
X231620658Y-131379495D01*
X231630925Y-131385193D01*
X231640758Y-131391459D01*
X231650270Y-131398306D01*
X231659578Y-131405745D01*
X231668797Y-131413789D01*
X231675464Y-131420045D01*
X231682150Y-131426832D01*
X231688792Y-131434173D01*
X231695328Y-131442088D01*
X231701697Y-131450600D01*
X231707836Y-131459729D01*
X231713685Y-131469498D01*
X231719180Y-131479928D01*
X231721776Y-131485397D01*
X231724261Y-131491041D01*
X231726626Y-131496860D01*
X231728864Y-131502858D01*
X231730968Y-131509037D01*
X231732930Y-131515401D01*
X231734741Y-131521951D01*
X231736394Y-131528691D01*
X231737882Y-131535624D01*
X231739197Y-131542751D01*
X231740331Y-131550077D01*
X231741275Y-131557602D01*
X231742024Y-131565331D01*
X231742568Y-131573266D01*
X231742900Y-131581409D01*
X231743012Y-131589763D01*
X231742568Y-131606260D01*
X231741275Y-131621921D01*
X231739197Y-131636768D01*
X231736394Y-131650823D01*
X231732930Y-131664109D01*
X231728864Y-131676647D01*
X231724260Y-131688460D01*
X231719180Y-131699568D01*
X231713685Y-131709995D01*
X231707836Y-131719762D01*
X231701697Y-131728891D01*
X231695328Y-131737404D01*
X231688792Y-131745323D01*
X231682150Y-131752671D01*
X231675464Y-131759468D01*
X231668797Y-131765737D01*
X231659578Y-131773782D01*
X231650270Y-131781223D01*
X231640758Y-131788074D01*
X231630925Y-131794346D01*
X231620657Y-131800050D01*
X231609839Y-131805197D01*
X231598354Y-131809799D01*
X231586088Y-131813868D01*
X231572926Y-131817416D01*
X231558751Y-131820453D01*
X231543449Y-131822991D01*
X231526904Y-131825042D01*
X231509001Y-131826617D01*
X231489625Y-131827728D01*
X231468660Y-131828386D01*
X231445991Y-131828602D01*
X231423335Y-131828386D01*
X231402405Y-131827731D01*
X231383084Y-131826624D01*
X231365253Y-131825053D01*
X231348794Y-131823007D01*
X231333587Y-131820474D01*
X231319516Y-131817441D01*
X231306460Y-131813898D01*
X231294302Y-131809832D01*
X231282923Y-131805232D01*
X231272205Y-131800085D01*
X231262029Y-131794379D01*
X231252276Y-131788104D01*
X231242829Y-131781246D01*
X231233568Y-131773795D01*
X231224376Y-131765737D01*
X231217708Y-131759481D01*
X231211020Y-131752693D01*
X231204374Y-131745353D01*
X231197833Y-131737438D01*
X231191458Y-131728926D01*
X231185312Y-131719797D01*
X231179456Y-131710028D01*
X231173953Y-131699598D01*
X231171354Y-131694128D01*
X231168866Y-131688485D01*
X231166497Y-131682666D01*
X231164255Y-131676668D01*
X231162147Y-131670489D01*
X231160183Y-131664125D01*
X231158368Y-131657575D01*
X231156712Y-131650835D01*
X231155221Y-131643902D01*
X231153904Y-131636775D01*
X231152769Y-131629449D01*
X231151822Y-131621924D01*
X231151072Y-131614195D01*
X231150527Y-131606260D01*
X231150194Y-131598117D01*
X231150082Y-131589763D01*
X231266604Y-131589763D01*
X231266815Y-131597219D01*
X231267435Y-131604570D01*
X231268447Y-131611793D01*
X231269832Y-131618864D01*
X231271572Y-131625760D01*
X231273649Y-131632458D01*
X231276043Y-131638935D01*
X231278738Y-131645167D01*
X231281715Y-131651131D01*
X231284956Y-131656804D01*
X231288441Y-131662162D01*
X231292154Y-131667183D01*
X231296076Y-131671843D01*
X231300188Y-131676119D01*
X231304472Y-131679988D01*
X231308911Y-131683425D01*
X231314609Y-131687330D01*
X231320224Y-131690898D01*
X231325856Y-131694139D01*
X231331608Y-131697066D01*
X231337583Y-131699690D01*
X231343880Y-131702024D01*
X231350604Y-131704080D01*
X231357856Y-131705869D01*
X231365737Y-131707403D01*
X231374350Y-131708694D01*
X231383796Y-131709754D01*
X231394178Y-131710594D01*
X231405598Y-131711227D01*
X231418157Y-131711665D01*
X231431958Y-131711918D01*
X231447102Y-131712000D01*
X231475678Y-131711665D01*
X231488085Y-131711227D01*
X231499374Y-131710594D01*
X231509643Y-131709754D01*
X231518995Y-131708694D01*
X231527530Y-131707403D01*
X231535348Y-131705869D01*
X231542550Y-131704080D01*
X231549238Y-131702024D01*
X231555510Y-131699690D01*
X231561470Y-131697066D01*
X231567216Y-131694139D01*
X231572850Y-131690898D01*
X231578472Y-131687330D01*
X231584183Y-131683425D01*
X231586414Y-131681762D01*
X231588609Y-131679987D01*
X231592884Y-131676116D01*
X231596989Y-131671837D01*
X231600907Y-131667172D01*
X231604618Y-131662146D01*
X231608104Y-131656783D01*
X231611346Y-131651105D01*
X231614326Y-131645137D01*
X231617025Y-131638902D01*
X231619425Y-131632423D01*
X231621506Y-131625725D01*
X231623251Y-131618830D01*
X231624640Y-131611763D01*
X231625656Y-131604547D01*
X231626279Y-131597206D01*
X231626490Y-131589763D01*
X231626280Y-131582320D01*
X231625659Y-131574979D01*
X231624647Y-131567763D01*
X231623262Y-131560696D01*
X231621522Y-131553801D01*
X231619446Y-131547103D01*
X231617051Y-131540624D01*
X231614356Y-131534389D01*
X231611379Y-131528421D01*
X231608139Y-131522743D01*
X231604653Y-131517380D01*
X231600940Y-131512354D01*
X231597019Y-131507689D01*
X231592907Y-131503410D01*
X231588622Y-131499539D01*
X231584183Y-131496101D01*
X231578472Y-131492196D01*
X231572848Y-131488628D01*
X231567209Y-131485387D01*
X231561452Y-131482460D01*
X231555477Y-131479836D01*
X231549179Y-131477502D01*
X231542457Y-131475446D01*
X231535209Y-131473657D01*
X231527332Y-131472123D01*
X231518724Y-131470832D01*
X231509282Y-131469772D01*
X231498905Y-131468932D01*
X231487489Y-131468299D01*
X231474934Y-131467861D01*
X231461135Y-131467607D01*
X231445991Y-131467526D01*
X231417094Y-131467865D01*
X231404590Y-131468306D01*
X231393241Y-131468943D01*
X231382943Y-131469788D01*
X231373590Y-131470853D01*
X231365078Y-131472149D01*
X231357300Y-131473687D01*
X231350152Y-131475479D01*
X231343529Y-131477537D01*
X231337325Y-131479871D01*
X231331435Y-131482494D01*
X231325754Y-131485417D01*
X231320176Y-131488651D01*
X231314597Y-131492209D01*
X231308911Y-131496101D01*
X231306681Y-131497764D01*
X231304485Y-131499538D01*
X231300211Y-131503407D01*
X231296105Y-131507683D01*
X231292188Y-131512343D01*
X231288477Y-131517364D01*
X231284991Y-131522722D01*
X231281748Y-131528395D01*
X231278768Y-131534359D01*
X231276069Y-131540591D01*
X231273670Y-131547068D01*
X231271588Y-131553766D01*
X231269843Y-131560662D01*
X231268454Y-131567733D01*
X231267439Y-131574956D01*
X231266816Y-131582307D01*
X231266604Y-131589763D01*
X231150082Y-131589763D01*
X231150527Y-131573266D01*
X231151822Y-131557602D01*
X231153904Y-131542751D01*
X231156712Y-131528691D01*
X231160183Y-131515401D01*
X231164255Y-131502858D01*
X231168866Y-131491041D01*
X231173954Y-131479928D01*
X231179456Y-131469498D01*
X231185312Y-131459729D01*
X231191458Y-131450600D01*
X231197833Y-131442088D01*
X231204374Y-131434173D01*
X231211020Y-131426832D01*
X231217708Y-131420045D01*
X231224376Y-131413789D01*
X231233594Y-131405745D01*
X231242897Y-131398306D01*
X231252401Y-131391459D01*
X231262218Y-131385193D01*
X231272464Y-131379495D01*
X231283251Y-131374354D01*
X231294694Y-131369759D01*
X231306907Y-131365697D01*
X231320003Y-131362157D01*
X231334097Y-131359128D01*
X231349302Y-131356596D01*
X231365733Y-131354551D01*
X231383504Y-131352981D01*
X231402728Y-131351874D01*
X231423519Y-131351219D01*
X231445991Y-131351003D01*
X231468661Y-131351219D01*
G37*
G36*
X231468661Y-134385249D02*
G01*
X231489626Y-134385908D01*
X231509002Y-134387018D01*
X231526905Y-134388593D01*
X231543449Y-134390644D01*
X231558751Y-134393182D01*
X231572926Y-134396219D01*
X231586089Y-134399767D01*
X231598355Y-134403836D01*
X231609839Y-134408438D01*
X231620658Y-134413586D01*
X231630926Y-134419289D01*
X231640758Y-134425561D01*
X231650271Y-134432412D01*
X231659579Y-134439854D01*
X231668797Y-134447898D01*
X231675465Y-134454153D01*
X231682150Y-134460938D01*
X231688792Y-134468275D01*
X231695328Y-134476185D01*
X231701697Y-134484691D01*
X231707837Y-134493813D01*
X231713685Y-134503575D01*
X231719181Y-134513997D01*
X231721777Y-134519463D01*
X231724261Y-134525103D01*
X231726626Y-134530918D01*
X231728865Y-134536913D01*
X231730969Y-134543089D01*
X231732930Y-134549449D01*
X231734741Y-134555996D01*
X231736395Y-134562734D01*
X231737883Y-134569663D01*
X231739197Y-134576789D01*
X231740331Y-134584112D01*
X231741276Y-134591635D01*
X231742024Y-134599363D01*
X231742568Y-134607296D01*
X231742900Y-134615439D01*
X231743013Y-134623793D01*
X231742568Y-134640290D01*
X231741276Y-134655954D01*
X231739197Y-134670805D01*
X231736395Y-134684865D01*
X231732930Y-134698155D01*
X231728865Y-134710698D01*
X231724261Y-134722515D01*
X231719180Y-134733628D01*
X231713685Y-134744058D01*
X231707837Y-134753827D01*
X231701697Y-134762956D01*
X231695328Y-134771468D01*
X231688792Y-134779383D01*
X231682150Y-134786723D01*
X231675465Y-134793511D01*
X231668797Y-134799767D01*
X231659579Y-134807811D01*
X231650271Y-134815250D01*
X231640758Y-134822097D01*
X231630926Y-134828363D01*
X231620658Y-134834061D01*
X231609839Y-134839202D01*
X231598355Y-134843797D01*
X231586089Y-134847859D01*
X231572926Y-134851399D01*
X231558751Y-134854428D01*
X231543449Y-134856960D01*
X231526905Y-134859005D01*
X231509002Y-134860575D01*
X231489626Y-134861682D01*
X231468661Y-134862337D01*
X231445991Y-134862553D01*
X231423335Y-134862337D01*
X231402405Y-134861682D01*
X231383084Y-134860575D01*
X231365254Y-134859005D01*
X231348794Y-134856960D01*
X231333588Y-134854428D01*
X231319516Y-134851399D01*
X231306460Y-134847859D01*
X231294302Y-134843797D01*
X231282923Y-134839202D01*
X231272205Y-134834061D01*
X231262029Y-134828363D01*
X231252277Y-134822097D01*
X231242829Y-134815250D01*
X231233569Y-134807811D01*
X231224377Y-134799767D01*
X231217708Y-134793512D01*
X231211020Y-134786727D01*
X231204375Y-134779390D01*
X231197833Y-134771479D01*
X231191458Y-134762972D01*
X231185312Y-134753848D01*
X231179457Y-134744084D01*
X231173954Y-134733658D01*
X231171354Y-134728190D01*
X231168866Y-134722548D01*
X231166497Y-134716730D01*
X231164255Y-134710733D01*
X231162148Y-134704554D01*
X231160183Y-134698190D01*
X231158369Y-134691639D01*
X231156712Y-134684898D01*
X231155222Y-134677964D01*
X231153905Y-134670834D01*
X231152769Y-134663506D01*
X231151822Y-134655977D01*
X231151073Y-134648243D01*
X231150528Y-134640303D01*
X231150195Y-134632154D01*
X231150082Y-134623793D01*
X231266604Y-134623793D01*
X231266815Y-134631236D01*
X231267435Y-134638577D01*
X231268447Y-134645793D01*
X231269832Y-134652860D01*
X231271572Y-134659755D01*
X231273649Y-134666453D01*
X231276043Y-134672932D01*
X231278738Y-134679167D01*
X231281715Y-134685135D01*
X231284956Y-134690813D01*
X231288441Y-134696176D01*
X231292154Y-134701202D01*
X231296076Y-134705866D01*
X231300188Y-134710146D01*
X231304472Y-134714017D01*
X231308911Y-134717455D01*
X231314609Y-134721360D01*
X231320224Y-134724927D01*
X231325856Y-134728168D01*
X231331608Y-134731095D01*
X231337583Y-134733720D01*
X231343880Y-134736054D01*
X231350604Y-134738110D01*
X231357856Y-134739899D01*
X231365737Y-134741433D01*
X231374350Y-134742724D01*
X231383796Y-134743783D01*
X231394178Y-134744624D01*
X231405598Y-134745257D01*
X231418157Y-134745695D01*
X231431958Y-134745948D01*
X231447102Y-134746030D01*
X231475678Y-134745695D01*
X231488085Y-134745257D01*
X231499374Y-134744624D01*
X231509643Y-134743783D01*
X231518995Y-134742724D01*
X231527530Y-134741433D01*
X231535348Y-134739899D01*
X231542550Y-134738110D01*
X231549238Y-134736054D01*
X231555510Y-134733720D01*
X231561470Y-134731095D01*
X231567216Y-134728168D01*
X231572850Y-134724927D01*
X231578472Y-134721360D01*
X231584183Y-134717455D01*
X231586414Y-134715792D01*
X231588609Y-134714017D01*
X231592884Y-134710149D01*
X231596989Y-134705873D01*
X231600907Y-134701213D01*
X231604618Y-134696192D01*
X231608104Y-134690834D01*
X231611346Y-134685161D01*
X231614326Y-134679197D01*
X231617025Y-134672965D01*
X231619425Y-134666488D01*
X231621506Y-134659790D01*
X231623251Y-134652894D01*
X231624640Y-134645823D01*
X231625656Y-134638600D01*
X231626279Y-134631249D01*
X231626490Y-134623793D01*
X231626280Y-134616337D01*
X231625659Y-134608986D01*
X231624647Y-134601764D01*
X231623262Y-134594693D01*
X231621522Y-134587798D01*
X231619446Y-134581102D01*
X231617051Y-134574628D01*
X231614356Y-134568399D01*
X231611379Y-134562439D01*
X231608139Y-134556771D01*
X231604653Y-134551419D01*
X231600940Y-134546406D01*
X231597019Y-134541755D01*
X231592907Y-134537490D01*
X231588622Y-134533634D01*
X231584183Y-134530210D01*
X231578472Y-134526305D01*
X231572848Y-134522738D01*
X231567209Y-134519497D01*
X231561452Y-134516570D01*
X231555477Y-134513945D01*
X231549179Y-134511611D01*
X231542457Y-134509555D01*
X231535209Y-134507766D01*
X231527332Y-134506233D01*
X231518724Y-134504942D01*
X231509282Y-134503882D01*
X231498905Y-134503041D01*
X231487489Y-134502408D01*
X231474934Y-134501971D01*
X231461135Y-134501717D01*
X231445991Y-134501635D01*
X231417094Y-134501974D01*
X231404590Y-134502415D01*
X231393241Y-134503052D01*
X231382943Y-134503898D01*
X231373590Y-134504962D01*
X231365078Y-134506258D01*
X231357300Y-134507796D01*
X231350152Y-134509588D01*
X231343529Y-134511646D01*
X231337325Y-134513980D01*
X231331435Y-134516603D01*
X231325754Y-134519526D01*
X231320176Y-134522760D01*
X231314597Y-134526318D01*
X231308911Y-134530210D01*
X231306681Y-134531866D01*
X231304485Y-134533634D01*
X231300211Y-134537493D01*
X231296105Y-134541762D01*
X231292188Y-134546417D01*
X231288477Y-134551435D01*
X231284991Y-134556792D01*
X231281748Y-134562465D01*
X231278768Y-134568429D01*
X231276069Y-134574661D01*
X231273670Y-134581137D01*
X231271588Y-134587833D01*
X231269843Y-134594727D01*
X231268454Y-134601793D01*
X231267439Y-134609009D01*
X231266816Y-134616350D01*
X231266604Y-134623793D01*
X231150082Y-134623793D01*
X231150528Y-134607283D01*
X231151822Y-134591613D01*
X231153905Y-134576759D01*
X231156712Y-134562700D01*
X231160183Y-134549414D01*
X231164255Y-134536878D01*
X231168866Y-134525070D01*
X231173954Y-134513968D01*
X231179457Y-134503549D01*
X231185312Y-134493792D01*
X231191459Y-134484675D01*
X231197833Y-134476174D01*
X231204375Y-134468268D01*
X231211020Y-134460935D01*
X231217708Y-134454152D01*
X231224377Y-134447898D01*
X231233594Y-134439854D01*
X231242898Y-134432412D01*
X231252401Y-134425561D01*
X231262219Y-134419289D01*
X231272464Y-134413586D01*
X231283251Y-134408438D01*
X231294694Y-134403836D01*
X231306907Y-134399767D01*
X231320003Y-134396220D01*
X231334097Y-134393183D01*
X231349303Y-134390644D01*
X231365734Y-134388593D01*
X231383504Y-134387018D01*
X231402728Y-134385908D01*
X231423519Y-134385249D01*
X231445991Y-134385033D01*
X231468661Y-134385249D01*
G37*
G36*
X232490160Y-132472474D02*
G01*
X232499366Y-132473133D01*
X232508411Y-132474224D01*
X232517287Y-132475746D01*
X232525983Y-132477694D01*
X232534491Y-132480064D01*
X232542800Y-132482851D01*
X232550901Y-132486053D01*
X232558784Y-132489665D01*
X232566439Y-132493682D01*
X232573858Y-132498102D01*
X232581030Y-132502919D01*
X232587946Y-132508131D01*
X232594596Y-132513733D01*
X232600970Y-132519720D01*
X232607060Y-132526090D01*
X232612855Y-132532838D01*
X232618345Y-132539960D01*
X232623522Y-132547453D01*
X232628376Y-132555311D01*
X232632896Y-132563532D01*
X232637074Y-132572111D01*
X232640899Y-132581044D01*
X232644362Y-132590327D01*
X232647454Y-132599956D01*
X232650165Y-132609928D01*
X232652485Y-132620238D01*
X232654405Y-132630883D01*
X232655915Y-132641858D01*
X232657006Y-132653159D01*
X232657667Y-132664782D01*
X232657890Y-132676724D01*
X232657675Y-132691053D01*
X232657027Y-132704506D01*
X232655941Y-132717116D01*
X232654412Y-132728917D01*
X232652435Y-132739941D01*
X232650004Y-132750222D01*
X232647114Y-132759794D01*
X232643761Y-132768690D01*
X232639939Y-132776943D01*
X232635643Y-132784586D01*
X232630868Y-132791654D01*
X232625609Y-132798179D01*
X232619860Y-132804195D01*
X232613618Y-132809734D01*
X232606875Y-132814832D01*
X232599628Y-132819520D01*
X232599628Y-132821822D01*
X232651063Y-132821822D01*
X232651063Y-132821901D01*
X232651063Y-132938424D01*
X232255775Y-132938424D01*
X232242664Y-132938137D01*
X232230100Y-132937285D01*
X232218074Y-132935877D01*
X232206578Y-132933922D01*
X232195603Y-132931431D01*
X232185140Y-132928414D01*
X232175181Y-132924879D01*
X232165718Y-132920838D01*
X232156741Y-132916300D01*
X232148243Y-132911274D01*
X232140215Y-132905772D01*
X232132647Y-132899801D01*
X232125533Y-132893373D01*
X232118862Y-132886497D01*
X232112626Y-132879183D01*
X232106818Y-132871441D01*
X232101428Y-132863280D01*
X232096448Y-132854711D01*
X232091869Y-132845744D01*
X232087682Y-132836387D01*
X232083880Y-132826652D01*
X232080453Y-132816547D01*
X232077394Y-132806083D01*
X232074692Y-132795269D01*
X232072341Y-132784116D01*
X232070331Y-132772633D01*
X232067300Y-132748718D01*
X232065532Y-132723601D01*
X232064958Y-132697362D01*
X232065228Y-132681347D01*
X232066057Y-132665863D01*
X232067467Y-132650905D01*
X232069482Y-132636467D01*
X232072126Y-132622546D01*
X232075422Y-132609135D01*
X232079395Y-132596230D01*
X232084067Y-132583826D01*
X232089463Y-132571917D01*
X232095607Y-132560499D01*
X232102522Y-132549568D01*
X232110231Y-132539116D01*
X232118759Y-132529141D01*
X232128130Y-132519637D01*
X232138366Y-132510598D01*
X232149492Y-132502020D01*
X232219184Y-132593380D01*
X232216144Y-132595332D01*
X232213228Y-132597335D01*
X232210435Y-132599393D01*
X232207764Y-132601512D01*
X232205211Y-132603696D01*
X232202776Y-132605948D01*
X232200456Y-132608273D01*
X232198250Y-132610677D01*
X232196155Y-132613162D01*
X232194171Y-132615734D01*
X232192294Y-132618397D01*
X232190524Y-132621154D01*
X232188858Y-132624012D01*
X232187294Y-132626974D01*
X232185831Y-132630044D01*
X232184467Y-132633227D01*
X232183200Y-132636527D01*
X232182028Y-132639948D01*
X232180949Y-132643496D01*
X232179962Y-132647174D01*
X232179065Y-132650987D01*
X232178255Y-132654939D01*
X232177531Y-132659034D01*
X232176891Y-132663278D01*
X232175855Y-132672226D01*
X232175134Y-132681818D01*
X232174712Y-132692090D01*
X232174575Y-132703077D01*
X232174807Y-132718159D01*
X232175518Y-132732134D01*
X232176731Y-132745021D01*
X232178471Y-132756837D01*
X232180759Y-132767602D01*
X232183621Y-132777334D01*
X232187078Y-132786051D01*
X232189037Y-132790035D01*
X232191155Y-132793772D01*
X232193433Y-132797265D01*
X232195874Y-132800516D01*
X232198482Y-132803527D01*
X232201260Y-132806301D01*
X232204209Y-132808839D01*
X232207335Y-132811144D01*
X232210638Y-132813219D01*
X232214123Y-132815066D01*
X232217791Y-132816687D01*
X232221647Y-132818084D01*
X232225692Y-132819260D01*
X232229930Y-132820217D01*
X232234364Y-132820957D01*
X232238997Y-132821483D01*
X232248870Y-132821901D01*
X232309433Y-132821901D01*
X232309433Y-132682518D01*
X232405397Y-132682518D01*
X232405397Y-132821901D01*
X232447704Y-132821901D01*
X232455940Y-132821803D01*
X232463719Y-132821506D01*
X232471055Y-132821003D01*
X232477959Y-132820289D01*
X232484446Y-132819359D01*
X232490527Y-132818206D01*
X232496216Y-132816825D01*
X232501525Y-132815211D01*
X232506467Y-132813358D01*
X232511055Y-132811259D01*
X232515301Y-132808910D01*
X232519219Y-132806305D01*
X232522822Y-132803437D01*
X232526121Y-132800302D01*
X232529130Y-132796894D01*
X232531861Y-132793207D01*
X232534328Y-132789235D01*
X232536543Y-132784973D01*
X232538519Y-132780415D01*
X232540269Y-132775555D01*
X232541805Y-132770388D01*
X232543140Y-132764908D01*
X232544288Y-132759109D01*
X232545260Y-132752986D01*
X232546731Y-132739745D01*
X232547655Y-132725138D01*
X232548135Y-132709120D01*
X232548272Y-132691647D01*
X232547877Y-132677426D01*
X232546723Y-132664303D01*
X232544851Y-132652255D01*
X232542307Y-132641255D01*
X232540797Y-132636140D01*
X232539134Y-132631278D01*
X232537325Y-132626666D01*
X232535375Y-132622301D01*
X232533290Y-132618178D01*
X232531074Y-132614297D01*
X232528734Y-132610652D01*
X232526275Y-132607241D01*
X232523702Y-132604061D01*
X232521021Y-132601110D01*
X232518237Y-132598382D01*
X232515355Y-132595876D01*
X232512382Y-132593589D01*
X232509322Y-132591517D01*
X232506181Y-132589657D01*
X232502965Y-132588006D01*
X232496327Y-132585319D01*
X232489453Y-132583431D01*
X232482385Y-132582316D01*
X232475167Y-132581950D01*
X232471245Y-132582044D01*
X232467412Y-132582326D01*
X232463670Y-132582798D01*
X232460023Y-132583459D01*
X232456471Y-132584311D01*
X232453018Y-132585354D01*
X232449666Y-132586591D01*
X232446417Y-132588020D01*
X232443274Y-132589644D01*
X232440238Y-132591462D01*
X232437313Y-132593477D01*
X232434500Y-132595688D01*
X232431801Y-132598097D01*
X232429220Y-132600704D01*
X232426758Y-132603510D01*
X232424417Y-132606517D01*
X232422200Y-132609724D01*
X232420110Y-132613133D01*
X232418148Y-132616745D01*
X232416318Y-132620560D01*
X232414620Y-132624580D01*
X232413058Y-132628804D01*
X232411633Y-132633235D01*
X232410349Y-132637872D01*
X232409207Y-132642718D01*
X232408210Y-132647771D01*
X232407360Y-132653034D01*
X232406660Y-132658507D01*
X232406111Y-132664191D01*
X232405716Y-132670087D01*
X232405477Y-132676196D01*
X232405397Y-132682518D01*
X232309433Y-132682518D01*
X232309433Y-132660770D01*
X232309662Y-132649272D01*
X232310342Y-132638129D01*
X232311460Y-132627343D01*
X232313004Y-132616913D01*
X232314963Y-132606841D01*
X232317324Y-132597126D01*
X232320076Y-132587771D01*
X232323206Y-132578774D01*
X232326703Y-132570138D01*
X232330554Y-132561861D01*
X232334749Y-132553946D01*
X232339274Y-132546393D01*
X232344117Y-132539202D01*
X232349268Y-132532374D01*
X232354713Y-132525910D01*
X232360441Y-132519810D01*
X232366441Y-132514074D01*
X232372699Y-132508705D01*
X232379204Y-132503701D01*
X232385944Y-132499064D01*
X232392907Y-132494795D01*
X232400081Y-132490893D01*
X232407455Y-132487360D01*
X232415016Y-132484196D01*
X232422751Y-132481403D01*
X232430651Y-132478979D01*
X232438701Y-132476927D01*
X232446891Y-132475246D01*
X232455208Y-132473938D01*
X232463640Y-132473003D01*
X232472176Y-132472441D01*
X232475167Y-132472377D01*
X232480804Y-132472254D01*
X232490160Y-132472474D01*
G37*
G36*
X232490160Y-134814037D02*
G01*
X232499366Y-134814695D01*
X232508411Y-134815787D01*
X232517287Y-134817309D01*
X232525983Y-134819257D01*
X232534491Y-134821627D01*
X232542800Y-134824415D01*
X232550901Y-134827617D01*
X232558784Y-134831229D01*
X232566439Y-134835247D01*
X232573858Y-134839667D01*
X232581030Y-134844486D01*
X232587946Y-134849699D01*
X232594596Y-134855302D01*
X232600970Y-134861291D01*
X232607060Y-134867663D01*
X232612855Y-134874413D01*
X232618345Y-134881537D01*
X232623522Y-134889032D01*
X232628376Y-134896893D01*
X232632896Y-134905117D01*
X232637074Y-134913699D01*
X232640899Y-134922636D01*
X232644362Y-134931923D01*
X232647454Y-134941557D01*
X232650165Y-134951533D01*
X232652485Y-134961849D01*
X232654405Y-134972499D01*
X232655915Y-134983479D01*
X232657006Y-134994787D01*
X232657667Y-135006417D01*
X232657890Y-135018366D01*
X232657675Y-135032695D01*
X232657027Y-135046148D01*
X232655941Y-135058759D01*
X232654412Y-135070560D01*
X232652435Y-135081585D01*
X232650004Y-135091868D01*
X232647114Y-135101443D01*
X232643761Y-135110342D01*
X232639939Y-135118599D01*
X232635643Y-135126248D01*
X232630868Y-135133322D01*
X232625609Y-135139854D01*
X232619860Y-135145879D01*
X232613618Y-135151429D01*
X232606875Y-135156539D01*
X232599628Y-135161241D01*
X232599628Y-135163463D01*
X232651063Y-135163463D01*
X232651063Y-135163543D01*
X232651063Y-135280065D01*
X232255775Y-135280065D01*
X232242664Y-135279779D01*
X232230100Y-135278927D01*
X232218074Y-135277519D01*
X232206578Y-135275564D01*
X232195603Y-135273073D01*
X232185140Y-135270056D01*
X232175181Y-135266521D01*
X232165718Y-135262480D01*
X232156741Y-135257942D01*
X232148243Y-135252916D01*
X232140215Y-135247414D01*
X232132647Y-135241443D01*
X232125533Y-135235015D01*
X232118862Y-135228139D01*
X232112626Y-135220825D01*
X232106818Y-135213083D01*
X232101428Y-135204922D01*
X232096448Y-135196353D01*
X232091869Y-135187385D01*
X232087682Y-135178029D01*
X232083880Y-135168293D01*
X232080453Y-135158189D01*
X232077394Y-135147725D01*
X232074692Y-135136911D01*
X232072341Y-135125758D01*
X232070331Y-135114275D01*
X232067300Y-135090360D01*
X232065532Y-135065243D01*
X232064958Y-135039003D01*
X232065228Y-135022989D01*
X232066057Y-135007505D01*
X232067467Y-134992546D01*
X232069482Y-134978108D01*
X232072126Y-134964185D01*
X232075422Y-134950773D01*
X232079395Y-134937865D01*
X232084067Y-134925457D01*
X232089463Y-134913545D01*
X232095607Y-134902122D01*
X232102522Y-134891184D01*
X232110231Y-134880725D01*
X232118759Y-134870740D01*
X232128130Y-134861225D01*
X232138366Y-134852174D01*
X232149492Y-134843582D01*
X232219184Y-134935022D01*
X232216144Y-134936974D01*
X232213228Y-134938976D01*
X232210435Y-134941033D01*
X232207764Y-134943151D01*
X232205211Y-134945332D01*
X232202776Y-134947582D01*
X232200456Y-134949905D01*
X232198250Y-134952306D01*
X232196155Y-134954789D01*
X232194171Y-134957357D01*
X232192294Y-134960017D01*
X232190524Y-134962771D01*
X232188858Y-134965625D01*
X232187294Y-134968583D01*
X232185831Y-134971650D01*
X232184467Y-134974829D01*
X232183200Y-134978125D01*
X232182028Y-134981543D01*
X232180949Y-134985087D01*
X232179962Y-134988762D01*
X232179065Y-134992571D01*
X232178255Y-134996519D01*
X232177531Y-135000612D01*
X232176891Y-135004852D01*
X232175855Y-135013795D01*
X232175134Y-135023384D01*
X232174712Y-135033653D01*
X232174575Y-135044639D01*
X232174807Y-135059721D01*
X232175518Y-135073696D01*
X232176731Y-135086583D01*
X232178471Y-135098400D01*
X232180759Y-135109165D01*
X232183621Y-135118896D01*
X232187078Y-135127614D01*
X232189037Y-135131598D01*
X232191155Y-135135335D01*
X232193433Y-135138828D01*
X232195874Y-135142079D01*
X232198482Y-135145090D01*
X232201260Y-135147863D01*
X232204209Y-135150401D01*
X232207335Y-135152707D01*
X232210638Y-135154782D01*
X232214123Y-135156629D01*
X232217791Y-135158249D01*
X232221647Y-135159647D01*
X232225692Y-135160822D01*
X232229930Y-135161779D01*
X232234364Y-135162520D01*
X232238997Y-135163046D01*
X232248870Y-135163463D01*
X232309433Y-135163463D01*
X232309433Y-135024160D01*
X232405397Y-135024160D01*
X232405397Y-135163543D01*
X232447704Y-135163543D01*
X232455940Y-135163445D01*
X232463719Y-135163147D01*
X232471055Y-135162645D01*
X232477959Y-135161931D01*
X232484446Y-135161001D01*
X232490527Y-135159848D01*
X232496216Y-135158467D01*
X232501525Y-135156853D01*
X232506467Y-135155000D01*
X232511055Y-135152901D01*
X232515301Y-135150552D01*
X232519219Y-135147947D01*
X232522822Y-135145079D01*
X232526121Y-135141944D01*
X232529130Y-135138536D01*
X232531861Y-135134849D01*
X232534328Y-135130877D01*
X232536543Y-135126615D01*
X232538519Y-135122057D01*
X232540269Y-135117197D01*
X232541805Y-135112030D01*
X232543140Y-135106550D01*
X232544288Y-135100751D01*
X232545260Y-135094628D01*
X232546731Y-135081386D01*
X232547655Y-135066779D01*
X232548135Y-135050762D01*
X232548272Y-135033289D01*
X232547877Y-135019068D01*
X232546723Y-135005945D01*
X232544851Y-134993897D01*
X232542307Y-134982897D01*
X232540797Y-134977782D01*
X232539134Y-134972920D01*
X232537325Y-134968308D01*
X232535375Y-134963942D01*
X232533290Y-134959820D01*
X232531074Y-134955938D01*
X232528734Y-134952294D01*
X232526275Y-134948883D01*
X232523702Y-134945703D01*
X232521021Y-134942751D01*
X232518237Y-134940024D01*
X232515355Y-134937518D01*
X232512382Y-134935231D01*
X232509322Y-134933159D01*
X232506181Y-134931299D01*
X232502965Y-134929648D01*
X232496327Y-134926961D01*
X232489453Y-134925073D01*
X232482385Y-134923958D01*
X232475167Y-134923592D01*
X232471245Y-134923686D01*
X232467412Y-134923968D01*
X232463670Y-134924439D01*
X232460023Y-134925101D01*
X232456471Y-134925953D01*
X232453018Y-134926996D01*
X232449666Y-134928232D01*
X232446417Y-134929662D01*
X232443274Y-134931285D01*
X232440238Y-134933104D01*
X232437313Y-134935119D01*
X232434500Y-134937330D01*
X232431801Y-134939739D01*
X232429220Y-134942346D01*
X232426758Y-134945152D01*
X232424417Y-134948159D01*
X232422200Y-134951366D01*
X232420110Y-134954775D01*
X232418148Y-134958387D01*
X232416318Y-134962202D01*
X232414620Y-134966222D01*
X232413058Y-134970446D01*
X232411633Y-134974877D01*
X232410349Y-134979514D01*
X232409207Y-134984359D01*
X232408210Y-134989413D01*
X232407360Y-134994676D01*
X232406660Y-135000149D01*
X232406111Y-135005833D01*
X232405716Y-135011729D01*
X232405477Y-135017838D01*
X232405397Y-135024160D01*
X232309433Y-135024160D01*
X232309433Y-135002332D01*
X232309662Y-134990841D01*
X232310342Y-134979705D01*
X232311460Y-134968924D01*
X232313004Y-134958498D01*
X232314963Y-134948430D01*
X232317324Y-134938718D01*
X232320076Y-134929365D01*
X232323206Y-134920370D01*
X232326703Y-134911735D01*
X232330554Y-134903459D01*
X232334749Y-134895544D01*
X232339274Y-134887990D01*
X232344117Y-134880799D01*
X232349268Y-134873970D01*
X232354713Y-134867504D01*
X232360441Y-134861402D01*
X232366441Y-134855665D01*
X232372699Y-134850293D01*
X232379204Y-134845287D01*
X232385944Y-134840648D01*
X232392907Y-134836376D01*
X232400081Y-134832472D01*
X232407455Y-134828936D01*
X232415016Y-134825770D01*
X232422751Y-134822974D01*
X232430651Y-134820549D01*
X232438701Y-134818494D01*
X232446891Y-134816812D01*
X232455208Y-134815503D01*
X232463640Y-134814566D01*
X232472176Y-134814004D01*
X232475167Y-134813939D01*
X232480804Y-134813817D01*
X232490160Y-134814037D01*
G37*
G36*
X231639031Y-133824090D02*
G01*
X231651684Y-133838166D01*
X231663508Y-133852527D01*
X231674506Y-133867166D01*
X231684679Y-133882073D01*
X231694029Y-133897241D01*
X231702558Y-133912661D01*
X231710266Y-133928325D01*
X231717156Y-133944224D01*
X231723229Y-133960350D01*
X231728488Y-133976694D01*
X231732933Y-133993249D01*
X231736566Y-134010006D01*
X231739389Y-134026956D01*
X231741403Y-134044091D01*
X231742610Y-134061403D01*
X231743012Y-134078884D01*
X231742254Y-134103789D01*
X231739995Y-134127890D01*
X231736260Y-134151076D01*
X231731075Y-134173236D01*
X231724465Y-134194259D01*
X231716454Y-134214034D01*
X231707067Y-134232452D01*
X231701866Y-134241117D01*
X231696330Y-134249401D01*
X231690463Y-134257290D01*
X231684267Y-134264770D01*
X231677747Y-134271828D01*
X231670904Y-134278450D01*
X231663743Y-134284621D01*
X231656266Y-134290328D01*
X231648476Y-134295558D01*
X231640377Y-134300295D01*
X231631971Y-134304527D01*
X231623262Y-134308240D01*
X231614253Y-134311420D01*
X231604947Y-134314052D01*
X231595347Y-134316124D01*
X231585457Y-134317620D01*
X231575278Y-134318529D01*
X231564815Y-134318834D01*
X231547714Y-134318267D01*
X231531132Y-134316540D01*
X231515137Y-134313619D01*
X231507380Y-134311699D01*
X231499795Y-134309468D01*
X231492390Y-134306920D01*
X231485174Y-134304052D01*
X231478155Y-134300859D01*
X231471341Y-134297336D01*
X231464741Y-134293479D01*
X231458363Y-134289284D01*
X231452216Y-134284746D01*
X231446308Y-134279861D01*
X231440648Y-134274624D01*
X231435243Y-134269032D01*
X231430103Y-134263079D01*
X231425235Y-134256760D01*
X231420648Y-134250073D01*
X231416350Y-134243012D01*
X231412351Y-134235573D01*
X231408657Y-134227751D01*
X231405279Y-134219543D01*
X231402223Y-134210943D01*
X231399499Y-134201947D01*
X231397114Y-134192551D01*
X231395078Y-134182750D01*
X231393398Y-134172541D01*
X231392084Y-134161918D01*
X231391143Y-134150877D01*
X231384317Y-134054913D01*
X231383217Y-134044452D01*
X231381667Y-134034897D01*
X231379695Y-134026216D01*
X231377332Y-134018378D01*
X231374607Y-134011349D01*
X231373120Y-134008129D01*
X231371553Y-134005099D01*
X231369911Y-134002255D01*
X231368197Y-133999595D01*
X231366417Y-133997113D01*
X231364572Y-133994806D01*
X231362667Y-133992669D01*
X231360707Y-133990699D01*
X231356631Y-133987244D01*
X231352377Y-133984407D01*
X231347973Y-133982158D01*
X231343450Y-133980464D01*
X231338838Y-133979293D01*
X231334167Y-133978614D01*
X231329469Y-133978395D01*
X231325756Y-133978469D01*
X231322106Y-133978696D01*
X231318524Y-133979078D01*
X231315011Y-133979621D01*
X231311572Y-133980329D01*
X231308211Y-133981206D01*
X231304931Y-133982257D01*
X231301736Y-133983486D01*
X231298629Y-133984897D01*
X231295613Y-133986496D01*
X231292693Y-133988285D01*
X231289872Y-133990270D01*
X231287154Y-133992455D01*
X231284542Y-133994844D01*
X231282040Y-133997442D01*
X231279651Y-134000253D01*
X231277379Y-134003281D01*
X231275228Y-134006531D01*
X231273200Y-134010008D01*
X231271301Y-134013714D01*
X231269533Y-134017656D01*
X231267899Y-134021837D01*
X231266405Y-134026262D01*
X231265052Y-134030935D01*
X231263845Y-134035860D01*
X231262787Y-134041042D01*
X231261883Y-134046485D01*
X231261134Y-134052194D01*
X231260546Y-134058173D01*
X231260121Y-134064426D01*
X231259864Y-134070958D01*
X231259777Y-134077772D01*
X231260029Y-134089376D01*
X231260774Y-134100627D01*
X231261995Y-134111548D01*
X231263674Y-134122159D01*
X231265795Y-134132482D01*
X231268342Y-134142539D01*
X231271295Y-134152351D01*
X231274640Y-134161939D01*
X231278359Y-134171326D01*
X231282435Y-134180533D01*
X231286851Y-134189580D01*
X231291589Y-134198490D01*
X231296634Y-134207285D01*
X231301968Y-134215985D01*
X231307574Y-134224612D01*
X231313435Y-134233188D01*
X231228980Y-134305102D01*
X231220180Y-134294248D01*
X231211802Y-134283096D01*
X231203866Y-134271614D01*
X231196393Y-134259769D01*
X231189401Y-134247530D01*
X231182912Y-134234864D01*
X231176946Y-134221740D01*
X231171522Y-134208126D01*
X231166661Y-134193988D01*
X231162383Y-134179296D01*
X231158708Y-134164016D01*
X231155656Y-134148118D01*
X231153247Y-134131569D01*
X231151502Y-134114336D01*
X231150440Y-134096388D01*
X231150081Y-134077693D01*
X231150790Y-134055124D01*
X231152913Y-134033320D01*
X231156446Y-134012377D01*
X231161382Y-133992389D01*
X231167718Y-133973453D01*
X231171408Y-133964409D01*
X231175447Y-133955663D01*
X231179833Y-133947228D01*
X231184565Y-133939115D01*
X231189643Y-133931336D01*
X231195067Y-133923904D01*
X231200835Y-133916829D01*
X231206947Y-133910125D01*
X231213403Y-133903803D01*
X231220201Y-133897874D01*
X231227341Y-133892352D01*
X231234823Y-133887247D01*
X231242645Y-133882571D01*
X231250808Y-133878338D01*
X231259310Y-133874557D01*
X231268151Y-133871242D01*
X231277330Y-133868405D01*
X231286847Y-133866056D01*
X231296701Y-133864209D01*
X231306891Y-133862875D01*
X231317417Y-133862065D01*
X231328278Y-133861793D01*
X231337471Y-133861999D01*
X231346415Y-133862611D01*
X231355109Y-133863622D01*
X231363552Y-133865023D01*
X231371742Y-133866804D01*
X231379679Y-133868959D01*
X231387360Y-133871479D01*
X231394786Y-133874355D01*
X231401953Y-133877579D01*
X231408862Y-133881143D01*
X231415511Y-133885038D01*
X231421899Y-133889256D01*
X231428024Y-133893788D01*
X231433885Y-133898627D01*
X231439481Y-133903764D01*
X231444810Y-133909190D01*
X231449872Y-133914897D01*
X231454665Y-133920877D01*
X231459188Y-133927121D01*
X231463439Y-133933622D01*
X231467418Y-133940370D01*
X231471123Y-133947358D01*
X231474552Y-133954576D01*
X231477705Y-133962017D01*
X231480580Y-133969673D01*
X231483176Y-133977534D01*
X231485492Y-133985593D01*
X231487526Y-133993842D01*
X231490745Y-134010872D01*
X231492822Y-134028560D01*
X231501950Y-134131430D01*
X231502703Y-134138817D01*
X231503700Y-134145958D01*
X231504969Y-134152819D01*
X231506538Y-134159370D01*
X231508436Y-134165578D01*
X231510692Y-134171412D01*
X231513333Y-134176841D01*
X231514806Y-134179394D01*
X231516387Y-134181833D01*
X231518078Y-134184155D01*
X231519883Y-134186356D01*
X231521806Y-134188431D01*
X231523849Y-134190378D01*
X231526017Y-134192192D01*
X231528314Y-134193868D01*
X231530742Y-134195404D01*
X231533305Y-134196795D01*
X231536007Y-134198037D01*
X231538851Y-134199126D01*
X231541841Y-134200059D01*
X231544980Y-134200831D01*
X231548272Y-134201438D01*
X231551721Y-134201876D01*
X231555329Y-134202143D01*
X231559101Y-134202232D01*
X231563637Y-134202092D01*
X231568031Y-134201677D01*
X231572284Y-134200990D01*
X231576396Y-134200039D01*
X231580366Y-134198828D01*
X231584195Y-134197364D01*
X231587881Y-134195650D01*
X231591425Y-134193693D01*
X231594827Y-134191499D01*
X231598085Y-134189072D01*
X231601202Y-134186418D01*
X231604175Y-134183543D01*
X231607005Y-134180451D01*
X231609691Y-134177150D01*
X231612234Y-134173643D01*
X231614633Y-134169936D01*
X231616889Y-134166036D01*
X231619000Y-134161947D01*
X231620967Y-134157674D01*
X231622789Y-134153224D01*
X231624467Y-134148601D01*
X231625999Y-134143811D01*
X231627387Y-134138860D01*
X231628629Y-134133753D01*
X231629726Y-134128495D01*
X231630678Y-134123092D01*
X231631483Y-134117549D01*
X231632142Y-134111873D01*
X231632656Y-134106067D01*
X231633022Y-134100138D01*
X231633243Y-134094091D01*
X231633316Y-134087932D01*
X231633022Y-134073625D01*
X231632142Y-134059828D01*
X231630678Y-134046512D01*
X231628629Y-134033652D01*
X231625999Y-134021221D01*
X231622789Y-134009192D01*
X231619000Y-133997538D01*
X231614633Y-133986233D01*
X231609691Y-133975250D01*
X231604175Y-133964561D01*
X231598085Y-133954142D01*
X231591425Y-133943963D01*
X231584195Y-133934000D01*
X231576396Y-133924225D01*
X231568031Y-133914611D01*
X231559101Y-133905132D01*
X231639031Y-133824010D01*
X231639031Y-133824090D01*
G37*
G36*
X231447103Y-131927583D02*
G01*
X232650983Y-131927583D01*
X232650983Y-132044105D01*
X232305940Y-132044105D01*
X232298641Y-132044251D01*
X232291539Y-132044685D01*
X232284637Y-132045399D01*
X232277936Y-132046388D01*
X232271439Y-132047645D01*
X232265149Y-132049164D01*
X232259067Y-132050939D01*
X232253195Y-132052962D01*
X232247537Y-132055227D01*
X232242094Y-132057729D01*
X232236868Y-132060460D01*
X232231863Y-132063414D01*
X232227079Y-132066585D01*
X232222520Y-132069966D01*
X232218187Y-132073551D01*
X232214083Y-132077334D01*
X232210211Y-132081307D01*
X232206571Y-132085465D01*
X232203168Y-132089800D01*
X232200002Y-132094308D01*
X232197077Y-132098980D01*
X232194394Y-132103811D01*
X232191956Y-132108795D01*
X232189765Y-132113924D01*
X232187823Y-132119193D01*
X232186133Y-132124595D01*
X232184696Y-132130123D01*
X232183516Y-132135772D01*
X232182594Y-132141534D01*
X232181933Y-132147403D01*
X232181534Y-132153373D01*
X232181401Y-132159437D01*
X232181534Y-132165499D01*
X232181933Y-132171460D01*
X232182594Y-132177315D01*
X232183516Y-132183059D01*
X232184696Y-132188684D01*
X232186133Y-132194184D01*
X232187823Y-132199555D01*
X232189765Y-132204789D01*
X232191956Y-132209881D01*
X232194394Y-132214824D01*
X232197077Y-132219612D01*
X232200002Y-132224240D01*
X232203168Y-132228702D01*
X232206571Y-132232990D01*
X232210211Y-132237100D01*
X232214083Y-132241025D01*
X232218187Y-132244759D01*
X232222520Y-132248296D01*
X232227079Y-132251630D01*
X232231863Y-132254755D01*
X232236868Y-132257664D01*
X232242094Y-132260353D01*
X232247537Y-132262814D01*
X232253195Y-132265042D01*
X232259067Y-132267030D01*
X232265149Y-132268773D01*
X232271439Y-132270265D01*
X232277936Y-132271499D01*
X232284637Y-132272469D01*
X232291539Y-132273170D01*
X232298641Y-132273594D01*
X232305940Y-132273737D01*
X232650983Y-132273737D01*
X232650983Y-132390260D01*
X232265935Y-132390260D01*
X232253801Y-132389962D01*
X232242029Y-132389083D01*
X232230622Y-132387644D01*
X232219580Y-132385667D01*
X232208906Y-132383171D01*
X232198600Y-132380179D01*
X232188664Y-132376711D01*
X232179100Y-132372789D01*
X232169910Y-132368433D01*
X232161093Y-132363665D01*
X232152653Y-132358506D01*
X232144591Y-132352977D01*
X232136907Y-132347099D01*
X232129604Y-132340893D01*
X232122683Y-132334381D01*
X232116145Y-132327583D01*
X232109992Y-132320521D01*
X232104225Y-132313216D01*
X232098846Y-132305688D01*
X232093857Y-132297959D01*
X232089258Y-132290051D01*
X232085051Y-132281983D01*
X232081238Y-132273778D01*
X232077820Y-132265456D01*
X232074799Y-132257039D01*
X232072176Y-132248548D01*
X232069952Y-132240003D01*
X232068129Y-132231426D01*
X232066709Y-132222838D01*
X232065693Y-132214260D01*
X232065082Y-132205714D01*
X232064878Y-132197220D01*
X232065147Y-132185764D01*
X232065953Y-132174529D01*
X232067296Y-132163521D01*
X232069176Y-132152747D01*
X232071592Y-132142215D01*
X232074543Y-132131930D01*
X232078031Y-132121899D01*
X232082053Y-132112130D01*
X232086610Y-132102628D01*
X232091702Y-132093401D01*
X232097328Y-132084456D01*
X232103488Y-132075798D01*
X232110181Y-132067436D01*
X232117408Y-132059375D01*
X232125167Y-132051622D01*
X232133458Y-132044185D01*
X231674433Y-132044582D01*
X231681992Y-132052765D01*
X231689207Y-132061041D01*
X231696059Y-132069425D01*
X231702528Y-132077929D01*
X231708593Y-132086567D01*
X231714235Y-132095353D01*
X231719435Y-132104299D01*
X231724171Y-132113420D01*
X231728425Y-132122728D01*
X231732176Y-132132238D01*
X231735404Y-132141963D01*
X231738090Y-132151917D01*
X231740214Y-132162112D01*
X231741756Y-132172562D01*
X231742695Y-132183281D01*
X231743013Y-132194283D01*
X231742920Y-132200864D01*
X231742643Y-132207333D01*
X231742186Y-132213688D01*
X231741554Y-132219931D01*
X231740748Y-132226062D01*
X231739775Y-132232081D01*
X231738636Y-132237987D01*
X231737336Y-132243782D01*
X231735879Y-132249465D01*
X231734269Y-132255036D01*
X231732508Y-132260496D01*
X231730602Y-132265845D01*
X231728553Y-132271082D01*
X231726366Y-132276209D01*
X231721591Y-132286130D01*
X231716308Y-132295609D01*
X231710546Y-132304648D01*
X231704335Y-132313247D01*
X231697706Y-132321408D01*
X231690688Y-132329133D01*
X231683312Y-132336422D01*
X231675608Y-132343277D01*
X231667606Y-132349699D01*
X231659937Y-132355432D01*
X231652210Y-132360650D01*
X231644262Y-132365372D01*
X231635933Y-132369619D01*
X231627060Y-132373410D01*
X231617480Y-132376766D01*
X231607032Y-132379707D01*
X231595554Y-132382253D01*
X231582883Y-132384424D01*
X231568857Y-132386240D01*
X231553315Y-132387722D01*
X231536094Y-132388889D01*
X231495968Y-132390361D01*
X231447182Y-132390815D01*
X231421613Y-132390705D01*
X231398348Y-132390361D01*
X231377228Y-132389762D01*
X231358095Y-132388889D01*
X231340789Y-132387722D01*
X231325151Y-132386240D01*
X231311023Y-132384424D01*
X231298245Y-132382253D01*
X231286659Y-132379707D01*
X231281263Y-132378287D01*
X231276105Y-132376766D01*
X231271166Y-132375141D01*
X231266425Y-132373410D01*
X231261863Y-132371570D01*
X231257460Y-132369619D01*
X231249050Y-132365372D01*
X231241038Y-132360650D01*
X231233263Y-132355432D01*
X231225567Y-132349699D01*
X231217565Y-132343264D01*
X231209861Y-132336399D01*
X231202486Y-132329103D01*
X231195468Y-132321375D01*
X231188839Y-132313212D01*
X231182628Y-132304613D01*
X231176866Y-132295576D01*
X231171582Y-132286100D01*
X231166808Y-132276183D01*
X231162572Y-132265824D01*
X231158905Y-132255020D01*
X231155837Y-132243771D01*
X231153399Y-132232074D01*
X231151620Y-132219928D01*
X231150531Y-132207332D01*
X231150161Y-132194283D01*
X231150478Y-132183206D01*
X231151416Y-132172282D01*
X231152952Y-132161527D01*
X231153497Y-132158802D01*
X231266604Y-132158802D01*
X231266869Y-132168785D01*
X231267653Y-132178176D01*
X231268938Y-132186994D01*
X231270707Y-132195256D01*
X231272944Y-132202981D01*
X231275630Y-132210187D01*
X231278749Y-132216892D01*
X231282283Y-132223113D01*
X231286216Y-132228869D01*
X231290530Y-132234178D01*
X231295208Y-132239057D01*
X231300233Y-132243526D01*
X231305588Y-132247600D01*
X231311254Y-132251299D01*
X231317217Y-132254641D01*
X231323457Y-132257644D01*
X231329958Y-132260325D01*
X231336703Y-132262703D01*
X231350855Y-132266621D01*
X231365776Y-132269540D01*
X231381329Y-132271607D01*
X231397375Y-132272963D01*
X231413778Y-132273754D01*
X231447103Y-132274214D01*
X231463794Y-132274123D01*
X231480381Y-132273754D01*
X231496729Y-132272963D01*
X231512704Y-132271607D01*
X231528172Y-132269540D01*
X231535674Y-132268196D01*
X231542999Y-132266621D01*
X231550131Y-132264795D01*
X231557051Y-132262703D01*
X231563745Y-132260325D01*
X231570194Y-132257644D01*
X231576382Y-132254641D01*
X231582293Y-132251299D01*
X231587909Y-132247600D01*
X231593213Y-132243526D01*
X231598190Y-132239057D01*
X231602822Y-132234178D01*
X231607093Y-132228869D01*
X231610985Y-132223113D01*
X231614482Y-132216892D01*
X231617567Y-132210187D01*
X231620224Y-132202981D01*
X231622435Y-132195256D01*
X231624184Y-132186994D01*
X231625454Y-132178176D01*
X231626229Y-132168785D01*
X231626490Y-132158802D01*
X231626216Y-132148921D01*
X231625405Y-132139624D01*
X231624076Y-132130895D01*
X231622250Y-132122715D01*
X231619944Y-132115067D01*
X231617180Y-132107932D01*
X231613975Y-132101294D01*
X231610349Y-132095134D01*
X231606321Y-132089434D01*
X231601911Y-132084177D01*
X231597138Y-132079344D01*
X231592020Y-132074919D01*
X231586578Y-132070883D01*
X231580831Y-132067219D01*
X231574798Y-132063908D01*
X231568497Y-132060933D01*
X231561949Y-132058276D01*
X231555172Y-132055920D01*
X231541011Y-132052037D01*
X231526167Y-132049142D01*
X231510795Y-132047092D01*
X231495049Y-132045745D01*
X231479082Y-132044960D01*
X231447103Y-132044502D01*
X231431145Y-132044581D01*
X231415077Y-132044914D01*
X231399055Y-132045650D01*
X231383237Y-132046936D01*
X231367781Y-132048918D01*
X231360238Y-132050216D01*
X231352843Y-132051744D01*
X231345618Y-132053519D01*
X231338582Y-132055561D01*
X231331754Y-132057887D01*
X231325153Y-132060516D01*
X231318801Y-132063467D01*
X231312716Y-132066757D01*
X231306918Y-132070406D01*
X231301426Y-132074431D01*
X231296261Y-132078851D01*
X231291442Y-132083684D01*
X231286988Y-132088949D01*
X231282920Y-132094665D01*
X231279256Y-132100849D01*
X231276018Y-132107520D01*
X231273223Y-132114696D01*
X231270893Y-132122396D01*
X231269046Y-132130638D01*
X231267703Y-132139441D01*
X231266882Y-132148823D01*
X231266604Y-132158802D01*
X231153497Y-132158802D01*
X231155065Y-132150957D01*
X231157733Y-132140588D01*
X231160935Y-132130438D01*
X231164649Y-132120523D01*
X231168854Y-132110860D01*
X231173527Y-132101464D01*
X231178648Y-132092353D01*
X231184194Y-132083542D01*
X231190144Y-132075049D01*
X231196476Y-132066890D01*
X231203169Y-132059082D01*
X231210201Y-132051640D01*
X231217550Y-132044582D01*
X231156987Y-132044582D01*
X231156987Y-131927583D01*
X231447103Y-131927583D01*
G37*
G36*
X229252824Y-131969842D02*
G01*
X229254054Y-131969934D01*
X229255277Y-131970085D01*
X229256493Y-131970294D01*
X229257699Y-131970559D01*
X229258894Y-131970878D01*
X229260076Y-131971251D01*
X229261242Y-131971675D01*
X229262391Y-131972150D01*
X229263522Y-131972673D01*
X229265719Y-131973859D01*
X229267819Y-131975221D01*
X229269807Y-131976747D01*
X229271669Y-131978424D01*
X229273389Y-131980241D01*
X229274954Y-131982185D01*
X229275673Y-131983201D01*
X229276348Y-131984244D01*
X229276977Y-131985313D01*
X229277557Y-131986406D01*
X229278088Y-131987521D01*
X229278566Y-131988658D01*
X229278992Y-131989814D01*
X229279361Y-131990989D01*
X229279674Y-131992180D01*
X229279927Y-131993386D01*
X229376209Y-132510672D01*
X229376461Y-132511888D01*
X229376770Y-132513106D01*
X229377548Y-132515544D01*
X229378531Y-132517972D01*
X229379704Y-132520372D01*
X229381053Y-132522731D01*
X229382563Y-132525031D01*
X229384221Y-132527258D01*
X229386012Y-132529395D01*
X229387922Y-132531427D01*
X229389937Y-132533339D01*
X229392043Y-132535113D01*
X229394225Y-132536736D01*
X229396469Y-132538191D01*
X229398762Y-132539462D01*
X229401089Y-132540534D01*
X229403435Y-132541391D01*
X229806819Y-132702919D01*
X229809111Y-132703922D01*
X229811538Y-132704759D01*
X229814080Y-132705431D01*
X229816716Y-132705940D01*
X229819424Y-132706287D01*
X229822183Y-132706474D01*
X229824973Y-132706501D01*
X229827774Y-132706372D01*
X229830562Y-132706085D01*
X229833319Y-132705644D01*
X229836023Y-132705050D01*
X229838653Y-132704303D01*
X229841188Y-132703405D01*
X229843607Y-132702359D01*
X229845890Y-132701164D01*
X229848014Y-132699823D01*
X230276163Y-132405977D01*
X230277199Y-132405311D01*
X230278265Y-132404697D01*
X230279359Y-132404134D01*
X230280480Y-132403623D01*
X230281624Y-132403163D01*
X230282789Y-132402755D01*
X230285175Y-132402090D01*
X230287616Y-132401627D01*
X230290096Y-132401364D01*
X230292595Y-132401300D01*
X230295094Y-132401433D01*
X230297574Y-132401761D01*
X230300017Y-132402282D01*
X230302404Y-132402996D01*
X230304716Y-132403901D01*
X230306933Y-132404994D01*
X230308001Y-132405611D01*
X230309038Y-132406274D01*
X230310042Y-132406984D01*
X230311011Y-132407740D01*
X230311943Y-132408542D01*
X230312834Y-132409390D01*
X230698755Y-132795391D01*
X230699603Y-132796282D01*
X230700405Y-132797213D01*
X230701161Y-132798182D01*
X230701871Y-132799187D01*
X230702535Y-132800224D01*
X230703152Y-132801291D01*
X230703722Y-132802387D01*
X230704245Y-132803509D01*
X230704721Y-132804654D01*
X230705149Y-132805821D01*
X230705863Y-132808207D01*
X230706385Y-132810650D01*
X230706713Y-132813131D01*
X230706846Y-132815630D01*
X230706781Y-132818129D01*
X230706519Y-132820608D01*
X230706055Y-132823050D01*
X230705748Y-132824251D01*
X230705391Y-132825435D01*
X230704982Y-132826601D01*
X230704522Y-132827745D01*
X230704011Y-132828865D01*
X230703449Y-132829960D01*
X230702835Y-132831026D01*
X230702169Y-132832062D01*
X230413482Y-133252670D01*
X230412177Y-133254790D01*
X230411031Y-133257059D01*
X230410045Y-133259456D01*
X230409219Y-133261962D01*
X230408555Y-133264554D01*
X230408053Y-133267214D01*
X230407714Y-133269920D01*
X230407538Y-133272652D01*
X230407528Y-133275390D01*
X230407683Y-133278113D01*
X230408004Y-133280801D01*
X230408492Y-133283433D01*
X230409148Y-133285988D01*
X230409973Y-133288447D01*
X230410968Y-133290788D01*
X230412132Y-133292992D01*
X230511192Y-133478492D01*
X230511725Y-133479599D01*
X230512194Y-133480715D01*
X230512599Y-133481839D01*
X230512941Y-133482969D01*
X230513222Y-133484103D01*
X230513440Y-133485238D01*
X230513598Y-133486374D01*
X230513696Y-133487507D01*
X230513735Y-133488636D01*
X230513716Y-133489759D01*
X230513638Y-133490875D01*
X230513504Y-133491980D01*
X230513314Y-133493073D01*
X230513068Y-133494152D01*
X230512767Y-133495216D01*
X230512413Y-133496262D01*
X230512005Y-133497288D01*
X230511544Y-133498292D01*
X230511032Y-133499273D01*
X230510469Y-133500228D01*
X230509855Y-133501155D01*
X230509192Y-133502053D01*
X230508481Y-133502919D01*
X230507721Y-133503752D01*
X230506914Y-133504549D01*
X230506060Y-133505309D01*
X230505160Y-133506029D01*
X230504215Y-133506708D01*
X230503226Y-133507344D01*
X230502194Y-133507934D01*
X230501118Y-133508478D01*
X230500000Y-133508972D01*
X229575837Y-133891400D01*
X229574689Y-133891847D01*
X229573523Y-133892235D01*
X229572342Y-133892565D01*
X229571147Y-133892837D01*
X229569941Y-133893053D01*
X229568726Y-133893213D01*
X229566279Y-133893369D01*
X229563823Y-133893310D01*
X229561375Y-133893043D01*
X229558955Y-133892573D01*
X229556579Y-133891906D01*
X229554265Y-133891049D01*
X229552032Y-133890007D01*
X229549896Y-133888787D01*
X229547876Y-133887393D01*
X229545990Y-133885833D01*
X229545102Y-133884992D01*
X229544255Y-133884111D01*
X229543449Y-133883192D01*
X229542688Y-133882234D01*
X229541974Y-133881240D01*
X229541309Y-133880208D01*
X229512893Y-133833774D01*
X229510762Y-133830425D01*
X229508334Y-133826852D01*
X229505660Y-133823121D01*
X229502792Y-133819298D01*
X229499784Y-133815449D01*
X229496686Y-133811640D01*
X229493550Y-133807936D01*
X229490430Y-133804405D01*
X229469395Y-133773677D01*
X229446557Y-133744352D01*
X229421996Y-133716509D01*
X229395790Y-133690229D01*
X229368020Y-133665592D01*
X229338765Y-133642677D01*
X229308104Y-133621565D01*
X229276117Y-133602336D01*
X229242884Y-133585070D01*
X229225825Y-133577197D01*
X229208484Y-133569846D01*
X229190872Y-133563025D01*
X229172997Y-133556745D01*
X229154870Y-133551015D01*
X229136502Y-133545846D01*
X229117901Y-133541248D01*
X229099078Y-133537230D01*
X229080043Y-133533803D01*
X229060806Y-133530977D01*
X229041376Y-133528761D01*
X229021764Y-133527166D01*
X229001980Y-133526202D01*
X228982033Y-133525878D01*
X228950971Y-133526664D01*
X228920316Y-133528995D01*
X228890108Y-133532834D01*
X228860384Y-133538142D01*
X228831181Y-133544883D01*
X228802538Y-133553017D01*
X228774493Y-133562508D01*
X228747083Y-133573316D01*
X228720347Y-133585404D01*
X228694322Y-133598735D01*
X228669046Y-133613269D01*
X228644558Y-133628970D01*
X228620895Y-133645799D01*
X228598094Y-133663718D01*
X228576195Y-133682690D01*
X228555234Y-133702676D01*
X228535250Y-133723639D01*
X228516280Y-133745540D01*
X228498363Y-133768341D01*
X228481537Y-133792005D01*
X228465838Y-133816494D01*
X228451306Y-133841770D01*
X228437978Y-133867794D01*
X228425892Y-133894529D01*
X228415086Y-133921937D01*
X228405598Y-133949980D01*
X228397465Y-133978620D01*
X228390727Y-134007819D01*
X228385419Y-134037539D01*
X228381581Y-134067742D01*
X228379251Y-134098390D01*
X228378466Y-134129446D01*
X228379251Y-134160501D01*
X228381582Y-134191150D01*
X228385421Y-134221353D01*
X228390730Y-134251073D01*
X228397470Y-134280272D01*
X228405605Y-134308912D01*
X228415095Y-134336954D01*
X228425903Y-134364362D01*
X228437992Y-134391098D01*
X228451322Y-134417122D01*
X228465857Y-134442397D01*
X228481557Y-134466886D01*
X228498387Y-134490550D01*
X228516306Y-134513352D01*
X228535277Y-134535253D01*
X228555264Y-134556216D01*
X228576226Y-134576202D01*
X228598127Y-134595173D01*
X228620929Y-134613093D01*
X228644593Y-134629922D01*
X228669082Y-134645622D01*
X228694357Y-134660157D01*
X228720382Y-134673487D01*
X228747117Y-134685576D01*
X228774525Y-134696384D01*
X228802568Y-134705874D01*
X228831207Y-134714009D01*
X228860406Y-134720749D01*
X228890126Y-134726058D01*
X228920329Y-134729897D01*
X228950978Y-134732228D01*
X228982033Y-134733013D01*
X229021765Y-134731725D01*
X229060809Y-134727915D01*
X229099085Y-134721662D01*
X229136513Y-134713046D01*
X229173013Y-134702147D01*
X229208505Y-134689046D01*
X229242910Y-134673822D01*
X229276147Y-134656556D01*
X229308137Y-134637326D01*
X229338800Y-134616214D01*
X229368055Y-134593300D01*
X229395824Y-134568663D01*
X229422025Y-134542383D01*
X229446580Y-134514540D01*
X229469408Y-134485215D01*
X229490430Y-134454487D01*
X229493550Y-134450982D01*
X229496686Y-134447298D01*
X229499784Y-134443503D01*
X229502793Y-134439663D01*
X229505660Y-134435846D01*
X229508334Y-134432118D01*
X229510762Y-134428546D01*
X229512893Y-134425197D01*
X229541309Y-134378763D01*
X229541981Y-134377731D01*
X229542702Y-134376737D01*
X229543468Y-134375779D01*
X229544277Y-134374860D01*
X229545129Y-134373980D01*
X229546019Y-134373139D01*
X229546947Y-134372338D01*
X229547910Y-134371578D01*
X229548905Y-134370860D01*
X229549931Y-134370184D01*
X229550986Y-134369552D01*
X229552067Y-134368964D01*
X229553172Y-134368420D01*
X229554298Y-134367922D01*
X229555445Y-134367470D01*
X229556609Y-134367065D01*
X229557788Y-134366707D01*
X229558981Y-134366398D01*
X229560184Y-134366139D01*
X229561396Y-134365929D01*
X229562615Y-134365769D01*
X229563839Y-134365661D01*
X229565064Y-134365606D01*
X229566290Y-134365603D01*
X229567514Y-134365653D01*
X229568733Y-134365758D01*
X229569946Y-134365918D01*
X229571150Y-134366134D01*
X229572344Y-134366407D01*
X229573524Y-134366736D01*
X229574689Y-134367124D01*
X229575837Y-134367571D01*
X230500000Y-134750000D01*
X230501118Y-134750494D01*
X230502194Y-134751037D01*
X230503226Y-134751627D01*
X230504215Y-134752263D01*
X230505160Y-134752942D01*
X230506060Y-134753663D01*
X230506914Y-134754423D01*
X230507721Y-134755220D01*
X230508481Y-134756052D01*
X230509192Y-134756919D01*
X230509855Y-134757816D01*
X230510469Y-134758744D01*
X230511032Y-134759699D01*
X230511544Y-134760679D01*
X230512005Y-134761684D01*
X230512413Y-134762710D01*
X230512767Y-134763755D01*
X230513068Y-134764819D01*
X230513314Y-134765898D01*
X230513504Y-134766992D01*
X230513638Y-134768097D01*
X230513716Y-134769212D01*
X230513735Y-134770335D01*
X230513696Y-134771464D01*
X230513598Y-134772598D01*
X230513440Y-134773733D01*
X230513222Y-134774868D01*
X230512941Y-134776002D01*
X230512599Y-134777132D01*
X230512194Y-134778256D01*
X230511725Y-134779373D01*
X230511192Y-134780480D01*
X230412132Y-134965979D01*
X230410981Y-134968183D01*
X230409996Y-134970524D01*
X230409178Y-134972983D01*
X230408526Y-134975539D01*
X230408039Y-134978170D01*
X230407718Y-134980858D01*
X230407561Y-134983581D01*
X230407568Y-134986319D01*
X230407739Y-134989051D01*
X230408074Y-134991757D01*
X230408571Y-134994417D01*
X230409230Y-134997009D01*
X230410051Y-134999515D01*
X230411034Y-135001912D01*
X230412178Y-135004181D01*
X230413482Y-135006301D01*
X230702169Y-135426910D01*
X230702835Y-135427945D01*
X230703449Y-135429011D01*
X230704011Y-135430106D01*
X230704522Y-135431226D01*
X230704982Y-135432370D01*
X230705391Y-135433536D01*
X230706055Y-135435920D01*
X230706518Y-135438361D01*
X230706781Y-135440838D01*
X230706845Y-135443335D01*
X230706713Y-135445831D01*
X230706385Y-135448307D01*
X230705863Y-135450745D01*
X230705149Y-135453125D01*
X230704245Y-135455429D01*
X230703152Y-135457637D01*
X230702535Y-135458700D01*
X230701871Y-135459732D01*
X230701161Y-135460730D01*
X230700405Y-135461693D01*
X230699603Y-135462617D01*
X230698755Y-135463501D01*
X230312834Y-135849502D01*
X230311943Y-135850350D01*
X230311010Y-135851153D01*
X230310040Y-135851910D01*
X230309035Y-135852621D01*
X230307996Y-135853286D01*
X230306926Y-135853905D01*
X230305828Y-135854477D01*
X230304704Y-135855002D01*
X230303557Y-135855481D01*
X230302388Y-135855911D01*
X230299996Y-135856630D01*
X230297549Y-135857157D01*
X230295064Y-135857489D01*
X230292562Y-135857625D01*
X230290061Y-135857563D01*
X230287581Y-135857300D01*
X230286355Y-135857093D01*
X230285141Y-135856835D01*
X230283942Y-135856527D01*
X230282760Y-135856166D01*
X230281598Y-135855755D01*
X230280457Y-135855291D01*
X230279341Y-135854776D01*
X230278252Y-135854208D01*
X230277192Y-135853588D01*
X230276163Y-135852915D01*
X229848014Y-135559069D01*
X229845890Y-135557755D01*
X229843607Y-135556582D01*
X229841188Y-135555553D01*
X229838653Y-135554668D01*
X229836023Y-135553931D01*
X229833319Y-135553343D01*
X229830562Y-135552905D01*
X229827774Y-135552620D01*
X229824973Y-135552489D01*
X229822183Y-135552514D01*
X229819424Y-135552698D01*
X229816716Y-135553041D01*
X229814080Y-135553546D01*
X229811538Y-135554215D01*
X229809111Y-135555050D01*
X229806819Y-135556052D01*
X229403435Y-135717580D01*
X229402260Y-135717981D01*
X229401089Y-135718436D01*
X229398762Y-135719506D01*
X229396469Y-135720773D01*
X229394225Y-135722224D01*
X229392043Y-135723841D01*
X229389937Y-135725611D01*
X229387922Y-135727518D01*
X229386012Y-135729546D01*
X229384221Y-135731680D01*
X229382563Y-135733905D01*
X229381053Y-135736205D01*
X229379704Y-135738565D01*
X229378531Y-135740970D01*
X229377548Y-135743404D01*
X229377133Y-135744627D01*
X229376770Y-135745852D01*
X229376461Y-135747076D01*
X229376209Y-135748298D01*
X229279927Y-136265585D01*
X229279674Y-136266791D01*
X229279361Y-136267981D01*
X229278992Y-136269154D01*
X229278566Y-136270309D01*
X229278088Y-136271444D01*
X229277557Y-136272558D01*
X229276977Y-136273648D01*
X229276348Y-136274714D01*
X229275673Y-136275755D01*
X229274954Y-136276767D01*
X229274192Y-136277751D01*
X229273389Y-136278705D01*
X229272547Y-136279626D01*
X229271669Y-136280514D01*
X229270755Y-136281368D01*
X229269807Y-136282184D01*
X229268828Y-136282963D01*
X229267819Y-136283703D01*
X229266782Y-136284401D01*
X229265719Y-136285058D01*
X229264631Y-136285670D01*
X229263522Y-136286237D01*
X229262391Y-136286757D01*
X229261242Y-136287228D01*
X229260076Y-136287650D01*
X229258894Y-136288021D01*
X229257699Y-136288338D01*
X229256493Y-136288601D01*
X229255277Y-136288808D01*
X229254054Y-136288958D01*
X229252824Y-136289049D01*
X229251590Y-136289080D01*
X228705808Y-136289080D01*
X228704574Y-136289057D01*
X228703345Y-136288972D01*
X228702123Y-136288829D01*
X228700908Y-136288627D01*
X228699704Y-136288370D01*
X228698511Y-136288057D01*
X228697331Y-136287692D01*
X228696168Y-136287274D01*
X228695021Y-136286807D01*
X228693893Y-136286291D01*
X228691700Y-136285118D01*
X228689605Y-136283768D01*
X228687621Y-136282254D01*
X228685763Y-136280587D01*
X228684044Y-136278780D01*
X228682480Y-136276845D01*
X228681760Y-136275832D01*
X228681084Y-136274793D01*
X228680453Y-136273727D01*
X228679871Y-136272637D01*
X228679337Y-136271523D01*
X228678855Y-136270389D01*
X228678425Y-136269234D01*
X228678050Y-136268061D01*
X228677731Y-136266870D01*
X228677471Y-136265665D01*
X228677471Y-136265268D01*
X228578887Y-135734964D01*
X228578329Y-135732526D01*
X228577555Y-135730077D01*
X228576580Y-135727633D01*
X228575418Y-135725209D01*
X228574083Y-135722822D01*
X228572588Y-135720488D01*
X228570947Y-135718223D01*
X228569174Y-135716043D01*
X228567283Y-135713964D01*
X228565287Y-135712003D01*
X228563202Y-135710176D01*
X228561039Y-135708498D01*
X228558814Y-135706987D01*
X228556540Y-135705657D01*
X228554230Y-135704526D01*
X228551900Y-135703610D01*
X228172646Y-135541050D01*
X228170370Y-135540003D01*
X228167959Y-135539122D01*
X228165435Y-135538406D01*
X228162819Y-135537854D01*
X228160129Y-135537466D01*
X228157388Y-135537240D01*
X228154614Y-135537175D01*
X228151830Y-135537270D01*
X228149055Y-135537524D01*
X228146310Y-135537936D01*
X228143615Y-135538506D01*
X228140990Y-135539231D01*
X228138457Y-135540111D01*
X228136036Y-135541145D01*
X228133746Y-135542331D01*
X228131609Y-135543670D01*
X227681235Y-135852677D01*
X227680200Y-135853343D01*
X227679135Y-135853958D01*
X227678041Y-135854521D01*
X227676922Y-135855034D01*
X227675779Y-135855495D01*
X227674616Y-135855905D01*
X227672235Y-135856575D01*
X227669798Y-135857043D01*
X227667323Y-135857310D01*
X227664829Y-135857379D01*
X227662334Y-135857251D01*
X227659857Y-135856926D01*
X227657416Y-135856406D01*
X227655030Y-135855692D01*
X227652716Y-135854786D01*
X227650495Y-135853689D01*
X227649424Y-135853069D01*
X227648383Y-135852402D01*
X227647374Y-135851688D01*
X227646400Y-135850926D01*
X227645463Y-135850118D01*
X227644564Y-135849263D01*
X227258643Y-135463342D01*
X227257795Y-135462451D01*
X227256992Y-135461519D01*
X227256235Y-135460550D01*
X227255524Y-135459546D01*
X227254859Y-135458509D01*
X227254240Y-135457442D01*
X227253668Y-135456346D01*
X227253143Y-135455225D01*
X227252664Y-135454080D01*
X227252233Y-135452915D01*
X227251515Y-135450530D01*
X227250988Y-135448089D01*
X227250656Y-135445612D01*
X227250520Y-135443117D01*
X227250582Y-135440624D01*
X227250845Y-135438150D01*
X227251052Y-135436927D01*
X227251310Y-135435716D01*
X227251618Y-135434520D01*
X227251978Y-135433340D01*
X227252390Y-135432180D01*
X227252853Y-135431041D01*
X227253369Y-135429927D01*
X227253937Y-135428839D01*
X227254557Y-135427779D01*
X227255230Y-135426751D01*
X227569714Y-134968519D01*
X227571041Y-134966393D01*
X227572223Y-134964108D01*
X227573259Y-134961686D01*
X227574146Y-134959146D01*
X227574884Y-134956512D01*
X227575470Y-134953803D01*
X227575904Y-134951041D01*
X227576183Y-134948248D01*
X227576305Y-134945445D01*
X227576270Y-134942653D01*
X227576075Y-134939893D01*
X227575719Y-134937187D01*
X227575200Y-134934555D01*
X227574517Y-134932020D01*
X227573667Y-134929602D01*
X227572651Y-134927323D01*
X227422156Y-134559738D01*
X227421740Y-134558570D01*
X227421269Y-134557406D01*
X227420744Y-134556247D01*
X227420168Y-134555094D01*
X227418867Y-134552816D01*
X227417384Y-134550586D01*
X227415734Y-134548417D01*
X227413933Y-134546325D01*
X227411997Y-134544322D01*
X227409942Y-134542424D01*
X227407783Y-134540643D01*
X227405537Y-134538995D01*
X227403220Y-134537494D01*
X227400847Y-134536152D01*
X227398435Y-134534985D01*
X227395999Y-134534006D01*
X227394777Y-134533592D01*
X227393555Y-134533230D01*
X227392336Y-134532922D01*
X227391120Y-134532671D01*
X226842639Y-134430594D01*
X226841433Y-134430341D01*
X226840243Y-134430029D01*
X226839069Y-134429659D01*
X226837914Y-134429234D01*
X226836780Y-134428755D01*
X226835666Y-134428225D01*
X226834575Y-134427645D01*
X226833509Y-134427016D01*
X226832469Y-134426342D01*
X226831456Y-134425623D01*
X226830472Y-134424862D01*
X226829519Y-134424060D01*
X226828597Y-134423220D01*
X226827709Y-134422342D01*
X226826856Y-134421430D01*
X226826039Y-134420484D01*
X226825260Y-134419507D01*
X226824521Y-134418500D01*
X226823822Y-134417466D01*
X226823166Y-134416405D01*
X226822554Y-134415321D01*
X226821987Y-134414215D01*
X226821467Y-134413088D01*
X226820995Y-134411942D01*
X226820574Y-134410781D01*
X226820203Y-134409604D01*
X226819886Y-134408414D01*
X226819623Y-134407214D01*
X226819415Y-134406004D01*
X226819265Y-134404786D01*
X226819174Y-134403563D01*
X226819144Y-134402337D01*
X226819144Y-133856475D01*
X226819174Y-133855249D01*
X226819265Y-133854026D01*
X226819415Y-133852808D01*
X226819623Y-133851598D01*
X226819886Y-133850398D01*
X226820203Y-133849208D01*
X226820574Y-133848031D01*
X226820995Y-133846870D01*
X226821987Y-133844598D01*
X226823166Y-133842407D01*
X226824521Y-133840312D01*
X226826039Y-133838328D01*
X226827709Y-133836470D01*
X226829519Y-133834752D01*
X226831456Y-133833189D01*
X226832469Y-133832470D01*
X226833509Y-133831796D01*
X226834575Y-133831168D01*
X226835666Y-133830587D01*
X226836780Y-133830057D01*
X226837914Y-133829578D01*
X226839069Y-133829153D01*
X226840243Y-133828784D01*
X226841433Y-133828471D01*
X226842639Y-133828218D01*
X227391120Y-133726142D01*
X227393555Y-133725569D01*
X227395999Y-133724783D01*
X227398435Y-133723798D01*
X227400847Y-133722627D01*
X227403220Y-133721284D01*
X227405537Y-133719782D01*
X227407783Y-133718136D01*
X227409942Y-133716359D01*
X227411997Y-133714464D01*
X227413933Y-133712466D01*
X227415734Y-133710379D01*
X227417384Y-133708215D01*
X227418867Y-133705989D01*
X227420168Y-133703715D01*
X227421269Y-133701405D01*
X227422156Y-133699075D01*
X227572651Y-133331410D01*
X227573654Y-133329117D01*
X227574491Y-133326687D01*
X227575164Y-133324141D01*
X227575674Y-133321501D01*
X227576024Y-133318789D01*
X227576214Y-133316024D01*
X227576247Y-133313229D01*
X227576123Y-133310425D01*
X227575845Y-133307633D01*
X227575415Y-133304874D01*
X227574833Y-133302170D01*
X227574102Y-133299542D01*
X227573222Y-133297011D01*
X227572197Y-133294598D01*
X227571027Y-133292326D01*
X227569714Y-133290214D01*
X227255230Y-132831982D01*
X227254557Y-132830947D01*
X227253936Y-132829880D01*
X227253367Y-132828786D01*
X227252850Y-132827665D01*
X227252385Y-132826521D01*
X227251972Y-132825356D01*
X227251298Y-132822971D01*
X227250829Y-132820529D01*
X227250561Y-132818049D01*
X227250494Y-132815550D01*
X227250626Y-132813051D01*
X227250955Y-132810571D01*
X227251480Y-132808128D01*
X227252198Y-132805741D01*
X227253109Y-132803430D01*
X227254211Y-132801212D01*
X227254832Y-132800144D01*
X227255501Y-132799107D01*
X227256217Y-132798103D01*
X227256979Y-132797134D01*
X227257788Y-132796202D01*
X227258643Y-132795311D01*
X227644564Y-132409390D01*
X227645456Y-132408542D01*
X227646387Y-132407739D01*
X227647356Y-132406982D01*
X227648360Y-132406271D01*
X227649397Y-132405606D01*
X227650465Y-132404987D01*
X227651561Y-132404415D01*
X227652683Y-132403889D01*
X227653828Y-132403411D01*
X227654994Y-132402980D01*
X227657381Y-132402261D01*
X227659824Y-132401735D01*
X227662305Y-132401403D01*
X227664804Y-132401267D01*
X227667302Y-132401329D01*
X227669782Y-132401592D01*
X227671009Y-132401799D01*
X227672224Y-132402056D01*
X227673425Y-132402365D01*
X227674609Y-132402725D01*
X227675774Y-132403137D01*
X227676919Y-132403600D01*
X227678039Y-132404116D01*
X227679134Y-132404683D01*
X227680200Y-132405304D01*
X227681235Y-132405977D01*
X228131609Y-132714984D01*
X228133733Y-132716295D01*
X228136013Y-132717460D01*
X228138428Y-132718476D01*
X228140957Y-132719343D01*
X228143580Y-132720059D01*
X228146275Y-132720622D01*
X228149022Y-132721031D01*
X228151800Y-132721284D01*
X228154589Y-132721380D01*
X228157367Y-132721317D01*
X228160113Y-132721094D01*
X228162807Y-132720710D01*
X228165429Y-132720162D01*
X228167956Y-132719449D01*
X228170369Y-132718570D01*
X228172646Y-132717524D01*
X228551900Y-132554964D01*
X228553067Y-132554533D01*
X228554230Y-132554047D01*
X228555389Y-132553508D01*
X228556540Y-132552917D01*
X228558814Y-132551587D01*
X228561039Y-132550076D01*
X228563202Y-132548399D01*
X228565287Y-132546571D01*
X228567283Y-132544610D01*
X228569174Y-132542532D01*
X228570947Y-132540352D01*
X228572588Y-132538086D01*
X228574083Y-132535752D01*
X228575418Y-132533365D01*
X228576580Y-132530941D01*
X228577555Y-132528497D01*
X228577968Y-132527272D01*
X228578329Y-132526048D01*
X228578636Y-132524827D01*
X228578887Y-132523611D01*
X228677471Y-131993306D01*
X228677731Y-131992101D01*
X228678050Y-131990910D01*
X228678425Y-131989737D01*
X228678855Y-131988582D01*
X228679337Y-131987447D01*
X228679871Y-131986334D01*
X228680454Y-131985243D01*
X228681084Y-131984177D01*
X228681760Y-131983137D01*
X228682480Y-131982124D01*
X228683242Y-131981140D01*
X228684044Y-131980187D01*
X228684885Y-131979265D01*
X228685763Y-131978377D01*
X228686675Y-131977524D01*
X228687621Y-131976707D01*
X228688598Y-131975928D01*
X228689605Y-131975189D01*
X228690640Y-131974490D01*
X228691700Y-131973834D01*
X228692785Y-131973222D01*
X228693893Y-131972655D01*
X228695021Y-131972135D01*
X228696168Y-131971663D01*
X228697332Y-131971241D01*
X228698511Y-131970871D01*
X228699704Y-131970553D01*
X228700908Y-131970290D01*
X228702123Y-131970083D01*
X228703345Y-131969933D01*
X228704574Y-131969842D01*
X228705808Y-131969811D01*
X229251590Y-131969811D01*
X229252824Y-131969842D01*
G37*
D11*
X222992425Y-117459120D02*
X223754425Y-117640548D01*
X223754425Y-117640548D02*
X223210140Y-117785691D01*
X223210140Y-117785691D02*
X223754425Y-117930834D01*
X223754425Y-117930834D02*
X222992425Y-118112263D01*
X223681854Y-118837977D02*
X223718140Y-118801691D01*
X223718140Y-118801691D02*
X223754425Y-118692834D01*
X223754425Y-118692834D02*
X223754425Y-118620262D01*
X223754425Y-118620262D02*
X223718140Y-118511405D01*
X223718140Y-118511405D02*
X223645568Y-118438834D01*
X223645568Y-118438834D02*
X223572997Y-118402548D01*
X223572997Y-118402548D02*
X223427854Y-118366262D01*
X223427854Y-118366262D02*
X223318997Y-118366262D01*
X223318997Y-118366262D02*
X223173854Y-118402548D01*
X223173854Y-118402548D02*
X223101282Y-118438834D01*
X223101282Y-118438834D02*
X223028711Y-118511405D01*
X223028711Y-118511405D02*
X222992425Y-118620262D01*
X222992425Y-118620262D02*
X222992425Y-118692834D01*
X222992425Y-118692834D02*
X223028711Y-118801691D01*
X223028711Y-118801691D02*
X223064997Y-118837977D01*
X223754425Y-119164548D02*
X222992425Y-119164548D01*
X222992425Y-119164548D02*
X222992425Y-119454834D01*
X222992425Y-119454834D02*
X223028711Y-119527405D01*
X223028711Y-119527405D02*
X223064997Y-119563691D01*
X223064997Y-119563691D02*
X223137568Y-119599977D01*
X223137568Y-119599977D02*
X223246425Y-119599977D01*
X223246425Y-119599977D02*
X223318997Y-119563691D01*
X223318997Y-119563691D02*
X223355282Y-119527405D01*
X223355282Y-119527405D02*
X223391568Y-119454834D01*
X223391568Y-119454834D02*
X223391568Y-119164548D01*
X223754425Y-120507119D02*
X222992425Y-120507119D01*
X222992425Y-120507119D02*
X223536711Y-120761119D01*
X223536711Y-120761119D02*
X222992425Y-121015119D01*
X222992425Y-121015119D02*
X223754425Y-121015119D01*
X223536711Y-121341690D02*
X223536711Y-121704548D01*
X223754425Y-121269119D02*
X222992425Y-121523119D01*
X222992425Y-121523119D02*
X223754425Y-121777119D01*
X223028711Y-122430262D02*
X222992425Y-122357691D01*
X222992425Y-122357691D02*
X222992425Y-122248833D01*
X222992425Y-122248833D02*
X223028711Y-122139976D01*
X223028711Y-122139976D02*
X223101282Y-122067405D01*
X223101282Y-122067405D02*
X223173854Y-122031119D01*
X223173854Y-122031119D02*
X223318997Y-121994833D01*
X223318997Y-121994833D02*
X223427854Y-121994833D01*
X223427854Y-121994833D02*
X223572997Y-122031119D01*
X223572997Y-122031119D02*
X223645568Y-122067405D01*
X223645568Y-122067405D02*
X223718140Y-122139976D01*
X223718140Y-122139976D02*
X223754425Y-122248833D01*
X223754425Y-122248833D02*
X223754425Y-122321405D01*
X223754425Y-122321405D02*
X223718140Y-122430262D01*
X223718140Y-122430262D02*
X223681854Y-122466548D01*
X223681854Y-122466548D02*
X223427854Y-122466548D01*
X223427854Y-122466548D02*
X223427854Y-122321405D01*
X223355282Y-123373690D02*
X223355282Y-123627690D01*
X223754425Y-123736547D02*
X223754425Y-123373690D01*
X223754425Y-123373690D02*
X222992425Y-123373690D01*
X222992425Y-123373690D02*
X222992425Y-123736547D01*
X223754425Y-124063119D02*
X222992425Y-124063119D01*
X222992425Y-124063119D02*
X223754425Y-124498548D01*
X223754425Y-124498548D02*
X222992425Y-124498548D01*
X223681854Y-125296834D02*
X223718140Y-125260548D01*
X223718140Y-125260548D02*
X223754425Y-125151691D01*
X223754425Y-125151691D02*
X223754425Y-125079119D01*
X223754425Y-125079119D02*
X223718140Y-124970262D01*
X223718140Y-124970262D02*
X223645568Y-124897691D01*
X223645568Y-124897691D02*
X223572997Y-124861405D01*
X223572997Y-124861405D02*
X223427854Y-124825119D01*
X223427854Y-124825119D02*
X223318997Y-124825119D01*
X223318997Y-124825119D02*
X223173854Y-124861405D01*
X223173854Y-124861405D02*
X223101282Y-124897691D01*
X223101282Y-124897691D02*
X223028711Y-124970262D01*
X223028711Y-124970262D02*
X222992425Y-125079119D01*
X222992425Y-125079119D02*
X222992425Y-125151691D01*
X222992425Y-125151691D02*
X223028711Y-125260548D01*
X223028711Y-125260548D02*
X223064997Y-125296834D01*
X222992425Y-125768548D02*
X222992425Y-125913691D01*
X222992425Y-125913691D02*
X223028711Y-125986262D01*
X223028711Y-125986262D02*
X223101282Y-126058834D01*
X223101282Y-126058834D02*
X223246425Y-126095119D01*
X223246425Y-126095119D02*
X223500425Y-126095119D01*
X223500425Y-126095119D02*
X223645568Y-126058834D01*
X223645568Y-126058834D02*
X223718140Y-125986262D01*
X223718140Y-125986262D02*
X223754425Y-125913691D01*
X223754425Y-125913691D02*
X223754425Y-125768548D01*
X223754425Y-125768548D02*
X223718140Y-125695977D01*
X223718140Y-125695977D02*
X223645568Y-125623405D01*
X223645568Y-125623405D02*
X223500425Y-125587119D01*
X223500425Y-125587119D02*
X223246425Y-125587119D01*
X223246425Y-125587119D02*
X223101282Y-125623405D01*
X223101282Y-125623405D02*
X223028711Y-125695977D01*
X223028711Y-125695977D02*
X222992425Y-125768548D01*
X223754425Y-126421691D02*
X222992425Y-126421691D01*
X222992425Y-126421691D02*
X222992425Y-126603120D01*
X222992425Y-126603120D02*
X223028711Y-126711977D01*
X223028711Y-126711977D02*
X223101282Y-126784548D01*
X223101282Y-126784548D02*
X223173854Y-126820834D01*
X223173854Y-126820834D02*
X223318997Y-126857120D01*
X223318997Y-126857120D02*
X223427854Y-126857120D01*
X223427854Y-126857120D02*
X223572997Y-126820834D01*
X223572997Y-126820834D02*
X223645568Y-126784548D01*
X223645568Y-126784548D02*
X223718140Y-126711977D01*
X223718140Y-126711977D02*
X223754425Y-126603120D01*
X223754425Y-126603120D02*
X223754425Y-126421691D01*
X223355282Y-127183691D02*
X223355282Y-127437691D01*
X223754425Y-127546548D02*
X223754425Y-127183691D01*
X223754425Y-127183691D02*
X222992425Y-127183691D01*
X222992425Y-127183691D02*
X222992425Y-127546548D01*
X223754425Y-128308549D02*
X223391568Y-128054549D01*
X223754425Y-127873120D02*
X222992425Y-127873120D01*
X222992425Y-127873120D02*
X222992425Y-128163406D01*
X222992425Y-128163406D02*
X223028711Y-128235977D01*
X223028711Y-128235977D02*
X223064997Y-128272263D01*
X223064997Y-128272263D02*
X223137568Y-128308549D01*
X223137568Y-128308549D02*
X223246425Y-128308549D01*
X223246425Y-128308549D02*
X223318997Y-128272263D01*
X223318997Y-128272263D02*
X223355282Y-128235977D01*
X223355282Y-128235977D02*
X223391568Y-128163406D01*
X223391568Y-128163406D02*
X223391568Y-127873120D01*
X222992425Y-129106834D02*
X223754425Y-129360834D01*
X223754425Y-129360834D02*
X222992425Y-129614834D01*
X223754425Y-130267977D02*
X223754425Y-129832548D01*
X223754425Y-130050263D02*
X222992425Y-130050263D01*
X222992425Y-130050263D02*
X223101282Y-129977691D01*
X223101282Y-129977691D02*
X223173854Y-129905120D01*
X223173854Y-129905120D02*
X223210140Y-129832548D01*
X225271488Y-117749405D02*
X225235202Y-117713120D01*
X225235202Y-117713120D02*
X225126345Y-117640548D01*
X225126345Y-117640548D02*
X225053774Y-117604263D01*
X225053774Y-117604263D02*
X224944917Y-117567977D01*
X224944917Y-117567977D02*
X224763488Y-117531691D01*
X224763488Y-117531691D02*
X224618345Y-117531691D01*
X224618345Y-117531691D02*
X224436917Y-117567977D01*
X224436917Y-117567977D02*
X224328059Y-117604263D01*
X224328059Y-117604263D02*
X224255488Y-117640548D01*
X224255488Y-117640548D02*
X224146631Y-117713120D01*
X224146631Y-117713120D02*
X224110345Y-117749405D01*
X224908631Y-118475120D02*
X224944917Y-118438834D01*
X224944917Y-118438834D02*
X224981202Y-118329977D01*
X224981202Y-118329977D02*
X224981202Y-118257405D01*
X224981202Y-118257405D02*
X224944917Y-118148548D01*
X224944917Y-118148548D02*
X224872345Y-118075977D01*
X224872345Y-118075977D02*
X224799774Y-118039691D01*
X224799774Y-118039691D02*
X224654631Y-118003405D01*
X224654631Y-118003405D02*
X224545774Y-118003405D01*
X224545774Y-118003405D02*
X224400631Y-118039691D01*
X224400631Y-118039691D02*
X224328059Y-118075977D01*
X224328059Y-118075977D02*
X224255488Y-118148548D01*
X224255488Y-118148548D02*
X224219202Y-118257405D01*
X224219202Y-118257405D02*
X224219202Y-118329977D01*
X224219202Y-118329977D02*
X224255488Y-118438834D01*
X224255488Y-118438834D02*
X224291774Y-118475120D01*
X225271488Y-118729120D02*
X225235202Y-118765405D01*
X225235202Y-118765405D02*
X225126345Y-118837977D01*
X225126345Y-118837977D02*
X225053774Y-118874263D01*
X225053774Y-118874263D02*
X224944917Y-118910548D01*
X224944917Y-118910548D02*
X224763488Y-118946834D01*
X224763488Y-118946834D02*
X224618345Y-118946834D01*
X224618345Y-118946834D02*
X224436917Y-118910548D01*
X224436917Y-118910548D02*
X224328059Y-118874263D01*
X224328059Y-118874263D02*
X224255488Y-118837977D01*
X224255488Y-118837977D02*
X224146631Y-118765405D01*
X224146631Y-118765405D02*
X224110345Y-118729120D01*
X224291774Y-119273405D02*
X224255488Y-119309691D01*
X224255488Y-119309691D02*
X224219202Y-119382263D01*
X224219202Y-119382263D02*
X224219202Y-119563691D01*
X224219202Y-119563691D02*
X224255488Y-119636263D01*
X224255488Y-119636263D02*
X224291774Y-119672548D01*
X224291774Y-119672548D02*
X224364345Y-119708834D01*
X224364345Y-119708834D02*
X224436917Y-119708834D01*
X224436917Y-119708834D02*
X224545774Y-119672548D01*
X224545774Y-119672548D02*
X224981202Y-119237120D01*
X224981202Y-119237120D02*
X224981202Y-119708834D01*
X224219202Y-120180548D02*
X224219202Y-120253119D01*
X224219202Y-120253119D02*
X224255488Y-120325691D01*
X224255488Y-120325691D02*
X224291774Y-120361977D01*
X224291774Y-120361977D02*
X224364345Y-120398262D01*
X224364345Y-120398262D02*
X224509488Y-120434548D01*
X224509488Y-120434548D02*
X224690917Y-120434548D01*
X224690917Y-120434548D02*
X224836059Y-120398262D01*
X224836059Y-120398262D02*
X224908631Y-120361977D01*
X224908631Y-120361977D02*
X224944917Y-120325691D01*
X224944917Y-120325691D02*
X224981202Y-120253119D01*
X224981202Y-120253119D02*
X224981202Y-120180548D01*
X224981202Y-120180548D02*
X224944917Y-120107977D01*
X224944917Y-120107977D02*
X224908631Y-120071691D01*
X224908631Y-120071691D02*
X224836059Y-120035405D01*
X224836059Y-120035405D02*
X224690917Y-119999119D01*
X224690917Y-119999119D02*
X224509488Y-119999119D01*
X224509488Y-119999119D02*
X224364345Y-120035405D01*
X224364345Y-120035405D02*
X224291774Y-120071691D01*
X224291774Y-120071691D02*
X224255488Y-120107977D01*
X224255488Y-120107977D02*
X224219202Y-120180548D01*
X224291774Y-120724833D02*
X224255488Y-120761119D01*
X224255488Y-120761119D02*
X224219202Y-120833691D01*
X224219202Y-120833691D02*
X224219202Y-121015119D01*
X224219202Y-121015119D02*
X224255488Y-121087691D01*
X224255488Y-121087691D02*
X224291774Y-121123976D01*
X224291774Y-121123976D02*
X224364345Y-121160262D01*
X224364345Y-121160262D02*
X224436917Y-121160262D01*
X224436917Y-121160262D02*
X224545774Y-121123976D01*
X224545774Y-121123976D02*
X224981202Y-120688548D01*
X224981202Y-120688548D02*
X224981202Y-121160262D01*
X224219202Y-121849690D02*
X224219202Y-121486833D01*
X224219202Y-121486833D02*
X224582059Y-121450547D01*
X224582059Y-121450547D02*
X224545774Y-121486833D01*
X224545774Y-121486833D02*
X224509488Y-121559405D01*
X224509488Y-121559405D02*
X224509488Y-121740833D01*
X224509488Y-121740833D02*
X224545774Y-121813405D01*
X224545774Y-121813405D02*
X224582059Y-121849690D01*
X224582059Y-121849690D02*
X224654631Y-121885976D01*
X224654631Y-121885976D02*
X224836059Y-121885976D01*
X224836059Y-121885976D02*
X224908631Y-121849690D01*
X224908631Y-121849690D02*
X224944917Y-121813405D01*
X224944917Y-121813405D02*
X224981202Y-121740833D01*
X224981202Y-121740833D02*
X224981202Y-121559405D01*
X224981202Y-121559405D02*
X224944917Y-121486833D01*
X224944917Y-121486833D02*
X224908631Y-121450547D01*
X224981202Y-123192261D02*
X224981202Y-122756832D01*
X224981202Y-122974547D02*
X224219202Y-122974547D01*
X224219202Y-122974547D02*
X224328059Y-122901975D01*
X224328059Y-122901975D02*
X224400631Y-122829404D01*
X224400631Y-122829404D02*
X224436917Y-122756832D01*
X224545774Y-123627689D02*
X224509488Y-123555118D01*
X224509488Y-123555118D02*
X224473202Y-123518832D01*
X224473202Y-123518832D02*
X224400631Y-123482546D01*
X224400631Y-123482546D02*
X224364345Y-123482546D01*
X224364345Y-123482546D02*
X224291774Y-123518832D01*
X224291774Y-123518832D02*
X224255488Y-123555118D01*
X224255488Y-123555118D02*
X224219202Y-123627689D01*
X224219202Y-123627689D02*
X224219202Y-123772832D01*
X224219202Y-123772832D02*
X224255488Y-123845404D01*
X224255488Y-123845404D02*
X224291774Y-123881689D01*
X224291774Y-123881689D02*
X224364345Y-123917975D01*
X224364345Y-123917975D02*
X224400631Y-123917975D01*
X224400631Y-123917975D02*
X224473202Y-123881689D01*
X224473202Y-123881689D02*
X224509488Y-123845404D01*
X224509488Y-123845404D02*
X224545774Y-123772832D01*
X224545774Y-123772832D02*
X224545774Y-123627689D01*
X224545774Y-123627689D02*
X224582059Y-123555118D01*
X224582059Y-123555118D02*
X224618345Y-123518832D01*
X224618345Y-123518832D02*
X224690917Y-123482546D01*
X224690917Y-123482546D02*
X224836059Y-123482546D01*
X224836059Y-123482546D02*
X224908631Y-123518832D01*
X224908631Y-123518832D02*
X224944917Y-123555118D01*
X224944917Y-123555118D02*
X224981202Y-123627689D01*
X224981202Y-123627689D02*
X224981202Y-123772832D01*
X224981202Y-123772832D02*
X224944917Y-123845404D01*
X224944917Y-123845404D02*
X224908631Y-123881689D01*
X224908631Y-123881689D02*
X224836059Y-123917975D01*
X224836059Y-123917975D02*
X224690917Y-123917975D01*
X224690917Y-123917975D02*
X224618345Y-123881689D01*
X224618345Y-123881689D02*
X224582059Y-123845404D01*
X224582059Y-123845404D02*
X224545774Y-123772832D01*
X224219202Y-124571118D02*
X224219202Y-124425975D01*
X224219202Y-124425975D02*
X224255488Y-124353403D01*
X224255488Y-124353403D02*
X224291774Y-124317118D01*
X224291774Y-124317118D02*
X224400631Y-124244546D01*
X224400631Y-124244546D02*
X224545774Y-124208260D01*
X224545774Y-124208260D02*
X224836059Y-124208260D01*
X224836059Y-124208260D02*
X224908631Y-124244546D01*
X224908631Y-124244546D02*
X224944917Y-124280832D01*
X224944917Y-124280832D02*
X224981202Y-124353403D01*
X224981202Y-124353403D02*
X224981202Y-124498546D01*
X224981202Y-124498546D02*
X224944917Y-124571118D01*
X224944917Y-124571118D02*
X224908631Y-124607403D01*
X224908631Y-124607403D02*
X224836059Y-124643689D01*
X224836059Y-124643689D02*
X224654631Y-124643689D01*
X224654631Y-124643689D02*
X224582059Y-124607403D01*
X224582059Y-124607403D02*
X224545774Y-124571118D01*
X224545774Y-124571118D02*
X224509488Y-124498546D01*
X224509488Y-124498546D02*
X224509488Y-124353403D01*
X224509488Y-124353403D02*
X224545774Y-124280832D01*
X224545774Y-124280832D02*
X224582059Y-124244546D01*
X224582059Y-124244546D02*
X224654631Y-124208260D01*
X224545774Y-125079117D02*
X224509488Y-125006546D01*
X224509488Y-125006546D02*
X224473202Y-124970260D01*
X224473202Y-124970260D02*
X224400631Y-124933974D01*
X224400631Y-124933974D02*
X224364345Y-124933974D01*
X224364345Y-124933974D02*
X224291774Y-124970260D01*
X224291774Y-124970260D02*
X224255488Y-125006546D01*
X224255488Y-125006546D02*
X224219202Y-125079117D01*
X224219202Y-125079117D02*
X224219202Y-125224260D01*
X224219202Y-125224260D02*
X224255488Y-125296832D01*
X224255488Y-125296832D02*
X224291774Y-125333117D01*
X224291774Y-125333117D02*
X224364345Y-125369403D01*
X224364345Y-125369403D02*
X224400631Y-125369403D01*
X224400631Y-125369403D02*
X224473202Y-125333117D01*
X224473202Y-125333117D02*
X224509488Y-125296832D01*
X224509488Y-125296832D02*
X224545774Y-125224260D01*
X224545774Y-125224260D02*
X224545774Y-125079117D01*
X224545774Y-125079117D02*
X224582059Y-125006546D01*
X224582059Y-125006546D02*
X224618345Y-124970260D01*
X224618345Y-124970260D02*
X224690917Y-124933974D01*
X224690917Y-124933974D02*
X224836059Y-124933974D01*
X224836059Y-124933974D02*
X224908631Y-124970260D01*
X224908631Y-124970260D02*
X224944917Y-125006546D01*
X224944917Y-125006546D02*
X224981202Y-125079117D01*
X224981202Y-125079117D02*
X224981202Y-125224260D01*
X224981202Y-125224260D02*
X224944917Y-125296832D01*
X224944917Y-125296832D02*
X224908631Y-125333117D01*
X224908631Y-125333117D02*
X224836059Y-125369403D01*
X224836059Y-125369403D02*
X224690917Y-125369403D01*
X224690917Y-125369403D02*
X224618345Y-125333117D01*
X224618345Y-125333117D02*
X224582059Y-125296832D01*
X224582059Y-125296832D02*
X224545774Y-125224260D01*
X226171694Y-117495405D02*
X226207979Y-117604263D01*
X226207979Y-117604263D02*
X226207979Y-117785691D01*
X226207979Y-117785691D02*
X226171694Y-117858263D01*
X226171694Y-117858263D02*
X226135408Y-117894548D01*
X226135408Y-117894548D02*
X226062836Y-117930834D01*
X226062836Y-117930834D02*
X225990265Y-117930834D01*
X225990265Y-117930834D02*
X225917694Y-117894548D01*
X225917694Y-117894548D02*
X225881408Y-117858263D01*
X225881408Y-117858263D02*
X225845122Y-117785691D01*
X225845122Y-117785691D02*
X225808836Y-117640548D01*
X225808836Y-117640548D02*
X225772551Y-117567977D01*
X225772551Y-117567977D02*
X225736265Y-117531691D01*
X225736265Y-117531691D02*
X225663694Y-117495405D01*
X225663694Y-117495405D02*
X225591122Y-117495405D01*
X225591122Y-117495405D02*
X225518551Y-117531691D01*
X225518551Y-117531691D02*
X225482265Y-117567977D01*
X225482265Y-117567977D02*
X225445979Y-117640548D01*
X225445979Y-117640548D02*
X225445979Y-117821977D01*
X225445979Y-117821977D02*
X225482265Y-117930834D01*
X226207979Y-118257405D02*
X225445979Y-118257405D01*
X225445979Y-118257405D02*
X225445979Y-118547691D01*
X225445979Y-118547691D02*
X225482265Y-118620262D01*
X225482265Y-118620262D02*
X225518551Y-118656548D01*
X225518551Y-118656548D02*
X225591122Y-118692834D01*
X225591122Y-118692834D02*
X225699979Y-118692834D01*
X225699979Y-118692834D02*
X225772551Y-118656548D01*
X225772551Y-118656548D02*
X225808836Y-118620262D01*
X225808836Y-118620262D02*
X225845122Y-118547691D01*
X225845122Y-118547691D02*
X225845122Y-118257405D01*
X225990265Y-118983119D02*
X225990265Y-119345977D01*
X226207979Y-118910548D02*
X225445979Y-119164548D01*
X225445979Y-119164548D02*
X226207979Y-119418548D01*
X226135408Y-120107977D02*
X226171694Y-120071691D01*
X226171694Y-120071691D02*
X226207979Y-119962834D01*
X226207979Y-119962834D02*
X226207979Y-119890262D01*
X226207979Y-119890262D02*
X226171694Y-119781405D01*
X226171694Y-119781405D02*
X226099122Y-119708834D01*
X226099122Y-119708834D02*
X226026551Y-119672548D01*
X226026551Y-119672548D02*
X225881408Y-119636262D01*
X225881408Y-119636262D02*
X225772551Y-119636262D01*
X225772551Y-119636262D02*
X225627408Y-119672548D01*
X225627408Y-119672548D02*
X225554836Y-119708834D01*
X225554836Y-119708834D02*
X225482265Y-119781405D01*
X225482265Y-119781405D02*
X225445979Y-119890262D01*
X225445979Y-119890262D02*
X225445979Y-119962834D01*
X225445979Y-119962834D02*
X225482265Y-120071691D01*
X225482265Y-120071691D02*
X225518551Y-120107977D01*
X225808836Y-120434548D02*
X225808836Y-120688548D01*
X226207979Y-120797405D02*
X226207979Y-120434548D01*
X226207979Y-120434548D02*
X225445979Y-120434548D01*
X225445979Y-120434548D02*
X225445979Y-120797405D01*
X226135408Y-122139977D02*
X226171694Y-122103691D01*
X226171694Y-122103691D02*
X226207979Y-121994834D01*
X226207979Y-121994834D02*
X226207979Y-121922262D01*
X226207979Y-121922262D02*
X226171694Y-121813405D01*
X226171694Y-121813405D02*
X226099122Y-121740834D01*
X226099122Y-121740834D02*
X226026551Y-121704548D01*
X226026551Y-121704548D02*
X225881408Y-121668262D01*
X225881408Y-121668262D02*
X225772551Y-121668262D01*
X225772551Y-121668262D02*
X225627408Y-121704548D01*
X225627408Y-121704548D02*
X225554836Y-121740834D01*
X225554836Y-121740834D02*
X225482265Y-121813405D01*
X225482265Y-121813405D02*
X225445979Y-121922262D01*
X225445979Y-121922262D02*
X225445979Y-121994834D01*
X225445979Y-121994834D02*
X225482265Y-122103691D01*
X225482265Y-122103691D02*
X225518551Y-122139977D01*
X225445979Y-122611691D02*
X225445979Y-122756834D01*
X225445979Y-122756834D02*
X225482265Y-122829405D01*
X225482265Y-122829405D02*
X225554836Y-122901977D01*
X225554836Y-122901977D02*
X225699979Y-122938262D01*
X225699979Y-122938262D02*
X225953979Y-122938262D01*
X225953979Y-122938262D02*
X226099122Y-122901977D01*
X226099122Y-122901977D02*
X226171694Y-122829405D01*
X226171694Y-122829405D02*
X226207979Y-122756834D01*
X226207979Y-122756834D02*
X226207979Y-122611691D01*
X226207979Y-122611691D02*
X226171694Y-122539120D01*
X226171694Y-122539120D02*
X226099122Y-122466548D01*
X226099122Y-122466548D02*
X225953979Y-122430262D01*
X225953979Y-122430262D02*
X225699979Y-122430262D01*
X225699979Y-122430262D02*
X225554836Y-122466548D01*
X225554836Y-122466548D02*
X225482265Y-122539120D01*
X225482265Y-122539120D02*
X225445979Y-122611691D01*
X225445979Y-123409977D02*
X225445979Y-123555120D01*
X225445979Y-123555120D02*
X225482265Y-123627691D01*
X225482265Y-123627691D02*
X225554836Y-123700263D01*
X225554836Y-123700263D02*
X225699979Y-123736548D01*
X225699979Y-123736548D02*
X225953979Y-123736548D01*
X225953979Y-123736548D02*
X226099122Y-123700263D01*
X226099122Y-123700263D02*
X226171694Y-123627691D01*
X226171694Y-123627691D02*
X226207979Y-123555120D01*
X226207979Y-123555120D02*
X226207979Y-123409977D01*
X226207979Y-123409977D02*
X226171694Y-123337406D01*
X226171694Y-123337406D02*
X226099122Y-123264834D01*
X226099122Y-123264834D02*
X225953979Y-123228548D01*
X225953979Y-123228548D02*
X225699979Y-123228548D01*
X225699979Y-123228548D02*
X225554836Y-123264834D01*
X225554836Y-123264834D02*
X225482265Y-123337406D01*
X225482265Y-123337406D02*
X225445979Y-123409977D01*
X226207979Y-124063120D02*
X225445979Y-124063120D01*
X226207979Y-124498549D02*
X225772551Y-124171977D01*
X225445979Y-124498549D02*
X225881408Y-124063120D01*
X226207979Y-124825120D02*
X225445979Y-124825120D01*
X225808836Y-125187977D02*
X225808836Y-125441977D01*
X226207979Y-125550834D02*
X226207979Y-125187977D01*
X226207979Y-125187977D02*
X225445979Y-125187977D01*
X225445979Y-125187977D02*
X225445979Y-125550834D01*
X226171694Y-125841120D02*
X226207979Y-125949978D01*
X226207979Y-125949978D02*
X226207979Y-126131406D01*
X226207979Y-126131406D02*
X226171694Y-126203978D01*
X226171694Y-126203978D02*
X226135408Y-126240263D01*
X226135408Y-126240263D02*
X226062836Y-126276549D01*
X226062836Y-126276549D02*
X225990265Y-126276549D01*
X225990265Y-126276549D02*
X225917694Y-126240263D01*
X225917694Y-126240263D02*
X225881408Y-126203978D01*
X225881408Y-126203978D02*
X225845122Y-126131406D01*
X225845122Y-126131406D02*
X225808836Y-125986263D01*
X225808836Y-125986263D02*
X225772551Y-125913692D01*
X225772551Y-125913692D02*
X225736265Y-125877406D01*
X225736265Y-125877406D02*
X225663694Y-125841120D01*
X225663694Y-125841120D02*
X225591122Y-125841120D01*
X225591122Y-125841120D02*
X225518551Y-125877406D01*
X225518551Y-125877406D02*
X225482265Y-125913692D01*
X225482265Y-125913692D02*
X225445979Y-125986263D01*
X225445979Y-125986263D02*
X225445979Y-126167692D01*
X225445979Y-126167692D02*
X225482265Y-126276549D01*
X226672756Y-119781404D02*
X227434756Y-119962832D01*
X227434756Y-119962832D02*
X226890471Y-120107975D01*
X226890471Y-120107975D02*
X227434756Y-120253118D01*
X227434756Y-120253118D02*
X226672756Y-120434547D01*
X227362185Y-121160261D02*
X227398471Y-121123975D01*
X227398471Y-121123975D02*
X227434756Y-121015118D01*
X227434756Y-121015118D02*
X227434756Y-120942546D01*
X227434756Y-120942546D02*
X227398471Y-120833689D01*
X227398471Y-120833689D02*
X227325899Y-120761118D01*
X227325899Y-120761118D02*
X227253328Y-120724832D01*
X227253328Y-120724832D02*
X227108185Y-120688546D01*
X227108185Y-120688546D02*
X226999328Y-120688546D01*
X226999328Y-120688546D02*
X226854185Y-120724832D01*
X226854185Y-120724832D02*
X226781613Y-120761118D01*
X226781613Y-120761118D02*
X226709042Y-120833689D01*
X226709042Y-120833689D02*
X226672756Y-120942546D01*
X226672756Y-120942546D02*
X226672756Y-121015118D01*
X226672756Y-121015118D02*
X226709042Y-121123975D01*
X226709042Y-121123975D02*
X226745328Y-121160261D01*
X227434756Y-121486832D02*
X226672756Y-121486832D01*
X226672756Y-121486832D02*
X226672756Y-121777118D01*
X226672756Y-121777118D02*
X226709042Y-121849689D01*
X226709042Y-121849689D02*
X226745328Y-121885975D01*
X226745328Y-121885975D02*
X226817899Y-121922261D01*
X226817899Y-121922261D02*
X226926756Y-121922261D01*
X226926756Y-121922261D02*
X226999328Y-121885975D01*
X226999328Y-121885975D02*
X227035613Y-121849689D01*
X227035613Y-121849689D02*
X227071899Y-121777118D01*
X227071899Y-121777118D02*
X227071899Y-121486832D01*
X227144471Y-122248832D02*
X227144471Y-122829404D01*
X226745328Y-123155975D02*
X226709042Y-123192261D01*
X226709042Y-123192261D02*
X226672756Y-123264833D01*
X226672756Y-123264833D02*
X226672756Y-123446261D01*
X226672756Y-123446261D02*
X226709042Y-123518833D01*
X226709042Y-123518833D02*
X226745328Y-123555118D01*
X226745328Y-123555118D02*
X226817899Y-123591404D01*
X226817899Y-123591404D02*
X226890471Y-123591404D01*
X226890471Y-123591404D02*
X226999328Y-123555118D01*
X226999328Y-123555118D02*
X227434756Y-123119690D01*
X227434756Y-123119690D02*
X227434756Y-123591404D01*
X226926756Y-124244547D02*
X227434756Y-124244547D01*
X226636471Y-124063118D02*
X227180756Y-123881689D01*
X227180756Y-123881689D02*
X227180756Y-124353404D01*
X226672756Y-124571118D02*
X226672756Y-125042832D01*
X226672756Y-125042832D02*
X226963042Y-124788832D01*
X226963042Y-124788832D02*
X226963042Y-124897689D01*
X226963042Y-124897689D02*
X226999328Y-124970261D01*
X226999328Y-124970261D02*
X227035613Y-125006546D01*
X227035613Y-125006546D02*
X227108185Y-125042832D01*
X227108185Y-125042832D02*
X227289613Y-125042832D01*
X227289613Y-125042832D02*
X227362185Y-125006546D01*
X227362185Y-125006546D02*
X227398471Y-124970261D01*
X227398471Y-124970261D02*
X227434756Y-124897689D01*
X227434756Y-124897689D02*
X227434756Y-124679975D01*
X227434756Y-124679975D02*
X227398471Y-124607403D01*
X227398471Y-124607403D02*
X227362185Y-124571118D01*
X226672756Y-125732260D02*
X226672756Y-125369403D01*
X226672756Y-125369403D02*
X227035613Y-125333117D01*
X227035613Y-125333117D02*
X226999328Y-125369403D01*
X226999328Y-125369403D02*
X226963042Y-125441975D01*
X226963042Y-125441975D02*
X226963042Y-125623403D01*
X226963042Y-125623403D02*
X226999328Y-125695975D01*
X226999328Y-125695975D02*
X227035613Y-125732260D01*
X227035613Y-125732260D02*
X227108185Y-125768546D01*
X227108185Y-125768546D02*
X227289613Y-125768546D01*
X227289613Y-125768546D02*
X227362185Y-125732260D01*
X227362185Y-125732260D02*
X227398471Y-125695975D01*
X227398471Y-125695975D02*
X227434756Y-125623403D01*
X227434756Y-125623403D02*
X227434756Y-125441975D01*
X227434756Y-125441975D02*
X227398471Y-125369403D01*
X227398471Y-125369403D02*
X227362185Y-125333117D01*
D12*
X235160959Y-121483966D02*
X234858578Y-121272299D01*
X235160959Y-121121109D02*
X234525959Y-121121109D01*
X234525959Y-121121109D02*
X234525959Y-121363014D01*
X234525959Y-121363014D02*
X234556197Y-121423490D01*
X234556197Y-121423490D02*
X234586435Y-121453728D01*
X234586435Y-121453728D02*
X234646911Y-121483966D01*
X234646911Y-121483966D02*
X234737625Y-121483966D01*
X234737625Y-121483966D02*
X234798101Y-121453728D01*
X234798101Y-121453728D02*
X234828340Y-121423490D01*
X234828340Y-121423490D02*
X234858578Y-121363014D01*
X234858578Y-121363014D02*
X234858578Y-121121109D01*
X234525959Y-121695633D02*
X234525959Y-122088728D01*
X234525959Y-122088728D02*
X234767863Y-121877061D01*
X234767863Y-121877061D02*
X234767863Y-121967776D01*
X234767863Y-121967776D02*
X234798101Y-122028252D01*
X234798101Y-122028252D02*
X234828340Y-122058490D01*
X234828340Y-122058490D02*
X234888816Y-122088728D01*
X234888816Y-122088728D02*
X235040006Y-122088728D01*
X235040006Y-122088728D02*
X235100482Y-122058490D01*
X235100482Y-122058490D02*
X235130721Y-122028252D01*
X235130721Y-122028252D02*
X235160959Y-121967776D01*
X235160959Y-121967776D02*
X235160959Y-121786347D01*
X235160959Y-121786347D02*
X235130721Y-121725871D01*
X235130721Y-121725871D02*
X235100482Y-121695633D01*
X233196682Y-123454166D02*
X233226921Y-123423928D01*
X233226921Y-123423928D02*
X233257159Y-123333214D01*
X233257159Y-123333214D02*
X233257159Y-123272738D01*
X233257159Y-123272738D02*
X233226921Y-123182023D01*
X233226921Y-123182023D02*
X233166444Y-123121547D01*
X233166444Y-123121547D02*
X233105968Y-123091309D01*
X233105968Y-123091309D02*
X232985016Y-123061071D01*
X232985016Y-123061071D02*
X232894301Y-123061071D01*
X232894301Y-123061071D02*
X232773349Y-123091309D01*
X232773349Y-123091309D02*
X232712873Y-123121547D01*
X232712873Y-123121547D02*
X232652397Y-123182023D01*
X232652397Y-123182023D02*
X232622159Y-123272738D01*
X232622159Y-123272738D02*
X232622159Y-123333214D01*
X232622159Y-123333214D02*
X232652397Y-123423928D01*
X232652397Y-123423928D02*
X232682635Y-123454166D01*
X232682635Y-123696071D02*
X232652397Y-123726309D01*
X232652397Y-123726309D02*
X232622159Y-123786785D01*
X232622159Y-123786785D02*
X232622159Y-123937976D01*
X232622159Y-123937976D02*
X232652397Y-123998452D01*
X232652397Y-123998452D02*
X232682635Y-124028690D01*
X232682635Y-124028690D02*
X232743111Y-124058928D01*
X232743111Y-124058928D02*
X232803587Y-124058928D01*
X232803587Y-124058928D02*
X232894301Y-124028690D01*
X232894301Y-124028690D02*
X233257159Y-123665833D01*
X233257159Y-123665833D02*
X233257159Y-124058928D01*
X230147482Y-111069966D02*
X230177721Y-111039728D01*
X230177721Y-111039728D02*
X230207959Y-110949014D01*
X230207959Y-110949014D02*
X230207959Y-110888538D01*
X230207959Y-110888538D02*
X230177721Y-110797823D01*
X230177721Y-110797823D02*
X230117244Y-110737347D01*
X230117244Y-110737347D02*
X230056768Y-110707109D01*
X230056768Y-110707109D02*
X229935816Y-110676871D01*
X229935816Y-110676871D02*
X229845101Y-110676871D01*
X229845101Y-110676871D02*
X229724149Y-110707109D01*
X229724149Y-110707109D02*
X229663673Y-110737347D01*
X229663673Y-110737347D02*
X229603197Y-110797823D01*
X229603197Y-110797823D02*
X229572959Y-110888538D01*
X229572959Y-110888538D02*
X229572959Y-110949014D01*
X229572959Y-110949014D02*
X229603197Y-111039728D01*
X229603197Y-111039728D02*
X229633435Y-111069966D01*
X229784625Y-111614252D02*
X230207959Y-111614252D01*
X229542721Y-111463061D02*
X229996292Y-111311871D01*
X229996292Y-111311871D02*
X229996292Y-111704966D01*
X234373559Y-116914990D02*
X234887606Y-116914990D01*
X234887606Y-116914990D02*
X234948082Y-116945228D01*
X234948082Y-116945228D02*
X234978321Y-116975466D01*
X234978321Y-116975466D02*
X235008559Y-117035942D01*
X235008559Y-117035942D02*
X235008559Y-117156895D01*
X235008559Y-117156895D02*
X234978321Y-117217371D01*
X234978321Y-117217371D02*
X234948082Y-117247609D01*
X234948082Y-117247609D02*
X234887606Y-117277847D01*
X234887606Y-117277847D02*
X234373559Y-117277847D01*
X234434035Y-117549990D02*
X234403797Y-117580228D01*
X234403797Y-117580228D02*
X234373559Y-117640704D01*
X234373559Y-117640704D02*
X234373559Y-117791895D01*
X234373559Y-117791895D02*
X234403797Y-117852371D01*
X234403797Y-117852371D02*
X234434035Y-117882609D01*
X234434035Y-117882609D02*
X234494511Y-117912847D01*
X234494511Y-117912847D02*
X234554987Y-117912847D01*
X234554987Y-117912847D02*
X234645701Y-117882609D01*
X234645701Y-117882609D02*
X235008559Y-117519752D01*
X235008559Y-117519752D02*
X235008559Y-117912847D01*
X232747959Y-127644166D02*
X232445578Y-127432499D01*
X232747959Y-127281309D02*
X232112959Y-127281309D01*
X232112959Y-127281309D02*
X232112959Y-127523214D01*
X232112959Y-127523214D02*
X232143197Y-127583690D01*
X232143197Y-127583690D02*
X232173435Y-127613928D01*
X232173435Y-127613928D02*
X232233911Y-127644166D01*
X232233911Y-127644166D02*
X232324625Y-127644166D01*
X232324625Y-127644166D02*
X232385101Y-127613928D01*
X232385101Y-127613928D02*
X232415340Y-127583690D01*
X232415340Y-127583690D02*
X232445578Y-127523214D01*
X232445578Y-127523214D02*
X232445578Y-127281309D01*
X232112959Y-127855833D02*
X232112959Y-128279166D01*
X232112959Y-128279166D02*
X232747959Y-128007023D01*
X228248633Y-119403482D02*
X228278871Y-119433721D01*
X228278871Y-119433721D02*
X228369585Y-119463959D01*
X228369585Y-119463959D02*
X228430061Y-119463959D01*
X228430061Y-119463959D02*
X228520776Y-119433721D01*
X228520776Y-119433721D02*
X228581252Y-119373244D01*
X228581252Y-119373244D02*
X228611490Y-119312768D01*
X228611490Y-119312768D02*
X228641728Y-119191816D01*
X228641728Y-119191816D02*
X228641728Y-119101101D01*
X228641728Y-119101101D02*
X228611490Y-118980149D01*
X228611490Y-118980149D02*
X228581252Y-118919673D01*
X228581252Y-118919673D02*
X228520776Y-118859197D01*
X228520776Y-118859197D02*
X228430061Y-118828959D01*
X228430061Y-118828959D02*
X228369585Y-118828959D01*
X228369585Y-118828959D02*
X228278871Y-118859197D01*
X228278871Y-118859197D02*
X228248633Y-118889435D01*
X227674109Y-118828959D02*
X227976490Y-118828959D01*
X227976490Y-118828959D02*
X228006728Y-119131340D01*
X228006728Y-119131340D02*
X227976490Y-119101101D01*
X227976490Y-119101101D02*
X227916014Y-119070863D01*
X227916014Y-119070863D02*
X227764823Y-119070863D01*
X227764823Y-119070863D02*
X227704347Y-119101101D01*
X227704347Y-119101101D02*
X227674109Y-119131340D01*
X227674109Y-119131340D02*
X227643871Y-119191816D01*
X227643871Y-119191816D02*
X227643871Y-119343006D01*
X227643871Y-119343006D02*
X227674109Y-119403482D01*
X227674109Y-119403482D02*
X227704347Y-119433721D01*
X227704347Y-119433721D02*
X227764823Y-119463959D01*
X227764823Y-119463959D02*
X227916014Y-119463959D01*
X227916014Y-119463959D02*
X227976490Y-119433721D01*
X227976490Y-119433721D02*
X228006728Y-119403482D01*
X236227759Y-134031566D02*
X235925378Y-133819899D01*
X236227759Y-133668709D02*
X235592759Y-133668709D01*
X235592759Y-133668709D02*
X235592759Y-133910614D01*
X235592759Y-133910614D02*
X235622997Y-133971090D01*
X235622997Y-133971090D02*
X235653235Y-134001328D01*
X235653235Y-134001328D02*
X235713711Y-134031566D01*
X235713711Y-134031566D02*
X235804425Y-134031566D01*
X235804425Y-134031566D02*
X235864901Y-134001328D01*
X235864901Y-134001328D02*
X235895140Y-133971090D01*
X235895140Y-133971090D02*
X235925378Y-133910614D01*
X235925378Y-133910614D02*
X235925378Y-133668709D01*
X235592759Y-134606090D02*
X235592759Y-134303709D01*
X235592759Y-134303709D02*
X235895140Y-134273471D01*
X235895140Y-134273471D02*
X235864901Y-134303709D01*
X235864901Y-134303709D02*
X235834663Y-134364185D01*
X235834663Y-134364185D02*
X235834663Y-134515376D01*
X235834663Y-134515376D02*
X235864901Y-134575852D01*
X235864901Y-134575852D02*
X235895140Y-134606090D01*
X235895140Y-134606090D02*
X235955616Y-134636328D01*
X235955616Y-134636328D02*
X236106806Y-134636328D01*
X236106806Y-134636328D02*
X236167282Y-134606090D01*
X236167282Y-134606090D02*
X236197521Y-134575852D01*
X236197521Y-134575852D02*
X236227759Y-134515376D01*
X236227759Y-134515376D02*
X236227759Y-134364185D01*
X236227759Y-134364185D02*
X236197521Y-134303709D01*
X236197521Y-134303709D02*
X236167282Y-134273471D01*
X238488359Y-123465166D02*
X238185978Y-123253499D01*
X238488359Y-123102309D02*
X237853359Y-123102309D01*
X237853359Y-123102309D02*
X237853359Y-123344214D01*
X237853359Y-123344214D02*
X237883597Y-123404690D01*
X237883597Y-123404690D02*
X237913835Y-123434928D01*
X237913835Y-123434928D02*
X237974311Y-123465166D01*
X237974311Y-123465166D02*
X238065025Y-123465166D01*
X238065025Y-123465166D02*
X238125501Y-123434928D01*
X238125501Y-123434928D02*
X238155740Y-123404690D01*
X238155740Y-123404690D02*
X238185978Y-123344214D01*
X238185978Y-123344214D02*
X238185978Y-123102309D01*
X237913835Y-123707071D02*
X237883597Y-123737309D01*
X237883597Y-123737309D02*
X237853359Y-123797785D01*
X237853359Y-123797785D02*
X237853359Y-123948976D01*
X237853359Y-123948976D02*
X237883597Y-124009452D01*
X237883597Y-124009452D02*
X237913835Y-124039690D01*
X237913835Y-124039690D02*
X237974311Y-124069928D01*
X237974311Y-124069928D02*
X238034787Y-124069928D01*
X238034787Y-124069928D02*
X238125501Y-124039690D01*
X238125501Y-124039690D02*
X238488359Y-123676833D01*
X238488359Y-123676833D02*
X238488359Y-124069928D01*
X237291033Y-127963282D02*
X237321271Y-127993521D01*
X237321271Y-127993521D02*
X237411985Y-128023759D01*
X237411985Y-128023759D02*
X237472461Y-128023759D01*
X237472461Y-128023759D02*
X237563176Y-127993521D01*
X237563176Y-127993521D02*
X237623652Y-127933044D01*
X237623652Y-127933044D02*
X237653890Y-127872568D01*
X237653890Y-127872568D02*
X237684128Y-127751616D01*
X237684128Y-127751616D02*
X237684128Y-127660901D01*
X237684128Y-127660901D02*
X237653890Y-127539949D01*
X237653890Y-127539949D02*
X237623652Y-127479473D01*
X237623652Y-127479473D02*
X237563176Y-127418997D01*
X237563176Y-127418997D02*
X237472461Y-127388759D01*
X237472461Y-127388759D02*
X237411985Y-127388759D01*
X237411985Y-127388759D02*
X237321271Y-127418997D01*
X237321271Y-127418997D02*
X237291033Y-127449235D01*
X236686271Y-128023759D02*
X237049128Y-128023759D01*
X236867700Y-128023759D02*
X236867700Y-127388759D01*
X236867700Y-127388759D02*
X236928176Y-127479473D01*
X236928176Y-127479473D02*
X236988652Y-127539949D01*
X236988652Y-127539949D02*
X237049128Y-127570187D01*
X235157433Y-120429159D02*
X235369100Y-120126778D01*
X235520290Y-120429159D02*
X235520290Y-119794159D01*
X235520290Y-119794159D02*
X235278385Y-119794159D01*
X235278385Y-119794159D02*
X235217909Y-119824397D01*
X235217909Y-119824397D02*
X235187671Y-119854635D01*
X235187671Y-119854635D02*
X235157433Y-119915111D01*
X235157433Y-119915111D02*
X235157433Y-120005825D01*
X235157433Y-120005825D02*
X235187671Y-120066301D01*
X235187671Y-120066301D02*
X235217909Y-120096540D01*
X235217909Y-120096540D02*
X235278385Y-120126778D01*
X235278385Y-120126778D02*
X235520290Y-120126778D01*
X234552671Y-120429159D02*
X234915528Y-120429159D01*
X234734100Y-120429159D02*
X234734100Y-119794159D01*
X234734100Y-119794159D02*
X234794576Y-119884873D01*
X234794576Y-119884873D02*
X234855052Y-119945349D01*
X234855052Y-119945349D02*
X234915528Y-119975587D01*
X234293833Y-128049159D02*
X234505500Y-127746778D01*
X234656690Y-128049159D02*
X234656690Y-127414159D01*
X234656690Y-127414159D02*
X234414785Y-127414159D01*
X234414785Y-127414159D02*
X234354309Y-127444397D01*
X234354309Y-127444397D02*
X234324071Y-127474635D01*
X234324071Y-127474635D02*
X234293833Y-127535111D01*
X234293833Y-127535111D02*
X234293833Y-127625825D01*
X234293833Y-127625825D02*
X234324071Y-127686301D01*
X234324071Y-127686301D02*
X234354309Y-127716540D01*
X234354309Y-127716540D02*
X234414785Y-127746778D01*
X234414785Y-127746778D02*
X234656690Y-127746778D01*
X233749547Y-127625825D02*
X233749547Y-128049159D01*
X233900738Y-127383921D02*
X234051928Y-127837492D01*
X234051928Y-127837492D02*
X233658833Y-127837492D01*
X233373282Y-113144166D02*
X233403521Y-113113928D01*
X233403521Y-113113928D02*
X233433759Y-113023214D01*
X233433759Y-113023214D02*
X233433759Y-112962738D01*
X233433759Y-112962738D02*
X233403521Y-112872023D01*
X233403521Y-112872023D02*
X233343044Y-112811547D01*
X233343044Y-112811547D02*
X233282568Y-112781309D01*
X233282568Y-112781309D02*
X233161616Y-112751071D01*
X233161616Y-112751071D02*
X233070901Y-112751071D01*
X233070901Y-112751071D02*
X232949949Y-112781309D01*
X232949949Y-112781309D02*
X232889473Y-112811547D01*
X232889473Y-112811547D02*
X232828997Y-112872023D01*
X232828997Y-112872023D02*
X232798759Y-112962738D01*
X232798759Y-112962738D02*
X232798759Y-113023214D01*
X232798759Y-113023214D02*
X232828997Y-113113928D01*
X232828997Y-113113928D02*
X232859235Y-113144166D01*
X232798759Y-113355833D02*
X232798759Y-113748928D01*
X232798759Y-113748928D02*
X233040663Y-113537261D01*
X233040663Y-113537261D02*
X233040663Y-113627976D01*
X233040663Y-113627976D02*
X233070901Y-113688452D01*
X233070901Y-113688452D02*
X233101140Y-113718690D01*
X233101140Y-113718690D02*
X233161616Y-113748928D01*
X233161616Y-113748928D02*
X233312806Y-113748928D01*
X233312806Y-113748928D02*
X233373282Y-113718690D01*
X233373282Y-113718690D02*
X233403521Y-113688452D01*
X233403521Y-113688452D02*
X233433759Y-113627976D01*
X233433759Y-113627976D02*
X233433759Y-113446547D01*
X233433759Y-113446547D02*
X233403521Y-113386071D01*
X233403521Y-113386071D02*
X233373282Y-113355833D01*
X229983809Y-120652159D02*
X229983809Y-121166206D01*
X229983809Y-121166206D02*
X229953571Y-121226682D01*
X229953571Y-121226682D02*
X229923333Y-121256921D01*
X229923333Y-121256921D02*
X229862857Y-121287159D01*
X229862857Y-121287159D02*
X229741904Y-121287159D01*
X229741904Y-121287159D02*
X229681428Y-121256921D01*
X229681428Y-121256921D02*
X229651190Y-121226682D01*
X229651190Y-121226682D02*
X229620952Y-121166206D01*
X229620952Y-121166206D02*
X229620952Y-120652159D01*
X229379047Y-120652159D02*
X228985952Y-120652159D01*
X228985952Y-120652159D02*
X229197619Y-120894063D01*
X229197619Y-120894063D02*
X229106904Y-120894063D01*
X229106904Y-120894063D02*
X229046428Y-120924301D01*
X229046428Y-120924301D02*
X229016190Y-120954540D01*
X229016190Y-120954540D02*
X228985952Y-121015016D01*
X228985952Y-121015016D02*
X228985952Y-121166206D01*
X228985952Y-121166206D02*
X229016190Y-121226682D01*
X229016190Y-121226682D02*
X229046428Y-121256921D01*
X229046428Y-121256921D02*
X229106904Y-121287159D01*
X229106904Y-121287159D02*
X229288333Y-121287159D01*
X229288333Y-121287159D02*
X229348809Y-121256921D01*
X229348809Y-121256921D02*
X229379047Y-121226682D01*
X234881559Y-131466166D02*
X234579178Y-131254499D01*
X234881559Y-131103309D02*
X234246559Y-131103309D01*
X234246559Y-131103309D02*
X234246559Y-131345214D01*
X234246559Y-131345214D02*
X234276797Y-131405690D01*
X234276797Y-131405690D02*
X234307035Y-131435928D01*
X234307035Y-131435928D02*
X234367511Y-131466166D01*
X234367511Y-131466166D02*
X234458225Y-131466166D01*
X234458225Y-131466166D02*
X234518701Y-131435928D01*
X234518701Y-131435928D02*
X234548940Y-131405690D01*
X234548940Y-131405690D02*
X234579178Y-131345214D01*
X234579178Y-131345214D02*
X234579178Y-131103309D01*
X234246559Y-132010452D02*
X234246559Y-131889499D01*
X234246559Y-131889499D02*
X234276797Y-131829023D01*
X234276797Y-131829023D02*
X234307035Y-131798785D01*
X234307035Y-131798785D02*
X234397749Y-131738309D01*
X234397749Y-131738309D02*
X234518701Y-131708071D01*
X234518701Y-131708071D02*
X234760606Y-131708071D01*
X234760606Y-131708071D02*
X234821082Y-131738309D01*
X234821082Y-131738309D02*
X234851321Y-131768547D01*
X234851321Y-131768547D02*
X234881559Y-131829023D01*
X234881559Y-131829023D02*
X234881559Y-131949976D01*
X234881559Y-131949976D02*
X234851321Y-132010452D01*
X234851321Y-132010452D02*
X234821082Y-132040690D01*
X234821082Y-132040690D02*
X234760606Y-132070928D01*
X234760606Y-132070928D02*
X234609416Y-132070928D01*
X234609416Y-132070928D02*
X234548940Y-132040690D01*
X234548940Y-132040690D02*
X234518701Y-132010452D01*
X234518701Y-132010452D02*
X234488463Y-131949976D01*
X234488463Y-131949976D02*
X234488463Y-131829023D01*
X234488463Y-131829023D02*
X234518701Y-131768547D01*
X234518701Y-131768547D02*
X234548940Y-131738309D01*
X234548940Y-131738309D02*
X234609416Y-131708071D01*
X228150559Y-112924166D02*
X227848178Y-112712499D01*
X228150559Y-112561309D02*
X227515559Y-112561309D01*
X227515559Y-112561309D02*
X227515559Y-112803214D01*
X227515559Y-112803214D02*
X227545797Y-112863690D01*
X227545797Y-112863690D02*
X227576035Y-112893928D01*
X227576035Y-112893928D02*
X227636511Y-112924166D01*
X227636511Y-112924166D02*
X227727225Y-112924166D01*
X227727225Y-112924166D02*
X227787701Y-112893928D01*
X227787701Y-112893928D02*
X227817940Y-112863690D01*
X227817940Y-112863690D02*
X227848178Y-112803214D01*
X227848178Y-112803214D02*
X227848178Y-112561309D01*
X227787701Y-113287023D02*
X227757463Y-113226547D01*
X227757463Y-113226547D02*
X227727225Y-113196309D01*
X227727225Y-113196309D02*
X227666749Y-113166071D01*
X227666749Y-113166071D02*
X227636511Y-113166071D01*
X227636511Y-113166071D02*
X227576035Y-113196309D01*
X227576035Y-113196309D02*
X227545797Y-113226547D01*
X227545797Y-113226547D02*
X227515559Y-113287023D01*
X227515559Y-113287023D02*
X227515559Y-113407976D01*
X227515559Y-113407976D02*
X227545797Y-113468452D01*
X227545797Y-113468452D02*
X227576035Y-113498690D01*
X227576035Y-113498690D02*
X227636511Y-113528928D01*
X227636511Y-113528928D02*
X227666749Y-113528928D01*
X227666749Y-113528928D02*
X227727225Y-113498690D01*
X227727225Y-113498690D02*
X227757463Y-113468452D01*
X227757463Y-113468452D02*
X227787701Y-113407976D01*
X227787701Y-113407976D02*
X227787701Y-113287023D01*
X227787701Y-113287023D02*
X227817940Y-113226547D01*
X227817940Y-113226547D02*
X227848178Y-113196309D01*
X227848178Y-113196309D02*
X227908654Y-113166071D01*
X227908654Y-113166071D02*
X228029606Y-113166071D01*
X228029606Y-113166071D02*
X228090082Y-113196309D01*
X228090082Y-113196309D02*
X228120321Y-113226547D01*
X228120321Y-113226547D02*
X228150559Y-113287023D01*
X228150559Y-113287023D02*
X228150559Y-113407976D01*
X228150559Y-113407976D02*
X228120321Y-113468452D01*
X228120321Y-113468452D02*
X228090082Y-113498690D01*
X228090082Y-113498690D02*
X228029606Y-113528928D01*
X228029606Y-113528928D02*
X227908654Y-113528928D01*
X227908654Y-113528928D02*
X227848178Y-113498690D01*
X227848178Y-113498690D02*
X227817940Y-113468452D01*
X227817940Y-113468452D02*
X227787701Y-113407976D01*
D13*
%TO.C,R3*%
X234986300Y-123808258D02*
X234986300Y-123333742D01*
X236031300Y-123808258D02*
X236031300Y-123333742D01*
%TO.C,C2*%
X233474800Y-123430420D02*
X233474800Y-123711580D01*
X234494800Y-123430420D02*
X234494800Y-123711580D01*
%TO.C,C4*%
X229995000Y-113170580D02*
X229995000Y-112889420D01*
X231015000Y-113170580D02*
X231015000Y-112889420D01*
D14*
%TO.C,U2*%
X230606800Y-116659200D02*
X230906800Y-116659200D01*
X230606800Y-117459200D02*
X230606800Y-116659200D01*
X230606800Y-119459200D02*
X230606800Y-118659200D01*
X230906800Y-119459200D02*
X230606800Y-119459200D01*
X233506800Y-116659200D02*
X233806800Y-116659200D01*
X233506800Y-119459200D02*
X233806800Y-119459200D01*
X233806800Y-116659200D02*
X233806800Y-117459200D01*
X233806800Y-119459200D02*
X233806800Y-118659200D01*
X230406800Y-116859200D02*
X230106800Y-117159200D01*
X230106800Y-116559200D01*
X230406800Y-116859200D01*
G36*
X230406800Y-116859200D02*
G01*
X230106800Y-117159200D01*
X230106800Y-116559200D01*
X230406800Y-116859200D01*
G37*
D13*
%TO.C,R7*%
X231938300Y-129904258D02*
X231938300Y-129429742D01*
X232983300Y-129904258D02*
X232983300Y-129429742D01*
%TO.C,C5*%
X228002220Y-117549200D02*
X228283380Y-117549200D01*
X228002220Y-118569200D02*
X228283380Y-118569200D01*
%TO.C,R5*%
X234173500Y-133874742D02*
X234173500Y-134349258D01*
X235218500Y-133874742D02*
X235218500Y-134349258D01*
%TO.C,R2*%
X236510300Y-123808258D02*
X236510300Y-123333742D01*
X237555300Y-123808258D02*
X237555300Y-123333742D01*
%TO.C,C1*%
X237376580Y-126109000D02*
X237095420Y-126109000D01*
X237376580Y-127129000D02*
X237095420Y-127129000D01*
%TO.C,R1*%
X237270058Y-119619500D02*
X236795542Y-119619500D01*
X237270058Y-120664500D02*
X236795542Y-120664500D01*
D10*
%TO.C,G\u002A\u002A\u002A*%
G36*
X227799081Y-130128653D02*
G01*
X227849636Y-130128735D01*
X227898077Y-130128886D01*
X227943403Y-130129109D01*
X227984612Y-130129402D01*
X228020701Y-130129768D01*
X228050670Y-130130206D01*
X228073515Y-130130717D01*
X228088236Y-130131302D01*
X228093830Y-130131961D01*
X228094215Y-130132560D01*
X228095783Y-130140914D01*
X228096812Y-130156634D01*
X228097334Y-130177530D01*
X228097381Y-130201411D01*
X228096983Y-130226087D01*
X228096173Y-130249368D01*
X228094981Y-130269064D01*
X228093439Y-130282985D01*
X228091579Y-130288939D01*
X228087527Y-130289749D01*
X228074325Y-130290935D01*
X228053512Y-130292190D01*
X228026536Y-130293439D01*
X227994843Y-130294610D01*
X227959882Y-130295629D01*
X227932657Y-130296379D01*
X227900497Y-130297426D01*
X227872899Y-130298507D01*
X227851260Y-130299561D01*
X227836982Y-130300524D01*
X227831462Y-130301335D01*
X227831401Y-130301477D01*
X227830818Y-130308098D01*
X227830092Y-130323771D01*
X227829250Y-130347510D01*
X227828321Y-130378332D01*
X227827332Y-130415252D01*
X227826311Y-130457285D01*
X227825287Y-130503447D01*
X227824288Y-130552755D01*
X227823250Y-130605975D01*
X227822151Y-130657843D01*
X227821023Y-130701221D01*
X227819739Y-130737000D01*
X227818177Y-130766068D01*
X227816210Y-130789313D01*
X227813715Y-130807625D01*
X227810566Y-130821893D01*
X227806638Y-130833005D01*
X227801807Y-130841850D01*
X227795948Y-130849318D01*
X227788937Y-130856297D01*
X227780648Y-130863675D01*
X227773296Y-130869832D01*
X227763640Y-130876499D01*
X227752916Y-130881610D01*
X227739827Y-130885344D01*
X227723073Y-130887881D01*
X227701357Y-130889403D01*
X227673380Y-130890090D01*
X227637844Y-130890121D01*
X227593450Y-130889678D01*
X227463064Y-130888035D01*
X227441050Y-130872569D01*
X227434633Y-130867550D01*
X227418628Y-130851443D01*
X227406337Y-130834469D01*
X227393637Y-130811835D01*
X227390585Y-130474015D01*
X227390348Y-130446968D01*
X227389897Y-130390564D01*
X227389533Y-130337548D01*
X227389300Y-130296215D01*
X227518097Y-130296215D01*
X227518218Y-130485445D01*
X227518218Y-130485750D01*
X227518371Y-130529484D01*
X227518751Y-130570728D01*
X227519327Y-130608203D01*
X227520072Y-130640633D01*
X227520955Y-130666737D01*
X227521947Y-130685239D01*
X227523018Y-130694858D01*
X227523113Y-130695263D01*
X227526920Y-130708083D01*
X227532464Y-130717058D01*
X227541427Y-130722864D01*
X227555492Y-130726175D01*
X227576342Y-130727667D01*
X227605658Y-130728015D01*
X227622703Y-130727977D01*
X227643235Y-130727604D01*
X227656983Y-130726531D01*
X227666028Y-130724402D01*
X227672456Y-130720859D01*
X227678347Y-130715545D01*
X227690817Y-130703076D01*
X227690817Y-130502729D01*
X227690806Y-130472204D01*
X227690720Y-130426815D01*
X227690518Y-130390129D01*
X227690163Y-130361219D01*
X227689619Y-130339161D01*
X227688849Y-130323031D01*
X227687817Y-130311905D01*
X227686486Y-130304857D01*
X227684819Y-130300963D01*
X227682781Y-130299298D01*
X227680004Y-130298736D01*
X227667893Y-130297739D01*
X227648607Y-130296939D01*
X227624124Y-130296407D01*
X227596421Y-130296215D01*
X227518097Y-130296215D01*
X227389300Y-130296215D01*
X227389258Y-130288765D01*
X227389075Y-130245063D01*
X227388986Y-130207288D01*
X227388993Y-130176286D01*
X227389098Y-130152903D01*
X227389305Y-130137987D01*
X227389615Y-130132385D01*
X227390026Y-130132212D01*
X227397705Y-130131562D01*
X227414291Y-130130976D01*
X227438782Y-130130453D01*
X227470177Y-130129995D01*
X227507474Y-130129603D01*
X227549670Y-130129276D01*
X227595764Y-130129016D01*
X227596421Y-130129013D01*
X227644754Y-130128824D01*
X227695638Y-130128698D01*
X227747414Y-130128641D01*
X227799081Y-130128653D01*
G37*
G36*
X227772936Y-129130397D02*
G01*
X227825297Y-129130464D01*
X227868951Y-129130630D01*
X227904825Y-129130925D01*
X227933846Y-129131379D01*
X227956943Y-129132019D01*
X227975042Y-129132876D01*
X227989070Y-129133977D01*
X227999957Y-129135352D01*
X228008627Y-129137029D01*
X228016011Y-129139039D01*
X228036920Y-129147654D01*
X228062514Y-129166712D01*
X228080917Y-129192868D01*
X228091885Y-129225841D01*
X228092171Y-129227733D01*
X228093082Y-129240390D01*
X228093878Y-129261630D01*
X228094559Y-129290233D01*
X228095122Y-129324979D01*
X228095564Y-129364645D01*
X228095883Y-129408011D01*
X228096077Y-129453856D01*
X228096144Y-129500959D01*
X228096082Y-129548099D01*
X228095887Y-129594055D01*
X228095559Y-129637606D01*
X228095095Y-129677531D01*
X228094493Y-129712609D01*
X228093749Y-129741619D01*
X228092864Y-129763340D01*
X228092129Y-129776371D01*
X228090462Y-129799961D01*
X228088441Y-129816660D01*
X228085604Y-129828743D01*
X228081491Y-129838481D01*
X228075638Y-129848149D01*
X228071006Y-129854335D01*
X228055645Y-129869960D01*
X228038779Y-129882474D01*
X228037079Y-129883460D01*
X228027561Y-129888417D01*
X228017574Y-129892114D01*
X228005181Y-129894896D01*
X227988447Y-129897113D01*
X227965437Y-129899111D01*
X227934213Y-129901239D01*
X227929089Y-129901561D01*
X227896422Y-129903243D01*
X227871480Y-129903820D01*
X227855054Y-129903289D01*
X227847934Y-129901644D01*
X227846337Y-129898533D01*
X227842542Y-129886779D01*
X227837648Y-129868586D01*
X227832150Y-129846137D01*
X227826538Y-129821608D01*
X227821307Y-129797182D01*
X227816949Y-129775036D01*
X227813955Y-129757350D01*
X227812820Y-129746305D01*
X227812737Y-129732335D01*
X227883857Y-129732335D01*
X227954977Y-129732335D01*
X227954977Y-129516435D01*
X227954977Y-129300535D01*
X227739077Y-129300535D01*
X227523177Y-129300535D01*
X227523177Y-129515654D01*
X227523177Y-129730773D01*
X227584986Y-129734097D01*
X227585949Y-129734149D01*
X227609804Y-129735613D01*
X227629644Y-129737149D01*
X227643424Y-129738579D01*
X227649099Y-129739723D01*
X227649319Y-129742023D01*
X227648548Y-129752831D01*
X227646544Y-129770856D01*
X227643509Y-129794343D01*
X227639648Y-129821536D01*
X227638128Y-129831651D01*
X227632942Y-129863115D01*
X227628401Y-129885224D01*
X227624364Y-129898586D01*
X227620692Y-129903810D01*
X227619604Y-129904063D01*
X227609769Y-129904478D01*
X227592450Y-129904097D01*
X227569730Y-129902989D01*
X227543693Y-129901225D01*
X227533435Y-129900389D01*
X227496153Y-129896069D01*
X227467103Y-129889880D01*
X227444762Y-129881066D01*
X227427608Y-129868873D01*
X227414117Y-129852544D01*
X227402769Y-129831325D01*
X227401287Y-129827717D01*
X227399525Y-129821937D01*
X227398036Y-129814408D01*
X227396790Y-129804288D01*
X227395759Y-129790736D01*
X227394911Y-129772911D01*
X227394217Y-129749972D01*
X227393647Y-129721078D01*
X227393170Y-129685389D01*
X227392758Y-129642062D01*
X227392380Y-129590258D01*
X227392006Y-129529135D01*
X227391748Y-129476026D01*
X227391607Y-129412446D01*
X227391713Y-129358456D01*
X227392070Y-129313730D01*
X227392682Y-129277940D01*
X227393553Y-129250762D01*
X227394687Y-129231866D01*
X227396090Y-129220929D01*
X227401625Y-129203748D01*
X227417533Y-129177022D01*
X227439817Y-129154751D01*
X227466120Y-129139668D01*
X227466269Y-129139611D01*
X227472447Y-129137499D01*
X227479592Y-129135736D01*
X227488622Y-129134290D01*
X227500458Y-129133130D01*
X227516018Y-129132225D01*
X227536222Y-129131543D01*
X227561989Y-129131053D01*
X227594239Y-129130725D01*
X227633890Y-129130526D01*
X227681863Y-129130426D01*
X227739077Y-129130393D01*
X227772936Y-129130397D01*
G37*
G36*
X227399015Y-127868034D02*
G01*
X227406112Y-127870414D01*
X227421608Y-127876010D01*
X227444577Y-127884470D01*
X227474096Y-127895446D01*
X227509241Y-127908587D01*
X227549089Y-127923543D01*
X227592715Y-127939963D01*
X227639196Y-127957499D01*
X227687609Y-127975799D01*
X227737029Y-127994514D01*
X227786532Y-128013293D01*
X227835195Y-128031787D01*
X227882094Y-128049646D01*
X227926306Y-128066518D01*
X227966906Y-128082056D01*
X228002970Y-128095907D01*
X228033576Y-128107722D01*
X228057798Y-128117152D01*
X228074714Y-128123845D01*
X228083400Y-128127452D01*
X228097524Y-128133905D01*
X228096100Y-128192560D01*
X228094677Y-128251214D01*
X227861283Y-128347705D01*
X227627889Y-128444197D01*
X227660623Y-128458935D01*
X227663685Y-128460287D01*
X227678504Y-128466585D01*
X227701129Y-128475996D01*
X227730348Y-128488024D01*
X227764949Y-128502174D01*
X227803722Y-128517949D01*
X227845455Y-128534854D01*
X227888937Y-128552392D01*
X227908400Y-128560239D01*
X227949462Y-128576879D01*
X227987232Y-128592300D01*
X228020686Y-128606078D01*
X228048800Y-128617786D01*
X228070551Y-128627000D01*
X228084914Y-128633295D01*
X228090867Y-128636245D01*
X228092300Y-128638315D01*
X228095035Y-128649275D01*
X228096767Y-128666488D01*
X228097503Y-128687233D01*
X228097249Y-128708785D01*
X228096011Y-128728422D01*
X228093796Y-128743419D01*
X228090608Y-128751055D01*
X228087668Y-128752662D01*
X228075831Y-128757925D01*
X228056017Y-128766197D01*
X228029161Y-128777115D01*
X227996198Y-128790318D01*
X227958065Y-128805443D01*
X227915697Y-128822129D01*
X227870028Y-128840013D01*
X227821995Y-128858735D01*
X227772532Y-128877931D01*
X227722575Y-128897239D01*
X227673060Y-128916298D01*
X227624921Y-128934746D01*
X227579095Y-128952221D01*
X227536516Y-128968360D01*
X227498120Y-128982802D01*
X227464843Y-128995184D01*
X227437619Y-129005146D01*
X227417384Y-129012324D01*
X227405074Y-129016356D01*
X227398264Y-129017988D01*
X227391475Y-129016373D01*
X227387831Y-129007352D01*
X227387830Y-129007348D01*
X227386769Y-128997162D01*
X227386524Y-128980279D01*
X227386966Y-128959106D01*
X227387968Y-128936051D01*
X227389399Y-128913523D01*
X227391133Y-128893930D01*
X227393040Y-128879680D01*
X227394992Y-128873182D01*
X227398596Y-128871503D01*
X227410931Y-128866555D01*
X227431062Y-128858783D01*
X227458014Y-128848552D01*
X227490818Y-128836229D01*
X227528501Y-128822181D01*
X227570091Y-128806774D01*
X227614617Y-128790375D01*
X227649995Y-128777381D01*
X227692562Y-128761744D01*
X227731556Y-128747418D01*
X227765983Y-128734768D01*
X227794848Y-128724159D01*
X227817158Y-128715958D01*
X227831919Y-128710528D01*
X227838137Y-128708235D01*
X227838194Y-128708213D01*
X227840492Y-128707156D01*
X227841365Y-128705842D01*
X227840090Y-128703945D01*
X227835938Y-128701142D01*
X227828184Y-128697106D01*
X227816103Y-128691513D01*
X227798968Y-128684039D01*
X227776054Y-128674357D01*
X227746633Y-128662144D01*
X227709981Y-128647074D01*
X227665371Y-128628823D01*
X227612077Y-128607065D01*
X227581738Y-128594640D01*
X227539825Y-128577324D01*
X227501314Y-128561238D01*
X227467209Y-128546812D01*
X227438512Y-128534474D01*
X227416227Y-128524652D01*
X227401358Y-128517776D01*
X227394907Y-128514274D01*
X227392984Y-128512335D01*
X227389480Y-128505964D01*
X227387353Y-128495571D01*
X227386300Y-128479113D01*
X227386017Y-128454549D01*
X227386040Y-128448109D01*
X227386884Y-128421853D01*
X227388976Y-128405123D01*
X227392367Y-128397447D01*
X227397066Y-128395093D01*
X227410451Y-128389231D01*
X227431464Y-128380362D01*
X227459139Y-128368885D01*
X227492511Y-128355195D01*
X227530615Y-128339693D01*
X227572485Y-128322775D01*
X227617157Y-128304838D01*
X227656827Y-128288921D01*
X227698904Y-128271951D01*
X227737261Y-128256390D01*
X227770945Y-128242628D01*
X227799002Y-128231059D01*
X227820479Y-128222071D01*
X227834422Y-128216058D01*
X227839880Y-128213410D01*
X227839944Y-128213345D01*
X227839725Y-128211762D01*
X227836413Y-128209235D01*
X227829365Y-128205506D01*
X227817938Y-128200316D01*
X227801488Y-128193406D01*
X227779371Y-128184518D01*
X227750945Y-128173393D01*
X227715566Y-128159771D01*
X227672590Y-128143395D01*
X227621375Y-128124005D01*
X227561277Y-128101342D01*
X227541644Y-128093901D01*
X227505182Y-128079819D01*
X227472032Y-128066680D01*
X227443439Y-128054998D01*
X227420647Y-128045284D01*
X227404902Y-128038054D01*
X227397447Y-128033818D01*
X227397042Y-128033456D01*
X227391263Y-128026905D01*
X227387924Y-128018419D01*
X227386387Y-128005262D01*
X227386017Y-127984695D01*
X227386226Y-127964050D01*
X227387359Y-127933418D01*
X227389334Y-127907011D01*
X227391990Y-127886313D01*
X227395165Y-127872806D01*
X227398698Y-127867975D01*
X227399015Y-127868034D01*
G37*
G36*
X228118480Y-126815030D02*
G01*
X228141961Y-126818093D01*
X228170502Y-126822557D01*
X228202600Y-126828163D01*
X228236757Y-126834652D01*
X228271469Y-126841765D01*
X228305238Y-126849242D01*
X228336560Y-126856824D01*
X228359692Y-126862853D01*
X228401803Y-126874438D01*
X228443583Y-126886642D01*
X228483847Y-126899060D01*
X228521407Y-126911290D01*
X228555079Y-126922930D01*
X228583674Y-126933576D01*
X228606008Y-126942825D01*
X228620894Y-126950275D01*
X228627146Y-126955523D01*
X228627460Y-126958191D01*
X228627759Y-126970068D01*
X228627776Y-126990103D01*
X228627523Y-127017040D01*
X228627014Y-127049623D01*
X228626264Y-127086593D01*
X228625285Y-127126695D01*
X228624826Y-127144276D01*
X228623769Y-127186363D01*
X228622810Y-127226626D01*
X228621988Y-127263397D01*
X228621337Y-127295012D01*
X228620895Y-127319803D01*
X228620698Y-127336104D01*
X228620457Y-127380813D01*
X228639149Y-127388623D01*
X228646962Y-127392082D01*
X228668778Y-127402761D01*
X228696584Y-127417304D01*
X228728586Y-127434712D01*
X228762990Y-127453987D01*
X228798004Y-127474131D01*
X228831833Y-127494145D01*
X228862685Y-127513033D01*
X228880009Y-127523669D01*
X228903359Y-127537357D01*
X228923254Y-127548268D01*
X228938003Y-127555485D01*
X228945916Y-127558094D01*
X228947310Y-127557783D01*
X228956818Y-127553589D01*
X228973707Y-127544930D01*
X228996983Y-127532357D01*
X229025648Y-127516422D01*
X229058707Y-127497675D01*
X229095165Y-127476669D01*
X229134026Y-127453954D01*
X229148556Y-127445411D01*
X229186272Y-127423327D01*
X229220963Y-127403141D01*
X229251678Y-127385400D01*
X229277462Y-127370651D01*
X229297363Y-127359439D01*
X229310428Y-127352312D01*
X229315704Y-127349814D01*
X229315851Y-127349836D01*
X229321492Y-127353579D01*
X229333309Y-127363026D01*
X229350056Y-127377130D01*
X229370489Y-127394846D01*
X229393365Y-127415127D01*
X229406313Y-127426842D01*
X229436182Y-127454612D01*
X229467779Y-127484869D01*
X229500280Y-127516747D01*
X229532860Y-127549381D01*
X229564695Y-127581909D01*
X229594960Y-127613464D01*
X229622831Y-127643182D01*
X229647483Y-127670199D01*
X229668092Y-127693650D01*
X229683834Y-127712670D01*
X229693883Y-127726396D01*
X229697417Y-127733963D01*
X229697003Y-127735423D01*
X229692586Y-127744774D01*
X229683773Y-127761513D01*
X229671104Y-127784667D01*
X229655122Y-127813263D01*
X229636369Y-127846329D01*
X229615385Y-127882890D01*
X229592713Y-127921975D01*
X229571260Y-127958967D01*
X229547224Y-128000997D01*
X229527082Y-128036935D01*
X229511112Y-128066265D01*
X229499595Y-128088471D01*
X229492811Y-128103037D01*
X229491040Y-128109447D01*
X229493078Y-128113435D01*
X229499930Y-128125311D01*
X229510551Y-128143025D01*
X229523969Y-128164963D01*
X229539214Y-128189508D01*
X229543388Y-128196227D01*
X229563601Y-128229734D01*
X229585465Y-128267253D01*
X229606610Y-128304669D01*
X229624665Y-128337868D01*
X229641521Y-128368859D01*
X229657187Y-128395348D01*
X229669129Y-128412516D01*
X229677384Y-128420420D01*
X229677758Y-128420600D01*
X229683623Y-128422201D01*
X229693901Y-128423423D01*
X229709413Y-128424277D01*
X229730979Y-128424774D01*
X229759419Y-128424926D01*
X229795553Y-128424744D01*
X229840202Y-128424239D01*
X229894187Y-128423424D01*
X230098577Y-128420069D01*
X230111436Y-128449145D01*
X230113677Y-128454278D01*
X230129956Y-128495375D01*
X230146487Y-128543901D01*
X230163422Y-128600392D01*
X230180916Y-128665384D01*
X230199121Y-128739413D01*
X230218189Y-128823015D01*
X230218840Y-128825971D01*
X230225570Y-128857404D01*
X230231444Y-128886368D01*
X230236107Y-128911003D01*
X230239207Y-128929451D01*
X230240391Y-128939855D01*
X230240725Y-128957635D01*
X230058358Y-129058750D01*
X230039826Y-129069043D01*
X229993412Y-129095024D01*
X229955341Y-129116688D01*
X229925127Y-129134328D01*
X229902285Y-129148237D01*
X229886329Y-129158709D01*
X229876773Y-129166035D01*
X229873133Y-129170510D01*
X229873023Y-129170995D01*
X229872211Y-129180187D01*
X229871548Y-129197668D01*
X229871031Y-129222019D01*
X229870658Y-129251820D01*
X229870424Y-129285653D01*
X229870326Y-129322098D01*
X229870360Y-129359737D01*
X229870524Y-129397150D01*
X229870813Y-129432918D01*
X229871225Y-129465622D01*
X229871755Y-129493843D01*
X229872401Y-129516162D01*
X229873158Y-129531159D01*
X229874024Y-129537416D01*
X229874602Y-129537968D01*
X229882035Y-129542907D01*
X229897110Y-129552045D01*
X229918854Y-129564817D01*
X229946291Y-129580660D01*
X229978447Y-129599010D01*
X230014347Y-129619304D01*
X230053017Y-129640976D01*
X230063459Y-129646809D01*
X230101701Y-129668255D01*
X230137062Y-129688214D01*
X230168541Y-129706113D01*
X230195138Y-129721378D01*
X230215851Y-129733435D01*
X230229680Y-129741712D01*
X230235625Y-129745634D01*
X230238593Y-129749616D01*
X230240060Y-129756095D01*
X230239816Y-129766836D01*
X230237814Y-129783747D01*
X230234004Y-129808738D01*
X230231204Y-129825055D01*
X230224305Y-129859856D01*
X230215503Y-129899453D01*
X230205174Y-129942510D01*
X230193694Y-129987690D01*
X230181439Y-130033655D01*
X230168786Y-130079069D01*
X230156111Y-130122594D01*
X230143790Y-130162893D01*
X230132200Y-130198630D01*
X230121717Y-130228467D01*
X230112716Y-130251067D01*
X230105575Y-130265093D01*
X230097679Y-130277151D01*
X229885645Y-130275028D01*
X229673610Y-130272904D01*
X229655144Y-130308689D01*
X229650376Y-130317876D01*
X229614888Y-130383506D01*
X229575742Y-130451739D01*
X229535492Y-130518104D01*
X229534564Y-130519591D01*
X229517848Y-130547380D01*
X229505136Y-130570502D01*
X229497050Y-130587749D01*
X229494217Y-130597914D01*
X229496582Y-130606367D01*
X229504001Y-130622802D01*
X229516014Y-130646023D01*
X229532152Y-130675127D01*
X229551947Y-130709210D01*
X229571885Y-130742969D01*
X229594518Y-130781415D01*
X229617345Y-130820297D01*
X229638570Y-130856557D01*
X229656400Y-130887140D01*
X229703123Y-130967525D01*
X229679481Y-130996360D01*
X229674066Y-131002910D01*
X229645081Y-131036668D01*
X229611255Y-131074381D01*
X229574800Y-131113691D01*
X229537927Y-131152242D01*
X229502848Y-131187677D01*
X229471776Y-131217641D01*
X229458138Y-131230310D01*
X229428136Y-131257774D01*
X229399655Y-131283322D01*
X229373673Y-131306110D01*
X229351171Y-131325299D01*
X229333127Y-131340047D01*
X229320522Y-131349512D01*
X229314334Y-131352855D01*
X229313244Y-131352630D01*
X229304756Y-131348851D01*
X229290719Y-131341372D01*
X229273532Y-131331451D01*
X229246887Y-131315553D01*
X229186352Y-131279512D01*
X229133855Y-131248383D01*
X229088937Y-131221902D01*
X229051140Y-131199806D01*
X229020004Y-131181833D01*
X228995072Y-131167717D01*
X228975885Y-131157197D01*
X228961985Y-131150009D01*
X228952913Y-131145889D01*
X228948211Y-131144575D01*
X228946812Y-131144808D01*
X228937013Y-131148784D01*
X228920462Y-131157079D01*
X228898618Y-131168910D01*
X228872939Y-131183494D01*
X228844886Y-131200046D01*
X228813804Y-131218454D01*
X228779471Y-131238295D01*
X228745843Y-131257288D01*
X228715569Y-131273938D01*
X228691295Y-131286751D01*
X228685886Y-131289535D01*
X228663666Y-131301559D01*
X228645210Y-131312466D01*
X228632310Y-131321152D01*
X228626761Y-131326511D01*
X228626468Y-131328100D01*
X228625768Y-131338686D01*
X228625118Y-131357858D01*
X228624535Y-131384494D01*
X228624038Y-131417472D01*
X228623645Y-131455673D01*
X228623374Y-131497974D01*
X228623243Y-131543255D01*
X228622997Y-131751472D01*
X228610297Y-131757510D01*
X228601741Y-131760992D01*
X228583653Y-131767415D01*
X228558748Y-131775726D01*
X228528654Y-131785425D01*
X228494999Y-131796012D01*
X228459410Y-131806984D01*
X228423516Y-131817842D01*
X228388943Y-131828084D01*
X228357321Y-131837209D01*
X228330275Y-131844717D01*
X228309435Y-131850105D01*
X228264050Y-131860807D01*
X228220479Y-131870477D01*
X228182099Y-131878351D01*
X228149833Y-131884261D01*
X228124607Y-131888038D01*
X228107344Y-131889513D01*
X228098968Y-131888519D01*
X228098104Y-131887656D01*
X228092427Y-131879525D01*
X228082556Y-131863827D01*
X228069068Y-131841534D01*
X228052542Y-131813617D01*
X228033554Y-131781050D01*
X228012682Y-131744804D01*
X227990502Y-131705851D01*
X227889854Y-131528115D01*
X227702705Y-131526887D01*
X227701475Y-131526879D01*
X227658781Y-131526705D01*
X227619241Y-131526736D01*
X227584023Y-131526956D01*
X227554295Y-131527351D01*
X227531223Y-131527904D01*
X227515977Y-131528602D01*
X227509722Y-131529427D01*
X227509273Y-131529872D01*
X227504472Y-131536944D01*
X227495417Y-131551672D01*
X227482680Y-131573078D01*
X227466834Y-131600184D01*
X227448452Y-131632011D01*
X227428107Y-131667581D01*
X227406372Y-131705915D01*
X227401493Y-131714550D01*
X227379927Y-131752565D01*
X227359828Y-131787748D01*
X227341781Y-131819094D01*
X227326369Y-131845598D01*
X227314176Y-131866256D01*
X227305784Y-131880062D01*
X227301779Y-131886011D01*
X227298851Y-131888012D01*
X227289415Y-131890043D01*
X227274207Y-131889810D01*
X227252565Y-131887203D01*
X227223831Y-131882115D01*
X227187343Y-131874436D01*
X227142444Y-131864057D01*
X227088472Y-131850871D01*
X227067218Y-131845533D01*
X227002761Y-131828744D01*
X226945156Y-131812786D01*
X226894849Y-131797810D01*
X226852289Y-131783967D01*
X226817922Y-131771408D01*
X226792196Y-131760284D01*
X226775558Y-131750745D01*
X226768456Y-131742942D01*
X226768257Y-131741929D01*
X226767650Y-131732087D01*
X226767255Y-131713556D01*
X226767072Y-131687496D01*
X226767102Y-131655064D01*
X226767343Y-131617419D01*
X226767797Y-131575719D01*
X226768463Y-131531123D01*
X226768675Y-131518062D01*
X226769253Y-131474491D01*
X226769589Y-131434348D01*
X226769689Y-131398755D01*
X226769555Y-131368833D01*
X226769192Y-131345703D01*
X226768602Y-131330488D01*
X226767790Y-131324309D01*
X226767590Y-131324069D01*
X226760999Y-131319193D01*
X226746908Y-131310276D01*
X226726569Y-131298023D01*
X226701232Y-131283137D01*
X226672151Y-131266324D01*
X226640577Y-131248289D01*
X226607763Y-131229737D01*
X226574960Y-131211371D01*
X226543420Y-131193898D01*
X226514395Y-131178021D01*
X226489138Y-131164445D01*
X226468900Y-131153876D01*
X226454934Y-131147017D01*
X226448490Y-131144575D01*
X226447492Y-131144778D01*
X226438678Y-131148631D01*
X226422405Y-131156949D01*
X226399675Y-131169180D01*
X226371489Y-131184770D01*
X226338850Y-131203168D01*
X226302760Y-131223820D01*
X226264221Y-131246175D01*
X226253125Y-131252642D01*
X226215196Y-131274567D01*
X226180014Y-131294635D01*
X226148577Y-131312292D01*
X226121886Y-131326987D01*
X226100940Y-131338168D01*
X226086741Y-131345281D01*
X226080286Y-131347775D01*
X226078980Y-131347598D01*
X226069025Y-131342559D01*
X226053135Y-131331180D01*
X226032206Y-131314277D01*
X226007133Y-131292670D01*
X225978811Y-131267173D01*
X225948137Y-131238607D01*
X225916005Y-131207786D01*
X225883310Y-131175530D01*
X225850949Y-131142656D01*
X225819816Y-131109980D01*
X225806941Y-131096181D01*
X225774685Y-131061166D01*
X225748966Y-131032425D01*
X225729271Y-131009314D01*
X225715088Y-130991190D01*
X225705903Y-130977411D01*
X225701204Y-130967333D01*
X225700478Y-130960314D01*
X225700815Y-130959257D01*
X225705162Y-130950209D01*
X225713982Y-130933724D01*
X225726705Y-130910810D01*
X225742759Y-130882477D01*
X225761575Y-130849735D01*
X225782581Y-130813592D01*
X225805207Y-130775058D01*
X225812250Y-130763113D01*
X225834271Y-130725623D01*
X225854419Y-130691114D01*
X225872141Y-130660546D01*
X225886886Y-130634878D01*
X225898102Y-130615069D01*
X225905236Y-130602078D01*
X225907737Y-130596865D01*
X225906685Y-130594350D01*
X225901104Y-130584112D01*
X225891370Y-130567296D01*
X225878224Y-130545158D01*
X225862405Y-130518952D01*
X225844655Y-130489934D01*
X225837693Y-130478576D01*
X225817814Y-130445660D01*
X225798484Y-130413012D01*
X225780917Y-130382715D01*
X225766325Y-130356854D01*
X225755923Y-130337513D01*
X225747075Y-130320767D01*
X225736550Y-130302076D01*
X225727950Y-130288156D01*
X225722559Y-130281176D01*
X225722361Y-130281025D01*
X225717563Y-130279375D01*
X225707763Y-130277996D01*
X225692226Y-130276864D01*
X225670214Y-130275954D01*
X225640991Y-130275243D01*
X225603819Y-130274707D01*
X225557961Y-130274322D01*
X225502681Y-130274065D01*
X225290517Y-130273355D01*
X225254111Y-130164428D01*
X225248001Y-130145855D01*
X225233604Y-130099881D01*
X225219564Y-130052163D01*
X225206188Y-130003969D01*
X225193780Y-129956568D01*
X225182645Y-129911229D01*
X225173090Y-129869220D01*
X225165419Y-129831810D01*
X225159937Y-129800268D01*
X225156950Y-129775862D01*
X225156764Y-129759862D01*
X225156787Y-129759667D01*
X225157836Y-129755724D01*
X225160521Y-129751456D01*
X225165644Y-129746346D01*
X225174007Y-129739876D01*
X225186413Y-129731529D01*
X225203663Y-129720789D01*
X225226561Y-129707137D01*
X225255907Y-129690056D01*
X225292505Y-129669029D01*
X225337156Y-129643540D01*
X225352107Y-129635015D01*
X225390073Y-129613326D01*
X225424906Y-129593369D01*
X225455656Y-129575691D01*
X225481373Y-129560841D01*
X225501108Y-129549366D01*
X225513909Y-129541815D01*
X225518828Y-129538736D01*
X225519510Y-129533360D01*
X225520189Y-129518943D01*
X225520826Y-129496651D01*
X225521400Y-129467639D01*
X225521888Y-129433061D01*
X225522076Y-129413691D01*
X225935107Y-129413691D01*
X225943883Y-129542691D01*
X225962390Y-129670711D01*
X225990441Y-129797104D01*
X226027846Y-129921225D01*
X226074415Y-130042427D01*
X226129960Y-130160064D01*
X226194291Y-130273492D01*
X226267220Y-130382063D01*
X226349839Y-130487314D01*
X226440223Y-130586567D01*
X226536823Y-130677957D01*
X226639298Y-130761286D01*
X226747311Y-130836354D01*
X226860522Y-130902962D01*
X226978593Y-130960911D01*
X227101184Y-131010002D01*
X227227958Y-131050037D01*
X227358575Y-131080815D01*
X227492697Y-131102138D01*
X227541654Y-131106971D01*
X227612724Y-131110896D01*
X227688564Y-131112092D01*
X227766339Y-131110626D01*
X227843212Y-131106562D01*
X227916350Y-131099964D01*
X227982917Y-131090899D01*
X228024722Y-131083495D01*
X228154083Y-131053961D01*
X228279696Y-131015252D01*
X228401171Y-130967713D01*
X228518123Y-130911688D01*
X228630162Y-130847522D01*
X228736902Y-130775561D01*
X228837955Y-130696149D01*
X228932934Y-130609631D01*
X229021450Y-130516353D01*
X229103116Y-130416660D01*
X229177544Y-130310895D01*
X229244347Y-130199406D01*
X229303137Y-130082536D01*
X229353526Y-129960630D01*
X229395127Y-129834033D01*
X229402509Y-129807388D01*
X229422844Y-129721568D01*
X229438997Y-129633180D01*
X229450376Y-129545823D01*
X229456386Y-129463095D01*
X229457374Y-129438489D01*
X229458517Y-129410825D01*
X229459553Y-129386578D01*
X229460340Y-129369115D01*
X229460531Y-129363005D01*
X229460601Y-129343361D01*
X229460228Y-129317432D01*
X229459457Y-129287877D01*
X229458338Y-129257355D01*
X229458080Y-129251494D01*
X229447125Y-129119623D01*
X229426465Y-128990691D01*
X229396146Y-128864837D01*
X229356211Y-128742196D01*
X229306705Y-128622906D01*
X229247671Y-128507101D01*
X229179154Y-128394918D01*
X229153135Y-128356663D01*
X229070497Y-128246345D01*
X228981984Y-128144034D01*
X228887831Y-128049882D01*
X228788276Y-127964044D01*
X228683556Y-127886672D01*
X228573909Y-127817918D01*
X228459571Y-127757937D01*
X228340779Y-127706879D01*
X228217772Y-127664900D01*
X228090785Y-127632151D01*
X227960057Y-127608785D01*
X227836744Y-127595177D01*
X227700454Y-127589098D01*
X227566878Y-127592786D01*
X227436079Y-127606223D01*
X227308122Y-127629392D01*
X227183073Y-127662276D01*
X227060995Y-127704857D01*
X226941954Y-127757118D01*
X226826014Y-127819042D01*
X226713240Y-127890611D01*
X226603697Y-127971808D01*
X226588940Y-127983881D01*
X226555800Y-128012633D01*
X226518942Y-128046368D01*
X226480014Y-128083448D01*
X226440665Y-128122234D01*
X226402543Y-128161087D01*
X226367296Y-128198371D01*
X226336574Y-128232446D01*
X226312024Y-128261675D01*
X226282581Y-128299600D01*
X226208271Y-128405442D01*
X226143202Y-128514383D01*
X226087213Y-128626856D01*
X226040140Y-128743295D01*
X226001822Y-128864131D01*
X225972094Y-128989798D01*
X225950796Y-129120728D01*
X225937763Y-129257355D01*
X225936253Y-129284355D01*
X225935107Y-129413691D01*
X225522076Y-129413691D01*
X225522267Y-129394072D01*
X225522514Y-129351826D01*
X225522587Y-129331283D01*
X225522660Y-129285528D01*
X225522543Y-129248634D01*
X225522205Y-129219667D01*
X225521614Y-129197694D01*
X225520740Y-129181783D01*
X225519551Y-129171000D01*
X225518015Y-129164413D01*
X225516101Y-129161087D01*
X225515419Y-129160548D01*
X225507455Y-129155481D01*
X225491866Y-129146193D01*
X225469651Y-129133257D01*
X225441812Y-129117250D01*
X225409347Y-129098747D01*
X225373259Y-129078326D01*
X225334546Y-129056561D01*
X225324154Y-129050726D01*
X225286263Y-129029270D01*
X225251435Y-129009269D01*
X225220642Y-128991299D01*
X225194854Y-128975937D01*
X225175044Y-128963761D01*
X225162183Y-128955347D01*
X225157241Y-128951272D01*
X225157227Y-128951234D01*
X225156832Y-128942438D01*
X225158508Y-128925283D01*
X225161983Y-128901283D01*
X225166983Y-128871952D01*
X225173237Y-128838802D01*
X225180472Y-128803347D01*
X225188415Y-128767100D01*
X225196795Y-128731575D01*
X225201438Y-128712993D01*
X225213236Y-128668265D01*
X225225717Y-128624002D01*
X225238489Y-128581378D01*
X225251158Y-128541566D01*
X225263330Y-128505740D01*
X225274613Y-128475076D01*
X225284613Y-128450746D01*
X225292938Y-128433925D01*
X225299193Y-128425788D01*
X225300551Y-128425416D01*
X225310626Y-128424629D01*
X225329342Y-128424067D01*
X225355613Y-128423736D01*
X225388350Y-128423641D01*
X225426466Y-128423787D01*
X225468874Y-128424177D01*
X225514485Y-128424819D01*
X225723214Y-128428240D01*
X225758889Y-128360197D01*
X225767606Y-128343777D01*
X225791029Y-128301203D01*
X225816328Y-128257050D01*
X225841924Y-128213997D01*
X225866235Y-128174722D01*
X225887681Y-128141905D01*
X225887887Y-128141601D01*
X225897894Y-128125782D01*
X225905021Y-128112518D01*
X225907736Y-128104652D01*
X225906573Y-128100496D01*
X225901061Y-128088573D01*
X225892050Y-128071769D01*
X225880687Y-128052303D01*
X225878858Y-128049278D01*
X225868207Y-128031510D01*
X225853561Y-128006914D01*
X225835847Y-127977055D01*
X225815992Y-127943499D01*
X225794925Y-127907810D01*
X225773574Y-127871554D01*
X225771251Y-127867605D01*
X225749287Y-127830171D01*
X225731988Y-127800397D01*
X225718871Y-127777306D01*
X225709455Y-127759917D01*
X225703257Y-127747251D01*
X225699793Y-127738329D01*
X225698583Y-127732172D01*
X225699143Y-127727800D01*
X225700990Y-127724234D01*
X225705506Y-127718083D01*
X225717927Y-127702918D01*
X225735522Y-127682600D01*
X225757086Y-127658433D01*
X225781415Y-127631725D01*
X225807303Y-127603783D01*
X225833547Y-127575912D01*
X225858941Y-127549420D01*
X225882282Y-127525613D01*
X225902365Y-127505797D01*
X225930021Y-127479578D01*
X225960396Y-127451665D01*
X225989588Y-127425698D01*
X226016577Y-127402532D01*
X226040346Y-127383019D01*
X226059875Y-127368016D01*
X226074147Y-127358375D01*
X226082143Y-127354953D01*
X226085960Y-127356451D01*
X226097839Y-127362475D01*
X226116555Y-127372539D01*
X226141024Y-127386025D01*
X226170164Y-127402315D01*
X226202888Y-127420792D01*
X226238113Y-127440838D01*
X226274754Y-127461837D01*
X226311728Y-127483169D01*
X226347950Y-127504218D01*
X226382335Y-127524367D01*
X226413800Y-127542996D01*
X226441260Y-127559490D01*
X226444389Y-127559956D01*
X226452820Y-127557586D01*
X226466604Y-127551272D01*
X226486527Y-127540607D01*
X226513377Y-127525188D01*
X226547940Y-127504608D01*
X226552817Y-127501677D01*
X226586537Y-127481662D01*
X226621494Y-127461293D01*
X226655215Y-127441989D01*
X226685225Y-127425167D01*
X226709052Y-127412245D01*
X226771228Y-127379460D01*
X226772552Y-127163104D01*
X226773877Y-126946747D01*
X226837377Y-126924372D01*
X226877570Y-126910723D01*
X226926551Y-126895212D01*
X226977634Y-126880057D01*
X227029356Y-126865627D01*
X227080254Y-126852292D01*
X227128863Y-126840421D01*
X227173721Y-126830382D01*
X227213363Y-126822545D01*
X227246327Y-126817280D01*
X227271148Y-126814955D01*
X227301060Y-126813875D01*
X227321441Y-126846895D01*
X227324742Y-126852348D01*
X227334519Y-126868943D01*
X227348086Y-126892330D01*
X227364658Y-126921145D01*
X227383454Y-126954023D01*
X227403689Y-126989600D01*
X227424581Y-127026514D01*
X227438154Y-127050534D01*
X227457007Y-127083824D01*
X227473869Y-127113508D01*
X227488140Y-127138536D01*
X227499222Y-127157860D01*
X227506516Y-127170429D01*
X227509424Y-127175195D01*
X227514685Y-127175677D01*
X227528978Y-127176147D01*
X227551152Y-127176583D01*
X227580061Y-127176971D01*
X227614557Y-127177295D01*
X227653494Y-127177539D01*
X227695726Y-127177689D01*
X227700454Y-127177699D01*
X227701149Y-127177700D01*
X227750185Y-127177730D01*
X227790047Y-127177580D01*
X227821628Y-127177222D01*
X227845825Y-127176626D01*
X227863531Y-127175760D01*
X227875642Y-127174595D01*
X227883053Y-127173101D01*
X227886659Y-127171248D01*
X227887112Y-127170695D01*
X227892033Y-127163054D01*
X227901201Y-127147764D01*
X227914038Y-127125828D01*
X227929963Y-127098249D01*
X227948398Y-127066029D01*
X227968761Y-127030170D01*
X227990475Y-126991675D01*
X227995593Y-126982575D01*
X228016923Y-126944759D01*
X228036670Y-126909909D01*
X228054272Y-126879009D01*
X228069166Y-126853041D01*
X228080787Y-126832990D01*
X228088572Y-126819838D01*
X228091958Y-126814568D01*
X228092701Y-126814147D01*
X228101560Y-126813628D01*
X228118480Y-126815030D01*
G37*
D13*
%TO.C,R4*%
X234425258Y-126096500D02*
X233950742Y-126096500D01*
X234425258Y-127141500D02*
X233950742Y-127141500D01*
%TO.C,C3*%
X231519000Y-113170580D02*
X231519000Y-112889420D01*
X232539000Y-113170580D02*
X232539000Y-112889420D01*
%TO.C,U3*%
X228945800Y-121961000D02*
X229420800Y-121961000D01*
X228945800Y-122436000D02*
X228945800Y-121961000D01*
X228945800Y-124941000D02*
X228945800Y-124706000D01*
X229245800Y-125181000D02*
X229420800Y-125181000D01*
X232165800Y-121961000D02*
X231690800Y-121961000D01*
X232165800Y-122436000D02*
X232165800Y-121961000D01*
X232165800Y-124706000D02*
X232165800Y-125181000D01*
X232165800Y-125181000D02*
X231690800Y-125181000D01*
X229185800Y-125511000D02*
X228705800Y-125511000D01*
X228945800Y-125181000D01*
X229185800Y-125511000D01*
G36*
X229185800Y-125511000D02*
G01*
X228705800Y-125511000D01*
X228945800Y-125181000D01*
X229185800Y-125511000D01*
G37*
%TO.C,R6*%
X233462300Y-129904258D02*
X233462300Y-129429742D01*
X234507300Y-129904258D02*
X234507300Y-129429742D01*
%TO.C,R8*%
X228458500Y-113267258D02*
X228458500Y-112792742D01*
X229503500Y-113267258D02*
X229503500Y-112792742D01*
%TD*%
M02*
