%TF.GenerationSoftware,KiCad,Pcbnew,9.0.4-9.0.4-0~ubuntu24.04.1*%
%TF.CreationDate,2025-09-20T10:39:03-07:00*%
%TF.ProjectId,mag-encoder,6d61672d-656e-4636-9f64-65722e6b6963,1*%
%TF.SameCoordinates,Original*%
%TF.FileFunction,Copper,L2,Inr*%
%TF.FilePolarity,Positive*%
%FSLAX46Y46*%
G04 Gerber Fmt 4.6, Leading zero omitted, Abs format (unit mm)*
G04 Created by KiCad (PCBNEW 9.0.4-9.0.4-0~ubuntu24.04.1) date 2025-09-20 10:39:03*
%MOMM*%
%LPD*%
G01*
G04 APERTURE LIST*
%TA.AperFunction,ComponentPad*%
%ADD10C,3.810000*%
%TD*%
%TA.AperFunction,ComponentPad*%
%ADD11R,1.700000X1.700000*%
%TD*%
%TA.AperFunction,ComponentPad*%
%ADD12O,1.700000X1.700000*%
%TD*%
%TA.AperFunction,ViaPad*%
%ADD13C,0.600000*%
%TD*%
%TA.AperFunction,ViaPad*%
%ADD14C,0.609600*%
%TD*%
%TA.AperFunction,ViaPad*%
%ADD15C,0.500000*%
%TD*%
%TA.AperFunction,Conductor*%
%ADD16C,0.254000*%
%TD*%
%TA.AperFunction,Conductor*%
%ADD17C,0.381000*%
%TD*%
G04 APERTURE END LIST*
D10*
%TO.N,*%
%TO.C,H1*%
X224840800Y-114046000D03*
%TD*%
D11*
%TO.N,GND*%
%TO.C,J1*%
X221411800Y-117221000D03*
D12*
%TO.N,+3.3V*%
X221411800Y-119761000D03*
%TO.N,/CS*%
X221411800Y-122301000D03*
%TO.N,/MOSI*%
X221411800Y-124841000D03*
%TO.N,/MISO*%
X221411800Y-127381000D03*
%TO.N,/SCLK*%
X221411800Y-129921000D03*
%TD*%
D10*
%TO.N,*%
%TO.C,H2*%
X224840800Y-133096000D03*
%TD*%
D13*
%TO.N,+3.3V*%
X234696000Y-135939583D03*
X233248200Y-112344200D03*
D14*
X233464100Y-125260100D03*
X231317800Y-125984000D03*
D13*
X229857300Y-118021100D03*
X228463539Y-115122261D03*
%TO.N,GND*%
X229946200Y-115112800D03*
D14*
X226466400Y-117068600D03*
X232003600Y-122097800D03*
D13*
X227838000Y-135661400D03*
X234443344Y-118992046D03*
D15*
X232706800Y-118059200D03*
D13*
X232867200Y-135509000D03*
D15*
X231706800Y-118059200D03*
D13*
X238658400Y-127762000D03*
D14*
X233984800Y-121793000D03*
D13*
%TO.N,+5V*%
X230530400Y-111226600D03*
%TO.N,Net-(D4-A)*%
X232511600Y-131724400D03*
%TO.N,Net-(D1-K)*%
X228981000Y-111226600D03*
%TO.N,Net-(D3-A)*%
X230835200Y-131826000D03*
%TO.N,+5V_IN*%
X236474000Y-113792000D03*
X223139000Y-121031000D03*
%TO.N,Net-(C1-Pad1)*%
X229692200Y-116586000D03*
X233150883Y-115950999D03*
X233274839Y-120568637D03*
X230505000Y-119257800D03*
X236082570Y-125386858D03*
%TO.N,/A*%
X234645200Y-125501400D03*
%TO.N,/B*%
X237032800Y-125425200D03*
%TO.N,/PWM*%
X237744000Y-121437400D03*
%TO.N,Net-(D2-A)*%
X233984800Y-131449800D03*
%TO.N,Net-(D3-K)*%
X231622600Y-115595400D03*
D14*
%TO.N,Net-(U3-MGH)*%
X229368646Y-130086100D03*
D13*
X227545900Y-116776500D03*
D14*
X231343200Y-129692400D03*
%TO.N,/MISO*%
X231123451Y-121098347D03*
X231278250Y-126904864D03*
D13*
%TO.N,Net-(U3-A)*%
X229539800Y-119710200D03*
X229694099Y-126321418D03*
%TO.N,Net-(U3-PWM)*%
X232909286Y-122614514D03*
X236971960Y-121066440D03*
X233920500Y-115611177D03*
%TO.N,Net-(R3-Pad1)*%
X235458000Y-121793000D03*
X232435400Y-120624600D03*
%TD*%
D16*
%TO.N,Net-(C1-Pad1)*%
X233150883Y-115950999D02*
X233104884Y-115905000D01*
X233104884Y-115905000D02*
X232994200Y-115905000D01*
X229692200Y-116586000D02*
X229717600Y-116560600D01*
D17*
%TO.N,Net-(U3-MGH)*%
X228092000Y-117322600D02*
X228092000Y-128809454D01*
X228092000Y-128809454D02*
X229368646Y-130086100D01*
X227545900Y-116776500D02*
X228092000Y-117322600D01*
D16*
%TO.N,Net-(U3-A)*%
X228650800Y-125278119D02*
X229694099Y-126321418D01*
X229539800Y-119710200D02*
X228650800Y-120599200D01*
X228650800Y-120599200D02*
X228650800Y-125278119D01*
%TO.N,Net-(U3-PWM)*%
X236971960Y-121066440D02*
X236971960Y-121224159D01*
X236971960Y-121224159D02*
X235581605Y-122614514D01*
X235581605Y-122614514D02*
X232909286Y-122614514D01*
%TD*%
%TA.AperFunction,Conductor*%
%TO.N,+3.3V*%
G36*
X233302804Y-112053425D02*
G01*
X233327586Y-112060064D01*
X233346297Y-112065078D01*
X233376201Y-112077464D01*
X233415194Y-112099976D01*
X233440876Y-112119683D01*
X233472714Y-112151521D01*
X233492419Y-112177201D01*
X233510629Y-112208741D01*
X233510639Y-112208756D01*
X233547555Y-112258070D01*
X233547566Y-112258082D01*
X233587915Y-112300398D01*
X233612885Y-112323371D01*
X233702604Y-112370303D01*
X233702605Y-112370304D01*
X233752733Y-112385022D01*
X233769643Y-112389988D01*
X233769647Y-112389988D01*
X233769649Y-112389989D01*
X233781462Y-112391687D01*
X233842755Y-112400500D01*
X234156150Y-112400500D01*
X234223189Y-112420185D01*
X234243831Y-112436819D01*
X234908181Y-113101169D01*
X234941666Y-113162492D01*
X234944500Y-113188850D01*
X234944500Y-115446008D01*
X234950430Y-115501161D01*
X234961639Y-115552683D01*
X234968986Y-115579463D01*
X235011608Y-115654310D01*
X235019089Y-115667448D01*
X235019915Y-115668401D01*
X235064840Y-115720248D01*
X235064843Y-115720251D01*
X235064844Y-115720252D01*
X235093216Y-115747628D01*
X235098131Y-115752371D01*
X235103185Y-115755015D01*
X235153464Y-115803532D01*
X235169530Y-115871529D01*
X235153096Y-115926888D01*
X235078658Y-116055819D01*
X235078653Y-116055829D01*
X234961502Y-116338659D01*
X234882260Y-116634392D01*
X234842301Y-116937913D01*
X234842300Y-116937929D01*
X234842300Y-117244070D01*
X234842301Y-117244086D01*
X234881281Y-117540174D01*
X234882261Y-117547611D01*
X234947766Y-117792079D01*
X234961502Y-117843340D01*
X235078654Y-118126173D01*
X235078662Y-118126189D01*
X235231731Y-118391310D01*
X235231742Y-118391326D01*
X235418109Y-118634204D01*
X235418115Y-118634211D01*
X235634588Y-118850684D01*
X235634595Y-118850690D01*
X235800385Y-118977905D01*
X235877482Y-119037064D01*
X235877489Y-119037068D01*
X236142610Y-119190137D01*
X236142626Y-119190145D01*
X236425459Y-119307297D01*
X236425461Y-119307297D01*
X236425467Y-119307300D01*
X236721189Y-119386539D01*
X237024723Y-119426500D01*
X237024730Y-119426500D01*
X237330870Y-119426500D01*
X237330877Y-119426500D01*
X237634411Y-119386539D01*
X237930133Y-119307300D01*
X238028660Y-119266489D01*
X238212973Y-119190145D01*
X238212976Y-119190143D01*
X238212982Y-119190141D01*
X238478118Y-119037064D01*
X238721006Y-118850689D01*
X238757609Y-118814086D01*
X238822619Y-118749077D01*
X238883942Y-118715592D01*
X238953634Y-118720576D01*
X239009567Y-118762448D01*
X239033984Y-118827912D01*
X239034300Y-118836758D01*
X239034300Y-127127061D01*
X239014615Y-127194100D01*
X238961811Y-127239855D01*
X238892653Y-127249799D01*
X238878207Y-127246836D01*
X238816084Y-127230190D01*
X238731401Y-127207500D01*
X238585399Y-127207500D01*
X238444371Y-127245288D01*
X238444368Y-127245289D01*
X238317932Y-127318286D01*
X238317927Y-127318290D01*
X238214690Y-127421527D01*
X238214686Y-127421532D01*
X238141689Y-127547968D01*
X238141688Y-127547971D01*
X238103900Y-127688999D01*
X238103900Y-127721097D01*
X238084215Y-127788136D01*
X238031411Y-127833891D01*
X237962253Y-127843835D01*
X237932451Y-127835659D01*
X237930142Y-127834702D01*
X237634407Y-127755460D01*
X237330886Y-127715501D01*
X237330883Y-127715500D01*
X237330877Y-127715500D01*
X237024723Y-127715500D01*
X237024717Y-127715500D01*
X237024713Y-127715501D01*
X236721192Y-127755460D01*
X236425459Y-127834702D01*
X236142626Y-127951854D01*
X236142610Y-127951862D01*
X235877489Y-128104931D01*
X235877473Y-128104942D01*
X235634595Y-128291309D01*
X235634588Y-128291315D01*
X235418115Y-128507788D01*
X235418109Y-128507795D01*
X235231742Y-128750673D01*
X235231731Y-128750689D01*
X235078662Y-129015810D01*
X235078654Y-129015826D01*
X234961502Y-129298659D01*
X234882260Y-129594392D01*
X234842301Y-129897913D01*
X234842300Y-129897929D01*
X234842300Y-130204070D01*
X234842301Y-130204086D01*
X234881243Y-130499884D01*
X234882261Y-130507611D01*
X234908968Y-130607284D01*
X234961502Y-130803340D01*
X235078654Y-131086173D01*
X235078662Y-131086189D01*
X235231731Y-131351310D01*
X235231742Y-131351326D01*
X235418109Y-131594204D01*
X235418115Y-131594211D01*
X235634588Y-131810684D01*
X235634595Y-131810690D01*
X235749683Y-131899000D01*
X235877482Y-131997064D01*
X235877489Y-131997068D01*
X236142610Y-132150137D01*
X236142626Y-132150145D01*
X236425459Y-132267297D01*
X236425461Y-132267297D01*
X236425467Y-132267300D01*
X236721189Y-132346539D01*
X237024723Y-132386500D01*
X237024730Y-132386500D01*
X237330870Y-132386500D01*
X237330877Y-132386500D01*
X237634411Y-132346539D01*
X237930133Y-132267300D01*
X238131154Y-132184035D01*
X238212973Y-132150145D01*
X238212976Y-132150143D01*
X238212982Y-132150141D01*
X238478118Y-131997064D01*
X238721006Y-131810689D01*
X238743783Y-131787912D01*
X238822619Y-131709077D01*
X238883942Y-131675592D01*
X238953634Y-131680576D01*
X239009567Y-131722448D01*
X239033984Y-131787912D01*
X239034300Y-131796758D01*
X239034300Y-133896564D01*
X239014615Y-133963603D01*
X238987747Y-133993404D01*
X238657823Y-134257259D01*
X238652545Y-134261254D01*
X238075365Y-134674353D01*
X238069882Y-134678060D01*
X237471473Y-135059777D01*
X237465799Y-135063186D01*
X236847901Y-135412412D01*
X236842054Y-135415514D01*
X236206385Y-135731278D01*
X236200380Y-135734064D01*
X235548765Y-136015459D01*
X235542621Y-136017920D01*
X234876923Y-136264141D01*
X234870656Y-136266271D01*
X234192754Y-136476623D01*
X234186382Y-136478415D01*
X233498224Y-136652293D01*
X233491765Y-136653742D01*
X232795333Y-136790646D01*
X232788807Y-136791749D01*
X232086040Y-136891300D01*
X232079463Y-136892053D01*
X231372413Y-136953957D01*
X231365806Y-136954359D01*
X230656421Y-136978448D01*
X230649802Y-136978496D01*
X229940147Y-136964698D01*
X229933535Y-136964392D01*
X229225665Y-136912746D01*
X229219079Y-136912089D01*
X228514921Y-136822738D01*
X228508379Y-136821729D01*
X227810051Y-136694942D01*
X227803572Y-136693587D01*
X227112949Y-136529703D01*
X227106552Y-136528003D01*
X226425687Y-136327508D01*
X226419389Y-136325469D01*
X225750198Y-136088930D01*
X225744019Y-136086559D01*
X225234952Y-135875428D01*
X225088385Y-135814640D01*
X225082356Y-135811949D01*
X224615449Y-135588399D01*
X227283500Y-135588399D01*
X227283500Y-135734401D01*
X227304661Y-135813373D01*
X227321288Y-135875428D01*
X227321289Y-135875431D01*
X227394286Y-136001867D01*
X227394288Y-136001870D01*
X227394289Y-136001871D01*
X227497529Y-136105111D01*
X227623971Y-136178112D01*
X227764999Y-136215900D01*
X227765001Y-136215900D01*
X227910999Y-136215900D01*
X227911001Y-136215900D01*
X228052029Y-136178112D01*
X228178471Y-136105111D01*
X228281711Y-136001871D01*
X228354712Y-135875429D01*
X228392500Y-135734401D01*
X228392500Y-135588399D01*
X228354712Y-135447371D01*
X228348146Y-135435999D01*
X232312700Y-135435999D01*
X232312700Y-135582001D01*
X232344544Y-135700843D01*
X232350488Y-135723028D01*
X232350489Y-135723031D01*
X232423486Y-135849467D01*
X232423488Y-135849470D01*
X232423489Y-135849471D01*
X232526729Y-135952711D01*
X232653171Y-136025712D01*
X232794199Y-136063500D01*
X232794201Y-136063500D01*
X232940199Y-136063500D01*
X232940201Y-136063500D01*
X233081229Y-136025712D01*
X233207671Y-135952711D01*
X233310911Y-135849471D01*
X233383912Y-135723029D01*
X233421700Y-135582001D01*
X233421700Y-135435999D01*
X233383912Y-135294971D01*
X233310911Y-135168529D01*
X233207671Y-135065289D01*
X233207670Y-135065288D01*
X233207667Y-135065286D01*
X233081231Y-134992289D01*
X233081230Y-134992288D01*
X233081229Y-134992288D01*
X232940201Y-134954500D01*
X232794199Y-134954500D01*
X232653171Y-134992288D01*
X232653168Y-134992289D01*
X232526732Y-135065286D01*
X232526727Y-135065290D01*
X232423490Y-135168527D01*
X232423486Y-135168532D01*
X232350489Y-135294968D01*
X232350488Y-135294971D01*
X232312700Y-135435999D01*
X228348146Y-135435999D01*
X228281711Y-135320929D01*
X228178471Y-135217689D01*
X228178470Y-135217688D01*
X228178467Y-135217686D01*
X228052031Y-135144689D01*
X228052030Y-135144688D01*
X228052029Y-135144688D01*
X227911001Y-135106900D01*
X227764999Y-135106900D01*
X227623971Y-135144688D01*
X227623968Y-135144689D01*
X227497532Y-135217686D01*
X227497527Y-135217690D01*
X227394290Y-135320927D01*
X227394286Y-135320932D01*
X227321289Y-135447368D01*
X227321288Y-135447371D01*
X227283500Y-135588399D01*
X224615449Y-135588399D01*
X224442147Y-135505424D01*
X224436259Y-135502408D01*
X224340221Y-135449951D01*
X224290822Y-135400540D01*
X224275979Y-135332265D01*
X224300405Y-135266804D01*
X224356344Y-135224940D01*
X224415847Y-135218188D01*
X224418591Y-135218549D01*
X224418598Y-135218551D01*
X224660501Y-135250397D01*
X224699258Y-135255500D01*
X224699259Y-135255500D01*
X224982342Y-135255500D01*
X225046066Y-135247110D01*
X225263002Y-135218551D01*
X225536438Y-135145284D01*
X225742870Y-135059777D01*
X225797963Y-135036957D01*
X225797966Y-135036955D01*
X225797972Y-135036953D01*
X226043128Y-134895412D01*
X226267713Y-134723082D01*
X226467882Y-134522913D01*
X226640212Y-134298328D01*
X226781753Y-134053172D01*
X226890084Y-133791638D01*
X226963351Y-133518202D01*
X227000300Y-133237541D01*
X227000300Y-132954459D01*
X226963351Y-132673798D01*
X226890084Y-132400362D01*
X226839772Y-132278899D01*
X226781757Y-132138836D01*
X226781749Y-132138820D01*
X226640216Y-131893679D01*
X226640212Y-131893672D01*
X226640208Y-131893667D01*
X226640205Y-131893662D01*
X226583957Y-131820358D01*
X226532270Y-131752999D01*
X230280700Y-131752999D01*
X230280700Y-131899001D01*
X230308915Y-132004299D01*
X230318488Y-132040028D01*
X230318489Y-132040031D01*
X230391486Y-132166467D01*
X230391488Y-132166470D01*
X230391489Y-132166471D01*
X230494729Y-132269711D01*
X230494730Y-132269712D01*
X230494732Y-132269713D01*
X230557950Y-132306211D01*
X230621171Y-132342712D01*
X230762199Y-132380500D01*
X230762201Y-132380500D01*
X230908199Y-132380500D01*
X230908201Y-132380500D01*
X231049229Y-132342712D01*
X231175671Y-132269711D01*
X231278911Y-132166471D01*
X231351912Y-132040029D01*
X231389700Y-131899001D01*
X231389700Y-131752999D01*
X231362477Y-131651399D01*
X231957100Y-131651399D01*
X231957100Y-131797401D01*
X231984324Y-131899001D01*
X231994888Y-131938428D01*
X231994889Y-131938431D01*
X232067886Y-132064867D01*
X232067888Y-132064870D01*
X232067889Y-132064871D01*
X232171129Y-132168111D01*
X232297571Y-132241112D01*
X232438599Y-132278900D01*
X232438601Y-132278900D01*
X232584599Y-132278900D01*
X232584601Y-132278900D01*
X232725629Y-132241112D01*
X232852071Y-132168111D01*
X232955311Y-132064871D01*
X233028312Y-131938429D01*
X233066100Y-131797401D01*
X233066100Y-131651399D01*
X233028312Y-131510371D01*
X232955311Y-131383929D01*
X232948181Y-131376799D01*
X233430300Y-131376799D01*
X233430300Y-131522801D01*
X233464758Y-131651399D01*
X233468088Y-131663828D01*
X233468089Y-131663831D01*
X233541086Y-131790267D01*
X233541088Y-131790270D01*
X233541089Y-131790271D01*
X233644329Y-131893511D01*
X233644330Y-131893512D01*
X233644332Y-131893513D01*
X233653836Y-131899000D01*
X233770771Y-131966512D01*
X233911799Y-132004300D01*
X233911801Y-132004300D01*
X234057799Y-132004300D01*
X234057801Y-132004300D01*
X234198829Y-131966512D01*
X234325271Y-131893511D01*
X234428511Y-131790271D01*
X234501512Y-131663829D01*
X234539300Y-131522801D01*
X234539300Y-131376799D01*
X234501512Y-131235771D01*
X234428511Y-131109329D01*
X234325271Y-131006089D01*
X234325270Y-131006088D01*
X234325267Y-131006086D01*
X234198831Y-130933089D01*
X234198830Y-130933088D01*
X234198829Y-130933088D01*
X234057801Y-130895300D01*
X233911799Y-130895300D01*
X233770771Y-130933088D01*
X233770768Y-130933089D01*
X233644332Y-131006086D01*
X233644327Y-131006090D01*
X233541090Y-131109327D01*
X233541086Y-131109332D01*
X233468089Y-131235768D01*
X233468088Y-131235771D01*
X233430300Y-131376799D01*
X232948181Y-131376799D01*
X232852071Y-131280689D01*
X232852070Y-131280688D01*
X232852067Y-131280686D01*
X232725631Y-131207689D01*
X232725630Y-131207688D01*
X232725629Y-131207688D01*
X232584601Y-131169900D01*
X232438599Y-131169900D01*
X232297571Y-131207688D01*
X232297568Y-131207689D01*
X232171132Y-131280686D01*
X232171127Y-131280690D01*
X232067890Y-131383927D01*
X232067886Y-131383932D01*
X231994889Y-131510368D01*
X231994888Y-131510371D01*
X231957100Y-131651399D01*
X231362477Y-131651399D01*
X231351912Y-131611971D01*
X231300429Y-131522799D01*
X231278913Y-131485532D01*
X231278909Y-131485527D01*
X231175672Y-131382290D01*
X231175667Y-131382286D01*
X231049231Y-131309289D01*
X231049230Y-131309288D01*
X231049229Y-131309288D01*
X230908201Y-131271500D01*
X230762199Y-131271500D01*
X230621171Y-131309288D01*
X230621168Y-131309289D01*
X230494732Y-131382286D01*
X230494727Y-131382290D01*
X230391490Y-131485527D01*
X230391486Y-131485532D01*
X230318489Y-131611968D01*
X230318488Y-131611971D01*
X230280700Y-131752999D01*
X226532270Y-131752999D01*
X226467883Y-131669088D01*
X226467877Y-131669081D01*
X226267718Y-131468922D01*
X226267711Y-131468916D01*
X226043136Y-131296594D01*
X226043134Y-131296592D01*
X226043128Y-131296588D01*
X226043123Y-131296585D01*
X226043120Y-131296583D01*
X225797979Y-131155050D01*
X225797963Y-131155042D01*
X225536436Y-131046715D01*
X225355758Y-130998303D01*
X225263002Y-130973449D01*
X225262996Y-130973448D01*
X225262991Y-130973447D01*
X224982342Y-130936500D01*
X224982341Y-130936500D01*
X224699259Y-130936500D01*
X224699258Y-130936500D01*
X224418608Y-130973447D01*
X224418601Y-130973448D01*
X224418598Y-130973449D01*
X224360812Y-130988932D01*
X224145163Y-131046715D01*
X223883636Y-131155042D01*
X223883620Y-131155050D01*
X223638479Y-131296583D01*
X223638463Y-131296594D01*
X223413888Y-131468916D01*
X223413881Y-131468922D01*
X223213722Y-131669081D01*
X223213716Y-131669088D01*
X223041394Y-131893663D01*
X223041383Y-131893679D01*
X222899850Y-132138820D01*
X222899842Y-132138836D01*
X222791515Y-132400363D01*
X222718250Y-132673795D01*
X222718247Y-132673808D01*
X222681300Y-132954458D01*
X222681300Y-133237541D01*
X222718247Y-133518191D01*
X222718248Y-133518196D01*
X222718249Y-133518202D01*
X222718250Y-133518204D01*
X222791515Y-133791636D01*
X222899842Y-134053163D01*
X222899850Y-134053179D01*
X223041383Y-134298320D01*
X223041394Y-134298336D01*
X223173292Y-134470229D01*
X223198486Y-134535398D01*
X223184448Y-134603843D01*
X223135634Y-134653832D01*
X223067542Y-134669496D01*
X223004218Y-134647586D01*
X222615105Y-134377537D01*
X222609799Y-134373641D01*
X222527583Y-134309822D01*
X222414175Y-134221790D01*
X222049095Y-133938400D01*
X222043977Y-133934203D01*
X221507332Y-133469693D01*
X221502445Y-133465229D01*
X220991325Y-132972721D01*
X220986693Y-132968013D01*
X220502583Y-132448933D01*
X220498204Y-132443978D01*
X220469421Y-132409609D01*
X220179334Y-132063218D01*
X220151383Y-131999183D01*
X220150400Y-131983628D01*
X220150397Y-131966510D01*
X220150094Y-130393508D01*
X220169766Y-130326468D01*
X220222561Y-130280703D01*
X220291717Y-130270746D01*
X220355279Y-130299758D01*
X220385103Y-130341100D01*
X220386008Y-130340640D01*
X220388220Y-130344981D01*
X220467147Y-130499884D01*
X220569335Y-130640533D01*
X220692267Y-130763465D01*
X220832916Y-130865653D01*
X220891102Y-130895300D01*
X220987821Y-130944581D01*
X221153158Y-130998302D01*
X221153159Y-130998302D01*
X221153162Y-130998303D01*
X221324874Y-131025500D01*
X221324875Y-131025500D01*
X221498725Y-131025500D01*
X221498726Y-131025500D01*
X221670438Y-130998303D01*
X221670441Y-130998302D01*
X221670442Y-130998302D01*
X221835778Y-130944581D01*
X221835778Y-130944580D01*
X221835781Y-130944580D01*
X221990684Y-130865653D01*
X222131333Y-130763465D01*
X222254265Y-130640533D01*
X222356453Y-130499884D01*
X222435380Y-130344981D01*
X222436641Y-130341100D01*
X222489102Y-130179642D01*
X222489102Y-130179641D01*
X222489103Y-130179638D01*
X222516300Y-130007926D01*
X222516300Y-129834074D01*
X222489103Y-129662362D01*
X222489102Y-129662358D01*
X222489102Y-129662357D01*
X222435381Y-129497021D01*
X222410900Y-129448974D01*
X222356453Y-129342116D01*
X222254265Y-129201467D01*
X222131333Y-129078535D01*
X221990684Y-128976347D01*
X221889180Y-128924628D01*
X221835778Y-128897418D01*
X221670441Y-128843697D01*
X221541654Y-128823299D01*
X221498726Y-128816500D01*
X221324874Y-128816500D01*
X221267636Y-128825565D01*
X221153160Y-128843697D01*
X221153157Y-128843697D01*
X220987821Y-128897418D01*
X220832915Y-128976347D01*
X220778600Y-129015810D01*
X220692267Y-129078535D01*
X220692265Y-129078537D01*
X220692264Y-129078537D01*
X220569337Y-129201464D01*
X220569337Y-129201465D01*
X220569335Y-129201467D01*
X220537816Y-129244849D01*
X220467147Y-129342115D01*
X220386008Y-129501360D01*
X220384928Y-129500810D01*
X220344616Y-129550818D01*
X220278318Y-129572872D01*
X220210621Y-129555581D01*
X220163020Y-129504436D01*
X220149913Y-129448974D01*
X220149894Y-129348979D01*
X220149606Y-127852329D01*
X220169278Y-127785289D01*
X220222073Y-127739524D01*
X220291229Y-127729567D01*
X220354791Y-127758579D01*
X220385365Y-127800967D01*
X220386008Y-127800640D01*
X220388122Y-127804789D01*
X220388163Y-127804846D01*
X220388214Y-127804971D01*
X220463058Y-127951859D01*
X220467147Y-127959884D01*
X220569335Y-128100533D01*
X220692267Y-128223465D01*
X220832916Y-128325653D01*
X220987819Y-128404580D01*
X220987821Y-128404581D01*
X221153158Y-128458302D01*
X221153159Y-128458302D01*
X221153162Y-128458303D01*
X221324874Y-128485500D01*
X221324875Y-128485500D01*
X221498725Y-128485500D01*
X221498726Y-128485500D01*
X221670438Y-128458303D01*
X221670441Y-128458302D01*
X221670442Y-128458302D01*
X221835778Y-128404581D01*
X221835778Y-128404580D01*
X221835781Y-128404580D01*
X221990684Y-128325653D01*
X222131333Y-128223465D01*
X222254265Y-128100533D01*
X222356453Y-127959884D01*
X222435380Y-127804981D01*
X222436684Y-127800967D01*
X222489102Y-127639642D01*
X222489102Y-127639641D01*
X222489103Y-127639638D01*
X222516300Y-127467926D01*
X222516300Y-127294074D01*
X222489103Y-127122362D01*
X222489102Y-127122358D01*
X222489102Y-127122357D01*
X222435381Y-126957021D01*
X222374803Y-126838130D01*
X222356453Y-126802116D01*
X222254265Y-126661467D01*
X222131333Y-126538535D01*
X221990684Y-126436347D01*
X221908392Y-126394417D01*
X221835778Y-126357418D01*
X221670441Y-126303697D01*
X221541654Y-126283299D01*
X221498726Y-126276500D01*
X221324874Y-126276500D01*
X221267636Y-126285565D01*
X221153160Y-126303697D01*
X221153157Y-126303697D01*
X220987821Y-126357418D01*
X220832915Y-126436347D01*
X220804056Y-126457315D01*
X220692267Y-126538535D01*
X220692265Y-126538537D01*
X220692264Y-126538537D01*
X220569337Y-126661464D01*
X220569337Y-126661465D01*
X220569335Y-126661467D01*
X220569028Y-126661890D01*
X220467147Y-126802115D01*
X220388212Y-126957033D01*
X220387979Y-126957597D01*
X220387833Y-126957777D01*
X220386008Y-126961360D01*
X220385255Y-126960976D01*
X220344131Y-127011994D01*
X220277833Y-127034050D01*
X220210136Y-127016761D01*
X220162533Y-126965617D01*
X220149425Y-126910154D01*
X220149118Y-125311152D01*
X220168790Y-125244111D01*
X220221585Y-125198346D01*
X220290741Y-125188389D01*
X220354303Y-125217401D01*
X220385630Y-125260832D01*
X220386008Y-125260640D01*
X220387251Y-125263080D01*
X220387676Y-125263669D01*
X220388218Y-125264977D01*
X220388219Y-125264978D01*
X220388220Y-125264981D01*
X220467147Y-125419884D01*
X220569335Y-125560533D01*
X220692267Y-125683465D01*
X220832916Y-125785653D01*
X220943250Y-125841871D01*
X220987821Y-125864581D01*
X221153158Y-125918302D01*
X221153159Y-125918302D01*
X221153162Y-125918303D01*
X221324874Y-125945500D01*
X221324875Y-125945500D01*
X221498725Y-125945500D01*
X221498726Y-125945500D01*
X221670438Y-125918303D01*
X221670441Y-125918302D01*
X221670442Y-125918302D01*
X221835778Y-125864581D01*
X221835778Y-125864580D01*
X221835781Y-125864580D01*
X221990684Y-125785653D01*
X222131333Y-125683465D01*
X222254265Y-125560533D01*
X222356453Y-125419884D01*
X222435380Y-125264981D01*
X222436728Y-125260832D01*
X222489102Y-125099642D01*
X222489102Y-125099641D01*
X222489103Y-125099638D01*
X222516300Y-124927926D01*
X222516300Y-124754074D01*
X222489103Y-124582362D01*
X222489102Y-124582358D01*
X222489102Y-124582357D01*
X222435381Y-124417021D01*
X222356452Y-124262115D01*
X222254265Y-124121467D01*
X222131333Y-123998535D01*
X221990684Y-123896347D01*
X221835778Y-123817418D01*
X221670441Y-123763697D01*
X221541654Y-123743299D01*
X221498726Y-123736500D01*
X221324874Y-123736500D01*
X221267636Y-123745565D01*
X221153160Y-123763697D01*
X221153157Y-123763697D01*
X220987821Y-123817418D01*
X220832915Y-123896347D01*
X220752669Y-123954649D01*
X220692267Y-123998535D01*
X220692265Y-123998537D01*
X220692264Y-123998537D01*
X220569337Y-124121464D01*
X220569337Y-124121465D01*
X220569335Y-124121467D01*
X220525449Y-124181869D01*
X220467147Y-124262115D01*
X220388215Y-124417028D01*
X220387490Y-124418778D01*
X220387037Y-124419338D01*
X220386008Y-124421360D01*
X220385583Y-124421143D01*
X220343639Y-124473174D01*
X220277341Y-124495227D01*
X220209644Y-124477935D01*
X220162043Y-124426790D01*
X220148937Y-124371332D01*
X220148630Y-122769974D01*
X220168302Y-122702932D01*
X220221097Y-122657167D01*
X220290254Y-122647210D01*
X220353815Y-122676222D01*
X220385893Y-122720698D01*
X220386008Y-122720640D01*
X220386384Y-122721379D01*
X220387190Y-122722496D01*
X220388217Y-122724975D01*
X220388219Y-122724980D01*
X220388220Y-122724981D01*
X220467147Y-122879884D01*
X220569335Y-123020533D01*
X220692267Y-123143465D01*
X220832916Y-123245653D01*
X220987819Y-123324580D01*
X220987821Y-123324581D01*
X221153158Y-123378302D01*
X221153159Y-123378302D01*
X221153162Y-123378303D01*
X221324874Y-123405500D01*
X221324875Y-123405500D01*
X221498725Y-123405500D01*
X221498726Y-123405500D01*
X221670438Y-123378303D01*
X221670441Y-123378302D01*
X221670442Y-123378302D01*
X221835778Y-123324581D01*
X221835778Y-123324580D01*
X221835781Y-123324580D01*
X221990684Y-123245653D01*
X222131333Y-123143465D01*
X222254265Y-123020533D01*
X222356453Y-122879884D01*
X222370122Y-122853055D01*
X222418095Y-122802260D01*
X222485916Y-122785464D01*
X222515542Y-122790373D01*
X222548131Y-122799941D01*
X222561911Y-122803988D01*
X222561915Y-122803988D01*
X222561917Y-122803989D01*
X222573730Y-122805687D01*
X222635023Y-122814500D01*
X222635024Y-122814500D01*
X225427991Y-122814500D01*
X225428000Y-122814500D01*
X225483163Y-122808569D01*
X225534674Y-122797363D01*
X225561461Y-122790014D01*
X225649448Y-122739911D01*
X225702252Y-122694156D01*
X225734371Y-122660869D01*
X225781303Y-122571151D01*
X225800988Y-122504112D01*
X225811500Y-122431000D01*
X225811500Y-117786318D01*
X225812210Y-117783897D01*
X225811596Y-117781452D01*
X225822000Y-117750557D01*
X225831185Y-117719279D01*
X225833339Y-117716889D01*
X225833896Y-117715236D01*
X225858035Y-117689492D01*
X226028823Y-117552862D01*
X226093466Y-117526356D01*
X226162180Y-117539006D01*
X226168267Y-117542296D01*
X226250518Y-117589784D01*
X226392767Y-117627900D01*
X226392770Y-117627900D01*
X226540030Y-117627900D01*
X226540033Y-117627900D01*
X226682282Y-117589784D01*
X226809818Y-117516151D01*
X226913951Y-117412018D01*
X226987584Y-117284482D01*
X226991614Y-117269438D01*
X227027979Y-117209780D01*
X227090825Y-117179250D01*
X227160201Y-117187544D01*
X227199070Y-117213852D01*
X227205429Y-117220211D01*
X227331871Y-117293212D01*
X227438314Y-117321733D01*
X227452200Y-117329749D01*
X227465647Y-117332675D01*
X227493901Y-117353826D01*
X227610681Y-117470606D01*
X227644166Y-117531929D01*
X227647000Y-117558287D01*
X227647000Y-128868040D01*
X227662163Y-128924628D01*
X227677326Y-128981219D01*
X227677327Y-128981220D01*
X227735911Y-129082690D01*
X227735912Y-129082691D01*
X227735913Y-129082692D01*
X228784531Y-130131310D01*
X228816624Y-130186895D01*
X228821228Y-130204077D01*
X228847463Y-130301985D01*
X228899218Y-130391626D01*
X228921095Y-130429518D01*
X229025228Y-130533651D01*
X229114872Y-130585407D01*
X229152760Y-130607282D01*
X229152761Y-130607282D01*
X229152764Y-130607284D01*
X229295013Y-130645400D01*
X229295016Y-130645400D01*
X229442276Y-130645400D01*
X229442279Y-130645400D01*
X229584528Y-130607284D01*
X229712064Y-130533651D01*
X229816197Y-130429518D01*
X229889830Y-130301982D01*
X229927946Y-130159733D01*
X229927946Y-130012467D01*
X229889830Y-129870218D01*
X229816197Y-129742682D01*
X229712064Y-129638549D01*
X229677801Y-129618767D01*
X230783900Y-129618767D01*
X230783900Y-129766033D01*
X230819242Y-129897929D01*
X230822017Y-129908285D01*
X230873772Y-129997926D01*
X230895649Y-130035818D01*
X230999782Y-130139951D01*
X231068522Y-130179638D01*
X231127314Y-130213582D01*
X231127315Y-130213582D01*
X231127318Y-130213584D01*
X231269567Y-130251700D01*
X231269570Y-130251700D01*
X231416830Y-130251700D01*
X231416833Y-130251700D01*
X231559082Y-130213584D01*
X231686618Y-130139951D01*
X231790751Y-130035818D01*
X231864384Y-129908282D01*
X231902500Y-129766033D01*
X231902500Y-129618767D01*
X231864384Y-129476518D01*
X231848481Y-129448974D01*
X231842507Y-129438626D01*
X231790751Y-129348982D01*
X231686618Y-129244849D01*
X231648726Y-129222972D01*
X231559085Y-129171217D01*
X231559086Y-129171217D01*
X231547420Y-129168091D01*
X231416833Y-129133100D01*
X231269567Y-129133100D01*
X231138979Y-129168091D01*
X231127314Y-129171217D01*
X230999785Y-129244847D01*
X230999779Y-129244851D01*
X230895651Y-129348979D01*
X230895647Y-129348985D01*
X230822017Y-129476514D01*
X230822016Y-129476518D01*
X230783900Y-129618767D01*
X229677801Y-129618767D01*
X229635577Y-129594389D01*
X229584531Y-129564917D01*
X229584532Y-129564917D01*
X229531914Y-129550818D01*
X229469441Y-129534078D01*
X229413856Y-129501985D01*
X228573319Y-128661448D01*
X228539834Y-128600125D01*
X228537000Y-128573767D01*
X228537000Y-126003204D01*
X228556685Y-125936165D01*
X228609489Y-125890410D01*
X228678647Y-125880466D01*
X228742203Y-125909491D01*
X228748681Y-125915523D01*
X229103280Y-126270122D01*
X229136765Y-126331445D01*
X229139599Y-126357803D01*
X229139599Y-126394419D01*
X229156452Y-126457313D01*
X229177387Y-126535446D01*
X229177388Y-126535449D01*
X229250385Y-126661885D01*
X229250387Y-126661888D01*
X229250388Y-126661889D01*
X229353628Y-126765129D01*
X229480070Y-126838130D01*
X229621098Y-126875918D01*
X229621100Y-126875918D01*
X229767098Y-126875918D01*
X229767100Y-126875918D01*
X229908128Y-126838130D01*
X229920077Y-126831231D01*
X230718950Y-126831231D01*
X230718950Y-126978497D01*
X230733836Y-127034050D01*
X230757067Y-127120749D01*
X230799417Y-127194100D01*
X230830699Y-127248282D01*
X230934832Y-127352415D01*
X231024476Y-127404171D01*
X231062364Y-127426046D01*
X231062365Y-127426046D01*
X231062368Y-127426048D01*
X231204617Y-127464164D01*
X231204620Y-127464164D01*
X231351880Y-127464164D01*
X231351883Y-127464164D01*
X231494132Y-127426048D01*
X231621668Y-127352415D01*
X231725801Y-127248282D01*
X231799434Y-127120746D01*
X231837550Y-126978497D01*
X231837550Y-126831231D01*
X231799434Y-126688982D01*
X231783792Y-126661890D01*
X231777557Y-126651090D01*
X231725801Y-126561446D01*
X231621668Y-126457313D01*
X231583776Y-126435436D01*
X231494135Y-126383681D01*
X231494136Y-126383681D01*
X231482470Y-126380555D01*
X231351883Y-126345564D01*
X231204617Y-126345564D01*
X231074029Y-126380555D01*
X231062364Y-126383681D01*
X230934835Y-126457311D01*
X230934829Y-126457315D01*
X230830701Y-126561443D01*
X230830697Y-126561449D01*
X230757067Y-126688978D01*
X230757066Y-126688982D01*
X230718950Y-126831231D01*
X229920077Y-126831231D01*
X230034570Y-126765129D01*
X230137810Y-126661889D01*
X230210811Y-126535447D01*
X230248599Y-126394419D01*
X230248599Y-126248417D01*
X230210811Y-126107389D01*
X230137810Y-125980947D01*
X230034570Y-125877707D01*
X230034569Y-125877706D01*
X230034566Y-125877704D01*
X229908130Y-125804707D01*
X229908129Y-125804706D01*
X229908128Y-125804706D01*
X229767100Y-125766918D01*
X229767099Y-125766918D01*
X229730484Y-125766918D01*
X229663445Y-125747233D01*
X229642803Y-125730599D01*
X229340603Y-125428399D01*
X234090700Y-125428399D01*
X234090700Y-125574401D01*
X234125384Y-125703842D01*
X234128488Y-125715428D01*
X234128489Y-125715431D01*
X234201486Y-125841867D01*
X234201488Y-125841870D01*
X234201489Y-125841871D01*
X234304729Y-125945111D01*
X234304730Y-125945112D01*
X234304732Y-125945113D01*
X234364637Y-125979699D01*
X234431171Y-126018112D01*
X234572199Y-126055900D01*
X234572201Y-126055900D01*
X234718199Y-126055900D01*
X234718201Y-126055900D01*
X234859229Y-126018112D01*
X234985671Y-125945111D01*
X235088911Y-125841871D01*
X235161912Y-125715429D01*
X235199700Y-125574401D01*
X235199700Y-125428399D01*
X235169009Y-125313857D01*
X235528070Y-125313857D01*
X235528070Y-125459859D01*
X235555046Y-125560533D01*
X235565858Y-125600886D01*
X235565859Y-125600889D01*
X235638856Y-125727325D01*
X235638858Y-125727328D01*
X235638859Y-125727329D01*
X235742099Y-125830569D01*
X235742100Y-125830570D01*
X235742102Y-125830571D01*
X235761676Y-125841872D01*
X235868541Y-125903570D01*
X236009569Y-125941358D01*
X236009571Y-125941358D01*
X236155569Y-125941358D01*
X236155571Y-125941358D01*
X236296599Y-125903570D01*
X236423041Y-125830569D01*
X236450833Y-125802777D01*
X236512156Y-125769292D01*
X236581848Y-125774276D01*
X236626195Y-125802777D01*
X236692329Y-125868911D01*
X236692330Y-125868912D01*
X236692332Y-125868913D01*
X236752357Y-125903568D01*
X236818771Y-125941912D01*
X236959799Y-125979700D01*
X236959801Y-125979700D01*
X237105799Y-125979700D01*
X237105801Y-125979700D01*
X237246829Y-125941912D01*
X237373271Y-125868911D01*
X237476511Y-125765671D01*
X237549512Y-125639229D01*
X237587300Y-125498201D01*
X237587300Y-125352199D01*
X237549512Y-125211171D01*
X237476511Y-125084729D01*
X237373271Y-124981489D01*
X237373270Y-124981488D01*
X237373267Y-124981486D01*
X237246831Y-124908489D01*
X237246830Y-124908488D01*
X237246829Y-124908488D01*
X237105801Y-124870700D01*
X236959799Y-124870700D01*
X236818771Y-124908488D01*
X236818768Y-124908489D01*
X236692332Y-124981486D01*
X236692330Y-124981488D01*
X236664534Y-125009283D01*
X236603209Y-125042766D01*
X236533518Y-125037779D01*
X236489174Y-125009280D01*
X236423042Y-124943148D01*
X236423037Y-124943144D01*
X236296601Y-124870147D01*
X236296600Y-124870146D01*
X236296599Y-124870146D01*
X236155571Y-124832358D01*
X236009569Y-124832358D01*
X235868541Y-124870146D01*
X235868538Y-124870147D01*
X235742102Y-124943144D01*
X235742097Y-124943148D01*
X235638860Y-125046385D01*
X235638856Y-125046390D01*
X235565859Y-125172826D01*
X235565858Y-125172829D01*
X235528070Y-125313857D01*
X235169009Y-125313857D01*
X235161912Y-125287371D01*
X235104765Y-125188389D01*
X235088913Y-125160932D01*
X235088909Y-125160927D01*
X234985672Y-125057690D01*
X234985667Y-125057686D01*
X234859231Y-124984689D01*
X234859230Y-124984688D01*
X234859229Y-124984688D01*
X234718201Y-124946900D01*
X234572199Y-124946900D01*
X234431171Y-124984688D01*
X234431168Y-124984689D01*
X234304732Y-125057686D01*
X234304727Y-125057690D01*
X234201490Y-125160927D01*
X234201486Y-125160932D01*
X234128489Y-125287368D01*
X234128488Y-125287371D01*
X234090700Y-125428399D01*
X229340603Y-125428399D01*
X229068619Y-125156415D01*
X229035134Y-125095092D01*
X229032300Y-125068734D01*
X229032300Y-121024714D01*
X230564151Y-121024714D01*
X230564151Y-121171980D01*
X230590903Y-121271817D01*
X230602268Y-121314232D01*
X230631234Y-121364401D01*
X230675900Y-121441765D01*
X230780033Y-121545898D01*
X230837953Y-121579338D01*
X230907565Y-121619529D01*
X230907566Y-121619529D01*
X230907569Y-121619531D01*
X231049818Y-121657647D01*
X231049821Y-121657647D01*
X231197081Y-121657647D01*
X231197084Y-121657647D01*
X231339333Y-121619531D01*
X231339335Y-121619529D01*
X231339337Y-121619529D01*
X231339338Y-121619528D01*
X231380416Y-121595812D01*
X231448316Y-121579338D01*
X231514343Y-121602190D01*
X231557534Y-121657111D01*
X231564176Y-121726664D01*
X231549804Y-121765198D01*
X231482417Y-121881914D01*
X231482416Y-121881918D01*
X231444300Y-122024167D01*
X231444300Y-122171433D01*
X231459455Y-122227991D01*
X231482417Y-122313685D01*
X231525281Y-122387926D01*
X231556049Y-122441218D01*
X231660182Y-122545351D01*
X231749826Y-122597107D01*
X231787714Y-122618982D01*
X231787715Y-122618982D01*
X231787718Y-122618984D01*
X231929967Y-122657100D01*
X231929970Y-122657100D01*
X232077229Y-122657100D01*
X232077233Y-122657100D01*
X232208819Y-122621841D01*
X232278663Y-122623504D01*
X232336526Y-122662666D01*
X232360682Y-122709520D01*
X232364825Y-122724981D01*
X232392574Y-122828544D01*
X232392575Y-122828545D01*
X232465572Y-122954981D01*
X232465574Y-122954984D01*
X232465575Y-122954985D01*
X232568815Y-123058225D01*
X232695257Y-123131226D01*
X232836285Y-123169014D01*
X232836287Y-123169014D01*
X232982285Y-123169014D01*
X232982287Y-123169014D01*
X233123315Y-123131226D01*
X233249757Y-123058225D01*
X233275649Y-123032333D01*
X233336972Y-122998848D01*
X233363330Y-122996014D01*
X235631827Y-122996014D01*
X235631830Y-122996014D01*
X235728859Y-122970015D01*
X235815852Y-122919790D01*
X235886881Y-122848761D01*
X237060652Y-121674988D01*
X237121973Y-121641505D01*
X237191664Y-121646489D01*
X237247598Y-121688360D01*
X237255713Y-121700663D01*
X237300289Y-121777871D01*
X237403529Y-121881111D01*
X237403530Y-121881112D01*
X237403532Y-121881113D01*
X237466750Y-121917611D01*
X237529971Y-121954112D01*
X237670999Y-121991900D01*
X237671001Y-121991900D01*
X237816999Y-121991900D01*
X237817001Y-121991900D01*
X237958029Y-121954112D01*
X238084471Y-121881111D01*
X238187711Y-121777871D01*
X238260712Y-121651429D01*
X238298500Y-121510401D01*
X238298500Y-121364399D01*
X238260712Y-121223371D01*
X238217727Y-121148919D01*
X238187713Y-121096932D01*
X238187709Y-121096927D01*
X238084472Y-120993690D01*
X238084467Y-120993686D01*
X237958031Y-120920689D01*
X237958030Y-120920688D01*
X237958029Y-120920688D01*
X237817001Y-120882900D01*
X237670999Y-120882900D01*
X237670997Y-120882900D01*
X237620248Y-120896498D01*
X237550398Y-120894835D01*
X237492536Y-120855671D01*
X237480772Y-120838727D01*
X237415671Y-120725969D01*
X237312431Y-120622729D01*
X237312430Y-120622728D01*
X237312427Y-120622726D01*
X237185991Y-120549729D01*
X237185990Y-120549728D01*
X237185989Y-120549728D01*
X237044961Y-120511940D01*
X236898959Y-120511940D01*
X236757931Y-120549728D01*
X236757928Y-120549729D01*
X236631492Y-120622726D01*
X236631487Y-120622730D01*
X236528250Y-120725967D01*
X236528246Y-120725972D01*
X236455249Y-120852408D01*
X236455248Y-120852411D01*
X236417460Y-120993439D01*
X236417460Y-121139443D01*
X236419999Y-121148919D01*
X236418334Y-121218768D01*
X236387904Y-121268690D01*
X236126648Y-121529946D01*
X236065325Y-121563431D01*
X235995633Y-121558447D01*
X235939700Y-121516575D01*
X235931583Y-121504269D01*
X235901711Y-121452529D01*
X235798471Y-121349289D01*
X235798470Y-121349288D01*
X235798467Y-121349286D01*
X235672031Y-121276289D01*
X235672030Y-121276288D01*
X235672029Y-121276288D01*
X235531001Y-121238500D01*
X235384999Y-121238500D01*
X235243971Y-121276288D01*
X235243968Y-121276289D01*
X235117532Y-121349286D01*
X235117527Y-121349290D01*
X235014290Y-121452527D01*
X235014286Y-121452532D01*
X234941289Y-121578968D01*
X234941288Y-121578971D01*
X234903500Y-121719999D01*
X234903500Y-121866001D01*
X234941062Y-122006183D01*
X234941288Y-122007028D01*
X234941291Y-122007035D01*
X234964373Y-122047015D01*
X234980846Y-122114915D01*
X234957993Y-122180942D01*
X234903072Y-122224132D01*
X234856986Y-122233014D01*
X234591356Y-122233014D01*
X234524317Y-122213329D01*
X234478562Y-122160525D01*
X234468618Y-122091367D01*
X234483969Y-122047014D01*
X234505982Y-122008885D01*
X234505981Y-122008885D01*
X234505984Y-122008882D01*
X234544100Y-121866633D01*
X234544100Y-121719367D01*
X234505984Y-121577118D01*
X234502826Y-121571649D01*
X234463921Y-121504263D01*
X234432351Y-121449582D01*
X234328218Y-121345449D01*
X234274152Y-121314234D01*
X234200685Y-121271817D01*
X234200686Y-121271817D01*
X234189016Y-121268690D01*
X234058433Y-121233700D01*
X233911167Y-121233700D01*
X233780584Y-121268690D01*
X233768914Y-121271817D01*
X233641385Y-121345447D01*
X233641379Y-121345451D01*
X233537251Y-121449579D01*
X233537247Y-121449585D01*
X233463617Y-121577114D01*
X233463616Y-121577118D01*
X233425500Y-121719367D01*
X233425500Y-121866633D01*
X233463121Y-122007035D01*
X233463617Y-122008885D01*
X233485631Y-122047014D01*
X233487062Y-122052915D01*
X233491038Y-122057503D01*
X233495202Y-122086467D01*
X233502104Y-122114914D01*
X233500118Y-122120652D01*
X233500982Y-122126661D01*
X233488825Y-122153280D01*
X233479252Y-122180941D01*
X233474479Y-122184694D01*
X233471957Y-122190217D01*
X233447336Y-122206039D01*
X233424330Y-122224132D01*
X233416979Y-122225548D01*
X233413179Y-122227991D01*
X233378244Y-122233014D01*
X233363330Y-122233014D01*
X233296291Y-122213329D01*
X233275649Y-122196695D01*
X233249758Y-122170804D01*
X233249753Y-122170800D01*
X233123317Y-122097803D01*
X233123316Y-122097802D01*
X233123315Y-122097802D01*
X232982287Y-122060014D01*
X232836285Y-122060014D01*
X232836283Y-122060014D01*
X232709947Y-122093865D01*
X232640098Y-122092202D01*
X232582235Y-122053039D01*
X232558082Y-122006187D01*
X232524784Y-121881918D01*
X232524319Y-121881113D01*
X232502907Y-121844026D01*
X232451151Y-121754382D01*
X232347018Y-121650249D01*
X232293813Y-121619531D01*
X232219485Y-121576617D01*
X232219486Y-121576617D01*
X232200945Y-121571649D01*
X232077233Y-121538500D01*
X231929967Y-121538500D01*
X231787718Y-121576616D01*
X231787717Y-121576616D01*
X231787715Y-121576617D01*
X231746632Y-121600336D01*
X231678731Y-121616807D01*
X231612705Y-121593954D01*
X231569515Y-121539033D01*
X231562874Y-121469479D01*
X231577245Y-121430950D01*
X231644635Y-121314229D01*
X231682751Y-121171980D01*
X231682751Y-121024714D01*
X231644635Y-120882465D01*
X231629165Y-120855671D01*
X231587017Y-120782668D01*
X231571002Y-120754929D01*
X231466869Y-120650796D01*
X231418256Y-120622729D01*
X231339336Y-120577164D01*
X231339337Y-120577164D01*
X231327671Y-120574038D01*
X231243928Y-120551599D01*
X231880900Y-120551599D01*
X231880900Y-120697601D01*
X231903694Y-120782668D01*
X231918688Y-120838628D01*
X231918689Y-120838631D01*
X231991686Y-120965067D01*
X231991688Y-120965070D01*
X231991689Y-120965071D01*
X232094929Y-121068311D01*
X232094930Y-121068312D01*
X232094932Y-121068313D01*
X232144497Y-121096929D01*
X232221371Y-121141312D01*
X232362399Y-121179100D01*
X232362401Y-121179100D01*
X232508399Y-121179100D01*
X232508401Y-121179100D01*
X232649429Y-121141312D01*
X232775871Y-121068311D01*
X232802085Y-121042096D01*
X232863404Y-121008613D01*
X232933096Y-121013597D01*
X232951764Y-121022392D01*
X232985898Y-121042099D01*
X233060810Y-121085349D01*
X233201838Y-121123137D01*
X233201840Y-121123137D01*
X233347838Y-121123137D01*
X233347840Y-121123137D01*
X233488868Y-121085349D01*
X233615310Y-121012348D01*
X233718550Y-120909108D01*
X233791551Y-120782666D01*
X233829339Y-120641638D01*
X233829339Y-120495636D01*
X233791551Y-120354608D01*
X233718550Y-120228166D01*
X233615310Y-120124926D01*
X233615309Y-120124925D01*
X233615306Y-120124923D01*
X233488870Y-120051926D01*
X233488869Y-120051925D01*
X233488868Y-120051925D01*
X233347840Y-120014137D01*
X233201838Y-120014137D01*
X233060810Y-120051925D01*
X233060807Y-120051926D01*
X232934371Y-120124923D01*
X232908154Y-120151140D01*
X232846830Y-120184624D01*
X232777139Y-120179638D01*
X232758475Y-120170845D01*
X232649429Y-120107888D01*
X232508401Y-120070100D01*
X232362399Y-120070100D01*
X232221371Y-120107888D01*
X232221368Y-120107889D01*
X232094932Y-120180886D01*
X232094927Y-120180890D01*
X231991690Y-120284127D01*
X231991686Y-120284132D01*
X231918689Y-120410568D01*
X231918688Y-120410571D01*
X231880900Y-120551599D01*
X231243928Y-120551599D01*
X231197084Y-120539047D01*
X231049818Y-120539047D01*
X230919230Y-120574038D01*
X230907565Y-120577164D01*
X230780036Y-120650794D01*
X230780030Y-120650798D01*
X230675902Y-120754926D01*
X230675898Y-120754932D01*
X230602268Y-120882461D01*
X230602267Y-120882465D01*
X230564151Y-121024714D01*
X229032300Y-121024714D01*
X229032300Y-120808585D01*
X229051985Y-120741546D01*
X229068619Y-120720904D01*
X229488504Y-120301019D01*
X229549827Y-120267534D01*
X229576185Y-120264700D01*
X229612799Y-120264700D01*
X229612801Y-120264700D01*
X229753829Y-120226912D01*
X229880271Y-120153911D01*
X229983511Y-120050671D01*
X230056512Y-119924229D01*
X230080840Y-119833432D01*
X230117203Y-119773774D01*
X230180050Y-119743244D01*
X230249425Y-119751538D01*
X230262612Y-119758139D01*
X230290971Y-119774512D01*
X230431999Y-119812300D01*
X230432001Y-119812300D01*
X230577999Y-119812300D01*
X230578001Y-119812300D01*
X230719029Y-119774512D01*
X230845471Y-119701511D01*
X230948711Y-119598271D01*
X231021712Y-119471829D01*
X231059500Y-119330801D01*
X231059500Y-119184799D01*
X231021712Y-119043771D01*
X230949702Y-118919045D01*
X233888844Y-118919045D01*
X233888844Y-119065047D01*
X233923260Y-119193488D01*
X233926632Y-119206074D01*
X233926633Y-119206077D01*
X233999630Y-119332513D01*
X233999632Y-119332516D01*
X233999633Y-119332517D01*
X234102873Y-119435757D01*
X234102874Y-119435758D01*
X234102876Y-119435759D01*
X234134459Y-119453993D01*
X234229315Y-119508758D01*
X234370343Y-119546546D01*
X234370345Y-119546546D01*
X234516343Y-119546546D01*
X234516345Y-119546546D01*
X234657373Y-119508758D01*
X234783815Y-119435757D01*
X234887055Y-119332517D01*
X234960056Y-119206075D01*
X234997844Y-119065047D01*
X234997844Y-118919045D01*
X234960056Y-118778017D01*
X234887055Y-118651575D01*
X234783815Y-118548335D01*
X234783814Y-118548334D01*
X234783811Y-118548332D01*
X234657375Y-118475335D01*
X234657374Y-118475334D01*
X234657373Y-118475334D01*
X234516345Y-118437546D01*
X234370343Y-118437546D01*
X234229315Y-118475334D01*
X234229312Y-118475335D01*
X234102876Y-118548332D01*
X234102871Y-118548336D01*
X233999634Y-118651573D01*
X233999630Y-118651578D01*
X233926633Y-118778014D01*
X233926632Y-118778017D01*
X233888844Y-118919045D01*
X230949702Y-118919045D01*
X230948711Y-118917329D01*
X230845471Y-118814089D01*
X230845470Y-118814088D01*
X230845467Y-118814086D01*
X230719031Y-118741089D01*
X230719030Y-118741088D01*
X230719029Y-118741088D01*
X230578001Y-118703300D01*
X230431999Y-118703300D01*
X230290971Y-118741088D01*
X230290968Y-118741089D01*
X230164532Y-118814086D01*
X230164527Y-118814090D01*
X230061290Y-118917327D01*
X230061286Y-118917332D01*
X229988289Y-119043768D01*
X229988288Y-119043769D01*
X229963960Y-119134566D01*
X229927595Y-119194226D01*
X229864748Y-119224755D01*
X229795372Y-119216460D01*
X229782186Y-119209860D01*
X229775628Y-119206074D01*
X229753829Y-119193488D01*
X229612801Y-119155700D01*
X229466799Y-119155700D01*
X229325771Y-119193488D01*
X229325768Y-119193489D01*
X229199332Y-119266486D01*
X229199327Y-119266490D01*
X229096090Y-119369727D01*
X229096086Y-119369732D01*
X229023089Y-119496168D01*
X229023088Y-119496171D01*
X228985300Y-119637199D01*
X228985300Y-119673815D01*
X228965615Y-119740854D01*
X228948981Y-119761496D01*
X228748681Y-119961796D01*
X228687358Y-119995281D01*
X228617666Y-119990297D01*
X228561733Y-119948425D01*
X228537316Y-119882961D01*
X228537000Y-119874115D01*
X228537000Y-117992781D01*
X231202300Y-117992781D01*
X231202300Y-118125619D01*
X231236681Y-118253930D01*
X231303100Y-118368970D01*
X231397030Y-118462900D01*
X231512070Y-118529319D01*
X231640381Y-118563700D01*
X231640384Y-118563700D01*
X231773216Y-118563700D01*
X231773219Y-118563700D01*
X231901530Y-118529319D01*
X232016570Y-118462900D01*
X232110500Y-118368970D01*
X232110500Y-118368969D01*
X232116247Y-118363223D01*
X232117830Y-118364806D01*
X232164850Y-118330473D01*
X232234596Y-118326317D01*
X232295517Y-118360528D01*
X232301093Y-118366963D01*
X232303099Y-118368969D01*
X232303100Y-118368970D01*
X232397030Y-118462900D01*
X232512070Y-118529319D01*
X232640381Y-118563700D01*
X232640384Y-118563700D01*
X232773216Y-118563700D01*
X232773219Y-118563700D01*
X232901530Y-118529319D01*
X233016570Y-118462900D01*
X233110500Y-118368970D01*
X233176919Y-118253930D01*
X233211300Y-118125619D01*
X233211300Y-117992781D01*
X233176919Y-117864470D01*
X233110500Y-117749430D01*
X233016570Y-117655500D01*
X232901530Y-117589081D01*
X232773219Y-117554700D01*
X232640381Y-117554700D01*
X232512070Y-117589081D01*
X232512068Y-117589081D01*
X232512068Y-117589082D01*
X232397030Y-117655500D01*
X232397027Y-117655502D01*
X232297353Y-117755177D01*
X232295770Y-117753594D01*
X232248735Y-117787932D01*
X232178988Y-117792079D01*
X232118072Y-117757860D01*
X232112506Y-117751436D01*
X232016572Y-117655502D01*
X232016570Y-117655500D01*
X231901530Y-117589081D01*
X231773219Y-117554700D01*
X231640381Y-117554700D01*
X231512070Y-117589081D01*
X231512068Y-117589081D01*
X231512068Y-117589082D01*
X231397030Y-117655500D01*
X231397027Y-117655502D01*
X231303102Y-117749427D01*
X231303100Y-117749430D01*
X231248881Y-117843340D01*
X231236681Y-117864470D01*
X231202300Y-117992781D01*
X228537000Y-117992781D01*
X228537000Y-117264017D01*
X228537000Y-117264015D01*
X228506674Y-117150836D01*
X228448089Y-117049364D01*
X228365236Y-116966511D01*
X228123226Y-116724501D01*
X228115570Y-116711559D01*
X228106416Y-116703585D01*
X228093442Y-116674153D01*
X228091838Y-116671442D01*
X228091484Y-116670224D01*
X228062612Y-116562471D01*
X228057656Y-116553887D01*
X228057656Y-116553886D01*
X228034050Y-116512999D01*
X229137700Y-116512999D01*
X229137700Y-116659001D01*
X229148956Y-116701007D01*
X229175488Y-116800028D01*
X229175489Y-116800031D01*
X229248486Y-116926467D01*
X229248488Y-116926470D01*
X229248489Y-116926471D01*
X229351729Y-117029711D01*
X229478171Y-117102712D01*
X229619199Y-117140500D01*
X229619201Y-117140500D01*
X229765199Y-117140500D01*
X229765201Y-117140500D01*
X229906229Y-117102712D01*
X230032671Y-117029711D01*
X230135911Y-116926471D01*
X230208912Y-116800029D01*
X230246700Y-116659001D01*
X230246700Y-116512999D01*
X230208912Y-116371971D01*
X230145144Y-116261521D01*
X230135913Y-116245532D01*
X230135909Y-116245527D01*
X230032672Y-116142290D01*
X230032667Y-116142286D01*
X229906231Y-116069289D01*
X229906230Y-116069288D01*
X229906229Y-116069288D01*
X229765201Y-116031500D01*
X229619199Y-116031500D01*
X229478171Y-116069288D01*
X229478168Y-116069289D01*
X229351732Y-116142286D01*
X229351727Y-116142290D01*
X229248490Y-116245527D01*
X229248486Y-116245532D01*
X229175489Y-116371968D01*
X229175488Y-116371971D01*
X229137700Y-116512999D01*
X228034050Y-116512999D01*
X227989613Y-116436032D01*
X227989609Y-116436027D01*
X227886370Y-116332788D01*
X227850518Y-116312089D01*
X227802303Y-116261521D01*
X227789081Y-116192914D01*
X227815049Y-116128050D01*
X227835052Y-116107878D01*
X228165502Y-115843520D01*
X228203210Y-115806456D01*
X228235281Y-115767752D01*
X228250373Y-115747627D01*
X228289674Y-115654314D01*
X228303711Y-115585869D01*
X228308929Y-115539901D01*
X228291541Y-115440153D01*
X228266344Y-115374984D01*
X228263572Y-115370049D01*
X228243307Y-115333702D01*
X228244560Y-115332980D01*
X228196324Y-115249432D01*
X228195889Y-115248652D01*
X228195589Y-115247330D01*
X228184418Y-115220359D01*
X228172764Y-115176862D01*
X228168539Y-115144771D01*
X228168539Y-115099746D01*
X228172762Y-115067661D01*
X228180227Y-115039799D01*
X229391700Y-115039799D01*
X229391700Y-115185801D01*
X229414450Y-115270704D01*
X229429488Y-115326828D01*
X229429489Y-115326831D01*
X229502486Y-115453267D01*
X229502488Y-115453270D01*
X229502489Y-115453271D01*
X229605729Y-115556511D01*
X229732171Y-115629512D01*
X229873199Y-115667300D01*
X229873201Y-115667300D01*
X230019199Y-115667300D01*
X230019201Y-115667300D01*
X230160229Y-115629512D01*
X230286671Y-115556511D01*
X230320783Y-115522399D01*
X231068100Y-115522399D01*
X231068100Y-115668401D01*
X231105793Y-115809072D01*
X231105888Y-115809428D01*
X231105889Y-115809431D01*
X231178886Y-115935867D01*
X231178888Y-115935870D01*
X231178889Y-115935871D01*
X231282129Y-116039111D01*
X231282130Y-116039112D01*
X231282132Y-116039113D01*
X231334397Y-116069288D01*
X231408571Y-116112112D01*
X231549599Y-116149900D01*
X231549601Y-116149900D01*
X231695599Y-116149900D01*
X231695601Y-116149900D01*
X231836629Y-116112112D01*
X231963071Y-116039111D01*
X232066311Y-115935871D01*
X232099724Y-115877998D01*
X232596383Y-115877998D01*
X232596383Y-116024000D01*
X232630118Y-116149899D01*
X232634171Y-116165027D01*
X232634172Y-116165030D01*
X232707169Y-116291466D01*
X232707171Y-116291469D01*
X232707172Y-116291470D01*
X232810412Y-116394710D01*
X232936854Y-116467711D01*
X233077882Y-116505499D01*
X233077884Y-116505499D01*
X233223882Y-116505499D01*
X233223884Y-116505499D01*
X233364912Y-116467711D01*
X233491354Y-116394710D01*
X233594594Y-116291470D01*
X233621119Y-116245527D01*
X233643799Y-116206245D01*
X233694365Y-116158029D01*
X233762972Y-116144805D01*
X233783273Y-116148468D01*
X233847499Y-116165677D01*
X233847501Y-116165677D01*
X233993499Y-116165677D01*
X233993501Y-116165677D01*
X234134529Y-116127889D01*
X234260971Y-116054888D01*
X234364211Y-115951648D01*
X234437212Y-115825206D01*
X234475000Y-115684178D01*
X234475000Y-115538176D01*
X234437212Y-115397148D01*
X234396615Y-115326831D01*
X234364213Y-115270709D01*
X234364209Y-115270704D01*
X234260972Y-115167467D01*
X234260967Y-115167463D01*
X234134531Y-115094466D01*
X234134530Y-115094465D01*
X234134529Y-115094465D01*
X233993501Y-115056677D01*
X233847499Y-115056677D01*
X233706471Y-115094465D01*
X233706468Y-115094466D01*
X233580032Y-115167463D01*
X233580027Y-115167467D01*
X233476788Y-115270706D01*
X233427583Y-115355932D01*
X233377015Y-115404147D01*
X233308408Y-115417369D01*
X233288104Y-115413706D01*
X233223885Y-115396499D01*
X233223884Y-115396499D01*
X233077882Y-115396499D01*
X232936854Y-115434287D01*
X232936851Y-115434288D01*
X232810415Y-115507285D01*
X232810410Y-115507289D01*
X232707173Y-115610526D01*
X232707169Y-115610531D01*
X232634172Y-115736967D01*
X232634171Y-115736970D01*
X232596383Y-115877998D01*
X232099724Y-115877998D01*
X232139312Y-115809429D01*
X232177100Y-115668401D01*
X232177100Y-115522399D01*
X232139312Y-115381371D01*
X232066311Y-115254929D01*
X231963071Y-115151689D01*
X231963070Y-115151688D01*
X231963067Y-115151686D01*
X231836631Y-115078689D01*
X231836630Y-115078688D01*
X231836629Y-115078688D01*
X231695601Y-115040900D01*
X231549599Y-115040900D01*
X231408571Y-115078688D01*
X231408568Y-115078689D01*
X231282132Y-115151686D01*
X231282127Y-115151690D01*
X231178890Y-115254927D01*
X231178886Y-115254932D01*
X231105889Y-115381368D01*
X231105888Y-115381371D01*
X231068100Y-115522399D01*
X230320783Y-115522399D01*
X230389911Y-115453271D01*
X230397484Y-115440155D01*
X230412754Y-115413706D01*
X230462912Y-115326829D01*
X230500700Y-115185801D01*
X230500700Y-115039799D01*
X230462912Y-114898771D01*
X230426411Y-114835550D01*
X230389913Y-114772332D01*
X230389909Y-114772327D01*
X230286672Y-114669090D01*
X230286667Y-114669086D01*
X230160231Y-114596089D01*
X230160230Y-114596088D01*
X230160229Y-114596088D01*
X230019201Y-114558300D01*
X229873199Y-114558300D01*
X229732171Y-114596088D01*
X229732168Y-114596089D01*
X229605732Y-114669086D01*
X229605727Y-114669090D01*
X229502490Y-114772327D01*
X229502486Y-114772332D01*
X229429489Y-114898768D01*
X229429488Y-114898771D01*
X229391700Y-115039799D01*
X228180227Y-115039799D01*
X228184418Y-115024155D01*
X228196803Y-114994258D01*
X228210996Y-114969674D01*
X228219313Y-114955268D01*
X228238135Y-114930749D01*
X228238025Y-114930645D01*
X228239024Y-114929590D01*
X228239051Y-114929556D01*
X228239053Y-114929553D01*
X228239173Y-114929434D01*
X228257740Y-114908763D01*
X228274374Y-114888121D01*
X228274376Y-114888118D01*
X228274393Y-114888083D01*
X228274777Y-114887439D01*
X228274944Y-114887265D01*
X228276201Y-114885380D01*
X228276540Y-114885606D01*
X228314239Y-114846437D01*
X232074750Y-112420302D01*
X232141755Y-112400500D01*
X232653644Y-112400500D01*
X232653645Y-112400500D01*
X232714826Y-112393185D01*
X232771647Y-112379400D01*
X232804042Y-112369256D01*
X232889544Y-112315022D01*
X232940108Y-112266808D01*
X232985764Y-112208750D01*
X233003980Y-112177196D01*
X233023676Y-112151527D01*
X233055529Y-112119675D01*
X233081199Y-112099978D01*
X233120197Y-112077463D01*
X233150098Y-112065079D01*
X233162752Y-112061689D01*
X233193597Y-112053425D01*
X233225688Y-112049200D01*
X233270712Y-112049200D01*
X233302804Y-112053425D01*
G37*
%TD.AperFunction*%
%TD*%
%TA.AperFunction,Conductor*%
%TO.N,+5V_IN*%
G36*
X230652776Y-110157519D02*
G01*
X231362590Y-110181477D01*
X231369200Y-110181877D01*
X232076716Y-110243755D01*
X232083287Y-110244506D01*
X232786511Y-110344132D01*
X232793030Y-110345234D01*
X233489888Y-110482312D01*
X233496334Y-110483760D01*
X234184914Y-110657918D01*
X234191260Y-110659705D01*
X234869528Y-110870428D01*
X234875790Y-110872560D01*
X235541810Y-111119247D01*
X235547910Y-111121694D01*
X236199823Y-111403658D01*
X236205786Y-111406429D01*
X236789813Y-111697035D01*
X236841653Y-111722830D01*
X236847507Y-111725941D01*
X237299754Y-111982015D01*
X237465526Y-112075879D01*
X237471203Y-112079297D01*
X237736191Y-112248665D01*
X238069642Y-112461792D01*
X238075133Y-112465513D01*
X238652222Y-112879431D01*
X238657507Y-112883439D01*
X238987856Y-113148243D01*
X239027853Y-113205532D01*
X239034300Y-113244996D01*
X239034300Y-115345242D01*
X239014615Y-115412281D01*
X238961811Y-115458036D01*
X238892653Y-115467980D01*
X238829097Y-115438955D01*
X238822619Y-115432923D01*
X238721011Y-115331315D01*
X238721004Y-115331309D01*
X238478126Y-115144942D01*
X238478124Y-115144940D01*
X238478118Y-115144936D01*
X238478113Y-115144933D01*
X238478110Y-115144931D01*
X238212989Y-114991862D01*
X238212973Y-114991854D01*
X237930140Y-114874702D01*
X237785826Y-114836033D01*
X237634411Y-114795461D01*
X237634410Y-114795460D01*
X237634407Y-114795460D01*
X237330886Y-114755501D01*
X237330883Y-114755500D01*
X237330877Y-114755500D01*
X237024723Y-114755500D01*
X237024717Y-114755500D01*
X237024713Y-114755501D01*
X236721192Y-114795460D01*
X236425459Y-114874702D01*
X236142626Y-114991854D01*
X236142610Y-114991862D01*
X235877489Y-115144931D01*
X235877473Y-115144942D01*
X235634595Y-115331309D01*
X235634588Y-115331315D01*
X235432223Y-115533681D01*
X235405295Y-115548384D01*
X235379477Y-115564977D01*
X235373276Y-115565868D01*
X235370900Y-115567166D01*
X235344542Y-115570000D01*
X235328000Y-115570000D01*
X235260961Y-115550315D01*
X235215206Y-115497511D01*
X235204000Y-115446000D01*
X235204000Y-113030000D01*
X234315000Y-112141000D01*
X233842755Y-112141000D01*
X233775716Y-112121315D01*
X233735369Y-112079001D01*
X233691911Y-112003729D01*
X233588671Y-111900489D01*
X233588670Y-111900488D01*
X233588667Y-111900486D01*
X233462231Y-111827489D01*
X233462230Y-111827488D01*
X233462229Y-111827488D01*
X233321201Y-111789700D01*
X233175199Y-111789700D01*
X233034171Y-111827488D01*
X233034168Y-111827489D01*
X232907732Y-111900486D01*
X232907727Y-111900490D01*
X232804488Y-112003729D01*
X232782346Y-112042080D01*
X232761030Y-112079001D01*
X232710466Y-112127215D01*
X232653645Y-112141000D01*
X232029002Y-112141000D01*
X232029000Y-112141000D01*
X229832298Y-113558227D01*
X228091999Y-114681000D01*
X228077517Y-114707577D01*
X228072315Y-114725295D01*
X228055681Y-114745937D01*
X228019829Y-114781788D01*
X228019825Y-114781793D01*
X227946828Y-114908229D01*
X227946827Y-114908232D01*
X227909039Y-115049260D01*
X227909039Y-115195262D01*
X227945493Y-115331309D01*
X227946827Y-115336289D01*
X227946828Y-115336292D01*
X228019826Y-115462729D01*
X228024305Y-115468566D01*
X228049502Y-115533735D01*
X228035465Y-115602180D01*
X228003394Y-115640884D01*
X226857571Y-116557541D01*
X226792925Y-116584049D01*
X226724210Y-116571399D01*
X226718109Y-116568100D01*
X226682285Y-116547417D01*
X226682286Y-116547417D01*
X226670620Y-116544291D01*
X226540033Y-116509300D01*
X226392767Y-116509300D01*
X226262179Y-116544291D01*
X226250514Y-116547417D01*
X226122985Y-116621047D01*
X226122979Y-116621051D01*
X226018851Y-116725179D01*
X226018847Y-116725185D01*
X225945217Y-116852714D01*
X225945216Y-116852718D01*
X225907100Y-116994967D01*
X225907100Y-116994969D01*
X225907100Y-117142232D01*
X225924888Y-117208618D01*
X225923225Y-117278468D01*
X225884062Y-117336330D01*
X225882575Y-117337539D01*
X225552000Y-117602000D01*
X225552000Y-122431000D01*
X225532315Y-122498039D01*
X225479511Y-122543794D01*
X225428000Y-122555000D01*
X222635023Y-122555000D01*
X222567984Y-122535315D01*
X222522229Y-122482511D01*
X222512285Y-122413353D01*
X222512550Y-122411602D01*
X222516300Y-122387925D01*
X222516300Y-122214074D01*
X222489103Y-122042362D01*
X222489102Y-122042358D01*
X222489102Y-122042357D01*
X222435381Y-121877021D01*
X222412699Y-121832506D01*
X222356453Y-121722116D01*
X222254265Y-121581467D01*
X222131333Y-121458535D01*
X221990684Y-121356347D01*
X221976832Y-121349289D01*
X221835778Y-121277418D01*
X221670441Y-121223697D01*
X221541654Y-121203299D01*
X221498726Y-121196500D01*
X221324874Y-121196500D01*
X221267636Y-121205565D01*
X221153160Y-121223697D01*
X221153157Y-121223697D01*
X220987821Y-121277418D01*
X220832915Y-121356347D01*
X220821833Y-121364399D01*
X220692267Y-121458535D01*
X220692265Y-121458537D01*
X220692264Y-121458537D01*
X220569337Y-121581464D01*
X220569337Y-121581465D01*
X220569335Y-121581467D01*
X220568111Y-121583152D01*
X220467147Y-121722115D01*
X220388216Y-121877024D01*
X220387007Y-121879945D01*
X220386251Y-121880882D01*
X220386008Y-121881360D01*
X220385907Y-121881308D01*
X220343161Y-121934345D01*
X220276865Y-121956403D01*
X220209167Y-121939118D01*
X220161561Y-121887977D01*
X220148450Y-121832506D01*
X220148428Y-121719999D01*
X220148142Y-120228796D01*
X220167814Y-120161754D01*
X220220609Y-120115989D01*
X220289765Y-120106032D01*
X220353327Y-120135044D01*
X220386702Y-120181318D01*
X220388217Y-120184975D01*
X220388219Y-120184978D01*
X220388220Y-120184981D01*
X220467147Y-120339884D01*
X220569335Y-120480533D01*
X220692267Y-120603465D01*
X220832916Y-120705653D01*
X220929626Y-120754929D01*
X220987821Y-120784581D01*
X221153158Y-120838302D01*
X221153159Y-120838302D01*
X221153162Y-120838303D01*
X221324874Y-120865500D01*
X221324875Y-120865500D01*
X221498725Y-120865500D01*
X221498726Y-120865500D01*
X221670438Y-120838303D01*
X221670441Y-120838302D01*
X221670442Y-120838302D01*
X221835778Y-120784581D01*
X221835778Y-120784580D01*
X221835781Y-120784580D01*
X221990684Y-120705653D01*
X222131333Y-120603465D01*
X222254265Y-120480533D01*
X222356453Y-120339884D01*
X222435380Y-120184981D01*
X222445475Y-120153911D01*
X222489102Y-120019642D01*
X222489102Y-120019641D01*
X222489103Y-120019638D01*
X222516300Y-119847926D01*
X222516300Y-119674074D01*
X222489103Y-119502362D01*
X222489102Y-119502358D01*
X222489102Y-119502357D01*
X222435381Y-119337021D01*
X222399443Y-119266489D01*
X222356453Y-119182116D01*
X222254265Y-119041467D01*
X222131333Y-118918535D01*
X221990684Y-118816347D01*
X221986252Y-118814089D01*
X221835778Y-118737418D01*
X221670441Y-118683697D01*
X221541654Y-118663299D01*
X221498726Y-118656500D01*
X221324874Y-118656500D01*
X221267636Y-118665565D01*
X221153160Y-118683697D01*
X221153157Y-118683697D01*
X220987821Y-118737418D01*
X220832915Y-118816347D01*
X220752669Y-118874649D01*
X220692267Y-118918535D01*
X220692265Y-118918537D01*
X220692264Y-118918537D01*
X220569337Y-119041464D01*
X220569337Y-119041465D01*
X220569335Y-119041467D01*
X220552203Y-119065047D01*
X220467147Y-119182115D01*
X220388214Y-119337028D01*
X220386519Y-119341122D01*
X220342674Y-119395522D01*
X220276378Y-119417581D01*
X220208680Y-119400297D01*
X220161073Y-119349155D01*
X220147962Y-119293686D01*
X220147775Y-118318248D01*
X220167446Y-118251209D01*
X220220241Y-118205444D01*
X220289397Y-118195487D01*
X220352959Y-118224499D01*
X220374875Y-118249335D01*
X220378315Y-118254484D01*
X220412034Y-118277014D01*
X220462499Y-118310734D01*
X220462502Y-118310734D01*
X220462503Y-118310735D01*
X220487466Y-118315700D01*
X220536733Y-118325500D01*
X222286866Y-118325499D01*
X222361101Y-118310734D01*
X222445284Y-118254484D01*
X222501534Y-118170301D01*
X222516300Y-118096067D01*
X222516299Y-116345934D01*
X222501534Y-116271699D01*
X222468326Y-116222000D01*
X222445284Y-116187515D01*
X222388988Y-116149900D01*
X222361101Y-116131266D01*
X222361099Y-116131265D01*
X222361096Y-116131264D01*
X222286869Y-116116500D01*
X220536736Y-116116500D01*
X220462498Y-116131266D01*
X220378315Y-116187515D01*
X220374454Y-116193295D01*
X220320840Y-116238099D01*
X220251515Y-116246805D01*
X220188488Y-116216649D01*
X220151770Y-116157205D01*
X220147353Y-116124426D01*
X220147169Y-115167612D01*
X220166841Y-115100572D01*
X220175931Y-115088182D01*
X220494723Y-114705895D01*
X220499061Y-114700967D01*
X220982480Y-114180565D01*
X220987072Y-114175881D01*
X221497623Y-113682077D01*
X221502445Y-113677656D01*
X222038684Y-113211848D01*
X222043745Y-113207683D01*
X222604103Y-112771231D01*
X222609380Y-112767342D01*
X223007344Y-112490244D01*
X223073605Y-112468093D01*
X223141327Y-112485282D01*
X223189006Y-112536356D01*
X223201503Y-112605098D01*
X223176572Y-112667494D01*
X223041394Y-112843662D01*
X223041383Y-112843679D01*
X222899850Y-113088820D01*
X222899842Y-113088836D01*
X222791515Y-113350363D01*
X222718250Y-113623795D01*
X222718247Y-113623808D01*
X222681300Y-113904458D01*
X222681300Y-114187541D01*
X222718247Y-114468191D01*
X222718248Y-114468196D01*
X222718249Y-114468202D01*
X222718250Y-114468204D01*
X222791515Y-114741636D01*
X222899842Y-115003163D01*
X222899850Y-115003179D01*
X223041383Y-115248320D01*
X223041394Y-115248336D01*
X223213716Y-115472911D01*
X223213722Y-115472918D01*
X223413881Y-115673077D01*
X223413888Y-115673083D01*
X223567146Y-115790682D01*
X223638472Y-115845412D01*
X223638479Y-115845416D01*
X223883620Y-115986949D01*
X223883636Y-115986957D01*
X224009548Y-116039111D01*
X224145162Y-116095284D01*
X224418598Y-116168551D01*
X224606551Y-116193295D01*
X224699258Y-116205500D01*
X224699259Y-116205500D01*
X224982342Y-116205500D01*
X225075049Y-116193295D01*
X225263002Y-116168551D01*
X225536438Y-116095284D01*
X225733306Y-116013738D01*
X225797963Y-115986957D01*
X225797966Y-115986955D01*
X225797972Y-115986953D01*
X226043128Y-115845412D01*
X226267713Y-115673082D01*
X226467882Y-115472913D01*
X226640212Y-115248328D01*
X226781753Y-115003172D01*
X226890084Y-114741638D01*
X226963351Y-114468202D01*
X227000300Y-114187541D01*
X227000300Y-113904459D01*
X226963351Y-113623798D01*
X226890084Y-113350362D01*
X226831820Y-113209701D01*
X226781757Y-113088836D01*
X226781749Y-113088820D01*
X226640216Y-112843679D01*
X226640212Y-112843672D01*
X226505026Y-112667494D01*
X226467883Y-112619088D01*
X226467877Y-112619081D01*
X226267718Y-112418922D01*
X226267711Y-112418916D01*
X226043136Y-112246594D01*
X226043134Y-112246592D01*
X226043128Y-112246588D01*
X226043123Y-112246585D01*
X226043120Y-112246583D01*
X225797979Y-112105050D01*
X225797963Y-112105042D01*
X225536436Y-111996715D01*
X225399720Y-111960082D01*
X225263002Y-111923449D01*
X225262996Y-111923448D01*
X225262991Y-111923447D01*
X224982342Y-111886500D01*
X224982341Y-111886500D01*
X224699259Y-111886500D01*
X224699258Y-111886500D01*
X224418608Y-111923447D01*
X224414621Y-111924241D01*
X224414289Y-111922574D01*
X224400649Y-111922242D01*
X224380535Y-111926648D01*
X224366427Y-111921409D01*
X224351383Y-111921043D01*
X224334337Y-111909492D01*
X224315036Y-111902325D01*
X224306000Y-111890290D01*
X224293542Y-111881849D01*
X224285446Y-111862917D01*
X224273084Y-111846452D01*
X224271988Y-111831443D01*
X224266072Y-111817606D01*
X224269497Y-111797301D01*
X224267999Y-111776767D01*
X224275191Y-111763550D01*
X224277695Y-111748710D01*
X224291554Y-111733480D01*
X224301396Y-111715396D01*
X224322290Y-111699706D01*
X224324722Y-111697035D01*
X224329569Y-111694232D01*
X224430143Y-111639126D01*
X224435962Y-111636139D01*
X225076202Y-111328650D01*
X225082217Y-111325956D01*
X225496515Y-111153599D01*
X228426500Y-111153599D01*
X228426500Y-111299601D01*
X228455128Y-111406441D01*
X228464288Y-111440628D01*
X228464289Y-111440631D01*
X228537286Y-111567067D01*
X228537288Y-111567070D01*
X228537289Y-111567071D01*
X228640529Y-111670311D01*
X228640530Y-111670312D01*
X228640532Y-111670313D01*
X228691443Y-111699706D01*
X228766971Y-111743312D01*
X228907999Y-111781100D01*
X228908001Y-111781100D01*
X229053999Y-111781100D01*
X229054001Y-111781100D01*
X229195029Y-111743312D01*
X229321471Y-111670311D01*
X229424711Y-111567071D01*
X229497712Y-111440629D01*
X229535500Y-111299601D01*
X229535500Y-111153599D01*
X229975900Y-111153599D01*
X229975900Y-111299601D01*
X230004528Y-111406441D01*
X230013688Y-111440628D01*
X230013689Y-111440631D01*
X230086686Y-111567067D01*
X230086688Y-111567070D01*
X230086689Y-111567071D01*
X230189929Y-111670311D01*
X230189930Y-111670312D01*
X230189932Y-111670313D01*
X230240843Y-111699706D01*
X230316371Y-111743312D01*
X230457399Y-111781100D01*
X230457401Y-111781100D01*
X230603399Y-111781100D01*
X230603401Y-111781100D01*
X230744429Y-111743312D01*
X230870871Y-111670311D01*
X230974111Y-111567071D01*
X231047112Y-111440629D01*
X231084900Y-111299601D01*
X231084900Y-111153599D01*
X231047112Y-111012571D01*
X230974111Y-110886129D01*
X230870871Y-110782889D01*
X230870870Y-110782888D01*
X230870867Y-110782886D01*
X230744431Y-110709889D01*
X230744430Y-110709888D01*
X230744429Y-110709888D01*
X230603401Y-110672100D01*
X230457399Y-110672100D01*
X230316371Y-110709888D01*
X230316368Y-110709889D01*
X230189932Y-110782886D01*
X230189927Y-110782890D01*
X230086690Y-110886127D01*
X230086686Y-110886132D01*
X230013689Y-111012568D01*
X230013688Y-111012571D01*
X229975900Y-111153599D01*
X229535500Y-111153599D01*
X229497712Y-111012571D01*
X229424711Y-110886129D01*
X229321471Y-110782889D01*
X229321470Y-110782888D01*
X229321467Y-110782886D01*
X229195031Y-110709889D01*
X229195030Y-110709888D01*
X229195029Y-110709888D01*
X229054001Y-110672100D01*
X228907999Y-110672100D01*
X228766971Y-110709888D01*
X228766968Y-110709889D01*
X228640532Y-110782886D01*
X228640527Y-110782890D01*
X228537290Y-110886127D01*
X228537286Y-110886132D01*
X228464289Y-111012568D01*
X228464288Y-111012571D01*
X228426500Y-111153599D01*
X225496515Y-111153599D01*
X225738009Y-111053132D01*
X225744149Y-111050768D01*
X226128222Y-110914585D01*
X226413560Y-110813412D01*
X226419868Y-110811364D01*
X226516254Y-110782890D01*
X227100965Y-110610156D01*
X227107355Y-110608452D01*
X227798312Y-110443934D01*
X227804738Y-110442584D01*
X228503493Y-110315250D01*
X228510003Y-110314243D01*
X229214574Y-110224453D01*
X229221109Y-110223798D01*
X229929459Y-110171813D01*
X229936033Y-110171507D01*
X230646166Y-110157473D01*
X230652776Y-110157519D01*
G37*
%TD.AperFunction*%
%TD*%
M02*
