M48
; DRILL file {KiCad 9.0.6-9.0.6~ubuntu24.04.1} date 2025-12-29T17:02:30-0800
; FORMAT={-:-/ absolute / metric / decimal}
; #@! TF.CreationDate,2025-12-29T17:02:30-08:00
; #@! TF.GenerationSoftware,Kicad,Pcbnew,9.0.6-9.0.6~ubuntu24.04.1
; #@! TF.FileFunction,MixedPlating,1,4
FMAT,2
METRIC
; #@! TA.AperFunction,Plated,PTH,ViaDrill
T1C0.508
; #@! TA.AperFunction,Plated,PTH,ComponentDrill
T2C0.508
; #@! TA.AperFunction,Plated,PTH,ComponentDrill
T3C1.000
; #@! TA.AperFunction,Plated,PTH,ComponentDrill
T4C1.092
; #@! TA.AperFunction,NonPlated,NPTH,ComponentDrill
T5C3.200
%
G90
G05
T1
X184.683Y-170.891
X185.318Y-87.376
X185.445Y-97.536
X185.497Y-95.504
X185.522Y-89.408
X185.623Y-93.472
X187.369Y-141.967
X188.316Y-117.627
X188.328Y-159.79
X188.341Y-165.837
X188.343Y-115.586
X188.343Y-128.829
X188.343Y-144.069
X188.366Y-132.842
X188.392Y-156.159
X188.417Y-136.398
X188.468Y-125.222
X188.468Y-145.999
X188.468Y-148.082
X188.544Y-123.215
X188.57Y-130.759
X188.57Y-153.695
X188.773Y-161.874
X189.306Y-138.379
X189.611Y-166.294
X190.322Y-91.465
X190.449Y-87.325
X190.488Y-89.802
X190.509Y-86.184
X190.576Y-156.134
X190.602Y-96.596
X190.703Y-154.965
X191.11Y-157.886
X192.507Y-159.283
X192.862Y-150.317
X193.065Y-154.153
X193.497Y-156.515
X193.802Y-164.186
X194.208Y-168.554
X195.072Y-141.732
X195.707Y-137.566
X195.758Y-153.289
X197.231Y-168.427
X198.222Y-144.577
X198.272Y-139.751
X198.603Y-157.201
X198.629Y-159.284
X198.755Y-117.602
X198.856Y-154.864
X200.533Y-139.751
X200.609Y-154.28
X201.803Y-168.529
X202.159Y-143.078
X202.387Y-159.131
X202.641Y-155.981
X203.302Y-161.087
X203.312Y-157.609
X204.622Y-159.156
X204.835Y-168.284
X205.283Y-97.18
X205.308Y-99.187
X205.994Y-135.407
X206.019Y-78.085
X206.07Y-130.429
X206.096Y-127.61
X206.553Y-140.233
X206.604Y-142.824
X206.629Y-153.213
X207.264Y-148.361
X207.677Y-117.481
X208.229Y-163.627
X208.585Y-115.265
X208.632Y-158.144
X209.067Y-146.533
X209.321Y-155.321
X209.423Y-168.453
X209.683Y-156.94
X210.058Y-124.206
X210.972Y-128.016
X211.506Y-152.019
X211.633Y-154.153
X211.785Y-167.03
X212.217Y-150.368
X212.319Y-139.598
X212.331Y-137.096
X213.309Y-156.616
X213.436Y-159.106
X213.487Y-126.441
X214.376Y-157.912
X214.82Y-132.524
X214.96Y-146.533
X215.138Y-81.534
X215.798Y-135.484
X215.799Y-100.984
X215.799Y-105.029
X215.925Y-148.133
X216.51Y-142.723
X216.916Y-145.542
X217.093Y-88.011
X217.094Y-153.238
X217.475Y-149.403
X217.839Y-85.172
X217.907Y-80.899
X217.983Y-90.018
X218.059Y-104.496
X218.465Y-134.899
X218.567Y-130.023
X218.694Y-95.936
X218.719Y-101.194
X219.075Y-155.143
X219.304Y-153.187
X219.304Y-165.354
X219.329Y-159.182
X219.437Y-150.463
X219.507Y-157.175
X220.353Y-112.006
X220.421Y-130.023
X220.523Y-134.849
X220.542Y-110.725
X220.955Y-100.457
X221.325Y-115.364
X221.59Y-99.314
X222.834Y-88.036
X222.885Y-79.883
X222.885Y-81.915
X222.885Y-83.947
X222.885Y-86.004
X222.987Y-92.05
X223.082Y-171.652
X226.543Y-104.419
X226.568Y-112.649
X226.668Y-98.434
T2
X228.801Y-97.205
X228.801Y-98.455
X228.801Y-99.705
X228.801Y-100.955
X228.801Y-102.205
X228.801Y-103.455
X228.801Y-108.498
X228.801Y-109.748
X228.801Y-110.998
X228.801Y-112.248
X228.801Y-113.498
X228.801Y-114.748
T3
X194.945Y-71.755
X194.945Y-74.295
X194.945Y-76.835
X194.945Y-79.375
X194.945Y-81.915
X194.945Y-84.455
X194.945Y-86.995
X194.945Y-89.535
X194.945Y-92.075
X194.945Y-94.615
X194.945Y-97.155
X194.945Y-99.695
X194.945Y-102.235
X194.945Y-104.775
X194.945Y-107.315
X194.945Y-109.855
X194.945Y-112.395
X194.945Y-114.935
X194.945Y-117.475
X194.945Y-120.015
X195.707Y-146.05
X196.088Y-133.985
X204.343Y-149.606
X212.725Y-71.755
X212.725Y-74.295
X212.725Y-76.835
X212.725Y-79.375
X212.725Y-81.915
X212.725Y-84.455
X212.725Y-86.995
X212.725Y-89.535
X212.725Y-92.075
X212.725Y-94.615
X212.725Y-97.155
X212.725Y-99.695
X212.725Y-102.235
X212.725Y-104.775
X212.725Y-107.315
X212.725Y-109.855
X212.725Y-112.395
X212.725Y-114.935
X212.725Y-117.475
X212.725Y-120.015
X216.789Y-127.381
X219.456Y-71.882
X219.456Y-74.422
X219.456Y-76.962
X220.218Y-127.381
X224.028Y-106.35
X224.536Y-95.504
T4
X180.34Y-158.988
X180.34Y-161.528
X180.34Y-166.608
X180.34Y-169.148
X180.412Y-82.798
X180.412Y-85.338
X180.412Y-87.878
X180.412Y-90.418
X180.412Y-96.768
X180.412Y-99.308
X180.412Y-101.848
X180.412Y-104.388
X180.412Y-106.928
X180.412Y-113.278
X180.412Y-115.818
X180.412Y-120.898
X180.412Y-123.438
X180.412Y-128.518
X180.412Y-131.058
X180.412Y-136.138
X180.412Y-138.678
X180.412Y-143.758
X180.412Y-146.298
X180.412Y-151.378
X180.412Y-153.918
X187.325Y-176.53
X189.865Y-176.53
X194.945Y-176.53
X197.485Y-176.53
X202.565Y-176.53
X205.105Y-176.53
X210.185Y-176.53
X212.725Y-176.53
X217.805Y-176.53
X220.345Y-176.53
X227.33Y-80.645
X227.33Y-83.185
X227.33Y-85.725
X227.33Y-88.265
X227.33Y-90.805
X227.33Y-120.888
X227.33Y-123.428
X227.33Y-128.508
X227.33Y-131.048
X227.33Y-136.128
X227.33Y-138.668
X227.33Y-143.748
X227.33Y-146.288
X227.33Y-151.368
X227.33Y-153.908
X227.33Y-158.988
X227.33Y-161.528
X227.33Y-166.608
X227.33Y-169.148
T5
X179.705Y-73.025
X179.705Y-177.165
X227.965Y-73.025
X227.965Y-177.165
M30
