%TF.GenerationSoftware,KiCad,Pcbnew,9.0.2-9.0.2-0~ubuntu24.04.1*%
%TF.CreationDate,2025-06-08T16:21:45-07:00*%
%TF.ProjectId,Pico-CAN,5069636f-2d43-4414-9e2e-6b696361645f,1.0*%
%TF.SameCoordinates,Original*%
%TF.FileFunction,Copper,L2,Bot*%
%TF.FilePolarity,Positive*%
%FSLAX46Y46*%
G04 Gerber Fmt 4.6, Leading zero omitted, Abs format (unit mm)*
G04 Created by KiCad (PCBNEW 9.0.2-9.0.2-0~ubuntu24.04.1) date 2025-06-08 16:21:45*
%MOMM*%
%LPD*%
G01*
G04 APERTURE LIST*
G04 Aperture macros list*
%AMRoundRect*
0 Rectangle with rounded corners*
0 $1 Rounding radius*
0 $2 $3 $4 $5 $6 $7 $8 $9 X,Y pos of 4 corners*
0 Add a 4 corners polygon primitive as box body*
4,1,4,$2,$3,$4,$5,$6,$7,$8,$9,$2,$3,0*
0 Add four circle primitives for the rounded corners*
1,1,$1+$1,$2,$3*
1,1,$1+$1,$4,$5*
1,1,$1+$1,$6,$7*
1,1,$1+$1,$8,$9*
0 Add four rect primitives between the rounded corners*
20,1,$1+$1,$2,$3,$4,$5,0*
20,1,$1+$1,$4,$5,$6,$7,0*
20,1,$1+$1,$6,$7,$8,$9,0*
20,1,$1+$1,$8,$9,$2,$3,0*%
%AMFreePoly0*
4,1,37,0.603843,0.796157,0.639018,0.796157,0.711114,0.766294,0.766294,0.711114,0.796157,0.639018,0.796157,0.603843,0.800000,0.600000,0.800000,-0.600000,0.796157,-0.603843,0.796157,-0.639018,0.766294,-0.711114,0.711114,-0.766294,0.639018,-0.796157,0.603843,-0.796157,0.600000,-0.800000,0.000000,-0.800000,0.000000,-0.796148,-0.078414,-0.796148,-0.232228,-0.765552,-0.377117,-0.705537,
-0.507515,-0.618408,-0.618408,-0.507515,-0.705537,-0.377117,-0.765552,-0.232228,-0.796148,-0.078414,-0.796148,0.078414,-0.765552,0.232228,-0.705537,0.377117,-0.618408,0.507515,-0.507515,0.618408,-0.377117,0.705537,-0.232228,0.765552,-0.078414,0.796148,0.000000,0.796148,0.000000,0.800000,0.600000,0.800000,0.603843,0.796157,0.603843,0.796157,$1*%
%AMFreePoly1*
4,1,37,0.000000,0.796148,0.078414,0.796148,0.232228,0.765552,0.377117,0.705537,0.507515,0.618408,0.618408,0.507515,0.705537,0.377117,0.765552,0.232228,0.796148,0.078414,0.796148,-0.078414,0.765552,-0.232228,0.705537,-0.377117,0.618408,-0.507515,0.507515,-0.618408,0.377117,-0.705537,0.232228,-0.765552,0.078414,-0.796148,0.000000,-0.796148,0.000000,-0.800000,-0.600000,-0.800000,
-0.603843,-0.796157,-0.639018,-0.796157,-0.711114,-0.766294,-0.766294,-0.711114,-0.796157,-0.639018,-0.796157,-0.603843,-0.800000,-0.600000,-0.800000,0.600000,-0.796157,0.603843,-0.796157,0.639018,-0.766294,0.711114,-0.711114,0.766294,-0.639018,0.796157,-0.603843,0.796157,-0.600000,0.800000,0.000000,0.800000,0.000000,0.796148,0.000000,0.796148,$1*%
G04 Aperture macros list end*
%TA.AperFunction,ComponentPad*%
%ADD10R,1.778000X1.778000*%
%TD*%
%TA.AperFunction,ComponentPad*%
%ADD11C,1.778000*%
%TD*%
%TA.AperFunction,ComponentPad*%
%ADD12RoundRect,0.200000X-0.600000X-0.600000X0.600000X-0.600000X0.600000X0.600000X-0.600000X0.600000X0*%
%TD*%
%TA.AperFunction,ComponentPad*%
%ADD13C,1.600000*%
%TD*%
%TA.AperFunction,ComponentPad*%
%ADD14FreePoly0,0.000000*%
%TD*%
%TA.AperFunction,ComponentPad*%
%ADD15FreePoly1,0.000000*%
%TD*%
%TA.AperFunction,ComponentPad*%
%ADD16R,1.700000X1.700000*%
%TD*%
%TA.AperFunction,ComponentPad*%
%ADD17C,1.700000*%
%TD*%
%TA.AperFunction,ViaPad*%
%ADD18C,0.762000*%
%TD*%
%TA.AperFunction,Conductor*%
%ADD19C,0.304800*%
%TD*%
%TA.AperFunction,Conductor*%
%ADD20C,0.635000*%
%TD*%
G04 APERTURE END LIST*
D10*
%TO.P,J2,1,Pin_1*%
%TO.N,/CAN_L*%
X219730000Y-115593500D03*
D11*
%TO.P,J2,2,Pin_2*%
%TO.N,/CAN_H*%
X222270000Y-115593500D03*
%TD*%
D10*
%TO.P,J1,1,Pin_1*%
%TO.N,/CAN_L*%
X210060000Y-115640000D03*
D11*
%TO.P,J1,2,Pin_2*%
%TO.N,/CAN_H*%
X212600000Y-115640000D03*
%TD*%
D12*
%TO.P,A1,1,GPIO0*%
%TO.N,/GPIO0*%
X184500000Y-105440000D03*
D13*
%TO.P,A1,2,GPIO1*%
%TO.N,/GPIO1*%
X184500000Y-107980000D03*
D14*
%TO.P,A1,3,GND*%
%TO.N,GND*%
X184500000Y-110520000D03*
D13*
%TO.P,A1,4,GPIO2*%
%TO.N,/GPIO2*%
X184500000Y-113060000D03*
%TO.P,A1,5,GPIO3*%
%TO.N,/GPIO3*%
X184500000Y-115600000D03*
%TO.P,A1,6,GPIO4*%
%TO.N,/GPIO4*%
X184500000Y-118140000D03*
%TO.P,A1,7,GPIO5*%
%TO.N,/GPIO5*%
X184500000Y-120680000D03*
D14*
%TO.P,A1,8,GND*%
%TO.N,GND*%
X184500000Y-123220000D03*
D13*
%TO.P,A1,9,GPIO6*%
%TO.N,/GPIO6*%
X184500000Y-125760000D03*
%TO.P,A1,10,GPIO7*%
%TO.N,/GPIO7*%
X184500000Y-128300000D03*
%TO.P,A1,11,GPIO8*%
%TO.N,/GPIO8*%
X184500000Y-130840000D03*
%TO.P,A1,12,GPIO9*%
%TO.N,/GPIO9*%
X184500000Y-133380000D03*
D14*
%TO.P,A1,13,GND*%
%TO.N,GND*%
X184500000Y-135920000D03*
D13*
%TO.P,A1,14,GPIO10*%
%TO.N,/GPIO10*%
X184500000Y-138460000D03*
%TO.P,A1,15,GPIO11*%
%TO.N,/GPIO11*%
X184500000Y-141000000D03*
%TO.P,A1,16,GPIO12*%
%TO.N,/GPIO12*%
X184500000Y-143540000D03*
%TO.P,A1,17,GPIO13*%
%TO.N,/GPIO13*%
X184500000Y-146080000D03*
D14*
%TO.P,A1,18,GND*%
%TO.N,GND*%
X184500000Y-148620000D03*
D13*
%TO.P,A1,19,GPIO14*%
%TO.N,/GPIO14*%
X184500000Y-151160000D03*
%TO.P,A1,20,GPIO15*%
%TO.N,/GPIO15*%
X184500000Y-153700000D03*
%TO.P,A1,21,GPIO16*%
%TO.N,unconnected-(A1-GPIO16-Pad21)*%
X202280000Y-153700000D03*
%TO.P,A1,22,GPIO17*%
%TO.N,/START_OF_FRAME*%
X202280000Y-151160000D03*
D15*
%TO.P,A1,23,GND*%
%TO.N,GND*%
X202280000Y-148620000D03*
D13*
%TO.P,A1,24,GPIO18*%
%TO.N,/~{CAN_RX_IRQ}*%
X202280000Y-146080000D03*
%TO.P,A1,25,SPI0_TX*%
%TO.N,/SPI0_MOSI*%
X202280000Y-143540000D03*
%TO.P,A1,26,SPI0_RX*%
%TO.N,/SPI0_MISO*%
X202280000Y-141000000D03*
%TO.P,A1,27,~{SPI0_CSn}*%
%TO.N,/~{SPI0_CS}*%
X202280000Y-138460000D03*
D15*
%TO.P,A1,28,GND*%
%TO.N,GND*%
X202280000Y-135920000D03*
D13*
%TO.P,A1,29,SPI0_SCK*%
%TO.N,/SPI0_SCK*%
X202280000Y-133380000D03*
%TO.P,A1,30,RUN*%
%TO.N,Net-(A1-RUN)*%
X202280000Y-130840000D03*
%TO.P,A1,31,GPIO26*%
%TO.N,/~{CAN_TX_IRQ}*%
X202280000Y-128300000D03*
%TO.P,A1,32,GPIO27*%
%TO.N,/~{CAN_IRQ}*%
X202280000Y-125760000D03*
D15*
%TO.P,A1,33,AGND*%
%TO.N,GND*%
X202280000Y-123220000D03*
D13*
%TO.P,A1,34,GPIO28*%
%TO.N,/XCVR_STBY*%
X202280000Y-120680000D03*
%TO.P,A1,35,ADC_VREF*%
%TO.N,unconnected-(A1-ADC_VREF-Pad35)*%
X202280000Y-118140000D03*
%TO.P,A1,36,3V3*%
%TO.N,+3V3*%
X202280000Y-115600000D03*
%TO.P,A1,37,3V3_EN*%
%TO.N,unconnected-(A1-3V3_EN-Pad37)_1*%
X202280000Y-113060000D03*
D15*
%TO.P,A1,38,GND*%
%TO.N,GND*%
X202280000Y-110520000D03*
D13*
%TO.P,A1,39,VSYS*%
%TO.N,+5V*%
X202280000Y-107980000D03*
%TO.P,A1,40,VBUS*%
%TO.N,unconnected-(A1-VBUS-Pad40)_1*%
X202280000Y-105440000D03*
%TD*%
D16*
%TO.P,J3,1,Pin_1*%
%TO.N,/GPIO0*%
X171196000Y-114173000D03*
D17*
%TO.P,J3,2,Pin_2*%
%TO.N,GND*%
X173736000Y-114173000D03*
%TO.P,J3,3,Pin_3*%
%TO.N,/GPIO1*%
X171196000Y-116713000D03*
%TO.P,J3,4,Pin_4*%
%TO.N,+5V*%
X173736000Y-116713000D03*
%TO.P,J3,5,Pin_5*%
%TO.N,GND*%
X171196000Y-119253000D03*
%TO.P,J3,6,Pin_6*%
%TO.N,/GPIO2*%
X173736000Y-119253000D03*
%TO.P,J3,7,Pin_7*%
%TO.N,/GPIO3*%
X171196000Y-121793000D03*
%TO.P,J3,8,Pin_8*%
%TO.N,GND*%
X173736000Y-121793000D03*
%TO.P,J3,9,Pin_9*%
%TO.N,/GPIO4*%
X171196000Y-124333000D03*
%TO.P,J3,10,Pin_10*%
%TO.N,/GPIO5*%
X173736000Y-124333000D03*
%TO.P,J3,11,Pin_11*%
%TO.N,GND*%
X171196000Y-126873000D03*
%TO.P,J3,12,Pin_12*%
%TO.N,/GPIO6*%
X173736000Y-126873000D03*
%TO.P,J3,13,Pin_13*%
%TO.N,/GPIO7*%
X171196000Y-129413000D03*
%TO.P,J3,14,Pin_14*%
%TO.N,GND*%
X173736000Y-129413000D03*
%TO.P,J3,15,Pin_15*%
%TO.N,/GPIO8*%
X171196000Y-131953000D03*
%TO.P,J3,16,Pin_16*%
%TO.N,/GPIO9*%
X173736000Y-131953000D03*
%TO.P,J3,17,Pin_17*%
%TO.N,GND*%
X171196000Y-134493000D03*
%TO.P,J3,18,Pin_18*%
%TO.N,/GPIO10*%
X173736000Y-134493000D03*
%TO.P,J3,19,Pin_19*%
%TO.N,/GPIO11*%
X171196000Y-137033000D03*
%TO.P,J3,20,Pin_20*%
%TO.N,GND*%
X173736000Y-137033000D03*
%TO.P,J3,21,Pin_21*%
%TO.N,/GPIO12*%
X171196000Y-139573000D03*
%TO.P,J3,22,Pin_22*%
%TO.N,/GPIO13*%
X173736000Y-139573000D03*
%TO.P,J3,23,Pin_23*%
%TO.N,GND*%
X171196000Y-142113000D03*
%TO.P,J3,24,Pin_24*%
%TO.N,/GPIO14*%
X173736000Y-142113000D03*
%TO.P,J3,25,Pin_25*%
%TO.N,+3V3*%
X171196000Y-144653000D03*
%TO.P,J3,26,Pin_26*%
%TO.N,/GPIO15*%
X173736000Y-144653000D03*
%TD*%
D18*
%TO.N,GND*%
X209169000Y-132156200D03*
X213436200Y-131546600D03*
X220599000Y-123723400D03*
X220065600Y-134645400D03*
X224790000Y-135509000D03*
X212547200Y-129717800D03*
X207899000Y-137515600D03*
X217703400Y-141173200D03*
%TO.N,/GPIO1*%
X181102000Y-106227400D03*
%TO.N,/START_OF_FRAME*%
X221462600Y-144767300D03*
X221462600Y-146672300D03*
%TO.N,+5V*%
X224472500Y-140766800D03*
X222567500Y-140766800D03*
%TO.N,/~{CAN_IRQ}*%
X219405200Y-144767300D03*
X219405200Y-146672300D03*
%TO.N,/GPIO15*%
X180975000Y-151638000D03*
%TD*%
D19*
%TO.N,/GPIO1*%
X181248214Y-107461214D02*
X181767000Y-107980000D01*
X181767000Y-107980000D02*
X184500000Y-107980000D01*
X181248214Y-106373614D02*
X181248214Y-107461214D01*
X181102000Y-106227400D02*
X181248214Y-106373614D01*
%TO.N,/START_OF_FRAME*%
X221462600Y-144767300D02*
X221462600Y-146672300D01*
D20*
%TO.N,+5V*%
X224472500Y-140766800D02*
X222567500Y-140766800D01*
D19*
%TO.N,/~{CAN_IRQ}*%
X219405200Y-146672300D02*
X219405200Y-144767300D01*
%TO.N,/GPIO15*%
X184500000Y-153700000D02*
X183037000Y-153700000D01*
X183037000Y-153700000D02*
X180975000Y-151638000D01*
%TD*%
%TA.AperFunction,Conductor*%
%TO.N,GND*%
G36*
X232067725Y-103655185D02*
G01*
X232113480Y-103707989D01*
X232123424Y-103777147D01*
X232094399Y-103840703D01*
X232035621Y-103878477D01*
X232022218Y-103881616D01*
X231990490Y-103887210D01*
X231990479Y-103887212D01*
X231796543Y-103939177D01*
X231628593Y-103984180D01*
X231628586Y-103984182D01*
X231628581Y-103984184D01*
X231276537Y-104112316D01*
X230936988Y-104270650D01*
X230936973Y-104270658D01*
X230612528Y-104457977D01*
X230612502Y-104457993D01*
X230305619Y-104672875D01*
X230018616Y-104913700D01*
X229753700Y-105178616D01*
X229512875Y-105465619D01*
X229297993Y-105772502D01*
X229297977Y-105772528D01*
X229110658Y-106096973D01*
X229110650Y-106096988D01*
X228952316Y-106436537D01*
X228847308Y-106725048D01*
X228824180Y-106788593D01*
X228787496Y-106925500D01*
X228727212Y-107150479D01*
X228727210Y-107150490D01*
X228662154Y-107519437D01*
X228662154Y-107519439D01*
X228629500Y-107892671D01*
X228629500Y-108267328D01*
X228662154Y-108640560D01*
X228662154Y-108640562D01*
X228727210Y-109009509D01*
X228727212Y-109009520D01*
X228751225Y-109099137D01*
X228824180Y-109371407D01*
X228824183Y-109371417D01*
X228824184Y-109371418D01*
X228952316Y-109723462D01*
X229110650Y-110063011D01*
X229110655Y-110063020D01*
X229297982Y-110387480D01*
X229297986Y-110387486D01*
X229297993Y-110387497D01*
X229512875Y-110694380D01*
X229547401Y-110735526D01*
X229753698Y-110981381D01*
X230018619Y-111246302D01*
X230105142Y-111318903D01*
X230305619Y-111487124D01*
X230612502Y-111702006D01*
X230612509Y-111702010D01*
X230612520Y-111702018D01*
X230916604Y-111877581D01*
X230936973Y-111889341D01*
X230936988Y-111889349D01*
X231276537Y-112047683D01*
X231439355Y-112106943D01*
X231628593Y-112175820D01*
X231990481Y-112272788D01*
X232359444Y-112337846D01*
X232732671Y-112370499D01*
X232732672Y-112370500D01*
X232732673Y-112370500D01*
X233107328Y-112370500D01*
X233107328Y-112370499D01*
X233480556Y-112337846D01*
X233849519Y-112272788D01*
X234211407Y-112175820D01*
X234563467Y-112047681D01*
X234903020Y-111889345D01*
X235227480Y-111702018D01*
X235534379Y-111487125D01*
X235821381Y-111246302D01*
X236086302Y-110981381D01*
X236327125Y-110694379D01*
X236542018Y-110387480D01*
X236729345Y-110063020D01*
X236887681Y-109723467D01*
X236888545Y-109721095D01*
X236942897Y-109571761D01*
X237015820Y-109371407D01*
X237112788Y-109009519D01*
X237118384Y-108977781D01*
X237149411Y-108915179D01*
X237209358Y-108879288D01*
X237279192Y-108881505D01*
X237336742Y-108921125D01*
X237363736Y-108985570D01*
X237364500Y-108999314D01*
X237364500Y-150000685D01*
X237344815Y-150067724D01*
X237292011Y-150113479D01*
X237222853Y-150123423D01*
X237159297Y-150094398D01*
X237121523Y-150035620D01*
X237118384Y-150022218D01*
X237114587Y-150000685D01*
X237112788Y-149990481D01*
X237015820Y-149628593D01*
X236939499Y-149418902D01*
X236887683Y-149276537D01*
X236729349Y-148936988D01*
X236729341Y-148936973D01*
X236710231Y-148903874D01*
X236542018Y-148612520D01*
X236542008Y-148612506D01*
X236542006Y-148612502D01*
X236327124Y-148305619D01*
X236152217Y-148097174D01*
X236086302Y-148018619D01*
X235821381Y-147753698D01*
X235644848Y-147605569D01*
X235534380Y-147512875D01*
X235227497Y-147297993D01*
X235227486Y-147297986D01*
X235227480Y-147297982D01*
X235119204Y-147235469D01*
X234903026Y-147110658D01*
X234903011Y-147110650D01*
X234563462Y-146952316D01*
X234211418Y-146824184D01*
X234211417Y-146824183D01*
X234211407Y-146824180D01*
X233942786Y-146752203D01*
X233849520Y-146727212D01*
X233849509Y-146727210D01*
X233480561Y-146662154D01*
X233107328Y-146629500D01*
X233107327Y-146629500D01*
X232732673Y-146629500D01*
X232732672Y-146629500D01*
X232359439Y-146662154D01*
X232359437Y-146662154D01*
X231990490Y-146727210D01*
X231990479Y-146727212D01*
X231796543Y-146779177D01*
X231628593Y-146824180D01*
X231628586Y-146824182D01*
X231628581Y-146824184D01*
X231276537Y-146952316D01*
X230936988Y-147110650D01*
X230936973Y-147110658D01*
X230612528Y-147297977D01*
X230612502Y-147297993D01*
X230305619Y-147512875D01*
X230018616Y-147753700D01*
X229753700Y-148018616D01*
X229512875Y-148305619D01*
X229297993Y-148612502D01*
X229297977Y-148612528D01*
X229110658Y-148936973D01*
X229110650Y-148936988D01*
X228952316Y-149276537D01*
X228846147Y-149568238D01*
X228824180Y-149628593D01*
X228779177Y-149796543D01*
X228727212Y-149990479D01*
X228727210Y-149990490D01*
X228662154Y-150359437D01*
X228662154Y-150359439D01*
X228629500Y-150732671D01*
X228629500Y-151107328D01*
X228662154Y-151480560D01*
X228662154Y-151480562D01*
X228727210Y-151849509D01*
X228727212Y-151849519D01*
X228824180Y-152211407D01*
X228824183Y-152211417D01*
X228824184Y-152211418D01*
X228952316Y-152563462D01*
X229110650Y-152903011D01*
X229110655Y-152903020D01*
X229297982Y-153227480D01*
X229297986Y-153227486D01*
X229297993Y-153227497D01*
X229512875Y-153534380D01*
X229564699Y-153596141D01*
X229753698Y-153821381D01*
X230018619Y-154086302D01*
X230129556Y-154179389D01*
X230305619Y-154327124D01*
X230612502Y-154542006D01*
X230612509Y-154542010D01*
X230612520Y-154542018D01*
X230772683Y-154634488D01*
X230936973Y-154729341D01*
X230936988Y-154729349D01*
X231276537Y-154887683D01*
X231439355Y-154946943D01*
X231628593Y-155015820D01*
X231990481Y-155112788D01*
X232022218Y-155118384D01*
X232084821Y-155149411D01*
X232120712Y-155209358D01*
X232118495Y-155279192D01*
X232078875Y-155336742D01*
X232014430Y-155363736D01*
X232000686Y-155364500D01*
X173999314Y-155364500D01*
X173932275Y-155344815D01*
X173886520Y-155292011D01*
X173876576Y-155222853D01*
X173905601Y-155159297D01*
X173964379Y-155121523D01*
X173977782Y-155118384D01*
X174009519Y-155112788D01*
X174371407Y-155015820D01*
X174723467Y-154887681D01*
X175063020Y-154729345D01*
X175387480Y-154542018D01*
X175694379Y-154327125D01*
X175981381Y-154086302D01*
X176246302Y-153821381D01*
X176487125Y-153534379D01*
X176702018Y-153227480D01*
X176889345Y-152903020D01*
X177047681Y-152563467D01*
X177175820Y-152211407D01*
X177272788Y-151849519D01*
X177321122Y-151575404D01*
X180339500Y-151575404D01*
X180339500Y-151700595D01*
X180363920Y-151823361D01*
X180363923Y-151823373D01*
X180411823Y-151939015D01*
X180411830Y-151939028D01*
X180481374Y-152043107D01*
X180481377Y-152043111D01*
X180569888Y-152131622D01*
X180569892Y-152131625D01*
X180673971Y-152201169D01*
X180673984Y-152201176D01*
X180789626Y-152249076D01*
X180789631Y-152249078D01*
X180912404Y-152273499D01*
X180912408Y-152273500D01*
X180912409Y-152273500D01*
X180983694Y-152273500D01*
X181050733Y-152293185D01*
X181071375Y-152309819D01*
X182711399Y-153949842D01*
X182787158Y-154025601D01*
X182879943Y-154079170D01*
X182983431Y-154106900D01*
X183444307Y-154106900D01*
X183511346Y-154126585D01*
X183557101Y-154179389D01*
X183558869Y-154183450D01*
X183565512Y-154199490D01*
X183680916Y-154372203D01*
X183680919Y-154372207D01*
X183827792Y-154519080D01*
X183827796Y-154519083D01*
X184000507Y-154634486D01*
X184000508Y-154634486D01*
X184000509Y-154634487D01*
X184000511Y-154634488D01*
X184058231Y-154658396D01*
X184192414Y-154713976D01*
X184396136Y-154754499D01*
X184396139Y-154754500D01*
X184396141Y-154754500D01*
X184603861Y-154754500D01*
X184603862Y-154754499D01*
X184807586Y-154713976D01*
X184999493Y-154634486D01*
X185172204Y-154519083D01*
X185319083Y-154372204D01*
X185434486Y-154199493D01*
X185513976Y-154007586D01*
X185554500Y-153803859D01*
X185554500Y-153596141D01*
X185554500Y-153596138D01*
X185554499Y-153596136D01*
X201225500Y-153596136D01*
X201225500Y-153803863D01*
X201266022Y-154007578D01*
X201266025Y-154007590D01*
X201345511Y-154199488D01*
X201345512Y-154199490D01*
X201460916Y-154372203D01*
X201460919Y-154372207D01*
X201607792Y-154519080D01*
X201607796Y-154519083D01*
X201780507Y-154634486D01*
X201780508Y-154634486D01*
X201780509Y-154634487D01*
X201780511Y-154634488D01*
X201838231Y-154658396D01*
X201972414Y-154713976D01*
X202176136Y-154754499D01*
X202176139Y-154754500D01*
X202176141Y-154754500D01*
X202383861Y-154754500D01*
X202383862Y-154754499D01*
X202587586Y-154713976D01*
X202779493Y-154634486D01*
X202952204Y-154519083D01*
X203099083Y-154372204D01*
X203214486Y-154199493D01*
X203293976Y-154007586D01*
X203334500Y-153803859D01*
X203334500Y-153596141D01*
X203334500Y-153596138D01*
X203334499Y-153596136D01*
X203293977Y-153392421D01*
X203293976Y-153392414D01*
X203252839Y-153293100D01*
X203214488Y-153200511D01*
X203214487Y-153200509D01*
X203099083Y-153027796D01*
X203099080Y-153027792D01*
X202952207Y-152880919D01*
X202952203Y-152880916D01*
X202779490Y-152765512D01*
X202779488Y-152765511D01*
X202587590Y-152686025D01*
X202587578Y-152686022D01*
X202383862Y-152645500D01*
X202383859Y-152645500D01*
X202176141Y-152645500D01*
X202176138Y-152645500D01*
X201972421Y-152686022D01*
X201972409Y-152686025D01*
X201780511Y-152765511D01*
X201780509Y-152765512D01*
X201607796Y-152880916D01*
X201607792Y-152880919D01*
X201460919Y-153027792D01*
X201460916Y-153027796D01*
X201345512Y-153200509D01*
X201345511Y-153200511D01*
X201266025Y-153392409D01*
X201266022Y-153392421D01*
X201225500Y-153596136D01*
X185554499Y-153596136D01*
X185513977Y-153392421D01*
X185513976Y-153392414D01*
X185472839Y-153293100D01*
X185434488Y-153200511D01*
X185434487Y-153200509D01*
X185319083Y-153027796D01*
X185319080Y-153027792D01*
X185172207Y-152880919D01*
X185172203Y-152880916D01*
X184999490Y-152765512D01*
X184999488Y-152765511D01*
X184807590Y-152686025D01*
X184807578Y-152686022D01*
X184603862Y-152645500D01*
X184603859Y-152645500D01*
X184396141Y-152645500D01*
X184396138Y-152645500D01*
X184192421Y-152686022D01*
X184192409Y-152686025D01*
X184000511Y-152765511D01*
X184000509Y-152765512D01*
X183827796Y-152880916D01*
X183827792Y-152880919D01*
X183680919Y-153027792D01*
X183680916Y-153027796D01*
X183565512Y-153200509D01*
X183558869Y-153216550D01*
X183546325Y-153232116D01*
X183538020Y-153250303D01*
X183524851Y-153258766D01*
X183515030Y-153270954D01*
X183496061Y-153277268D01*
X183479242Y-153288077D01*
X183451686Y-153292039D01*
X183448736Y-153293021D01*
X183444307Y-153293100D01*
X183256905Y-153293100D01*
X183189866Y-153273415D01*
X183169224Y-153256781D01*
X181646819Y-151734375D01*
X181613334Y-151673052D01*
X181610500Y-151646694D01*
X181610500Y-151575408D01*
X181610499Y-151575404D01*
X181591633Y-151480560D01*
X181586078Y-151452631D01*
X181586076Y-151452626D01*
X181538176Y-151336984D01*
X181538169Y-151336971D01*
X181468625Y-151232892D01*
X181468622Y-151232888D01*
X181380109Y-151144375D01*
X181276028Y-151074830D01*
X181276015Y-151074823D01*
X181230900Y-151056136D01*
X183445500Y-151056136D01*
X183445500Y-151263863D01*
X183486022Y-151467578D01*
X183486025Y-151467590D01*
X183565511Y-151659488D01*
X183565512Y-151659490D01*
X183680916Y-151832203D01*
X183680919Y-151832207D01*
X183827792Y-151979080D01*
X183827796Y-151979083D01*
X184000507Y-152094486D01*
X184000508Y-152094486D01*
X184000509Y-152094487D01*
X184000511Y-152094488D01*
X184192409Y-152173974D01*
X184192414Y-152173976D01*
X184380592Y-152211407D01*
X184396136Y-152214499D01*
X184396139Y-152214500D01*
X184396141Y-152214500D01*
X184603861Y-152214500D01*
X184603862Y-152214499D01*
X184807586Y-152173976D01*
X184999493Y-152094486D01*
X185172204Y-151979083D01*
X185319083Y-151832204D01*
X185434486Y-151659493D01*
X185513976Y-151467586D01*
X185554500Y-151263859D01*
X185554500Y-151056141D01*
X185554500Y-151056138D01*
X185554499Y-151056136D01*
X201225500Y-151056136D01*
X201225500Y-151263863D01*
X201266022Y-151467578D01*
X201266025Y-151467590D01*
X201345511Y-151659488D01*
X201345512Y-151659490D01*
X201460916Y-151832203D01*
X201460919Y-151832207D01*
X201607792Y-151979080D01*
X201607796Y-151979083D01*
X201780507Y-152094486D01*
X201780508Y-152094486D01*
X201780509Y-152094487D01*
X201780511Y-152094488D01*
X201972409Y-152173974D01*
X201972414Y-152173976D01*
X202160592Y-152211407D01*
X202176136Y-152214499D01*
X202176139Y-152214500D01*
X202176141Y-152214500D01*
X202383861Y-152214500D01*
X202383862Y-152214499D01*
X202587586Y-152173976D01*
X202779493Y-152094486D01*
X202952204Y-151979083D01*
X203099083Y-151832204D01*
X203214486Y-151659493D01*
X203293976Y-151467586D01*
X203334500Y-151263859D01*
X203334500Y-151056141D01*
X203334500Y-151056138D01*
X203334499Y-151056136D01*
X203328688Y-151026922D01*
X203293976Y-150852414D01*
X203214486Y-150660507D01*
X203099083Y-150487796D01*
X203099080Y-150487792D01*
X202952207Y-150340919D01*
X202952203Y-150340916D01*
X202779490Y-150225512D01*
X202779488Y-150225511D01*
X202587590Y-150146025D01*
X202587578Y-150146022D01*
X202383862Y-150105500D01*
X202383859Y-150105500D01*
X202176141Y-150105500D01*
X202176138Y-150105500D01*
X201972421Y-150146022D01*
X201972409Y-150146025D01*
X201780511Y-150225511D01*
X201780509Y-150225512D01*
X201607796Y-150340916D01*
X201607792Y-150340919D01*
X201460919Y-150487792D01*
X201460916Y-150487796D01*
X201345512Y-150660509D01*
X201345511Y-150660511D01*
X201266025Y-150852409D01*
X201266022Y-150852421D01*
X201225500Y-151056136D01*
X185554499Y-151056136D01*
X185548688Y-151026922D01*
X185513976Y-150852414D01*
X185434486Y-150660507D01*
X185319083Y-150487796D01*
X185319080Y-150487792D01*
X185172207Y-150340919D01*
X185172203Y-150340916D01*
X184999490Y-150225512D01*
X184999488Y-150225511D01*
X184807590Y-150146025D01*
X184807578Y-150146022D01*
X184603862Y-150105500D01*
X184603859Y-150105500D01*
X184396141Y-150105500D01*
X184396138Y-150105500D01*
X184192421Y-150146022D01*
X184192409Y-150146025D01*
X184000511Y-150225511D01*
X184000509Y-150225512D01*
X183827796Y-150340916D01*
X183827792Y-150340919D01*
X183680919Y-150487792D01*
X183680916Y-150487796D01*
X183565512Y-150660509D01*
X183565511Y-150660511D01*
X183486025Y-150852409D01*
X183486022Y-150852421D01*
X183445500Y-151056136D01*
X181230900Y-151056136D01*
X181160373Y-151026923D01*
X181160361Y-151026920D01*
X181037595Y-151002500D01*
X181037591Y-151002500D01*
X180912409Y-151002500D01*
X180912404Y-151002500D01*
X180789638Y-151026920D01*
X180789626Y-151026923D01*
X180673984Y-151074823D01*
X180673971Y-151074830D01*
X180569892Y-151144374D01*
X180569888Y-151144377D01*
X180481377Y-151232888D01*
X180481374Y-151232892D01*
X180411830Y-151336971D01*
X180411823Y-151336984D01*
X180363923Y-151452626D01*
X180363920Y-151452638D01*
X180339500Y-151575404D01*
X177321122Y-151575404D01*
X177337846Y-151480556D01*
X177370500Y-151107327D01*
X177370500Y-150732673D01*
X177337846Y-150359444D01*
X177272788Y-149990481D01*
X177175820Y-149628593D01*
X177116650Y-149466023D01*
X177047683Y-149276537D01*
X176889349Y-148936988D01*
X176889341Y-148936973D01*
X176870231Y-148903874D01*
X176702018Y-148612520D01*
X176652084Y-148541207D01*
X183441000Y-148541207D01*
X183441000Y-148698792D01*
X183445974Y-148749309D01*
X183476717Y-148903874D01*
X183491458Y-148952468D01*
X183551761Y-149098050D01*
X183551769Y-149098066D01*
X183575690Y-149142822D01*
X183575701Y-149142840D01*
X183650175Y-149254297D01*
X184055086Y-148849386D01*
X184099901Y-148927007D01*
X184192993Y-149020099D01*
X184270612Y-149064912D01*
X183865701Y-149469823D01*
X183977167Y-149544303D01*
X183977174Y-149544307D01*
X184021933Y-149568230D01*
X184021949Y-149568238D01*
X184167531Y-149628541D01*
X184216125Y-149643282D01*
X184370690Y-149674025D01*
X184421208Y-149679000D01*
X185139784Y-149679000D01*
X185139786Y-149678999D01*
X185238888Y-149659286D01*
X185238896Y-149659284D01*
X185298903Y-149634428D01*
X184729387Y-149064912D01*
X184807007Y-149020099D01*
X184900099Y-148927007D01*
X184944912Y-148849387D01*
X185514428Y-149418903D01*
X185539284Y-149358896D01*
X185539286Y-149358888D01*
X185558999Y-149259786D01*
X185559000Y-149259784D01*
X185559000Y-147980215D01*
X201221000Y-147980215D01*
X201221000Y-149259786D01*
X201240713Y-149358893D01*
X201240716Y-149358901D01*
X201265569Y-149418902D01*
X201265570Y-149418903D01*
X201835086Y-148849386D01*
X201879901Y-148927007D01*
X201972993Y-149020099D01*
X202050612Y-149064912D01*
X201481095Y-149634428D01*
X201541103Y-149659284D01*
X201541111Y-149659286D01*
X201640213Y-149678999D01*
X201640216Y-149679000D01*
X202358792Y-149679000D01*
X202409309Y-149674025D01*
X202563874Y-149643282D01*
X202612468Y-149628541D01*
X202758050Y-149568238D01*
X202758064Y-149568231D01*
X202802833Y-149544302D01*
X202802839Y-149544298D01*
X202914298Y-149469824D01*
X202509386Y-149064912D01*
X202587007Y-149020099D01*
X202680099Y-148927007D01*
X202724912Y-148849386D01*
X203129824Y-149254298D01*
X203204298Y-149142839D01*
X203204302Y-149142833D01*
X203228231Y-149098064D01*
X203228238Y-149098050D01*
X203288541Y-148952468D01*
X203303282Y-148903874D01*
X203334025Y-148749309D01*
X203339000Y-148698792D01*
X203339000Y-148541207D01*
X203334025Y-148490690D01*
X203303282Y-148336125D01*
X203288541Y-148287531D01*
X203228238Y-148141949D01*
X203228230Y-148141933D01*
X203204307Y-148097174D01*
X203204303Y-148097167D01*
X203129823Y-147985701D01*
X202724912Y-148390612D01*
X202680099Y-148312993D01*
X202587007Y-148219901D01*
X202509386Y-148175087D01*
X202914297Y-147770175D01*
X202802840Y-147695701D01*
X202802822Y-147695690D01*
X202758066Y-147671769D01*
X202758050Y-147671761D01*
X202612468Y-147611458D01*
X202563874Y-147596717D01*
X202409309Y-147565974D01*
X202358792Y-147561000D01*
X201640216Y-147561000D01*
X201541106Y-147580714D01*
X201541103Y-147580715D01*
X201481095Y-147605569D01*
X202050613Y-148175087D01*
X201972993Y-148219901D01*
X201879901Y-148312993D01*
X201835087Y-148390613D01*
X201265569Y-147821095D01*
X201240715Y-147881103D01*
X201240714Y-147881106D01*
X201221000Y-147980215D01*
X185559000Y-147980215D01*
X185558999Y-147980213D01*
X185539286Y-147881111D01*
X185539284Y-147881103D01*
X185514428Y-147821095D01*
X184944912Y-148390612D01*
X184900099Y-148312993D01*
X184807007Y-148219901D01*
X184729387Y-148175087D01*
X185298903Y-147605570D01*
X185298902Y-147605569D01*
X185238901Y-147580716D01*
X185238893Y-147580713D01*
X185139785Y-147561000D01*
X184421208Y-147561000D01*
X184370690Y-147565974D01*
X184216125Y-147596717D01*
X184167531Y-147611458D01*
X184021949Y-147671761D01*
X184021933Y-147671769D01*
X183977177Y-147695690D01*
X183977164Y-147695698D01*
X183865701Y-147770175D01*
X183865700Y-147770175D01*
X184270612Y-148175087D01*
X184192993Y-148219901D01*
X184099901Y-148312993D01*
X184055087Y-148390612D01*
X183650175Y-147985700D01*
X183650175Y-147985701D01*
X183575698Y-148097164D01*
X183575690Y-148097177D01*
X183551769Y-148141933D01*
X183551761Y-148141949D01*
X183491458Y-148287531D01*
X183476717Y-148336125D01*
X183445974Y-148490690D01*
X183441000Y-148541207D01*
X176652084Y-148541207D01*
X176487125Y-148305621D01*
X176487124Y-148305620D01*
X176487120Y-148305614D01*
X176312217Y-148097174D01*
X176246302Y-148018619D01*
X175981381Y-147753698D01*
X175804848Y-147605569D01*
X175694380Y-147512875D01*
X175387497Y-147297993D01*
X175387486Y-147297986D01*
X175387480Y-147297982D01*
X175279204Y-147235469D01*
X175063026Y-147110658D01*
X175063011Y-147110650D01*
X174723462Y-146952316D01*
X174371418Y-146824184D01*
X174371417Y-146824183D01*
X174371407Y-146824180D01*
X174102786Y-146752203D01*
X174009520Y-146727212D01*
X174009509Y-146727210D01*
X173640561Y-146662154D01*
X173267328Y-146629500D01*
X173267327Y-146629500D01*
X172892673Y-146629500D01*
X172892672Y-146629500D01*
X172519439Y-146662154D01*
X172519437Y-146662154D01*
X172150490Y-146727210D01*
X172150479Y-146727212D01*
X171956543Y-146779177D01*
X171788593Y-146824180D01*
X171788586Y-146824182D01*
X171788581Y-146824184D01*
X171436537Y-146952316D01*
X171096988Y-147110650D01*
X171096973Y-147110658D01*
X170772528Y-147297977D01*
X170772502Y-147297993D01*
X170465619Y-147512875D01*
X170178616Y-147753700D01*
X169913700Y-148018616D01*
X169672875Y-148305619D01*
X169457993Y-148612502D01*
X169457977Y-148612528D01*
X169270658Y-148936973D01*
X169270650Y-148936988D01*
X169112316Y-149276537D01*
X169006147Y-149568238D01*
X168984180Y-149628593D01*
X168939177Y-149796543D01*
X168887212Y-149990479D01*
X168887211Y-149990486D01*
X168881616Y-150022218D01*
X168850589Y-150084821D01*
X168790642Y-150120711D01*
X168720807Y-150118494D01*
X168663257Y-150078873D01*
X168636264Y-150014428D01*
X168635500Y-150000685D01*
X168635500Y-145976136D01*
X183445500Y-145976136D01*
X183445500Y-146183863D01*
X183486022Y-146387578D01*
X183486025Y-146387590D01*
X183565511Y-146579488D01*
X183565512Y-146579490D01*
X183680916Y-146752203D01*
X183680919Y-146752207D01*
X183827792Y-146899080D01*
X183827796Y-146899083D01*
X184000507Y-147014486D01*
X184000508Y-147014486D01*
X184000509Y-147014487D01*
X184000511Y-147014488D01*
X184152415Y-147077408D01*
X184192414Y-147093976D01*
X184396136Y-147134499D01*
X184396139Y-147134500D01*
X184396141Y-147134500D01*
X184603861Y-147134500D01*
X184603862Y-147134499D01*
X184807586Y-147093976D01*
X184999493Y-147014486D01*
X185172204Y-146899083D01*
X185319083Y-146752204D01*
X185434486Y-146579493D01*
X185513976Y-146387586D01*
X185554500Y-146183859D01*
X185554500Y-145976141D01*
X185554500Y-145976138D01*
X185554499Y-145976136D01*
X201225500Y-145976136D01*
X201225500Y-146183863D01*
X201266022Y-146387578D01*
X201266025Y-146387590D01*
X201345511Y-146579488D01*
X201345512Y-146579490D01*
X201460916Y-146752203D01*
X201460919Y-146752207D01*
X201607792Y-146899080D01*
X201607796Y-146899083D01*
X201780507Y-147014486D01*
X201780508Y-147014486D01*
X201780509Y-147014487D01*
X201780511Y-147014488D01*
X201932415Y-147077408D01*
X201972414Y-147093976D01*
X202176136Y-147134499D01*
X202176139Y-147134500D01*
X202176141Y-147134500D01*
X202383861Y-147134500D01*
X202383862Y-147134499D01*
X202587586Y-147093976D01*
X202779493Y-147014486D01*
X202952204Y-146899083D01*
X203099083Y-146752204D01*
X203214486Y-146579493D01*
X203293976Y-146387586D01*
X203334500Y-146183859D01*
X203334500Y-145976141D01*
X203334500Y-145976138D01*
X203334499Y-145976136D01*
X203293977Y-145772421D01*
X203293976Y-145772414D01*
X203293974Y-145772409D01*
X203214488Y-145580511D01*
X203214487Y-145580509D01*
X203099083Y-145407796D01*
X203099080Y-145407792D01*
X202952207Y-145260919D01*
X202952203Y-145260916D01*
X202779490Y-145145512D01*
X202779488Y-145145511D01*
X202587590Y-145066025D01*
X202587578Y-145066022D01*
X202383862Y-145025500D01*
X202383859Y-145025500D01*
X202176141Y-145025500D01*
X202176138Y-145025500D01*
X201972421Y-145066022D01*
X201972409Y-145066025D01*
X201780511Y-145145511D01*
X201780509Y-145145512D01*
X201607796Y-145260916D01*
X201607792Y-145260919D01*
X201460919Y-145407792D01*
X201460916Y-145407796D01*
X201345512Y-145580509D01*
X201345511Y-145580511D01*
X201266025Y-145772409D01*
X201266022Y-145772421D01*
X201225500Y-145976136D01*
X185554499Y-145976136D01*
X185513977Y-145772421D01*
X185513976Y-145772414D01*
X185513974Y-145772409D01*
X185434488Y-145580511D01*
X185434487Y-145580509D01*
X185319083Y-145407796D01*
X185319080Y-145407792D01*
X185172207Y-145260919D01*
X185172203Y-145260916D01*
X184999490Y-145145512D01*
X184999488Y-145145511D01*
X184807590Y-145066025D01*
X184807578Y-145066022D01*
X184603862Y-145025500D01*
X184603859Y-145025500D01*
X184396141Y-145025500D01*
X184396138Y-145025500D01*
X184192421Y-145066022D01*
X184192409Y-145066025D01*
X184000511Y-145145511D01*
X184000509Y-145145512D01*
X183827796Y-145260916D01*
X183827792Y-145260919D01*
X183680919Y-145407792D01*
X183680916Y-145407796D01*
X183565512Y-145580509D01*
X183565511Y-145580511D01*
X183486025Y-145772409D01*
X183486022Y-145772421D01*
X183445500Y-145976136D01*
X168635500Y-145976136D01*
X168635500Y-144566074D01*
X170091500Y-144566074D01*
X170091500Y-144739925D01*
X170118697Y-144911639D01*
X170118697Y-144911642D01*
X170172418Y-145076978D01*
X170172420Y-145076981D01*
X170251347Y-145231884D01*
X170353535Y-145372533D01*
X170476467Y-145495465D01*
X170617116Y-145597653D01*
X170772019Y-145676580D01*
X170772021Y-145676581D01*
X170937358Y-145730302D01*
X170937359Y-145730302D01*
X170937362Y-145730303D01*
X171109074Y-145757500D01*
X171109075Y-145757500D01*
X171282925Y-145757500D01*
X171282926Y-145757500D01*
X171454638Y-145730303D01*
X171454641Y-145730302D01*
X171454642Y-145730302D01*
X171619978Y-145676581D01*
X171619978Y-145676580D01*
X171619981Y-145676580D01*
X171774884Y-145597653D01*
X171915533Y-145495465D01*
X172038465Y-145372533D01*
X172140653Y-145231884D01*
X172219580Y-145076981D01*
X172222392Y-145068328D01*
X172273302Y-144911642D01*
X172273302Y-144911641D01*
X172273303Y-144911638D01*
X172300500Y-144739926D01*
X172300500Y-144566074D01*
X172631500Y-144566074D01*
X172631500Y-144739925D01*
X172658697Y-144911639D01*
X172658697Y-144911642D01*
X172712418Y-145076978D01*
X172712420Y-145076981D01*
X172791347Y-145231884D01*
X172893535Y-145372533D01*
X173016467Y-145495465D01*
X173157116Y-145597653D01*
X173312019Y-145676580D01*
X173312021Y-145676581D01*
X173477358Y-145730302D01*
X173477359Y-145730302D01*
X173477362Y-145730303D01*
X173649074Y-145757500D01*
X173649075Y-145757500D01*
X173822925Y-145757500D01*
X173822926Y-145757500D01*
X173994638Y-145730303D01*
X173994641Y-145730302D01*
X173994642Y-145730302D01*
X174159978Y-145676581D01*
X174159978Y-145676580D01*
X174159981Y-145676580D01*
X174314884Y-145597653D01*
X174455533Y-145495465D01*
X174578465Y-145372533D01*
X174680653Y-145231884D01*
X174759580Y-145076981D01*
X174762392Y-145068328D01*
X174813302Y-144911642D01*
X174813302Y-144911641D01*
X174813303Y-144911638D01*
X174840500Y-144739926D01*
X174840500Y-144704704D01*
X218769700Y-144704704D01*
X218769700Y-144829895D01*
X218794120Y-144952661D01*
X218794123Y-144952673D01*
X218842023Y-145068315D01*
X218842030Y-145068328D01*
X218911574Y-145172407D01*
X218911577Y-145172411D01*
X218961980Y-145222813D01*
X218995466Y-145284136D01*
X218998300Y-145310495D01*
X218998300Y-146129104D01*
X218978615Y-146196143D01*
X218961981Y-146216785D01*
X218911577Y-146267188D01*
X218911574Y-146267192D01*
X218842030Y-146371271D01*
X218842023Y-146371284D01*
X218794123Y-146486926D01*
X218794120Y-146486938D01*
X218769700Y-146609704D01*
X218769700Y-146734895D01*
X218794120Y-146857661D01*
X218794123Y-146857673D01*
X218842023Y-146973315D01*
X218842030Y-146973328D01*
X218911574Y-147077407D01*
X218911577Y-147077411D01*
X219000088Y-147165922D01*
X219000092Y-147165925D01*
X219104171Y-147235469D01*
X219104184Y-147235476D01*
X219219826Y-147283376D01*
X219219831Y-147283378D01*
X219342604Y-147307799D01*
X219342608Y-147307800D01*
X219342609Y-147307800D01*
X219467792Y-147307800D01*
X219467793Y-147307799D01*
X219590569Y-147283378D01*
X219706222Y-147235473D01*
X219810308Y-147165925D01*
X219898825Y-147077408D01*
X219968373Y-146973322D01*
X220016278Y-146857669D01*
X220040700Y-146734891D01*
X220040700Y-146609709D01*
X220016278Y-146486931D01*
X219975125Y-146387578D01*
X219968376Y-146371284D01*
X219968369Y-146371271D01*
X219898825Y-146267192D01*
X219898822Y-146267188D01*
X219848419Y-146216785D01*
X219814934Y-146155462D01*
X219812100Y-146129104D01*
X219812100Y-145310495D01*
X219831785Y-145243456D01*
X219848420Y-145222813D01*
X219898822Y-145172411D01*
X219898825Y-145172408D01*
X219968373Y-145068322D01*
X219969325Y-145066025D01*
X220016276Y-144952673D01*
X220016278Y-144952669D01*
X220040700Y-144829891D01*
X220040700Y-144704709D01*
X220040699Y-144704704D01*
X220827100Y-144704704D01*
X220827100Y-144829895D01*
X220851520Y-144952661D01*
X220851523Y-144952673D01*
X220899423Y-145068315D01*
X220899430Y-145068328D01*
X220968974Y-145172407D01*
X220968977Y-145172411D01*
X221019380Y-145222813D01*
X221052866Y-145284136D01*
X221055700Y-145310495D01*
X221055700Y-146129104D01*
X221036015Y-146196143D01*
X221019381Y-146216785D01*
X220968977Y-146267188D01*
X220968974Y-146267192D01*
X220899430Y-146371271D01*
X220899423Y-146371284D01*
X220851523Y-146486926D01*
X220851520Y-146486938D01*
X220827100Y-146609704D01*
X220827100Y-146734895D01*
X220851520Y-146857661D01*
X220851523Y-146857673D01*
X220899423Y-146973315D01*
X220899430Y-146973328D01*
X220968974Y-147077407D01*
X220968977Y-147077411D01*
X221057488Y-147165922D01*
X221057492Y-147165925D01*
X221161571Y-147235469D01*
X221161584Y-147235476D01*
X221277226Y-147283376D01*
X221277231Y-147283378D01*
X221400004Y-147307799D01*
X221400008Y-147307800D01*
X221400009Y-147307800D01*
X221525192Y-147307800D01*
X221525193Y-147307799D01*
X221647969Y-147283378D01*
X221763622Y-147235473D01*
X221867708Y-147165925D01*
X221956225Y-147077408D01*
X222025773Y-146973322D01*
X222073678Y-146857669D01*
X222098100Y-146734891D01*
X222098100Y-146609709D01*
X222073678Y-146486931D01*
X222032525Y-146387578D01*
X222025776Y-146371284D01*
X222025769Y-146371271D01*
X221956225Y-146267192D01*
X221956222Y-146267188D01*
X221905819Y-146216785D01*
X221872334Y-146155462D01*
X221869500Y-146129104D01*
X221869500Y-145310495D01*
X221889185Y-145243456D01*
X221905820Y-145222813D01*
X221956222Y-145172411D01*
X221956225Y-145172408D01*
X222025773Y-145068322D01*
X222026725Y-145066025D01*
X222073676Y-144952673D01*
X222073678Y-144952669D01*
X222098100Y-144829891D01*
X222098100Y-144704709D01*
X222073678Y-144581931D01*
X222029174Y-144474488D01*
X222025776Y-144466284D01*
X222025769Y-144466271D01*
X221956225Y-144362192D01*
X221956222Y-144362188D01*
X221867711Y-144273677D01*
X221867707Y-144273674D01*
X221763628Y-144204130D01*
X221763615Y-144204123D01*
X221647973Y-144156223D01*
X221647961Y-144156220D01*
X221525195Y-144131800D01*
X221525191Y-144131800D01*
X221400009Y-144131800D01*
X221400004Y-144131800D01*
X221277238Y-144156220D01*
X221277226Y-144156223D01*
X221161584Y-144204123D01*
X221161571Y-144204130D01*
X221057492Y-144273674D01*
X221057488Y-144273677D01*
X220968977Y-144362188D01*
X220968974Y-144362192D01*
X220899430Y-144466271D01*
X220899423Y-144466284D01*
X220851523Y-144581926D01*
X220851520Y-144581938D01*
X220827100Y-144704704D01*
X220040699Y-144704704D01*
X220016278Y-144581931D01*
X219971774Y-144474488D01*
X219968376Y-144466284D01*
X219968369Y-144466271D01*
X219898825Y-144362192D01*
X219898822Y-144362188D01*
X219810311Y-144273677D01*
X219810307Y-144273674D01*
X219706228Y-144204130D01*
X219706215Y-144204123D01*
X219590573Y-144156223D01*
X219590561Y-144156220D01*
X219467795Y-144131800D01*
X219467791Y-144131800D01*
X219342609Y-144131800D01*
X219342604Y-144131800D01*
X219219838Y-144156220D01*
X219219826Y-144156223D01*
X219104184Y-144204123D01*
X219104171Y-144204130D01*
X219000092Y-144273674D01*
X219000088Y-144273677D01*
X218911577Y-144362188D01*
X218911574Y-144362192D01*
X218842030Y-144466271D01*
X218842023Y-144466284D01*
X218794123Y-144581926D01*
X218794120Y-144581938D01*
X218769700Y-144704704D01*
X174840500Y-144704704D01*
X174840500Y-144566074D01*
X174813303Y-144394362D01*
X174813302Y-144394358D01*
X174813302Y-144394357D01*
X174759581Y-144229021D01*
X174746895Y-144204123D01*
X174680653Y-144074116D01*
X174578465Y-143933467D01*
X174455533Y-143810535D01*
X174314884Y-143708347D01*
X174159978Y-143629418D01*
X173994641Y-143575697D01*
X173848319Y-143552522D01*
X173822926Y-143548500D01*
X173649074Y-143548500D01*
X173623681Y-143552522D01*
X173477360Y-143575697D01*
X173477357Y-143575697D01*
X173312021Y-143629418D01*
X173157115Y-143708347D01*
X173076869Y-143766649D01*
X173016467Y-143810535D01*
X173016465Y-143810537D01*
X173016464Y-143810537D01*
X172893537Y-143933464D01*
X172893537Y-143933465D01*
X172893535Y-143933467D01*
X172849649Y-143993869D01*
X172791347Y-144074115D01*
X172712418Y-144229021D01*
X172658697Y-144394357D01*
X172658697Y-144394360D01*
X172631500Y-144566074D01*
X172300500Y-144566074D01*
X172273303Y-144394362D01*
X172273302Y-144394358D01*
X172273302Y-144394357D01*
X172219581Y-144229021D01*
X172206895Y-144204123D01*
X172140653Y-144074116D01*
X172038465Y-143933467D01*
X171915533Y-143810535D01*
X171774884Y-143708347D01*
X171619978Y-143629418D01*
X171454641Y-143575697D01*
X171308319Y-143552522D01*
X171282926Y-143548500D01*
X171109074Y-143548500D01*
X171083681Y-143552522D01*
X170937360Y-143575697D01*
X170937357Y-143575697D01*
X170772021Y-143629418D01*
X170617115Y-143708347D01*
X170536869Y-143766649D01*
X170476467Y-143810535D01*
X170476465Y-143810537D01*
X170476464Y-143810537D01*
X170353537Y-143933464D01*
X170353537Y-143933465D01*
X170353535Y-143933467D01*
X170309649Y-143993869D01*
X170251347Y-144074115D01*
X170172418Y-144229021D01*
X170118697Y-144394357D01*
X170118697Y-144394360D01*
X170091500Y-144566074D01*
X168635500Y-144566074D01*
X168635500Y-143436136D01*
X183445500Y-143436136D01*
X183445500Y-143643863D01*
X183486022Y-143847578D01*
X183486025Y-143847590D01*
X183565511Y-144039488D01*
X183565512Y-144039490D01*
X183680916Y-144212203D01*
X183680919Y-144212207D01*
X183827792Y-144359080D01*
X183827796Y-144359083D01*
X184000507Y-144474486D01*
X184000508Y-144474486D01*
X184000509Y-144474487D01*
X184000511Y-144474488D01*
X184192409Y-144553974D01*
X184192414Y-144553976D01*
X184332928Y-144581926D01*
X184396136Y-144594499D01*
X184396139Y-144594500D01*
X184396141Y-144594500D01*
X184603861Y-144594500D01*
X184603862Y-144594499D01*
X184807586Y-144553976D01*
X184999493Y-144474486D01*
X185172204Y-144359083D01*
X185319083Y-144212204D01*
X185434486Y-144039493D01*
X185513976Y-143847586D01*
X185554500Y-143643859D01*
X185554500Y-143436141D01*
X185554500Y-143436138D01*
X185554499Y-143436136D01*
X201225500Y-143436136D01*
X201225500Y-143643863D01*
X201266022Y-143847578D01*
X201266025Y-143847590D01*
X201345511Y-144039488D01*
X201345512Y-144039490D01*
X201460916Y-144212203D01*
X201460919Y-144212207D01*
X201607792Y-144359080D01*
X201607796Y-144359083D01*
X201780507Y-144474486D01*
X201780508Y-144474486D01*
X201780509Y-144474487D01*
X201780511Y-144474488D01*
X201972409Y-144553974D01*
X201972414Y-144553976D01*
X202112928Y-144581926D01*
X202176136Y-144594499D01*
X202176139Y-144594500D01*
X202176141Y-144594500D01*
X202383861Y-144594500D01*
X202383862Y-144594499D01*
X202406587Y-144589979D01*
X202471840Y-144577000D01*
X202529486Y-144565532D01*
X202587586Y-144553976D01*
X202779493Y-144474486D01*
X202952204Y-144359083D01*
X203099083Y-144212204D01*
X203214486Y-144039493D01*
X203293976Y-143847586D01*
X203334500Y-143643859D01*
X203334500Y-143436141D01*
X203334500Y-143436138D01*
X203334499Y-143436136D01*
X203293977Y-143232421D01*
X203293976Y-143232414D01*
X203293974Y-143232409D01*
X203214488Y-143040511D01*
X203214487Y-143040509D01*
X203099083Y-142867796D01*
X203099080Y-142867792D01*
X202952207Y-142720919D01*
X202952203Y-142720916D01*
X202779490Y-142605512D01*
X202779488Y-142605511D01*
X202587590Y-142526025D01*
X202587578Y-142526022D01*
X202383862Y-142485500D01*
X202383859Y-142485500D01*
X202176141Y-142485500D01*
X202176138Y-142485500D01*
X201972421Y-142526022D01*
X201972409Y-142526025D01*
X201780511Y-142605511D01*
X201780509Y-142605512D01*
X201607796Y-142720916D01*
X201607792Y-142720919D01*
X201460919Y-142867792D01*
X201460916Y-142867796D01*
X201345512Y-143040509D01*
X201345511Y-143040511D01*
X201266025Y-143232409D01*
X201266022Y-143232421D01*
X201225500Y-143436136D01*
X185554499Y-143436136D01*
X185513977Y-143232421D01*
X185513976Y-143232414D01*
X185513974Y-143232409D01*
X185434488Y-143040511D01*
X185434487Y-143040509D01*
X185319083Y-142867796D01*
X185319080Y-142867792D01*
X185172207Y-142720919D01*
X185172203Y-142720916D01*
X184999490Y-142605512D01*
X184999488Y-142605511D01*
X184807590Y-142526025D01*
X184807578Y-142526022D01*
X184603862Y-142485500D01*
X184603859Y-142485500D01*
X184396141Y-142485500D01*
X184396138Y-142485500D01*
X184192421Y-142526022D01*
X184192409Y-142526025D01*
X184000511Y-142605511D01*
X184000509Y-142605512D01*
X183827796Y-142720916D01*
X183827792Y-142720919D01*
X183680919Y-142867792D01*
X183680916Y-142867796D01*
X183565512Y-143040509D01*
X183565511Y-143040511D01*
X183486025Y-143232409D01*
X183486022Y-143232421D01*
X183445500Y-143436136D01*
X168635500Y-143436136D01*
X168635500Y-142026107D01*
X170092000Y-142026107D01*
X170092000Y-142199892D01*
X170119183Y-142371521D01*
X170172884Y-142536793D01*
X170251774Y-142691622D01*
X170314928Y-142778544D01*
X170314929Y-142778545D01*
X170751087Y-142342386D01*
X170795901Y-142420007D01*
X170888993Y-142513099D01*
X170966612Y-142557912D01*
X170530453Y-142994070D01*
X170617379Y-143057225D01*
X170617385Y-143057229D01*
X170772206Y-143136115D01*
X170937478Y-143189816D01*
X171109108Y-143217000D01*
X171282892Y-143217000D01*
X171454521Y-143189816D01*
X171619793Y-143136115D01*
X171774622Y-143057225D01*
X171861544Y-142994071D01*
X171861544Y-142994070D01*
X171425387Y-142557912D01*
X171503007Y-142513099D01*
X171596099Y-142420007D01*
X171640912Y-142342386D01*
X172077070Y-142778544D01*
X172077071Y-142778544D01*
X172140225Y-142691622D01*
X172219115Y-142536793D01*
X172272816Y-142371521D01*
X172300000Y-142199892D01*
X172300000Y-142026107D01*
X172299995Y-142026074D01*
X172631500Y-142026074D01*
X172631500Y-142199925D01*
X172658697Y-142371639D01*
X172658697Y-142371642D01*
X172712418Y-142536978D01*
X172791214Y-142691622D01*
X172791347Y-142691884D01*
X172893535Y-142832533D01*
X173016467Y-142955465D01*
X173157116Y-143057653D01*
X173311106Y-143136115D01*
X173312021Y-143136581D01*
X173477358Y-143190302D01*
X173477359Y-143190302D01*
X173477362Y-143190303D01*
X173649074Y-143217500D01*
X173649075Y-143217500D01*
X173822925Y-143217500D01*
X173822926Y-143217500D01*
X173994638Y-143190303D01*
X173994641Y-143190302D01*
X173994642Y-143190302D01*
X174159978Y-143136581D01*
X174159978Y-143136580D01*
X174159981Y-143136580D01*
X174314884Y-143057653D01*
X174455533Y-142955465D01*
X174578465Y-142832533D01*
X174680653Y-142691884D01*
X174759580Y-142536981D01*
X174813303Y-142371638D01*
X174840500Y-142199926D01*
X174840500Y-142026074D01*
X174813303Y-141854362D01*
X174813302Y-141854358D01*
X174813302Y-141854357D01*
X174759581Y-141689021D01*
X174680787Y-141534379D01*
X174680653Y-141534116D01*
X174578465Y-141393467D01*
X174455533Y-141270535D01*
X174314884Y-141168347D01*
X174159978Y-141089418D01*
X173994641Y-141035697D01*
X173848319Y-141012522D01*
X173822926Y-141008500D01*
X173649074Y-141008500D01*
X173623681Y-141012522D01*
X173477360Y-141035697D01*
X173477357Y-141035697D01*
X173312021Y-141089418D01*
X173157115Y-141168347D01*
X173076869Y-141226649D01*
X173016467Y-141270535D01*
X173016465Y-141270537D01*
X173016464Y-141270537D01*
X172893537Y-141393464D01*
X172893537Y-141393465D01*
X172893535Y-141393467D01*
X172854312Y-141447453D01*
X172791347Y-141534115D01*
X172712418Y-141689021D01*
X172658697Y-141854357D01*
X172658697Y-141854360D01*
X172631500Y-142026074D01*
X172299995Y-142026074D01*
X172272816Y-141854478D01*
X172219115Y-141689206D01*
X172140229Y-141534385D01*
X172140225Y-141534379D01*
X172077070Y-141447454D01*
X172077070Y-141447453D01*
X171640912Y-141883611D01*
X171596099Y-141805993D01*
X171503007Y-141712901D01*
X171425387Y-141668087D01*
X171861545Y-141231929D01*
X171861544Y-141231928D01*
X171774622Y-141168774D01*
X171619793Y-141089884D01*
X171454521Y-141036183D01*
X171282892Y-141009000D01*
X171109108Y-141009000D01*
X170937478Y-141036183D01*
X170772206Y-141089884D01*
X170617377Y-141168774D01*
X170530454Y-141231928D01*
X170530453Y-141231928D01*
X170966612Y-141668087D01*
X170888993Y-141712901D01*
X170795901Y-141805993D01*
X170751087Y-141883612D01*
X170314928Y-141447453D01*
X170314928Y-141447454D01*
X170251774Y-141534377D01*
X170172884Y-141689206D01*
X170119183Y-141854478D01*
X170092000Y-142026107D01*
X168635500Y-142026107D01*
X168635500Y-140896136D01*
X183445500Y-140896136D01*
X183445500Y-141103863D01*
X183486022Y-141307578D01*
X183486025Y-141307590D01*
X183565511Y-141499488D01*
X183565512Y-141499490D01*
X183680916Y-141672203D01*
X183680919Y-141672207D01*
X183827792Y-141819080D01*
X183827796Y-141819083D01*
X184000507Y-141934486D01*
X184000508Y-141934486D01*
X184000509Y-141934487D01*
X184000511Y-141934488D01*
X184192409Y-142013974D01*
X184192414Y-142013976D01*
X184359311Y-142047174D01*
X184396136Y-142054499D01*
X184396139Y-142054500D01*
X184396141Y-142054500D01*
X184603861Y-142054500D01*
X184603862Y-142054499D01*
X184807586Y-142013976D01*
X184999493Y-141934486D01*
X185172204Y-141819083D01*
X185319083Y-141672204D01*
X185434486Y-141499493D01*
X185513976Y-141307586D01*
X185554500Y-141103859D01*
X185554500Y-140896141D01*
X185554500Y-140896138D01*
X185554499Y-140896136D01*
X201225500Y-140896136D01*
X201225500Y-141103863D01*
X201266022Y-141307578D01*
X201266025Y-141307590D01*
X201345511Y-141499488D01*
X201345512Y-141499490D01*
X201460916Y-141672203D01*
X201460919Y-141672207D01*
X201607792Y-141819080D01*
X201607796Y-141819083D01*
X201780507Y-141934486D01*
X201780508Y-141934486D01*
X201780509Y-141934487D01*
X201780511Y-141934488D01*
X201972409Y-142013974D01*
X201972414Y-142013976D01*
X202139311Y-142047174D01*
X202176136Y-142054499D01*
X202176139Y-142054500D01*
X202176141Y-142054500D01*
X202383861Y-142054500D01*
X202383862Y-142054499D01*
X202587586Y-142013976D01*
X202779493Y-141934486D01*
X202952204Y-141819083D01*
X203099083Y-141672204D01*
X203214486Y-141499493D01*
X203293976Y-141307586D01*
X203334500Y-141103859D01*
X203334500Y-140896141D01*
X203334500Y-140896138D01*
X203334499Y-140896136D01*
X203299923Y-140722308D01*
X203296321Y-140704204D01*
X221932000Y-140704204D01*
X221932000Y-140829395D01*
X221956420Y-140952161D01*
X221956423Y-140952173D01*
X222004323Y-141067815D01*
X222004330Y-141067828D01*
X222073874Y-141171907D01*
X222073877Y-141171911D01*
X222162388Y-141260422D01*
X222162392Y-141260425D01*
X222266471Y-141329969D01*
X222266484Y-141329976D01*
X222382126Y-141377876D01*
X222382131Y-141377878D01*
X222504904Y-141402299D01*
X222504908Y-141402300D01*
X222504909Y-141402300D01*
X222630092Y-141402300D01*
X222630093Y-141402299D01*
X222752869Y-141377878D01*
X222788203Y-141363242D01*
X222824425Y-141348239D01*
X222871877Y-141338800D01*
X224168123Y-141338800D01*
X224215575Y-141348239D01*
X224287126Y-141377876D01*
X224287131Y-141377878D01*
X224409904Y-141402299D01*
X224409908Y-141402300D01*
X224409909Y-141402300D01*
X224535092Y-141402300D01*
X224535093Y-141402299D01*
X224657869Y-141377878D01*
X224773522Y-141329973D01*
X224877608Y-141260425D01*
X224966125Y-141171908D01*
X225035673Y-141067822D01*
X225083578Y-140952169D01*
X225108000Y-140829391D01*
X225108000Y-140704209D01*
X225083578Y-140581431D01*
X225083576Y-140581426D01*
X225035676Y-140465784D01*
X225035669Y-140465771D01*
X224966125Y-140361692D01*
X224966122Y-140361688D01*
X224877611Y-140273177D01*
X224877607Y-140273174D01*
X224773528Y-140203630D01*
X224773515Y-140203623D01*
X224657873Y-140155723D01*
X224657861Y-140155720D01*
X224535095Y-140131300D01*
X224535091Y-140131300D01*
X224409909Y-140131300D01*
X224409904Y-140131300D01*
X224287138Y-140155720D01*
X224287126Y-140155723D01*
X224215575Y-140185361D01*
X224168123Y-140194800D01*
X222871877Y-140194800D01*
X222824425Y-140185361D01*
X222752873Y-140155723D01*
X222752861Y-140155720D01*
X222630095Y-140131300D01*
X222630091Y-140131300D01*
X222504909Y-140131300D01*
X222504904Y-140131300D01*
X222382138Y-140155720D01*
X222382126Y-140155723D01*
X222266484Y-140203623D01*
X222266471Y-140203630D01*
X222162392Y-140273174D01*
X222162388Y-140273177D01*
X222073877Y-140361688D01*
X222073874Y-140361692D01*
X222004330Y-140465771D01*
X222004323Y-140465784D01*
X221956423Y-140581426D01*
X221956420Y-140581438D01*
X221932000Y-140704204D01*
X203296321Y-140704204D01*
X203293977Y-140692419D01*
X203293976Y-140692418D01*
X203293976Y-140692414D01*
X203293974Y-140692409D01*
X203214488Y-140500511D01*
X203214487Y-140500509D01*
X203191284Y-140465784D01*
X203099083Y-140327796D01*
X203099080Y-140327792D01*
X202952207Y-140180919D01*
X202952203Y-140180916D01*
X202779490Y-140065512D01*
X202779488Y-140065511D01*
X202587590Y-139986025D01*
X202587578Y-139986022D01*
X202383862Y-139945500D01*
X202383859Y-139945500D01*
X202176141Y-139945500D01*
X202176138Y-139945500D01*
X201972421Y-139986022D01*
X201972409Y-139986025D01*
X201780511Y-140065511D01*
X201780509Y-140065512D01*
X201607796Y-140180916D01*
X201607792Y-140180919D01*
X201460919Y-140327792D01*
X201460916Y-140327796D01*
X201345512Y-140500509D01*
X201345511Y-140500511D01*
X201266025Y-140692409D01*
X201266022Y-140692421D01*
X201225500Y-140896136D01*
X185554499Y-140896136D01*
X185541223Y-140829392D01*
X185513976Y-140692414D01*
X185513974Y-140692409D01*
X185434488Y-140500511D01*
X185434487Y-140500509D01*
X185411284Y-140465784D01*
X185319083Y-140327796D01*
X185319080Y-140327792D01*
X185172207Y-140180919D01*
X185172203Y-140180916D01*
X184999490Y-140065512D01*
X184999488Y-140065511D01*
X184807590Y-139986025D01*
X184807578Y-139986022D01*
X184603862Y-139945500D01*
X184603859Y-139945500D01*
X184396141Y-139945500D01*
X184396138Y-139945500D01*
X184192421Y-139986022D01*
X184192409Y-139986025D01*
X184000511Y-140065511D01*
X184000509Y-140065512D01*
X183827796Y-140180916D01*
X183827792Y-140180919D01*
X183680919Y-140327792D01*
X183680916Y-140327796D01*
X183565512Y-140500509D01*
X183565511Y-140500511D01*
X183486025Y-140692409D01*
X183486022Y-140692421D01*
X183445500Y-140896136D01*
X168635500Y-140896136D01*
X168635500Y-139486074D01*
X170091500Y-139486074D01*
X170091500Y-139659925D01*
X170118697Y-139831639D01*
X170118697Y-139831642D01*
X170172418Y-139996978D01*
X170172420Y-139996981D01*
X170251347Y-140151884D01*
X170353535Y-140292533D01*
X170476467Y-140415465D01*
X170617116Y-140517653D01*
X170742301Y-140581438D01*
X170772021Y-140596581D01*
X170937358Y-140650302D01*
X170937359Y-140650302D01*
X170937362Y-140650303D01*
X171109074Y-140677500D01*
X171109075Y-140677500D01*
X171282925Y-140677500D01*
X171282926Y-140677500D01*
X171454638Y-140650303D01*
X171454641Y-140650302D01*
X171454642Y-140650302D01*
X171619978Y-140596581D01*
X171619978Y-140596580D01*
X171619981Y-140596580D01*
X171774884Y-140517653D01*
X171915533Y-140415465D01*
X172038465Y-140292533D01*
X172140653Y-140151884D01*
X172219580Y-139996981D01*
X172273303Y-139831638D01*
X172300500Y-139659926D01*
X172300500Y-139486074D01*
X172631500Y-139486074D01*
X172631500Y-139659925D01*
X172658697Y-139831639D01*
X172658697Y-139831642D01*
X172712418Y-139996978D01*
X172712420Y-139996981D01*
X172791347Y-140151884D01*
X172893535Y-140292533D01*
X173016467Y-140415465D01*
X173157116Y-140517653D01*
X173282301Y-140581438D01*
X173312021Y-140596581D01*
X173477358Y-140650302D01*
X173477359Y-140650302D01*
X173477362Y-140650303D01*
X173649074Y-140677500D01*
X173649075Y-140677500D01*
X173822925Y-140677500D01*
X173822926Y-140677500D01*
X173994638Y-140650303D01*
X173994641Y-140650302D01*
X173994642Y-140650302D01*
X174159978Y-140596581D01*
X174159978Y-140596580D01*
X174159981Y-140596580D01*
X174314884Y-140517653D01*
X174455533Y-140415465D01*
X174578465Y-140292533D01*
X174680653Y-140151884D01*
X174759580Y-139996981D01*
X174813303Y-139831638D01*
X174840500Y-139659926D01*
X174840500Y-139486074D01*
X174813303Y-139314362D01*
X174813302Y-139314358D01*
X174813302Y-139314357D01*
X174759581Y-139149021D01*
X174680652Y-138994115D01*
X174578465Y-138853467D01*
X174455533Y-138730535D01*
X174314884Y-138628347D01*
X174159978Y-138549418D01*
X173994641Y-138495697D01*
X173848319Y-138472522D01*
X173822926Y-138468500D01*
X173649074Y-138468500D01*
X173623681Y-138472522D01*
X173477360Y-138495697D01*
X173477357Y-138495697D01*
X173312021Y-138549418D01*
X173157115Y-138628347D01*
X173076869Y-138686649D01*
X173016467Y-138730535D01*
X173016465Y-138730537D01*
X173016464Y-138730537D01*
X172893537Y-138853464D01*
X172893537Y-138853465D01*
X172893535Y-138853467D01*
X172849649Y-138913869D01*
X172791347Y-138994115D01*
X172712418Y-139149021D01*
X172658697Y-139314357D01*
X172658697Y-139314360D01*
X172631500Y-139486074D01*
X172300500Y-139486074D01*
X172273303Y-139314362D01*
X172273302Y-139314358D01*
X172273302Y-139314357D01*
X172219581Y-139149021D01*
X172140652Y-138994115D01*
X172038465Y-138853467D01*
X171915533Y-138730535D01*
X171774884Y-138628347D01*
X171619978Y-138549418D01*
X171454641Y-138495697D01*
X171308319Y-138472522D01*
X171282926Y-138468500D01*
X171109074Y-138468500D01*
X171083681Y-138472522D01*
X170937360Y-138495697D01*
X170937357Y-138495697D01*
X170772021Y-138549418D01*
X170617115Y-138628347D01*
X170536869Y-138686649D01*
X170476467Y-138730535D01*
X170476465Y-138730537D01*
X170476464Y-138730537D01*
X170353537Y-138853464D01*
X170353537Y-138853465D01*
X170353535Y-138853467D01*
X170309649Y-138913869D01*
X170251347Y-138994115D01*
X170172418Y-139149021D01*
X170118697Y-139314357D01*
X170118697Y-139314360D01*
X170091500Y-139486074D01*
X168635500Y-139486074D01*
X168635500Y-138356136D01*
X183445500Y-138356136D01*
X183445500Y-138563863D01*
X183486022Y-138767578D01*
X183486025Y-138767590D01*
X183565511Y-138959488D01*
X183565512Y-138959490D01*
X183680916Y-139132203D01*
X183680919Y-139132207D01*
X183827792Y-139279080D01*
X183827796Y-139279083D01*
X184000507Y-139394486D01*
X184000508Y-139394486D01*
X184000509Y-139394487D01*
X184000511Y-139394488D01*
X184192409Y-139473974D01*
X184192414Y-139473976D01*
X184396136Y-139514499D01*
X184396139Y-139514500D01*
X184396141Y-139514500D01*
X184603861Y-139514500D01*
X184603862Y-139514499D01*
X184807586Y-139473976D01*
X184999493Y-139394486D01*
X185172204Y-139279083D01*
X185319083Y-139132204D01*
X185434486Y-138959493D01*
X185513976Y-138767586D01*
X185554500Y-138563859D01*
X185554500Y-138356141D01*
X185554500Y-138356138D01*
X185554499Y-138356136D01*
X201225500Y-138356136D01*
X201225500Y-138563863D01*
X201266022Y-138767578D01*
X201266025Y-138767590D01*
X201345511Y-138959488D01*
X201345512Y-138959490D01*
X201460916Y-139132203D01*
X201460919Y-139132207D01*
X201607792Y-139279080D01*
X201607796Y-139279083D01*
X201780507Y-139394486D01*
X201780508Y-139394486D01*
X201780509Y-139394487D01*
X201780511Y-139394488D01*
X201972409Y-139473974D01*
X201972414Y-139473976D01*
X202176136Y-139514499D01*
X202176139Y-139514500D01*
X202176141Y-139514500D01*
X202383861Y-139514500D01*
X202383862Y-139514499D01*
X202587586Y-139473976D01*
X202779493Y-139394486D01*
X202952204Y-139279083D01*
X203099083Y-139132204D01*
X203214486Y-138959493D01*
X203293976Y-138767586D01*
X203334500Y-138563859D01*
X203334500Y-138356141D01*
X203334500Y-138356138D01*
X203334499Y-138356136D01*
X203293977Y-138152421D01*
X203293976Y-138152414D01*
X203293974Y-138152409D01*
X203214488Y-137960511D01*
X203214487Y-137960509D01*
X203099083Y-137787796D01*
X203099080Y-137787792D01*
X202952207Y-137640919D01*
X202952203Y-137640916D01*
X202779490Y-137525512D01*
X202779488Y-137525511D01*
X202587590Y-137446025D01*
X202587578Y-137446022D01*
X202383862Y-137405500D01*
X202383859Y-137405500D01*
X202176141Y-137405500D01*
X202176138Y-137405500D01*
X201972421Y-137446022D01*
X201972409Y-137446025D01*
X201780511Y-137525511D01*
X201780509Y-137525512D01*
X201607796Y-137640916D01*
X201607792Y-137640919D01*
X201460919Y-137787792D01*
X201460916Y-137787796D01*
X201345512Y-137960509D01*
X201345511Y-137960511D01*
X201266025Y-138152409D01*
X201266022Y-138152421D01*
X201225500Y-138356136D01*
X185554499Y-138356136D01*
X185513977Y-138152421D01*
X185513976Y-138152414D01*
X185513974Y-138152409D01*
X185434488Y-137960511D01*
X185434487Y-137960509D01*
X185319083Y-137787796D01*
X185319080Y-137787792D01*
X185172207Y-137640919D01*
X185172203Y-137640916D01*
X184999490Y-137525512D01*
X184999488Y-137525511D01*
X184807590Y-137446025D01*
X184807578Y-137446022D01*
X184603862Y-137405500D01*
X184603859Y-137405500D01*
X184396141Y-137405500D01*
X184396138Y-137405500D01*
X184192421Y-137446022D01*
X184192409Y-137446025D01*
X184000511Y-137525511D01*
X184000509Y-137525512D01*
X183827796Y-137640916D01*
X183827792Y-137640919D01*
X183680919Y-137787792D01*
X183680916Y-137787796D01*
X183565512Y-137960509D01*
X183565511Y-137960511D01*
X183486025Y-138152409D01*
X183486022Y-138152421D01*
X183445500Y-138356136D01*
X168635500Y-138356136D01*
X168635500Y-136946074D01*
X170091500Y-136946074D01*
X170091500Y-137119925D01*
X170118697Y-137291639D01*
X170118697Y-137291642D01*
X170172418Y-137456978D01*
X170251214Y-137611622D01*
X170251347Y-137611884D01*
X170353535Y-137752533D01*
X170476467Y-137875465D01*
X170617116Y-137977653D01*
X170771106Y-138056115D01*
X170772021Y-138056581D01*
X170937358Y-138110302D01*
X170937359Y-138110302D01*
X170937362Y-138110303D01*
X171109074Y-138137500D01*
X171109075Y-138137500D01*
X171282925Y-138137500D01*
X171282926Y-138137500D01*
X171454638Y-138110303D01*
X171454641Y-138110302D01*
X171454642Y-138110302D01*
X171619978Y-138056581D01*
X171619978Y-138056580D01*
X171619981Y-138056580D01*
X171774884Y-137977653D01*
X171915533Y-137875465D01*
X172038465Y-137752533D01*
X172140653Y-137611884D01*
X172219580Y-137456981D01*
X172273303Y-137291638D01*
X172300500Y-137119926D01*
X172300500Y-136946107D01*
X172632000Y-136946107D01*
X172632000Y-137119892D01*
X172659183Y-137291521D01*
X172712884Y-137456793D01*
X172791774Y-137611622D01*
X172854928Y-137698544D01*
X172854929Y-137698545D01*
X173291087Y-137262386D01*
X173335901Y-137340007D01*
X173428993Y-137433099D01*
X173506612Y-137477912D01*
X173070453Y-137914070D01*
X173157379Y-137977225D01*
X173157385Y-137977229D01*
X173312206Y-138056115D01*
X173477478Y-138109816D01*
X173649108Y-138137000D01*
X173822892Y-138137000D01*
X173994521Y-138109816D01*
X174159793Y-138056115D01*
X174314622Y-137977225D01*
X174401544Y-137914071D01*
X174401544Y-137914070D01*
X173965387Y-137477912D01*
X174043007Y-137433099D01*
X174136099Y-137340007D01*
X174180912Y-137262386D01*
X174617070Y-137698544D01*
X174617071Y-137698544D01*
X174680225Y-137611622D01*
X174759115Y-137456793D01*
X174812816Y-137291521D01*
X174840000Y-137119892D01*
X174840000Y-136946107D01*
X174812816Y-136774478D01*
X174808740Y-136761935D01*
X174808739Y-136761934D01*
X174808739Y-136761932D01*
X174759114Y-136609206D01*
X174680229Y-136454385D01*
X174680225Y-136454379D01*
X174617070Y-136367454D01*
X174617070Y-136367453D01*
X174180912Y-136803611D01*
X174136099Y-136725993D01*
X174043007Y-136632901D01*
X173965387Y-136588087D01*
X174401545Y-136151929D01*
X174401544Y-136151928D01*
X174314622Y-136088774D01*
X174159793Y-136009884D01*
X173994521Y-135956183D01*
X173822892Y-135929000D01*
X173649108Y-135929000D01*
X173477478Y-135956183D01*
X173312206Y-136009884D01*
X173157377Y-136088774D01*
X173070454Y-136151928D01*
X173070453Y-136151928D01*
X173506612Y-136588087D01*
X173428993Y-136632901D01*
X173335901Y-136725993D01*
X173291087Y-136803612D01*
X172854928Y-136367453D01*
X172854928Y-136367454D01*
X172791774Y-136454377D01*
X172712884Y-136609206D01*
X172659183Y-136774478D01*
X172632000Y-136946107D01*
X172300500Y-136946107D01*
X172300500Y-136946074D01*
X172273303Y-136774362D01*
X172273302Y-136774358D01*
X172273302Y-136774357D01*
X172219581Y-136609021D01*
X172198208Y-136567075D01*
X172140653Y-136454116D01*
X172038465Y-136313467D01*
X171915533Y-136190535D01*
X171774884Y-136088347D01*
X171698268Y-136049309D01*
X171619978Y-136009418D01*
X171454641Y-135955697D01*
X171325854Y-135935299D01*
X171282926Y-135928500D01*
X171109074Y-135928500D01*
X171051836Y-135937565D01*
X170937360Y-135955697D01*
X170937357Y-135955697D01*
X170772021Y-136009418D01*
X170617115Y-136088347D01*
X170552180Y-136135526D01*
X170476467Y-136190535D01*
X170476465Y-136190537D01*
X170476464Y-136190537D01*
X170353537Y-136313464D01*
X170353537Y-136313465D01*
X170353535Y-136313467D01*
X170348717Y-136320099D01*
X170251347Y-136454115D01*
X170172418Y-136609021D01*
X170118697Y-136774357D01*
X170118697Y-136774360D01*
X170091500Y-136946074D01*
X168635500Y-136946074D01*
X168635500Y-135841207D01*
X183441000Y-135841207D01*
X183441000Y-135998792D01*
X183445974Y-136049309D01*
X183476717Y-136203874D01*
X183491458Y-136252468D01*
X183551761Y-136398050D01*
X183551769Y-136398066D01*
X183575690Y-136442822D01*
X183575701Y-136442840D01*
X183650175Y-136554297D01*
X184055086Y-136149386D01*
X184099901Y-136227007D01*
X184192993Y-136320099D01*
X184270612Y-136364912D01*
X183865701Y-136769823D01*
X183977167Y-136844303D01*
X183977174Y-136844307D01*
X184021933Y-136868230D01*
X184021949Y-136868238D01*
X184167531Y-136928541D01*
X184216125Y-136943282D01*
X184370690Y-136974025D01*
X184421208Y-136979000D01*
X185139784Y-136979000D01*
X185139786Y-136978999D01*
X185238888Y-136959286D01*
X185238896Y-136959284D01*
X185298903Y-136934428D01*
X184729387Y-136364912D01*
X184807007Y-136320099D01*
X184900099Y-136227007D01*
X184944912Y-136149387D01*
X185514428Y-136718903D01*
X185539284Y-136658896D01*
X185539286Y-136658888D01*
X185558999Y-136559786D01*
X185559000Y-136559784D01*
X185559000Y-135280215D01*
X201221000Y-135280215D01*
X201221000Y-136559786D01*
X201240713Y-136658893D01*
X201240716Y-136658901D01*
X201265569Y-136718902D01*
X201265570Y-136718903D01*
X201835086Y-136149386D01*
X201879901Y-136227007D01*
X201972993Y-136320099D01*
X202050612Y-136364912D01*
X201481095Y-136934428D01*
X201541103Y-136959284D01*
X201541111Y-136959286D01*
X201640213Y-136978999D01*
X201640216Y-136979000D01*
X202358792Y-136979000D01*
X202409309Y-136974025D01*
X202563874Y-136943282D01*
X202612468Y-136928541D01*
X202758050Y-136868238D01*
X202758064Y-136868231D01*
X202802833Y-136844302D01*
X202802839Y-136844298D01*
X202914298Y-136769824D01*
X202509386Y-136364912D01*
X202587007Y-136320099D01*
X202680099Y-136227007D01*
X202724912Y-136149386D01*
X203129824Y-136554298D01*
X203204298Y-136442839D01*
X203204302Y-136442833D01*
X203228231Y-136398064D01*
X203228238Y-136398050D01*
X203288541Y-136252468D01*
X203303282Y-136203874D01*
X203334025Y-136049309D01*
X203339000Y-135998792D01*
X203339000Y-135841207D01*
X203334025Y-135790690D01*
X203303282Y-135636125D01*
X203288541Y-135587531D01*
X203228238Y-135441949D01*
X203228230Y-135441933D01*
X203204307Y-135397174D01*
X203204303Y-135397167D01*
X203129823Y-135285701D01*
X202724912Y-135690612D01*
X202680099Y-135612993D01*
X202587007Y-135519901D01*
X202509386Y-135475087D01*
X202914297Y-135070175D01*
X202802840Y-134995701D01*
X202802822Y-134995690D01*
X202758066Y-134971769D01*
X202758050Y-134971761D01*
X202612468Y-134911458D01*
X202563874Y-134896717D01*
X202409309Y-134865974D01*
X202358792Y-134861000D01*
X201640216Y-134861000D01*
X201541106Y-134880714D01*
X201541103Y-134880715D01*
X201481095Y-134905569D01*
X202050613Y-135475087D01*
X201972993Y-135519901D01*
X201879901Y-135612993D01*
X201835087Y-135690613D01*
X201265569Y-135121095D01*
X201240715Y-135181103D01*
X201240714Y-135181106D01*
X201221000Y-135280215D01*
X185559000Y-135280215D01*
X185558999Y-135280213D01*
X185539286Y-135181111D01*
X185539284Y-135181103D01*
X185514428Y-135121095D01*
X184944912Y-135690612D01*
X184900099Y-135612993D01*
X184807007Y-135519901D01*
X184729387Y-135475087D01*
X185298903Y-134905570D01*
X185298902Y-134905569D01*
X185238901Y-134880716D01*
X185238893Y-134880713D01*
X185139785Y-134861000D01*
X184421208Y-134861000D01*
X184370690Y-134865974D01*
X184216125Y-134896717D01*
X184167531Y-134911458D01*
X184021949Y-134971761D01*
X184021933Y-134971769D01*
X183977177Y-134995690D01*
X183977164Y-134995698D01*
X183865701Y-135070175D01*
X183865700Y-135070175D01*
X184270612Y-135475087D01*
X184192993Y-135519901D01*
X184099901Y-135612993D01*
X184055087Y-135690612D01*
X183650175Y-135285700D01*
X183650175Y-135285701D01*
X183575698Y-135397164D01*
X183575690Y-135397177D01*
X183551769Y-135441933D01*
X183551761Y-135441949D01*
X183491458Y-135587531D01*
X183476717Y-135636125D01*
X183445974Y-135790690D01*
X183441000Y-135841207D01*
X168635500Y-135841207D01*
X168635500Y-134406107D01*
X170092000Y-134406107D01*
X170092000Y-134579892D01*
X170119183Y-134751521D01*
X170172884Y-134916793D01*
X170251774Y-135071622D01*
X170314928Y-135158544D01*
X170314929Y-135158545D01*
X170751087Y-134722386D01*
X170795901Y-134800007D01*
X170888993Y-134893099D01*
X170966612Y-134937912D01*
X170530453Y-135374070D01*
X170617379Y-135437225D01*
X170617385Y-135437229D01*
X170772206Y-135516115D01*
X170937478Y-135569816D01*
X171109108Y-135597000D01*
X171282892Y-135597000D01*
X171454521Y-135569816D01*
X171619793Y-135516115D01*
X171774622Y-135437225D01*
X171861544Y-135374071D01*
X171861544Y-135374070D01*
X171425387Y-134937912D01*
X171503007Y-134893099D01*
X171596099Y-134800007D01*
X171640912Y-134722386D01*
X172077070Y-135158544D01*
X172077071Y-135158544D01*
X172140225Y-135071622D01*
X172219115Y-134916793D01*
X172272816Y-134751521D01*
X172300000Y-134579892D01*
X172300000Y-134406107D01*
X172299995Y-134406074D01*
X172631500Y-134406074D01*
X172631500Y-134579925D01*
X172658697Y-134751639D01*
X172658697Y-134751642D01*
X172712418Y-134916978D01*
X172752524Y-134995690D01*
X172791347Y-135071884D01*
X172893535Y-135212533D01*
X173016467Y-135335465D01*
X173157116Y-135437653D01*
X173311106Y-135516115D01*
X173312021Y-135516581D01*
X173477358Y-135570302D01*
X173477359Y-135570302D01*
X173477362Y-135570303D01*
X173649074Y-135597500D01*
X173649075Y-135597500D01*
X173822925Y-135597500D01*
X173822926Y-135597500D01*
X173994638Y-135570303D01*
X173994641Y-135570302D01*
X173994642Y-135570302D01*
X174159978Y-135516581D01*
X174159978Y-135516580D01*
X174159981Y-135516580D01*
X174314884Y-135437653D01*
X174455533Y-135335465D01*
X174578465Y-135212533D01*
X174680653Y-135071884D01*
X174759580Y-134916981D01*
X174771363Y-134880716D01*
X174813302Y-134751642D01*
X174813302Y-134751641D01*
X174813303Y-134751638D01*
X174840500Y-134579926D01*
X174840500Y-134406074D01*
X174813303Y-134234362D01*
X174813302Y-134234358D01*
X174813302Y-134234357D01*
X174759581Y-134069021D01*
X174680787Y-133914379D01*
X174680653Y-133914116D01*
X174578465Y-133773467D01*
X174455533Y-133650535D01*
X174314884Y-133548347D01*
X174159978Y-133469418D01*
X173994641Y-133415697D01*
X173848319Y-133392522D01*
X173822926Y-133388500D01*
X173649074Y-133388500D01*
X173623681Y-133392522D01*
X173477360Y-133415697D01*
X173477357Y-133415697D01*
X173312021Y-133469418D01*
X173157115Y-133548347D01*
X173076869Y-133606649D01*
X173016467Y-133650535D01*
X173016465Y-133650537D01*
X173016464Y-133650537D01*
X172893537Y-133773464D01*
X172893537Y-133773465D01*
X172893535Y-133773467D01*
X172854312Y-133827453D01*
X172791347Y-133914115D01*
X172712418Y-134069021D01*
X172658697Y-134234357D01*
X172658697Y-134234360D01*
X172631500Y-134406074D01*
X172299995Y-134406074D01*
X172272816Y-134234478D01*
X172219115Y-134069206D01*
X172140229Y-133914385D01*
X172140225Y-133914379D01*
X172077070Y-133827454D01*
X172077070Y-133827453D01*
X171640912Y-134263611D01*
X171596099Y-134185993D01*
X171503007Y-134092901D01*
X171425387Y-134048087D01*
X171861545Y-133611929D01*
X171861544Y-133611928D01*
X171774622Y-133548774D01*
X171619793Y-133469884D01*
X171454521Y-133416183D01*
X171282892Y-133389000D01*
X171109108Y-133389000D01*
X170937478Y-133416183D01*
X170772206Y-133469884D01*
X170617377Y-133548774D01*
X170530454Y-133611928D01*
X170530453Y-133611928D01*
X170966612Y-134048087D01*
X170888993Y-134092901D01*
X170795901Y-134185993D01*
X170751087Y-134263612D01*
X170314928Y-133827453D01*
X170314928Y-133827454D01*
X170251774Y-133914377D01*
X170172884Y-134069206D01*
X170119183Y-134234478D01*
X170092000Y-134406107D01*
X168635500Y-134406107D01*
X168635500Y-133276136D01*
X183445500Y-133276136D01*
X183445500Y-133483863D01*
X183486022Y-133687578D01*
X183486025Y-133687590D01*
X183565511Y-133879488D01*
X183565512Y-133879490D01*
X183680916Y-134052203D01*
X183680919Y-134052207D01*
X183827792Y-134199080D01*
X183827796Y-134199083D01*
X184000507Y-134314486D01*
X184000508Y-134314486D01*
X184000509Y-134314487D01*
X184000511Y-134314488D01*
X184192409Y-134393974D01*
X184192414Y-134393976D01*
X184359311Y-134427174D01*
X184396136Y-134434499D01*
X184396139Y-134434500D01*
X184396141Y-134434500D01*
X184603861Y-134434500D01*
X184603862Y-134434499D01*
X184807586Y-134393976D01*
X184999493Y-134314486D01*
X185172204Y-134199083D01*
X185319083Y-134052204D01*
X185434486Y-133879493D01*
X185513976Y-133687586D01*
X185554500Y-133483859D01*
X185554500Y-133276141D01*
X185554500Y-133276138D01*
X185554499Y-133276136D01*
X201225500Y-133276136D01*
X201225500Y-133483863D01*
X201266022Y-133687578D01*
X201266025Y-133687590D01*
X201345511Y-133879488D01*
X201345512Y-133879490D01*
X201460916Y-134052203D01*
X201460919Y-134052207D01*
X201607792Y-134199080D01*
X201607796Y-134199083D01*
X201780507Y-134314486D01*
X201780508Y-134314486D01*
X201780509Y-134314487D01*
X201780511Y-134314488D01*
X201972409Y-134393974D01*
X201972414Y-134393976D01*
X202139311Y-134427174D01*
X202176136Y-134434499D01*
X202176139Y-134434500D01*
X202176141Y-134434500D01*
X202383861Y-134434500D01*
X202383862Y-134434499D01*
X202587586Y-134393976D01*
X202779493Y-134314486D01*
X202952204Y-134199083D01*
X203099083Y-134052204D01*
X203214486Y-133879493D01*
X203293976Y-133687586D01*
X203334500Y-133483859D01*
X203334500Y-133276141D01*
X203334500Y-133276138D01*
X203334499Y-133276136D01*
X203293977Y-133072421D01*
X203293976Y-133072414D01*
X203293974Y-133072409D01*
X203214488Y-132880511D01*
X203214487Y-132880509D01*
X203099083Y-132707796D01*
X203099080Y-132707792D01*
X202952207Y-132560919D01*
X202952203Y-132560916D01*
X202779490Y-132445512D01*
X202779488Y-132445511D01*
X202587590Y-132366025D01*
X202587578Y-132366022D01*
X202383862Y-132325500D01*
X202383859Y-132325500D01*
X202176141Y-132325500D01*
X202176138Y-132325500D01*
X201972421Y-132366022D01*
X201972409Y-132366025D01*
X201780511Y-132445511D01*
X201780509Y-132445512D01*
X201607796Y-132560916D01*
X201607792Y-132560919D01*
X201460919Y-132707792D01*
X201460916Y-132707796D01*
X201345512Y-132880509D01*
X201345511Y-132880511D01*
X201266025Y-133072409D01*
X201266022Y-133072421D01*
X201225500Y-133276136D01*
X185554499Y-133276136D01*
X185513977Y-133072421D01*
X185513976Y-133072414D01*
X185513974Y-133072409D01*
X185434488Y-132880511D01*
X185434487Y-132880509D01*
X185319083Y-132707796D01*
X185319080Y-132707792D01*
X185172207Y-132560919D01*
X185172203Y-132560916D01*
X184999490Y-132445512D01*
X184999488Y-132445511D01*
X184807590Y-132366025D01*
X184807578Y-132366022D01*
X184603862Y-132325500D01*
X184603859Y-132325500D01*
X184396141Y-132325500D01*
X184396138Y-132325500D01*
X184192421Y-132366022D01*
X184192409Y-132366025D01*
X184000511Y-132445511D01*
X184000509Y-132445512D01*
X183827796Y-132560916D01*
X183827792Y-132560919D01*
X183680919Y-132707792D01*
X183680916Y-132707796D01*
X183565512Y-132880509D01*
X183565511Y-132880511D01*
X183486025Y-133072409D01*
X183486022Y-133072421D01*
X183445500Y-133276136D01*
X168635500Y-133276136D01*
X168635500Y-131866074D01*
X170091500Y-131866074D01*
X170091500Y-132039925D01*
X170118697Y-132211639D01*
X170118697Y-132211642D01*
X170172418Y-132376978D01*
X170172420Y-132376981D01*
X170251347Y-132531884D01*
X170353535Y-132672533D01*
X170476467Y-132795465D01*
X170617116Y-132897653D01*
X170772019Y-132976580D01*
X170772021Y-132976581D01*
X170937358Y-133030302D01*
X170937359Y-133030302D01*
X170937362Y-133030303D01*
X171109074Y-133057500D01*
X171109075Y-133057500D01*
X171282925Y-133057500D01*
X171282926Y-133057500D01*
X171454638Y-133030303D01*
X171454641Y-133030302D01*
X171454642Y-133030302D01*
X171619978Y-132976581D01*
X171619978Y-132976580D01*
X171619981Y-132976580D01*
X171774884Y-132897653D01*
X171915533Y-132795465D01*
X172038465Y-132672533D01*
X172140653Y-132531884D01*
X172219580Y-132376981D01*
X172273303Y-132211638D01*
X172300500Y-132039926D01*
X172300500Y-131866074D01*
X172631500Y-131866074D01*
X172631500Y-132039925D01*
X172658697Y-132211639D01*
X172658697Y-132211642D01*
X172712418Y-132376978D01*
X172712420Y-132376981D01*
X172791347Y-132531884D01*
X172893535Y-132672533D01*
X173016467Y-132795465D01*
X173157116Y-132897653D01*
X173312019Y-132976580D01*
X173312021Y-132976581D01*
X173477358Y-133030302D01*
X173477359Y-133030302D01*
X173477362Y-133030303D01*
X173649074Y-133057500D01*
X173649075Y-133057500D01*
X173822925Y-133057500D01*
X173822926Y-133057500D01*
X173994638Y-133030303D01*
X173994641Y-133030302D01*
X173994642Y-133030302D01*
X174159978Y-132976581D01*
X174159978Y-132976580D01*
X174159981Y-132976580D01*
X174314884Y-132897653D01*
X174455533Y-132795465D01*
X174578465Y-132672533D01*
X174680653Y-132531884D01*
X174759580Y-132376981D01*
X174813303Y-132211638D01*
X174840500Y-132039926D01*
X174840500Y-131866074D01*
X174813303Y-131694362D01*
X174813302Y-131694358D01*
X174813302Y-131694357D01*
X174759581Y-131529021D01*
X174680652Y-131374115D01*
X174578465Y-131233467D01*
X174455533Y-131110535D01*
X174314884Y-131008347D01*
X174159978Y-130929418D01*
X173994641Y-130875697D01*
X173848319Y-130852522D01*
X173822926Y-130848500D01*
X173649074Y-130848500D01*
X173623681Y-130852522D01*
X173477360Y-130875697D01*
X173477357Y-130875697D01*
X173312021Y-130929418D01*
X173157115Y-131008347D01*
X173076869Y-131066649D01*
X173016467Y-131110535D01*
X173016465Y-131110537D01*
X173016464Y-131110537D01*
X172893537Y-131233464D01*
X172893537Y-131233465D01*
X172893535Y-131233467D01*
X172849649Y-131293869D01*
X172791347Y-131374115D01*
X172712418Y-131529021D01*
X172658697Y-131694357D01*
X172658697Y-131694360D01*
X172631500Y-131866074D01*
X172300500Y-131866074D01*
X172273303Y-131694362D01*
X172273302Y-131694358D01*
X172273302Y-131694357D01*
X172219581Y-131529021D01*
X172140652Y-131374115D01*
X172038465Y-131233467D01*
X171915533Y-131110535D01*
X171774884Y-131008347D01*
X171619978Y-130929418D01*
X171454641Y-130875697D01*
X171308319Y-130852522D01*
X171282926Y-130848500D01*
X171109074Y-130848500D01*
X171083681Y-130852522D01*
X170937360Y-130875697D01*
X170937357Y-130875697D01*
X170772021Y-130929418D01*
X170617115Y-131008347D01*
X170536869Y-131066649D01*
X170476467Y-131110535D01*
X170476465Y-131110537D01*
X170476464Y-131110537D01*
X170353537Y-131233464D01*
X170353537Y-131233465D01*
X170353535Y-131233467D01*
X170309649Y-131293869D01*
X170251347Y-131374115D01*
X170172418Y-131529021D01*
X170118697Y-131694357D01*
X170118697Y-131694360D01*
X170091500Y-131866074D01*
X168635500Y-131866074D01*
X168635500Y-130736136D01*
X183445500Y-130736136D01*
X183445500Y-130943863D01*
X183486022Y-131147578D01*
X183486025Y-131147590D01*
X183565511Y-131339488D01*
X183565512Y-131339490D01*
X183680916Y-131512203D01*
X183680919Y-131512207D01*
X183827792Y-131659080D01*
X183827796Y-131659083D01*
X184000507Y-131774486D01*
X184000508Y-131774486D01*
X184000509Y-131774487D01*
X184000511Y-131774488D01*
X184192409Y-131853974D01*
X184192414Y-131853976D01*
X184396136Y-131894499D01*
X184396139Y-131894500D01*
X184396141Y-131894500D01*
X184603861Y-131894500D01*
X184603862Y-131894499D01*
X184807586Y-131853976D01*
X184999493Y-131774486D01*
X185172204Y-131659083D01*
X185319083Y-131512204D01*
X185434486Y-131339493D01*
X185513976Y-131147586D01*
X185554500Y-130943859D01*
X185554500Y-130736141D01*
X185554500Y-130736138D01*
X185554499Y-130736136D01*
X201225500Y-130736136D01*
X201225500Y-130943863D01*
X201266022Y-131147578D01*
X201266025Y-131147590D01*
X201345511Y-131339488D01*
X201345512Y-131339490D01*
X201460916Y-131512203D01*
X201460919Y-131512207D01*
X201607792Y-131659080D01*
X201607796Y-131659083D01*
X201780507Y-131774486D01*
X201780508Y-131774486D01*
X201780509Y-131774487D01*
X201780511Y-131774488D01*
X201972409Y-131853974D01*
X201972414Y-131853976D01*
X202176136Y-131894499D01*
X202176139Y-131894500D01*
X202176141Y-131894500D01*
X202383861Y-131894500D01*
X202383862Y-131894499D01*
X202587586Y-131853976D01*
X202779493Y-131774486D01*
X202952204Y-131659083D01*
X203099083Y-131512204D01*
X203214486Y-131339493D01*
X203293976Y-131147586D01*
X203334500Y-130943859D01*
X203334500Y-130736141D01*
X203334500Y-130736138D01*
X203334499Y-130736136D01*
X203293977Y-130532421D01*
X203293976Y-130532414D01*
X203293974Y-130532409D01*
X203214488Y-130340511D01*
X203214487Y-130340509D01*
X203099083Y-130167796D01*
X203099080Y-130167792D01*
X202952207Y-130020919D01*
X202952203Y-130020916D01*
X202779490Y-129905512D01*
X202779488Y-129905511D01*
X202587590Y-129826025D01*
X202587578Y-129826022D01*
X202383862Y-129785500D01*
X202383859Y-129785500D01*
X202176141Y-129785500D01*
X202176138Y-129785500D01*
X201972421Y-129826022D01*
X201972409Y-129826025D01*
X201780511Y-129905511D01*
X201780509Y-129905512D01*
X201607796Y-130020916D01*
X201607792Y-130020919D01*
X201460919Y-130167792D01*
X201460916Y-130167796D01*
X201345512Y-130340509D01*
X201345511Y-130340511D01*
X201266025Y-130532409D01*
X201266022Y-130532421D01*
X201225500Y-130736136D01*
X185554499Y-130736136D01*
X185513977Y-130532421D01*
X185513976Y-130532414D01*
X185513974Y-130532409D01*
X185434488Y-130340511D01*
X185434487Y-130340509D01*
X185319083Y-130167796D01*
X185319080Y-130167792D01*
X185172207Y-130020919D01*
X185172203Y-130020916D01*
X184999490Y-129905512D01*
X184999488Y-129905511D01*
X184807590Y-129826025D01*
X184807578Y-129826022D01*
X184603862Y-129785500D01*
X184603859Y-129785500D01*
X184396141Y-129785500D01*
X184396138Y-129785500D01*
X184192421Y-129826022D01*
X184192409Y-129826025D01*
X184000511Y-129905511D01*
X184000509Y-129905512D01*
X183827796Y-130020916D01*
X183827792Y-130020919D01*
X183680919Y-130167792D01*
X183680916Y-130167796D01*
X183565512Y-130340509D01*
X183565511Y-130340511D01*
X183486025Y-130532409D01*
X183486022Y-130532421D01*
X183445500Y-130736136D01*
X168635500Y-130736136D01*
X168635500Y-129326074D01*
X170091500Y-129326074D01*
X170091500Y-129499925D01*
X170118697Y-129671639D01*
X170118697Y-129671642D01*
X170172418Y-129836978D01*
X170251214Y-129991622D01*
X170251347Y-129991884D01*
X170353535Y-130132533D01*
X170476467Y-130255465D01*
X170617116Y-130357653D01*
X170771106Y-130436115D01*
X170772021Y-130436581D01*
X170937358Y-130490302D01*
X170937359Y-130490302D01*
X170937362Y-130490303D01*
X171109074Y-130517500D01*
X171109075Y-130517500D01*
X171282925Y-130517500D01*
X171282926Y-130517500D01*
X171454638Y-130490303D01*
X171454641Y-130490302D01*
X171454642Y-130490302D01*
X171619978Y-130436581D01*
X171619978Y-130436580D01*
X171619981Y-130436580D01*
X171774884Y-130357653D01*
X171915533Y-130255465D01*
X172038465Y-130132533D01*
X172140653Y-129991884D01*
X172219580Y-129836981D01*
X172273303Y-129671638D01*
X172300500Y-129499926D01*
X172300500Y-129326107D01*
X172632000Y-129326107D01*
X172632000Y-129499892D01*
X172659183Y-129671521D01*
X172712884Y-129836793D01*
X172791774Y-129991622D01*
X172854928Y-130078544D01*
X172854929Y-130078545D01*
X173291087Y-129642386D01*
X173335901Y-129720007D01*
X173428993Y-129813099D01*
X173506612Y-129857912D01*
X173070453Y-130294070D01*
X173157379Y-130357225D01*
X173157385Y-130357229D01*
X173312206Y-130436115D01*
X173477478Y-130489816D01*
X173649108Y-130517000D01*
X173822892Y-130517000D01*
X173994521Y-130489816D01*
X174159793Y-130436115D01*
X174314622Y-130357225D01*
X174401544Y-130294071D01*
X174401544Y-130294070D01*
X173965387Y-129857912D01*
X174043007Y-129813099D01*
X174136099Y-129720007D01*
X174180912Y-129642386D01*
X174617070Y-130078544D01*
X174617071Y-130078544D01*
X174680225Y-129991622D01*
X174759115Y-129836793D01*
X174812816Y-129671521D01*
X174840000Y-129499892D01*
X174840000Y-129326107D01*
X174812816Y-129154478D01*
X174759115Y-128989206D01*
X174680229Y-128834385D01*
X174680225Y-128834379D01*
X174617070Y-128747454D01*
X174617070Y-128747453D01*
X174180912Y-129183611D01*
X174136099Y-129105993D01*
X174043007Y-129012901D01*
X173965387Y-128968087D01*
X174401545Y-128531929D01*
X174401544Y-128531928D01*
X174314622Y-128468774D01*
X174159793Y-128389884D01*
X173994521Y-128336183D01*
X173845129Y-128312522D01*
X173822892Y-128309000D01*
X173649108Y-128309000D01*
X173477478Y-128336183D01*
X173312206Y-128389884D01*
X173157377Y-128468774D01*
X173070454Y-128531928D01*
X173070453Y-128531928D01*
X173506612Y-128968087D01*
X173428993Y-129012901D01*
X173335901Y-129105993D01*
X173291087Y-129183612D01*
X172854928Y-128747453D01*
X172854928Y-128747454D01*
X172791774Y-128834377D01*
X172712884Y-128989206D01*
X172659183Y-129154478D01*
X172632000Y-129326107D01*
X172300500Y-129326107D01*
X172300500Y-129326074D01*
X172273303Y-129154362D01*
X172273302Y-129154358D01*
X172273302Y-129154357D01*
X172219581Y-128989021D01*
X172140787Y-128834379D01*
X172140653Y-128834116D01*
X172038465Y-128693467D01*
X171915533Y-128570535D01*
X171774884Y-128468347D01*
X171619978Y-128389418D01*
X171454641Y-128335697D01*
X171308319Y-128312522D01*
X171282926Y-128308500D01*
X171109074Y-128308500D01*
X171083681Y-128312522D01*
X170937360Y-128335697D01*
X170937357Y-128335697D01*
X170772021Y-128389418D01*
X170617115Y-128468347D01*
X170536869Y-128526649D01*
X170476467Y-128570535D01*
X170476465Y-128570537D01*
X170476464Y-128570537D01*
X170353537Y-128693464D01*
X170353537Y-128693465D01*
X170353535Y-128693467D01*
X170314312Y-128747453D01*
X170251347Y-128834115D01*
X170172418Y-128989021D01*
X170118697Y-129154357D01*
X170118697Y-129154360D01*
X170091500Y-129326074D01*
X168635500Y-129326074D01*
X168635500Y-128196136D01*
X183445500Y-128196136D01*
X183445500Y-128403863D01*
X183486022Y-128607578D01*
X183486025Y-128607590D01*
X183565511Y-128799488D01*
X183565512Y-128799490D01*
X183680916Y-128972203D01*
X183680919Y-128972207D01*
X183827792Y-129119080D01*
X183827796Y-129119083D01*
X184000507Y-129234486D01*
X184000508Y-129234486D01*
X184000509Y-129234487D01*
X184000511Y-129234488D01*
X184192409Y-129313974D01*
X184192414Y-129313976D01*
X184359311Y-129347174D01*
X184396136Y-129354499D01*
X184396139Y-129354500D01*
X184396141Y-129354500D01*
X184603861Y-129354500D01*
X184603862Y-129354499D01*
X184807586Y-129313976D01*
X184999493Y-129234486D01*
X185172204Y-129119083D01*
X185319083Y-128972204D01*
X185434486Y-128799493D01*
X185513976Y-128607586D01*
X185554500Y-128403859D01*
X185554500Y-128196141D01*
X185554500Y-128196138D01*
X185554499Y-128196136D01*
X201225500Y-128196136D01*
X201225500Y-128403863D01*
X201266022Y-128607578D01*
X201266025Y-128607590D01*
X201345511Y-128799488D01*
X201345512Y-128799490D01*
X201460916Y-128972203D01*
X201460919Y-128972207D01*
X201607792Y-129119080D01*
X201607796Y-129119083D01*
X201780507Y-129234486D01*
X201780508Y-129234486D01*
X201780509Y-129234487D01*
X201780511Y-129234488D01*
X201972409Y-129313974D01*
X201972414Y-129313976D01*
X202139311Y-129347174D01*
X202176136Y-129354499D01*
X202176139Y-129354500D01*
X202176141Y-129354500D01*
X202383861Y-129354500D01*
X202383862Y-129354499D01*
X202587586Y-129313976D01*
X202779493Y-129234486D01*
X202952204Y-129119083D01*
X203099083Y-128972204D01*
X203214486Y-128799493D01*
X203293976Y-128607586D01*
X203334500Y-128403859D01*
X203334500Y-128196141D01*
X203334500Y-128196138D01*
X203334499Y-128196136D01*
X203293977Y-127992421D01*
X203293976Y-127992414D01*
X203293974Y-127992409D01*
X203214488Y-127800511D01*
X203214487Y-127800509D01*
X203099083Y-127627796D01*
X203099080Y-127627792D01*
X202952207Y-127480919D01*
X202952203Y-127480916D01*
X202779490Y-127365512D01*
X202779488Y-127365511D01*
X202587590Y-127286025D01*
X202587578Y-127286022D01*
X202383862Y-127245500D01*
X202383859Y-127245500D01*
X202176141Y-127245500D01*
X202176138Y-127245500D01*
X201972421Y-127286022D01*
X201972409Y-127286025D01*
X201780511Y-127365511D01*
X201780509Y-127365512D01*
X201607796Y-127480916D01*
X201607792Y-127480919D01*
X201460919Y-127627792D01*
X201460916Y-127627796D01*
X201345512Y-127800509D01*
X201345511Y-127800511D01*
X201266025Y-127992409D01*
X201266022Y-127992421D01*
X201225500Y-128196136D01*
X185554499Y-128196136D01*
X185513977Y-127992421D01*
X185513976Y-127992414D01*
X185513974Y-127992409D01*
X185434488Y-127800511D01*
X185434487Y-127800509D01*
X185319083Y-127627796D01*
X185319080Y-127627792D01*
X185172207Y-127480919D01*
X185172203Y-127480916D01*
X184999490Y-127365512D01*
X184999488Y-127365511D01*
X184807590Y-127286025D01*
X184807578Y-127286022D01*
X184603862Y-127245500D01*
X184603859Y-127245500D01*
X184396141Y-127245500D01*
X184396138Y-127245500D01*
X184192421Y-127286022D01*
X184192409Y-127286025D01*
X184000511Y-127365511D01*
X184000509Y-127365512D01*
X183827796Y-127480916D01*
X183827792Y-127480919D01*
X183680919Y-127627792D01*
X183680916Y-127627796D01*
X183565512Y-127800509D01*
X183565511Y-127800511D01*
X183486025Y-127992409D01*
X183486022Y-127992421D01*
X183445500Y-128196136D01*
X168635500Y-128196136D01*
X168635500Y-126786107D01*
X170092000Y-126786107D01*
X170092000Y-126959892D01*
X170119183Y-127131521D01*
X170172884Y-127296793D01*
X170251774Y-127451622D01*
X170314928Y-127538544D01*
X170314929Y-127538545D01*
X170751087Y-127102386D01*
X170795901Y-127180007D01*
X170888993Y-127273099D01*
X170966612Y-127317912D01*
X170530453Y-127754070D01*
X170617379Y-127817225D01*
X170617385Y-127817229D01*
X170772206Y-127896115D01*
X170937478Y-127949816D01*
X171109108Y-127977000D01*
X171282892Y-127977000D01*
X171454521Y-127949816D01*
X171619793Y-127896115D01*
X171774622Y-127817225D01*
X171861544Y-127754071D01*
X171861544Y-127754070D01*
X171425387Y-127317912D01*
X171503007Y-127273099D01*
X171596099Y-127180007D01*
X171640912Y-127102386D01*
X172077070Y-127538544D01*
X172077071Y-127538544D01*
X172140225Y-127451622D01*
X172219115Y-127296793D01*
X172272816Y-127131521D01*
X172300000Y-126959892D01*
X172300000Y-126786107D01*
X172299995Y-126786074D01*
X172631500Y-126786074D01*
X172631500Y-126959925D01*
X172658697Y-127131639D01*
X172658697Y-127131642D01*
X172712418Y-127296978D01*
X172791214Y-127451622D01*
X172791347Y-127451884D01*
X172893535Y-127592533D01*
X173016467Y-127715465D01*
X173157116Y-127817653D01*
X173311106Y-127896115D01*
X173312021Y-127896581D01*
X173477358Y-127950302D01*
X173477359Y-127950302D01*
X173477362Y-127950303D01*
X173649074Y-127977500D01*
X173649075Y-127977500D01*
X173822925Y-127977500D01*
X173822926Y-127977500D01*
X173994638Y-127950303D01*
X173994641Y-127950302D01*
X173994642Y-127950302D01*
X174159978Y-127896581D01*
X174159978Y-127896580D01*
X174159981Y-127896580D01*
X174314884Y-127817653D01*
X174455533Y-127715465D01*
X174578465Y-127592533D01*
X174680653Y-127451884D01*
X174759580Y-127296981D01*
X174813303Y-127131638D01*
X174840500Y-126959926D01*
X174840500Y-126786074D01*
X174813303Y-126614362D01*
X174813302Y-126614358D01*
X174813302Y-126614357D01*
X174759581Y-126449021D01*
X174680787Y-126294379D01*
X174680653Y-126294116D01*
X174578465Y-126153467D01*
X174455533Y-126030535D01*
X174314884Y-125928347D01*
X174159978Y-125849418D01*
X173994641Y-125795697D01*
X173848319Y-125772522D01*
X173822926Y-125768500D01*
X173649074Y-125768500D01*
X173623681Y-125772522D01*
X173477360Y-125795697D01*
X173477357Y-125795697D01*
X173312021Y-125849418D01*
X173157115Y-125928347D01*
X173076869Y-125986649D01*
X173016467Y-126030535D01*
X173016465Y-126030537D01*
X173016464Y-126030537D01*
X172893537Y-126153464D01*
X172893537Y-126153465D01*
X172893535Y-126153467D01*
X172854312Y-126207453D01*
X172791347Y-126294115D01*
X172712418Y-126449021D01*
X172658697Y-126614357D01*
X172658697Y-126614360D01*
X172631500Y-126786074D01*
X172299995Y-126786074D01*
X172272816Y-126614478D01*
X172219115Y-126449206D01*
X172140229Y-126294385D01*
X172140225Y-126294379D01*
X172077070Y-126207454D01*
X172077070Y-126207453D01*
X171640912Y-126643611D01*
X171596099Y-126565993D01*
X171503007Y-126472901D01*
X171425387Y-126428087D01*
X171861545Y-125991929D01*
X171861544Y-125991928D01*
X171774622Y-125928774D01*
X171619793Y-125849884D01*
X171454521Y-125796183D01*
X171282892Y-125769000D01*
X171109108Y-125769000D01*
X170937478Y-125796183D01*
X170772206Y-125849884D01*
X170617377Y-125928774D01*
X170530454Y-125991928D01*
X170530453Y-125991928D01*
X170966612Y-126428087D01*
X170888993Y-126472901D01*
X170795901Y-126565993D01*
X170751087Y-126643612D01*
X170314928Y-126207453D01*
X170314928Y-126207454D01*
X170251774Y-126294377D01*
X170172884Y-126449206D01*
X170119183Y-126614478D01*
X170092000Y-126786107D01*
X168635500Y-126786107D01*
X168635500Y-125656136D01*
X183445500Y-125656136D01*
X183445500Y-125863863D01*
X183486022Y-126067578D01*
X183486025Y-126067590D01*
X183565511Y-126259488D01*
X183565512Y-126259490D01*
X183680916Y-126432203D01*
X183680919Y-126432207D01*
X183827792Y-126579080D01*
X183827796Y-126579083D01*
X184000507Y-126694486D01*
X184000508Y-126694486D01*
X184000509Y-126694487D01*
X184000511Y-126694488D01*
X184192409Y-126773974D01*
X184192414Y-126773976D01*
X184359311Y-126807174D01*
X184396136Y-126814499D01*
X184396139Y-126814500D01*
X184396141Y-126814500D01*
X184603861Y-126814500D01*
X184603862Y-126814499D01*
X184807586Y-126773976D01*
X184999493Y-126694486D01*
X185172204Y-126579083D01*
X185319083Y-126432204D01*
X185434486Y-126259493D01*
X185513976Y-126067586D01*
X185554500Y-125863859D01*
X185554500Y-125656141D01*
X185554500Y-125656138D01*
X185554499Y-125656136D01*
X201225500Y-125656136D01*
X201225500Y-125863863D01*
X201266022Y-126067578D01*
X201266025Y-126067590D01*
X201345511Y-126259488D01*
X201345512Y-126259490D01*
X201460916Y-126432203D01*
X201460919Y-126432207D01*
X201607792Y-126579080D01*
X201607796Y-126579083D01*
X201780507Y-126694486D01*
X201780508Y-126694486D01*
X201780509Y-126694487D01*
X201780511Y-126694488D01*
X201972409Y-126773974D01*
X201972414Y-126773976D01*
X202139311Y-126807174D01*
X202176136Y-126814499D01*
X202176139Y-126814500D01*
X202176141Y-126814500D01*
X202383861Y-126814500D01*
X202383862Y-126814499D01*
X202587586Y-126773976D01*
X202779493Y-126694486D01*
X202952204Y-126579083D01*
X203099083Y-126432204D01*
X203214486Y-126259493D01*
X203293976Y-126067586D01*
X203334500Y-125863859D01*
X203334500Y-125656141D01*
X203334500Y-125656138D01*
X203334499Y-125656136D01*
X203293977Y-125452421D01*
X203293976Y-125452414D01*
X203293974Y-125452409D01*
X203214488Y-125260511D01*
X203214487Y-125260509D01*
X203099083Y-125087796D01*
X203099080Y-125087792D01*
X202952207Y-124940919D01*
X202952203Y-124940916D01*
X202779490Y-124825512D01*
X202779488Y-124825511D01*
X202587590Y-124746025D01*
X202587578Y-124746022D01*
X202383862Y-124705500D01*
X202383859Y-124705500D01*
X202176141Y-124705500D01*
X202176138Y-124705500D01*
X201972421Y-124746022D01*
X201972409Y-124746025D01*
X201780511Y-124825511D01*
X201780509Y-124825512D01*
X201607796Y-124940916D01*
X201607792Y-124940919D01*
X201460919Y-125087792D01*
X201460916Y-125087796D01*
X201345512Y-125260509D01*
X201345511Y-125260511D01*
X201266025Y-125452409D01*
X201266022Y-125452421D01*
X201225500Y-125656136D01*
X185554499Y-125656136D01*
X185513977Y-125452421D01*
X185513976Y-125452414D01*
X185513974Y-125452409D01*
X185434488Y-125260511D01*
X185434487Y-125260509D01*
X185319083Y-125087796D01*
X185319080Y-125087792D01*
X185172207Y-124940919D01*
X185172203Y-124940916D01*
X184999490Y-124825512D01*
X184999488Y-124825511D01*
X184807590Y-124746025D01*
X184807578Y-124746022D01*
X184603862Y-124705500D01*
X184603859Y-124705500D01*
X184396141Y-124705500D01*
X184396138Y-124705500D01*
X184192421Y-124746022D01*
X184192409Y-124746025D01*
X184000511Y-124825511D01*
X184000509Y-124825512D01*
X183827796Y-124940916D01*
X183827792Y-124940919D01*
X183680919Y-125087792D01*
X183680916Y-125087796D01*
X183565512Y-125260509D01*
X183565511Y-125260511D01*
X183486025Y-125452409D01*
X183486022Y-125452421D01*
X183445500Y-125656136D01*
X168635500Y-125656136D01*
X168635500Y-124246074D01*
X170091500Y-124246074D01*
X170091500Y-124419925D01*
X170118697Y-124591639D01*
X170118697Y-124591642D01*
X170172418Y-124756978D01*
X170172420Y-124756981D01*
X170251347Y-124911884D01*
X170353535Y-125052533D01*
X170476467Y-125175465D01*
X170617116Y-125277653D01*
X170772019Y-125356580D01*
X170772021Y-125356581D01*
X170937358Y-125410302D01*
X170937359Y-125410302D01*
X170937362Y-125410303D01*
X171109074Y-125437500D01*
X171109075Y-125437500D01*
X171282925Y-125437500D01*
X171282926Y-125437500D01*
X171454638Y-125410303D01*
X171454641Y-125410302D01*
X171454642Y-125410302D01*
X171619978Y-125356581D01*
X171619978Y-125356580D01*
X171619981Y-125356580D01*
X171774884Y-125277653D01*
X171915533Y-125175465D01*
X172038465Y-125052533D01*
X172140653Y-124911884D01*
X172219580Y-124756981D01*
X172273303Y-124591638D01*
X172300500Y-124419926D01*
X172300500Y-124246074D01*
X172631500Y-124246074D01*
X172631500Y-124419925D01*
X172658697Y-124591639D01*
X172658697Y-124591642D01*
X172712418Y-124756978D01*
X172712420Y-124756981D01*
X172791347Y-124911884D01*
X172893535Y-125052533D01*
X173016467Y-125175465D01*
X173157116Y-125277653D01*
X173312019Y-125356580D01*
X173312021Y-125356581D01*
X173477358Y-125410302D01*
X173477359Y-125410302D01*
X173477362Y-125410303D01*
X173649074Y-125437500D01*
X173649075Y-125437500D01*
X173822925Y-125437500D01*
X173822926Y-125437500D01*
X173994638Y-125410303D01*
X173994641Y-125410302D01*
X173994642Y-125410302D01*
X174159978Y-125356581D01*
X174159978Y-125356580D01*
X174159981Y-125356580D01*
X174314884Y-125277653D01*
X174455533Y-125175465D01*
X174578465Y-125052533D01*
X174680653Y-124911884D01*
X174759580Y-124756981D01*
X174813303Y-124591638D01*
X174840500Y-124419926D01*
X174840500Y-124246074D01*
X174813303Y-124074362D01*
X174811829Y-124069824D01*
X174809264Y-124061928D01*
X174809263Y-124061927D01*
X174759581Y-123909021D01*
X174759580Y-123909019D01*
X174680653Y-123754116D01*
X174578465Y-123613467D01*
X174455533Y-123490535D01*
X174314884Y-123388347D01*
X174238268Y-123349309D01*
X174159978Y-123309418D01*
X173995862Y-123256094D01*
X173995861Y-123256093D01*
X173994646Y-123255698D01*
X173994639Y-123255697D01*
X173908782Y-123242098D01*
X173822926Y-123228500D01*
X173649074Y-123228500D01*
X173591836Y-123237565D01*
X173477360Y-123255697D01*
X173477357Y-123255697D01*
X173312021Y-123309418D01*
X173157115Y-123388347D01*
X173092180Y-123435526D01*
X173016467Y-123490535D01*
X173016465Y-123490537D01*
X173016464Y-123490537D01*
X172893537Y-123613464D01*
X172893537Y-123613465D01*
X172893535Y-123613467D01*
X172888717Y-123620099D01*
X172791347Y-123754115D01*
X172712418Y-123909021D01*
X172658697Y-124074357D01*
X172658697Y-124074360D01*
X172631500Y-124246074D01*
X172300500Y-124246074D01*
X172273303Y-124074362D01*
X172273302Y-124074358D01*
X172273302Y-124074357D01*
X172219581Y-123909021D01*
X172219580Y-123909019D01*
X172140653Y-123754116D01*
X172038465Y-123613467D01*
X171915533Y-123490535D01*
X171774884Y-123388347D01*
X171698268Y-123349309D01*
X171619978Y-123309418D01*
X171454641Y-123255697D01*
X171325854Y-123235299D01*
X171282926Y-123228500D01*
X171109074Y-123228500D01*
X171051836Y-123237565D01*
X170937360Y-123255697D01*
X170937357Y-123255697D01*
X170772021Y-123309418D01*
X170617115Y-123388347D01*
X170552180Y-123435526D01*
X170476467Y-123490535D01*
X170476465Y-123490537D01*
X170476464Y-123490537D01*
X170353537Y-123613464D01*
X170353537Y-123613465D01*
X170353535Y-123613467D01*
X170348717Y-123620099D01*
X170251347Y-123754115D01*
X170172418Y-123909021D01*
X170118697Y-124074357D01*
X170118697Y-124074360D01*
X170091500Y-124246074D01*
X168635500Y-124246074D01*
X168635500Y-123141207D01*
X183441000Y-123141207D01*
X183441000Y-123298792D01*
X183445974Y-123349309D01*
X183476717Y-123503874D01*
X183491458Y-123552468D01*
X183551761Y-123698050D01*
X183551769Y-123698066D01*
X183575690Y-123742822D01*
X183575701Y-123742840D01*
X183650175Y-123854297D01*
X184055086Y-123449386D01*
X184099901Y-123527007D01*
X184192993Y-123620099D01*
X184270612Y-123664912D01*
X183865701Y-124069823D01*
X183977167Y-124144303D01*
X183977174Y-124144307D01*
X184021933Y-124168230D01*
X184021949Y-124168238D01*
X184167531Y-124228541D01*
X184216125Y-124243282D01*
X184370690Y-124274025D01*
X184421208Y-124279000D01*
X185139784Y-124279000D01*
X185139786Y-124278999D01*
X185238888Y-124259286D01*
X185238896Y-124259284D01*
X185298903Y-124234428D01*
X184729387Y-123664912D01*
X184807007Y-123620099D01*
X184900099Y-123527007D01*
X184944912Y-123449387D01*
X185514428Y-124018903D01*
X185539284Y-123958896D01*
X185539286Y-123958888D01*
X185558999Y-123859786D01*
X185559000Y-123859784D01*
X185559000Y-122580215D01*
X201221000Y-122580215D01*
X201221000Y-123859786D01*
X201240713Y-123958893D01*
X201240716Y-123958901D01*
X201265569Y-124018902D01*
X201265570Y-124018903D01*
X201835086Y-123449386D01*
X201879901Y-123527007D01*
X201972993Y-123620099D01*
X202050612Y-123664912D01*
X201481095Y-124234428D01*
X201541103Y-124259284D01*
X201541111Y-124259286D01*
X201640213Y-124278999D01*
X201640216Y-124279000D01*
X202358792Y-124279000D01*
X202409309Y-124274025D01*
X202563874Y-124243282D01*
X202612468Y-124228541D01*
X202758050Y-124168238D01*
X202758064Y-124168231D01*
X202802833Y-124144302D01*
X202802839Y-124144298D01*
X202914298Y-124069824D01*
X202509386Y-123664912D01*
X202587007Y-123620099D01*
X202680099Y-123527007D01*
X202724912Y-123449386D01*
X203129824Y-123854298D01*
X203204298Y-123742839D01*
X203204302Y-123742833D01*
X203228231Y-123698064D01*
X203228238Y-123698050D01*
X203288541Y-123552468D01*
X203303282Y-123503874D01*
X203334025Y-123349309D01*
X203339000Y-123298792D01*
X203339000Y-123141207D01*
X203334025Y-123090690D01*
X203303282Y-122936125D01*
X203288541Y-122887531D01*
X203228238Y-122741949D01*
X203228230Y-122741933D01*
X203204307Y-122697174D01*
X203204303Y-122697167D01*
X203129823Y-122585701D01*
X202724912Y-122990612D01*
X202680099Y-122912993D01*
X202587007Y-122819901D01*
X202509386Y-122775087D01*
X202914297Y-122370175D01*
X202802840Y-122295701D01*
X202802822Y-122295690D01*
X202758066Y-122271769D01*
X202758050Y-122271761D01*
X202612468Y-122211458D01*
X202563874Y-122196717D01*
X202409309Y-122165974D01*
X202358792Y-122161000D01*
X201640216Y-122161000D01*
X201541106Y-122180714D01*
X201541103Y-122180715D01*
X201481095Y-122205569D01*
X202050613Y-122775087D01*
X201972993Y-122819901D01*
X201879901Y-122912993D01*
X201835087Y-122990613D01*
X201265569Y-122421095D01*
X201240715Y-122481103D01*
X201240714Y-122481106D01*
X201221000Y-122580215D01*
X185559000Y-122580215D01*
X185558999Y-122580213D01*
X185539286Y-122481111D01*
X185539284Y-122481103D01*
X185514428Y-122421095D01*
X184944912Y-122990612D01*
X184900099Y-122912993D01*
X184807007Y-122819901D01*
X184729387Y-122775087D01*
X185298903Y-122205570D01*
X185298902Y-122205569D01*
X185238901Y-122180716D01*
X185238893Y-122180713D01*
X185139785Y-122161000D01*
X184421208Y-122161000D01*
X184370690Y-122165974D01*
X184216125Y-122196717D01*
X184167531Y-122211458D01*
X184021949Y-122271761D01*
X184021933Y-122271769D01*
X183977177Y-122295690D01*
X183977164Y-122295698D01*
X183865701Y-122370175D01*
X183865700Y-122370175D01*
X184270612Y-122775087D01*
X184192993Y-122819901D01*
X184099901Y-122912993D01*
X184055087Y-122990612D01*
X183650175Y-122585700D01*
X183650175Y-122585701D01*
X183575698Y-122697164D01*
X183575690Y-122697177D01*
X183551769Y-122741933D01*
X183551761Y-122741949D01*
X183491458Y-122887531D01*
X183476717Y-122936125D01*
X183445974Y-123090690D01*
X183441000Y-123141207D01*
X168635500Y-123141207D01*
X168635500Y-121706074D01*
X170091500Y-121706074D01*
X170091500Y-121879925D01*
X170118697Y-122051639D01*
X170118697Y-122051642D01*
X170172418Y-122216978D01*
X170212524Y-122295690D01*
X170251347Y-122371884D01*
X170353535Y-122512533D01*
X170476467Y-122635465D01*
X170617116Y-122737653D01*
X170771106Y-122816115D01*
X170772021Y-122816581D01*
X170937358Y-122870302D01*
X170937359Y-122870302D01*
X170937362Y-122870303D01*
X171109074Y-122897500D01*
X171109075Y-122897500D01*
X171282925Y-122897500D01*
X171282926Y-122897500D01*
X171454638Y-122870303D01*
X171454641Y-122870302D01*
X171454642Y-122870302D01*
X171619978Y-122816581D01*
X171619978Y-122816580D01*
X171619981Y-122816580D01*
X171774884Y-122737653D01*
X171915533Y-122635465D01*
X172038465Y-122512533D01*
X172140653Y-122371884D01*
X172219580Y-122216981D01*
X172231363Y-122180716D01*
X172273302Y-122051642D01*
X172273302Y-122051641D01*
X172273303Y-122051638D01*
X172300500Y-121879926D01*
X172300500Y-121706107D01*
X172632000Y-121706107D01*
X172632000Y-121879892D01*
X172659183Y-122051521D01*
X172712884Y-122216793D01*
X172791774Y-122371622D01*
X172854928Y-122458544D01*
X172854929Y-122458545D01*
X173291087Y-122022386D01*
X173335901Y-122100007D01*
X173428993Y-122193099D01*
X173506612Y-122237912D01*
X173070453Y-122674070D01*
X173157379Y-122737225D01*
X173157385Y-122737229D01*
X173312206Y-122816115D01*
X173477478Y-122869816D01*
X173649108Y-122897000D01*
X173822892Y-122897000D01*
X173994521Y-122869816D01*
X174159793Y-122816115D01*
X174314622Y-122737225D01*
X174401544Y-122674071D01*
X174401544Y-122674070D01*
X173965387Y-122237912D01*
X174043007Y-122193099D01*
X174136099Y-122100007D01*
X174180912Y-122022386D01*
X174617070Y-122458544D01*
X174617071Y-122458544D01*
X174680227Y-122371620D01*
X174680227Y-122371619D01*
X174686101Y-122360092D01*
X174686101Y-122360091D01*
X174759115Y-122216793D01*
X174812816Y-122051521D01*
X174840000Y-121879892D01*
X174840000Y-121706107D01*
X174812816Y-121534478D01*
X174759115Y-121369206D01*
X174680229Y-121214385D01*
X174680225Y-121214379D01*
X174617070Y-121127454D01*
X174617070Y-121127453D01*
X174180912Y-121563611D01*
X174136099Y-121485993D01*
X174043007Y-121392901D01*
X173965387Y-121348087D01*
X174401545Y-120911929D01*
X174401544Y-120911928D01*
X174314622Y-120848774D01*
X174159793Y-120769884D01*
X173994521Y-120716183D01*
X173845129Y-120692522D01*
X173822892Y-120689000D01*
X173649108Y-120689000D01*
X173477478Y-120716183D01*
X173312206Y-120769884D01*
X173157377Y-120848774D01*
X173070454Y-120911928D01*
X173070453Y-120911928D01*
X173506612Y-121348087D01*
X173428993Y-121392901D01*
X173335901Y-121485993D01*
X173291087Y-121563612D01*
X172854928Y-121127453D01*
X172854928Y-121127454D01*
X172791774Y-121214377D01*
X172712884Y-121369206D01*
X172659183Y-121534478D01*
X172632000Y-121706107D01*
X172300500Y-121706107D01*
X172300500Y-121706074D01*
X172273303Y-121534362D01*
X172273302Y-121534358D01*
X172273302Y-121534357D01*
X172219581Y-121369021D01*
X172140787Y-121214379D01*
X172140653Y-121214116D01*
X172038465Y-121073467D01*
X171915533Y-120950535D01*
X171774884Y-120848347D01*
X171619978Y-120769418D01*
X171454641Y-120715697D01*
X171308319Y-120692522D01*
X171282926Y-120688500D01*
X171109074Y-120688500D01*
X171083681Y-120692522D01*
X170937360Y-120715697D01*
X170937357Y-120715697D01*
X170772021Y-120769418D01*
X170617115Y-120848347D01*
X170536869Y-120906649D01*
X170476467Y-120950535D01*
X170476465Y-120950537D01*
X170476464Y-120950537D01*
X170353537Y-121073464D01*
X170353537Y-121073465D01*
X170353535Y-121073467D01*
X170314312Y-121127453D01*
X170251347Y-121214115D01*
X170172418Y-121369021D01*
X170118697Y-121534357D01*
X170118697Y-121534360D01*
X170091500Y-121706074D01*
X168635500Y-121706074D01*
X168635500Y-120576136D01*
X183445500Y-120576136D01*
X183445500Y-120783863D01*
X183486022Y-120987578D01*
X183486025Y-120987590D01*
X183565511Y-121179488D01*
X183565512Y-121179490D01*
X183680916Y-121352203D01*
X183680919Y-121352207D01*
X183827792Y-121499080D01*
X183827796Y-121499083D01*
X184000507Y-121614486D01*
X184000508Y-121614486D01*
X184000509Y-121614487D01*
X184000511Y-121614488D01*
X184192409Y-121693974D01*
X184192414Y-121693976D01*
X184359311Y-121727174D01*
X184396136Y-121734499D01*
X184396139Y-121734500D01*
X184396141Y-121734500D01*
X184603861Y-121734500D01*
X184603862Y-121734499D01*
X184807586Y-121693976D01*
X184999493Y-121614486D01*
X185172204Y-121499083D01*
X185319083Y-121352204D01*
X185434486Y-121179493D01*
X185513976Y-120987586D01*
X185554500Y-120783859D01*
X185554500Y-120576141D01*
X185554500Y-120576138D01*
X185554499Y-120576136D01*
X201225500Y-120576136D01*
X201225500Y-120783863D01*
X201266022Y-120987578D01*
X201266025Y-120987590D01*
X201345511Y-121179488D01*
X201345512Y-121179490D01*
X201460916Y-121352203D01*
X201460919Y-121352207D01*
X201607792Y-121499080D01*
X201607796Y-121499083D01*
X201780507Y-121614486D01*
X201780508Y-121614486D01*
X201780509Y-121614487D01*
X201780511Y-121614488D01*
X201972409Y-121693974D01*
X201972414Y-121693976D01*
X202139311Y-121727174D01*
X202176136Y-121734499D01*
X202176139Y-121734500D01*
X202176141Y-121734500D01*
X202383861Y-121734500D01*
X202383862Y-121734499D01*
X202587586Y-121693976D01*
X202779493Y-121614486D01*
X202952204Y-121499083D01*
X203099083Y-121352204D01*
X203214486Y-121179493D01*
X203293976Y-120987586D01*
X203334500Y-120783859D01*
X203334500Y-120576141D01*
X203334500Y-120576138D01*
X203334499Y-120576136D01*
X203293977Y-120372421D01*
X203293976Y-120372414D01*
X203293974Y-120372409D01*
X203214488Y-120180511D01*
X203214487Y-120180509D01*
X203099083Y-120007796D01*
X203099080Y-120007792D01*
X202952207Y-119860919D01*
X202952203Y-119860916D01*
X202779490Y-119745512D01*
X202779488Y-119745511D01*
X202587590Y-119666025D01*
X202587578Y-119666022D01*
X202383862Y-119625500D01*
X202383859Y-119625500D01*
X202176141Y-119625500D01*
X202176138Y-119625500D01*
X201972421Y-119666022D01*
X201972409Y-119666025D01*
X201780511Y-119745511D01*
X201780509Y-119745512D01*
X201607796Y-119860916D01*
X201607792Y-119860919D01*
X201460919Y-120007792D01*
X201460916Y-120007796D01*
X201345512Y-120180509D01*
X201345511Y-120180511D01*
X201266025Y-120372409D01*
X201266022Y-120372421D01*
X201225500Y-120576136D01*
X185554499Y-120576136D01*
X185513977Y-120372421D01*
X185513976Y-120372414D01*
X185513974Y-120372409D01*
X185434488Y-120180511D01*
X185434487Y-120180509D01*
X185319083Y-120007796D01*
X185319080Y-120007792D01*
X185172207Y-119860919D01*
X185172203Y-119860916D01*
X184999490Y-119745512D01*
X184999488Y-119745511D01*
X184807590Y-119666025D01*
X184807578Y-119666022D01*
X184603862Y-119625500D01*
X184603859Y-119625500D01*
X184396141Y-119625500D01*
X184396138Y-119625500D01*
X184192421Y-119666022D01*
X184192409Y-119666025D01*
X184000511Y-119745511D01*
X184000509Y-119745512D01*
X183827796Y-119860916D01*
X183827792Y-119860919D01*
X183680919Y-120007792D01*
X183680916Y-120007796D01*
X183565512Y-120180509D01*
X183565511Y-120180511D01*
X183486025Y-120372409D01*
X183486022Y-120372421D01*
X183445500Y-120576136D01*
X168635500Y-120576136D01*
X168635500Y-119166107D01*
X170092000Y-119166107D01*
X170092000Y-119339892D01*
X170119183Y-119511521D01*
X170172884Y-119676793D01*
X170251774Y-119831622D01*
X170314928Y-119918544D01*
X170314929Y-119918545D01*
X170751087Y-119482386D01*
X170795901Y-119560007D01*
X170888993Y-119653099D01*
X170966612Y-119697912D01*
X170530453Y-120134070D01*
X170617379Y-120197225D01*
X170617385Y-120197229D01*
X170772206Y-120276115D01*
X170937478Y-120329816D01*
X171109108Y-120357000D01*
X171282892Y-120357000D01*
X171454521Y-120329816D01*
X171619793Y-120276115D01*
X171774622Y-120197225D01*
X171861544Y-120134071D01*
X171861544Y-120134070D01*
X171425387Y-119697912D01*
X171503007Y-119653099D01*
X171596099Y-119560007D01*
X171640912Y-119482386D01*
X172077070Y-119918544D01*
X172077071Y-119918544D01*
X172140225Y-119831622D01*
X172219115Y-119676793D01*
X172272816Y-119511521D01*
X172300000Y-119339892D01*
X172300000Y-119166107D01*
X172299995Y-119166074D01*
X172631500Y-119166074D01*
X172631500Y-119339925D01*
X172658697Y-119511639D01*
X172658697Y-119511642D01*
X172712418Y-119676978D01*
X172791214Y-119831622D01*
X172791347Y-119831884D01*
X172893535Y-119972533D01*
X173016467Y-120095465D01*
X173157116Y-120197653D01*
X173311106Y-120276115D01*
X173312021Y-120276581D01*
X173477358Y-120330302D01*
X173477359Y-120330302D01*
X173477362Y-120330303D01*
X173649074Y-120357500D01*
X173649075Y-120357500D01*
X173822925Y-120357500D01*
X173822926Y-120357500D01*
X173994638Y-120330303D01*
X173994641Y-120330302D01*
X173994642Y-120330302D01*
X174159978Y-120276581D01*
X174159978Y-120276580D01*
X174159981Y-120276580D01*
X174314884Y-120197653D01*
X174455533Y-120095465D01*
X174578465Y-119972533D01*
X174680653Y-119831884D01*
X174759580Y-119676981D01*
X174813303Y-119511638D01*
X174840500Y-119339926D01*
X174840500Y-119166074D01*
X174813303Y-118994362D01*
X174813302Y-118994358D01*
X174813302Y-118994357D01*
X174759581Y-118829021D01*
X174680787Y-118674379D01*
X174680653Y-118674116D01*
X174578465Y-118533467D01*
X174455533Y-118410535D01*
X174314884Y-118308347D01*
X174159978Y-118229418D01*
X173994641Y-118175697D01*
X173848319Y-118152522D01*
X173822926Y-118148500D01*
X173649074Y-118148500D01*
X173623681Y-118152522D01*
X173477360Y-118175697D01*
X173477357Y-118175697D01*
X173312021Y-118229418D01*
X173157115Y-118308347D01*
X173076869Y-118366649D01*
X173016467Y-118410535D01*
X173016465Y-118410537D01*
X173016464Y-118410537D01*
X172893537Y-118533464D01*
X172893537Y-118533465D01*
X172893535Y-118533467D01*
X172854312Y-118587453D01*
X172791347Y-118674115D01*
X172712418Y-118829021D01*
X172658697Y-118994357D01*
X172658697Y-118994360D01*
X172631500Y-119166074D01*
X172299995Y-119166074D01*
X172272816Y-118994478D01*
X172219115Y-118829206D01*
X172140229Y-118674385D01*
X172140225Y-118674379D01*
X172077070Y-118587454D01*
X172077070Y-118587453D01*
X171640912Y-119023611D01*
X171596099Y-118945993D01*
X171503007Y-118852901D01*
X171425387Y-118808087D01*
X171861545Y-118371929D01*
X171861544Y-118371928D01*
X171774622Y-118308774D01*
X171619793Y-118229884D01*
X171454521Y-118176183D01*
X171282892Y-118149000D01*
X171109108Y-118149000D01*
X170937478Y-118176183D01*
X170772206Y-118229884D01*
X170617377Y-118308774D01*
X170530454Y-118371928D01*
X170530453Y-118371928D01*
X170966612Y-118808087D01*
X170888993Y-118852901D01*
X170795901Y-118945993D01*
X170751087Y-119023612D01*
X170314928Y-118587453D01*
X170314928Y-118587454D01*
X170251774Y-118674377D01*
X170172884Y-118829206D01*
X170119183Y-118994478D01*
X170092000Y-119166107D01*
X168635500Y-119166107D01*
X168635500Y-118036136D01*
X183445500Y-118036136D01*
X183445500Y-118243863D01*
X183486022Y-118447578D01*
X183486025Y-118447590D01*
X183565511Y-118639488D01*
X183565512Y-118639490D01*
X183680916Y-118812203D01*
X183680919Y-118812207D01*
X183827792Y-118959080D01*
X183827796Y-118959083D01*
X184000507Y-119074486D01*
X184000508Y-119074486D01*
X184000509Y-119074487D01*
X184000511Y-119074488D01*
X184192409Y-119153974D01*
X184192414Y-119153976D01*
X184359311Y-119187174D01*
X184396136Y-119194499D01*
X184396139Y-119194500D01*
X184396141Y-119194500D01*
X184603861Y-119194500D01*
X184603862Y-119194499D01*
X184807586Y-119153976D01*
X184999493Y-119074486D01*
X185172204Y-118959083D01*
X185319083Y-118812204D01*
X185434486Y-118639493D01*
X185513976Y-118447586D01*
X185554500Y-118243859D01*
X185554500Y-118036141D01*
X185554500Y-118036138D01*
X185554499Y-118036136D01*
X201225500Y-118036136D01*
X201225500Y-118243863D01*
X201266022Y-118447578D01*
X201266025Y-118447590D01*
X201345511Y-118639488D01*
X201345512Y-118639490D01*
X201460916Y-118812203D01*
X201460919Y-118812207D01*
X201607792Y-118959080D01*
X201607796Y-118959083D01*
X201780507Y-119074486D01*
X201780508Y-119074486D01*
X201780509Y-119074487D01*
X201780511Y-119074488D01*
X201972409Y-119153974D01*
X201972414Y-119153976D01*
X202139311Y-119187174D01*
X202176136Y-119194499D01*
X202176139Y-119194500D01*
X202176141Y-119194500D01*
X202383861Y-119194500D01*
X202383862Y-119194499D01*
X202587586Y-119153976D01*
X202779493Y-119074486D01*
X202952204Y-118959083D01*
X203099083Y-118812204D01*
X203214486Y-118639493D01*
X203293976Y-118447586D01*
X203334500Y-118243859D01*
X203334500Y-118036141D01*
X203334500Y-118036138D01*
X203334499Y-118036136D01*
X203293977Y-117832421D01*
X203293976Y-117832414D01*
X203293974Y-117832409D01*
X203214488Y-117640511D01*
X203214487Y-117640509D01*
X203099083Y-117467796D01*
X203099080Y-117467792D01*
X202952207Y-117320919D01*
X202952203Y-117320916D01*
X202779490Y-117205512D01*
X202779488Y-117205511D01*
X202587590Y-117126025D01*
X202587578Y-117126022D01*
X202383862Y-117085500D01*
X202383859Y-117085500D01*
X202176141Y-117085500D01*
X202176138Y-117085500D01*
X201972421Y-117126022D01*
X201972409Y-117126025D01*
X201780511Y-117205511D01*
X201780509Y-117205512D01*
X201607796Y-117320916D01*
X201607792Y-117320919D01*
X201460919Y-117467792D01*
X201460916Y-117467796D01*
X201345512Y-117640509D01*
X201345511Y-117640511D01*
X201266025Y-117832409D01*
X201266022Y-117832421D01*
X201225500Y-118036136D01*
X185554499Y-118036136D01*
X185513977Y-117832421D01*
X185513976Y-117832414D01*
X185513974Y-117832409D01*
X185434488Y-117640511D01*
X185434487Y-117640509D01*
X185319083Y-117467796D01*
X185319080Y-117467792D01*
X185172207Y-117320919D01*
X185172203Y-117320916D01*
X184999490Y-117205512D01*
X184999488Y-117205511D01*
X184807590Y-117126025D01*
X184807578Y-117126022D01*
X184603862Y-117085500D01*
X184603859Y-117085500D01*
X184396141Y-117085500D01*
X184396138Y-117085500D01*
X184192421Y-117126022D01*
X184192409Y-117126025D01*
X184000511Y-117205511D01*
X184000509Y-117205512D01*
X183827796Y-117320916D01*
X183827792Y-117320919D01*
X183680919Y-117467792D01*
X183680916Y-117467796D01*
X183565512Y-117640509D01*
X183565511Y-117640511D01*
X183486025Y-117832409D01*
X183486022Y-117832421D01*
X183445500Y-118036136D01*
X168635500Y-118036136D01*
X168635500Y-116626074D01*
X170091500Y-116626074D01*
X170091500Y-116799925D01*
X170118697Y-116971639D01*
X170118697Y-116971642D01*
X170172418Y-117136978D01*
X170172420Y-117136981D01*
X170251347Y-117291884D01*
X170353535Y-117432533D01*
X170476467Y-117555465D01*
X170617116Y-117657653D01*
X170772019Y-117736580D01*
X170772021Y-117736581D01*
X170937358Y-117790302D01*
X170937359Y-117790302D01*
X170937362Y-117790303D01*
X171109074Y-117817500D01*
X171109075Y-117817500D01*
X171282925Y-117817500D01*
X171282926Y-117817500D01*
X171454638Y-117790303D01*
X171454641Y-117790302D01*
X171454642Y-117790302D01*
X171619978Y-117736581D01*
X171619978Y-117736580D01*
X171619981Y-117736580D01*
X171774884Y-117657653D01*
X171915533Y-117555465D01*
X172038465Y-117432533D01*
X172140653Y-117291884D01*
X172219580Y-117136981D01*
X172273303Y-116971638D01*
X172300500Y-116799926D01*
X172300500Y-116626074D01*
X172631500Y-116626074D01*
X172631500Y-116799925D01*
X172658697Y-116971639D01*
X172658697Y-116971642D01*
X172712418Y-117136978D01*
X172712420Y-117136981D01*
X172791347Y-117291884D01*
X172893535Y-117432533D01*
X173016467Y-117555465D01*
X173157116Y-117657653D01*
X173312019Y-117736580D01*
X173312021Y-117736581D01*
X173477358Y-117790302D01*
X173477359Y-117790302D01*
X173477362Y-117790303D01*
X173649074Y-117817500D01*
X173649075Y-117817500D01*
X173822925Y-117817500D01*
X173822926Y-117817500D01*
X173994638Y-117790303D01*
X173994641Y-117790302D01*
X173994642Y-117790302D01*
X174159978Y-117736581D01*
X174159978Y-117736580D01*
X174159981Y-117736580D01*
X174314884Y-117657653D01*
X174455533Y-117555465D01*
X174578465Y-117432533D01*
X174680653Y-117291884D01*
X174759580Y-117136981D01*
X174813303Y-116971638D01*
X174840500Y-116799926D01*
X174840500Y-116626074D01*
X174813303Y-116454362D01*
X174813302Y-116454358D01*
X174813302Y-116454357D01*
X174759581Y-116289021D01*
X174751012Y-116272203D01*
X174680653Y-116134116D01*
X174578465Y-115993467D01*
X174455533Y-115870535D01*
X174314884Y-115768347D01*
X174239612Y-115729994D01*
X174159978Y-115689418D01*
X173994641Y-115635697D01*
X173848319Y-115612522D01*
X173822926Y-115608500D01*
X173649074Y-115608500D01*
X173623681Y-115612522D01*
X173477360Y-115635697D01*
X173477357Y-115635697D01*
X173312021Y-115689418D01*
X173157115Y-115768347D01*
X173076869Y-115826649D01*
X173016467Y-115870535D01*
X173016465Y-115870537D01*
X173016464Y-115870537D01*
X172893537Y-115993464D01*
X172893537Y-115993465D01*
X172893535Y-115993467D01*
X172865213Y-116032449D01*
X172791347Y-116134115D01*
X172712418Y-116289021D01*
X172658697Y-116454357D01*
X172658697Y-116454360D01*
X172631500Y-116626074D01*
X172300500Y-116626074D01*
X172273303Y-116454362D01*
X172273302Y-116454358D01*
X172273302Y-116454357D01*
X172219581Y-116289021D01*
X172211012Y-116272203D01*
X172140653Y-116134116D01*
X172038465Y-115993467D01*
X171915533Y-115870535D01*
X171774884Y-115768347D01*
X171699612Y-115729994D01*
X171619978Y-115689418D01*
X171454641Y-115635697D01*
X171308319Y-115612522D01*
X171282926Y-115608500D01*
X171109074Y-115608500D01*
X171083681Y-115612522D01*
X170937360Y-115635697D01*
X170937357Y-115635697D01*
X170772021Y-115689418D01*
X170617115Y-115768347D01*
X170536869Y-115826649D01*
X170476467Y-115870535D01*
X170476465Y-115870537D01*
X170476464Y-115870537D01*
X170353537Y-115993464D01*
X170353537Y-115993465D01*
X170353535Y-115993467D01*
X170325213Y-116032449D01*
X170251347Y-116134115D01*
X170172418Y-116289021D01*
X170118697Y-116454357D01*
X170118697Y-116454360D01*
X170091500Y-116626074D01*
X168635500Y-116626074D01*
X168635500Y-115496136D01*
X183445500Y-115496136D01*
X183445500Y-115703863D01*
X183486022Y-115907578D01*
X183486025Y-115907590D01*
X183565511Y-116099488D01*
X183565512Y-116099490D01*
X183680916Y-116272203D01*
X183680919Y-116272207D01*
X183827792Y-116419080D01*
X183827796Y-116419083D01*
X184000507Y-116534486D01*
X184000508Y-116534486D01*
X184000509Y-116534487D01*
X184000511Y-116534488D01*
X184114736Y-116581801D01*
X184192414Y-116613976D01*
X184389721Y-116653223D01*
X184396136Y-116654499D01*
X184396139Y-116654500D01*
X184396141Y-116654500D01*
X184603861Y-116654500D01*
X184603862Y-116654499D01*
X184807586Y-116613976D01*
X184999493Y-116534486D01*
X185172204Y-116419083D01*
X185319083Y-116272204D01*
X185434486Y-116099493D01*
X185513976Y-115907586D01*
X185554500Y-115703859D01*
X185554500Y-115496141D01*
X185554500Y-115496138D01*
X185554499Y-115496136D01*
X201225500Y-115496136D01*
X201225500Y-115703863D01*
X201266022Y-115907578D01*
X201266025Y-115907590D01*
X201345511Y-116099488D01*
X201345512Y-116099490D01*
X201460916Y-116272203D01*
X201460919Y-116272207D01*
X201607792Y-116419080D01*
X201607796Y-116419083D01*
X201780507Y-116534486D01*
X201780508Y-116534486D01*
X201780509Y-116534487D01*
X201780511Y-116534488D01*
X201894736Y-116581801D01*
X201972414Y-116613976D01*
X202169721Y-116653223D01*
X202176136Y-116654499D01*
X202176139Y-116654500D01*
X202176141Y-116654500D01*
X202383861Y-116654500D01*
X202383862Y-116654499D01*
X202587586Y-116613976D01*
X202779493Y-116534486D01*
X202952204Y-116419083D01*
X203099083Y-116272204D01*
X203214486Y-116099493D01*
X203293976Y-115907586D01*
X203334500Y-115703859D01*
X203334500Y-115496141D01*
X203334500Y-115496138D01*
X203334499Y-115496136D01*
X203300603Y-115325730D01*
X203293976Y-115292414D01*
X203293974Y-115292409D01*
X203214488Y-115100511D01*
X203214487Y-115100509D01*
X203179445Y-115048066D01*
X203099083Y-114927796D01*
X203099080Y-114927792D01*
X202952207Y-114780919D01*
X202952203Y-114780916D01*
X202869908Y-114725928D01*
X208916500Y-114725928D01*
X208916500Y-116554063D01*
X208931266Y-116628301D01*
X208987515Y-116712484D01*
X209002109Y-116722235D01*
X209071699Y-116768734D01*
X209071702Y-116768734D01*
X209071703Y-116768735D01*
X209096666Y-116773700D01*
X209145933Y-116783500D01*
X210974066Y-116783499D01*
X211048301Y-116768734D01*
X211132484Y-116712484D01*
X211188734Y-116628301D01*
X211203500Y-116554067D01*
X211203499Y-115550005D01*
X211456500Y-115550005D01*
X211456500Y-115729994D01*
X211484657Y-115907771D01*
X211540275Y-116078949D01*
X211540276Y-116078952D01*
X211568384Y-116134116D01*
X211621991Y-116239325D01*
X211727787Y-116384940D01*
X211855060Y-116512213D01*
X212000675Y-116618009D01*
X212072291Y-116654499D01*
X212161047Y-116699723D01*
X212161050Y-116699724D01*
X212230327Y-116722233D01*
X212332230Y-116755343D01*
X212510005Y-116783500D01*
X212510006Y-116783500D01*
X212689994Y-116783500D01*
X212689995Y-116783500D01*
X212867770Y-116755343D01*
X213038952Y-116699723D01*
X213199325Y-116618009D01*
X213344940Y-116512213D01*
X213472213Y-116384940D01*
X213578009Y-116239325D01*
X213659723Y-116078952D01*
X213715343Y-115907770D01*
X213743500Y-115729995D01*
X213743500Y-115550005D01*
X213715343Y-115372230D01*
X213675569Y-115249816D01*
X213659724Y-115201050D01*
X213659723Y-115201047D01*
X213608495Y-115100507D01*
X213578009Y-115040675D01*
X213472213Y-114895060D01*
X213344940Y-114767787D01*
X213223325Y-114679428D01*
X218586500Y-114679428D01*
X218586500Y-116507563D01*
X218601266Y-116581801D01*
X218657515Y-116665984D01*
X218691234Y-116688514D01*
X218741699Y-116722234D01*
X218741702Y-116722234D01*
X218741703Y-116722235D01*
X218766666Y-116727200D01*
X218815933Y-116737000D01*
X220644066Y-116736999D01*
X220718301Y-116722234D01*
X220802484Y-116665984D01*
X220858734Y-116581801D01*
X220873500Y-116507567D01*
X220873499Y-115503505D01*
X221126500Y-115503505D01*
X221126500Y-115683495D01*
X221129725Y-115703859D01*
X221154657Y-115861271D01*
X221210275Y-116032449D01*
X221210276Y-116032452D01*
X221262077Y-116134116D01*
X221291991Y-116192825D01*
X221397787Y-116338440D01*
X221525060Y-116465713D01*
X221670675Y-116571509D01*
X221749333Y-116611587D01*
X221831047Y-116653223D01*
X221831050Y-116653224D01*
X221916639Y-116681033D01*
X222002230Y-116708843D01*
X222180005Y-116737000D01*
X222180006Y-116737000D01*
X222359994Y-116737000D01*
X222359995Y-116737000D01*
X222537770Y-116708843D01*
X222708952Y-116653223D01*
X222869325Y-116571509D01*
X223014940Y-116465713D01*
X223142213Y-116338440D01*
X223248009Y-116192825D01*
X223329723Y-116032452D01*
X223385343Y-115861270D01*
X223413500Y-115683495D01*
X223413500Y-115503505D01*
X223385343Y-115325730D01*
X223329723Y-115154548D01*
X223329723Y-115154547D01*
X223248008Y-114994174D01*
X223142213Y-114848560D01*
X223014940Y-114721287D01*
X222869325Y-114615491D01*
X222849124Y-114605198D01*
X222708952Y-114533776D01*
X222708949Y-114533775D01*
X222537771Y-114478157D01*
X222448882Y-114464078D01*
X222359995Y-114450000D01*
X222180005Y-114450000D01*
X222120746Y-114459385D01*
X222002228Y-114478157D01*
X221831050Y-114533775D01*
X221831047Y-114533776D01*
X221670674Y-114615491D01*
X221591521Y-114673000D01*
X221525060Y-114721287D01*
X221525058Y-114721289D01*
X221525057Y-114721289D01*
X221397789Y-114848557D01*
X221397789Y-114848558D01*
X221397787Y-114848560D01*
X221364005Y-114895057D01*
X221291991Y-114994174D01*
X221210276Y-115154547D01*
X221210275Y-115154550D01*
X221154657Y-115325728D01*
X221154657Y-115325730D01*
X221126500Y-115503505D01*
X220873499Y-115503505D01*
X220873499Y-114679434D01*
X220858734Y-114605199D01*
X220811011Y-114533777D01*
X220802484Y-114521015D01*
X220741110Y-114480007D01*
X220718301Y-114464766D01*
X220718299Y-114464765D01*
X220718296Y-114464764D01*
X220644069Y-114450000D01*
X218815936Y-114450000D01*
X218741698Y-114464766D01*
X218657515Y-114521015D01*
X218601266Y-114605199D01*
X218601264Y-114605203D01*
X218586500Y-114679428D01*
X213223325Y-114679428D01*
X213199325Y-114661991D01*
X213179124Y-114651698D01*
X213038952Y-114580276D01*
X213038949Y-114580275D01*
X212867771Y-114524657D01*
X212778882Y-114510578D01*
X212689995Y-114496500D01*
X212510005Y-114496500D01*
X212450746Y-114505885D01*
X212332228Y-114524657D01*
X212161050Y-114580275D01*
X212161047Y-114580276D01*
X212000674Y-114661991D01*
X211919061Y-114721287D01*
X211855060Y-114767787D01*
X211855058Y-114767789D01*
X211855057Y-114767789D01*
X211727789Y-114895057D01*
X211727789Y-114895058D01*
X211727787Y-114895060D01*
X211704006Y-114927792D01*
X211621991Y-115040674D01*
X211540276Y-115201047D01*
X211540275Y-115201050D01*
X211484657Y-115372228D01*
X211456500Y-115550005D01*
X211203499Y-115550005D01*
X211203499Y-114725934D01*
X211188734Y-114651699D01*
X211157666Y-114605203D01*
X211132484Y-114567515D01*
X211081988Y-114533775D01*
X211048301Y-114511266D01*
X211048299Y-114511265D01*
X211048296Y-114511264D01*
X210974069Y-114496500D01*
X209145936Y-114496500D01*
X209071698Y-114511266D01*
X208987515Y-114567515D01*
X208931266Y-114651699D01*
X208931264Y-114651703D01*
X208916500Y-114725928D01*
X202869908Y-114725928D01*
X202779490Y-114665512D01*
X202779488Y-114665511D01*
X202587590Y-114586025D01*
X202587578Y-114586022D01*
X202383862Y-114545500D01*
X202383859Y-114545500D01*
X202176141Y-114545500D01*
X202176138Y-114545500D01*
X201972421Y-114586022D01*
X201972409Y-114586025D01*
X201780511Y-114665511D01*
X201780509Y-114665512D01*
X201607796Y-114780916D01*
X201607792Y-114780919D01*
X201460919Y-114927792D01*
X201460916Y-114927796D01*
X201345512Y-115100509D01*
X201345511Y-115100511D01*
X201266025Y-115292409D01*
X201266022Y-115292421D01*
X201225500Y-115496136D01*
X185554499Y-115496136D01*
X185520603Y-115325730D01*
X185513976Y-115292414D01*
X185513974Y-115292409D01*
X185434488Y-115100511D01*
X185434487Y-115100509D01*
X185399445Y-115048066D01*
X185319083Y-114927796D01*
X185319080Y-114927792D01*
X185172207Y-114780919D01*
X185172203Y-114780916D01*
X184999490Y-114665512D01*
X184999488Y-114665511D01*
X184807590Y-114586025D01*
X184807578Y-114586022D01*
X184603862Y-114545500D01*
X184603859Y-114545500D01*
X184396141Y-114545500D01*
X184396138Y-114545500D01*
X184192421Y-114586022D01*
X184192409Y-114586025D01*
X184000511Y-114665511D01*
X184000509Y-114665512D01*
X183827796Y-114780916D01*
X183827792Y-114780919D01*
X183680919Y-114927792D01*
X183680916Y-114927796D01*
X183565512Y-115100509D01*
X183565511Y-115100511D01*
X183486025Y-115292409D01*
X183486022Y-115292421D01*
X183445500Y-115496136D01*
X168635500Y-115496136D01*
X168635500Y-113297928D01*
X170091500Y-113297928D01*
X170091500Y-115048063D01*
X170106266Y-115122301D01*
X170162515Y-115206484D01*
X170196234Y-115229014D01*
X170246699Y-115262734D01*
X170246702Y-115262734D01*
X170246703Y-115262735D01*
X170271666Y-115267700D01*
X170320933Y-115277500D01*
X172071066Y-115277499D01*
X172145301Y-115262734D01*
X172229484Y-115206484D01*
X172285734Y-115122301D01*
X172300500Y-115048067D01*
X172300499Y-114086107D01*
X172632000Y-114086107D01*
X172632000Y-114259892D01*
X172659183Y-114431521D01*
X172712884Y-114596793D01*
X172791774Y-114751622D01*
X172854928Y-114838544D01*
X172854929Y-114838545D01*
X173291087Y-114402386D01*
X173335901Y-114480007D01*
X173428993Y-114573099D01*
X173506612Y-114617912D01*
X173070453Y-115054070D01*
X173157379Y-115117225D01*
X173157385Y-115117229D01*
X173312206Y-115196115D01*
X173477478Y-115249816D01*
X173649108Y-115277000D01*
X173822892Y-115277000D01*
X173994521Y-115249816D01*
X174159793Y-115196115D01*
X174314622Y-115117225D01*
X174401544Y-115054071D01*
X174401544Y-115054070D01*
X173965387Y-114617912D01*
X174043007Y-114573099D01*
X174136099Y-114480007D01*
X174180912Y-114402386D01*
X174617070Y-114838544D01*
X174617071Y-114838544D01*
X174680225Y-114751622D01*
X174759115Y-114596793D01*
X174812816Y-114431521D01*
X174840000Y-114259892D01*
X174840000Y-114086107D01*
X174812816Y-113914478D01*
X174759115Y-113749206D01*
X174680229Y-113594385D01*
X174680225Y-113594379D01*
X174617070Y-113507454D01*
X174617070Y-113507453D01*
X174180912Y-113943611D01*
X174136099Y-113865993D01*
X174043007Y-113772901D01*
X173965387Y-113728087D01*
X174401545Y-113291929D01*
X174401544Y-113291928D01*
X174314622Y-113228774D01*
X174159793Y-113149884D01*
X173994521Y-113096183D01*
X173845129Y-113072522D01*
X173822892Y-113069000D01*
X173649108Y-113069000D01*
X173477478Y-113096183D01*
X173312206Y-113149884D01*
X173157377Y-113228774D01*
X173070454Y-113291928D01*
X173070453Y-113291928D01*
X173506612Y-113728087D01*
X173428993Y-113772901D01*
X173335901Y-113865993D01*
X173291087Y-113943612D01*
X172854928Y-113507453D01*
X172854928Y-113507454D01*
X172791774Y-113594377D01*
X172712884Y-113749206D01*
X172659183Y-113914478D01*
X172632000Y-114086107D01*
X172300499Y-114086107D01*
X172300499Y-113297934D01*
X172285734Y-113223699D01*
X172267068Y-113195765D01*
X172229484Y-113139515D01*
X172164632Y-113096183D01*
X172145301Y-113083266D01*
X172145299Y-113083265D01*
X172145296Y-113083264D01*
X172071069Y-113068500D01*
X170320936Y-113068500D01*
X170246698Y-113083266D01*
X170162515Y-113139515D01*
X170106266Y-113223699D01*
X170106264Y-113223703D01*
X170091500Y-113297928D01*
X168635500Y-113297928D01*
X168635500Y-112956136D01*
X183445500Y-112956136D01*
X183445500Y-113163863D01*
X183486022Y-113367578D01*
X183486025Y-113367590D01*
X183565511Y-113559488D01*
X183565512Y-113559490D01*
X183680916Y-113732203D01*
X183680919Y-113732207D01*
X183827792Y-113879080D01*
X183827796Y-113879083D01*
X184000507Y-113994486D01*
X184000508Y-113994486D01*
X184000509Y-113994487D01*
X184000511Y-113994488D01*
X184192409Y-114073974D01*
X184192414Y-114073976D01*
X184359311Y-114107174D01*
X184396136Y-114114499D01*
X184396139Y-114114500D01*
X184396141Y-114114500D01*
X184603861Y-114114500D01*
X184603862Y-114114499D01*
X184807586Y-114073976D01*
X184999493Y-113994486D01*
X185172204Y-113879083D01*
X185319083Y-113732204D01*
X185434486Y-113559493D01*
X185513976Y-113367586D01*
X185554500Y-113163859D01*
X185554500Y-112956141D01*
X185554500Y-112956138D01*
X185554499Y-112956136D01*
X201225500Y-112956136D01*
X201225500Y-113163863D01*
X201266022Y-113367578D01*
X201266025Y-113367590D01*
X201345511Y-113559488D01*
X201345512Y-113559490D01*
X201460916Y-113732203D01*
X201460919Y-113732207D01*
X201607792Y-113879080D01*
X201607796Y-113879083D01*
X201780507Y-113994486D01*
X201780508Y-113994486D01*
X201780509Y-113994487D01*
X201780511Y-113994488D01*
X201972409Y-114073974D01*
X201972414Y-114073976D01*
X202139311Y-114107174D01*
X202176136Y-114114499D01*
X202176139Y-114114500D01*
X202176141Y-114114500D01*
X202383861Y-114114500D01*
X202383862Y-114114499D01*
X202587586Y-114073976D01*
X202779493Y-113994486D01*
X202952204Y-113879083D01*
X203099083Y-113732204D01*
X203214486Y-113559493D01*
X203293976Y-113367586D01*
X203334500Y-113163859D01*
X203334500Y-112956141D01*
X203334500Y-112956138D01*
X203334499Y-112956136D01*
X203293977Y-112752421D01*
X203293976Y-112752414D01*
X203214486Y-112560507D01*
X203099083Y-112387796D01*
X203099080Y-112387792D01*
X202952207Y-112240919D01*
X202952203Y-112240916D01*
X202779490Y-112125512D01*
X202779488Y-112125511D01*
X202587590Y-112046025D01*
X202587578Y-112046022D01*
X202383862Y-112005500D01*
X202383859Y-112005500D01*
X202176141Y-112005500D01*
X202176138Y-112005500D01*
X201972421Y-112046022D01*
X201972409Y-112046025D01*
X201780511Y-112125511D01*
X201780509Y-112125512D01*
X201607796Y-112240916D01*
X201607792Y-112240919D01*
X201460919Y-112387792D01*
X201460916Y-112387796D01*
X201345512Y-112560509D01*
X201345511Y-112560511D01*
X201266025Y-112752409D01*
X201266022Y-112752421D01*
X201225500Y-112956136D01*
X185554499Y-112956136D01*
X185513977Y-112752421D01*
X185513976Y-112752414D01*
X185434486Y-112560507D01*
X185319083Y-112387796D01*
X185319080Y-112387792D01*
X185172207Y-112240919D01*
X185172203Y-112240916D01*
X184999490Y-112125512D01*
X184999488Y-112125511D01*
X184807590Y-112046025D01*
X184807578Y-112046022D01*
X184603862Y-112005500D01*
X184603859Y-112005500D01*
X184396141Y-112005500D01*
X184396138Y-112005500D01*
X184192421Y-112046022D01*
X184192409Y-112046025D01*
X184000511Y-112125511D01*
X184000509Y-112125512D01*
X183827796Y-112240916D01*
X183827792Y-112240919D01*
X183680919Y-112387792D01*
X183680916Y-112387796D01*
X183565512Y-112560509D01*
X183565511Y-112560511D01*
X183486025Y-112752409D01*
X183486022Y-112752421D01*
X183445500Y-112956136D01*
X168635500Y-112956136D01*
X168635500Y-108999314D01*
X168655185Y-108932275D01*
X168707989Y-108886520D01*
X168777147Y-108876576D01*
X168840703Y-108905601D01*
X168878477Y-108964379D01*
X168881616Y-108977782D01*
X168887210Y-109009509D01*
X168887212Y-109009520D01*
X168911225Y-109099137D01*
X168984180Y-109371407D01*
X168984183Y-109371417D01*
X168984184Y-109371418D01*
X169112316Y-109723462D01*
X169270650Y-110063011D01*
X169270655Y-110063020D01*
X169457982Y-110387480D01*
X169457986Y-110387486D01*
X169457993Y-110387497D01*
X169672875Y-110694380D01*
X169707401Y-110735526D01*
X169913698Y-110981381D01*
X170178619Y-111246302D01*
X170265142Y-111318903D01*
X170465619Y-111487124D01*
X170772502Y-111702006D01*
X170772509Y-111702010D01*
X170772520Y-111702018D01*
X171076604Y-111877581D01*
X171096973Y-111889341D01*
X171096988Y-111889349D01*
X171436537Y-112047683D01*
X171599355Y-112106943D01*
X171788593Y-112175820D01*
X172150481Y-112272788D01*
X172519444Y-112337846D01*
X172892671Y-112370499D01*
X172892672Y-112370500D01*
X172892673Y-112370500D01*
X173267328Y-112370500D01*
X173267328Y-112370499D01*
X173640556Y-112337846D01*
X174009519Y-112272788D01*
X174371407Y-112175820D01*
X174723467Y-112047681D01*
X175063020Y-111889345D01*
X175387480Y-111702018D01*
X175694379Y-111487125D01*
X175981381Y-111246302D01*
X176246302Y-110981381D01*
X176487125Y-110694379D01*
X176664398Y-110441207D01*
X183441000Y-110441207D01*
X183441000Y-110598792D01*
X183445974Y-110649309D01*
X183476717Y-110803874D01*
X183491458Y-110852468D01*
X183551761Y-110998050D01*
X183551769Y-110998066D01*
X183575690Y-111042822D01*
X183575701Y-111042840D01*
X183650175Y-111154297D01*
X184055086Y-110749386D01*
X184099901Y-110827007D01*
X184192993Y-110920099D01*
X184270612Y-110964912D01*
X183865701Y-111369823D01*
X183977167Y-111444303D01*
X183977174Y-111444307D01*
X184021933Y-111468230D01*
X184021949Y-111468238D01*
X184167531Y-111528541D01*
X184216125Y-111543282D01*
X184370690Y-111574025D01*
X184421208Y-111579000D01*
X185139784Y-111579000D01*
X185139786Y-111578999D01*
X185238888Y-111559286D01*
X185238896Y-111559284D01*
X185298903Y-111534428D01*
X184729387Y-110964912D01*
X184807007Y-110920099D01*
X184900099Y-110827007D01*
X184944912Y-110749387D01*
X185514428Y-111318903D01*
X185539284Y-111258896D01*
X185539286Y-111258888D01*
X185558999Y-111159786D01*
X185559000Y-111159784D01*
X185559000Y-109880215D01*
X201221000Y-109880215D01*
X201221000Y-111159786D01*
X201240713Y-111258893D01*
X201240716Y-111258901D01*
X201265569Y-111318902D01*
X201265570Y-111318903D01*
X201835086Y-110749386D01*
X201879901Y-110827007D01*
X201972993Y-110920099D01*
X202050612Y-110964912D01*
X201481095Y-111534428D01*
X201541103Y-111559284D01*
X201541111Y-111559286D01*
X201640213Y-111578999D01*
X201640216Y-111579000D01*
X202358792Y-111579000D01*
X202409309Y-111574025D01*
X202563874Y-111543282D01*
X202612468Y-111528541D01*
X202758050Y-111468238D01*
X202758064Y-111468231D01*
X202802833Y-111444302D01*
X202802839Y-111444298D01*
X202914298Y-111369824D01*
X202509386Y-110964912D01*
X202587007Y-110920099D01*
X202680099Y-110827007D01*
X202724912Y-110749386D01*
X203129824Y-111154298D01*
X203204298Y-111042839D01*
X203204302Y-111042833D01*
X203228231Y-110998064D01*
X203228238Y-110998050D01*
X203288541Y-110852468D01*
X203303282Y-110803874D01*
X203334025Y-110649309D01*
X203339000Y-110598792D01*
X203339000Y-110441207D01*
X203334025Y-110390690D01*
X203303282Y-110236125D01*
X203288541Y-110187531D01*
X203228238Y-110041949D01*
X203228230Y-110041933D01*
X203204307Y-109997174D01*
X203204303Y-109997167D01*
X203129823Y-109885701D01*
X202724912Y-110290612D01*
X202680099Y-110212993D01*
X202587007Y-110119901D01*
X202509386Y-110075087D01*
X202914297Y-109670175D01*
X202802840Y-109595701D01*
X202802822Y-109595690D01*
X202758066Y-109571769D01*
X202758050Y-109571761D01*
X202612468Y-109511458D01*
X202563874Y-109496717D01*
X202409309Y-109465974D01*
X202358792Y-109461000D01*
X201640216Y-109461000D01*
X201541106Y-109480714D01*
X201541103Y-109480715D01*
X201481095Y-109505569D01*
X202050613Y-110075087D01*
X201972993Y-110119901D01*
X201879901Y-110212993D01*
X201835087Y-110290613D01*
X201265569Y-109721095D01*
X201240715Y-109781103D01*
X201240714Y-109781106D01*
X201221000Y-109880215D01*
X185559000Y-109880215D01*
X185558999Y-109880213D01*
X185539286Y-109781111D01*
X185539284Y-109781103D01*
X185514428Y-109721095D01*
X184944912Y-110290612D01*
X184900099Y-110212993D01*
X184807007Y-110119901D01*
X184729387Y-110075087D01*
X185298903Y-109505570D01*
X185298902Y-109505569D01*
X185238901Y-109480716D01*
X185238893Y-109480713D01*
X185139785Y-109461000D01*
X184421208Y-109461000D01*
X184370690Y-109465974D01*
X184216125Y-109496717D01*
X184167531Y-109511458D01*
X184021949Y-109571761D01*
X184021933Y-109571769D01*
X183977177Y-109595690D01*
X183977164Y-109595698D01*
X183865701Y-109670175D01*
X183865700Y-109670175D01*
X184270612Y-110075087D01*
X184192993Y-110119901D01*
X184099901Y-110212993D01*
X184055087Y-110290612D01*
X183650175Y-109885700D01*
X183650175Y-109885701D01*
X183575698Y-109997164D01*
X183575690Y-109997177D01*
X183551769Y-110041933D01*
X183551761Y-110041949D01*
X183491458Y-110187531D01*
X183476717Y-110236125D01*
X183445974Y-110390690D01*
X183441000Y-110441207D01*
X176664398Y-110441207D01*
X176702018Y-110387480D01*
X176889345Y-110063020D01*
X177047681Y-109723467D01*
X177175820Y-109371407D01*
X177272788Y-109009519D01*
X177337846Y-108640556D01*
X177370500Y-108267327D01*
X177370500Y-107892673D01*
X177337846Y-107519444D01*
X177337024Y-107514784D01*
X177300526Y-107307792D01*
X177272788Y-107150481D01*
X177175820Y-106788593D01*
X177047681Y-106436533D01*
X177036596Y-106412761D01*
X176942571Y-106211121D01*
X176920972Y-106164804D01*
X180466500Y-106164804D01*
X180466500Y-106289995D01*
X180490920Y-106412761D01*
X180490923Y-106412773D01*
X180538823Y-106528415D01*
X180538830Y-106528428D01*
X180608374Y-106632507D01*
X180608377Y-106632511D01*
X180696888Y-106721022D01*
X180696896Y-106721028D01*
X180786204Y-106780702D01*
X180831010Y-106834314D01*
X180841314Y-106883804D01*
X180841314Y-107514781D01*
X180841313Y-107514781D01*
X180847208Y-107536781D01*
X180869044Y-107618272D01*
X180922613Y-107711057D01*
X181517157Y-108305601D01*
X181609942Y-108359170D01*
X181713430Y-108386900D01*
X181713431Y-108386900D01*
X183444307Y-108386900D01*
X183511346Y-108406585D01*
X183557101Y-108459389D01*
X183558869Y-108463450D01*
X183565512Y-108479490D01*
X183680916Y-108652203D01*
X183680919Y-108652207D01*
X183827792Y-108799080D01*
X183827796Y-108799083D01*
X184000507Y-108914486D01*
X184000508Y-108914486D01*
X184000509Y-108914487D01*
X184000511Y-108914488D01*
X184076743Y-108946064D01*
X184192414Y-108993976D01*
X184396136Y-109034499D01*
X184396139Y-109034500D01*
X184396141Y-109034500D01*
X184603861Y-109034500D01*
X184603862Y-109034499D01*
X184807586Y-108993976D01*
X184999493Y-108914486D01*
X185172204Y-108799083D01*
X185319083Y-108652204D01*
X185415781Y-108507486D01*
X189789500Y-108507486D01*
X189789500Y-108692513D01*
X189818445Y-108875265D01*
X189875619Y-109051232D01*
X189875620Y-109051235D01*
X189900028Y-109099137D01*
X189959622Y-109216096D01*
X190068379Y-109365787D01*
X190199213Y-109496621D01*
X190348904Y-109605378D01*
X190429763Y-109646577D01*
X190513764Y-109689379D01*
X190513767Y-109689380D01*
X190601750Y-109717967D01*
X190689736Y-109746555D01*
X190872486Y-109775500D01*
X190872487Y-109775500D01*
X191057513Y-109775500D01*
X191057514Y-109775500D01*
X191240264Y-109746555D01*
X191416235Y-109689379D01*
X191581096Y-109605378D01*
X191730787Y-109496621D01*
X191861621Y-109365787D01*
X191970378Y-109216096D01*
X192054379Y-109051235D01*
X192111555Y-108875264D01*
X192140500Y-108692514D01*
X192140500Y-108507486D01*
X194639500Y-108507486D01*
X194639500Y-108692513D01*
X194668445Y-108875265D01*
X194725619Y-109051232D01*
X194725620Y-109051235D01*
X194750028Y-109099137D01*
X194809622Y-109216096D01*
X194918379Y-109365787D01*
X195049213Y-109496621D01*
X195198904Y-109605378D01*
X195279763Y-109646577D01*
X195363764Y-109689379D01*
X195363767Y-109689380D01*
X195451750Y-109717967D01*
X195539736Y-109746555D01*
X195722486Y-109775500D01*
X195722487Y-109775500D01*
X195907513Y-109775500D01*
X195907514Y-109775500D01*
X196090264Y-109746555D01*
X196266235Y-109689379D01*
X196431096Y-109605378D01*
X196580787Y-109496621D01*
X196711621Y-109365787D01*
X196820378Y-109216096D01*
X196904379Y-109051235D01*
X196961555Y-108875264D01*
X196990500Y-108692514D01*
X196990500Y-108507486D01*
X196961555Y-108324736D01*
X196904379Y-108148765D01*
X196904379Y-108148764D01*
X196822816Y-107988689D01*
X196820378Y-107983904D01*
X196742080Y-107876136D01*
X201225500Y-107876136D01*
X201225500Y-108083860D01*
X201266022Y-108287578D01*
X201266025Y-108287590D01*
X201345511Y-108479488D01*
X201345512Y-108479490D01*
X201460916Y-108652203D01*
X201460919Y-108652207D01*
X201607792Y-108799080D01*
X201607796Y-108799083D01*
X201780507Y-108914486D01*
X201780508Y-108914486D01*
X201780509Y-108914487D01*
X201780511Y-108914488D01*
X201856743Y-108946064D01*
X201972414Y-108993976D01*
X202176136Y-109034499D01*
X202176139Y-109034500D01*
X202176141Y-109034500D01*
X202383861Y-109034500D01*
X202383862Y-109034499D01*
X202587586Y-108993976D01*
X202779493Y-108914486D01*
X202952204Y-108799083D01*
X203099083Y-108652204D01*
X203214486Y-108479493D01*
X203293976Y-108287586D01*
X203334500Y-108083859D01*
X203334500Y-107876141D01*
X203334500Y-107876138D01*
X203334499Y-107876136D01*
X203326160Y-107834213D01*
X203293976Y-107672414D01*
X203252839Y-107573100D01*
X203214488Y-107480511D01*
X203214487Y-107480509D01*
X203196403Y-107453445D01*
X203099083Y-107307796D01*
X203099080Y-107307792D01*
X202952207Y-107160919D01*
X202952203Y-107160916D01*
X202779490Y-107045512D01*
X202779488Y-107045511D01*
X202587590Y-106966025D01*
X202587579Y-106966022D01*
X202579831Y-106964481D01*
X202383862Y-106925500D01*
X202383859Y-106925500D01*
X202176141Y-106925500D01*
X202176138Y-106925500D01*
X201972421Y-106966022D01*
X201972409Y-106966025D01*
X201780511Y-107045511D01*
X201780509Y-107045512D01*
X201607796Y-107160916D01*
X201607792Y-107160919D01*
X201460919Y-107307792D01*
X201460916Y-107307796D01*
X201345512Y-107480509D01*
X201345511Y-107480511D01*
X201266025Y-107672409D01*
X201266022Y-107672421D01*
X201225500Y-107876136D01*
X196742080Y-107876136D01*
X196711621Y-107834213D01*
X196580787Y-107703379D01*
X196431096Y-107594622D01*
X196388702Y-107573021D01*
X196266235Y-107510620D01*
X196266232Y-107510619D01*
X196090265Y-107453445D01*
X195998889Y-107438972D01*
X195907514Y-107424500D01*
X195722486Y-107424500D01*
X195661569Y-107434148D01*
X195539734Y-107453445D01*
X195363767Y-107510619D01*
X195363764Y-107510620D01*
X195198903Y-107594622D01*
X195113499Y-107656672D01*
X195049213Y-107703379D01*
X195049211Y-107703381D01*
X195049210Y-107703381D01*
X194918381Y-107834210D01*
X194918381Y-107834211D01*
X194918379Y-107834213D01*
X194875907Y-107892671D01*
X194809622Y-107983903D01*
X194725620Y-108148764D01*
X194725619Y-108148767D01*
X194668445Y-108324734D01*
X194639500Y-108507486D01*
X192140500Y-108507486D01*
X192111555Y-108324736D01*
X192054379Y-108148765D01*
X192054379Y-108148764D01*
X191972816Y-107988689D01*
X191970378Y-107983904D01*
X191861621Y-107834213D01*
X191730787Y-107703379D01*
X191581096Y-107594622D01*
X191538702Y-107573021D01*
X191416235Y-107510620D01*
X191416232Y-107510619D01*
X191240265Y-107453445D01*
X191148889Y-107438972D01*
X191057514Y-107424500D01*
X190872486Y-107424500D01*
X190811569Y-107434148D01*
X190689734Y-107453445D01*
X190513767Y-107510619D01*
X190513764Y-107510620D01*
X190348903Y-107594622D01*
X190263499Y-107656672D01*
X190199213Y-107703379D01*
X190199211Y-107703381D01*
X190199210Y-107703381D01*
X190068381Y-107834210D01*
X190068381Y-107834211D01*
X190068379Y-107834213D01*
X190025907Y-107892671D01*
X189959622Y-107983903D01*
X189875620Y-108148764D01*
X189875619Y-108148767D01*
X189818445Y-108324734D01*
X189789500Y-108507486D01*
X185415781Y-108507486D01*
X185434486Y-108479493D01*
X185441131Y-108463450D01*
X185444565Y-108455161D01*
X185444565Y-108455159D01*
X185484326Y-108359169D01*
X185513976Y-108287586D01*
X185554500Y-108083859D01*
X185554500Y-107876141D01*
X185554500Y-107876138D01*
X185554499Y-107876136D01*
X185546160Y-107834213D01*
X185513976Y-107672414D01*
X185472839Y-107573100D01*
X185434488Y-107480511D01*
X185434487Y-107480509D01*
X185416403Y-107453445D01*
X185319083Y-107307796D01*
X185319080Y-107307792D01*
X185172207Y-107160919D01*
X185172203Y-107160916D01*
X184999490Y-107045512D01*
X184999488Y-107045511D01*
X184807590Y-106966025D01*
X184807578Y-106966022D01*
X184603862Y-106925500D01*
X184603859Y-106925500D01*
X184396141Y-106925500D01*
X184396138Y-106925500D01*
X184192421Y-106966022D01*
X184192409Y-106966025D01*
X184000511Y-107045511D01*
X184000509Y-107045512D01*
X183827796Y-107160916D01*
X183827792Y-107160919D01*
X183680919Y-107307792D01*
X183680916Y-107307796D01*
X183565512Y-107480509D01*
X183558869Y-107496550D01*
X183515030Y-107550954D01*
X183448736Y-107573021D01*
X183444307Y-107573100D01*
X181986906Y-107573100D01*
X181919867Y-107553415D01*
X181899225Y-107536781D01*
X181691433Y-107328989D01*
X181657948Y-107267666D01*
X181655114Y-107241308D01*
X181655114Y-106577372D01*
X181664553Y-106529920D01*
X181696009Y-106453977D01*
X181713078Y-106412769D01*
X181737500Y-106289991D01*
X181737500Y-106164809D01*
X181713078Y-106042031D01*
X181681099Y-105964826D01*
X181665176Y-105926384D01*
X181665169Y-105926371D01*
X181595625Y-105822292D01*
X181595622Y-105822288D01*
X181507111Y-105733777D01*
X181507107Y-105733774D01*
X181403028Y-105664230D01*
X181403015Y-105664223D01*
X181287373Y-105616323D01*
X181287361Y-105616320D01*
X181164595Y-105591900D01*
X181164591Y-105591900D01*
X181039409Y-105591900D01*
X181039404Y-105591900D01*
X180916638Y-105616320D01*
X180916626Y-105616323D01*
X180800984Y-105664223D01*
X180800971Y-105664230D01*
X180696892Y-105733774D01*
X180696888Y-105733777D01*
X180608377Y-105822288D01*
X180608374Y-105822292D01*
X180538830Y-105926371D01*
X180538823Y-105926384D01*
X180490923Y-106042026D01*
X180490920Y-106042038D01*
X180466500Y-106164804D01*
X176920972Y-106164804D01*
X176889349Y-106096989D01*
X176889341Y-106096973D01*
X176813041Y-105964818D01*
X176702018Y-105772520D01*
X176702010Y-105772509D01*
X176702006Y-105772502D01*
X176487124Y-105465619D01*
X176298071Y-105240315D01*
X176246302Y-105178619D01*
X175981381Y-104913698D01*
X175828298Y-104785246D01*
X183445500Y-104785246D01*
X183445500Y-106094742D01*
X183445710Y-106096980D01*
X183448379Y-106125451D01*
X183448379Y-106125453D01*
X183448380Y-106125455D01*
X183493630Y-106254771D01*
X183574989Y-106365010D01*
X183630108Y-106405689D01*
X183685227Y-106446369D01*
X183724600Y-106460146D01*
X183814541Y-106491619D01*
X183814545Y-106491619D01*
X183814549Y-106491621D01*
X183845251Y-106494500D01*
X185154748Y-106494499D01*
X185185451Y-106491621D01*
X185314773Y-106446369D01*
X185425010Y-106365010D01*
X185506369Y-106254773D01*
X185551621Y-106125451D01*
X185554291Y-106096980D01*
X185554500Y-106094753D01*
X185554500Y-105463713D01*
X189314500Y-105463713D01*
X189314500Y-105676287D01*
X189347754Y-105886243D01*
X189398371Y-106042026D01*
X189413444Y-106088414D01*
X189509951Y-106277820D01*
X189634890Y-106449786D01*
X189785213Y-106600109D01*
X189957179Y-106725048D01*
X189957181Y-106725049D01*
X189957184Y-106725051D01*
X190146588Y-106821557D01*
X190348757Y-106887246D01*
X190558713Y-106920500D01*
X190558714Y-106920500D01*
X190771286Y-106920500D01*
X190771287Y-106920500D01*
X190981243Y-106887246D01*
X191183412Y-106821557D01*
X191372816Y-106725051D01*
X191394789Y-106709086D01*
X191544786Y-106600109D01*
X191544788Y-106600106D01*
X191544792Y-106600104D01*
X191695104Y-106449792D01*
X191695106Y-106449788D01*
X191695109Y-106449786D01*
X191804086Y-106299789D01*
X191820051Y-106277816D01*
X191916557Y-106088412D01*
X191982246Y-105886243D01*
X192015500Y-105676287D01*
X192015500Y-105463713D01*
X194764500Y-105463713D01*
X194764500Y-105676287D01*
X194797754Y-105886243D01*
X194848371Y-106042026D01*
X194863444Y-106088414D01*
X194959951Y-106277820D01*
X195084890Y-106449786D01*
X195235213Y-106600109D01*
X195407179Y-106725048D01*
X195407181Y-106725049D01*
X195407184Y-106725051D01*
X195596588Y-106821557D01*
X195798757Y-106887246D01*
X196008713Y-106920500D01*
X196008714Y-106920500D01*
X196221286Y-106920500D01*
X196221287Y-106920500D01*
X196431243Y-106887246D01*
X196555325Y-106846929D01*
X206324500Y-106846929D01*
X206324500Y-107153070D01*
X206324501Y-107153086D01*
X206360233Y-107424500D01*
X206364461Y-107456611D01*
X206378932Y-107510619D01*
X206443702Y-107752340D01*
X206560854Y-108035173D01*
X206560862Y-108035189D01*
X206713931Y-108300310D01*
X206713942Y-108300326D01*
X206900309Y-108543204D01*
X206900315Y-108543211D01*
X207116788Y-108759684D01*
X207116794Y-108759689D01*
X207359682Y-108946064D01*
X207359689Y-108946068D01*
X207624810Y-109099137D01*
X207624826Y-109099145D01*
X207907659Y-109216297D01*
X207907661Y-109216297D01*
X207907667Y-109216300D01*
X208203389Y-109295539D01*
X208506923Y-109335500D01*
X208506930Y-109335500D01*
X208813070Y-109335500D01*
X208813077Y-109335500D01*
X209116611Y-109295539D01*
X209412333Y-109216300D01*
X209524602Y-109169797D01*
X209695173Y-109099145D01*
X209695176Y-109099143D01*
X209695182Y-109099141D01*
X209960318Y-108946064D01*
X210203206Y-108759689D01*
X210419689Y-108543206D01*
X210606064Y-108300318D01*
X210759141Y-108035182D01*
X210780382Y-107983903D01*
X210876297Y-107752340D01*
X210876296Y-107752340D01*
X210876300Y-107752333D01*
X210955539Y-107456611D01*
X210995500Y-107153077D01*
X210995500Y-106846929D01*
X211664500Y-106846929D01*
X211664500Y-107153070D01*
X211664501Y-107153086D01*
X211700233Y-107424500D01*
X211704461Y-107456611D01*
X211718932Y-107510619D01*
X211783702Y-107752340D01*
X211900854Y-108035173D01*
X211900862Y-108035189D01*
X212053931Y-108300310D01*
X212053942Y-108300326D01*
X212240309Y-108543204D01*
X212240315Y-108543211D01*
X212456788Y-108759684D01*
X212456794Y-108759689D01*
X212699682Y-108946064D01*
X212699689Y-108946068D01*
X212964810Y-109099137D01*
X212964826Y-109099145D01*
X213247659Y-109216297D01*
X213247661Y-109216297D01*
X213247667Y-109216300D01*
X213543389Y-109295539D01*
X213846923Y-109335500D01*
X213846930Y-109335500D01*
X214153070Y-109335500D01*
X214153077Y-109335500D01*
X214456611Y-109295539D01*
X214752333Y-109216300D01*
X214864602Y-109169797D01*
X215035173Y-109099145D01*
X215035176Y-109099143D01*
X215035182Y-109099141D01*
X215300318Y-108946064D01*
X215543206Y-108759689D01*
X215759689Y-108543206D01*
X215946064Y-108300318D01*
X216071036Y-108083860D01*
X216121603Y-108035645D01*
X216190210Y-108022423D01*
X216255075Y-108048391D01*
X216285810Y-108083860D01*
X216383936Y-108253818D01*
X216383941Y-108253824D01*
X216383942Y-108253826D01*
X216570309Y-108496704D01*
X216570315Y-108496711D01*
X216786788Y-108713184D01*
X216786794Y-108713189D01*
X217029682Y-108899564D01*
X217029689Y-108899568D01*
X217294810Y-109052637D01*
X217294826Y-109052645D01*
X217577659Y-109169797D01*
X217577661Y-109169797D01*
X217577667Y-109169800D01*
X217873389Y-109249039D01*
X218176923Y-109289000D01*
X218176930Y-109289000D01*
X218483070Y-109289000D01*
X218483077Y-109289000D01*
X218786611Y-109249039D01*
X219082333Y-109169800D01*
X219252911Y-109099145D01*
X219365173Y-109052645D01*
X219365176Y-109052643D01*
X219365182Y-109052641D01*
X219367623Y-109051232D01*
X219439888Y-109009509D01*
X219630318Y-108899564D01*
X219873206Y-108713189D01*
X220089689Y-108496706D01*
X220276064Y-108253818D01*
X220429141Y-107988682D01*
X220493125Y-107834211D01*
X220546297Y-107705840D01*
X220546296Y-107705840D01*
X220546300Y-107705833D01*
X220625539Y-107410111D01*
X220665500Y-107106577D01*
X220665500Y-106800429D01*
X221334500Y-106800429D01*
X221334500Y-107106570D01*
X221334501Y-107106586D01*
X221358999Y-107292670D01*
X221374461Y-107410111D01*
X221453042Y-107703379D01*
X221453702Y-107705840D01*
X221570854Y-107988673D01*
X221570862Y-107988689D01*
X221723931Y-108253810D01*
X221723935Y-108253817D01*
X221723942Y-108253826D01*
X221910309Y-108496704D01*
X221910315Y-108496711D01*
X222126788Y-108713184D01*
X222126794Y-108713189D01*
X222369682Y-108899564D01*
X222369689Y-108899568D01*
X222634810Y-109052637D01*
X222634826Y-109052645D01*
X222917659Y-109169797D01*
X222917661Y-109169797D01*
X222917667Y-109169800D01*
X223213389Y-109249039D01*
X223516923Y-109289000D01*
X223516930Y-109289000D01*
X223823070Y-109289000D01*
X223823077Y-109289000D01*
X224126611Y-109249039D01*
X224422333Y-109169800D01*
X224592911Y-109099145D01*
X224705173Y-109052645D01*
X224705176Y-109052643D01*
X224705182Y-109052641D01*
X224707623Y-109051232D01*
X224779888Y-109009509D01*
X224970318Y-108899564D01*
X225213206Y-108713189D01*
X225429689Y-108496706D01*
X225616064Y-108253818D01*
X225769141Y-107988682D01*
X225833125Y-107834211D01*
X225886297Y-107705840D01*
X225886296Y-107705840D01*
X225886300Y-107705833D01*
X225965539Y-107410111D01*
X226005500Y-107106577D01*
X226005500Y-106800423D01*
X225965539Y-106496889D01*
X225886300Y-106201167D01*
X225854941Y-106125458D01*
X225769145Y-105918326D01*
X225769137Y-105918310D01*
X225616068Y-105653189D01*
X225616064Y-105653182D01*
X225472143Y-105465621D01*
X225429690Y-105410295D01*
X225429684Y-105410288D01*
X225213211Y-105193815D01*
X225213204Y-105193809D01*
X224970326Y-105007442D01*
X224970324Y-105007440D01*
X224970318Y-105007436D01*
X224970313Y-105007433D01*
X224970310Y-105007431D01*
X224705189Y-104854362D01*
X224705173Y-104854354D01*
X224422340Y-104737202D01*
X224246957Y-104690208D01*
X224126611Y-104657961D01*
X224126610Y-104657960D01*
X224126607Y-104657960D01*
X223823086Y-104618001D01*
X223823083Y-104618000D01*
X223823077Y-104618000D01*
X223516923Y-104618000D01*
X223516917Y-104618000D01*
X223516913Y-104618001D01*
X223213392Y-104657960D01*
X222917659Y-104737202D01*
X222634826Y-104854354D01*
X222634810Y-104854362D01*
X222369689Y-105007431D01*
X222369673Y-105007442D01*
X222126795Y-105193809D01*
X222126788Y-105193815D01*
X221910315Y-105410288D01*
X221910309Y-105410295D01*
X221723942Y-105653173D01*
X221723931Y-105653189D01*
X221570862Y-105918310D01*
X221570854Y-105918326D01*
X221453702Y-106201159D01*
X221374460Y-106496892D01*
X221334501Y-106800413D01*
X221334500Y-106800429D01*
X220665500Y-106800429D01*
X220665500Y-106800423D01*
X220625539Y-106496889D01*
X220546300Y-106201167D01*
X220514941Y-106125458D01*
X220429145Y-105918326D01*
X220429137Y-105918310D01*
X220276068Y-105653189D01*
X220276064Y-105653182D01*
X220132143Y-105465621D01*
X220089690Y-105410295D01*
X220089684Y-105410288D01*
X219873211Y-105193815D01*
X219873204Y-105193809D01*
X219630326Y-105007442D01*
X219630324Y-105007440D01*
X219630318Y-105007436D01*
X219630313Y-105007433D01*
X219630310Y-105007431D01*
X219365189Y-104854362D01*
X219365173Y-104854354D01*
X219082340Y-104737202D01*
X218906957Y-104690208D01*
X218786611Y-104657961D01*
X218786610Y-104657960D01*
X218786607Y-104657960D01*
X218483086Y-104618001D01*
X218483083Y-104618000D01*
X218483077Y-104618000D01*
X218176923Y-104618000D01*
X218176917Y-104618000D01*
X218176913Y-104618001D01*
X217873392Y-104657960D01*
X217577659Y-104737202D01*
X217294826Y-104854354D01*
X217294810Y-104854362D01*
X217029689Y-105007431D01*
X217029673Y-105007442D01*
X216786795Y-105193809D01*
X216786788Y-105193815D01*
X216570315Y-105410288D01*
X216570309Y-105410295D01*
X216383942Y-105653173D01*
X216383936Y-105653182D01*
X216258963Y-105869639D01*
X216208395Y-105917854D01*
X216139788Y-105931076D01*
X216074924Y-105905108D01*
X216044189Y-105869638D01*
X215946068Y-105699689D01*
X215946064Y-105699682D01*
X215826498Y-105543861D01*
X215759690Y-105456795D01*
X215759684Y-105456788D01*
X215543211Y-105240315D01*
X215543204Y-105240309D01*
X215300326Y-105053942D01*
X215300324Y-105053940D01*
X215300318Y-105053936D01*
X215300313Y-105053933D01*
X215300310Y-105053931D01*
X215035189Y-104900862D01*
X215035173Y-104900854D01*
X214752340Y-104783702D01*
X214692978Y-104767796D01*
X214456611Y-104704461D01*
X214456610Y-104704460D01*
X214456607Y-104704460D01*
X214153086Y-104664501D01*
X214153083Y-104664500D01*
X214153077Y-104664500D01*
X213846923Y-104664500D01*
X213846917Y-104664500D01*
X213846913Y-104664501D01*
X213543392Y-104704460D01*
X213247659Y-104783702D01*
X212964826Y-104900854D01*
X212964810Y-104900862D01*
X212699689Y-105053931D01*
X212699673Y-105053942D01*
X212456795Y-105240309D01*
X212456788Y-105240315D01*
X212240315Y-105456788D01*
X212240309Y-105456795D01*
X212053942Y-105699673D01*
X212053931Y-105699689D01*
X211900862Y-105964810D01*
X211900854Y-105964826D01*
X211783702Y-106247659D01*
X211704460Y-106543392D01*
X211664501Y-106846913D01*
X211664500Y-106846929D01*
X210995500Y-106846929D01*
X210995500Y-106846923D01*
X210955539Y-106543389D01*
X210876300Y-106247667D01*
X210876297Y-106247659D01*
X210759145Y-105964826D01*
X210759137Y-105964810D01*
X210606068Y-105699689D01*
X210606064Y-105699682D01*
X210486498Y-105543861D01*
X210419690Y-105456795D01*
X210419684Y-105456788D01*
X210203211Y-105240315D01*
X210203204Y-105240309D01*
X209960326Y-105053942D01*
X209960324Y-105053940D01*
X209960318Y-105053936D01*
X209960313Y-105053933D01*
X209960310Y-105053931D01*
X209695189Y-104900862D01*
X209695173Y-104900854D01*
X209412340Y-104783702D01*
X209352978Y-104767796D01*
X209116611Y-104704461D01*
X209116610Y-104704460D01*
X209116607Y-104704460D01*
X208813086Y-104664501D01*
X208813083Y-104664500D01*
X208813077Y-104664500D01*
X208506923Y-104664500D01*
X208506917Y-104664500D01*
X208506913Y-104664501D01*
X208203392Y-104704460D01*
X207907659Y-104783702D01*
X207624826Y-104900854D01*
X207624810Y-104900862D01*
X207359689Y-105053931D01*
X207359673Y-105053942D01*
X207116795Y-105240309D01*
X207116788Y-105240315D01*
X206900315Y-105456788D01*
X206900309Y-105456795D01*
X206713942Y-105699673D01*
X206713931Y-105699689D01*
X206560862Y-105964810D01*
X206560854Y-105964826D01*
X206443702Y-106247659D01*
X206364460Y-106543392D01*
X206324501Y-106846913D01*
X206324500Y-106846929D01*
X196555325Y-106846929D01*
X196633412Y-106821557D01*
X196822816Y-106725051D01*
X196844789Y-106709086D01*
X196994786Y-106600109D01*
X196994788Y-106600106D01*
X196994792Y-106600104D01*
X197145104Y-106449792D01*
X197145106Y-106449788D01*
X197145109Y-106449786D01*
X197254086Y-106299789D01*
X197270051Y-106277816D01*
X197366557Y-106088412D01*
X197432246Y-105886243D01*
X197465500Y-105676287D01*
X197465500Y-105463713D01*
X197445294Y-105336136D01*
X201225500Y-105336136D01*
X201225500Y-105543863D01*
X201266022Y-105747578D01*
X201266025Y-105747590D01*
X201345511Y-105939488D01*
X201345512Y-105939490D01*
X201460916Y-106112203D01*
X201460919Y-106112207D01*
X201607792Y-106259080D01*
X201607796Y-106259083D01*
X201780507Y-106374486D01*
X201780508Y-106374486D01*
X201780509Y-106374487D01*
X201780511Y-106374488D01*
X201930310Y-106436536D01*
X201972414Y-106453976D01*
X202176136Y-106494499D01*
X202176139Y-106494500D01*
X202176141Y-106494500D01*
X202383861Y-106494500D01*
X202383862Y-106494499D01*
X202587586Y-106453976D01*
X202779493Y-106374486D01*
X202952204Y-106259083D01*
X203099083Y-106112204D01*
X203214486Y-105939493D01*
X203293976Y-105747586D01*
X203334500Y-105543859D01*
X203334500Y-105336141D01*
X203334500Y-105336138D01*
X203334499Y-105336136D01*
X203306189Y-105193815D01*
X203293976Y-105132414D01*
X203261470Y-105053936D01*
X203214488Y-104940511D01*
X203214487Y-104940509D01*
X203196572Y-104913698D01*
X203099083Y-104767796D01*
X203099080Y-104767792D01*
X202952207Y-104620919D01*
X202952203Y-104620916D01*
X202779490Y-104505512D01*
X202779488Y-104505511D01*
X202587590Y-104426025D01*
X202587578Y-104426022D01*
X202383862Y-104385500D01*
X202383859Y-104385500D01*
X202176141Y-104385500D01*
X202176138Y-104385500D01*
X201972421Y-104426022D01*
X201972409Y-104426025D01*
X201780511Y-104505511D01*
X201780509Y-104505512D01*
X201607796Y-104620916D01*
X201607792Y-104620919D01*
X201460919Y-104767792D01*
X201460916Y-104767796D01*
X201345512Y-104940509D01*
X201345511Y-104940511D01*
X201266025Y-105132409D01*
X201266022Y-105132421D01*
X201225500Y-105336136D01*
X197445294Y-105336136D01*
X197432246Y-105253757D01*
X197366557Y-105051588D01*
X197270051Y-104862184D01*
X197270049Y-104862181D01*
X197270048Y-104862179D01*
X197145109Y-104690213D01*
X196994786Y-104539890D01*
X196822820Y-104414951D01*
X196633414Y-104318444D01*
X196633413Y-104318443D01*
X196633412Y-104318443D01*
X196431243Y-104252754D01*
X196431241Y-104252753D01*
X196431240Y-104252753D01*
X196269957Y-104227208D01*
X196221287Y-104219500D01*
X196008713Y-104219500D01*
X195960042Y-104227208D01*
X195798760Y-104252753D01*
X195596585Y-104318444D01*
X195407179Y-104414951D01*
X195235213Y-104539890D01*
X195084890Y-104690213D01*
X194959951Y-104862179D01*
X194863444Y-105051585D01*
X194797753Y-105253760D01*
X194782598Y-105349447D01*
X194764500Y-105463713D01*
X192015500Y-105463713D01*
X191982246Y-105253757D01*
X191916557Y-105051588D01*
X191820051Y-104862184D01*
X191820049Y-104862181D01*
X191820048Y-104862179D01*
X191695109Y-104690213D01*
X191544786Y-104539890D01*
X191372820Y-104414951D01*
X191183414Y-104318444D01*
X191183413Y-104318443D01*
X191183412Y-104318443D01*
X190981243Y-104252754D01*
X190981241Y-104252753D01*
X190981240Y-104252753D01*
X190819957Y-104227208D01*
X190771287Y-104219500D01*
X190558713Y-104219500D01*
X190510042Y-104227208D01*
X190348760Y-104252753D01*
X190146585Y-104318444D01*
X189957179Y-104414951D01*
X189785213Y-104539890D01*
X189634890Y-104690213D01*
X189509951Y-104862179D01*
X189413444Y-105051585D01*
X189347753Y-105253760D01*
X189332598Y-105349447D01*
X189314500Y-105463713D01*
X185554500Y-105463713D01*
X185554500Y-105458841D01*
X185554499Y-104785257D01*
X185554499Y-104785252D01*
X185551621Y-104754549D01*
X185506369Y-104625227D01*
X185443392Y-104539896D01*
X185425010Y-104514989D01*
X185347760Y-104457977D01*
X185314773Y-104433631D01*
X185314771Y-104433630D01*
X185185458Y-104388380D01*
X185185446Y-104388378D01*
X185154753Y-104385500D01*
X183845257Y-104385500D01*
X183829900Y-104386940D01*
X183814549Y-104388379D01*
X183814546Y-104388379D01*
X183814544Y-104388380D01*
X183685228Y-104433630D01*
X183574989Y-104514989D01*
X183493630Y-104625228D01*
X183448380Y-104754541D01*
X183448378Y-104754553D01*
X183445500Y-104785246D01*
X175828298Y-104785246D01*
X175826458Y-104783702D01*
X175694380Y-104672875D01*
X175387497Y-104457993D01*
X175387486Y-104457986D01*
X175387480Y-104457982D01*
X175261939Y-104385501D01*
X175063026Y-104270658D01*
X175063011Y-104270650D01*
X174723462Y-104112316D01*
X174371418Y-103984184D01*
X174371417Y-103984183D01*
X174371407Y-103984180D01*
X174106488Y-103913194D01*
X174009520Y-103887212D01*
X174009509Y-103887210D01*
X173977782Y-103881616D01*
X173915179Y-103850589D01*
X173879288Y-103790642D01*
X173881505Y-103720808D01*
X173921125Y-103663258D01*
X173985570Y-103636264D01*
X173999314Y-103635500D01*
X232000686Y-103635500D01*
X232067725Y-103655185D01*
G37*
%TD.AperFunction*%
%TD*%
M02*
