%TF.GenerationSoftware,KiCad,Pcbnew,9.0.2-9.0.2-0~ubuntu24.04.1*%
%TF.CreationDate,2025-06-09T20:56:55-07:00*%
%TF.ProjectId,Pico-CAN,5069636f-2d43-4414-9e2e-6b696361645f,1.0*%
%TF.SameCoordinates,Original*%
%TF.FileFunction,Copper,L1,Top*%
%TF.FilePolarity,Positive*%
%FSLAX46Y46*%
G04 Gerber Fmt 4.6, Leading zero omitted, Abs format (unit mm)*
G04 Created by KiCad (PCBNEW 9.0.2-9.0.2-0~ubuntu24.04.1) date 2025-06-09 20:56:55*
%MOMM*%
%LPD*%
G01*
G04 APERTURE LIST*
G04 Aperture macros list*
%AMRoundRect*
0 Rectangle with rounded corners*
0 $1 Rounding radius*
0 $2 $3 $4 $5 $6 $7 $8 $9 X,Y pos of 4 corners*
0 Add a 4 corners polygon primitive as box body*
4,1,4,$2,$3,$4,$5,$6,$7,$8,$9,$2,$3,0*
0 Add four circle primitives for the rounded corners*
1,1,$1+$1,$2,$3*
1,1,$1+$1,$4,$5*
1,1,$1+$1,$6,$7*
1,1,$1+$1,$8,$9*
0 Add four rect primitives between the rounded corners*
20,1,$1+$1,$2,$3,$4,$5,0*
20,1,$1+$1,$4,$5,$6,$7,0*
20,1,$1+$1,$6,$7,$8,$9,0*
20,1,$1+$1,$8,$9,$2,$3,0*%
%AMFreePoly0*
4,1,37,0.800000,0.796148,0.878414,0.796148,1.032228,0.765552,1.177117,0.705537,1.307515,0.618408,1.418408,0.507515,1.505537,0.377117,1.565552,0.232228,1.596148,0.078414,1.596148,-0.078414,1.565552,-0.232228,1.505537,-0.377117,1.418408,-0.507515,1.307515,-0.618408,1.177117,-0.705537,1.032228,-0.765552,0.878414,-0.796148,0.800000,-0.796148,0.800000,-0.800000,-1.400000,-0.800000,
-1.403843,-0.796157,-1.439018,-0.796157,-1.511114,-0.766294,-1.566294,-0.711114,-1.596157,-0.639018,-1.596157,-0.603843,-1.600000,-0.600000,-1.600000,0.600000,-1.596157,0.603843,-1.596157,0.639018,-1.566294,0.711114,-1.511114,0.766294,-1.439018,0.796157,-1.403843,0.796157,-1.400000,0.800000,0.800000,0.800000,0.800000,0.796148,0.800000,0.796148,$1*%
%AMFreePoly1*
4,1,37,1.403843,0.796157,1.439018,0.796157,1.511114,0.766294,1.566294,0.711114,1.596157,0.639018,1.596157,0.603843,1.600000,0.600000,1.600000,-0.600000,1.596157,-0.603843,1.596157,-0.639018,1.566294,-0.711114,1.511114,-0.766294,1.439018,-0.796157,1.403843,-0.796157,1.400000,-0.800000,-0.800000,-0.800000,-0.800000,-0.796148,-0.878414,-0.796148,-1.032228,-0.765552,-1.177117,-0.705537,
-1.307515,-0.618408,-1.418408,-0.507515,-1.505537,-0.377117,-1.565552,-0.232228,-1.596148,-0.078414,-1.596148,0.078414,-1.565552,0.232228,-1.505537,0.377117,-1.418408,0.507515,-1.307515,0.618408,-1.177117,0.705537,-1.032228,0.765552,-0.878414,0.796148,-0.800000,0.796148,-0.800000,0.800000,1.400000,0.800000,1.403843,0.796157,1.403843,0.796157,$1*%
%AMFreePoly2*
4,1,37,0.603843,0.796157,0.639018,0.796157,0.711114,0.766294,0.766294,0.711114,0.796157,0.639018,0.796157,0.603843,0.800000,0.600000,0.800000,-0.600000,0.796157,-0.603843,0.796157,-0.639018,0.766294,-0.711114,0.711114,-0.766294,0.639018,-0.796157,0.603843,-0.796157,0.600000,-0.800000,0.000000,-0.800000,0.000000,-0.796148,-0.078414,-0.796148,-0.232228,-0.765552,-0.377117,-0.705537,
-0.507515,-0.618408,-0.618408,-0.507515,-0.705537,-0.377117,-0.765552,-0.232228,-0.796148,-0.078414,-0.796148,0.078414,-0.765552,0.232228,-0.705537,0.377117,-0.618408,0.507515,-0.507515,0.618408,-0.377117,0.705537,-0.232228,0.765552,-0.078414,0.796148,0.000000,0.796148,0.000000,0.800000,0.600000,0.800000,0.603843,0.796157,0.603843,0.796157,$1*%
%AMFreePoly3*
4,1,37,0.000000,0.796148,0.078414,0.796148,0.232228,0.765552,0.377117,0.705537,0.507515,0.618408,0.618408,0.507515,0.705537,0.377117,0.765552,0.232228,0.796148,0.078414,0.796148,-0.078414,0.765552,-0.232228,0.705537,-0.377117,0.618408,-0.507515,0.507515,-0.618408,0.377117,-0.705537,0.232228,-0.765552,0.078414,-0.796148,0.000000,-0.796148,0.000000,-0.800000,-0.600000,-0.800000,
-0.603843,-0.796157,-0.639018,-0.796157,-0.711114,-0.766294,-0.766294,-0.711114,-0.796157,-0.639018,-0.796157,-0.603843,-0.800000,-0.600000,-0.800000,0.600000,-0.796157,0.603843,-0.796157,0.639018,-0.766294,0.711114,-0.711114,0.766294,-0.639018,0.796157,-0.603843,0.796157,-0.600000,0.800000,0.000000,0.800000,0.000000,0.796148,0.000000,0.796148,$1*%
G04 Aperture macros list end*
%TA.AperFunction,SMDPad,CuDef*%
%ADD10RoundRect,0.250000X0.337500X0.475000X-0.337500X0.475000X-0.337500X-0.475000X0.337500X-0.475000X0*%
%TD*%
%TA.AperFunction,ComponentPad*%
%ADD11R,1.778000X1.778000*%
%TD*%
%TA.AperFunction,ComponentPad*%
%ADD12C,1.778000*%
%TD*%
%TA.AperFunction,SMDPad,CuDef*%
%ADD13RoundRect,0.150000X-0.150000X0.587500X-0.150000X-0.587500X0.150000X-0.587500X0.150000X0.587500X0*%
%TD*%
%TA.AperFunction,SMDPad,CuDef*%
%ADD14RoundRect,0.250000X-0.475000X0.337500X-0.475000X-0.337500X0.475000X-0.337500X0.475000X0.337500X0*%
%TD*%
%TA.AperFunction,SMDPad,CuDef*%
%ADD15RoundRect,0.250000X0.350000X0.450000X-0.350000X0.450000X-0.350000X-0.450000X0.350000X-0.450000X0*%
%TD*%
%TA.AperFunction,SMDPad,CuDef*%
%ADD16RoundRect,0.150000X-0.150000X0.825000X-0.150000X-0.825000X0.150000X-0.825000X0.150000X0.825000X0*%
%TD*%
%TA.AperFunction,SMDPad,CuDef*%
%ADD17R,1.200000X0.950000*%
%TD*%
%TA.AperFunction,SMDPad,CuDef*%
%ADD18RoundRect,0.150000X0.150000X-0.725000X0.150000X0.725000X-0.150000X0.725000X-0.150000X-0.725000X0*%
%TD*%
%TA.AperFunction,SMDPad,CuDef*%
%ADD19RoundRect,0.250000X0.475000X-0.337500X0.475000X0.337500X-0.475000X0.337500X-0.475000X-0.337500X0*%
%TD*%
%TA.AperFunction,SMDPad,CuDef*%
%ADD20RoundRect,0.250000X-0.337500X-0.475000X0.337500X-0.475000X0.337500X0.475000X-0.337500X0.475000X0*%
%TD*%
%TA.AperFunction,SMDPad,CuDef*%
%ADD21FreePoly0,0.000000*%
%TD*%
%TA.AperFunction,ComponentPad*%
%ADD22RoundRect,0.200000X-0.600000X-0.600000X0.600000X-0.600000X0.600000X0.600000X-0.600000X0.600000X0*%
%TD*%
%TA.AperFunction,SMDPad,CuDef*%
%ADD23RoundRect,0.800000X-0.800000X-0.000010X0.800000X-0.000010X0.800000X0.000010X-0.800000X0.000010X0*%
%TD*%
%TA.AperFunction,ComponentPad*%
%ADD24C,1.600000*%
%TD*%
%TA.AperFunction,SMDPad,CuDef*%
%ADD25FreePoly1,0.000000*%
%TD*%
%TA.AperFunction,ComponentPad*%
%ADD26FreePoly2,0.000000*%
%TD*%
%TA.AperFunction,ComponentPad*%
%ADD27FreePoly3,0.000000*%
%TD*%
%TA.AperFunction,ComponentPad*%
%ADD28R,1.700000X1.700000*%
%TD*%
%TA.AperFunction,ComponentPad*%
%ADD29C,1.700000*%
%TD*%
%TA.AperFunction,ViaPad*%
%ADD30C,0.762000*%
%TD*%
%TA.AperFunction,Conductor*%
%ADD31C,0.304800*%
%TD*%
%TA.AperFunction,Conductor*%
%ADD32C,0.381000*%
%TD*%
%TA.AperFunction,Conductor*%
%ADD33C,0.635000*%
%TD*%
G04 APERTURE END LIST*
D10*
%TO.P,C2,1*%
%TO.N,+3V3*%
X211341700Y-131445000D03*
%TO.P,C2,2*%
%TO.N,GND*%
X209266700Y-131445000D03*
%TD*%
D11*
%TO.P,J3,1,Pin_1*%
%TO.N,/CAN_L*%
X219730000Y-115593500D03*
D12*
%TO.P,J3,2,Pin_2*%
%TO.N,/CAN_H*%
X222270000Y-115593500D03*
%TD*%
D13*
%TO.P,D1,1,K1*%
%TO.N,/CAN_L*%
X221563100Y-125122700D03*
%TO.P,D1,2,K1*%
%TO.N,/CAN_H*%
X219663100Y-125122700D03*
%TO.P,D1,3,KK*%
%TO.N,GND*%
X220613100Y-126997700D03*
%TD*%
D14*
%TO.P,C3,1*%
%TO.N,+3V3*%
X224790000Y-132185500D03*
%TO.P,C3,2*%
%TO.N,GND*%
X224790000Y-134260500D03*
%TD*%
D15*
%TO.P,R1,1*%
%TO.N,+3V3*%
X211304200Y-127381000D03*
%TO.P,R1,2*%
%TO.N,Net-(A1-RUN)*%
X209304200Y-127381000D03*
%TD*%
D16*
%TO.P,U3,1,TXCAN*%
%TO.N,/CANTX*%
X215507500Y-139215000D03*
%TO.P,U3,2,RXCAN*%
%TO.N,/CANRX*%
X214237500Y-139215000D03*
%TO.P,U3,3,SOF*%
%TO.N,/START_OF_FRAME*%
X212967500Y-139215000D03*
%TO.P,U3,4,~{INT}*%
%TO.N,/~{CAN_IRQ}*%
X211697500Y-139215000D03*
%TO.P,U3,5,OSC2*%
%TO.N,unconnected-(U3-OSC2-Pad5)*%
X210427500Y-139215000D03*
%TO.P,U3,6,OSC1*%
%TO.N,Net-(U2-OUT)*%
X209157500Y-139215000D03*
%TO.P,U3,7,VSS*%
%TO.N,GND*%
X207887500Y-139215000D03*
%TO.P,U3,8,~{INT1}*%
%TO.N,/~{CAN_RX_IRQ}*%
X207887500Y-144165000D03*
%TO.P,U3,9,~{INT0}*%
%TO.N,/~{CAN_TX_IRQ}*%
X209157500Y-144165000D03*
%TO.P,U3,10,SCK*%
%TO.N,/SPI0_SCK*%
X210427500Y-144165000D03*
%TO.P,U3,11,SDI*%
%TO.N,/SPI0_MOSI*%
X211697500Y-144165000D03*
%TO.P,U3,12,SDO*%
%TO.N,/SPI0_MISO*%
X212967500Y-144165000D03*
%TO.P,U3,13,~{CS}*%
%TO.N,/~{SPI0_CS}*%
X214237500Y-144165000D03*
%TO.P,U3,14,VDD*%
%TO.N,+3V3*%
X215507500Y-144165000D03*
%TD*%
D17*
%TO.P,U2,1,EN*%
%TO.N,+3V3*%
X211361200Y-133287800D03*
%TO.P,U2,2,GND*%
%TO.N,GND*%
X209161200Y-133287800D03*
%TO.P,U2,3,OUT*%
%TO.N,Net-(U2-OUT)*%
X209161200Y-135037800D03*
%TO.P,U2,4,+Vs*%
%TO.N,+3V3*%
X211361200Y-135037800D03*
%TD*%
D10*
%TO.P,C4,1*%
%TO.N,+5V*%
X221763500Y-139369800D03*
%TO.P,C4,2*%
%TO.N,GND*%
X219688500Y-139369800D03*
%TD*%
D11*
%TO.P,J2,1,Pin_1*%
%TO.N,/CAN_L*%
X210060000Y-115640000D03*
D12*
%TO.P,J2,2,Pin_2*%
%TO.N,/CAN_H*%
X212600000Y-115640000D03*
%TD*%
D18*
%TO.P,U1,1,TXD*%
%TO.N,/CANTX*%
X218792500Y-136265000D03*
%TO.P,U1,2,V_{SS}*%
%TO.N,GND*%
X220062500Y-136265000D03*
%TO.P,U1,3,V_{DD}*%
%TO.N,+5V*%
X221332500Y-136265000D03*
%TO.P,U1,4,RXD*%
%TO.N,/CANRX*%
X222602500Y-136265000D03*
%TO.P,U1,5,V_{IO}*%
%TO.N,+3V3*%
X222602500Y-131115000D03*
%TO.P,U1,6,CANL*%
%TO.N,/CAN_L*%
X221332500Y-131115000D03*
%TO.P,U1,7,CANH*%
%TO.N,/CAN_H*%
X220062500Y-131115000D03*
%TO.P,U1,8,S*%
%TO.N,/XCVR_STBY*%
X218792500Y-131115000D03*
%TD*%
D19*
%TO.P,C5,1*%
%TO.N,+3V3*%
X217703400Y-144471300D03*
%TO.P,C5,2*%
%TO.N,GND*%
X217703400Y-142396300D03*
%TD*%
D20*
%TO.P,C1,1*%
%TO.N,Net-(A1-RUN)*%
X209266700Y-129413000D03*
%TO.P,C1,2*%
%TO.N,GND*%
X211341700Y-129413000D03*
%TD*%
D21*
%TO.P,A1,1,GPIO0*%
%TO.N,/GPIO0*%
X183700000Y-105440000D03*
D22*
X184500000Y-105440000D03*
D23*
%TO.P,A1,2,GPIO1*%
%TO.N,/GPIO1*%
X183700000Y-107980000D03*
D24*
X184500000Y-107980000D03*
D25*
%TO.P,A1,3,GND*%
%TO.N,GND*%
X183700000Y-110520000D03*
D26*
X184500000Y-110520000D03*
D23*
%TO.P,A1,4,GPIO2*%
%TO.N,/GPIO2*%
X183700000Y-113060000D03*
D24*
X184500000Y-113060000D03*
D23*
%TO.P,A1,5,GPIO3*%
%TO.N,/GPIO3*%
X183700000Y-115600000D03*
D24*
X184500000Y-115600000D03*
D23*
%TO.P,A1,6,GPIO4*%
%TO.N,/GPIO4*%
X183700000Y-118140000D03*
D24*
X184500000Y-118140000D03*
D23*
%TO.P,A1,7,GPIO5*%
%TO.N,/GPIO5*%
X183700000Y-120680000D03*
D24*
X184500000Y-120680000D03*
D25*
%TO.P,A1,8,GND*%
%TO.N,GND*%
X183700000Y-123220000D03*
D26*
X184500000Y-123220000D03*
D23*
%TO.P,A1,9,GPIO6*%
%TO.N,/GPIO6*%
X183700000Y-125760000D03*
D24*
X184500000Y-125760000D03*
D23*
%TO.P,A1,10,GPIO7*%
%TO.N,/GPIO7*%
X183700000Y-128300000D03*
D24*
X184500000Y-128300000D03*
D23*
%TO.P,A1,11,GPIO8*%
%TO.N,/GPIO8*%
X183700000Y-130840000D03*
D24*
X184500000Y-130840000D03*
D23*
%TO.P,A1,12,GPIO9*%
%TO.N,/GPIO9*%
X183700000Y-133380000D03*
D24*
X184500000Y-133380000D03*
D25*
%TO.P,A1,13,GND*%
%TO.N,GND*%
X183700000Y-135920000D03*
D26*
X184500000Y-135920000D03*
D23*
%TO.P,A1,14,GPIO10*%
%TO.N,/GPIO10*%
X183700000Y-138460000D03*
D24*
X184500000Y-138460000D03*
D23*
%TO.P,A1,15,GPIO11*%
%TO.N,/GPIO11*%
X183700000Y-141000000D03*
D24*
X184500000Y-141000000D03*
D23*
%TO.P,A1,16,GPIO12*%
%TO.N,/GPIO12*%
X183700000Y-143540000D03*
D24*
X184500000Y-143540000D03*
D23*
%TO.P,A1,17,GPIO13*%
%TO.N,/GPIO13*%
X183700000Y-146080000D03*
D24*
X184500000Y-146080000D03*
D25*
%TO.P,A1,18,GND*%
%TO.N,GND*%
X183700000Y-148620000D03*
D26*
X184500000Y-148620000D03*
D23*
%TO.P,A1,19,GPIO14*%
%TO.N,/GPIO14*%
X183700000Y-151160000D03*
D24*
X184500000Y-151160000D03*
D23*
%TO.P,A1,20,GPIO15*%
%TO.N,/GPIO15*%
X183700000Y-153700000D03*
D24*
X184500000Y-153700000D03*
%TO.P,A1,21,GPIO16*%
%TO.N,/START_OF_FRAME*%
X202280000Y-153700000D03*
D23*
X203080000Y-153700000D03*
D24*
%TO.P,A1,22,GPIO17*%
%TO.N,/~{CAN_IRQ}*%
X202280000Y-151160000D03*
D23*
X203080000Y-151160000D03*
D27*
%TO.P,A1,23,GND*%
%TO.N,GND*%
X202280000Y-148620000D03*
D21*
X203080000Y-148620000D03*
D24*
%TO.P,A1,24,GPIO18*%
%TO.N,/~{CAN_RX_IRQ}*%
X202280000Y-146080000D03*
D23*
X203080000Y-146080000D03*
D24*
%TO.P,A1,25,SPI0_TX*%
%TO.N,/SPI0_MOSI*%
X202280000Y-143540000D03*
D23*
X203080000Y-143540000D03*
D24*
%TO.P,A1,26,SPI0_RX*%
%TO.N,/SPI0_MISO*%
X202280000Y-141000000D03*
D23*
X203080000Y-141000000D03*
D24*
%TO.P,A1,27,~{SPI0_CSn}*%
%TO.N,/~{SPI0_CS}*%
X202280000Y-138460000D03*
D23*
X203080000Y-138460000D03*
D27*
%TO.P,A1,28,GND*%
%TO.N,GND*%
X202280000Y-135920000D03*
D21*
X203080000Y-135920000D03*
D24*
%TO.P,A1,29,SPI0_SCK*%
%TO.N,/SPI0_SCK*%
X202280000Y-133380000D03*
D23*
X203080000Y-133380000D03*
D24*
%TO.P,A1,30,RUN*%
%TO.N,Net-(A1-RUN)*%
X202280000Y-130840000D03*
D23*
X203080000Y-130840000D03*
D24*
%TO.P,A1,31,GPIO26*%
%TO.N,/~{CAN_TX_IRQ}*%
X202280000Y-128300000D03*
D23*
X203080000Y-128300000D03*
D24*
%TO.P,A1,32,GPIO27*%
%TO.N,unconnected-(A1-GPIO27_ADC1-Pad32)*%
X202280000Y-125760000D03*
D23*
X203080000Y-125760000D03*
D27*
%TO.P,A1,33,AGND*%
%TO.N,GND*%
X202280000Y-123220000D03*
D21*
X203080000Y-123220000D03*
D24*
%TO.P,A1,34,GPIO28*%
%TO.N,/XCVR_STBY*%
X202280000Y-120680000D03*
D23*
X203080000Y-120680000D03*
D24*
%TO.P,A1,35,ADC_VREF*%
%TO.N,unconnected-(A1-ADC_VREF-Pad35)*%
X202280000Y-118140000D03*
D23*
X203080000Y-118140000D03*
D24*
%TO.P,A1,36,3V3*%
%TO.N,+3V3*%
X202280000Y-115600000D03*
D23*
X203080000Y-115600000D03*
D24*
%TO.P,A1,37,3V3_EN*%
%TO.N,unconnected-(A1-3V3_EN-Pad37)_1*%
X202280000Y-113060000D03*
D23*
X203080000Y-113060000D03*
D27*
%TO.P,A1,38,GND*%
%TO.N,GND*%
X202280000Y-110520000D03*
D21*
X203080000Y-110520000D03*
D24*
%TO.P,A1,39,VSYS*%
%TO.N,+5V*%
X202280000Y-107980000D03*
D23*
X203080000Y-107980000D03*
D24*
%TO.P,A1,40,VBUS*%
%TO.N,unconnected-(A1-VBUS-Pad40)_1*%
X202280000Y-105440000D03*
D23*
X203080000Y-105440000D03*
%TD*%
D28*
%TO.P,J1,1,Pin_1*%
%TO.N,/GPIO0*%
X171196000Y-114173000D03*
D29*
%TO.P,J1,2,Pin_2*%
%TO.N,GND*%
X173736000Y-114173000D03*
%TO.P,J1,3,Pin_3*%
%TO.N,/GPIO1*%
X171196000Y-116713000D03*
%TO.P,J1,4,Pin_4*%
%TO.N,+5V*%
X173736000Y-116713000D03*
%TO.P,J1,5,Pin_5*%
%TO.N,GND*%
X171196000Y-119253000D03*
%TO.P,J1,6,Pin_6*%
%TO.N,/GPIO2*%
X173736000Y-119253000D03*
%TO.P,J1,7,Pin_7*%
%TO.N,/GPIO3*%
X171196000Y-121793000D03*
%TO.P,J1,8,Pin_8*%
%TO.N,GND*%
X173736000Y-121793000D03*
%TO.P,J1,9,Pin_9*%
%TO.N,/GPIO4*%
X171196000Y-124333000D03*
%TO.P,J1,10,Pin_10*%
%TO.N,/GPIO5*%
X173736000Y-124333000D03*
%TO.P,J1,11,Pin_11*%
%TO.N,GND*%
X171196000Y-126873000D03*
%TO.P,J1,12,Pin_12*%
%TO.N,/GPIO6*%
X173736000Y-126873000D03*
%TO.P,J1,13,Pin_13*%
%TO.N,/GPIO7*%
X171196000Y-129413000D03*
%TO.P,J1,14,Pin_14*%
%TO.N,GND*%
X173736000Y-129413000D03*
%TO.P,J1,15,Pin_15*%
%TO.N,/GPIO8*%
X171196000Y-131953000D03*
%TO.P,J1,16,Pin_16*%
%TO.N,/GPIO9*%
X173736000Y-131953000D03*
%TO.P,J1,17,Pin_17*%
%TO.N,GND*%
X171196000Y-134493000D03*
%TO.P,J1,18,Pin_18*%
%TO.N,/GPIO10*%
X173736000Y-134493000D03*
%TO.P,J1,19,Pin_19*%
%TO.N,/GPIO11*%
X171196000Y-137033000D03*
%TO.P,J1,20,Pin_20*%
%TO.N,GND*%
X173736000Y-137033000D03*
%TO.P,J1,21,Pin_21*%
%TO.N,/GPIO12*%
X171196000Y-139573000D03*
%TO.P,J1,22,Pin_22*%
%TO.N,/GPIO13*%
X173736000Y-139573000D03*
%TO.P,J1,23,Pin_23*%
%TO.N,GND*%
X171196000Y-142113000D03*
%TO.P,J1,24,Pin_24*%
%TO.N,/GPIO14*%
X173736000Y-142113000D03*
%TO.P,J1,25,Pin_25*%
%TO.N,+3V3*%
X171196000Y-144653000D03*
%TO.P,J1,26,Pin_26*%
%TO.N,/GPIO15*%
X173736000Y-144653000D03*
%TD*%
D30*
%TO.N,GND*%
X207899000Y-133273800D03*
X220599000Y-123723400D03*
X220065600Y-134645400D03*
X224790000Y-135509000D03*
X207899000Y-137515600D03*
X212775800Y-129489200D03*
X217703400Y-141173200D03*
%TO.N,/GPIO1*%
X181102000Y-106227400D03*
%TO.N,/START_OF_FRAME*%
X221462600Y-144767300D03*
X221462600Y-146672300D03*
%TO.N,+5V*%
X224472500Y-140766800D03*
X222567500Y-140766800D03*
%TO.N,/~{CAN_IRQ}*%
X219405200Y-144767300D03*
X219405200Y-146672300D03*
%TO.N,/GPIO15*%
X180378100Y-152107900D03*
%TD*%
D31*
%TO.N,/SPI0_SCK*%
X207058718Y-142470600D02*
X204731118Y-144798200D01*
X210427500Y-144165000D02*
X210427500Y-142888900D01*
X200685400Y-144018000D02*
X200685400Y-133756400D01*
X201061800Y-133380000D02*
X202280000Y-133380000D01*
X201465600Y-144798200D02*
X200685400Y-144018000D01*
X204731118Y-144798200D02*
X201465600Y-144798200D01*
X210427500Y-142888900D02*
X210009200Y-142470600D01*
X200685400Y-133756400D02*
X201061800Y-133380000D01*
X210009200Y-142470600D02*
X207058718Y-142470600D01*
D32*
%TO.N,Net-(A1-RUN)*%
X208178400Y-127381000D02*
X209304200Y-127381000D01*
X207645000Y-129413000D02*
X207645000Y-127914400D01*
X207645000Y-127914400D02*
X208178400Y-127381000D01*
X207645000Y-129413000D02*
X209266700Y-129413000D01*
X203080000Y-130840000D02*
X205659200Y-130840000D01*
X205659200Y-130840000D02*
X207086200Y-129413000D01*
X207086200Y-129413000D02*
X207645000Y-129413000D01*
%TO.N,GND*%
X209161200Y-133287800D02*
X209161200Y-131550500D01*
X220613100Y-123737500D02*
X220599000Y-123723400D01*
X220062500Y-134648500D02*
X220065600Y-134645400D01*
X220062500Y-136265000D02*
X220062500Y-134648500D01*
X220613100Y-126997700D02*
X220613100Y-123737500D01*
X220062500Y-137798100D02*
X220062500Y-136265000D01*
X212699600Y-129413000D02*
X212775800Y-129489200D01*
X209161200Y-133287800D02*
X207913000Y-133287800D01*
X207887500Y-139215000D02*
X207887500Y-137527100D01*
X217703400Y-141173200D02*
X217703400Y-142066100D01*
X207913000Y-133287800D02*
X207899000Y-133273800D01*
X211341700Y-129413000D02*
X212699600Y-129413000D01*
X219688500Y-138172100D02*
X220062500Y-137798100D01*
X224790000Y-134260500D02*
X224790000Y-135509000D01*
X207887500Y-137527100D02*
X207899000Y-137515600D01*
X219688500Y-139369800D02*
X219688500Y-138172100D01*
D31*
X209161200Y-131550500D02*
X209266700Y-131445000D01*
%TO.N,/~{CAN_TX_IRQ}*%
X201567200Y-147338200D02*
X197789800Y-143560800D01*
X199466200Y-128295400D02*
X199470800Y-128300000D01*
X209157500Y-144165000D02*
X209157500Y-145705818D01*
X197789800Y-129971800D02*
X199466200Y-128295400D01*
X209157500Y-145705818D02*
X207525118Y-147338200D01*
X199470800Y-128300000D02*
X202280000Y-128300000D01*
X197789800Y-143560800D02*
X197789800Y-129971800D01*
X207525118Y-147338200D02*
X201567200Y-147338200D01*
%TO.N,/GPIO2*%
X181580000Y-113060000D02*
X175387000Y-119253000D01*
X175387000Y-119253000D02*
X173736000Y-119253000D01*
X184500000Y-113060000D02*
X181580000Y-113060000D01*
%TO.N,/GPIO8*%
X183555600Y-130695600D02*
X172453400Y-130695600D01*
X172453400Y-130695600D02*
X171196000Y-131953000D01*
X183700000Y-130840000D02*
X183555600Y-130695600D01*
%TO.N,/GPIO1*%
X172453400Y-115455600D02*
X171196000Y-116713000D01*
X175336200Y-114503200D02*
X174383800Y-115455600D01*
X181102000Y-106227400D02*
X179502800Y-107826600D01*
X174383800Y-115455600D02*
X172453400Y-115455600D01*
X175336200Y-113364476D02*
X175336200Y-114503200D01*
X179502800Y-107826600D02*
X179502800Y-109197877D01*
X179502800Y-109197877D02*
X175336200Y-113364476D01*
%TO.N,/GPIO14*%
X181559200Y-147269200D02*
X176403000Y-142113000D01*
X182960800Y-151160000D02*
X181559200Y-149758400D01*
X181559200Y-149758400D02*
X181559200Y-147269200D01*
X184500000Y-151160000D02*
X182960800Y-151160000D01*
X176403000Y-142113000D02*
X173736000Y-142113000D01*
%TO.N,/GPIO6*%
X174849000Y-125760000D02*
X173736000Y-126873000D01*
X184500000Y-125760000D02*
X174849000Y-125760000D01*
%TO.N,/GPIO10*%
X183700000Y-138460000D02*
X179608000Y-138460000D01*
X179608000Y-138460000D02*
X175641000Y-134493000D01*
X175641000Y-134493000D02*
X173736000Y-134493000D01*
%TO.N,/GPIO11*%
X175018600Y-135775600D02*
X180243000Y-141000000D01*
X180243000Y-141000000D02*
X183700000Y-141000000D01*
X172453400Y-135775600D02*
X175018600Y-135775600D01*
X171196000Y-137033000D02*
X172453400Y-135775600D01*
%TO.N,/GPIO7*%
X181495438Y-128143000D02*
X181652438Y-128300000D01*
X172466000Y-128143000D02*
X173202567Y-128143000D01*
X171196000Y-129413000D02*
X172466000Y-128143000D01*
X174891600Y-128143000D02*
X181495438Y-128143000D01*
X181652438Y-128300000D02*
X184500000Y-128300000D01*
X173215167Y-128130400D02*
X174879000Y-128130400D01*
X173202567Y-128143000D02*
X173215167Y-128130400D01*
X174879000Y-128130400D02*
X174891600Y-128143000D01*
%TO.N,/GPIO3*%
X175755400Y-120535600D02*
X180691000Y-115600000D01*
X172453400Y-120535600D02*
X175755400Y-120535600D01*
X180691000Y-115600000D02*
X183700000Y-115600000D01*
X171196000Y-121793000D02*
X172453400Y-120535600D01*
%TO.N,/GPIO4*%
X172453400Y-123075600D02*
X171196000Y-124333000D01*
X183700000Y-118140000D02*
X179929000Y-118140000D01*
X179929000Y-118140000D02*
X174993400Y-123075600D01*
X174993400Y-123075600D02*
X172453400Y-123075600D01*
%TO.N,/XCVR_STBY*%
X210282000Y-120680000D02*
X210284592Y-120682592D01*
X210547792Y-120682592D02*
X218792500Y-128927300D01*
X218792500Y-128927300D02*
X218792500Y-131115000D01*
X210284592Y-120682592D02*
X210547792Y-120682592D01*
X203080000Y-120680000D02*
X210282000Y-120680000D01*
%TO.N,/SPI0_MISO*%
X211233747Y-141631400D02*
X211252800Y-141631400D01*
X212967500Y-142685700D02*
X212967500Y-144165000D01*
X210953347Y-141351000D02*
X211233747Y-141631400D01*
X205287400Y-141000000D02*
X205638400Y-141351000D01*
X212801200Y-142519400D02*
X212967500Y-142685700D01*
X211252800Y-141631400D02*
X212140800Y-142519400D01*
X205638400Y-141351000D02*
X210953347Y-141351000D01*
X203080000Y-141000000D02*
X205287400Y-141000000D01*
X212140800Y-142519400D02*
X212801200Y-142519400D01*
%TO.N,/GPIO9*%
X183700000Y-133380000D02*
X176941000Y-133380000D01*
X176941000Y-133380000D02*
X175514000Y-131953000D01*
X175514000Y-131953000D02*
X173736000Y-131953000D01*
%TO.N,/GPIO5*%
X179040000Y-120680000D02*
X175387000Y-124333000D01*
X183700000Y-120680000D02*
X179040000Y-120680000D01*
X175387000Y-124333000D02*
X173736000Y-124333000D01*
%TO.N,/START_OF_FRAME*%
X221437200Y-142951200D02*
X218262200Y-139776200D01*
X215264676Y-153700000D02*
X202280000Y-153700000D01*
X221462600Y-146672300D02*
X221462600Y-147502076D01*
X216789000Y-139776200D02*
X215925400Y-140639800D01*
X221462600Y-146672300D02*
X221272100Y-146672300D01*
X215925400Y-140639800D02*
X213055200Y-140639800D01*
X221462600Y-147502076D02*
X215264676Y-153700000D01*
X218262200Y-139776200D02*
X216789000Y-139776200D01*
X212967500Y-140552100D02*
X212967500Y-139215000D01*
X213055200Y-140639800D02*
X212967500Y-140552100D01*
X221322900Y-144767300D02*
X221437200Y-144653000D01*
X221437200Y-144653000D02*
X221437200Y-142951200D01*
X221462600Y-144767300D02*
X221322900Y-144767300D01*
D33*
%TO.N,+3V3*%
X213958100Y-127381000D02*
X215188800Y-128611700D01*
X226974400Y-115341400D02*
X223647000Y-112014000D01*
X226949000Y-131165600D02*
X226949000Y-135788400D01*
X216723500Y-133081300D02*
X215203500Y-131561300D01*
D31*
X211361200Y-133287800D02*
X211353400Y-133280000D01*
D32*
X215798400Y-145719800D02*
X215507500Y-145428900D01*
D31*
X223672600Y-131115000D02*
X223697800Y-131140200D01*
D32*
X211361200Y-133287800D02*
X211361200Y-131464500D01*
X217703400Y-144471300D02*
X217703400Y-145719800D01*
D33*
X224790000Y-130810000D02*
X224028000Y-130810000D01*
X223481428Y-132499572D02*
X222899700Y-133081300D01*
D32*
X215163400Y-131445000D02*
X215188800Y-131470400D01*
D33*
X215203500Y-131485100D02*
X215188800Y-131470400D01*
X223520000Y-144780000D02*
X222580200Y-145719800D01*
X226974400Y-131140200D02*
X226949000Y-131165600D01*
D32*
X213958100Y-127381000D02*
X211304200Y-127381000D01*
D33*
X226974400Y-131140200D02*
X226974400Y-115341400D01*
X226644200Y-130810000D02*
X224790000Y-130810000D01*
X226949000Y-135788400D02*
X223520000Y-139217400D01*
X222899700Y-133081300D02*
X216723500Y-133081300D01*
D32*
X222602500Y-131115000D02*
X223672600Y-131115000D01*
X211341700Y-131445000D02*
X215163400Y-131445000D01*
X211361200Y-133287800D02*
X211361200Y-135037800D01*
X224790000Y-132185500D02*
X224790000Y-130810000D01*
D33*
X215203500Y-131561300D02*
X215203500Y-131485100D01*
X208762600Y-112014000D02*
X205176600Y-115600000D01*
X223647000Y-112014000D02*
X208762600Y-112014000D01*
X224028000Y-130810000D02*
X223697800Y-131140200D01*
X223481428Y-131356572D02*
X223481428Y-132499572D01*
X217703400Y-145719800D02*
X215798400Y-145719800D01*
D32*
X215507500Y-145428900D02*
X215507500Y-144165000D01*
D33*
X215188800Y-128611700D02*
X215188800Y-131470400D01*
X223697800Y-131140200D02*
X223481428Y-131356572D01*
D31*
X211476500Y-133172500D02*
X211361200Y-133287800D01*
D33*
X222580200Y-145719800D02*
X217703400Y-145719800D01*
X226974400Y-131140200D02*
X226644200Y-130810000D01*
X223520000Y-139217400D02*
X223520000Y-144780000D01*
D31*
X211361200Y-131464500D02*
X211341700Y-131445000D01*
D33*
X205176600Y-115600000D02*
X203080000Y-115600000D01*
D31*
%TO.N,/GPIO0*%
X178943000Y-107061000D02*
X180564000Y-105440000D01*
X181428566Y-105439000D02*
X181429566Y-105440000D01*
X180775434Y-105439000D02*
X181428566Y-105439000D01*
X172491400Y-112877600D02*
X175031400Y-112877600D01*
X181429566Y-105440000D02*
X183700000Y-105440000D01*
X175031400Y-112877600D02*
X178943000Y-108966000D01*
X171196000Y-114173000D02*
X172491400Y-112877600D01*
X180564000Y-105440000D02*
X180774434Y-105440000D01*
X178943000Y-108966000D02*
X178943000Y-107061000D01*
X180774434Y-105440000D02*
X180775434Y-105439000D01*
%TO.N,/~{SPI0_CS}*%
X212372676Y-141959600D02*
X213511400Y-141959600D01*
X211160823Y-140766800D02*
X211465623Y-141071600D01*
X213511400Y-141959600D02*
X214237500Y-142685700D01*
X206121000Y-140766800D02*
X211160823Y-140766800D01*
X205790800Y-140436600D02*
X206121000Y-140766800D01*
X214237500Y-142685700D02*
X214237500Y-144165000D01*
X211465623Y-141071600D02*
X211484676Y-141071600D01*
X203080000Y-138460000D02*
X203110000Y-138430000D01*
X203110000Y-138430000D02*
X205359000Y-138430000D01*
X205359000Y-138430000D02*
X205790800Y-138861800D01*
X205790800Y-138861800D02*
X205790800Y-140436600D01*
X211484676Y-141071600D02*
X212372676Y-141959600D01*
D32*
%TO.N,+5V*%
X221763500Y-139369800D02*
X221763500Y-138248300D01*
D33*
X227915200Y-131529892D02*
X227915200Y-114951708D01*
X224472500Y-140766800D02*
X224459800Y-140754100D01*
X208710800Y-111073200D02*
X205617600Y-107980000D01*
X227915200Y-114951708D02*
X224036692Y-111073200D01*
D32*
X222046800Y-140766800D02*
X221763500Y-140483500D01*
D33*
X227889800Y-131555292D02*
X227915200Y-131529892D01*
X224459800Y-140754100D02*
X224459800Y-139608092D01*
X224459800Y-139608092D02*
X227889800Y-136178092D01*
X227889800Y-136178092D02*
X227889800Y-131555292D01*
X205617600Y-107980000D02*
X203080000Y-107980000D01*
D32*
X222567500Y-140766800D02*
X222046800Y-140766800D01*
X221332500Y-137817300D02*
X221332500Y-136265000D01*
X221763500Y-138248300D02*
X221332500Y-137817300D01*
D33*
X224036692Y-111073200D02*
X208710800Y-111073200D01*
D32*
X221763500Y-140483500D02*
X221763500Y-139369800D01*
D31*
%TO.N,/SPI0_MOSI*%
X210719400Y-141910800D02*
X206755000Y-141910800D01*
X211697500Y-144165000D02*
X211697500Y-142888900D01*
X211697500Y-142888900D02*
X210719400Y-141910800D01*
X205125800Y-143540000D02*
X203080000Y-143540000D01*
X206755000Y-141910800D02*
X205125800Y-143540000D01*
%TO.N,/~{CAN_IRQ}*%
X212404352Y-141199600D02*
X216178400Y-141199600D01*
X219405200Y-146672300D02*
X219345749Y-146731751D01*
X216178400Y-141199600D02*
X216864200Y-140513800D01*
X219345749Y-146731751D02*
X219333049Y-146731751D01*
X216864200Y-140492676D02*
X216972076Y-140384800D01*
X211716552Y-140511800D02*
X212404352Y-141199600D01*
X205333600Y-151155400D02*
X214934800Y-151155400D01*
X216972076Y-140384800D02*
X218029966Y-140384800D01*
X203080000Y-151160000D02*
X205329000Y-151160000D01*
X219405200Y-146672300D02*
X219309648Y-146672300D01*
X205329000Y-151160000D02*
X205333600Y-151155400D01*
X211697500Y-139215000D02*
X211697500Y-140511800D01*
X219405200Y-146685000D02*
X219405200Y-146672300D01*
X216864200Y-140513800D02*
X216864200Y-140492676D01*
X218029966Y-140384800D02*
X219405200Y-141760034D01*
X219405200Y-141760034D02*
X219405200Y-144767300D01*
X211697500Y-140511800D02*
X211716552Y-140511800D01*
X214934800Y-151155400D02*
X219405200Y-146685000D01*
%TO.N,/~{CAN_RX_IRQ}*%
X207887500Y-144165000D02*
X207887500Y-145426500D01*
X207887500Y-145426500D02*
X207234000Y-146080000D01*
X207234000Y-146080000D02*
X203080000Y-146080000D01*
D32*
%TO.N,/CAN_L*%
X213314700Y-114254700D02*
X211445300Y-114254700D01*
X223774000Y-114960400D02*
X223021800Y-114208200D01*
X211445300Y-114254700D02*
X210060000Y-115640000D01*
X221563100Y-127891100D02*
X221563100Y-125122700D01*
X221115300Y-114208200D02*
X219730000Y-115593500D01*
X221031800Y-128422400D02*
X221563100Y-127891100D01*
X223021800Y-114208200D02*
X221115300Y-114208200D01*
X221563100Y-118365100D02*
X223774000Y-116154200D01*
X223774000Y-116154200D02*
X223774000Y-114960400D01*
X214653500Y-115593500D02*
X213314700Y-114254700D01*
X219730000Y-115593500D02*
X214653500Y-115593500D01*
X221332500Y-131115000D02*
X221332500Y-129967700D01*
X221332500Y-129967700D02*
X221031800Y-129667000D01*
X221031800Y-129667000D02*
X221031800Y-128422400D01*
X221563100Y-125122700D02*
X221563100Y-118365100D01*
%TO.N,/CAN_H*%
X219663100Y-125122700D02*
X219663100Y-123262300D01*
X214369018Y-116280300D02*
X217575500Y-116280300D01*
X219663100Y-123262300D02*
X220760450Y-122164950D01*
X217575500Y-116280300D02*
X218398250Y-117103050D01*
X220062500Y-131115000D02*
X220062500Y-130000300D01*
X220760450Y-117103050D02*
X222270000Y-115593500D01*
X213728718Y-115640000D02*
X214369018Y-116280300D01*
X220062500Y-130000300D02*
X220395800Y-129667000D01*
X212600000Y-115640000D02*
X213728718Y-115640000D01*
X218398250Y-117103050D02*
X220760450Y-117103050D01*
X219663100Y-127664300D02*
X219663100Y-125122700D01*
X220760450Y-122164950D02*
X220760450Y-117103050D01*
X220395800Y-128397000D02*
X219663100Y-127664300D01*
X220395800Y-129667000D02*
X220395800Y-128397000D01*
D31*
%TO.N,/CANTX*%
X215507500Y-139215000D02*
X217731200Y-139215000D01*
X218792500Y-138153700D02*
X218792500Y-136265000D01*
X217731200Y-139215000D02*
X218792500Y-138153700D01*
%TO.N,/CANRX*%
X214237500Y-137984300D02*
X214807800Y-137414000D01*
X219512018Y-133806200D02*
X221563200Y-133806200D01*
X214807800Y-137414000D02*
X216966800Y-137414000D01*
X217957400Y-136423400D02*
X217957400Y-135360818D01*
X216966800Y-137414000D02*
X217957400Y-136423400D01*
X217957400Y-135360818D02*
X219512018Y-133806200D01*
X221563200Y-133806200D02*
X222602500Y-134845500D01*
X222602500Y-134845500D02*
X222602500Y-136265000D01*
X214237500Y-139215000D02*
X214237500Y-137984300D01*
%TO.N,/GPIO13*%
X173736000Y-139573000D02*
X175133000Y-139573000D01*
X175133000Y-139573000D02*
X181640000Y-146080000D01*
X181640000Y-146080000D02*
X183700000Y-146080000D01*
%TO.N,/GPIO12*%
X180624000Y-143540000D02*
X183700000Y-143540000D01*
X171196000Y-139573000D02*
X172453400Y-138315600D01*
X175399600Y-138315600D02*
X180624000Y-143540000D01*
X172453400Y-138315600D02*
X175399600Y-138315600D01*
%TO.N,/GPIO15*%
X179298600Y-148564600D02*
X175387000Y-144653000D01*
X180378100Y-152107900D02*
X179298600Y-151028400D01*
X179298600Y-151028400D02*
X179298600Y-148564600D01*
X175387000Y-144653000D02*
X173736000Y-144653000D01*
D32*
%TO.N,Net-(U2-OUT)*%
X209161200Y-139211300D02*
X209157500Y-139215000D01*
X209161200Y-135037800D02*
X209161200Y-139211300D01*
%TD*%
%TA.AperFunction,Conductor*%
%TO.N,+3V3*%
G36*
X201144060Y-113164780D02*
G01*
X201171315Y-113169255D01*
X201177114Y-113174485D01*
X201184603Y-113176685D01*
X201202682Y-113197550D01*
X201223196Y-113216054D01*
X201227665Y-113226381D01*
X201230358Y-113229489D01*
X201232585Y-113237749D01*
X201237214Y-113248445D01*
X201239947Y-113258492D01*
X201240758Y-113266718D01*
X201254615Y-113312400D01*
X201255090Y-113314145D01*
X201257057Y-113322509D01*
X201266022Y-113367578D01*
X201266024Y-113367585D01*
X201283612Y-113410048D01*
X201287710Y-113421501D01*
X201301056Y-113465494D01*
X201301058Y-113465499D01*
X201322723Y-113506031D01*
X201325595Y-113511404D01*
X201345514Y-113559493D01*
X201374435Y-113602776D01*
X201398973Y-113648683D01*
X201431998Y-113688924D01*
X201460917Y-113732204D01*
X201497719Y-113769006D01*
X201501582Y-113773713D01*
X201530747Y-113809252D01*
X201562758Y-113835522D01*
X201570993Y-113842280D01*
X201607796Y-113879083D01*
X201651072Y-113907999D01*
X201655784Y-113911866D01*
X201674407Y-113927149D01*
X201691317Y-113941027D01*
X201720492Y-113956621D01*
X201731851Y-113962693D01*
X201742287Y-113968948D01*
X201780507Y-113994486D01*
X201780512Y-113994488D01*
X201822971Y-114012075D01*
X201828604Y-114014408D01*
X201874508Y-114038945D01*
X201924322Y-114054055D01*
X201972414Y-114073976D01*
X202017499Y-114082943D01*
X202017500Y-114082944D01*
X202023471Y-114084131D01*
X202073282Y-114099242D01*
X202125083Y-114104344D01*
X202176141Y-114114500D01*
X202435213Y-114114500D01*
X202435222Y-114114499D01*
X203135235Y-114114499D01*
X203138650Y-114115502D01*
X203142118Y-114114690D01*
X203171935Y-114125275D01*
X203202274Y-114134184D01*
X203204604Y-114136873D01*
X203207961Y-114138065D01*
X203227323Y-114163092D01*
X203248029Y-114186988D01*
X203249176Y-114191339D01*
X203250715Y-114193328D01*
X203258763Y-114227692D01*
X203275728Y-114421604D01*
X203276200Y-114432411D01*
X203276200Y-114450838D01*
X203256515Y-114517877D01*
X203239881Y-114538519D01*
X203232400Y-114546000D01*
X203232400Y-116654000D01*
X203239881Y-116661481D01*
X203254584Y-116688408D01*
X203271177Y-116714227D01*
X203272068Y-116720427D01*
X203273366Y-116722804D01*
X203276200Y-116749162D01*
X203276200Y-116961500D01*
X203256515Y-117028539D01*
X203203711Y-117074294D01*
X203152200Y-117085500D01*
X202176141Y-117085500D01*
X202131050Y-117094468D01*
X202131049Y-117094467D01*
X202125063Y-117095657D01*
X202073282Y-117100758D01*
X202023478Y-117115865D01*
X202017497Y-117117055D01*
X202017494Y-117117056D01*
X201972418Y-117126022D01*
X201972415Y-117126023D01*
X201929953Y-117143611D01*
X201918501Y-117147709D01*
X201874507Y-117161055D01*
X201874502Y-117161057D01*
X201833967Y-117182721D01*
X201833968Y-117182722D01*
X201828585Y-117185599D01*
X201780507Y-117205514D01*
X201737243Y-117234421D01*
X201731867Y-117237295D01*
X201731857Y-117237302D01*
X201691317Y-117258972D01*
X201655778Y-117288138D01*
X201651075Y-117291998D01*
X201607796Y-117320917D01*
X201570997Y-117357714D01*
X201566291Y-117361577D01*
X201566288Y-117361580D01*
X201530748Y-117390748D01*
X201497719Y-117430993D01*
X201460917Y-117467796D01*
X201432004Y-117511065D01*
X201428141Y-117515773D01*
X201428138Y-117515778D01*
X201398972Y-117551317D01*
X201377302Y-117591857D01*
X201377301Y-117591856D01*
X201374421Y-117597243D01*
X201345514Y-117640507D01*
X201325599Y-117688583D01*
X201322724Y-117693964D01*
X201301057Y-117734502D01*
X201301055Y-117734507D01*
X201287709Y-117778497D01*
X201287710Y-117778498D01*
X201285941Y-117784328D01*
X201266024Y-117832414D01*
X201255869Y-117883460D01*
X201254101Y-117889291D01*
X201254101Y-117889293D01*
X201240756Y-117933289D01*
X201236250Y-117979026D01*
X201234466Y-117991054D01*
X201225500Y-118036135D01*
X201225500Y-118243857D01*
X201234468Y-118288946D01*
X201236206Y-118300511D01*
X201236226Y-118300716D01*
X201240758Y-118346718D01*
X201241025Y-118347600D01*
X201241719Y-118354375D01*
X201236367Y-118383193D01*
X201233758Y-118412387D01*
X201230062Y-118417145D01*
X201228962Y-118423070D01*
X201208879Y-118444420D01*
X201190901Y-118467569D01*
X201185219Y-118469574D01*
X201181091Y-118473963D01*
X201152650Y-118481067D01*
X201125014Y-118490821D01*
X201118363Y-118491000D01*
X200913999Y-118491000D01*
X195238388Y-123814304D01*
X195199000Y-141986135D01*
X195199000Y-154116749D01*
X195198526Y-154127584D01*
X195180559Y-154332425D01*
X195176787Y-154353763D01*
X195124849Y-154547088D01*
X195117420Y-154567443D01*
X195032622Y-154748774D01*
X195021763Y-154767525D01*
X194906694Y-154931325D01*
X194892736Y-154947900D01*
X194750910Y-155089168D01*
X194734280Y-155103060D01*
X194570029Y-155217480D01*
X194551235Y-155228265D01*
X194369573Y-155312346D01*
X194349189Y-155319694D01*
X194195333Y-155360379D01*
X194163633Y-155364500D01*
X186911554Y-155364500D01*
X186911065Y-155364499D01*
X174198690Y-155314341D01*
X174131728Y-155294392D01*
X174086182Y-155241408D01*
X174076512Y-155172211D01*
X174105787Y-155108770D01*
X174164714Y-155071228D01*
X174166979Y-155070596D01*
X174371407Y-155015820D01*
X174723467Y-154887681D01*
X175063020Y-154729345D01*
X175387480Y-154542018D01*
X175694379Y-154327125D01*
X175981381Y-154086302D01*
X176246302Y-153821381D01*
X176391617Y-153648202D01*
X181845500Y-153648202D01*
X181845500Y-153751796D01*
X181860757Y-153906715D01*
X181921056Y-154105496D01*
X182018969Y-154288677D01*
X182018972Y-154288681D01*
X182018972Y-154288682D01*
X182018974Y-154288684D01*
X182150747Y-154449252D01*
X182262483Y-154540950D01*
X182311317Y-154581027D01*
X182311320Y-154581028D01*
X182311322Y-154581030D01*
X182494503Y-154678943D01*
X182494505Y-154678943D01*
X182494508Y-154678945D01*
X182693282Y-154739242D01*
X182848199Y-154754500D01*
X184390006Y-154754499D01*
X184390028Y-154754500D01*
X184396141Y-154754500D01*
X184603861Y-154754500D01*
X184619383Y-154751411D01*
X184654919Y-154744343D01*
X184706718Y-154739242D01*
X184756530Y-154724131D01*
X184762503Y-154722943D01*
X184762504Y-154722943D01*
X184778892Y-154719683D01*
X184807586Y-154713976D01*
X184855677Y-154694055D01*
X184905492Y-154678945D01*
X184951399Y-154654406D01*
X184999493Y-154634486D01*
X185042776Y-154605564D01*
X185088683Y-154581027D01*
X185128924Y-154548001D01*
X185172204Y-154519083D01*
X185204713Y-154486572D01*
X185213700Y-154478427D01*
X185249252Y-154449252D01*
X185282280Y-154409006D01*
X185319083Y-154372204D01*
X185348001Y-154328924D01*
X185381027Y-154288683D01*
X185402698Y-154248137D01*
X185408941Y-154237720D01*
X185434486Y-154199493D01*
X185454406Y-154151399D01*
X185478945Y-154105492D01*
X185494055Y-154055677D01*
X185513976Y-154007586D01*
X185517426Y-153990236D01*
X185522944Y-153962501D01*
X185524133Y-153956523D01*
X185539242Y-153906718D01*
X185544344Y-153854916D01*
X185554500Y-153803859D01*
X185554500Y-153596141D01*
X185544343Y-153545080D01*
X185539242Y-153493282D01*
X185524131Y-153443469D01*
X185513976Y-153392414D01*
X185494055Y-153344322D01*
X185478945Y-153294508D01*
X185454408Y-153248604D01*
X185452075Y-153242971D01*
X185434488Y-153200512D01*
X185434486Y-153200507D01*
X185405564Y-153157223D01*
X185381027Y-153111317D01*
X185348001Y-153071075D01*
X185343906Y-153064946D01*
X185319083Y-153027795D01*
X185319080Y-153027792D01*
X185286591Y-152995304D01*
X185278417Y-152986286D01*
X185249252Y-152950747D01*
X185213713Y-152921582D01*
X185209006Y-152917719D01*
X185172204Y-152880917D01*
X185128924Y-152851998D01*
X185124214Y-152848133D01*
X185124214Y-152848132D01*
X185124213Y-152848132D01*
X185088686Y-152818975D01*
X185088684Y-152818974D01*
X185088683Y-152818973D01*
X185048147Y-152797305D01*
X185042769Y-152794430D01*
X184999493Y-152765514D01*
X184951405Y-152745595D01*
X184946031Y-152742723D01*
X184905499Y-152721058D01*
X184905494Y-152721056D01*
X184905493Y-152721055D01*
X184905492Y-152721055D01*
X184887643Y-152715640D01*
X184861504Y-152707711D01*
X184855671Y-152705941D01*
X184807586Y-152686024D01*
X184756530Y-152675868D01*
X184750705Y-152674101D01*
X184750704Y-152674100D01*
X184706720Y-152660758D01*
X184706716Y-152660757D01*
X184660973Y-152656251D01*
X184648944Y-152654466D01*
X184603862Y-152645500D01*
X184603859Y-152645500D01*
X184396141Y-152645500D01*
X184396140Y-152645500D01*
X182848203Y-152645500D01*
X182693284Y-152660757D01*
X182494503Y-152721056D01*
X182311322Y-152818969D01*
X182311315Y-152818974D01*
X182150747Y-152950747D01*
X182018974Y-153111315D01*
X182018969Y-153111322D01*
X181921056Y-153294503D01*
X181860757Y-153493283D01*
X181845500Y-153648202D01*
X176391617Y-153648202D01*
X176435301Y-153596141D01*
X176461054Y-153565450D01*
X176487125Y-153534379D01*
X176702006Y-153227497D01*
X176702018Y-153227480D01*
X176889345Y-152903020D01*
X177047681Y-152563467D01*
X177175820Y-152211407D01*
X177272788Y-151849519D01*
X177337846Y-151480556D01*
X177370500Y-151107327D01*
X177370500Y-150732673D01*
X177337846Y-150359444D01*
X177272788Y-149990481D01*
X177175820Y-149628593D01*
X177106943Y-149439355D01*
X177047683Y-149276537D01*
X176889349Y-148936988D01*
X176889341Y-148936973D01*
X176771660Y-148733144D01*
X176702018Y-148612520D01*
X176702010Y-148612509D01*
X176702006Y-148612502D01*
X176487124Y-148305619D01*
X176246299Y-148018616D01*
X175981383Y-147753700D01*
X175694380Y-147512875D01*
X175387497Y-147297993D01*
X175387486Y-147297986D01*
X175387480Y-147297982D01*
X175104321Y-147134500D01*
X175063026Y-147110658D01*
X175063011Y-147110650D01*
X174723462Y-146952316D01*
X174371418Y-146824184D01*
X174371417Y-146824183D01*
X174371407Y-146824180D01*
X174102790Y-146752204D01*
X174009520Y-146727212D01*
X174009509Y-146727210D01*
X173640561Y-146662154D01*
X173267328Y-146629500D01*
X173267327Y-146629500D01*
X172892673Y-146629500D01*
X172892672Y-146629500D01*
X172519439Y-146662154D01*
X172519437Y-146662154D01*
X172150490Y-146727210D01*
X172150479Y-146727212D01*
X172043289Y-146755934D01*
X171788593Y-146824180D01*
X171788586Y-146824182D01*
X171788581Y-146824184D01*
X171436537Y-146952316D01*
X171096988Y-147110650D01*
X171096973Y-147110658D01*
X170772528Y-147297977D01*
X170772502Y-147297993D01*
X170465619Y-147512875D01*
X170178616Y-147753700D01*
X169913700Y-148018616D01*
X169672875Y-148305619D01*
X169457993Y-148612502D01*
X169457977Y-148612528D01*
X169270658Y-148936973D01*
X169270650Y-148936988D01*
X169112316Y-149276537D01*
X168998279Y-149589856D01*
X168984180Y-149628593D01*
X168939177Y-149796543D01*
X168887212Y-149990479D01*
X168887211Y-149990486D01*
X168881616Y-150022218D01*
X168850589Y-150084821D01*
X168790642Y-150120711D01*
X168720807Y-150118494D01*
X168663257Y-150078873D01*
X168636264Y-150014428D01*
X168635500Y-150000685D01*
X168635500Y-144566107D01*
X170092000Y-144566107D01*
X170092000Y-144739892D01*
X170119183Y-144911521D01*
X170172884Y-145076793D01*
X170251774Y-145231622D01*
X170314928Y-145318544D01*
X170314929Y-145318545D01*
X170751087Y-144882386D01*
X170795901Y-144960007D01*
X170888993Y-145053099D01*
X170966612Y-145097912D01*
X170530453Y-145534070D01*
X170617379Y-145597225D01*
X170617385Y-145597229D01*
X170772206Y-145676115D01*
X170937478Y-145729816D01*
X171109108Y-145757000D01*
X171282892Y-145757000D01*
X171454521Y-145729816D01*
X171619793Y-145676115D01*
X171774622Y-145597225D01*
X171861544Y-145534071D01*
X171861544Y-145534070D01*
X171425387Y-145097912D01*
X171503007Y-145053099D01*
X171596099Y-144960007D01*
X171640912Y-144882386D01*
X172077070Y-145318544D01*
X172077071Y-145318544D01*
X172140225Y-145231622D01*
X172219115Y-145076793D01*
X172272816Y-144911521D01*
X172300000Y-144739892D01*
X172300000Y-144566107D01*
X172299995Y-144566074D01*
X172631500Y-144566074D01*
X172631500Y-144739925D01*
X172658697Y-144911639D01*
X172658697Y-144911642D01*
X172712418Y-145076978D01*
X172762075Y-145174435D01*
X172791347Y-145231884D01*
X172893535Y-145372533D01*
X173016467Y-145495465D01*
X173157116Y-145597653D01*
X173311106Y-145676115D01*
X173312021Y-145676581D01*
X173477358Y-145730302D01*
X173477359Y-145730302D01*
X173477362Y-145730303D01*
X173649074Y-145757500D01*
X173649075Y-145757500D01*
X173822925Y-145757500D01*
X173822926Y-145757500D01*
X173994638Y-145730303D01*
X173994641Y-145730302D01*
X173994642Y-145730302D01*
X174159978Y-145676581D01*
X174159978Y-145676580D01*
X174159981Y-145676580D01*
X174314884Y-145597653D01*
X174455533Y-145495465D01*
X174578465Y-145372533D01*
X174680653Y-145231884D01*
X174733786Y-145127605D01*
X174781761Y-145076809D01*
X174844271Y-145059900D01*
X175167094Y-145059900D01*
X175234133Y-145079585D01*
X175254775Y-145096219D01*
X178855381Y-148696825D01*
X178888866Y-148758148D01*
X178891700Y-148784506D01*
X178891700Y-151081967D01*
X178891699Y-151081967D01*
X178919430Y-151185458D01*
X178972999Y-151278243D01*
X179354250Y-151659494D01*
X179706281Y-152011524D01*
X179739766Y-152072847D01*
X179742600Y-152099205D01*
X179742600Y-152170495D01*
X179767020Y-152293261D01*
X179767023Y-152293273D01*
X179814923Y-152408915D01*
X179814930Y-152408928D01*
X179884474Y-152513007D01*
X179884477Y-152513011D01*
X179972988Y-152601522D01*
X179972992Y-152601525D01*
X180077071Y-152671069D01*
X180077084Y-152671076D01*
X180161264Y-152705944D01*
X180192731Y-152718978D01*
X180315504Y-152743399D01*
X180315508Y-152743400D01*
X180315509Y-152743400D01*
X180440692Y-152743400D01*
X180440693Y-152743399D01*
X180563469Y-152718978D01*
X180679122Y-152671073D01*
X180783208Y-152601525D01*
X180871725Y-152513008D01*
X180941273Y-152408922D01*
X180989178Y-152293269D01*
X181013600Y-152170491D01*
X181013600Y-152045309D01*
X180989178Y-151922531D01*
X180968956Y-151873711D01*
X180941276Y-151806884D01*
X180941269Y-151806871D01*
X180871725Y-151702792D01*
X180871722Y-151702788D01*
X180783211Y-151614277D01*
X180783207Y-151614274D01*
X180679128Y-151544730D01*
X180679115Y-151544723D01*
X180563473Y-151496823D01*
X180563461Y-151496820D01*
X180440695Y-151472400D01*
X180440691Y-151472400D01*
X180369405Y-151472400D01*
X180302366Y-151452715D01*
X180281724Y-151436081D01*
X179741819Y-150896175D01*
X179708334Y-150834852D01*
X179705500Y-150808494D01*
X179705500Y-148511033D01*
X179705500Y-148511031D01*
X179677770Y-148407543D01*
X179636479Y-148336024D01*
X179624201Y-148314757D01*
X179624199Y-148314755D01*
X179624198Y-148314753D01*
X179624197Y-148314752D01*
X175636844Y-144327400D01*
X175636843Y-144327399D01*
X175544058Y-144273830D01*
X175544059Y-144273830D01*
X175518186Y-144266897D01*
X175440570Y-144246100D01*
X175440569Y-144246100D01*
X175440567Y-144246100D01*
X174844271Y-144246100D01*
X174777232Y-144226415D01*
X174733786Y-144178395D01*
X174680787Y-144074379D01*
X174680653Y-144074116D01*
X174578465Y-143933467D01*
X174455533Y-143810535D01*
X174314884Y-143708347D01*
X174288524Y-143694916D01*
X174159978Y-143629418D01*
X173994641Y-143575697D01*
X173865854Y-143555299D01*
X173822926Y-143548500D01*
X173649074Y-143548500D01*
X173591836Y-143557565D01*
X173477360Y-143575697D01*
X173477357Y-143575697D01*
X173312021Y-143629418D01*
X173157115Y-143708347D01*
X173104303Y-143746718D01*
X173016467Y-143810535D01*
X173016465Y-143810537D01*
X173016464Y-143810537D01*
X172893537Y-143933464D01*
X172893537Y-143933465D01*
X172893535Y-143933467D01*
X172871039Y-143964430D01*
X172791347Y-144074115D01*
X172712418Y-144229021D01*
X172658697Y-144394357D01*
X172658697Y-144394360D01*
X172631500Y-144566074D01*
X172299995Y-144566074D01*
X172272816Y-144394478D01*
X172219115Y-144229206D01*
X172140229Y-144074385D01*
X172140225Y-144074379D01*
X172077070Y-143987454D01*
X172077070Y-143987453D01*
X171640912Y-144423611D01*
X171596099Y-144345993D01*
X171503007Y-144252901D01*
X171425387Y-144208087D01*
X171861545Y-143771929D01*
X171861544Y-143771928D01*
X171774622Y-143708774D01*
X171619793Y-143629884D01*
X171454521Y-143576183D01*
X171282892Y-143549000D01*
X171109108Y-143549000D01*
X170937478Y-143576183D01*
X170772206Y-143629884D01*
X170617377Y-143708774D01*
X170530454Y-143771928D01*
X170530453Y-143771928D01*
X170966612Y-144208087D01*
X170888993Y-144252901D01*
X170795901Y-144345993D01*
X170751087Y-144423612D01*
X170314928Y-143987453D01*
X170314928Y-143987454D01*
X170251774Y-144074377D01*
X170172884Y-144229206D01*
X170119183Y-144394478D01*
X170092000Y-144566107D01*
X168635500Y-144566107D01*
X168635500Y-143137716D01*
X168639725Y-143105623D01*
X168672764Y-142982321D01*
X168678982Y-142959111D01*
X168686375Y-142938801D01*
X168770763Y-142757831D01*
X168781569Y-142739116D01*
X168896104Y-142575543D01*
X168909992Y-142558991D01*
X169051191Y-142417792D01*
X169067743Y-142403904D01*
X169231316Y-142289369D01*
X169250031Y-142278563D01*
X169431003Y-142194174D01*
X169451307Y-142186783D01*
X169644196Y-142135099D01*
X169665470Y-142131348D01*
X169869805Y-142113472D01*
X169880612Y-142113000D01*
X169971827Y-142113000D01*
X170038866Y-142132685D01*
X170084621Y-142185489D01*
X170094299Y-142217599D01*
X170111037Y-142323277D01*
X170118697Y-142371639D01*
X170118697Y-142371642D01*
X170172418Y-142536978D01*
X170184686Y-142561055D01*
X170251347Y-142691884D01*
X170353535Y-142832533D01*
X170476467Y-142955465D01*
X170617116Y-143057653D01*
X170772019Y-143136580D01*
X170772021Y-143136581D01*
X170937358Y-143190302D01*
X170937359Y-143190302D01*
X170937362Y-143190303D01*
X171109074Y-143217500D01*
X171109075Y-143217500D01*
X171282925Y-143217500D01*
X171282926Y-143217500D01*
X171454638Y-143190303D01*
X171454641Y-143190302D01*
X171454642Y-143190302D01*
X171619978Y-143136581D01*
X171619978Y-143136580D01*
X171619981Y-143136580D01*
X171774884Y-143057653D01*
X171915533Y-142955465D01*
X172038465Y-142832533D01*
X172140653Y-142691884D01*
X172219580Y-142536981D01*
X172273303Y-142371638D01*
X172297700Y-142217600D01*
X172312310Y-142186782D01*
X172326460Y-142155797D01*
X172327234Y-142155299D01*
X172327629Y-142154467D01*
X172356567Y-142136448D01*
X172385238Y-142118023D01*
X172386435Y-142117850D01*
X172386941Y-142117536D01*
X172420173Y-142113000D01*
X172511827Y-142113000D01*
X172578866Y-142132685D01*
X172624621Y-142185489D01*
X172634299Y-142217599D01*
X172651037Y-142323277D01*
X172658697Y-142371639D01*
X172658697Y-142371642D01*
X172712418Y-142536978D01*
X172724686Y-142561055D01*
X172791347Y-142691884D01*
X172893535Y-142832533D01*
X173016467Y-142955465D01*
X173157116Y-143057653D01*
X173312019Y-143136580D01*
X173312021Y-143136581D01*
X173477358Y-143190302D01*
X173477359Y-143190302D01*
X173477362Y-143190303D01*
X173649074Y-143217500D01*
X173649075Y-143217500D01*
X173822925Y-143217500D01*
X173822926Y-143217500D01*
X173994638Y-143190303D01*
X173994641Y-143190302D01*
X173994642Y-143190302D01*
X174159978Y-143136581D01*
X174159978Y-143136580D01*
X174159981Y-143136580D01*
X174314884Y-143057653D01*
X174455533Y-142955465D01*
X174578465Y-142832533D01*
X174680653Y-142691884D01*
X174733786Y-142587605D01*
X174781761Y-142536809D01*
X174844271Y-142519900D01*
X176183094Y-142519900D01*
X176250133Y-142539585D01*
X176270775Y-142556219D01*
X181115981Y-147401425D01*
X181149466Y-147462748D01*
X181152300Y-147489106D01*
X181152300Y-149811967D01*
X181152299Y-149811967D01*
X181152300Y-149811970D01*
X181180030Y-149915458D01*
X181229235Y-150000685D01*
X181233598Y-150008241D01*
X181233600Y-150008244D01*
X181882187Y-150656831D01*
X181915672Y-150718154D01*
X181913167Y-150780506D01*
X181860758Y-150953281D01*
X181860758Y-150953282D01*
X181848084Y-151081970D01*
X181845500Y-151108202D01*
X181845500Y-151211796D01*
X181860757Y-151366715D01*
X181921056Y-151565496D01*
X182018969Y-151748677D01*
X182018972Y-151748681D01*
X182018972Y-151748682D01*
X182018974Y-151748684D01*
X182150747Y-151909252D01*
X182262483Y-152000950D01*
X182311317Y-152041027D01*
X182311320Y-152041028D01*
X182311322Y-152041030D01*
X182494503Y-152138943D01*
X182494505Y-152138943D01*
X182494508Y-152138945D01*
X182693282Y-152199242D01*
X182848199Y-152214500D01*
X184390006Y-152214499D01*
X184390028Y-152214500D01*
X184396141Y-152214500D01*
X184603861Y-152214500D01*
X184619408Y-152211407D01*
X184654919Y-152204343D01*
X184706718Y-152199242D01*
X184756530Y-152184131D01*
X184762503Y-152182943D01*
X184762504Y-152182943D01*
X184778892Y-152179683D01*
X184807586Y-152173976D01*
X184855677Y-152154055D01*
X184905492Y-152138945D01*
X184951399Y-152114406D01*
X184999493Y-152094486D01*
X185042776Y-152065564D01*
X185088683Y-152041027D01*
X185128924Y-152008001D01*
X185172204Y-151979083D01*
X185204713Y-151946572D01*
X185213700Y-151938427D01*
X185249252Y-151909252D01*
X185282280Y-151869006D01*
X185319083Y-151832204D01*
X185348001Y-151788924D01*
X185381027Y-151748683D01*
X185402698Y-151708137D01*
X185408941Y-151697720D01*
X185434486Y-151659493D01*
X185454406Y-151611399D01*
X185478945Y-151565492D01*
X185494055Y-151515677D01*
X185513976Y-151467586D01*
X185517426Y-151450236D01*
X185522944Y-151422501D01*
X185524133Y-151416523D01*
X185539242Y-151366718D01*
X185544344Y-151314916D01*
X185554500Y-151263859D01*
X185554500Y-151254000D01*
X185574185Y-151186961D01*
X185626989Y-151141206D01*
X185678500Y-151130000D01*
X185928000Y-151130000D01*
X185928000Y-115447414D01*
X201235512Y-115447414D01*
X201235665Y-115447600D01*
X201803198Y-115447600D01*
X201780000Y-115534174D01*
X201780000Y-115665826D01*
X201803198Y-115752400D01*
X201235665Y-115752400D01*
X201235513Y-115752585D01*
X201236747Y-115760902D01*
X201241249Y-115806620D01*
X201254585Y-115850583D01*
X201288185Y-115961345D01*
X201301517Y-116005296D01*
X201301520Y-116005303D01*
X201323174Y-116045816D01*
X201328375Y-116056812D01*
X201345957Y-116099256D01*
X201371479Y-116137453D01*
X201433779Y-116230691D01*
X201433781Y-116230692D01*
X201835086Y-115829386D01*
X201879901Y-115907007D01*
X201972993Y-116000099D01*
X202050612Y-116044912D01*
X201665041Y-116430483D01*
X201681215Y-116472090D01*
X201691594Y-116480608D01*
X201691597Y-116480610D01*
X201732103Y-116502260D01*
X201742542Y-116508517D01*
X201780746Y-116534044D01*
X201823190Y-116551625D01*
X201930111Y-116595913D01*
X201972556Y-116613494D01*
X201972559Y-116613495D01*
X202017616Y-116622457D01*
X202017617Y-116622457D01*
X202131133Y-116645036D01*
X202131138Y-116645037D01*
X202176190Y-116654000D01*
X202927600Y-116654000D01*
X202927600Y-115752400D01*
X202756802Y-115752400D01*
X202780000Y-115665826D01*
X202780000Y-115534174D01*
X202756802Y-115447600D01*
X202927600Y-115447600D01*
X202927600Y-114546000D01*
X202176189Y-114546000D01*
X202131128Y-114554962D01*
X202131127Y-114554961D01*
X202017614Y-114577541D01*
X202017611Y-114577542D01*
X201972560Y-114586503D01*
X201972553Y-114586505D01*
X201930114Y-114604083D01*
X201930115Y-114604084D01*
X201823189Y-114648374D01*
X201823187Y-114648374D01*
X201780744Y-114665956D01*
X201742543Y-114691479D01*
X201742544Y-114691480D01*
X201649307Y-114753778D01*
X201649306Y-114753780D01*
X202050613Y-115155087D01*
X201972993Y-115199901D01*
X201879901Y-115292993D01*
X201835087Y-115370612D01*
X201433780Y-114969306D01*
X201433778Y-114969307D01*
X201371481Y-115062541D01*
X201371482Y-115062541D01*
X201345956Y-115100744D01*
X201328373Y-115143188D01*
X201328374Y-115143189D01*
X201284084Y-115250114D01*
X201266505Y-115292553D01*
X201266503Y-115292560D01*
X201257542Y-115337611D01*
X201254587Y-115349411D01*
X201241249Y-115393381D01*
X201236746Y-115439102D01*
X201235512Y-115447414D01*
X185928000Y-115447414D01*
X185928000Y-114432411D01*
X185928472Y-114421604D01*
X185946348Y-114217275D01*
X185950099Y-114195996D01*
X186001783Y-114003107D01*
X186009175Y-113982801D01*
X186042253Y-113911866D01*
X186093563Y-113801831D01*
X186104369Y-113783116D01*
X186218904Y-113619543D01*
X186232792Y-113602991D01*
X186373991Y-113461792D01*
X186390543Y-113447904D01*
X186554116Y-113333369D01*
X186572831Y-113322563D01*
X186753803Y-113238174D01*
X186774107Y-113230783D01*
X186966996Y-113179099D01*
X186988270Y-113175348D01*
X187192605Y-113157472D01*
X187203412Y-113157000D01*
X201117564Y-113157000D01*
X201144060Y-113164780D01*
G37*
%TD.AperFunction*%
%TD*%
%TA.AperFunction,Conductor*%
%TO.N,+5V*%
G36*
X201295529Y-104794685D02*
G01*
X201341284Y-104847489D01*
X201351228Y-104916647D01*
X201343050Y-104946455D01*
X201327924Y-104982970D01*
X201322724Y-104993964D01*
X201301057Y-105034502D01*
X201301055Y-105034507D01*
X201287709Y-105078497D01*
X201287710Y-105078498D01*
X201285941Y-105084328D01*
X201266024Y-105132414D01*
X201255869Y-105183460D01*
X201254101Y-105189291D01*
X201254101Y-105189293D01*
X201240756Y-105233289D01*
X201236250Y-105279026D01*
X201234466Y-105291054D01*
X201225500Y-105336135D01*
X201225500Y-105543857D01*
X201234468Y-105588946D01*
X201234467Y-105588946D01*
X201235656Y-105594927D01*
X201240758Y-105646718D01*
X201255867Y-105696528D01*
X201257057Y-105702508D01*
X201257057Y-105702509D01*
X201266022Y-105747578D01*
X201266024Y-105747585D01*
X201283612Y-105790048D01*
X201287710Y-105801501D01*
X201301056Y-105845494D01*
X201301058Y-105845499D01*
X201322723Y-105886031D01*
X201325595Y-105891404D01*
X201345514Y-105939493D01*
X201374435Y-105982776D01*
X201398973Y-106028683D01*
X201431998Y-106068924D01*
X201460917Y-106112204D01*
X201497719Y-106149006D01*
X201501582Y-106153713D01*
X201530747Y-106189252D01*
X201562758Y-106215522D01*
X201570993Y-106222280D01*
X201607796Y-106259083D01*
X201651072Y-106287999D01*
X201655784Y-106291866D01*
X201691317Y-106321027D01*
X201714475Y-106333405D01*
X201731851Y-106342693D01*
X201742287Y-106348948D01*
X201780507Y-106374486D01*
X201780512Y-106374488D01*
X201822971Y-106392075D01*
X201828604Y-106394408D01*
X201874508Y-106418945D01*
X201924322Y-106434055D01*
X201972414Y-106453976D01*
X202017499Y-106462943D01*
X202017500Y-106462944D01*
X202023471Y-106464131D01*
X202073282Y-106479242D01*
X202125083Y-106484344D01*
X202176141Y-106494500D01*
X202435213Y-106494500D01*
X202435222Y-106494499D01*
X203152200Y-106494499D01*
X203160885Y-106497049D01*
X203169847Y-106495761D01*
X203193887Y-106506739D01*
X203219239Y-106514184D01*
X203225166Y-106521024D01*
X203233403Y-106524786D01*
X203247692Y-106547020D01*
X203264994Y-106566988D01*
X203267281Y-106577502D01*
X203271177Y-106583564D01*
X203276200Y-106618499D01*
X203276200Y-106830838D01*
X203256515Y-106897877D01*
X203239881Y-106918519D01*
X203232400Y-106926000D01*
X203232400Y-109034000D01*
X203239881Y-109041481D01*
X203273366Y-109102804D01*
X203276200Y-109129162D01*
X203276200Y-109336500D01*
X203256515Y-109403539D01*
X203203711Y-109449294D01*
X203152200Y-109460500D01*
X201640215Y-109460500D01*
X201540920Y-109480250D01*
X201540912Y-109480253D01*
X201473034Y-109508368D01*
X201468428Y-109510016D01*
X201383215Y-109566953D01*
X201383211Y-109566956D01*
X201326954Y-109623213D01*
X201270704Y-109707398D01*
X201270697Y-109707410D01*
X201240253Y-109780911D01*
X201240250Y-109780920D01*
X201220500Y-109880213D01*
X201220500Y-111159786D01*
X201240250Y-111259079D01*
X201240252Y-111259083D01*
X201240253Y-111259087D01*
X201262274Y-111312251D01*
X201268368Y-111326964D01*
X201270017Y-111331573D01*
X201326953Y-111416784D01*
X201326956Y-111416788D01*
X201383213Y-111473045D01*
X201383216Y-111473047D01*
X201467404Y-111529299D01*
X201467406Y-111529300D01*
X201467410Y-111529302D01*
X201502338Y-111543769D01*
X201540913Y-111559747D01*
X201540915Y-111559747D01*
X201540920Y-111559749D01*
X201640213Y-111579499D01*
X201640216Y-111579500D01*
X203152200Y-111579500D01*
X203160885Y-111582050D01*
X203169847Y-111580762D01*
X203193887Y-111591740D01*
X203219239Y-111599185D01*
X203225166Y-111606025D01*
X203233403Y-111609787D01*
X203247692Y-111632021D01*
X203264994Y-111651989D01*
X203267281Y-111662503D01*
X203271177Y-111668565D01*
X203276200Y-111703500D01*
X203276200Y-111881500D01*
X203256515Y-111948539D01*
X203203711Y-111994294D01*
X203152200Y-112005500D01*
X202176141Y-112005500D01*
X202131050Y-112014468D01*
X202131049Y-112014467D01*
X202125063Y-112015657D01*
X202073282Y-112020758D01*
X202023478Y-112035865D01*
X202017497Y-112037055D01*
X202017494Y-112037056D01*
X201972418Y-112046022D01*
X201972415Y-112046023D01*
X201929953Y-112063611D01*
X201918501Y-112067709D01*
X201874507Y-112081055D01*
X201874502Y-112081057D01*
X201833967Y-112102721D01*
X201833968Y-112102722D01*
X201828585Y-112105599D01*
X201780507Y-112125514D01*
X201737243Y-112154421D01*
X201731867Y-112157295D01*
X201731857Y-112157302D01*
X201691317Y-112178972D01*
X201655778Y-112208138D01*
X201651075Y-112211998D01*
X201607796Y-112240917D01*
X201570997Y-112277714D01*
X201566291Y-112281577D01*
X201566288Y-112281580D01*
X201530748Y-112310748D01*
X201508509Y-112337846D01*
X201497719Y-112350993D01*
X201460917Y-112387796D01*
X201432004Y-112431065D01*
X201428141Y-112435773D01*
X201428138Y-112435778D01*
X201398972Y-112471317D01*
X201377302Y-112511857D01*
X201377301Y-112511856D01*
X201374421Y-112517243D01*
X201345514Y-112560507D01*
X201325599Y-112608583D01*
X201322724Y-112613964D01*
X201301057Y-112654502D01*
X201301055Y-112654507D01*
X201287709Y-112698497D01*
X201287710Y-112698498D01*
X201285941Y-112704328D01*
X201266024Y-112752414D01*
X201255870Y-112803455D01*
X201254102Y-112809286D01*
X201254102Y-112809290D01*
X201253668Y-112810721D01*
X201215374Y-112869161D01*
X201151563Y-112897622D01*
X201122003Y-112897492D01*
X201121980Y-112897816D01*
X201117565Y-112897500D01*
X201117564Y-112897500D01*
X187203412Y-112897500D01*
X187197480Y-112897629D01*
X187192069Y-112897747D01*
X187181302Y-112898218D01*
X187181296Y-112898218D01*
X187181282Y-112898219D01*
X187169989Y-112898959D01*
X187169984Y-112898959D01*
X187169960Y-112898961D01*
X186965652Y-112916835D01*
X186943217Y-112919788D01*
X186921928Y-112923542D01*
X186899838Y-112928439D01*
X186706933Y-112980128D01*
X186685346Y-112986934D01*
X186665052Y-112994322D01*
X186665046Y-112994324D01*
X186665039Y-112994327D01*
X186656493Y-112997866D01*
X186644122Y-113002991D01*
X186463157Y-113087377D01*
X186443068Y-113097836D01*
X186424364Y-113108635D01*
X186405283Y-113120792D01*
X186405273Y-113120798D01*
X186405273Y-113120799D01*
X186385597Y-113134575D01*
X186319394Y-113156902D01*
X186314476Y-113157000D01*
X185678500Y-113157000D01*
X185674489Y-113155822D01*
X185670411Y-113156736D01*
X185641246Y-113146061D01*
X185611461Y-113137315D01*
X185608724Y-113134157D01*
X185604798Y-113132720D01*
X185586032Y-113107968D01*
X185565706Y-113084511D01*
X185564391Y-113079424D01*
X185562586Y-113077044D01*
X185559671Y-113061167D01*
X185554872Y-113042603D01*
X185554500Y-113037813D01*
X185554500Y-112956141D01*
X185544343Y-112905080D01*
X185539242Y-112853282D01*
X185525896Y-112809286D01*
X185522945Y-112797509D01*
X185513976Y-112752414D01*
X185494055Y-112704322D01*
X185478945Y-112654508D01*
X185454408Y-112608604D01*
X185452075Y-112602971D01*
X185452075Y-112602970D01*
X185434488Y-112560512D01*
X185434486Y-112560507D01*
X185405564Y-112517223D01*
X185381027Y-112471317D01*
X185348001Y-112431075D01*
X185343906Y-112424946D01*
X185319083Y-112387795D01*
X185319080Y-112387792D01*
X185286591Y-112355304D01*
X185278417Y-112346286D01*
X185249252Y-112310747D01*
X185213713Y-112281582D01*
X185209006Y-112277719D01*
X185172204Y-112240917D01*
X185128924Y-112211998D01*
X185124214Y-112208133D01*
X185124214Y-112208132D01*
X185124213Y-112208132D01*
X185088686Y-112178975D01*
X185088684Y-112178974D01*
X185088683Y-112178973D01*
X185048147Y-112157305D01*
X185042769Y-112154430D01*
X184999493Y-112125514D01*
X184951405Y-112105595D01*
X184946031Y-112102723D01*
X184905499Y-112081058D01*
X184905494Y-112081056D01*
X184905493Y-112081055D01*
X184905492Y-112081055D01*
X184887643Y-112075640D01*
X184861504Y-112067711D01*
X184855671Y-112065941D01*
X184807586Y-112046024D01*
X184756530Y-112035868D01*
X184750705Y-112034101D01*
X184750704Y-112034100D01*
X184706720Y-112020758D01*
X184706716Y-112020757D01*
X184660973Y-112016251D01*
X184648944Y-112014466D01*
X184603862Y-112005500D01*
X184603859Y-112005500D01*
X184396141Y-112005500D01*
X184396140Y-112005500D01*
X182848203Y-112005500D01*
X182693284Y-112020757D01*
X182494503Y-112081056D01*
X182311322Y-112178969D01*
X182311315Y-112178974D01*
X182150747Y-112310747D01*
X182018974Y-112471315D01*
X182018969Y-112471322D01*
X181956843Y-112587553D01*
X181907881Y-112637397D01*
X181847485Y-112653100D01*
X181633570Y-112653100D01*
X181526431Y-112653100D01*
X181448815Y-112673897D01*
X181422942Y-112680830D01*
X181330159Y-112734398D01*
X181330156Y-112734400D01*
X175355875Y-118708681D01*
X175294552Y-118742166D01*
X175268194Y-118745000D01*
X174792758Y-118745000D01*
X174725719Y-118725315D01*
X174682275Y-118677299D01*
X174680653Y-118674116D01*
X174670165Y-118659681D01*
X174578465Y-118533467D01*
X174455533Y-118410535D01*
X174314884Y-118308347D01*
X174288524Y-118294916D01*
X174159978Y-118229418D01*
X173994641Y-118175697D01*
X173865854Y-118155299D01*
X173822926Y-118148500D01*
X173649074Y-118148500D01*
X173591836Y-118157565D01*
X173477360Y-118175697D01*
X173477357Y-118175697D01*
X173312021Y-118229418D01*
X173157115Y-118308347D01*
X173104303Y-118346718D01*
X173016467Y-118410535D01*
X173016465Y-118410537D01*
X173016464Y-118410537D01*
X172893537Y-118533464D01*
X172893537Y-118533465D01*
X172893535Y-118533467D01*
X172857407Y-118583192D01*
X172791346Y-118674116D01*
X172789725Y-118677299D01*
X172779276Y-118688361D01*
X172772955Y-118702203D01*
X172755771Y-118713246D01*
X172741748Y-118728093D01*
X172726070Y-118732333D01*
X172714177Y-118739977D01*
X172679242Y-118745000D01*
X172590000Y-118745000D01*
X172522961Y-118725315D01*
X172477206Y-118672511D01*
X172466000Y-118621000D01*
X172466000Y-117159865D01*
X172485685Y-117092826D01*
X172538489Y-117047071D01*
X172607647Y-117037127D01*
X172671203Y-117066152D01*
X172707931Y-117121547D01*
X172712884Y-117136791D01*
X172791774Y-117291622D01*
X172854928Y-117378544D01*
X172854928Y-117378545D01*
X173291086Y-116942386D01*
X173335901Y-117020007D01*
X173428993Y-117113099D01*
X173506612Y-117157912D01*
X173070453Y-117594070D01*
X173157379Y-117657225D01*
X173157385Y-117657229D01*
X173312206Y-117736115D01*
X173477478Y-117789816D01*
X173649108Y-117817000D01*
X173822892Y-117817000D01*
X173994521Y-117789816D01*
X174159793Y-117736115D01*
X174314622Y-117657225D01*
X174401544Y-117594071D01*
X174401544Y-117594070D01*
X173965387Y-117157912D01*
X174043007Y-117113099D01*
X174136099Y-117020007D01*
X174180912Y-116942386D01*
X174617070Y-117378544D01*
X174617071Y-117378544D01*
X174680225Y-117291622D01*
X174759115Y-117136793D01*
X174812816Y-116971521D01*
X174840000Y-116799892D01*
X174840000Y-116626107D01*
X174812816Y-116454478D01*
X174759115Y-116289206D01*
X174680229Y-116134385D01*
X174680225Y-116134379D01*
X174615790Y-116045691D01*
X174608267Y-116056256D01*
X174180912Y-116483611D01*
X174136099Y-116405993D01*
X174043007Y-116312901D01*
X173965386Y-116268086D01*
X174334655Y-115898819D01*
X174395978Y-115865334D01*
X174400080Y-115864514D01*
X174411119Y-115862500D01*
X174437370Y-115862500D01*
X174493377Y-115847492D01*
X174498330Y-115846589D01*
X174528253Y-115849746D01*
X174538867Y-115849998D01*
X174546604Y-115836069D01*
X174571653Y-115816990D01*
X174633643Y-115781201D01*
X175661801Y-114753043D01*
X175715370Y-114660258D01*
X175743100Y-114556770D01*
X175743100Y-114449630D01*
X175743100Y-113584382D01*
X175762785Y-113517343D01*
X175779419Y-113496701D01*
X178834913Y-110441207D01*
X181840500Y-110441207D01*
X181840500Y-110598792D01*
X181845484Y-110649403D01*
X181845484Y-110649408D01*
X181876230Y-110803983D01*
X181890995Y-110852655D01*
X181951298Y-110998241D01*
X181975288Y-111043121D01*
X181975289Y-111043122D01*
X182062823Y-111174127D01*
X182062833Y-111174141D01*
X182095109Y-111213469D01*
X182206530Y-111324890D01*
X182245858Y-111357166D01*
X182245872Y-111357176D01*
X182376877Y-111444710D01*
X182376878Y-111444711D01*
X182376883Y-111444713D01*
X182376888Y-111444717D01*
X182421751Y-111468698D01*
X182421757Y-111468700D01*
X182421758Y-111468701D01*
X182432248Y-111473046D01*
X182567342Y-111529004D01*
X182595918Y-111537672D01*
X182616016Y-111543769D01*
X182616020Y-111543769D01*
X182616024Y-111543771D01*
X182770582Y-111574514D01*
X182821207Y-111579500D01*
X182821208Y-111579500D01*
X185139784Y-111579500D01*
X185139785Y-111579499D01*
X185172883Y-111572915D01*
X185239079Y-111559749D01*
X185239082Y-111559747D01*
X185239087Y-111559747D01*
X185306967Y-111531630D01*
X185311575Y-111529981D01*
X185312596Y-111529299D01*
X185312597Y-111529299D01*
X185396785Y-111473046D01*
X185453047Y-111416784D01*
X185509299Y-111332596D01*
X185539747Y-111259087D01*
X185559500Y-111159782D01*
X185559500Y-109880218D01*
X185559500Y-109880215D01*
X185559499Y-109880213D01*
X185539749Y-109780920D01*
X185539746Y-109780911D01*
X185511632Y-109713036D01*
X185509982Y-109708425D01*
X185453046Y-109623215D01*
X185453043Y-109623211D01*
X185396786Y-109566954D01*
X185312601Y-109510704D01*
X185312589Y-109510697D01*
X185239088Y-109480253D01*
X185239079Y-109480250D01*
X185139785Y-109460500D01*
X185139782Y-109460500D01*
X182821207Y-109460500D01*
X182814281Y-109461182D01*
X182770596Y-109465484D01*
X182770591Y-109465484D01*
X182616016Y-109496230D01*
X182567344Y-109510995D01*
X182421758Y-109571298D01*
X182376878Y-109595288D01*
X182376877Y-109595289D01*
X182245872Y-109682823D01*
X182245858Y-109682833D01*
X182206530Y-109715109D01*
X182095109Y-109826530D01*
X182062833Y-109865858D01*
X182062823Y-109865872D01*
X181975289Y-109996877D01*
X181975288Y-109996878D01*
X181951298Y-110041758D01*
X181890995Y-110187344D01*
X181876230Y-110236016D01*
X181845484Y-110390591D01*
X181845484Y-110390596D01*
X181840500Y-110441207D01*
X178834913Y-110441207D01*
X178925638Y-110350482D01*
X179279243Y-109996877D01*
X179828401Y-109447719D01*
X179881970Y-109354934D01*
X179909700Y-109251446D01*
X179909700Y-109144307D01*
X179909700Y-108046506D01*
X179918344Y-108017065D01*
X179924868Y-107987079D01*
X179928622Y-107982063D01*
X179929385Y-107979467D01*
X179946019Y-107958825D01*
X179976642Y-107928202D01*
X181845500Y-107928202D01*
X181845500Y-108031796D01*
X181860757Y-108186715D01*
X181921056Y-108385496D01*
X182018969Y-108568677D01*
X182018972Y-108568681D01*
X182018972Y-108568682D01*
X182018974Y-108568684D01*
X182150747Y-108729252D01*
X182249729Y-108810483D01*
X182311317Y-108861027D01*
X182311320Y-108861028D01*
X182311322Y-108861030D01*
X182494503Y-108958943D01*
X182494505Y-108958943D01*
X182494508Y-108958945D01*
X182693282Y-109019242D01*
X182848199Y-109034500D01*
X184390006Y-109034499D01*
X184390028Y-109034500D01*
X184396141Y-109034500D01*
X184603861Y-109034500D01*
X184619383Y-109031411D01*
X184654919Y-109024343D01*
X184706718Y-109019242D01*
X184756530Y-109004131D01*
X184762503Y-109002943D01*
X184762504Y-109002943D01*
X184778892Y-108999683D01*
X184807586Y-108993976D01*
X184855677Y-108974055D01*
X184905492Y-108958945D01*
X184951399Y-108934406D01*
X184999493Y-108914486D01*
X185042776Y-108885564D01*
X185088683Y-108861027D01*
X185128924Y-108828001D01*
X185172204Y-108799083D01*
X185204903Y-108766382D01*
X185205498Y-108765794D01*
X185209436Y-108761926D01*
X185249252Y-108729252D01*
X185278426Y-108693701D01*
X185286572Y-108684713D01*
X185319083Y-108652204D01*
X185344633Y-108613964D01*
X185351848Y-108604236D01*
X185381027Y-108568683D01*
X185402698Y-108528137D01*
X185408941Y-108517720D01*
X185434486Y-108479493D01*
X185454406Y-108431399D01*
X185478945Y-108385492D01*
X185494055Y-108335677D01*
X185513976Y-108287586D01*
X185517426Y-108270236D01*
X185522944Y-108242501D01*
X185524133Y-108236523D01*
X185539242Y-108186718D01*
X185544344Y-108134916D01*
X185544845Y-108132400D01*
X185545533Y-108128939D01*
X185545533Y-108128937D01*
X185554500Y-108083860D01*
X185554500Y-107877449D01*
X185554500Y-107876141D01*
X185545478Y-107830789D01*
X185545404Y-107830403D01*
X185545416Y-107830276D01*
X185544991Y-107827414D01*
X201235512Y-107827414D01*
X201235665Y-107827600D01*
X201803198Y-107827600D01*
X201780000Y-107914174D01*
X201780000Y-108045826D01*
X201803198Y-108132400D01*
X201235665Y-108132400D01*
X201235513Y-108132585D01*
X201236747Y-108140902D01*
X201241249Y-108186620D01*
X201254585Y-108230583D01*
X201288185Y-108341345D01*
X201301517Y-108385296D01*
X201301520Y-108385303D01*
X201323174Y-108425816D01*
X201328375Y-108436812D01*
X201345957Y-108479256D01*
X201371479Y-108517453D01*
X201433779Y-108610691D01*
X201433781Y-108610692D01*
X201835086Y-108209386D01*
X201879901Y-108287007D01*
X201972993Y-108380099D01*
X202050612Y-108424912D01*
X201665041Y-108810483D01*
X201681215Y-108852090D01*
X201691594Y-108860608D01*
X201691597Y-108860610D01*
X201732103Y-108882260D01*
X201742542Y-108888517D01*
X201780746Y-108914044D01*
X201823190Y-108931625D01*
X201930111Y-108975913D01*
X201972556Y-108993494D01*
X201972559Y-108993495D01*
X202017616Y-109002457D01*
X202017617Y-109002457D01*
X202131133Y-109025036D01*
X202131138Y-109025037D01*
X202176190Y-109034000D01*
X202927600Y-109034000D01*
X202927600Y-108132400D01*
X202756802Y-108132400D01*
X202780000Y-108045826D01*
X202780000Y-107914174D01*
X202756802Y-107827600D01*
X202927600Y-107827600D01*
X202927600Y-106926000D01*
X202176189Y-106926000D01*
X202131128Y-106934962D01*
X202131127Y-106934961D01*
X202017614Y-106957541D01*
X202017611Y-106957542D01*
X201972560Y-106966503D01*
X201972553Y-106966505D01*
X201930114Y-106984083D01*
X201930115Y-106984084D01*
X201823189Y-107028374D01*
X201823187Y-107028374D01*
X201780744Y-107045956D01*
X201742543Y-107071479D01*
X201742544Y-107071480D01*
X201649307Y-107133778D01*
X201649306Y-107133780D01*
X202050613Y-107535087D01*
X201972993Y-107579901D01*
X201879901Y-107672993D01*
X201835087Y-107750612D01*
X201433780Y-107349306D01*
X201433778Y-107349307D01*
X201371481Y-107442541D01*
X201371482Y-107442541D01*
X201345956Y-107480744D01*
X201328373Y-107523188D01*
X201328374Y-107523189D01*
X201284084Y-107630114D01*
X201266505Y-107672553D01*
X201266503Y-107672560D01*
X201257542Y-107717611D01*
X201254587Y-107729411D01*
X201241249Y-107773381D01*
X201236746Y-107819102D01*
X201235512Y-107827414D01*
X185544991Y-107827414D01*
X185543746Y-107819017D01*
X185539242Y-107773284D01*
X185539242Y-107773283D01*
X185539242Y-107773282D01*
X185525896Y-107729288D01*
X185522945Y-107717509D01*
X185513976Y-107672414D01*
X185494055Y-107624322D01*
X185478945Y-107574508D01*
X185454408Y-107528604D01*
X185452075Y-107522971D01*
X185434488Y-107480512D01*
X185434486Y-107480507D01*
X185405564Y-107437223D01*
X185381027Y-107391317D01*
X185348001Y-107351075D01*
X185343906Y-107344946D01*
X185319083Y-107307795D01*
X185319080Y-107307792D01*
X185286591Y-107275304D01*
X185278415Y-107266284D01*
X185272152Y-107258652D01*
X185272151Y-107258651D01*
X185249252Y-107230747D01*
X185213713Y-107201582D01*
X185204695Y-107193408D01*
X185172207Y-107160919D01*
X185172206Y-107160918D01*
X185159152Y-107152196D01*
X185133980Y-107135376D01*
X185124213Y-107128132D01*
X185088686Y-107098975D01*
X185088684Y-107098974D01*
X185088683Y-107098973D01*
X185048147Y-107077305D01*
X185042769Y-107074430D01*
X184999493Y-107045514D01*
X184951405Y-107025595D01*
X184946031Y-107022723D01*
X184905499Y-107001058D01*
X184905494Y-107001056D01*
X184905493Y-107001055D01*
X184905492Y-107001055D01*
X184887643Y-106995640D01*
X184861504Y-106987711D01*
X184855671Y-106985941D01*
X184807586Y-106966024D01*
X184756530Y-106955868D01*
X184750705Y-106954101D01*
X184750704Y-106954100D01*
X184706720Y-106940758D01*
X184706716Y-106940757D01*
X184660973Y-106936251D01*
X184648944Y-106934466D01*
X184603862Y-106925500D01*
X184603859Y-106925500D01*
X184396141Y-106925500D01*
X184396140Y-106925500D01*
X182848203Y-106925500D01*
X182693284Y-106940757D01*
X182494503Y-107001056D01*
X182311322Y-107098969D01*
X182311315Y-107098974D01*
X182150747Y-107230747D01*
X182018974Y-107391315D01*
X182018969Y-107391322D01*
X181921056Y-107574503D01*
X181860757Y-107773283D01*
X181855132Y-107830403D01*
X181846882Y-107914174D01*
X181845500Y-107928202D01*
X179976642Y-107928202D01*
X181005625Y-106899219D01*
X181066948Y-106865734D01*
X181093306Y-106862900D01*
X181164592Y-106862900D01*
X181164593Y-106862899D01*
X181287369Y-106838478D01*
X181403022Y-106790573D01*
X181507108Y-106721025D01*
X181595625Y-106632508D01*
X181665173Y-106528422D01*
X181713078Y-106412769D01*
X181719974Y-106378099D01*
X181752358Y-106316191D01*
X181813073Y-106281616D01*
X181882843Y-106285355D01*
X181939515Y-106326221D01*
X181944696Y-106333405D01*
X181946956Y-106336788D01*
X182003213Y-106393045D01*
X182003216Y-106393047D01*
X182087404Y-106449299D01*
X182087406Y-106449300D01*
X182087410Y-106449302D01*
X182120346Y-106462944D01*
X182160913Y-106479747D01*
X182160915Y-106479747D01*
X182160920Y-106479749D01*
X182260213Y-106499499D01*
X182260216Y-106499500D01*
X182260218Y-106499500D01*
X184578790Y-106499500D01*
X184578793Y-106499500D01*
X184623513Y-106495095D01*
X184635658Y-106494499D01*
X185154742Y-106494499D01*
X185154748Y-106494499D01*
X185185451Y-106491621D01*
X185314773Y-106446369D01*
X185425010Y-106365010D01*
X185506369Y-106254773D01*
X185551621Y-106125451D01*
X185554500Y-106094749D01*
X185554499Y-105575660D01*
X185555096Y-105563508D01*
X185559500Y-105518790D01*
X185559500Y-105361210D01*
X185557031Y-105336141D01*
X185555095Y-105316486D01*
X185554499Y-105304342D01*
X185554499Y-104899000D01*
X185574184Y-104831961D01*
X185626988Y-104786206D01*
X185678499Y-104775000D01*
X201228490Y-104775000D01*
X201295529Y-104794685D01*
G37*
%TD.AperFunction*%
%TD*%
M02*
