%TF.GenerationSoftware,KiCad,Pcbnew,9.0.2-9.0.2-0~ubuntu24.04.1*%
%TF.CreationDate,2025-06-08T15:03:38-07:00*%
%TF.ProjectId,Pico-CAN,5069636f-2d43-4414-9e2e-6b696361645f,1.0*%
%TF.SameCoordinates,Original*%
%TF.FileFunction,Paste,Top*%
%TF.FilePolarity,Positive*%
%FSLAX46Y46*%
G04 Gerber Fmt 4.6, Leading zero omitted, Abs format (unit mm)*
G04 Created by KiCad (PCBNEW 9.0.2-9.0.2-0~ubuntu24.04.1) date 2025-06-08 15:03:38*
%MOMM*%
%LPD*%
G01*
G04 APERTURE LIST*
G04 Aperture macros list*
%AMRoundRect*
0 Rectangle with rounded corners*
0 $1 Rounding radius*
0 $2 $3 $4 $5 $6 $7 $8 $9 X,Y pos of 4 corners*
0 Add a 4 corners polygon primitive as box body*
4,1,4,$2,$3,$4,$5,$6,$7,$8,$9,$2,$3,0*
0 Add four circle primitives for the rounded corners*
1,1,$1+$1,$2,$3*
1,1,$1+$1,$4,$5*
1,1,$1+$1,$6,$7*
1,1,$1+$1,$8,$9*
0 Add four rect primitives between the rounded corners*
20,1,$1+$1,$2,$3,$4,$5,0*
20,1,$1+$1,$4,$5,$6,$7,0*
20,1,$1+$1,$6,$7,$8,$9,0*
20,1,$1+$1,$8,$9,$2,$3,0*%
G04 Aperture macros list end*
%ADD10RoundRect,0.250000X0.475000X-0.337500X0.475000X0.337500X-0.475000X0.337500X-0.475000X-0.337500X0*%
%ADD11RoundRect,0.150000X-0.150000X0.587500X-0.150000X-0.587500X0.150000X-0.587500X0.150000X0.587500X0*%
%ADD12RoundRect,0.250000X-0.475000X0.337500X-0.475000X-0.337500X0.475000X-0.337500X0.475000X0.337500X0*%
%ADD13RoundRect,0.250000X0.350000X0.450000X-0.350000X0.450000X-0.350000X-0.450000X0.350000X-0.450000X0*%
%ADD14RoundRect,0.150000X-0.150000X0.825000X-0.150000X-0.825000X0.150000X-0.825000X0.150000X0.825000X0*%
%ADD15R,1.200000X0.950000*%
%ADD16RoundRect,0.250000X0.337500X0.475000X-0.337500X0.475000X-0.337500X-0.475000X0.337500X-0.475000X0*%
%ADD17RoundRect,0.150000X0.150000X-0.725000X0.150000X0.725000X-0.150000X0.725000X-0.150000X-0.725000X0*%
%ADD18RoundRect,0.250000X-0.337500X-0.475000X0.337500X-0.475000X0.337500X0.475000X-0.337500X0.475000X0*%
G04 APERTURE END LIST*
D10*
%TO.C,C3*%
X213436200Y-134870100D03*
X213436200Y-132795100D03*
%TD*%
D11*
%TO.C,D1*%
X221563100Y-125122700D03*
X219663100Y-125122700D03*
X220613100Y-126997700D03*
%TD*%
D12*
%TO.C,C2*%
X224790000Y-132185500D03*
X224790000Y-134260500D03*
%TD*%
D13*
%TO.C,R1*%
X211197500Y-127690000D03*
X209197500Y-127690000D03*
%TD*%
D14*
%TO.C,U3*%
X215507500Y-139215000D03*
X214237500Y-139215000D03*
X212967500Y-139215000D03*
X211697500Y-139215000D03*
X210427500Y-139215000D03*
X209157500Y-139215000D03*
X207887500Y-139215000D03*
X207887500Y-144165000D03*
X209157500Y-144165000D03*
X210427500Y-144165000D03*
X211697500Y-144165000D03*
X212967500Y-144165000D03*
X214237500Y-144165000D03*
X215507500Y-144165000D03*
%TD*%
D15*
%TO.C,U1*%
X211361200Y-133287800D03*
X209161200Y-133287800D03*
X209161200Y-135037800D03*
X211361200Y-135037800D03*
%TD*%
D16*
%TO.C,C4*%
X221763500Y-139369800D03*
X219688500Y-139369800D03*
%TD*%
D17*
%TO.C,U2*%
X218792500Y-136265000D03*
X220062500Y-136265000D03*
X221332500Y-136265000D03*
X222602500Y-136265000D03*
X222602500Y-131115000D03*
X221332500Y-131115000D03*
X220062500Y-131115000D03*
X218792500Y-131115000D03*
%TD*%
D10*
%TO.C,C5*%
X217703400Y-144471300D03*
X217703400Y-142396300D03*
%TD*%
D18*
%TO.C,C1*%
X209160000Y-129690000D03*
X211235000Y-129690000D03*
%TD*%
M02*
