M48
; DRILL file {KiCad 9.0.7-9.0.7~ubuntu24.04.1} date 2026-01-24T16:40:20-0800
; FORMAT={-:-/ absolute / metric / decimal}
; #@! TF.CreationDate,2026-01-24T16:40:20-08:00
; #@! TF.GenerationSoftware,Kicad,Pcbnew,9.0.7-9.0.7~ubuntu24.04.1
; #@! TF.FileFunction,MixedPlating,1,2
FMAT,2
METRIC
; #@! TA.AperFunction,Plated,PTH,ComponentDrill
T1C1.067
; #@! TA.AperFunction,NonPlated,NPTH,ComponentDrill
T2C3.400
%
G90
G05
T1
X176.784Y-115.948
X176.784Y-118.488
X176.784Y-126.111
X176.784Y-128.651
X176.784Y-136.271
X176.784Y-138.811
X180.594Y-115.948
X180.594Y-118.488
X180.594Y-126.111
X180.594Y-128.651
X180.594Y-136.271
X180.594Y-138.811
T2
X168.144Y-114.548
X168.144Y-119.888
X168.144Y-124.711
X168.144Y-130.051
X168.144Y-134.871
X168.144Y-140.211
X189.234Y-114.548
X189.234Y-119.888
X189.234Y-124.711
X189.234Y-130.051
X189.234Y-134.871
X189.234Y-140.211
M30
