%TF.GenerationSoftware,KiCad,Pcbnew,9.0.7-9.0.7~ubuntu24.04.1*%
%TF.CreationDate,2026-01-24T17:44:50-08:00*%
%TF.ProjectId,CAN-hub,43414e2d-6875-4622-9e6b-696361645f70,1*%
%TF.SameCoordinates,Original*%
%TF.FileFunction,Copper,L1,Top*%
%TF.FilePolarity,Positive*%
%FSLAX46Y46*%
G04 Gerber Fmt 4.6, Leading zero omitted, Abs format (unit mm)*
G04 Created by KiCad (PCBNEW 9.0.7-9.0.7~ubuntu24.04.1) date 2026-01-24 17:44:50*
%MOMM*%
%LPD*%
G01*
G04 APERTURE LIST*
%TA.AperFunction,ComponentPad*%
%ADD10R,1.778000X1.778000*%
%TD*%
%TA.AperFunction,ComponentPad*%
%ADD11C,1.778000*%
%TD*%
%TA.AperFunction,Conductor*%
%ADD12C,0.635000*%
%TD*%
G04 APERTURE END LIST*
D10*
%TO.P,J3,1,Pin_1*%
%TO.N,/CAN_L*%
X176784000Y-128651000D03*
D11*
%TO.P,J3,2,Pin_2*%
%TO.N,/CAN_H*%
X176784000Y-126111000D03*
%TD*%
D10*
%TO.P,J4,1,Pin_1*%
%TO.N,/CAN_L*%
X180594000Y-126111000D03*
D11*
%TO.P,J4,2,Pin_2*%
%TO.N,/CAN_H*%
X180594000Y-128651000D03*
%TD*%
D10*
%TO.P,J5,1,Pin_1*%
%TO.N,/CAN_L*%
X176784000Y-138811000D03*
D11*
%TO.P,J5,2,Pin_2*%
%TO.N,/CAN_H*%
X176784000Y-136271000D03*
%TD*%
D10*
%TO.P,J6,1,Pin_1*%
%TO.N,/CAN_L*%
X180594000Y-136271000D03*
D11*
%TO.P,J6,2,Pin_2*%
%TO.N,/CAN_H*%
X180594000Y-138811000D03*
%TD*%
D10*
%TO.P,J1,1,Pin_1*%
%TO.N,/CAN_L*%
X176784000Y-118488000D03*
D11*
%TO.P,J1,2,Pin_2*%
%TO.N,/CAN_H*%
X176784000Y-115948000D03*
%TD*%
D10*
%TO.P,J2,1,Pin_1*%
%TO.N,/CAN_L*%
X180594000Y-115948000D03*
D11*
%TO.P,J2,2,Pin_2*%
%TO.N,/CAN_H*%
X180594000Y-118488000D03*
%TD*%
D12*
%TO.N,/CAN_H*%
X178689000Y-118491000D02*
X178689000Y-125984000D01*
X178689000Y-136398000D02*
X178689000Y-138163235D01*
X178816000Y-128651000D02*
X178689000Y-128524000D01*
X178562000Y-136271000D02*
X178689000Y-136398000D01*
X178692000Y-118488000D02*
X178689000Y-118491000D01*
X178689000Y-138163235D02*
X179336765Y-138811000D01*
X178689000Y-125984000D02*
X178689000Y-128524000D01*
X178689000Y-128524000D02*
X178689000Y-136398000D01*
X178562000Y-126111000D02*
X178689000Y-125984000D01*
X176784000Y-136271000D02*
X178562000Y-136271000D01*
X180594000Y-118488000D02*
X178692000Y-118488000D01*
X178041235Y-115948000D02*
X178689000Y-116595765D01*
X176784000Y-115948000D02*
X178041235Y-115948000D01*
X179336765Y-138811000D02*
X180594000Y-138811000D01*
X178689000Y-116595765D02*
X178689000Y-118491000D01*
X176784000Y-126111000D02*
X178562000Y-126111000D01*
X180594000Y-128651000D02*
X178816000Y-128651000D01*
%TD*%
M02*
