M48
; DRILL file KiCad 10.0.3-10.0.3~ubuntu26.04.1 date 2026-05-25T23:09:15
; FORMAT={-:-/ absolute / metric / decimal}
; #@! TF.CreationDate,2026-05-25T23:09:15-07:00
; #@! TF.GenerationSoftware,Kicad,Pcbnew,10.0.3-10.0.3~ubuntu26.04.1
; #@! TF.FileFunction,MixedPlating,1,2
FMAT,2
METRIC
; #@! TA.AperFunction,Plated,PTH,ViaDrill
T1C0.300
; #@! TA.AperFunction,Plated,PTH,ViaDrill
T2C0.508
%
G90
G05
T1
X231.069Y-124.581
X232.049Y-125.311
X235.176Y-121.911
X235.276Y-135.411
X235.326Y-117.981
X235.557Y-136.735
X236.376Y-126.205
X236.397Y-133.701
X236.406Y-129.171
X236.416Y-127.681
X236.426Y-130.681
X236.436Y-120.141
X236.436Y-132.181
X236.486Y-134.871
T2
X224.359Y-132.361
X224.379Y-122.751
X225.889Y-121.501
X225.889Y-124.001
X225.889Y-131.101
X225.889Y-133.611
X227.409Y-132.351
X227.439Y-122.691
M30
