<?xml version="1.0" standalone="no"?>
 <!DOCTYPE svg PUBLIC "-//W3C//DTD SVG 1.1//EN" 
 "http://www.w3.org/Graphics/SVG/1.1/DTD/svg11.dtd"> 
<svg
  xmlns:svg="http://www.w3.org/2000/svg"
  xmlns="http://www.w3.org/2000/svg"
  xmlns:xlink="http://www.w3.org/1999/xlink"
  version="1.1"
  width="279.400000mm" height="215.900000mm" viewBox="0.000000 0.000000 279.400000 215.900000">
<title>SVG Image created as CAN_terminator-B_Silkscreen.svg date 2024/12/14 13:45:49 </title>
  <desc>Image generated by PCBNEW </desc>
<g style="fill:#000000; fill-opacity:1.000000;stroke:#000000; stroke-opacity:1.000000;
stroke-linecap:round; stroke-linejoin:round;"
 transform="translate(0 0) scale(1 1)">
</g>
<g style="fill:none; 
stroke:#000000; stroke-width:0.152400; stroke-opacity:1; 
stroke-linecap:round; stroke-linejoin:round;">
<g transform="rotate(270.000000 123.635835 118.237000)">
<text x="123.635835" y="118.618000"
textLength="3.098800" font-size="1.016000" lengthAdjust="spacingAndGlyphs"
text-anchor="middle" opacity="0" stroke-opacity="0">CAN </text>
</g>
<g class="stroked-text"><desc>CAN </desc>
<path d="M123.907855 119.017142
L123.944140 119.053428
" />
<path d="M123.944140 119.053428
L123.980426 119.162285
" />
<path d="M123.980426 119.162285
L123.980426 119.234857
" />
<path d="M123.980426 119.234857
L123.944140 119.343714
" />
<path d="M123.944140 119.343714
L123.871569 119.416285
" />
<path d="M123.871569 119.416285
L123.798998 119.452571
" />
<path d="M123.798998 119.452571
L123.653855 119.488857
" />
<path d="M123.653855 119.488857
L123.544998 119.488857
" />
<path d="M123.544998 119.488857
L123.399855 119.452571
" />
<path d="M123.399855 119.452571
L123.327283 119.416285
" />
<path d="M123.327283 119.416285
L123.254712 119.343714
" />
<path d="M123.254712 119.343714
L123.218426 119.234857
" />
<path d="M123.218426 119.234857
L123.218426 119.162285
" />
<path d="M123.218426 119.162285
L123.254712 119.053428
" />
<path d="M123.254712 119.053428
L123.290998 119.017142
" />
<path d="M123.762712 118.726857
L123.762712 118.364000
" />
<path d="M123.980426 118.799428
L123.218426 118.545428
" />
<path d="M123.218426 118.545428
L123.980426 118.291428
" />
<path d="M123.980426 118.037428
L123.218426 118.037428
" />
<path d="M123.218426 118.037428
L123.980426 117.601999
" />
<path d="M123.980426 117.601999
L123.218426 117.601999
" />
</g><g transform="rotate(270.000000 124.862612 118.237000)">
<text x="124.862612" y="118.618000"
textLength="7.162800" font-size="1.016000" lengthAdjust="spacingAndGlyphs"
text-anchor="middle" opacity="0" stroke-opacity="0">TERMINATOR</text>
</g>
<g class="stroked-text"><desc>TERMINATOR</desc>
<path d="M124.445203 121.593428
L124.445203 121.158000
" />
<path d="M125.207203 121.375714
L124.445203 121.375714
" />
<path d="M124.808060 120.904000
L124.808060 120.650000
" />
<path d="M125.207203 120.541143
L125.207203 120.904000
" />
<path d="M125.207203 120.904000
L124.445203 120.904000
" />
<path d="M124.445203 120.904000
L124.445203 120.541143
" />
<path d="M125.207203 119.779142
L124.844346 120.033142
" />
<path d="M125.207203 120.214571
L124.445203 120.214571
" />
<path d="M124.445203 120.214571
L124.445203 119.924285
" />
<path d="M124.445203 119.924285
L124.481489 119.851714
" />
<path d="M124.481489 119.851714
L124.517775 119.815428
" />
<path d="M124.517775 119.815428
L124.590346 119.779142
" />
<path d="M124.590346 119.779142
L124.699203 119.779142
" />
<path d="M124.699203 119.779142
L124.771775 119.815428
" />
<path d="M124.771775 119.815428
L124.808060 119.851714
" />
<path d="M124.808060 119.851714
L124.844346 119.924285
" />
<path d="M124.844346 119.924285
L124.844346 120.214571
" />
<path d="M125.207203 119.452571
L124.445203 119.452571
" />
<path d="M124.445203 119.452571
L124.989489 119.198571
" />
<path d="M124.989489 119.198571
L124.445203 118.944571
" />
<path d="M124.445203 118.944571
L125.207203 118.944571
" />
<path d="M125.207203 118.581714
L124.445203 118.581714
" />
<path d="M125.207203 118.218857
L124.445203 118.218857
" />
<path d="M124.445203 118.218857
L125.207203 117.783428
" />
<path d="M125.207203 117.783428
L124.445203 117.783428
" />
<path d="M124.989489 117.456857
L124.989489 117.094000
" />
<path d="M125.207203 117.529428
L124.445203 117.275428
" />
<path d="M124.445203 117.275428
L125.207203 117.021428
" />
<path d="M124.445203 116.876285
L124.445203 116.440857
" />
<path d="M125.207203 116.658571
L124.445203 116.658571
" />
<path d="M124.445203 116.041714
L124.445203 115.896571
" />
<path d="M124.445203 115.896571
L124.481489 115.824000
" />
<path d="M124.481489 115.824000
L124.554060 115.751428
" />
<path d="M124.554060 115.751428
L124.699203 115.715143
" />
<path d="M124.699203 115.715143
L124.953203 115.715143
" />
<path d="M124.953203 115.715143
L125.098346 115.751428
" />
<path d="M125.098346 115.751428
L125.170917 115.824000
" />
<path d="M125.170917 115.824000
L125.207203 115.896571
" />
<path d="M125.207203 115.896571
L125.207203 116.041714
" />
<path d="M125.207203 116.041714
L125.170917 116.114286
" />
<path d="M125.170917 116.114286
L125.098346 116.186857
" />
<path d="M125.098346 116.186857
L124.953203 116.223143
" />
<path d="M124.953203 116.223143
L124.699203 116.223143
" />
<path d="M124.699203 116.223143
L124.554060 116.186857
" />
<path d="M124.554060 116.186857
L124.481489 116.114286
" />
<path d="M124.481489 116.114286
L124.445203 116.041714
" />
<path d="M125.207203 114.953142
L124.844346 115.207142
" />
<path d="M125.207203 115.388571
L124.445203 115.388571
" />
<path d="M124.445203 115.388571
L124.445203 115.098285
" />
<path d="M124.445203 115.098285
L124.481489 115.025714
" />
<path d="M124.481489 115.025714
L124.517775 114.989428
" />
<path d="M124.517775 114.989428
L124.590346 114.953142
" />
<path d="M124.590346 114.953142
L124.699203 114.953142
" />
<path d="M124.699203 114.953142
L124.771775 114.989428
" />
<path d="M124.771775 114.989428
L124.808060 115.025714
" />
<path d="M124.808060 115.025714
L124.844346 115.098285
" />
<path d="M124.844346 115.098285
L124.844346 115.388571
" />
</g><g transform="rotate(270.000000 126.089389 118.237000)">
<text x="126.089389" y="118.618000"
textLength="6.545942" font-size="1.016000" lengthAdjust="spacingAndGlyphs"
text-anchor="middle" opacity="0" stroke-opacity="0">WCP-1834</text>
</g>
<g class="stroked-text"><desc>WCP-1834</desc>
<path d="M125.671980 121.248713
L126.433980 121.067285
" />
<path d="M126.433980 121.067285
L125.889694 120.922142
" />
<path d="M125.889694 120.922142
L126.433980 120.776999
" />
<path d="M126.433980 120.776999
L125.671980 120.595571
" />
<path d="M126.361409 119.869856
L126.397694 119.906142
" />
<path d="M126.397694 119.906142
L126.433980 120.014999
" />
<path d="M126.433980 120.014999
L126.433980 120.087571
" />
<path d="M126.433980 120.087571
L126.397694 120.196428
" />
<path d="M126.397694 120.196428
L126.325123 120.268999
" />
<path d="M126.325123 120.268999
L126.252552 120.305285
" />
<path d="M126.252552 120.305285
L126.107409 120.341571
" />
<path d="M126.107409 120.341571
L125.998552 120.341571
" />
<path d="M125.998552 120.341571
L125.853409 120.305285
" />
<path d="M125.853409 120.305285
L125.780837 120.268999
" />
<path d="M125.780837 120.268999
L125.708266 120.196428
" />
<path d="M125.708266 120.196428
L125.671980 120.087571
" />
<path d="M125.671980 120.087571
L125.671980 120.014999
" />
<path d="M125.671980 120.014999
L125.708266 119.906142
" />
<path d="M125.708266 119.906142
L125.744552 119.869856
" />
<path d="M126.433980 119.543285
L125.671980 119.543285
" />
<path d="M125.671980 119.543285
L125.671980 119.252999
" />
<path d="M125.671980 119.252999
L125.708266 119.180428
" />
<path d="M125.708266 119.180428
L125.744552 119.144142
" />
<path d="M125.744552 119.144142
L125.817123 119.107856
" />
<path d="M125.817123 119.107856
L125.925980 119.107856
" />
<path d="M125.925980 119.107856
L125.998552 119.144142
" />
<path d="M125.998552 119.144142
L126.034837 119.180428
" />
<path d="M126.034837 119.180428
L126.071123 119.252999
" />
<path d="M126.071123 119.252999
L126.071123 119.543285
" />
<path d="M126.143694 118.781285
L126.143694 118.200714
" />
<path d="M126.433980 117.438713
L126.433980 117.874142
" />
<path d="M126.433980 117.656427
L125.671980 117.656427
" />
<path d="M125.671980 117.656427
L125.780837 117.728999
" />
<path d="M125.780837 117.728999
L125.853409 117.801570
" />
<path d="M125.853409 117.801570
L125.889694 117.874142
" />
<path d="M125.998552 117.003285
L125.962266 117.075856
" />
<path d="M125.962266 117.075856
L125.925980 117.112142
" />
<path d="M125.925980 117.112142
L125.853409 117.148428
" />
<path d="M125.853409 117.148428
L125.817123 117.148428
" />
<path d="M125.817123 117.148428
L125.744552 117.112142
" />
<path d="M125.744552 117.112142
L125.708266 117.075856
" />
<path d="M125.708266 117.075856
L125.671980 117.003285
" />
<path d="M125.671980 117.003285
L125.671980 116.858142
" />
<path d="M125.671980 116.858142
L125.708266 116.785571
" />
<path d="M125.708266 116.785571
L125.744552 116.749285
" />
<path d="M125.744552 116.749285
L125.817123 116.712999
" />
<path d="M125.817123 116.712999
L125.853409 116.712999
" />
<path d="M125.853409 116.712999
L125.925980 116.749285
" />
<path d="M125.925980 116.749285
L125.962266 116.785571
" />
<path d="M125.962266 116.785571
L125.998552 116.858142
" />
<path d="M125.998552 116.858142
L125.998552 117.003285
" />
<path d="M125.998552 117.003285
L126.034837 117.075856
" />
<path d="M126.034837 117.075856
L126.071123 117.112142
" />
<path d="M126.071123 117.112142
L126.143694 117.148428
" />
<path d="M126.143694 117.148428
L126.288837 117.148428
" />
<path d="M126.288837 117.148428
L126.361409 117.112142
" />
<path d="M126.361409 117.112142
L126.397694 117.075856
" />
<path d="M126.397694 117.075856
L126.433980 117.003285
" />
<path d="M126.433980 117.003285
L126.433980 116.858142
" />
<path d="M126.433980 116.858142
L126.397694 116.785571
" />
<path d="M126.397694 116.785571
L126.361409 116.749285
" />
<path d="M126.361409 116.749285
L126.288837 116.712999
" />
<path d="M126.288837 116.712999
L126.143694 116.712999
" />
<path d="M126.143694 116.712999
L126.071123 116.749285
" />
<path d="M126.071123 116.749285
L126.034837 116.785571
" />
<path d="M126.034837 116.785571
L125.998552 116.858142
" />
<path d="M125.671980 116.458999
L125.671980 115.987285
" />
<path d="M125.671980 115.987285
L125.962266 116.241285
" />
<path d="M125.962266 116.241285
L125.962266 116.132428
" />
<path d="M125.962266 116.132428
L125.998552 116.059857
" />
<path d="M125.998552 116.059857
L126.034837 116.023571
" />
<path d="M126.034837 116.023571
L126.107409 115.987285
" />
<path d="M126.107409 115.987285
L126.288837 115.987285
" />
<path d="M126.288837 115.987285
L126.361409 116.023571
" />
<path d="M126.361409 116.023571
L126.397694 116.059857
" />
<path d="M126.397694 116.059857
L126.433980 116.132428
" />
<path d="M126.433980 116.132428
L126.433980 116.350142
" />
<path d="M126.433980 116.350142
L126.397694 116.422714
" />
<path d="M126.397694 116.422714
L126.361409 116.458999
" />
<path d="M125.925980 115.334143
L126.433980 115.334143
" />
<path d="M125.635694 115.515571
L126.179980 115.697000
" />
<path d="M126.179980 115.697000
L126.179980 115.225285
" />
</g><g transform="rotate(270.000000 127.316166 118.237000)">
<text x="127.316166" y="118.618000"
textLength="5.167084" font-size="1.016000" lengthAdjust="spacingAndGlyphs"
text-anchor="middle" opacity="0" stroke-opacity="0">V1 2024</text>
</g>
<g class="stroked-text"><desc>V1 2024</desc>
<path d="M126.898757 120.595570
L127.660757 120.341570
" />
<path d="M127.660757 120.341570
L126.898757 120.087570
" />
<path d="M127.660757 119.434427
L127.660757 119.869856
" />
<path d="M127.660757 119.652141
L126.898757 119.652141
" />
<path d="M126.898757 119.652141
L127.007614 119.724713
" />
<path d="M127.007614 119.724713
L127.080186 119.797284
" />
<path d="M127.080186 119.797284
L127.116471 119.869856
" />
<path d="M126.971329 118.563571
L126.935043 118.527285
" />
<path d="M126.935043 118.527285
L126.898757 118.454714
" />
<path d="M126.898757 118.454714
L126.898757 118.273285
" />
<path d="M126.898757 118.273285
L126.935043 118.200714
" />
<path d="M126.935043 118.200714
L126.971329 118.164428
" />
<path d="M126.971329 118.164428
L127.043900 118.128142
" />
<path d="M127.043900 118.128142
L127.116471 118.128142
" />
<path d="M127.116471 118.128142
L127.225329 118.164428
" />
<path d="M127.225329 118.164428
L127.660757 118.599856
" />
<path d="M127.660757 118.599856
L127.660757 118.128142
" />
<path d="M126.898757 117.656428
L126.898757 117.583857
" />
<path d="M126.898757 117.583857
L126.935043 117.511285
" />
<path d="M126.935043 117.511285
L126.971329 117.475000
" />
<path d="M126.971329 117.475000
L127.043900 117.438714
" />
<path d="M127.043900 117.438714
L127.189043 117.402428
" />
<path d="M127.189043 117.402428
L127.370471 117.402428
" />
<path d="M127.370471 117.402428
L127.515614 117.438714
" />
<path d="M127.515614 117.438714
L127.588186 117.475000
" />
<path d="M127.588186 117.475000
L127.624471 117.511285
" />
<path d="M127.624471 117.511285
L127.660757 117.583857
" />
<path d="M127.660757 117.583857
L127.660757 117.656428
" />
<path d="M127.660757 117.656428
L127.624471 117.729000
" />
<path d="M127.624471 117.729000
L127.588186 117.765285
" />
<path d="M127.588186 117.765285
L127.515614 117.801571
" />
<path d="M127.515614 117.801571
L127.370471 117.837857
" />
<path d="M127.370471 117.837857
L127.189043 117.837857
" />
<path d="M127.189043 117.837857
L127.043900 117.801571
" />
<path d="M127.043900 117.801571
L126.971329 117.765285
" />
<path d="M126.971329 117.765285
L126.935043 117.729000
" />
<path d="M126.935043 117.729000
L126.898757 117.656428
" />
<path d="M126.971329 117.112143
L126.935043 117.075857
" />
<path d="M126.935043 117.075857
L126.898757 117.003286
" />
<path d="M126.898757 117.003286
L126.898757 116.821857
" />
<path d="M126.898757 116.821857
L126.935043 116.749286
" />
<path d="M126.935043 116.749286
L126.971329 116.713000
" />
<path d="M126.971329 116.713000
L127.043900 116.676714
" />
<path d="M127.043900 116.676714
L127.116471 116.676714
" />
<path d="M127.116471 116.676714
L127.225329 116.713000
" />
<path d="M127.225329 116.713000
L127.660757 117.148428
" />
<path d="M127.660757 117.148428
L127.660757 116.676714
" />
<path d="M127.152757 116.023572
L127.660757 116.023572
" />
<path d="M126.862471 116.205000
L127.406757 116.386429
" />
<path d="M127.406757 116.386429
L127.406757 115.914714
" />
</g><path style="fill:#000000; fill-opacity:1.000000; stroke:none;fill-rule:evenodd;"
d="M 130.706553,117.684238
130.683833,117.685346
130.657796,117.687110
130.647538,117.687946
130.610256,117.692266
130.581206,117.698455
130.558865,117.707269
130.541711,117.719462
130.528220,117.735791
130.516872,117.757010
130.515390,117.760618
130.513628,117.766398
130.512139,117.773927
130.510893,117.784047
130.509862,117.797599
130.509014,117.815424
130.508320,117.838363
130.507750,117.867257
130.507273,117.902946
130.506861,117.946273
130.506483,117.998077
130.506109,118.059200
130.505851,118.112309
130.505710,118.175889
130.505816,118.229879
130.506173,118.274605
130.506785,118.310395
130.507656,118.337573
130.508790,118.356469
130.510193,118.367406
130.515728,118.384587
130.531636,118.411313
130.553920,118.433584
130.580223,118.448667
130.580372,118.448724
130.586550,118.450836
130.593695,118.452599
130.602725,118.454045
130.614561,118.455205
130.630121,118.456110
130.650325,118.456792
130.676092,118.457282
130.708342,118.457610
130.747993,118.457809
130.795966,118.457909
130.853180,118.457942
130.887039,118.457938
130.939400,118.457871
130.983054,118.457705
131.018928,118.457410
131.047949,118.456956
131.071046,118.456316
131.089145,118.455459
131.103173,118.454358
131.114060,118.452983
131.122730,118.451306
131.130114,118.449296
131.151023,118.440681
131.176617,118.421623
131.195020,118.395467
131.205988,118.362494
131.206274,118.360602
131.207185,118.347945
131.207981,118.326705
131.208662,118.298102
131.209225,118.263356
131.209667,118.223690
131.209986,118.180324
131.210180,118.134479
131.210247,118.087376
131.210185,118.040236
131.209990,117.994280
131.209662,117.950729
131.209198,117.910804
131.208596,117.875726
131.207852,117.846716
131.206967,117.824995
131.206232,117.811964
131.204565,117.788374
131.202544,117.771675
131.199707,117.759592
131.195594,117.749854
131.189741,117.740186
131.185109,117.734000
131.169748,117.718375
131.152882,117.705861
131.151182,117.704875
131.141664,117.699918
131.131677,117.696221
131.119284,117.693439
131.102550,117.691222
131.079540,117.689224
131.048316,117.687096
131.043192,117.686774
131.010525,117.685092
130.985583,117.684515
130.969157,117.685046
130.962037,117.686691
130.960440,117.689802
130.956645,117.701556
130.951751,117.719749
130.946253,117.742198
130.940641,117.766727
130.935410,117.791153
130.931052,117.813299
130.928058,117.830985
130.926923,117.842030
130.926840,117.856000
130.997960,117.856000
131.069080,117.856000
131.069080,118.071900
131.069080,118.287800
130.853180,118.287800
130.637280,118.287800
130.637280,118.072681
130.637280,117.857562
130.699089,117.854238
130.700052,117.854186
130.723907,117.852722
130.743747,117.851186
130.757527,117.849756
130.763202,117.848612
130.763422,117.846312
130.762651,117.835504
130.760647,117.817479
130.757612,117.793992
130.753751,117.766799
130.752231,117.756684
130.747045,117.725220
130.742504,117.703111
130.738467,117.689749
130.734795,117.684525
130.733707,117.684272
130.723872,117.683857
Z" /> 
<path style="fill:#000000; fill-opacity:1.000000; stroke:none;fill-rule:evenodd;"
d="M 130.707553,116.698657
130.577167,116.700300
130.555153,116.715766
130.548736,116.720785
130.532731,116.736892
130.520440,116.753866
130.507740,116.776500
130.504688,117.114320
130.504451,117.141367
130.504000,117.197771
130.503636,117.250787
130.503361,117.299570
130.503178,117.343272
130.503089,117.381047
130.503096,117.412049
130.503201,117.435432
130.503408,117.450348
130.503718,117.455950
130.504129,117.456123
130.511808,117.456773
130.528394,117.457359
130.552885,117.457882
130.584280,117.458340
130.621577,117.458732
130.663773,117.459059
130.709867,117.459319
130.710524,117.459322
130.758857,117.459511
130.809741,117.459637
130.861517,117.459694
130.913184,117.459682
130.963739,117.459600
131.012180,117.459449
131.057506,117.459226
131.098715,117.458933
131.134804,117.458567
131.164773,117.458129
131.187618,117.457618
131.202339,117.457033
131.207933,117.456374
131.208318,117.455775
131.209886,117.447421
131.210915,117.431701
131.211437,117.410805
131.211484,117.386924
131.211086,117.362248
131.210276,117.338967
131.209084,117.319271
131.207542,117.305350
131.205682,117.299396
131.201630,117.298586
131.188428,117.297400
131.167615,117.296145
131.140639,117.294896
131.108946,117.293725
131.073985,117.292706
131.046760,117.291956
131.014600,117.290909
130.987002,117.289828
130.965363,117.288774
130.951085,117.287811
130.945565,117.287000
130.945504,117.286858
130.944921,117.280237
130.944195,117.264564
130.943353,117.240825
130.942424,117.210003
130.941435,117.173083
130.940414,117.131050
130.939390,117.084888
130.938391,117.035580
130.937353,116.982360
130.936254,116.930492
130.935126,116.887114
130.935059,116.885259
130.804920,116.885259
130.804920,117.085606
130.804909,117.116131
130.804823,117.161520
130.804621,117.198206
130.804266,117.227116
130.803722,117.249174
130.802952,117.265304
130.801920,117.276430
130.800589,117.283478
130.798922,117.287372
130.796884,117.289037
130.794107,117.289599
130.781996,117.290596
130.762710,117.291396
130.738227,117.291928
130.710524,117.292120
130.632200,117.292120
130.632321,117.102890
130.632321,117.102585
130.632474,117.058851
130.632854,117.017607
130.633430,116.980132
130.634175,116.947702
130.635058,116.921598
130.636050,116.903096
130.637121,116.893477
130.637216,116.893072
130.641023,116.880252
130.646567,116.871277
130.655530,116.865471
130.669595,116.862160
130.690445,116.860668
130.719761,116.860320
130.736806,116.860358
130.757338,116.860731
130.771086,116.861804
130.780131,116.863933
130.786559,116.867476
130.792450,116.872790
130.804920,116.885259
130.935059,116.885259
130.933842,116.851335
130.932280,116.822267
130.930313,116.799022
130.927818,116.780710
130.924669,116.766442
130.920741,116.755330
130.915910,116.746485
130.910051,116.739017
130.903040,116.732038
130.894751,116.724660
130.887399,116.718503
130.877743,116.711836
130.867019,116.706725
130.853930,116.702991
130.837176,116.700454
130.815460,116.698932
130.787483,116.698245
130.751947,116.698214
Z" /> 
<path style="fill:#000000; fill-opacity:1.000000; stroke:none;fill-rule:evenodd;"
d="M 130.505578,118.571962
130.501934,118.580983
130.501933,118.580987
130.500872,118.591173
130.500627,118.608056
130.501069,118.629229
130.502071,118.652284
130.503502,118.674812
130.505236,118.694405
130.507143,118.708655
130.509095,118.715153
130.512699,118.716832
130.525034,118.721780
130.545165,118.729552
130.572117,118.739783
130.604921,118.752106
130.642604,118.766154
130.684194,118.781561
130.728720,118.797960
130.764098,118.810954
130.806665,118.826591
130.845659,118.840917
130.880086,118.853567
130.908951,118.864176
130.931261,118.872377
130.946022,118.877807
130.952240,118.880100
130.952297,118.880122
130.954595,118.881179
130.955468,118.882493
130.954193,118.884390
130.950041,118.887193
130.942287,118.891229
130.930206,118.896822
130.913071,118.904296
130.890157,118.913978
130.860736,118.926191
130.824084,118.941261
130.779474,118.959512
130.726180,118.981270
130.695841,118.993695
130.653928,119.011011
130.615417,119.027097
130.581312,119.041523
130.552615,119.053861
130.530330,119.063683
130.515461,119.070559
130.509010,119.074061
130.507087,119.076000
130.503583,119.082371
130.501456,119.092764
130.500403,119.109222
130.500120,119.133786
130.500143,119.140226
130.500987,119.166482
130.503079,119.183212
130.506470,119.190888
130.511169,119.193242
130.524554,119.199104
130.545567,119.207973
130.573242,119.219450
130.606614,119.233140
130.644718,119.248642
130.686588,119.265560
130.731260,119.283497
130.770930,119.299414
130.813007,119.316384
130.851364,119.331945
130.885048,119.345707
130.913105,119.357276
130.934582,119.366264
130.948525,119.372277
130.953983,119.374925
130.954047,119.374990
130.953828,119.376573
130.950516,119.379100
130.943468,119.382829
130.932041,119.388019
130.915591,119.394929
130.893474,119.403817
130.865048,119.414942
130.829669,119.428564
130.786693,119.444940
130.735478,119.464330
130.675380,119.486993
130.655747,119.494434
130.619285,119.508516
130.586135,119.521655
130.557542,119.533337
130.534750,119.543051
130.519005,119.550281
130.511550,119.554517
130.511145,119.554879
130.505366,119.561430
130.502027,119.569916
130.500490,119.583073
130.500120,119.603640
130.500329,119.624285
130.501462,119.654917
130.503437,119.681324
130.506093,119.702022
130.509268,119.715529
130.512801,119.720360
130.513118,119.720301
130.520215,119.717921
130.535711,119.712325
130.558680,119.703865
130.588199,119.692889
130.623344,119.679748
130.663192,119.664792
130.706818,119.648372
130.753299,119.630836
130.801712,119.612536
130.851132,119.593821
130.900635,119.575042
130.949298,119.556548
130.996197,119.538689
131.040409,119.521817
131.081009,119.506279
131.117073,119.492428
131.147679,119.480613
131.171901,119.471183
131.188817,119.464490
131.197503,119.460883
131.211627,119.454430
131.210203,119.395775
131.208780,119.337121
130.975386,119.240630
130.741992,119.144138
130.774726,119.129400
130.777788,119.128048
130.792607,119.121750
130.815232,119.112339
130.844451,119.100311
130.879052,119.086161
130.917825,119.070386
130.959558,119.053481
131.003040,119.035943
131.022503,119.028096
131.063565,119.011456
131.101335,118.996035
131.134789,118.982257
131.162903,118.970549
131.184654,118.961335
131.199017,118.955040
131.204970,118.952090
131.206403,118.950020
131.209138,118.939060
131.210870,118.921847
131.211606,118.901102
131.211352,118.879550
131.210114,118.859913
131.207899,118.844916
131.204711,118.837280
131.201771,118.835673
131.189934,118.830410
131.170120,118.822138
131.143264,118.811220
131.110301,118.798017
131.072168,118.782892
131.029800,118.766206
130.984131,118.748322
130.936098,118.729600
130.886635,118.710404
130.836678,118.691096
130.787163,118.672037
130.739024,118.653589
130.693198,118.636114
130.650619,118.619975
130.612223,118.605533
130.578946,118.593151
130.551722,118.583189
130.531487,118.576011
130.519177,118.571979
130.512367,118.570347
Z" /> 
<path style="fill:#000000; fill-opacity:1.000000; stroke:none;fill-rule:evenodd;"
d="M 130.388310,115.698525
130.366668,115.701132
130.337934,115.706220
130.301446,115.713899
130.256547,115.724278
130.202575,115.737464
130.181321,115.742802
130.116864,115.759591
130.059259,115.775549
130.008952,115.790525
129.966392,115.804368
129.932025,115.816927
129.906299,115.828051
129.889661,115.837590
129.882559,115.845393
129.882360,115.846406
129.881753,115.856248
129.881358,115.874779
129.881175,115.900839
129.881205,115.933271
129.881446,115.970916
129.881900,116.012616
129.882566,116.057212
129.882778,116.070273
129.883356,116.113844
129.883692,116.153987
129.883792,116.189580
129.883658,116.219502
129.883295,116.242632
129.882705,116.257847
129.881893,116.264026
129.881693,116.264266
129.875102,116.269142
129.861011,116.278059
129.840672,116.290312
129.815335,116.305198
129.786254,116.322011
129.754680,116.340046
129.721866,116.358598
129.689063,116.376964
129.657523,116.394437
129.628498,116.410314
129.603241,116.423890
129.583003,116.434459
129.569037,116.441318
129.562593,116.443760
129.561595,116.443557
129.552781,116.439704
129.536508,116.431386
129.513778,116.419155
129.485592,116.403565
129.452953,116.385167
129.416863,116.364515
129.378324,116.342160
129.367228,116.335693
129.329299,116.313768
129.294117,116.293700
129.262680,116.276043
129.235989,116.261348
129.215043,116.250167
129.200844,116.243054
129.194389,116.240560
129.193083,116.240737
129.183128,116.245776
129.167238,116.257155
129.146309,116.274058
129.121236,116.295665
129.092914,116.321162
129.062240,116.349728
129.030108,116.380549
128.997413,116.412805
128.965052,116.445679
128.933919,116.478355
128.921044,116.492154
128.888788,116.527169
128.863069,116.555910
128.843374,116.579021
128.829191,116.597145
128.820006,116.610924
128.815307,116.621002
128.814581,116.628021
128.814918,116.629078
128.819265,116.638126
128.828085,116.654611
128.840808,116.677525
128.856862,116.705858
128.875678,116.738600
128.896684,116.774743
128.919310,116.813277
128.926353,116.825222
128.948374,116.862712
128.968522,116.897221
128.986244,116.927789
129.000989,116.953457
129.012205,116.973266
129.019339,116.986257
129.021840,116.991470
129.020788,116.993985
129.015207,117.004223
129.005473,117.021039
128.992327,117.043177
128.976508,117.069383
128.958758,117.098401
128.951796,117.109759
128.931917,117.142675
128.912587,117.175323
128.895020,117.205620
128.880428,117.231481
128.870026,117.250822
128.861178,117.267568
128.850653,117.286259
128.842053,117.300179
128.836662,117.307159
128.836464,117.307310
128.831666,117.308960
128.821866,117.310339
128.806329,117.311471
128.784317,117.312381
128.755094,117.313092
128.717922,117.313628
128.672064,117.314013
128.616784,117.314270
128.404620,117.314980
128.368214,117.423907
128.362104,117.442480
128.347707,117.488454
128.333667,117.536172
128.320291,117.584366
128.307883,117.631767
128.296748,117.677106
128.287193,117.719115
128.279522,117.756525
128.274040,117.788067
128.271053,117.812473
128.270867,117.828473
128.270890,117.828668
128.271939,117.832611
128.274624,117.836879
128.279747,117.841989
128.288110,117.848459
128.300516,117.856806
128.317766,117.867546
128.340664,117.881198
128.370010,117.898279
128.406608,117.919306
128.451259,117.944795
128.466210,117.953320
128.504176,117.975009
128.539009,117.994966
128.569759,118.012644
128.595476,118.027494
128.615211,118.038969
128.628012,118.046520
128.632931,118.049599
128.633613,118.054975
128.634292,118.069392
128.634929,118.091684
128.635503,118.120696
128.635991,118.155274
128.636370,118.194263
128.636617,118.236509
128.636690,118.257052
128.636763,118.302807
128.636646,118.339701
128.636308,118.368668
128.635717,118.390641
128.634843,118.406552
128.633654,118.417335
128.632118,118.423922
128.630204,118.427248
128.629522,118.427787
128.621558,118.432854
128.605969,118.442142
128.583754,118.455078
128.555915,118.471085
128.523450,118.489588
128.487362,118.510009
128.448649,118.531774
128.438257,118.537609
128.400366,118.559065
128.365538,118.579066
128.334745,118.597036
128.308957,118.612398
128.289147,118.624574
128.276286,118.632988
128.271344,118.637063
128.271330,118.637101
128.270935,118.645897
128.272611,118.663052
128.276086,118.687052
128.281086,118.716383
128.287340,118.749533
128.294575,118.784988
128.302518,118.821235
128.310898,118.856760
128.315541,118.875342
128.327339,118.920070
128.339820,118.964333
128.352592,119.006957
128.365261,119.046769
128.377433,119.082595
128.388716,119.113259
128.398716,119.137589
128.407041,119.154410
128.413296,119.162547
128.414654,119.162919
128.424729,119.163706
128.443445,119.164268
128.469716,119.164599
128.502453,119.164694
128.540569,119.164548
128.582977,119.164158
128.628588,119.163516
128.837317,119.160095
128.872992,119.228138
128.881709,119.244558
128.905132,119.287132
128.930431,119.331285
128.956027,119.374338
128.980338,119.413613
129.001784,119.446430
129.001990,119.446734
129.011997,119.462553
129.019124,119.475817
129.021839,119.483683
129.020676,119.487839
129.015164,119.499762
129.006153,119.516566
128.994790,119.536032
128.992961,119.539057
128.982310,119.556825
128.967664,119.581421
128.949950,119.611280
128.930095,119.644836
128.909028,119.680525
128.887677,119.716781
128.885354,119.720730
128.863390,119.758164
128.846091,119.787938
128.832974,119.811029
128.823558,119.828418
128.817360,119.841084
128.813896,119.850006
128.812686,119.856163
128.813246,119.860535
128.815093,119.864101
128.819609,119.870252
128.832030,119.885417
128.849625,119.905735
128.871189,119.929902
128.895518,119.956610
128.921406,119.984552
128.947650,120.012423
128.973044,120.038915
128.996385,120.062722
129.016468,120.082538
129.044124,120.108757
129.074499,120.136670
129.103691,120.162637
129.130680,120.185803
129.154449,120.205316
129.173978,120.220319
129.188250,120.229960
129.196246,120.233382
129.200063,120.231884
129.211942,120.225860
129.230658,120.215796
129.255127,120.202310
129.284267,120.186020
129.316991,120.167543
129.352216,120.147497
129.388857,120.126498
129.425831,120.105166
129.462053,120.084117
129.496438,120.063968
129.527903,120.045339
129.555363,120.028845
129.558492,120.028379
129.566923,120.030749
129.580707,120.037063
129.600630,120.047728
129.627480,120.063147
129.662043,120.083727
129.666920,120.086658
129.700640,120.106673
129.735597,120.127042
129.769318,120.146346
129.799328,120.163168
129.823155,120.176090
129.885331,120.208875
129.886655,120.425231
129.887980,120.641588
129.951480,120.663963
129.991673,120.677612
130.040654,120.693123
130.091737,120.708278
130.143459,120.722708
130.194357,120.736043
130.242966,120.747914
130.287824,120.757953
130.327466,120.765790
130.360430,120.771055
130.385251,120.773380
130.415163,120.774460
130.435544,120.741440
130.438845,120.735987
130.448622,120.719392
130.462189,120.696005
130.478761,120.667190
130.497557,120.634312
130.517792,120.598735
130.538684,120.561821
130.552257,120.537801
130.571110,120.504511
130.587972,120.474827
130.602243,120.449799
130.613325,120.430475
130.620619,120.417906
130.623527,120.413140
130.628788,120.412658
130.643081,120.412188
130.665255,120.411752
130.694164,120.411364
130.728660,120.411040
130.767597,120.410796
130.809829,120.410646
130.814557,120.410636
130.815252,120.410635
130.864288,120.410605
130.904150,120.410755
130.935731,120.411113
130.959928,120.411709
130.977634,120.412575
130.989745,120.413740
130.997156,120.415234
131.000762,120.417087
131.001215,120.417640
131.006136,120.425281
131.015304,120.440571
131.028141,120.462507
131.044066,120.490086
131.062501,120.522306
131.082864,120.558165
131.104578,120.596660
131.109696,120.605760
131.131026,120.643576
131.150773,120.678426
131.168375,120.709326
131.183269,120.735294
131.194890,120.755345
131.202675,120.768497
131.206061,120.773767
131.206804,120.774188
131.215663,120.774707
131.232583,120.773305
131.256064,120.770242
131.284605,120.765778
131.316703,120.760172
131.350860,120.753683
131.385572,120.746570
131.419341,120.739093
131.450663,120.731511
131.473795,120.725482
131.515906,120.713897
131.557686,120.701693
131.597950,120.689275
131.635510,120.677045
131.669182,120.665405
131.697777,120.654759
131.720111,120.645510
131.734997,120.638060
131.741249,120.632812
131.741563,120.630144
131.741862,120.618267
131.741879,120.598232
131.741626,120.571295
131.741117,120.538712
131.740367,120.501742
131.739388,120.461640
131.738929,120.444059
131.737872,120.401972
131.736913,120.361709
131.736091,120.324938
131.735440,120.293323
131.734998,120.268532
131.734801,120.252231
131.734560,120.207522
131.753252,120.199712
131.761065,120.196253
131.782881,120.185574
131.810687,120.171031
131.842689,120.153623
131.877093,120.134348
131.912107,120.114204
131.945936,120.094190
131.976788,120.075302
131.994112,120.064666
132.017462,120.050978
132.037357,120.040067
132.052106,120.032850
132.060019,120.030241
132.061413,120.030552
132.070921,120.034746
132.087810,120.043405
132.111086,120.055978
132.139751,120.071913
132.172810,120.090660
132.209268,120.111666
132.248129,120.134381
132.262659,120.142924
132.300375,120.165008
132.335066,120.185194
132.365781,120.202935
132.391565,120.217684
132.411466,120.228896
132.424531,120.236023
132.429807,120.238521
132.429954,120.238499
132.435595,120.234756
132.447412,120.225309
132.464159,120.211205
132.484592,120.193489
132.507468,120.173208
132.520416,120.161493
132.550285,120.133723
132.581882,120.103466
132.614383,120.071588
132.646963,120.038954
132.678798,120.006426
132.709063,119.974871
132.736934,119.945153
132.761586,119.918136
132.782195,119.894685
132.797937,119.875665
132.807986,119.861939
132.811520,119.854372
132.811106,119.852912
132.806689,119.843561
132.797876,119.826822
132.785207,119.803668
132.769225,119.775072
132.750472,119.742006
132.729488,119.705445
132.706816,119.666360
132.685363,119.629368
132.661327,119.587338
132.641185,119.551400
132.625215,119.522070
132.613698,119.499864
132.606914,119.485298
132.605143,119.478888
132.607181,119.474900
132.614033,119.463024
132.624654,119.445310
132.638072,119.423372
132.653317,119.398827
132.657491,119.392108
132.677704,119.358601
132.699568,119.321082
132.720713,119.283666
132.738768,119.250467
132.755624,119.219476
132.771290,119.192987
132.783232,119.175819
132.791487,119.167915
132.791861,119.167735
132.797726,119.166134
132.808004,119.164912
132.823516,119.164058
132.845082,119.163561
132.873522,119.163409
132.909656,119.163591
132.954305,119.164096
133.008290,119.164911
133.212680,119.168266
133.225539,119.139190
133.227780,119.134057
133.244059,119.092960
133.260590,119.044434
133.277525,118.987943
133.295019,118.922951
133.313224,118.848922
133.332292,118.765320
133.332943,118.762364
133.339673,118.730931
133.345547,118.701967
133.350210,118.677332
133.353310,118.658884
133.354494,118.648480
133.354828,118.630700
133.172461,118.529585
133.153929,118.519292
133.107515,118.493311
133.069444,118.471647
133.039230,118.454007
133.016388,118.440098
133.000432,118.429626
132.990876,118.422300
132.987236,118.417825
132.987126,118.417340
132.986314,118.408148
132.985651,118.390667
132.985134,118.366316
132.984761,118.336515
132.984527,118.302682
132.984429,118.266237
132.984448,118.244974
132.574704,118.244974
132.574331,118.270903
132.573560,118.300458
132.572441,118.330980
132.572183,118.336841
132.561228,118.468712
132.540568,118.597644
132.510249,118.723498
132.470314,118.846139
132.420808,118.965429
132.361774,119.081234
132.293257,119.193417
132.267238,119.231672
132.184600,119.341990
132.096087,119.444301
132.001934,119.538453
131.902379,119.624291
131.797659,119.701663
131.688012,119.770417
131.573674,119.830398
131.454882,119.881456
131.331875,119.923435
131.204888,119.956184
131.074160,119.979550
130.950847,119.993158
130.814557,119.999237
130.680981,119.995549
130.550182,119.982112
130.422225,119.958943
130.297176,119.926059
130.175098,119.883478
130.056057,119.831217
129.940117,119.769293
129.827343,119.697724
129.717800,119.616527
129.703043,119.604454
129.669903,119.575702
129.633045,119.541967
129.594117,119.504887
129.554768,119.466101
129.516646,119.427248
129.481399,119.389964
129.450677,119.355889
129.426127,119.326660
129.396684,119.288735
129.322374,119.182893
129.257305,119.073952
129.201316,118.961479
129.154243,118.845040
129.115925,118.724204
129.086197,118.598537
129.064899,118.467607
129.051866,118.330980
129.050356,118.303980
129.049210,118.174644
129.057986,118.045644
129.076493,117.917624
129.104544,117.791231
129.141949,117.667110
129.188518,117.545908
129.244063,117.428271
129.308394,117.314843
129.381323,117.206272
129.463942,117.101021
129.554326,117.001768
129.650926,116.910378
129.753401,116.827049
129.861414,116.751981
129.974625,116.685373
130.092696,116.627424
130.215287,116.578333
130.342061,116.538298
130.472678,116.507520
130.606800,116.486197
130.655757,116.481364
130.726827,116.477439
130.802667,116.476243
130.880442,116.477709
130.957315,116.481773
131.030453,116.488371
131.097020,116.497436
131.138825,116.504840
131.268186,116.534374
131.393799,116.573083
131.515274,116.620622
131.632226,116.676647
131.744265,116.740813
131.851005,116.812774
131.952058,116.892186
132.047037,116.978704
132.135553,117.071982
132.217219,117.171675
132.291647,117.277440
132.358450,117.388929
132.417240,117.505799
132.467629,117.627705
132.509230,117.754302
132.516612,117.780947
132.536947,117.866767
132.553100,117.955155
132.564479,118.042512
132.570489,118.125240
132.571477,118.149846
132.572620,118.177510
132.573656,118.201757
132.574443,118.219220
132.574634,118.225330
132.574704,118.244974
132.984448,118.244974
132.984463,118.228598
132.984627,118.191185
132.984916,118.155417
132.985328,118.122713
132.985858,118.094492
132.986504,118.072173
132.987261,118.057176
132.988127,118.050919
132.988705,118.050367
132.996138,118.045428
133.011213,118.036290
133.032957,118.023518
133.060394,118.007675
133.092550,117.989325
133.128450,117.969031
133.167120,117.947359
133.177562,117.941526
133.215804,117.920080
133.251165,117.900121
133.282644,117.882222
133.309241,117.866957
133.329954,117.854900
133.343783,117.846623
133.349728,117.842701
133.352696,117.838719
133.354163,117.832240
133.353919,117.821499
133.351917,117.804588
133.348107,117.779597
133.345307,117.763280
133.338408,117.728479
133.329606,117.688882
133.319277,117.645825
133.307797,117.600645
133.295542,117.554680
133.282889,117.509266
133.270214,117.465741
133.257893,117.425442
133.246303,117.389705
133.235820,117.359868
133.226819,117.337268
133.219678,117.323242
133.211782,117.311184
132.999748,117.313307
132.787713,117.315431
132.769247,117.279646
132.764479,117.270459
132.728991,117.204829
132.689845,117.136596
132.649595,117.070231
132.648667,117.068744
132.631951,117.040955
132.619239,117.017833
132.611153,117.000586
132.608320,116.990421
132.610685,116.981968
132.618104,116.965533
132.630117,116.942312
132.646255,116.913208
132.666050,116.879125
132.685988,116.845366
132.708621,116.806920
132.731448,116.768038
132.752673,116.731778
132.770503,116.701195
132.817226,116.620810
132.793584,116.591975
132.788169,116.585425
132.759184,116.551667
132.725358,116.513954
132.688903,116.474644
132.652030,116.436093
132.616951,116.400658
132.585879,116.370694
132.572241,116.358025
132.542239,116.330561
132.513758,116.305013
132.487776,116.282225
132.465274,116.263036
132.447230,116.248288
132.434625,116.238823
132.428437,116.235480
132.427347,116.235705
132.418859,116.239484
132.404822,116.246963
132.387635,116.256884
132.360990,116.272782
132.300455,116.308823
132.247958,116.339952
132.203040,116.366433
132.165243,116.388529
132.134107,116.406502
132.109175,116.420618
132.089988,116.431138
132.076088,116.438326
132.067016,116.442446
132.062314,116.443760
132.060915,116.443527
132.051116,116.439551
132.034565,116.431256
132.012721,116.419425
131.987042,116.404841
131.958989,116.388289
131.927907,116.369881
131.893574,116.350040
131.859946,116.331047
131.829672,116.314397
131.805398,116.301584
131.799989,116.298800
131.777769,116.286776
131.759313,116.275869
131.746413,116.267183
131.740864,116.261824
131.740571,116.260235
131.739871,116.249649
131.739221,116.230477
131.738638,116.203841
131.738141,116.170863
131.737748,116.132662
131.737477,116.090361
131.737346,116.045080
131.737100,115.836863
131.724400,115.830825
131.715844,115.827343
131.697756,115.820920
131.672851,115.812609
131.642757,115.802910
131.609102,115.792323
131.573513,115.781351
131.537619,115.770493
131.503046,115.760251
131.471424,115.751126
131.444378,115.743618
131.423538,115.738230
131.378153,115.727528
131.334582,115.717858
131.296202,115.709984
131.263936,115.704074
131.238710,115.700297
131.221447,115.698822
131.213071,115.699816
131.212207,115.700679
131.206530,115.708810
131.196659,115.724508
131.183171,115.746801
131.166645,115.774718
131.147657,115.807285
131.126785,115.843531
131.104605,115.882484
131.003957,116.060220
130.816808,116.061448
130.815578,116.061456
130.772884,116.061630
130.733344,116.061599
130.698126,116.061379
130.668398,116.060984
130.645326,116.060431
130.630080,116.059733
130.623825,116.058908
130.623376,116.058463
130.618575,116.051391
130.609520,116.036663
130.596783,116.015257
130.580937,115.988151
130.562555,115.956324
130.542210,115.920754
130.520475,115.882420
130.515596,115.873785
130.494030,115.835770
130.473931,115.800587
130.455884,115.769241
130.440472,115.742737
130.428279,115.722079
130.419887,115.708273
130.415882,115.702324
130.412954,115.700323
130.403518,115.698292
Z" /> 
</g>
<g style="fill:none; 
stroke:#000000; stroke-width:0.100000; stroke-opacity:1; 
stroke-linecap:round; stroke-linejoin:round;">
<path d="M133.985000 115.189000 A0.762000 0.762000 0.0 0 0 133.223000 114.427000" />
<path d="M133.223000 122.047000 A0.762000 0.762000 0.0 0 0 133.985000 121.285000" />
<path d="M122.809000 115.189000
L122.809000 121.285000
" />
<path d="M133.985000 115.189000
L133.985000 121.285000
" />
<path d="M122.809000 121.285000 A0.762000 0.762000 0.0 0 0 123.571000 122.047000" />
<path d="M123.571000 114.427000 A0.762000 0.762000 0.0 0 0 122.809000 115.189000" />
<path d="M133.223000 114.427000
L123.571000 114.427000
" />
<path d="M133.223000 122.047000
L123.571000 122.047000
" />
</g> 
</svg>
