%TF.GenerationSoftware,KiCad,Pcbnew,9.0.5-9.0.5~ubuntu24.04.1*%
%TF.CreationDate,2025-10-24T21:29:00-07:00*%
%TF.ProjectId,NX-J401-Adapter,4e582d4a-3430-4312-9d41-646170746572,5*%
%TF.SameCoordinates,Original*%
%TF.FileFunction,Paste,Top*%
%TF.FilePolarity,Positive*%
%FSLAX46Y46*%
G04 Gerber Fmt 4.6, Leading zero omitted, Abs format (unit mm)*
G04 Created by KiCad (PCBNEW 9.0.5-9.0.5~ubuntu24.04.1) date 2025-10-24 21:29:00*
%MOMM*%
%LPD*%
G01*
G04 APERTURE LIST*
G04 Aperture macros list*
%AMRoundRect*
0 Rectangle with rounded corners*
0 $1 Rounding radius*
0 $2 $3 $4 $5 $6 $7 $8 $9 X,Y pos of 4 corners*
0 Add a 4 corners polygon primitive as box body*
4,1,4,$2,$3,$4,$5,$6,$7,$8,$9,$2,$3,0*
0 Add four circle primitives for the rounded corners*
1,1,$1+$1,$2,$3*
1,1,$1+$1,$4,$5*
1,1,$1+$1,$6,$7*
1,1,$1+$1,$8,$9*
0 Add four rect primitives between the rounded corners*
20,1,$1+$1,$2,$3,$4,$5,0*
20,1,$1+$1,$4,$5,$6,$7,0*
20,1,$1+$1,$6,$7,$8,$9,0*
20,1,$1+$1,$8,$9,$2,$3,0*%
G04 Aperture macros list end*
%ADD10C,0.254000*%
%ADD11C,0.500000*%
%ADD12RoundRect,0.250000X2.050000X0.300000X-2.050000X0.300000X-2.050000X-0.300000X2.050000X-0.300000X0*%
%ADD13RoundRect,0.250000X2.025000X2.375000X-2.025000X2.375000X-2.025000X-2.375000X2.025000X-2.375000X0*%
%ADD14RoundRect,0.250000X-0.250000X-0.475000X0.250000X-0.475000X0.250000X0.475000X-0.250000X0.475000X0*%
%ADD15R,0.750000X0.660000*%
%ADD16RoundRect,0.250000X-0.300000X0.300000X-0.300000X-0.300000X0.300000X-0.300000X0.300000X0.300000X0*%
%ADD17RoundRect,0.363637X-1.386363X-0.436363X1.386363X-0.436363X1.386363X0.436363X-1.386363X0.436363X0*%
%ADD18RoundRect,0.234890X-1.902610X-2.515110X1.902610X-2.515110X1.902610X2.515110X-1.902610X2.515110X0*%
%ADD19RoundRect,0.218750X-0.218750X-0.381250X0.218750X-0.381250X0.218750X0.381250X-0.218750X0.381250X0*%
%ADD20RoundRect,0.250000X-0.262500X-0.450000X0.262500X-0.450000X0.262500X0.450000X-0.262500X0.450000X0*%
%ADD21RoundRect,0.250000X0.475000X-0.250000X0.475000X0.250000X-0.475000X0.250000X-0.475000X-0.250000X0*%
%ADD22RoundRect,0.250000X0.450000X-0.262500X0.450000X0.262500X-0.450000X0.262500X-0.450000X-0.262500X0*%
%ADD23RoundRect,0.250000X0.262500X0.450000X-0.262500X0.450000X-0.262500X-0.450000X0.262500X-0.450000X0*%
%ADD24RoundRect,0.150000X-0.587500X-0.150000X0.587500X-0.150000X0.587500X0.150000X-0.587500X0.150000X0*%
%ADD25RoundRect,0.250000X-0.450000X0.262500X-0.450000X-0.262500X0.450000X-0.262500X0.450000X0.262500X0*%
%ADD26RoundRect,0.250000X-0.300000X-0.300000X0.300000X-0.300000X0.300000X0.300000X-0.300000X0.300000X0*%
%ADD27RoundRect,0.250000X-0.475000X0.250000X-0.475000X-0.250000X0.475000X-0.250000X0.475000X0.250000X0*%
%ADD28RoundRect,0.250000X1.400000X1.000000X-1.400000X1.000000X-1.400000X-1.000000X1.400000X-1.000000X0*%
%ADD29R,1.750000X0.450000*%
%ADD30RoundRect,0.150000X0.150000X-0.825000X0.150000X0.825000X-0.150000X0.825000X-0.150000X-0.825000X0*%
%ADD31RoundRect,0.150000X-0.825000X-0.150000X0.825000X-0.150000X0.825000X0.150000X-0.825000X0.150000X0*%
%ADD32RoundRect,0.250000X0.300000X0.300000X-0.300000X0.300000X-0.300000X-0.300000X0.300000X-0.300000X0*%
%ADD33RoundRect,0.250000X-0.362500X-1.425000X0.362500X-1.425000X0.362500X1.425000X-0.362500X1.425000X0*%
%ADD34RoundRect,0.250000X0.250000X0.475000X-0.250000X0.475000X-0.250000X-0.475000X0.250000X-0.475000X0*%
%ADD35RoundRect,0.090000X0.210000X0.485000X-0.210000X0.485000X-0.210000X-0.485000X0.210000X-0.485000X0*%
%ADD36RoundRect,0.045000X0.105000X0.530000X-0.105000X0.530000X-0.105000X-0.530000X0.105000X-0.530000X0*%
%ADD37R,3.265000X5.210000*%
%ADD38R,5.210000X3.275000*%
%ADD39RoundRect,0.363637X1.386363X0.436363X-1.386363X0.436363X-1.386363X-0.436363X1.386363X-0.436363X0*%
%ADD40RoundRect,0.234890X1.902610X2.515110X-1.902610X2.515110X-1.902610X-2.515110X1.902610X-2.515110X0*%
%ADD41RoundRect,0.150000X-1.225000X0.350000X-1.225000X-0.350000X1.225000X-0.350000X1.225000X0.350000X0*%
G04 APERTURE END LIST*
%TO.C,Q1*%
G36*
X292682500Y-95702000D02*
G01*
X293917500Y-95702000D01*
X293917500Y-94132000D01*
X292682500Y-94132000D01*
X292682500Y-95702000D01*
G37*
G36*
X292682500Y-97892000D02*
G01*
X293917500Y-97892000D01*
X293917500Y-96322000D01*
X292682500Y-96322000D01*
X292682500Y-97892000D01*
G37*
G36*
X295805000Y-95702000D02*
G01*
X294220000Y-95702000D01*
X294220000Y-94132000D01*
X295805000Y-94132000D01*
X295805000Y-95702000D01*
G37*
G36*
X295805000Y-97892000D02*
G01*
X294220000Y-97892000D01*
X294220000Y-96322000D01*
X295805000Y-96322000D01*
X295805000Y-97892000D01*
G37*
G36*
X296920000Y-94347000D02*
G01*
X296420000Y-94347000D01*
X296420000Y-93847000D01*
X296920000Y-93847000D01*
X296920000Y-94347000D01*
G37*
G36*
X296920000Y-95628538D02*
G01*
X296420000Y-95628538D01*
X296420000Y-95128538D01*
X296920000Y-95128538D01*
X296920000Y-95628538D01*
G37*
G36*
X296920000Y-96897000D02*
G01*
X296420000Y-96897000D01*
X296420000Y-96397000D01*
X296920000Y-96397000D01*
X296920000Y-96897000D01*
G37*
G36*
X296920000Y-98177000D02*
G01*
X296420000Y-98177000D01*
X296420000Y-97677000D01*
X296920000Y-97677000D01*
X296920000Y-98177000D01*
G37*
D10*
%TO.C,FID3*%
X318800000Y-153000000D02*
X321200000Y-153000000D01*
X320000000Y-151800000D02*
X320000000Y-154200000D01*
D11*
X320250000Y-153000000D02*
G75*
G02*
X319750000Y-153000000I-250000J0D01*
G01*
X319750000Y-153000000D02*
G75*
G02*
X320250000Y-153000000I250000J0D01*
G01*
D10*
%TO.C,FID2*%
X318800000Y-91000000D02*
X321200000Y-91000000D01*
X320000000Y-89800000D02*
X320000000Y-92200000D01*
D11*
X320250000Y-91000000D02*
G75*
G02*
X319750000Y-91000000I-250000J0D01*
G01*
X319750000Y-91000000D02*
G75*
G02*
X320250000Y-91000000I250000J0D01*
G01*
D10*
%TO.C,FID1*%
X228800000Y-91000000D02*
X231200000Y-91000000D01*
X230000000Y-89800000D02*
X230000000Y-92200000D01*
D11*
X230250000Y-91000000D02*
G75*
G02*
X229750000Y-91000000I-250000J0D01*
G01*
X229750000Y-91000000D02*
G75*
G02*
X230250000Y-91000000I250000J0D01*
G01*
%TD*%
D12*
%TO.C,D1*%
X294640000Y-89916000D03*
D13*
X287915000Y-90151000D03*
X287915000Y-84601000D03*
X283065000Y-90151000D03*
X283065000Y-84601000D03*
D12*
X294640000Y-84836000D03*
%TD*%
D14*
%TO.C,C15*%
X267010000Y-143865000D03*
X268910000Y-143865000D03*
%TD*%
D15*
%TO.C,Q1*%
X291195000Y-94092000D03*
X291195000Y-95372000D03*
X291195000Y-96652000D03*
X291195000Y-97932000D03*
%TD*%
D16*
%TO.C,D4*%
X298704000Y-132588000D03*
X298704000Y-135388000D03*
%TD*%
D17*
%TO.C,Q2*%
X296955500Y-119510000D03*
D18*
X304793000Y-119000000D03*
X304793000Y-125100000D03*
X309668000Y-119000000D03*
X309668000Y-125100000D03*
D17*
X296955500Y-124590000D03*
%TD*%
D19*
%TO.C,L2*%
X257407900Y-145973800D03*
X259532900Y-145973800D03*
%TD*%
D20*
%TO.C,R9*%
X285540500Y-125352000D03*
X287365500Y-125352000D03*
%TD*%
D21*
%TO.C,C12*%
X255960000Y-130942000D03*
X255960000Y-129042000D03*
%TD*%
D22*
%TO.C,R5*%
X284708600Y-102918900D03*
X284708600Y-101093900D03*
%TD*%
D23*
%TO.C,R2*%
X283182700Y-99288600D03*
X281357700Y-99288600D03*
%TD*%
D20*
%TO.C,R11*%
X282937500Y-147320000D03*
X284762500Y-147320000D03*
%TD*%
D24*
%TO.C,Q3*%
X289963500Y-121354000D03*
X289963500Y-123254000D03*
X291838500Y-122304000D03*
%TD*%
D14*
%TO.C,C13*%
X267010000Y-139833000D03*
X268910000Y-139833000D03*
%TD*%
D20*
%TO.C,R13*%
X257557900Y-150418800D03*
X259382900Y-150418800D03*
%TD*%
D14*
%TO.C,C14*%
X267010000Y-141833000D03*
X268910000Y-141833000D03*
%TD*%
D20*
%TO.C,R7*%
X285540500Y-119256000D03*
X287365500Y-119256000D03*
%TD*%
D25*
%TO.C,R10*%
X301244000Y-133075500D03*
X301244000Y-134900500D03*
%TD*%
D23*
%TO.C,R12*%
X268872500Y-150088000D03*
X267047500Y-150088000D03*
%TD*%
D26*
%TO.C,D3*%
X289501000Y-125352000D03*
X292301000Y-125352000D03*
%TD*%
D14*
%TO.C,C16*%
X267010000Y-145897000D03*
X268910000Y-145897000D03*
%TD*%
%TO.C,C18*%
X257520400Y-148386800D03*
X259420400Y-148386800D03*
%TD*%
D27*
%TO.C,C11*%
X255960000Y-123042000D03*
X255960000Y-124942000D03*
%TD*%
D28*
%TO.C,D5*%
X303022000Y-148638000D03*
X303022000Y-141938000D03*
%TD*%
D22*
%TO.C,R4*%
X298450000Y-102385540D03*
X298450000Y-100560540D03*
%TD*%
D20*
%TO.C,R8*%
X285540500Y-121288000D03*
X287365500Y-121288000D03*
%TD*%
D29*
%TO.C,U3*%
X256360000Y-135267000D03*
X256360000Y-135917000D03*
X256360000Y-136567000D03*
X256360000Y-137217000D03*
X256360000Y-137867000D03*
X256360000Y-138517000D03*
X256360000Y-139167000D03*
X256360000Y-139817000D03*
X256360000Y-140467000D03*
X256360000Y-141117000D03*
X256360000Y-141767000D03*
X256360000Y-142417000D03*
X256360000Y-143067000D03*
X256360000Y-143717000D03*
X263560000Y-143717000D03*
X263560000Y-143067000D03*
X263560000Y-142417000D03*
X263560000Y-141767000D03*
X263560000Y-141117000D03*
X263560000Y-140467000D03*
X263560000Y-139817000D03*
X263560000Y-139167000D03*
X263560000Y-138517000D03*
X263560000Y-137867000D03*
X263560000Y-137217000D03*
X263560000Y-136567000D03*
X263560000Y-135917000D03*
X263560000Y-135267000D03*
%TD*%
D30*
%TO.C,U2*%
X258055000Y-129467000D03*
X259325000Y-129467000D03*
X260595000Y-129467000D03*
X261865000Y-129467000D03*
X261865000Y-124517000D03*
X260595000Y-124517000D03*
X259325000Y-124517000D03*
X258055000Y-124517000D03*
%TD*%
D31*
%TO.C,U1*%
X289117000Y-99441000D03*
X289117000Y-100711000D03*
X289117000Y-101981000D03*
X289117000Y-103251000D03*
X294067000Y-103251000D03*
X294067000Y-101981000D03*
X294067000Y-100711000D03*
X294067000Y-99441000D03*
%TD*%
D32*
%TO.C,D2*%
X282773000Y-123320000D03*
X279973000Y-123320000D03*
%TD*%
D20*
%TO.C,R6*%
X284583500Y-105410000D03*
X286408500Y-105410000D03*
%TD*%
D33*
%TO.C,R1*%
X283803500Y-95250000D03*
X289728500Y-95250000D03*
%TD*%
D20*
%TO.C,R3*%
X284915600Y-99288600D03*
X286740600Y-99288600D03*
%TD*%
D34*
%TO.C,C8*%
X290002000Y-105410000D03*
X288102000Y-105410000D03*
%TD*%
D35*
%TO.C,J4*%
X259800000Y-152328575D03*
X260600000Y-152328575D03*
D36*
X261750000Y-152328575D03*
X262750000Y-152328575D03*
X263250000Y-152328575D03*
X264250000Y-152328575D03*
D35*
X266200000Y-152328575D03*
X265400000Y-152328575D03*
D36*
X264750000Y-152328575D03*
X263750000Y-152328575D03*
X262250000Y-152328575D03*
X261250000Y-152328575D03*
%TD*%
D27*
%TO.C,C7*%
X286740600Y-101056400D03*
X286740600Y-102956400D03*
%TD*%
D14*
%TO.C,C9*%
X291658000Y-105410000D03*
X293558000Y-105410000D03*
%TD*%
D37*
%TO.C,L1*%
X311427500Y-89154000D03*
X299962500Y-89154000D03*
D38*
X305695000Y-94831500D03*
X305695000Y-83476500D03*
%TD*%
D39*
%TO.C,Q4*%
X293565000Y-136274000D03*
D40*
X285727500Y-136784000D03*
X285727500Y-130684000D03*
X280852500Y-136784000D03*
X280852500Y-130684000D03*
D39*
X293565000Y-131194000D03*
%TD*%
D27*
%TO.C,C6*%
X296418000Y-100523040D03*
X296418000Y-102423040D03*
%TD*%
D34*
%TO.C,C17*%
X281112000Y-147320000D03*
X279212000Y-147320000D03*
%TD*%
D41*
%TO.C,J6*%
X332495860Y-83782400D03*
X336745860Y-83782400D03*
X332495860Y-85782400D03*
X336745860Y-85782400D03*
X332495860Y-87782400D03*
X336745860Y-87782400D03*
X332495860Y-89782400D03*
X336745860Y-89782400D03*
X332495860Y-91782400D03*
X336745860Y-91782400D03*
%TD*%
D23*
%TO.C,R14*%
X281074500Y-151384000D03*
X279249500Y-151384000D03*
%TD*%
M02*
