%TF.GenerationSoftware,KiCad,Pcbnew,9.0.4-9.0.4-0~ubuntu24.04.1*%
%TF.CreationDate,2025-10-19T09:54:07-07:00*%
%TF.ProjectId,NX-J401-Adapter,4e582d4a-3430-4312-9d41-646170746572,5*%
%TF.SameCoordinates,Original*%
%TF.FileFunction,Copper,L2,Bot*%
%TF.FilePolarity,Positive*%
%FSLAX46Y46*%
G04 Gerber Fmt 4.6, Leading zero omitted, Abs format (unit mm)*
G04 Created by KiCad (PCBNEW 9.0.4-9.0.4-0~ubuntu24.04.1) date 2025-10-19 09:54:07*
%MOMM*%
%LPD*%
G01*
G04 APERTURE LIST*
G04 Aperture macros list*
%AMRoundRect*
0 Rectangle with rounded corners*
0 $1 Rounding radius*
0 $2 $3 $4 $5 $6 $7 $8 $9 X,Y pos of 4 corners*
0 Add a 4 corners polygon primitive as box body*
4,1,4,$2,$3,$4,$5,$6,$7,$8,$9,$2,$3,0*
0 Add four circle primitives for the rounded corners*
1,1,$1+$1,$2,$3*
1,1,$1+$1,$4,$5*
1,1,$1+$1,$6,$7*
1,1,$1+$1,$8,$9*
0 Add four rect primitives between the rounded corners*
20,1,$1+$1,$2,$3,$4,$5,0*
20,1,$1+$1,$4,$5,$6,$7,0*
20,1,$1+$1,$6,$7,$8,$9,0*
20,1,$1+$1,$8,$9,$2,$3,0*%
G04 Aperture macros list end*
%ADD10C,0.300000*%
%TA.AperFunction,NonConductor*%
%ADD11C,0.300000*%
%TD*%
%TA.AperFunction,ComponentPad*%
%ADD12R,1.800000X1.800000*%
%TD*%
%TA.AperFunction,ComponentPad*%
%ADD13C,1.800000*%
%TD*%
%TA.AperFunction,ComponentPad*%
%ADD14C,2.200000*%
%TD*%
%TA.AperFunction,ComponentPad*%
%ADD15C,1.498600*%
%TD*%
%TA.AperFunction,ComponentPad*%
%ADD16C,1.803400*%
%TD*%
%TA.AperFunction,ComponentPad*%
%ADD17RoundRect,0.250000X-0.550000X0.550000X-0.550000X-0.550000X0.550000X-0.550000X0.550000X0.550000X0*%
%TD*%
%TA.AperFunction,ComponentPad*%
%ADD18C,1.600000*%
%TD*%
%TA.AperFunction,ComponentPad*%
%ADD19O,1.000000X1.800000*%
%TD*%
%TA.AperFunction,ComponentPad*%
%ADD20O,1.000000X2.200000*%
%TD*%
%TA.AperFunction,ViaPad*%
%ADD21C,0.812800*%
%TD*%
G04 APERTURE END LIST*
D10*
D11*
X322293685Y-93320082D02*
X322222257Y-93391510D01*
X322222257Y-93391510D02*
X322150828Y-93534368D01*
X322150828Y-93534368D02*
X322150828Y-93891510D01*
X322150828Y-93891510D02*
X322222257Y-94034368D01*
X322222257Y-94034368D02*
X322293685Y-94105796D01*
X322293685Y-94105796D02*
X322436542Y-94177225D01*
X322436542Y-94177225D02*
X322579400Y-94177225D01*
X322579400Y-94177225D02*
X322793685Y-94105796D01*
X322793685Y-94105796D02*
X323650828Y-93248653D01*
X323650828Y-93248653D02*
X323650828Y-94177225D01*
D12*
%TO.P,D7,1,KA*%
%TO.N,Net-(D7-KA)*%
X279230000Y-154165000D03*
D13*
%TO.P,D7,2,AK*%
%TO.N,GND*%
X281770000Y-154165000D03*
%TD*%
D14*
%TO.P,J1,1,Pin_1*%
%TO.N,+18V*%
X269326000Y-84241000D03*
X262300600Y-84241000D03*
%TO.P,J1,2,Pin_2*%
%TO.N,GND*%
X269326000Y-89241000D03*
X262326000Y-89241000D03*
%TD*%
D15*
%TO.P,SW1,1,1*%
%TO.N,/~{REC}*%
X234478000Y-156285700D03*
%TO.P,SW1,2,2*%
%TO.N,GND1*%
X238978001Y-156285700D03*
D16*
%TO.P,SW1,3*%
%TO.N,N/C*%
X233228001Y-153785824D03*
%TO.P,SW1,4*%
X240228000Y-153785824D03*
%TD*%
D14*
%TO.P,J3,1,Pin_1*%
%TO.N,/V_BAT*%
X290601400Y-149000600D03*
X290601400Y-156026000D03*
%TO.P,J3,2,Pin_2*%
%TO.N,GND*%
X295601400Y-149000600D03*
X295601400Y-156000600D03*
%TD*%
D17*
%TO.P,C3,1*%
%TO.N,/Power Supply/V_IN*%
X305308000Y-99947349D03*
D18*
%TO.P,C3,2*%
%TO.N,GND*%
X305308000Y-103447349D03*
%TD*%
D17*
%TO.P,C5,1*%
%TO.N,+18V*%
X275844000Y-100963349D03*
D18*
%TO.P,C5,2*%
%TO.N,GND*%
X275844000Y-104463349D03*
%TD*%
D12*
%TO.P,D6,1,KA*%
%TO.N,/PC_LED+*%
X273230000Y-154165000D03*
D13*
%TO.P,D6,2,AK*%
%TO.N,/PC_LED-*%
X275770000Y-154165000D03*
%TD*%
D15*
%TO.P,SW2,1,1*%
%TO.N,/~{SYS_RESET}*%
X247178000Y-156285700D03*
%TO.P,SW2,2,2*%
%TO.N,GND1*%
X251678001Y-156285700D03*
D16*
%TO.P,SW2,3*%
%TO.N,N/C*%
X245928001Y-153785824D03*
%TO.P,SW2,4*%
X252928000Y-153785824D03*
%TD*%
D17*
%TO.P,C1,1*%
%TO.N,+18V*%
X275844000Y-83183349D03*
D18*
%TO.P,C1,2*%
%TO.N,GND*%
X275844000Y-86683349D03*
%TD*%
D17*
%TO.P,C2,1*%
%TO.N,+18V*%
X275844000Y-92073349D03*
D18*
%TO.P,C2,2*%
%TO.N,GND*%
X275844000Y-95573349D03*
%TD*%
D19*
%TO.P,J4,S1,SHIELD*%
%TO.N,GND_USB*%
X258680000Y-152903575D03*
D20*
X258680000Y-156903575D03*
D19*
X267320000Y-152903575D03*
D20*
X267320000Y-156903575D03*
%TD*%
D17*
%TO.P,C4,1*%
%TO.N,/Power Supply/V_IN*%
X314452000Y-99947349D03*
D18*
%TO.P,C4,2*%
%TO.N,GND*%
X314452000Y-103447349D03*
%TD*%
D17*
%TO.P,C10,1*%
%TO.N,/Power Supply/V_IN*%
X309880000Y-107821349D03*
D18*
%TO.P,C10,2*%
%TO.N,GND*%
X309880000Y-111321349D03*
%TD*%
D21*
%TO.N,GND*%
X285242000Y-96266000D03*
X303022000Y-150622000D03*
X284327600Y-119278400D03*
X285241982Y-94234000D03*
X305308000Y-148590000D03*
X283438610Y-105359200D03*
X289052000Y-104266998D03*
X305714400Y-83515200D03*
X291605822Y-100813988D03*
X277876000Y-147320000D03*
X285242000Y-95250000D03*
X300736000Y-148590000D03*
X278790400Y-123342400D03*
X305714400Y-94843600D03*
X303022000Y-146812000D03*
X301244000Y-131699000D03*
X294995600Y-105410000D03*
%TO.N,GND_USB*%
X270078200Y-150063200D03*
X265201400Y-141528800D03*
X265226800Y-139496800D03*
X270129000Y-145872200D03*
X256387600Y-150393400D03*
X270078200Y-139827000D03*
X256794000Y-127787400D03*
X259816600Y-153568400D03*
X265201400Y-137210800D03*
X270103600Y-143865600D03*
X257987800Y-139192000D03*
X270103600Y-141833600D03*
X261874000Y-131191000D03*
X266217400Y-153619200D03*
X260553200Y-148386800D03*
%TO.N,GND1*%
X246507000Y-97409000D03*
X244525800Y-105816400D03*
X255981200Y-126085600D03*
X240461800Y-97383600D03*
X261865000Y-126254400D03*
%TD*%
%TA.AperFunction,Conductor*%
%TO.N,GND*%
G36*
X316878806Y-80665185D02*
G01*
X316924561Y-80717989D01*
X316934505Y-80787147D01*
X316906755Y-80849208D01*
X316901481Y-80855493D01*
X316643016Y-81224617D01*
X316643007Y-81224632D01*
X316417703Y-81614869D01*
X316417695Y-81614884D01*
X316227262Y-82023271D01*
X316227259Y-82023277D01*
X316227258Y-82023281D01*
X316162423Y-82201414D01*
X316073132Y-82446736D01*
X316009234Y-82685210D01*
X315972869Y-82744870D01*
X315910022Y-82775399D01*
X315840646Y-82767104D01*
X315786768Y-82722619D01*
X315774898Y-82700569D01*
X315735980Y-82606614D01*
X315735980Y-82606613D01*
X315735979Y-82606611D01*
X315735977Y-82606608D01*
X315735975Y-82606604D01*
X315645091Y-82470587D01*
X315645088Y-82470583D01*
X315529416Y-82354911D01*
X315529412Y-82354908D01*
X315393395Y-82264024D01*
X315393386Y-82264019D01*
X315242248Y-82201416D01*
X315242242Y-82201414D01*
X315081799Y-82169500D01*
X315081797Y-82169500D01*
X314918203Y-82169500D01*
X314918201Y-82169500D01*
X314757757Y-82201414D01*
X314757751Y-82201416D01*
X314606613Y-82264019D01*
X314606604Y-82264024D01*
X314470587Y-82354908D01*
X314470583Y-82354911D01*
X314354911Y-82470583D01*
X314354908Y-82470587D01*
X314264024Y-82606604D01*
X314264019Y-82606613D01*
X314201416Y-82757751D01*
X314201414Y-82757757D01*
X314169500Y-82918200D01*
X314169500Y-82918203D01*
X314169500Y-83081797D01*
X314169500Y-83081799D01*
X314169499Y-83081799D01*
X314201414Y-83242242D01*
X314201416Y-83242248D01*
X314264019Y-83393386D01*
X314264024Y-83393395D01*
X314354908Y-83529412D01*
X314354911Y-83529416D01*
X314470583Y-83645088D01*
X314470587Y-83645091D01*
X314606604Y-83735975D01*
X314606610Y-83735978D01*
X314606611Y-83735979D01*
X314757752Y-83798584D01*
X314757756Y-83798584D01*
X314757757Y-83798585D01*
X314918200Y-83830500D01*
X314918203Y-83830500D01*
X315081799Y-83830500D01*
X315189742Y-83809028D01*
X315242248Y-83798584D01*
X315393389Y-83735979D01*
X315529413Y-83645091D01*
X315640184Y-83534319D01*
X315701505Y-83500836D01*
X315771197Y-83505820D01*
X315827131Y-83547691D01*
X315851548Y-83613155D01*
X315851392Y-83632809D01*
X315838980Y-83774683D01*
X315838980Y-84225313D01*
X315878255Y-84674226D01*
X315878255Y-84674228D01*
X315956503Y-85117991D01*
X315956507Y-85118008D01*
X316073131Y-85553260D01*
X316073134Y-85553270D01*
X316073135Y-85553271D01*
X316227258Y-85976719D01*
X316227261Y-85976726D01*
X316227262Y-85976728D01*
X316417695Y-86385115D01*
X316417703Y-86385130D01*
X316643007Y-86775367D01*
X316643016Y-86775382D01*
X316901484Y-87144512D01*
X317122419Y-87407811D01*
X317191136Y-87489704D01*
X317509776Y-87808344D01*
X317632615Y-87911418D01*
X317854967Y-88097995D01*
X317854973Y-88097999D01*
X317854974Y-88098000D01*
X318224104Y-88356468D01*
X318464634Y-88495338D01*
X318614349Y-88581776D01*
X318614364Y-88581784D01*
X318795869Y-88666420D01*
X319022761Y-88772222D01*
X319446209Y-88926345D01*
X319446215Y-88926346D01*
X319446219Y-88926348D01*
X319564751Y-88958108D01*
X319881479Y-89042975D01*
X320325258Y-89121225D01*
X320774166Y-89160499D01*
X320774167Y-89160500D01*
X320774168Y-89160500D01*
X321224793Y-89160500D01*
X321224793Y-89160499D01*
X321510251Y-89135525D01*
X321578750Y-89149291D01*
X321628933Y-89197907D01*
X321645057Y-89258650D01*
X321655985Y-92617004D01*
X321636519Y-92684107D01*
X321619668Y-92705087D01*
X321612603Y-92712152D01*
X321612603Y-94715450D01*
X321626825Y-94729672D01*
X321660310Y-94790995D01*
X321663143Y-94816950D01*
X321690993Y-103376120D01*
X321690993Y-103376240D01*
X321690994Y-103376242D01*
X321690998Y-103378000D01*
X321690996Y-103379524D01*
X321690996Y-103379683D01*
X321690996Y-103379758D01*
X321614833Y-136738584D01*
X321594995Y-136805578D01*
X321542087Y-136851213D01*
X321480026Y-136861829D01*
X321224796Y-136839500D01*
X321224792Y-136839500D01*
X320774168Y-136839500D01*
X320774167Y-136839500D01*
X320325253Y-136878775D01*
X320325251Y-136878775D01*
X319881488Y-136957023D01*
X319881471Y-136957027D01*
X319446219Y-137073651D01*
X319282614Y-137133199D01*
X319022761Y-137227778D01*
X319022757Y-137227779D01*
X319022751Y-137227782D01*
X318614364Y-137418215D01*
X318614349Y-137418223D01*
X318224112Y-137643527D01*
X318224097Y-137643536D01*
X317854967Y-137902004D01*
X317509773Y-138191658D01*
X317191138Y-138510293D01*
X316901484Y-138855487D01*
X316643016Y-139224617D01*
X316643007Y-139224632D01*
X316417703Y-139614869D01*
X316417695Y-139614884D01*
X316227262Y-140023271D01*
X316073131Y-140446739D01*
X315956507Y-140881991D01*
X315956503Y-140882008D01*
X315878255Y-141325771D01*
X315878255Y-141325773D01*
X315838980Y-141774686D01*
X315838980Y-142225313D01*
X315878255Y-142674226D01*
X315878255Y-142674228D01*
X315956503Y-143117991D01*
X315956507Y-143118008D01*
X316073131Y-143553260D01*
X316073134Y-143553270D01*
X316073135Y-143553271D01*
X316227258Y-143976719D01*
X316227261Y-143976726D01*
X316227262Y-143976728D01*
X316417695Y-144385115D01*
X316417703Y-144385130D01*
X316643007Y-144775367D01*
X316643016Y-144775382D01*
X316901484Y-145144512D01*
X316998557Y-145260198D01*
X317191136Y-145489704D01*
X317509776Y-145808344D01*
X317632615Y-145911418D01*
X317854967Y-146097995D01*
X317854973Y-146097999D01*
X317854974Y-146098000D01*
X318224104Y-146356468D01*
X318445346Y-146484202D01*
X318614349Y-146581776D01*
X318614364Y-146581784D01*
X318717380Y-146629821D01*
X319022761Y-146772222D01*
X319446209Y-146926345D01*
X319446215Y-146926346D01*
X319446219Y-146926348D01*
X319564751Y-146958108D01*
X319881479Y-147042975D01*
X320325258Y-147121225D01*
X320774166Y-147160499D01*
X320774167Y-147160500D01*
X320774168Y-147160500D01*
X321224793Y-147160500D01*
X321224793Y-147160499D01*
X321455998Y-147140271D01*
X321524494Y-147154037D01*
X321574677Y-147202652D01*
X321590802Y-147264082D01*
X321565732Y-158244783D01*
X321545894Y-158311777D01*
X321492986Y-158357412D01*
X321441732Y-158368500D01*
X277627167Y-158368500D01*
X277647160Y-155909403D01*
X289119900Y-155909403D01*
X289119900Y-156142596D01*
X289156380Y-156372920D01*
X289228438Y-156594696D01*
X289228439Y-156594699D01*
X289334310Y-156802478D01*
X289471369Y-156991125D01*
X289471373Y-156991130D01*
X289636269Y-157156026D01*
X289636274Y-157156030D01*
X289800823Y-157275581D01*
X289824925Y-157293092D01*
X289960749Y-157362298D01*
X290032700Y-157398960D01*
X290032703Y-157398961D01*
X290052521Y-157405400D01*
X290254481Y-157471020D01*
X290484803Y-157507500D01*
X290484804Y-157507500D01*
X290717996Y-157507500D01*
X290717997Y-157507500D01*
X290948319Y-157471020D01*
X291170099Y-157398960D01*
X291377875Y-157293092D01*
X291566532Y-157156025D01*
X291731425Y-156991132D01*
X291868492Y-156802475D01*
X291974360Y-156594699D01*
X292046420Y-156372919D01*
X292082900Y-156142597D01*
X292082900Y-155909403D01*
X292079833Y-155890040D01*
X294196600Y-155890040D01*
X294196600Y-156111159D01*
X294231191Y-156329559D01*
X294231191Y-156329562D01*
X294299519Y-156539853D01*
X294399909Y-156736879D01*
X294406723Y-156746260D01*
X294406725Y-156746260D01*
X295057439Y-156095547D01*
X295088882Y-156212892D01*
X295161290Y-156338308D01*
X295263692Y-156440710D01*
X295389108Y-156513118D01*
X295506451Y-156544560D01*
X294855738Y-157195273D01*
X294855738Y-157195274D01*
X294865121Y-157202091D01*
X295062146Y-157302480D01*
X295272438Y-157370808D01*
X295490841Y-157405400D01*
X295711959Y-157405400D01*
X295930359Y-157370808D01*
X295930362Y-157370808D01*
X296140653Y-157302480D01*
X296337672Y-157202094D01*
X296337677Y-157202091D01*
X296347061Y-157195273D01*
X295696349Y-156544560D01*
X295813692Y-156513118D01*
X295939108Y-156440710D01*
X296041510Y-156338308D01*
X296113918Y-156212892D01*
X296145360Y-156095547D01*
X296796073Y-156746260D01*
X296802891Y-156736877D01*
X296802894Y-156736872D01*
X296903280Y-156539853D01*
X296971608Y-156329562D01*
X296971608Y-156329559D01*
X297006200Y-156111159D01*
X297006200Y-155890040D01*
X296971608Y-155671640D01*
X296971608Y-155671637D01*
X296903280Y-155461346D01*
X296802891Y-155264321D01*
X296796073Y-155254938D01*
X296145360Y-155905650D01*
X296113918Y-155788308D01*
X296041510Y-155662892D01*
X295939108Y-155560490D01*
X295813692Y-155488082D01*
X295696348Y-155456639D01*
X296347060Y-154805925D01*
X296347060Y-154805923D01*
X296337679Y-154799109D01*
X296140653Y-154698719D01*
X295930361Y-154630391D01*
X295711959Y-154595800D01*
X295490841Y-154595800D01*
X295272440Y-154630391D01*
X295272437Y-154630391D01*
X295062146Y-154698719D01*
X294865120Y-154799109D01*
X294855738Y-154805925D01*
X295506452Y-155456639D01*
X295389108Y-155488082D01*
X295263692Y-155560490D01*
X295161290Y-155662892D01*
X295088882Y-155788308D01*
X295057439Y-155905652D01*
X294406725Y-155254938D01*
X294399909Y-155264320D01*
X294299519Y-155461346D01*
X294231191Y-155671637D01*
X294231191Y-155671640D01*
X294196600Y-155890040D01*
X292079833Y-155890040D01*
X292046420Y-155679081D01*
X291995512Y-155522400D01*
X291974361Y-155457303D01*
X291974360Y-155457300D01*
X291914659Y-155340132D01*
X291868492Y-155249525D01*
X291814609Y-155175361D01*
X291731430Y-155060874D01*
X291731426Y-155060869D01*
X291566530Y-154895973D01*
X291566525Y-154895969D01*
X291377878Y-154758910D01*
X291377877Y-154758909D01*
X291377875Y-154758908D01*
X291311309Y-154724990D01*
X291170099Y-154653039D01*
X291170096Y-154653038D01*
X290948320Y-154580980D01*
X290833158Y-154562740D01*
X290717997Y-154544500D01*
X290484803Y-154544500D01*
X290408029Y-154556660D01*
X290254479Y-154580980D01*
X290032703Y-154653038D01*
X290032700Y-154653039D01*
X289824921Y-154758910D01*
X289636274Y-154895969D01*
X289636269Y-154895973D01*
X289471373Y-155060869D01*
X289471369Y-155060874D01*
X289334310Y-155249521D01*
X289228439Y-155457300D01*
X289228438Y-155457303D01*
X289156380Y-155679079D01*
X289119900Y-155909403D01*
X277647160Y-155909403D01*
X277668953Y-153228794D01*
X277948500Y-153228794D01*
X277948500Y-155101206D01*
X277959304Y-155175361D01*
X277959304Y-155175362D01*
X277959305Y-155175364D01*
X278015221Y-155289743D01*
X278015223Y-155289746D01*
X278105253Y-155379776D01*
X278105256Y-155379778D01*
X278191777Y-155422075D01*
X278219639Y-155435696D01*
X278293794Y-155446500D01*
X278293800Y-155446500D01*
X280166200Y-155446500D01*
X280166206Y-155446500D01*
X280240361Y-155435696D01*
X280297553Y-155407736D01*
X280354743Y-155379778D01*
X280354746Y-155379776D01*
X280444776Y-155289746D01*
X280444778Y-155289743D01*
X280500695Y-155175363D01*
X280500696Y-155175361D01*
X280504148Y-155151670D01*
X280504181Y-155151441D01*
X280505487Y-155142474D01*
X280511500Y-155101206D01*
X280511500Y-154865351D01*
X280531185Y-154798312D01*
X280583989Y-154752557D01*
X280653147Y-154742613D01*
X280685615Y-154757440D01*
X280722675Y-154763310D01*
X281320000Y-154165986D01*
X281320000Y-154224244D01*
X281350667Y-154338694D01*
X281409910Y-154441306D01*
X281493694Y-154525090D01*
X281596306Y-154584333D01*
X281710756Y-154615000D01*
X281769012Y-154615000D01*
X281171688Y-155212322D01*
X281307520Y-155281533D01*
X281487873Y-155340132D01*
X281675181Y-155369800D01*
X281864819Y-155369800D01*
X282052126Y-155340132D01*
X282232473Y-155281535D01*
X282368310Y-155212322D01*
X281770989Y-154615000D01*
X281829244Y-154615000D01*
X281943694Y-154584333D01*
X282046306Y-154525090D01*
X282130090Y-154441306D01*
X282189333Y-154338694D01*
X282220000Y-154224244D01*
X282220000Y-154165988D01*
X282817322Y-154763310D01*
X282886535Y-154627473D01*
X282945132Y-154447126D01*
X282974800Y-154259818D01*
X282974800Y-154081799D01*
X315169499Y-154081799D01*
X315201414Y-154242242D01*
X315201416Y-154242248D01*
X315264019Y-154393386D01*
X315264024Y-154393395D01*
X315354908Y-154529412D01*
X315354911Y-154529416D01*
X315470583Y-154645088D01*
X315470587Y-154645091D01*
X315606604Y-154735975D01*
X315606610Y-154735978D01*
X315606611Y-154735979D01*
X315757752Y-154798584D01*
X315757756Y-154798584D01*
X315757757Y-154798585D01*
X315918200Y-154830500D01*
X315918203Y-154830500D01*
X316081799Y-154830500D01*
X316189742Y-154809028D01*
X316242248Y-154798584D01*
X316393389Y-154735979D01*
X316529413Y-154645091D01*
X316645091Y-154529413D01*
X316735979Y-154393389D01*
X316798584Y-154242248D01*
X316822611Y-154121457D01*
X316830500Y-154081799D01*
X316830500Y-153918200D01*
X316798585Y-153757757D01*
X316798584Y-153757756D01*
X316798584Y-153757752D01*
X316735979Y-153606611D01*
X316735978Y-153606610D01*
X316735975Y-153606604D01*
X316645091Y-153470587D01*
X316645088Y-153470583D01*
X316529416Y-153354911D01*
X316529412Y-153354908D01*
X316393395Y-153264024D01*
X316393386Y-153264019D01*
X316242248Y-153201416D01*
X316242242Y-153201414D01*
X316081799Y-153169500D01*
X316081797Y-153169500D01*
X315918203Y-153169500D01*
X315918201Y-153169500D01*
X315757757Y-153201414D01*
X315757751Y-153201416D01*
X315606613Y-153264019D01*
X315606604Y-153264024D01*
X315470587Y-153354908D01*
X315470583Y-153354911D01*
X315354911Y-153470583D01*
X315354908Y-153470587D01*
X315264024Y-153606604D01*
X315264019Y-153606613D01*
X315201416Y-153757751D01*
X315201414Y-153757757D01*
X315169500Y-153918200D01*
X315169500Y-153918203D01*
X315169500Y-154081797D01*
X315169500Y-154081799D01*
X315169499Y-154081799D01*
X282974800Y-154081799D01*
X282974800Y-154070181D01*
X282952836Y-153931509D01*
X282945132Y-153882873D01*
X282886533Y-153702520D01*
X282817322Y-153566688D01*
X282220000Y-154164010D01*
X282220000Y-154105756D01*
X282189333Y-153991306D01*
X282130090Y-153888694D01*
X282046306Y-153804910D01*
X281943694Y-153745667D01*
X281829244Y-153715000D01*
X281770988Y-153715000D01*
X282368310Y-153117676D01*
X282232482Y-153048467D01*
X282232479Y-153048466D01*
X282052126Y-152989867D01*
X281864819Y-152960200D01*
X281675181Y-152960200D01*
X281487873Y-152989867D01*
X281307520Y-153048466D01*
X281307517Y-153048467D01*
X281171689Y-153117676D01*
X281769013Y-153715000D01*
X281710756Y-153715000D01*
X281596306Y-153745667D01*
X281493694Y-153804910D01*
X281409910Y-153888694D01*
X281350667Y-153991306D01*
X281320000Y-154105756D01*
X281320000Y-154164013D01*
X280722675Y-153566688D01*
X280699280Y-153570393D01*
X280698010Y-153571739D01*
X280630189Y-153588534D01*
X280564054Y-153565997D01*
X280520603Y-153511281D01*
X280511500Y-153464648D01*
X280511500Y-153228800D01*
X280511500Y-153228799D01*
X280511500Y-153228794D01*
X280500696Y-153154639D01*
X280482626Y-153117676D01*
X280444778Y-153040256D01*
X280444776Y-153040253D01*
X280354746Y-152950223D01*
X280354743Y-152950221D01*
X280240364Y-152894305D01*
X280240362Y-152894304D01*
X280240361Y-152894304D01*
X280166206Y-152883500D01*
X278293794Y-152883500D01*
X278219639Y-152894304D01*
X278219637Y-152894304D01*
X278219635Y-152894305D01*
X278105256Y-152950221D01*
X278105253Y-152950223D01*
X278015223Y-153040253D01*
X278015221Y-153040256D01*
X277959305Y-153154635D01*
X277959304Y-153154637D01*
X277959304Y-153154639D01*
X277948500Y-153228794D01*
X277668953Y-153228794D01*
X277704276Y-148884003D01*
X289119900Y-148884003D01*
X289119900Y-149117196D01*
X289156380Y-149347520D01*
X289228438Y-149569296D01*
X289228439Y-149569299D01*
X289292576Y-149695172D01*
X289313823Y-149736872D01*
X289334310Y-149777078D01*
X289471369Y-149965725D01*
X289471373Y-149965730D01*
X289636269Y-150130626D01*
X289636274Y-150130630D01*
X289734637Y-150202094D01*
X289824925Y-150267692D01*
X289919340Y-150315799D01*
X290032700Y-150373560D01*
X290032703Y-150373561D01*
X290130695Y-150405400D01*
X290254481Y-150445620D01*
X290484803Y-150482100D01*
X290484804Y-150482100D01*
X290717996Y-150482100D01*
X290717997Y-150482100D01*
X290948319Y-150445620D01*
X291170099Y-150373560D01*
X291377875Y-150267692D01*
X291566532Y-150130625D01*
X291731425Y-149965732D01*
X291868492Y-149777075D01*
X291974360Y-149569299D01*
X292046420Y-149347519D01*
X292082900Y-149117197D01*
X292082900Y-148890040D01*
X294196600Y-148890040D01*
X294196600Y-149111159D01*
X294231191Y-149329559D01*
X294231191Y-149329562D01*
X294299519Y-149539853D01*
X294399909Y-149736879D01*
X294406723Y-149746260D01*
X294406725Y-149746260D01*
X295057439Y-149095547D01*
X295088882Y-149212892D01*
X295161290Y-149338308D01*
X295263692Y-149440710D01*
X295389108Y-149513118D01*
X295506451Y-149544560D01*
X294855738Y-150195273D01*
X294855738Y-150195274D01*
X294865121Y-150202091D01*
X295062146Y-150302480D01*
X295272438Y-150370808D01*
X295490841Y-150405400D01*
X295711959Y-150405400D01*
X295930359Y-150370808D01*
X295930362Y-150370808D01*
X296140653Y-150302480D01*
X296337672Y-150202094D01*
X296337677Y-150202091D01*
X296347061Y-150195273D01*
X295696349Y-149544560D01*
X295813692Y-149513118D01*
X295939108Y-149440710D01*
X296041510Y-149338308D01*
X296113918Y-149212892D01*
X296145360Y-149095547D01*
X296796073Y-149746260D01*
X296802891Y-149736877D01*
X296802894Y-149736872D01*
X296903280Y-149539853D01*
X296971608Y-149329562D01*
X296971608Y-149329559D01*
X297006200Y-149111159D01*
X297006200Y-148890040D01*
X296971608Y-148671640D01*
X296971608Y-148671637D01*
X296903280Y-148461346D01*
X296802891Y-148264321D01*
X296796073Y-148254938D01*
X296145360Y-148905650D01*
X296113918Y-148788308D01*
X296041510Y-148662892D01*
X295939108Y-148560490D01*
X295813692Y-148488082D01*
X295696348Y-148456639D01*
X296347060Y-147805925D01*
X296347060Y-147805923D01*
X296337679Y-147799109D01*
X296140653Y-147698719D01*
X295930361Y-147630391D01*
X295711959Y-147595800D01*
X295490841Y-147595800D01*
X295272440Y-147630391D01*
X295272437Y-147630391D01*
X295062146Y-147698719D01*
X294865120Y-147799109D01*
X294855738Y-147805925D01*
X295506452Y-148456639D01*
X295389108Y-148488082D01*
X295263692Y-148560490D01*
X295161290Y-148662892D01*
X295088882Y-148788308D01*
X295057439Y-148905652D01*
X294406725Y-148254938D01*
X294399909Y-148264320D01*
X294299519Y-148461346D01*
X294231191Y-148671637D01*
X294231191Y-148671640D01*
X294196600Y-148890040D01*
X292082900Y-148890040D01*
X292082900Y-148884003D01*
X292046420Y-148653681D01*
X291974360Y-148431901D01*
X291974360Y-148431900D01*
X291937698Y-148359949D01*
X291868492Y-148224125D01*
X291819707Y-148156978D01*
X291731430Y-148035474D01*
X291731426Y-148035469D01*
X291566530Y-147870573D01*
X291566525Y-147870569D01*
X291377878Y-147733510D01*
X291377877Y-147733509D01*
X291377875Y-147733508D01*
X291289684Y-147688572D01*
X291170099Y-147627639D01*
X291170096Y-147627638D01*
X290948320Y-147555580D01*
X290833158Y-147537340D01*
X290717997Y-147519100D01*
X290484803Y-147519100D01*
X290408029Y-147531260D01*
X290254479Y-147555580D01*
X290032703Y-147627638D01*
X290032700Y-147627639D01*
X289824921Y-147733510D01*
X289636274Y-147870569D01*
X289636269Y-147870573D01*
X289471373Y-148035469D01*
X289471369Y-148035474D01*
X289334310Y-148224121D01*
X289228439Y-148431900D01*
X289228438Y-148431903D01*
X289156380Y-148653679D01*
X289119900Y-148884003D01*
X277704276Y-148884003D01*
X277749000Y-143383000D01*
X265430000Y-113538000D01*
X264395783Y-112294321D01*
X309356037Y-112294321D01*
X309455906Y-112345207D01*
X309621295Y-112398945D01*
X309621294Y-112398945D01*
X309793051Y-112426149D01*
X309966949Y-112426149D01*
X310138704Y-112398945D01*
X310304094Y-112345207D01*
X310304101Y-112345204D01*
X310403961Y-112294321D01*
X309880001Y-111770361D01*
X309880000Y-111770361D01*
X309356037Y-112294321D01*
X264395783Y-112294321D01*
X263514374Y-111234399D01*
X308775200Y-111234399D01*
X308775200Y-111408298D01*
X308802403Y-111580053D01*
X308856143Y-111745447D01*
X308907025Y-111845309D01*
X309430987Y-111321349D01*
X309430987Y-111321348D01*
X309378327Y-111268688D01*
X309480000Y-111268688D01*
X309480000Y-111374010D01*
X309507259Y-111475743D01*
X309559920Y-111566955D01*
X309634394Y-111641429D01*
X309725606Y-111694090D01*
X309827339Y-111721349D01*
X309932661Y-111721349D01*
X310034394Y-111694090D01*
X310125606Y-111641429D01*
X310200080Y-111566955D01*
X310252741Y-111475743D01*
X310280000Y-111374010D01*
X310280000Y-111321348D01*
X310329012Y-111321348D01*
X310329012Y-111321349D01*
X310852972Y-111845310D01*
X310903855Y-111745450D01*
X310903858Y-111745443D01*
X310957596Y-111580053D01*
X310984800Y-111408298D01*
X310984800Y-111234399D01*
X310957596Y-111062644D01*
X310903858Y-110897255D01*
X310852972Y-110797386D01*
X310329012Y-111321348D01*
X310280000Y-111321348D01*
X310280000Y-111268688D01*
X310252741Y-111166955D01*
X310200080Y-111075743D01*
X310125606Y-111001269D01*
X310034394Y-110948608D01*
X309932661Y-110921349D01*
X309827339Y-110921349D01*
X309725606Y-110948608D01*
X309634394Y-111001269D01*
X309559920Y-111075743D01*
X309507259Y-111166955D01*
X309480000Y-111268688D01*
X309378327Y-111268688D01*
X308907026Y-110797387D01*
X308856143Y-110897250D01*
X308802403Y-111062644D01*
X308775200Y-111234399D01*
X263514374Y-111234399D01*
X262777575Y-110348375D01*
X309356038Y-110348375D01*
X309880000Y-110872336D01*
X309880001Y-110872336D01*
X310403961Y-110348375D01*
X310304098Y-110297492D01*
X310138704Y-110243752D01*
X310138705Y-110243752D01*
X309966949Y-110216549D01*
X309793051Y-110216549D01*
X309621295Y-110243752D01*
X309455901Y-110297492D01*
X309356038Y-110348375D01*
X262777575Y-110348375D01*
X260165750Y-107207573D01*
X308698500Y-107207573D01*
X308698500Y-108435124D01*
X308701317Y-108470918D01*
X308701319Y-108470929D01*
X308745830Y-108624136D01*
X308745832Y-108624142D01*
X308827049Y-108761473D01*
X308827055Y-108761481D01*
X308939867Y-108874293D01*
X308939871Y-108874296D01*
X308939873Y-108874298D01*
X309077208Y-108955517D01*
X309230426Y-109000031D01*
X309266230Y-109002849D01*
X309266236Y-109002849D01*
X310493764Y-109002849D01*
X310493770Y-109002849D01*
X310529574Y-109000031D01*
X310682792Y-108955517D01*
X310820127Y-108874298D01*
X310932949Y-108761476D01*
X311014168Y-108624141D01*
X311058682Y-108470923D01*
X311061500Y-108435119D01*
X311061500Y-107207579D01*
X311058682Y-107171775D01*
X311014168Y-107018557D01*
X310932949Y-106881222D01*
X310932947Y-106881220D01*
X310932944Y-106881216D01*
X310820132Y-106768404D01*
X310820124Y-106768398D01*
X310682793Y-106687181D01*
X310682787Y-106687179D01*
X310529580Y-106642668D01*
X310529569Y-106642666D01*
X310493775Y-106639849D01*
X310493770Y-106639849D01*
X309266230Y-106639849D01*
X309266224Y-106639849D01*
X309230430Y-106642666D01*
X309230419Y-106642668D01*
X309077212Y-106687179D01*
X309077206Y-106687181D01*
X308939875Y-106768398D01*
X308939867Y-106768404D01*
X308827055Y-106881216D01*
X308827049Y-106881224D01*
X308745832Y-107018555D01*
X308745830Y-107018561D01*
X308701319Y-107171768D01*
X308701317Y-107171779D01*
X308698500Y-107207573D01*
X260165750Y-107207573D01*
X259410200Y-106299000D01*
X259410200Y-105436321D01*
X275320037Y-105436321D01*
X275419906Y-105487207D01*
X275585295Y-105540945D01*
X275585294Y-105540945D01*
X275757051Y-105568149D01*
X275930949Y-105568149D01*
X276102704Y-105540945D01*
X276268094Y-105487207D01*
X276268101Y-105487204D01*
X276367961Y-105436321D01*
X275844001Y-104912361D01*
X275844000Y-104912361D01*
X275320037Y-105436321D01*
X259410200Y-105436321D01*
X259410200Y-104376399D01*
X274739200Y-104376399D01*
X274739200Y-104550298D01*
X274766403Y-104722053D01*
X274820143Y-104887447D01*
X274871025Y-104987309D01*
X275394987Y-104463349D01*
X275394987Y-104463348D01*
X275342327Y-104410688D01*
X275444000Y-104410688D01*
X275444000Y-104516010D01*
X275471259Y-104617743D01*
X275523920Y-104708955D01*
X275598394Y-104783429D01*
X275689606Y-104836090D01*
X275791339Y-104863349D01*
X275896661Y-104863349D01*
X275998394Y-104836090D01*
X276089606Y-104783429D01*
X276164080Y-104708955D01*
X276216741Y-104617743D01*
X276244000Y-104516010D01*
X276244000Y-104463348D01*
X276293012Y-104463348D01*
X276293012Y-104463350D01*
X276816972Y-104987310D01*
X276867855Y-104887450D01*
X276867858Y-104887443D01*
X276921596Y-104722053D01*
X276948800Y-104550298D01*
X276948800Y-104376399D01*
X276921596Y-104204644D01*
X276867858Y-104039255D01*
X276816972Y-103939386D01*
X276293012Y-104463348D01*
X276244000Y-104463348D01*
X276244000Y-104410688D01*
X276216741Y-104308955D01*
X276164080Y-104217743D01*
X276089606Y-104143269D01*
X275998394Y-104090608D01*
X275896661Y-104063349D01*
X275791339Y-104063349D01*
X275689606Y-104090608D01*
X275598394Y-104143269D01*
X275523920Y-104217743D01*
X275471259Y-104308955D01*
X275444000Y-104410688D01*
X275342327Y-104410688D01*
X274871026Y-103939387D01*
X274820143Y-104039250D01*
X274766403Y-104204644D01*
X274739200Y-104376399D01*
X259410200Y-104376399D01*
X259410200Y-103490375D01*
X275320038Y-103490375D01*
X275844000Y-104014336D01*
X275844001Y-104014336D01*
X276367961Y-103490375D01*
X276268098Y-103439492D01*
X276102704Y-103385752D01*
X276102705Y-103385752D01*
X275930949Y-103358549D01*
X275757051Y-103358549D01*
X275585295Y-103385752D01*
X275419901Y-103439492D01*
X275320038Y-103490375D01*
X259410200Y-103490375D01*
X259410200Y-100349573D01*
X274662500Y-100349573D01*
X274662500Y-101577124D01*
X274665317Y-101612918D01*
X274665319Y-101612929D01*
X274709830Y-101766136D01*
X274709832Y-101766142D01*
X274791049Y-101903473D01*
X274791055Y-101903481D01*
X274903867Y-102016293D01*
X274903871Y-102016296D01*
X274903873Y-102016298D01*
X275041208Y-102097517D01*
X275194426Y-102142031D01*
X275230230Y-102144849D01*
X275230236Y-102144849D01*
X276457764Y-102144849D01*
X276457770Y-102144849D01*
X276493574Y-102142031D01*
X276646792Y-102097517D01*
X276784127Y-102016298D01*
X276896949Y-101903476D01*
X276978168Y-101766141D01*
X277022682Y-101612923D01*
X277025500Y-101577119D01*
X277025500Y-100380800D01*
X281368500Y-100380800D01*
X281368500Y-106933999D01*
X281372158Y-106971158D01*
X281372160Y-106971164D01*
X281400605Y-107039837D01*
X281453162Y-107092394D01*
X281453163Y-107092394D01*
X281453164Y-107092395D01*
X281521835Y-107120840D01*
X281521839Y-107120840D01*
X281521841Y-107120841D01*
X281551791Y-107123790D01*
X281559000Y-107124500D01*
X281559001Y-107124500D01*
X300986522Y-107124500D01*
X300986523Y-107124500D01*
X300995466Y-107123619D01*
X301023681Y-107120841D01*
X301023682Y-107120840D01*
X301023688Y-107120840D01*
X301092359Y-107092395D01*
X301144918Y-107039836D01*
X301173363Y-106971165D01*
X301177023Y-106934000D01*
X301174274Y-104420321D01*
X304784037Y-104420321D01*
X304883906Y-104471207D01*
X305049295Y-104524945D01*
X305049294Y-104524945D01*
X305221051Y-104552149D01*
X305394949Y-104552149D01*
X305566704Y-104524945D01*
X305732094Y-104471207D01*
X305732101Y-104471204D01*
X305831961Y-104420321D01*
X313928037Y-104420321D01*
X314027906Y-104471207D01*
X314193295Y-104524945D01*
X314193294Y-104524945D01*
X314365051Y-104552149D01*
X314538949Y-104552149D01*
X314710704Y-104524945D01*
X314876094Y-104471207D01*
X314876101Y-104471204D01*
X314975961Y-104420321D01*
X314452001Y-103896361D01*
X314452000Y-103896361D01*
X313928037Y-104420321D01*
X305831961Y-104420321D01*
X305308001Y-103896361D01*
X305308000Y-103896361D01*
X304784037Y-104420321D01*
X301174274Y-104420321D01*
X301173115Y-103360399D01*
X304203200Y-103360399D01*
X304203200Y-103534298D01*
X304230403Y-103706053D01*
X304284143Y-103871447D01*
X304335025Y-103971309D01*
X304858987Y-103447349D01*
X304858987Y-103447348D01*
X304806327Y-103394688D01*
X304908000Y-103394688D01*
X304908000Y-103500010D01*
X304935259Y-103601743D01*
X304987920Y-103692955D01*
X305062394Y-103767429D01*
X305153606Y-103820090D01*
X305255339Y-103847349D01*
X305360661Y-103847349D01*
X305462394Y-103820090D01*
X305553606Y-103767429D01*
X305628080Y-103692955D01*
X305680741Y-103601743D01*
X305708000Y-103500010D01*
X305708000Y-103447348D01*
X305757012Y-103447348D01*
X305757012Y-103447349D01*
X306280972Y-103971310D01*
X306331855Y-103871450D01*
X306331858Y-103871443D01*
X306385596Y-103706053D01*
X306412800Y-103534298D01*
X306412800Y-103360399D01*
X313347200Y-103360399D01*
X313347200Y-103534298D01*
X313374403Y-103706053D01*
X313428143Y-103871447D01*
X313479025Y-103971309D01*
X314002987Y-103447349D01*
X314002987Y-103447348D01*
X313950327Y-103394688D01*
X314052000Y-103394688D01*
X314052000Y-103500010D01*
X314079259Y-103601743D01*
X314131920Y-103692955D01*
X314206394Y-103767429D01*
X314297606Y-103820090D01*
X314399339Y-103847349D01*
X314504661Y-103847349D01*
X314606394Y-103820090D01*
X314697606Y-103767429D01*
X314772080Y-103692955D01*
X314824741Y-103601743D01*
X314852000Y-103500010D01*
X314852000Y-103447348D01*
X314901012Y-103447348D01*
X314901012Y-103447349D01*
X315424972Y-103971310D01*
X315475855Y-103871450D01*
X315475858Y-103871443D01*
X315529596Y-103706053D01*
X315556800Y-103534298D01*
X315556800Y-103360399D01*
X315529596Y-103188644D01*
X315475858Y-103023255D01*
X315424972Y-102923386D01*
X314901012Y-103447348D01*
X314852000Y-103447348D01*
X314852000Y-103394688D01*
X314824741Y-103292955D01*
X314772080Y-103201743D01*
X314697606Y-103127269D01*
X314606394Y-103074608D01*
X314504661Y-103047349D01*
X314399339Y-103047349D01*
X314297606Y-103074608D01*
X314206394Y-103127269D01*
X314131920Y-103201743D01*
X314079259Y-103292955D01*
X314052000Y-103394688D01*
X313950327Y-103394688D01*
X313479026Y-102923387D01*
X313428143Y-103023250D01*
X313374403Y-103188644D01*
X313347200Y-103360399D01*
X306412800Y-103360399D01*
X306385596Y-103188644D01*
X306331858Y-103023255D01*
X306280972Y-102923386D01*
X305757012Y-103447348D01*
X305708000Y-103447348D01*
X305708000Y-103394688D01*
X305680741Y-103292955D01*
X305628080Y-103201743D01*
X305553606Y-103127269D01*
X305462394Y-103074608D01*
X305360661Y-103047349D01*
X305255339Y-103047349D01*
X305153606Y-103074608D01*
X305062394Y-103127269D01*
X304987920Y-103201743D01*
X304935259Y-103292955D01*
X304908000Y-103394688D01*
X304806327Y-103394688D01*
X304335026Y-102923387D01*
X304284143Y-103023250D01*
X304230403Y-103188644D01*
X304203200Y-103360399D01*
X301173115Y-103360399D01*
X301172146Y-102474375D01*
X304784038Y-102474375D01*
X305308000Y-102998336D01*
X305308001Y-102998336D01*
X305831961Y-102474375D01*
X313928038Y-102474375D01*
X314452000Y-102998336D01*
X314452001Y-102998336D01*
X314975961Y-102474375D01*
X314876098Y-102423492D01*
X314710704Y-102369752D01*
X314710705Y-102369752D01*
X314538949Y-102342549D01*
X314365051Y-102342549D01*
X314193295Y-102369752D01*
X314027901Y-102423492D01*
X313928038Y-102474375D01*
X305831961Y-102474375D01*
X305732098Y-102423492D01*
X305566704Y-102369752D01*
X305566705Y-102369752D01*
X305394949Y-102342549D01*
X305221051Y-102342549D01*
X305049295Y-102369752D01*
X304883901Y-102423492D01*
X304784038Y-102474375D01*
X301172146Y-102474375D01*
X301169201Y-99781849D01*
X301168711Y-99333573D01*
X304126500Y-99333573D01*
X304126500Y-100561124D01*
X304129317Y-100596918D01*
X304129319Y-100596929D01*
X304173830Y-100750136D01*
X304173832Y-100750142D01*
X304255049Y-100887473D01*
X304255055Y-100887481D01*
X304367867Y-101000293D01*
X304367871Y-101000296D01*
X304367873Y-101000298D01*
X304505208Y-101081517D01*
X304658426Y-101126031D01*
X304694230Y-101128849D01*
X304694236Y-101128849D01*
X305921764Y-101128849D01*
X305921770Y-101128849D01*
X305957574Y-101126031D01*
X306110792Y-101081517D01*
X306248127Y-101000298D01*
X306360949Y-100887476D01*
X306442168Y-100750141D01*
X306486682Y-100596923D01*
X306489500Y-100561119D01*
X306489500Y-99333579D01*
X306489500Y-99333573D01*
X313270500Y-99333573D01*
X313270500Y-100561124D01*
X313273317Y-100596918D01*
X313273319Y-100596929D01*
X313317830Y-100750136D01*
X313317832Y-100750142D01*
X313399049Y-100887473D01*
X313399055Y-100887481D01*
X313511867Y-101000293D01*
X313511871Y-101000296D01*
X313511873Y-101000298D01*
X313649208Y-101081517D01*
X313802426Y-101126031D01*
X313838230Y-101128849D01*
X313838236Y-101128849D01*
X315065764Y-101128849D01*
X315065770Y-101128849D01*
X315101574Y-101126031D01*
X315254792Y-101081517D01*
X315392127Y-101000298D01*
X315504949Y-100887476D01*
X315586168Y-100750141D01*
X315630682Y-100596923D01*
X315633500Y-100561119D01*
X315633500Y-99333579D01*
X315630682Y-99297775D01*
X315586168Y-99144557D01*
X315504949Y-99007222D01*
X315504947Y-99007220D01*
X315504944Y-99007216D01*
X315392132Y-98894404D01*
X315392124Y-98894398D01*
X315254793Y-98813181D01*
X315254787Y-98813179D01*
X315101580Y-98768668D01*
X315101569Y-98768666D01*
X315065775Y-98765849D01*
X315065770Y-98765849D01*
X313838230Y-98765849D01*
X313838224Y-98765849D01*
X313802430Y-98768666D01*
X313802419Y-98768668D01*
X313649212Y-98813179D01*
X313649206Y-98813181D01*
X313511875Y-98894398D01*
X313511867Y-98894404D01*
X313399055Y-99007216D01*
X313399049Y-99007224D01*
X313317832Y-99144555D01*
X313317830Y-99144561D01*
X313273319Y-99297768D01*
X313273317Y-99297779D01*
X313270500Y-99333573D01*
X306489500Y-99333573D01*
X306486682Y-99297775D01*
X306442168Y-99144557D01*
X306360949Y-99007222D01*
X306360947Y-99007220D01*
X306360944Y-99007216D01*
X306248132Y-98894404D01*
X306248124Y-98894398D01*
X306110793Y-98813181D01*
X306110787Y-98813179D01*
X305957580Y-98768668D01*
X305957569Y-98768666D01*
X305921775Y-98765849D01*
X305921770Y-98765849D01*
X304694230Y-98765849D01*
X304694224Y-98765849D01*
X304658430Y-98768666D01*
X304658419Y-98768668D01*
X304505212Y-98813179D01*
X304505206Y-98813181D01*
X304367875Y-98894398D01*
X304367867Y-98894404D01*
X304255055Y-99007216D01*
X304255049Y-99007224D01*
X304173832Y-99144555D01*
X304173830Y-99144561D01*
X304129319Y-99297768D01*
X304129317Y-99297779D01*
X304126500Y-99333573D01*
X301168711Y-99333573D01*
X301168708Y-99331280D01*
X301167800Y-98501200D01*
X300796023Y-98501200D01*
X300796023Y-106619500D01*
X300776338Y-106686539D01*
X300723534Y-106732294D01*
X300672023Y-106743500D01*
X281873500Y-106743500D01*
X281806461Y-106723815D01*
X281760706Y-106671011D01*
X281749500Y-106619500D01*
X281749500Y-100380800D01*
X281745841Y-100343641D01*
X281745840Y-100343639D01*
X281745840Y-100343635D01*
X281717395Y-100274964D01*
X281717394Y-100274963D01*
X281717394Y-100274962D01*
X281664838Y-100222406D01*
X281596165Y-100193960D01*
X281521835Y-100193960D01*
X281521834Y-100193960D01*
X281453161Y-100222406D01*
X281400605Y-100274962D01*
X281372160Y-100343635D01*
X281372158Y-100343641D01*
X281368500Y-100380800D01*
X277025500Y-100380800D01*
X277025500Y-100349579D01*
X277022682Y-100313775D01*
X276978168Y-100160557D01*
X276896949Y-100023222D01*
X276896947Y-100023220D01*
X276896944Y-100023216D01*
X276784132Y-99910404D01*
X276784124Y-99910398D01*
X276646793Y-99829181D01*
X276646787Y-99829179D01*
X276493580Y-99784668D01*
X276493569Y-99784666D01*
X276457775Y-99781849D01*
X276457770Y-99781849D01*
X275230230Y-99781849D01*
X275230224Y-99781849D01*
X275194430Y-99784666D01*
X275194419Y-99784668D01*
X275041212Y-99829179D01*
X275041206Y-99829181D01*
X274903875Y-99910398D01*
X274903867Y-99910404D01*
X274791055Y-100023216D01*
X274791049Y-100023224D01*
X274709832Y-100160555D01*
X274709830Y-100160561D01*
X274665319Y-100313768D01*
X274665317Y-100313779D01*
X274662500Y-100349573D01*
X259410200Y-100349573D01*
X259410200Y-96546321D01*
X275320037Y-96546321D01*
X275419906Y-96597207D01*
X275585295Y-96650945D01*
X275585294Y-96650945D01*
X275757051Y-96678149D01*
X275930949Y-96678149D01*
X276102704Y-96650945D01*
X276268094Y-96597207D01*
X276268101Y-96597204D01*
X276367961Y-96546321D01*
X275844001Y-96022361D01*
X275844000Y-96022361D01*
X275320037Y-96546321D01*
X259410200Y-96546321D01*
X259410200Y-95486399D01*
X274739200Y-95486399D01*
X274739200Y-95660298D01*
X274766403Y-95832053D01*
X274820143Y-95997447D01*
X274871025Y-96097309D01*
X275394987Y-95573349D01*
X275394987Y-95573348D01*
X275342327Y-95520688D01*
X275444000Y-95520688D01*
X275444000Y-95626010D01*
X275471259Y-95727743D01*
X275523920Y-95818955D01*
X275598394Y-95893429D01*
X275689606Y-95946090D01*
X275791339Y-95973349D01*
X275896661Y-95973349D01*
X275998394Y-95946090D01*
X276089606Y-95893429D01*
X276164080Y-95818955D01*
X276216741Y-95727743D01*
X276244000Y-95626010D01*
X276244000Y-95573348D01*
X276293012Y-95573348D01*
X276293012Y-95573350D01*
X276816972Y-96097310D01*
X276867855Y-95997450D01*
X276867858Y-95997443D01*
X276921596Y-95832053D01*
X276948800Y-95660298D01*
X276948800Y-95486399D01*
X276921596Y-95314644D01*
X276867858Y-95149255D01*
X276816972Y-95049386D01*
X276293012Y-95573348D01*
X276244000Y-95573348D01*
X276244000Y-95520688D01*
X276216741Y-95418955D01*
X276164080Y-95327743D01*
X276089606Y-95253269D01*
X275998394Y-95200608D01*
X275896661Y-95173349D01*
X275791339Y-95173349D01*
X275689606Y-95200608D01*
X275598394Y-95253269D01*
X275523920Y-95327743D01*
X275471259Y-95418955D01*
X275444000Y-95520688D01*
X275342327Y-95520688D01*
X274871026Y-95049387D01*
X274820143Y-95149250D01*
X274766403Y-95314644D01*
X274739200Y-95486399D01*
X259410200Y-95486399D01*
X259410200Y-94600375D01*
X275320038Y-94600375D01*
X275844000Y-95124336D01*
X275844001Y-95124336D01*
X276367961Y-94600375D01*
X276268098Y-94549492D01*
X276102704Y-94495752D01*
X276102705Y-94495752D01*
X275930949Y-94468549D01*
X275757051Y-94468549D01*
X275585295Y-94495752D01*
X275419901Y-94549492D01*
X275320038Y-94600375D01*
X259410200Y-94600375D01*
X259410200Y-92566553D01*
X259518827Y-92472427D01*
X259672030Y-92295622D01*
X259798511Y-92098814D01*
X259798514Y-92098806D01*
X259798517Y-92098802D01*
X259895694Y-91886014D01*
X259895694Y-91886012D01*
X259895696Y-91886009D01*
X259961606Y-91661539D01*
X259990644Y-91459573D01*
X274662500Y-91459573D01*
X274662500Y-92687124D01*
X274665317Y-92722918D01*
X274665319Y-92722929D01*
X274709830Y-92876136D01*
X274709832Y-92876142D01*
X274791049Y-93013473D01*
X274791055Y-93013481D01*
X274903867Y-93126293D01*
X274903871Y-93126296D01*
X274903873Y-93126298D01*
X275041208Y-93207517D01*
X275194426Y-93252031D01*
X275230230Y-93254849D01*
X275230236Y-93254849D01*
X276457764Y-93254849D01*
X276457770Y-93254849D01*
X276493574Y-93252031D01*
X276646792Y-93207517D01*
X276784127Y-93126298D01*
X276896949Y-93013476D01*
X276978168Y-92876141D01*
X277022682Y-92722923D01*
X277025500Y-92687119D01*
X277025500Y-91459579D01*
X277022682Y-91423775D01*
X276978168Y-91270557D01*
X276896949Y-91133222D01*
X276896947Y-91133220D01*
X276896944Y-91133216D01*
X276784132Y-91020404D01*
X276784124Y-91020398D01*
X276646793Y-90939181D01*
X276646787Y-90939179D01*
X276493580Y-90894668D01*
X276493569Y-90894666D01*
X276457775Y-90891849D01*
X276457770Y-90891849D01*
X275230230Y-90891849D01*
X275230224Y-90891849D01*
X275194430Y-90894666D01*
X275194419Y-90894668D01*
X275041212Y-90939179D01*
X275041206Y-90939181D01*
X274903875Y-91020398D01*
X274903867Y-91020404D01*
X274791055Y-91133216D01*
X274791049Y-91133224D01*
X274709832Y-91270555D01*
X274709830Y-91270561D01*
X274665319Y-91423768D01*
X274665317Y-91423779D01*
X274662500Y-91459573D01*
X259990644Y-91459573D01*
X259994900Y-91429973D01*
X259994900Y-91313000D01*
X259994900Y-91241396D01*
X259994900Y-89130440D01*
X260921200Y-89130440D01*
X260921200Y-89351559D01*
X260955791Y-89569959D01*
X260955791Y-89569962D01*
X261024119Y-89780253D01*
X261124509Y-89977279D01*
X261131323Y-89986660D01*
X261131325Y-89986660D01*
X261782039Y-89335947D01*
X261813482Y-89453292D01*
X261885890Y-89578708D01*
X261988292Y-89681110D01*
X262113708Y-89753518D01*
X262231051Y-89784960D01*
X261580338Y-90435673D01*
X261580338Y-90435674D01*
X261589721Y-90442491D01*
X261786746Y-90542880D01*
X261997038Y-90611208D01*
X262215441Y-90645800D01*
X262436559Y-90645800D01*
X262654959Y-90611208D01*
X262654962Y-90611208D01*
X262865253Y-90542880D01*
X263062272Y-90442494D01*
X263062277Y-90442491D01*
X263071661Y-90435673D01*
X262420949Y-89784960D01*
X262538292Y-89753518D01*
X262663708Y-89681110D01*
X262766110Y-89578708D01*
X262838518Y-89453292D01*
X262869960Y-89335948D01*
X263520673Y-89986660D01*
X263527491Y-89977277D01*
X263527494Y-89977272D01*
X263627880Y-89780253D01*
X263696208Y-89569962D01*
X263696208Y-89569959D01*
X263730800Y-89351559D01*
X263730800Y-89130440D01*
X267921200Y-89130440D01*
X267921200Y-89351559D01*
X267955791Y-89569959D01*
X267955791Y-89569962D01*
X268024119Y-89780253D01*
X268124509Y-89977279D01*
X268131323Y-89986660D01*
X268131325Y-89986660D01*
X268782039Y-89335947D01*
X268813482Y-89453292D01*
X268885890Y-89578708D01*
X268988292Y-89681110D01*
X269113708Y-89753518D01*
X269231051Y-89784960D01*
X268580338Y-90435673D01*
X268580338Y-90435674D01*
X268589721Y-90442491D01*
X268786746Y-90542880D01*
X268997038Y-90611208D01*
X269215441Y-90645800D01*
X269436559Y-90645800D01*
X269654959Y-90611208D01*
X269654962Y-90611208D01*
X269865253Y-90542880D01*
X270062272Y-90442494D01*
X270062277Y-90442491D01*
X270071661Y-90435673D01*
X269420949Y-89784960D01*
X269538292Y-89753518D01*
X269663708Y-89681110D01*
X269766110Y-89578708D01*
X269838518Y-89453292D01*
X269869960Y-89335948D01*
X270520673Y-89986660D01*
X270527491Y-89977277D01*
X270527494Y-89977272D01*
X270627880Y-89780253D01*
X270696208Y-89569962D01*
X270696208Y-89569959D01*
X270730800Y-89351559D01*
X270730800Y-89130440D01*
X270696208Y-88912040D01*
X270696208Y-88912037D01*
X270627880Y-88701746D01*
X270527491Y-88504721D01*
X270520673Y-88495338D01*
X269869960Y-89146051D01*
X269838518Y-89028708D01*
X269766110Y-88903292D01*
X269663708Y-88800890D01*
X269538292Y-88728482D01*
X269420948Y-88697039D01*
X270071660Y-88046325D01*
X270071660Y-88046323D01*
X270062279Y-88039509D01*
X269865253Y-87939119D01*
X269654961Y-87870791D01*
X269436559Y-87836200D01*
X269215441Y-87836200D01*
X268997040Y-87870791D01*
X268997037Y-87870791D01*
X268786746Y-87939119D01*
X268589720Y-88039509D01*
X268580338Y-88046325D01*
X269231052Y-88697039D01*
X269113708Y-88728482D01*
X268988292Y-88800890D01*
X268885890Y-88903292D01*
X268813482Y-89028708D01*
X268782039Y-89146052D01*
X268131325Y-88495338D01*
X268124509Y-88504720D01*
X268024119Y-88701746D01*
X267955791Y-88912037D01*
X267955791Y-88912040D01*
X267921200Y-89130440D01*
X263730800Y-89130440D01*
X263696208Y-88912040D01*
X263696208Y-88912037D01*
X263627880Y-88701746D01*
X263527491Y-88504721D01*
X263520673Y-88495338D01*
X262869960Y-89146051D01*
X262838518Y-89028708D01*
X262766110Y-88903292D01*
X262663708Y-88800890D01*
X262538292Y-88728482D01*
X262420948Y-88697039D01*
X263071660Y-88046325D01*
X263071660Y-88046323D01*
X263062279Y-88039509D01*
X262865253Y-87939119D01*
X262654961Y-87870791D01*
X262436559Y-87836200D01*
X262215441Y-87836200D01*
X261997040Y-87870791D01*
X261997037Y-87870791D01*
X261786746Y-87939119D01*
X261589720Y-88039509D01*
X261580338Y-88046325D01*
X262231052Y-88697039D01*
X262113708Y-88728482D01*
X261988292Y-88800890D01*
X261885890Y-88903292D01*
X261813482Y-89028708D01*
X261782039Y-89146052D01*
X261131325Y-88495338D01*
X261124509Y-88504720D01*
X261024119Y-88701746D01*
X260955791Y-88912037D01*
X260955791Y-88912040D01*
X260921200Y-89130440D01*
X259994900Y-89130440D01*
X259994900Y-87656321D01*
X275320037Y-87656321D01*
X275419906Y-87707207D01*
X275585295Y-87760945D01*
X275585294Y-87760945D01*
X275757051Y-87788149D01*
X275930949Y-87788149D01*
X276102704Y-87760945D01*
X276268094Y-87707207D01*
X276268101Y-87707204D01*
X276367961Y-87656321D01*
X275844001Y-87132361D01*
X275844000Y-87132361D01*
X275320037Y-87656321D01*
X259994900Y-87656321D01*
X259994900Y-86596399D01*
X274739200Y-86596399D01*
X274739200Y-86770298D01*
X274766403Y-86942053D01*
X274820143Y-87107447D01*
X274871025Y-87207309D01*
X275394987Y-86683349D01*
X275394987Y-86683348D01*
X275342327Y-86630688D01*
X275444000Y-86630688D01*
X275444000Y-86736010D01*
X275471259Y-86837743D01*
X275523920Y-86928955D01*
X275598394Y-87003429D01*
X275689606Y-87056090D01*
X275791339Y-87083349D01*
X275896661Y-87083349D01*
X275998394Y-87056090D01*
X276089606Y-87003429D01*
X276164080Y-86928955D01*
X276216741Y-86837743D01*
X276244000Y-86736010D01*
X276244000Y-86683348D01*
X276293012Y-86683348D01*
X276293012Y-86683350D01*
X276816972Y-87207310D01*
X276867855Y-87107450D01*
X276867858Y-87107443D01*
X276921596Y-86942053D01*
X276948800Y-86770298D01*
X276948800Y-86596399D01*
X276921596Y-86424644D01*
X276867858Y-86259255D01*
X276816972Y-86159386D01*
X276293012Y-86683348D01*
X276244000Y-86683348D01*
X276244000Y-86630688D01*
X276216741Y-86528955D01*
X276164080Y-86437743D01*
X276089606Y-86363269D01*
X275998394Y-86310608D01*
X275896661Y-86283349D01*
X275791339Y-86283349D01*
X275689606Y-86310608D01*
X275598394Y-86363269D01*
X275523920Y-86437743D01*
X275471259Y-86528955D01*
X275444000Y-86630688D01*
X275342327Y-86630688D01*
X274871026Y-86159387D01*
X274820143Y-86259250D01*
X274766403Y-86424644D01*
X274739200Y-86596399D01*
X259994900Y-86596399D01*
X259994900Y-84124403D01*
X260819100Y-84124403D01*
X260819100Y-84357597D01*
X260820249Y-84364849D01*
X260855580Y-84587920D01*
X260927638Y-84809696D01*
X260927639Y-84809699D01*
X261033510Y-85017478D01*
X261170569Y-85206125D01*
X261170573Y-85206130D01*
X261335469Y-85371026D01*
X261335474Y-85371030D01*
X261500023Y-85490581D01*
X261524125Y-85508092D01*
X261659949Y-85577298D01*
X261731900Y-85613960D01*
X261731903Y-85613961D01*
X261798038Y-85635449D01*
X261953681Y-85686020D01*
X262184003Y-85722500D01*
X262184004Y-85722500D01*
X262417196Y-85722500D01*
X262417197Y-85722500D01*
X262647519Y-85686020D01*
X262869299Y-85613960D01*
X263077075Y-85508092D01*
X263265732Y-85371025D01*
X263430625Y-85206132D01*
X263567692Y-85017475D01*
X263673560Y-84809699D01*
X263745620Y-84587919D01*
X263782100Y-84357597D01*
X263782100Y-84124403D01*
X267844500Y-84124403D01*
X267844500Y-84357597D01*
X267845649Y-84364849D01*
X267880980Y-84587920D01*
X267953038Y-84809696D01*
X267953039Y-84809699D01*
X268058910Y-85017478D01*
X268195969Y-85206125D01*
X268195973Y-85206130D01*
X268360869Y-85371026D01*
X268360874Y-85371030D01*
X268525423Y-85490581D01*
X268549525Y-85508092D01*
X268685349Y-85577298D01*
X268757300Y-85613960D01*
X268757303Y-85613961D01*
X268823438Y-85635449D01*
X268979081Y-85686020D01*
X269209403Y-85722500D01*
X269209404Y-85722500D01*
X269442596Y-85722500D01*
X269442597Y-85722500D01*
X269519150Y-85710375D01*
X275320038Y-85710375D01*
X275844000Y-86234336D01*
X275844001Y-86234336D01*
X276367961Y-85710375D01*
X276268098Y-85659492D01*
X276102704Y-85605752D01*
X276102705Y-85605752D01*
X275930949Y-85578549D01*
X275757051Y-85578549D01*
X275585295Y-85605752D01*
X275419901Y-85659492D01*
X275320038Y-85710375D01*
X269519150Y-85710375D01*
X269672919Y-85686020D01*
X269778851Y-85651600D01*
X269828563Y-85635449D01*
X269894696Y-85613961D01*
X269894699Y-85613960D01*
X269910808Y-85605752D01*
X270102475Y-85508092D01*
X270291132Y-85371025D01*
X270456025Y-85206132D01*
X270593092Y-85017475D01*
X270698960Y-84809699D01*
X270771020Y-84587919D01*
X270807500Y-84357597D01*
X270807500Y-84124403D01*
X270771020Y-83894081D01*
X270732226Y-83774683D01*
X270698961Y-83672303D01*
X270698960Y-83672300D01*
X270662298Y-83600349D01*
X270593092Y-83464525D01*
X270492287Y-83325778D01*
X270456030Y-83275874D01*
X270456026Y-83275869D01*
X270291130Y-83110973D01*
X270291125Y-83110969D01*
X270102478Y-82973910D01*
X270102477Y-82973909D01*
X270102475Y-82973908D01*
X269993143Y-82918200D01*
X269894699Y-82868039D01*
X269894696Y-82868038D01*
X269672920Y-82795980D01*
X269542978Y-82775399D01*
X269442597Y-82759500D01*
X269209403Y-82759500D01*
X269161394Y-82767104D01*
X268979079Y-82795980D01*
X268757303Y-82868038D01*
X268757300Y-82868039D01*
X268549521Y-82973910D01*
X268360874Y-83110969D01*
X268360869Y-83110973D01*
X268195973Y-83275869D01*
X268195969Y-83275874D01*
X268058910Y-83464521D01*
X267953039Y-83672300D01*
X267953038Y-83672303D01*
X267880980Y-83894079D01*
X267866399Y-83986141D01*
X267844500Y-84124403D01*
X263782100Y-84124403D01*
X263745620Y-83894081D01*
X263706826Y-83774683D01*
X263673561Y-83672303D01*
X263673560Y-83672300D01*
X263636898Y-83600349D01*
X263567692Y-83464525D01*
X263466887Y-83325778D01*
X263430630Y-83275874D01*
X263430626Y-83275869D01*
X263265730Y-83110973D01*
X263265725Y-83110969D01*
X263077078Y-82973910D01*
X263077077Y-82973909D01*
X263077075Y-82973908D01*
X262967743Y-82918200D01*
X262869299Y-82868039D01*
X262869296Y-82868038D01*
X262647520Y-82795980D01*
X262517578Y-82775399D01*
X262417197Y-82759500D01*
X262184003Y-82759500D01*
X262135994Y-82767104D01*
X261953679Y-82795980D01*
X261731903Y-82868038D01*
X261731900Y-82868039D01*
X261524121Y-82973910D01*
X261335474Y-83110969D01*
X261335469Y-83110973D01*
X261170573Y-83275869D01*
X261170569Y-83275874D01*
X261033510Y-83464521D01*
X260927639Y-83672300D01*
X260927638Y-83672303D01*
X260855580Y-83894079D01*
X260840999Y-83986141D01*
X260819100Y-84124403D01*
X259994900Y-84124403D01*
X259994900Y-82569573D01*
X274662500Y-82569573D01*
X274662500Y-83797124D01*
X274665317Y-83832918D01*
X274665319Y-83832929D01*
X274709830Y-83986136D01*
X274709832Y-83986142D01*
X274791049Y-84123473D01*
X274791055Y-84123481D01*
X274903867Y-84236293D01*
X274903871Y-84236296D01*
X274903873Y-84236298D01*
X275041208Y-84317517D01*
X275194426Y-84362031D01*
X275230230Y-84364849D01*
X275230236Y-84364849D01*
X276457764Y-84364849D01*
X276457770Y-84364849D01*
X276493574Y-84362031D01*
X276646792Y-84317517D01*
X276784127Y-84236298D01*
X276896949Y-84123476D01*
X276978168Y-83986141D01*
X277022682Y-83832923D01*
X277025500Y-83797119D01*
X277025500Y-82569579D01*
X277022682Y-82533775D01*
X276978168Y-82380557D01*
X276896949Y-82243222D01*
X276896947Y-82243220D01*
X276896944Y-82243216D01*
X276784132Y-82130404D01*
X276784124Y-82130398D01*
X276646793Y-82049181D01*
X276646787Y-82049179D01*
X276493580Y-82004668D01*
X276493569Y-82004666D01*
X276457775Y-82001849D01*
X276457770Y-82001849D01*
X275230230Y-82001849D01*
X275230224Y-82001849D01*
X275194430Y-82004666D01*
X275194419Y-82004668D01*
X275041212Y-82049179D01*
X275041206Y-82049181D01*
X274903875Y-82130398D01*
X274903867Y-82130404D01*
X274791055Y-82243216D01*
X274791049Y-82243224D01*
X274709832Y-82380555D01*
X274709830Y-82380561D01*
X274665319Y-82533768D01*
X274665317Y-82533779D01*
X274662500Y-82569573D01*
X259994900Y-82569573D01*
X259994900Y-81018125D01*
X259995961Y-81001940D01*
X260005189Y-80931846D01*
X260013567Y-80900579D01*
X260032242Y-80855493D01*
X260037486Y-80842831D01*
X260053668Y-80814802D01*
X260091723Y-80765209D01*
X260114610Y-80742323D01*
X260146322Y-80717989D01*
X260164202Y-80704268D01*
X260192231Y-80688086D01*
X260249979Y-80664167D01*
X260281245Y-80655789D01*
X260351341Y-80646561D01*
X260367526Y-80645500D01*
X260431004Y-80645500D01*
X316811767Y-80645500D01*
X316878806Y-80665185D01*
G37*
%TD.AperFunction*%
%TD*%
%TA.AperFunction,Conductor*%
%TO.N,GND1*%
G36*
X232313393Y-88050911D02*
G01*
X232365465Y-88097498D01*
X232384100Y-88162875D01*
X232384100Y-91429971D01*
X232417393Y-91661537D01*
X232483305Y-91886014D01*
X232580482Y-92098802D01*
X232580491Y-92098818D01*
X232706969Y-92295621D01*
X232860172Y-92472427D01*
X233036978Y-92625630D01*
X233233781Y-92752108D01*
X233233797Y-92752117D01*
X233446585Y-92849294D01*
X233446589Y-92849295D01*
X233446591Y-92849296D01*
X233671061Y-92915206D01*
X233902627Y-92948500D01*
X233902630Y-92948500D01*
X258476370Y-92948500D01*
X258476373Y-92948500D01*
X258707939Y-92915206D01*
X258737766Y-92906448D01*
X258807634Y-92906448D01*
X258866412Y-92944221D01*
X258895438Y-93007777D01*
X258896700Y-93025425D01*
X258896700Y-106299015D01*
X258900547Y-106361746D01*
X258900548Y-106361750D01*
X258938870Y-106502789D01*
X258938873Y-106502796D01*
X259015376Y-106627323D01*
X259536965Y-107254551D01*
X259770928Y-107535899D01*
X262382753Y-110676701D01*
X263119552Y-111562725D01*
X264000961Y-112622647D01*
X264973106Y-113791682D01*
X264992384Y-113823655D01*
X267470584Y-119827543D01*
X267473909Y-119836580D01*
X277177434Y-149739278D01*
X277183485Y-149778560D01*
X277155470Y-153224619D01*
X277155470Y-153224621D01*
X277154903Y-153294256D01*
X277134673Y-153361133D01*
X277081498Y-153406456D01*
X277012261Y-153415836D01*
X276948944Y-153386295D01*
X276930593Y-153366136D01*
X276844343Y-153247424D01*
X276687576Y-153090657D01*
X276508215Y-152960343D01*
X276470129Y-152940937D01*
X276310680Y-152859693D01*
X276099824Y-152791182D01*
X275880851Y-152756500D01*
X275659149Y-152756500D01*
X275549662Y-152773841D01*
X275440175Y-152791182D01*
X275229319Y-152859693D01*
X275031784Y-152960343D01*
X274956215Y-153015248D01*
X274852424Y-153090657D01*
X274852422Y-153090659D01*
X274852420Y-153090660D01*
X274810608Y-153132472D01*
X274749285Y-153165957D01*
X274679593Y-153160971D01*
X274623660Y-153119099D01*
X274606748Y-153088128D01*
X274580889Y-153018796D01*
X274493261Y-152901739D01*
X274376204Y-152814111D01*
X274314730Y-152791182D01*
X274239203Y-152763011D01*
X274178654Y-152756500D01*
X274178638Y-152756500D01*
X272281362Y-152756500D01*
X272281345Y-152756500D01*
X272220797Y-152763011D01*
X272220795Y-152763011D01*
X272083795Y-152814111D01*
X271966739Y-152901739D01*
X271881767Y-153015248D01*
X271825833Y-153057119D01*
X271756141Y-153062103D01*
X271694818Y-153028618D01*
X271661334Y-152967294D01*
X271658500Y-152940937D01*
X271658500Y-139207621D01*
X271657033Y-139156430D01*
X271657033Y-139156420D01*
X271656220Y-139142241D01*
X271651820Y-139091166D01*
X271637661Y-138968149D01*
X271620138Y-138867210D01*
X271613696Y-138839596D01*
X271584750Y-138741336D01*
X271545430Y-138631498D01*
X271505427Y-138537165D01*
X271492880Y-138511737D01*
X271442376Y-138422635D01*
X271379129Y-138324597D01*
X271379127Y-138324594D01*
X271379124Y-138324589D01*
X271318779Y-138241863D01*
X271318758Y-138241836D01*
X271300768Y-138219929D01*
X271300762Y-138219922D01*
X271231319Y-138144602D01*
X271231299Y-138144582D01*
X271142324Y-138058534D01*
X271104468Y-138023967D01*
X271093723Y-138014706D01*
X271093714Y-138014698D01*
X271053953Y-137982364D01*
X271053931Y-137982346D01*
X269053673Y-136448816D01*
X266967769Y-134849624D01*
X266927110Y-134794757D01*
X264138699Y-127358998D01*
X264118157Y-127308887D01*
X264112042Y-127295169D01*
X264112036Y-127295155D01*
X264088465Y-127246317D01*
X264028015Y-127130195D01*
X264028012Y-127130191D01*
X264028009Y-127130184D01*
X263972232Y-127037259D01*
X263972228Y-127037252D01*
X263955286Y-127012552D01*
X263888706Y-126927081D01*
X263807168Y-126834560D01*
X263807166Y-126834558D01*
X263807159Y-126834550D01*
X263730724Y-126757745D01*
X263708326Y-126737813D01*
X263623175Y-126670821D01*
X263623173Y-126670819D01*
X263623157Y-126670807D01*
X263521792Y-126600563D01*
X263429183Y-126544365D01*
X263429160Y-126544352D01*
X263402637Y-126530382D01*
X263303899Y-126485789D01*
X263303899Y-126485788D01*
X263188618Y-126441921D01*
X263188611Y-126441919D01*
X263188609Y-126441918D01*
X263113903Y-126418562D01*
X263085187Y-126409584D01*
X263056087Y-126402389D01*
X263056076Y-126402387D01*
X262949552Y-126382804D01*
X262949515Y-126382798D01*
X262851890Y-126370907D01*
X262772383Y-126364804D01*
X262750748Y-126364111D01*
X262750741Y-126364111D01*
X262750325Y-126364098D01*
X262698772Y-126366703D01*
X262698738Y-126365109D01*
X262689059Y-126365319D01*
X262680654Y-126365541D01*
X262656513Y-126368839D01*
X262652496Y-126369042D01*
X262651243Y-126369105D01*
X262651233Y-126369106D01*
X262603010Y-126371544D01*
X262565575Y-126380617D01*
X262553161Y-126382963D01*
X262495381Y-126390859D01*
X262495379Y-126390859D01*
X262495375Y-126390860D01*
X262443932Y-126409361D01*
X262431184Y-126413186D01*
X262421274Y-126415588D01*
X262420454Y-126415881D01*
X262420438Y-126415887D01*
X262369533Y-126434037D01*
X262369398Y-126434099D01*
X262355265Y-126439142D01*
X262292042Y-126464453D01*
X262130083Y-126557961D01*
X262083273Y-126591971D01*
X262066684Y-126602137D01*
X262027781Y-126621959D01*
X262009805Y-126629405D01*
X261968270Y-126642901D01*
X261949351Y-126647443D01*
X261927792Y-126650858D01*
X261906231Y-126654273D01*
X261886833Y-126655800D01*
X261843172Y-126655800D01*
X261823773Y-126654273D01*
X261803851Y-126651117D01*
X261780643Y-126647441D01*
X261761730Y-126642900D01*
X261720196Y-126629406D01*
X261702215Y-126621958D01*
X261663309Y-126602134D01*
X261646721Y-126591969D01*
X261594505Y-126554032D01*
X261580792Y-126544365D01*
X261573570Y-126539274D01*
X261567724Y-126535277D01*
X261487816Y-126486573D01*
X261487813Y-126486572D01*
X261487812Y-126486571D01*
X261314886Y-126415423D01*
X261314882Y-126415421D01*
X261314880Y-126415421D01*
X261247841Y-126395736D01*
X261247831Y-126395733D01*
X261247826Y-126395732D01*
X261181807Y-126379048D01*
X261181802Y-126379047D01*
X261144605Y-126375137D01*
X260995824Y-126359500D01*
X256572320Y-126359500D01*
X256572287Y-126359500D01*
X256548935Y-126359805D01*
X256548927Y-126359805D01*
X256548923Y-126359806D01*
X256432309Y-126375156D01*
X256363526Y-126384210D01*
X256363522Y-126384210D01*
X256363521Y-126384211D01*
X256363509Y-126384214D01*
X256307171Y-126397738D01*
X256284503Y-126403494D01*
X256284496Y-126403497D01*
X256284494Y-126403497D01*
X256284493Y-126403498D01*
X256192357Y-126438867D01*
X256186237Y-126441034D01*
X256084470Y-126474101D01*
X256065551Y-126478643D01*
X256043992Y-126482058D01*
X256022431Y-126485473D01*
X256003033Y-126487000D01*
X255959372Y-126487000D01*
X255939972Y-126485473D01*
X255896841Y-126478641D01*
X255877928Y-126474100D01*
X255793747Y-126446749D01*
X255790673Y-126445706D01*
X255655191Y-126397730D01*
X255655190Y-126397729D01*
X255655188Y-126397729D01*
X255624770Y-126390426D01*
X255598869Y-126384208D01*
X255576058Y-126379047D01*
X255576059Y-126379047D01*
X255504671Y-126371544D01*
X255390080Y-126359500D01*
X254008126Y-126359500D01*
X253956927Y-126361176D01*
X253949611Y-126361416D01*
X253933416Y-126362477D01*
X253875179Y-126368213D01*
X253735088Y-126386657D01*
X253735086Y-126386657D01*
X253735081Y-126386658D01*
X253620942Y-126409361D01*
X253620334Y-126409482D01*
X253589079Y-126417856D01*
X253589071Y-126417858D01*
X253478271Y-126455467D01*
X253478247Y-126455476D01*
X253355288Y-126506406D01*
X253250331Y-126558165D01*
X253222305Y-126574346D01*
X253125006Y-126639359D01*
X253124994Y-126639368D01*
X253019393Y-126720399D01*
X252931427Y-126797543D01*
X252908550Y-126820420D01*
X252831392Y-126908402D01*
X252750353Y-127014016D01*
X252685358Y-127111288D01*
X252685355Y-127111293D01*
X252669169Y-127139324D01*
X252617421Y-127244259D01*
X252566477Y-127367248D01*
X252566469Y-127367268D01*
X252528867Y-127478042D01*
X252528857Y-127478073D01*
X252520484Y-127509326D01*
X252520484Y-127509328D01*
X252497659Y-127624081D01*
X252497658Y-127624089D01*
X252479215Y-127764175D01*
X252473477Y-127822423D01*
X252472416Y-127838608D01*
X252470500Y-127897138D01*
X252470500Y-143721432D01*
X252472138Y-143775539D01*
X252473047Y-143790531D01*
X252477958Y-143844464D01*
X252493765Y-143974343D01*
X252513320Y-144080807D01*
X252520499Y-144109870D01*
X252552789Y-144213249D01*
X252596586Y-144328444D01*
X252596597Y-144328470D01*
X252641132Y-144427162D01*
X252655080Y-144453665D01*
X252655085Y-144453674D01*
X252655086Y-144453675D01*
X252711196Y-144546229D01*
X252785658Y-144653787D01*
X252817797Y-144697333D01*
X252827070Y-144709133D01*
X252827074Y-144709138D01*
X252861831Y-144750711D01*
X253211877Y-145144512D01*
X253836179Y-145846852D01*
X253866005Y-145910034D01*
X253867500Y-145929232D01*
X253867500Y-152481942D01*
X253847815Y-152548981D01*
X253795011Y-152594736D01*
X253725853Y-152604680D01*
X253670621Y-152582265D01*
X253667108Y-152579713D01*
X253469333Y-152478941D01*
X253258223Y-152410346D01*
X253038990Y-152375624D01*
X253038985Y-152375624D01*
X252817015Y-152375624D01*
X252817010Y-152375624D01*
X252597776Y-152410346D01*
X252386666Y-152478941D01*
X252188893Y-152579712D01*
X252009313Y-152710185D01*
X251852361Y-152867137D01*
X251721888Y-153046717D01*
X251621117Y-153244490D01*
X251552522Y-153455600D01*
X251517800Y-153674833D01*
X251517800Y-153896814D01*
X251552522Y-154116047D01*
X251621117Y-154327157D01*
X251702054Y-154486003D01*
X251721888Y-154524930D01*
X251852359Y-154704508D01*
X251852361Y-154704510D01*
X251991165Y-154843314D01*
X252024650Y-154904637D01*
X252019666Y-154974329D01*
X251977794Y-155030262D01*
X251912330Y-155054679D01*
X251884086Y-155053468D01*
X251776322Y-155036400D01*
X251579680Y-155036400D01*
X251385454Y-155067162D01*
X251198438Y-155127926D01*
X251198435Y-155127927D01*
X251023221Y-155217205D01*
X250988376Y-155242521D01*
X250988376Y-155242523D01*
X251552429Y-155806574D01*
X251486822Y-155824154D01*
X251373880Y-155889361D01*
X251281662Y-155981579D01*
X251216455Y-156094521D01*
X251198875Y-156160127D01*
X250634824Y-155596075D01*
X250634822Y-155596075D01*
X250609506Y-155630920D01*
X250520228Y-155806134D01*
X250520227Y-155806137D01*
X250459463Y-155993153D01*
X250428701Y-156187378D01*
X250428701Y-156384021D01*
X250459463Y-156578246D01*
X250520227Y-156765262D01*
X250520228Y-156765265D01*
X250609503Y-156940475D01*
X250634823Y-156975323D01*
X250634823Y-156975324D01*
X251198875Y-156411272D01*
X251216455Y-156476879D01*
X251281662Y-156589821D01*
X251373880Y-156682039D01*
X251486822Y-156747246D01*
X251552428Y-156764825D01*
X250988376Y-157328876D01*
X250988376Y-157328877D01*
X251023224Y-157354196D01*
X251198435Y-157443472D01*
X251198438Y-157443473D01*
X251385454Y-157504237D01*
X251579680Y-157535000D01*
X251776322Y-157535000D01*
X251970547Y-157504237D01*
X252157563Y-157443473D01*
X252157576Y-157443467D01*
X252332770Y-157354200D01*
X252332775Y-157354197D01*
X252367625Y-157328876D01*
X251803574Y-156764825D01*
X251869180Y-156747246D01*
X251982122Y-156682039D01*
X252074340Y-156589821D01*
X252139547Y-156476879D01*
X252157126Y-156411272D01*
X252721177Y-156975323D01*
X252746498Y-156940474D01*
X252746501Y-156940469D01*
X252835768Y-156765275D01*
X252835774Y-156765262D01*
X252896538Y-156578246D01*
X252927301Y-156384021D01*
X252927301Y-156187378D01*
X252896538Y-155993153D01*
X252835774Y-155806137D01*
X252835773Y-155806134D01*
X252746497Y-155630923D01*
X252721177Y-155596075D01*
X252157125Y-156160126D01*
X252139547Y-156094521D01*
X252074340Y-155981579D01*
X251982122Y-155889361D01*
X251869180Y-155824154D01*
X251803573Y-155806574D01*
X252376730Y-155233417D01*
X252383949Y-155199057D01*
X252432999Y-155149300D01*
X252501164Y-155133960D01*
X252531519Y-155139772D01*
X252560842Y-155149300D01*
X252597776Y-155161301D01*
X252817010Y-155196024D01*
X252817015Y-155196024D01*
X253038990Y-155196024D01*
X253258223Y-155161301D01*
X253295158Y-155149300D01*
X253469329Y-155092708D01*
X253667106Y-154991936D01*
X253670612Y-154989389D01*
X253736418Y-154965907D01*
X253804472Y-154981731D01*
X253853168Y-155031836D01*
X253867500Y-155089705D01*
X253867500Y-158244500D01*
X253847815Y-158311539D01*
X253795011Y-158357294D01*
X253743500Y-158368500D01*
X226096020Y-158368500D01*
X226088414Y-158368499D01*
X226088411Y-158368499D01*
X226056555Y-158368499D01*
X226024928Y-158368499D01*
X226024927Y-158368498D01*
X226008747Y-158367438D01*
X225934512Y-158357666D01*
X225903244Y-158349289D01*
X225841636Y-158323771D01*
X225813602Y-158307586D01*
X225760700Y-158266994D01*
X225737810Y-158244105D01*
X225697212Y-158191198D01*
X225681031Y-158163169D01*
X225655513Y-158101562D01*
X225647135Y-158070296D01*
X225637381Y-157996209D01*
X225636320Y-157980023D01*
X225636320Y-154081799D01*
X227169499Y-154081799D01*
X227201414Y-154242242D01*
X227201416Y-154242248D01*
X227264019Y-154393386D01*
X227264024Y-154393395D01*
X227354908Y-154529412D01*
X227354911Y-154529416D01*
X227470583Y-154645088D01*
X227470587Y-154645091D01*
X227606604Y-154735975D01*
X227606610Y-154735978D01*
X227606611Y-154735979D01*
X227757752Y-154798584D01*
X227757756Y-154798584D01*
X227757757Y-154798585D01*
X227918200Y-154830500D01*
X227918203Y-154830500D01*
X228081799Y-154830500D01*
X228189742Y-154809028D01*
X228242248Y-154798584D01*
X228393389Y-154735979D01*
X228529413Y-154645091D01*
X228645091Y-154529413D01*
X228735979Y-154393389D01*
X228798584Y-154242248D01*
X228809028Y-154189742D01*
X228830500Y-154081799D01*
X228830500Y-153918200D01*
X228798585Y-153757757D01*
X228798584Y-153757756D01*
X228798584Y-153757752D01*
X228798582Y-153757747D01*
X228781878Y-153717419D01*
X228764238Y-153674833D01*
X231817801Y-153674833D01*
X231817801Y-153896814D01*
X231852523Y-154116047D01*
X231921118Y-154327157D01*
X232002055Y-154486003D01*
X232021889Y-154524930D01*
X232152360Y-154704508D01*
X232309317Y-154861465D01*
X232488895Y-154991936D01*
X232572014Y-155034287D01*
X232686667Y-155092706D01*
X232686669Y-155092706D01*
X232686672Y-155092708D01*
X232795061Y-155127926D01*
X232897777Y-155161301D01*
X233117011Y-155196024D01*
X233117016Y-155196024D01*
X233338991Y-155196024D01*
X233440078Y-155180013D01*
X233496611Y-155171059D01*
X233565903Y-155180013D01*
X233619355Y-155225009D01*
X233639995Y-155291761D01*
X233621270Y-155359075D01*
X233603690Y-155381213D01*
X233518603Y-155466300D01*
X233402233Y-155626468D01*
X233312351Y-155802872D01*
X233312349Y-155802875D01*
X233251172Y-155991163D01*
X233233588Y-156102181D01*
X233220200Y-156186709D01*
X233220200Y-156384691D01*
X233222242Y-156397583D01*
X233251172Y-156580236D01*
X233312349Y-156768524D01*
X233312351Y-156768527D01*
X233402233Y-156944931D01*
X233518604Y-157105101D01*
X233658599Y-157245096D01*
X233818769Y-157361467D01*
X233995173Y-157451349D01*
X233995175Y-157451350D01*
X234089319Y-157481938D01*
X234183465Y-157512528D01*
X234379009Y-157543500D01*
X234379010Y-157543500D01*
X234576990Y-157543500D01*
X234576991Y-157543500D01*
X234772535Y-157512528D01*
X234960827Y-157451349D01*
X235137231Y-157361467D01*
X235297401Y-157245096D01*
X235437396Y-157105101D01*
X235553767Y-156944931D01*
X235643649Y-156768527D01*
X235704828Y-156580235D01*
X235735800Y-156384691D01*
X235735800Y-156187378D01*
X237728701Y-156187378D01*
X237728701Y-156384021D01*
X237759463Y-156578246D01*
X237820227Y-156765262D01*
X237820228Y-156765265D01*
X237909503Y-156940475D01*
X237934823Y-156975323D01*
X237934823Y-156975324D01*
X238498875Y-156411272D01*
X238516455Y-156476879D01*
X238581662Y-156589821D01*
X238673880Y-156682039D01*
X238786822Y-156747246D01*
X238852428Y-156764825D01*
X238288376Y-157328876D01*
X238288376Y-157328877D01*
X238323224Y-157354196D01*
X238498435Y-157443472D01*
X238498438Y-157443473D01*
X238685454Y-157504237D01*
X238879680Y-157535000D01*
X239076322Y-157535000D01*
X239270547Y-157504237D01*
X239457563Y-157443473D01*
X239457576Y-157443467D01*
X239632770Y-157354200D01*
X239632775Y-157354197D01*
X239667625Y-157328876D01*
X239103574Y-156764825D01*
X239169180Y-156747246D01*
X239282122Y-156682039D01*
X239374340Y-156589821D01*
X239439547Y-156476879D01*
X239457126Y-156411272D01*
X240021177Y-156975323D01*
X240046498Y-156940474D01*
X240046501Y-156940469D01*
X240135768Y-156765275D01*
X240135774Y-156765262D01*
X240196538Y-156578246D01*
X240227301Y-156384021D01*
X240227301Y-156187378D01*
X240196538Y-155993153D01*
X240135774Y-155806137D01*
X240135773Y-155806134D01*
X240046497Y-155630923D01*
X240021177Y-155596075D01*
X239457125Y-156160126D01*
X239439547Y-156094521D01*
X239374340Y-155981579D01*
X239282122Y-155889361D01*
X239169180Y-155824154D01*
X239103573Y-155806574D01*
X239676730Y-155233417D01*
X239683949Y-155199057D01*
X239732999Y-155149300D01*
X239801164Y-155133960D01*
X239831519Y-155139772D01*
X239860842Y-155149300D01*
X239897776Y-155161301D01*
X240117010Y-155196024D01*
X240117015Y-155196024D01*
X240338990Y-155196024D01*
X240558223Y-155161301D01*
X240595158Y-155149300D01*
X240769329Y-155092708D01*
X240967106Y-154991936D01*
X241146684Y-154861465D01*
X241303641Y-154704508D01*
X241434112Y-154524930D01*
X241534884Y-154327153D01*
X241603477Y-154116047D01*
X241616912Y-154031221D01*
X241638200Y-153896814D01*
X241638200Y-153674833D01*
X244517801Y-153674833D01*
X244517801Y-153896814D01*
X244552523Y-154116047D01*
X244621118Y-154327157D01*
X244702055Y-154486003D01*
X244721889Y-154524930D01*
X244852360Y-154704508D01*
X245009317Y-154861465D01*
X245188895Y-154991936D01*
X245272014Y-155034287D01*
X245386667Y-155092706D01*
X245386669Y-155092706D01*
X245386672Y-155092708D01*
X245495061Y-155127926D01*
X245597777Y-155161301D01*
X245817011Y-155196024D01*
X245817016Y-155196024D01*
X246038991Y-155196024D01*
X246140078Y-155180013D01*
X246196611Y-155171059D01*
X246265903Y-155180013D01*
X246319355Y-155225009D01*
X246339995Y-155291761D01*
X246321270Y-155359075D01*
X246303690Y-155381213D01*
X246218603Y-155466300D01*
X246102233Y-155626468D01*
X246012351Y-155802872D01*
X246012349Y-155802875D01*
X245951172Y-155991163D01*
X245933588Y-156102181D01*
X245920200Y-156186709D01*
X245920200Y-156384691D01*
X245922242Y-156397583D01*
X245951172Y-156580236D01*
X246012349Y-156768524D01*
X246012351Y-156768527D01*
X246102233Y-156944931D01*
X246218604Y-157105101D01*
X246358599Y-157245096D01*
X246518769Y-157361467D01*
X246695173Y-157451349D01*
X246695175Y-157451350D01*
X246789319Y-157481938D01*
X246883465Y-157512528D01*
X247079009Y-157543500D01*
X247079010Y-157543500D01*
X247276990Y-157543500D01*
X247276991Y-157543500D01*
X247472535Y-157512528D01*
X247660827Y-157451349D01*
X247837231Y-157361467D01*
X247997401Y-157245096D01*
X248137396Y-157105101D01*
X248253767Y-156944931D01*
X248343649Y-156768527D01*
X248404828Y-156580235D01*
X248435800Y-156384691D01*
X248435800Y-156186709D01*
X248404828Y-155991165D01*
X248343649Y-155802873D01*
X248253767Y-155626469D01*
X248137396Y-155466299D01*
X247997401Y-155326304D01*
X247837231Y-155209933D01*
X247660827Y-155120051D01*
X247660824Y-155120049D01*
X247472536Y-155058872D01*
X247330656Y-155036400D01*
X247276991Y-155027900D01*
X247079009Y-155027900D01*
X246982139Y-155043242D01*
X246912846Y-155034287D01*
X246859394Y-154989291D01*
X246838755Y-154922539D01*
X246857480Y-154855225D01*
X246875053Y-154833096D01*
X247003642Y-154704508D01*
X247134113Y-154524930D01*
X247234885Y-154327153D01*
X247303478Y-154116047D01*
X247316913Y-154031221D01*
X247338201Y-153896814D01*
X247338201Y-153674833D01*
X247303478Y-153455600D01*
X247241229Y-153264021D01*
X247234885Y-153244495D01*
X247234883Y-153244492D01*
X247234883Y-153244490D01*
X247141952Y-153062103D01*
X247134113Y-153046718D01*
X247003642Y-152867140D01*
X246846685Y-152710183D01*
X246667107Y-152579712D01*
X246606794Y-152548981D01*
X246469334Y-152478941D01*
X246258224Y-152410346D01*
X246038991Y-152375624D01*
X246038986Y-152375624D01*
X245817016Y-152375624D01*
X245817011Y-152375624D01*
X245597777Y-152410346D01*
X245386667Y-152478941D01*
X245188894Y-152579712D01*
X245009314Y-152710185D01*
X244852362Y-152867137D01*
X244721889Y-153046717D01*
X244621118Y-153244490D01*
X244552523Y-153455600D01*
X244517801Y-153674833D01*
X241638200Y-153674833D01*
X241603477Y-153455600D01*
X241541228Y-153264021D01*
X241534884Y-153244495D01*
X241534882Y-153244492D01*
X241534882Y-153244490D01*
X241441951Y-153062103D01*
X241434112Y-153046718D01*
X241303641Y-152867140D01*
X241146684Y-152710183D01*
X240967106Y-152579712D01*
X240906793Y-152548981D01*
X240769333Y-152478941D01*
X240558223Y-152410346D01*
X240338990Y-152375624D01*
X240338985Y-152375624D01*
X240117015Y-152375624D01*
X240117010Y-152375624D01*
X239897776Y-152410346D01*
X239686666Y-152478941D01*
X239488893Y-152579712D01*
X239309313Y-152710185D01*
X239152361Y-152867137D01*
X239021888Y-153046717D01*
X238921117Y-153244490D01*
X238852522Y-153455600D01*
X238817800Y-153674833D01*
X238817800Y-153896814D01*
X238852522Y-154116047D01*
X238921117Y-154327157D01*
X239002054Y-154486003D01*
X239021888Y-154524930D01*
X239152359Y-154704508D01*
X239152361Y-154704510D01*
X239291165Y-154843314D01*
X239324650Y-154904637D01*
X239319666Y-154974329D01*
X239277794Y-155030262D01*
X239212330Y-155054679D01*
X239184086Y-155053468D01*
X239076322Y-155036400D01*
X238879680Y-155036400D01*
X238685454Y-155067162D01*
X238498438Y-155127926D01*
X238498435Y-155127927D01*
X238323221Y-155217205D01*
X238288376Y-155242521D01*
X238288376Y-155242523D01*
X238852429Y-155806574D01*
X238786822Y-155824154D01*
X238673880Y-155889361D01*
X238581662Y-155981579D01*
X238516455Y-156094521D01*
X238498875Y-156160127D01*
X237934824Y-155596075D01*
X237934822Y-155596075D01*
X237909506Y-155630920D01*
X237820228Y-155806134D01*
X237820227Y-155806137D01*
X237759463Y-155993153D01*
X237728701Y-156187378D01*
X235735800Y-156187378D01*
X235735800Y-156186709D01*
X235704828Y-155991165D01*
X235643649Y-155802873D01*
X235553767Y-155626469D01*
X235437396Y-155466299D01*
X235297401Y-155326304D01*
X235137231Y-155209933D01*
X234960827Y-155120051D01*
X234960824Y-155120049D01*
X234772536Y-155058872D01*
X234630656Y-155036400D01*
X234576991Y-155027900D01*
X234379009Y-155027900D01*
X234282139Y-155043242D01*
X234212846Y-155034287D01*
X234159394Y-154989291D01*
X234138755Y-154922539D01*
X234157480Y-154855225D01*
X234175053Y-154833096D01*
X234303642Y-154704508D01*
X234434113Y-154524930D01*
X234534885Y-154327153D01*
X234603478Y-154116047D01*
X234616913Y-154031221D01*
X234638201Y-153896814D01*
X234638201Y-153674833D01*
X234603478Y-153455600D01*
X234541229Y-153264021D01*
X234534885Y-153244495D01*
X234534883Y-153244492D01*
X234534883Y-153244490D01*
X234441952Y-153062103D01*
X234434113Y-153046718D01*
X234303642Y-152867140D01*
X234146685Y-152710183D01*
X233967107Y-152579712D01*
X233906794Y-152548981D01*
X233769334Y-152478941D01*
X233558224Y-152410346D01*
X233338991Y-152375624D01*
X233338986Y-152375624D01*
X233117016Y-152375624D01*
X233117011Y-152375624D01*
X232897777Y-152410346D01*
X232686667Y-152478941D01*
X232488894Y-152579712D01*
X232309314Y-152710185D01*
X232152362Y-152867137D01*
X232021889Y-153046717D01*
X231921118Y-153244490D01*
X231852523Y-153455600D01*
X231817801Y-153674833D01*
X228764238Y-153674833D01*
X228735980Y-153606614D01*
X228735980Y-153606613D01*
X228735979Y-153606611D01*
X228735977Y-153606608D01*
X228735975Y-153606604D01*
X228645091Y-153470587D01*
X228645088Y-153470583D01*
X228529416Y-153354911D01*
X228529412Y-153354908D01*
X228393395Y-153264024D01*
X228393386Y-153264019D01*
X228242248Y-153201416D01*
X228242242Y-153201414D01*
X228081799Y-153169500D01*
X228081797Y-153169500D01*
X227918203Y-153169500D01*
X227918201Y-153169500D01*
X227757757Y-153201414D01*
X227757751Y-153201416D01*
X227606613Y-153264019D01*
X227606604Y-153264024D01*
X227470587Y-153354908D01*
X227470583Y-153354911D01*
X227354911Y-153470583D01*
X227354908Y-153470587D01*
X227264024Y-153606604D01*
X227264019Y-153606613D01*
X227201416Y-153757751D01*
X227201414Y-153757757D01*
X227169500Y-153918200D01*
X227169500Y-153918203D01*
X227169500Y-154081797D01*
X227169500Y-154081799D01*
X227169499Y-154081799D01*
X225636320Y-154081799D01*
X225636320Y-146180009D01*
X225656005Y-146112970D01*
X225708809Y-146067215D01*
X225777967Y-146057271D01*
X225840023Y-146085018D01*
X225855494Y-146098000D01*
X226224624Y-146356468D01*
X226544534Y-146541168D01*
X226614869Y-146581776D01*
X226614884Y-146581784D01*
X226678896Y-146611633D01*
X227023281Y-146772222D01*
X227446729Y-146926345D01*
X227446735Y-146926346D01*
X227446739Y-146926348D01*
X227565271Y-146958108D01*
X227881999Y-147042975D01*
X228325778Y-147121225D01*
X228774686Y-147160499D01*
X228774687Y-147160500D01*
X228774688Y-147160500D01*
X229225313Y-147160500D01*
X229225313Y-147160499D01*
X229674222Y-147121225D01*
X230118001Y-147042975D01*
X230553271Y-146926345D01*
X230976719Y-146772222D01*
X231385124Y-146581780D01*
X231775376Y-146356468D01*
X232144506Y-146098000D01*
X232489704Y-145808344D01*
X232808344Y-145489704D01*
X233098000Y-145144506D01*
X233356468Y-144775376D01*
X233581780Y-144385124D01*
X233772222Y-143976719D01*
X233926345Y-143553271D01*
X234042975Y-143118001D01*
X234121225Y-142674222D01*
X234160500Y-142225312D01*
X234160500Y-141774688D01*
X234121225Y-141325778D01*
X234042975Y-140881999D01*
X233926345Y-140446729D01*
X233772222Y-140023281D01*
X233581780Y-139614876D01*
X233356468Y-139224624D01*
X233098000Y-138855494D01*
X233097999Y-138855493D01*
X233097995Y-138855487D01*
X232910045Y-138631498D01*
X232808344Y-138510296D01*
X232489704Y-138191656D01*
X232363680Y-138085909D01*
X232144512Y-137902004D01*
X231775382Y-137643536D01*
X231775379Y-137643534D01*
X231775376Y-137643532D01*
X231455463Y-137458830D01*
X231385130Y-137418223D01*
X231385115Y-137418215D01*
X230976728Y-137227782D01*
X230976726Y-137227781D01*
X230976719Y-137227778D01*
X230553271Y-137073655D01*
X230553270Y-137073654D01*
X230553260Y-137073651D01*
X230118008Y-136957027D01*
X230118011Y-136957027D01*
X230118001Y-136957025D01*
X230117995Y-136957023D01*
X230117991Y-136957023D01*
X229674227Y-136878775D01*
X229225313Y-136839500D01*
X229225312Y-136839500D01*
X228774688Y-136839500D01*
X228774687Y-136839500D01*
X228325773Y-136878775D01*
X228325771Y-136878775D01*
X227882008Y-136957023D01*
X227881991Y-136957027D01*
X227446739Y-137073651D01*
X227417795Y-137084186D01*
X227023281Y-137227778D01*
X227023277Y-137227779D01*
X227023271Y-137227782D01*
X226614884Y-137418215D01*
X226614869Y-137418223D01*
X226224632Y-137643527D01*
X226224617Y-137643536D01*
X225855489Y-137902003D01*
X225840024Y-137914980D01*
X225776015Y-137942992D01*
X225707023Y-137931951D01*
X225654953Y-137885363D01*
X225636320Y-137819989D01*
X225636320Y-101500683D01*
X238745500Y-101500683D01*
X238745500Y-101649316D01*
X238774493Y-101795072D01*
X238774495Y-101795080D01*
X238831371Y-101932391D01*
X238913939Y-102055964D01*
X238913945Y-102055971D01*
X239019028Y-102161054D01*
X239019035Y-102161060D01*
X239142608Y-102243628D01*
X239142609Y-102243628D01*
X239142610Y-102243629D01*
X239279920Y-102300505D01*
X239425683Y-102329499D01*
X239425687Y-102329500D01*
X239425688Y-102329500D01*
X239574313Y-102329500D01*
X239574314Y-102329499D01*
X239720080Y-102300505D01*
X239857390Y-102243629D01*
X239980966Y-102161059D01*
X240086059Y-102055966D01*
X240168629Y-101932390D01*
X240225505Y-101795080D01*
X240254500Y-101649312D01*
X240254500Y-101500688D01*
X240254499Y-101500683D01*
X244745500Y-101500683D01*
X244745500Y-101649316D01*
X244774493Y-101795072D01*
X244774495Y-101795080D01*
X244831371Y-101932391D01*
X244913939Y-102055964D01*
X244913945Y-102055971D01*
X245019028Y-102161054D01*
X245019035Y-102161060D01*
X245142608Y-102243628D01*
X245142609Y-102243628D01*
X245142610Y-102243629D01*
X245279920Y-102300505D01*
X245425683Y-102329499D01*
X245425687Y-102329500D01*
X245425688Y-102329500D01*
X245574313Y-102329500D01*
X245574314Y-102329499D01*
X245720080Y-102300505D01*
X245857390Y-102243629D01*
X245980966Y-102161059D01*
X246086059Y-102055966D01*
X246168629Y-101932390D01*
X246225505Y-101795080D01*
X246254500Y-101649312D01*
X246254500Y-101500688D01*
X246225505Y-101354920D01*
X246168629Y-101217610D01*
X246086059Y-101094034D01*
X246086054Y-101094028D01*
X245980971Y-100988945D01*
X245980964Y-100988939D01*
X245857391Y-100906371D01*
X245720080Y-100849495D01*
X245720072Y-100849493D01*
X245574316Y-100820500D01*
X245574312Y-100820500D01*
X245425688Y-100820500D01*
X245425683Y-100820500D01*
X245279927Y-100849493D01*
X245279919Y-100849495D01*
X245142608Y-100906371D01*
X245019035Y-100988939D01*
X245019028Y-100988945D01*
X244913945Y-101094028D01*
X244913939Y-101094035D01*
X244831371Y-101217608D01*
X244774495Y-101354919D01*
X244774493Y-101354927D01*
X244745500Y-101500683D01*
X240254499Y-101500683D01*
X240225505Y-101354920D01*
X240168629Y-101217610D01*
X240086059Y-101094034D01*
X240086054Y-101094028D01*
X239980971Y-100988945D01*
X239980964Y-100988939D01*
X239857391Y-100906371D01*
X239720080Y-100849495D01*
X239720072Y-100849493D01*
X239574316Y-100820500D01*
X239574312Y-100820500D01*
X239425688Y-100820500D01*
X239425683Y-100820500D01*
X239279927Y-100849493D01*
X239279919Y-100849495D01*
X239142608Y-100906371D01*
X239019035Y-100988939D01*
X239019028Y-100988945D01*
X238913945Y-101094028D01*
X238913939Y-101094035D01*
X238831371Y-101217608D01*
X238774495Y-101354919D01*
X238774493Y-101354927D01*
X238745500Y-101500683D01*
X225636320Y-101500683D01*
X225636320Y-96581799D01*
X227169499Y-96581799D01*
X227201414Y-96742242D01*
X227201416Y-96742248D01*
X227264019Y-96893386D01*
X227264024Y-96893395D01*
X227354908Y-97029412D01*
X227354911Y-97029416D01*
X227470583Y-97145088D01*
X227470587Y-97145091D01*
X227606604Y-97235975D01*
X227606610Y-97235978D01*
X227606611Y-97235979D01*
X227757752Y-97298584D01*
X227757756Y-97298584D01*
X227757757Y-97298585D01*
X227918200Y-97330500D01*
X227918203Y-97330500D01*
X228081799Y-97330500D01*
X228189742Y-97309028D01*
X228242248Y-97298584D01*
X228393389Y-97235979D01*
X228529413Y-97145091D01*
X228645091Y-97029413D01*
X228735979Y-96893389D01*
X228798584Y-96742248D01*
X228830500Y-96581797D01*
X228830500Y-96418203D01*
X228830500Y-96418200D01*
X228798585Y-96257757D01*
X228798584Y-96257756D01*
X228798584Y-96257752D01*
X228735979Y-96106611D01*
X228735978Y-96106610D01*
X228735975Y-96106604D01*
X228645091Y-95970587D01*
X228645088Y-95970583D01*
X228529416Y-95854911D01*
X228529412Y-95854908D01*
X228393395Y-95764024D01*
X228393386Y-95764019D01*
X228242248Y-95701416D01*
X228242242Y-95701414D01*
X228081799Y-95669500D01*
X228081797Y-95669500D01*
X227918203Y-95669500D01*
X227918201Y-95669500D01*
X227757757Y-95701414D01*
X227757751Y-95701416D01*
X227606613Y-95764019D01*
X227606604Y-95764024D01*
X227470587Y-95854908D01*
X227470583Y-95854911D01*
X227354911Y-95970583D01*
X227354908Y-95970587D01*
X227264024Y-96106604D01*
X227264019Y-96106613D01*
X227201416Y-96257751D01*
X227201414Y-96257757D01*
X227169500Y-96418200D01*
X227169500Y-96418203D01*
X227169500Y-96581797D01*
X227169500Y-96581799D01*
X227169499Y-96581799D01*
X225636320Y-96581799D01*
X225636320Y-88180009D01*
X225656005Y-88112970D01*
X225708809Y-88067215D01*
X225777967Y-88057271D01*
X225840023Y-88085018D01*
X225855494Y-88098000D01*
X226224624Y-88356468D01*
X226544534Y-88541168D01*
X226614869Y-88581776D01*
X226614884Y-88581784D01*
X226752290Y-88645857D01*
X227023281Y-88772222D01*
X227446729Y-88926345D01*
X227446735Y-88926346D01*
X227446739Y-88926348D01*
X227515216Y-88944696D01*
X227881999Y-89042975D01*
X228325778Y-89121225D01*
X228774686Y-89160499D01*
X228774687Y-89160500D01*
X228774688Y-89160500D01*
X229225313Y-89160500D01*
X229225313Y-89160499D01*
X229674222Y-89121225D01*
X230118001Y-89042975D01*
X230553271Y-88926345D01*
X230976719Y-88772222D01*
X231385124Y-88581780D01*
X231775376Y-88356468D01*
X232144506Y-88098000D01*
X232180393Y-88067886D01*
X232244401Y-88039873D01*
X232313393Y-88050911D01*
G37*
%TD.AperFunction*%
%TD*%
%TA.AperFunction,Conductor*%
%TO.N,GND*%
G36*
X265430000Y-113538000D02*
G01*
X277749000Y-143383000D01*
X277675957Y-152367234D01*
X277696968Y-149782734D01*
X277690999Y-149700383D01*
X277684948Y-149661101D01*
X277684947Y-149661096D01*
X277684947Y-149661094D01*
X277665865Y-149580798D01*
X277665856Y-149580766D01*
X274468704Y-139728320D01*
X267962336Y-119678084D01*
X267955825Y-119659268D01*
X267952500Y-119650231D01*
X267945239Y-119631622D01*
X265467039Y-113627734D01*
X265432134Y-113558509D01*
X265412856Y-113526536D01*
X265412854Y-113526534D01*
X265412851Y-113526528D01*
X265367941Y-113463373D01*
X265430000Y-113538000D01*
G37*
%TD.AperFunction*%
%TA.AperFunction,Conductor*%
G36*
X259410200Y-93025424D02*
G01*
X259408892Y-92988798D01*
X259407630Y-92971150D01*
X259403710Y-92934692D01*
X259362531Y-92794456D01*
X259340036Y-92745202D01*
X259330092Y-92676045D01*
X259359115Y-92612488D01*
X259371628Y-92599976D01*
X259410200Y-92566553D01*
X259410200Y-93025424D01*
G37*
%TD.AperFunction*%
%TD*%
%TA.AperFunction,Conductor*%
%TO.N,GND_USB*%
G36*
X255446375Y-127267515D02*
G01*
X255483749Y-127286558D01*
X255635231Y-127335777D01*
X255677743Y-127349590D01*
X255879210Y-127381500D01*
X255879211Y-127381500D01*
X256083189Y-127381500D01*
X256083190Y-127381500D01*
X256284657Y-127349590D01*
X256284660Y-127349589D01*
X256284661Y-127349589D01*
X256478650Y-127286558D01*
X256478650Y-127286557D01*
X256478653Y-127286557D01*
X256516025Y-127267514D01*
X256572320Y-127254000D01*
X260995824Y-127254000D01*
X261062863Y-127273685D01*
X261068709Y-127277682D01*
X261148671Y-127335777D01*
X261185800Y-127362753D01*
X261367547Y-127455357D01*
X261367549Y-127455358D01*
X261548495Y-127514150D01*
X261561543Y-127518390D01*
X261763010Y-127550300D01*
X261763011Y-127550300D01*
X261966989Y-127550300D01*
X261966990Y-127550300D01*
X262168457Y-127518390D01*
X262168460Y-127518389D01*
X262168461Y-127518389D01*
X262362450Y-127455358D01*
X262362450Y-127455357D01*
X262362453Y-127455357D01*
X262544200Y-127362753D01*
X262655870Y-127281619D01*
X262682755Y-127272026D01*
X262708462Y-127259609D01*
X262718141Y-127259399D01*
X262721675Y-127258139D01*
X262743737Y-127258846D01*
X262841379Y-127270739D01*
X262870481Y-127277935D01*
X262985763Y-127321803D01*
X263012292Y-127335777D01*
X263113675Y-127406035D01*
X263136073Y-127425967D01*
X263217627Y-127518507D01*
X263234580Y-127543223D01*
X263295038Y-127659360D01*
X263301153Y-127673078D01*
X263385171Y-127897125D01*
X266192000Y-135382000D01*
X266333124Y-135490195D01*
X266333143Y-135490211D01*
X268509430Y-137158696D01*
X268509431Y-137158697D01*
X270509711Y-138692245D01*
X270520467Y-138701516D01*
X270609478Y-138787598D01*
X270627472Y-138809511D01*
X270690719Y-138907549D01*
X270703266Y-138932977D01*
X270742586Y-139042815D01*
X270749028Y-139070429D01*
X270763187Y-139193446D01*
X270764000Y-139207625D01*
X270764000Y-158244500D01*
X270744315Y-158311539D01*
X270691511Y-158357294D01*
X270640000Y-158368500D01*
X268168652Y-158368500D01*
X268101613Y-158348815D01*
X268055858Y-158296011D01*
X268045914Y-158226853D01*
X268074939Y-158163297D01*
X268080971Y-158156819D01*
X268096748Y-158141041D01*
X268096751Y-158141037D01*
X268206185Y-157977259D01*
X268206192Y-157977246D01*
X268281569Y-157795268D01*
X268281572Y-157795256D01*
X268319999Y-157602070D01*
X268320000Y-157602067D01*
X268320000Y-157153575D01*
X267620000Y-157153575D01*
X267620000Y-156653575D01*
X268320000Y-156653575D01*
X268320000Y-156205083D01*
X268319999Y-156205079D01*
X268281572Y-156011893D01*
X268281569Y-156011881D01*
X268206192Y-155829903D01*
X268206185Y-155829890D01*
X268096751Y-155666112D01*
X268096748Y-155666108D01*
X267957466Y-155526826D01*
X267957462Y-155526823D01*
X267793684Y-155417389D01*
X267793671Y-155417382D01*
X267611691Y-155342004D01*
X267611683Y-155342002D01*
X267570000Y-155333710D01*
X267570000Y-156136586D01*
X267560060Y-156119370D01*
X267504205Y-156063515D01*
X267435796Y-156024019D01*
X267359496Y-156003575D01*
X267280504Y-156003575D01*
X267204204Y-156024019D01*
X267135795Y-156063515D01*
X267079940Y-156119370D01*
X267070000Y-156136586D01*
X267070000Y-155333711D01*
X267069999Y-155333710D01*
X267028316Y-155342002D01*
X267028308Y-155342004D01*
X266846328Y-155417382D01*
X266846315Y-155417389D01*
X266682537Y-155526823D01*
X266682533Y-155526826D01*
X266543251Y-155666108D01*
X266543248Y-155666112D01*
X266433814Y-155829890D01*
X266433807Y-155829903D01*
X266358430Y-156011881D01*
X266358427Y-156011893D01*
X266320000Y-156205079D01*
X266320000Y-156653575D01*
X267020000Y-156653575D01*
X267020000Y-157153575D01*
X266320000Y-157153575D01*
X266320000Y-157602070D01*
X266358427Y-157795256D01*
X266358430Y-157795268D01*
X266433807Y-157977246D01*
X266433814Y-157977259D01*
X266543248Y-158141037D01*
X266543251Y-158141041D01*
X266559029Y-158156819D01*
X266592514Y-158218142D01*
X266587530Y-158287834D01*
X266545658Y-158343767D01*
X266480194Y-158368184D01*
X266471348Y-158368500D01*
X259528652Y-158368500D01*
X259461613Y-158348815D01*
X259415858Y-158296011D01*
X259405914Y-158226853D01*
X259434939Y-158163297D01*
X259440971Y-158156819D01*
X259456748Y-158141041D01*
X259456751Y-158141037D01*
X259566185Y-157977259D01*
X259566192Y-157977246D01*
X259641569Y-157795268D01*
X259641572Y-157795256D01*
X259679999Y-157602070D01*
X259680000Y-157602067D01*
X259680000Y-157153575D01*
X258980000Y-157153575D01*
X258980000Y-156653575D01*
X259680000Y-156653575D01*
X259680000Y-156205083D01*
X259679999Y-156205079D01*
X259641572Y-156011893D01*
X259641569Y-156011881D01*
X259566192Y-155829903D01*
X259566185Y-155829890D01*
X259456751Y-155666112D01*
X259456748Y-155666108D01*
X259317466Y-155526826D01*
X259317462Y-155526823D01*
X259153684Y-155417389D01*
X259153671Y-155417382D01*
X258971691Y-155342004D01*
X258971683Y-155342002D01*
X258930000Y-155333710D01*
X258930000Y-156136586D01*
X258920060Y-156119370D01*
X258864205Y-156063515D01*
X258795796Y-156024019D01*
X258719496Y-156003575D01*
X258640504Y-156003575D01*
X258564204Y-156024019D01*
X258495795Y-156063515D01*
X258439940Y-156119370D01*
X258430000Y-156136586D01*
X258430000Y-155333711D01*
X258429999Y-155333710D01*
X258388316Y-155342002D01*
X258388308Y-155342004D01*
X258206328Y-155417382D01*
X258206315Y-155417389D01*
X258042537Y-155526823D01*
X258042533Y-155526826D01*
X257903251Y-155666108D01*
X257903248Y-155666112D01*
X257793814Y-155829890D01*
X257793807Y-155829903D01*
X257718430Y-156011881D01*
X257718427Y-156011893D01*
X257680000Y-156205079D01*
X257680000Y-156653575D01*
X258380000Y-156653575D01*
X258380000Y-157153575D01*
X257680000Y-157153575D01*
X257680000Y-157602070D01*
X257718427Y-157795256D01*
X257718430Y-157795268D01*
X257793807Y-157977246D01*
X257793814Y-157977259D01*
X257903248Y-158141037D01*
X257903251Y-158141041D01*
X257919029Y-158156819D01*
X257952514Y-158218142D01*
X257947530Y-158287834D01*
X257905658Y-158343767D01*
X257840194Y-158368184D01*
X257831348Y-158368500D01*
X254886000Y-158368500D01*
X254818961Y-158348815D01*
X254773206Y-158296011D01*
X254762000Y-158244500D01*
X254762000Y-152405079D01*
X257680000Y-152405079D01*
X257680000Y-152653575D01*
X258380000Y-152653575D01*
X258380000Y-153153575D01*
X257680000Y-153153575D01*
X257680000Y-153402070D01*
X257718427Y-153595256D01*
X257718430Y-153595268D01*
X257793807Y-153777246D01*
X257793814Y-153777259D01*
X257903248Y-153941037D01*
X257903251Y-153941041D01*
X258042533Y-154080323D01*
X258042537Y-154080326D01*
X258206315Y-154189760D01*
X258206328Y-154189767D01*
X258388308Y-154265144D01*
X258430000Y-154273437D01*
X258430000Y-153470563D01*
X258439940Y-153487780D01*
X258495795Y-153543635D01*
X258564204Y-153583131D01*
X258640504Y-153603575D01*
X258719496Y-153603575D01*
X258795796Y-153583131D01*
X258864205Y-153543635D01*
X258920060Y-153487780D01*
X258930000Y-153470563D01*
X258930000Y-154273437D01*
X258971690Y-154265144D01*
X258971692Y-154265144D01*
X259153671Y-154189767D01*
X259153684Y-154189760D01*
X259317462Y-154080326D01*
X259317466Y-154080323D01*
X259456748Y-153941041D01*
X259456751Y-153941037D01*
X259566185Y-153777259D01*
X259566192Y-153777246D01*
X259641569Y-153595268D01*
X259641572Y-153595256D01*
X259679999Y-153402070D01*
X259680000Y-153402067D01*
X259680000Y-153153575D01*
X258980000Y-153153575D01*
X258980000Y-152653575D01*
X259680000Y-152653575D01*
X259680000Y-152405083D01*
X259679999Y-152405079D01*
X266320000Y-152405079D01*
X266320000Y-152653575D01*
X267020000Y-152653575D01*
X267020000Y-153153575D01*
X266320000Y-153153575D01*
X266320000Y-153402070D01*
X266358427Y-153595256D01*
X266358430Y-153595268D01*
X266433807Y-153777246D01*
X266433814Y-153777259D01*
X266543248Y-153941037D01*
X266543251Y-153941041D01*
X266682533Y-154080323D01*
X266682537Y-154080326D01*
X266846315Y-154189760D01*
X266846328Y-154189767D01*
X267028308Y-154265144D01*
X267070000Y-154273437D01*
X267070000Y-153470563D01*
X267079940Y-153487780D01*
X267135795Y-153543635D01*
X267204204Y-153583131D01*
X267280504Y-153603575D01*
X267359496Y-153603575D01*
X267435796Y-153583131D01*
X267504205Y-153543635D01*
X267560060Y-153487780D01*
X267570000Y-153470563D01*
X267570000Y-154273437D01*
X267611690Y-154265144D01*
X267611692Y-154265144D01*
X267793671Y-154189767D01*
X267793684Y-154189760D01*
X267957462Y-154080326D01*
X267957466Y-154080323D01*
X268096748Y-153941041D01*
X268096751Y-153941037D01*
X268206185Y-153777259D01*
X268206192Y-153777246D01*
X268281569Y-153595268D01*
X268281572Y-153595256D01*
X268319999Y-153402070D01*
X268320000Y-153402067D01*
X268320000Y-153153575D01*
X267620000Y-153153575D01*
X267620000Y-152653575D01*
X268320000Y-152653575D01*
X268320000Y-152405083D01*
X268319999Y-152405079D01*
X268281572Y-152211893D01*
X268281569Y-152211881D01*
X268206192Y-152029903D01*
X268206185Y-152029890D01*
X268096751Y-151866112D01*
X268096748Y-151866108D01*
X267957466Y-151726826D01*
X267957462Y-151726823D01*
X267793684Y-151617389D01*
X267793671Y-151617382D01*
X267611691Y-151542004D01*
X267611683Y-151542002D01*
X267570000Y-151533710D01*
X267570000Y-152336586D01*
X267560060Y-152319370D01*
X267504205Y-152263515D01*
X267435796Y-152224019D01*
X267359496Y-152203575D01*
X267280504Y-152203575D01*
X267204204Y-152224019D01*
X267135795Y-152263515D01*
X267079940Y-152319370D01*
X267070000Y-152336586D01*
X267070000Y-151533711D01*
X267069999Y-151533710D01*
X267028316Y-151542002D01*
X267028308Y-151542004D01*
X266846328Y-151617382D01*
X266846315Y-151617389D01*
X266682537Y-151726823D01*
X266682533Y-151726826D01*
X266543251Y-151866108D01*
X266543248Y-151866112D01*
X266433814Y-152029890D01*
X266433807Y-152029903D01*
X266358430Y-152211881D01*
X266358427Y-152211893D01*
X266320000Y-152405079D01*
X259679999Y-152405079D01*
X259641572Y-152211893D01*
X259641569Y-152211881D01*
X259566192Y-152029903D01*
X259566185Y-152029890D01*
X259456751Y-151866112D01*
X259456748Y-151866108D01*
X259317466Y-151726826D01*
X259317462Y-151726823D01*
X259153684Y-151617389D01*
X259153671Y-151617382D01*
X258971691Y-151542004D01*
X258971683Y-151542002D01*
X258930000Y-151533710D01*
X258930000Y-152336586D01*
X258920060Y-152319370D01*
X258864205Y-152263515D01*
X258795796Y-152224019D01*
X258719496Y-152203575D01*
X258640504Y-152203575D01*
X258564204Y-152224019D01*
X258495795Y-152263515D01*
X258439940Y-152319370D01*
X258430000Y-152336586D01*
X258430000Y-151533711D01*
X258429999Y-151533710D01*
X258388316Y-151542002D01*
X258388308Y-151542004D01*
X258206328Y-151617382D01*
X258206315Y-151617389D01*
X258042537Y-151726823D01*
X258042533Y-151726826D01*
X257903251Y-151866108D01*
X257903248Y-151866112D01*
X257793814Y-152029890D01*
X257793807Y-152029903D01*
X257718430Y-152211881D01*
X257718427Y-152211893D01*
X257680000Y-152405079D01*
X254762000Y-152405079D01*
X254762000Y-145542000D01*
X253530386Y-144156434D01*
X253521113Y-144144634D01*
X253446651Y-144037076D01*
X253432702Y-144010572D01*
X253388897Y-143895356D01*
X253381713Y-143866276D01*
X253365908Y-143736408D01*
X253365000Y-143721428D01*
X253365000Y-127897125D01*
X253366061Y-127880940D01*
X253384506Y-127740836D01*
X253392884Y-127709568D01*
X253443827Y-127586581D01*
X253460012Y-127558548D01*
X253466341Y-127550300D01*
X253541053Y-127452932D01*
X253563932Y-127430053D01*
X253669549Y-127349010D01*
X253697579Y-127332827D01*
X253820569Y-127281883D01*
X253851835Y-127273506D01*
X253991941Y-127255061D01*
X254008126Y-127254000D01*
X255390080Y-127254000D01*
X255446375Y-127267515D01*
G37*
%TD.AperFunction*%
%TD*%
M02*
