M48
; DRILL file {KiCad 9.0.6-9.0.6~ubuntu22.04.1} date 2025-11-24T16:13:19-0800
; FORMAT={-:-/ absolute / metric / decimal}
; #@! TF.CreationDate,2025-11-24T16:13:19-08:00
; #@! TF.GenerationSoftware,Kicad,Pcbnew,9.0.6-9.0.6~ubuntu22.04.1
; #@! TF.FileFunction,MixedPlating,1,2
FMAT,2
METRIC
; #@! TA.AperFunction,Plated,PTH,ViaDrill
T1C0.406
; #@! TA.AperFunction,Plated,PTH,ComponentDrill
T2C0.600
; #@! TA.AperFunction,Plated,PTH,ComponentDrill
T3C0.800
; #@! TA.AperFunction,Plated,PTH,ComponentDrill
T4C0.900
; #@! TA.AperFunction,Plated,PTH,ComponentDrill
T5C0.991
; #@! TA.AperFunction,Plated,PTH,ComponentDrill
T6C1.000
; #@! TA.AperFunction,Plated,PTH,ComponentDrill
T7C1.100
; #@! TA.AperFunction,Plated,PTH,ComponentDrill
T8C1.295
; #@! TA.AperFunction,NonPlated,NPTH,ComponentDrill
T9C1.000
; #@! TA.AperFunction,NonPlated,NPTH,ComponentDrill
T10C1.152
; #@! TA.AperFunction,NonPlated,NPTH,ComponentDrill
T11C1.500
; #@! TA.AperFunction,NonPlated,NPTH,ComponentDrill
T12C1.905
; #@! TA.AperFunction,NonPlated,NPTH,ComponentDrill
T13C2.700
%
G90
G05
T1
X255.981Y-126.086
X256.388Y-150.393
X256.794Y-127.787
X257.988Y-139.192
X259.817Y-153.568
X260.553Y-148.387
X261.865Y-126.254
X261.874Y-131.191
X265.201Y-137.211
X265.201Y-141.529
X265.227Y-139.497
X266.217Y-153.619
X270.078Y-139.827
X270.078Y-150.063
X270.104Y-141.834
X270.104Y-143.866
X270.129Y-145.872
X277.876Y-147.32
X278.79Y-123.342
X283.439Y-105.359
X284.328Y-119.278
X285.242Y-94.234
X285.242Y-95.25
X285.242Y-96.266
X289.052Y-104.267
X291.606Y-100.814
X294.996Y-105.41
X300.736Y-148.59
X301.244Y-131.699
X303.022Y-146.812
X303.022Y-150.622
X305.308Y-148.59
X305.714Y-83.515
X305.714Y-94.844
X330.417Y-84.749
X330.429Y-87.757
X332.486Y-92.964
X338.785Y-89.789
X338.811Y-87.782
X339.192Y-84.379
X339.269Y-83.083
T3
X275.844Y-83.183
X275.844Y-86.683
X275.844Y-92.073
X275.844Y-95.573
X275.844Y-100.963
X275.844Y-104.463
X305.308Y-99.947
X305.308Y-103.447
X309.88Y-107.821
X309.88Y-111.321
X314.452Y-99.947
X314.452Y-103.447
T4
X238.506Y-107.601
X238.506Y-109.601
X240.506Y-107.601
X240.506Y-109.601
X242.506Y-107.601
X242.506Y-109.601
X244.506Y-107.601
X244.506Y-109.601
X246.506Y-107.601
X246.506Y-109.601
X273.23Y-154.165
X275.77Y-154.165
X279.23Y-154.165
X281.77Y-154.165
T5
X234.478Y-156.286
X238.978Y-156.286
X247.178Y-156.286
X251.678Y-156.286
T6
X342.472Y-91.491
X342.472Y-94.031
X342.472Y-96.571
X342.472Y-99.111
X342.472Y-101.651
X342.472Y-104.191
X342.472Y-106.731
X342.472Y-109.271
X342.472Y-111.811
X342.472Y-114.351
X342.472Y-116.891
X342.472Y-119.431
X342.472Y-121.971
X342.472Y-124.511
X342.472Y-127.051
X342.472Y-129.591
X342.472Y-132.131
X342.472Y-134.671
T7
X262.301Y-89.321
X262.326Y-94.321
X269.326Y-89.321
X269.326Y-94.321
X290.601Y-149.001
X290.601Y-156.026
X295.601Y-149.001
X295.601Y-156.001
T8
X233.228Y-153.786
X240.228Y-153.786
X245.928Y-153.786
X252.928Y-153.786
T9
X334.621Y-84.782
X334.621Y-90.782
T10
X228.0Y-96.5
X230.886Y-155.981
X315.087Y-82.296
X317.627Y-156.083
X329.154Y-81.788
X329.438Y-135.382
X339.438Y-135.382
X343.154Y-81.788
T11
X227.965Y-99.06
X228.044Y-156.004
X315.174Y-84.386
X321.995Y-155.977
T13
X229.0Y-84.0
X229.0Y-142.0
X320.999Y-84.0
X320.999Y-142.0
T2
X258.68Y-153.304G85X258.68Y-152.504
G05
X258.68Y-157.504G85X258.68Y-156.304
G05
X267.32Y-153.304G85X267.32Y-152.504
G05
X267.32Y-157.504G85X267.32Y-156.304
G05
T12
X228.044Y-109.664G85X228.044Y-106.489
G05
X228.044Y-134.319G85X228.044Y-131.143
G05
X228.092Y-152.84G85X228.092Y-149.665
G05
M30
