%TF.GenerationSoftware,KiCad,Pcbnew,9.0.4-9.0.4-0~ubuntu24.04.1*%
%TF.CreationDate,2025-10-19T09:54:07-07:00*%
%TF.ProjectId,NX-J401-Adapter,4e582d4a-3430-4312-9d41-646170746572,5*%
%TF.SameCoordinates,Original*%
%TF.FileFunction,Soldermask,Bot*%
%TF.FilePolarity,Negative*%
%FSLAX46Y46*%
G04 Gerber Fmt 4.6, Leading zero omitted, Abs format (unit mm)*
G04 Created by KiCad (PCBNEW 9.0.4-9.0.4-0~ubuntu24.04.1) date 2025-10-19 09:54:07*
%MOMM*%
%LPD*%
G01*
G04 APERTURE LIST*
G04 Aperture macros list*
%AMRoundRect*
0 Rectangle with rounded corners*
0 $1 Rounding radius*
0 $2 $3 $4 $5 $6 $7 $8 $9 X,Y pos of 4 corners*
0 Add a 4 corners polygon primitive as box body*
4,1,4,$2,$3,$4,$5,$6,$7,$8,$9,$2,$3,0*
0 Add four circle primitives for the rounded corners*
1,1,$1+$1,$2,$3*
1,1,$1+$1,$4,$5*
1,1,$1+$1,$6,$7*
1,1,$1+$1,$8,$9*
0 Add four rect primitives between the rounded corners*
20,1,$1+$1,$2,$3,$4,$5,0*
20,1,$1+$1,$4,$5,$6,$7,0*
20,1,$1+$1,$6,$7,$8,$9,0*
20,1,$1+$1,$8,$9,$2,$3,0*%
G04 Aperture macros list end*
%ADD10R,1.800000X1.800000*%
%ADD11C,1.800000*%
%ADD12C,2.700000*%
%ADD13C,1.300000*%
%ADD14C,2.200000*%
%ADD15C,1.498600*%
%ADD16C,1.803400*%
%ADD17RoundRect,0.250000X-0.550000X0.550000X-0.550000X-0.550000X0.550000X-0.550000X0.550000X0.550000X0*%
%ADD18C,1.600000*%
%ADD19C,1.000000*%
%ADD20O,1.000000X1.800000*%
%ADD21O,1.000000X2.200000*%
G04 APERTURE END LIST*
D10*
%TO.C,D7*%
X279230000Y-154165000D03*
D11*
X281770000Y-154165000D03*
%TD*%
D12*
%TO.C,H2*%
X229000000Y-84000000D03*
%TD*%
D13*
%TO.C,H8*%
X316000000Y-154000000D03*
%TD*%
D14*
%TO.C,J1*%
X269326000Y-84241000D03*
X262300600Y-84241000D03*
X269326000Y-89241000D03*
X262326000Y-89241000D03*
%TD*%
D15*
%TO.C,SW1*%
X234478000Y-156285700D03*
X238978001Y-156285700D03*
D16*
X233228001Y-153785824D03*
X240228000Y-153785824D03*
%TD*%
D13*
%TO.C,H1*%
X315000000Y-83000000D03*
%TD*%
D14*
%TO.C,J3*%
X290601400Y-149000600D03*
X290601400Y-156026000D03*
X295601400Y-149000600D03*
X295601400Y-156000600D03*
%TD*%
D17*
%TO.C,C3*%
X305308000Y-99947349D03*
D18*
X305308000Y-103447349D03*
%TD*%
D17*
%TO.C,C5*%
X275844000Y-100963349D03*
D18*
X275844000Y-104463349D03*
%TD*%
D10*
%TO.C,D6*%
X273230000Y-154165000D03*
D11*
X275770000Y-154165000D03*
%TD*%
D19*
%TO.C,J2*%
X245500000Y-101575000D03*
X239500000Y-101575000D03*
%TD*%
D15*
%TO.C,SW2*%
X247178000Y-156285700D03*
X251678001Y-156285700D03*
D16*
X245928001Y-153785824D03*
X252928000Y-153785824D03*
%TD*%
D12*
%TO.C,H5*%
X229000000Y-142000000D03*
%TD*%
D17*
%TO.C,C1*%
X275844000Y-83183349D03*
D18*
X275844000Y-86683349D03*
%TD*%
D17*
%TO.C,C2*%
X275844000Y-92073349D03*
D18*
X275844000Y-95573349D03*
%TD*%
D20*
%TO.C,J4*%
X258680000Y-152903575D03*
D21*
X258680000Y-156903575D03*
D20*
X267320000Y-152903575D03*
D21*
X267320000Y-156903575D03*
%TD*%
D12*
%TO.C,H3*%
X320999480Y-84000000D03*
%TD*%
D13*
%TO.C,H4*%
X228000000Y-96500000D03*
%TD*%
%TO.C,H7*%
X228000000Y-154000000D03*
%TD*%
D17*
%TO.C,C4*%
X314452000Y-99947349D03*
D18*
X314452000Y-103447349D03*
%TD*%
D12*
%TO.C,H6*%
X320999480Y-142000000D03*
%TD*%
D17*
%TO.C,C10*%
X309880000Y-107821349D03*
D18*
X309880000Y-111321349D03*
%TD*%
M02*
