%TF.GenerationSoftware,KiCad,Pcbnew,9.0.5-9.0.5~ubuntu24.04.1*%
%TF.CreationDate,2025-10-24T21:29:00-07:00*%
%TF.ProjectId,NX-J401-Adapter,4e582d4a-3430-4312-9d41-646170746572,5*%
%TF.SameCoordinates,Original*%
%TF.FileFunction,Profile,NP*%
%FSLAX46Y46*%
G04 Gerber Fmt 4.6, Leading zero omitted, Abs format (unit mm)*
G04 Created by KiCad (PCBNEW 9.0.5-9.0.5~ubuntu24.04.1) date 2025-10-24 21:29:00*
%MOMM*%
%LPD*%
G01*
G04 APERTURE LIST*
%TA.AperFunction,Profile*%
%ADD10C,0.100000*%
%TD*%
G04 APERTURE END LIST*
D10*
X327533000Y-107062250D02*
G75*
G02*
X325000620Y-107062250I-1266190J0D01*
G01*
X233019600Y-84820000D02*
G75*
G02*
X234019600Y-83820000I1000000J0D01*
G01*
X327533000Y-107061000D02*
X327533000Y-90551000D01*
X226016820Y-159004000D02*
G75*
G02*
X225000800Y-157988000I-20J1016000D01*
G01*
X225000820Y-81026000D02*
G75*
G02*
X226016820Y-80010020I1015980J0D01*
G01*
X345012000Y-135940800D02*
G75*
G02*
X343742000Y-137210800I-1270000J0D01*
G01*
X233019600Y-100203000D02*
X233019600Y-84820000D01*
X234019600Y-101203000D02*
X258359400Y-101203000D01*
X259359400Y-84820000D02*
X259359400Y-100203000D01*
X258359400Y-83820000D02*
G75*
G02*
X259359400Y-84820000I0J-1000000D01*
G01*
X325000620Y-111507250D02*
G75*
G02*
X327533000Y-111507250I1266190J0D01*
G01*
X325000620Y-81026000D02*
X325000620Y-86106000D01*
X323984620Y-80010000D02*
G75*
G02*
X325000600Y-81026000I-20J-1016000D01*
G01*
X325000620Y-133731000D02*
X325000620Y-157988000D01*
X226016820Y-80010021D02*
X323984600Y-80010021D01*
X343742000Y-80010000D02*
G75*
G02*
X345012000Y-81280000I0J-1270000D01*
G01*
X225000820Y-81026000D02*
X225000820Y-157988000D01*
X327533000Y-129286000D02*
X327533000Y-111506000D01*
X234019600Y-101203000D02*
G75*
G02*
X233019600Y-100203000I0J1000000D01*
G01*
X325000620Y-111506000D02*
X325000620Y-129286000D01*
X328803000Y-137210800D02*
G75*
G02*
X327533000Y-135940800I0J1270000D01*
G01*
X327533000Y-129287250D02*
G75*
G02*
X325000620Y-129287250I-1266190J0D01*
G01*
X226016820Y-159004000D02*
X323984620Y-159004000D01*
X325000620Y-157988000D02*
G75*
G02*
X323984620Y-159004020I-1016020J0D01*
G01*
X258359400Y-83820000D02*
X234019600Y-83820000D01*
X325000620Y-90551000D02*
X325000620Y-107061000D01*
X327533000Y-86106000D02*
X327533000Y-81280000D01*
X325000620Y-133732250D02*
G75*
G02*
X327533000Y-133732250I1266190J0D01*
G01*
X328803000Y-80010000D02*
X343742000Y-80010000D01*
X327533000Y-81280000D02*
G75*
G02*
X328803000Y-80010000I1270000J0D01*
G01*
X327533000Y-86106000D02*
G75*
G02*
X325000620Y-86106000I-1266190J0D01*
G01*
X343742000Y-137210800D02*
X328803000Y-137210800D01*
X325000620Y-90552250D02*
G75*
G02*
X327533000Y-90552250I1266190J0D01*
G01*
X327533000Y-135940800D02*
X327533000Y-133731000D01*
X259359400Y-100203000D02*
G75*
G02*
X258359400Y-101203000I-1000000J0D01*
G01*
X345012000Y-81280000D02*
X345012000Y-135940800D01*
M02*
