%TF.GenerationSoftware,KiCad,Pcbnew,9.0.4-9.0.4-0~ubuntu24.04.1*%
%TF.CreationDate,2025-10-19T14:58:58-07:00*%
%TF.ProjectId,NX-J401-Adapter,4e582d4a-3430-4312-9d41-646170746572,5*%
%TF.SameCoordinates,Original*%
%TF.FileFunction,Copper,L1,Top*%
%TF.FilePolarity,Positive*%
%FSLAX46Y46*%
G04 Gerber Fmt 4.6, Leading zero omitted, Abs format (unit mm)*
G04 Created by KiCad (PCBNEW 9.0.4-9.0.4-0~ubuntu24.04.1) date 2025-10-19 14:58:58*
%MOMM*%
%LPD*%
G01*
G04 APERTURE LIST*
G04 Aperture macros list*
%AMRoundRect*
0 Rectangle with rounded corners*
0 $1 Rounding radius*
0 $2 $3 $4 $5 $6 $7 $8 $9 X,Y pos of 4 corners*
0 Add a 4 corners polygon primitive as box body*
4,1,4,$2,$3,$4,$5,$6,$7,$8,$9,$2,$3,0*
0 Add four circle primitives for the rounded corners*
1,1,$1+$1,$2,$3*
1,1,$1+$1,$4,$5*
1,1,$1+$1,$6,$7*
1,1,$1+$1,$8,$9*
0 Add four rect primitives between the rounded corners*
20,1,$1+$1,$2,$3,$4,$5,0*
20,1,$1+$1,$4,$5,$6,$7,0*
20,1,$1+$1,$6,$7,$8,$9,0*
20,1,$1+$1,$8,$9,$2,$3,0*%
%AMFreePoly0*
4,1,18,2.145000,-2.250000,-2.145000,-2.250000,-2.805000,-2.250000,-2.805000,-1.590000,-2.145000,-1.590000,-2.145000,-0.970000,-2.805000,-0.970000,-2.805000,-0.310000,-2.145000,-0.310000,-2.145000,0.310000,-2.805000,0.310000,-2.805000,0.970000,-2.145000,0.970000,-2.145000,1.590000,-2.805000,1.590000,-2.805000,2.250000,2.145000,2.250000,2.145000,-2.250000,2.145000,-2.250000,$1*%
G04 Aperture macros list end*
%ADD10C,0.300000*%
%TA.AperFunction,NonConductor*%
%ADD11C,0.300000*%
%TD*%
%TA.AperFunction,SMDPad,CuDef*%
%ADD12RoundRect,0.250000X2.050000X0.300000X-2.050000X0.300000X-2.050000X-0.300000X2.050000X-0.300000X0*%
%TD*%
%TA.AperFunction,SMDPad,CuDef*%
%ADD13RoundRect,0.250000X2.025000X2.375000X-2.025000X2.375000X-2.025000X-2.375000X2.025000X-2.375000X0*%
%TD*%
%TA.AperFunction,SMDPad,CuDef*%
%ADD14RoundRect,0.250002X4.449998X5.149998X-4.449998X5.149998X-4.449998X-5.149998X4.449998X-5.149998X0*%
%TD*%
%TA.AperFunction,SMDPad,CuDef*%
%ADD15RoundRect,0.250000X-0.250000X-0.475000X0.250000X-0.475000X0.250000X0.475000X-0.250000X0.475000X0*%
%TD*%
%TA.AperFunction,SMDPad,CuDef*%
%ADD16R,0.750000X0.660000*%
%TD*%
%TA.AperFunction,SMDPad,CuDef*%
%ADD17FreePoly0,180.000000*%
%TD*%
%TA.AperFunction,SMDPad,CuDef*%
%ADD18C,1.600000*%
%TD*%
%TA.AperFunction,ComponentPad*%
%ADD19R,1.800000X1.800000*%
%TD*%
%TA.AperFunction,ComponentPad*%
%ADD20C,1.800000*%
%TD*%
%TA.AperFunction,SMDPad,CuDef*%
%ADD21RoundRect,0.250000X-0.300000X0.300000X-0.300000X-0.300000X0.300000X-0.300000X0.300000X0.300000X0*%
%TD*%
%TA.AperFunction,SMDPad,CuDef*%
%ADD22RoundRect,0.363637X-1.386363X-0.436363X1.386363X-0.436363X1.386363X0.436363X-1.386363X0.436363X0*%
%TD*%
%TA.AperFunction,SMDPad,CuDef*%
%ADD23RoundRect,0.234890X-1.902610X-2.515110X1.902610X-2.515110X1.902610X2.515110X-1.902610X2.515110X0*%
%TD*%
%TA.AperFunction,SMDPad,CuDef*%
%ADD24RoundRect,0.259311X-4.615689X-5.840689X4.615689X-5.840689X4.615689X5.840689X-4.615689X5.840689X0*%
%TD*%
%TA.AperFunction,SMDPad,CuDef*%
%ADD25RoundRect,0.218750X-0.218750X-0.381250X0.218750X-0.381250X0.218750X0.381250X-0.218750X0.381250X0*%
%TD*%
%TA.AperFunction,SMDPad,CuDef*%
%ADD26RoundRect,0.250000X-0.262500X-0.450000X0.262500X-0.450000X0.262500X0.450000X-0.262500X0.450000X0*%
%TD*%
%TA.AperFunction,SMDPad,CuDef*%
%ADD27RoundRect,0.250000X0.475000X-0.250000X0.475000X0.250000X-0.475000X0.250000X-0.475000X-0.250000X0*%
%TD*%
%TA.AperFunction,ComponentPad*%
%ADD28C,2.200000*%
%TD*%
%TA.AperFunction,ComponentPad*%
%ADD29C,1.498600*%
%TD*%
%TA.AperFunction,ComponentPad*%
%ADD30C,1.803400*%
%TD*%
%TA.AperFunction,SMDPad,CuDef*%
%ADD31RoundRect,0.250000X0.450000X-0.262500X0.450000X0.262500X-0.450000X0.262500X-0.450000X-0.262500X0*%
%TD*%
%TA.AperFunction,SMDPad,CuDef*%
%ADD32RoundRect,0.250000X0.262500X0.450000X-0.262500X0.450000X-0.262500X-0.450000X0.262500X-0.450000X0*%
%TD*%
%TA.AperFunction,SMDPad,CuDef*%
%ADD33RoundRect,0.150000X-0.587500X-0.150000X0.587500X-0.150000X0.587500X0.150000X-0.587500X0.150000X0*%
%TD*%
%TA.AperFunction,ComponentPad*%
%ADD34RoundRect,0.250000X-0.550000X0.550000X-0.550000X-0.550000X0.550000X-0.550000X0.550000X0.550000X0*%
%TD*%
%TA.AperFunction,ComponentPad*%
%ADD35C,1.600000*%
%TD*%
%TA.AperFunction,SMDPad,CuDef*%
%ADD36RoundRect,0.250000X-0.450000X0.262500X-0.450000X-0.262500X0.450000X-0.262500X0.450000X0.262500X0*%
%TD*%
%TA.AperFunction,SMDPad,CuDef*%
%ADD37RoundRect,0.250000X-0.300000X-0.300000X0.300000X-0.300000X0.300000X0.300000X-0.300000X0.300000X0*%
%TD*%
%TA.AperFunction,SMDPad,CuDef*%
%ADD38RoundRect,0.150000X0.350000X1.225000X-0.350000X1.225000X-0.350000X-1.225000X0.350000X-1.225000X0*%
%TD*%
%TA.AperFunction,SMDPad,CuDef*%
%ADD39RoundRect,0.250000X-0.475000X0.250000X-0.475000X-0.250000X0.475000X-0.250000X0.475000X0.250000X0*%
%TD*%
%TA.AperFunction,SMDPad,CuDef*%
%ADD40RoundRect,0.250000X1.400000X1.000000X-1.400000X1.000000X-1.400000X-1.000000X1.400000X-1.000000X0*%
%TD*%
%TA.AperFunction,SMDPad,CuDef*%
%ADD41R,1.750000X0.450000*%
%TD*%
%TA.AperFunction,SMDPad,CuDef*%
%ADD42RoundRect,0.150000X0.150000X-0.825000X0.150000X0.825000X-0.150000X0.825000X-0.150000X-0.825000X0*%
%TD*%
%TA.AperFunction,SMDPad,CuDef*%
%ADD43RoundRect,0.150000X-0.825000X-0.150000X0.825000X-0.150000X0.825000X0.150000X-0.825000X0.150000X0*%
%TD*%
%TA.AperFunction,SMDPad,CuDef*%
%ADD44RoundRect,0.250000X0.300000X0.300000X-0.300000X0.300000X-0.300000X-0.300000X0.300000X-0.300000X0*%
%TD*%
%TA.AperFunction,SMDPad,CuDef*%
%ADD45RoundRect,0.250000X-0.362500X-1.425000X0.362500X-1.425000X0.362500X1.425000X-0.362500X1.425000X0*%
%TD*%
%TA.AperFunction,SMDPad,CuDef*%
%ADD46RoundRect,0.250000X0.250000X0.475000X-0.250000X0.475000X-0.250000X-0.475000X0.250000X-0.475000X0*%
%TD*%
%TA.AperFunction,SMDPad,CuDef*%
%ADD47RoundRect,0.090000X0.210000X0.485000X-0.210000X0.485000X-0.210000X-0.485000X0.210000X-0.485000X0*%
%TD*%
%TA.AperFunction,SMDPad,CuDef*%
%ADD48RoundRect,0.045000X0.105000X0.530000X-0.105000X0.530000X-0.105000X-0.530000X0.105000X-0.530000X0*%
%TD*%
%TA.AperFunction,ComponentPad*%
%ADD49O,1.000000X1.800000*%
%TD*%
%TA.AperFunction,ComponentPad*%
%ADD50O,1.000000X2.200000*%
%TD*%
%TA.AperFunction,SMDPad,CuDef*%
%ADD51R,3.265000X5.210000*%
%TD*%
%TA.AperFunction,SMDPad,CuDef*%
%ADD52R,5.210000X3.275000*%
%TD*%
%TA.AperFunction,SMDPad,CuDef*%
%ADD53RoundRect,0.363637X1.386363X0.436363X-1.386363X0.436363X-1.386363X-0.436363X1.386363X-0.436363X0*%
%TD*%
%TA.AperFunction,SMDPad,CuDef*%
%ADD54RoundRect,0.234890X1.902610X2.515110X-1.902610X2.515110X-1.902610X-2.515110X1.902610X-2.515110X0*%
%TD*%
%TA.AperFunction,SMDPad,CuDef*%
%ADD55RoundRect,0.259311X4.615689X5.840689X-4.615689X5.840689X-4.615689X-5.840689X4.615689X-5.840689X0*%
%TD*%
%TA.AperFunction,ViaPad*%
%ADD56C,0.812800*%
%TD*%
%TA.AperFunction,Conductor*%
%ADD57C,0.254000*%
%TD*%
%TA.AperFunction,Conductor*%
%ADD58C,0.381000*%
%TD*%
%TA.AperFunction,Conductor*%
%ADD59C,0.508000*%
%TD*%
%TA.AperFunction,Conductor*%
%ADD60C,0.762000*%
%TD*%
%TA.AperFunction,Conductor*%
%ADD61C,0.635000*%
%TD*%
%TA.AperFunction,Conductor*%
%ADD62C,0.304800*%
%TD*%
G04 APERTURE END LIST*
D10*
D11*
X323650828Y-93909774D02*
X323650828Y-94766917D01*
X323650828Y-94338346D02*
X322150828Y-94338346D01*
X322150828Y-94338346D02*
X322365114Y-94481203D01*
X322365114Y-94481203D02*
X322507971Y-94624060D01*
X322507971Y-94624060D02*
X322579400Y-94766917D01*
D12*
%TO.P,D1,1,A*%
%TO.N,/Power Supply/SW*%
X294640000Y-89916000D03*
D13*
%TO.P,D1,2,K*%
%TO.N,+18V*%
X287915000Y-90151000D03*
X287915000Y-84601000D03*
D14*
X285490000Y-87376000D03*
D13*
X283065000Y-90151000D03*
X283065000Y-84601000D03*
D12*
%TO.P,D1,3,A*%
%TO.N,/Power Supply/SW*%
X294640000Y-84836000D03*
%TD*%
D15*
%TO.P,C15,1*%
%TO.N,Net-(U3-USBD-)*%
X267010000Y-143865000D03*
%TO.P,C15,2*%
%TO.N,GND_USB*%
X268910000Y-143865000D03*
%TD*%
D16*
%TO.P,Q1,1,S*%
%TO.N,/Power Supply/Q_S*%
X291195000Y-94092000D03*
%TO.P,Q1,2,S*%
X291195000Y-95372000D03*
%TO.P,Q1,3,S*%
X291195000Y-96652000D03*
%TO.P,Q1,4,G*%
%TO.N,Net-(Q1-G)*%
X291195000Y-97932000D03*
D17*
%TO.P,Q1,5,D*%
%TO.N,/Power Supply/SW*%
X294265000Y-96012000D03*
%TD*%
D18*
%TO.P,FID3,*%
%TO.N,*%
X320000000Y-154000000D03*
%TD*%
D19*
%TO.P,D7,1,KA*%
%TO.N,Net-(D7-KA)*%
X279230000Y-154165000D03*
D20*
%TO.P,D7,2,AK*%
%TO.N,GND*%
X281770000Y-154165000D03*
%TD*%
D21*
%TO.P,D4,1,K*%
%TO.N,/Power Supply/V_P*%
X298704000Y-132588000D03*
%TO.P,D4,2,A*%
%TO.N,Net-(D4-A)*%
X298704000Y-135388000D03*
%TD*%
D22*
%TO.P,Q2,1,G*%
%TO.N,Net-(D3-A)*%
X296955500Y-119510000D03*
D23*
%TO.P,Q2,2,D*%
%TO.N,/Power Supply/V_IN*%
X304793000Y-119000000D03*
X304793000Y-125100000D03*
D24*
X307230500Y-122050000D03*
D23*
X309668000Y-119000000D03*
X309668000Y-125100000D03*
D22*
%TO.P,Q2,3,S*%
%TO.N,/Power Supply/V_P*%
X296955500Y-124590000D03*
%TD*%
D18*
%TO.P,FID2,*%
%TO.N,*%
X320000000Y-91000000D03*
%TD*%
D25*
%TO.P,L2,1,1*%
%TO.N,Net-(C18-Pad1)*%
X257407900Y-145973800D03*
%TO.P,L2,2,2*%
%TO.N,Net-(U3-VCC)*%
X259532900Y-145973800D03*
%TD*%
D26*
%TO.P,R9,1*%
%TO.N,Net-(D2-K)*%
X285540500Y-125352000D03*
%TO.P,R9,2*%
%TO.N,/Power Supply/V_P*%
X287365500Y-125352000D03*
%TD*%
D27*
%TO.P,C12,1*%
%TO.N,3V3_USB*%
X255960000Y-130942000D03*
%TO.P,C12,2*%
%TO.N,GND_USB*%
X255960000Y-129042000D03*
%TD*%
D28*
%TO.P,J1,1,Pin_1*%
%TO.N,+18V*%
X269326000Y-84241000D03*
X262300600Y-84241000D03*
%TO.P,J1,2,Pin_2*%
%TO.N,GND*%
X269326000Y-89241000D03*
X262326000Y-89241000D03*
%TD*%
D29*
%TO.P,SW1,1,1*%
%TO.N,/~{REC}*%
X234478000Y-156285700D03*
%TO.P,SW1,2,2*%
%TO.N,GND1*%
X238978001Y-156285700D03*
D30*
%TO.P,SW1,3*%
%TO.N,N/C*%
X233228001Y-153785824D03*
%TO.P,SW1,4*%
X240228000Y-153785824D03*
%TD*%
D28*
%TO.P,J3,1,Pin_1*%
%TO.N,/V_BAT*%
X290601400Y-149000600D03*
X290601400Y-156026000D03*
%TO.P,J3,2,Pin_2*%
%TO.N,GND*%
X295601400Y-149000600D03*
X295601400Y-156000600D03*
%TD*%
D31*
%TO.P,R5,1*%
%TO.N,GND*%
X284708600Y-102918900D03*
%TO.P,R5,2*%
%TO.N,Net-(U1-FB)*%
X284708600Y-101093900D03*
%TD*%
D32*
%TO.P,R2,1*%
%TO.N,Net-(U1-FB)*%
X283182700Y-99288600D03*
%TO.P,R2,2*%
%TO.N,+18V*%
X281357700Y-99288600D03*
%TD*%
D26*
%TO.P,R11,1*%
%TO.N,Net-(C17-Pad1)*%
X282937500Y-147320000D03*
%TO.P,R11,2*%
%TO.N,/V_BAT*%
X284762500Y-147320000D03*
%TD*%
D33*
%TO.P,Q3,1,B*%
%TO.N,Net-(Q3-B)*%
X289963500Y-121354000D03*
%TO.P,Q3,2,E*%
%TO.N,/Power Supply/V_P*%
X289963500Y-123254000D03*
%TO.P,Q3,3,C*%
%TO.N,Net-(D3-A)*%
X291838500Y-122304000D03*
%TD*%
D15*
%TO.P,C13,1*%
%TO.N,Net-(U3-VCC)*%
X267010000Y-139833000D03*
%TO.P,C13,2*%
%TO.N,GND_USB*%
X268910000Y-139833000D03*
%TD*%
D34*
%TO.P,C3,1*%
%TO.N,/Power Supply/V_IN*%
X305308000Y-99947349D03*
D35*
%TO.P,C3,2*%
%TO.N,GND*%
X305308000Y-103447349D03*
%TD*%
D26*
%TO.P,R13,1*%
%TO.N,GND_USB*%
X257557900Y-150418800D03*
%TO.P,R13,2*%
%TO.N,Net-(J4-CC1)*%
X259382900Y-150418800D03*
%TD*%
D15*
%TO.P,C14,1*%
%TO.N,3V3_USB*%
X267010000Y-141833000D03*
%TO.P,C14,2*%
%TO.N,GND_USB*%
X268910000Y-141833000D03*
%TD*%
D26*
%TO.P,R7,1*%
%TO.N,GND*%
X285540500Y-119256000D03*
%TO.P,R7,2*%
%TO.N,Net-(D3-A)*%
X287365500Y-119256000D03*
%TD*%
D36*
%TO.P,R10,1*%
%TO.N,GND*%
X301244000Y-133075500D03*
%TO.P,R10,2*%
%TO.N,Net-(D4-A)*%
X301244000Y-134900500D03*
%TD*%
D32*
%TO.P,R12,1*%
%TO.N,GND_USB*%
X268872500Y-150088000D03*
%TO.P,R12,2*%
%TO.N,Net-(J4-CC2)*%
X267047500Y-150088000D03*
%TD*%
D37*
%TO.P,D3,1,K*%
%TO.N,/Power Supply/V_P*%
X289501000Y-125352000D03*
%TO.P,D3,2,A*%
%TO.N,Net-(D3-A)*%
X292301000Y-125352000D03*
%TD*%
D15*
%TO.P,C16,1*%
%TO.N,Net-(U3-USBD+)*%
X267010000Y-145897000D03*
%TO.P,C16,2*%
%TO.N,GND_USB*%
X268910000Y-145897000D03*
%TD*%
D34*
%TO.P,C5,1*%
%TO.N,+18V*%
X275844000Y-100963349D03*
D35*
%TO.P,C5,2*%
%TO.N,GND*%
X275844000Y-104463349D03*
%TD*%
D19*
%TO.P,D6,1,KA*%
%TO.N,/PC_LED+*%
X273230000Y-154165000D03*
D20*
%TO.P,D6,2,AK*%
%TO.N,/PC_LED-*%
X275770000Y-154165000D03*
%TD*%
D38*
%TO.P,J2,1,Pin_1*%
%TO.N,GND1*%
X246500000Y-99450000D03*
%TO.P,J2,2,Pin_2*%
%TO.N,/3V3*%
X246500000Y-103700000D03*
%TO.P,J2,3,Pin_3*%
%TO.N,/UART2_TXD*%
X244500000Y-99450000D03*
%TO.P,J2,4,Pin_4*%
%TO.N,GND1*%
X244500000Y-103700000D03*
%TO.P,J2,5,Pin_5*%
%TO.N,/UART2_RXD*%
X242500000Y-99450000D03*
%TO.P,J2,6,Pin_6*%
%TO.N,/~{SYS_RESET}*%
X242500000Y-103700000D03*
%TO.P,J2,7,Pin_7*%
%TO.N,GND1*%
X240500000Y-99450000D03*
%TO.P,J2,8,Pin_8*%
%TO.N,/~{REC}*%
X240500000Y-103700000D03*
%TO.P,J2,9,Pin_9*%
%TO.N,/PC_LED+*%
X238500000Y-99450000D03*
%TO.P,J2,10,Pin_10*%
%TO.N,/PC_LED-*%
X238500000Y-103700000D03*
%TD*%
D29*
%TO.P,SW2,1,1*%
%TO.N,/~{SYS_RESET}*%
X247178000Y-156285700D03*
%TO.P,SW2,2,2*%
%TO.N,GND1*%
X251678001Y-156285700D03*
D30*
%TO.P,SW2,3*%
%TO.N,N/C*%
X245928001Y-153785824D03*
%TO.P,SW2,4*%
X252928000Y-153785824D03*
%TD*%
D15*
%TO.P,C18,1*%
%TO.N,Net-(C18-Pad1)*%
X257520400Y-148386800D03*
%TO.P,C18,2*%
%TO.N,GND_USB*%
X259420400Y-148386800D03*
%TD*%
D39*
%TO.P,C11,1*%
%TO.N,/3V3*%
X255960000Y-123042000D03*
%TO.P,C11,2*%
%TO.N,GND1*%
X255960000Y-124942000D03*
%TD*%
D40*
%TO.P,D5,1,A1*%
%TO.N,GND*%
X303022000Y-148638000D03*
%TO.P,D5,2,A2*%
%TO.N,/V_BAT*%
X303022000Y-141938000D03*
%TD*%
D31*
%TO.P,R4,1*%
%TO.N,GND*%
X298450000Y-102385540D03*
%TO.P,R4,2*%
%TO.N,Net-(U1-FA{slash}SD)*%
X298450000Y-100560540D03*
%TD*%
D26*
%TO.P,R8,1*%
%TO.N,Net-(D2-K)*%
X285540500Y-121288000D03*
%TO.P,R8,2*%
%TO.N,Net-(Q3-B)*%
X287365500Y-121288000D03*
%TD*%
D34*
%TO.P,C1,1*%
%TO.N,+18V*%
X275844000Y-83183349D03*
D35*
%TO.P,C1,2*%
%TO.N,GND*%
X275844000Y-86683349D03*
%TD*%
D18*
%TO.P,FID1,*%
%TO.N,*%
X230000000Y-91000000D03*
%TD*%
D41*
%TO.P,U3,1,TXD*%
%TO.N,Net-(U2-IN_{B})*%
X256360000Y-135267000D03*
%TO.P,U3,2,~{DTR}*%
%TO.N,unconnected-(U3-~{DTR}-Pad2)*%
X256360000Y-135917000D03*
%TO.P,U3,3,~{RTS}*%
%TO.N,unconnected-(U3-~{RTS}-Pad3)*%
X256360000Y-136567000D03*
%TO.P,U3,4,VCCIO*%
%TO.N,Net-(U3-VCC)*%
X256360000Y-137217000D03*
%TO.P,U3,5,RXD*%
%TO.N,Net-(U2-OUT_{A})*%
X256360000Y-137867000D03*
%TO.P,U3,6,~{RI}*%
%TO.N,unconnected-(U3-~{RI}-Pad6)*%
X256360000Y-138517000D03*
%TO.P,U3,7,GND*%
%TO.N,GND_USB*%
X256360000Y-139167000D03*
%TO.P,U3,8,NC*%
%TO.N,unconnected-(U3-NC-Pad8)*%
X256360000Y-139817000D03*
%TO.P,U3,9,~{DSR}*%
%TO.N,unconnected-(U3-~{DSR}-Pad9)*%
X256360000Y-140467000D03*
%TO.P,U3,10,~{DCD}*%
%TO.N,unconnected-(U3-~{DCD}-Pad10)*%
X256360000Y-141117000D03*
%TO.P,U3,11,~{CTS}*%
%TO.N,unconnected-(U3-~{CTS}-Pad11)*%
X256360000Y-141767000D03*
%TO.P,U3,12,CBUS4*%
%TO.N,unconnected-(U3-CBUS4-Pad12)*%
X256360000Y-142417000D03*
%TO.P,U3,13,CBUS2*%
%TO.N,unconnected-(U3-CBUS2-Pad13)*%
X256360000Y-143067000D03*
%TO.P,U3,14,CBUS3*%
%TO.N,unconnected-(U3-CBUS3-Pad14)*%
X256360000Y-143717000D03*
%TO.P,U3,15,USBD+*%
%TO.N,Net-(U3-USBD+)*%
X263560000Y-143717000D03*
%TO.P,U3,16,USBD-*%
%TO.N,Net-(U3-USBD-)*%
X263560000Y-143067000D03*
%TO.P,U3,17,3V3OUT*%
%TO.N,3V3_USB*%
X263560000Y-142417000D03*
%TO.P,U3,18,GND*%
%TO.N,GND_USB*%
X263560000Y-141767000D03*
%TO.P,U3,19,~{RESET}*%
%TO.N,unconnected-(U3-~{RESET}-Pad19)*%
X263560000Y-141117000D03*
%TO.P,U3,20,VCC*%
%TO.N,Net-(U3-VCC)*%
X263560000Y-140467000D03*
%TO.P,U3,21,GND*%
%TO.N,GND_USB*%
X263560000Y-139817000D03*
%TO.P,U3,22,CBUS1*%
%TO.N,unconnected-(U3-CBUS1-Pad22)*%
X263560000Y-139167000D03*
%TO.P,U3,23,CBUS0*%
%TO.N,unconnected-(U3-CBUS0-Pad23)*%
X263560000Y-138517000D03*
%TO.P,U3,24*%
%TO.N,N/C*%
X263560000Y-137867000D03*
%TO.P,U3,25,AGND*%
%TO.N,GND_USB*%
X263560000Y-137217000D03*
%TO.P,U3,26,TEST*%
X263560000Y-136567000D03*
%TO.P,U3,27,OSCI*%
%TO.N,unconnected-(U3-OSCI-Pad27)*%
X263560000Y-135917000D03*
%TO.P,U3,28,OSCO*%
%TO.N,unconnected-(U3-OSCO-Pad28)*%
X263560000Y-135267000D03*
%TD*%
D42*
%TO.P,U2,1,VCC1*%
%TO.N,3V3_USB*%
X258055000Y-129467000D03*
%TO.P,U2,2,OUT_{A}*%
%TO.N,Net-(U2-OUT_{A})*%
X259325000Y-129467000D03*
%TO.P,U2,3,IN_{B}*%
%TO.N,Net-(U2-IN_{B})*%
X260595000Y-129467000D03*
%TO.P,U2,4,GND1*%
%TO.N,GND_USB*%
X261865000Y-129467000D03*
%TO.P,U2,5,GND2*%
%TO.N,GND1*%
X261865000Y-124517000D03*
%TO.P,U2,6,OUT_{B}*%
%TO.N,/UART2_RXD*%
X260595000Y-124517000D03*
%TO.P,U2,7,IN_{A}*%
%TO.N,/UART2_TXD*%
X259325000Y-124517000D03*
%TO.P,U2,8,VCC2*%
%TO.N,/3V3*%
X258055000Y-124517000D03*
%TD*%
D43*
%TO.P,U1,1,I_{SEN}*%
%TO.N,Net-(U1-I_{SEN})*%
X289117000Y-99441000D03*
%TO.P,U1,2,COMP*%
%TO.N,Net-(U1-COMP)*%
X289117000Y-100711000D03*
%TO.P,U1,3,FB*%
%TO.N,Net-(U1-FB)*%
X289117000Y-101981000D03*
%TO.P,U1,4,AGND*%
%TO.N,GND*%
X289117000Y-103251000D03*
%TO.P,U1,5,PGND*%
X294067000Y-103251000D03*
%TO.P,U1,6,DR*%
%TO.N,Net-(Q1-G)*%
X294067000Y-101981000D03*
%TO.P,U1,7,FA/SD*%
%TO.N,Net-(U1-FA{slash}SD)*%
X294067000Y-100711000D03*
%TO.P,U1,8,V_{IN}*%
%TO.N,/Power Supply/V_IN*%
X294067000Y-99441000D03*
%TD*%
D44*
%TO.P,D2,1,K*%
%TO.N,Net-(D2-K)*%
X282773000Y-123320000D03*
%TO.P,D2,2,A*%
%TO.N,GND*%
X279973000Y-123320000D03*
%TD*%
D26*
%TO.P,R6,1*%
%TO.N,GND*%
X284583500Y-105410000D03*
%TO.P,R6,2*%
%TO.N,Net-(C8-Pad2)*%
X286408500Y-105410000D03*
%TD*%
D45*
%TO.P,R1,1*%
%TO.N,GND*%
X283803500Y-95250000D03*
%TO.P,R1,2*%
%TO.N,/Power Supply/Q_S*%
X289728500Y-95250000D03*
%TD*%
D26*
%TO.P,R3,1*%
%TO.N,/Power Supply/Q_S*%
X284915600Y-99288600D03*
%TO.P,R3,2*%
%TO.N,Net-(U1-I_{SEN})*%
X286740600Y-99288600D03*
%TD*%
D46*
%TO.P,C8,1*%
%TO.N,Net-(U1-COMP)*%
X290002000Y-105410000D03*
%TO.P,C8,2*%
%TO.N,Net-(C8-Pad2)*%
X288102000Y-105410000D03*
%TD*%
D34*
%TO.P,C2,1*%
%TO.N,+18V*%
X275844000Y-92073349D03*
D35*
%TO.P,C2,2*%
%TO.N,GND*%
X275844000Y-95573349D03*
%TD*%
D47*
%TO.P,J4,A1B12,GND*%
%TO.N,GND_USB*%
X259800000Y-152328575D03*
%TO.P,J4,A4B9,VBUS*%
%TO.N,Net-(C18-Pad1)*%
X260600000Y-152328575D03*
D48*
%TO.P,J4,A5,CC1*%
%TO.N,Net-(J4-CC1)*%
X261750000Y-152328575D03*
%TO.P,J4,A6,D+*%
%TO.N,Net-(U3-USBD+)*%
X262750000Y-152328575D03*
%TO.P,J4,A7,D-*%
%TO.N,Net-(U3-USBD-)*%
X263250000Y-152328575D03*
%TO.P,J4,A8*%
%TO.N,unconnected-(J4-PadA8)*%
X264250000Y-152328575D03*
D47*
%TO.P,J4,B1A12,GND*%
%TO.N,GND_USB*%
X266200000Y-152328575D03*
%TO.P,J4,B4A9,VBUS*%
%TO.N,Net-(C18-Pad1)*%
X265400000Y-152328575D03*
D48*
%TO.P,J4,B5,CC2*%
%TO.N,Net-(J4-CC2)*%
X264750000Y-152328575D03*
%TO.P,J4,B6,D+*%
%TO.N,Net-(U3-USBD+)*%
X263750000Y-152328575D03*
%TO.P,J4,B7,D-*%
%TO.N,Net-(U3-USBD-)*%
X262250000Y-152328575D03*
%TO.P,J4,B8*%
%TO.N,unconnected-(J4-PadB8)*%
X261250000Y-152328575D03*
D49*
%TO.P,J4,S1,SHIELD*%
%TO.N,GND_USB*%
X258680000Y-152903575D03*
D50*
X258680000Y-156903575D03*
D49*
X267320000Y-152903575D03*
D50*
X267320000Y-156903575D03*
%TD*%
D39*
%TO.P,C7,1*%
%TO.N,Net-(U1-I_{SEN})*%
X286740600Y-101056400D03*
%TO.P,C7,2*%
%TO.N,GND*%
X286740600Y-102956400D03*
%TD*%
D15*
%TO.P,C9,1*%
%TO.N,Net-(U1-COMP)*%
X291658000Y-105410000D03*
%TO.P,C9,2*%
%TO.N,GND*%
X293558000Y-105410000D03*
%TD*%
D51*
%TO.P,L1,1,1*%
%TO.N,/Power Supply/V_IN*%
X311427500Y-89154000D03*
%TO.P,L1,2,2*%
%TO.N,/Power Supply/SW*%
X299962500Y-89154000D03*
D52*
%TO.P,L1,3,3*%
%TO.N,GND*%
X305695000Y-94831500D03*
%TO.P,L1,4,4*%
X305695000Y-83476500D03*
%TD*%
D53*
%TO.P,Q4,1,G*%
%TO.N,Net-(D4-A)*%
X293565000Y-136274000D03*
D54*
%TO.P,Q4,2,D*%
%TO.N,/V_BAT*%
X285727500Y-136784000D03*
X285727500Y-130684000D03*
D55*
X283290000Y-133734000D03*
D54*
X280852500Y-136784000D03*
X280852500Y-130684000D03*
D53*
%TO.P,Q4,3,S*%
%TO.N,/Power Supply/V_P*%
X293565000Y-131194000D03*
%TD*%
D34*
%TO.P,C4,1*%
%TO.N,/Power Supply/V_IN*%
X314452000Y-99947349D03*
D35*
%TO.P,C4,2*%
%TO.N,GND*%
X314452000Y-103447349D03*
%TD*%
D39*
%TO.P,C6,1*%
%TO.N,/Power Supply/V_IN*%
X296418000Y-100523040D03*
%TO.P,C6,2*%
%TO.N,GND*%
X296418000Y-102423040D03*
%TD*%
D34*
%TO.P,C10,1*%
%TO.N,/Power Supply/V_IN*%
X309880000Y-107821349D03*
D35*
%TO.P,C10,2*%
%TO.N,GND*%
X309880000Y-111321349D03*
%TD*%
D46*
%TO.P,C17,1*%
%TO.N,Net-(C17-Pad1)*%
X281112000Y-147320000D03*
%TO.P,C17,2*%
%TO.N,GND*%
X279212000Y-147320000D03*
%TD*%
D32*
%TO.P,R14,1*%
%TO.N,/V_BAT*%
X281074500Y-151384000D03*
%TO.P,R14,2*%
%TO.N,Net-(D7-KA)*%
X279249500Y-151384000D03*
%TD*%
D56*
%TO.N,GND*%
X285242000Y-96266000D03*
X303022000Y-150622000D03*
X284327600Y-119278400D03*
X285241982Y-94234000D03*
X305308000Y-148590000D03*
X283438610Y-105359200D03*
X289052000Y-104266998D03*
X305714400Y-83515200D03*
X291605822Y-100813988D03*
X277876000Y-147320000D03*
X285242000Y-95250000D03*
X300736000Y-148590000D03*
X278790400Y-123342400D03*
X305714400Y-94843600D03*
X303022000Y-146812000D03*
X301244000Y-131699000D03*
X294995600Y-105410000D03*
%TO.N,GND_USB*%
X270078200Y-150063200D03*
X265201400Y-141528800D03*
X265226800Y-139496800D03*
X270129000Y-145872200D03*
X256387600Y-150393400D03*
X270078200Y-139827000D03*
X256794000Y-127787400D03*
X259816600Y-153568400D03*
X265201400Y-137210800D03*
X270103600Y-143865600D03*
X257987800Y-139192000D03*
X270103600Y-141833600D03*
X261874000Y-131191000D03*
X266217400Y-153619200D03*
X260553200Y-148386800D03*
%TO.N,GND1*%
X246507000Y-97409000D03*
X244525800Y-105816400D03*
X255981200Y-126085600D03*
X240461800Y-97383600D03*
X261865000Y-126254400D03*
%TD*%
D57*
%TO.N,GND*%
X283803500Y-95250000D02*
X283803500Y-94656500D01*
D58*
X286740600Y-104089200D02*
X288874202Y-104089200D01*
X293558000Y-105410000D02*
X294995600Y-105410000D01*
D59*
X295732200Y-104140000D02*
X296418000Y-103454200D01*
D57*
X283803500Y-95250000D02*
X283803500Y-95843500D01*
X283972000Y-94488000D02*
X283803500Y-94656500D01*
D58*
X285540500Y-119256000D02*
X284350000Y-119256000D01*
D57*
X283803500Y-94656500D02*
X284226000Y-94234000D01*
D58*
X284583500Y-105410000D02*
X283489410Y-105410000D01*
X279973000Y-123320000D02*
X278812800Y-123320000D01*
D60*
X305702300Y-94831500D02*
X305714400Y-94843600D01*
D59*
X291605822Y-102147222D02*
X291605822Y-100813988D01*
X284226000Y-94234000D02*
X285241982Y-94234000D01*
X283803500Y-95250000D02*
X285242000Y-95250000D01*
D61*
X303022000Y-148638000D02*
X303022000Y-150622000D01*
D58*
X284350000Y-119256000D02*
X284327600Y-119278400D01*
X284708600Y-102918900D02*
X284708600Y-104089200D01*
D57*
X283803500Y-95843500D02*
X284226000Y-96266000D01*
D59*
X284226000Y-96266000D02*
X285242000Y-96266000D01*
D61*
X305260000Y-148638000D02*
X305308000Y-148590000D01*
D58*
X289117000Y-103251000D02*
X289117000Y-104201998D01*
X288874202Y-104089200D02*
X289052000Y-104266998D01*
D61*
X303022000Y-148638000D02*
X300784000Y-148638000D01*
D58*
X278812800Y-123320000D02*
X278790400Y-123342400D01*
D61*
X300784000Y-148638000D02*
X300736000Y-148590000D01*
D58*
X283489410Y-105410000D02*
X283438610Y-105359200D01*
X286740600Y-102956400D02*
X286740600Y-104089200D01*
X289052000Y-104089200D02*
X289052000Y-104266998D01*
X284708600Y-104089200D02*
X286740600Y-104089200D01*
X298450000Y-102385540D02*
X298450000Y-103708200D01*
X296748200Y-105410000D02*
X294995600Y-105410000D01*
D59*
X294067000Y-103251000D02*
X294067000Y-103897200D01*
X294309800Y-104140000D02*
X295732200Y-104140000D01*
D58*
X298450000Y-103708200D02*
X296748200Y-105410000D01*
D59*
X294067000Y-103897200D02*
X294309800Y-104140000D01*
D58*
X284583500Y-104214300D02*
X284708600Y-104089200D01*
X279212000Y-147320000D02*
X277876000Y-147320000D01*
D60*
X305695000Y-83495800D02*
X305714400Y-83515200D01*
D58*
X301244000Y-133075500D02*
X301244000Y-131699000D01*
D59*
X296418000Y-103454200D02*
X296418000Y-102423040D01*
D60*
X305695000Y-83476500D02*
X305695000Y-83495800D01*
D61*
X303022000Y-148638000D02*
X303022000Y-146812000D01*
D58*
X289117000Y-104201998D02*
X289052000Y-104266998D01*
D59*
X294067000Y-103251000D02*
X292709600Y-103251000D01*
D58*
X284583500Y-105410000D02*
X284583500Y-104214300D01*
D59*
X292709600Y-103251000D02*
X291605822Y-102147222D01*
D61*
X303022000Y-148638000D02*
X305260000Y-148638000D01*
D60*
X305695000Y-94831500D02*
X305702300Y-94831500D01*
D58*
%TO.N,+18V*%
X281357700Y-99288600D02*
X277518749Y-99288600D01*
X277518749Y-99288600D02*
X275844000Y-100963349D01*
D60*
%TO.N,/Power Supply/V_IN*%
X304793000Y-128771000D02*
X304793000Y-125100000D01*
X315239400Y-109347000D02*
X315239400Y-117754400D01*
X307230500Y-122050000D02*
X307230500Y-131208500D01*
X309651400Y-113614200D02*
X309668000Y-113630800D01*
X300558200Y-118465600D02*
X301092600Y-119000000D01*
X309880000Y-107821349D02*
X313713749Y-107821349D01*
X307230500Y-122050000D02*
X315722000Y-122050000D01*
X307230500Y-113266500D02*
X307263800Y-113233200D01*
X304317400Y-113266500D02*
X301490100Y-113266500D01*
X304317400Y-113266500D02*
X304774600Y-113266500D01*
X315722000Y-122050000D02*
X316608000Y-122050000D01*
X301490100Y-113266500D02*
X300558200Y-114198400D01*
X307263800Y-113233200D02*
X309651400Y-113233200D01*
X313713749Y-107821349D02*
X315239400Y-109347000D01*
X301092600Y-119000000D02*
X304793000Y-119000000D01*
X309668000Y-125100000D02*
X309668000Y-130090000D01*
X315239400Y-117754400D02*
X313993800Y-119000000D01*
D59*
X296418000Y-100523040D02*
X296418000Y-99441000D01*
D60*
X309651400Y-113233200D02*
X309651400Y-113614200D01*
X315336000Y-125100000D02*
X315722000Y-124714000D01*
D59*
X296418000Y-99441000D02*
X304801651Y-99441000D01*
D60*
X313993800Y-119000000D02*
X309668000Y-119000000D01*
X307230500Y-113266500D02*
X304317400Y-113266500D01*
X309668000Y-113630800D02*
X309668000Y-119000000D01*
X300558200Y-114198400D02*
X300558200Y-118465600D01*
X309668000Y-125100000D02*
X315336000Y-125100000D01*
X315722000Y-124714000D02*
X315722000Y-122050000D01*
X307230500Y-131208500D02*
X304793000Y-128771000D01*
X307230500Y-122050000D02*
X307230500Y-113266500D01*
X304774600Y-113266500D02*
X304793000Y-113284900D01*
X304793000Y-113284900D02*
X304793000Y-119000000D01*
D59*
X294067000Y-99441000D02*
X296418000Y-99441000D01*
X304801651Y-99441000D02*
X305308000Y-99947349D01*
D58*
%TO.N,Net-(U1-I_{SEN})*%
X286740600Y-101056400D02*
X286740600Y-99288600D01*
X287807400Y-99441000D02*
X287655000Y-99288600D01*
X289117000Y-99441000D02*
X287807400Y-99441000D01*
X287655000Y-99288600D02*
X286740600Y-99288600D01*
D57*
%TO.N,GND_USB*%
X270053400Y-150088000D02*
X270078200Y-150063200D01*
X257557900Y-150418800D02*
X256413000Y-150418800D01*
D58*
X265201400Y-136677400D02*
X265201400Y-137210800D01*
X265195200Y-137217000D02*
X265201400Y-137210800D01*
X256794000Y-127787400D02*
X256311400Y-127787400D01*
X256311400Y-127787400D02*
X255960000Y-128138800D01*
X266200000Y-153601800D02*
X266217400Y-153619200D01*
X265226800Y-139496800D02*
X265226800Y-139730800D01*
X259420400Y-148386800D02*
X260553200Y-148386800D01*
X270103000Y-141833000D02*
X270103600Y-141833600D01*
X263560000Y-137217000D02*
X265195200Y-137217000D01*
X270072200Y-139833000D02*
X270078200Y-139827000D01*
X265226800Y-139730800D02*
X265140600Y-139817000D01*
X263569600Y-141757400D02*
X263560000Y-141767000D01*
X265201400Y-141528800D02*
X264972800Y-141757400D01*
X270103000Y-143865000D02*
X270103600Y-143865600D01*
X259800000Y-152328575D02*
X259800000Y-153551800D01*
D57*
X268872500Y-150088000D02*
X270053400Y-150088000D01*
D58*
X268910000Y-143865000D02*
X270103000Y-143865000D01*
X264972800Y-141757400D02*
X263569600Y-141757400D01*
X268910000Y-141833000D02*
X270103000Y-141833000D01*
X263560000Y-136567000D02*
X265091000Y-136567000D01*
X265140600Y-139817000D02*
X263560000Y-139817000D01*
X255960000Y-128138800D02*
X255960000Y-129042000D01*
X266200000Y-152328575D02*
X266200000Y-153601800D01*
X259800000Y-153551800D02*
X259816600Y-153568400D01*
X270104200Y-145897000D02*
X270129000Y-145872200D01*
X261865000Y-129467000D02*
X261865000Y-131182000D01*
D57*
X256413000Y-150418800D02*
X256387600Y-150393400D01*
D58*
X268910000Y-145897000D02*
X270104200Y-145897000D01*
X261865000Y-131182000D02*
X261874000Y-131191000D01*
X265091000Y-136567000D02*
X265201400Y-136677400D01*
X268910000Y-139833000D02*
X270072200Y-139833000D01*
X257962800Y-139167000D02*
X257987800Y-139192000D01*
X256360000Y-139167000D02*
X257962800Y-139167000D01*
%TO.N,Net-(U1-COMP)*%
X290474400Y-100711000D02*
X290779200Y-101015800D01*
X289117000Y-100711000D02*
X290474400Y-100711000D01*
X290779200Y-103378000D02*
X291658000Y-104256800D01*
X290002000Y-105410000D02*
X291658000Y-105410000D01*
X290779200Y-101015800D02*
X290779200Y-103378000D01*
X291658000Y-104256800D02*
X291658000Y-105410000D01*
D60*
%TO.N,/V_BAT*%
X285727500Y-137162900D02*
X290322000Y-141757400D01*
X280852500Y-137714100D02*
X278231600Y-140335000D01*
X285727500Y-142059300D02*
X285727500Y-136784000D01*
X285727500Y-136784000D02*
X285727500Y-137162900D01*
X280852500Y-136784000D02*
X280852500Y-137714100D01*
X282342600Y-143099800D02*
X280852500Y-141609700D01*
X283290000Y-143099800D02*
X282342600Y-143099800D01*
X278231600Y-140335000D02*
X278231600Y-141960600D01*
X283290000Y-133734000D02*
X283290000Y-143099800D01*
X283290000Y-143099800D02*
X284687000Y-143099800D01*
X284687000Y-143099800D02*
X285727500Y-142059300D01*
X280852500Y-141609700D02*
X280852500Y-136784000D01*
D58*
%TO.N,/Power Supply/SW*%
X300017500Y-89154000D02*
X300017500Y-88232300D01*
X300017500Y-89154000D02*
X300017500Y-90126500D01*
X300017500Y-89154000D02*
X300017500Y-88246900D01*
X300017545Y-89153955D02*
X300017545Y-89153910D01*
X300017498Y-89153998D02*
X300017498Y-89153996D01*
X300017500Y-89154000D02*
X300017498Y-89153998D01*
X300017500Y-89154000D02*
X300017545Y-89153955D01*
%TO.N,Net-(C8-Pad2)*%
X286408500Y-105410000D02*
X288102000Y-105410000D01*
%TO.N,/~{REC}*%
X236474000Y-154289700D02*
X236474000Y-148590000D01*
X240500000Y-103700000D02*
X240500000Y-144564000D01*
X234478000Y-156285700D02*
X236474000Y-154289700D01*
X236474000Y-148590000D02*
X240500000Y-144564000D01*
%TO.N,/UART2_TXD*%
X244500000Y-97079200D02*
X244500000Y-99450000D01*
X249428000Y-102362000D02*
X249428000Y-97332800D01*
X259325000Y-124517000D02*
X259325000Y-112259000D01*
X248081800Y-95986600D02*
X245592600Y-95986600D01*
X259325000Y-112259000D02*
X249428000Y-102362000D01*
X249428000Y-97332800D02*
X248081800Y-95986600D01*
X245592600Y-95986600D02*
X244500000Y-97079200D01*
%TO.N,/~{SYS_RESET}*%
X243586000Y-155448000D02*
X244423700Y-156285700D01*
X242500000Y-103700000D02*
X242500000Y-144456000D01*
X243586000Y-145542000D02*
X243586000Y-155448000D01*
X242500000Y-144456000D02*
X243586000Y-145542000D01*
X244423700Y-156285700D02*
X247178000Y-156285700D01*
%TO.N,/UART2_RXD*%
X260595000Y-124517000D02*
X260595000Y-112644196D01*
X242500000Y-96996400D02*
X242500000Y-99450000D01*
X250190000Y-102239196D02*
X250190000Y-97231200D01*
X250190000Y-97231200D02*
X248363756Y-95404956D01*
X260595000Y-112644196D02*
X250190000Y-102239196D01*
X248363756Y-95404956D02*
X244091444Y-95404956D01*
X244091444Y-95404956D02*
X242500000Y-96996400D01*
%TO.N,Net-(U1-FB)*%
X283182700Y-99288600D02*
X283182700Y-100607500D01*
D62*
X284837500Y-101093900D02*
X285743600Y-102000000D01*
X284708600Y-101093900D02*
X284837500Y-101093900D01*
X285743600Y-102000000D02*
X289098000Y-102000000D01*
X289098000Y-102000000D02*
X289117000Y-101981000D01*
D58*
X283669100Y-101093900D02*
X284708600Y-101093900D01*
X283182700Y-100607500D02*
X283669100Y-101093900D01*
D62*
%TO.N,Net-(U1-FA{slash}SD)*%
X298321060Y-100560540D02*
X298450000Y-100560540D01*
X295598840Y-101466640D02*
X297414960Y-101466640D01*
X294067000Y-100711000D02*
X294843200Y-100711000D01*
X294843200Y-100711000D02*
X295598840Y-101466640D01*
X297414960Y-101466640D02*
X298321060Y-100560540D01*
D58*
%TO.N,/Power Supply/Q_S*%
X288239200Y-97231200D02*
X288239200Y-95707200D01*
X288696400Y-95250000D02*
X289728500Y-95250000D01*
X285369000Y-97713800D02*
X287756600Y-97713800D01*
X284915600Y-98167200D02*
X285369000Y-97713800D01*
X287756600Y-97713800D02*
X288239200Y-97231200D01*
X284915600Y-99288600D02*
X284915600Y-98167200D01*
X288239200Y-95707200D02*
X288696400Y-95250000D01*
%TO.N,3V3_USB*%
X258876800Y-147066000D02*
X258445000Y-146634200D01*
X258191000Y-144729200D02*
X255397000Y-144729200D01*
X262304000Y-142417000D02*
X261341600Y-143379400D01*
X255955800Y-130946200D02*
X255960000Y-130942000D01*
X255955800Y-132105400D02*
X257200400Y-132105400D01*
X266040200Y-141833000D02*
X267010000Y-141833000D01*
X255955800Y-132588000D02*
X255955800Y-132105400D01*
X258445000Y-144983200D02*
X258191000Y-144729200D01*
X258055000Y-131250800D02*
X258055000Y-129467000D01*
X254152400Y-143484600D02*
X254152400Y-134391400D01*
X263560000Y-142417000D02*
X262304000Y-142417000D01*
X263560000Y-142417000D02*
X265456200Y-142417000D01*
X255955800Y-132105400D02*
X255955800Y-130946200D01*
X257200400Y-132105400D02*
X258055000Y-131250800D01*
X260629400Y-147066000D02*
X258876800Y-147066000D01*
X258445000Y-146634200D02*
X258445000Y-144983200D01*
X261341600Y-146353800D02*
X260629400Y-147066000D01*
X261341600Y-143379400D02*
X261341600Y-146353800D01*
X254152400Y-134391400D02*
X255955800Y-132588000D01*
X265456200Y-142417000D02*
X266040200Y-141833000D01*
X255397000Y-144729200D02*
X254152400Y-143484600D01*
%TO.N,/3V3*%
X257978800Y-121742200D02*
X258055000Y-121666000D01*
X258055000Y-118609000D02*
X246500000Y-107054000D01*
X258055000Y-118609000D02*
X258055000Y-121666000D01*
X246500000Y-107054000D02*
X246500000Y-103700000D01*
X255960000Y-123042000D02*
X255960000Y-122144400D01*
X258055000Y-121666000D02*
X258055000Y-124517000D01*
X255960000Y-122144400D02*
X256362200Y-121742200D01*
X256362200Y-121742200D02*
X257978800Y-121742200D01*
%TO.N,/PC_LED-*%
X274066000Y-144206402D02*
X272619200Y-142759602D01*
X268224000Y-133538402D02*
X268224000Y-125730000D01*
X236804200Y-103047800D02*
X237456400Y-103700000D01*
X251714000Y-102108000D02*
X251714000Y-96824800D01*
X264922000Y-122428000D02*
X264922000Y-115316000D01*
X251714000Y-96824800D02*
X249130868Y-94241668D01*
X249130868Y-94241668D02*
X240393564Y-94241668D01*
X240393564Y-94241668D02*
X236804200Y-97831032D01*
X268224000Y-125730000D02*
X264922000Y-122428000D01*
X275770000Y-154165000D02*
X274066000Y-152461000D01*
X264922000Y-115316000D02*
X251714000Y-102108000D01*
X237456400Y-103700000D02*
X238500000Y-103700000D01*
X236804200Y-97831032D02*
X236804200Y-103047800D01*
X272619200Y-142759602D02*
X272619200Y-137933602D01*
X272619200Y-137933602D02*
X268224000Y-133538402D01*
X274066000Y-152461000D02*
X274066000Y-144206402D01*
%TO.N,/PC_LED+*%
X267638800Y-126160800D02*
X264336800Y-122858800D01*
X272034000Y-143002000D02*
X272034000Y-138176000D01*
X248823512Y-94823312D02*
X240634488Y-94823312D01*
X240634488Y-94823312D02*
X238500000Y-96957800D01*
X250952000Y-96951800D02*
X248823512Y-94823312D01*
X238500000Y-96957800D02*
X238500000Y-99450000D01*
X273230000Y-154165000D02*
X273230000Y-144198000D01*
X264336800Y-122858800D02*
X264336800Y-115558398D01*
X272034000Y-138176000D02*
X267638800Y-133780800D01*
X267638800Y-133780800D02*
X267638800Y-126160800D01*
X273230000Y-144198000D02*
X272034000Y-143002000D01*
X250952000Y-102173598D02*
X250952000Y-96951800D01*
X264336800Y-115558398D02*
X250952000Y-102173598D01*
%TO.N,GND1*%
X244500000Y-103700000D02*
X244500000Y-105790600D01*
X255960000Y-124942000D02*
X255960000Y-126064400D01*
X261865000Y-126254400D02*
X261865000Y-124517000D01*
X246500000Y-99450000D02*
X246500000Y-97416000D01*
X240500000Y-99450000D02*
X240500000Y-97421800D01*
X240500000Y-97421800D02*
X240461800Y-97383600D01*
X246500000Y-97416000D02*
X246507000Y-97409000D01*
X244500000Y-105790600D02*
X244525800Y-105816400D01*
X255960000Y-126064400D02*
X255981200Y-126085600D01*
%TO.N,Net-(C17-Pad1)*%
X281112000Y-147320000D02*
X282937500Y-147320000D01*
%TO.N,Net-(U3-VCC)*%
X265691664Y-140164864D02*
X265389527Y-140467000D01*
X260451600Y-145973800D02*
X259532900Y-145973800D01*
X260756400Y-140472000D02*
X260756400Y-145669000D01*
X261188200Y-140467000D02*
X260761400Y-140467000D01*
X265389527Y-140467000D02*
X263560000Y-140467000D01*
X263560000Y-140467000D02*
X261188200Y-140467000D01*
X260761400Y-140441600D02*
X257536800Y-137217000D01*
X260756400Y-145669000D02*
X260451600Y-145973800D01*
X257536800Y-137217000D02*
X256360000Y-137217000D01*
X267010000Y-139833000D02*
X266023527Y-139833000D01*
X260761400Y-140467000D02*
X260756400Y-140472000D01*
X266023527Y-139833000D02*
X265691664Y-140164864D01*
X260761400Y-140467000D02*
X260761400Y-140441600D01*
D57*
%TO.N,Net-(U3-USBD-)*%
X263250000Y-151333200D02*
X263250000Y-152328575D01*
X262255000Y-144068800D02*
X262892200Y-144706000D01*
X262577101Y-151333200D02*
X262577101Y-151290499D01*
X262250000Y-151660301D02*
X262250000Y-152328575D01*
X265708800Y-143865000D02*
X267010000Y-143865000D01*
X262892200Y-150975400D02*
X263250000Y-151333200D01*
X262255000Y-143243000D02*
X262255000Y-144068800D01*
X262577101Y-151333200D02*
X262250000Y-151660301D01*
X264910800Y-143067000D02*
X265708800Y-143865000D01*
X262577101Y-151290499D02*
X262892200Y-150975400D01*
X263560000Y-143067000D02*
X262431000Y-143067000D01*
X263560000Y-143067000D02*
X264910800Y-143067000D01*
X262892200Y-144706000D02*
X262892200Y-150975400D01*
X262431000Y-143067000D02*
X262255000Y-143243000D01*
%TO.N,Net-(U3-USBD+)*%
X262750000Y-152945800D02*
X262750000Y-152328575D01*
X263550400Y-153365200D02*
X263017000Y-153365200D01*
X267010000Y-145897000D02*
X263376400Y-145897000D01*
X262768800Y-152964600D02*
X262750000Y-152945800D01*
X263750000Y-152328575D02*
X263750000Y-150126993D01*
X263560000Y-144389400D02*
X263560000Y-143717000D01*
X263750000Y-150126993D02*
X263350400Y-149727393D01*
X263750000Y-153165600D02*
X263550400Y-153365200D01*
X263376400Y-145897000D02*
X263350400Y-145923000D01*
X263350400Y-149727393D02*
X263350400Y-145923000D01*
X263750000Y-152328575D02*
X263750000Y-153165600D01*
X263350400Y-144599000D02*
X263560000Y-144389400D01*
X263350400Y-145923000D02*
X263350400Y-144599000D01*
X262768800Y-153117000D02*
X262768800Y-152964600D01*
X263017000Y-153365200D02*
X262768800Y-153117000D01*
D58*
%TO.N,Net-(C18-Pad1)*%
X260600000Y-153218873D02*
X260617700Y-153236573D01*
X257098800Y-154508200D02*
X255498600Y-152908000D01*
X260600000Y-152328575D02*
X260600000Y-153218873D01*
X260617700Y-153236573D02*
X260617700Y-153900227D01*
X260600000Y-154055000D02*
X260146800Y-154508200D01*
X260600000Y-153949400D02*
X260600000Y-154055000D01*
X260617700Y-153900227D02*
X260600000Y-153917927D01*
X255498600Y-146710400D02*
X256235200Y-145973800D01*
X256235200Y-145973800D02*
X257407900Y-145973800D01*
X260146800Y-154508200D02*
X257098800Y-154508200D01*
X261330527Y-153949400D02*
X264693400Y-153949400D01*
X255498600Y-152908000D02*
X255498600Y-146710400D01*
X260600000Y-153949400D02*
X261330527Y-153949400D01*
X265400000Y-152328575D02*
X265400000Y-153242800D01*
X265400000Y-153242800D02*
X264693400Y-153949400D01*
X257520400Y-148386800D02*
X255498600Y-148386800D01*
X260600000Y-153917927D02*
X260600000Y-153949400D01*
%TO.N,Net-(D2-K)*%
X284629400Y-121288000D02*
X284226000Y-121691400D01*
X284660800Y-125352000D02*
X285540500Y-125352000D01*
X284226000Y-121691400D02*
X284226000Y-123317000D01*
X282773000Y-123320000D02*
X284223000Y-123320000D01*
X284223000Y-123320000D02*
X284226000Y-123317000D01*
X285540500Y-121288000D02*
X284629400Y-121288000D01*
X284226000Y-124917200D02*
X284660800Y-125352000D01*
X284226000Y-123317000D02*
X284226000Y-124917200D01*
D57*
%TO.N,Net-(J4-CC1)*%
X261750000Y-152328575D02*
X261750000Y-151387000D01*
X260781800Y-150418800D02*
X259382900Y-150418800D01*
X261750000Y-151387000D02*
X260781800Y-150418800D01*
%TO.N,Net-(J4-CC2)*%
X264750000Y-151200400D02*
X264750000Y-152328575D01*
X264750000Y-151200400D02*
X265862400Y-150088000D01*
X265862400Y-150088000D02*
X267047500Y-150088000D01*
D59*
%TO.N,Net-(Q1-G)*%
X291195000Y-99110009D02*
X291195000Y-97932000D01*
X294067000Y-101981000D02*
X292735000Y-101981000D01*
X292520222Y-101766222D02*
X292520222Y-100435231D01*
X292735000Y-101981000D02*
X292520222Y-101766222D01*
X292520222Y-100435231D02*
X291195000Y-99110009D01*
D58*
%TO.N,Net-(U2-OUT_{A})*%
X259325000Y-129467000D02*
X259325000Y-132698600D01*
X258622800Y-133400800D02*
X256387600Y-133400800D01*
X259325000Y-132698600D02*
X258622800Y-133400800D01*
X254889000Y-134899400D02*
X254889000Y-137635400D01*
X255120600Y-137867000D02*
X256360000Y-137867000D01*
X256387600Y-133400800D02*
X254889000Y-134899400D01*
X254889000Y-137635400D02*
X255120600Y-137867000D01*
%TO.N,Net-(U2-IN_{B})*%
X260595000Y-133181200D02*
X260595000Y-129467000D01*
X256360000Y-135267000D02*
X258509200Y-135267000D01*
X258509200Y-135267000D02*
X260595000Y-133181200D01*
%TO.N,Net-(D3-A)*%
X296955500Y-119510000D02*
X292681200Y-119510000D01*
X293471600Y-124993400D02*
X293471600Y-122783600D01*
X292301000Y-125352000D02*
X293113000Y-125352000D01*
X292681200Y-119510000D02*
X291846000Y-120345200D01*
X291846000Y-120345200D02*
X291846000Y-122296500D01*
X293113000Y-125352000D02*
X293471600Y-124993400D01*
X290756800Y-119256000D02*
X291846000Y-120345200D01*
X292992000Y-122304000D02*
X291838500Y-122304000D01*
X291846000Y-122296500D02*
X291838500Y-122304000D01*
X293471600Y-122783600D02*
X292992000Y-122304000D01*
X287365500Y-119256000D02*
X290756800Y-119256000D01*
%TO.N,Net-(D4-A)*%
X300482000Y-136906000D02*
X301244000Y-136144000D01*
X298704000Y-135388000D02*
X298704000Y-136906000D01*
X296926000Y-136906000D02*
X298704000Y-136906000D01*
X293565000Y-136274000D02*
X296294000Y-136274000D01*
X298704000Y-136906000D02*
X300482000Y-136906000D01*
X301244000Y-136144000D02*
X301244000Y-134900500D01*
X296294000Y-136274000D02*
X296926000Y-136906000D01*
%TO.N,Net-(D7-KA)*%
X279230000Y-154165000D02*
X279230000Y-151403500D01*
X279230000Y-151403500D02*
X279249500Y-151384000D01*
%TO.N,Net-(Q3-B)*%
X288293000Y-121288000D02*
X288359000Y-121354000D01*
X287365500Y-121288000D02*
X288293000Y-121288000D01*
X288359000Y-121354000D02*
X289963500Y-121354000D01*
%TO.N,/Power Supply/V_P*%
X288417000Y-123698000D02*
X288417000Y-125352000D01*
X293497000Y-131126000D02*
X293565000Y-131194000D01*
X293497000Y-129794000D02*
X293497000Y-131126000D01*
X290830000Y-127127000D02*
X293497000Y-129794000D01*
X298704000Y-132588000D02*
X298704000Y-130810000D01*
X288417000Y-125352000D02*
X288417000Y-126238000D01*
X288861000Y-123254000D02*
X288417000Y-123698000D01*
X288417000Y-125352000D02*
X289501000Y-125352000D01*
X294005000Y-128651000D02*
X293565000Y-129091000D01*
X289963500Y-123254000D02*
X288861000Y-123254000D01*
X293565000Y-129091000D02*
X293565000Y-131194000D01*
X296545000Y-128651000D02*
X294005000Y-128651000D01*
X298704000Y-130810000D02*
X296545000Y-128651000D01*
X287365500Y-125352000D02*
X288417000Y-125352000D01*
X289306000Y-127127000D02*
X290830000Y-127127000D01*
X288417000Y-126238000D02*
X289306000Y-127127000D01*
%TD*%
%TA.AperFunction,Conductor*%
%TO.N,/Power Supply/V_IN*%
G36*
X315988951Y-85363685D02*
G01*
X316034706Y-85416489D01*
X316041687Y-85435906D01*
X316073132Y-85553263D01*
X316073135Y-85553271D01*
X316227258Y-85976719D01*
X316227261Y-85976726D01*
X316227262Y-85976728D01*
X316417695Y-86385115D01*
X316417703Y-86385130D01*
X316643007Y-86775367D01*
X316643016Y-86775382D01*
X316901484Y-87144512D01*
X317122419Y-87407811D01*
X317191136Y-87489704D01*
X317509776Y-87808344D01*
X317632615Y-87911418D01*
X317854967Y-88097995D01*
X317854973Y-88097999D01*
X317854974Y-88098000D01*
X318224104Y-88356468D01*
X318589850Y-88567631D01*
X318614349Y-88581776D01*
X318614364Y-88581784D01*
X318795869Y-88666420D01*
X319022761Y-88772222D01*
X319446209Y-88926345D01*
X319446215Y-88926346D01*
X319446219Y-88926348D01*
X319564751Y-88958108D01*
X319881479Y-89042975D01*
X320325258Y-89121225D01*
X320645577Y-89149249D01*
X320682408Y-89152472D01*
X320747476Y-89177925D01*
X320788455Y-89234515D01*
X320792333Y-89304277D01*
X320757879Y-89365062D01*
X320696032Y-89397569D01*
X320671600Y-89400000D01*
X320436479Y-89400000D01*
X320398161Y-89393931D01*
X320394392Y-89392706D01*
X320386491Y-89390139D01*
X320129902Y-89349500D01*
X320129897Y-89349500D01*
X319870103Y-89349500D01*
X319870098Y-89349500D01*
X319613508Y-89390139D01*
X319604153Y-89393179D01*
X319601838Y-89393931D01*
X319563521Y-89400000D01*
X318400000Y-89400000D01*
X318400000Y-90563520D01*
X318393931Y-90601837D01*
X318390140Y-90613503D01*
X318349500Y-90870097D01*
X318349500Y-91129902D01*
X318390139Y-91386487D01*
X318390140Y-91386493D01*
X318393931Y-91398162D01*
X318400000Y-91436477D01*
X318400000Y-92600000D01*
X319563521Y-92600000D01*
X319601838Y-92606068D01*
X319613507Y-92609860D01*
X319656273Y-92616633D01*
X319870098Y-92650500D01*
X319870103Y-92650500D01*
X320129902Y-92650500D01*
X320324459Y-92619685D01*
X320386493Y-92609860D01*
X320398161Y-92606068D01*
X320436479Y-92600000D01*
X321442659Y-92600000D01*
X321509698Y-92619685D01*
X321555453Y-92672489D01*
X321566659Y-92723932D01*
X321566878Y-93122206D01*
X321547230Y-93189256D01*
X321504010Y-93226747D01*
X321484484Y-93246274D01*
X321484484Y-95432142D01*
X321501223Y-95448881D01*
X321511254Y-95451827D01*
X321557009Y-95504631D01*
X321568215Y-95556074D01*
X321589046Y-133468523D01*
X321587993Y-133484715D01*
X321569612Y-133624874D01*
X321561246Y-133656155D01*
X321510335Y-133779209D01*
X321494154Y-133807259D01*
X321413123Y-133912931D01*
X321390234Y-133935832D01*
X321337419Y-133976378D01*
X321284607Y-134016922D01*
X321256567Y-134033117D01*
X321133541Y-134084096D01*
X321102263Y-134092480D01*
X320962115Y-134110938D01*
X320945924Y-134112000D01*
X305446293Y-134112000D01*
X305430073Y-134110934D01*
X305395615Y-134106387D01*
X305289661Y-134092406D01*
X305258329Y-134083991D01*
X305135113Y-134032826D01*
X305107037Y-134016572D01*
X305019250Y-133949004D01*
X305001308Y-133935195D01*
X304978412Y-133912218D01*
X304897408Y-133806198D01*
X304881257Y-133778073D01*
X304830524Y-133654666D01*
X304822223Y-133623314D01*
X304804190Y-133482817D01*
X304803183Y-133466617D01*
X304819768Y-128781561D01*
X304839690Y-128714592D01*
X304892655Y-128669024D01*
X304943767Y-128658000D01*
X311889281Y-128658000D01*
X311889284Y-128657999D01*
X312018006Y-128643496D01*
X312018010Y-128643495D01*
X312181217Y-128586387D01*
X312327627Y-128494392D01*
X312449892Y-128372127D01*
X312541887Y-128225717D01*
X312598995Y-128062510D01*
X312598996Y-128062506D01*
X312613499Y-127933784D01*
X312613500Y-127933780D01*
X312613500Y-116166219D01*
X312613499Y-116166215D01*
X312598996Y-116037493D01*
X312598995Y-116037489D01*
X312541887Y-115874282D01*
X312449892Y-115727872D01*
X312327627Y-115605607D01*
X312181217Y-115513612D01*
X312018010Y-115456504D01*
X312018006Y-115456503D01*
X311889284Y-115442000D01*
X302571715Y-115442000D01*
X302442993Y-115456503D01*
X302442989Y-115456504D01*
X302279782Y-115513612D01*
X302133372Y-115605607D01*
X302011107Y-115727872D01*
X301919112Y-115874282D01*
X301862004Y-116037489D01*
X301862003Y-116037493D01*
X301847500Y-116166215D01*
X301847500Y-119637000D01*
X301827815Y-119704039D01*
X301775011Y-119749794D01*
X301723500Y-119761000D01*
X300363126Y-119761000D01*
X300346941Y-119759939D01*
X300329102Y-119757590D01*
X300206835Y-119741493D01*
X300175568Y-119733115D01*
X300052581Y-119682172D01*
X300024548Y-119665987D01*
X299959725Y-119616248D01*
X299918936Y-119584949D01*
X299896050Y-119562063D01*
X299815012Y-119456451D01*
X299798827Y-119428418D01*
X299747884Y-119305431D01*
X299739506Y-119274163D01*
X299721061Y-119134059D01*
X299720000Y-119117874D01*
X299720000Y-113030000D01*
X299085000Y-113030000D01*
X295232326Y-113030000D01*
X295216141Y-113028939D01*
X295198302Y-113026590D01*
X295076035Y-113010493D01*
X295044768Y-113002115D01*
X294921781Y-112951172D01*
X294893748Y-112934987D01*
X294828925Y-112885248D01*
X294788136Y-112853949D01*
X294765250Y-112831063D01*
X294684212Y-112725451D01*
X294668027Y-112697418D01*
X294617084Y-112574431D01*
X294608706Y-112543163D01*
X294590261Y-112403059D01*
X294589200Y-112386874D01*
X294589200Y-111218368D01*
X308571500Y-111218368D01*
X308571500Y-111424329D01*
X308603719Y-111627757D01*
X308667367Y-111823643D01*
X308760873Y-112007155D01*
X308881926Y-112173772D01*
X308881930Y-112173777D01*
X309027571Y-112319418D01*
X309027576Y-112319422D01*
X309120417Y-112386874D01*
X309194197Y-112440478D01*
X309311128Y-112500058D01*
X309377705Y-112533981D01*
X309377707Y-112533981D01*
X309377710Y-112533983D01*
X309482707Y-112568098D01*
X309573591Y-112597629D01*
X309675305Y-112613739D01*
X309777019Y-112629849D01*
X309777020Y-112629849D01*
X309982980Y-112629849D01*
X309982981Y-112629849D01*
X310186408Y-112597629D01*
X310382290Y-112533983D01*
X310565803Y-112440478D01*
X310732430Y-112319417D01*
X310878068Y-112173779D01*
X310999129Y-112007152D01*
X311092634Y-111823639D01*
X311156280Y-111627757D01*
X311188500Y-111424330D01*
X311188500Y-111218368D01*
X311156280Y-111014941D01*
X311092634Y-110819059D01*
X311092632Y-110819056D01*
X311092632Y-110819054D01*
X311058709Y-110752477D01*
X310999129Y-110635546D01*
X310983661Y-110614257D01*
X310878073Y-110468925D01*
X310878069Y-110468920D01*
X310732428Y-110323279D01*
X310732423Y-110323275D01*
X310565806Y-110202222D01*
X310565805Y-110202221D01*
X310565803Y-110202220D01*
X310508496Y-110173020D01*
X310382294Y-110108716D01*
X310186408Y-110045068D01*
X310010794Y-110017254D01*
X309982981Y-110012849D01*
X309777019Y-110012849D01*
X309752550Y-110016724D01*
X309573591Y-110045068D01*
X309377705Y-110108716D01*
X309194193Y-110202222D01*
X309027576Y-110323275D01*
X309027571Y-110323279D01*
X308881930Y-110468920D01*
X308881926Y-110468925D01*
X308760873Y-110635542D01*
X308667367Y-110819054D01*
X308603719Y-111014940D01*
X308571500Y-111218368D01*
X294589200Y-111218368D01*
X294589200Y-108421335D01*
X308580001Y-108421335D01*
X308590494Y-108524046D01*
X308645641Y-108690468D01*
X308645643Y-108690473D01*
X308737684Y-108839694D01*
X308861654Y-108963664D01*
X309010875Y-109055705D01*
X309010880Y-109055707D01*
X309177302Y-109110854D01*
X309177309Y-109110855D01*
X309280019Y-109121348D01*
X309562499Y-109121348D01*
X310197500Y-109121348D01*
X310479972Y-109121348D01*
X310479986Y-109121347D01*
X310582697Y-109110854D01*
X310749119Y-109055707D01*
X310749124Y-109055705D01*
X310898345Y-108963664D01*
X311022315Y-108839694D01*
X311114356Y-108690473D01*
X311114358Y-108690468D01*
X311169505Y-108524046D01*
X311169506Y-108524039D01*
X311179999Y-108421335D01*
X311180000Y-108421322D01*
X311180000Y-108138849D01*
X310197500Y-108138849D01*
X310197500Y-109121348D01*
X309562499Y-109121348D01*
X309562500Y-109121347D01*
X309562500Y-108138849D01*
X308580001Y-108138849D01*
X308580001Y-108421335D01*
X294589200Y-108421335D01*
X294589200Y-107824811D01*
X294590247Y-107808728D01*
X294595485Y-107768688D01*
X309480000Y-107768688D01*
X309480000Y-107874010D01*
X309507259Y-107975743D01*
X309559920Y-108066955D01*
X309634394Y-108141429D01*
X309725606Y-108194090D01*
X309827339Y-108221349D01*
X309932661Y-108221349D01*
X310034394Y-108194090D01*
X310125606Y-108141429D01*
X310200080Y-108066955D01*
X310252741Y-107975743D01*
X310280000Y-107874010D01*
X310280000Y-107768688D01*
X310252741Y-107666955D01*
X310200080Y-107575743D01*
X310128186Y-107503849D01*
X310197500Y-107503849D01*
X311179999Y-107503849D01*
X311179999Y-107221377D01*
X311179998Y-107221362D01*
X311169505Y-107118651D01*
X311114358Y-106952229D01*
X311114356Y-106952224D01*
X311022315Y-106803003D01*
X310898345Y-106679033D01*
X310749124Y-106586992D01*
X310749119Y-106586990D01*
X310582697Y-106531843D01*
X310582690Y-106531842D01*
X310479986Y-106521349D01*
X310197500Y-106521349D01*
X310197500Y-107503849D01*
X310128186Y-107503849D01*
X310125606Y-107501269D01*
X310034394Y-107448608D01*
X309932661Y-107421349D01*
X309827339Y-107421349D01*
X309725606Y-107448608D01*
X309634394Y-107501269D01*
X309559920Y-107575743D01*
X309507259Y-107666955D01*
X309480000Y-107768688D01*
X294595485Y-107768688D01*
X294608462Y-107669478D01*
X294616734Y-107638399D01*
X294667060Y-107516044D01*
X294683044Y-107488148D01*
X294763148Y-107382856D01*
X294785771Y-107360007D01*
X294890263Y-107278862D01*
X294918002Y-107262601D01*
X295015502Y-107221362D01*
X308580000Y-107221362D01*
X308580000Y-107503849D01*
X309562500Y-107503849D01*
X309562500Y-106521349D01*
X309280029Y-106521349D01*
X309280012Y-106521350D01*
X309177302Y-106531843D01*
X309010880Y-106586990D01*
X309010875Y-106586992D01*
X308861654Y-106679033D01*
X308737684Y-106803003D01*
X308645643Y-106952224D01*
X308645641Y-106952229D01*
X308590494Y-107118651D01*
X308590493Y-107118658D01*
X308580000Y-107221362D01*
X295015502Y-107221362D01*
X295039849Y-107211064D01*
X295070842Y-107202485D01*
X295209919Y-107182887D01*
X295225961Y-107181683D01*
X297789600Y-107156250D01*
X300990000Y-107124500D01*
X300990000Y-107124499D01*
X301010059Y-107124300D01*
X301017692Y-107121430D01*
X301023688Y-107120840D01*
X301092359Y-107092395D01*
X301144918Y-107039836D01*
X301173363Y-106971165D01*
X301177023Y-106934000D01*
X301173322Y-103550329D01*
X301173097Y-103344368D01*
X303999500Y-103344368D01*
X303999500Y-103550329D01*
X304031719Y-103753757D01*
X304095367Y-103949643D01*
X304188873Y-104133155D01*
X304309926Y-104299772D01*
X304309930Y-104299777D01*
X304455571Y-104445418D01*
X304455576Y-104445422D01*
X304477497Y-104461348D01*
X304622197Y-104566478D01*
X304712053Y-104612262D01*
X304805705Y-104659981D01*
X304805707Y-104659981D01*
X304805710Y-104659983D01*
X304910707Y-104694098D01*
X305001591Y-104723629D01*
X305091455Y-104737862D01*
X305205019Y-104755849D01*
X305205020Y-104755849D01*
X305410980Y-104755849D01*
X305410981Y-104755849D01*
X305614408Y-104723629D01*
X305810290Y-104659983D01*
X305993803Y-104566478D01*
X306160430Y-104445417D01*
X306306068Y-104299779D01*
X306427129Y-104133152D01*
X306520634Y-103949639D01*
X306584280Y-103753757D01*
X306616500Y-103550330D01*
X306616500Y-103344368D01*
X313143500Y-103344368D01*
X313143500Y-103550329D01*
X313175719Y-103753757D01*
X313239367Y-103949643D01*
X313332873Y-104133155D01*
X313453926Y-104299772D01*
X313453930Y-104299777D01*
X313599571Y-104445418D01*
X313599576Y-104445422D01*
X313621497Y-104461348D01*
X313766197Y-104566478D01*
X313856053Y-104612262D01*
X313949705Y-104659981D01*
X313949707Y-104659981D01*
X313949710Y-104659983D01*
X314054707Y-104694098D01*
X314145591Y-104723629D01*
X314235455Y-104737862D01*
X314349019Y-104755849D01*
X314349020Y-104755849D01*
X314554980Y-104755849D01*
X314554981Y-104755849D01*
X314758408Y-104723629D01*
X314954290Y-104659983D01*
X315137803Y-104566478D01*
X315304430Y-104445417D01*
X315450068Y-104299779D01*
X315571129Y-104133152D01*
X315664634Y-103949639D01*
X315728280Y-103753757D01*
X315760500Y-103550330D01*
X315760500Y-103344368D01*
X315728280Y-103140941D01*
X315664634Y-102945059D01*
X315664632Y-102945056D01*
X315664632Y-102945054D01*
X315630709Y-102878477D01*
X315571129Y-102761546D01*
X315555661Y-102740257D01*
X315450073Y-102594925D01*
X315450069Y-102594920D01*
X315304428Y-102449279D01*
X315304423Y-102449275D01*
X315137806Y-102328222D01*
X315137805Y-102328221D01*
X315137803Y-102328220D01*
X315080496Y-102299020D01*
X314954294Y-102234716D01*
X314758408Y-102171068D01*
X314582794Y-102143254D01*
X314554981Y-102138849D01*
X314349019Y-102138849D01*
X314324550Y-102142724D01*
X314145591Y-102171068D01*
X313949705Y-102234716D01*
X313766193Y-102328222D01*
X313599576Y-102449275D01*
X313599571Y-102449279D01*
X313453930Y-102594920D01*
X313453926Y-102594925D01*
X313332873Y-102761542D01*
X313239367Y-102945054D01*
X313175719Y-103140940D01*
X313143500Y-103344368D01*
X306616500Y-103344368D01*
X306584280Y-103140941D01*
X306520634Y-102945059D01*
X306520632Y-102945056D01*
X306520632Y-102945054D01*
X306486709Y-102878477D01*
X306427129Y-102761546D01*
X306411661Y-102740257D01*
X306306073Y-102594925D01*
X306306069Y-102594920D01*
X306160428Y-102449279D01*
X306160423Y-102449275D01*
X305993806Y-102328222D01*
X305993805Y-102328221D01*
X305993803Y-102328220D01*
X305936496Y-102299020D01*
X305810294Y-102234716D01*
X305614408Y-102171068D01*
X305438794Y-102143254D01*
X305410981Y-102138849D01*
X305205019Y-102138849D01*
X305180550Y-102142724D01*
X305001591Y-102171068D01*
X304805705Y-102234716D01*
X304622193Y-102328222D01*
X304455576Y-102449275D01*
X304455571Y-102449279D01*
X304309930Y-102594920D01*
X304309926Y-102594925D01*
X304188873Y-102761542D01*
X304095367Y-102945054D01*
X304031719Y-103140940D01*
X303999500Y-103344368D01*
X301173097Y-103344368D01*
X301173092Y-103339632D01*
X301170038Y-100547335D01*
X304008001Y-100547335D01*
X304018494Y-100650046D01*
X304073641Y-100816468D01*
X304073643Y-100816473D01*
X304165684Y-100965694D01*
X304289654Y-101089664D01*
X304438875Y-101181705D01*
X304438880Y-101181707D01*
X304605302Y-101236854D01*
X304605309Y-101236855D01*
X304708019Y-101247348D01*
X304990499Y-101247348D01*
X305625500Y-101247348D01*
X305907972Y-101247348D01*
X305907986Y-101247347D01*
X306010697Y-101236854D01*
X306177119Y-101181707D01*
X306177124Y-101181705D01*
X306326345Y-101089664D01*
X306450315Y-100965694D01*
X306542356Y-100816473D01*
X306542358Y-100816468D01*
X306597505Y-100650046D01*
X306597506Y-100650039D01*
X306607999Y-100547335D01*
X313152001Y-100547335D01*
X313162494Y-100650046D01*
X313217641Y-100816468D01*
X313217643Y-100816473D01*
X313309684Y-100965694D01*
X313433654Y-101089664D01*
X313582875Y-101181705D01*
X313582880Y-101181707D01*
X313749302Y-101236854D01*
X313749309Y-101236855D01*
X313852019Y-101247348D01*
X314134499Y-101247348D01*
X314769500Y-101247348D01*
X315051972Y-101247348D01*
X315051986Y-101247347D01*
X315154697Y-101236854D01*
X315321119Y-101181707D01*
X315321124Y-101181705D01*
X315470345Y-101089664D01*
X315594315Y-100965694D01*
X315686356Y-100816473D01*
X315686358Y-100816468D01*
X315741505Y-100650046D01*
X315741506Y-100650039D01*
X315751999Y-100547335D01*
X315752000Y-100547322D01*
X315752000Y-100264849D01*
X314769500Y-100264849D01*
X314769500Y-101247348D01*
X314134499Y-101247348D01*
X314134500Y-101247347D01*
X314134500Y-100264849D01*
X313152001Y-100264849D01*
X313152001Y-100547335D01*
X306607999Y-100547335D01*
X306608000Y-100547322D01*
X306608000Y-100264849D01*
X305625500Y-100264849D01*
X305625500Y-101247348D01*
X304990499Y-101247348D01*
X304990500Y-101247347D01*
X304990500Y-100264849D01*
X304008001Y-100264849D01*
X304008001Y-100547335D01*
X301170038Y-100547335D01*
X301169673Y-100213623D01*
X301169324Y-99894688D01*
X304908000Y-99894688D01*
X304908000Y-100000010D01*
X304935259Y-100101743D01*
X304987920Y-100192955D01*
X305062394Y-100267429D01*
X305153606Y-100320090D01*
X305255339Y-100347349D01*
X305360661Y-100347349D01*
X305462394Y-100320090D01*
X305553606Y-100267429D01*
X305628080Y-100192955D01*
X305680741Y-100101743D01*
X305708000Y-100000010D01*
X305708000Y-99894688D01*
X314052000Y-99894688D01*
X314052000Y-100000010D01*
X314079259Y-100101743D01*
X314131920Y-100192955D01*
X314206394Y-100267429D01*
X314297606Y-100320090D01*
X314399339Y-100347349D01*
X314504661Y-100347349D01*
X314606394Y-100320090D01*
X314697606Y-100267429D01*
X314772080Y-100192955D01*
X314824741Y-100101743D01*
X314852000Y-100000010D01*
X314852000Y-99894688D01*
X314824741Y-99792955D01*
X314772080Y-99701743D01*
X314700186Y-99629849D01*
X314769500Y-99629849D01*
X315751999Y-99629849D01*
X315751999Y-99347377D01*
X315751998Y-99347362D01*
X315741505Y-99244651D01*
X315686358Y-99078229D01*
X315686356Y-99078224D01*
X315594315Y-98929003D01*
X315470345Y-98805033D01*
X315321124Y-98712992D01*
X315321119Y-98712990D01*
X315154697Y-98657843D01*
X315154690Y-98657842D01*
X315051986Y-98647349D01*
X314769500Y-98647349D01*
X314769500Y-99629849D01*
X314700186Y-99629849D01*
X314697606Y-99627269D01*
X314606394Y-99574608D01*
X314504661Y-99547349D01*
X314399339Y-99547349D01*
X314297606Y-99574608D01*
X314206394Y-99627269D01*
X314131920Y-99701743D01*
X314079259Y-99792955D01*
X314052000Y-99894688D01*
X305708000Y-99894688D01*
X305680741Y-99792955D01*
X305628080Y-99701743D01*
X305556186Y-99629849D01*
X305625500Y-99629849D01*
X306607999Y-99629849D01*
X306607999Y-99347378D01*
X306607998Y-99347362D01*
X313152000Y-99347362D01*
X313152000Y-99629849D01*
X314134500Y-99629849D01*
X314134500Y-98647349D01*
X313852029Y-98647349D01*
X313852012Y-98647350D01*
X313749302Y-98657843D01*
X313582880Y-98712990D01*
X313582875Y-98712992D01*
X313433654Y-98805033D01*
X313309684Y-98929003D01*
X313217643Y-99078224D01*
X313217641Y-99078229D01*
X313162494Y-99244651D01*
X313162493Y-99244658D01*
X313152000Y-99347362D01*
X306607998Y-99347362D01*
X306607998Y-99347361D01*
X306597505Y-99244651D01*
X306542358Y-99078229D01*
X306542356Y-99078224D01*
X306450315Y-98929003D01*
X306326345Y-98805033D01*
X306177124Y-98712992D01*
X306177119Y-98712990D01*
X306010697Y-98657843D01*
X306010690Y-98657842D01*
X305907986Y-98647349D01*
X305625500Y-98647349D01*
X305625500Y-99629849D01*
X305556186Y-99629849D01*
X305553606Y-99627269D01*
X305462394Y-99574608D01*
X305360661Y-99547349D01*
X305255339Y-99547349D01*
X305153606Y-99574608D01*
X305062394Y-99627269D01*
X304987920Y-99701743D01*
X304935259Y-99792955D01*
X304908000Y-99894688D01*
X301169324Y-99894688D01*
X301168725Y-99347362D01*
X304008000Y-99347362D01*
X304008000Y-99629849D01*
X304990500Y-99629849D01*
X304990500Y-98647349D01*
X304708029Y-98647349D01*
X304708012Y-98647350D01*
X304605302Y-98657843D01*
X304438880Y-98712990D01*
X304438875Y-98712992D01*
X304289654Y-98805033D01*
X304165684Y-98929003D01*
X304073643Y-99078224D01*
X304073641Y-99078229D01*
X304018494Y-99244651D01*
X304018493Y-99244658D01*
X304008000Y-99347362D01*
X301168725Y-99347362D01*
X301168722Y-99344349D01*
X301167800Y-98501200D01*
X301114000Y-98501200D01*
X301105314Y-98498649D01*
X301096353Y-98499938D01*
X301072312Y-98488959D01*
X301046961Y-98481515D01*
X301041033Y-98474674D01*
X301032797Y-98470913D01*
X301018507Y-98448678D01*
X301001206Y-98428711D01*
X300998918Y-98418196D01*
X300995023Y-98412135D01*
X300990000Y-98377200D01*
X300990000Y-98175508D01*
X300990160Y-98169202D01*
X300992964Y-98114138D01*
X300994246Y-98101590D01*
X300996006Y-98090142D01*
X301002630Y-98047093D01*
X301003734Y-98040953D01*
X301349645Y-96364936D01*
X301382474Y-96303259D01*
X301443437Y-96269122D01*
X301471086Y-96266000D01*
X302457500Y-96266000D01*
X302524539Y-96285685D01*
X302570294Y-96338489D01*
X302581500Y-96390000D01*
X302581500Y-96517654D01*
X302588011Y-96578202D01*
X302588011Y-96578204D01*
X302639111Y-96715204D01*
X302726739Y-96832261D01*
X302843796Y-96919889D01*
X302980799Y-96970989D01*
X303008050Y-96973918D01*
X303041345Y-96977499D01*
X303041362Y-96977500D01*
X308348638Y-96977500D01*
X308348654Y-96977499D01*
X308375692Y-96974591D01*
X308409201Y-96970989D01*
X308546204Y-96919889D01*
X308663261Y-96832261D01*
X308750889Y-96715204D01*
X308801989Y-96578201D01*
X308805591Y-96544692D01*
X308808499Y-96517654D01*
X308808500Y-96517637D01*
X308808500Y-96390000D01*
X308828185Y-96322961D01*
X308880989Y-96277206D01*
X308932500Y-96266000D01*
X312807000Y-96266000D01*
X312807000Y-91948000D01*
X309629000Y-91948000D01*
X309561961Y-91928315D01*
X309516206Y-91875511D01*
X309505000Y-91824000D01*
X309505000Y-86484000D01*
X309524685Y-86416961D01*
X309577489Y-86371206D01*
X309629000Y-86360000D01*
X312807000Y-86360000D01*
X312807000Y-85468000D01*
X312826685Y-85400961D01*
X312879489Y-85355206D01*
X312931000Y-85344000D01*
X315921912Y-85344000D01*
X315988951Y-85363685D01*
G37*
%TD.AperFunction*%
%TD*%
%TA.AperFunction,Conductor*%
%TO.N,/V_BAT*%
G36*
X289259202Y-132914977D02*
G01*
X289296976Y-132973755D01*
X289301932Y-133004629D01*
X289302414Y-133019360D01*
X289302416Y-133019387D01*
X289303477Y-133035572D01*
X289309214Y-133093814D01*
X289327659Y-133233918D01*
X289345893Y-133325592D01*
X289350484Y-133348672D01*
X289358857Y-133379925D01*
X289358867Y-133379956D01*
X289396469Y-133490730D01*
X289396477Y-133490750D01*
X289447421Y-133613739D01*
X289499167Y-133718669D01*
X289509861Y-133737190D01*
X289515354Y-133746704D01*
X289539101Y-133782245D01*
X289559980Y-133848920D01*
X289560000Y-133851135D01*
X289560000Y-139446000D01*
X289559999Y-139446000D01*
X298069000Y-139573000D01*
X305944441Y-139690544D01*
X305960430Y-139691821D01*
X306098967Y-139711992D01*
X306129831Y-139720675D01*
X306251089Y-139772499D01*
X306278697Y-139788807D01*
X306382611Y-139869990D01*
X306405114Y-139892832D01*
X306484736Y-139997944D01*
X306500630Y-140025792D01*
X306550638Y-140147808D01*
X306558860Y-140178801D01*
X306576959Y-140317609D01*
X306578000Y-140333641D01*
X306578000Y-147751655D01*
X306558315Y-147818694D01*
X306505511Y-147864449D01*
X306436353Y-147874393D01*
X306372797Y-147845368D01*
X306353682Y-147824541D01*
X306345385Y-147813122D01*
X306296457Y-147745778D01*
X306152222Y-147601543D01*
X305987200Y-147481647D01*
X305805453Y-147389043D01*
X305805450Y-147389041D01*
X305655332Y-147340265D01*
X305611457Y-147326010D01*
X305611455Y-147326009D01*
X305611453Y-147326009D01*
X305590485Y-147322688D01*
X305527351Y-147292758D01*
X305496452Y-147250305D01*
X305421758Y-147081139D01*
X305302412Y-146906915D01*
X305153085Y-146757588D01*
X304978861Y-146638242D01*
X304785675Y-146552942D01*
X304785673Y-146552941D01*
X304785672Y-146552941D01*
X304785666Y-146552939D01*
X304580114Y-146504593D01*
X304580098Y-146504591D01*
X304492340Y-146498500D01*
X304492336Y-146498500D01*
X304372819Y-146498500D01*
X304305780Y-146478815D01*
X304260025Y-146426011D01*
X304254888Y-146412818D01*
X304222958Y-146314549D01*
X304222240Y-146313139D01*
X304130353Y-146132800D01*
X304010457Y-145967778D01*
X303866222Y-145823543D01*
X303701200Y-145703647D01*
X303519453Y-145611043D01*
X303519450Y-145611041D01*
X303325459Y-145548010D01*
X303191145Y-145526736D01*
X303123990Y-145516100D01*
X302920010Y-145516100D01*
X302852854Y-145526736D01*
X302718541Y-145548010D01*
X302718538Y-145548010D01*
X302524549Y-145611041D01*
X302524546Y-145611043D01*
X302342799Y-145703647D01*
X302265321Y-145759939D01*
X302177778Y-145823543D01*
X302177776Y-145823545D01*
X302177775Y-145823545D01*
X302033545Y-145967775D01*
X302033545Y-145967776D01*
X302033543Y-145967778D01*
X301991929Y-146025055D01*
X301913647Y-146132799D01*
X301821041Y-146314549D01*
X301789112Y-146412818D01*
X301749674Y-146470494D01*
X301685316Y-146497692D01*
X301671181Y-146498500D01*
X301551660Y-146498500D01*
X301463901Y-146504591D01*
X301463885Y-146504593D01*
X301258333Y-146552939D01*
X301258327Y-146552941D01*
X301065139Y-146638242D01*
X300890916Y-146757587D01*
X300890910Y-146757592D01*
X300741592Y-146906910D01*
X300741587Y-146906916D01*
X300622241Y-147081139D01*
X300622239Y-147081143D01*
X300547548Y-147250302D01*
X300502462Y-147303678D01*
X300453514Y-147322688D01*
X300432545Y-147326009D01*
X300238549Y-147389041D01*
X300238546Y-147389043D01*
X300056799Y-147481647D01*
X299962648Y-147550052D01*
X299891778Y-147601543D01*
X299891776Y-147601545D01*
X299891775Y-147601545D01*
X299747545Y-147745775D01*
X299747545Y-147745776D01*
X299747543Y-147745778D01*
X299696052Y-147816648D01*
X299627647Y-147910799D01*
X299535043Y-148092546D01*
X299535041Y-148092549D01*
X299472010Y-148286538D01*
X299472010Y-148286541D01*
X299443832Y-148464450D01*
X299440100Y-148488010D01*
X299440100Y-148691990D01*
X299447381Y-148737959D01*
X299472010Y-148893458D01*
X299472010Y-148893461D01*
X299535041Y-149087450D01*
X299535043Y-149087453D01*
X299627647Y-149269200D01*
X299747543Y-149434222D01*
X299891778Y-149578457D01*
X300056800Y-149698353D01*
X300238547Y-149790957D01*
X300238549Y-149790958D01*
X300437177Y-149855496D01*
X300436818Y-149856598D01*
X300492680Y-149888658D01*
X300523863Y-149946069D01*
X300536938Y-150001664D01*
X300536941Y-150001672D01*
X300536941Y-150001673D01*
X300536942Y-150001675D01*
X300622242Y-150194861D01*
X300741588Y-150369085D01*
X300890915Y-150518412D01*
X301065139Y-150637758D01*
X301258325Y-150723058D01*
X301258331Y-150723059D01*
X301258333Y-150723060D01*
X301463885Y-150771406D01*
X301463890Y-150771406D01*
X301463896Y-150771408D01*
X301512656Y-150774792D01*
X301551660Y-150777500D01*
X301551664Y-150777500D01*
X301628670Y-150777500D01*
X301695709Y-150797185D01*
X301741464Y-150849989D01*
X301751143Y-150882102D01*
X301758009Y-150925453D01*
X301758009Y-150925454D01*
X301821041Y-151119450D01*
X301821043Y-151119453D01*
X301913647Y-151301200D01*
X302033543Y-151466222D01*
X302177778Y-151610457D01*
X302342800Y-151730353D01*
X302524547Y-151822957D01*
X302524549Y-151822958D01*
X302705495Y-151881750D01*
X302718543Y-151885990D01*
X302920010Y-151917900D01*
X302920011Y-151917900D01*
X303123989Y-151917900D01*
X303123990Y-151917900D01*
X303325457Y-151885990D01*
X303325460Y-151885989D01*
X303325461Y-151885989D01*
X303519450Y-151822958D01*
X303519450Y-151822957D01*
X303519453Y-151822957D01*
X303701200Y-151730353D01*
X303866222Y-151610457D01*
X304010457Y-151466222D01*
X304130353Y-151301200D01*
X304222957Y-151119453D01*
X304285990Y-150925457D01*
X304292857Y-150882101D01*
X304322786Y-150818967D01*
X304382098Y-150782036D01*
X304415330Y-150777500D01*
X304492340Y-150777500D01*
X304527443Y-150775063D01*
X304580104Y-150771408D01*
X304580110Y-150771406D01*
X304580114Y-150771406D01*
X304785666Y-150723060D01*
X304785664Y-150723060D01*
X304785675Y-150723058D01*
X304978861Y-150637758D01*
X305153085Y-150518412D01*
X305302412Y-150369085D01*
X305421758Y-150194861D01*
X305507058Y-150001675D01*
X305520136Y-149946067D01*
X305554645Y-149885318D01*
X305607148Y-149856498D01*
X305606823Y-149855496D01*
X305805450Y-149790958D01*
X305805450Y-149790957D01*
X305805453Y-149790957D01*
X305987200Y-149698353D01*
X306152222Y-149578457D01*
X306296457Y-149434222D01*
X306353683Y-149355456D01*
X306409012Y-149312793D01*
X306478626Y-149306814D01*
X306540420Y-149339420D01*
X306574778Y-149400259D01*
X306578000Y-149428344D01*
X306578000Y-158244500D01*
X306558315Y-158311539D01*
X306505511Y-158357294D01*
X306454000Y-158368500D01*
X278000000Y-158368500D01*
X277932961Y-158348815D01*
X277887206Y-158296011D01*
X277876000Y-158244500D01*
X277876000Y-156025829D01*
X277895685Y-155958790D01*
X277948489Y-155913035D01*
X278017647Y-155903091D01*
X278032089Y-155906053D01*
X278190085Y-155948388D01*
X278267742Y-155954500D01*
X278267748Y-155954500D01*
X280192252Y-155954500D01*
X280192258Y-155954500D01*
X280269915Y-155948388D01*
X280450524Y-155899994D01*
X280564427Y-155841957D01*
X280617122Y-155815109D01*
X280617123Y-155815107D01*
X280617125Y-155815107D01*
X280730678Y-155723153D01*
X280795163Y-155696262D01*
X280863952Y-155708504D01*
X280870712Y-155712133D01*
X280976818Y-155773394D01*
X280976823Y-155773396D01*
X280976826Y-155773398D01*
X281193550Y-155863168D01*
X281420137Y-155923881D01*
X281641514Y-155953026D01*
X281645805Y-155953591D01*
X281652710Y-155954500D01*
X281652717Y-155954500D01*
X281887283Y-155954500D01*
X281887290Y-155954500D01*
X282119863Y-155923881D01*
X282208724Y-155900071D01*
X289001400Y-155900071D01*
X289001400Y-156151928D01*
X289040797Y-156400669D01*
X289118619Y-156640184D01*
X289232957Y-156864583D01*
X289307148Y-156966697D01*
X289307148Y-156966698D01*
X290077612Y-156196234D01*
X290088882Y-156238292D01*
X290161290Y-156363708D01*
X290263692Y-156466110D01*
X290389108Y-156538518D01*
X290431165Y-156549787D01*
X289660700Y-157320250D01*
X289762816Y-157394442D01*
X289987215Y-157508780D01*
X290226730Y-157586602D01*
X290475472Y-157626000D01*
X290727328Y-157626000D01*
X290976069Y-157586602D01*
X291215584Y-157508780D01*
X291439975Y-157394446D01*
X291439981Y-157394442D01*
X291542097Y-157320250D01*
X291542098Y-157320250D01*
X290771634Y-156549787D01*
X290813692Y-156538518D01*
X290939108Y-156466110D01*
X291041510Y-156363708D01*
X291113918Y-156238292D01*
X291125187Y-156196234D01*
X291895650Y-156966698D01*
X291895650Y-156966697D01*
X291969842Y-156864581D01*
X291969846Y-156864575D01*
X292084180Y-156640184D01*
X292162002Y-156400669D01*
X292201400Y-156151928D01*
X292201400Y-155900074D01*
X292199098Y-155885542D01*
X292199098Y-155885540D01*
X292196669Y-155870207D01*
X293611900Y-155870207D01*
X293611900Y-156130992D01*
X293611901Y-156131008D01*
X293645939Y-156389554D01*
X293645940Y-156389559D01*
X293645941Y-156389565D01*
X293666451Y-156466110D01*
X293713439Y-156641474D01*
X293813237Y-156882409D01*
X293813244Y-156882424D01*
X293943641Y-157108278D01*
X294102403Y-157315181D01*
X294102409Y-157315188D01*
X294286811Y-157499590D01*
X294286818Y-157499596D01*
X294493721Y-157658358D01*
X294719575Y-157788755D01*
X294719590Y-157788762D01*
X294844189Y-157840372D01*
X294960524Y-157888560D01*
X295212435Y-157956059D01*
X295471001Y-157990100D01*
X295471008Y-157990100D01*
X295731792Y-157990100D01*
X295731799Y-157990100D01*
X295990365Y-157956059D01*
X296242276Y-157888560D01*
X296483221Y-157788757D01*
X296709079Y-157658358D01*
X296915983Y-157499595D01*
X297100395Y-157315183D01*
X297259158Y-157108279D01*
X297389557Y-156882421D01*
X297489360Y-156641476D01*
X297556859Y-156389565D01*
X297590900Y-156130999D01*
X297590900Y-155870201D01*
X297556859Y-155611635D01*
X297489360Y-155359724D01*
X297425236Y-155204915D01*
X297389562Y-155118790D01*
X297389555Y-155118775D01*
X297259158Y-154892921D01*
X297100396Y-154686018D01*
X297100390Y-154686011D01*
X296915988Y-154501609D01*
X296915981Y-154501603D01*
X296709078Y-154342841D01*
X296483224Y-154212444D01*
X296483209Y-154212437D01*
X296242274Y-154112639D01*
X296116320Y-154078890D01*
X295990365Y-154045141D01*
X295990359Y-154045140D01*
X295990354Y-154045139D01*
X295731808Y-154011101D01*
X295731805Y-154011100D01*
X295731799Y-154011100D01*
X295471001Y-154011100D01*
X295470995Y-154011100D01*
X295470991Y-154011101D01*
X295212445Y-154045139D01*
X295212438Y-154045140D01*
X295212435Y-154045141D01*
X295159196Y-154059406D01*
X294960525Y-154112639D01*
X294719590Y-154212437D01*
X294719575Y-154212444D01*
X294493721Y-154342841D01*
X294286818Y-154501603D01*
X294286811Y-154501609D01*
X294102409Y-154686011D01*
X294102403Y-154686018D01*
X293943641Y-154892921D01*
X293813244Y-155118775D01*
X293813237Y-155118790D01*
X293713439Y-155359725D01*
X293645942Y-155611632D01*
X293645939Y-155611645D01*
X293611901Y-155870191D01*
X293611900Y-155870207D01*
X292196669Y-155870207D01*
X292162002Y-155651330D01*
X292084180Y-155411815D01*
X291969842Y-155187416D01*
X291895650Y-155085301D01*
X291895650Y-155085300D01*
X291125187Y-155855764D01*
X291113918Y-155813708D01*
X291041510Y-155688292D01*
X290939108Y-155585890D01*
X290813692Y-155513482D01*
X290771632Y-155502212D01*
X291542098Y-154731748D01*
X291439983Y-154657557D01*
X291215584Y-154543219D01*
X290976069Y-154465397D01*
X290727328Y-154426000D01*
X290475472Y-154426000D01*
X290226730Y-154465397D01*
X289987215Y-154543219D01*
X289762813Y-154657559D01*
X289660701Y-154731747D01*
X289660700Y-154731748D01*
X290431165Y-155502212D01*
X290389108Y-155513482D01*
X290263692Y-155585890D01*
X290161290Y-155688292D01*
X290088882Y-155813708D01*
X290077612Y-155855764D01*
X289307148Y-155085300D01*
X289307147Y-155085301D01*
X289232959Y-155187413D01*
X289118619Y-155411815D01*
X289040797Y-155651330D01*
X289001400Y-155900071D01*
X282208724Y-155900071D01*
X282346450Y-155863168D01*
X282556311Y-155776240D01*
X282563165Y-155773402D01*
X282563168Y-155773400D01*
X282563174Y-155773398D01*
X282766326Y-155656108D01*
X282952431Y-155513304D01*
X283118304Y-155347431D01*
X283261108Y-155161326D01*
X283378398Y-154958174D01*
X283468168Y-154741450D01*
X283528881Y-154514863D01*
X283559500Y-154282290D01*
X283559500Y-154047710D01*
X283528881Y-153815137D01*
X283468168Y-153588550D01*
X283378398Y-153371826D01*
X283378396Y-153371823D01*
X283378394Y-153371818D01*
X283261112Y-153168681D01*
X283261108Y-153168674D01*
X283118304Y-152982569D01*
X283118302Y-152982567D01*
X283118299Y-152982563D01*
X282952436Y-152816700D01*
X282952431Y-152816696D01*
X282766326Y-152673892D01*
X282766320Y-152673888D01*
X282766318Y-152673887D01*
X282563181Y-152556605D01*
X282563170Y-152556600D01*
X282346459Y-152466835D01*
X282346452Y-152466833D01*
X282346450Y-152466832D01*
X282119863Y-152406119D01*
X282113882Y-152405331D01*
X282074337Y-152400125D01*
X282010441Y-152371857D01*
X281971970Y-152313532D01*
X281971140Y-152243668D01*
X281984986Y-152212088D01*
X282021355Y-152153125D01*
X282021358Y-152153119D01*
X282076505Y-151986697D01*
X282076506Y-151986690D01*
X282086999Y-151883986D01*
X282087000Y-151883973D01*
X282087000Y-151634000D01*
X281198500Y-151634000D01*
X281131461Y-151614315D01*
X281085706Y-151561511D01*
X281074500Y-151510000D01*
X281074500Y-151384000D01*
X280948500Y-151384000D01*
X280881461Y-151364315D01*
X280835706Y-151311511D01*
X280824500Y-151260000D01*
X280824500Y-151134000D01*
X281324500Y-151134000D01*
X282086999Y-151134000D01*
X282086999Y-150884028D01*
X282086998Y-150884013D01*
X282076505Y-150781302D01*
X282021358Y-150614880D01*
X282021356Y-150614875D01*
X281929315Y-150465654D01*
X281805345Y-150341684D01*
X281656124Y-150249643D01*
X281656119Y-150249641D01*
X281489697Y-150194494D01*
X281489690Y-150194493D01*
X281386986Y-150184000D01*
X281324500Y-150184000D01*
X281324500Y-151134000D01*
X280824500Y-151134000D01*
X280824500Y-150184000D01*
X280824499Y-150183999D01*
X280762028Y-150184000D01*
X280762011Y-150184001D01*
X280659302Y-150194494D01*
X280524855Y-150239046D01*
X280455027Y-150241448D01*
X280396698Y-150206736D01*
X280396466Y-150206969D01*
X280395548Y-150206051D01*
X280394985Y-150205716D01*
X280393340Y-150203843D01*
X280243089Y-150053592D01*
X280243085Y-150053588D01*
X280068861Y-149934242D01*
X279875675Y-149848942D01*
X279875673Y-149848941D01*
X279875672Y-149848941D01*
X279875666Y-149848939D01*
X279670114Y-149800593D01*
X279670098Y-149800591D01*
X279582340Y-149794500D01*
X279582336Y-149794500D01*
X278916664Y-149794500D01*
X278916660Y-149794500D01*
X278828901Y-149800591D01*
X278828885Y-149800593D01*
X278623333Y-149848939D01*
X278623327Y-149848941D01*
X278430139Y-149934242D01*
X278255916Y-150053587D01*
X278255910Y-150053592D01*
X278106592Y-150202910D01*
X278106583Y-150202921D01*
X278102298Y-150209177D01*
X278048171Y-150253359D01*
X277978750Y-150261264D01*
X277916076Y-150230382D01*
X277880047Y-150170518D01*
X277876000Y-150139098D01*
X277876000Y-148737959D01*
X277885603Y-148705254D01*
X277894738Y-148672416D01*
X277895425Y-148671802D01*
X277895685Y-148670920D01*
X277921419Y-148648621D01*
X277946883Y-148625912D01*
X277948039Y-148625554D01*
X277948489Y-148625165D01*
X277980600Y-148615486D01*
X278082554Y-148599338D01*
X278151847Y-148608292D01*
X278189633Y-148634130D01*
X278230915Y-148675412D01*
X278405139Y-148794758D01*
X278598325Y-148880058D01*
X278598331Y-148880059D01*
X278598333Y-148880060D01*
X278803885Y-148928406D01*
X278803890Y-148928406D01*
X278803896Y-148928408D01*
X278852656Y-148931792D01*
X278891660Y-148934500D01*
X278891664Y-148934500D01*
X279532340Y-148934500D01*
X279567443Y-148932063D01*
X279620104Y-148928408D01*
X279620110Y-148928406D01*
X279620114Y-148928406D01*
X279825666Y-148880060D01*
X279825664Y-148880060D01*
X279825675Y-148880058D01*
X280018861Y-148794758D01*
X280091924Y-148744708D01*
X280158354Y-148723062D01*
X280225943Y-148740766D01*
X280232059Y-148744696D01*
X280305139Y-148794758D01*
X280498325Y-148880058D01*
X280498331Y-148880059D01*
X280498333Y-148880060D01*
X280703885Y-148928406D01*
X280703890Y-148928406D01*
X280703896Y-148928408D01*
X280752656Y-148931792D01*
X280791660Y-148934500D01*
X280791664Y-148934500D01*
X281432340Y-148934500D01*
X281467443Y-148932063D01*
X281520104Y-148928408D01*
X281520110Y-148928406D01*
X281520114Y-148928406D01*
X281725666Y-148880060D01*
X281725664Y-148880060D01*
X281725675Y-148880058D01*
X281918861Y-148794758D01*
X281966670Y-148762007D01*
X282033099Y-148740360D01*
X282100689Y-148758064D01*
X282106800Y-148761990D01*
X282118139Y-148769758D01*
X282311325Y-148855058D01*
X282311331Y-148855059D01*
X282311333Y-148855060D01*
X282516885Y-148903406D01*
X282516890Y-148903406D01*
X282516896Y-148903408D01*
X282565656Y-148906792D01*
X282604660Y-148909500D01*
X282604664Y-148909500D01*
X283270340Y-148909500D01*
X283305443Y-148907063D01*
X283358104Y-148903408D01*
X283358110Y-148903406D01*
X283358114Y-148903406D01*
X283480286Y-148874671D01*
X289001400Y-148874671D01*
X289001400Y-149126528D01*
X289040797Y-149375269D01*
X289118619Y-149614784D01*
X289232957Y-149839183D01*
X289307148Y-149941297D01*
X289307148Y-149941298D01*
X290077612Y-149170834D01*
X290088882Y-149212892D01*
X290161290Y-149338308D01*
X290263692Y-149440710D01*
X290389108Y-149513118D01*
X290431165Y-149524387D01*
X289660700Y-150294850D01*
X289762816Y-150369042D01*
X289987215Y-150483380D01*
X290226730Y-150561202D01*
X290475472Y-150600600D01*
X290727328Y-150600600D01*
X290976069Y-150561202D01*
X291215584Y-150483380D01*
X291439975Y-150369046D01*
X291439981Y-150369042D01*
X291542097Y-150294850D01*
X291542098Y-150294850D01*
X290771634Y-149524387D01*
X290813692Y-149513118D01*
X290939108Y-149440710D01*
X291041510Y-149338308D01*
X291113918Y-149212892D01*
X291125187Y-149170834D01*
X291895650Y-149941298D01*
X291895650Y-149941297D01*
X291969842Y-149839181D01*
X291969846Y-149839175D01*
X292084180Y-149614784D01*
X292162002Y-149375269D01*
X292201400Y-149126528D01*
X292201400Y-148874671D01*
X292200693Y-148870207D01*
X293611900Y-148870207D01*
X293611900Y-149130992D01*
X293611901Y-149131008D01*
X293645939Y-149389554D01*
X293645940Y-149389559D01*
X293645941Y-149389565D01*
X293659645Y-149440710D01*
X293713439Y-149641474D01*
X293813237Y-149882409D01*
X293813244Y-149882424D01*
X293943641Y-150108278D01*
X294102403Y-150315181D01*
X294102409Y-150315188D01*
X294286811Y-150499590D01*
X294286818Y-150499596D01*
X294493721Y-150658358D01*
X294719575Y-150788755D01*
X294719590Y-150788762D01*
X294792512Y-150818967D01*
X294960524Y-150888560D01*
X295212435Y-150956059D01*
X295471001Y-150990100D01*
X295471008Y-150990100D01*
X295731792Y-150990100D01*
X295731799Y-150990100D01*
X295990365Y-150956059D01*
X296242276Y-150888560D01*
X296483221Y-150788757D01*
X296709079Y-150658358D01*
X296915983Y-150499595D01*
X297100395Y-150315183D01*
X297259158Y-150108279D01*
X297389557Y-149882421D01*
X297489360Y-149641476D01*
X297556859Y-149389565D01*
X297590900Y-149130999D01*
X297590900Y-148870201D01*
X297556859Y-148611635D01*
X297489360Y-148359724D01*
X297408380Y-148164222D01*
X297389562Y-148118790D01*
X297389555Y-148118775D01*
X297259158Y-147892921D01*
X297100396Y-147686018D01*
X297100390Y-147686011D01*
X296915988Y-147501609D01*
X296915981Y-147501603D01*
X296709078Y-147342841D01*
X296483224Y-147212444D01*
X296483209Y-147212437D01*
X296242274Y-147112639D01*
X296116320Y-147078890D01*
X295990365Y-147045141D01*
X295990359Y-147045140D01*
X295990354Y-147045139D01*
X295731808Y-147011101D01*
X295731805Y-147011100D01*
X295731799Y-147011100D01*
X295471001Y-147011100D01*
X295470995Y-147011100D01*
X295470991Y-147011101D01*
X295212445Y-147045139D01*
X295212438Y-147045140D01*
X295212435Y-147045141D01*
X295159196Y-147059406D01*
X294960525Y-147112639D01*
X294719590Y-147212437D01*
X294719575Y-147212444D01*
X294493721Y-147342841D01*
X294286818Y-147501603D01*
X294286811Y-147501609D01*
X294102409Y-147686011D01*
X294102403Y-147686018D01*
X293943641Y-147892921D01*
X293813244Y-148118775D01*
X293813237Y-148118790D01*
X293713439Y-148359725D01*
X293673306Y-148509506D01*
X293653349Y-148583990D01*
X293645942Y-148611632D01*
X293645939Y-148611645D01*
X293611901Y-148870191D01*
X293611900Y-148870207D01*
X292200693Y-148870207D01*
X292162002Y-148625930D01*
X292084180Y-148386415D01*
X291969842Y-148162016D01*
X291895650Y-148059901D01*
X291895650Y-148059900D01*
X291125187Y-148830364D01*
X291113918Y-148788308D01*
X291041510Y-148662892D01*
X290939108Y-148560490D01*
X290813692Y-148488082D01*
X290771632Y-148476812D01*
X291542098Y-147706348D01*
X291439983Y-147632157D01*
X291215584Y-147517819D01*
X290976069Y-147439997D01*
X290727328Y-147400600D01*
X290475472Y-147400600D01*
X290226730Y-147439997D01*
X289987215Y-147517819D01*
X289762813Y-147632159D01*
X289660701Y-147706347D01*
X289660700Y-147706348D01*
X290431165Y-148476812D01*
X290389108Y-148488082D01*
X290263692Y-148560490D01*
X290161290Y-148662892D01*
X290088882Y-148788308D01*
X290077612Y-148830364D01*
X289307148Y-148059900D01*
X289307147Y-148059901D01*
X289232959Y-148162013D01*
X289118619Y-148386415D01*
X289040797Y-148625930D01*
X289001400Y-148874671D01*
X283480286Y-148874671D01*
X283563666Y-148855060D01*
X283563664Y-148855060D01*
X283563675Y-148855058D01*
X283756861Y-148769758D01*
X283931085Y-148650412D01*
X284080412Y-148501085D01*
X284080412Y-148501084D01*
X284084466Y-148497031D01*
X284085885Y-148498450D01*
X284136399Y-148464450D01*
X284206253Y-148462967D01*
X284212855Y-148464953D01*
X284347302Y-148509505D01*
X284347309Y-148509506D01*
X284450019Y-148519999D01*
X285012500Y-148519999D01*
X285074972Y-148519999D01*
X285074986Y-148519998D01*
X285177697Y-148509505D01*
X285344119Y-148454358D01*
X285344124Y-148454356D01*
X285493345Y-148362315D01*
X285617315Y-148238345D01*
X285709356Y-148089124D01*
X285709358Y-148089119D01*
X285764505Y-147922697D01*
X285764506Y-147922690D01*
X285774999Y-147819986D01*
X285775000Y-147819973D01*
X285775000Y-147570000D01*
X285012500Y-147570000D01*
X285012500Y-148519999D01*
X284450019Y-148519999D01*
X284512499Y-148519998D01*
X284512500Y-148519998D01*
X284512500Y-147070000D01*
X285012500Y-147070000D01*
X285774999Y-147070000D01*
X285774999Y-146820028D01*
X285774998Y-146820013D01*
X285764505Y-146717302D01*
X285709358Y-146550880D01*
X285709356Y-146550875D01*
X285617315Y-146401654D01*
X285493345Y-146277684D01*
X285344124Y-146185643D01*
X285344119Y-146185641D01*
X285177697Y-146130494D01*
X285177690Y-146130493D01*
X285074986Y-146120000D01*
X285012500Y-146120000D01*
X285012500Y-147070000D01*
X284512500Y-147070000D01*
X284512500Y-146120000D01*
X284512499Y-146119999D01*
X284450028Y-146120000D01*
X284450011Y-146120001D01*
X284347302Y-146130494D01*
X284212855Y-146175046D01*
X284143027Y-146177448D01*
X284084698Y-146142736D01*
X284084466Y-146142969D01*
X284083548Y-146142051D01*
X284082985Y-146141716D01*
X284081340Y-146139843D01*
X283931089Y-145989592D01*
X283931085Y-145989588D01*
X283756861Y-145870242D01*
X283563675Y-145784942D01*
X283563673Y-145784941D01*
X283563672Y-145784941D01*
X283563666Y-145784939D01*
X283358114Y-145736593D01*
X283358098Y-145736591D01*
X283270340Y-145730500D01*
X283270336Y-145730500D01*
X282604664Y-145730500D01*
X282604660Y-145730500D01*
X282516901Y-145736591D01*
X282516885Y-145736593D01*
X282311333Y-145784939D01*
X282311318Y-145784944D01*
X282118139Y-145870241D01*
X282118137Y-145870242D01*
X282106819Y-145877995D01*
X282040386Y-145899639D01*
X281972798Y-145881930D01*
X281966671Y-145877993D01*
X281955356Y-145870242D01*
X281918861Y-145845242D01*
X281918856Y-145845239D01*
X281918855Y-145845239D01*
X281782299Y-145784944D01*
X281725675Y-145759942D01*
X281725673Y-145759941D01*
X281725672Y-145759941D01*
X281725666Y-145759939D01*
X281520114Y-145711593D01*
X281520098Y-145711591D01*
X281432340Y-145705500D01*
X281432336Y-145705500D01*
X280791664Y-145705500D01*
X280791660Y-145705500D01*
X280703901Y-145711591D01*
X280703885Y-145711593D01*
X280498333Y-145759939D01*
X280498327Y-145759941D01*
X280305138Y-145845242D01*
X280305133Y-145845244D01*
X280232076Y-145895290D01*
X280165644Y-145916936D01*
X280098055Y-145899231D01*
X280091924Y-145895290D01*
X280018866Y-145845244D01*
X280018861Y-145845242D01*
X279882299Y-145784944D01*
X279825675Y-145759942D01*
X279825673Y-145759941D01*
X279825672Y-145759941D01*
X279825666Y-145759939D01*
X279620114Y-145711593D01*
X279620098Y-145711591D01*
X279532340Y-145705500D01*
X279532336Y-145705500D01*
X278891664Y-145705500D01*
X278891660Y-145705500D01*
X278803901Y-145711591D01*
X278803885Y-145711593D01*
X278598333Y-145759939D01*
X278598327Y-145759941D01*
X278405139Y-145845242D01*
X278230916Y-145964587D01*
X278230909Y-145964593D01*
X278189630Y-146005871D01*
X278184829Y-146008492D01*
X278181807Y-146013051D01*
X278154494Y-146025055D01*
X278128306Y-146039355D01*
X278121520Y-146039548D01*
X278117843Y-146041165D01*
X278082552Y-146040661D01*
X277980601Y-146024513D01*
X277917467Y-145994583D01*
X277880536Y-145935272D01*
X277876000Y-145902040D01*
X277876000Y-142987986D01*
X300872001Y-142987986D01*
X300882494Y-143090697D01*
X300937641Y-143257119D01*
X300937643Y-143257124D01*
X301029684Y-143406345D01*
X301153654Y-143530315D01*
X301302875Y-143622356D01*
X301302880Y-143622358D01*
X301469302Y-143677505D01*
X301469309Y-143677506D01*
X301572019Y-143687999D01*
X302771999Y-143687999D01*
X303272000Y-143687999D01*
X304471972Y-143687999D01*
X304471986Y-143687998D01*
X304574697Y-143677505D01*
X304741119Y-143622358D01*
X304741124Y-143622356D01*
X304890345Y-143530315D01*
X305014315Y-143406345D01*
X305106356Y-143257124D01*
X305106358Y-143257119D01*
X305161505Y-143090697D01*
X305161506Y-143090690D01*
X305171999Y-142987986D01*
X305172000Y-142987973D01*
X305172000Y-142188000D01*
X303272000Y-142188000D01*
X303272000Y-143687999D01*
X302771999Y-143687999D01*
X302772000Y-143687998D01*
X302772000Y-142188000D01*
X300872001Y-142188000D01*
X300872001Y-142987986D01*
X277876000Y-142987986D01*
X277876000Y-140888013D01*
X300872000Y-140888013D01*
X300872000Y-141688000D01*
X302772000Y-141688000D01*
X303272000Y-141688000D01*
X305171999Y-141688000D01*
X305171999Y-140888028D01*
X305171998Y-140888013D01*
X305161505Y-140785302D01*
X305106358Y-140618880D01*
X305106356Y-140618875D01*
X305014315Y-140469654D01*
X304890345Y-140345684D01*
X304741124Y-140253643D01*
X304741119Y-140253641D01*
X304574697Y-140198494D01*
X304574690Y-140198493D01*
X304471986Y-140188000D01*
X303272000Y-140188000D01*
X303272000Y-141688000D01*
X302772000Y-141688000D01*
X302772000Y-140188000D01*
X301572028Y-140188000D01*
X301572012Y-140188001D01*
X301469302Y-140198494D01*
X301302880Y-140253641D01*
X301302875Y-140253643D01*
X301153654Y-140345684D01*
X301029684Y-140469654D01*
X300937643Y-140618875D01*
X300937641Y-140618880D01*
X300882494Y-140785302D01*
X300882493Y-140785309D01*
X300872000Y-140888013D01*
X277876000Y-140888013D01*
X277876000Y-140654974D01*
X277895685Y-140587935D01*
X277948489Y-140542180D01*
X278017647Y-140532236D01*
X278070077Y-140552675D01*
X278113136Y-140582171D01*
X278113148Y-140582178D01*
X278307824Y-140668135D01*
X278307831Y-140668138D01*
X278514974Y-140716858D01*
X278514990Y-140716860D01*
X278603439Y-140722999D01*
X287976559Y-140722999D01*
X288065008Y-140716860D01*
X288065024Y-140716858D01*
X288272168Y-140668138D01*
X288272175Y-140668135D01*
X288466851Y-140582178D01*
X288466855Y-140582176D01*
X288642425Y-140461908D01*
X288642431Y-140461903D01*
X288792903Y-140311431D01*
X288792908Y-140311425D01*
X288913176Y-140135855D01*
X288913178Y-140135851D01*
X288999135Y-139941175D01*
X288999138Y-139941168D01*
X289047858Y-139734025D01*
X289047860Y-139734009D01*
X289053999Y-139645560D01*
X289053999Y-133008690D01*
X289073684Y-132941651D01*
X289126488Y-132895896D01*
X289195646Y-132885952D01*
X289259202Y-132914977D01*
G37*
%TD.AperFunction*%
%TD*%
%TA.AperFunction,Conductor*%
%TO.N,/Power Supply/SW*%
G36*
X296992878Y-82061685D02*
G01*
X297013034Y-82077836D01*
X298546196Y-83594149D01*
X298580019Y-83655285D01*
X298583000Y-83682312D01*
X298583000Y-86360000D01*
X301291816Y-86360000D01*
X301358855Y-86379685D01*
X301379011Y-86395836D01*
X301562795Y-86577600D01*
X301596619Y-86638737D01*
X301599600Y-86665764D01*
X301599600Y-91824000D01*
X301579915Y-91891039D01*
X301527111Y-91936794D01*
X301475600Y-91948000D01*
X298583000Y-91948000D01*
X298583000Y-96266000D01*
X298767463Y-96266000D01*
X298834502Y-96285685D01*
X298880257Y-96338489D01*
X298890201Y-96407647D01*
X298865469Y-96465966D01*
X297522481Y-98198586D01*
X297465852Y-98239513D01*
X297423294Y-98246614D01*
X292275022Y-98197583D01*
X292208173Y-98177261D01*
X292162923Y-98124024D01*
X292152211Y-98072182D01*
X292201600Y-93726000D01*
X292201600Y-82166000D01*
X292221285Y-82098961D01*
X292274089Y-82053206D01*
X292325600Y-82042000D01*
X296925839Y-82042000D01*
X296992878Y-82061685D01*
G37*
%TD.AperFunction*%
%TD*%
%TA.AperFunction,Conductor*%
%TO.N,/Power Supply/V_P*%
G36*
X300363059Y-122302061D02*
G01*
X300503163Y-122320506D01*
X300534431Y-122328884D01*
X300657418Y-122379827D01*
X300685451Y-122396012D01*
X300719952Y-122422485D01*
X300791063Y-122477050D01*
X300813951Y-122499938D01*
X300894987Y-122605548D01*
X300911172Y-122633581D01*
X300962115Y-122756568D01*
X300970493Y-122787835D01*
X300988939Y-122927939D01*
X300990000Y-122944125D01*
X300990000Y-127730031D01*
X300988833Y-127747004D01*
X300968552Y-127893780D01*
X300959347Y-127926453D01*
X300903469Y-128054343D01*
X300885749Y-128083296D01*
X300791825Y-128197904D01*
X300780164Y-128210291D01*
X297561000Y-131191000D01*
X297561000Y-132960874D01*
X297559939Y-132977059D01*
X297559939Y-132977060D01*
X297541493Y-133117164D01*
X297533115Y-133148431D01*
X297482172Y-133271418D01*
X297465987Y-133299451D01*
X297384951Y-133405061D01*
X297362061Y-133427951D01*
X297256451Y-133508987D01*
X297228418Y-133525172D01*
X297105431Y-133576115D01*
X297074164Y-133584493D01*
X296949625Y-133600889D01*
X296934058Y-133602939D01*
X296917874Y-133604000D01*
X290838126Y-133604000D01*
X290821941Y-133602939D01*
X290804102Y-133600590D01*
X290681835Y-133584493D01*
X290650568Y-133576115D01*
X290527581Y-133525172D01*
X290499548Y-133508987D01*
X290434725Y-133459248D01*
X290393936Y-133427949D01*
X290371050Y-133405063D01*
X290290012Y-133299451D01*
X290273827Y-133271418D01*
X290222884Y-133148431D01*
X290214506Y-133117163D01*
X290196061Y-132977059D01*
X290195000Y-132960874D01*
X290195000Y-128447773D01*
X290195860Y-128433195D01*
X290197210Y-128421791D01*
X290210830Y-128306747D01*
X290217635Y-128278412D01*
X290259171Y-128165860D01*
X290272410Y-128139888D01*
X290339075Y-128040155D01*
X290358013Y-128017993D01*
X290446122Y-127936587D01*
X290469713Y-127919457D01*
X290580835Y-127857273D01*
X290593949Y-127850917D01*
X292036500Y-127254000D01*
X293878000Y-126492000D01*
X293878000Y-126165713D01*
X293897685Y-126098674D01*
X293914319Y-126078032D01*
X293976676Y-126015675D01*
X294295378Y-125696973D01*
X294362273Y-125604900D01*
X294395299Y-125559444D01*
X294457689Y-125436998D01*
X294472476Y-125407977D01*
X294525007Y-125246300D01*
X294535606Y-125179380D01*
X294551600Y-125078403D01*
X294551600Y-122698603D01*
X294551600Y-122698602D01*
X294545134Y-122657778D01*
X294525008Y-122530700D01*
X294501209Y-122457456D01*
X294499896Y-122451436D01*
X294501947Y-122422485D01*
X294501119Y-122393478D01*
X294504387Y-122388057D01*
X294504835Y-122381741D01*
X294522215Y-122358492D01*
X294537199Y-122333645D01*
X294542880Y-122330851D01*
X294546671Y-122325781D01*
X294573852Y-122315622D01*
X294599899Y-122302816D01*
X294610574Y-122301899D01*
X294612119Y-122301322D01*
X294613587Y-122301640D01*
X294621045Y-122301000D01*
X300346874Y-122301000D01*
X300363059Y-122302061D01*
G37*
%TD.AperFunction*%
%TD*%
%TA.AperFunction,Conductor*%
%TO.N,+18V*%
G36*
X274622418Y-82061685D02*
G01*
X274668173Y-82114489D01*
X274678117Y-82183647D01*
X274660917Y-82231097D01*
X274609646Y-82314218D01*
X274609641Y-82314229D01*
X274554494Y-82480651D01*
X274554493Y-82480658D01*
X274544000Y-82583362D01*
X274544000Y-82865849D01*
X275595814Y-82865849D01*
X275523920Y-82937743D01*
X275471259Y-83028955D01*
X275444000Y-83130688D01*
X275444000Y-83236010D01*
X275471259Y-83337743D01*
X275523920Y-83428955D01*
X275598394Y-83503429D01*
X275689606Y-83556090D01*
X275791339Y-83583349D01*
X275896661Y-83583349D01*
X275998394Y-83556090D01*
X276089606Y-83503429D01*
X276164080Y-83428955D01*
X276216741Y-83337743D01*
X276244000Y-83236010D01*
X276244000Y-83130688D01*
X276216741Y-83028955D01*
X276164080Y-82937743D01*
X276092186Y-82865849D01*
X277143999Y-82865849D01*
X277143999Y-82583377D01*
X277143998Y-82583362D01*
X277133505Y-82480651D01*
X277078358Y-82314229D01*
X277078353Y-82314218D01*
X277027083Y-82231097D01*
X277008642Y-82163705D01*
X277029564Y-82097041D01*
X277083206Y-82052272D01*
X277132621Y-82042000D01*
X289526474Y-82042000D01*
X289542659Y-82043061D01*
X289682763Y-82061506D01*
X289714031Y-82069884D01*
X289837018Y-82120827D01*
X289865051Y-82137012D01*
X289893007Y-82158463D01*
X289970663Y-82218050D01*
X289993551Y-82240938D01*
X290074587Y-82346548D01*
X290090772Y-82374581D01*
X290141715Y-82497568D01*
X290150093Y-82528835D01*
X290168539Y-82668939D01*
X290169600Y-82685125D01*
X290169600Y-92168474D01*
X290168539Y-92184660D01*
X290150093Y-92324764D01*
X290141715Y-92356031D01*
X290090772Y-92479018D01*
X290074587Y-92507051D01*
X289993551Y-92612661D01*
X289970661Y-92635551D01*
X289865051Y-92716587D01*
X289837018Y-92732772D01*
X289714031Y-92783715D01*
X289682764Y-92792093D01*
X289558225Y-92808489D01*
X289542658Y-92810539D01*
X289526474Y-92811600D01*
X283218228Y-92811600D01*
X283201840Y-92810512D01*
X282447999Y-92709999D01*
X282439146Y-92717750D01*
X282428315Y-92754639D01*
X282375511Y-92800394D01*
X282324000Y-92811600D01*
X281686000Y-92811600D01*
X281688907Y-93449490D01*
X281709280Y-97919435D01*
X281689901Y-97986563D01*
X281637306Y-98032558D01*
X281585281Y-98044000D01*
X280416000Y-98044000D01*
X280416000Y-100330000D01*
X281244500Y-100330000D01*
X281311539Y-100349685D01*
X281357294Y-100402489D01*
X281368500Y-100454000D01*
X281368500Y-106602978D01*
X281368350Y-106603486D01*
X281368496Y-106603996D01*
X281358498Y-106637040D01*
X281348815Y-106670017D01*
X281348416Y-106670362D01*
X281348262Y-106670872D01*
X281321967Y-106693280D01*
X281296011Y-106715772D01*
X281295352Y-106715962D01*
X281295084Y-106716191D01*
X281261139Y-106725857D01*
X281121960Y-106744703D01*
X281105769Y-106745823D01*
X265217302Y-106803183D01*
X264409634Y-106806098D01*
X264394613Y-106805240D01*
X264264367Y-106789826D01*
X264235184Y-106782708D01*
X264119576Y-106739109D01*
X264092964Y-106725186D01*
X263984975Y-106650759D01*
X263973127Y-106641484D01*
X263878841Y-106557974D01*
X263556473Y-106272448D01*
X261408958Y-104370363D01*
X274662500Y-104370363D01*
X274662500Y-104556334D01*
X274691593Y-104740018D01*
X274749059Y-104916884D01*
X274749060Y-104916887D01*
X274819381Y-105054898D01*
X274833491Y-105082590D01*
X274942803Y-105233044D01*
X275074305Y-105364546D01*
X275224759Y-105473858D01*
X275306031Y-105515268D01*
X275390461Y-105558288D01*
X275390464Y-105558289D01*
X275478897Y-105587022D01*
X275567332Y-105615756D01*
X275751014Y-105644849D01*
X275751015Y-105644849D01*
X275936985Y-105644849D01*
X275936986Y-105644849D01*
X276120668Y-105615756D01*
X276297538Y-105558288D01*
X276463241Y-105473858D01*
X276613695Y-105364546D01*
X276745197Y-105233044D01*
X276854509Y-105082590D01*
X276938939Y-104916887D01*
X276996407Y-104740017D01*
X277025500Y-104556335D01*
X277025500Y-104370363D01*
X276996407Y-104186681D01*
X276960903Y-104077409D01*
X276938940Y-104009813D01*
X276938939Y-104009810D01*
X276867010Y-103868643D01*
X276854509Y-103844108D01*
X276745197Y-103693654D01*
X276613695Y-103562152D01*
X276463241Y-103452840D01*
X276297538Y-103368409D01*
X276297535Y-103368408D01*
X276120669Y-103310942D01*
X276028827Y-103296395D01*
X275936986Y-103281849D01*
X275751014Y-103281849D01*
X275689786Y-103291546D01*
X275567330Y-103310942D01*
X275390464Y-103368408D01*
X275390461Y-103368409D01*
X275224758Y-103452840D01*
X275074303Y-103562153D01*
X274942804Y-103693652D01*
X274833491Y-103844107D01*
X274749060Y-104009810D01*
X274749059Y-104009813D01*
X274691593Y-104186679D01*
X274662500Y-104370363D01*
X261408958Y-104370363D01*
X259935526Y-103065323D01*
X259923305Y-103052857D01*
X259824731Y-102936993D01*
X259806108Y-102907548D01*
X259747299Y-102776900D01*
X259737605Y-102743435D01*
X259716230Y-102592830D01*
X259715000Y-102575406D01*
X259715000Y-101563335D01*
X274544001Y-101563335D01*
X274554494Y-101666046D01*
X274609641Y-101832468D01*
X274609643Y-101832473D01*
X274701684Y-101981694D01*
X274825654Y-102105664D01*
X274974875Y-102197705D01*
X274974880Y-102197707D01*
X275141302Y-102252854D01*
X275141309Y-102252855D01*
X275244019Y-102263348D01*
X275526499Y-102263348D01*
X276161500Y-102263348D01*
X276443972Y-102263348D01*
X276443986Y-102263347D01*
X276546697Y-102252854D01*
X276713119Y-102197707D01*
X276713124Y-102197705D01*
X276862345Y-102105664D01*
X276986315Y-101981694D01*
X277078356Y-101832473D01*
X277078358Y-101832468D01*
X277133505Y-101666046D01*
X277133506Y-101666039D01*
X277143999Y-101563335D01*
X277144000Y-101563322D01*
X277144000Y-101280849D01*
X276161500Y-101280849D01*
X276161500Y-102263348D01*
X275526499Y-102263348D01*
X275526500Y-102263347D01*
X275526500Y-101280849D01*
X274544001Y-101280849D01*
X274544001Y-101563335D01*
X259715000Y-101563335D01*
X259715000Y-100910688D01*
X275444000Y-100910688D01*
X275444000Y-101016010D01*
X275471259Y-101117743D01*
X275523920Y-101208955D01*
X275598394Y-101283429D01*
X275689606Y-101336090D01*
X275791339Y-101363349D01*
X275896661Y-101363349D01*
X275998394Y-101336090D01*
X276089606Y-101283429D01*
X276164080Y-101208955D01*
X276216741Y-101117743D01*
X276244000Y-101016010D01*
X276244000Y-100910688D01*
X276216741Y-100808955D01*
X276164080Y-100717743D01*
X276092186Y-100645849D01*
X276161500Y-100645849D01*
X277143999Y-100645849D01*
X277143999Y-100363377D01*
X277143998Y-100363362D01*
X277133505Y-100260651D01*
X277078358Y-100094229D01*
X277078356Y-100094224D01*
X276986315Y-99945003D01*
X276862345Y-99821033D01*
X276713124Y-99728992D01*
X276713119Y-99728990D01*
X276546697Y-99673843D01*
X276546690Y-99673842D01*
X276443986Y-99663349D01*
X276161500Y-99663349D01*
X276161500Y-100645849D01*
X276092186Y-100645849D01*
X276089606Y-100643269D01*
X275998394Y-100590608D01*
X275896661Y-100563349D01*
X275791339Y-100563349D01*
X275689606Y-100590608D01*
X275598394Y-100643269D01*
X275523920Y-100717743D01*
X275471259Y-100808955D01*
X275444000Y-100910688D01*
X259715000Y-100910688D01*
X259715000Y-100363362D01*
X274544000Y-100363362D01*
X274544000Y-100645849D01*
X275526500Y-100645849D01*
X275526500Y-99663349D01*
X275244029Y-99663349D01*
X275244012Y-99663350D01*
X275141302Y-99673843D01*
X274974880Y-99728990D01*
X274974875Y-99728992D01*
X274825654Y-99821033D01*
X274701684Y-99945003D01*
X274609643Y-100094224D01*
X274609641Y-100094229D01*
X274554494Y-100260651D01*
X274554493Y-100260658D01*
X274544000Y-100363362D01*
X259715000Y-100363362D01*
X259715000Y-95480363D01*
X274662500Y-95480363D01*
X274662500Y-95666334D01*
X274691593Y-95850018D01*
X274749059Y-96026884D01*
X274749060Y-96026887D01*
X274783675Y-96094821D01*
X274833491Y-96192590D01*
X274942803Y-96343044D01*
X275074305Y-96474546D01*
X275224759Y-96583858D01*
X275306031Y-96625268D01*
X275390461Y-96668288D01*
X275390464Y-96668289D01*
X275478897Y-96697022D01*
X275567332Y-96725756D01*
X275751014Y-96754849D01*
X275751015Y-96754849D01*
X275936985Y-96754849D01*
X275936986Y-96754849D01*
X276120668Y-96725756D01*
X276297538Y-96668288D01*
X276463241Y-96583858D01*
X276613695Y-96474546D01*
X276745197Y-96343044D01*
X276854509Y-96192590D01*
X276938939Y-96026887D01*
X276996407Y-95850017D01*
X277025500Y-95666335D01*
X277025500Y-95480363D01*
X276996407Y-95296681D01*
X276938939Y-95119811D01*
X276938939Y-95119810D01*
X276854508Y-94954107D01*
X276745197Y-94803654D01*
X276613695Y-94672152D01*
X276463241Y-94562840D01*
X276297538Y-94478409D01*
X276297535Y-94478408D01*
X276120669Y-94420942D01*
X276028827Y-94406395D01*
X275936986Y-94391849D01*
X275751014Y-94391849D01*
X275689786Y-94401546D01*
X275567330Y-94420942D01*
X275390464Y-94478408D01*
X275390461Y-94478409D01*
X275224758Y-94562840D01*
X275074303Y-94672153D01*
X274942804Y-94803652D01*
X274833491Y-94954107D01*
X274749060Y-95119810D01*
X274749059Y-95119813D01*
X274691593Y-95296679D01*
X274662500Y-95480363D01*
X259715000Y-95480363D01*
X259715000Y-92673335D01*
X274544001Y-92673335D01*
X274554494Y-92776046D01*
X274609641Y-92942468D01*
X274609643Y-92942473D01*
X274701684Y-93091694D01*
X274825654Y-93215664D01*
X274974875Y-93307705D01*
X274974880Y-93307707D01*
X275141302Y-93362854D01*
X275141309Y-93362855D01*
X275244019Y-93373348D01*
X275526499Y-93373348D01*
X276161500Y-93373348D01*
X276443972Y-93373348D01*
X276443986Y-93373347D01*
X276546697Y-93362854D01*
X276713119Y-93307707D01*
X276713124Y-93307705D01*
X276862345Y-93215664D01*
X276986315Y-93091694D01*
X277078356Y-92942473D01*
X277078358Y-92942468D01*
X277133505Y-92776046D01*
X277133506Y-92776039D01*
X277143999Y-92673335D01*
X277144000Y-92673322D01*
X277144000Y-92390849D01*
X276161500Y-92390849D01*
X276161500Y-93373348D01*
X275526499Y-93373348D01*
X275526500Y-93373347D01*
X275526500Y-92390849D01*
X274544001Y-92390849D01*
X274544001Y-92673335D01*
X259715000Y-92673335D01*
X259715000Y-92265168D01*
X259734685Y-92198129D01*
X259798511Y-92098814D01*
X259798514Y-92098806D01*
X259798517Y-92098802D01*
X259834190Y-92020688D01*
X275444000Y-92020688D01*
X275444000Y-92126010D01*
X275471259Y-92227743D01*
X275523920Y-92318955D01*
X275598394Y-92393429D01*
X275689606Y-92446090D01*
X275791339Y-92473349D01*
X275896661Y-92473349D01*
X275998394Y-92446090D01*
X276089606Y-92393429D01*
X276164080Y-92318955D01*
X276216741Y-92227743D01*
X276244000Y-92126010D01*
X276244000Y-92020688D01*
X276216741Y-91918955D01*
X276164080Y-91827743D01*
X276092186Y-91755849D01*
X276161500Y-91755849D01*
X277143999Y-91755849D01*
X277143999Y-91473377D01*
X277143998Y-91473362D01*
X277133505Y-91370651D01*
X277078358Y-91204229D01*
X277078356Y-91204224D01*
X276986315Y-91055003D01*
X276862345Y-90931033D01*
X276713124Y-90838992D01*
X276713119Y-90838990D01*
X276546697Y-90783843D01*
X276546690Y-90783842D01*
X276443986Y-90773349D01*
X276161500Y-90773349D01*
X276161500Y-91755849D01*
X276092186Y-91755849D01*
X276089606Y-91753269D01*
X275998394Y-91700608D01*
X275896661Y-91673349D01*
X275791339Y-91673349D01*
X275689606Y-91700608D01*
X275598394Y-91753269D01*
X275523920Y-91827743D01*
X275471259Y-91918955D01*
X275444000Y-92020688D01*
X259834190Y-92020688D01*
X259895694Y-91886014D01*
X259895694Y-91886012D01*
X259895696Y-91886009D01*
X259961606Y-91661539D01*
X259988662Y-91473362D01*
X274544000Y-91473362D01*
X274544000Y-91755849D01*
X275526500Y-91755849D01*
X275526500Y-90773349D01*
X275244029Y-90773349D01*
X275244012Y-90773350D01*
X275141302Y-90783843D01*
X274974880Y-90838990D01*
X274974875Y-90838992D01*
X274825654Y-90931033D01*
X274701684Y-91055003D01*
X274609643Y-91204224D01*
X274609641Y-91204229D01*
X274554494Y-91370651D01*
X274554493Y-91370658D01*
X274544000Y-91473362D01*
X259988662Y-91473362D01*
X259994900Y-91429973D01*
X259994900Y-91313000D01*
X259994900Y-91241396D01*
X259994900Y-89124403D01*
X260844500Y-89124403D01*
X260844500Y-89357596D01*
X260880980Y-89587920D01*
X260953038Y-89809696D01*
X260953039Y-89809699D01*
X261058910Y-90017478D01*
X261195969Y-90206125D01*
X261195973Y-90206130D01*
X261360869Y-90371026D01*
X261360874Y-90371030D01*
X261495433Y-90468792D01*
X261549525Y-90508092D01*
X261685349Y-90577298D01*
X261757300Y-90613960D01*
X261757303Y-90613961D01*
X261868191Y-90649990D01*
X261979081Y-90686020D01*
X262209403Y-90722500D01*
X262209404Y-90722500D01*
X262442596Y-90722500D01*
X262442597Y-90722500D01*
X262672919Y-90686020D01*
X262894699Y-90613960D01*
X263102475Y-90508092D01*
X263291132Y-90371025D01*
X263456025Y-90206132D01*
X263593092Y-90017475D01*
X263698960Y-89809699D01*
X263771020Y-89587919D01*
X263807500Y-89357597D01*
X263807500Y-89124403D01*
X267844500Y-89124403D01*
X267844500Y-89357596D01*
X267880980Y-89587920D01*
X267953038Y-89809696D01*
X267953039Y-89809699D01*
X268058910Y-90017478D01*
X268195969Y-90206125D01*
X268195973Y-90206130D01*
X268360869Y-90371026D01*
X268360874Y-90371030D01*
X268495433Y-90468792D01*
X268549525Y-90508092D01*
X268685349Y-90577298D01*
X268757300Y-90613960D01*
X268757303Y-90613961D01*
X268868191Y-90649990D01*
X268979081Y-90686020D01*
X269209403Y-90722500D01*
X269209404Y-90722500D01*
X269442596Y-90722500D01*
X269442597Y-90722500D01*
X269672919Y-90686020D01*
X269894699Y-90613960D01*
X270102475Y-90508092D01*
X270291132Y-90371025D01*
X270456025Y-90206132D01*
X270593092Y-90017475D01*
X270698960Y-89809699D01*
X270771020Y-89587919D01*
X270807500Y-89357597D01*
X270807500Y-89124403D01*
X270771020Y-88894081D01*
X270698960Y-88672301D01*
X270698960Y-88672300D01*
X270662298Y-88600349D01*
X270593092Y-88464525D01*
X270575581Y-88440423D01*
X270456030Y-88275874D01*
X270456026Y-88275869D01*
X270291130Y-88110973D01*
X270291125Y-88110969D01*
X270102478Y-87973910D01*
X270102477Y-87973909D01*
X270102475Y-87973908D01*
X270035909Y-87939990D01*
X269894699Y-87868039D01*
X269894696Y-87868038D01*
X269672920Y-87795980D01*
X269557758Y-87777740D01*
X269442597Y-87759500D01*
X269209403Y-87759500D01*
X269132629Y-87771660D01*
X268979079Y-87795980D01*
X268757303Y-87868038D01*
X268757300Y-87868039D01*
X268549521Y-87973910D01*
X268360874Y-88110969D01*
X268360869Y-88110973D01*
X268195973Y-88275869D01*
X268195969Y-88275874D01*
X268058910Y-88464521D01*
X267953039Y-88672300D01*
X267953038Y-88672303D01*
X267880980Y-88894079D01*
X267844500Y-89124403D01*
X263807500Y-89124403D01*
X263771020Y-88894081D01*
X263698960Y-88672301D01*
X263698960Y-88672300D01*
X263662298Y-88600349D01*
X263593092Y-88464525D01*
X263575581Y-88440423D01*
X263456030Y-88275874D01*
X263456026Y-88275869D01*
X263291130Y-88110973D01*
X263291125Y-88110969D01*
X263102478Y-87973910D01*
X263102477Y-87973909D01*
X263102475Y-87973908D01*
X263035909Y-87939990D01*
X262894699Y-87868039D01*
X262894696Y-87868038D01*
X262672920Y-87795980D01*
X262557758Y-87777740D01*
X262442597Y-87759500D01*
X262209403Y-87759500D01*
X262132629Y-87771660D01*
X261979079Y-87795980D01*
X261757303Y-87868038D01*
X261757300Y-87868039D01*
X261549521Y-87973910D01*
X261360874Y-88110969D01*
X261360869Y-88110973D01*
X261195973Y-88275869D01*
X261195969Y-88275874D01*
X261058910Y-88464521D01*
X260953039Y-88672300D01*
X260953038Y-88672303D01*
X260880980Y-88894079D01*
X260844500Y-89124403D01*
X259994900Y-89124403D01*
X259994900Y-86590363D01*
X274662500Y-86590363D01*
X274662500Y-86776334D01*
X274691593Y-86960018D01*
X274749059Y-87136884D01*
X274749060Y-87136887D01*
X274833491Y-87302590D01*
X274942803Y-87453044D01*
X275074305Y-87584546D01*
X275224759Y-87693858D01*
X275306031Y-87735268D01*
X275390461Y-87778288D01*
X275390464Y-87778289D01*
X275478897Y-87807022D01*
X275567332Y-87835756D01*
X275751014Y-87864849D01*
X275751015Y-87864849D01*
X275936985Y-87864849D01*
X275936986Y-87864849D01*
X276120668Y-87835756D01*
X276297538Y-87778288D01*
X276463241Y-87693858D01*
X276613695Y-87584546D01*
X276745197Y-87453044D01*
X276854509Y-87302590D01*
X276938939Y-87136887D01*
X276996407Y-86960017D01*
X277025500Y-86776335D01*
X277025500Y-86590363D01*
X276996407Y-86406681D01*
X276938939Y-86229811D01*
X276938939Y-86229810D01*
X276854508Y-86064107D01*
X276745197Y-85913654D01*
X276613695Y-85782152D01*
X276463241Y-85672840D01*
X276297538Y-85588409D01*
X276297535Y-85588408D01*
X276120669Y-85530942D01*
X276028827Y-85516395D01*
X275936986Y-85501849D01*
X275751014Y-85501849D01*
X275689786Y-85511546D01*
X275567330Y-85530942D01*
X275390464Y-85588408D01*
X275390461Y-85588409D01*
X275224758Y-85672840D01*
X275074303Y-85782153D01*
X274942804Y-85913652D01*
X274833491Y-86064107D01*
X274749060Y-86229810D01*
X274749059Y-86229813D01*
X274691593Y-86406679D01*
X274662500Y-86590363D01*
X259994900Y-86590363D01*
X259994900Y-84115071D01*
X260700600Y-84115071D01*
X260700600Y-84366928D01*
X260739997Y-84615669D01*
X260817819Y-84855184D01*
X260932156Y-85079582D01*
X260966178Y-85126407D01*
X260966179Y-85126408D01*
X261756639Y-84335947D01*
X261788082Y-84453292D01*
X261860490Y-84578708D01*
X261962892Y-84681110D01*
X262088308Y-84753518D01*
X262205651Y-84784960D01*
X261415191Y-85575420D01*
X261462016Y-85609442D01*
X261686415Y-85723780D01*
X261925930Y-85801602D01*
X262174672Y-85841000D01*
X262426528Y-85841000D01*
X262675269Y-85801602D01*
X262914784Y-85723780D01*
X263139181Y-85609444D01*
X263186007Y-85575420D01*
X262395549Y-84784960D01*
X262512892Y-84753518D01*
X262638308Y-84681110D01*
X262740710Y-84578708D01*
X262813118Y-84453292D01*
X262844560Y-84335948D01*
X263635020Y-85126407D01*
X263669044Y-85079581D01*
X263783380Y-84855184D01*
X263861202Y-84615669D01*
X263900600Y-84366928D01*
X263900600Y-84115071D01*
X267726000Y-84115071D01*
X267726000Y-84366928D01*
X267765397Y-84615669D01*
X267843219Y-84855184D01*
X267957556Y-85079582D01*
X267991578Y-85126407D01*
X267991578Y-85126408D01*
X268782039Y-84335947D01*
X268813482Y-84453292D01*
X268885890Y-84578708D01*
X268988292Y-84681110D01*
X269113708Y-84753518D01*
X269231051Y-84784960D01*
X268440591Y-85575420D01*
X268487416Y-85609442D01*
X268711815Y-85723780D01*
X268951330Y-85801602D01*
X269200072Y-85841000D01*
X269451928Y-85841000D01*
X269700669Y-85801602D01*
X269940184Y-85723780D01*
X270164581Y-85609444D01*
X270211407Y-85575420D01*
X269420949Y-84784960D01*
X269538292Y-84753518D01*
X269663708Y-84681110D01*
X269766110Y-84578708D01*
X269838518Y-84453292D01*
X269869960Y-84335948D01*
X270660420Y-85126407D01*
X270694444Y-85079581D01*
X270808780Y-84855184D01*
X270886602Y-84615669D01*
X270926000Y-84366928D01*
X270926000Y-84115071D01*
X270886602Y-83866330D01*
X270859636Y-83783335D01*
X274544001Y-83783335D01*
X274554494Y-83886046D01*
X274609641Y-84052468D01*
X274609643Y-84052473D01*
X274701684Y-84201694D01*
X274825654Y-84325664D01*
X274974875Y-84417705D01*
X274974880Y-84417707D01*
X275141302Y-84472854D01*
X275141309Y-84472855D01*
X275244019Y-84483348D01*
X275526499Y-84483348D01*
X276161500Y-84483348D01*
X276443972Y-84483348D01*
X276443986Y-84483347D01*
X276546697Y-84472854D01*
X276713119Y-84417707D01*
X276713124Y-84417705D01*
X276862345Y-84325664D01*
X276986315Y-84201694D01*
X277078356Y-84052473D01*
X277078358Y-84052468D01*
X277133505Y-83886046D01*
X277133506Y-83886039D01*
X277143999Y-83783335D01*
X277144000Y-83783322D01*
X277144000Y-83500849D01*
X276161500Y-83500849D01*
X276161500Y-84483348D01*
X275526499Y-84483348D01*
X275526500Y-84483347D01*
X275526500Y-83500849D01*
X274544001Y-83500849D01*
X274544001Y-83783335D01*
X270859636Y-83783335D01*
X270808780Y-83626815D01*
X270747110Y-83505782D01*
X270694442Y-83402416D01*
X270660420Y-83355591D01*
X269869960Y-84146050D01*
X269838518Y-84028708D01*
X269766110Y-83903292D01*
X269663708Y-83800890D01*
X269538292Y-83728482D01*
X269420948Y-83697039D01*
X270211408Y-82906579D01*
X270211407Y-82906578D01*
X270164582Y-82872556D01*
X269940184Y-82758219D01*
X269700669Y-82680397D01*
X269451928Y-82641000D01*
X269200072Y-82641000D01*
X268951330Y-82680397D01*
X268711815Y-82758219D01*
X268487413Y-82872559D01*
X268440591Y-82906577D01*
X268440590Y-82906578D01*
X269231052Y-83697039D01*
X269113708Y-83728482D01*
X268988292Y-83800890D01*
X268885890Y-83903292D01*
X268813482Y-84028708D01*
X268782039Y-84146051D01*
X267991578Y-83355590D01*
X267991577Y-83355591D01*
X267957559Y-83402413D01*
X267843219Y-83626815D01*
X267765397Y-83866330D01*
X267726000Y-84115071D01*
X263900600Y-84115071D01*
X263861202Y-83866330D01*
X263783380Y-83626815D01*
X263669042Y-83402416D01*
X263635020Y-83355591D01*
X262844560Y-84146050D01*
X262813118Y-84028708D01*
X262740710Y-83903292D01*
X262638308Y-83800890D01*
X262512892Y-83728482D01*
X262395548Y-83697039D01*
X263186008Y-82906579D01*
X263186007Y-82906578D01*
X263139182Y-82872556D01*
X262914784Y-82758219D01*
X262675269Y-82680397D01*
X262426528Y-82641000D01*
X262174672Y-82641000D01*
X261925930Y-82680397D01*
X261686415Y-82758219D01*
X261462013Y-82872559D01*
X261415191Y-82906577D01*
X261415190Y-82906578D01*
X262205652Y-83697039D01*
X262088308Y-83728482D01*
X261962892Y-83800890D01*
X261860490Y-83903292D01*
X261788082Y-84028708D01*
X261756639Y-84146051D01*
X260966178Y-83355590D01*
X260966177Y-83355591D01*
X260932159Y-83402413D01*
X260817819Y-83626815D01*
X260739997Y-83866330D01*
X260700600Y-84115071D01*
X259994900Y-84115071D01*
X259994900Y-82225502D01*
X260000532Y-82206320D01*
X260001246Y-82186343D01*
X260010174Y-82173483D01*
X260014585Y-82158463D01*
X260029691Y-82145373D01*
X260041094Y-82128950D01*
X260065042Y-82114741D01*
X260067389Y-82112708D01*
X260071448Y-82110941D01*
X260170569Y-82069884D01*
X260201835Y-82061506D01*
X260341941Y-82043061D01*
X260358126Y-82042000D01*
X274555379Y-82042000D01*
X274622418Y-82061685D01*
G37*
%TD.AperFunction*%
%TD*%
%TA.AperFunction,Conductor*%
%TO.N,/Power Supply/Q_S*%
G36*
X291220629Y-93575125D02*
G01*
X291309345Y-93589176D01*
X291311582Y-93589902D01*
X291312827Y-93589778D01*
X291346230Y-93601161D01*
X291417450Y-93637450D01*
X291448832Y-93660251D01*
X291505348Y-93716767D01*
X291528151Y-93748152D01*
X291564436Y-93819364D01*
X291576425Y-93856262D01*
X291590473Y-93944957D01*
X291592000Y-93964355D01*
X291592000Y-96586444D01*
X291590473Y-96605841D01*
X291590473Y-96605842D01*
X291576425Y-96694537D01*
X291564436Y-96731435D01*
X291528151Y-96802647D01*
X291505348Y-96834032D01*
X291448832Y-96890548D01*
X291417447Y-96913351D01*
X291346235Y-96949636D01*
X291309337Y-96961625D01*
X291245975Y-96971660D01*
X291220640Y-96975673D01*
X291201244Y-96977200D01*
X289493556Y-96977200D01*
X289474159Y-96975673D01*
X289431306Y-96968886D01*
X289385462Y-96961625D01*
X289348565Y-96949636D01*
X289277351Y-96913350D01*
X289245967Y-96890548D01*
X289189451Y-96834032D01*
X289166650Y-96802650D01*
X289130361Y-96731430D01*
X289118376Y-96694545D01*
X289104325Y-96605829D01*
X289102800Y-96586444D01*
X289102800Y-93964355D01*
X289104324Y-93944971D01*
X289118376Y-93856250D01*
X289130360Y-93819371D01*
X289166651Y-93748146D01*
X289189448Y-93716770D01*
X289245970Y-93660248D01*
X289277346Y-93637451D01*
X289348571Y-93601160D01*
X289385454Y-93589176D01*
X289474169Y-93575125D01*
X289493556Y-93573600D01*
X291201244Y-93573600D01*
X291220629Y-93575125D01*
G37*
%TD.AperFunction*%
%TD*%
M02*
