%TF.GenerationSoftware,KiCad,Pcbnew,8.0.7-8.0.7-0~ubuntu24.04.1*%
%TF.CreationDate,2024-12-14T13:48:09-08:00*%
%TF.ProjectId,CAN_terminator,43414e5f-7465-4726-9d69-6e61746f722e,V1*%
%TF.SameCoordinates,Original*%
%TF.FileFunction,Legend,Bot*%
%TF.FilePolarity,Positive*%
%FSLAX46Y46*%
G04 Gerber Fmt 4.6, Leading zero omitted, Abs format (unit mm)*
G04 Created by KiCad (PCBNEW 8.0.7-8.0.7-0~ubuntu24.04.1) date 2024-12-14 13:48:09*
%MOMM*%
%LPD*%
G01*
G04 APERTURE LIST*
%ADD10C,0.152400*%
%ADD11C,0.000000*%
G04 APERTURE END LIST*
D10*
X155492145Y-119017142D02*
X155455860Y-119053428D01*
X155455860Y-119053428D02*
X155419574Y-119162285D01*
X155419574Y-119162285D02*
X155419574Y-119234857D01*
X155419574Y-119234857D02*
X155455860Y-119343714D01*
X155455860Y-119343714D02*
X155528431Y-119416285D01*
X155528431Y-119416285D02*
X155601002Y-119452571D01*
X155601002Y-119452571D02*
X155746145Y-119488857D01*
X155746145Y-119488857D02*
X155855002Y-119488857D01*
X155855002Y-119488857D02*
X156000145Y-119452571D01*
X156000145Y-119452571D02*
X156072717Y-119416285D01*
X156072717Y-119416285D02*
X156145288Y-119343714D01*
X156145288Y-119343714D02*
X156181574Y-119234857D01*
X156181574Y-119234857D02*
X156181574Y-119162285D01*
X156181574Y-119162285D02*
X156145288Y-119053428D01*
X156145288Y-119053428D02*
X156109002Y-119017142D01*
X155637288Y-118726857D02*
X155637288Y-118364000D01*
X155419574Y-118799428D02*
X156181574Y-118545428D01*
X156181574Y-118545428D02*
X155419574Y-118291428D01*
X155419574Y-118037428D02*
X156181574Y-118037428D01*
X156181574Y-118037428D02*
X155419574Y-117601999D01*
X155419574Y-117601999D02*
X156181574Y-117601999D01*
X154954797Y-121593428D02*
X154954797Y-121158000D01*
X154192797Y-121375714D02*
X154954797Y-121375714D01*
X154591940Y-120904000D02*
X154591940Y-120650000D01*
X154192797Y-120541143D02*
X154192797Y-120904000D01*
X154192797Y-120904000D02*
X154954797Y-120904000D01*
X154954797Y-120904000D02*
X154954797Y-120541143D01*
X154192797Y-119779142D02*
X154555654Y-120033142D01*
X154192797Y-120214571D02*
X154954797Y-120214571D01*
X154954797Y-120214571D02*
X154954797Y-119924285D01*
X154954797Y-119924285D02*
X154918511Y-119851714D01*
X154918511Y-119851714D02*
X154882225Y-119815428D01*
X154882225Y-119815428D02*
X154809654Y-119779142D01*
X154809654Y-119779142D02*
X154700797Y-119779142D01*
X154700797Y-119779142D02*
X154628225Y-119815428D01*
X154628225Y-119815428D02*
X154591940Y-119851714D01*
X154591940Y-119851714D02*
X154555654Y-119924285D01*
X154555654Y-119924285D02*
X154555654Y-120214571D01*
X154192797Y-119452571D02*
X154954797Y-119452571D01*
X154954797Y-119452571D02*
X154410511Y-119198571D01*
X154410511Y-119198571D02*
X154954797Y-118944571D01*
X154954797Y-118944571D02*
X154192797Y-118944571D01*
X154192797Y-118581714D02*
X154954797Y-118581714D01*
X154192797Y-118218857D02*
X154954797Y-118218857D01*
X154954797Y-118218857D02*
X154192797Y-117783428D01*
X154192797Y-117783428D02*
X154954797Y-117783428D01*
X154410511Y-117456857D02*
X154410511Y-117094000D01*
X154192797Y-117529428D02*
X154954797Y-117275428D01*
X154954797Y-117275428D02*
X154192797Y-117021428D01*
X154954797Y-116876285D02*
X154954797Y-116440857D01*
X154192797Y-116658571D02*
X154954797Y-116658571D01*
X154954797Y-116041714D02*
X154954797Y-115896571D01*
X154954797Y-115896571D02*
X154918511Y-115824000D01*
X154918511Y-115824000D02*
X154845940Y-115751428D01*
X154845940Y-115751428D02*
X154700797Y-115715143D01*
X154700797Y-115715143D02*
X154446797Y-115715143D01*
X154446797Y-115715143D02*
X154301654Y-115751428D01*
X154301654Y-115751428D02*
X154229083Y-115824000D01*
X154229083Y-115824000D02*
X154192797Y-115896571D01*
X154192797Y-115896571D02*
X154192797Y-116041714D01*
X154192797Y-116041714D02*
X154229083Y-116114286D01*
X154229083Y-116114286D02*
X154301654Y-116186857D01*
X154301654Y-116186857D02*
X154446797Y-116223143D01*
X154446797Y-116223143D02*
X154700797Y-116223143D01*
X154700797Y-116223143D02*
X154845940Y-116186857D01*
X154845940Y-116186857D02*
X154918511Y-116114286D01*
X154918511Y-116114286D02*
X154954797Y-116041714D01*
X154192797Y-114953142D02*
X154555654Y-115207142D01*
X154192797Y-115388571D02*
X154954797Y-115388571D01*
X154954797Y-115388571D02*
X154954797Y-115098285D01*
X154954797Y-115098285D02*
X154918511Y-115025714D01*
X154918511Y-115025714D02*
X154882225Y-114989428D01*
X154882225Y-114989428D02*
X154809654Y-114953142D01*
X154809654Y-114953142D02*
X154700797Y-114953142D01*
X154700797Y-114953142D02*
X154628225Y-114989428D01*
X154628225Y-114989428D02*
X154591940Y-115025714D01*
X154591940Y-115025714D02*
X154555654Y-115098285D01*
X154555654Y-115098285D02*
X154555654Y-115388571D01*
X153728020Y-121248713D02*
X152966020Y-121067285D01*
X152966020Y-121067285D02*
X153510306Y-120922142D01*
X153510306Y-120922142D02*
X152966020Y-120776999D01*
X152966020Y-120776999D02*
X153728020Y-120595571D01*
X153038591Y-119869856D02*
X153002306Y-119906142D01*
X153002306Y-119906142D02*
X152966020Y-120014999D01*
X152966020Y-120014999D02*
X152966020Y-120087571D01*
X152966020Y-120087571D02*
X153002306Y-120196428D01*
X153002306Y-120196428D02*
X153074877Y-120268999D01*
X153074877Y-120268999D02*
X153147448Y-120305285D01*
X153147448Y-120305285D02*
X153292591Y-120341571D01*
X153292591Y-120341571D02*
X153401448Y-120341571D01*
X153401448Y-120341571D02*
X153546591Y-120305285D01*
X153546591Y-120305285D02*
X153619163Y-120268999D01*
X153619163Y-120268999D02*
X153691734Y-120196428D01*
X153691734Y-120196428D02*
X153728020Y-120087571D01*
X153728020Y-120087571D02*
X153728020Y-120014999D01*
X153728020Y-120014999D02*
X153691734Y-119906142D01*
X153691734Y-119906142D02*
X153655448Y-119869856D01*
X152966020Y-119543285D02*
X153728020Y-119543285D01*
X153728020Y-119543285D02*
X153728020Y-119252999D01*
X153728020Y-119252999D02*
X153691734Y-119180428D01*
X153691734Y-119180428D02*
X153655448Y-119144142D01*
X153655448Y-119144142D02*
X153582877Y-119107856D01*
X153582877Y-119107856D02*
X153474020Y-119107856D01*
X153474020Y-119107856D02*
X153401448Y-119144142D01*
X153401448Y-119144142D02*
X153365163Y-119180428D01*
X153365163Y-119180428D02*
X153328877Y-119252999D01*
X153328877Y-119252999D02*
X153328877Y-119543285D01*
X153256306Y-118781285D02*
X153256306Y-118200714D01*
X152966020Y-117438713D02*
X152966020Y-117874142D01*
X152966020Y-117656427D02*
X153728020Y-117656427D01*
X153728020Y-117656427D02*
X153619163Y-117728999D01*
X153619163Y-117728999D02*
X153546591Y-117801570D01*
X153546591Y-117801570D02*
X153510306Y-117874142D01*
X153401448Y-117003285D02*
X153437734Y-117075856D01*
X153437734Y-117075856D02*
X153474020Y-117112142D01*
X153474020Y-117112142D02*
X153546591Y-117148428D01*
X153546591Y-117148428D02*
X153582877Y-117148428D01*
X153582877Y-117148428D02*
X153655448Y-117112142D01*
X153655448Y-117112142D02*
X153691734Y-117075856D01*
X153691734Y-117075856D02*
X153728020Y-117003285D01*
X153728020Y-117003285D02*
X153728020Y-116858142D01*
X153728020Y-116858142D02*
X153691734Y-116785571D01*
X153691734Y-116785571D02*
X153655448Y-116749285D01*
X153655448Y-116749285D02*
X153582877Y-116712999D01*
X153582877Y-116712999D02*
X153546591Y-116712999D01*
X153546591Y-116712999D02*
X153474020Y-116749285D01*
X153474020Y-116749285D02*
X153437734Y-116785571D01*
X153437734Y-116785571D02*
X153401448Y-116858142D01*
X153401448Y-116858142D02*
X153401448Y-117003285D01*
X153401448Y-117003285D02*
X153365163Y-117075856D01*
X153365163Y-117075856D02*
X153328877Y-117112142D01*
X153328877Y-117112142D02*
X153256306Y-117148428D01*
X153256306Y-117148428D02*
X153111163Y-117148428D01*
X153111163Y-117148428D02*
X153038591Y-117112142D01*
X153038591Y-117112142D02*
X153002306Y-117075856D01*
X153002306Y-117075856D02*
X152966020Y-117003285D01*
X152966020Y-117003285D02*
X152966020Y-116858142D01*
X152966020Y-116858142D02*
X153002306Y-116785571D01*
X153002306Y-116785571D02*
X153038591Y-116749285D01*
X153038591Y-116749285D02*
X153111163Y-116712999D01*
X153111163Y-116712999D02*
X153256306Y-116712999D01*
X153256306Y-116712999D02*
X153328877Y-116749285D01*
X153328877Y-116749285D02*
X153365163Y-116785571D01*
X153365163Y-116785571D02*
X153401448Y-116858142D01*
X153728020Y-116458999D02*
X153728020Y-115987285D01*
X153728020Y-115987285D02*
X153437734Y-116241285D01*
X153437734Y-116241285D02*
X153437734Y-116132428D01*
X153437734Y-116132428D02*
X153401448Y-116059857D01*
X153401448Y-116059857D02*
X153365163Y-116023571D01*
X153365163Y-116023571D02*
X153292591Y-115987285D01*
X153292591Y-115987285D02*
X153111163Y-115987285D01*
X153111163Y-115987285D02*
X153038591Y-116023571D01*
X153038591Y-116023571D02*
X153002306Y-116059857D01*
X153002306Y-116059857D02*
X152966020Y-116132428D01*
X152966020Y-116132428D02*
X152966020Y-116350142D01*
X152966020Y-116350142D02*
X153002306Y-116422714D01*
X153002306Y-116422714D02*
X153038591Y-116458999D01*
X153474020Y-115334143D02*
X152966020Y-115334143D01*
X153764306Y-115515571D02*
X153220020Y-115697000D01*
X153220020Y-115697000D02*
X153220020Y-115225285D01*
X152501243Y-120595570D02*
X151739243Y-120341570D01*
X151739243Y-120341570D02*
X152501243Y-120087570D01*
X151739243Y-119434427D02*
X151739243Y-119869856D01*
X151739243Y-119652141D02*
X152501243Y-119652141D01*
X152501243Y-119652141D02*
X152392386Y-119724713D01*
X152392386Y-119724713D02*
X152319814Y-119797284D01*
X152319814Y-119797284D02*
X152283529Y-119869856D01*
X152428671Y-118563571D02*
X152464957Y-118527285D01*
X152464957Y-118527285D02*
X152501243Y-118454714D01*
X152501243Y-118454714D02*
X152501243Y-118273285D01*
X152501243Y-118273285D02*
X152464957Y-118200714D01*
X152464957Y-118200714D02*
X152428671Y-118164428D01*
X152428671Y-118164428D02*
X152356100Y-118128142D01*
X152356100Y-118128142D02*
X152283529Y-118128142D01*
X152283529Y-118128142D02*
X152174671Y-118164428D01*
X152174671Y-118164428D02*
X151739243Y-118599856D01*
X151739243Y-118599856D02*
X151739243Y-118128142D01*
X152501243Y-117656428D02*
X152501243Y-117583857D01*
X152501243Y-117583857D02*
X152464957Y-117511285D01*
X152464957Y-117511285D02*
X152428671Y-117475000D01*
X152428671Y-117475000D02*
X152356100Y-117438714D01*
X152356100Y-117438714D02*
X152210957Y-117402428D01*
X152210957Y-117402428D02*
X152029529Y-117402428D01*
X152029529Y-117402428D02*
X151884386Y-117438714D01*
X151884386Y-117438714D02*
X151811814Y-117475000D01*
X151811814Y-117475000D02*
X151775529Y-117511285D01*
X151775529Y-117511285D02*
X151739243Y-117583857D01*
X151739243Y-117583857D02*
X151739243Y-117656428D01*
X151739243Y-117656428D02*
X151775529Y-117729000D01*
X151775529Y-117729000D02*
X151811814Y-117765285D01*
X151811814Y-117765285D02*
X151884386Y-117801571D01*
X151884386Y-117801571D02*
X152029529Y-117837857D01*
X152029529Y-117837857D02*
X152210957Y-117837857D01*
X152210957Y-117837857D02*
X152356100Y-117801571D01*
X152356100Y-117801571D02*
X152428671Y-117765285D01*
X152428671Y-117765285D02*
X152464957Y-117729000D01*
X152464957Y-117729000D02*
X152501243Y-117656428D01*
X152428671Y-117112143D02*
X152464957Y-117075857D01*
X152464957Y-117075857D02*
X152501243Y-117003286D01*
X152501243Y-117003286D02*
X152501243Y-116821857D01*
X152501243Y-116821857D02*
X152464957Y-116749286D01*
X152464957Y-116749286D02*
X152428671Y-116713000D01*
X152428671Y-116713000D02*
X152356100Y-116676714D01*
X152356100Y-116676714D02*
X152283529Y-116676714D01*
X152283529Y-116676714D02*
X152174671Y-116713000D01*
X152174671Y-116713000D02*
X151739243Y-117148428D01*
X151739243Y-117148428D02*
X151739243Y-116676714D01*
X152247243Y-116023572D02*
X151739243Y-116023572D01*
X152537529Y-116205000D02*
X151993243Y-116386429D01*
X151993243Y-116386429D02*
X151993243Y-115914714D01*
D11*
%TO.C,G\u002A\u002A\u002A*%
G36*
X148693447Y-117684238D02*
G01*
X148716167Y-117685346D01*
X148742204Y-117687110D01*
X148752462Y-117687946D01*
X148789744Y-117692266D01*
X148818794Y-117698455D01*
X148841135Y-117707269D01*
X148858289Y-117719462D01*
X148871780Y-117735791D01*
X148883128Y-117757010D01*
X148884610Y-117760618D01*
X148886372Y-117766398D01*
X148887861Y-117773927D01*
X148889107Y-117784047D01*
X148890138Y-117797599D01*
X148890986Y-117815424D01*
X148891680Y-117838363D01*
X148892250Y-117867257D01*
X148892727Y-117902946D01*
X148893139Y-117946273D01*
X148893517Y-117998077D01*
X148893891Y-118059200D01*
X148894149Y-118112309D01*
X148894290Y-118175889D01*
X148894184Y-118229879D01*
X148893827Y-118274605D01*
X148893215Y-118310395D01*
X148892344Y-118337573D01*
X148891210Y-118356469D01*
X148889807Y-118367406D01*
X148884272Y-118384587D01*
X148868364Y-118411313D01*
X148846080Y-118433584D01*
X148819777Y-118448667D01*
X148819628Y-118448724D01*
X148813450Y-118450836D01*
X148806305Y-118452599D01*
X148797275Y-118454045D01*
X148785439Y-118455205D01*
X148769879Y-118456110D01*
X148749675Y-118456792D01*
X148723908Y-118457282D01*
X148691658Y-118457610D01*
X148652007Y-118457809D01*
X148604034Y-118457909D01*
X148546820Y-118457942D01*
X148512961Y-118457938D01*
X148460600Y-118457871D01*
X148416946Y-118457705D01*
X148381072Y-118457410D01*
X148352051Y-118456956D01*
X148328954Y-118456316D01*
X148310855Y-118455459D01*
X148296827Y-118454358D01*
X148285940Y-118452983D01*
X148277270Y-118451306D01*
X148269886Y-118449296D01*
X148248977Y-118440681D01*
X148223383Y-118421623D01*
X148204980Y-118395467D01*
X148194012Y-118362494D01*
X148193726Y-118360602D01*
X148192815Y-118347945D01*
X148192019Y-118326705D01*
X148191338Y-118298102D01*
X148190775Y-118263356D01*
X148190333Y-118223690D01*
X148190014Y-118180324D01*
X148189820Y-118134479D01*
X148189753Y-118087376D01*
X148189815Y-118040236D01*
X148190010Y-117994280D01*
X148190338Y-117950729D01*
X148190802Y-117910804D01*
X148191404Y-117875726D01*
X148192148Y-117846716D01*
X148193033Y-117824995D01*
X148193768Y-117811964D01*
X148195435Y-117788374D01*
X148197456Y-117771675D01*
X148200293Y-117759592D01*
X148204406Y-117749854D01*
X148210259Y-117740186D01*
X148214891Y-117734000D01*
X148230252Y-117718375D01*
X148247118Y-117705861D01*
X148248818Y-117704875D01*
X148258336Y-117699918D01*
X148268323Y-117696221D01*
X148280716Y-117693439D01*
X148297450Y-117691222D01*
X148320460Y-117689224D01*
X148351684Y-117687096D01*
X148356808Y-117686774D01*
X148389475Y-117685092D01*
X148414417Y-117684515D01*
X148430843Y-117685046D01*
X148437963Y-117686691D01*
X148439560Y-117689802D01*
X148443355Y-117701556D01*
X148448249Y-117719749D01*
X148453747Y-117742198D01*
X148459359Y-117766727D01*
X148464590Y-117791153D01*
X148468948Y-117813299D01*
X148471942Y-117830985D01*
X148473077Y-117842030D01*
X148473160Y-117856000D01*
X148402040Y-117856000D01*
X148330920Y-117856000D01*
X148330920Y-118071900D01*
X148330920Y-118287800D01*
X148546820Y-118287800D01*
X148762720Y-118287800D01*
X148762720Y-118072681D01*
X148762720Y-117857562D01*
X148700911Y-117854238D01*
X148699948Y-117854186D01*
X148676093Y-117852722D01*
X148656253Y-117851186D01*
X148642473Y-117849756D01*
X148636798Y-117848612D01*
X148636578Y-117846312D01*
X148637349Y-117835504D01*
X148639353Y-117817479D01*
X148642388Y-117793992D01*
X148646249Y-117766799D01*
X148647769Y-117756684D01*
X148652955Y-117725220D01*
X148657496Y-117703111D01*
X148661533Y-117689749D01*
X148665205Y-117684525D01*
X148666293Y-117684272D01*
X148676128Y-117683857D01*
X148693447Y-117684238D01*
G37*
G36*
X148692447Y-116698657D02*
G01*
X148822833Y-116700300D01*
X148844847Y-116715766D01*
X148851264Y-116720785D01*
X148867269Y-116736892D01*
X148879560Y-116753866D01*
X148892260Y-116776500D01*
X148895312Y-117114320D01*
X148895549Y-117141367D01*
X148896000Y-117197771D01*
X148896364Y-117250787D01*
X148896639Y-117299570D01*
X148896822Y-117343272D01*
X148896911Y-117381047D01*
X148896904Y-117412049D01*
X148896799Y-117435432D01*
X148896592Y-117450348D01*
X148896282Y-117455950D01*
X148895871Y-117456123D01*
X148888192Y-117456773D01*
X148871606Y-117457359D01*
X148847115Y-117457882D01*
X148815720Y-117458340D01*
X148778423Y-117458732D01*
X148736227Y-117459059D01*
X148690133Y-117459319D01*
X148689476Y-117459322D01*
X148641143Y-117459511D01*
X148590259Y-117459637D01*
X148538483Y-117459694D01*
X148486816Y-117459682D01*
X148436261Y-117459600D01*
X148387820Y-117459449D01*
X148342494Y-117459226D01*
X148301285Y-117458933D01*
X148265196Y-117458567D01*
X148235227Y-117458129D01*
X148212382Y-117457618D01*
X148197661Y-117457033D01*
X148192067Y-117456374D01*
X148191682Y-117455775D01*
X148190114Y-117447421D01*
X148189085Y-117431701D01*
X148188563Y-117410805D01*
X148188516Y-117386924D01*
X148188914Y-117362248D01*
X148189724Y-117338967D01*
X148190916Y-117319271D01*
X148192458Y-117305350D01*
X148194318Y-117299396D01*
X148198370Y-117298586D01*
X148211572Y-117297400D01*
X148232385Y-117296145D01*
X148259361Y-117294896D01*
X148291054Y-117293725D01*
X148326015Y-117292706D01*
X148353240Y-117291956D01*
X148385400Y-117290909D01*
X148412998Y-117289828D01*
X148434637Y-117288774D01*
X148448915Y-117287811D01*
X148454435Y-117287000D01*
X148454496Y-117286858D01*
X148455079Y-117280237D01*
X148455805Y-117264564D01*
X148456647Y-117240825D01*
X148457576Y-117210003D01*
X148458565Y-117173083D01*
X148459586Y-117131050D01*
X148460610Y-117084888D01*
X148461609Y-117035580D01*
X148462647Y-116982360D01*
X148463746Y-116930492D01*
X148464874Y-116887114D01*
X148464941Y-116885259D01*
X148595080Y-116885259D01*
X148595080Y-117085606D01*
X148595091Y-117116131D01*
X148595177Y-117161520D01*
X148595379Y-117198206D01*
X148595734Y-117227116D01*
X148596278Y-117249174D01*
X148597048Y-117265304D01*
X148598080Y-117276430D01*
X148599411Y-117283478D01*
X148601078Y-117287372D01*
X148603116Y-117289037D01*
X148605893Y-117289599D01*
X148618004Y-117290596D01*
X148637290Y-117291396D01*
X148661773Y-117291928D01*
X148689476Y-117292120D01*
X148767800Y-117292120D01*
X148767679Y-117102890D01*
X148767679Y-117102585D01*
X148767526Y-117058851D01*
X148767146Y-117017607D01*
X148766570Y-116980132D01*
X148765825Y-116947702D01*
X148764942Y-116921598D01*
X148763950Y-116903096D01*
X148762879Y-116893477D01*
X148762784Y-116893072D01*
X148758977Y-116880252D01*
X148753433Y-116871277D01*
X148744470Y-116865471D01*
X148730405Y-116862160D01*
X148709555Y-116860668D01*
X148680239Y-116860320D01*
X148663194Y-116860358D01*
X148642662Y-116860731D01*
X148628914Y-116861804D01*
X148619869Y-116863933D01*
X148613441Y-116867476D01*
X148607550Y-116872790D01*
X148595080Y-116885259D01*
X148464941Y-116885259D01*
X148466158Y-116851335D01*
X148467720Y-116822267D01*
X148469687Y-116799022D01*
X148472182Y-116780710D01*
X148475331Y-116766442D01*
X148479259Y-116755330D01*
X148484090Y-116746485D01*
X148489949Y-116739017D01*
X148496960Y-116732038D01*
X148505249Y-116724660D01*
X148512601Y-116718503D01*
X148522257Y-116711836D01*
X148532981Y-116706725D01*
X148546070Y-116702991D01*
X148562824Y-116700454D01*
X148584540Y-116698932D01*
X148612517Y-116698245D01*
X148648053Y-116698214D01*
X148692447Y-116698657D01*
G37*
G36*
X148894422Y-118571962D02*
G01*
X148898066Y-118580983D01*
X148898067Y-118580987D01*
X148899128Y-118591173D01*
X148899373Y-118608056D01*
X148898931Y-118629229D01*
X148897929Y-118652284D01*
X148896498Y-118674812D01*
X148894764Y-118694405D01*
X148892857Y-118708655D01*
X148890905Y-118715153D01*
X148887301Y-118716832D01*
X148874966Y-118721780D01*
X148854835Y-118729552D01*
X148827883Y-118739783D01*
X148795079Y-118752106D01*
X148757396Y-118766154D01*
X148715806Y-118781561D01*
X148671280Y-118797960D01*
X148635902Y-118810954D01*
X148593335Y-118826591D01*
X148554341Y-118840917D01*
X148519914Y-118853567D01*
X148491049Y-118864176D01*
X148468739Y-118872377D01*
X148453978Y-118877807D01*
X148447760Y-118880100D01*
X148447703Y-118880122D01*
X148445405Y-118881179D01*
X148444532Y-118882493D01*
X148445807Y-118884390D01*
X148449959Y-118887193D01*
X148457713Y-118891229D01*
X148469794Y-118896822D01*
X148486929Y-118904296D01*
X148509843Y-118913978D01*
X148539264Y-118926191D01*
X148575916Y-118941261D01*
X148620526Y-118959512D01*
X148673820Y-118981270D01*
X148704159Y-118993695D01*
X148746072Y-119011011D01*
X148784583Y-119027097D01*
X148818688Y-119041523D01*
X148847385Y-119053861D01*
X148869670Y-119063683D01*
X148884539Y-119070559D01*
X148890990Y-119074061D01*
X148892913Y-119076000D01*
X148896417Y-119082371D01*
X148898544Y-119092764D01*
X148899597Y-119109222D01*
X148899880Y-119133786D01*
X148899857Y-119140226D01*
X148899013Y-119166482D01*
X148896921Y-119183212D01*
X148893530Y-119190888D01*
X148888831Y-119193242D01*
X148875446Y-119199104D01*
X148854433Y-119207973D01*
X148826758Y-119219450D01*
X148793386Y-119233140D01*
X148755282Y-119248642D01*
X148713412Y-119265560D01*
X148668740Y-119283497D01*
X148629070Y-119299414D01*
X148586993Y-119316384D01*
X148548636Y-119331945D01*
X148514952Y-119345707D01*
X148486895Y-119357276D01*
X148465418Y-119366264D01*
X148451475Y-119372277D01*
X148446017Y-119374925D01*
X148445953Y-119374990D01*
X148446172Y-119376573D01*
X148449484Y-119379100D01*
X148456532Y-119382829D01*
X148467959Y-119388019D01*
X148484409Y-119394929D01*
X148506526Y-119403817D01*
X148534952Y-119414942D01*
X148570331Y-119428564D01*
X148613307Y-119444940D01*
X148664522Y-119464330D01*
X148724620Y-119486993D01*
X148744253Y-119494434D01*
X148780715Y-119508516D01*
X148813865Y-119521655D01*
X148842458Y-119533337D01*
X148865250Y-119543051D01*
X148880995Y-119550281D01*
X148888450Y-119554517D01*
X148888855Y-119554879D01*
X148894634Y-119561430D01*
X148897973Y-119569916D01*
X148899510Y-119583073D01*
X148899880Y-119603640D01*
X148899671Y-119624285D01*
X148898538Y-119654917D01*
X148896563Y-119681324D01*
X148893907Y-119702022D01*
X148890732Y-119715529D01*
X148887199Y-119720360D01*
X148886882Y-119720301D01*
X148879785Y-119717921D01*
X148864289Y-119712325D01*
X148841320Y-119703865D01*
X148811801Y-119692889D01*
X148776656Y-119679748D01*
X148736808Y-119664792D01*
X148693182Y-119648372D01*
X148646701Y-119630836D01*
X148598288Y-119612536D01*
X148548868Y-119593821D01*
X148499365Y-119575042D01*
X148450702Y-119556548D01*
X148403803Y-119538689D01*
X148359591Y-119521817D01*
X148318991Y-119506279D01*
X148282927Y-119492428D01*
X148252321Y-119480613D01*
X148228099Y-119471183D01*
X148211183Y-119464490D01*
X148202497Y-119460883D01*
X148188373Y-119454430D01*
X148189797Y-119395775D01*
X148191220Y-119337121D01*
X148424614Y-119240630D01*
X148658008Y-119144138D01*
X148625274Y-119129400D01*
X148622212Y-119128048D01*
X148607393Y-119121750D01*
X148584768Y-119112339D01*
X148555549Y-119100311D01*
X148520948Y-119086161D01*
X148482175Y-119070386D01*
X148440442Y-119053481D01*
X148396960Y-119035943D01*
X148377497Y-119028096D01*
X148336435Y-119011456D01*
X148298665Y-118996035D01*
X148265211Y-118982257D01*
X148237097Y-118970549D01*
X148215346Y-118961335D01*
X148200983Y-118955040D01*
X148195030Y-118952090D01*
X148193597Y-118950020D01*
X148190862Y-118939060D01*
X148189130Y-118921847D01*
X148188394Y-118901102D01*
X148188648Y-118879550D01*
X148189886Y-118859913D01*
X148192101Y-118844916D01*
X148195289Y-118837280D01*
X148198229Y-118835673D01*
X148210066Y-118830410D01*
X148229880Y-118822138D01*
X148256736Y-118811220D01*
X148289699Y-118798017D01*
X148327832Y-118782892D01*
X148370200Y-118766206D01*
X148415869Y-118748322D01*
X148463902Y-118729600D01*
X148513365Y-118710404D01*
X148563322Y-118691096D01*
X148612837Y-118672037D01*
X148660976Y-118653589D01*
X148706802Y-118636114D01*
X148749381Y-118619975D01*
X148787777Y-118605533D01*
X148821054Y-118593151D01*
X148848278Y-118583189D01*
X148868513Y-118576011D01*
X148880823Y-118571979D01*
X148887633Y-118570347D01*
X148894422Y-118571962D01*
G37*
G36*
X149011690Y-115698525D02*
G01*
X149033332Y-115701132D01*
X149062066Y-115706220D01*
X149098554Y-115713899D01*
X149143453Y-115724278D01*
X149197425Y-115737464D01*
X149218679Y-115742802D01*
X149283136Y-115759591D01*
X149340741Y-115775549D01*
X149391048Y-115790525D01*
X149433608Y-115804368D01*
X149467975Y-115816927D01*
X149493701Y-115828051D01*
X149510339Y-115837590D01*
X149517441Y-115845393D01*
X149517640Y-115846406D01*
X149518247Y-115856248D01*
X149518642Y-115874779D01*
X149518825Y-115900839D01*
X149518795Y-115933271D01*
X149518554Y-115970916D01*
X149518100Y-116012616D01*
X149517434Y-116057212D01*
X149517222Y-116070273D01*
X149516644Y-116113844D01*
X149516308Y-116153987D01*
X149516208Y-116189580D01*
X149516342Y-116219502D01*
X149516705Y-116242632D01*
X149517295Y-116257847D01*
X149518107Y-116264026D01*
X149518307Y-116264266D01*
X149524898Y-116269142D01*
X149538989Y-116278059D01*
X149559328Y-116290312D01*
X149584665Y-116305198D01*
X149613746Y-116322011D01*
X149645320Y-116340046D01*
X149678134Y-116358598D01*
X149710937Y-116376964D01*
X149742477Y-116394437D01*
X149771502Y-116410314D01*
X149796759Y-116423890D01*
X149816997Y-116434459D01*
X149830963Y-116441318D01*
X149837407Y-116443760D01*
X149838405Y-116443557D01*
X149847219Y-116439704D01*
X149863492Y-116431386D01*
X149886222Y-116419155D01*
X149914408Y-116403565D01*
X149947047Y-116385167D01*
X149983137Y-116364515D01*
X150021676Y-116342160D01*
X150032772Y-116335693D01*
X150070701Y-116313768D01*
X150105883Y-116293700D01*
X150137320Y-116276043D01*
X150164011Y-116261348D01*
X150184957Y-116250167D01*
X150199156Y-116243054D01*
X150205611Y-116240560D01*
X150206917Y-116240737D01*
X150216872Y-116245776D01*
X150232762Y-116257155D01*
X150253691Y-116274058D01*
X150278764Y-116295665D01*
X150307086Y-116321162D01*
X150337760Y-116349728D01*
X150369892Y-116380549D01*
X150402587Y-116412805D01*
X150434948Y-116445679D01*
X150466081Y-116478355D01*
X150478956Y-116492154D01*
X150511212Y-116527169D01*
X150536931Y-116555910D01*
X150556626Y-116579021D01*
X150570809Y-116597145D01*
X150579994Y-116610924D01*
X150584693Y-116621002D01*
X150585419Y-116628021D01*
X150585082Y-116629078D01*
X150580735Y-116638126D01*
X150571915Y-116654611D01*
X150559192Y-116677525D01*
X150543138Y-116705858D01*
X150524322Y-116738600D01*
X150503316Y-116774743D01*
X150480690Y-116813277D01*
X150473647Y-116825222D01*
X150451626Y-116862712D01*
X150431478Y-116897221D01*
X150413756Y-116927789D01*
X150399011Y-116953457D01*
X150387795Y-116973266D01*
X150380661Y-116986257D01*
X150378160Y-116991470D01*
X150379212Y-116993985D01*
X150384793Y-117004223D01*
X150394527Y-117021039D01*
X150407673Y-117043177D01*
X150423492Y-117069383D01*
X150441242Y-117098401D01*
X150448204Y-117109759D01*
X150468083Y-117142675D01*
X150487413Y-117175323D01*
X150504980Y-117205620D01*
X150519572Y-117231481D01*
X150529974Y-117250822D01*
X150538822Y-117267568D01*
X150549347Y-117286259D01*
X150557947Y-117300179D01*
X150563338Y-117307159D01*
X150563536Y-117307310D01*
X150568334Y-117308960D01*
X150578134Y-117310339D01*
X150593671Y-117311471D01*
X150615683Y-117312381D01*
X150644906Y-117313092D01*
X150682078Y-117313628D01*
X150727936Y-117314013D01*
X150783216Y-117314270D01*
X150995380Y-117314980D01*
X151031786Y-117423907D01*
X151037896Y-117442480D01*
X151052293Y-117488454D01*
X151066333Y-117536172D01*
X151079709Y-117584366D01*
X151092117Y-117631767D01*
X151103252Y-117677106D01*
X151112807Y-117719115D01*
X151120478Y-117756525D01*
X151125960Y-117788067D01*
X151128947Y-117812473D01*
X151129133Y-117828473D01*
X151129110Y-117828668D01*
X151128061Y-117832611D01*
X151125376Y-117836879D01*
X151120253Y-117841989D01*
X151111890Y-117848459D01*
X151099484Y-117856806D01*
X151082234Y-117867546D01*
X151059336Y-117881198D01*
X151029990Y-117898279D01*
X150993392Y-117919306D01*
X150948741Y-117944795D01*
X150933790Y-117953320D01*
X150895824Y-117975009D01*
X150860991Y-117994966D01*
X150830241Y-118012644D01*
X150804524Y-118027494D01*
X150784789Y-118038969D01*
X150771988Y-118046520D01*
X150767069Y-118049599D01*
X150766387Y-118054975D01*
X150765708Y-118069392D01*
X150765071Y-118091684D01*
X150764497Y-118120696D01*
X150764009Y-118155274D01*
X150763630Y-118194263D01*
X150763383Y-118236509D01*
X150763310Y-118257052D01*
X150763237Y-118302807D01*
X150763354Y-118339701D01*
X150763692Y-118368668D01*
X150764283Y-118390641D01*
X150765157Y-118406552D01*
X150766346Y-118417335D01*
X150767882Y-118423922D01*
X150769796Y-118427248D01*
X150770478Y-118427787D01*
X150778442Y-118432854D01*
X150794031Y-118442142D01*
X150816246Y-118455078D01*
X150844085Y-118471085D01*
X150876550Y-118489588D01*
X150912638Y-118510009D01*
X150951351Y-118531774D01*
X150961743Y-118537609D01*
X150999634Y-118559065D01*
X151034462Y-118579066D01*
X151065255Y-118597036D01*
X151091043Y-118612398D01*
X151110853Y-118624574D01*
X151123714Y-118632988D01*
X151128656Y-118637063D01*
X151128670Y-118637101D01*
X151129065Y-118645897D01*
X151127389Y-118663052D01*
X151123914Y-118687052D01*
X151118914Y-118716383D01*
X151112660Y-118749533D01*
X151105425Y-118784988D01*
X151097482Y-118821235D01*
X151089102Y-118856760D01*
X151084459Y-118875342D01*
X151072661Y-118920070D01*
X151060180Y-118964333D01*
X151047408Y-119006957D01*
X151034739Y-119046769D01*
X151022567Y-119082595D01*
X151011284Y-119113259D01*
X151001284Y-119137589D01*
X150992959Y-119154410D01*
X150986704Y-119162547D01*
X150985346Y-119162919D01*
X150975271Y-119163706D01*
X150956555Y-119164268D01*
X150930284Y-119164599D01*
X150897547Y-119164694D01*
X150859431Y-119164548D01*
X150817023Y-119164158D01*
X150771412Y-119163516D01*
X150562683Y-119160095D01*
X150527008Y-119228138D01*
X150518291Y-119244558D01*
X150494868Y-119287132D01*
X150469569Y-119331285D01*
X150443973Y-119374338D01*
X150419662Y-119413613D01*
X150398216Y-119446430D01*
X150398010Y-119446734D01*
X150388003Y-119462553D01*
X150380876Y-119475817D01*
X150378161Y-119483683D01*
X150379324Y-119487839D01*
X150384836Y-119499762D01*
X150393847Y-119516566D01*
X150405210Y-119536032D01*
X150407039Y-119539057D01*
X150417690Y-119556825D01*
X150432336Y-119581421D01*
X150450050Y-119611280D01*
X150469905Y-119644836D01*
X150490972Y-119680525D01*
X150512323Y-119716781D01*
X150514646Y-119720730D01*
X150536610Y-119758164D01*
X150553909Y-119787938D01*
X150567026Y-119811029D01*
X150576442Y-119828418D01*
X150582640Y-119841084D01*
X150586104Y-119850006D01*
X150587314Y-119856163D01*
X150586754Y-119860535D01*
X150584907Y-119864101D01*
X150580391Y-119870252D01*
X150567970Y-119885417D01*
X150550375Y-119905735D01*
X150528811Y-119929902D01*
X150504482Y-119956610D01*
X150478594Y-119984552D01*
X150452350Y-120012423D01*
X150426956Y-120038915D01*
X150403615Y-120062722D01*
X150383532Y-120082538D01*
X150355876Y-120108757D01*
X150325501Y-120136670D01*
X150296309Y-120162637D01*
X150269320Y-120185803D01*
X150245551Y-120205316D01*
X150226022Y-120220319D01*
X150211750Y-120229960D01*
X150203754Y-120233382D01*
X150199937Y-120231884D01*
X150188058Y-120225860D01*
X150169342Y-120215796D01*
X150144873Y-120202310D01*
X150115733Y-120186020D01*
X150083009Y-120167543D01*
X150047784Y-120147497D01*
X150011143Y-120126498D01*
X149974169Y-120105166D01*
X149937947Y-120084117D01*
X149903562Y-120063968D01*
X149872097Y-120045339D01*
X149844637Y-120028845D01*
X149841508Y-120028379D01*
X149833077Y-120030749D01*
X149819293Y-120037063D01*
X149799370Y-120047728D01*
X149772520Y-120063147D01*
X149737957Y-120083727D01*
X149733080Y-120086658D01*
X149699360Y-120106673D01*
X149664403Y-120127042D01*
X149630682Y-120146346D01*
X149600672Y-120163168D01*
X149576845Y-120176090D01*
X149514669Y-120208875D01*
X149513345Y-120425231D01*
X149512020Y-120641588D01*
X149448520Y-120663963D01*
X149408327Y-120677612D01*
X149359346Y-120693123D01*
X149308263Y-120708278D01*
X149256541Y-120722708D01*
X149205643Y-120736043D01*
X149157034Y-120747914D01*
X149112176Y-120757953D01*
X149072534Y-120765790D01*
X149039570Y-120771055D01*
X149014749Y-120773380D01*
X148984837Y-120774460D01*
X148964456Y-120741440D01*
X148961155Y-120735987D01*
X148951378Y-120719392D01*
X148937811Y-120696005D01*
X148921239Y-120667190D01*
X148902443Y-120634312D01*
X148882208Y-120598735D01*
X148861316Y-120561821D01*
X148847743Y-120537801D01*
X148828890Y-120504511D01*
X148812028Y-120474827D01*
X148797757Y-120449799D01*
X148786675Y-120430475D01*
X148779381Y-120417906D01*
X148776473Y-120413140D01*
X148771212Y-120412658D01*
X148756919Y-120412188D01*
X148734745Y-120411752D01*
X148705836Y-120411364D01*
X148671340Y-120411040D01*
X148632403Y-120410796D01*
X148590171Y-120410646D01*
X148585443Y-120410636D01*
X148584748Y-120410635D01*
X148535712Y-120410605D01*
X148495850Y-120410755D01*
X148464269Y-120411113D01*
X148440072Y-120411709D01*
X148422366Y-120412575D01*
X148410255Y-120413740D01*
X148402844Y-120415234D01*
X148399238Y-120417087D01*
X148398785Y-120417640D01*
X148393864Y-120425281D01*
X148384696Y-120440571D01*
X148371859Y-120462507D01*
X148355934Y-120490086D01*
X148337499Y-120522306D01*
X148317136Y-120558165D01*
X148295422Y-120596660D01*
X148290304Y-120605760D01*
X148268974Y-120643576D01*
X148249227Y-120678426D01*
X148231625Y-120709326D01*
X148216731Y-120735294D01*
X148205110Y-120755345D01*
X148197325Y-120768497D01*
X148193939Y-120773767D01*
X148193196Y-120774188D01*
X148184337Y-120774707D01*
X148167417Y-120773305D01*
X148143936Y-120770242D01*
X148115395Y-120765778D01*
X148083297Y-120760172D01*
X148049140Y-120753683D01*
X148014428Y-120746570D01*
X147980659Y-120739093D01*
X147949337Y-120731511D01*
X147926205Y-120725482D01*
X147884094Y-120713897D01*
X147842314Y-120701693D01*
X147802050Y-120689275D01*
X147764490Y-120677045D01*
X147730818Y-120665405D01*
X147702223Y-120654759D01*
X147679889Y-120645510D01*
X147665003Y-120638060D01*
X147658751Y-120632812D01*
X147658437Y-120630144D01*
X147658138Y-120618267D01*
X147658121Y-120598232D01*
X147658374Y-120571295D01*
X147658883Y-120538712D01*
X147659633Y-120501742D01*
X147660612Y-120461640D01*
X147661071Y-120444059D01*
X147662128Y-120401972D01*
X147663087Y-120361709D01*
X147663909Y-120324938D01*
X147664560Y-120293323D01*
X147665002Y-120268532D01*
X147665199Y-120252231D01*
X147665440Y-120207522D01*
X147646748Y-120199712D01*
X147638935Y-120196253D01*
X147617119Y-120185574D01*
X147589313Y-120171031D01*
X147557311Y-120153623D01*
X147522907Y-120134348D01*
X147487893Y-120114204D01*
X147454064Y-120094190D01*
X147423212Y-120075302D01*
X147405888Y-120064666D01*
X147382538Y-120050978D01*
X147362643Y-120040067D01*
X147347894Y-120032850D01*
X147339981Y-120030241D01*
X147338587Y-120030552D01*
X147329079Y-120034746D01*
X147312190Y-120043405D01*
X147288914Y-120055978D01*
X147260249Y-120071913D01*
X147227190Y-120090660D01*
X147190732Y-120111666D01*
X147151871Y-120134381D01*
X147137341Y-120142924D01*
X147099625Y-120165008D01*
X147064934Y-120185194D01*
X147034219Y-120202935D01*
X147008435Y-120217684D01*
X146988534Y-120228896D01*
X146975469Y-120236023D01*
X146970193Y-120238521D01*
X146970046Y-120238499D01*
X146964405Y-120234756D01*
X146952588Y-120225309D01*
X146935841Y-120211205D01*
X146915408Y-120193489D01*
X146892532Y-120173208D01*
X146879584Y-120161493D01*
X146849715Y-120133723D01*
X146818118Y-120103466D01*
X146785617Y-120071588D01*
X146753037Y-120038954D01*
X146721202Y-120006426D01*
X146690937Y-119974871D01*
X146663066Y-119945153D01*
X146638414Y-119918136D01*
X146617805Y-119894685D01*
X146602063Y-119875665D01*
X146592014Y-119861939D01*
X146588480Y-119854372D01*
X146588894Y-119852912D01*
X146593311Y-119843561D01*
X146602124Y-119826822D01*
X146614793Y-119803668D01*
X146630775Y-119775072D01*
X146649528Y-119742006D01*
X146670512Y-119705445D01*
X146693184Y-119666360D01*
X146714637Y-119629368D01*
X146738673Y-119587338D01*
X146758815Y-119551400D01*
X146774785Y-119522070D01*
X146786302Y-119499864D01*
X146793086Y-119485298D01*
X146794857Y-119478888D01*
X146792819Y-119474900D01*
X146785967Y-119463024D01*
X146775346Y-119445310D01*
X146761928Y-119423372D01*
X146746683Y-119398827D01*
X146742509Y-119392108D01*
X146722296Y-119358601D01*
X146700432Y-119321082D01*
X146679287Y-119283666D01*
X146661232Y-119250467D01*
X146644376Y-119219476D01*
X146628710Y-119192987D01*
X146616768Y-119175819D01*
X146608513Y-119167915D01*
X146608139Y-119167735D01*
X146602274Y-119166134D01*
X146591996Y-119164912D01*
X146576484Y-119164058D01*
X146554918Y-119163561D01*
X146526478Y-119163409D01*
X146490344Y-119163591D01*
X146445695Y-119164096D01*
X146391710Y-119164911D01*
X146187320Y-119168266D01*
X146174461Y-119139190D01*
X146172220Y-119134057D01*
X146155941Y-119092960D01*
X146139410Y-119044434D01*
X146122475Y-118987943D01*
X146104981Y-118922951D01*
X146086776Y-118848922D01*
X146067708Y-118765320D01*
X146067057Y-118762364D01*
X146060327Y-118730931D01*
X146054453Y-118701967D01*
X146049790Y-118677332D01*
X146046690Y-118658884D01*
X146045506Y-118648480D01*
X146045172Y-118630700D01*
X146227539Y-118529585D01*
X146246071Y-118519292D01*
X146292485Y-118493311D01*
X146330556Y-118471647D01*
X146360770Y-118454007D01*
X146383612Y-118440098D01*
X146399568Y-118429626D01*
X146409124Y-118422300D01*
X146412764Y-118417825D01*
X146412874Y-118417340D01*
X146413686Y-118408148D01*
X146414349Y-118390667D01*
X146414866Y-118366316D01*
X146415239Y-118336515D01*
X146415473Y-118302682D01*
X146415571Y-118266237D01*
X146415552Y-118244974D01*
X146825296Y-118244974D01*
X146825669Y-118270903D01*
X146826440Y-118300458D01*
X146827559Y-118330980D01*
X146827817Y-118336841D01*
X146838772Y-118468712D01*
X146859432Y-118597644D01*
X146889751Y-118723498D01*
X146929686Y-118846139D01*
X146979192Y-118965429D01*
X147038226Y-119081234D01*
X147106743Y-119193417D01*
X147132762Y-119231672D01*
X147215400Y-119341990D01*
X147303913Y-119444301D01*
X147398066Y-119538453D01*
X147497621Y-119624291D01*
X147602341Y-119701663D01*
X147711988Y-119770417D01*
X147826326Y-119830398D01*
X147945118Y-119881456D01*
X148068125Y-119923435D01*
X148195112Y-119956184D01*
X148325840Y-119979550D01*
X148449153Y-119993158D01*
X148585443Y-119999237D01*
X148719019Y-119995549D01*
X148849818Y-119982112D01*
X148977775Y-119958943D01*
X149102824Y-119926059D01*
X149224902Y-119883478D01*
X149343943Y-119831217D01*
X149459883Y-119769293D01*
X149572657Y-119697724D01*
X149682200Y-119616527D01*
X149696957Y-119604454D01*
X149730097Y-119575702D01*
X149766955Y-119541967D01*
X149805883Y-119504887D01*
X149845232Y-119466101D01*
X149883354Y-119427248D01*
X149918601Y-119389964D01*
X149949323Y-119355889D01*
X149973873Y-119326660D01*
X150003316Y-119288735D01*
X150077626Y-119182893D01*
X150142695Y-119073952D01*
X150198684Y-118961479D01*
X150245757Y-118845040D01*
X150284075Y-118724204D01*
X150313803Y-118598537D01*
X150335101Y-118467607D01*
X150348134Y-118330980D01*
X150349644Y-118303980D01*
X150350790Y-118174644D01*
X150342014Y-118045644D01*
X150323507Y-117917624D01*
X150295456Y-117791231D01*
X150258051Y-117667110D01*
X150211482Y-117545908D01*
X150155937Y-117428271D01*
X150091606Y-117314843D01*
X150018677Y-117206272D01*
X149936058Y-117101021D01*
X149845674Y-117001768D01*
X149749074Y-116910378D01*
X149646599Y-116827049D01*
X149538586Y-116751981D01*
X149425375Y-116685373D01*
X149307304Y-116627424D01*
X149184713Y-116578333D01*
X149057939Y-116538298D01*
X148927322Y-116507520D01*
X148793200Y-116486197D01*
X148744243Y-116481364D01*
X148673173Y-116477439D01*
X148597333Y-116476243D01*
X148519558Y-116477709D01*
X148442685Y-116481773D01*
X148369547Y-116488371D01*
X148302980Y-116497436D01*
X148261175Y-116504840D01*
X148131814Y-116534374D01*
X148006201Y-116573083D01*
X147884726Y-116620622D01*
X147767774Y-116676647D01*
X147655735Y-116740813D01*
X147548995Y-116812774D01*
X147447942Y-116892186D01*
X147352963Y-116978704D01*
X147264447Y-117071982D01*
X147182781Y-117171675D01*
X147108353Y-117277440D01*
X147041550Y-117388929D01*
X146982760Y-117505799D01*
X146932371Y-117627705D01*
X146890770Y-117754302D01*
X146883388Y-117780947D01*
X146863053Y-117866767D01*
X146846900Y-117955155D01*
X146835521Y-118042512D01*
X146829511Y-118125240D01*
X146828523Y-118149846D01*
X146827380Y-118177510D01*
X146826344Y-118201757D01*
X146825557Y-118219220D01*
X146825366Y-118225330D01*
X146825296Y-118244974D01*
X146415552Y-118244974D01*
X146415537Y-118228598D01*
X146415373Y-118191185D01*
X146415084Y-118155417D01*
X146414672Y-118122713D01*
X146414142Y-118094492D01*
X146413496Y-118072173D01*
X146412739Y-118057176D01*
X146411873Y-118050919D01*
X146411295Y-118050367D01*
X146403862Y-118045428D01*
X146388787Y-118036290D01*
X146367043Y-118023518D01*
X146339606Y-118007675D01*
X146307450Y-117989325D01*
X146271550Y-117969031D01*
X146232880Y-117947359D01*
X146222438Y-117941526D01*
X146184196Y-117920080D01*
X146148835Y-117900121D01*
X146117356Y-117882222D01*
X146090759Y-117866957D01*
X146070046Y-117854900D01*
X146056217Y-117846623D01*
X146050272Y-117842701D01*
X146047304Y-117838719D01*
X146045837Y-117832240D01*
X146046081Y-117821499D01*
X146048083Y-117804588D01*
X146051893Y-117779597D01*
X146054693Y-117763280D01*
X146061592Y-117728479D01*
X146070394Y-117688882D01*
X146080723Y-117645825D01*
X146092203Y-117600645D01*
X146104458Y-117554680D01*
X146117111Y-117509266D01*
X146129786Y-117465741D01*
X146142107Y-117425442D01*
X146153697Y-117389705D01*
X146164180Y-117359868D01*
X146173181Y-117337268D01*
X146180322Y-117323242D01*
X146188218Y-117311184D01*
X146400252Y-117313307D01*
X146612287Y-117315431D01*
X146630753Y-117279646D01*
X146635521Y-117270459D01*
X146671009Y-117204829D01*
X146710155Y-117136596D01*
X146750405Y-117070231D01*
X146751333Y-117068744D01*
X146768049Y-117040955D01*
X146780761Y-117017833D01*
X146788847Y-117000586D01*
X146791680Y-116990421D01*
X146789315Y-116981968D01*
X146781896Y-116965533D01*
X146769883Y-116942312D01*
X146753745Y-116913208D01*
X146733950Y-116879125D01*
X146714012Y-116845366D01*
X146691379Y-116806920D01*
X146668552Y-116768038D01*
X146647327Y-116731778D01*
X146629497Y-116701195D01*
X146582774Y-116620810D01*
X146606416Y-116591975D01*
X146611831Y-116585425D01*
X146640816Y-116551667D01*
X146674642Y-116513954D01*
X146711097Y-116474644D01*
X146747970Y-116436093D01*
X146783049Y-116400658D01*
X146814121Y-116370694D01*
X146827759Y-116358025D01*
X146857761Y-116330561D01*
X146886242Y-116305013D01*
X146912224Y-116282225D01*
X146934726Y-116263036D01*
X146952770Y-116248288D01*
X146965375Y-116238823D01*
X146971563Y-116235480D01*
X146972653Y-116235705D01*
X146981141Y-116239484D01*
X146995178Y-116246963D01*
X147012365Y-116256884D01*
X147039010Y-116272782D01*
X147099545Y-116308823D01*
X147152042Y-116339952D01*
X147196960Y-116366433D01*
X147234757Y-116388529D01*
X147265893Y-116406502D01*
X147290825Y-116420618D01*
X147310012Y-116431138D01*
X147323912Y-116438326D01*
X147332984Y-116442446D01*
X147337686Y-116443760D01*
X147339085Y-116443527D01*
X147348884Y-116439551D01*
X147365435Y-116431256D01*
X147387279Y-116419425D01*
X147412958Y-116404841D01*
X147441011Y-116388289D01*
X147472093Y-116369881D01*
X147506426Y-116350040D01*
X147540054Y-116331047D01*
X147570328Y-116314397D01*
X147594602Y-116301584D01*
X147600011Y-116298800D01*
X147622231Y-116286776D01*
X147640687Y-116275869D01*
X147653587Y-116267183D01*
X147659136Y-116261824D01*
X147659429Y-116260235D01*
X147660129Y-116249649D01*
X147660779Y-116230477D01*
X147661362Y-116203841D01*
X147661859Y-116170863D01*
X147662252Y-116132662D01*
X147662523Y-116090361D01*
X147662654Y-116045080D01*
X147662900Y-115836863D01*
X147675600Y-115830825D01*
X147684156Y-115827343D01*
X147702244Y-115820920D01*
X147727149Y-115812609D01*
X147757243Y-115802910D01*
X147790898Y-115792323D01*
X147826487Y-115781351D01*
X147862381Y-115770493D01*
X147896954Y-115760251D01*
X147928576Y-115751126D01*
X147955622Y-115743618D01*
X147976462Y-115738230D01*
X148021847Y-115727528D01*
X148065418Y-115717858D01*
X148103798Y-115709984D01*
X148136064Y-115704074D01*
X148161290Y-115700297D01*
X148178553Y-115698822D01*
X148186929Y-115699816D01*
X148187793Y-115700679D01*
X148193470Y-115708810D01*
X148203341Y-115724508D01*
X148216829Y-115746801D01*
X148233355Y-115774718D01*
X148252343Y-115807285D01*
X148273215Y-115843531D01*
X148295395Y-115882484D01*
X148396043Y-116060220D01*
X148583192Y-116061448D01*
X148584422Y-116061456D01*
X148627116Y-116061630D01*
X148666656Y-116061599D01*
X148701874Y-116061379D01*
X148731602Y-116060984D01*
X148754674Y-116060431D01*
X148769920Y-116059733D01*
X148776175Y-116058908D01*
X148776624Y-116058463D01*
X148781425Y-116051391D01*
X148790480Y-116036663D01*
X148803217Y-116015257D01*
X148819063Y-115988151D01*
X148837445Y-115956324D01*
X148857790Y-115920754D01*
X148879525Y-115882420D01*
X148884404Y-115873785D01*
X148905970Y-115835770D01*
X148926069Y-115800587D01*
X148944116Y-115769241D01*
X148959528Y-115742737D01*
X148971721Y-115722079D01*
X148980113Y-115708273D01*
X148984118Y-115702324D01*
X148987046Y-115700323D01*
X148996482Y-115698292D01*
X149011690Y-115698525D01*
G37*
%TD*%
M02*
