%TF.GenerationSoftware,KiCad,Pcbnew,8.0.7-8.0.7-0~ubuntu24.04.1*%
%TF.CreationDate,2024-12-14T13:48:09-08:00*%
%TF.ProjectId,CAN_terminator,43414e5f-7465-4726-9d69-6e61746f722e,V1*%
%TF.SameCoordinates,Original*%
%TF.FileFunction,Legend,Top*%
%TF.FilePolarity,Positive*%
%FSLAX46Y46*%
G04 Gerber Fmt 4.6, Leading zero omitted, Abs format (unit mm)*
G04 Created by KiCad (PCBNEW 8.0.7-8.0.7-0~ubuntu24.04.1) date 2024-12-14 13:48:09*
%MOMM*%
%LPD*%
G01*
G04 APERTURE LIST*
%ADD10C,0.152400*%
%ADD11C,0.120000*%
G04 APERTURE END LIST*
D10*
X153885167Y-116199735D02*
X153885167Y-115183735D01*
X153885167Y-115667545D02*
X154465739Y-115667545D01*
X154465739Y-116199735D02*
X154465739Y-115183735D01*
X154368977Y-121452455D02*
X153885167Y-121452455D01*
X153885167Y-121452455D02*
X153885167Y-120436455D01*
X152920656Y-118738373D02*
X152581989Y-118254564D01*
X152340084Y-118738373D02*
X152340084Y-117722373D01*
X152340084Y-117722373D02*
X152727132Y-117722373D01*
X152727132Y-117722373D02*
X152823894Y-117770754D01*
X152823894Y-117770754D02*
X152872275Y-117819135D01*
X152872275Y-117819135D02*
X152920656Y-117915897D01*
X152920656Y-117915897D02*
X152920656Y-118061040D01*
X152920656Y-118061040D02*
X152872275Y-118157802D01*
X152872275Y-118157802D02*
X152823894Y-118206183D01*
X152823894Y-118206183D02*
X152727132Y-118254564D01*
X152727132Y-118254564D02*
X152340084Y-118254564D01*
X153888275Y-118738373D02*
X153307703Y-118738373D01*
X153597989Y-118738373D02*
X153597989Y-117722373D01*
X153597989Y-117722373D02*
X153501227Y-117867516D01*
X153501227Y-117867516D02*
X153404465Y-117964278D01*
X153404465Y-117964278D02*
X153307703Y-118012659D01*
D11*
%TO.C,R1*%
X154205000Y-118464064D02*
X154205000Y-118009936D01*
X155675000Y-118464064D02*
X155675000Y-118009936D01*
%TD*%
M02*
