M48
; DRILL file {KiCad 9.0.2-9.0.2-0~ubuntu24.04.1} date 2025-06-09T20:24:59-0700
; FORMAT={-:-/ absolute / metric / decimal}
; #@! TF.CreationDate,2025-06-09T20:24:59-07:00
; #@! TF.GenerationSoftware,Kicad,Pcbnew,9.0.2-9.0.2-0~ubuntu24.04.1
; #@! TF.FileFunction,MixedPlating,1,2
FMAT,2
METRIC
; #@! TA.AperFunction,Plated,PTH,ViaDrill
T1C0.457
; #@! TA.AperFunction,Plated,PTH,ComponentDrill
T2C1.000
; #@! TA.AperFunction,Plated,PTH,ComponentDrill
T3C1.067
; #@! TA.AperFunction,NonPlated,NPTH,ComponentDrill
T4C1.850
; #@! TA.AperFunction,NonPlated,NPTH,ComponentDrill
T5C2.200
; #@! TA.AperFunction,NonPlated,NPTH,ComponentDrill
T6C3.400
; #@! TA.AperFunction,NonPlated,NPTH,ComponentDrill
T7C3.500
%
G90
G05
T1
X180.975Y-151.638
X181.102Y-106.227
X207.899Y-133.274
X207.899Y-137.516
X212.776Y-129.489
X217.703Y-141.173
X219.405Y-144.767
X219.405Y-146.672
X220.066Y-134.645
X220.599Y-123.723
X221.463Y-144.767
X221.463Y-146.672
X222.567Y-140.767
X224.472Y-140.767
X224.79Y-135.509
T2
X171.196Y-114.173
X171.196Y-116.713
X171.196Y-119.253
X171.196Y-121.793
X171.196Y-124.333
X171.196Y-126.873
X171.196Y-129.413
X171.196Y-131.953
X171.196Y-134.493
X171.196Y-137.033
X171.196Y-139.573
X171.196Y-142.113
X171.196Y-144.653
X173.736Y-114.173
X173.736Y-116.713
X173.736Y-119.253
X173.736Y-121.793
X173.736Y-124.333
X173.736Y-126.873
X173.736Y-129.413
X173.736Y-131.953
X173.736Y-134.493
X173.736Y-137.033
X173.736Y-139.573
X173.736Y-142.113
X173.736Y-144.653
X184.5Y-105.44
X184.5Y-107.98
X184.5Y-110.52
X184.5Y-113.06
X184.5Y-115.6
X184.5Y-118.14
X184.5Y-120.68
X184.5Y-123.22
X184.5Y-125.76
X184.5Y-128.3
X184.5Y-130.84
X184.5Y-133.38
X184.5Y-135.92
X184.5Y-138.46
X184.5Y-141.0
X184.5Y-143.54
X184.5Y-146.08
X184.5Y-148.62
X184.5Y-151.16
X184.5Y-153.7
X202.28Y-105.44
X202.28Y-107.98
X202.28Y-110.52
X202.28Y-113.06
X202.28Y-115.6
X202.28Y-118.14
X202.28Y-120.68
X202.28Y-123.22
X202.28Y-125.76
X202.28Y-128.3
X202.28Y-130.84
X202.28Y-133.38
X202.28Y-135.92
X202.28Y-138.46
X202.28Y-141.0
X202.28Y-143.54
X202.28Y-146.08
X202.28Y-148.62
X202.28Y-151.16
X202.28Y-153.7
T3
X210.06Y-115.64
X212.6Y-115.64
X219.73Y-115.593
X222.27Y-115.593
T4
X190.965Y-108.6
X195.815Y-108.6
T5
X190.665Y-105.57
X196.115Y-105.57
T6
X208.66Y-107.0
X214.0Y-107.0
X218.33Y-106.953
X223.67Y-106.953
T7
X173.08Y-108.08
X173.08Y-150.92
X232.92Y-108.08
X232.92Y-150.92
M30
