M48
; DRILL file {KiCad 9.0.7-9.0.7~ubuntu24.04.1} date 2026-01-04T20:20:34-0800
; FORMAT={-:-/ absolute / metric / decimal}
; #@! TF.CreationDate,2026-01-04T20:20:34-08:00
; #@! TF.GenerationSoftware,Kicad,Pcbnew,9.0.7-9.0.7~ubuntu24.04.1
; #@! TF.FileFunction,MixedPlating,1,2
FMAT,2
METRIC
; #@! TA.AperFunction,Plated,PTH,ViaDrill
T1C0.508
; #@! TA.AperFunction,Plated,PTH,ComponentDrill
T2C0.800
; #@! TA.AperFunction,Plated,PTH,ComponentDrill
T3C1.067
; #@! TA.AperFunction,Plated,PTH,ComponentDrill
T4C1.092
; #@! TA.AperFunction,Plated,PTH,ComponentDrill
T5C1.100
; #@! TA.AperFunction,NonPlated,NPTH,ComponentDrill
T6C1.500
; #@! TA.AperFunction,NonPlated,NPTH,ComponentDrill
T7C3.400
%
G90
G05
T1
X171.704Y-111.531
X177.419Y-118.325
X179.197Y-113.538
X182.245Y-108.61
X182.245Y-111.354
X185.522Y-97.079
X185.928Y-115.824
X187.655Y-117.094
X189.433Y-102.184
X189.738Y-118.389
X191.922Y-105.664
X194.081Y-100.076
X197.865Y-121.015
X198.754Y-121.905
X201.244Y-117.754
X202.133Y-121.59
X203.505Y-97.892
X203.505Y-118.186
X206.617Y-115.33
X209.086Y-111.093
X209.188Y-118.066
X210.363Y-112.37
X212.598Y-119.685
X212.674Y-100.279
T2
X176.745Y-101.244
X179.245Y-101.244
X197.115Y-107.975
X197.116Y-114.975
X199.615Y-107.975
X199.616Y-114.975
T3
X175.768Y-111.506
X175.768Y-114.046
X175.768Y-116.586
T4
X203.149Y-107.188
X203.149Y-109.728
X203.149Y-112.268
X203.149Y-114.808
T5
X165.781Y-100.878
X165.806Y-105.878
X172.806Y-100.878
X172.806Y-105.878
T6
X169.774Y-97.942
X170.053Y-122.199
X213.949Y-110.998
T7
X167.128Y-110.106
X167.128Y-117.986
X211.789Y-105.788
X211.789Y-116.208
M30
