M48
; DRILL file {KiCad 9.0.7-9.0.7~ubuntu24.04.1} date 2026-01-02T10:32:52-0800
; FORMAT={-:-/ absolute / inch / decimal}
; #@! TF.CreationDate,2026-01-02T10:32:52-08:00
; #@! TF.GenerationSoftware,Kicad,Pcbnew,9.0.7-9.0.7~ubuntu24.04.1
; #@! TF.FileFunction,MixedPlating,1,2
FMAT,2
INCH
; #@! TA.AperFunction,Plated,PTH,ViaDrill
T1C0.0200
; #@! TA.AperFunction,Plated,PTH,ComponentDrill
T2C0.0315
; #@! TA.AperFunction,Plated,PTH,ComponentDrill
T3C0.0420
; #@! TA.AperFunction,Plated,PTH,ComponentDrill
T4C0.0433
; #@! TA.AperFunction,NonPlated,NPTH,ComponentDrill
T5C0.0591
; #@! TA.AperFunction,NonPlated,NPTH,ComponentDrill
T6C0.1339
%
G90
G05
T1
X7.17Y-4.276
X7.17Y-4.384
X7.304Y-3.822
X7.458Y-4.023
X7.556Y-4.16
X7.641Y-3.94
X7.673Y-4.681
X7.902Y-4.668
X8.015Y-3.864
X8.241Y-4.792
X8.26Y-3.995
T2
X6.9584Y-3.986
X7.0569Y-3.986
X7.7654Y-4.271
X7.7655Y-4.5466
X7.8639Y-4.271
X7.8639Y-4.5466
T3
X6.9202Y-4.55
X6.9202Y-4.65
X7.998Y-4.22
X7.998Y-4.32
X7.998Y-4.42
T4
X6.5268Y-3.9716
X6.5278Y-4.1684
X6.8034Y-3.9716
X6.8034Y-4.1684
T5
X6.684Y-3.856
X6.695Y-4.811
X8.438Y-4.8
X8.443Y-3.836
T6
X6.5801Y-4.4949
X6.5801Y-4.7051
X8.3382Y-4.1649
X8.3382Y-4.4751
M30
