%TF.GenerationSoftware,KiCad,Pcbnew,8.0.8-8.0.8-0~ubuntu22.04.1*%
%TF.CreationDate,2025-01-15T16:30:13-08:00*%
%TF.ProjectId,NX-J401-Adapter,4e582d4a-3430-4312-9d41-646170746572,4*%
%TF.SameCoordinates,Original*%
%TF.FileFunction,Paste,Top*%
%TF.FilePolarity,Positive*%
%FSLAX46Y46*%
G04 Gerber Fmt 4.6, Leading zero omitted, Abs format (unit mm)*
G04 Created by KiCad (PCBNEW 8.0.8-8.0.8-0~ubuntu22.04.1) date 2025-01-15 16:30:13*
%MOMM*%
%LPD*%
G01*
G04 APERTURE LIST*
G04 Aperture macros list*
%AMRoundRect*
0 Rectangle with rounded corners*
0 $1 Rounding radius*
0 $2 $3 $4 $5 $6 $7 $8 $9 X,Y pos of 4 corners*
0 Add a 4 corners polygon primitive as box body*
4,1,4,$2,$3,$4,$5,$6,$7,$8,$9,$2,$3,0*
0 Add four circle primitives for the rounded corners*
1,1,$1+$1,$2,$3*
1,1,$1+$1,$4,$5*
1,1,$1+$1,$6,$7*
1,1,$1+$1,$8,$9*
0 Add four rect primitives between the rounded corners*
20,1,$1+$1,$2,$3,$4,$5,0*
20,1,$1+$1,$4,$5,$6,$7,0*
20,1,$1+$1,$6,$7,$8,$9,0*
20,1,$1+$1,$8,$9,$2,$3,0*%
G04 Aperture macros list end*
%ADD10C,0.300000*%
%ADD11RoundRect,0.250000X2.050000X0.300000X-2.050000X0.300000X-2.050000X-0.300000X2.050000X-0.300000X0*%
%ADD12RoundRect,0.250000X2.025000X2.375000X-2.025000X2.375000X-2.025000X-2.375000X2.025000X-2.375000X0*%
%ADD13R,0.750000X0.660000*%
%ADD14RoundRect,0.250000X-0.450000X0.262500X-0.450000X-0.262500X0.450000X-0.262500X0.450000X0.262500X0*%
%ADD15R,1.090000X1.500000*%
%ADD16RoundRect,0.250000X-0.475000X0.250000X-0.475000X-0.250000X0.475000X-0.250000X0.475000X0.250000X0*%
%ADD17RoundRect,0.250000X0.450000X-0.262500X0.450000X0.262500X-0.450000X0.262500X-0.450000X-0.262500X0*%
%ADD18RoundRect,0.250000X0.262500X0.450000X-0.262500X0.450000X-0.262500X-0.450000X0.262500X-0.450000X0*%
%ADD19RoundRect,0.150000X0.825000X0.150000X-0.825000X0.150000X-0.825000X-0.150000X0.825000X-0.150000X0*%
%ADD20RoundRect,0.250000X0.900000X-1.000000X0.900000X1.000000X-0.900000X1.000000X-0.900000X-1.000000X0*%
%ADD21RoundRect,0.250000X-0.262500X-0.450000X0.262500X-0.450000X0.262500X0.450000X-0.262500X0.450000X0*%
%ADD22RoundRect,0.250000X0.300000X-0.300000X0.300000X0.300000X-0.300000X0.300000X-0.300000X-0.300000X0*%
%ADD23RoundRect,0.150000X-0.825000X-0.150000X0.825000X-0.150000X0.825000X0.150000X-0.825000X0.150000X0*%
%ADD24RoundRect,0.250000X-0.362500X-1.425000X0.362500X-1.425000X0.362500X1.425000X-0.362500X1.425000X0*%
%ADD25RoundRect,0.250000X0.250000X0.475000X-0.250000X0.475000X-0.250000X-0.475000X0.250000X-0.475000X0*%
%ADD26RoundRect,0.250000X-0.250000X-0.475000X0.250000X-0.475000X0.250000X0.475000X-0.250000X0.475000X0*%
%ADD27R,3.265000X5.210000*%
%ADD28R,5.210000X3.275000*%
G04 APERTURE END LIST*
D10*
X33217368Y-91545474D02*
X32624701Y-91545474D01*
X32624701Y-92476807D02*
X32624701Y-90698807D01*
X32624701Y-90698807D02*
X33471368Y-90698807D01*
X34148701Y-92307474D02*
X34233368Y-92392141D01*
X34233368Y-92392141D02*
X34148701Y-92476807D01*
X34148701Y-92476807D02*
X34064034Y-92392141D01*
X34064034Y-92392141D02*
X34148701Y-92307474D01*
X34148701Y-92307474D02*
X34148701Y-92476807D01*
X34995368Y-92476807D02*
X34995368Y-90698807D01*
X34995368Y-90698807D02*
X35672701Y-90698807D01*
X35672701Y-90698807D02*
X35842035Y-90783474D01*
X35842035Y-90783474D02*
X35926701Y-90868141D01*
X35926701Y-90868141D02*
X36011368Y-91037474D01*
X36011368Y-91037474D02*
X36011368Y-91291474D01*
X36011368Y-91291474D02*
X35926701Y-91460807D01*
X35926701Y-91460807D02*
X35842035Y-91545474D01*
X35842035Y-91545474D02*
X35672701Y-91630141D01*
X35672701Y-91630141D02*
X34995368Y-91630141D01*
X37535368Y-92476807D02*
X37535368Y-91545474D01*
X37535368Y-91545474D02*
X37450701Y-91376141D01*
X37450701Y-91376141D02*
X37281368Y-91291474D01*
X37281368Y-91291474D02*
X36942701Y-91291474D01*
X36942701Y-91291474D02*
X36773368Y-91376141D01*
X37535368Y-92392141D02*
X37366035Y-92476807D01*
X37366035Y-92476807D02*
X36942701Y-92476807D01*
X36942701Y-92476807D02*
X36773368Y-92392141D01*
X36773368Y-92392141D02*
X36688701Y-92222807D01*
X36688701Y-92222807D02*
X36688701Y-92053474D01*
X36688701Y-92053474D02*
X36773368Y-91884141D01*
X36773368Y-91884141D02*
X36942701Y-91799474D01*
X36942701Y-91799474D02*
X37366035Y-91799474D01*
X37366035Y-91799474D02*
X37535368Y-91714807D01*
X38297368Y-92392141D02*
X38466702Y-92476807D01*
X38466702Y-92476807D02*
X38805368Y-92476807D01*
X38805368Y-92476807D02*
X38974702Y-92392141D01*
X38974702Y-92392141D02*
X39059368Y-92222807D01*
X39059368Y-92222807D02*
X39059368Y-92138141D01*
X39059368Y-92138141D02*
X38974702Y-91968807D01*
X38974702Y-91968807D02*
X38805368Y-91884141D01*
X38805368Y-91884141D02*
X38551368Y-91884141D01*
X38551368Y-91884141D02*
X38382035Y-91799474D01*
X38382035Y-91799474D02*
X38297368Y-91630141D01*
X38297368Y-91630141D02*
X38297368Y-91545474D01*
X38297368Y-91545474D02*
X38382035Y-91376141D01*
X38382035Y-91376141D02*
X38551368Y-91291474D01*
X38551368Y-91291474D02*
X38805368Y-91291474D01*
X38805368Y-91291474D02*
X38974702Y-91376141D01*
X39567368Y-91291474D02*
X40244701Y-91291474D01*
X39821368Y-90698807D02*
X39821368Y-92222807D01*
X39821368Y-92222807D02*
X39906035Y-92392141D01*
X39906035Y-92392141D02*
X40075368Y-92476807D01*
X40075368Y-92476807D02*
X40244701Y-92476807D01*
X41514701Y-92392141D02*
X41345368Y-92476807D01*
X41345368Y-92476807D02*
X41006701Y-92476807D01*
X41006701Y-92476807D02*
X40837368Y-92392141D01*
X40837368Y-92392141D02*
X40752701Y-92222807D01*
X40752701Y-92222807D02*
X40752701Y-91545474D01*
X40752701Y-91545474D02*
X40837368Y-91376141D01*
X40837368Y-91376141D02*
X41006701Y-91291474D01*
X41006701Y-91291474D02*
X41345368Y-91291474D01*
X41345368Y-91291474D02*
X41514701Y-91376141D01*
X41514701Y-91376141D02*
X41599368Y-91545474D01*
X41599368Y-91545474D02*
X41599368Y-91714807D01*
X41599368Y-91714807D02*
X40752701Y-91884141D01*
%TO.C,Q1*%
G36*
X292682500Y-95702000D02*
G01*
X293917500Y-95702000D01*
X293917500Y-94132000D01*
X292682500Y-94132000D01*
X292682500Y-95702000D01*
G37*
G36*
X292682500Y-97892000D02*
G01*
X293917500Y-97892000D01*
X293917500Y-96322000D01*
X292682500Y-96322000D01*
X292682500Y-97892000D01*
G37*
G36*
X295805000Y-95702000D02*
G01*
X294220000Y-95702000D01*
X294220000Y-94132000D01*
X295805000Y-94132000D01*
X295805000Y-95702000D01*
G37*
G36*
X295805000Y-97892000D02*
G01*
X294220000Y-97892000D01*
X294220000Y-96322000D01*
X295805000Y-96322000D01*
X295805000Y-97892000D01*
G37*
G36*
X296920000Y-94347000D02*
G01*
X296420000Y-94347000D01*
X296420000Y-93847000D01*
X296920000Y-93847000D01*
X296920000Y-94347000D01*
G37*
G36*
X296920000Y-95628538D02*
G01*
X296420000Y-95628538D01*
X296420000Y-95128538D01*
X296920000Y-95128538D01*
X296920000Y-95628538D01*
G37*
G36*
X296920000Y-96897000D02*
G01*
X296420000Y-96897000D01*
X296420000Y-96397000D01*
X296920000Y-96397000D01*
X296920000Y-96897000D01*
G37*
G36*
X296920000Y-98177000D02*
G01*
X296420000Y-98177000D01*
X296420000Y-97677000D01*
X296920000Y-97677000D01*
X296920000Y-98177000D01*
G37*
%TD*%
D11*
%TO.C,D1*%
X294640000Y-89916000D03*
D12*
X287915000Y-90151000D03*
X287915000Y-84601000D03*
X283065000Y-90151000D03*
X283065000Y-84601000D03*
D11*
X294640000Y-84836000D03*
%TD*%
D13*
%TO.C,Q1*%
X291195000Y-94092000D03*
X291195000Y-95372000D03*
X291195000Y-96652000D03*
X291195000Y-97932000D03*
%TD*%
D14*
%TO.C,R8*%
X295656000Y-114149500D03*
X295656000Y-115974500D03*
%TD*%
D15*
%TO.C,D5*%
X281027000Y-154432000D03*
X281027000Y-157432000D03*
X279527000Y-154432000D03*
X279527000Y-157432000D03*
%TD*%
D16*
%TO.C,C8*%
X291592000Y-114112000D03*
X291592000Y-116012000D03*
%TD*%
D17*
%TO.C,R5*%
X284708600Y-102918900D03*
X284708600Y-101093900D03*
%TD*%
D18*
%TO.C,R2*%
X283182700Y-99288600D03*
X281357700Y-99288600D03*
%TD*%
D19*
%TO.C,Q2*%
X296607000Y-111633000D03*
X296607000Y-110363000D03*
X296607000Y-109093000D03*
X296607000Y-107823000D03*
X291657000Y-107823000D03*
X291657000Y-109093000D03*
X291657000Y-110363000D03*
X291657000Y-111633000D03*
%TD*%
D20*
%TO.C,D3*%
X303403000Y-146676000D03*
X303403000Y-142376000D03*
%TD*%
D17*
%TO.C,R4*%
X298450000Y-102385540D03*
X298450000Y-100560540D03*
%TD*%
D21*
%TO.C,R9*%
X279376500Y-151663400D03*
X281201500Y-151663400D03*
%TD*%
D22*
%TO.C,D2*%
X297815000Y-116970000D03*
X297815000Y-114170000D03*
%TD*%
D23*
%TO.C,U1*%
X289117000Y-99441000D03*
X289117000Y-100711000D03*
X289117000Y-101981000D03*
X289117000Y-103251000D03*
X294067000Y-103251000D03*
X294067000Y-101981000D03*
X294067000Y-100711000D03*
X294067000Y-99441000D03*
%TD*%
D21*
%TO.C,R6*%
X284583500Y-105410000D03*
X286408500Y-105410000D03*
%TD*%
D24*
%TO.C,R1*%
X283803500Y-95250000D03*
X289728500Y-95250000D03*
%TD*%
D21*
%TO.C,R3*%
X284915600Y-99288600D03*
X286740600Y-99288600D03*
%TD*%
D25*
%TO.C,C6*%
X290002000Y-105410000D03*
X288102000Y-105410000D03*
%TD*%
D16*
%TO.C,C4*%
X286740600Y-101056400D03*
X286740600Y-102956400D03*
%TD*%
D26*
%TO.C,C7*%
X291658000Y-105410000D03*
X293558000Y-105410000D03*
%TD*%
D17*
%TO.C,R7*%
X293624000Y-115974500D03*
X293624000Y-114149500D03*
%TD*%
D27*
%TO.C,L1*%
X311427500Y-89154000D03*
X299962500Y-89154000D03*
D28*
X305695000Y-94831500D03*
X305695000Y-83476500D03*
%TD*%
D15*
%TO.C,D4*%
X275312000Y-154432000D03*
X275312000Y-157432000D03*
X273812000Y-154432000D03*
X273812000Y-157432000D03*
%TD*%
D16*
%TO.C,C3*%
X296418000Y-100523040D03*
X296418000Y-102423040D03*
%TD*%
M02*
