%TF.GenerationSoftware,KiCad,Pcbnew,8.0.7-8.0.7-0~ubuntu22.04.1*%
%TF.CreationDate,2025-01-13T16:38:09-08:00*%
%TF.ProjectId,NX-J401-Adapter,4e582d4a-3430-4312-9d41-646170746572,4*%
%TF.SameCoordinates,Original*%
%TF.FileFunction,Copper,L4,Bot*%
%TF.FilePolarity,Positive*%
%FSLAX46Y46*%
G04 Gerber Fmt 4.6, Leading zero omitted, Abs format (unit mm)*
G04 Created by KiCad (PCBNEW 8.0.7-8.0.7-0~ubuntu22.04.1) date 2025-01-13 16:38:09*
%MOMM*%
%LPD*%
G01*
G04 APERTURE LIST*
%ADD10C,0.300000*%
%TA.AperFunction,NonConductor*%
%ADD11C,0.300000*%
%TD*%
%TA.AperFunction,ComponentPad*%
%ADD12R,1.600000X1.600000*%
%TD*%
%TA.AperFunction,ComponentPad*%
%ADD13C,1.600000*%
%TD*%
%TA.AperFunction,ComponentPad*%
%ADD14C,1.498600*%
%TD*%
%TA.AperFunction,ComponentPad*%
%ADD15C,1.803400*%
%TD*%
%TA.AperFunction,ComponentPad*%
%ADD16C,2.200000*%
%TD*%
%TA.AperFunction,ComponentPad*%
%ADD17R,1.778000X1.778000*%
%TD*%
%TA.AperFunction,ComponentPad*%
%ADD18C,1.905000*%
%TD*%
%TA.AperFunction,ComponentPad*%
%ADD19C,1.778000*%
%TD*%
%TA.AperFunction,ComponentPad*%
%ADD20R,2.000000X2.000000*%
%TD*%
%TA.AperFunction,ComponentPad*%
%ADD21C,2.000000*%
%TD*%
%TA.AperFunction,ComponentPad*%
%ADD22C,1.701800*%
%TD*%
%TA.AperFunction,ViaPad*%
%ADD23C,0.812800*%
%TD*%
%TA.AperFunction,ViaPad*%
%ADD24C,0.711200*%
%TD*%
%TA.AperFunction,Conductor*%
%ADD25C,0.381000*%
%TD*%
G04 APERTURE END LIST*
D10*
D11*
G36*
X323266737Y-90308632D02*
G01*
X323595000Y-90308632D01*
X323595000Y-90602823D01*
X323266737Y-90602823D01*
X323266737Y-90758161D01*
X323023471Y-90758161D01*
X323023471Y-90602823D01*
X322094371Y-90602823D01*
X322094371Y-90308632D01*
X322377937Y-90308632D01*
X323023471Y-90308632D01*
X323023471Y-89920286D01*
X322377937Y-90308632D01*
X322094371Y-90308632D01*
X322094371Y-90256242D01*
X323019075Y-89712191D01*
X323266737Y-89712191D01*
X323266737Y-90308632D01*
G37*
D10*
D11*
X33217368Y-89005474D02*
X33471368Y-89090141D01*
X33471368Y-89090141D02*
X33556034Y-89174807D01*
X33556034Y-89174807D02*
X33640701Y-89344141D01*
X33640701Y-89344141D02*
X33640701Y-89598141D01*
X33640701Y-89598141D02*
X33556034Y-89767474D01*
X33556034Y-89767474D02*
X33471368Y-89852141D01*
X33471368Y-89852141D02*
X33302034Y-89936807D01*
X33302034Y-89936807D02*
X32624701Y-89936807D01*
X32624701Y-89936807D02*
X32624701Y-88158807D01*
X32624701Y-88158807D02*
X33217368Y-88158807D01*
X33217368Y-88158807D02*
X33386701Y-88243474D01*
X33386701Y-88243474D02*
X33471368Y-88328141D01*
X33471368Y-88328141D02*
X33556034Y-88497474D01*
X33556034Y-88497474D02*
X33556034Y-88666807D01*
X33556034Y-88666807D02*
X33471368Y-88836141D01*
X33471368Y-88836141D02*
X33386701Y-88920807D01*
X33386701Y-88920807D02*
X33217368Y-89005474D01*
X33217368Y-89005474D02*
X32624701Y-89005474D01*
X34402701Y-89767474D02*
X34487368Y-89852141D01*
X34487368Y-89852141D02*
X34402701Y-89936807D01*
X34402701Y-89936807D02*
X34318034Y-89852141D01*
X34318034Y-89852141D02*
X34402701Y-89767474D01*
X34402701Y-89767474D02*
X34402701Y-89936807D01*
X36265368Y-89767474D02*
X36180701Y-89852141D01*
X36180701Y-89852141D02*
X35926701Y-89936807D01*
X35926701Y-89936807D02*
X35757368Y-89936807D01*
X35757368Y-89936807D02*
X35503368Y-89852141D01*
X35503368Y-89852141D02*
X35334035Y-89682807D01*
X35334035Y-89682807D02*
X35249368Y-89513474D01*
X35249368Y-89513474D02*
X35164701Y-89174807D01*
X35164701Y-89174807D02*
X35164701Y-88920807D01*
X35164701Y-88920807D02*
X35249368Y-88582141D01*
X35249368Y-88582141D02*
X35334035Y-88412807D01*
X35334035Y-88412807D02*
X35503368Y-88243474D01*
X35503368Y-88243474D02*
X35757368Y-88158807D01*
X35757368Y-88158807D02*
X35926701Y-88158807D01*
X35926701Y-88158807D02*
X36180701Y-88243474D01*
X36180701Y-88243474D02*
X36265368Y-88328141D01*
X37789368Y-88751474D02*
X37789368Y-89936807D01*
X37027368Y-88751474D02*
X37027368Y-89682807D01*
X37027368Y-89682807D02*
X37112035Y-89852141D01*
X37112035Y-89852141D02*
X37281368Y-89936807D01*
X37281368Y-89936807D02*
X37535368Y-89936807D01*
X37535368Y-89936807D02*
X37704701Y-89852141D01*
X37704701Y-89852141D02*
X37789368Y-89767474D01*
D12*
%TO.P,C2,1*%
%TO.N,/+18V_OUT*%
X257810000Y-93980000D03*
D13*
%TO.P,C2,2*%
%TO.N,GND*%
X257810000Y-97480000D03*
%TD*%
D14*
%TO.P,SW2,1,1*%
%TO.N,/~{REC}*%
X291628000Y-156285700D03*
%TO.P,SW2,2,2*%
%TO.N,/RTN*%
X296128001Y-156285700D03*
D15*
%TO.P,SW2,3*%
%TO.N,N/C*%
X290378001Y-153785824D03*
%TO.P,SW2,4*%
X297378000Y-153785824D03*
%TD*%
D12*
%TO.P,C1,1*%
%TO.N,/+18V_OUT*%
X257810000Y-84785200D03*
D13*
%TO.P,C1,2*%
%TO.N,GND*%
X257810000Y-88285200D03*
%TD*%
D16*
%TO.P,J4,1,Pin_1*%
%TO.N,/V_BAT*%
X252501400Y-148365600D03*
X252501400Y-156565600D03*
%TO.P,J4,2,Pin_2*%
%TO.N,GND*%
X257581400Y-148365600D03*
X257581400Y-156565600D03*
%TD*%
D17*
%TO.P,J3,1,Pin_1*%
%TO.N,/RTN*%
X276225000Y-147320000D03*
D18*
%TO.P,J3,2,Pin_2*%
%TO.N,/UART2_RXD*%
X273685000Y-147320000D03*
D19*
%TO.P,J3,3,Pin_3*%
%TO.N,/UART2_TXD*%
X271145000Y-147320000D03*
%TD*%
D14*
%TO.P,SW1,1,1*%
%TO.N,/~{SYS_RESET}*%
X281976000Y-156285700D03*
%TO.P,SW1,2,2*%
%TO.N,/RTN*%
X286476001Y-156285700D03*
D15*
%TO.P,SW1,3*%
%TO.N,N/C*%
X280726001Y-153785824D03*
%TO.P,SW1,4*%
X287726000Y-153785824D03*
%TD*%
D17*
%TO.P,J2,1,Pin_1*%
%TO.N,/RTN*%
X297447500Y-117348000D03*
D18*
%TO.P,J2,2,Pin_2*%
%TO.N,/UART2_RXD*%
X297447500Y-119888000D03*
D19*
%TO.P,J2,3,Pin_3*%
%TO.N,/UART2_TXD*%
X297447500Y-122428000D03*
%TO.P,J2,4,Pin_4*%
%TO.N,/~{SYS_RESET}*%
X297447500Y-124968000D03*
%TO.P,J2,5,Pin_5*%
%TO.N,/RTN*%
X297447500Y-127508000D03*
%TO.P,J2,6,Pin_6*%
%TO.N,/~{REC}*%
X297447500Y-130048000D03*
%TD*%
D20*
%TO.P,C5,1*%
%TO.N,/Power Supply/V_IN*%
X292181677Y-103124000D03*
D21*
%TO.P,C5,2*%
%TO.N,GND*%
X287181677Y-103124000D03*
%TD*%
D22*
%TO.P,J1,1,Pin_1*%
%TO.N,/+18V_OUT*%
X239166400Y-85594200D03*
X239166400Y-90594200D03*
%TO.P,J1,2,Pin_2*%
%TO.N,GND*%
X244166400Y-85594200D03*
X244166400Y-90594200D03*
%TD*%
D23*
%TO.N,GND*%
X273812000Y-117221010D03*
X267462000Y-96266000D03*
X267461982Y-94234000D03*
D24*
X265658600Y-105359200D03*
X271272000Y-104266998D03*
D23*
X287934400Y-83515200D03*
X273825822Y-100813988D03*
X270002000Y-128778000D03*
X244856000Y-156210000D03*
X267462000Y-95250000D03*
X287934400Y-94843600D03*
X277215600Y-105410000D03*
X275844000Y-117221000D03*
%TO.N,/+18V_OUT*%
X261366000Y-91948000D03*
X261366000Y-84836000D03*
X262382000Y-86614000D03*
X262382000Y-83058000D03*
X262382000Y-90170000D03*
X261366000Y-88392000D03*
%TO.N,/Power Supply/V_IN*%
X277190204Y-110362988D03*
X295910000Y-89154000D03*
X280543000Y-111633000D03*
X295910000Y-87122000D03*
X280543034Y-109093000D03*
X281940008Y-110388408D03*
X295910000Y-91186000D03*
%TO.N,/V_BAT*%
X272288000Y-107848400D03*
X270002000Y-120650000D03*
X275590000Y-111633000D03*
X273812000Y-112828307D03*
X272288000Y-110388400D03*
X275590000Y-109067600D03*
%TD*%
D25*
%TO.N,GND*%
X248666000Y-156210000D02*
X250799600Y-154076400D01*
X255092200Y-154076400D02*
X257581400Y-156565600D01*
X250799600Y-154076400D02*
X255092200Y-154076400D01*
X244856000Y-156210000D02*
X248666000Y-156210000D01*
%TD*%
%TA.AperFunction,Conductor*%
%TO.N,GND*%
G36*
X296107039Y-80665185D02*
G01*
X296152794Y-80717989D01*
X296164000Y-80769500D01*
X296164000Y-85979000D01*
X303767036Y-87879759D01*
X303827300Y-87915116D01*
X303858882Y-87977440D01*
X303860961Y-87999654D01*
X303910174Y-103124068D01*
X303909282Y-103139325D01*
X303893326Y-103271568D01*
X303885974Y-103301176D01*
X303840979Y-103418319D01*
X303826620Y-103445235D01*
X303749949Y-103554151D01*
X303740400Y-103566080D01*
X267970000Y-143002000D01*
X267970000Y-143247087D01*
X267970000Y-143247091D01*
X267970000Y-154394654D01*
X267950315Y-154461693D01*
X267944376Y-154470140D01*
X267798942Y-154659673D01*
X267798931Y-154659689D01*
X267645862Y-154924810D01*
X267645854Y-154924826D01*
X267528702Y-155207659D01*
X267449460Y-155503392D01*
X267409501Y-155806913D01*
X267409500Y-155806929D01*
X267409500Y-156113070D01*
X267409501Y-156113086D01*
X267436863Y-156320925D01*
X267449461Y-156416611D01*
X267489382Y-156565599D01*
X267528702Y-156712340D01*
X267645854Y-156995173D01*
X267645862Y-156995189D01*
X267785188Y-157236506D01*
X267798936Y-157260318D01*
X267944376Y-157449858D01*
X267969570Y-157515028D01*
X267970000Y-157525345D01*
X267970000Y-158244500D01*
X267950315Y-158311539D01*
X267897511Y-158357294D01*
X267846000Y-158368500D01*
X247774000Y-158368500D01*
X247706961Y-158348815D01*
X247661206Y-158296011D01*
X247650000Y-158244500D01*
X247650000Y-156565594D01*
X251014823Y-156565594D01*
X251014823Y-156565605D01*
X251035096Y-156810274D01*
X251035098Y-156810286D01*
X251095369Y-157048291D01*
X251193994Y-157273131D01*
X251328279Y-157478671D01*
X251328282Y-157478674D01*
X251494569Y-157659310D01*
X251688319Y-157810112D01*
X251904249Y-157926968D01*
X252136467Y-158006688D01*
X252378639Y-158047100D01*
X252378640Y-158047100D01*
X252624160Y-158047100D01*
X252624161Y-158047100D01*
X252866333Y-158006688D01*
X253098551Y-157926968D01*
X253314481Y-157810112D01*
X253508231Y-157659310D01*
X253674518Y-157478674D01*
X253808805Y-157273132D01*
X253907430Y-157048291D01*
X253967702Y-156810283D01*
X253968752Y-156797615D01*
X253987977Y-156565605D01*
X253987977Y-156565594D01*
X253987977Y-156565593D01*
X256171785Y-156565593D01*
X256171785Y-156565606D01*
X256191008Y-156797607D01*
X256191010Y-156797615D01*
X256248162Y-157023302D01*
X256341680Y-157236502D01*
X256389021Y-157308963D01*
X257037439Y-156660547D01*
X257068882Y-156777892D01*
X257141290Y-156903308D01*
X257243692Y-157005710D01*
X257369108Y-157078118D01*
X257486451Y-157109560D01*
X256836314Y-157759697D01*
X256836314Y-157759699D01*
X257015153Y-157856483D01*
X257015171Y-157856490D01*
X257235357Y-157932080D01*
X257464995Y-157970400D01*
X257697805Y-157970400D01*
X257927442Y-157932080D01*
X258147634Y-157856488D01*
X258147636Y-157856487D01*
X258326484Y-157759699D01*
X258326484Y-157759697D01*
X257676349Y-157109560D01*
X257793692Y-157078118D01*
X257919108Y-157005710D01*
X258021510Y-156903308D01*
X258093918Y-156777892D01*
X258125360Y-156660548D01*
X258773776Y-157308964D01*
X258821116Y-157236506D01*
X258821121Y-157236498D01*
X258914637Y-157023302D01*
X258971789Y-156797615D01*
X258971791Y-156797607D01*
X258991015Y-156565606D01*
X258991015Y-156565593D01*
X258971791Y-156333592D01*
X258971789Y-156333584D01*
X258914637Y-156107897D01*
X258821120Y-155894700D01*
X258773776Y-155822234D01*
X258125360Y-156470650D01*
X258093918Y-156353308D01*
X258021510Y-156227892D01*
X257919108Y-156125490D01*
X257793692Y-156053082D01*
X257676348Y-156021639D01*
X258326484Y-155371501D01*
X258147637Y-155274712D01*
X258147631Y-155274710D01*
X257927442Y-155199119D01*
X257697805Y-155160800D01*
X257464995Y-155160800D01*
X257235357Y-155199119D01*
X257015168Y-155274710D01*
X257015162Y-155274712D01*
X256836314Y-155371501D01*
X257486452Y-156021639D01*
X257369108Y-156053082D01*
X257243692Y-156125490D01*
X257141290Y-156227892D01*
X257068882Y-156353308D01*
X257037439Y-156470651D01*
X256389022Y-155822235D01*
X256341680Y-155894698D01*
X256341678Y-155894702D01*
X256248162Y-156107897D01*
X256191010Y-156333584D01*
X256191008Y-156333592D01*
X256171785Y-156565593D01*
X253987977Y-156565593D01*
X253967703Y-156320925D01*
X253967701Y-156320913D01*
X253907430Y-156082908D01*
X253808805Y-155858068D01*
X253674520Y-155652528D01*
X253655610Y-155631987D01*
X253508231Y-155471890D01*
X253508226Y-155471886D01*
X253508224Y-155471884D01*
X253420377Y-155403510D01*
X253314481Y-155321088D01*
X253314480Y-155321087D01*
X253098552Y-155204232D01*
X253098547Y-155204230D01*
X252866335Y-155124512D01*
X252704885Y-155097570D01*
X252624161Y-155084100D01*
X252378639Y-155084100D01*
X252318096Y-155094203D01*
X252136464Y-155124512D01*
X251904252Y-155204230D01*
X251904247Y-155204232D01*
X251688319Y-155321087D01*
X251688315Y-155321091D01*
X251494575Y-155471884D01*
X251494572Y-155471887D01*
X251328279Y-155652528D01*
X251193994Y-155858068D01*
X251095369Y-156082908D01*
X251035098Y-156320913D01*
X251035096Y-156320925D01*
X251014823Y-156565594D01*
X247650000Y-156565594D01*
X247650000Y-148365594D01*
X251014823Y-148365594D01*
X251014823Y-148365605D01*
X251035096Y-148610274D01*
X251035098Y-148610286D01*
X251095369Y-148848291D01*
X251193994Y-149073131D01*
X251328279Y-149278671D01*
X251328282Y-149278674D01*
X251494569Y-149459310D01*
X251688319Y-149610112D01*
X251904249Y-149726968D01*
X252136467Y-149806688D01*
X252378639Y-149847100D01*
X252378640Y-149847100D01*
X252624160Y-149847100D01*
X252624161Y-149847100D01*
X252866333Y-149806688D01*
X253098551Y-149726968D01*
X253314481Y-149610112D01*
X253508231Y-149459310D01*
X253674518Y-149278674D01*
X253808805Y-149073132D01*
X253907430Y-148848291D01*
X253967702Y-148610283D01*
X253968752Y-148597615D01*
X253987977Y-148365605D01*
X253987977Y-148365594D01*
X253987977Y-148365593D01*
X256171785Y-148365593D01*
X256171785Y-148365606D01*
X256191008Y-148597607D01*
X256191010Y-148597615D01*
X256248162Y-148823302D01*
X256341680Y-149036502D01*
X256389021Y-149108963D01*
X257037439Y-148460547D01*
X257068882Y-148577892D01*
X257141290Y-148703308D01*
X257243692Y-148805710D01*
X257369108Y-148878118D01*
X257486451Y-148909560D01*
X256836314Y-149559697D01*
X256836314Y-149559699D01*
X257015153Y-149656483D01*
X257015171Y-149656490D01*
X257235357Y-149732080D01*
X257464995Y-149770400D01*
X257697805Y-149770400D01*
X257927442Y-149732080D01*
X258147634Y-149656488D01*
X258147636Y-149656487D01*
X258326484Y-149559699D01*
X258326484Y-149559697D01*
X257676349Y-148909560D01*
X257793692Y-148878118D01*
X257919108Y-148805710D01*
X258021510Y-148703308D01*
X258093918Y-148577892D01*
X258125360Y-148460548D01*
X258773776Y-149108964D01*
X258821116Y-149036506D01*
X258821121Y-149036498D01*
X258914637Y-148823302D01*
X258971789Y-148597615D01*
X258971791Y-148597607D01*
X258991015Y-148365606D01*
X258991015Y-148365593D01*
X258971791Y-148133592D01*
X258971789Y-148133584D01*
X258914637Y-147907897D01*
X258821120Y-147694700D01*
X258773776Y-147622234D01*
X258125360Y-148270650D01*
X258093918Y-148153308D01*
X258021510Y-148027892D01*
X257919108Y-147925490D01*
X257793692Y-147853082D01*
X257676348Y-147821639D01*
X258326484Y-147171501D01*
X258147637Y-147074712D01*
X258147631Y-147074710D01*
X257927442Y-146999119D01*
X257697805Y-146960800D01*
X257464995Y-146960800D01*
X257235357Y-146999119D01*
X257015168Y-147074710D01*
X257015162Y-147074712D01*
X256836314Y-147171501D01*
X257486452Y-147821639D01*
X257369108Y-147853082D01*
X257243692Y-147925490D01*
X257141290Y-148027892D01*
X257068882Y-148153308D01*
X257037439Y-148270651D01*
X256389022Y-147622235D01*
X256341680Y-147694698D01*
X256341678Y-147694702D01*
X256248162Y-147907897D01*
X256191010Y-148133584D01*
X256191008Y-148133592D01*
X256171785Y-148365593D01*
X253987977Y-148365593D01*
X253967703Y-148120925D01*
X253967701Y-148120913D01*
X253907430Y-147882908D01*
X253808805Y-147658068D01*
X253674520Y-147452528D01*
X253655610Y-147431987D01*
X253508231Y-147271890D01*
X253508226Y-147271886D01*
X253508224Y-147271884D01*
X253379251Y-147171501D01*
X253314481Y-147121088D01*
X253314480Y-147121087D01*
X253098552Y-147004232D01*
X253098547Y-147004230D01*
X252866335Y-146924512D01*
X252704885Y-146897570D01*
X252624161Y-146884100D01*
X252378639Y-146884100D01*
X252318096Y-146894203D01*
X252136464Y-146924512D01*
X251904252Y-147004230D01*
X251904247Y-147004232D01*
X251688319Y-147121087D01*
X251688315Y-147121091D01*
X251494575Y-147271884D01*
X251494572Y-147271887D01*
X251328279Y-147452528D01*
X251193994Y-147658068D01*
X251095369Y-147882908D01*
X251035098Y-148120913D01*
X251035096Y-148120925D01*
X251014823Y-148365594D01*
X247650000Y-148365594D01*
X247650000Y-120649996D01*
X269209115Y-120649996D01*
X269209115Y-120650003D01*
X269228992Y-120826425D01*
X269228993Y-120826431D01*
X269287634Y-120994019D01*
X269287635Y-120994020D01*
X269382098Y-121144356D01*
X269507644Y-121269902D01*
X269657980Y-121364365D01*
X269825566Y-121423006D01*
X269825572Y-121423006D01*
X269825574Y-121423007D01*
X270001996Y-121442885D01*
X270002000Y-121442885D01*
X270002004Y-121442885D01*
X270178425Y-121423007D01*
X270178424Y-121423007D01*
X270178434Y-121423006D01*
X270346020Y-121364365D01*
X270496356Y-121269902D01*
X270621902Y-121144356D01*
X270716365Y-120994020D01*
X270775006Y-120826434D01*
X270794885Y-120650000D01*
X270784468Y-120557548D01*
X270775007Y-120473574D01*
X270775006Y-120473568D01*
X270775006Y-120473566D01*
X270716365Y-120305980D01*
X270621902Y-120155644D01*
X270496356Y-120030098D01*
X270496355Y-120030097D01*
X270346019Y-119935634D01*
X270178431Y-119876993D01*
X270178425Y-119876992D01*
X270002004Y-119857115D01*
X270001996Y-119857115D01*
X269825574Y-119876992D01*
X269825568Y-119876993D01*
X269657980Y-119935634D01*
X269507644Y-120030097D01*
X269382097Y-120155644D01*
X269287634Y-120305980D01*
X269228993Y-120473568D01*
X269228992Y-120473574D01*
X269209115Y-120649996D01*
X247650000Y-120649996D01*
X247650000Y-113765374D01*
X247650000Y-113765367D01*
X247650000Y-113538000D01*
X247067035Y-112828303D01*
X273019115Y-112828303D01*
X273019115Y-112828310D01*
X273038992Y-113004732D01*
X273038993Y-113004738D01*
X273097634Y-113172326D01*
X273097635Y-113172327D01*
X273192098Y-113322663D01*
X273317644Y-113448209D01*
X273467980Y-113542672D01*
X273635566Y-113601313D01*
X273635572Y-113601313D01*
X273635574Y-113601314D01*
X273811996Y-113621192D01*
X273812000Y-113621192D01*
X273812004Y-113621192D01*
X273988425Y-113601314D01*
X273988424Y-113601314D01*
X273988434Y-113601313D01*
X274156020Y-113542672D01*
X274306356Y-113448209D01*
X274431902Y-113322663D01*
X274526365Y-113172327D01*
X274585006Y-113004741D01*
X274604885Y-112828307D01*
X274585006Y-112651873D01*
X274526365Y-112484287D01*
X274431902Y-112333951D01*
X274306356Y-112208405D01*
X274306355Y-112208404D01*
X274156019Y-112113941D01*
X273988431Y-112055300D01*
X273988425Y-112055299D01*
X273812004Y-112035422D01*
X273811996Y-112035422D01*
X273635574Y-112055299D01*
X273635568Y-112055300D01*
X273467980Y-112113941D01*
X273317644Y-112208404D01*
X273192097Y-112333951D01*
X273097634Y-112484287D01*
X273038993Y-112651875D01*
X273038992Y-112651881D01*
X273019115Y-112828303D01*
X247067035Y-112828303D01*
X246085175Y-111632996D01*
X274797115Y-111632996D01*
X274797115Y-111633003D01*
X274816992Y-111809425D01*
X274816993Y-111809431D01*
X274875634Y-111977019D01*
X274961669Y-112113941D01*
X274970098Y-112127356D01*
X275095644Y-112252902D01*
X275245980Y-112347365D01*
X275413566Y-112406006D01*
X275413572Y-112406006D01*
X275413574Y-112406007D01*
X275589996Y-112425885D01*
X275590000Y-112425885D01*
X275590004Y-112425885D01*
X275766425Y-112406007D01*
X275766424Y-112406007D01*
X275766434Y-112406006D01*
X275934020Y-112347365D01*
X276084356Y-112252902D01*
X276209902Y-112127356D01*
X276304365Y-111977020D01*
X276363006Y-111809434D01*
X276382885Y-111633000D01*
X276382885Y-111632996D01*
X279750115Y-111632996D01*
X279750115Y-111633003D01*
X279769992Y-111809425D01*
X279769993Y-111809431D01*
X279828634Y-111977019D01*
X279914669Y-112113941D01*
X279923098Y-112127356D01*
X280048644Y-112252902D01*
X280198980Y-112347365D01*
X280366566Y-112406006D01*
X280366572Y-112406006D01*
X280366574Y-112406007D01*
X280542996Y-112425885D01*
X280543000Y-112425885D01*
X280543004Y-112425885D01*
X280719425Y-112406007D01*
X280719424Y-112406007D01*
X280719434Y-112406006D01*
X280887020Y-112347365D01*
X281037356Y-112252902D01*
X281162902Y-112127356D01*
X281257365Y-111977020D01*
X281316006Y-111809434D01*
X281335885Y-111633000D01*
X281316006Y-111456566D01*
X281257365Y-111288980D01*
X281162902Y-111138644D01*
X281037356Y-111013098D01*
X281037355Y-111013097D01*
X280887019Y-110918634D01*
X280719431Y-110859993D01*
X280719425Y-110859992D01*
X280543004Y-110840115D01*
X280542996Y-110840115D01*
X280366574Y-110859992D01*
X280366568Y-110859993D01*
X280198980Y-110918634D01*
X280048644Y-111013097D01*
X279923097Y-111138644D01*
X279828634Y-111288980D01*
X279769993Y-111456568D01*
X279769992Y-111456574D01*
X279750115Y-111632996D01*
X276382885Y-111632996D01*
X276363006Y-111456566D01*
X276304365Y-111288980D01*
X276209902Y-111138644D01*
X276084356Y-111013098D01*
X276084355Y-111013097D01*
X275934019Y-110918634D01*
X275766431Y-110859993D01*
X275766425Y-110859992D01*
X275590004Y-110840115D01*
X275589996Y-110840115D01*
X275413574Y-110859992D01*
X275413568Y-110859993D01*
X275245980Y-110918634D01*
X275095644Y-111013097D01*
X274970097Y-111138644D01*
X274875634Y-111288980D01*
X274816993Y-111456568D01*
X274816992Y-111456574D01*
X274797115Y-111632996D01*
X246085175Y-111632996D01*
X245062825Y-110388396D01*
X271495115Y-110388396D01*
X271495115Y-110388403D01*
X271514992Y-110564825D01*
X271514993Y-110564831D01*
X271573634Y-110732419D01*
X271653796Y-110859994D01*
X271668098Y-110882756D01*
X271793644Y-111008302D01*
X271943980Y-111102765D01*
X272111566Y-111161406D01*
X272111572Y-111161406D01*
X272111574Y-111161407D01*
X272287996Y-111181285D01*
X272288000Y-111181285D01*
X272288004Y-111181285D01*
X272464425Y-111161407D01*
X272464424Y-111161407D01*
X272464434Y-111161406D01*
X272632020Y-111102765D01*
X272782356Y-111008302D01*
X272907902Y-110882756D01*
X273002365Y-110732420D01*
X273061006Y-110564834D01*
X273080885Y-110388400D01*
X273078022Y-110362991D01*
X273078021Y-110362984D01*
X276397319Y-110362984D01*
X276397319Y-110362991D01*
X276417196Y-110539413D01*
X276417197Y-110539419D01*
X276475838Y-110707007D01*
X276491812Y-110732428D01*
X276570302Y-110857344D01*
X276695848Y-110982890D01*
X276846184Y-111077353D01*
X277013770Y-111135994D01*
X277013776Y-111135994D01*
X277013778Y-111135995D01*
X277190200Y-111155873D01*
X277190204Y-111155873D01*
X277190208Y-111155873D01*
X277366629Y-111135995D01*
X277366628Y-111135995D01*
X277366638Y-111135994D01*
X277534224Y-111077353D01*
X277684560Y-110982890D01*
X277810106Y-110857344D01*
X277904569Y-110707008D01*
X277963210Y-110539422D01*
X277980225Y-110388408D01*
X277980225Y-110388404D01*
X281147123Y-110388404D01*
X281147123Y-110388411D01*
X281167000Y-110564833D01*
X281167001Y-110564839D01*
X281225642Y-110732427D01*
X281305799Y-110859994D01*
X281320106Y-110882764D01*
X281445652Y-111008310D01*
X281595988Y-111102773D01*
X281763574Y-111161414D01*
X281763580Y-111161414D01*
X281763582Y-111161415D01*
X281940004Y-111181293D01*
X281940008Y-111181293D01*
X281940012Y-111181293D01*
X282116433Y-111161415D01*
X282116432Y-111161415D01*
X282116442Y-111161414D01*
X282284028Y-111102773D01*
X282434364Y-111008310D01*
X282559910Y-110882764D01*
X282654373Y-110732428D01*
X282713014Y-110564842D01*
X282732893Y-110388408D01*
X282732892Y-110388403D01*
X282713015Y-110211982D01*
X282713014Y-110211976D01*
X282713014Y-110211974D01*
X282654373Y-110044388D01*
X282559910Y-109894052D01*
X282434364Y-109768506D01*
X282434363Y-109768505D01*
X282284027Y-109674042D01*
X282116439Y-109615401D01*
X282116433Y-109615400D01*
X281940012Y-109595523D01*
X281940004Y-109595523D01*
X281763582Y-109615400D01*
X281763576Y-109615401D01*
X281595988Y-109674042D01*
X281445652Y-109768505D01*
X281320105Y-109894052D01*
X281225642Y-110044388D01*
X281167001Y-110211976D01*
X281167000Y-110211982D01*
X281147123Y-110388404D01*
X277980225Y-110388404D01*
X277983089Y-110362991D01*
X277983089Y-110362984D01*
X277963211Y-110186562D01*
X277963210Y-110186556D01*
X277963210Y-110186554D01*
X277904569Y-110018968D01*
X277810106Y-109868632D01*
X277684560Y-109743086D01*
X277684559Y-109743085D01*
X277534223Y-109648622D01*
X277366635Y-109589981D01*
X277366629Y-109589980D01*
X277190208Y-109570103D01*
X277190200Y-109570103D01*
X277013778Y-109589980D01*
X277013772Y-109589981D01*
X276846184Y-109648622D01*
X276695848Y-109743085D01*
X276570301Y-109868632D01*
X276475838Y-110018968D01*
X276417197Y-110186556D01*
X276417196Y-110186562D01*
X276397319Y-110362984D01*
X273078021Y-110362984D01*
X273061007Y-110211974D01*
X273061006Y-110211968D01*
X273061006Y-110211966D01*
X273002365Y-110044380D01*
X272907902Y-109894044D01*
X272782356Y-109768498D01*
X272782355Y-109768497D01*
X272632019Y-109674034D01*
X272464431Y-109615393D01*
X272464425Y-109615392D01*
X272288004Y-109595515D01*
X272287996Y-109595515D01*
X272111574Y-109615392D01*
X272111568Y-109615393D01*
X271943980Y-109674034D01*
X271793644Y-109768497D01*
X271668097Y-109894044D01*
X271573634Y-110044380D01*
X271514993Y-110211968D01*
X271514992Y-110211974D01*
X271495115Y-110388396D01*
X245062825Y-110388396D01*
X243977882Y-109067596D01*
X274797115Y-109067596D01*
X274797115Y-109067603D01*
X274816992Y-109244025D01*
X274816993Y-109244031D01*
X274875634Y-109411619D01*
X274875635Y-109411620D01*
X274970098Y-109561956D01*
X275095644Y-109687502D01*
X275245980Y-109781965D01*
X275413566Y-109840606D01*
X275413572Y-109840606D01*
X275413574Y-109840607D01*
X275589996Y-109860485D01*
X275590000Y-109860485D01*
X275590004Y-109860485D01*
X275766425Y-109840607D01*
X275766424Y-109840607D01*
X275766434Y-109840606D01*
X275934020Y-109781965D01*
X276084356Y-109687502D01*
X276209902Y-109561956D01*
X276304365Y-109411620D01*
X276363006Y-109244034D01*
X276380024Y-109092996D01*
X279750149Y-109092996D01*
X279750149Y-109093003D01*
X279770026Y-109269425D01*
X279770027Y-109269431D01*
X279828668Y-109437019D01*
X279828669Y-109437020D01*
X279923132Y-109587356D01*
X280048678Y-109712902D01*
X280199014Y-109807365D01*
X280366600Y-109866006D01*
X280366606Y-109866006D01*
X280366608Y-109866007D01*
X280543030Y-109885885D01*
X280543034Y-109885885D01*
X280543038Y-109885885D01*
X280719459Y-109866007D01*
X280719458Y-109866007D01*
X280719468Y-109866006D01*
X280887054Y-109807365D01*
X281037390Y-109712902D01*
X281162936Y-109587356D01*
X281257399Y-109437020D01*
X281316040Y-109269434D01*
X281335919Y-109093000D01*
X281333057Y-109067603D01*
X281316041Y-108916574D01*
X281316040Y-108916568D01*
X281316040Y-108916566D01*
X281257399Y-108748980D01*
X281162936Y-108598644D01*
X281037390Y-108473098D01*
X281037389Y-108473097D01*
X280887053Y-108378634D01*
X280719465Y-108319993D01*
X280719459Y-108319992D01*
X280543038Y-108300115D01*
X280543030Y-108300115D01*
X280366608Y-108319992D01*
X280366602Y-108319993D01*
X280199014Y-108378634D01*
X280048678Y-108473097D01*
X279923131Y-108598644D01*
X279828668Y-108748980D01*
X279770027Y-108916568D01*
X279770026Y-108916574D01*
X279750149Y-109092996D01*
X276380024Y-109092996D01*
X276382885Y-109067600D01*
X276363006Y-108891166D01*
X276304365Y-108723580D01*
X276209902Y-108573244D01*
X276084356Y-108447698D01*
X276084355Y-108447697D01*
X275934019Y-108353234D01*
X275766431Y-108294593D01*
X275766425Y-108294592D01*
X275590004Y-108274715D01*
X275589996Y-108274715D01*
X275413574Y-108294592D01*
X275413568Y-108294593D01*
X275245980Y-108353234D01*
X275095644Y-108447697D01*
X274970097Y-108573244D01*
X274875634Y-108723580D01*
X274816993Y-108891168D01*
X274816992Y-108891174D01*
X274797115Y-109067596D01*
X243977882Y-109067596D01*
X239304286Y-103378000D01*
X236842300Y-100380800D01*
X263588500Y-100380800D01*
X263588500Y-106933999D01*
X263592158Y-106971158D01*
X263592160Y-106971164D01*
X263620605Y-107039837D01*
X263673162Y-107092394D01*
X263673163Y-107092394D01*
X263673164Y-107092395D01*
X263741835Y-107120840D01*
X263741839Y-107120840D01*
X263741841Y-107120841D01*
X263771791Y-107123790D01*
X263779000Y-107124500D01*
X271598280Y-107124500D01*
X271665319Y-107144185D01*
X271711074Y-107196989D01*
X271721018Y-107266147D01*
X271691993Y-107329703D01*
X271685961Y-107336181D01*
X271668097Y-107354044D01*
X271573634Y-107504380D01*
X271514993Y-107671968D01*
X271514992Y-107671974D01*
X271495115Y-107848396D01*
X271495115Y-107848403D01*
X271514992Y-108024825D01*
X271514993Y-108024831D01*
X271573634Y-108192419D01*
X271653796Y-108319994D01*
X271668098Y-108342756D01*
X271793644Y-108468302D01*
X271943980Y-108562765D01*
X272111566Y-108621406D01*
X272111572Y-108621406D01*
X272111574Y-108621407D01*
X272287996Y-108641285D01*
X272288000Y-108641285D01*
X272288004Y-108641285D01*
X272464425Y-108621407D01*
X272464424Y-108621407D01*
X272464434Y-108621406D01*
X272632020Y-108562765D01*
X272782356Y-108468302D01*
X272907902Y-108342756D01*
X273002365Y-108192420D01*
X273061006Y-108024834D01*
X273080885Y-107848400D01*
X273061006Y-107671966D01*
X273002365Y-107504380D01*
X272907902Y-107354044D01*
X272890039Y-107336181D01*
X272856554Y-107274858D01*
X272861538Y-107205166D01*
X272903410Y-107149233D01*
X272968874Y-107124816D01*
X272977720Y-107124500D01*
X283206522Y-107124500D01*
X283206523Y-107124500D01*
X283215466Y-107123619D01*
X283243681Y-107120841D01*
X283243682Y-107120840D01*
X283243688Y-107120840D01*
X283312359Y-107092395D01*
X283364918Y-107039836D01*
X283393363Y-106971165D01*
X283397023Y-106934000D01*
X283392856Y-103123999D01*
X285871893Y-103123999D01*
X285871893Y-103124000D01*
X285891791Y-103351437D01*
X285891793Y-103351447D01*
X285950880Y-103571965D01*
X285950884Y-103571974D01*
X286047370Y-103778890D01*
X286059891Y-103796771D01*
X286681677Y-103174986D01*
X286681677Y-103189826D01*
X286715752Y-103316993D01*
X286781578Y-103431007D01*
X286874670Y-103524099D01*
X286988684Y-103589925D01*
X287115851Y-103624000D01*
X287130689Y-103624000D01*
X286508904Y-104245784D01*
X286526786Y-104258307D01*
X286733702Y-104354792D01*
X286733711Y-104354796D01*
X286954229Y-104413883D01*
X286954239Y-104413885D01*
X287181676Y-104433784D01*
X287181678Y-104433784D01*
X287409114Y-104413885D01*
X287409124Y-104413883D01*
X287629642Y-104354796D01*
X287629651Y-104354792D01*
X287836571Y-104258304D01*
X287836574Y-104258303D01*
X287854448Y-104245785D01*
X287854449Y-104245784D01*
X287232666Y-103624000D01*
X287247503Y-103624000D01*
X287374670Y-103589925D01*
X287488684Y-103524099D01*
X287581776Y-103431007D01*
X287647602Y-103316993D01*
X287681677Y-103189826D01*
X287681677Y-103174988D01*
X288303461Y-103796772D01*
X288303462Y-103796771D01*
X288315980Y-103778897D01*
X288315981Y-103778894D01*
X288412469Y-103571974D01*
X288412473Y-103571965D01*
X288471560Y-103351447D01*
X288471562Y-103351437D01*
X288491461Y-103124000D01*
X288491461Y-103123999D01*
X288471562Y-102896562D01*
X288471560Y-102896552D01*
X288412473Y-102676034D01*
X288412469Y-102676025D01*
X288315984Y-102469109D01*
X288303461Y-102451227D01*
X287681677Y-103073011D01*
X287681677Y-103058174D01*
X287647602Y-102931007D01*
X287581776Y-102816993D01*
X287488684Y-102723901D01*
X287374670Y-102658075D01*
X287247503Y-102624000D01*
X287232665Y-102624000D01*
X287768869Y-102087794D01*
X290800177Y-102087794D01*
X290800177Y-104160206D01*
X290810981Y-104234361D01*
X290810981Y-104234362D01*
X290810982Y-104234364D01*
X290866898Y-104348743D01*
X290866900Y-104348746D01*
X290956930Y-104438776D01*
X290956933Y-104438778D01*
X291066540Y-104492361D01*
X291071316Y-104494696D01*
X291145471Y-104505500D01*
X291145477Y-104505500D01*
X293217877Y-104505500D01*
X293217883Y-104505500D01*
X293292038Y-104494696D01*
X293349230Y-104466736D01*
X293406420Y-104438778D01*
X293406423Y-104438776D01*
X293496453Y-104348746D01*
X293496455Y-104348743D01*
X293546788Y-104245785D01*
X293552373Y-104234361D01*
X293563177Y-104160206D01*
X293563177Y-102087794D01*
X293552373Y-102013639D01*
X293540667Y-101989694D01*
X293496455Y-101899256D01*
X293496453Y-101899253D01*
X293406423Y-101809223D01*
X293406420Y-101809221D01*
X293292041Y-101753305D01*
X293292039Y-101753304D01*
X293292038Y-101753304D01*
X293217883Y-101742500D01*
X291145471Y-101742500D01*
X291071316Y-101753304D01*
X291071314Y-101753304D01*
X291071312Y-101753305D01*
X290956933Y-101809221D01*
X290956930Y-101809223D01*
X290866900Y-101899253D01*
X290866898Y-101899256D01*
X290810982Y-102013635D01*
X290810981Y-102013637D01*
X290810981Y-102013639D01*
X290800177Y-102087794D01*
X287768869Y-102087794D01*
X287854449Y-102002214D01*
X287836567Y-101989693D01*
X287629651Y-101893207D01*
X287629642Y-101893203D01*
X287409124Y-101834116D01*
X287409114Y-101834114D01*
X287181678Y-101814216D01*
X287181676Y-101814216D01*
X286954239Y-101834114D01*
X286954229Y-101834116D01*
X286733711Y-101893203D01*
X286733702Y-101893207D01*
X286526785Y-101989694D01*
X286508904Y-102002214D01*
X287130690Y-102624000D01*
X287115851Y-102624000D01*
X286988684Y-102658075D01*
X286874670Y-102723901D01*
X286781578Y-102816993D01*
X286715752Y-102931007D01*
X286681677Y-103058174D01*
X286681677Y-103073012D01*
X286059891Y-102451227D01*
X286047371Y-102469108D01*
X285950884Y-102676025D01*
X285950880Y-102676034D01*
X285891793Y-102896552D01*
X285891791Y-102896562D01*
X285871893Y-103123999D01*
X283392856Y-103123999D01*
X283387800Y-98501200D01*
X283016023Y-98501200D01*
X283016023Y-106619500D01*
X282996338Y-106686539D01*
X282943534Y-106732294D01*
X282892023Y-106743500D01*
X264093500Y-106743500D01*
X264026461Y-106723815D01*
X263980706Y-106671011D01*
X263969500Y-106619500D01*
X263969500Y-100380800D01*
X263965841Y-100343641D01*
X263965840Y-100343639D01*
X263965840Y-100343635D01*
X263937395Y-100274964D01*
X263937394Y-100274963D01*
X263937394Y-100274962D01*
X263884838Y-100222406D01*
X263816165Y-100193960D01*
X263741835Y-100193960D01*
X263741834Y-100193960D01*
X263673161Y-100222406D01*
X263620605Y-100274962D01*
X263592160Y-100343635D01*
X263592158Y-100343641D01*
X263588500Y-100380800D01*
X236842300Y-100380800D01*
X236114830Y-99495184D01*
X236106461Y-99483714D01*
X236039309Y-99379649D01*
X236026758Y-99354217D01*
X235987421Y-99244356D01*
X235980977Y-99216736D01*
X235966814Y-99093703D01*
X235966000Y-99079522D01*
X235966000Y-98454229D01*
X257284781Y-98454229D01*
X257284781Y-98454230D01*
X257315435Y-98473211D01*
X257315442Y-98473214D01*
X257506359Y-98547175D01*
X257506364Y-98547176D01*
X257707627Y-98584800D01*
X257912373Y-98584800D01*
X258113635Y-98547176D01*
X258113636Y-98547176D01*
X258304562Y-98473211D01*
X258335218Y-98454229D01*
X257810001Y-97929012D01*
X257810000Y-97929012D01*
X257284781Y-98454229D01*
X235966000Y-98454229D01*
X235966000Y-97479999D01*
X256700467Y-97479999D01*
X256700467Y-97480000D01*
X256719358Y-97683871D01*
X256775392Y-97880813D01*
X256836816Y-98004169D01*
X256836817Y-98004169D01*
X257360987Y-97480000D01*
X257360987Y-97479999D01*
X257308327Y-97427339D01*
X257410000Y-97427339D01*
X257410000Y-97532661D01*
X257437259Y-97634394D01*
X257489920Y-97725606D01*
X257564394Y-97800080D01*
X257655606Y-97852741D01*
X257757339Y-97880000D01*
X257862661Y-97880000D01*
X257964394Y-97852741D01*
X258055606Y-97800080D01*
X258130080Y-97725606D01*
X258182741Y-97634394D01*
X258210000Y-97532661D01*
X258210000Y-97480000D01*
X258259012Y-97480000D01*
X258783181Y-98004168D01*
X258783182Y-98004168D01*
X258844609Y-97880808D01*
X258900641Y-97683871D01*
X258919533Y-97480000D01*
X258919533Y-97479999D01*
X258900641Y-97276128D01*
X258844609Y-97079191D01*
X258783181Y-96955830D01*
X258259012Y-97480000D01*
X258210000Y-97480000D01*
X258210000Y-97427339D01*
X258182741Y-97325606D01*
X258130080Y-97234394D01*
X258055606Y-97159920D01*
X257964394Y-97107259D01*
X257862661Y-97080000D01*
X257757339Y-97080000D01*
X257655606Y-97107259D01*
X257564394Y-97159920D01*
X257489920Y-97234394D01*
X257437259Y-97325606D01*
X257410000Y-97427339D01*
X257308327Y-97427339D01*
X256836816Y-96955829D01*
X256775392Y-97079186D01*
X256719358Y-97276128D01*
X256700467Y-97479999D01*
X235966000Y-97479999D01*
X235966000Y-96505768D01*
X257284781Y-96505768D01*
X257284781Y-96505770D01*
X257810000Y-97030987D01*
X257810001Y-97030987D01*
X258335218Y-96505769D01*
X258304559Y-96486786D01*
X258304555Y-96486784D01*
X258113640Y-96412824D01*
X258113635Y-96412823D01*
X257912373Y-96375200D01*
X257707627Y-96375200D01*
X257506364Y-96412823D01*
X257506363Y-96412823D01*
X257315436Y-96486788D01*
X257284781Y-96505768D01*
X235966000Y-96505768D01*
X235966000Y-93143794D01*
X256628500Y-93143794D01*
X256628500Y-94816206D01*
X256639304Y-94890361D01*
X256639304Y-94890362D01*
X256639305Y-94890364D01*
X256695221Y-95004743D01*
X256695223Y-95004746D01*
X256785253Y-95094776D01*
X256785256Y-95094778D01*
X256894863Y-95148361D01*
X256899639Y-95150696D01*
X256973794Y-95161500D01*
X256973800Y-95161500D01*
X258646200Y-95161500D01*
X258646206Y-95161500D01*
X258720361Y-95150696D01*
X258777553Y-95122736D01*
X258834743Y-95094778D01*
X258834746Y-95094776D01*
X258924776Y-95004746D01*
X258924778Y-95004743D01*
X258952736Y-94947553D01*
X258980696Y-94890361D01*
X258991500Y-94816206D01*
X258991500Y-93143794D01*
X258980696Y-93069639D01*
X258978361Y-93064863D01*
X258924778Y-92955256D01*
X258924776Y-92955253D01*
X258834746Y-92865223D01*
X258834743Y-92865221D01*
X258720364Y-92809305D01*
X258720362Y-92809304D01*
X258720361Y-92809304D01*
X258646206Y-92798500D01*
X256973794Y-92798500D01*
X256899639Y-92809304D01*
X256899637Y-92809304D01*
X256899635Y-92809305D01*
X256785256Y-92865221D01*
X256785253Y-92865223D01*
X256695223Y-92955253D01*
X256695221Y-92955256D01*
X256639305Y-93069635D01*
X256639304Y-93069637D01*
X256639304Y-93069639D01*
X256628500Y-93143794D01*
X235966000Y-93143794D01*
X235966000Y-91947996D01*
X260573115Y-91947996D01*
X260573115Y-91948003D01*
X260592992Y-92124425D01*
X260592993Y-92124431D01*
X260651634Y-92292019D01*
X260651635Y-92292020D01*
X260746098Y-92442356D01*
X260871644Y-92567902D01*
X261021980Y-92662365D01*
X261189566Y-92721006D01*
X261189572Y-92721006D01*
X261189574Y-92721007D01*
X261365996Y-92740885D01*
X261366000Y-92740885D01*
X261366004Y-92740885D01*
X261542425Y-92721007D01*
X261542424Y-92721007D01*
X261542434Y-92721006D01*
X261710020Y-92662365D01*
X261860356Y-92567902D01*
X261985902Y-92442356D01*
X262080365Y-92292020D01*
X262139006Y-92124434D01*
X262158885Y-91948000D01*
X262139006Y-91771566D01*
X262080365Y-91603980D01*
X261985902Y-91453644D01*
X261860356Y-91328098D01*
X261860355Y-91328097D01*
X261710019Y-91233634D01*
X261573876Y-91185996D01*
X295117115Y-91185996D01*
X295117115Y-91186003D01*
X295136992Y-91362425D01*
X295136993Y-91362431D01*
X295195634Y-91530019D01*
X295280805Y-91665566D01*
X295290098Y-91680356D01*
X295415644Y-91805902D01*
X295565980Y-91900365D01*
X295733566Y-91959006D01*
X295733572Y-91959006D01*
X295733574Y-91959007D01*
X295909996Y-91978885D01*
X295910000Y-91978885D01*
X295910004Y-91978885D01*
X296086425Y-91959007D01*
X296086424Y-91959007D01*
X296086434Y-91959006D01*
X296254020Y-91900365D01*
X296404356Y-91805902D01*
X296529902Y-91680356D01*
X296624365Y-91530020D01*
X296683006Y-91362434D01*
X296699871Y-91212752D01*
X296702885Y-91186003D01*
X296702885Y-91185996D01*
X296683007Y-91009574D01*
X296683006Y-91009568D01*
X296683006Y-91009566D01*
X296624365Y-90841980D01*
X296529902Y-90691644D01*
X296404356Y-90566098D01*
X296404355Y-90566097D01*
X296254019Y-90471634D01*
X296086431Y-90412993D01*
X296086425Y-90412992D01*
X295910004Y-90393115D01*
X295909996Y-90393115D01*
X295733574Y-90412992D01*
X295733568Y-90412993D01*
X295565980Y-90471634D01*
X295415644Y-90566097D01*
X295290097Y-90691644D01*
X295195634Y-90841980D01*
X295136993Y-91009568D01*
X295136992Y-91009574D01*
X295117115Y-91185996D01*
X261573876Y-91185996D01*
X261542431Y-91174993D01*
X261542425Y-91174992D01*
X261366004Y-91155115D01*
X261365996Y-91155115D01*
X261189574Y-91174992D01*
X261189568Y-91174993D01*
X261021980Y-91233634D01*
X260871644Y-91328097D01*
X260746097Y-91453644D01*
X260651634Y-91603980D01*
X260592993Y-91771568D01*
X260592992Y-91771574D01*
X260573115Y-91947996D01*
X235966000Y-91947996D01*
X235966000Y-90594197D01*
X237929292Y-90594197D01*
X237929292Y-90594202D01*
X237935429Y-90664356D01*
X237948086Y-90809022D01*
X238002870Y-91013477D01*
X238003900Y-91017319D01*
X238095032Y-91212752D01*
X238095033Y-91212754D01*
X238218721Y-91389400D01*
X238371199Y-91541878D01*
X238371202Y-91541880D01*
X238547846Y-91665567D01*
X238743284Y-91756701D01*
X238951578Y-91812514D01*
X239105022Y-91825938D01*
X239166398Y-91831308D01*
X239166400Y-91831308D01*
X239166402Y-91831308D01*
X239220105Y-91826609D01*
X239381222Y-91812514D01*
X239589516Y-91756701D01*
X239784954Y-91665567D01*
X239961598Y-91541880D01*
X240114080Y-91389398D01*
X240237767Y-91212754D01*
X240328901Y-91017316D01*
X240384714Y-90809022D01*
X240403508Y-90594200D01*
X240403508Y-90594199D01*
X243005749Y-90594199D01*
X243005749Y-90594200D01*
X243025510Y-90807468D01*
X243025511Y-90807470D01*
X243084123Y-91013471D01*
X243084128Y-91013482D01*
X243155256Y-91156328D01*
X243155258Y-91156328D01*
X243584145Y-90727441D01*
X243610177Y-90824595D01*
X243688761Y-90960705D01*
X243799895Y-91071839D01*
X243936005Y-91150423D01*
X244033157Y-91176454D01*
X243604207Y-91605403D01*
X243604207Y-91605404D01*
X243649047Y-91633168D01*
X243848775Y-91710543D01*
X244059311Y-91749900D01*
X244273489Y-91749900D01*
X244484024Y-91710543D01*
X244484025Y-91710543D01*
X244683748Y-91633170D01*
X244728592Y-91605403D01*
X244299643Y-91176454D01*
X244396795Y-91150423D01*
X244532905Y-91071839D01*
X244644039Y-90960705D01*
X244722623Y-90824595D01*
X244748654Y-90727442D01*
X245177540Y-91156328D01*
X245177541Y-91156328D01*
X245248673Y-91013477D01*
X245248676Y-91013471D01*
X245307288Y-90807470D01*
X245307289Y-90807468D01*
X245327051Y-90594200D01*
X245327051Y-90594199D01*
X245307289Y-90380931D01*
X245307288Y-90380929D01*
X245248676Y-90174928D01*
X245248673Y-90174922D01*
X245246220Y-90169996D01*
X261589115Y-90169996D01*
X261589115Y-90170003D01*
X261608992Y-90346425D01*
X261608993Y-90346431D01*
X261667634Y-90514019D01*
X261718016Y-90594200D01*
X261762098Y-90664356D01*
X261887644Y-90789902D01*
X262037980Y-90884365D01*
X262205566Y-90943006D01*
X262205572Y-90943006D01*
X262205574Y-90943007D01*
X262381996Y-90962885D01*
X262382000Y-90962885D01*
X262382004Y-90962885D01*
X262558425Y-90943007D01*
X262558424Y-90943007D01*
X262558434Y-90943006D01*
X262726020Y-90884365D01*
X262876356Y-90789902D01*
X263001902Y-90664356D01*
X263096365Y-90514020D01*
X263155006Y-90346434D01*
X263155799Y-90339389D01*
X263174885Y-90170003D01*
X263174885Y-90169996D01*
X263155007Y-89993574D01*
X263155006Y-89993568D01*
X263155006Y-89993566D01*
X263096365Y-89825980D01*
X263001902Y-89675644D01*
X262876356Y-89550098D01*
X262876355Y-89550097D01*
X262726019Y-89455634D01*
X262558431Y-89396993D01*
X262558425Y-89396992D01*
X262382004Y-89377115D01*
X262381996Y-89377115D01*
X262205574Y-89396992D01*
X262205568Y-89396993D01*
X262037980Y-89455634D01*
X261887644Y-89550097D01*
X261762097Y-89675644D01*
X261667634Y-89825980D01*
X261608993Y-89993568D01*
X261608992Y-89993574D01*
X261589115Y-90169996D01*
X245246220Y-90169996D01*
X245177540Y-90032070D01*
X244748654Y-90460956D01*
X244722623Y-90363805D01*
X244644039Y-90227695D01*
X244532905Y-90116561D01*
X244396795Y-90037977D01*
X244299642Y-90011945D01*
X244728592Y-89582995D01*
X244683747Y-89555228D01*
X244683743Y-89555226D01*
X244484029Y-89477857D01*
X244484024Y-89477856D01*
X244273489Y-89438500D01*
X244059311Y-89438500D01*
X243848775Y-89477856D01*
X243848770Y-89477857D01*
X243649058Y-89555225D01*
X243649052Y-89555228D01*
X243604206Y-89582994D01*
X243604206Y-89582995D01*
X244033158Y-90011945D01*
X243936005Y-90037977D01*
X243799895Y-90116561D01*
X243688761Y-90227695D01*
X243610177Y-90363805D01*
X243584145Y-90460957D01*
X243155257Y-90032069D01*
X243084125Y-90174922D01*
X243084122Y-90174928D01*
X243025511Y-90380928D01*
X243025510Y-90380931D01*
X243005749Y-90594199D01*
X240403508Y-90594199D01*
X240401049Y-90566098D01*
X240387655Y-90412993D01*
X240384714Y-90379378D01*
X240328901Y-90171084D01*
X240237767Y-89975646D01*
X240114080Y-89799002D01*
X240114078Y-89798999D01*
X239961600Y-89646521D01*
X239784954Y-89522833D01*
X239784952Y-89522832D01*
X239589519Y-89431700D01*
X239589516Y-89431699D01*
X239459997Y-89396994D01*
X239381223Y-89375886D01*
X239381216Y-89375885D01*
X239166402Y-89357092D01*
X239166398Y-89357092D01*
X238951583Y-89375885D01*
X238951576Y-89375886D01*
X238743280Y-89431700D01*
X238547847Y-89522832D01*
X238547845Y-89522833D01*
X238371199Y-89646521D01*
X238218721Y-89798999D01*
X238095033Y-89975645D01*
X238095032Y-89975647D01*
X238003900Y-90171080D01*
X237948086Y-90379376D01*
X237948085Y-90379383D01*
X237929292Y-90594197D01*
X235966000Y-90594197D01*
X235966000Y-89259429D01*
X257284781Y-89259429D01*
X257284781Y-89259430D01*
X257315435Y-89278411D01*
X257315442Y-89278414D01*
X257506359Y-89352375D01*
X257506364Y-89352376D01*
X257707627Y-89390000D01*
X257912373Y-89390000D01*
X258113635Y-89352376D01*
X258113636Y-89352376D01*
X258304562Y-89278411D01*
X258335218Y-89259429D01*
X257810001Y-88734212D01*
X257810000Y-88734212D01*
X257284781Y-89259429D01*
X235966000Y-89259429D01*
X235966000Y-88285199D01*
X256700467Y-88285199D01*
X256700467Y-88285200D01*
X256719358Y-88489071D01*
X256775392Y-88686013D01*
X256836816Y-88809369D01*
X256836817Y-88809369D01*
X257360987Y-88285200D01*
X257360987Y-88285199D01*
X257308327Y-88232539D01*
X257410000Y-88232539D01*
X257410000Y-88337861D01*
X257437259Y-88439594D01*
X257489920Y-88530806D01*
X257564394Y-88605280D01*
X257655606Y-88657941D01*
X257757339Y-88685200D01*
X257862661Y-88685200D01*
X257964394Y-88657941D01*
X258055606Y-88605280D01*
X258130080Y-88530806D01*
X258182741Y-88439594D01*
X258210000Y-88337861D01*
X258210000Y-88285200D01*
X258259012Y-88285200D01*
X258783181Y-88809368D01*
X258783182Y-88809368D01*
X258844609Y-88686008D01*
X258900641Y-88489071D01*
X258909637Y-88391996D01*
X260573115Y-88391996D01*
X260573115Y-88392003D01*
X260592992Y-88568425D01*
X260592993Y-88568431D01*
X260651634Y-88736019D01*
X260697724Y-88809369D01*
X260746098Y-88886356D01*
X260871644Y-89011902D01*
X261021980Y-89106365D01*
X261189566Y-89165006D01*
X261189572Y-89165006D01*
X261189574Y-89165007D01*
X261365996Y-89184885D01*
X261366000Y-89184885D01*
X261366004Y-89184885D01*
X261542425Y-89165007D01*
X261542424Y-89165007D01*
X261542434Y-89165006D01*
X261573899Y-89153996D01*
X295117115Y-89153996D01*
X295117115Y-89154003D01*
X295136992Y-89330425D01*
X295136993Y-89330431D01*
X295195634Y-89498019D01*
X295249029Y-89582995D01*
X295290098Y-89648356D01*
X295415644Y-89773902D01*
X295565980Y-89868365D01*
X295733566Y-89927006D01*
X295733572Y-89927006D01*
X295733574Y-89927007D01*
X295909996Y-89946885D01*
X295910000Y-89946885D01*
X295910004Y-89946885D01*
X296086425Y-89927007D01*
X296086424Y-89927007D01*
X296086434Y-89927006D01*
X296254020Y-89868365D01*
X296404356Y-89773902D01*
X296529902Y-89648356D01*
X296624365Y-89498020D01*
X296683006Y-89330434D01*
X296688867Y-89278414D01*
X296702885Y-89154003D01*
X296702885Y-89153996D01*
X296683007Y-88977574D01*
X296683006Y-88977568D01*
X296683006Y-88977566D01*
X296624365Y-88809980D01*
X296529902Y-88659644D01*
X296404356Y-88534098D01*
X296404355Y-88534097D01*
X296254019Y-88439634D01*
X296086431Y-88380993D01*
X296086425Y-88380992D01*
X295910004Y-88361115D01*
X295909996Y-88361115D01*
X295733574Y-88380992D01*
X295733568Y-88380993D01*
X295565980Y-88439634D01*
X295415644Y-88534097D01*
X295290097Y-88659644D01*
X295195634Y-88809980D01*
X295136993Y-88977568D01*
X295136992Y-88977574D01*
X295117115Y-89153996D01*
X261573899Y-89153996D01*
X261710020Y-89106365D01*
X261860356Y-89011902D01*
X261985902Y-88886356D01*
X262080365Y-88736020D01*
X262139006Y-88568434D01*
X262158885Y-88392000D01*
X262155405Y-88361115D01*
X262139007Y-88215574D01*
X262139006Y-88215568D01*
X262139006Y-88215566D01*
X262080365Y-88047980D01*
X261985902Y-87897644D01*
X261860356Y-87772098D01*
X261860355Y-87772097D01*
X261710019Y-87677634D01*
X261542431Y-87618993D01*
X261542425Y-87618992D01*
X261366004Y-87599115D01*
X261365996Y-87599115D01*
X261189574Y-87618992D01*
X261189568Y-87618993D01*
X261021980Y-87677634D01*
X260871644Y-87772097D01*
X260746097Y-87897644D01*
X260651634Y-88047980D01*
X260592993Y-88215568D01*
X260592992Y-88215574D01*
X260573115Y-88391996D01*
X258909637Y-88391996D01*
X258919533Y-88285200D01*
X258919533Y-88285199D01*
X258900641Y-88081328D01*
X258844609Y-87884391D01*
X258783181Y-87761030D01*
X258259012Y-88285200D01*
X258210000Y-88285200D01*
X258210000Y-88232539D01*
X258182741Y-88130806D01*
X258130080Y-88039594D01*
X258055606Y-87965120D01*
X257964394Y-87912459D01*
X257862661Y-87885200D01*
X257757339Y-87885200D01*
X257655606Y-87912459D01*
X257564394Y-87965120D01*
X257489920Y-88039594D01*
X257437259Y-88130806D01*
X257410000Y-88232539D01*
X257308327Y-88232539D01*
X256836816Y-87761029D01*
X256775392Y-87884386D01*
X256719358Y-88081328D01*
X256700467Y-88285199D01*
X235966000Y-88285199D01*
X235966000Y-87310968D01*
X257284781Y-87310968D01*
X257284781Y-87310970D01*
X257810000Y-87836187D01*
X257810001Y-87836187D01*
X258335218Y-87310969D01*
X258304559Y-87291986D01*
X258304555Y-87291984D01*
X258113640Y-87218024D01*
X258113635Y-87218023D01*
X257912373Y-87180400D01*
X257707627Y-87180400D01*
X257506364Y-87218023D01*
X257506363Y-87218023D01*
X257315436Y-87291988D01*
X257284781Y-87310968D01*
X235966000Y-87310968D01*
X235966000Y-85594197D01*
X237929292Y-85594197D01*
X237929292Y-85594202D01*
X237948085Y-85809016D01*
X237948086Y-85809023D01*
X237951326Y-85821115D01*
X238002870Y-86013477D01*
X238003900Y-86017319D01*
X238095032Y-86212752D01*
X238095033Y-86212754D01*
X238218721Y-86389400D01*
X238371199Y-86541878D01*
X238371202Y-86541880D01*
X238547846Y-86665567D01*
X238743284Y-86756701D01*
X238951578Y-86812514D01*
X239105022Y-86825938D01*
X239166398Y-86831308D01*
X239166400Y-86831308D01*
X239166402Y-86831308D01*
X239220105Y-86826609D01*
X239381222Y-86812514D01*
X239589516Y-86756701D01*
X239784954Y-86665567D01*
X239961598Y-86541880D01*
X240114080Y-86389398D01*
X240237767Y-86212754D01*
X240328901Y-86017316D01*
X240384714Y-85809022D01*
X240403508Y-85594200D01*
X240403508Y-85594199D01*
X243005749Y-85594199D01*
X243005749Y-85594200D01*
X243025510Y-85807468D01*
X243025511Y-85807470D01*
X243084123Y-86013471D01*
X243084128Y-86013482D01*
X243155256Y-86156328D01*
X243155258Y-86156328D01*
X243584145Y-85727441D01*
X243610177Y-85824595D01*
X243688761Y-85960705D01*
X243799895Y-86071839D01*
X243936005Y-86150423D01*
X244033157Y-86176454D01*
X243604207Y-86605403D01*
X243604207Y-86605404D01*
X243649047Y-86633168D01*
X243848775Y-86710543D01*
X244059311Y-86749900D01*
X244273489Y-86749900D01*
X244484024Y-86710543D01*
X244484025Y-86710543D01*
X244683748Y-86633170D01*
X244714714Y-86613996D01*
X261589115Y-86613996D01*
X261589115Y-86614003D01*
X261608992Y-86790425D01*
X261608993Y-86790431D01*
X261667634Y-86958019D01*
X261667635Y-86958020D01*
X261762098Y-87108356D01*
X261887644Y-87233902D01*
X262037980Y-87328365D01*
X262205566Y-87387006D01*
X262205572Y-87387006D01*
X262205574Y-87387007D01*
X262381996Y-87406885D01*
X262382000Y-87406885D01*
X262382004Y-87406885D01*
X262558425Y-87387007D01*
X262558424Y-87387007D01*
X262558434Y-87387006D01*
X262726020Y-87328365D01*
X262876356Y-87233902D01*
X262988262Y-87121996D01*
X295117115Y-87121996D01*
X295117115Y-87122003D01*
X295136992Y-87298425D01*
X295136993Y-87298431D01*
X295195634Y-87466019D01*
X295279265Y-87599115D01*
X295290098Y-87616356D01*
X295415644Y-87741902D01*
X295565980Y-87836365D01*
X295733566Y-87895006D01*
X295733572Y-87895006D01*
X295733574Y-87895007D01*
X295909996Y-87914885D01*
X295910000Y-87914885D01*
X295910004Y-87914885D01*
X296086425Y-87895007D01*
X296086424Y-87895007D01*
X296086434Y-87895006D01*
X296254020Y-87836365D01*
X296404356Y-87741902D01*
X296529902Y-87616356D01*
X296624365Y-87466020D01*
X296683006Y-87298434D01*
X296702885Y-87122000D01*
X296683006Y-86945566D01*
X296624365Y-86777980D01*
X296529902Y-86627644D01*
X296404356Y-86502098D01*
X296404355Y-86502097D01*
X296254019Y-86407634D01*
X296086431Y-86348993D01*
X296086425Y-86348992D01*
X295910004Y-86329115D01*
X295909996Y-86329115D01*
X295733574Y-86348992D01*
X295733568Y-86348993D01*
X295565980Y-86407634D01*
X295415644Y-86502097D01*
X295290097Y-86627644D01*
X295195634Y-86777980D01*
X295136993Y-86945568D01*
X295136992Y-86945574D01*
X295117115Y-87121996D01*
X262988262Y-87121996D01*
X263001902Y-87108356D01*
X263096365Y-86958020D01*
X263155006Y-86790434D01*
X263159573Y-86749900D01*
X263174885Y-86614003D01*
X263174885Y-86613996D01*
X263155007Y-86437574D01*
X263155006Y-86437568D01*
X263155006Y-86437566D01*
X263096365Y-86269980D01*
X263001902Y-86119644D01*
X262876356Y-85994098D01*
X262876355Y-85994097D01*
X262726019Y-85899634D01*
X262558431Y-85840993D01*
X262558425Y-85840992D01*
X262382004Y-85821115D01*
X262381996Y-85821115D01*
X262205574Y-85840992D01*
X262205568Y-85840993D01*
X262037980Y-85899634D01*
X261887644Y-85994097D01*
X261762097Y-86119644D01*
X261667634Y-86269980D01*
X261608993Y-86437568D01*
X261608992Y-86437574D01*
X261589115Y-86613996D01*
X244714714Y-86613996D01*
X244728592Y-86605403D01*
X244299643Y-86176454D01*
X244396795Y-86150423D01*
X244532905Y-86071839D01*
X244644039Y-85960705D01*
X244722623Y-85824595D01*
X244748654Y-85727442D01*
X245177540Y-86156328D01*
X245177541Y-86156328D01*
X245248673Y-86013477D01*
X245248676Y-86013471D01*
X245307288Y-85807470D01*
X245307289Y-85807468D01*
X245327051Y-85594200D01*
X245327051Y-85594199D01*
X245307289Y-85380931D01*
X245307288Y-85380929D01*
X245248676Y-85174928D01*
X245248673Y-85174922D01*
X245177540Y-85032070D01*
X244748654Y-85460956D01*
X244722623Y-85363805D01*
X244644039Y-85227695D01*
X244532905Y-85116561D01*
X244396795Y-85037977D01*
X244299642Y-85011945D01*
X244728592Y-84582995D01*
X244683747Y-84555228D01*
X244683743Y-84555226D01*
X244484029Y-84477857D01*
X244484024Y-84477856D01*
X244273489Y-84438500D01*
X244059311Y-84438500D01*
X243848775Y-84477856D01*
X243848770Y-84477857D01*
X243649058Y-84555225D01*
X243649052Y-84555228D01*
X243604206Y-84582994D01*
X243604206Y-84582995D01*
X244033158Y-85011945D01*
X243936005Y-85037977D01*
X243799895Y-85116561D01*
X243688761Y-85227695D01*
X243610177Y-85363805D01*
X243584145Y-85460957D01*
X243155257Y-85032069D01*
X243084125Y-85174922D01*
X243084122Y-85174928D01*
X243025511Y-85380928D01*
X243025510Y-85380931D01*
X243005749Y-85594199D01*
X240403508Y-85594199D01*
X240384714Y-85379378D01*
X240328901Y-85171084D01*
X240237767Y-84975646D01*
X240114080Y-84799002D01*
X240114078Y-84798999D01*
X239961600Y-84646521D01*
X239784954Y-84522833D01*
X239784952Y-84522832D01*
X239589519Y-84431700D01*
X239589516Y-84431699D01*
X239501486Y-84408111D01*
X239381223Y-84375886D01*
X239381216Y-84375885D01*
X239166402Y-84357092D01*
X239166398Y-84357092D01*
X238951583Y-84375885D01*
X238951576Y-84375886D01*
X238743280Y-84431700D01*
X238547847Y-84522832D01*
X238547845Y-84522833D01*
X238371199Y-84646521D01*
X238218721Y-84798999D01*
X238095033Y-84975645D01*
X238095032Y-84975647D01*
X238003900Y-85171080D01*
X237948086Y-85379376D01*
X237948085Y-85379383D01*
X237929292Y-85594197D01*
X235966000Y-85594197D01*
X235966000Y-83948994D01*
X256628500Y-83948994D01*
X256628500Y-85621406D01*
X256639304Y-85695561D01*
X256639304Y-85695562D01*
X256639305Y-85695564D01*
X256695221Y-85809943D01*
X256695223Y-85809946D01*
X256785253Y-85899976D01*
X256785256Y-85899978D01*
X256894863Y-85953561D01*
X256899639Y-85955896D01*
X256973794Y-85966700D01*
X256973800Y-85966700D01*
X258646200Y-85966700D01*
X258646206Y-85966700D01*
X258720361Y-85955896D01*
X258777553Y-85927936D01*
X258834743Y-85899978D01*
X258834746Y-85899976D01*
X258924776Y-85809946D01*
X258924778Y-85809943D01*
X258952736Y-85752753D01*
X258980696Y-85695561D01*
X258991500Y-85621406D01*
X258991500Y-84835996D01*
X260573115Y-84835996D01*
X260573115Y-84836003D01*
X260592992Y-85012425D01*
X260592993Y-85012431D01*
X260651634Y-85180019D01*
X260651635Y-85180020D01*
X260746098Y-85330356D01*
X260871644Y-85455902D01*
X261021980Y-85550365D01*
X261189566Y-85609006D01*
X261189572Y-85609006D01*
X261189574Y-85609007D01*
X261365996Y-85628885D01*
X261366000Y-85628885D01*
X261366004Y-85628885D01*
X261542425Y-85609007D01*
X261542424Y-85609007D01*
X261542434Y-85609006D01*
X261710020Y-85550365D01*
X261860356Y-85455902D01*
X261985902Y-85330356D01*
X262080365Y-85180020D01*
X262139006Y-85012434D01*
X262158885Y-84836000D01*
X262154716Y-84799002D01*
X262139007Y-84659574D01*
X262139006Y-84659568D01*
X262139006Y-84659566D01*
X262080365Y-84491980D01*
X261985902Y-84341644D01*
X261860356Y-84216098D01*
X261860355Y-84216097D01*
X261710019Y-84121634D01*
X261542431Y-84062993D01*
X261542425Y-84062992D01*
X261366004Y-84043115D01*
X261365996Y-84043115D01*
X261189574Y-84062992D01*
X261189568Y-84062993D01*
X261021980Y-84121634D01*
X260871644Y-84216097D01*
X260746097Y-84341644D01*
X260651634Y-84491980D01*
X260592993Y-84659568D01*
X260592992Y-84659574D01*
X260573115Y-84835996D01*
X258991500Y-84835996D01*
X258991500Y-83948994D01*
X258980696Y-83874839D01*
X258978361Y-83870063D01*
X258924778Y-83760456D01*
X258924776Y-83760453D01*
X258834746Y-83670423D01*
X258834743Y-83670421D01*
X258720364Y-83614505D01*
X258720362Y-83614504D01*
X258720361Y-83614504D01*
X258646206Y-83603700D01*
X256973794Y-83603700D01*
X256899639Y-83614504D01*
X256899637Y-83614504D01*
X256899635Y-83614505D01*
X256785256Y-83670421D01*
X256785253Y-83670423D01*
X256695223Y-83760453D01*
X256695221Y-83760456D01*
X256639305Y-83874835D01*
X256639304Y-83874837D01*
X256639304Y-83874839D01*
X256628500Y-83948994D01*
X235966000Y-83948994D01*
X235966000Y-83057996D01*
X261589115Y-83057996D01*
X261589115Y-83058003D01*
X261608992Y-83234425D01*
X261608993Y-83234431D01*
X261667634Y-83402019D01*
X261667635Y-83402020D01*
X261762098Y-83552356D01*
X261887644Y-83677902D01*
X262037980Y-83772365D01*
X262205566Y-83831006D01*
X262205572Y-83831006D01*
X262205574Y-83831007D01*
X262381996Y-83850885D01*
X262382000Y-83850885D01*
X262382004Y-83850885D01*
X262558425Y-83831007D01*
X262558424Y-83831007D01*
X262558434Y-83831006D01*
X262726020Y-83772365D01*
X262876356Y-83677902D01*
X263001902Y-83552356D01*
X263096365Y-83402020D01*
X263155006Y-83234434D01*
X263174885Y-83058000D01*
X263155006Y-82881566D01*
X263096365Y-82713980D01*
X263001902Y-82563644D01*
X262876356Y-82438098D01*
X262876355Y-82438097D01*
X262726019Y-82343634D01*
X262558431Y-82284993D01*
X262558425Y-82284992D01*
X262382004Y-82265115D01*
X262381996Y-82265115D01*
X262205574Y-82284992D01*
X262205568Y-82284993D01*
X262037980Y-82343634D01*
X261887644Y-82438097D01*
X261762097Y-82563644D01*
X261667634Y-82713980D01*
X261608993Y-82881568D01*
X261608992Y-82881574D01*
X261589115Y-83057996D01*
X235966000Y-83057996D01*
X235966000Y-80769500D01*
X235985685Y-80702461D01*
X236038489Y-80656706D01*
X236090000Y-80645500D01*
X296040000Y-80645500D01*
X296107039Y-80665185D01*
G37*
%TD.AperFunction*%
%TD*%
M02*
