%TF.GenerationSoftware,KiCad,Pcbnew,8.0.7-8.0.7-0~ubuntu24.04.1*%
%TF.CreationDate,2025-01-13T21:05:39-08:00*%
%TF.ProjectId,NX-J401-Adapter,4e582d4a-3430-4312-9d41-646170746572,4*%
%TF.SameCoordinates,Original*%
%TF.FileFunction,Soldermask,Bot*%
%TF.FilePolarity,Negative*%
%FSLAX46Y46*%
G04 Gerber Fmt 4.6, Leading zero omitted, Abs format (unit mm)*
G04 Created by KiCad (PCBNEW 8.0.7-8.0.7-0~ubuntu24.04.1) date 2025-01-13 21:05:39*
%MOMM*%
%LPD*%
G01*
G04 APERTURE LIST*
%ADD10C,0.300000*%
%ADD11C,2.700000*%
%ADD12R,1.600000X1.600000*%
%ADD13C,1.600000*%
%ADD14C,1.498600*%
%ADD15C,1.803400*%
%ADD16C,2.200000*%
%ADD17C,3.400000*%
%ADD18R,1.778000X1.778000*%
%ADD19C,1.905000*%
%ADD20C,1.778000*%
%ADD21R,2.000000X2.000000*%
%ADD22C,2.000000*%
%ADD23C,1.701800*%
G04 APERTURE END LIST*
D10*
X33217368Y-104245474D02*
X33471368Y-104330141D01*
X33471368Y-104330141D02*
X33556034Y-104414807D01*
X33556034Y-104414807D02*
X33640701Y-104584141D01*
X33640701Y-104584141D02*
X33640701Y-104838141D01*
X33640701Y-104838141D02*
X33556034Y-105007474D01*
X33556034Y-105007474D02*
X33471368Y-105092141D01*
X33471368Y-105092141D02*
X33302034Y-105176807D01*
X33302034Y-105176807D02*
X32624701Y-105176807D01*
X32624701Y-105176807D02*
X32624701Y-103398807D01*
X32624701Y-103398807D02*
X33217368Y-103398807D01*
X33217368Y-103398807D02*
X33386701Y-103483474D01*
X33386701Y-103483474D02*
X33471368Y-103568141D01*
X33471368Y-103568141D02*
X33556034Y-103737474D01*
X33556034Y-103737474D02*
X33556034Y-103906807D01*
X33556034Y-103906807D02*
X33471368Y-104076141D01*
X33471368Y-104076141D02*
X33386701Y-104160807D01*
X33386701Y-104160807D02*
X33217368Y-104245474D01*
X33217368Y-104245474D02*
X32624701Y-104245474D01*
X34402701Y-105007474D02*
X34487368Y-105092141D01*
X34487368Y-105092141D02*
X34402701Y-105176807D01*
X34402701Y-105176807D02*
X34318034Y-105092141D01*
X34318034Y-105092141D02*
X34402701Y-105007474D01*
X34402701Y-105007474D02*
X34402701Y-105176807D01*
X35249368Y-105176807D02*
X35249368Y-103398807D01*
X35249368Y-103398807D02*
X35842035Y-104668807D01*
X35842035Y-104668807D02*
X36434701Y-103398807D01*
X36434701Y-103398807D02*
X36434701Y-105176807D01*
X38043368Y-105176807D02*
X38043368Y-104245474D01*
X38043368Y-104245474D02*
X37958701Y-104076141D01*
X37958701Y-104076141D02*
X37789368Y-103991474D01*
X37789368Y-103991474D02*
X37450701Y-103991474D01*
X37450701Y-103991474D02*
X37281368Y-104076141D01*
X38043368Y-105092141D02*
X37874035Y-105176807D01*
X37874035Y-105176807D02*
X37450701Y-105176807D01*
X37450701Y-105176807D02*
X37281368Y-105092141D01*
X37281368Y-105092141D02*
X37196701Y-104922807D01*
X37196701Y-104922807D02*
X37196701Y-104753474D01*
X37196701Y-104753474D02*
X37281368Y-104584141D01*
X37281368Y-104584141D02*
X37450701Y-104499474D01*
X37450701Y-104499474D02*
X37874035Y-104499474D01*
X37874035Y-104499474D02*
X38043368Y-104414807D01*
X38805368Y-105092141D02*
X38974702Y-105176807D01*
X38974702Y-105176807D02*
X39313368Y-105176807D01*
X39313368Y-105176807D02*
X39482702Y-105092141D01*
X39482702Y-105092141D02*
X39567368Y-104922807D01*
X39567368Y-104922807D02*
X39567368Y-104838141D01*
X39567368Y-104838141D02*
X39482702Y-104668807D01*
X39482702Y-104668807D02*
X39313368Y-104584141D01*
X39313368Y-104584141D02*
X39059368Y-104584141D01*
X39059368Y-104584141D02*
X38890035Y-104499474D01*
X38890035Y-104499474D02*
X38805368Y-104330141D01*
X38805368Y-104330141D02*
X38805368Y-104245474D01*
X38805368Y-104245474D02*
X38890035Y-104076141D01*
X38890035Y-104076141D02*
X39059368Y-103991474D01*
X39059368Y-103991474D02*
X39313368Y-103991474D01*
X39313368Y-103991474D02*
X39482702Y-104076141D01*
X40329368Y-105176807D02*
X40329368Y-103398807D01*
X40498701Y-104499474D02*
X41006701Y-105176807D01*
X41006701Y-103991474D02*
X40329368Y-104668807D01*
D11*
%TO.C,H1*%
X229000000Y-84000000D03*
%TD*%
D12*
%TO.C,C2*%
X275590000Y-93980000D03*
D13*
X275590000Y-97480000D03*
%TD*%
D14*
%TO.C,SW1*%
X234478000Y-156285700D03*
X238978001Y-156285700D03*
D15*
X233228001Y-153785824D03*
X240228000Y-153785824D03*
%TD*%
D12*
%TO.C,C1*%
X275590000Y-84785200D03*
D13*
X275590000Y-88285200D03*
%TD*%
D16*
%TO.C,J4*%
X290601400Y-148365600D03*
X290601400Y-156565600D03*
X295681400Y-148365600D03*
X295681400Y-156565600D03*
%TD*%
D17*
%TO.C,J3*%
X267465000Y-155960000D03*
X259585000Y-155960000D03*
D18*
X266065000Y-147320000D03*
D19*
X263525000Y-147320000D03*
D20*
X260985000Y-147320000D03*
%TD*%
D14*
%TO.C,SW2*%
X247178000Y-156285700D03*
X251678001Y-156285700D03*
D15*
X245928001Y-153785824D03*
X252928000Y-153785824D03*
%TD*%
D17*
%TO.C,J2*%
X247632500Y-125860000D03*
X247632500Y-107820000D03*
D18*
X256272500Y-124460000D03*
D19*
X256272500Y-121920000D03*
D20*
X256272500Y-119380000D03*
X256272500Y-116840000D03*
X256272500Y-114300000D03*
X256272500Y-111760000D03*
X256272500Y-109220000D03*
%TD*%
D11*
%TO.C,H3*%
X229000000Y-142000000D03*
%TD*%
D21*
%TO.C,C5*%
X309961677Y-103124000D03*
D22*
X304961677Y-103124000D03*
%TD*%
D23*
%TO.C,J1*%
X256946400Y-85594200D03*
X256946400Y-90594200D03*
X261946400Y-85594200D03*
X261946400Y-90594200D03*
%TD*%
D11*
%TO.C,H2*%
X320999480Y-84000000D03*
%TD*%
%TO.C,H4*%
X320999480Y-142000000D03*
%TD*%
M02*
