%TF.GenerationSoftware,KiCad,Pcbnew,8.0.7-8.0.7-0~ubuntu24.04.1*%
%TF.CreationDate,2025-01-13T21:05:39-08:00*%
%TF.ProjectId,NX-J401-Adapter,4e582d4a-3430-4312-9d41-646170746572,4*%
%TF.SameCoordinates,Original*%
%TF.FileFunction,Soldermask,Top*%
%TF.FilePolarity,Negative*%
%FSLAX46Y46*%
G04 Gerber Fmt 4.6, Leading zero omitted, Abs format (unit mm)*
G04 Created by KiCad (PCBNEW 8.0.7-8.0.7-0~ubuntu24.04.1) date 2025-01-13 21:05:39*
%MOMM*%
%LPD*%
G01*
G04 APERTURE LIST*
G04 Aperture macros list*
%AMRoundRect*
0 Rectangle with rounded corners*
0 $1 Rounding radius*
0 $2 $3 $4 $5 $6 $7 $8 $9 X,Y pos of 4 corners*
0 Add a 4 corners polygon primitive as box body*
4,1,4,$2,$3,$4,$5,$6,$7,$8,$9,$2,$3,0*
0 Add four circle primitives for the rounded corners*
1,1,$1+$1,$2,$3*
1,1,$1+$1,$4,$5*
1,1,$1+$1,$6,$7*
1,1,$1+$1,$8,$9*
0 Add four rect primitives between the rounded corners*
20,1,$1+$1,$2,$3,$4,$5,0*
20,1,$1+$1,$4,$5,$6,$7,0*
20,1,$1+$1,$6,$7,$8,$9,0*
20,1,$1+$1,$8,$9,$2,$3,0*%
%AMFreePoly0*
4,1,18,2.145000,-2.250000,-2.145000,-2.250000,-2.805000,-2.250000,-2.805000,-1.590000,-2.145000,-1.590000,-2.145000,-0.970000,-2.805000,-0.970000,-2.805000,-0.310000,-2.145000,-0.310000,-2.145000,0.310000,-2.805000,0.310000,-2.805000,0.970000,-2.145000,0.970000,-2.145000,1.590000,-2.805000,1.590000,-2.805000,2.250000,2.145000,2.250000,2.145000,-2.250000,2.145000,-2.250000,$1*%
G04 Aperture macros list end*
%ADD10C,0.300000*%
%ADD11RoundRect,0.250000X2.050000X0.300000X-2.050000X0.300000X-2.050000X-0.300000X2.050000X-0.300000X0*%
%ADD12RoundRect,0.250002X4.449998X5.149998X-4.449998X5.149998X-4.449998X-5.149998X4.449998X-5.149998X0*%
%ADD13R,0.750000X0.660000*%
%ADD14FreePoly0,180.000000*%
%ADD15C,2.700000*%
%ADD16RoundRect,0.250000X-0.450000X0.262500X-0.450000X-0.262500X0.450000X-0.262500X0.450000X0.262500X0*%
%ADD17R,1.090000X1.500000*%
%ADD18R,1.600000X1.600000*%
%ADD19C,1.600000*%
%ADD20C,1.498600*%
%ADD21C,1.803400*%
%ADD22RoundRect,0.250000X-0.475000X0.250000X-0.475000X-0.250000X0.475000X-0.250000X0.475000X0.250000X0*%
%ADD23C,2.200000*%
%ADD24RoundRect,0.250000X0.450000X-0.262500X0.450000X0.262500X-0.450000X0.262500X-0.450000X-0.262500X0*%
%ADD25RoundRect,0.250000X0.262500X0.450000X-0.262500X0.450000X-0.262500X-0.450000X0.262500X-0.450000X0*%
%ADD26C,3.400000*%
%ADD27R,1.778000X1.778000*%
%ADD28C,1.905000*%
%ADD29C,1.778000*%
%ADD30RoundRect,0.150000X0.825000X0.150000X-0.825000X0.150000X-0.825000X-0.150000X0.825000X-0.150000X0*%
%ADD31RoundRect,0.250000X0.900000X-1.000000X0.900000X1.000000X-0.900000X1.000000X-0.900000X-1.000000X0*%
%ADD32RoundRect,0.250000X-0.262500X-0.450000X0.262500X-0.450000X0.262500X0.450000X-0.262500X0.450000X0*%
%ADD33R,2.000000X2.000000*%
%ADD34C,2.000000*%
%ADD35RoundRect,0.250000X0.300000X-0.300000X0.300000X0.300000X-0.300000X0.300000X-0.300000X-0.300000X0*%
%ADD36C,1.701800*%
%ADD37RoundRect,0.150000X-0.825000X-0.150000X0.825000X-0.150000X0.825000X0.150000X-0.825000X0.150000X0*%
%ADD38RoundRect,0.250000X-0.362500X-1.425000X0.362500X-1.425000X0.362500X1.425000X-0.362500X1.425000X0*%
%ADD39RoundRect,0.250000X0.250000X0.475000X-0.250000X0.475000X-0.250000X-0.475000X0.250000X-0.475000X0*%
%ADD40RoundRect,0.250000X-0.250000X-0.475000X0.250000X-0.475000X0.250000X0.475000X-0.250000X0.475000X0*%
%ADD41R,3.265000X5.210000*%
%ADD42R,5.210000X3.275000*%
G04 APERTURE END LIST*
D10*
X33217368Y-101705474D02*
X32624701Y-101705474D01*
X32624701Y-102636807D02*
X32624701Y-100858807D01*
X32624701Y-100858807D02*
X33471368Y-100858807D01*
X34148701Y-102467474D02*
X34233368Y-102552141D01*
X34233368Y-102552141D02*
X34148701Y-102636807D01*
X34148701Y-102636807D02*
X34064034Y-102552141D01*
X34064034Y-102552141D02*
X34148701Y-102467474D01*
X34148701Y-102467474D02*
X34148701Y-102636807D01*
X34995368Y-102636807D02*
X34995368Y-100858807D01*
X34995368Y-100858807D02*
X35588035Y-102128807D01*
X35588035Y-102128807D02*
X36180701Y-100858807D01*
X36180701Y-100858807D02*
X36180701Y-102636807D01*
X37789368Y-102636807D02*
X37789368Y-101705474D01*
X37789368Y-101705474D02*
X37704701Y-101536141D01*
X37704701Y-101536141D02*
X37535368Y-101451474D01*
X37535368Y-101451474D02*
X37196701Y-101451474D01*
X37196701Y-101451474D02*
X37027368Y-101536141D01*
X37789368Y-102552141D02*
X37620035Y-102636807D01*
X37620035Y-102636807D02*
X37196701Y-102636807D01*
X37196701Y-102636807D02*
X37027368Y-102552141D01*
X37027368Y-102552141D02*
X36942701Y-102382807D01*
X36942701Y-102382807D02*
X36942701Y-102213474D01*
X36942701Y-102213474D02*
X37027368Y-102044141D01*
X37027368Y-102044141D02*
X37196701Y-101959474D01*
X37196701Y-101959474D02*
X37620035Y-101959474D01*
X37620035Y-101959474D02*
X37789368Y-101874807D01*
X38551368Y-102552141D02*
X38720702Y-102636807D01*
X38720702Y-102636807D02*
X39059368Y-102636807D01*
X39059368Y-102636807D02*
X39228702Y-102552141D01*
X39228702Y-102552141D02*
X39313368Y-102382807D01*
X39313368Y-102382807D02*
X39313368Y-102298141D01*
X39313368Y-102298141D02*
X39228702Y-102128807D01*
X39228702Y-102128807D02*
X39059368Y-102044141D01*
X39059368Y-102044141D02*
X38805368Y-102044141D01*
X38805368Y-102044141D02*
X38636035Y-101959474D01*
X38636035Y-101959474D02*
X38551368Y-101790141D01*
X38551368Y-101790141D02*
X38551368Y-101705474D01*
X38551368Y-101705474D02*
X38636035Y-101536141D01*
X38636035Y-101536141D02*
X38805368Y-101451474D01*
X38805368Y-101451474D02*
X39059368Y-101451474D01*
X39059368Y-101451474D02*
X39228702Y-101536141D01*
X40075368Y-102636807D02*
X40075368Y-100858807D01*
X40244701Y-101959474D02*
X40752701Y-102636807D01*
X40752701Y-101451474D02*
X40075368Y-102128807D01*
D11*
%TO.C,D1*%
X294640000Y-89916000D03*
D12*
X285490000Y-87376000D03*
D11*
X294640000Y-84836000D03*
%TD*%
D13*
%TO.C,Q1*%
X291195000Y-94092000D03*
X291195000Y-95372000D03*
X291195000Y-96652000D03*
X291195000Y-97932000D03*
D14*
X294265000Y-96012000D03*
%TD*%
D15*
%TO.C,H1*%
X229000000Y-84000000D03*
%TD*%
D16*
%TO.C,R8*%
X295656000Y-114149500D03*
X295656000Y-115974500D03*
%TD*%
D17*
%TO.C,D5*%
X281027000Y-154432000D03*
X281027000Y-157432000D03*
X279527000Y-154432000D03*
X279527000Y-157432000D03*
%TD*%
D18*
%TO.C,C2*%
X275590000Y-93980000D03*
D19*
X275590000Y-97480000D03*
%TD*%
D20*
%TO.C,SW1*%
X234478000Y-156285700D03*
X238978001Y-156285700D03*
D21*
X233228001Y-153785824D03*
X240228000Y-153785824D03*
%TD*%
D22*
%TO.C,C8*%
X291592000Y-114112000D03*
X291592000Y-116012000D03*
%TD*%
D18*
%TO.C,C1*%
X275590000Y-84785200D03*
D19*
X275590000Y-88285200D03*
%TD*%
D23*
%TO.C,J4*%
X290601400Y-148365600D03*
X290601400Y-156565600D03*
X295681400Y-148365600D03*
X295681400Y-156565600D03*
%TD*%
D24*
%TO.C,R5*%
X284708600Y-102918900D03*
X284708600Y-101093900D03*
%TD*%
D25*
%TO.C,R2*%
X283182700Y-99288600D03*
X281357700Y-99288600D03*
%TD*%
D26*
%TO.C,J3*%
X267465000Y-155960000D03*
X259585000Y-155960000D03*
D27*
X266065000Y-147320000D03*
D28*
X263525000Y-147320000D03*
D29*
X260985000Y-147320000D03*
%TD*%
D30*
%TO.C,Q2*%
X296607000Y-111633000D03*
X296607000Y-110363000D03*
X296607000Y-109093000D03*
X296607000Y-107823000D03*
X291657000Y-107823000D03*
X291657000Y-109093000D03*
X291657000Y-110363000D03*
X291657000Y-111633000D03*
%TD*%
D20*
%TO.C,SW2*%
X247178000Y-156285700D03*
X251678001Y-156285700D03*
D21*
X245928001Y-153785824D03*
X252928000Y-153785824D03*
%TD*%
D31*
%TO.C,D3*%
X287782000Y-126864000D03*
X287782000Y-122564000D03*
%TD*%
D24*
%TO.C,R4*%
X298450000Y-102385540D03*
X298450000Y-100560540D03*
%TD*%
D26*
%TO.C,J2*%
X247632500Y-125860000D03*
X247632500Y-107820000D03*
D27*
X256272500Y-124460000D03*
D28*
X256272500Y-121920000D03*
D29*
X256272500Y-119380000D03*
X256272500Y-116840000D03*
X256272500Y-114300000D03*
X256272500Y-111760000D03*
X256272500Y-109220000D03*
%TD*%
D32*
%TO.C,R9*%
X279376500Y-151663400D03*
X281201500Y-151663400D03*
%TD*%
D15*
%TO.C,H3*%
X229000000Y-142000000D03*
%TD*%
D33*
%TO.C,C5*%
X309961677Y-103124000D03*
D34*
X304961677Y-103124000D03*
%TD*%
D35*
%TO.C,D2*%
X297815000Y-116970000D03*
X297815000Y-114170000D03*
%TD*%
D36*
%TO.C,J1*%
X256946400Y-85594200D03*
X256946400Y-90594200D03*
X261946400Y-85594200D03*
X261946400Y-90594200D03*
%TD*%
D37*
%TO.C,U1*%
X289117000Y-99441000D03*
X289117000Y-100711000D03*
X289117000Y-101981000D03*
X289117000Y-103251000D03*
X294067000Y-103251000D03*
X294067000Y-101981000D03*
X294067000Y-100711000D03*
X294067000Y-99441000D03*
%TD*%
D32*
%TO.C,R6*%
X284583500Y-105410000D03*
X286408500Y-105410000D03*
%TD*%
D38*
%TO.C,R1*%
X283803500Y-95250000D03*
X289728500Y-95250000D03*
%TD*%
D32*
%TO.C,R3*%
X284915600Y-99288600D03*
X286740600Y-99288600D03*
%TD*%
D39*
%TO.C,C6*%
X290002000Y-105410000D03*
X288102000Y-105410000D03*
%TD*%
D15*
%TO.C,H2*%
X320999480Y-84000000D03*
%TD*%
D22*
%TO.C,C4*%
X286740600Y-101056400D03*
X286740600Y-102956400D03*
%TD*%
D40*
%TO.C,C7*%
X291658000Y-105410000D03*
X293558000Y-105410000D03*
%TD*%
D24*
%TO.C,R7*%
X293624000Y-115974500D03*
X293624000Y-114149500D03*
%TD*%
D41*
%TO.C,L1*%
X311427500Y-89154000D03*
X299962500Y-89154000D03*
D42*
X305695000Y-94831500D03*
X305695000Y-83476500D03*
%TD*%
D17*
%TO.C,D4*%
X275947000Y-154432000D03*
X275947000Y-157432000D03*
X274447000Y-154432000D03*
X274447000Y-157432000D03*
%TD*%
D15*
%TO.C,H4*%
X320999480Y-142000000D03*
%TD*%
D22*
%TO.C,C3*%
X296418000Y-100523040D03*
X296418000Y-102423040D03*
%TD*%
M02*
