%TF.GenerationSoftware,KiCad,Pcbnew,8.0.8-8.0.8-0~ubuntu22.04.1*%
%TF.CreationDate,2025-01-15T16:30:13-08:00*%
%TF.ProjectId,NX-J401-Adapter,4e582d4a-3430-4312-9d41-646170746572,4*%
%TF.SameCoordinates,Original*%
%TF.FileFunction,Copper,L2,Inr*%
%TF.FilePolarity,Positive*%
%FSLAX46Y46*%
G04 Gerber Fmt 4.6, Leading zero omitted, Abs format (unit mm)*
G04 Created by KiCad (PCBNEW 8.0.8-8.0.8-0~ubuntu22.04.1) date 2025-01-15 16:30:13*
%MOMM*%
%LPD*%
G01*
G04 APERTURE LIST*
%TA.AperFunction,ComponentPad*%
%ADD10R,1.600000X1.600000*%
%TD*%
%TA.AperFunction,ComponentPad*%
%ADD11C,1.600000*%
%TD*%
%TA.AperFunction,ComponentPad*%
%ADD12C,1.498600*%
%TD*%
%TA.AperFunction,ComponentPad*%
%ADD13C,1.803400*%
%TD*%
%TA.AperFunction,ComponentPad*%
%ADD14C,2.200000*%
%TD*%
%TA.AperFunction,ComponentPad*%
%ADD15R,1.778000X1.778000*%
%TD*%
%TA.AperFunction,ComponentPad*%
%ADD16C,1.905000*%
%TD*%
%TA.AperFunction,ComponentPad*%
%ADD17C,1.778000*%
%TD*%
%TA.AperFunction,ComponentPad*%
%ADD18R,2.000000X2.000000*%
%TD*%
%TA.AperFunction,ComponentPad*%
%ADD19C,2.000000*%
%TD*%
%TA.AperFunction,ComponentPad*%
%ADD20C,1.701800*%
%TD*%
%TA.AperFunction,ViaPad*%
%ADD21C,0.812800*%
%TD*%
G04 APERTURE END LIST*
D10*
%TO.N,/+18V_OUT*%
%TO.C,C2*%
X275590000Y-93980000D03*
D11*
%TO.N,GND*%
X275590000Y-97480000D03*
%TD*%
D12*
%TO.N,/~{REC}*%
%TO.C,SW1*%
X234478000Y-156285700D03*
%TO.N,/RTN*%
X238978001Y-156285700D03*
D13*
%TO.N,N/C*%
X233228001Y-153785824D03*
X240228000Y-153785824D03*
%TD*%
D10*
%TO.N,/+18V_OUT*%
%TO.C,C1*%
X275590000Y-84785200D03*
D11*
%TO.N,GND*%
X275590000Y-88285200D03*
%TD*%
D14*
%TO.N,/V_BAT*%
%TO.C,J4*%
X290601400Y-148365600D03*
X290601400Y-156565600D03*
%TO.N,GND*%
X295681400Y-148365600D03*
X295681400Y-156565600D03*
%TD*%
D15*
%TO.N,/RTN*%
%TO.C,J3*%
X266065000Y-147320000D03*
D16*
%TO.N,/UART2_RXD*%
X263525000Y-147320000D03*
D17*
%TO.N,/UART2_TXD*%
X260985000Y-147320000D03*
%TD*%
D12*
%TO.N,/~{SYS_RESET}*%
%TO.C,SW2*%
X247178000Y-156285700D03*
%TO.N,/RTN*%
X251678001Y-156285700D03*
D13*
%TO.N,N/C*%
X245928001Y-153785824D03*
X252928000Y-153785824D03*
%TD*%
D15*
%TO.N,/RTN*%
%TO.C,J2*%
X256272500Y-124460000D03*
D16*
%TO.N,/UART2_RXD*%
X256272500Y-121920000D03*
D17*
%TO.N,/UART2_TXD*%
X256272500Y-119380000D03*
%TO.N,/~{SYS_RESET}*%
X256272500Y-116840000D03*
%TO.N,/~{REC}*%
X256272500Y-114300000D03*
%TO.N,Net-(D4A-Red-K)*%
X256272500Y-111760000D03*
%TO.N,Net-(D4A-RedA)*%
X256272500Y-109220000D03*
%TD*%
D18*
%TO.N,/Power Supply/V_IN*%
%TO.C,C5*%
X309961677Y-103124000D03*
D19*
%TO.N,GND*%
X304961677Y-103124000D03*
%TD*%
D20*
%TO.N,/+18V_OUT*%
%TO.C,J1*%
X256946400Y-87981800D03*
X256946400Y-92981800D03*
%TO.N,GND*%
X261946400Y-87981800D03*
X261946400Y-92981800D03*
%TD*%
D21*
%TO.N,GND*%
X291592000Y-117221010D03*
X285242000Y-96266000D03*
X285241982Y-94234000D03*
X278130000Y-157353000D03*
X283438610Y-105359200D03*
X289052000Y-104266998D03*
X305714400Y-83515200D03*
X291605822Y-100813988D03*
X285242000Y-95250000D03*
X303403000Y-148971000D03*
X305714400Y-94843600D03*
X294995600Y-105410000D03*
X293624000Y-117221000D03*
%TD*%
M02*
