M48
; DRILL file {KiCad 8.0.8-8.0.8-0~ubuntu22.04.1} date 2025-01-15T19:38:02-0800
; FORMAT={-:-/ absolute / metric / decimal}
; #@! TF.CreationDate,2025-01-15T19:38:02-08:00
; #@! TF.GenerationSoftware,Kicad,Pcbnew,8.0.8-8.0.8-0~ubuntu22.04.1
; #@! TF.FileFunction,MixedPlating,1,2
FMAT,2
METRIC
; #@! TA.AperFunction,Plated,PTH,ViaDrill
T1C0.406
; #@! TA.AperFunction,Plated,PTH,ComponentDrill
T2C0.800
; #@! TA.AperFunction,Plated,PTH,ComponentDrill
T3C0.991
; #@! TA.AperFunction,Plated,PTH,ComponentDrill
T4C1.000
; #@! TA.AperFunction,Plated,PTH,ComponentDrill
T5C1.067
; #@! TA.AperFunction,Plated,PTH,ComponentDrill
T6C1.100
; #@! TA.AperFunction,Plated,PTH,ComponentDrill
T7C1.194
; #@! TA.AperFunction,Plated,PTH,ComponentDrill
T8C1.295
; #@! TA.AperFunction,NonPlated,NPTH,ComponentDrill
T9C2.700
; #@! TA.AperFunction,NonPlated,NPTH,ComponentDrill
T10C3.400
%
G90
G05
T1
X278.13Y-157.353
X283.439Y-105.359
X285.242Y-94.234
X285.242Y-95.25
X285.242Y-96.266
X289.052Y-104.267
X291.592Y-117.221
X291.606Y-100.814
X293.624Y-117.221
X294.996Y-105.41
X303.403Y-148.971
X305.714Y-83.515
X305.714Y-94.844
T2
X275.59Y-84.785
X275.59Y-88.285
X275.59Y-93.98
X275.59Y-97.48
T3
X234.478Y-156.286
X238.978Y-156.286
X247.178Y-156.286
X251.678Y-156.286
T4
X304.962Y-103.124
X309.962Y-103.124
T5
X256.272Y-109.22
X256.272Y-111.76
X256.272Y-114.3
X256.272Y-116.84
X256.272Y-119.38
X256.272Y-121.92
X256.272Y-124.46
X260.985Y-147.32
X263.525Y-147.32
X266.065Y-147.32
T6
X290.601Y-148.366
X290.601Y-156.566
X295.681Y-148.366
X295.681Y-156.566
T7
X256.946Y-87.982
X256.946Y-92.982
X261.946Y-87.982
X261.946Y-92.982
T8
X233.228Y-153.786
X240.228Y-153.786
X245.928Y-153.786
X252.928Y-153.786
T9
X229.0Y-84.0
X229.0Y-142.0
X320.999Y-84.0
X320.999Y-142.0
T10
X247.632Y-107.82
X247.632Y-125.86
X259.585Y-155.96
X267.465Y-155.96
M30
