%TF.GenerationSoftware,KiCad,Pcbnew,8.0.7-8.0.7-0~ubuntu22.04.1*%
%TF.CreationDate,2025-01-13T16:38:09-08:00*%
%TF.ProjectId,NX-J401-Adapter,4e582d4a-3430-4312-9d41-646170746572,4*%
%TF.SameCoordinates,Original*%
%TF.FileFunction,Copper,L3,Inr*%
%TF.FilePolarity,Positive*%
%FSLAX46Y46*%
G04 Gerber Fmt 4.6, Leading zero omitted, Abs format (unit mm)*
G04 Created by KiCad (PCBNEW 8.0.7-8.0.7-0~ubuntu22.04.1) date 2025-01-13 16:38:09*
%MOMM*%
%LPD*%
G01*
G04 APERTURE LIST*
%ADD10C,0.300000*%
%TA.AperFunction,NonConductor*%
%ADD11C,0.300000*%
%TD*%
%TA.AperFunction,ComponentPad*%
%ADD12R,1.600000X1.600000*%
%TD*%
%TA.AperFunction,ComponentPad*%
%ADD13C,1.600000*%
%TD*%
%TA.AperFunction,ComponentPad*%
%ADD14C,1.498600*%
%TD*%
%TA.AperFunction,ComponentPad*%
%ADD15C,1.803400*%
%TD*%
%TA.AperFunction,ComponentPad*%
%ADD16C,2.200000*%
%TD*%
%TA.AperFunction,ComponentPad*%
%ADD17R,1.778000X1.778000*%
%TD*%
%TA.AperFunction,ComponentPad*%
%ADD18C,1.905000*%
%TD*%
%TA.AperFunction,ComponentPad*%
%ADD19C,1.778000*%
%TD*%
%TA.AperFunction,ComponentPad*%
%ADD20R,2.000000X2.000000*%
%TD*%
%TA.AperFunction,ComponentPad*%
%ADD21C,2.000000*%
%TD*%
%TA.AperFunction,ComponentPad*%
%ADD22C,1.701800*%
%TD*%
%TA.AperFunction,ViaPad*%
%ADD23C,0.812800*%
%TD*%
%TA.AperFunction,ViaPad*%
%ADD24C,0.711200*%
%TD*%
G04 APERTURE END LIST*
D10*
D11*
G36*
X322545366Y-91265501D02*
G01*
X322570279Y-91265501D01*
X322570279Y-91538808D01*
X322487061Y-91544881D01*
X322407392Y-91565291D01*
X322342918Y-91614075D01*
X322313062Y-91686270D01*
X322308328Y-91742507D01*
X322321420Y-91820972D01*
X322365905Y-91884658D01*
X322439400Y-91920192D01*
X322503234Y-91927154D01*
X322579296Y-91918060D01*
X322648247Y-91884380D01*
X322695822Y-91825724D01*
X322719535Y-91755466D01*
X322727449Y-91666669D01*
X322727449Y-91641390D01*
X322924919Y-91641390D01*
X322925820Y-91716836D01*
X322934676Y-91791896D01*
X322939940Y-91813581D01*
X322971053Y-91880615D01*
X323028345Y-91936769D01*
X323095399Y-91966752D01*
X323163789Y-91975515D01*
X323244086Y-91962852D01*
X323310348Y-91927225D01*
X323358846Y-91872179D01*
X323385853Y-91801255D01*
X323390202Y-91754963D01*
X323378704Y-91673125D01*
X323337789Y-91602005D01*
X323267872Y-91555214D01*
X323196795Y-91536357D01*
X323155362Y-91532214D01*
X323155362Y-91246816D01*
X323236613Y-91252371D01*
X323311547Y-91267727D01*
X323401001Y-91302719D01*
X323477708Y-91353390D01*
X323540801Y-91418745D01*
X323589413Y-91497786D01*
X323622676Y-91589519D01*
X323637029Y-91666048D01*
X323641894Y-91748735D01*
X323637035Y-91834805D01*
X323622731Y-91914458D01*
X323599389Y-91987246D01*
X323554910Y-92072845D01*
X323496055Y-92144385D01*
X323423788Y-92200805D01*
X323339076Y-92241044D01*
X323267956Y-92259967D01*
X323190786Y-92268745D01*
X323163789Y-92269339D01*
X323085947Y-92263745D01*
X323003530Y-92241885D01*
X322931967Y-92202857D01*
X322870058Y-92145980D01*
X322824973Y-92084456D01*
X322792662Y-92025706D01*
X322743158Y-92095322D01*
X322690607Y-92148627D01*
X322623648Y-92191534D01*
X322548566Y-92215189D01*
X322476123Y-92221345D01*
X322387606Y-92212833D01*
X322308328Y-92187943D01*
X322239080Y-92147639D01*
X322180650Y-92092888D01*
X322133830Y-92024657D01*
X322099409Y-91943910D01*
X322078177Y-91851614D01*
X322071384Y-91775394D01*
X322070924Y-91748735D01*
X322074781Y-91673064D01*
X322088384Y-91592549D01*
X322114781Y-91511795D01*
X322157020Y-91435402D01*
X322218150Y-91367974D01*
X322301218Y-91314113D01*
X322379751Y-91285389D01*
X322473625Y-91268826D01*
X322545366Y-91265501D01*
G37*
D10*
D11*
X32624701Y-87396807D02*
X32624701Y-85618807D01*
X33471368Y-86211474D02*
X33471368Y-87396807D01*
X33471368Y-86380807D02*
X33556035Y-86296141D01*
X33556035Y-86296141D02*
X33725368Y-86211474D01*
X33725368Y-86211474D02*
X33979368Y-86211474D01*
X33979368Y-86211474D02*
X34148701Y-86296141D01*
X34148701Y-86296141D02*
X34233368Y-86465474D01*
X34233368Y-86465474D02*
X34233368Y-87396807D01*
X34995368Y-85788141D02*
X35080035Y-85703474D01*
X35080035Y-85703474D02*
X35249368Y-85618807D01*
X35249368Y-85618807D02*
X35672702Y-85618807D01*
X35672702Y-85618807D02*
X35842035Y-85703474D01*
X35842035Y-85703474D02*
X35926702Y-85788141D01*
X35926702Y-85788141D02*
X36011368Y-85957474D01*
X36011368Y-85957474D02*
X36011368Y-86126807D01*
X36011368Y-86126807D02*
X35926702Y-86380807D01*
X35926702Y-86380807D02*
X34910702Y-87396807D01*
X34910702Y-87396807D02*
X36011368Y-87396807D01*
X36773368Y-87227474D02*
X36858035Y-87312141D01*
X36858035Y-87312141D02*
X36773368Y-87396807D01*
X36773368Y-87396807D02*
X36688701Y-87312141D01*
X36688701Y-87312141D02*
X36773368Y-87227474D01*
X36773368Y-87227474D02*
X36773368Y-87396807D01*
X38636035Y-87227474D02*
X38551368Y-87312141D01*
X38551368Y-87312141D02*
X38297368Y-87396807D01*
X38297368Y-87396807D02*
X38128035Y-87396807D01*
X38128035Y-87396807D02*
X37874035Y-87312141D01*
X37874035Y-87312141D02*
X37704702Y-87142807D01*
X37704702Y-87142807D02*
X37620035Y-86973474D01*
X37620035Y-86973474D02*
X37535368Y-86634807D01*
X37535368Y-86634807D02*
X37535368Y-86380807D01*
X37535368Y-86380807D02*
X37620035Y-86042141D01*
X37620035Y-86042141D02*
X37704702Y-85872807D01*
X37704702Y-85872807D02*
X37874035Y-85703474D01*
X37874035Y-85703474D02*
X38128035Y-85618807D01*
X38128035Y-85618807D02*
X38297368Y-85618807D01*
X38297368Y-85618807D02*
X38551368Y-85703474D01*
X38551368Y-85703474D02*
X38636035Y-85788141D01*
X40160035Y-86211474D02*
X40160035Y-87396807D01*
X39398035Y-86211474D02*
X39398035Y-87142807D01*
X39398035Y-87142807D02*
X39482702Y-87312141D01*
X39482702Y-87312141D02*
X39652035Y-87396807D01*
X39652035Y-87396807D02*
X39906035Y-87396807D01*
X39906035Y-87396807D02*
X40075368Y-87312141D01*
X40075368Y-87312141D02*
X40160035Y-87227474D01*
D12*
%TO.N,/+18V_OUT*%
%TO.C,C2*%
X257810000Y-93980000D03*
D13*
%TO.N,GND*%
X257810000Y-97480000D03*
%TD*%
D14*
%TO.N,/~{REC}*%
%TO.C,SW2*%
X291628000Y-156285700D03*
%TO.N,/RTN*%
X296128001Y-156285700D03*
D15*
%TO.N,N/C*%
X290378001Y-153785824D03*
X297378000Y-153785824D03*
%TD*%
D12*
%TO.N,/+18V_OUT*%
%TO.C,C1*%
X257810000Y-84785200D03*
D13*
%TO.N,GND*%
X257810000Y-88285200D03*
%TD*%
D16*
%TO.N,/V_BAT*%
%TO.C,J4*%
X252501400Y-148365600D03*
X252501400Y-156565600D03*
%TO.N,GND*%
X257581400Y-148365600D03*
X257581400Y-156565600D03*
%TD*%
D17*
%TO.N,/RTN*%
%TO.C,J3*%
X276225000Y-147320000D03*
D18*
%TO.N,/UART2_RXD*%
X273685000Y-147320000D03*
D19*
%TO.N,/UART2_TXD*%
X271145000Y-147320000D03*
%TD*%
D14*
%TO.N,/~{SYS_RESET}*%
%TO.C,SW1*%
X281976000Y-156285700D03*
%TO.N,/RTN*%
X286476001Y-156285700D03*
D15*
%TO.N,N/C*%
X280726001Y-153785824D03*
X287726000Y-153785824D03*
%TD*%
D17*
%TO.N,/RTN*%
%TO.C,J2*%
X297447500Y-117348000D03*
D18*
%TO.N,/UART2_RXD*%
X297447500Y-119888000D03*
D19*
%TO.N,/UART2_TXD*%
X297447500Y-122428000D03*
%TO.N,/~{SYS_RESET}*%
X297447500Y-124968000D03*
%TO.N,/RTN*%
X297447500Y-127508000D03*
%TO.N,/~{REC}*%
X297447500Y-130048000D03*
%TD*%
D20*
%TO.N,/Power Supply/V_IN*%
%TO.C,C5*%
X292181677Y-103124000D03*
D21*
%TO.N,GND*%
X287181677Y-103124000D03*
%TD*%
D22*
%TO.N,/+18V_OUT*%
%TO.C,J1*%
X239166400Y-85594200D03*
X239166400Y-90594200D03*
%TO.N,GND*%
X244166400Y-85594200D03*
X244166400Y-90594200D03*
%TD*%
D23*
%TO.N,GND*%
X273812000Y-117221010D03*
X267462000Y-96266000D03*
X267461982Y-94234000D03*
D24*
X265658600Y-105359200D03*
X271272000Y-104266998D03*
D23*
X287934400Y-83515200D03*
X273825822Y-100813988D03*
X270002000Y-128778000D03*
X244856000Y-156210000D03*
X267462000Y-95250000D03*
X287934400Y-94843600D03*
X277215600Y-105410000D03*
X275844000Y-117221000D03*
%TO.N,/+18V_OUT*%
X261366000Y-91948000D03*
X261366000Y-84836000D03*
X262382000Y-86614000D03*
X262382000Y-83058000D03*
X262382000Y-90170000D03*
X261366000Y-88392000D03*
%TO.N,/Power Supply/V_IN*%
X277190204Y-110362988D03*
X295910000Y-89154000D03*
X280543000Y-111633000D03*
X295910000Y-87122000D03*
X280543034Y-109093000D03*
X281940008Y-110388408D03*
X295910000Y-91186000D03*
%TO.N,/V_BAT*%
X272288000Y-107848400D03*
X270002000Y-120650000D03*
X275590000Y-111633000D03*
X273812000Y-112828307D03*
X272288000Y-110388400D03*
X275590000Y-109067600D03*
%TD*%
%TA.AperFunction,Conductor*%
%TO.N,/RTN*%
G36*
X302962117Y-114321355D02*
G01*
X303009321Y-114372868D01*
X303022000Y-114427492D01*
X303022000Y-158244500D01*
X303002315Y-158311539D01*
X302949511Y-158357294D01*
X302898000Y-158368500D01*
X278536713Y-158368500D01*
X278469674Y-158348815D01*
X278423919Y-158296011D01*
X278413975Y-158226853D01*
X278443000Y-158163297D01*
X278489261Y-158129939D01*
X278632721Y-158070515D01*
X278660182Y-158059141D01*
X278925318Y-157906064D01*
X279168206Y-157719689D01*
X279384689Y-157503206D01*
X279571064Y-157260318D01*
X279724141Y-156995182D01*
X279732597Y-156974769D01*
X279841297Y-156712340D01*
X279841296Y-156712340D01*
X279841300Y-156712333D01*
X279920539Y-156416611D01*
X279937774Y-156285700D01*
X280916297Y-156285700D01*
X280936658Y-156492436D01*
X280996963Y-156691235D01*
X281094885Y-156874433D01*
X281094889Y-156874440D01*
X281226676Y-157035023D01*
X281387259Y-157166810D01*
X281387266Y-157166814D01*
X281570464Y-157264736D01*
X281570466Y-157264736D01*
X281570469Y-157264738D01*
X281769262Y-157325041D01*
X281769261Y-157325041D01*
X281787797Y-157326866D01*
X281976000Y-157345403D01*
X282182738Y-157325041D01*
X282381531Y-157264738D01*
X282564739Y-157166811D01*
X282725323Y-157035023D01*
X282857111Y-156874439D01*
X282955038Y-156691231D01*
X283015341Y-156492438D01*
X283035703Y-156285700D01*
X283035703Y-156285698D01*
X285221929Y-156285698D01*
X285221929Y-156285701D01*
X285240980Y-156503461D01*
X285240982Y-156503471D01*
X285297556Y-156714610D01*
X285297560Y-156714619D01*
X285389945Y-156912739D01*
X285433377Y-156974768D01*
X285433378Y-156974769D01*
X285996875Y-156411272D01*
X286014455Y-156476879D01*
X286079662Y-156589821D01*
X286171880Y-156682039D01*
X286284822Y-156747246D01*
X286350428Y-156764825D01*
X285786930Y-157328321D01*
X285786931Y-157328322D01*
X285848961Y-157371755D01*
X286047081Y-157464140D01*
X286047090Y-157464144D01*
X286258229Y-157520718D01*
X286258239Y-157520720D01*
X286475999Y-157539772D01*
X286476003Y-157539772D01*
X286693762Y-157520720D01*
X286693772Y-157520718D01*
X286904911Y-157464144D01*
X286904920Y-157464140D01*
X287103036Y-157371757D01*
X287165070Y-157328321D01*
X286601574Y-156764825D01*
X286667180Y-156747246D01*
X286780122Y-156682039D01*
X286872340Y-156589821D01*
X286937547Y-156476879D01*
X286955126Y-156411273D01*
X287518622Y-156974769D01*
X287562058Y-156912735D01*
X287654441Y-156714619D01*
X287654445Y-156714610D01*
X287711019Y-156503471D01*
X287711021Y-156503461D01*
X287730073Y-156285701D01*
X287730073Y-156285700D01*
X290568297Y-156285700D01*
X290588658Y-156492436D01*
X290648963Y-156691235D01*
X290746885Y-156874433D01*
X290746889Y-156874440D01*
X290878676Y-157035023D01*
X291039259Y-157166810D01*
X291039266Y-157166814D01*
X291222464Y-157264736D01*
X291222466Y-157264736D01*
X291222469Y-157264738D01*
X291421262Y-157325041D01*
X291421261Y-157325041D01*
X291439797Y-157326866D01*
X291628000Y-157345403D01*
X291834738Y-157325041D01*
X292033531Y-157264738D01*
X292216739Y-157166811D01*
X292377323Y-157035023D01*
X292509111Y-156874439D01*
X292607038Y-156691231D01*
X292667341Y-156492438D01*
X292687703Y-156285700D01*
X292687703Y-156285698D01*
X294873929Y-156285698D01*
X294873929Y-156285701D01*
X294892980Y-156503461D01*
X294892982Y-156503471D01*
X294949556Y-156714610D01*
X294949560Y-156714619D01*
X295041945Y-156912739D01*
X295085377Y-156974768D01*
X295085378Y-156974769D01*
X295648875Y-156411272D01*
X295666455Y-156476879D01*
X295731662Y-156589821D01*
X295823880Y-156682039D01*
X295936822Y-156747246D01*
X296002428Y-156764825D01*
X295438930Y-157328321D01*
X295438931Y-157328322D01*
X295500961Y-157371755D01*
X295699081Y-157464140D01*
X295699090Y-157464144D01*
X295910229Y-157520718D01*
X295910239Y-157520720D01*
X296127999Y-157539772D01*
X296128003Y-157539772D01*
X296345762Y-157520720D01*
X296345772Y-157520718D01*
X296556911Y-157464144D01*
X296556920Y-157464140D01*
X296755036Y-157371757D01*
X296817070Y-157328321D01*
X296253574Y-156764825D01*
X296319180Y-156747246D01*
X296432122Y-156682039D01*
X296524340Y-156589821D01*
X296589547Y-156476879D01*
X296607126Y-156411273D01*
X297170622Y-156974769D01*
X297214058Y-156912735D01*
X297306441Y-156714619D01*
X297306445Y-156714610D01*
X297363019Y-156503471D01*
X297363021Y-156503461D01*
X297382073Y-156285701D01*
X297382073Y-156285698D01*
X297363021Y-156067938D01*
X297363019Y-156067928D01*
X297306445Y-155856789D01*
X297306441Y-155856780D01*
X297214056Y-155658660D01*
X297170623Y-155596630D01*
X297170622Y-155596629D01*
X296607125Y-156160126D01*
X296589547Y-156094521D01*
X296524340Y-155981579D01*
X296432122Y-155889361D01*
X296319180Y-155824154D01*
X296253573Y-155806574D01*
X296817070Y-155243077D01*
X296817069Y-155243076D01*
X296755040Y-155199644D01*
X296556920Y-155107259D01*
X296556911Y-155107255D01*
X296345772Y-155050681D01*
X296345762Y-155050679D01*
X296128003Y-155031628D01*
X296127999Y-155031628D01*
X295910239Y-155050679D01*
X295910229Y-155050681D01*
X295699090Y-155107255D01*
X295699081Y-155107259D01*
X295500965Y-155199642D01*
X295438931Y-155243077D01*
X296002429Y-155806574D01*
X295936822Y-155824154D01*
X295823880Y-155889361D01*
X295731662Y-155981579D01*
X295666455Y-156094521D01*
X295648875Y-156160127D01*
X295085378Y-155596630D01*
X295041943Y-155658664D01*
X294949560Y-155856780D01*
X294949556Y-155856789D01*
X294892982Y-156067928D01*
X294892980Y-156067938D01*
X294873929Y-156285698D01*
X292687703Y-156285698D01*
X292667341Y-156078962D01*
X292607038Y-155880169D01*
X292607036Y-155880166D01*
X292607036Y-155880164D01*
X292509114Y-155696966D01*
X292509110Y-155696959D01*
X292377323Y-155536376D01*
X292216740Y-155404589D01*
X292216733Y-155404585D01*
X292033535Y-155306663D01*
X291934134Y-155276510D01*
X291834738Y-155246359D01*
X291834736Y-155246358D01*
X291834738Y-155246358D01*
X291628000Y-155225997D01*
X291421263Y-155246358D01*
X291222464Y-155306663D01*
X291039266Y-155404585D01*
X291039259Y-155404589D01*
X290878676Y-155536376D01*
X290746889Y-155696959D01*
X290746885Y-155696966D01*
X290648963Y-155880164D01*
X290588658Y-156078963D01*
X290568297Y-156285700D01*
X287730073Y-156285700D01*
X287730073Y-156285698D01*
X287711021Y-156067938D01*
X287711019Y-156067928D01*
X287654445Y-155856789D01*
X287654441Y-155856780D01*
X287562056Y-155658660D01*
X287518623Y-155596630D01*
X287518622Y-155596629D01*
X286955125Y-156160126D01*
X286937547Y-156094521D01*
X286872340Y-155981579D01*
X286780122Y-155889361D01*
X286667180Y-155824154D01*
X286601573Y-155806574D01*
X287165070Y-155243077D01*
X287165069Y-155243076D01*
X287103040Y-155199644D01*
X286904920Y-155107259D01*
X286904911Y-155107255D01*
X286693772Y-155050681D01*
X286693762Y-155050679D01*
X286476003Y-155031628D01*
X286475999Y-155031628D01*
X286258239Y-155050679D01*
X286258229Y-155050681D01*
X286047090Y-155107255D01*
X286047081Y-155107259D01*
X285848965Y-155199642D01*
X285786931Y-155243077D01*
X286350429Y-155806574D01*
X286284822Y-155824154D01*
X286171880Y-155889361D01*
X286079662Y-155981579D01*
X286014455Y-156094521D01*
X285996875Y-156160127D01*
X285433378Y-155596630D01*
X285389943Y-155658664D01*
X285297560Y-155856780D01*
X285297556Y-155856789D01*
X285240982Y-156067928D01*
X285240980Y-156067938D01*
X285221929Y-156285698D01*
X283035703Y-156285698D01*
X283015341Y-156078962D01*
X282955038Y-155880169D01*
X282955036Y-155880166D01*
X282955036Y-155880164D01*
X282857114Y-155696966D01*
X282857110Y-155696959D01*
X282725323Y-155536376D01*
X282564740Y-155404589D01*
X282564733Y-155404585D01*
X282381535Y-155306663D01*
X282282134Y-155276510D01*
X282182738Y-155246359D01*
X282182736Y-155246358D01*
X282182738Y-155246358D01*
X281976000Y-155225997D01*
X281769263Y-155246358D01*
X281570464Y-155306663D01*
X281387266Y-155404585D01*
X281387259Y-155404589D01*
X281226676Y-155536376D01*
X281094889Y-155696959D01*
X281094885Y-155696966D01*
X280996963Y-155880164D01*
X280936658Y-156078963D01*
X280916297Y-156285700D01*
X279937774Y-156285700D01*
X279960500Y-156113077D01*
X279960500Y-155806923D01*
X279920539Y-155503389D01*
X279841300Y-155207667D01*
X279799710Y-155107259D01*
X279724145Y-154924826D01*
X279724137Y-154924810D01*
X279602361Y-154713890D01*
X279585888Y-154645990D01*
X279608740Y-154579963D01*
X279663661Y-154536773D01*
X279733215Y-154530131D01*
X279795317Y-154562147D01*
X279797429Y-154564209D01*
X279947190Y-154713970D01*
X279947196Y-154713975D01*
X280120190Y-154835107D01*
X280120192Y-154835108D01*
X280120195Y-154835110D01*
X280311606Y-154924366D01*
X280311612Y-154924367D01*
X280311613Y-154924368D01*
X280360710Y-154937523D01*
X280515607Y-154979028D01*
X280665888Y-154992175D01*
X280725999Y-154997435D01*
X280726001Y-154997435D01*
X280726003Y-154997435D01*
X280778599Y-154992833D01*
X280936395Y-154979028D01*
X281140396Y-154924366D01*
X281331807Y-154835110D01*
X281504810Y-154713972D01*
X281654149Y-154564633D01*
X281775287Y-154391630D01*
X281864543Y-154200219D01*
X281919205Y-153996218D01*
X281937612Y-153785824D01*
X281937612Y-153785822D01*
X286514389Y-153785822D01*
X286514389Y-153785825D01*
X286532795Y-153996212D01*
X286532797Y-153996223D01*
X286587455Y-154200211D01*
X286587457Y-154200215D01*
X286587458Y-154200219D01*
X286587501Y-154200311D01*
X286676714Y-154391630D01*
X286676716Y-154391634D01*
X286797848Y-154564628D01*
X286797853Y-154564634D01*
X286947189Y-154713970D01*
X286947195Y-154713975D01*
X287120189Y-154835107D01*
X287120191Y-154835108D01*
X287120194Y-154835110D01*
X287311605Y-154924366D01*
X287311611Y-154924367D01*
X287311612Y-154924368D01*
X287360709Y-154937523D01*
X287515606Y-154979028D01*
X287665887Y-154992175D01*
X287725998Y-154997435D01*
X287726000Y-154997435D01*
X287726002Y-154997435D01*
X287778598Y-154992833D01*
X287936394Y-154979028D01*
X288140395Y-154924366D01*
X288331806Y-154835110D01*
X288504809Y-154713972D01*
X288654148Y-154564633D01*
X288775286Y-154391630D01*
X288864542Y-154200219D01*
X288919204Y-153996218D01*
X288928472Y-153890276D01*
X288953924Y-153825209D01*
X289006064Y-153787454D01*
X289092807Y-153787454D01*
X289141061Y-153814806D01*
X289173569Y-153876652D01*
X289175528Y-153890277D01*
X289184796Y-153996213D01*
X289184798Y-153996223D01*
X289239456Y-154200211D01*
X289239458Y-154200215D01*
X289239459Y-154200219D01*
X289239502Y-154200311D01*
X289328715Y-154391630D01*
X289328717Y-154391634D01*
X289449849Y-154564628D01*
X289449854Y-154564634D01*
X289599190Y-154713970D01*
X289599196Y-154713975D01*
X289772190Y-154835107D01*
X289772192Y-154835108D01*
X289772195Y-154835110D01*
X289963606Y-154924366D01*
X289963612Y-154924367D01*
X289963613Y-154924368D01*
X290012710Y-154937523D01*
X290167607Y-154979028D01*
X290317888Y-154992175D01*
X290377999Y-154997435D01*
X290378001Y-154997435D01*
X290378003Y-154997435D01*
X290430599Y-154992833D01*
X290588395Y-154979028D01*
X290792396Y-154924366D01*
X290983807Y-154835110D01*
X291156810Y-154713972D01*
X291306149Y-154564633D01*
X291427287Y-154391630D01*
X291516543Y-154200219D01*
X291571205Y-153996218D01*
X291589612Y-153785824D01*
X291589612Y-153785822D01*
X296166389Y-153785822D01*
X296166389Y-153785825D01*
X296184795Y-153996212D01*
X296184797Y-153996223D01*
X296239455Y-154200211D01*
X296239457Y-154200215D01*
X296239458Y-154200219D01*
X296239501Y-154200311D01*
X296328714Y-154391630D01*
X296328716Y-154391634D01*
X296449848Y-154564628D01*
X296449853Y-154564634D01*
X296599189Y-154713970D01*
X296599195Y-154713975D01*
X296772189Y-154835107D01*
X296772191Y-154835108D01*
X296772194Y-154835110D01*
X296963605Y-154924366D01*
X296963611Y-154924367D01*
X296963612Y-154924368D01*
X297012709Y-154937523D01*
X297167606Y-154979028D01*
X297317887Y-154992175D01*
X297377998Y-154997435D01*
X297378000Y-154997435D01*
X297378002Y-154997435D01*
X297430598Y-154992833D01*
X297588394Y-154979028D01*
X297792395Y-154924366D01*
X297983806Y-154835110D01*
X298156809Y-154713972D01*
X298306148Y-154564633D01*
X298427286Y-154391630D01*
X298516542Y-154200219D01*
X298571204Y-153996218D01*
X298589611Y-153785824D01*
X298571204Y-153575430D01*
X298516542Y-153371429D01*
X298427286Y-153180019D01*
X298306148Y-153007015D01*
X298156809Y-152857676D01*
X298156805Y-152857673D01*
X298156804Y-152857672D01*
X297983810Y-152736540D01*
X297983806Y-152736538D01*
X297983804Y-152736537D01*
X297792395Y-152647282D01*
X297792391Y-152647281D01*
X297792387Y-152647279D01*
X297588399Y-152592621D01*
X297588395Y-152592620D01*
X297588394Y-152592620D01*
X297588393Y-152592619D01*
X297588388Y-152592619D01*
X297378002Y-152574213D01*
X297377998Y-152574213D01*
X297167611Y-152592619D01*
X297167600Y-152592621D01*
X296963612Y-152647279D01*
X296963603Y-152647283D01*
X296772196Y-152736537D01*
X296772194Y-152736538D01*
X296599188Y-152857677D01*
X296449853Y-153007012D01*
X296328714Y-153180018D01*
X296328713Y-153180020D01*
X296239459Y-153371427D01*
X296239455Y-153371436D01*
X296184797Y-153575424D01*
X296184795Y-153575435D01*
X296166389Y-153785822D01*
X291589612Y-153785822D01*
X291571205Y-153575430D01*
X291516543Y-153371429D01*
X291427287Y-153180019D01*
X291306149Y-153007015D01*
X291156810Y-152857676D01*
X291156806Y-152857673D01*
X291156805Y-152857672D01*
X290983811Y-152736540D01*
X290983807Y-152736538D01*
X290983805Y-152736537D01*
X290792396Y-152647282D01*
X290792392Y-152647281D01*
X290792388Y-152647279D01*
X290588400Y-152592621D01*
X290588396Y-152592620D01*
X290588395Y-152592620D01*
X290588394Y-152592619D01*
X290588389Y-152592619D01*
X290378003Y-152574213D01*
X290377999Y-152574213D01*
X290167612Y-152592619D01*
X290167601Y-152592621D01*
X289963613Y-152647279D01*
X289963604Y-152647283D01*
X289772197Y-152736537D01*
X289772195Y-152736538D01*
X289599189Y-152857677D01*
X289449854Y-153007012D01*
X289328715Y-153180018D01*
X289328714Y-153180020D01*
X289239460Y-153371427D01*
X289239456Y-153371436D01*
X289184798Y-153575424D01*
X289184796Y-153575434D01*
X289175528Y-153681370D01*
X289150075Y-153746439D01*
X289093484Y-153787417D01*
X289092807Y-153787454D01*
X289006064Y-153787454D01*
X289010515Y-153784231D01*
X289011193Y-153784193D01*
X288962938Y-153756841D01*
X288930431Y-153694994D01*
X288928473Y-153681376D01*
X288919204Y-153575430D01*
X288864542Y-153371429D01*
X288775286Y-153180019D01*
X288654148Y-153007015D01*
X288504809Y-152857676D01*
X288504805Y-152857673D01*
X288504804Y-152857672D01*
X288331810Y-152736540D01*
X288331806Y-152736538D01*
X288331804Y-152736537D01*
X288140395Y-152647282D01*
X288140391Y-152647281D01*
X288140387Y-152647279D01*
X287936399Y-152592621D01*
X287936395Y-152592620D01*
X287936394Y-152592620D01*
X287936393Y-152592619D01*
X287936388Y-152592619D01*
X287726002Y-152574213D01*
X287725998Y-152574213D01*
X287515611Y-152592619D01*
X287515600Y-152592621D01*
X287311612Y-152647279D01*
X287311603Y-152647283D01*
X287120196Y-152736537D01*
X287120194Y-152736538D01*
X286947188Y-152857677D01*
X286797853Y-153007012D01*
X286676714Y-153180018D01*
X286676713Y-153180020D01*
X286587459Y-153371427D01*
X286587455Y-153371436D01*
X286532797Y-153575424D01*
X286532795Y-153575435D01*
X286514389Y-153785822D01*
X281937612Y-153785822D01*
X281919205Y-153575430D01*
X281864543Y-153371429D01*
X281775287Y-153180019D01*
X281654149Y-153007015D01*
X281504810Y-152857676D01*
X281504806Y-152857673D01*
X281504805Y-152857672D01*
X281331811Y-152736540D01*
X281331807Y-152736538D01*
X281331805Y-152736537D01*
X281140396Y-152647282D01*
X281140392Y-152647281D01*
X281140388Y-152647279D01*
X280936400Y-152592621D01*
X280936396Y-152592620D01*
X280936395Y-152592620D01*
X280936394Y-152592619D01*
X280936389Y-152592619D01*
X280726003Y-152574213D01*
X280725999Y-152574213D01*
X280515612Y-152592619D01*
X280515601Y-152592621D01*
X280311613Y-152647279D01*
X280311604Y-152647283D01*
X280120197Y-152736537D01*
X280120195Y-152736538D01*
X279947189Y-152857677D01*
X279797854Y-153007012D01*
X279676715Y-153180018D01*
X279676714Y-153180020D01*
X279587460Y-153371427D01*
X279587456Y-153371436D01*
X279532798Y-153575424D01*
X279532796Y-153575435D01*
X279514390Y-153785822D01*
X279514390Y-153785825D01*
X279532796Y-153996212D01*
X279532798Y-153996223D01*
X279587456Y-154200211D01*
X279587458Y-154200215D01*
X279587459Y-154200219D01*
X279587502Y-154200311D01*
X279676719Y-154391638D01*
X279676951Y-154392040D01*
X279676999Y-154392238D01*
X279679003Y-154396536D01*
X279678138Y-154396939D01*
X279693413Y-154459943D01*
X279670550Y-154525966D01*
X279615622Y-154569148D01*
X279546067Y-154575778D01*
X279483970Y-154543752D01*
X279471178Y-154529509D01*
X279468459Y-154525966D01*
X279384689Y-154416794D01*
X279384684Y-154416788D01*
X279168211Y-154200315D01*
X279168204Y-154200309D01*
X278925326Y-154013942D01*
X278925324Y-154013940D01*
X278925318Y-154013936D01*
X278925313Y-154013933D01*
X278925310Y-154013931D01*
X278660189Y-153860862D01*
X278660173Y-153860854D01*
X278377340Y-153743702D01*
X278081607Y-153664460D01*
X277778086Y-153624501D01*
X277778083Y-153624500D01*
X277778077Y-153624500D01*
X277471923Y-153624500D01*
X277471917Y-153624500D01*
X277471913Y-153624501D01*
X277168392Y-153664460D01*
X276872659Y-153743702D01*
X276589826Y-153860854D01*
X276589810Y-153860862D01*
X276324689Y-154013931D01*
X276324673Y-154013942D01*
X276081795Y-154200309D01*
X276081788Y-154200315D01*
X275865315Y-154416788D01*
X275865309Y-154416795D01*
X275678942Y-154659673D01*
X275678931Y-154659689D01*
X275525862Y-154924810D01*
X275525854Y-154924826D01*
X275408702Y-155207659D01*
X275329460Y-155503392D01*
X275289501Y-155806913D01*
X275289500Y-155806929D01*
X275289500Y-156113070D01*
X275289501Y-156113086D01*
X275320810Y-156350907D01*
X275329461Y-156416611D01*
X275386293Y-156628711D01*
X275408702Y-156712340D01*
X275525854Y-156995173D01*
X275525862Y-156995189D01*
X275678931Y-157260310D01*
X275678942Y-157260326D01*
X275865309Y-157503204D01*
X275865315Y-157503211D01*
X276081788Y-157719684D01*
X276081794Y-157719689D01*
X276324682Y-157906064D01*
X276324689Y-157906068D01*
X276589810Y-158059137D01*
X276589815Y-158059139D01*
X276589818Y-158059141D01*
X276589822Y-158059142D01*
X276589827Y-158059145D01*
X276760739Y-158129939D01*
X276815143Y-158173780D01*
X276837208Y-158240074D01*
X276819929Y-158307773D01*
X276768792Y-158355384D01*
X276713287Y-158368500D01*
X270656713Y-158368500D01*
X270589674Y-158348815D01*
X270543919Y-158296011D01*
X270533975Y-158226853D01*
X270563000Y-158163297D01*
X270609261Y-158129939D01*
X270752721Y-158070515D01*
X270780182Y-158059141D01*
X271045318Y-157906064D01*
X271288206Y-157719689D01*
X271504689Y-157503206D01*
X271691064Y-157260318D01*
X271844141Y-156995182D01*
X271852597Y-156974769D01*
X271961297Y-156712340D01*
X271961296Y-156712340D01*
X271961300Y-156712333D01*
X272040539Y-156416611D01*
X272080500Y-156113077D01*
X272080500Y-155806923D01*
X272040539Y-155503389D01*
X271961300Y-155207667D01*
X271919710Y-155107259D01*
X271844145Y-154924826D01*
X271844137Y-154924810D01*
X271691068Y-154659689D01*
X271691064Y-154659682D01*
X271591656Y-154530131D01*
X271504690Y-154416795D01*
X271504684Y-154416788D01*
X271288211Y-154200315D01*
X271288204Y-154200309D01*
X271045326Y-154013942D01*
X271045324Y-154013940D01*
X271045318Y-154013936D01*
X271045313Y-154013933D01*
X271045310Y-154013931D01*
X270780189Y-153860862D01*
X270780173Y-153860854D01*
X270497340Y-153743702D01*
X270201607Y-153664460D01*
X269898086Y-153624501D01*
X269898083Y-153624500D01*
X269898077Y-153624500D01*
X269591923Y-153624500D01*
X269591917Y-153624500D01*
X269591913Y-153624501D01*
X269288392Y-153664460D01*
X268992659Y-153743702D01*
X268709826Y-153860854D01*
X268709810Y-153860862D01*
X268542500Y-153957460D01*
X268474600Y-153973933D01*
X268408573Y-153951081D01*
X268365382Y-153896159D01*
X268356500Y-153850073D01*
X268356500Y-147319999D01*
X269945584Y-147319999D01*
X269945584Y-147320000D01*
X269966005Y-147540391D01*
X270026577Y-147753276D01*
X270026582Y-147753289D01*
X270125236Y-147951411D01*
X270257076Y-148125996D01*
X270258621Y-148128041D01*
X270422190Y-148277155D01*
X270422192Y-148277156D01*
X270422193Y-148277157D01*
X270610370Y-148393671D01*
X270610372Y-148393672D01*
X270610374Y-148393673D01*
X270816764Y-148473629D01*
X271034332Y-148514300D01*
X271034334Y-148514300D01*
X271255666Y-148514300D01*
X271255668Y-148514300D01*
X271473236Y-148473629D01*
X271679626Y-148393673D01*
X271867810Y-148277155D01*
X272031379Y-148128041D01*
X272164764Y-147951411D01*
X272263422Y-147753279D01*
X272263425Y-147753268D01*
X272265488Y-147747943D01*
X272267933Y-147748890D01*
X272299224Y-147699220D01*
X272362514Y-147669622D01*
X272431760Y-147678940D01*
X272484975Y-147724215D01*
X272497789Y-147749776D01*
X272498538Y-147751833D01*
X272498539Y-147751836D01*
X272499212Y-147753279D01*
X272591552Y-147951303D01*
X272591554Y-147951307D01*
X272717788Y-148131588D01*
X272873411Y-148287211D01*
X273053692Y-148413445D01*
X273053694Y-148413446D01*
X273053697Y-148413448D01*
X273253164Y-148506461D01*
X273465751Y-148563423D01*
X273641150Y-148578768D01*
X273684999Y-148582605D01*
X273685000Y-148582605D01*
X273685001Y-148582605D01*
X273721541Y-148579408D01*
X273904249Y-148563423D01*
X274116836Y-148506461D01*
X274316303Y-148413448D01*
X274496587Y-148287212D01*
X274549032Y-148234767D01*
X274624319Y-148159481D01*
X274685642Y-148125996D01*
X274755334Y-148130980D01*
X274811267Y-148172852D01*
X274835684Y-148238316D01*
X274836000Y-148247162D01*
X274836000Y-148256844D01*
X274842401Y-148316372D01*
X274842403Y-148316379D01*
X274892645Y-148451086D01*
X274892649Y-148451093D01*
X274978809Y-148566187D01*
X274978812Y-148566190D01*
X275093906Y-148652350D01*
X275093913Y-148652354D01*
X275228620Y-148702596D01*
X275228627Y-148702598D01*
X275288155Y-148708999D01*
X275288172Y-148709000D01*
X275975000Y-148709000D01*
X275975000Y-147791579D01*
X276019115Y-147817050D01*
X276154777Y-147853400D01*
X276295223Y-147853400D01*
X276430885Y-147817050D01*
X276475000Y-147791579D01*
X276475000Y-148709000D01*
X277161828Y-148709000D01*
X277161844Y-148708999D01*
X277221372Y-148702598D01*
X277221379Y-148702596D01*
X277356086Y-148652354D01*
X277356093Y-148652350D01*
X277471187Y-148566190D01*
X277471190Y-148566187D01*
X277557350Y-148451093D01*
X277557354Y-148451086D01*
X277607596Y-148316379D01*
X277607598Y-148316372D01*
X277613999Y-148256844D01*
X277614000Y-148256827D01*
X277614000Y-147570000D01*
X276696580Y-147570000D01*
X276722050Y-147525885D01*
X276758400Y-147390223D01*
X276758400Y-147249777D01*
X276722050Y-147114115D01*
X276696580Y-147070000D01*
X277614000Y-147070000D01*
X277614000Y-146383172D01*
X277613999Y-146383155D01*
X277607598Y-146323627D01*
X277607596Y-146323620D01*
X277557354Y-146188913D01*
X277557350Y-146188906D01*
X277471190Y-146073812D01*
X277471187Y-146073809D01*
X277356093Y-145987649D01*
X277356086Y-145987645D01*
X277221379Y-145937403D01*
X277221372Y-145937401D01*
X277161844Y-145931000D01*
X276475000Y-145931000D01*
X276475000Y-146848420D01*
X276430885Y-146822950D01*
X276295223Y-146786600D01*
X276154777Y-146786600D01*
X276019115Y-146822950D01*
X275975000Y-146848420D01*
X275975000Y-145931000D01*
X275288155Y-145931000D01*
X275228627Y-145937401D01*
X275228620Y-145937403D01*
X275093913Y-145987645D01*
X275093906Y-145987649D01*
X274978812Y-146073809D01*
X274978809Y-146073812D01*
X274892649Y-146188906D01*
X274892645Y-146188913D01*
X274842403Y-146323620D01*
X274842401Y-146323627D01*
X274836000Y-146383155D01*
X274836000Y-146392838D01*
X274816315Y-146459877D01*
X274763511Y-146505632D01*
X274694353Y-146515576D01*
X274630797Y-146486551D01*
X274624319Y-146480519D01*
X274496588Y-146352788D01*
X274316307Y-146226554D01*
X274316303Y-146226552D01*
X274316301Y-146226551D01*
X274116836Y-146133539D01*
X274116832Y-146133538D01*
X274116828Y-146133536D01*
X273904254Y-146076578D01*
X273904244Y-146076576D01*
X273685001Y-146057395D01*
X273684999Y-146057395D01*
X273465755Y-146076576D01*
X273465745Y-146076578D01*
X273253171Y-146133536D01*
X273253162Y-146133540D01*
X273053699Y-146226551D01*
X273053697Y-146226552D01*
X272873410Y-146352789D01*
X272717789Y-146508410D01*
X272591552Y-146688697D01*
X272591551Y-146688699D01*
X272498537Y-146888166D01*
X272497787Y-146890229D01*
X272497212Y-146891009D01*
X272496251Y-146893071D01*
X272495836Y-146892877D01*
X272456354Y-146946488D01*
X272391082Y-146971415D01*
X272322695Y-146957097D01*
X272272905Y-146908079D01*
X272266166Y-146891794D01*
X272265488Y-146892057D01*
X272263424Y-146886728D01*
X272263422Y-146886721D01*
X272164764Y-146688589D01*
X272031379Y-146511959D01*
X271867810Y-146362845D01*
X271867807Y-146362843D01*
X271867806Y-146362842D01*
X271679629Y-146246328D01*
X271679620Y-146246324D01*
X271524833Y-146186360D01*
X271473236Y-146166371D01*
X271255668Y-146125700D01*
X271034332Y-146125700D01*
X270816764Y-146166371D01*
X270816761Y-146166371D01*
X270816761Y-146166372D01*
X270610379Y-146246324D01*
X270610370Y-146246328D01*
X270422193Y-146362842D01*
X270258620Y-146511959D01*
X270125236Y-146688588D01*
X270026582Y-146886710D01*
X270026577Y-146886723D01*
X269966005Y-147099608D01*
X269945584Y-147319999D01*
X268356500Y-147319999D01*
X268356500Y-143199034D01*
X268376185Y-143131995D01*
X268388654Y-143115725D01*
X282545665Y-127507994D01*
X296053740Y-127507994D01*
X296053740Y-127508005D01*
X296072747Y-127737396D01*
X296072749Y-127737408D01*
X296129257Y-127960553D01*
X296221724Y-128171355D01*
X296304259Y-128297685D01*
X296937265Y-127664679D01*
X296950450Y-127713885D01*
X297020674Y-127835515D01*
X297119985Y-127934826D01*
X297241615Y-128005050D01*
X297290818Y-128018233D01*
X296656540Y-128652512D01*
X296656540Y-128652514D01*
X296685177Y-128674803D01*
X296685183Y-128674807D01*
X296876627Y-128778412D01*
X296926217Y-128827632D01*
X296941325Y-128895849D01*
X296917154Y-128961404D01*
X296882886Y-128992894D01*
X296724693Y-129090842D01*
X296561120Y-129239959D01*
X296427736Y-129416588D01*
X296329082Y-129614710D01*
X296329077Y-129614723D01*
X296268505Y-129827608D01*
X296248084Y-130047999D01*
X296248084Y-130048000D01*
X296268505Y-130268391D01*
X296329077Y-130481276D01*
X296329082Y-130481289D01*
X296427736Y-130679411D01*
X296561121Y-130856041D01*
X296724690Y-131005155D01*
X296724692Y-131005156D01*
X296724693Y-131005157D01*
X296912870Y-131121671D01*
X296912872Y-131121672D01*
X296912874Y-131121673D01*
X297119264Y-131201629D01*
X297336832Y-131242300D01*
X297336834Y-131242300D01*
X297558166Y-131242300D01*
X297558168Y-131242300D01*
X297775736Y-131201629D01*
X297982126Y-131121673D01*
X298170310Y-131005155D01*
X298333879Y-130856041D01*
X298467264Y-130679411D01*
X298565922Y-130481279D01*
X298626494Y-130268392D01*
X298646916Y-130048000D01*
X298626494Y-129827608D01*
X298565922Y-129614721D01*
X298467264Y-129416589D01*
X298333879Y-129239959D01*
X298170310Y-129090845D01*
X298170307Y-129090843D01*
X298170306Y-129090842D01*
X298012113Y-128992894D01*
X297965477Y-128940866D01*
X297954373Y-128871885D01*
X297982326Y-128807850D01*
X298018372Y-128778412D01*
X298209815Y-128674807D01*
X298209816Y-128674806D01*
X298238458Y-128652513D01*
X298238459Y-128652511D01*
X297604181Y-128018233D01*
X297653385Y-128005050D01*
X297775015Y-127934826D01*
X297874326Y-127835515D01*
X297944550Y-127713885D01*
X297957733Y-127664681D01*
X298590738Y-128297686D01*
X298673274Y-128171357D01*
X298765742Y-127960553D01*
X298822250Y-127737408D01*
X298822252Y-127737396D01*
X298841260Y-127508005D01*
X298841260Y-127507994D01*
X298822252Y-127278603D01*
X298822250Y-127278591D01*
X298765742Y-127055446D01*
X298673275Y-126844644D01*
X298590738Y-126718312D01*
X297957733Y-127351317D01*
X297944550Y-127302115D01*
X297874326Y-127180485D01*
X297775015Y-127081174D01*
X297653385Y-127010950D01*
X297604180Y-126997765D01*
X298238458Y-126363486D01*
X298238458Y-126363484D01*
X298209822Y-126341196D01*
X298209807Y-126341186D01*
X298018372Y-126237586D01*
X297968782Y-126188367D01*
X297953674Y-126120150D01*
X297977845Y-126054595D01*
X298012109Y-126023107D01*
X298170310Y-125925155D01*
X298333879Y-125776041D01*
X298467264Y-125599411D01*
X298565922Y-125401279D01*
X298626494Y-125188392D01*
X298646916Y-124968000D01*
X298626494Y-124747608D01*
X298565922Y-124534721D01*
X298467264Y-124336589D01*
X298333879Y-124159959D01*
X298170310Y-124010845D01*
X298170307Y-124010843D01*
X298170306Y-124010842D01*
X297982129Y-123894328D01*
X297982120Y-123894324D01*
X297896859Y-123861294D01*
X297775736Y-123814371D01*
X297775731Y-123814370D01*
X297773813Y-123813627D01*
X297718411Y-123771054D01*
X297694820Y-123705288D01*
X297710531Y-123637207D01*
X297760554Y-123588428D01*
X297773813Y-123582373D01*
X297775731Y-123581629D01*
X297775736Y-123581629D01*
X297982126Y-123501673D01*
X298170310Y-123385155D01*
X298333879Y-123236041D01*
X298467264Y-123059411D01*
X298565922Y-122861279D01*
X298626494Y-122648392D01*
X298646916Y-122428000D01*
X298626494Y-122207608D01*
X298565922Y-121994721D01*
X298467264Y-121796589D01*
X298333879Y-121619959D01*
X298170310Y-121470845D01*
X298170307Y-121470843D01*
X298170306Y-121470842D01*
X297982129Y-121354328D01*
X297982114Y-121354321D01*
X297867058Y-121309748D01*
X297811656Y-121267176D01*
X297788066Y-121201409D01*
X297803777Y-121133328D01*
X297853801Y-121084550D01*
X297874306Y-121076492D01*
X297874242Y-121076315D01*
X297879319Y-121074465D01*
X297879336Y-121074461D01*
X298078803Y-120981448D01*
X298259087Y-120855212D01*
X298414712Y-120699587D01*
X298540948Y-120519303D01*
X298633961Y-120319836D01*
X298690923Y-120107249D01*
X298710105Y-119888000D01*
X298690923Y-119668751D01*
X298633961Y-119456164D01*
X298540948Y-119256698D01*
X298414712Y-119076413D01*
X298414710Y-119076410D01*
X298286981Y-118948681D01*
X298253496Y-118887358D01*
X298258480Y-118817666D01*
X298300352Y-118761733D01*
X298365816Y-118737316D01*
X298374662Y-118737000D01*
X298384328Y-118737000D01*
X298384344Y-118736999D01*
X298443872Y-118730598D01*
X298443879Y-118730596D01*
X298578586Y-118680354D01*
X298578593Y-118680350D01*
X298693687Y-118594190D01*
X298693690Y-118594187D01*
X298779850Y-118479093D01*
X298779854Y-118479086D01*
X298830096Y-118344379D01*
X298830098Y-118344372D01*
X298836499Y-118284844D01*
X298836500Y-118284827D01*
X298836500Y-117598000D01*
X297919080Y-117598000D01*
X297944550Y-117553885D01*
X297980900Y-117418223D01*
X297980900Y-117277777D01*
X297944550Y-117142115D01*
X297919080Y-117098000D01*
X298836500Y-117098000D01*
X298836500Y-116411172D01*
X298836499Y-116411155D01*
X298830098Y-116351627D01*
X298830096Y-116351620D01*
X298779854Y-116216913D01*
X298779850Y-116216906D01*
X298693690Y-116101812D01*
X298693687Y-116101809D01*
X298578593Y-116015649D01*
X298578586Y-116015645D01*
X298443879Y-115965403D01*
X298443872Y-115965401D01*
X298384344Y-115959000D01*
X297697500Y-115959000D01*
X297697500Y-116876420D01*
X297653385Y-116850950D01*
X297517723Y-116814600D01*
X297377277Y-116814600D01*
X297241615Y-116850950D01*
X297197500Y-116876420D01*
X297197500Y-115959000D01*
X296510655Y-115959000D01*
X296451127Y-115965401D01*
X296451120Y-115965403D01*
X296316413Y-116015645D01*
X296316406Y-116015649D01*
X296201312Y-116101809D01*
X296201309Y-116101812D01*
X296115149Y-116216906D01*
X296115145Y-116216913D01*
X296064903Y-116351620D01*
X296064901Y-116351627D01*
X296058500Y-116411155D01*
X296058500Y-117098000D01*
X296975920Y-117098000D01*
X296950450Y-117142115D01*
X296914100Y-117277777D01*
X296914100Y-117418223D01*
X296950450Y-117553885D01*
X296975920Y-117598000D01*
X296058500Y-117598000D01*
X296058500Y-118284844D01*
X296064901Y-118344372D01*
X296064903Y-118344379D01*
X296115145Y-118479086D01*
X296115149Y-118479093D01*
X296201309Y-118594187D01*
X296201312Y-118594190D01*
X296316406Y-118680350D01*
X296316413Y-118680354D01*
X296451120Y-118730596D01*
X296451127Y-118730598D01*
X296510655Y-118736999D01*
X296510672Y-118737000D01*
X296520338Y-118737000D01*
X296587377Y-118756685D01*
X296633132Y-118809489D01*
X296643076Y-118878647D01*
X296614051Y-118942203D01*
X296608019Y-118948681D01*
X296480289Y-119076410D01*
X296354052Y-119256697D01*
X296354051Y-119256699D01*
X296261040Y-119456162D01*
X296261036Y-119456171D01*
X296204078Y-119668745D01*
X296204076Y-119668755D01*
X296184895Y-119887999D01*
X296184895Y-119888000D01*
X296204076Y-120107244D01*
X296204078Y-120107254D01*
X296261036Y-120319828D01*
X296261038Y-120319832D01*
X296261039Y-120319836D01*
X296354052Y-120519303D01*
X296354054Y-120519307D01*
X296480288Y-120699588D01*
X296635911Y-120855211D01*
X296816192Y-120981445D01*
X296816194Y-120981446D01*
X296816197Y-120981448D01*
X297015664Y-121074461D01*
X297015677Y-121074464D01*
X297020758Y-121076315D01*
X297020340Y-121077460D01*
X297074889Y-121110699D01*
X297105427Y-121173541D01*
X297097143Y-121242918D01*
X297052665Y-121296802D01*
X297027942Y-121309748D01*
X296912882Y-121354323D01*
X296912870Y-121354328D01*
X296724693Y-121470842D01*
X296561120Y-121619959D01*
X296427736Y-121796588D01*
X296329082Y-121994710D01*
X296329077Y-121994723D01*
X296268505Y-122207608D01*
X296248084Y-122427999D01*
X296248084Y-122428000D01*
X296268505Y-122648391D01*
X296329077Y-122861276D01*
X296329082Y-122861289D01*
X296427736Y-123059411D01*
X296561121Y-123236041D01*
X296724690Y-123385155D01*
X296724692Y-123385156D01*
X296724693Y-123385157D01*
X296912870Y-123501671D01*
X296912871Y-123501671D01*
X296912874Y-123501673D01*
X297119264Y-123581629D01*
X297119268Y-123581629D01*
X297121187Y-123582373D01*
X297176588Y-123624946D01*
X297200179Y-123690713D01*
X297184468Y-123758793D01*
X297134444Y-123807572D01*
X297121187Y-123813627D01*
X297119268Y-123814370D01*
X297119264Y-123814371D01*
X296951962Y-123879184D01*
X296912876Y-123894326D01*
X296912870Y-123894328D01*
X296724693Y-124010842D01*
X296561120Y-124159959D01*
X296427736Y-124336588D01*
X296329082Y-124534710D01*
X296329077Y-124534723D01*
X296268505Y-124747608D01*
X296248084Y-124967999D01*
X296248084Y-124968000D01*
X296268505Y-125188391D01*
X296329077Y-125401276D01*
X296329082Y-125401289D01*
X296427736Y-125599411D01*
X296561121Y-125776041D01*
X296724690Y-125925155D01*
X296724692Y-125925156D01*
X296724693Y-125925157D01*
X296882886Y-126023106D01*
X296929522Y-126075134D01*
X296940626Y-126144115D01*
X296912673Y-126208150D01*
X296876627Y-126237587D01*
X296685185Y-126341190D01*
X296656540Y-126363485D01*
X296656540Y-126363487D01*
X297290819Y-126997765D01*
X297241615Y-127010950D01*
X297119985Y-127081174D01*
X297020674Y-127180485D01*
X296950450Y-127302115D01*
X296937266Y-127351319D01*
X296304260Y-126718313D01*
X296221724Y-126844644D01*
X296129257Y-127055446D01*
X296072749Y-127278591D01*
X296072747Y-127278603D01*
X296053740Y-127507994D01*
X282545665Y-127507994D01*
X294270865Y-114581271D01*
X294330483Y-114544844D01*
X294359260Y-114540631D01*
X302894557Y-114303540D01*
X302962117Y-114321355D01*
G37*
%TD.AperFunction*%
%TD*%
%TA.AperFunction,Conductor*%
%TO.N,GND*%
G36*
X296107039Y-80665185D02*
G01*
X296152794Y-80717989D01*
X296164000Y-80769500D01*
X296164000Y-85979000D01*
X303767036Y-87879759D01*
X303827300Y-87915116D01*
X303858882Y-87977440D01*
X303860961Y-87999654D01*
X303910174Y-103124068D01*
X303909282Y-103139325D01*
X303893326Y-103271568D01*
X303885974Y-103301176D01*
X303840979Y-103418319D01*
X303826620Y-103445235D01*
X303749949Y-103554151D01*
X303740400Y-103566080D01*
X267970000Y-143002000D01*
X267970000Y-143247087D01*
X267970000Y-143247091D01*
X267970000Y-154394654D01*
X267950315Y-154461693D01*
X267944376Y-154470140D01*
X267798942Y-154659673D01*
X267798931Y-154659689D01*
X267645862Y-154924810D01*
X267645854Y-154924826D01*
X267528702Y-155207659D01*
X267449460Y-155503392D01*
X267409501Y-155806913D01*
X267409500Y-155806929D01*
X267409500Y-156113070D01*
X267409501Y-156113086D01*
X267436863Y-156320925D01*
X267449461Y-156416611D01*
X267489382Y-156565599D01*
X267528702Y-156712340D01*
X267645854Y-156995173D01*
X267645862Y-156995189D01*
X267785188Y-157236506D01*
X267798936Y-157260318D01*
X267944376Y-157449858D01*
X267969570Y-157515028D01*
X267970000Y-157525345D01*
X267970000Y-158244500D01*
X267950315Y-158311539D01*
X267897511Y-158357294D01*
X267846000Y-158368500D01*
X247774000Y-158368500D01*
X247706961Y-158348815D01*
X247661206Y-158296011D01*
X247650000Y-158244500D01*
X247650000Y-156565594D01*
X251014823Y-156565594D01*
X251014823Y-156565605D01*
X251035096Y-156810274D01*
X251035098Y-156810286D01*
X251095369Y-157048291D01*
X251193994Y-157273131D01*
X251328279Y-157478671D01*
X251328282Y-157478674D01*
X251494569Y-157659310D01*
X251688319Y-157810112D01*
X251904249Y-157926968D01*
X252136467Y-158006688D01*
X252378639Y-158047100D01*
X252378640Y-158047100D01*
X252624160Y-158047100D01*
X252624161Y-158047100D01*
X252866333Y-158006688D01*
X253098551Y-157926968D01*
X253314481Y-157810112D01*
X253508231Y-157659310D01*
X253674518Y-157478674D01*
X253808805Y-157273132D01*
X253907430Y-157048291D01*
X253967702Y-156810283D01*
X253968752Y-156797615D01*
X253987977Y-156565605D01*
X253987977Y-156565594D01*
X253987977Y-156565593D01*
X256171785Y-156565593D01*
X256171785Y-156565606D01*
X256191008Y-156797607D01*
X256191010Y-156797615D01*
X256248162Y-157023302D01*
X256341680Y-157236502D01*
X256389021Y-157308963D01*
X257037439Y-156660547D01*
X257068882Y-156777892D01*
X257141290Y-156903308D01*
X257243692Y-157005710D01*
X257369108Y-157078118D01*
X257486451Y-157109560D01*
X256836314Y-157759697D01*
X256836314Y-157759699D01*
X257015153Y-157856483D01*
X257015171Y-157856490D01*
X257235357Y-157932080D01*
X257464995Y-157970400D01*
X257697805Y-157970400D01*
X257927442Y-157932080D01*
X258147634Y-157856488D01*
X258147636Y-157856487D01*
X258326484Y-157759699D01*
X258326484Y-157759697D01*
X257676349Y-157109560D01*
X257793692Y-157078118D01*
X257919108Y-157005710D01*
X258021510Y-156903308D01*
X258093918Y-156777892D01*
X258125360Y-156660548D01*
X258773776Y-157308964D01*
X258821116Y-157236506D01*
X258821121Y-157236498D01*
X258914637Y-157023302D01*
X258971789Y-156797615D01*
X258971791Y-156797607D01*
X258991015Y-156565606D01*
X258991015Y-156565593D01*
X258971791Y-156333592D01*
X258971789Y-156333584D01*
X258914637Y-156107897D01*
X258821120Y-155894700D01*
X258773776Y-155822234D01*
X258125360Y-156470650D01*
X258093918Y-156353308D01*
X258021510Y-156227892D01*
X257919108Y-156125490D01*
X257793692Y-156053082D01*
X257676348Y-156021639D01*
X258326484Y-155371501D01*
X258147637Y-155274712D01*
X258147631Y-155274710D01*
X257927442Y-155199119D01*
X257697805Y-155160800D01*
X257464995Y-155160800D01*
X257235357Y-155199119D01*
X257015168Y-155274710D01*
X257015162Y-155274712D01*
X256836314Y-155371501D01*
X257486452Y-156021639D01*
X257369108Y-156053082D01*
X257243692Y-156125490D01*
X257141290Y-156227892D01*
X257068882Y-156353308D01*
X257037439Y-156470651D01*
X256389022Y-155822235D01*
X256341680Y-155894698D01*
X256341678Y-155894702D01*
X256248162Y-156107897D01*
X256191010Y-156333584D01*
X256191008Y-156333592D01*
X256171785Y-156565593D01*
X253987977Y-156565593D01*
X253967703Y-156320925D01*
X253967701Y-156320913D01*
X253907430Y-156082908D01*
X253808805Y-155858068D01*
X253674520Y-155652528D01*
X253655610Y-155631987D01*
X253508231Y-155471890D01*
X253508226Y-155471886D01*
X253508224Y-155471884D01*
X253420377Y-155403510D01*
X253314481Y-155321088D01*
X253314480Y-155321087D01*
X253098552Y-155204232D01*
X253098547Y-155204230D01*
X252866335Y-155124512D01*
X252704885Y-155097570D01*
X252624161Y-155084100D01*
X252378639Y-155084100D01*
X252318096Y-155094203D01*
X252136464Y-155124512D01*
X251904252Y-155204230D01*
X251904247Y-155204232D01*
X251688319Y-155321087D01*
X251688315Y-155321091D01*
X251494575Y-155471884D01*
X251494572Y-155471887D01*
X251328279Y-155652528D01*
X251193994Y-155858068D01*
X251095369Y-156082908D01*
X251035098Y-156320913D01*
X251035096Y-156320925D01*
X251014823Y-156565594D01*
X247650000Y-156565594D01*
X247650000Y-148365594D01*
X251014823Y-148365594D01*
X251014823Y-148365605D01*
X251035096Y-148610274D01*
X251035098Y-148610286D01*
X251095369Y-148848291D01*
X251193994Y-149073131D01*
X251328279Y-149278671D01*
X251328282Y-149278674D01*
X251494569Y-149459310D01*
X251688319Y-149610112D01*
X251904249Y-149726968D01*
X252136467Y-149806688D01*
X252378639Y-149847100D01*
X252378640Y-149847100D01*
X252624160Y-149847100D01*
X252624161Y-149847100D01*
X252866333Y-149806688D01*
X253098551Y-149726968D01*
X253314481Y-149610112D01*
X253508231Y-149459310D01*
X253674518Y-149278674D01*
X253808805Y-149073132D01*
X253907430Y-148848291D01*
X253967702Y-148610283D01*
X253968752Y-148597615D01*
X253987977Y-148365605D01*
X253987977Y-148365594D01*
X253987977Y-148365593D01*
X256171785Y-148365593D01*
X256171785Y-148365606D01*
X256191008Y-148597607D01*
X256191010Y-148597615D01*
X256248162Y-148823302D01*
X256341680Y-149036502D01*
X256389021Y-149108963D01*
X257037439Y-148460547D01*
X257068882Y-148577892D01*
X257141290Y-148703308D01*
X257243692Y-148805710D01*
X257369108Y-148878118D01*
X257486451Y-148909560D01*
X256836314Y-149559697D01*
X256836314Y-149559699D01*
X257015153Y-149656483D01*
X257015171Y-149656490D01*
X257235357Y-149732080D01*
X257464995Y-149770400D01*
X257697805Y-149770400D01*
X257927442Y-149732080D01*
X258147634Y-149656488D01*
X258147636Y-149656487D01*
X258326484Y-149559699D01*
X258326484Y-149559697D01*
X257676349Y-148909560D01*
X257793692Y-148878118D01*
X257919108Y-148805710D01*
X258021510Y-148703308D01*
X258093918Y-148577892D01*
X258125360Y-148460548D01*
X258773776Y-149108964D01*
X258821116Y-149036506D01*
X258821121Y-149036498D01*
X258914637Y-148823302D01*
X258971789Y-148597615D01*
X258971791Y-148597607D01*
X258991015Y-148365606D01*
X258991015Y-148365593D01*
X258971791Y-148133592D01*
X258971789Y-148133584D01*
X258914637Y-147907897D01*
X258821120Y-147694700D01*
X258773776Y-147622234D01*
X258125360Y-148270650D01*
X258093918Y-148153308D01*
X258021510Y-148027892D01*
X257919108Y-147925490D01*
X257793692Y-147853082D01*
X257676348Y-147821639D01*
X258326484Y-147171501D01*
X258147637Y-147074712D01*
X258147631Y-147074710D01*
X257927442Y-146999119D01*
X257697805Y-146960800D01*
X257464995Y-146960800D01*
X257235357Y-146999119D01*
X257015168Y-147074710D01*
X257015162Y-147074712D01*
X256836314Y-147171501D01*
X257486452Y-147821639D01*
X257369108Y-147853082D01*
X257243692Y-147925490D01*
X257141290Y-148027892D01*
X257068882Y-148153308D01*
X257037439Y-148270651D01*
X256389022Y-147622235D01*
X256341680Y-147694698D01*
X256341678Y-147694702D01*
X256248162Y-147907897D01*
X256191010Y-148133584D01*
X256191008Y-148133592D01*
X256171785Y-148365593D01*
X253987977Y-148365593D01*
X253967703Y-148120925D01*
X253967701Y-148120913D01*
X253907430Y-147882908D01*
X253808805Y-147658068D01*
X253674520Y-147452528D01*
X253655610Y-147431987D01*
X253508231Y-147271890D01*
X253508226Y-147271886D01*
X253508224Y-147271884D01*
X253379251Y-147171501D01*
X253314481Y-147121088D01*
X253314480Y-147121087D01*
X253098552Y-147004232D01*
X253098547Y-147004230D01*
X252866335Y-146924512D01*
X252704885Y-146897570D01*
X252624161Y-146884100D01*
X252378639Y-146884100D01*
X252318096Y-146894203D01*
X252136464Y-146924512D01*
X251904252Y-147004230D01*
X251904247Y-147004232D01*
X251688319Y-147121087D01*
X251688315Y-147121091D01*
X251494575Y-147271884D01*
X251494572Y-147271887D01*
X251328279Y-147452528D01*
X251193994Y-147658068D01*
X251095369Y-147882908D01*
X251035098Y-148120913D01*
X251035096Y-148120925D01*
X251014823Y-148365594D01*
X247650000Y-148365594D01*
X247650000Y-120649996D01*
X269209115Y-120649996D01*
X269209115Y-120650003D01*
X269228992Y-120826425D01*
X269228993Y-120826431D01*
X269287634Y-120994019D01*
X269287635Y-120994020D01*
X269382098Y-121144356D01*
X269507644Y-121269902D01*
X269657980Y-121364365D01*
X269825566Y-121423006D01*
X269825572Y-121423006D01*
X269825574Y-121423007D01*
X270001996Y-121442885D01*
X270002000Y-121442885D01*
X270002004Y-121442885D01*
X270178425Y-121423007D01*
X270178424Y-121423007D01*
X270178434Y-121423006D01*
X270346020Y-121364365D01*
X270496356Y-121269902D01*
X270621902Y-121144356D01*
X270716365Y-120994020D01*
X270775006Y-120826434D01*
X270794885Y-120650000D01*
X270784468Y-120557548D01*
X270775007Y-120473574D01*
X270775006Y-120473568D01*
X270775006Y-120473566D01*
X270716365Y-120305980D01*
X270621902Y-120155644D01*
X270496356Y-120030098D01*
X270496355Y-120030097D01*
X270346019Y-119935634D01*
X270178431Y-119876993D01*
X270178425Y-119876992D01*
X270002004Y-119857115D01*
X270001996Y-119857115D01*
X269825574Y-119876992D01*
X269825568Y-119876993D01*
X269657980Y-119935634D01*
X269507644Y-120030097D01*
X269382097Y-120155644D01*
X269287634Y-120305980D01*
X269228993Y-120473568D01*
X269228992Y-120473574D01*
X269209115Y-120649996D01*
X247650000Y-120649996D01*
X247650000Y-113765374D01*
X247650000Y-113765367D01*
X247650000Y-113538000D01*
X247067035Y-112828303D01*
X273019115Y-112828303D01*
X273019115Y-112828310D01*
X273038992Y-113004732D01*
X273038993Y-113004738D01*
X273097634Y-113172326D01*
X273097635Y-113172327D01*
X273192098Y-113322663D01*
X273317644Y-113448209D01*
X273467980Y-113542672D01*
X273635566Y-113601313D01*
X273635572Y-113601313D01*
X273635574Y-113601314D01*
X273811996Y-113621192D01*
X273812000Y-113621192D01*
X273812004Y-113621192D01*
X273988425Y-113601314D01*
X273988424Y-113601314D01*
X273988434Y-113601313D01*
X274156020Y-113542672D01*
X274306356Y-113448209D01*
X274431902Y-113322663D01*
X274526365Y-113172327D01*
X274585006Y-113004741D01*
X274604885Y-112828307D01*
X274585006Y-112651873D01*
X274526365Y-112484287D01*
X274431902Y-112333951D01*
X274306356Y-112208405D01*
X274306355Y-112208404D01*
X274156019Y-112113941D01*
X273988431Y-112055300D01*
X273988425Y-112055299D01*
X273812004Y-112035422D01*
X273811996Y-112035422D01*
X273635574Y-112055299D01*
X273635568Y-112055300D01*
X273467980Y-112113941D01*
X273317644Y-112208404D01*
X273192097Y-112333951D01*
X273097634Y-112484287D01*
X273038993Y-112651875D01*
X273038992Y-112651881D01*
X273019115Y-112828303D01*
X247067035Y-112828303D01*
X246085175Y-111632996D01*
X274797115Y-111632996D01*
X274797115Y-111633003D01*
X274816992Y-111809425D01*
X274816993Y-111809431D01*
X274875634Y-111977019D01*
X274961669Y-112113941D01*
X274970098Y-112127356D01*
X275095644Y-112252902D01*
X275245980Y-112347365D01*
X275413566Y-112406006D01*
X275413572Y-112406006D01*
X275413574Y-112406007D01*
X275589996Y-112425885D01*
X275590000Y-112425885D01*
X275590004Y-112425885D01*
X275766425Y-112406007D01*
X275766424Y-112406007D01*
X275766434Y-112406006D01*
X275934020Y-112347365D01*
X276084356Y-112252902D01*
X276209902Y-112127356D01*
X276304365Y-111977020D01*
X276363006Y-111809434D01*
X276382885Y-111633000D01*
X276382885Y-111632996D01*
X279750115Y-111632996D01*
X279750115Y-111633003D01*
X279769992Y-111809425D01*
X279769993Y-111809431D01*
X279828634Y-111977019D01*
X279914669Y-112113941D01*
X279923098Y-112127356D01*
X280048644Y-112252902D01*
X280198980Y-112347365D01*
X280366566Y-112406006D01*
X280366572Y-112406006D01*
X280366574Y-112406007D01*
X280542996Y-112425885D01*
X280543000Y-112425885D01*
X280543004Y-112425885D01*
X280719425Y-112406007D01*
X280719424Y-112406007D01*
X280719434Y-112406006D01*
X280887020Y-112347365D01*
X281037356Y-112252902D01*
X281162902Y-112127356D01*
X281257365Y-111977020D01*
X281316006Y-111809434D01*
X281335885Y-111633000D01*
X281316006Y-111456566D01*
X281257365Y-111288980D01*
X281162902Y-111138644D01*
X281037356Y-111013098D01*
X281037355Y-111013097D01*
X280887019Y-110918634D01*
X280719431Y-110859993D01*
X280719425Y-110859992D01*
X280543004Y-110840115D01*
X280542996Y-110840115D01*
X280366574Y-110859992D01*
X280366568Y-110859993D01*
X280198980Y-110918634D01*
X280048644Y-111013097D01*
X279923097Y-111138644D01*
X279828634Y-111288980D01*
X279769993Y-111456568D01*
X279769992Y-111456574D01*
X279750115Y-111632996D01*
X276382885Y-111632996D01*
X276363006Y-111456566D01*
X276304365Y-111288980D01*
X276209902Y-111138644D01*
X276084356Y-111013098D01*
X276084355Y-111013097D01*
X275934019Y-110918634D01*
X275766431Y-110859993D01*
X275766425Y-110859992D01*
X275590004Y-110840115D01*
X275589996Y-110840115D01*
X275413574Y-110859992D01*
X275413568Y-110859993D01*
X275245980Y-110918634D01*
X275095644Y-111013097D01*
X274970097Y-111138644D01*
X274875634Y-111288980D01*
X274816993Y-111456568D01*
X274816992Y-111456574D01*
X274797115Y-111632996D01*
X246085175Y-111632996D01*
X245062825Y-110388396D01*
X271495115Y-110388396D01*
X271495115Y-110388403D01*
X271514992Y-110564825D01*
X271514993Y-110564831D01*
X271573634Y-110732419D01*
X271653796Y-110859994D01*
X271668098Y-110882756D01*
X271793644Y-111008302D01*
X271943980Y-111102765D01*
X272111566Y-111161406D01*
X272111572Y-111161406D01*
X272111574Y-111161407D01*
X272287996Y-111181285D01*
X272288000Y-111181285D01*
X272288004Y-111181285D01*
X272464425Y-111161407D01*
X272464424Y-111161407D01*
X272464434Y-111161406D01*
X272632020Y-111102765D01*
X272782356Y-111008302D01*
X272907902Y-110882756D01*
X273002365Y-110732420D01*
X273061006Y-110564834D01*
X273080885Y-110388400D01*
X273078022Y-110362991D01*
X273078021Y-110362984D01*
X276397319Y-110362984D01*
X276397319Y-110362991D01*
X276417196Y-110539413D01*
X276417197Y-110539419D01*
X276475838Y-110707007D01*
X276491812Y-110732428D01*
X276570302Y-110857344D01*
X276695848Y-110982890D01*
X276846184Y-111077353D01*
X277013770Y-111135994D01*
X277013776Y-111135994D01*
X277013778Y-111135995D01*
X277190200Y-111155873D01*
X277190204Y-111155873D01*
X277190208Y-111155873D01*
X277366629Y-111135995D01*
X277366628Y-111135995D01*
X277366638Y-111135994D01*
X277534224Y-111077353D01*
X277684560Y-110982890D01*
X277810106Y-110857344D01*
X277904569Y-110707008D01*
X277963210Y-110539422D01*
X277980225Y-110388408D01*
X277980225Y-110388404D01*
X281147123Y-110388404D01*
X281147123Y-110388411D01*
X281167000Y-110564833D01*
X281167001Y-110564839D01*
X281225642Y-110732427D01*
X281305799Y-110859994D01*
X281320106Y-110882764D01*
X281445652Y-111008310D01*
X281595988Y-111102773D01*
X281763574Y-111161414D01*
X281763580Y-111161414D01*
X281763582Y-111161415D01*
X281940004Y-111181293D01*
X281940008Y-111181293D01*
X281940012Y-111181293D01*
X282116433Y-111161415D01*
X282116432Y-111161415D01*
X282116442Y-111161414D01*
X282284028Y-111102773D01*
X282434364Y-111008310D01*
X282559910Y-110882764D01*
X282654373Y-110732428D01*
X282713014Y-110564842D01*
X282732893Y-110388408D01*
X282732892Y-110388403D01*
X282713015Y-110211982D01*
X282713014Y-110211976D01*
X282713014Y-110211974D01*
X282654373Y-110044388D01*
X282559910Y-109894052D01*
X282434364Y-109768506D01*
X282434363Y-109768505D01*
X282284027Y-109674042D01*
X282116439Y-109615401D01*
X282116433Y-109615400D01*
X281940012Y-109595523D01*
X281940004Y-109595523D01*
X281763582Y-109615400D01*
X281763576Y-109615401D01*
X281595988Y-109674042D01*
X281445652Y-109768505D01*
X281320105Y-109894052D01*
X281225642Y-110044388D01*
X281167001Y-110211976D01*
X281167000Y-110211982D01*
X281147123Y-110388404D01*
X277980225Y-110388404D01*
X277983089Y-110362991D01*
X277983089Y-110362984D01*
X277963211Y-110186562D01*
X277963210Y-110186556D01*
X277963210Y-110186554D01*
X277904569Y-110018968D01*
X277810106Y-109868632D01*
X277684560Y-109743086D01*
X277684559Y-109743085D01*
X277534223Y-109648622D01*
X277366635Y-109589981D01*
X277366629Y-109589980D01*
X277190208Y-109570103D01*
X277190200Y-109570103D01*
X277013778Y-109589980D01*
X277013772Y-109589981D01*
X276846184Y-109648622D01*
X276695848Y-109743085D01*
X276570301Y-109868632D01*
X276475838Y-110018968D01*
X276417197Y-110186556D01*
X276417196Y-110186562D01*
X276397319Y-110362984D01*
X273078021Y-110362984D01*
X273061007Y-110211974D01*
X273061006Y-110211968D01*
X273061006Y-110211966D01*
X273002365Y-110044380D01*
X272907902Y-109894044D01*
X272782356Y-109768498D01*
X272782355Y-109768497D01*
X272632019Y-109674034D01*
X272464431Y-109615393D01*
X272464425Y-109615392D01*
X272288004Y-109595515D01*
X272287996Y-109595515D01*
X272111574Y-109615392D01*
X272111568Y-109615393D01*
X271943980Y-109674034D01*
X271793644Y-109768497D01*
X271668097Y-109894044D01*
X271573634Y-110044380D01*
X271514993Y-110211968D01*
X271514992Y-110211974D01*
X271495115Y-110388396D01*
X245062825Y-110388396D01*
X243977882Y-109067596D01*
X274797115Y-109067596D01*
X274797115Y-109067603D01*
X274816992Y-109244025D01*
X274816993Y-109244031D01*
X274875634Y-109411619D01*
X274875635Y-109411620D01*
X274970098Y-109561956D01*
X275095644Y-109687502D01*
X275245980Y-109781965D01*
X275413566Y-109840606D01*
X275413572Y-109840606D01*
X275413574Y-109840607D01*
X275589996Y-109860485D01*
X275590000Y-109860485D01*
X275590004Y-109860485D01*
X275766425Y-109840607D01*
X275766424Y-109840607D01*
X275766434Y-109840606D01*
X275934020Y-109781965D01*
X276084356Y-109687502D01*
X276209902Y-109561956D01*
X276304365Y-109411620D01*
X276363006Y-109244034D01*
X276380024Y-109092996D01*
X279750149Y-109092996D01*
X279750149Y-109093003D01*
X279770026Y-109269425D01*
X279770027Y-109269431D01*
X279828668Y-109437019D01*
X279828669Y-109437020D01*
X279923132Y-109587356D01*
X280048678Y-109712902D01*
X280199014Y-109807365D01*
X280366600Y-109866006D01*
X280366606Y-109866006D01*
X280366608Y-109866007D01*
X280543030Y-109885885D01*
X280543034Y-109885885D01*
X280543038Y-109885885D01*
X280719459Y-109866007D01*
X280719458Y-109866007D01*
X280719468Y-109866006D01*
X280887054Y-109807365D01*
X281037390Y-109712902D01*
X281162936Y-109587356D01*
X281257399Y-109437020D01*
X281316040Y-109269434D01*
X281335919Y-109093000D01*
X281333057Y-109067603D01*
X281316041Y-108916574D01*
X281316040Y-108916568D01*
X281316040Y-108916566D01*
X281257399Y-108748980D01*
X281162936Y-108598644D01*
X281037390Y-108473098D01*
X281037389Y-108473097D01*
X280887053Y-108378634D01*
X280719465Y-108319993D01*
X280719459Y-108319992D01*
X280543038Y-108300115D01*
X280543030Y-108300115D01*
X280366608Y-108319992D01*
X280366602Y-108319993D01*
X280199014Y-108378634D01*
X280048678Y-108473097D01*
X279923131Y-108598644D01*
X279828668Y-108748980D01*
X279770027Y-108916568D01*
X279770026Y-108916574D01*
X279750149Y-109092996D01*
X276380024Y-109092996D01*
X276382885Y-109067600D01*
X276363006Y-108891166D01*
X276304365Y-108723580D01*
X276209902Y-108573244D01*
X276084356Y-108447698D01*
X276084355Y-108447697D01*
X275934019Y-108353234D01*
X275766431Y-108294593D01*
X275766425Y-108294592D01*
X275590004Y-108274715D01*
X275589996Y-108274715D01*
X275413574Y-108294592D01*
X275413568Y-108294593D01*
X275245980Y-108353234D01*
X275095644Y-108447697D01*
X274970097Y-108573244D01*
X274875634Y-108723580D01*
X274816993Y-108891168D01*
X274816992Y-108891174D01*
X274797115Y-109067596D01*
X243977882Y-109067596D01*
X239304286Y-103378000D01*
X236842300Y-100380800D01*
X263588500Y-100380800D01*
X263588500Y-106933999D01*
X263592158Y-106971158D01*
X263592160Y-106971164D01*
X263620605Y-107039837D01*
X263673162Y-107092394D01*
X263673163Y-107092394D01*
X263673164Y-107092395D01*
X263741835Y-107120840D01*
X263741839Y-107120840D01*
X263741841Y-107120841D01*
X263771791Y-107123790D01*
X263779000Y-107124500D01*
X271598280Y-107124500D01*
X271665319Y-107144185D01*
X271711074Y-107196989D01*
X271721018Y-107266147D01*
X271691993Y-107329703D01*
X271685961Y-107336181D01*
X271668097Y-107354044D01*
X271573634Y-107504380D01*
X271514993Y-107671968D01*
X271514992Y-107671974D01*
X271495115Y-107848396D01*
X271495115Y-107848403D01*
X271514992Y-108024825D01*
X271514993Y-108024831D01*
X271573634Y-108192419D01*
X271653796Y-108319994D01*
X271668098Y-108342756D01*
X271793644Y-108468302D01*
X271943980Y-108562765D01*
X272111566Y-108621406D01*
X272111572Y-108621406D01*
X272111574Y-108621407D01*
X272287996Y-108641285D01*
X272288000Y-108641285D01*
X272288004Y-108641285D01*
X272464425Y-108621407D01*
X272464424Y-108621407D01*
X272464434Y-108621406D01*
X272632020Y-108562765D01*
X272782356Y-108468302D01*
X272907902Y-108342756D01*
X273002365Y-108192420D01*
X273061006Y-108024834D01*
X273080885Y-107848400D01*
X273061006Y-107671966D01*
X273002365Y-107504380D01*
X272907902Y-107354044D01*
X272890039Y-107336181D01*
X272856554Y-107274858D01*
X272861538Y-107205166D01*
X272903410Y-107149233D01*
X272968874Y-107124816D01*
X272977720Y-107124500D01*
X283206522Y-107124500D01*
X283206523Y-107124500D01*
X283215466Y-107123619D01*
X283243681Y-107120841D01*
X283243682Y-107120840D01*
X283243688Y-107120840D01*
X283312359Y-107092395D01*
X283364918Y-107039836D01*
X283393363Y-106971165D01*
X283397023Y-106934000D01*
X283396828Y-106756176D01*
X283413200Y-106756200D01*
X287934400Y-104241600D01*
X287948312Y-103441623D01*
X288303461Y-103796772D01*
X288303462Y-103796771D01*
X288315980Y-103778897D01*
X288315981Y-103778894D01*
X288412469Y-103571974D01*
X288412473Y-103571965D01*
X288471560Y-103351447D01*
X288471562Y-103351437D01*
X288491461Y-103124000D01*
X288491461Y-103123999D01*
X288471562Y-102896562D01*
X288471560Y-102896552D01*
X288412473Y-102676034D01*
X288412469Y-102676025D01*
X288315984Y-102469109D01*
X288303461Y-102451227D01*
X287959555Y-102795132D01*
X287971857Y-102087794D01*
X290800177Y-102087794D01*
X290800177Y-104160206D01*
X290810981Y-104234361D01*
X290810981Y-104234362D01*
X290810982Y-104234364D01*
X290866898Y-104348743D01*
X290866900Y-104348746D01*
X290956930Y-104438776D01*
X290956933Y-104438778D01*
X291066540Y-104492361D01*
X291071316Y-104494696D01*
X291145471Y-104505500D01*
X291145477Y-104505500D01*
X293217877Y-104505500D01*
X293217883Y-104505500D01*
X293292038Y-104494696D01*
X293349230Y-104466736D01*
X293406420Y-104438778D01*
X293406423Y-104438776D01*
X293496453Y-104348746D01*
X293496455Y-104348743D01*
X293546788Y-104245785D01*
X293552373Y-104234361D01*
X293563177Y-104160206D01*
X293563177Y-102087794D01*
X293552373Y-102013639D01*
X293540667Y-101989694D01*
X293496455Y-101899256D01*
X293496453Y-101899253D01*
X293406423Y-101809223D01*
X293406420Y-101809221D01*
X293292041Y-101753305D01*
X293292039Y-101753304D01*
X293292038Y-101753304D01*
X293217883Y-101742500D01*
X291145471Y-101742500D01*
X291071316Y-101753304D01*
X291071314Y-101753304D01*
X291071312Y-101753305D01*
X290956933Y-101809221D01*
X290956930Y-101809223D01*
X290866900Y-101899253D01*
X290866898Y-101899256D01*
X290810982Y-102013635D01*
X290810981Y-102013637D01*
X290810981Y-102013639D01*
X290800177Y-102087794D01*
X287971857Y-102087794D01*
X288036000Y-98399600D01*
X268071600Y-98348800D01*
X268071600Y-93167200D01*
X265836400Y-93218000D01*
X265836400Y-106730800D01*
X274624800Y-106743500D01*
X264093500Y-106743500D01*
X264026461Y-106723815D01*
X263980706Y-106671011D01*
X263969500Y-106619500D01*
X263969500Y-100380800D01*
X263965841Y-100343641D01*
X263965840Y-100343639D01*
X263965840Y-100343635D01*
X263937395Y-100274964D01*
X263937394Y-100274963D01*
X263937394Y-100274962D01*
X263884838Y-100222406D01*
X263816165Y-100193960D01*
X263741835Y-100193960D01*
X263741834Y-100193960D01*
X263673161Y-100222406D01*
X263620605Y-100274962D01*
X263592160Y-100343635D01*
X263592158Y-100343641D01*
X263588500Y-100380800D01*
X236842300Y-100380800D01*
X236114830Y-99495184D01*
X236106461Y-99483714D01*
X236039309Y-99379649D01*
X236026758Y-99354217D01*
X235987421Y-99244356D01*
X235980977Y-99216736D01*
X235966814Y-99093703D01*
X235966000Y-99079522D01*
X235966000Y-98454229D01*
X257284781Y-98454229D01*
X257284781Y-98454230D01*
X257315435Y-98473211D01*
X257315442Y-98473214D01*
X257506359Y-98547175D01*
X257506364Y-98547176D01*
X257707627Y-98584800D01*
X257912373Y-98584800D01*
X258113635Y-98547176D01*
X258113636Y-98547176D01*
X258304562Y-98473211D01*
X258335218Y-98454229D01*
X257810001Y-97929012D01*
X257810000Y-97929012D01*
X257284781Y-98454229D01*
X235966000Y-98454229D01*
X235966000Y-97479999D01*
X256700467Y-97479999D01*
X256700467Y-97480000D01*
X256719358Y-97683871D01*
X256775392Y-97880813D01*
X256836816Y-98004169D01*
X256836817Y-98004169D01*
X257360987Y-97480000D01*
X257360987Y-97479999D01*
X257308327Y-97427339D01*
X257410000Y-97427339D01*
X257410000Y-97532661D01*
X257437259Y-97634394D01*
X257489920Y-97725606D01*
X257564394Y-97800080D01*
X257655606Y-97852741D01*
X257757339Y-97880000D01*
X257862661Y-97880000D01*
X257964394Y-97852741D01*
X258055606Y-97800080D01*
X258130080Y-97725606D01*
X258182741Y-97634394D01*
X258210000Y-97532661D01*
X258210000Y-97480000D01*
X258259012Y-97480000D01*
X258783181Y-98004168D01*
X258783182Y-98004168D01*
X258844609Y-97880808D01*
X258900641Y-97683871D01*
X258919533Y-97480000D01*
X258919533Y-97479999D01*
X258900641Y-97276128D01*
X258844609Y-97079191D01*
X258783181Y-96955830D01*
X258259012Y-97480000D01*
X258210000Y-97480000D01*
X258210000Y-97427339D01*
X258182741Y-97325606D01*
X258130080Y-97234394D01*
X258055606Y-97159920D01*
X257964394Y-97107259D01*
X257862661Y-97080000D01*
X257757339Y-97080000D01*
X257655606Y-97107259D01*
X257564394Y-97159920D01*
X257489920Y-97234394D01*
X257437259Y-97325606D01*
X257410000Y-97427339D01*
X257308327Y-97427339D01*
X256836816Y-96955829D01*
X256775392Y-97079186D01*
X256719358Y-97276128D01*
X256700467Y-97479999D01*
X235966000Y-97479999D01*
X235966000Y-96505768D01*
X257284781Y-96505768D01*
X257284781Y-96505770D01*
X257810000Y-97030987D01*
X257810001Y-97030987D01*
X258335218Y-96505769D01*
X258304559Y-96486786D01*
X258304555Y-96486784D01*
X258113640Y-96412824D01*
X258113635Y-96412823D01*
X257912373Y-96375200D01*
X257707627Y-96375200D01*
X257506364Y-96412823D01*
X257506363Y-96412823D01*
X257315436Y-96486788D01*
X257284781Y-96505768D01*
X235966000Y-96505768D01*
X235966000Y-93143794D01*
X256628500Y-93143794D01*
X256628500Y-94816206D01*
X256639304Y-94890361D01*
X256639304Y-94890362D01*
X256639305Y-94890364D01*
X256695221Y-95004743D01*
X256695223Y-95004746D01*
X256785253Y-95094776D01*
X256785256Y-95094778D01*
X256894863Y-95148361D01*
X256899639Y-95150696D01*
X256973794Y-95161500D01*
X256973800Y-95161500D01*
X258646200Y-95161500D01*
X258646206Y-95161500D01*
X258720361Y-95150696D01*
X258777553Y-95122736D01*
X258834743Y-95094778D01*
X258834746Y-95094776D01*
X258924776Y-95004746D01*
X258924778Y-95004743D01*
X258952736Y-94947553D01*
X258980696Y-94890361D01*
X258991500Y-94816206D01*
X258991500Y-93143794D01*
X258980696Y-93069639D01*
X258956899Y-93020961D01*
X258924778Y-92955256D01*
X258924776Y-92955253D01*
X258834746Y-92865223D01*
X258834743Y-92865221D01*
X258720364Y-92809305D01*
X258720362Y-92809304D01*
X258720361Y-92809304D01*
X258646206Y-92798500D01*
X256973794Y-92798500D01*
X256899639Y-92809304D01*
X256899637Y-92809304D01*
X256899635Y-92809305D01*
X256785256Y-92865221D01*
X256785253Y-92865223D01*
X256695223Y-92955253D01*
X256695221Y-92955256D01*
X256639305Y-93069635D01*
X256639304Y-93069637D01*
X256639304Y-93069639D01*
X256628500Y-93143794D01*
X235966000Y-93143794D01*
X235966000Y-91947996D01*
X260573115Y-91947996D01*
X260573115Y-91948000D01*
X260592992Y-92124425D01*
X260592993Y-92124431D01*
X260651634Y-92292019D01*
X260651635Y-92292020D01*
X260746098Y-92442356D01*
X260871644Y-92567902D01*
X261021980Y-92662365D01*
X261189566Y-92721006D01*
X261189572Y-92721006D01*
X261189574Y-92721007D01*
X261365996Y-92740885D01*
X261366000Y-92740885D01*
X261366004Y-92740885D01*
X261542425Y-92721007D01*
X261542424Y-92721007D01*
X261542434Y-92721006D01*
X261710020Y-92662365D01*
X261860356Y-92567902D01*
X261985902Y-92442356D01*
X262080365Y-92292020D01*
X262139006Y-92124434D01*
X262158885Y-91948000D01*
X262157622Y-91936794D01*
X262139007Y-91771574D01*
X262139006Y-91771568D01*
X262139006Y-91771566D01*
X262080365Y-91603980D01*
X261985902Y-91453644D01*
X261860356Y-91328098D01*
X261860355Y-91328097D01*
X261710019Y-91233634D01*
X261542431Y-91174993D01*
X261542425Y-91174992D01*
X261366004Y-91155115D01*
X261365996Y-91155115D01*
X261189574Y-91174992D01*
X261189568Y-91174993D01*
X261021980Y-91233634D01*
X260871644Y-91328097D01*
X260746097Y-91453644D01*
X260651634Y-91603980D01*
X260592993Y-91771568D01*
X260592992Y-91771574D01*
X260573115Y-91947996D01*
X235966000Y-91947996D01*
X235966000Y-90594197D01*
X237929292Y-90594197D01*
X237929292Y-90594202D01*
X237935429Y-90664356D01*
X237948086Y-90809022D01*
X238002870Y-91013477D01*
X238003900Y-91017319D01*
X238095032Y-91212752D01*
X238095033Y-91212754D01*
X238218721Y-91389400D01*
X238371199Y-91541878D01*
X238371202Y-91541880D01*
X238547846Y-91665567D01*
X238743284Y-91756701D01*
X238951578Y-91812514D01*
X239105022Y-91825938D01*
X239166398Y-91831308D01*
X239166400Y-91831308D01*
X239166402Y-91831308D01*
X239220105Y-91826609D01*
X239381222Y-91812514D01*
X239589516Y-91756701D01*
X239784954Y-91665567D01*
X239961598Y-91541880D01*
X240114080Y-91389398D01*
X240237767Y-91212754D01*
X240328901Y-91017316D01*
X240384714Y-90809022D01*
X240403508Y-90594200D01*
X240403508Y-90594199D01*
X243005749Y-90594199D01*
X243005749Y-90594200D01*
X243025510Y-90807468D01*
X243025511Y-90807470D01*
X243084123Y-91013471D01*
X243084128Y-91013482D01*
X243155256Y-91156328D01*
X243155258Y-91156328D01*
X243584145Y-90727441D01*
X243610177Y-90824595D01*
X243688761Y-90960705D01*
X243799895Y-91071839D01*
X243936005Y-91150423D01*
X244033157Y-91176454D01*
X243604207Y-91605403D01*
X243604207Y-91605404D01*
X243649047Y-91633168D01*
X243848775Y-91710543D01*
X244059311Y-91749900D01*
X244273489Y-91749900D01*
X244484024Y-91710543D01*
X244484025Y-91710543D01*
X244683748Y-91633170D01*
X244728592Y-91605403D01*
X244299643Y-91176454D01*
X244396795Y-91150423D01*
X244532905Y-91071839D01*
X244644039Y-90960705D01*
X244722623Y-90824595D01*
X244748654Y-90727442D01*
X245177540Y-91156328D01*
X245177541Y-91156328D01*
X245248673Y-91013477D01*
X245248676Y-91013471D01*
X245307288Y-90807470D01*
X245307289Y-90807468D01*
X245327051Y-90594200D01*
X245327051Y-90594199D01*
X245307289Y-90380931D01*
X245307288Y-90380929D01*
X245248676Y-90174928D01*
X245248673Y-90174922D01*
X245246220Y-90169996D01*
X261589115Y-90169996D01*
X261589115Y-90170003D01*
X261608992Y-90346425D01*
X261608993Y-90346431D01*
X261667634Y-90514019D01*
X261718016Y-90594200D01*
X261762098Y-90664356D01*
X261887644Y-90789902D01*
X262037980Y-90884365D01*
X262205566Y-90943006D01*
X262205572Y-90943006D01*
X262205574Y-90943007D01*
X262381996Y-90962885D01*
X262382000Y-90962885D01*
X262382004Y-90962885D01*
X262558425Y-90943007D01*
X262558424Y-90943007D01*
X262558434Y-90943006D01*
X262726020Y-90884365D01*
X262876356Y-90789902D01*
X263001902Y-90664356D01*
X263096365Y-90514020D01*
X263155006Y-90346434D01*
X263155799Y-90339389D01*
X263174885Y-90170003D01*
X263174885Y-90169996D01*
X263155007Y-89993574D01*
X263155006Y-89993568D01*
X263155006Y-89993566D01*
X263096365Y-89825980D01*
X263001902Y-89675644D01*
X262876356Y-89550098D01*
X262876355Y-89550097D01*
X262726019Y-89455634D01*
X262558431Y-89396993D01*
X262558425Y-89396992D01*
X262382004Y-89377115D01*
X262381996Y-89377115D01*
X262205574Y-89396992D01*
X262205568Y-89396993D01*
X262037980Y-89455634D01*
X261887644Y-89550097D01*
X261762097Y-89675644D01*
X261667634Y-89825980D01*
X261608993Y-89993568D01*
X261608992Y-89993574D01*
X261589115Y-90169996D01*
X245246220Y-90169996D01*
X245177540Y-90032070D01*
X244748654Y-90460956D01*
X244722623Y-90363805D01*
X244644039Y-90227695D01*
X244532905Y-90116561D01*
X244396795Y-90037977D01*
X244299642Y-90011945D01*
X244728592Y-89582995D01*
X244683747Y-89555228D01*
X244683743Y-89555226D01*
X244484029Y-89477857D01*
X244484024Y-89477856D01*
X244273489Y-89438500D01*
X244059311Y-89438500D01*
X243848775Y-89477856D01*
X243848770Y-89477857D01*
X243649058Y-89555225D01*
X243649052Y-89555228D01*
X243604206Y-89582994D01*
X243604206Y-89582995D01*
X244033158Y-90011945D01*
X243936005Y-90037977D01*
X243799895Y-90116561D01*
X243688761Y-90227695D01*
X243610177Y-90363805D01*
X243584145Y-90460957D01*
X243155257Y-90032069D01*
X243084125Y-90174922D01*
X243084122Y-90174928D01*
X243025511Y-90380928D01*
X243025510Y-90380931D01*
X243005749Y-90594199D01*
X240403508Y-90594199D01*
X240401049Y-90566098D01*
X240387655Y-90412993D01*
X240384714Y-90379378D01*
X240328901Y-90171084D01*
X240237767Y-89975646D01*
X240114080Y-89799002D01*
X240114078Y-89798999D01*
X239961600Y-89646521D01*
X239784954Y-89522833D01*
X239784952Y-89522832D01*
X239589519Y-89431700D01*
X239589516Y-89431699D01*
X239459997Y-89396994D01*
X239381223Y-89375886D01*
X239381216Y-89375885D01*
X239166402Y-89357092D01*
X239166398Y-89357092D01*
X238951583Y-89375885D01*
X238951576Y-89375886D01*
X238743280Y-89431700D01*
X238547847Y-89522832D01*
X238547845Y-89522833D01*
X238371199Y-89646521D01*
X238218721Y-89798999D01*
X238095033Y-89975645D01*
X238095032Y-89975647D01*
X238003900Y-90171080D01*
X237948086Y-90379376D01*
X237948085Y-90379383D01*
X237929292Y-90594197D01*
X235966000Y-90594197D01*
X235966000Y-89259429D01*
X257284781Y-89259429D01*
X257284781Y-89259430D01*
X257315435Y-89278411D01*
X257315442Y-89278414D01*
X257506359Y-89352375D01*
X257506364Y-89352376D01*
X257707627Y-89390000D01*
X257912373Y-89390000D01*
X258113635Y-89352376D01*
X258113636Y-89352376D01*
X258304562Y-89278411D01*
X258335218Y-89259429D01*
X257810001Y-88734212D01*
X257810000Y-88734212D01*
X257284781Y-89259429D01*
X235966000Y-89259429D01*
X235966000Y-88285199D01*
X256700467Y-88285199D01*
X256700467Y-88285200D01*
X256719358Y-88489071D01*
X256775392Y-88686013D01*
X256836816Y-88809369D01*
X256836817Y-88809369D01*
X257360987Y-88285200D01*
X257360987Y-88285199D01*
X257308327Y-88232539D01*
X257410000Y-88232539D01*
X257410000Y-88337861D01*
X257437259Y-88439594D01*
X257489920Y-88530806D01*
X257564394Y-88605280D01*
X257655606Y-88657941D01*
X257757339Y-88685200D01*
X257862661Y-88685200D01*
X257964394Y-88657941D01*
X258055606Y-88605280D01*
X258130080Y-88530806D01*
X258182741Y-88439594D01*
X258210000Y-88337861D01*
X258210000Y-88285200D01*
X258259012Y-88285200D01*
X258783181Y-88809368D01*
X258783182Y-88809368D01*
X258844609Y-88686008D01*
X258900641Y-88489071D01*
X258909637Y-88391996D01*
X260573115Y-88391996D01*
X260573115Y-88392003D01*
X260592992Y-88568425D01*
X260592993Y-88568431D01*
X260651634Y-88736019D01*
X260697724Y-88809369D01*
X260746098Y-88886356D01*
X260871644Y-89011902D01*
X261021980Y-89106365D01*
X261189566Y-89165006D01*
X261189572Y-89165006D01*
X261189574Y-89165007D01*
X261365996Y-89184885D01*
X261366000Y-89184885D01*
X261366004Y-89184885D01*
X261542425Y-89165007D01*
X261542424Y-89165007D01*
X261542434Y-89165006D01*
X261710020Y-89106365D01*
X261860356Y-89011902D01*
X261985902Y-88886356D01*
X262080365Y-88736020D01*
X262139006Y-88568434D01*
X262158885Y-88392000D01*
X262155405Y-88361115D01*
X262139007Y-88215574D01*
X262139006Y-88215568D01*
X262139006Y-88215566D01*
X262080365Y-88047980D01*
X261985902Y-87897644D01*
X261860356Y-87772098D01*
X261860355Y-87772097D01*
X261710019Y-87677634D01*
X261542431Y-87618993D01*
X261542425Y-87618992D01*
X261366004Y-87599115D01*
X261365996Y-87599115D01*
X261189574Y-87618992D01*
X261189568Y-87618993D01*
X261021980Y-87677634D01*
X260871644Y-87772097D01*
X260746097Y-87897644D01*
X260651634Y-88047980D01*
X260592993Y-88215568D01*
X260592992Y-88215574D01*
X260573115Y-88391996D01*
X258909637Y-88391996D01*
X258919533Y-88285200D01*
X258919533Y-88285199D01*
X258900641Y-88081328D01*
X258844609Y-87884391D01*
X258783181Y-87761030D01*
X258259012Y-88285200D01*
X258210000Y-88285200D01*
X258210000Y-88232539D01*
X258182741Y-88130806D01*
X258130080Y-88039594D01*
X258055606Y-87965120D01*
X257964394Y-87912459D01*
X257862661Y-87885200D01*
X257757339Y-87885200D01*
X257655606Y-87912459D01*
X257564394Y-87965120D01*
X257489920Y-88039594D01*
X257437259Y-88130806D01*
X257410000Y-88232539D01*
X257308327Y-88232539D01*
X256836816Y-87761029D01*
X256775392Y-87884386D01*
X256719358Y-88081328D01*
X256700467Y-88285199D01*
X235966000Y-88285199D01*
X235966000Y-87310968D01*
X257284781Y-87310968D01*
X257284781Y-87310970D01*
X257810000Y-87836187D01*
X257810001Y-87836187D01*
X258335218Y-87310969D01*
X258304559Y-87291986D01*
X258304555Y-87291984D01*
X258113640Y-87218024D01*
X258113635Y-87218023D01*
X257912373Y-87180400D01*
X257707627Y-87180400D01*
X257506364Y-87218023D01*
X257506363Y-87218023D01*
X257315436Y-87291988D01*
X257284781Y-87310968D01*
X235966000Y-87310968D01*
X235966000Y-85594197D01*
X237929292Y-85594197D01*
X237929292Y-85594202D01*
X237948085Y-85809016D01*
X237948086Y-85809023D01*
X237951326Y-85821115D01*
X238002870Y-86013477D01*
X238003900Y-86017319D01*
X238095032Y-86212752D01*
X238095033Y-86212754D01*
X238218721Y-86389400D01*
X238371199Y-86541878D01*
X238371202Y-86541880D01*
X238547846Y-86665567D01*
X238743284Y-86756701D01*
X238951578Y-86812514D01*
X239105022Y-86825938D01*
X239166398Y-86831308D01*
X239166400Y-86831308D01*
X239166402Y-86831308D01*
X239220105Y-86826609D01*
X239381222Y-86812514D01*
X239589516Y-86756701D01*
X239784954Y-86665567D01*
X239961598Y-86541880D01*
X240114080Y-86389398D01*
X240237767Y-86212754D01*
X240328901Y-86017316D01*
X240384714Y-85809022D01*
X240403508Y-85594200D01*
X240403508Y-85594199D01*
X243005749Y-85594199D01*
X243005749Y-85594200D01*
X243025510Y-85807468D01*
X243025511Y-85807470D01*
X243084123Y-86013471D01*
X243084128Y-86013482D01*
X243155256Y-86156328D01*
X243155258Y-86156328D01*
X243584145Y-85727441D01*
X243610177Y-85824595D01*
X243688761Y-85960705D01*
X243799895Y-86071839D01*
X243936005Y-86150423D01*
X244033157Y-86176454D01*
X243604207Y-86605403D01*
X243604207Y-86605404D01*
X243649047Y-86633168D01*
X243848775Y-86710543D01*
X244059311Y-86749900D01*
X244273489Y-86749900D01*
X244484024Y-86710543D01*
X244484025Y-86710543D01*
X244683748Y-86633170D01*
X244714714Y-86613996D01*
X261589115Y-86613996D01*
X261589115Y-86614003D01*
X261608992Y-86790425D01*
X261608993Y-86790431D01*
X261667634Y-86958019D01*
X261667635Y-86958020D01*
X261762098Y-87108356D01*
X261887644Y-87233902D01*
X262037980Y-87328365D01*
X262205566Y-87387006D01*
X262205572Y-87387006D01*
X262205574Y-87387007D01*
X262381996Y-87406885D01*
X262382000Y-87406885D01*
X262382004Y-87406885D01*
X262558425Y-87387007D01*
X262558424Y-87387007D01*
X262558434Y-87387006D01*
X262726020Y-87328365D01*
X262876356Y-87233902D01*
X263001902Y-87108356D01*
X263096365Y-86958020D01*
X263155006Y-86790434D01*
X263159573Y-86749900D01*
X263174885Y-86614003D01*
X263174885Y-86613996D01*
X263155007Y-86437574D01*
X263155006Y-86437568D01*
X263155006Y-86437566D01*
X263127864Y-86360000D01*
X280803000Y-86360000D01*
X283981000Y-86360000D01*
X284048039Y-86379685D01*
X284093794Y-86432489D01*
X284105000Y-86484000D01*
X284105000Y-91824000D01*
X284085315Y-91891039D01*
X284032511Y-91936794D01*
X283981000Y-91948000D01*
X280803000Y-91948000D01*
X280803000Y-96266000D01*
X285121000Y-96266000D01*
X285121000Y-93088000D01*
X285140685Y-93020961D01*
X285193489Y-92975206D01*
X285245000Y-92964000D01*
X290585000Y-92964000D01*
X290652039Y-92983685D01*
X290697794Y-93036489D01*
X290709000Y-93088000D01*
X290709000Y-96266000D01*
X295027000Y-96266000D01*
X295027000Y-91948000D01*
X291849000Y-91948000D01*
X291781961Y-91928315D01*
X291736206Y-91875511D01*
X291725000Y-91824000D01*
X291725000Y-91185996D01*
X295117115Y-91185996D01*
X295117115Y-91186003D01*
X295136992Y-91362425D01*
X295136993Y-91362431D01*
X295195634Y-91530019D01*
X295280805Y-91665566D01*
X295290098Y-91680356D01*
X295415644Y-91805902D01*
X295565980Y-91900365D01*
X295733566Y-91959006D01*
X295733572Y-91959006D01*
X295733574Y-91959007D01*
X295909996Y-91978885D01*
X295910000Y-91978885D01*
X295910004Y-91978885D01*
X296086425Y-91959007D01*
X296086424Y-91959007D01*
X296086434Y-91959006D01*
X296254020Y-91900365D01*
X296404356Y-91805902D01*
X296529902Y-91680356D01*
X296624365Y-91530020D01*
X296683006Y-91362434D01*
X296699871Y-91212752D01*
X296702885Y-91186003D01*
X296702885Y-91185996D01*
X296683007Y-91009574D01*
X296683006Y-91009568D01*
X296683006Y-91009566D01*
X296624365Y-90841980D01*
X296529902Y-90691644D01*
X296404356Y-90566098D01*
X296404355Y-90566097D01*
X296254019Y-90471634D01*
X296086431Y-90412993D01*
X296086425Y-90412992D01*
X295910004Y-90393115D01*
X295909996Y-90393115D01*
X295733574Y-90412992D01*
X295733568Y-90412993D01*
X295565980Y-90471634D01*
X295415644Y-90566097D01*
X295290097Y-90691644D01*
X295195634Y-90841980D01*
X295136993Y-91009568D01*
X295136992Y-91009574D01*
X295117115Y-91185996D01*
X291725000Y-91185996D01*
X291725000Y-89153996D01*
X295117115Y-89153996D01*
X295117115Y-89154003D01*
X295136992Y-89330425D01*
X295136993Y-89330431D01*
X295195634Y-89498019D01*
X295249029Y-89582995D01*
X295290098Y-89648356D01*
X295415644Y-89773902D01*
X295565980Y-89868365D01*
X295733566Y-89927006D01*
X295733572Y-89927006D01*
X295733574Y-89927007D01*
X295909996Y-89946885D01*
X295910000Y-89946885D01*
X295910004Y-89946885D01*
X296086425Y-89927007D01*
X296086424Y-89927007D01*
X296086434Y-89927006D01*
X296254020Y-89868365D01*
X296404356Y-89773902D01*
X296529902Y-89648356D01*
X296624365Y-89498020D01*
X296683006Y-89330434D01*
X296688867Y-89278414D01*
X296702885Y-89154003D01*
X296702885Y-89153996D01*
X296683007Y-88977574D01*
X296683006Y-88977568D01*
X296683006Y-88977566D01*
X296624365Y-88809980D01*
X296529902Y-88659644D01*
X296404356Y-88534098D01*
X296404355Y-88534097D01*
X296254019Y-88439634D01*
X296086431Y-88380993D01*
X296086425Y-88380992D01*
X295910004Y-88361115D01*
X295909996Y-88361115D01*
X295733574Y-88380992D01*
X295733568Y-88380993D01*
X295565980Y-88439634D01*
X295415644Y-88534097D01*
X295290097Y-88659644D01*
X295195634Y-88809980D01*
X295136993Y-88977568D01*
X295136992Y-88977574D01*
X295117115Y-89153996D01*
X291725000Y-89153996D01*
X291725000Y-87121996D01*
X295117115Y-87121996D01*
X295117115Y-87122003D01*
X295136992Y-87298425D01*
X295136993Y-87298431D01*
X295195634Y-87466019D01*
X295279265Y-87599115D01*
X295290098Y-87616356D01*
X295415644Y-87741902D01*
X295565980Y-87836365D01*
X295733566Y-87895006D01*
X295733572Y-87895006D01*
X295733574Y-87895007D01*
X295909996Y-87914885D01*
X295910000Y-87914885D01*
X295910004Y-87914885D01*
X296086425Y-87895007D01*
X296086424Y-87895007D01*
X296086434Y-87895006D01*
X296254020Y-87836365D01*
X296404356Y-87741902D01*
X296529902Y-87616356D01*
X296624365Y-87466020D01*
X296683006Y-87298434D01*
X296702885Y-87122000D01*
X296683006Y-86945566D01*
X296624365Y-86777980D01*
X296529902Y-86627644D01*
X296404356Y-86502098D01*
X296404355Y-86502097D01*
X296254019Y-86407634D01*
X296086431Y-86348993D01*
X296086425Y-86348992D01*
X295910004Y-86329115D01*
X295909996Y-86329115D01*
X295733574Y-86348992D01*
X295733568Y-86348993D01*
X295565980Y-86407634D01*
X295415644Y-86502097D01*
X295290097Y-86627644D01*
X295195634Y-86777980D01*
X295136993Y-86945568D01*
X295136992Y-86945574D01*
X295117115Y-87121996D01*
X291725000Y-87121996D01*
X291725000Y-86484000D01*
X291744685Y-86416961D01*
X291797489Y-86371206D01*
X291849000Y-86360000D01*
X295027000Y-86360000D01*
X295027000Y-82042000D01*
X290709000Y-82042000D01*
X290709000Y-85220000D01*
X290689315Y-85287039D01*
X290636511Y-85332794D01*
X290585000Y-85344000D01*
X285245000Y-85344000D01*
X285177961Y-85324315D01*
X285132206Y-85271511D01*
X285121000Y-85220000D01*
X285121000Y-82042000D01*
X280803000Y-82042000D01*
X280803000Y-86360000D01*
X263127864Y-86360000D01*
X263096365Y-86269980D01*
X263001902Y-86119644D01*
X262876356Y-85994098D01*
X262876355Y-85994097D01*
X262726019Y-85899634D01*
X262558431Y-85840993D01*
X262558425Y-85840992D01*
X262382004Y-85821115D01*
X262381996Y-85821115D01*
X262205574Y-85840992D01*
X262205568Y-85840993D01*
X262037980Y-85899634D01*
X261887644Y-85994097D01*
X261762097Y-86119644D01*
X261667634Y-86269980D01*
X261608993Y-86437568D01*
X261608992Y-86437574D01*
X261589115Y-86613996D01*
X244714714Y-86613996D01*
X244728592Y-86605403D01*
X244299643Y-86176454D01*
X244396795Y-86150423D01*
X244532905Y-86071839D01*
X244644039Y-85960705D01*
X244722623Y-85824595D01*
X244748654Y-85727442D01*
X245177540Y-86156328D01*
X245177541Y-86156328D01*
X245248673Y-86013477D01*
X245248676Y-86013471D01*
X245307288Y-85807470D01*
X245307289Y-85807468D01*
X245327051Y-85594200D01*
X245327051Y-85594199D01*
X245307289Y-85380931D01*
X245307288Y-85380929D01*
X245248676Y-85174928D01*
X245248673Y-85174922D01*
X245177540Y-85032070D01*
X244748654Y-85460956D01*
X244722623Y-85363805D01*
X244644039Y-85227695D01*
X244532905Y-85116561D01*
X244396795Y-85037977D01*
X244299642Y-85011945D01*
X244728592Y-84582995D01*
X244683747Y-84555228D01*
X244683743Y-84555226D01*
X244484029Y-84477857D01*
X244484024Y-84477856D01*
X244273489Y-84438500D01*
X244059311Y-84438500D01*
X243848775Y-84477856D01*
X243848770Y-84477857D01*
X243649058Y-84555225D01*
X243649052Y-84555228D01*
X243604206Y-84582994D01*
X243604206Y-84582995D01*
X244033158Y-85011945D01*
X243936005Y-85037977D01*
X243799895Y-85116561D01*
X243688761Y-85227695D01*
X243610177Y-85363805D01*
X243584145Y-85460957D01*
X243155257Y-85032069D01*
X243084125Y-85174922D01*
X243084122Y-85174928D01*
X243025511Y-85380928D01*
X243025510Y-85380931D01*
X243005749Y-85594199D01*
X240403508Y-85594199D01*
X240384714Y-85379378D01*
X240328901Y-85171084D01*
X240237767Y-84975646D01*
X240114080Y-84799002D01*
X240114078Y-84798999D01*
X239961600Y-84646521D01*
X239784954Y-84522833D01*
X239784952Y-84522832D01*
X239589519Y-84431700D01*
X239589516Y-84431699D01*
X239501486Y-84408111D01*
X239381223Y-84375886D01*
X239381216Y-84375885D01*
X239166402Y-84357092D01*
X239166398Y-84357092D01*
X238951583Y-84375885D01*
X238951576Y-84375886D01*
X238743280Y-84431700D01*
X238547847Y-84522832D01*
X238547845Y-84522833D01*
X238371199Y-84646521D01*
X238218721Y-84798999D01*
X238095033Y-84975645D01*
X238095032Y-84975647D01*
X238003900Y-85171080D01*
X237948086Y-85379376D01*
X237948085Y-85379383D01*
X237929292Y-85594197D01*
X235966000Y-85594197D01*
X235966000Y-83948994D01*
X256628500Y-83948994D01*
X256628500Y-85621406D01*
X256639304Y-85695561D01*
X256639304Y-85695562D01*
X256639305Y-85695564D01*
X256695221Y-85809943D01*
X256695223Y-85809946D01*
X256785253Y-85899976D01*
X256785256Y-85899978D01*
X256894863Y-85953561D01*
X256899639Y-85955896D01*
X256973794Y-85966700D01*
X256973800Y-85966700D01*
X258646200Y-85966700D01*
X258646206Y-85966700D01*
X258720361Y-85955896D01*
X258777553Y-85927936D01*
X258834743Y-85899978D01*
X258834746Y-85899976D01*
X258924776Y-85809946D01*
X258924778Y-85809943D01*
X258952736Y-85752753D01*
X258980696Y-85695561D01*
X258991500Y-85621406D01*
X258991500Y-84835996D01*
X260573115Y-84835996D01*
X260573115Y-84836003D01*
X260592992Y-85012425D01*
X260592993Y-85012431D01*
X260651634Y-85180019D01*
X260651635Y-85180020D01*
X260746098Y-85330356D01*
X260871644Y-85455902D01*
X261021980Y-85550365D01*
X261189566Y-85609006D01*
X261189572Y-85609006D01*
X261189574Y-85609007D01*
X261365996Y-85628885D01*
X261366000Y-85628885D01*
X261366004Y-85628885D01*
X261542425Y-85609007D01*
X261542424Y-85609007D01*
X261542434Y-85609006D01*
X261710020Y-85550365D01*
X261860356Y-85455902D01*
X261985902Y-85330356D01*
X262080365Y-85180020D01*
X262139006Y-85012434D01*
X262158885Y-84836000D01*
X262154716Y-84799002D01*
X262139007Y-84659574D01*
X262139006Y-84659568D01*
X262139006Y-84659566D01*
X262080365Y-84491980D01*
X261985902Y-84341644D01*
X261860356Y-84216098D01*
X261860355Y-84216097D01*
X261710019Y-84121634D01*
X261542431Y-84062993D01*
X261542425Y-84062992D01*
X261366004Y-84043115D01*
X261365996Y-84043115D01*
X261189574Y-84062992D01*
X261189568Y-84062993D01*
X261021980Y-84121634D01*
X260871644Y-84216097D01*
X260746097Y-84341644D01*
X260651634Y-84491980D01*
X260592993Y-84659568D01*
X260592992Y-84659574D01*
X260573115Y-84835996D01*
X258991500Y-84835996D01*
X258991500Y-83948994D01*
X258980696Y-83874839D01*
X258978361Y-83870063D01*
X258924778Y-83760456D01*
X258924776Y-83760453D01*
X258834746Y-83670423D01*
X258834743Y-83670421D01*
X258720364Y-83614505D01*
X258720362Y-83614504D01*
X258720361Y-83614504D01*
X258646206Y-83603700D01*
X256973794Y-83603700D01*
X256899639Y-83614504D01*
X256899637Y-83614504D01*
X256899635Y-83614505D01*
X256785256Y-83670421D01*
X256785253Y-83670423D01*
X256695223Y-83760453D01*
X256695221Y-83760456D01*
X256639305Y-83874835D01*
X256639304Y-83874837D01*
X256639304Y-83874839D01*
X256628500Y-83948994D01*
X235966000Y-83948994D01*
X235966000Y-83057996D01*
X261589115Y-83057996D01*
X261589115Y-83058003D01*
X261608992Y-83234425D01*
X261608993Y-83234431D01*
X261667634Y-83402019D01*
X261667635Y-83402020D01*
X261762098Y-83552356D01*
X261887644Y-83677902D01*
X262037980Y-83772365D01*
X262205566Y-83831006D01*
X262205572Y-83831006D01*
X262205574Y-83831007D01*
X262381996Y-83850885D01*
X262382000Y-83850885D01*
X262382004Y-83850885D01*
X262558425Y-83831007D01*
X262558424Y-83831007D01*
X262558434Y-83831006D01*
X262726020Y-83772365D01*
X262876356Y-83677902D01*
X263001902Y-83552356D01*
X263096365Y-83402020D01*
X263155006Y-83234434D01*
X263174885Y-83058000D01*
X263155006Y-82881566D01*
X263096365Y-82713980D01*
X263001902Y-82563644D01*
X262876356Y-82438098D01*
X262876355Y-82438097D01*
X262726019Y-82343634D01*
X262558431Y-82284993D01*
X262558425Y-82284992D01*
X262382004Y-82265115D01*
X262381996Y-82265115D01*
X262205574Y-82284992D01*
X262205568Y-82284993D01*
X262037980Y-82343634D01*
X261887644Y-82438097D01*
X261762097Y-82563644D01*
X261667634Y-82713980D01*
X261608993Y-82881568D01*
X261608992Y-82881574D01*
X261589115Y-83057996D01*
X235966000Y-83057996D01*
X235966000Y-80769500D01*
X235985685Y-80702461D01*
X236038489Y-80656706D01*
X236090000Y-80645500D01*
X296040000Y-80645500D01*
X296107039Y-80665185D01*
G37*
%TD.AperFunction*%
%TD*%
%TA.AperFunction,Conductor*%
%TO.N,GND*%
G36*
X268071600Y-98348800D02*
G01*
X288036000Y-98399600D01*
X287976022Y-101848311D01*
X287786291Y-101745635D01*
X287786280Y-101745630D01*
X287551170Y-101664916D01*
X287305970Y-101624000D01*
X287057384Y-101624000D01*
X286812183Y-101664916D01*
X286577073Y-101745630D01*
X286577062Y-101745635D01*
X286358447Y-101863943D01*
X286311620Y-101900389D01*
X287052268Y-102641037D01*
X286988684Y-102658075D01*
X286874670Y-102723901D01*
X286781578Y-102816993D01*
X286715752Y-102931007D01*
X286698714Y-102994591D01*
X285958240Y-102254117D01*
X285857944Y-102407633D01*
X285857942Y-102407637D01*
X285758089Y-102635282D01*
X285697064Y-102876261D01*
X285697062Y-102876270D01*
X285676536Y-103123994D01*
X285676536Y-103124005D01*
X285697062Y-103371729D01*
X285697064Y-103371738D01*
X285758089Y-103612717D01*
X285857944Y-103840367D01*
X285958239Y-103993881D01*
X286698714Y-103253408D01*
X286715752Y-103316993D01*
X286781578Y-103431007D01*
X286874670Y-103524099D01*
X286988684Y-103589925D01*
X287052266Y-103606962D01*
X286311620Y-104347609D01*
X286358445Y-104384055D01*
X286358448Y-104384057D01*
X286577062Y-104502364D01*
X286577073Y-104502369D01*
X286812183Y-104583083D01*
X287057384Y-104624000D01*
X287246853Y-104624000D01*
X283413200Y-106756200D01*
X283396828Y-106756176D01*
X283387800Y-98501200D01*
X283016023Y-98501200D01*
X283016023Y-106619500D01*
X282996338Y-106686539D01*
X282943534Y-106732294D01*
X282892023Y-106743500D01*
X274624800Y-106743500D01*
X265836400Y-106730800D01*
X265836400Y-93218000D01*
X268071600Y-93167200D01*
X268071600Y-98348800D01*
G37*
%TD.AperFunction*%
%TD*%
M02*
