%TF.GenerationSoftware,KiCad,Pcbnew,8.0.7-8.0.7-0~ubuntu22.04.1*%
%TF.CreationDate,2025-01-13T16:38:08-08:00*%
%TF.ProjectId,NX-J401-Adapter,4e582d4a-3430-4312-9d41-646170746572,4*%
%TF.SameCoordinates,Original*%
%TF.FileFunction,Copper,L1,Top*%
%TF.FilePolarity,Positive*%
%FSLAX46Y46*%
G04 Gerber Fmt 4.6, Leading zero omitted, Abs format (unit mm)*
G04 Created by KiCad (PCBNEW 8.0.7-8.0.7-0~ubuntu22.04.1) date 2025-01-13 16:38:08*
%MOMM*%
%LPD*%
G01*
G04 APERTURE LIST*
G04 Aperture macros list*
%AMRoundRect*
0 Rectangle with rounded corners*
0 $1 Rounding radius*
0 $2 $3 $4 $5 $6 $7 $8 $9 X,Y pos of 4 corners*
0 Add a 4 corners polygon primitive as box body*
4,1,4,$2,$3,$4,$5,$6,$7,$8,$9,$2,$3,0*
0 Add four circle primitives for the rounded corners*
1,1,$1+$1,$2,$3*
1,1,$1+$1,$4,$5*
1,1,$1+$1,$6,$7*
1,1,$1+$1,$8,$9*
0 Add four rect primitives between the rounded corners*
20,1,$1+$1,$2,$3,$4,$5,0*
20,1,$1+$1,$4,$5,$6,$7,0*
20,1,$1+$1,$6,$7,$8,$9,0*
20,1,$1+$1,$8,$9,$2,$3,0*%
%AMFreePoly0*
4,1,18,2.145000,-2.250000,-2.145000,-2.250000,-2.805000,-2.250000,-2.805000,-1.590000,-2.145000,-1.590000,-2.145000,-0.970000,-2.805000,-0.970000,-2.805000,-0.310000,-2.145000,-0.310000,-2.145000,0.310000,-2.805000,0.310000,-2.805000,0.970000,-2.145000,0.970000,-2.145000,1.590000,-2.805000,1.590000,-2.805000,2.250000,2.145000,2.250000,2.145000,-2.250000,2.145000,-2.250000,$1*%
G04 Aperture macros list end*
%ADD10C,0.300000*%
%TA.AperFunction,NonConductor*%
%ADD11C,0.300000*%
%TD*%
%TA.AperFunction,SMDPad,CuDef*%
%ADD12RoundRect,0.250000X2.050000X0.300000X-2.050000X0.300000X-2.050000X-0.300000X2.050000X-0.300000X0*%
%TD*%
%TA.AperFunction,SMDPad,CuDef*%
%ADD13RoundRect,0.250000X2.025000X2.375000X-2.025000X2.375000X-2.025000X-2.375000X2.025000X-2.375000X0*%
%TD*%
%TA.AperFunction,SMDPad,CuDef*%
%ADD14RoundRect,0.250002X4.449998X5.149998X-4.449998X5.149998X-4.449998X-5.149998X4.449998X-5.149998X0*%
%TD*%
%TA.AperFunction,SMDPad,CuDef*%
%ADD15R,0.750000X0.660000*%
%TD*%
%TA.AperFunction,SMDPad,CuDef*%
%ADD16FreePoly0,180.000000*%
%TD*%
%TA.AperFunction,SMDPad,CuDef*%
%ADD17RoundRect,0.250000X-0.450000X0.262500X-0.450000X-0.262500X0.450000X-0.262500X0.450000X0.262500X0*%
%TD*%
%TA.AperFunction,SMDPad,CuDef*%
%ADD18R,1.090000X1.500000*%
%TD*%
%TA.AperFunction,ComponentPad*%
%ADD19R,1.600000X1.600000*%
%TD*%
%TA.AperFunction,ComponentPad*%
%ADD20C,1.600000*%
%TD*%
%TA.AperFunction,ComponentPad*%
%ADD21C,1.498600*%
%TD*%
%TA.AperFunction,ComponentPad*%
%ADD22C,1.803400*%
%TD*%
%TA.AperFunction,SMDPad,CuDef*%
%ADD23RoundRect,0.250000X-0.475000X0.250000X-0.475000X-0.250000X0.475000X-0.250000X0.475000X0.250000X0*%
%TD*%
%TA.AperFunction,ComponentPad*%
%ADD24C,2.200000*%
%TD*%
%TA.AperFunction,SMDPad,CuDef*%
%ADD25RoundRect,0.250000X0.450000X-0.262500X0.450000X0.262500X-0.450000X0.262500X-0.450000X-0.262500X0*%
%TD*%
%TA.AperFunction,SMDPad,CuDef*%
%ADD26RoundRect,0.250000X0.262500X0.450000X-0.262500X0.450000X-0.262500X-0.450000X0.262500X-0.450000X0*%
%TD*%
%TA.AperFunction,ComponentPad*%
%ADD27R,1.778000X1.778000*%
%TD*%
%TA.AperFunction,ComponentPad*%
%ADD28C,1.905000*%
%TD*%
%TA.AperFunction,ComponentPad*%
%ADD29C,1.778000*%
%TD*%
%TA.AperFunction,SMDPad,CuDef*%
%ADD30RoundRect,0.150000X0.825000X0.150000X-0.825000X0.150000X-0.825000X-0.150000X0.825000X-0.150000X0*%
%TD*%
%TA.AperFunction,SMDPad,CuDef*%
%ADD31RoundRect,0.250000X0.900000X-1.000000X0.900000X1.000000X-0.900000X1.000000X-0.900000X-1.000000X0*%
%TD*%
%TA.AperFunction,SMDPad,CuDef*%
%ADD32RoundRect,0.250000X-0.262500X-0.450000X0.262500X-0.450000X0.262500X0.450000X-0.262500X0.450000X0*%
%TD*%
%TA.AperFunction,ComponentPad*%
%ADD33R,2.000000X2.000000*%
%TD*%
%TA.AperFunction,ComponentPad*%
%ADD34C,2.000000*%
%TD*%
%TA.AperFunction,SMDPad,CuDef*%
%ADD35RoundRect,0.250000X0.300000X-0.300000X0.300000X0.300000X-0.300000X0.300000X-0.300000X-0.300000X0*%
%TD*%
%TA.AperFunction,ComponentPad*%
%ADD36C,1.701800*%
%TD*%
%TA.AperFunction,SMDPad,CuDef*%
%ADD37RoundRect,0.150000X-0.825000X-0.150000X0.825000X-0.150000X0.825000X0.150000X-0.825000X0.150000X0*%
%TD*%
%TA.AperFunction,SMDPad,CuDef*%
%ADD38RoundRect,0.250000X-0.362500X-1.425000X0.362500X-1.425000X0.362500X1.425000X-0.362500X1.425000X0*%
%TD*%
%TA.AperFunction,SMDPad,CuDef*%
%ADD39RoundRect,0.250000X0.250000X0.475000X-0.250000X0.475000X-0.250000X-0.475000X0.250000X-0.475000X0*%
%TD*%
%TA.AperFunction,SMDPad,CuDef*%
%ADD40RoundRect,0.250000X-0.250000X-0.475000X0.250000X-0.475000X0.250000X0.475000X-0.250000X0.475000X0*%
%TD*%
%TA.AperFunction,SMDPad,CuDef*%
%ADD41R,3.265000X5.210000*%
%TD*%
%TA.AperFunction,SMDPad,CuDef*%
%ADD42R,5.210000X3.275000*%
%TD*%
%TA.AperFunction,ViaPad*%
%ADD43C,0.812800*%
%TD*%
%TA.AperFunction,ViaPad*%
%ADD44C,0.711200*%
%TD*%
%TA.AperFunction,Conductor*%
%ADD45C,0.254000*%
%TD*%
%TA.AperFunction,Conductor*%
%ADD46C,0.381000*%
%TD*%
%TA.AperFunction,Conductor*%
%ADD47C,0.508000*%
%TD*%
%TA.AperFunction,Conductor*%
%ADD48C,0.762000*%
%TD*%
%TA.AperFunction,Conductor*%
%ADD49C,0.304800*%
%TD*%
G04 APERTURE END LIST*
D10*
D11*
G36*
X322563318Y-94750279D02*
G01*
X323595000Y-94750279D01*
X323595000Y-94456454D01*
X322094371Y-94456454D01*
X322094371Y-94651727D01*
X322172846Y-94681186D01*
X322238205Y-94726233D01*
X322290371Y-94786782D01*
X322329270Y-94862751D01*
X322350786Y-94934571D01*
X322363724Y-95016163D01*
X322368046Y-95107484D01*
X322563318Y-95107484D01*
X322563318Y-94750279D01*
G37*
D10*
D11*
X33217368Y-81385474D02*
X32624701Y-81385474D01*
X32624701Y-82316807D02*
X32624701Y-80538807D01*
X32624701Y-80538807D02*
X33471368Y-80538807D01*
X34148701Y-82147474D02*
X34233368Y-82232141D01*
X34233368Y-82232141D02*
X34148701Y-82316807D01*
X34148701Y-82316807D02*
X34064034Y-82232141D01*
X34064034Y-82232141D02*
X34148701Y-82147474D01*
X34148701Y-82147474D02*
X34148701Y-82316807D01*
X36011368Y-82147474D02*
X35926701Y-82232141D01*
X35926701Y-82232141D02*
X35672701Y-82316807D01*
X35672701Y-82316807D02*
X35503368Y-82316807D01*
X35503368Y-82316807D02*
X35249368Y-82232141D01*
X35249368Y-82232141D02*
X35080035Y-82062807D01*
X35080035Y-82062807D02*
X34995368Y-81893474D01*
X34995368Y-81893474D02*
X34910701Y-81554807D01*
X34910701Y-81554807D02*
X34910701Y-81300807D01*
X34910701Y-81300807D02*
X34995368Y-80962141D01*
X34995368Y-80962141D02*
X35080035Y-80792807D01*
X35080035Y-80792807D02*
X35249368Y-80623474D01*
X35249368Y-80623474D02*
X35503368Y-80538807D01*
X35503368Y-80538807D02*
X35672701Y-80538807D01*
X35672701Y-80538807D02*
X35926701Y-80623474D01*
X35926701Y-80623474D02*
X36011368Y-80708141D01*
X37535368Y-81131474D02*
X37535368Y-82316807D01*
X36773368Y-81131474D02*
X36773368Y-82062807D01*
X36773368Y-82062807D02*
X36858035Y-82232141D01*
X36858035Y-82232141D02*
X37027368Y-82316807D01*
X37027368Y-82316807D02*
X37281368Y-82316807D01*
X37281368Y-82316807D02*
X37450701Y-82232141D01*
X37450701Y-82232141D02*
X37535368Y-82147474D01*
D12*
%TO.P,D1,1,A*%
%TO.N,/Power Supply/SW*%
X276860000Y-89916000D03*
D13*
%TO.P,D1,2,K*%
%TO.N,/+18V_OUT*%
X270135000Y-90151000D03*
X270135000Y-84601000D03*
D14*
X267710000Y-87376000D03*
D13*
X265285000Y-90151000D03*
X265285000Y-84601000D03*
D12*
%TO.P,D1,3,A*%
%TO.N,/Power Supply/SW*%
X276860000Y-84836000D03*
%TD*%
D15*
%TO.P,Q1,1,S*%
%TO.N,/Power Supply/Q_S*%
X273415000Y-94092000D03*
%TO.P,Q1,2,S*%
X273415000Y-95372000D03*
%TO.P,Q1,3,S*%
X273415000Y-96652000D03*
%TO.P,Q1,4,G*%
%TO.N,Net-(Q1-G)*%
X273415000Y-97932000D03*
D16*
%TO.P,Q1,5,D*%
%TO.N,/Power Supply/SW*%
X276485000Y-96012000D03*
%TD*%
D17*
%TO.P,R8,1*%
%TO.N,Net-(D2-A)*%
X277876000Y-114149500D03*
%TO.P,R8,2*%
%TO.N,/Power Supply/V_IN*%
X277876000Y-115974500D03*
%TD*%
D18*
%TO.P,D4,1,Red-K*%
%TO.N,Net-(D4A-Red-K)*%
X240387000Y-154432000D03*
%TO.P,D4,2,RedA*%
%TO.N,GND*%
X240387000Y-157432000D03*
%TO.P,D4,3,Green-A*%
%TO.N,Net-(D4A-Red-K)*%
X238887000Y-154432000D03*
%TO.P,D4,4,Green-K*%
%TO.N,GND*%
X238887000Y-157432000D03*
%TD*%
D19*
%TO.P,C2,1*%
%TO.N,/+18V_OUT*%
X257810000Y-93980000D03*
D20*
%TO.P,C2,2*%
%TO.N,GND*%
X257810000Y-97480000D03*
%TD*%
D21*
%TO.P,SW2,1,1*%
%TO.N,/~{REC}*%
X291628000Y-156285700D03*
%TO.P,SW2,2,2*%
%TO.N,/RTN*%
X296128001Y-156285700D03*
D22*
%TO.P,SW2,3*%
%TO.N,N/C*%
X290378001Y-153785824D03*
%TO.P,SW2,4*%
X297378000Y-153785824D03*
%TD*%
D23*
%TO.P,C8,1*%
%TO.N,/V_BAT*%
X273812000Y-114112000D03*
%TO.P,C8,2*%
%TO.N,GND*%
X273812000Y-116012000D03*
%TD*%
D19*
%TO.P,C1,1*%
%TO.N,/+18V_OUT*%
X257810000Y-84785200D03*
D20*
%TO.P,C1,2*%
%TO.N,GND*%
X257810000Y-88285200D03*
%TD*%
D24*
%TO.P,J4,1,Pin_1*%
%TO.N,/V_BAT*%
X252501400Y-148365600D03*
X252501400Y-156565600D03*
%TO.P,J4,2,Pin_2*%
%TO.N,GND*%
X257581400Y-148365600D03*
X257581400Y-156565600D03*
%TD*%
D25*
%TO.P,R5,1*%
%TO.N,GND*%
X266928600Y-102918900D03*
%TO.P,R5,2*%
%TO.N,Net-(U1-FB)*%
X266928600Y-101093900D03*
%TD*%
D26*
%TO.P,R2,1*%
%TO.N,Net-(U1-FB)*%
X265402700Y-99288600D03*
%TO.P,R2,2*%
%TO.N,/+18V_OUT*%
X263577700Y-99288600D03*
%TD*%
D27*
%TO.P,J3,1,Pin_1*%
%TO.N,/RTN*%
X276225000Y-147320000D03*
D28*
%TO.P,J3,2,Pin_2*%
%TO.N,/UART2_RXD*%
X273685000Y-147320000D03*
D29*
%TO.P,J3,3,Pin_3*%
%TO.N,/UART2_TXD*%
X271145000Y-147320000D03*
%TD*%
D30*
%TO.P,Q2,1,S*%
%TO.N,/Power Supply/V_IN*%
X278827000Y-111633000D03*
%TO.P,Q2,2,S*%
X278827000Y-110363000D03*
%TO.P,Q2,3,S*%
X278827000Y-109093000D03*
%TO.P,Q2,4,G*%
%TO.N,Net-(D2-A)*%
X278827000Y-107823000D03*
%TO.P,Q2,5,D*%
%TO.N,/V_BAT*%
X273877000Y-107823000D03*
%TO.P,Q2,6,D*%
X273877000Y-109093000D03*
%TO.P,Q2,7,D*%
X273877000Y-110363000D03*
%TO.P,Q2,8,D*%
X273877000Y-111633000D03*
%TD*%
D21*
%TO.P,SW1,1,1*%
%TO.N,/~{SYS_RESET}*%
X281976000Y-156285700D03*
%TO.P,SW1,2,2*%
%TO.N,/RTN*%
X286476001Y-156285700D03*
D22*
%TO.P,SW1,3*%
%TO.N,N/C*%
X280726001Y-153785824D03*
%TO.P,SW1,4*%
X287726000Y-153785824D03*
%TD*%
D27*
%TO.P,J2,1,Pin_1*%
%TO.N,/RTN*%
X297447500Y-117348000D03*
D28*
%TO.P,J2,2,Pin_2*%
%TO.N,/UART2_RXD*%
X297447500Y-119888000D03*
D29*
%TO.P,J2,3,Pin_3*%
%TO.N,/UART2_TXD*%
X297447500Y-122428000D03*
%TO.P,J2,4,Pin_4*%
%TO.N,/~{SYS_RESET}*%
X297447500Y-124968000D03*
%TO.P,J2,5,Pin_5*%
%TO.N,/RTN*%
X297447500Y-127508000D03*
%TO.P,J2,6,Pin_6*%
%TO.N,/~{REC}*%
X297447500Y-130048000D03*
%TD*%
D31*
%TO.P,D3,1,A1*%
%TO.N,GND*%
X270002000Y-126864000D03*
%TO.P,D3,2,A2*%
%TO.N,/V_BAT*%
X270002000Y-122564000D03*
%TD*%
D25*
%TO.P,R4,1*%
%TO.N,GND*%
X280670000Y-102385540D03*
%TO.P,R4,2*%
%TO.N,Net-(U1-FA{slash}SD)*%
X280670000Y-100560540D03*
%TD*%
D32*
%TO.P,R9,1*%
%TO.N,Net-(D4A-Red-K)*%
X238736500Y-151663400D03*
%TO.P,R9,2*%
%TO.N,/V_BAT*%
X240561500Y-151663400D03*
%TD*%
D33*
%TO.P,C5,1*%
%TO.N,/Power Supply/V_IN*%
X292181677Y-103124000D03*
D34*
%TO.P,C5,2*%
%TO.N,GND*%
X287181677Y-103124000D03*
%TD*%
D35*
%TO.P,D2,1,K*%
%TO.N,/Power Supply/V_IN*%
X280035000Y-116970000D03*
%TO.P,D2,2,A*%
%TO.N,Net-(D2-A)*%
X280035000Y-114170000D03*
%TD*%
D36*
%TO.P,J1,1,Pin_1*%
%TO.N,/+18V_OUT*%
X239166400Y-85594200D03*
X239166400Y-90594200D03*
%TO.P,J1,2,Pin_2*%
%TO.N,GND*%
X244166400Y-85594200D03*
X244166400Y-90594200D03*
%TD*%
D37*
%TO.P,U1,1,I_{SEN}*%
%TO.N,Net-(U1-I_{SEN})*%
X271337000Y-99441000D03*
%TO.P,U1,2,COMP*%
%TO.N,Net-(U1-COMP)*%
X271337000Y-100711000D03*
%TO.P,U1,3,FB*%
%TO.N,Net-(U1-FB)*%
X271337000Y-101981000D03*
%TO.P,U1,4,AGND*%
%TO.N,GND*%
X271337000Y-103251000D03*
%TO.P,U1,5,PGND*%
X276287000Y-103251000D03*
%TO.P,U1,6,DR*%
%TO.N,Net-(Q1-G)*%
X276287000Y-101981000D03*
%TO.P,U1,7,FA/SD*%
%TO.N,Net-(U1-FA{slash}SD)*%
X276287000Y-100711000D03*
%TO.P,U1,8,V_{IN}*%
%TO.N,/Power Supply/V_IN*%
X276287000Y-99441000D03*
%TD*%
D32*
%TO.P,R6,1*%
%TO.N,GND*%
X266803500Y-105410000D03*
%TO.P,R6,2*%
%TO.N,Net-(C6-Pad2)*%
X268628500Y-105410000D03*
%TD*%
D38*
%TO.P,R1,1*%
%TO.N,GND*%
X266023500Y-95250000D03*
%TO.P,R1,2*%
%TO.N,/Power Supply/Q_S*%
X271948500Y-95250000D03*
%TD*%
D32*
%TO.P,R3,1*%
%TO.N,/Power Supply/Q_S*%
X267135600Y-99288600D03*
%TO.P,R3,2*%
%TO.N,Net-(U1-I_{SEN})*%
X268960600Y-99288600D03*
%TD*%
D39*
%TO.P,C6,1*%
%TO.N,Net-(U1-COMP)*%
X272222000Y-105410000D03*
%TO.P,C6,2*%
%TO.N,Net-(C6-Pad2)*%
X270322000Y-105410000D03*
%TD*%
D23*
%TO.P,C4,1*%
%TO.N,Net-(U1-I_{SEN})*%
X268960600Y-101056400D03*
%TO.P,C4,2*%
%TO.N,GND*%
X268960600Y-102956400D03*
%TD*%
D40*
%TO.P,C7,1*%
%TO.N,Net-(U1-COMP)*%
X273878000Y-105410000D03*
%TO.P,C7,2*%
%TO.N,GND*%
X275778000Y-105410000D03*
%TD*%
D25*
%TO.P,R7,1*%
%TO.N,GND*%
X275844000Y-115974500D03*
%TO.P,R7,2*%
%TO.N,Net-(D2-A)*%
X275844000Y-114149500D03*
%TD*%
D41*
%TO.P,L1,1,1*%
%TO.N,/Power Supply/V_IN*%
X293647500Y-89154000D03*
%TO.P,L1,2,2*%
%TO.N,/Power Supply/SW*%
X282182500Y-89154000D03*
D42*
%TO.P,L1,3,3*%
%TO.N,GND*%
X287915000Y-94831500D03*
%TO.P,L1,4,4*%
X287915000Y-83476500D03*
%TD*%
D23*
%TO.P,C3,1*%
%TO.N,/Power Supply/V_IN*%
X278638000Y-100523040D03*
%TO.P,C3,2*%
%TO.N,GND*%
X278638000Y-102423040D03*
%TD*%
D43*
%TO.N,GND*%
X273812000Y-117221010D03*
X267462000Y-96266000D03*
X267461982Y-94234000D03*
D44*
X265658600Y-105359200D03*
X271272000Y-104266998D03*
D43*
X287934400Y-83515200D03*
X273825822Y-100813988D03*
X270002000Y-128778000D03*
X244856000Y-156210000D03*
X267462000Y-95250000D03*
X287934400Y-94843600D03*
X277215600Y-105410000D03*
X275844000Y-117221000D03*
%TO.N,/+18V_OUT*%
X261366000Y-91948000D03*
X261366000Y-84836000D03*
X262382000Y-86614000D03*
X262382000Y-83058000D03*
X262382000Y-90170000D03*
X261366000Y-88392000D03*
%TO.N,/Power Supply/V_IN*%
X277190204Y-110362988D03*
X295910000Y-89154000D03*
X280543000Y-111633000D03*
X295910000Y-87122000D03*
X280543034Y-109093000D03*
X281940008Y-110388408D03*
X295910000Y-91186000D03*
%TO.N,/V_BAT*%
X272288000Y-107848400D03*
X270002000Y-120650000D03*
X275590000Y-111633000D03*
X273812000Y-112828307D03*
X272288000Y-110388400D03*
X275590000Y-109067600D03*
%TD*%
D45*
%TO.N,GND*%
X266023500Y-95250000D02*
X266023500Y-94656500D01*
D46*
X268960600Y-104089200D02*
X271094202Y-104089200D01*
X275778000Y-105410000D02*
X277215600Y-105410000D01*
D47*
X277952200Y-104140000D02*
X278638000Y-103454200D01*
D45*
X266023500Y-95250000D02*
X266023500Y-95843500D01*
X266192000Y-94488000D02*
X266023500Y-94656500D01*
X266023500Y-94656500D02*
X266446000Y-94234000D01*
D48*
X287922300Y-94831500D02*
X287934400Y-94843600D01*
D47*
X273825822Y-102147222D02*
X273825822Y-100813988D01*
X266446000Y-94234000D02*
X267461982Y-94234000D01*
D46*
X275844000Y-115974500D02*
X275844000Y-117221000D01*
D47*
X266023500Y-95250000D02*
X267462000Y-95250000D01*
D46*
X266928600Y-102918900D02*
X266928600Y-104089200D01*
X273812000Y-116012000D02*
X273812000Y-117221010D01*
D45*
X266023500Y-95843500D02*
X266446000Y-96266000D01*
D47*
X266446000Y-96266000D02*
X267462000Y-96266000D01*
D46*
X271337000Y-103251000D02*
X271337000Y-104201998D01*
X271094202Y-104089200D02*
X271272000Y-104266998D01*
X268960600Y-102956400D02*
X268960600Y-104089200D01*
X240387000Y-157432000D02*
X243634000Y-157432000D01*
X271272000Y-104089200D02*
X271272000Y-104266998D01*
X238887000Y-157432000D02*
X240387000Y-157432000D01*
X266928600Y-104089200D02*
X268960600Y-104089200D01*
X243634000Y-157432000D02*
X244856000Y-156210000D01*
X280670000Y-102385540D02*
X280670000Y-103708200D01*
D47*
X270002000Y-126864000D02*
X270002000Y-128778000D01*
D46*
X278968200Y-105410000D02*
X277215600Y-105410000D01*
D47*
X276287000Y-103251000D02*
X276287000Y-103897200D01*
D46*
X265709400Y-105410000D02*
X265658600Y-105359200D01*
D47*
X276529800Y-104140000D02*
X277952200Y-104140000D01*
D46*
X280670000Y-103708200D02*
X278968200Y-105410000D01*
D47*
X276287000Y-103897200D02*
X276529800Y-104140000D01*
D46*
X266803500Y-104214300D02*
X266928600Y-104089200D01*
D48*
X287915000Y-83495800D02*
X287934400Y-83515200D01*
D47*
X278638000Y-103454200D02*
X278638000Y-102423040D01*
D48*
X287915000Y-83476500D02*
X287915000Y-83495800D01*
D46*
X271337000Y-104201998D02*
X271272000Y-104266998D01*
D47*
X276287000Y-103251000D02*
X274929600Y-103251000D01*
D46*
X266803500Y-105410000D02*
X266803500Y-104214300D01*
X266803500Y-105410000D02*
X265709400Y-105410000D01*
D47*
X274929600Y-103251000D02*
X273825822Y-102147222D01*
D48*
X287915000Y-94831500D02*
X287922300Y-94831500D01*
D46*
%TO.N,/+18V_OUT*%
X260985000Y-98729800D02*
X260985000Y-97155000D01*
X260985000Y-97155000D02*
X257810000Y-93980000D01*
X261543800Y-99288600D02*
X260985000Y-98729800D01*
X263577700Y-99288600D02*
X261543800Y-99288600D01*
%TO.N,/Power Supply/V_IN*%
X278827000Y-109093000D02*
X280543034Y-109093000D01*
D47*
X279831800Y-99441000D02*
X281279600Y-97993200D01*
D46*
X281305000Y-114681000D02*
X280035000Y-115951000D01*
D47*
X278638000Y-99441000D02*
X279831800Y-99441000D01*
D46*
X279527000Y-118364000D02*
X280035000Y-117856000D01*
X277876000Y-115974500D02*
X277876000Y-117856000D01*
D47*
X278638000Y-100523040D02*
X278638000Y-99441000D01*
D46*
X278384000Y-118364000D02*
X279527000Y-118364000D01*
D47*
X287050877Y-97993200D02*
X292181677Y-103124000D01*
D46*
X278826988Y-110362988D02*
X278827000Y-110363000D01*
X280543000Y-111633000D02*
X281305000Y-112395000D01*
X281305000Y-112395000D02*
X281305000Y-114681000D01*
X277190204Y-110362988D02*
X278826988Y-110362988D01*
X280035000Y-117856000D02*
X280035000Y-116970000D01*
X278827000Y-111633000D02*
X280543000Y-111633000D01*
X280035000Y-115951000D02*
X280035000Y-116970000D01*
X277876000Y-117856000D02*
X278384000Y-118364000D01*
D47*
X276287000Y-99441000D02*
X278638000Y-99441000D01*
D46*
X278827000Y-110363000D02*
X281914600Y-110363000D01*
X281914600Y-110363000D02*
X281940008Y-110388408D01*
D47*
X281279600Y-97993200D02*
X287050877Y-97993200D01*
D46*
%TO.N,Net-(U1-I_{SEN})*%
X268960600Y-101056400D02*
X268960600Y-99288600D01*
X270027400Y-99441000D02*
X269875000Y-99288600D01*
X271337000Y-99441000D02*
X270027400Y-99441000D01*
X269875000Y-99288600D02*
X268960600Y-99288600D01*
%TO.N,Net-(C6-Pad2)*%
X268628500Y-105410000D02*
X270322000Y-105410000D01*
%TO.N,Net-(D4A-Red-K)*%
X237769400Y-151663400D02*
X238736500Y-151663400D01*
X237744000Y-154432000D02*
X237490000Y-154178000D01*
X238887000Y-154432000D02*
X237744000Y-154432000D01*
X237490000Y-151942800D02*
X237769400Y-151663400D01*
X237490000Y-154178000D02*
X237490000Y-151942800D01*
X240387000Y-154432000D02*
X238887000Y-154432000D01*
%TO.N,Net-(U1-COMP)*%
X272694400Y-100711000D02*
X272999200Y-101015800D01*
X271337000Y-100711000D02*
X272694400Y-100711000D01*
X272999200Y-103378000D02*
X273878000Y-104256800D01*
X272222000Y-105410000D02*
X273878000Y-105410000D01*
X272999200Y-101015800D02*
X272999200Y-103378000D01*
X273878000Y-104256800D02*
X273878000Y-105410000D01*
%TO.N,/V_BAT*%
X272313400Y-107823000D02*
X272288000Y-107848400D01*
X273877000Y-110363000D02*
X272313400Y-110363000D01*
X273812000Y-111698000D02*
X273877000Y-111633000D01*
X240561500Y-151663400D02*
X247599200Y-151663400D01*
D47*
X270002000Y-122564000D02*
X270002000Y-120650000D01*
D46*
X273877000Y-107823000D02*
X272313400Y-107823000D01*
X273877000Y-109093000D02*
X275564600Y-109093000D01*
X273812000Y-112828307D02*
X273812000Y-111698000D01*
X247599200Y-151663400D02*
X252501400Y-156565600D01*
X272313400Y-110363000D02*
X272288000Y-110388400D01*
X273877000Y-111633000D02*
X275590000Y-111633000D01*
X273812000Y-114112000D02*
X273812000Y-112828307D01*
X275564600Y-109093000D02*
X275590000Y-109067600D01*
%TO.N,/Power Supply/SW*%
X282237500Y-89154000D02*
X282237500Y-88232300D01*
X282237500Y-89154000D02*
X282237500Y-90126500D01*
X282237500Y-89154000D02*
X282237500Y-88246900D01*
X282237545Y-89153955D02*
X282237545Y-89153910D01*
X282237498Y-89153998D02*
X282237498Y-89153996D01*
X282237500Y-89154000D02*
X282237498Y-89153998D01*
X282237500Y-89154000D02*
X282237545Y-89153955D01*
%TO.N,Net-(D2-A)*%
X276326600Y-109931200D02*
X276326600Y-110744000D01*
X276936200Y-109321600D02*
X276326600Y-109931200D01*
X276326600Y-110744000D02*
X276758400Y-111175800D01*
X277545800Y-107823000D02*
X276936200Y-108432600D01*
X276758400Y-113030000D02*
X276606000Y-113030000D01*
X279781000Y-113030000D02*
X277876000Y-113030000D01*
X277876000Y-113030000D02*
X276860000Y-113030000D01*
X280035000Y-114170000D02*
X280035000Y-113284000D01*
X278827000Y-107823000D02*
X277545800Y-107823000D01*
X276936200Y-108432600D02*
X276936200Y-109321600D01*
X276860000Y-113030000D02*
X276758400Y-113030000D01*
X277876000Y-114149500D02*
X277876000Y-113030000D01*
X276606000Y-113030000D02*
X276225000Y-113030000D01*
X276225000Y-113030000D02*
X275844000Y-113411000D01*
X275844000Y-113411000D02*
X275844000Y-114149500D01*
X276758400Y-111175800D02*
X276758400Y-113030000D01*
X280035000Y-113284000D02*
X279781000Y-113030000D01*
%TO.N,/~{REC}*%
X294386000Y-133109500D02*
X297447500Y-130048000D01*
X291628000Y-156285700D02*
X294386000Y-153527700D01*
X294386000Y-153527700D02*
X294386000Y-133109500D01*
%TO.N,/UART2_TXD*%
X271145000Y-143891000D02*
X292608000Y-122428000D01*
X292608000Y-122428000D02*
X297447500Y-122428000D01*
X271145000Y-147320000D02*
X271145000Y-143891000D01*
%TO.N,/~{SYS_RESET}*%
X291592000Y-124968000D02*
X297447500Y-124968000D01*
X284226000Y-132334000D02*
X291592000Y-124968000D01*
X281976000Y-156285700D02*
X284226000Y-154035700D01*
X284226000Y-154035700D02*
X284226000Y-132334000D01*
%TO.N,/UART2_RXD*%
X269748000Y-144018000D02*
X293878000Y-119888000D01*
X270319500Y-148653500D02*
X269748000Y-148082000D01*
X273685000Y-147320000D02*
X272351500Y-148653500D01*
X269748000Y-148082000D02*
X269748000Y-144018000D01*
X293878000Y-119888000D02*
X297447500Y-119888000D01*
X272351500Y-148653500D02*
X270319500Y-148653500D01*
D47*
%TO.N,Net-(Q1-G)*%
X276287000Y-101981000D02*
X275312001Y-101981000D01*
X274740222Y-101409221D02*
X274740222Y-100435231D01*
X273415000Y-99110009D02*
X273415000Y-97932000D01*
X275312001Y-101981000D02*
X274740222Y-101409221D01*
X274740222Y-100435231D02*
X273415000Y-99110009D01*
D49*
%TO.N,Net-(U1-FB)*%
X266928600Y-101093900D02*
X266928600Y-101930200D01*
X266998400Y-102000000D02*
X267711298Y-102000000D01*
D46*
X265402700Y-99288600D02*
X265402700Y-100607500D01*
D49*
X266928600Y-101930200D02*
X266998400Y-102000000D01*
X267711298Y-102000000D02*
X267712198Y-102000900D01*
X271317100Y-102000900D02*
X271337000Y-101981000D01*
X267712198Y-102000900D02*
X271317100Y-102000900D01*
D46*
X265889100Y-101093900D02*
X266928600Y-101093900D01*
X265402700Y-100607500D02*
X265889100Y-101093900D01*
D45*
%TO.N,Net-(U1-FA{slash}SD)*%
X280670000Y-101320600D02*
X280670000Y-100560540D01*
X276961600Y-100711000D02*
X277723600Y-101473000D01*
X276287000Y-100711000D02*
X276961600Y-100711000D01*
X280517600Y-101473000D02*
X280670000Y-101320600D01*
X277723600Y-101473000D02*
X280517600Y-101473000D01*
D46*
%TO.N,/Power Supply/Q_S*%
X270459200Y-97231200D02*
X270459200Y-95707200D01*
X270916400Y-95250000D02*
X271948500Y-95250000D01*
X267589000Y-97713800D02*
X269976600Y-97713800D01*
X267135600Y-98167200D02*
X267589000Y-97713800D01*
X269976600Y-97713800D02*
X270459200Y-97231200D01*
X267135600Y-99288600D02*
X267135600Y-98167200D01*
X270459200Y-95707200D02*
X270916400Y-95250000D01*
%TD*%
%TA.AperFunction,Conductor*%
%TO.N,/Power Supply/SW*%
G36*
X279212878Y-82061685D02*
G01*
X279233034Y-82077836D01*
X280766196Y-83594149D01*
X280800019Y-83655285D01*
X280803000Y-83682312D01*
X280803000Y-86360000D01*
X283511816Y-86360000D01*
X283578855Y-86379685D01*
X283599011Y-86395836D01*
X283782795Y-86577600D01*
X283816619Y-86638737D01*
X283819600Y-86665764D01*
X283819600Y-91824000D01*
X283799915Y-91891039D01*
X283747111Y-91936794D01*
X283695600Y-91948000D01*
X280803000Y-91948000D01*
X280803000Y-96266000D01*
X280987463Y-96266000D01*
X281054502Y-96285685D01*
X281100257Y-96338489D01*
X281110201Y-96407647D01*
X281085469Y-96465966D01*
X279742481Y-98198586D01*
X279685852Y-98239513D01*
X279643294Y-98246614D01*
X274495022Y-98197583D01*
X274428173Y-98177261D01*
X274382923Y-98124024D01*
X274372211Y-98072182D01*
X274421600Y-93726000D01*
X274421600Y-82166000D01*
X274441285Y-82098961D01*
X274494089Y-82053206D01*
X274545600Y-82042000D01*
X279145839Y-82042000D01*
X279212878Y-82061685D01*
G37*
%TD.AperFunction*%
%TD*%
%TA.AperFunction,Conductor*%
%TO.N,/Power Supply/Q_S*%
G36*
X273440629Y-93575125D02*
G01*
X273529345Y-93589176D01*
X273566230Y-93601161D01*
X273637450Y-93637450D01*
X273668832Y-93660251D01*
X273725348Y-93716767D01*
X273748151Y-93748152D01*
X273784436Y-93819364D01*
X273796425Y-93856262D01*
X273810473Y-93944957D01*
X273812000Y-93964355D01*
X273812000Y-96586444D01*
X273810473Y-96605842D01*
X273796425Y-96694537D01*
X273784436Y-96731435D01*
X273748151Y-96802647D01*
X273725348Y-96834032D01*
X273668832Y-96890548D01*
X273637447Y-96913351D01*
X273566235Y-96949636D01*
X273529337Y-96961625D01*
X273465975Y-96971660D01*
X273440640Y-96975673D01*
X273421244Y-96977200D01*
X271713556Y-96977200D01*
X271694159Y-96975673D01*
X271651306Y-96968886D01*
X271605462Y-96961625D01*
X271568565Y-96949636D01*
X271497351Y-96913350D01*
X271465967Y-96890548D01*
X271409451Y-96834032D01*
X271386650Y-96802650D01*
X271350361Y-96731430D01*
X271338376Y-96694545D01*
X271324325Y-96605829D01*
X271322800Y-96586444D01*
X271322800Y-93964355D01*
X271324324Y-93944971D01*
X271338376Y-93856252D01*
X271350360Y-93819371D01*
X271386651Y-93748146D01*
X271409448Y-93716770D01*
X271465970Y-93660248D01*
X271497346Y-93637451D01*
X271568571Y-93601160D01*
X271605454Y-93589176D01*
X271694169Y-93575125D01*
X271713556Y-93573600D01*
X273421244Y-93573600D01*
X273440629Y-93575125D01*
G37*
%TD.AperFunction*%
%TD*%
%TA.AperFunction,Conductor*%
%TO.N,/Power Supply/V_IN*%
G36*
X297312270Y-86360212D02*
G01*
X297314567Y-86360346D01*
X297375457Y-86363908D01*
X297389828Y-86365596D01*
X297452163Y-86376637D01*
X297459250Y-86378106D01*
X303292155Y-87766894D01*
X303307877Y-87771760D01*
X303441791Y-87823182D01*
X303470624Y-87838914D01*
X303579622Y-87918788D01*
X303603315Y-87941548D01*
X303687501Y-88047238D01*
X303704388Y-88075426D01*
X303757855Y-88199512D01*
X303766745Y-88231145D01*
X303786915Y-88373160D01*
X303788143Y-88389580D01*
X303908889Y-103120509D01*
X303908049Y-103135964D01*
X303892342Y-103269938D01*
X303884949Y-103299938D01*
X303839406Y-103418576D01*
X303824827Y-103445815D01*
X303746848Y-103555893D01*
X303737129Y-103567941D01*
X288998179Y-119669314D01*
X288985431Y-119681399D01*
X288867246Y-119778498D01*
X288837293Y-119796696D01*
X288704831Y-119853353D01*
X288670987Y-119862443D01*
X288568388Y-119874877D01*
X288519133Y-119880847D01*
X288501599Y-119881719D01*
X283744290Y-119780929D01*
X282441660Y-119753331D01*
X277438768Y-119647337D01*
X277422827Y-119645967D01*
X277284969Y-119625088D01*
X277254271Y-119616279D01*
X277133741Y-119564096D01*
X277106316Y-119547741D01*
X277003104Y-119466498D01*
X276980768Y-119443683D01*
X276901736Y-119338782D01*
X276885963Y-119311012D01*
X276836344Y-119189403D01*
X276828187Y-119158526D01*
X276810232Y-119020258D01*
X276809200Y-119004290D01*
X276809200Y-116845844D01*
X276828885Y-116778805D01*
X276845519Y-116758163D01*
X276868030Y-116735652D01*
X276893030Y-116710652D01*
X276986115Y-116559738D01*
X277041887Y-116391426D01*
X277052500Y-116287545D01*
X277052499Y-115661456D01*
X277041887Y-115557574D01*
X276986115Y-115389262D01*
X276986111Y-115389256D01*
X276986110Y-115389253D01*
X276904956Y-115257683D01*
X276886515Y-115190291D01*
X276907437Y-115123627D01*
X276961079Y-115078858D01*
X277030410Y-115070196D01*
X277075589Y-115087046D01*
X277103262Y-115104115D01*
X277271574Y-115159887D01*
X277375455Y-115170500D01*
X278376544Y-115170499D01*
X278480426Y-115159887D01*
X278648738Y-115104115D01*
X278799652Y-115011030D01*
X278922482Y-114888199D01*
X278983801Y-114854717D01*
X279053493Y-114859701D01*
X279109427Y-114901572D01*
X279115694Y-114910780D01*
X279135970Y-114943652D01*
X279261348Y-115069030D01*
X279412262Y-115162115D01*
X279580574Y-115217887D01*
X279684455Y-115228500D01*
X280385544Y-115228499D01*
X280489426Y-115217887D01*
X280657738Y-115162115D01*
X280808652Y-115069030D01*
X280934030Y-114943652D01*
X281027115Y-114792738D01*
X281082887Y-114624426D01*
X281093500Y-114520545D01*
X281093499Y-113819456D01*
X281082887Y-113715574D01*
X281027115Y-113547262D01*
X280934030Y-113396348D01*
X280808652Y-113270970D01*
X280808651Y-113270969D01*
X280782196Y-113254652D01*
X280735471Y-113202705D01*
X280725675Y-113173305D01*
X280718874Y-113139115D01*
X280718874Y-113139110D01*
X280711791Y-113103501D01*
X280707138Y-113080109D01*
X280654446Y-112952899D01*
X280577948Y-112838413D01*
X280577945Y-112838409D01*
X280226587Y-112487051D01*
X280158414Y-112441500D01*
X280158413Y-112441499D01*
X280140741Y-112429691D01*
X280112101Y-112410554D01*
X280112097Y-112410552D01*
X280112095Y-112410551D01*
X280112096Y-112410551D01*
X279984895Y-112357863D01*
X279984883Y-112357860D01*
X279849850Y-112331000D01*
X279849846Y-112331000D01*
X279849845Y-112331000D01*
X277944845Y-112331000D01*
X277581400Y-112331000D01*
X277514361Y-112311315D01*
X277468606Y-112258511D01*
X277457400Y-112207000D01*
X277457400Y-111106954D01*
X277457399Y-111106950D01*
X277451281Y-111076193D01*
X277430538Y-110971909D01*
X277377846Y-110844699D01*
X277301349Y-110730214D01*
X277203986Y-110632851D01*
X277061919Y-110490784D01*
X277028434Y-110429461D01*
X277025600Y-110403103D01*
X277025600Y-110272097D01*
X277045285Y-110205058D01*
X277061919Y-110184416D01*
X277263836Y-109982500D01*
X277479149Y-109767187D01*
X277505333Y-109728000D01*
X277531694Y-109688548D01*
X277538531Y-109678314D01*
X277555646Y-109652701D01*
X277601080Y-109543014D01*
X277601082Y-109543010D01*
X277608336Y-109525497D01*
X277608339Y-109525490D01*
X277635200Y-109390446D01*
X277635200Y-109252754D01*
X277635200Y-108773497D01*
X277654885Y-108706458D01*
X277671518Y-108685817D01*
X277715052Y-108642282D01*
X277776375Y-108608796D01*
X277837327Y-108610885D01*
X277886722Y-108625236D01*
X277898165Y-108628561D01*
X277898169Y-108628562D01*
X277935498Y-108631500D01*
X277935504Y-108631500D01*
X279718496Y-108631500D01*
X279718502Y-108631500D01*
X279755831Y-108628562D01*
X279755833Y-108628561D01*
X279755835Y-108628561D01*
X279816673Y-108610886D01*
X279915601Y-108582145D01*
X280058807Y-108497453D01*
X280176453Y-108379807D01*
X280261145Y-108236601D01*
X280307562Y-108076831D01*
X280310500Y-108039502D01*
X280310500Y-107606498D01*
X280307562Y-107569169D01*
X280261145Y-107409399D01*
X280220237Y-107340227D01*
X280203054Y-107272503D01*
X280225214Y-107206240D01*
X280279680Y-107162477D01*
X280325730Y-107153113D01*
X283210000Y-107124500D01*
X283210000Y-107124157D01*
X283232010Y-107121989D01*
X283243681Y-107120841D01*
X283243682Y-107120840D01*
X283243688Y-107120840D01*
X283312359Y-107092395D01*
X283364918Y-107039836D01*
X283393363Y-106971165D01*
X283397023Y-106934000D01*
X283392856Y-103124000D01*
X285668512Y-103124000D01*
X285687142Y-103360714D01*
X285742572Y-103591595D01*
X285742572Y-103591597D01*
X285833434Y-103810959D01*
X285833436Y-103810962D01*
X285957497Y-104013410D01*
X285957498Y-104013413D01*
X285994351Y-104056562D01*
X286111708Y-104193969D01*
X286251474Y-104313340D01*
X286292263Y-104348178D01*
X286292266Y-104348179D01*
X286494714Y-104472240D01*
X286494717Y-104472242D01*
X286714080Y-104563104D01*
X286714081Y-104563104D01*
X286714083Y-104563105D01*
X286944966Y-104618535D01*
X287181677Y-104637165D01*
X287418388Y-104618535D01*
X287649271Y-104563105D01*
X287649273Y-104563104D01*
X287649274Y-104563104D01*
X287868636Y-104472242D01*
X287868637Y-104472241D01*
X287868640Y-104472240D01*
X288071093Y-104348176D01*
X288251646Y-104193969D01*
X288405853Y-104013416D01*
X288529917Y-103810963D01*
X288543967Y-103777045D01*
X288620781Y-103591597D01*
X288620781Y-103591596D01*
X288620782Y-103591594D01*
X288676212Y-103360711D01*
X288694842Y-103124000D01*
X288676212Y-102887289D01*
X288620782Y-102656406D01*
X288620781Y-102656403D01*
X288620781Y-102656402D01*
X288529919Y-102437040D01*
X288529917Y-102437037D01*
X288405856Y-102234589D01*
X288405855Y-102234586D01*
X288371017Y-102193797D01*
X288270542Y-102076155D01*
X290681677Y-102076155D01*
X290681677Y-102806500D01*
X291792071Y-102806500D01*
X291781578Y-102816993D01*
X291715752Y-102931007D01*
X291681677Y-103058174D01*
X291681677Y-103189826D01*
X291715752Y-103316993D01*
X291781578Y-103431007D01*
X291792071Y-103441500D01*
X290681677Y-103441500D01*
X290681677Y-104171844D01*
X290688078Y-104231372D01*
X290688080Y-104231379D01*
X290738322Y-104366086D01*
X290738326Y-104366093D01*
X290824486Y-104481187D01*
X290824489Y-104481190D01*
X290939583Y-104567350D01*
X290939590Y-104567354D01*
X291074297Y-104617596D01*
X291074304Y-104617598D01*
X291133832Y-104623999D01*
X291133849Y-104624000D01*
X291864177Y-104624000D01*
X291864177Y-103513606D01*
X291874670Y-103524099D01*
X291988684Y-103589925D01*
X292115851Y-103624000D01*
X292247503Y-103624000D01*
X292374670Y-103589925D01*
X292488684Y-103524099D01*
X292499177Y-103513606D01*
X292499177Y-104624000D01*
X293229505Y-104624000D01*
X293229521Y-104623999D01*
X293289049Y-104617598D01*
X293289056Y-104617596D01*
X293423763Y-104567354D01*
X293423770Y-104567350D01*
X293538864Y-104481190D01*
X293538867Y-104481187D01*
X293625027Y-104366093D01*
X293625031Y-104366086D01*
X293675273Y-104231379D01*
X293675275Y-104231372D01*
X293681676Y-104171844D01*
X293681677Y-104171827D01*
X293681677Y-103441500D01*
X292571283Y-103441500D01*
X292581776Y-103431007D01*
X292647602Y-103316993D01*
X292681677Y-103189826D01*
X292681677Y-103058174D01*
X292647602Y-102931007D01*
X292581776Y-102816993D01*
X292571283Y-102806500D01*
X293681677Y-102806500D01*
X293681677Y-102076172D01*
X293681676Y-102076155D01*
X293675275Y-102016627D01*
X293675273Y-102016620D01*
X293625031Y-101881913D01*
X293625027Y-101881906D01*
X293538867Y-101766812D01*
X293538864Y-101766809D01*
X293423770Y-101680649D01*
X293423763Y-101680645D01*
X293289056Y-101630403D01*
X293289049Y-101630401D01*
X293229521Y-101624000D01*
X292499177Y-101624000D01*
X292499177Y-102734394D01*
X292488684Y-102723901D01*
X292374670Y-102658075D01*
X292247503Y-102624000D01*
X292115851Y-102624000D01*
X291988684Y-102658075D01*
X291874670Y-102723901D01*
X291864177Y-102734394D01*
X291864177Y-101624000D01*
X291133832Y-101624000D01*
X291074304Y-101630401D01*
X291074297Y-101630403D01*
X290939590Y-101680645D01*
X290939583Y-101680649D01*
X290824489Y-101766809D01*
X290824486Y-101766812D01*
X290738326Y-101881906D01*
X290738322Y-101881913D01*
X290688080Y-102016620D01*
X290688078Y-102016627D01*
X290681677Y-102076155D01*
X288270542Y-102076155D01*
X288251646Y-102054031D01*
X288100347Y-101924809D01*
X288071090Y-101899821D01*
X288071087Y-101899820D01*
X287868639Y-101775759D01*
X287868636Y-101775757D01*
X287649273Y-101684895D01*
X287418391Y-101629465D01*
X287181677Y-101610835D01*
X286944962Y-101629465D01*
X286714081Y-101684895D01*
X286714079Y-101684895D01*
X286494717Y-101775757D01*
X286494714Y-101775759D01*
X286292266Y-101899820D01*
X286292263Y-101899821D01*
X286111708Y-102054031D01*
X285957498Y-102234586D01*
X285957497Y-102234589D01*
X285833436Y-102437037D01*
X285833434Y-102437040D01*
X285742572Y-102656402D01*
X285742572Y-102656404D01*
X285687142Y-102887285D01*
X285668512Y-103124000D01*
X283392856Y-103124000D01*
X283387800Y-98501200D01*
X283334000Y-98501200D01*
X283266961Y-98481515D01*
X283221206Y-98428711D01*
X283210000Y-98377200D01*
X283210000Y-98175508D01*
X283210160Y-98169202D01*
X283212964Y-98114138D01*
X283214246Y-98101590D01*
X283216006Y-98090142D01*
X283222630Y-98047093D01*
X283223734Y-98040953D01*
X283569645Y-96364936D01*
X283602474Y-96303259D01*
X283663437Y-96269122D01*
X283691086Y-96266000D01*
X284677500Y-96266000D01*
X284744539Y-96285685D01*
X284790294Y-96338489D01*
X284801500Y-96390000D01*
X284801500Y-96517654D01*
X284808011Y-96578202D01*
X284808011Y-96578204D01*
X284859111Y-96715204D01*
X284946739Y-96832261D01*
X285063796Y-96919889D01*
X285200799Y-96970989D01*
X285228050Y-96973918D01*
X285261345Y-96977499D01*
X285261362Y-96977500D01*
X290568638Y-96977500D01*
X290568654Y-96977499D01*
X290595692Y-96974591D01*
X290629201Y-96970989D01*
X290766204Y-96919889D01*
X290883261Y-96832261D01*
X290970889Y-96715204D01*
X291021989Y-96578201D01*
X291025591Y-96544692D01*
X291028499Y-96517654D01*
X291028500Y-96517637D01*
X291028500Y-96390000D01*
X291048185Y-96322961D01*
X291100989Y-96277206D01*
X291152500Y-96266000D01*
X295027000Y-96266000D01*
X295027000Y-91948000D01*
X291849000Y-91948000D01*
X291781961Y-91928315D01*
X291736206Y-91875511D01*
X291725000Y-91824000D01*
X291725000Y-86566418D01*
X291744685Y-86499379D01*
X291797489Y-86453624D01*
X291846187Y-86442450D01*
X295293056Y-86364332D01*
X295476674Y-86360169D01*
X295477379Y-86360156D01*
X295483503Y-86360053D01*
X295484866Y-86360037D01*
X295490170Y-86360006D01*
X295491047Y-86360002D01*
X295491751Y-86360000D01*
X297305029Y-86360000D01*
X297312270Y-86360212D01*
G37*
%TD.AperFunction*%
%TD*%
%TA.AperFunction,Conductor*%
%TO.N,/V_BAT*%
G36*
X275725059Y-107189061D02*
G01*
X275865163Y-107207506D01*
X275896431Y-107215884D01*
X276019418Y-107266827D01*
X276047451Y-107283012D01*
X276088238Y-107314309D01*
X276153063Y-107364050D01*
X276175951Y-107386938D01*
X276256987Y-107492548D01*
X276273172Y-107520581D01*
X276324115Y-107643568D01*
X276332493Y-107674835D01*
X276350939Y-107814939D01*
X276352000Y-107831125D01*
X276352000Y-109045508D01*
X276332315Y-109112547D01*
X276315681Y-109133189D01*
X275868888Y-109579981D01*
X275868884Y-109579987D01*
X275793582Y-109710412D01*
X275793581Y-109710416D01*
X275754600Y-109855895D01*
X275754600Y-110819305D01*
X275793581Y-110964784D01*
X275858572Y-111077351D01*
X275858573Y-111077355D01*
X275868881Y-111095209D01*
X275868887Y-111095217D01*
X276150081Y-111376411D01*
X276183566Y-111437734D01*
X276186400Y-111464092D01*
X276186400Y-112353016D01*
X276166715Y-112420055D01*
X276113911Y-112465810D01*
X276094494Y-112472791D01*
X276004212Y-112496982D01*
X275873787Y-112572284D01*
X275873781Y-112572288D01*
X275386288Y-113059781D01*
X275386284Y-113059787D01*
X275310982Y-113190212D01*
X275310980Y-113190217D01*
X275310672Y-113191368D01*
X275310147Y-113192228D01*
X275307873Y-113197720D01*
X275307016Y-113197365D01*
X275274304Y-113251027D01*
X275225501Y-113278342D01*
X275222982Y-113279074D01*
X275188380Y-113284000D01*
X272542000Y-113284000D01*
X272555650Y-113932362D01*
X273044504Y-137152996D01*
X273043843Y-137168654D01*
X273029471Y-137304476D01*
X273022281Y-137334923D01*
X272977150Y-137455413D01*
X272962569Y-137483089D01*
X272884169Y-137594943D01*
X272874401Y-137607156D01*
X270903726Y-139774899D01*
X268135144Y-142820340D01*
X268135139Y-142820346D01*
X267970000Y-143002000D01*
X267970000Y-143247495D01*
X267970000Y-143247500D01*
X267970000Y-154394654D01*
X267950315Y-154461693D01*
X267944376Y-154470140D01*
X267798942Y-154659673D01*
X267798931Y-154659689D01*
X267645862Y-154924810D01*
X267645854Y-154924826D01*
X267528702Y-155207659D01*
X267449460Y-155503392D01*
X267409501Y-155806913D01*
X267409500Y-155806929D01*
X267409500Y-156113070D01*
X267409501Y-156113086D01*
X267436863Y-156320925D01*
X267449461Y-156416611D01*
X267489382Y-156565599D01*
X267528702Y-156712340D01*
X267645854Y-156995173D01*
X267645862Y-156995189D01*
X267798931Y-157260310D01*
X267798936Y-157260318D01*
X267944376Y-157449858D01*
X267969570Y-157515028D01*
X267970000Y-157525345D01*
X267970000Y-158244500D01*
X267950315Y-158311539D01*
X267897511Y-158357294D01*
X267846000Y-158368500D01*
X252893305Y-158368500D01*
X252826266Y-158348815D01*
X252780511Y-158296011D01*
X252770567Y-158226853D01*
X252799592Y-158163297D01*
X252858370Y-158125523D01*
X252864358Y-158123926D01*
X252997356Y-158091996D01*
X253230031Y-157995619D01*
X253386513Y-157899726D01*
X253386513Y-157899725D01*
X252596349Y-157109560D01*
X252713692Y-157078118D01*
X252839108Y-157005710D01*
X252941510Y-156903308D01*
X253013918Y-156777892D01*
X253045360Y-156660548D01*
X253835525Y-157450713D01*
X253835526Y-157450713D01*
X253931419Y-157294231D01*
X254027796Y-157061556D01*
X254086587Y-156816672D01*
X254106347Y-156565600D01*
X254106347Y-156565594D01*
X256094823Y-156565594D01*
X256094823Y-156565605D01*
X256115096Y-156810274D01*
X256115098Y-156810286D01*
X256175369Y-157048291D01*
X256273994Y-157273131D01*
X256408279Y-157478671D01*
X256408282Y-157478674D01*
X256574569Y-157659310D01*
X256768319Y-157810112D01*
X256933908Y-157899725D01*
X256984249Y-157926968D01*
X257216467Y-158006688D01*
X257458639Y-158047100D01*
X257458640Y-158047100D01*
X257704160Y-158047100D01*
X257704161Y-158047100D01*
X257946333Y-158006688D01*
X258178551Y-157926968D01*
X258394481Y-157810112D01*
X258588231Y-157659310D01*
X258754518Y-157478674D01*
X258888805Y-157273132D01*
X258987430Y-157048291D01*
X259047702Y-156810283D01*
X259055818Y-156712340D01*
X259067977Y-156565605D01*
X259067977Y-156565594D01*
X259047703Y-156320925D01*
X259047701Y-156320913D01*
X258987430Y-156082908D01*
X258888805Y-155858068D01*
X258754520Y-155652528D01*
X258697049Y-155590098D01*
X258588231Y-155471890D01*
X258588226Y-155471886D01*
X258588224Y-155471884D01*
X258500377Y-155403510D01*
X258394481Y-155321088D01*
X258394480Y-155321087D01*
X258178552Y-155204232D01*
X258178547Y-155204230D01*
X257946335Y-155124512D01*
X257784885Y-155097570D01*
X257704161Y-155084100D01*
X257458639Y-155084100D01*
X257398096Y-155094203D01*
X257216464Y-155124512D01*
X256984252Y-155204230D01*
X256984247Y-155204232D01*
X256768319Y-155321087D01*
X256768315Y-155321091D01*
X256574575Y-155471884D01*
X256574572Y-155471887D01*
X256408279Y-155652528D01*
X256273994Y-155858068D01*
X256175369Y-156082908D01*
X256115098Y-156320913D01*
X256115096Y-156320925D01*
X256094823Y-156565594D01*
X254106347Y-156565594D01*
X254086587Y-156314527D01*
X254027796Y-156069643D01*
X253931419Y-155836968D01*
X253835525Y-155680485D01*
X253045360Y-156470650D01*
X253013918Y-156353308D01*
X252941510Y-156227892D01*
X252839108Y-156125490D01*
X252713692Y-156053082D01*
X252596348Y-156021639D01*
X253386513Y-155231473D01*
X253230031Y-155135580D01*
X252997356Y-155039203D01*
X252752472Y-154980412D01*
X252501400Y-154960652D01*
X252250327Y-154980412D01*
X252005443Y-155039203D01*
X251772776Y-155135577D01*
X251772771Y-155135580D01*
X251616285Y-155231473D01*
X252406452Y-156021639D01*
X252289108Y-156053082D01*
X252163692Y-156125490D01*
X252061290Y-156227892D01*
X251988882Y-156353308D01*
X251957439Y-156470651D01*
X251167273Y-155680485D01*
X251071380Y-155836971D01*
X251071377Y-155836976D01*
X250975003Y-156069643D01*
X250916212Y-156314527D01*
X250896452Y-156565600D01*
X250916212Y-156816672D01*
X250975003Y-157061556D01*
X251071380Y-157294231D01*
X251167273Y-157450713D01*
X251957439Y-156660547D01*
X251988882Y-156777892D01*
X252061290Y-156903308D01*
X252163692Y-157005710D01*
X252289108Y-157078118D01*
X252406451Y-157109560D01*
X251616285Y-157899725D01*
X251772768Y-157995619D01*
X252005443Y-158091996D01*
X252138442Y-158123926D01*
X252199034Y-158158717D01*
X252231198Y-158220743D01*
X252224722Y-158290312D01*
X252181663Y-158345336D01*
X252115690Y-158368345D01*
X252109495Y-158368500D01*
X247774000Y-158368500D01*
X247706961Y-158348815D01*
X247661206Y-158296011D01*
X247650000Y-158244500D01*
X247650000Y-148365600D01*
X250896452Y-148365600D01*
X250916212Y-148616672D01*
X250975003Y-148861556D01*
X251071380Y-149094231D01*
X251167273Y-149250713D01*
X251957439Y-148460547D01*
X251988882Y-148577892D01*
X252061290Y-148703308D01*
X252163692Y-148805710D01*
X252289108Y-148878118D01*
X252406451Y-148909560D01*
X251616285Y-149699725D01*
X251772768Y-149795619D01*
X252005443Y-149891996D01*
X252250327Y-149950787D01*
X252501400Y-149970547D01*
X252752472Y-149950787D01*
X252997356Y-149891996D01*
X253230031Y-149795619D01*
X253386513Y-149699726D01*
X253386513Y-149699725D01*
X252596349Y-148909560D01*
X252713692Y-148878118D01*
X252839108Y-148805710D01*
X252941510Y-148703308D01*
X253013918Y-148577892D01*
X253045360Y-148460548D01*
X253835525Y-149250713D01*
X253835526Y-149250713D01*
X253931419Y-149094231D01*
X254027796Y-148861556D01*
X254086587Y-148616672D01*
X254106347Y-148365600D01*
X254106347Y-148365594D01*
X256094823Y-148365594D01*
X256094823Y-148365605D01*
X256115096Y-148610274D01*
X256115098Y-148610286D01*
X256175369Y-148848291D01*
X256273994Y-149073131D01*
X256408279Y-149278671D01*
X256408282Y-149278674D01*
X256574569Y-149459310D01*
X256768319Y-149610112D01*
X256933908Y-149699725D01*
X256984249Y-149726968D01*
X257216467Y-149806688D01*
X257458639Y-149847100D01*
X257458640Y-149847100D01*
X257704160Y-149847100D01*
X257704161Y-149847100D01*
X257946333Y-149806688D01*
X258178551Y-149726968D01*
X258394481Y-149610112D01*
X258588231Y-149459310D01*
X258754518Y-149278674D01*
X258888805Y-149073132D01*
X258987430Y-148848291D01*
X259047702Y-148610283D01*
X259047703Y-148610274D01*
X259067977Y-148365605D01*
X259067977Y-148365594D01*
X259047703Y-148120925D01*
X259047701Y-148120913D01*
X258987430Y-147882908D01*
X258888805Y-147658068D01*
X258754520Y-147452528D01*
X258735610Y-147431987D01*
X258588231Y-147271890D01*
X258588226Y-147271886D01*
X258588224Y-147271884D01*
X258500377Y-147203510D01*
X258394481Y-147121088D01*
X258394480Y-147121087D01*
X258178552Y-147004232D01*
X258178547Y-147004230D01*
X257946335Y-146924512D01*
X257784885Y-146897570D01*
X257704161Y-146884100D01*
X257458639Y-146884100D01*
X257398096Y-146894203D01*
X257216464Y-146924512D01*
X256984252Y-147004230D01*
X256984247Y-147004232D01*
X256768319Y-147121087D01*
X256768315Y-147121091D01*
X256574575Y-147271884D01*
X256574572Y-147271887D01*
X256408279Y-147452528D01*
X256273994Y-147658068D01*
X256175369Y-147882908D01*
X256115098Y-148120913D01*
X256115096Y-148120925D01*
X256094823Y-148365594D01*
X254106347Y-148365594D01*
X254086587Y-148114527D01*
X254027796Y-147869643D01*
X253931419Y-147636968D01*
X253835525Y-147480485D01*
X253045360Y-148270650D01*
X253013918Y-148153308D01*
X252941510Y-148027892D01*
X252839108Y-147925490D01*
X252713692Y-147853082D01*
X252596348Y-147821639D01*
X253386513Y-147031473D01*
X253230031Y-146935580D01*
X252997356Y-146839203D01*
X252752472Y-146780412D01*
X252501400Y-146760652D01*
X252250327Y-146780412D01*
X252005443Y-146839203D01*
X251772776Y-146935577D01*
X251772771Y-146935580D01*
X251616285Y-147031473D01*
X252406452Y-147821639D01*
X252289108Y-147853082D01*
X252163692Y-147925490D01*
X252061290Y-148027892D01*
X251988882Y-148153308D01*
X251957439Y-148270651D01*
X251167273Y-147480485D01*
X251071380Y-147636971D01*
X251071377Y-147636976D01*
X250975003Y-147869643D01*
X250916212Y-148114527D01*
X250896452Y-148365600D01*
X247650000Y-148365600D01*
X247650000Y-125800224D01*
X268470500Y-125800224D01*
X268470500Y-127927775D01*
X268473317Y-127963569D01*
X268473319Y-127963580D01*
X268517830Y-128116787D01*
X268517832Y-128116793D01*
X268599049Y-128254124D01*
X268599055Y-128254132D01*
X268711867Y-128366944D01*
X268711871Y-128366947D01*
X268711873Y-128366949D01*
X268849208Y-128448168D01*
X269002426Y-128492682D01*
X269038230Y-128495500D01*
X269102189Y-128495500D01*
X269169228Y-128515185D01*
X269214983Y-128567989D01*
X269225409Y-128633384D01*
X269209115Y-128777997D01*
X269209115Y-128778003D01*
X269228992Y-128954425D01*
X269228993Y-128954431D01*
X269287634Y-129122019D01*
X269287635Y-129122020D01*
X269382098Y-129272356D01*
X269507644Y-129397902D01*
X269657980Y-129492365D01*
X269825566Y-129551006D01*
X269825572Y-129551006D01*
X269825574Y-129551007D01*
X270001996Y-129570885D01*
X270002000Y-129570885D01*
X270002004Y-129570885D01*
X270178425Y-129551007D01*
X270178424Y-129551007D01*
X270178434Y-129551006D01*
X270346020Y-129492365D01*
X270496356Y-129397902D01*
X270621902Y-129272356D01*
X270716365Y-129122020D01*
X270775006Y-128954434D01*
X270794885Y-128778000D01*
X270778591Y-128633384D01*
X270790645Y-128564562D01*
X270837994Y-128513182D01*
X270901811Y-128495500D01*
X270965764Y-128495500D01*
X270965770Y-128495500D01*
X271001574Y-128492682D01*
X271154792Y-128448168D01*
X271292127Y-128366949D01*
X271404949Y-128254127D01*
X271486168Y-128116792D01*
X271530682Y-127963574D01*
X271533500Y-127927770D01*
X271533500Y-125800230D01*
X271530682Y-125764426D01*
X271486168Y-125611208D01*
X271404949Y-125473873D01*
X271404947Y-125473871D01*
X271404944Y-125473867D01*
X271292132Y-125361055D01*
X271292124Y-125361049D01*
X271154793Y-125279832D01*
X271154787Y-125279830D01*
X271001580Y-125235319D01*
X271001569Y-125235317D01*
X270965775Y-125232500D01*
X270965770Y-125232500D01*
X269038230Y-125232500D01*
X269038224Y-125232500D01*
X269002430Y-125235317D01*
X269002419Y-125235319D01*
X268849212Y-125279830D01*
X268849206Y-125279832D01*
X268711875Y-125361049D01*
X268711867Y-125361055D01*
X268599055Y-125473867D01*
X268599049Y-125473875D01*
X268517832Y-125611206D01*
X268517830Y-125611212D01*
X268473319Y-125764419D01*
X268473317Y-125764430D01*
X268470500Y-125800224D01*
X247650000Y-125800224D01*
X247650000Y-113995274D01*
X247650940Y-113980034D01*
X247667298Y-113847949D01*
X247674733Y-113818390D01*
X247720041Y-113701466D01*
X247734456Y-113674628D01*
X247806920Y-113572286D01*
X247827455Y-113549769D01*
X247922687Y-113468206D01*
X247948095Y-113451376D01*
X248067257Y-113392075D01*
X248081312Y-113386129D01*
X265576684Y-107225787D01*
X265586697Y-107222731D01*
X265675376Y-107199716D01*
X265696030Y-107196186D01*
X265787297Y-107188444D01*
X265797779Y-107188000D01*
X275708874Y-107188000D01*
X275725059Y-107189061D01*
G37*
%TD.AperFunction*%
%TD*%
%TA.AperFunction,Conductor*%
%TO.N,/+18V_OUT*%
G36*
X271762659Y-82043061D02*
G01*
X271902763Y-82061506D01*
X271934031Y-82069884D01*
X272057018Y-82120827D01*
X272085051Y-82137012D01*
X272125838Y-82168309D01*
X272190663Y-82218050D01*
X272213551Y-82240938D01*
X272294587Y-82346548D01*
X272310772Y-82374581D01*
X272361715Y-82497568D01*
X272370093Y-82528835D01*
X272388539Y-82668939D01*
X272389600Y-82685125D01*
X272389600Y-92168474D01*
X272388539Y-92184660D01*
X272370093Y-92324764D01*
X272361715Y-92356031D01*
X272310772Y-92479018D01*
X272294587Y-92507051D01*
X272213551Y-92612661D01*
X272190661Y-92635551D01*
X272085051Y-92716587D01*
X272057018Y-92732772D01*
X271934031Y-92783715D01*
X271902764Y-92792093D01*
X271778225Y-92808489D01*
X271762658Y-92810539D01*
X271746474Y-92811600D01*
X265438228Y-92811600D01*
X265421840Y-92810512D01*
X264667999Y-92709999D01*
X264659146Y-92717750D01*
X264648315Y-92754639D01*
X264595511Y-92800394D01*
X264544000Y-92811600D01*
X263906000Y-92811600D01*
X263906000Y-93446600D01*
X263906000Y-93446606D01*
X263906000Y-97920000D01*
X263886315Y-97987039D01*
X263833511Y-98032794D01*
X263782000Y-98044000D01*
X262636000Y-98044000D01*
X262636000Y-100330000D01*
X263464500Y-100330000D01*
X263531539Y-100349685D01*
X263577294Y-100402489D01*
X263588500Y-100454000D01*
X263588500Y-106933999D01*
X263592158Y-106971158D01*
X263592160Y-106971164D01*
X263620605Y-107039837D01*
X263673162Y-107092394D01*
X263673163Y-107092394D01*
X263673164Y-107092395D01*
X263741835Y-107120840D01*
X263741839Y-107120840D01*
X263741841Y-107120841D01*
X263771791Y-107123790D01*
X263779000Y-107124500D01*
X263782000Y-107124500D01*
X263849039Y-107144185D01*
X263894794Y-107196989D01*
X263906000Y-107248500D01*
X263906000Y-107316495D01*
X263886315Y-107383534D01*
X263833511Y-107429289D01*
X263823184Y-107433456D01*
X247952963Y-113021562D01*
X247930718Y-113030174D01*
X247916649Y-113036126D01*
X247895066Y-113046050D01*
X247775895Y-113105356D01*
X247775892Y-113105357D01*
X247734647Y-113129160D01*
X247734645Y-113129161D01*
X247709266Y-113145972D01*
X247709252Y-113145982D01*
X247671269Y-113174656D01*
X247584915Y-113248616D01*
X247521193Y-113277274D01*
X247452093Y-113266931D01*
X247418613Y-113244111D01*
X247408188Y-113234155D01*
X247377526Y-113204872D01*
X247367362Y-113193919D01*
X236114830Y-99495184D01*
X236106461Y-99483714D01*
X236039309Y-99379649D01*
X236026758Y-99354217D01*
X235987421Y-99244356D01*
X235980977Y-99216736D01*
X235966814Y-99093703D01*
X235966000Y-99079522D01*
X235966000Y-97479999D01*
X256623438Y-97479999D01*
X256623438Y-97480000D01*
X256643640Y-97698029D01*
X256703563Y-97908633D01*
X256703567Y-97908642D01*
X256801159Y-98104634D01*
X256801166Y-98104646D01*
X256845752Y-98163687D01*
X256933120Y-98279382D01*
X257094937Y-98426897D01*
X257281104Y-98542167D01*
X257281105Y-98542167D01*
X257281106Y-98542168D01*
X257324360Y-98558924D01*
X257485282Y-98621266D01*
X257700518Y-98661500D01*
X257700521Y-98661500D01*
X257919479Y-98661500D01*
X257919482Y-98661500D01*
X258134718Y-98621266D01*
X258338896Y-98542167D01*
X258525063Y-98426897D01*
X258686880Y-98279382D01*
X258818835Y-98104644D01*
X258916436Y-97908636D01*
X258976359Y-97698030D01*
X258996562Y-97480000D01*
X258976359Y-97261970D01*
X258916436Y-97051364D01*
X258841812Y-96901500D01*
X258818840Y-96855365D01*
X258818833Y-96855353D01*
X258795638Y-96824638D01*
X258686880Y-96680618D01*
X258525063Y-96533103D01*
X258338896Y-96417833D01*
X258338894Y-96417832D01*
X258338893Y-96417831D01*
X258177974Y-96355491D01*
X258134718Y-96338734D01*
X257919482Y-96298500D01*
X257700518Y-96298500D01*
X257485282Y-96338734D01*
X257485279Y-96338734D01*
X257485279Y-96338735D01*
X257281106Y-96417831D01*
X257281105Y-96417832D01*
X257094941Y-96533100D01*
X257094939Y-96533101D01*
X257094937Y-96533103D01*
X257010563Y-96610020D01*
X256933121Y-96680617D01*
X256801166Y-96855353D01*
X256801159Y-96855365D01*
X256703567Y-97051357D01*
X256703563Y-97051366D01*
X256643640Y-97261970D01*
X256623438Y-97479999D01*
X235966000Y-97479999D01*
X235966000Y-94827844D01*
X256510000Y-94827844D01*
X256516401Y-94887372D01*
X256516403Y-94887379D01*
X256566645Y-95022086D01*
X256566649Y-95022093D01*
X256652809Y-95137187D01*
X256652812Y-95137190D01*
X256767906Y-95223350D01*
X256767913Y-95223354D01*
X256902620Y-95273596D01*
X256902627Y-95273598D01*
X256962155Y-95279999D01*
X256962172Y-95280000D01*
X257492500Y-95280000D01*
X258127500Y-95280000D01*
X258657828Y-95280000D01*
X258657844Y-95279999D01*
X258717372Y-95273598D01*
X258717379Y-95273596D01*
X258852086Y-95223354D01*
X258852093Y-95223350D01*
X258967187Y-95137190D01*
X258967190Y-95137187D01*
X259053350Y-95022093D01*
X259053354Y-95022086D01*
X259103596Y-94887379D01*
X259103598Y-94887372D01*
X259109999Y-94827844D01*
X259110000Y-94827827D01*
X259110000Y-94297500D01*
X258127500Y-94297500D01*
X258127500Y-95280000D01*
X257492500Y-95280000D01*
X257492500Y-94297500D01*
X256510000Y-94297500D01*
X256510000Y-94827844D01*
X235966000Y-94827844D01*
X235966000Y-93927339D01*
X257410000Y-93927339D01*
X257410000Y-94032661D01*
X257437259Y-94134394D01*
X257489920Y-94225606D01*
X257564394Y-94300080D01*
X257655606Y-94352741D01*
X257757339Y-94380000D01*
X257862661Y-94380000D01*
X257964394Y-94352741D01*
X258055606Y-94300080D01*
X258130080Y-94225606D01*
X258182741Y-94134394D01*
X258210000Y-94032661D01*
X258210000Y-93927339D01*
X258182741Y-93825606D01*
X258130080Y-93734394D01*
X258058186Y-93662500D01*
X258127500Y-93662500D01*
X259110000Y-93662500D01*
X259110000Y-93132172D01*
X259109999Y-93132155D01*
X259103598Y-93072627D01*
X259103596Y-93072620D01*
X259053354Y-92937913D01*
X259053350Y-92937906D01*
X258967190Y-92822812D01*
X258967187Y-92822809D01*
X258852093Y-92736649D01*
X258852086Y-92736645D01*
X258717379Y-92686403D01*
X258717372Y-92686401D01*
X258657844Y-92680000D01*
X258127500Y-92680000D01*
X258127500Y-93662500D01*
X258058186Y-93662500D01*
X258055606Y-93659920D01*
X257964394Y-93607259D01*
X257862661Y-93580000D01*
X257757339Y-93580000D01*
X257655606Y-93607259D01*
X257564394Y-93659920D01*
X257489920Y-93734394D01*
X257437259Y-93825606D01*
X257410000Y-93927339D01*
X235966000Y-93927339D01*
X235966000Y-93132155D01*
X256510000Y-93132155D01*
X256510000Y-93662500D01*
X257492500Y-93662500D01*
X257492500Y-92680000D01*
X256962155Y-92680000D01*
X256902627Y-92686401D01*
X256902620Y-92686403D01*
X256767913Y-92736645D01*
X256767906Y-92736649D01*
X256652812Y-92822809D01*
X256652809Y-92822812D01*
X256566649Y-92937906D01*
X256566645Y-92937913D01*
X256516403Y-93072620D01*
X256516401Y-93072627D01*
X256510000Y-93132155D01*
X235966000Y-93132155D01*
X235966000Y-90594194D01*
X237810870Y-90594194D01*
X237810870Y-90594205D01*
X237829357Y-90817309D01*
X237884316Y-91034340D01*
X237974246Y-91239360D01*
X238012963Y-91298621D01*
X238584145Y-90727441D01*
X238610177Y-90824595D01*
X238688761Y-90960705D01*
X238799895Y-91071839D01*
X238936005Y-91150423D01*
X239033157Y-91176454D01*
X238461080Y-91748531D01*
X238621888Y-91835557D01*
X238621897Y-91835560D01*
X238833633Y-91908250D01*
X239054462Y-91945100D01*
X239278338Y-91945100D01*
X239499166Y-91908250D01*
X239710902Y-91835560D01*
X239710910Y-91835557D01*
X239871718Y-91748531D01*
X239299642Y-91176454D01*
X239396795Y-91150423D01*
X239532905Y-91071839D01*
X239644039Y-90960705D01*
X239722623Y-90824595D01*
X239748654Y-90727442D01*
X240319834Y-91298622D01*
X240358554Y-91239358D01*
X240358555Y-91239356D01*
X240448483Y-91034340D01*
X240503442Y-90817309D01*
X240521930Y-90594205D01*
X240521930Y-90594197D01*
X242929292Y-90594197D01*
X242929292Y-90594202D01*
X242948085Y-90809016D01*
X242948086Y-90809023D01*
X243003900Y-91017319D01*
X243095032Y-91212752D01*
X243095033Y-91212754D01*
X243218721Y-91389400D01*
X243371199Y-91541878D01*
X243371202Y-91541880D01*
X243547846Y-91665567D01*
X243743284Y-91756701D01*
X243951578Y-91812514D01*
X244105022Y-91825938D01*
X244166398Y-91831308D01*
X244166400Y-91831308D01*
X244166402Y-91831308D01*
X244220105Y-91826609D01*
X244381222Y-91812514D01*
X244589516Y-91756701D01*
X244784954Y-91665567D01*
X244961598Y-91541880D01*
X245114080Y-91389398D01*
X245237767Y-91212754D01*
X245328901Y-91017316D01*
X245384714Y-90809022D01*
X245403508Y-90594200D01*
X245403507Y-90594194D01*
X245396460Y-90513641D01*
X245384714Y-90379378D01*
X245328901Y-90171084D01*
X245237767Y-89975646D01*
X245114080Y-89799002D01*
X245114078Y-89798999D01*
X244961600Y-89646521D01*
X244784954Y-89522833D01*
X244784952Y-89522832D01*
X244589519Y-89431700D01*
X244589516Y-89431699D01*
X244501486Y-89408111D01*
X244381223Y-89375886D01*
X244381216Y-89375885D01*
X244166402Y-89357092D01*
X244166398Y-89357092D01*
X243951583Y-89375885D01*
X243951576Y-89375886D01*
X243743280Y-89431700D01*
X243547847Y-89522832D01*
X243547845Y-89522833D01*
X243371199Y-89646521D01*
X243218721Y-89798999D01*
X243095033Y-89975645D01*
X243095032Y-89975647D01*
X243003900Y-90171080D01*
X242948086Y-90379376D01*
X242948085Y-90379383D01*
X242929292Y-90594197D01*
X240521930Y-90594197D01*
X240521930Y-90594194D01*
X240503442Y-90371090D01*
X240448483Y-90154059D01*
X240358554Y-89949042D01*
X240319834Y-89889776D01*
X239748654Y-90460956D01*
X239722623Y-90363805D01*
X239644039Y-90227695D01*
X239532905Y-90116561D01*
X239396795Y-90037977D01*
X239299642Y-90011945D01*
X239871719Y-89439867D01*
X239871718Y-89439866D01*
X239710916Y-89352845D01*
X239710902Y-89352839D01*
X239499166Y-89280149D01*
X239278338Y-89243300D01*
X239054462Y-89243300D01*
X238833633Y-89280149D01*
X238621894Y-89352840D01*
X238621883Y-89352845D01*
X238461079Y-89439867D01*
X239033158Y-90011945D01*
X238936005Y-90037977D01*
X238799895Y-90116561D01*
X238688761Y-90227695D01*
X238610177Y-90363805D01*
X238584145Y-90460957D01*
X238012964Y-89889777D01*
X237974245Y-89949042D01*
X237974244Y-89949044D01*
X237884316Y-90154059D01*
X237829357Y-90371090D01*
X237810870Y-90594194D01*
X235966000Y-90594194D01*
X235966000Y-88285199D01*
X256623438Y-88285199D01*
X256623438Y-88285200D01*
X256643640Y-88503229D01*
X256703563Y-88713833D01*
X256703567Y-88713842D01*
X256801159Y-88909834D01*
X256801166Y-88909846D01*
X256845752Y-88968887D01*
X256933120Y-89084582D01*
X257094937Y-89232097D01*
X257281104Y-89347367D01*
X257281105Y-89347367D01*
X257281106Y-89347368D01*
X257295231Y-89352840D01*
X257485282Y-89426466D01*
X257700518Y-89466700D01*
X257700521Y-89466700D01*
X257919479Y-89466700D01*
X257919482Y-89466700D01*
X258134718Y-89426466D01*
X258338896Y-89347367D01*
X258525063Y-89232097D01*
X258686880Y-89084582D01*
X258818835Y-88909844D01*
X258916436Y-88713836D01*
X258976359Y-88503230D01*
X258996562Y-88285200D01*
X258976359Y-88067170D01*
X258916436Y-87856564D01*
X258867830Y-87758951D01*
X258818840Y-87660565D01*
X258818833Y-87660553D01*
X258795638Y-87629838D01*
X258686880Y-87485818D01*
X258525063Y-87338303D01*
X258338896Y-87223033D01*
X258338894Y-87223032D01*
X258338893Y-87223031D01*
X258177974Y-87160691D01*
X258134718Y-87143934D01*
X257919482Y-87103700D01*
X257700518Y-87103700D01*
X257485282Y-87143934D01*
X257485279Y-87143934D01*
X257485279Y-87143935D01*
X257281106Y-87223031D01*
X257281105Y-87223032D01*
X257094941Y-87338300D01*
X257094939Y-87338301D01*
X257094937Y-87338303D01*
X256952583Y-87468074D01*
X256933121Y-87485817D01*
X256801166Y-87660553D01*
X256801159Y-87660565D01*
X256703567Y-87856557D01*
X256703563Y-87856566D01*
X256643640Y-88067170D01*
X256623438Y-88285199D01*
X235966000Y-88285199D01*
X235966000Y-85594194D01*
X237810870Y-85594194D01*
X237810870Y-85594205D01*
X237829357Y-85817309D01*
X237884316Y-86034340D01*
X237974246Y-86239360D01*
X238012963Y-86298621D01*
X238584145Y-85727441D01*
X238610177Y-85824595D01*
X238688761Y-85960705D01*
X238799895Y-86071839D01*
X238936005Y-86150423D01*
X239033157Y-86176454D01*
X238461080Y-86748531D01*
X238621888Y-86835557D01*
X238621897Y-86835560D01*
X238833633Y-86908250D01*
X239054462Y-86945100D01*
X239278338Y-86945100D01*
X239499166Y-86908250D01*
X239710902Y-86835560D01*
X239710910Y-86835557D01*
X239871718Y-86748531D01*
X239299642Y-86176454D01*
X239396795Y-86150423D01*
X239532905Y-86071839D01*
X239644039Y-85960705D01*
X239722623Y-85824595D01*
X239748654Y-85727442D01*
X240319834Y-86298622D01*
X240358554Y-86239358D01*
X240358555Y-86239356D01*
X240448483Y-86034340D01*
X240503442Y-85817309D01*
X240521930Y-85594205D01*
X240521930Y-85594197D01*
X242929292Y-85594197D01*
X242929292Y-85594202D01*
X242948085Y-85809016D01*
X242948086Y-85809023D01*
X243003900Y-86017319D01*
X243095032Y-86212752D01*
X243095033Y-86212754D01*
X243218721Y-86389400D01*
X243371199Y-86541878D01*
X243371202Y-86541880D01*
X243547846Y-86665567D01*
X243743284Y-86756701D01*
X243951578Y-86812514D01*
X244105022Y-86825938D01*
X244166398Y-86831308D01*
X244166400Y-86831308D01*
X244166402Y-86831308D01*
X244220105Y-86826609D01*
X244381222Y-86812514D01*
X244589516Y-86756701D01*
X244784954Y-86665567D01*
X244961598Y-86541880D01*
X245114080Y-86389398D01*
X245237767Y-86212754D01*
X245328901Y-86017316D01*
X245384714Y-85809022D01*
X245400110Y-85633044D01*
X256510000Y-85633044D01*
X256516401Y-85692572D01*
X256516403Y-85692579D01*
X256566645Y-85827286D01*
X256566649Y-85827293D01*
X256652809Y-85942387D01*
X256652812Y-85942390D01*
X256767906Y-86028550D01*
X256767913Y-86028554D01*
X256902620Y-86078796D01*
X256902627Y-86078798D01*
X256962155Y-86085199D01*
X256962172Y-86085200D01*
X257492500Y-86085200D01*
X258127500Y-86085200D01*
X258657828Y-86085200D01*
X258657844Y-86085199D01*
X258717372Y-86078798D01*
X258717379Y-86078796D01*
X258852086Y-86028554D01*
X258852093Y-86028550D01*
X258967187Y-85942390D01*
X258967190Y-85942387D01*
X259053350Y-85827293D01*
X259053354Y-85827286D01*
X259103596Y-85692579D01*
X259103598Y-85692572D01*
X259109999Y-85633044D01*
X259110000Y-85633027D01*
X259110000Y-85102700D01*
X258127500Y-85102700D01*
X258127500Y-86085200D01*
X257492500Y-86085200D01*
X257492500Y-85102700D01*
X256510000Y-85102700D01*
X256510000Y-85633044D01*
X245400110Y-85633044D01*
X245403508Y-85594200D01*
X245403507Y-85594194D01*
X245396460Y-85513641D01*
X245384714Y-85379378D01*
X245328901Y-85171084D01*
X245237767Y-84975646D01*
X245114080Y-84799002D01*
X245114078Y-84798999D01*
X245047618Y-84732539D01*
X257410000Y-84732539D01*
X257410000Y-84837861D01*
X257437259Y-84939594D01*
X257489920Y-85030806D01*
X257564394Y-85105280D01*
X257655606Y-85157941D01*
X257757339Y-85185200D01*
X257862661Y-85185200D01*
X257964394Y-85157941D01*
X258055606Y-85105280D01*
X258130080Y-85030806D01*
X258182741Y-84939594D01*
X258210000Y-84837861D01*
X258210000Y-84732539D01*
X258182741Y-84630806D01*
X258130080Y-84539594D01*
X258058186Y-84467700D01*
X258127500Y-84467700D01*
X259110000Y-84467700D01*
X259110000Y-83937372D01*
X259109999Y-83937355D01*
X259103598Y-83877827D01*
X259103596Y-83877820D01*
X259053354Y-83743113D01*
X259053350Y-83743106D01*
X258967190Y-83628012D01*
X258967187Y-83628009D01*
X258852093Y-83541849D01*
X258852086Y-83541845D01*
X258717379Y-83491603D01*
X258717372Y-83491601D01*
X258657844Y-83485200D01*
X258127500Y-83485200D01*
X258127500Y-84467700D01*
X258058186Y-84467700D01*
X258055606Y-84465120D01*
X257964394Y-84412459D01*
X257862661Y-84385200D01*
X257757339Y-84385200D01*
X257655606Y-84412459D01*
X257564394Y-84465120D01*
X257489920Y-84539594D01*
X257437259Y-84630806D01*
X257410000Y-84732539D01*
X245047618Y-84732539D01*
X244961600Y-84646521D01*
X244784954Y-84522833D01*
X244784952Y-84522832D01*
X244589519Y-84431700D01*
X244589516Y-84431699D01*
X244501486Y-84408111D01*
X244381223Y-84375886D01*
X244381216Y-84375885D01*
X244166402Y-84357092D01*
X244166398Y-84357092D01*
X243951583Y-84375885D01*
X243951576Y-84375886D01*
X243743280Y-84431700D01*
X243547847Y-84522832D01*
X243547845Y-84522833D01*
X243371199Y-84646521D01*
X243218721Y-84798999D01*
X243095033Y-84975645D01*
X243095032Y-84975647D01*
X243003900Y-85171080D01*
X242948086Y-85379376D01*
X242948085Y-85379383D01*
X242929292Y-85594197D01*
X240521930Y-85594197D01*
X240521930Y-85594194D01*
X240503442Y-85371090D01*
X240448483Y-85154059D01*
X240358554Y-84949042D01*
X240319834Y-84889776D01*
X239748654Y-85460956D01*
X239722623Y-85363805D01*
X239644039Y-85227695D01*
X239532905Y-85116561D01*
X239396795Y-85037977D01*
X239299642Y-85011945D01*
X239871719Y-84439867D01*
X239871718Y-84439866D01*
X239710916Y-84352845D01*
X239710902Y-84352839D01*
X239499166Y-84280149D01*
X239278338Y-84243300D01*
X239054462Y-84243300D01*
X238833633Y-84280149D01*
X238621894Y-84352840D01*
X238621883Y-84352845D01*
X238461079Y-84439867D01*
X239033158Y-85011945D01*
X238936005Y-85037977D01*
X238799895Y-85116561D01*
X238688761Y-85227695D01*
X238610177Y-85363805D01*
X238584145Y-85460957D01*
X238012964Y-84889777D01*
X237974245Y-84949042D01*
X237974244Y-84949044D01*
X237884316Y-85154059D01*
X237829357Y-85371090D01*
X237810870Y-85594194D01*
X235966000Y-85594194D01*
X235966000Y-83937355D01*
X256510000Y-83937355D01*
X256510000Y-84467700D01*
X257492500Y-84467700D01*
X257492500Y-83485200D01*
X256962155Y-83485200D01*
X256902627Y-83491601D01*
X256902620Y-83491603D01*
X256767913Y-83541845D01*
X256767906Y-83541849D01*
X256652812Y-83628009D01*
X256652809Y-83628012D01*
X256566649Y-83743106D01*
X256566645Y-83743113D01*
X256516403Y-83877820D01*
X256516401Y-83877827D01*
X256510000Y-83937355D01*
X235966000Y-83937355D01*
X235966000Y-82685125D01*
X235967061Y-82668940D01*
X235985506Y-82528836D01*
X235993884Y-82497568D01*
X236044827Y-82374581D01*
X236061012Y-82346548D01*
X236142053Y-82240932D01*
X236164932Y-82218053D01*
X236270549Y-82137010D01*
X236298579Y-82120827D01*
X236421569Y-82069883D01*
X236452835Y-82061506D01*
X236592941Y-82043061D01*
X236609126Y-82042000D01*
X271746474Y-82042000D01*
X271762659Y-82043061D01*
G37*
%TD.AperFunction*%
%TD*%
M02*
