%TF.GenerationSoftware,KiCad,Pcbnew,8.0.7-8.0.7-0~ubuntu22.04.1*%
%TF.CreationDate,2025-01-13T16:38:10-08:00*%
%TF.ProjectId,NX-J401-Adapter,4e582d4a-3430-4312-9d41-646170746572,4*%
%TF.SameCoordinates,Original*%
%TF.FileFunction,Soldermask,Bot*%
%TF.FilePolarity,Negative*%
%FSLAX46Y46*%
G04 Gerber Fmt 4.6, Leading zero omitted, Abs format (unit mm)*
G04 Created by KiCad (PCBNEW 8.0.7-8.0.7-0~ubuntu22.04.1) date 2025-01-13 16:38:10*
%MOMM*%
%LPD*%
G01*
G04 APERTURE LIST*
%ADD10C,0.300000*%
%ADD11C,2.700000*%
%ADD12R,1.600000X1.600000*%
%ADD13C,1.600000*%
%ADD14C,1.498600*%
%ADD15C,1.803400*%
%ADD16C,2.200000*%
%ADD17C,3.400000*%
%ADD18R,1.778000X1.778000*%
%ADD19C,1.905000*%
%ADD20C,1.778000*%
%ADD21R,2.000000X2.000000*%
%ADD22C,2.000000*%
%ADD23C,1.701800*%
G04 APERTURE END LIST*
D10*
X33217368Y-104245474D02*
X33471368Y-104330141D01*
X33471368Y-104330141D02*
X33556034Y-104414807D01*
X33556034Y-104414807D02*
X33640701Y-104584141D01*
X33640701Y-104584141D02*
X33640701Y-104838141D01*
X33640701Y-104838141D02*
X33556034Y-105007474D01*
X33556034Y-105007474D02*
X33471368Y-105092141D01*
X33471368Y-105092141D02*
X33302034Y-105176807D01*
X33302034Y-105176807D02*
X32624701Y-105176807D01*
X32624701Y-105176807D02*
X32624701Y-103398807D01*
X32624701Y-103398807D02*
X33217368Y-103398807D01*
X33217368Y-103398807D02*
X33386701Y-103483474D01*
X33386701Y-103483474D02*
X33471368Y-103568141D01*
X33471368Y-103568141D02*
X33556034Y-103737474D01*
X33556034Y-103737474D02*
X33556034Y-103906807D01*
X33556034Y-103906807D02*
X33471368Y-104076141D01*
X33471368Y-104076141D02*
X33386701Y-104160807D01*
X33386701Y-104160807D02*
X33217368Y-104245474D01*
X33217368Y-104245474D02*
X32624701Y-104245474D01*
X34402701Y-105007474D02*
X34487368Y-105092141D01*
X34487368Y-105092141D02*
X34402701Y-105176807D01*
X34402701Y-105176807D02*
X34318034Y-105092141D01*
X34318034Y-105092141D02*
X34402701Y-105007474D01*
X34402701Y-105007474D02*
X34402701Y-105176807D01*
X35249368Y-105176807D02*
X35249368Y-103398807D01*
X35249368Y-103398807D02*
X35842035Y-104668807D01*
X35842035Y-104668807D02*
X36434701Y-103398807D01*
X36434701Y-103398807D02*
X36434701Y-105176807D01*
X38043368Y-105176807D02*
X38043368Y-104245474D01*
X38043368Y-104245474D02*
X37958701Y-104076141D01*
X37958701Y-104076141D02*
X37789368Y-103991474D01*
X37789368Y-103991474D02*
X37450701Y-103991474D01*
X37450701Y-103991474D02*
X37281368Y-104076141D01*
X38043368Y-105092141D02*
X37874035Y-105176807D01*
X37874035Y-105176807D02*
X37450701Y-105176807D01*
X37450701Y-105176807D02*
X37281368Y-105092141D01*
X37281368Y-105092141D02*
X37196701Y-104922807D01*
X37196701Y-104922807D02*
X37196701Y-104753474D01*
X37196701Y-104753474D02*
X37281368Y-104584141D01*
X37281368Y-104584141D02*
X37450701Y-104499474D01*
X37450701Y-104499474D02*
X37874035Y-104499474D01*
X37874035Y-104499474D02*
X38043368Y-104414807D01*
X38805368Y-105092141D02*
X38974702Y-105176807D01*
X38974702Y-105176807D02*
X39313368Y-105176807D01*
X39313368Y-105176807D02*
X39482702Y-105092141D01*
X39482702Y-105092141D02*
X39567368Y-104922807D01*
X39567368Y-104922807D02*
X39567368Y-104838141D01*
X39567368Y-104838141D02*
X39482702Y-104668807D01*
X39482702Y-104668807D02*
X39313368Y-104584141D01*
X39313368Y-104584141D02*
X39059368Y-104584141D01*
X39059368Y-104584141D02*
X38890035Y-104499474D01*
X38890035Y-104499474D02*
X38805368Y-104330141D01*
X38805368Y-104330141D02*
X38805368Y-104245474D01*
X38805368Y-104245474D02*
X38890035Y-104076141D01*
X38890035Y-104076141D02*
X39059368Y-103991474D01*
X39059368Y-103991474D02*
X39313368Y-103991474D01*
X39313368Y-103991474D02*
X39482702Y-104076141D01*
X40329368Y-105176807D02*
X40329368Y-103398807D01*
X40498701Y-104499474D02*
X41006701Y-105176807D01*
X41006701Y-103991474D02*
X40329368Y-104668807D01*
D11*
%TO.C,H1*%
X229000000Y-84000000D03*
%TD*%
D12*
%TO.C,C2*%
X257810000Y-93980000D03*
D13*
X257810000Y-97480000D03*
%TD*%
D14*
%TO.C,SW2*%
X291628000Y-156285700D03*
X296128001Y-156285700D03*
D15*
X290378001Y-153785824D03*
X297378000Y-153785824D03*
%TD*%
D12*
%TO.C,C1*%
X257810000Y-84785200D03*
D13*
X257810000Y-88285200D03*
%TD*%
D16*
%TO.C,J4*%
X252501400Y-148365600D03*
X252501400Y-156565600D03*
X257581400Y-148365600D03*
X257581400Y-156565600D03*
%TD*%
D17*
%TO.C,J3*%
X277625000Y-155960000D03*
X269745000Y-155960000D03*
D18*
X276225000Y-147320000D03*
D19*
X273685000Y-147320000D03*
D20*
X271145000Y-147320000D03*
%TD*%
D14*
%TO.C,SW1*%
X281976000Y-156285700D03*
X286476001Y-156285700D03*
D15*
X280726001Y-153785824D03*
X287726000Y-153785824D03*
%TD*%
D17*
%TO.C,J2*%
X306087500Y-115948000D03*
X306087500Y-131448000D03*
D18*
X297447500Y-117348000D03*
D19*
X297447500Y-119888000D03*
D20*
X297447500Y-122428000D03*
X297447500Y-124968000D03*
X297447500Y-127508000D03*
X297447500Y-130048000D03*
%TD*%
D11*
%TO.C,H3*%
X229000000Y-142000000D03*
%TD*%
D21*
%TO.C,C5*%
X292181677Y-103124000D03*
D22*
X287181677Y-103124000D03*
%TD*%
D23*
%TO.C,J1*%
X239166400Y-85594200D03*
X239166400Y-90594200D03*
X244166400Y-85594200D03*
X244166400Y-90594200D03*
%TD*%
D11*
%TO.C,H2*%
X320999480Y-84000000D03*
%TD*%
%TO.C,H4*%
X320999480Y-142000000D03*
%TD*%
M02*
