M48
; DRILL file {KiCad 8.0.7-8.0.7-0~ubuntu22.04.1} date 2025-01-13T16:38:11-0800
; FORMAT={-:-/ absolute / metric / decimal}
; #@! TF.CreationDate,2025-01-13T16:38:11-08:00
; #@! TF.GenerationSoftware,Kicad,Pcbnew,8.0.7-8.0.7-0~ubuntu22.04.1
; #@! TF.FileFunction,MixedPlating,1,4
FMAT,2
METRIC
; #@! TA.AperFunction,Plated,PTH,ViaDrill
T1C0.305
; #@! TA.AperFunction,Plated,PTH,ViaDrill
T2C0.406
; #@! TA.AperFunction,Plated,PTH,ComponentDrill
T3C0.800
; #@! TA.AperFunction,Plated,PTH,ComponentDrill
T4C0.991
; #@! TA.AperFunction,Plated,PTH,ComponentDrill
T5C1.000
; #@! TA.AperFunction,Plated,PTH,ComponentDrill
T6C1.067
; #@! TA.AperFunction,Plated,PTH,ComponentDrill
T7C1.100
; #@! TA.AperFunction,Plated,PTH,ComponentDrill
T8C1.194
; #@! TA.AperFunction,Plated,PTH,ComponentDrill
T9C1.295
; #@! TA.AperFunction,NonPlated,NPTH,ComponentDrill
T10C2.700
; #@! TA.AperFunction,NonPlated,NPTH,ComponentDrill
T11C3.400
%
G90
G05
T1
X265.659Y-105.359
X271.272Y-104.267
T2
X244.856Y-156.21
X261.366Y-84.836
X261.366Y-88.392
X261.366Y-91.948
X262.382Y-83.058
X262.382Y-86.614
X262.382Y-90.17
X267.462Y-94.234
X267.462Y-95.25
X267.462Y-96.266
X270.002Y-120.65
X270.002Y-128.778
X272.288Y-107.848
X272.288Y-110.388
X273.812Y-112.828
X273.812Y-117.221
X273.826Y-100.814
X275.59Y-109.068
X275.59Y-111.633
X275.844Y-117.221
X277.19Y-110.363
X277.216Y-105.41
X280.543Y-111.633
X280.543Y-109.093
X281.94Y-110.388
X287.934Y-83.515
X287.934Y-94.844
X295.91Y-87.122
X295.91Y-89.154
X295.91Y-91.186
T3
X257.81Y-84.785
X257.81Y-88.285
X257.81Y-93.98
X257.81Y-97.48
T4
X281.976Y-156.286
X286.476Y-156.286
X291.628Y-156.286
X296.128Y-156.286
T5
X287.182Y-103.124
X292.182Y-103.124
T6
X271.145Y-147.32
X273.685Y-147.32
X276.225Y-147.32
X297.447Y-117.348
X297.447Y-119.888
X297.447Y-122.428
X297.447Y-124.968
X297.447Y-127.508
X297.447Y-130.048
T7
X252.501Y-148.366
X252.501Y-156.566
X257.581Y-148.366
X257.581Y-156.566
T8
X239.166Y-85.594
X239.166Y-90.594
X244.166Y-85.594
X244.166Y-90.594
T9
X280.726Y-153.786
X287.726Y-153.786
X290.378Y-153.786
X297.378Y-153.786
T10
X229.0Y-84.0
X229.0Y-142.0
X320.999Y-84.0
X320.999Y-142.0
T11
X269.745Y-155.96
X277.625Y-155.96
X306.087Y-115.948
X306.087Y-131.448
M30
