%TF.GenerationSoftware,KiCad,Pcbnew,8.0.7-8.0.7-0~ubuntu22.04.1*%
%TF.CreationDate,2025-01-13T16:38:08-08:00*%
%TF.ProjectId,NX-J401-Adapter,4e582d4a-3430-4312-9d41-646170746572,4*%
%TF.SameCoordinates,Original*%
%TF.FileFunction,Copper,L2,Inr*%
%TF.FilePolarity,Positive*%
%FSLAX46Y46*%
G04 Gerber Fmt 4.6, Leading zero omitted, Abs format (unit mm)*
G04 Created by KiCad (PCBNEW 8.0.7-8.0.7-0~ubuntu22.04.1) date 2025-01-13 16:38:08*
%MOMM*%
%LPD*%
G01*
G04 APERTURE LIST*
%ADD10C,0.300000*%
%TA.AperFunction,NonConductor*%
%ADD11C,0.300000*%
%TD*%
%TA.AperFunction,ComponentPad*%
%ADD12R,1.600000X1.600000*%
%TD*%
%TA.AperFunction,ComponentPad*%
%ADD13C,1.600000*%
%TD*%
%TA.AperFunction,ComponentPad*%
%ADD14C,1.498600*%
%TD*%
%TA.AperFunction,ComponentPad*%
%ADD15C,1.803400*%
%TD*%
%TA.AperFunction,ComponentPad*%
%ADD16C,2.200000*%
%TD*%
%TA.AperFunction,ComponentPad*%
%ADD17R,1.778000X1.778000*%
%TD*%
%TA.AperFunction,ComponentPad*%
%ADD18C,1.905000*%
%TD*%
%TA.AperFunction,ComponentPad*%
%ADD19C,1.778000*%
%TD*%
%TA.AperFunction,ComponentPad*%
%ADD20R,2.000000X2.000000*%
%TD*%
%TA.AperFunction,ComponentPad*%
%ADD21C,2.000000*%
%TD*%
%TA.AperFunction,ComponentPad*%
%ADD22C,1.701800*%
%TD*%
%TA.AperFunction,ViaPad*%
%ADD23C,0.812800*%
%TD*%
%TA.AperFunction,ViaPad*%
%ADD24C,0.711200*%
%TD*%
G04 APERTURE END LIST*
D10*
D11*
X32624701Y-84856807D02*
X32624701Y-83078807D01*
X33471368Y-83671474D02*
X33471368Y-84856807D01*
X33471368Y-83840807D02*
X33556035Y-83756141D01*
X33556035Y-83756141D02*
X33725368Y-83671474D01*
X33725368Y-83671474D02*
X33979368Y-83671474D01*
X33979368Y-83671474D02*
X34148701Y-83756141D01*
X34148701Y-83756141D02*
X34233368Y-83925474D01*
X34233368Y-83925474D02*
X34233368Y-84856807D01*
X36011368Y-84856807D02*
X34995368Y-84856807D01*
X35503368Y-84856807D02*
X35503368Y-83078807D01*
X35503368Y-83078807D02*
X35334035Y-83332807D01*
X35334035Y-83332807D02*
X35164702Y-83502141D01*
X35164702Y-83502141D02*
X34995368Y-83586807D01*
X36773368Y-84687474D02*
X36858035Y-84772141D01*
X36858035Y-84772141D02*
X36773368Y-84856807D01*
X36773368Y-84856807D02*
X36688701Y-84772141D01*
X36688701Y-84772141D02*
X36773368Y-84687474D01*
X36773368Y-84687474D02*
X36773368Y-84856807D01*
X38636035Y-84687474D02*
X38551368Y-84772141D01*
X38551368Y-84772141D02*
X38297368Y-84856807D01*
X38297368Y-84856807D02*
X38128035Y-84856807D01*
X38128035Y-84856807D02*
X37874035Y-84772141D01*
X37874035Y-84772141D02*
X37704702Y-84602807D01*
X37704702Y-84602807D02*
X37620035Y-84433474D01*
X37620035Y-84433474D02*
X37535368Y-84094807D01*
X37535368Y-84094807D02*
X37535368Y-83840807D01*
X37535368Y-83840807D02*
X37620035Y-83502141D01*
X37620035Y-83502141D02*
X37704702Y-83332807D01*
X37704702Y-83332807D02*
X37874035Y-83163474D01*
X37874035Y-83163474D02*
X38128035Y-83078807D01*
X38128035Y-83078807D02*
X38297368Y-83078807D01*
X38297368Y-83078807D02*
X38551368Y-83163474D01*
X38551368Y-83163474D02*
X38636035Y-83248141D01*
X40160035Y-83671474D02*
X40160035Y-84856807D01*
X39398035Y-83671474D02*
X39398035Y-84602807D01*
X39398035Y-84602807D02*
X39482702Y-84772141D01*
X39482702Y-84772141D02*
X39652035Y-84856807D01*
X39652035Y-84856807D02*
X39906035Y-84856807D01*
X39906035Y-84856807D02*
X40075368Y-84772141D01*
X40075368Y-84772141D02*
X40160035Y-84687474D01*
D10*
D11*
G36*
X322544267Y-92644492D02*
G01*
X322465966Y-92649631D01*
X322393517Y-92664778D01*
X322306720Y-92699840D01*
X322232002Y-92751011D01*
X322170321Y-92817329D01*
X322122634Y-92897832D01*
X322096629Y-92966939D01*
X322079437Y-93043079D01*
X322071464Y-93125846D01*
X322070924Y-93154838D01*
X322075703Y-93238276D01*
X322089877Y-93314694D01*
X322122963Y-93405214D01*
X322171728Y-93482179D01*
X322235588Y-93544973D01*
X322313960Y-93592984D01*
X322406260Y-93625596D01*
X322484273Y-93639581D01*
X322569546Y-93644300D01*
X322622302Y-93642102D01*
X322622302Y-93360734D01*
X322573942Y-93360734D01*
X322487732Y-93352680D01*
X322417341Y-93329069D01*
X322356621Y-93282961D01*
X322320551Y-93218114D01*
X322310526Y-93148609D01*
X322323191Y-93070774D01*
X322366969Y-93001855D01*
X322428722Y-92961176D01*
X322510309Y-92940764D01*
X322550861Y-92938683D01*
X322634706Y-92945488D01*
X322708480Y-92971952D01*
X322769720Y-93015565D01*
X322822859Y-93068348D01*
X322883002Y-93139947D01*
X322934547Y-93207610D01*
X322993045Y-93288502D01*
X323014312Y-93318602D01*
X323062543Y-93384565D01*
X323109353Y-93442049D01*
X323171175Y-93506415D01*
X323234356Y-93557888D01*
X323301115Y-93597714D01*
X323373672Y-93627136D01*
X323454248Y-93647401D01*
X323545060Y-93659753D01*
X323595000Y-93663351D01*
X323595000Y-92650720D01*
X323332683Y-92650720D01*
X323332683Y-93280867D01*
X323262013Y-93236025D01*
X323198777Y-93175340D01*
X323140169Y-93103233D01*
X323083384Y-93024130D01*
X323025616Y-92942452D01*
X322964060Y-92862623D01*
X322895909Y-92789065D01*
X322818359Y-92726203D01*
X322728603Y-92678458D01*
X322623836Y-92650254D01*
X322544267Y-92644492D01*
G37*
D12*
%TO.N,/+18V_OUT*%
%TO.C,C2*%
X257810000Y-93980000D03*
D13*
%TO.N,GND*%
X257810000Y-97480000D03*
%TD*%
D14*
%TO.N,/~{REC}*%
%TO.C,SW2*%
X291628000Y-156285700D03*
%TO.N,/RTN*%
X296128001Y-156285700D03*
D15*
%TO.N,N/C*%
X290378001Y-153785824D03*
X297378000Y-153785824D03*
%TD*%
D12*
%TO.N,/+18V_OUT*%
%TO.C,C1*%
X257810000Y-84785200D03*
D13*
%TO.N,GND*%
X257810000Y-88285200D03*
%TD*%
D16*
%TO.N,/V_BAT*%
%TO.C,J4*%
X252501400Y-148365600D03*
X252501400Y-156565600D03*
%TO.N,GND*%
X257581400Y-148365600D03*
X257581400Y-156565600D03*
%TD*%
D17*
%TO.N,/RTN*%
%TO.C,J3*%
X276225000Y-147320000D03*
D18*
%TO.N,/UART2_RXD*%
X273685000Y-147320000D03*
D19*
%TO.N,/UART2_TXD*%
X271145000Y-147320000D03*
%TD*%
D14*
%TO.N,/~{SYS_RESET}*%
%TO.C,SW1*%
X281976000Y-156285700D03*
%TO.N,/RTN*%
X286476001Y-156285700D03*
D15*
%TO.N,N/C*%
X280726001Y-153785824D03*
X287726000Y-153785824D03*
%TD*%
D17*
%TO.N,/RTN*%
%TO.C,J2*%
X297447500Y-117348000D03*
D18*
%TO.N,/UART2_RXD*%
X297447500Y-119888000D03*
D19*
%TO.N,/UART2_TXD*%
X297447500Y-122428000D03*
%TO.N,/~{SYS_RESET}*%
X297447500Y-124968000D03*
%TO.N,/RTN*%
X297447500Y-127508000D03*
%TO.N,/~{REC}*%
X297447500Y-130048000D03*
%TD*%
D20*
%TO.N,/Power Supply/V_IN*%
%TO.C,C5*%
X292181677Y-103124000D03*
D21*
%TO.N,GND*%
X287181677Y-103124000D03*
%TD*%
D22*
%TO.N,/+18V_OUT*%
%TO.C,J1*%
X239166400Y-85594200D03*
X239166400Y-90594200D03*
%TO.N,GND*%
X244166400Y-85594200D03*
X244166400Y-90594200D03*
%TD*%
D23*
%TO.N,GND*%
X273812000Y-117221010D03*
X267462000Y-96266000D03*
X267461982Y-94234000D03*
D24*
X265658600Y-105359200D03*
X271272000Y-104266998D03*
D23*
X287934400Y-83515200D03*
X273825822Y-100813988D03*
X270002000Y-128778000D03*
X244856000Y-156210000D03*
X267462000Y-95250000D03*
X287934400Y-94843600D03*
X277215600Y-105410000D03*
X275844000Y-117221000D03*
%TO.N,/+18V_OUT*%
X261366000Y-91948000D03*
X261366000Y-84836000D03*
X262382000Y-86614000D03*
X262382000Y-83058000D03*
X262382000Y-90170000D03*
X261366000Y-88392000D03*
%TO.N,/Power Supply/V_IN*%
X277190204Y-110362988D03*
X295910000Y-89154000D03*
X280543000Y-111633000D03*
X295910000Y-87122000D03*
X280543034Y-109093000D03*
X281940008Y-110388408D03*
X295910000Y-91186000D03*
%TO.N,/V_BAT*%
X272288000Y-107848400D03*
X270002000Y-120650000D03*
X275590000Y-111633000D03*
X273812000Y-112828307D03*
X272288000Y-110388400D03*
X275590000Y-109067600D03*
%TD*%
%TA.AperFunction,Conductor*%
%TO.N,/Power Supply/V_IN*%
G36*
X297312270Y-86360212D02*
G01*
X297314567Y-86360346D01*
X297375457Y-86363908D01*
X297389828Y-86365596D01*
X297452163Y-86376637D01*
X297459250Y-86378106D01*
X303292155Y-87766894D01*
X303307877Y-87771760D01*
X303441791Y-87823182D01*
X303470624Y-87838914D01*
X303579622Y-87918788D01*
X303603315Y-87941548D01*
X303687501Y-88047238D01*
X303704388Y-88075426D01*
X303757855Y-88199512D01*
X303766745Y-88231145D01*
X303786915Y-88373160D01*
X303788143Y-88389580D01*
X303908889Y-103120509D01*
X303908049Y-103135964D01*
X303892342Y-103269938D01*
X303884949Y-103299938D01*
X303839406Y-103418576D01*
X303824827Y-103445815D01*
X303746848Y-103555893D01*
X303737129Y-103567941D01*
X288998179Y-119669314D01*
X288985431Y-119681399D01*
X288867246Y-119778498D01*
X288837293Y-119796696D01*
X288704831Y-119853353D01*
X288670987Y-119862443D01*
X288568388Y-119874877D01*
X288519133Y-119880847D01*
X288501599Y-119881719D01*
X283744290Y-119780929D01*
X282441660Y-119753331D01*
X277438768Y-119647337D01*
X277422827Y-119645967D01*
X277284969Y-119625088D01*
X277254271Y-119616279D01*
X277133741Y-119564096D01*
X277106316Y-119547741D01*
X277003104Y-119466498D01*
X276980768Y-119443683D01*
X276901736Y-119338782D01*
X276885963Y-119311012D01*
X276836344Y-119189403D01*
X276828187Y-119158526D01*
X276810232Y-119020258D01*
X276809200Y-119004290D01*
X276809200Y-107824811D01*
X276810247Y-107808728D01*
X276828462Y-107669478D01*
X276836734Y-107638399D01*
X276887060Y-107516044D01*
X276903044Y-107488148D01*
X276983148Y-107382856D01*
X277005771Y-107360007D01*
X277110263Y-107278862D01*
X277138002Y-107262601D01*
X277259849Y-107211064D01*
X277290842Y-107202485D01*
X277429919Y-107182887D01*
X277445961Y-107181683D01*
X280009600Y-107156250D01*
X283210000Y-107124500D01*
X283210000Y-107124157D01*
X283232010Y-107121989D01*
X283243681Y-107120841D01*
X283243682Y-107120840D01*
X283243688Y-107120840D01*
X283312359Y-107092395D01*
X283364918Y-107039836D01*
X283393363Y-106971165D01*
X283397023Y-106934000D01*
X283392856Y-103124000D01*
X285668512Y-103124000D01*
X285687142Y-103360714D01*
X285742572Y-103591595D01*
X285742572Y-103591597D01*
X285833434Y-103810959D01*
X285833436Y-103810962D01*
X285957497Y-104013410D01*
X285957498Y-104013413D01*
X285957501Y-104013416D01*
X286111708Y-104193969D01*
X286251474Y-104313340D01*
X286292263Y-104348178D01*
X286292266Y-104348179D01*
X286494714Y-104472240D01*
X286494717Y-104472242D01*
X286714080Y-104563104D01*
X286714081Y-104563104D01*
X286714083Y-104563105D01*
X286944966Y-104618535D01*
X287181677Y-104637165D01*
X287418388Y-104618535D01*
X287649271Y-104563105D01*
X287649273Y-104563104D01*
X287649274Y-104563104D01*
X287868636Y-104472242D01*
X287868637Y-104472241D01*
X287868640Y-104472240D01*
X288071093Y-104348176D01*
X288251646Y-104193969D01*
X288405853Y-104013416D01*
X288529917Y-103810963D01*
X288620782Y-103591594D01*
X288676212Y-103360711D01*
X288694842Y-103124000D01*
X288676212Y-102887289D01*
X288620782Y-102656406D01*
X288620781Y-102656403D01*
X288620781Y-102656402D01*
X288529919Y-102437040D01*
X288529917Y-102437037D01*
X288405856Y-102234589D01*
X288405855Y-102234586D01*
X288371017Y-102193797D01*
X288270542Y-102076155D01*
X290681677Y-102076155D01*
X290681677Y-102806500D01*
X291792071Y-102806500D01*
X291781578Y-102816993D01*
X291715752Y-102931007D01*
X291681677Y-103058174D01*
X291681677Y-103189826D01*
X291715752Y-103316993D01*
X291781578Y-103431007D01*
X291792071Y-103441500D01*
X290681677Y-103441500D01*
X290681677Y-104171844D01*
X290688078Y-104231372D01*
X290688080Y-104231379D01*
X290738322Y-104366086D01*
X290738326Y-104366093D01*
X290824486Y-104481187D01*
X290824489Y-104481190D01*
X290939583Y-104567350D01*
X290939590Y-104567354D01*
X291074297Y-104617596D01*
X291074304Y-104617598D01*
X291133832Y-104623999D01*
X291133849Y-104624000D01*
X291864177Y-104624000D01*
X291864177Y-103513606D01*
X291874670Y-103524099D01*
X291988684Y-103589925D01*
X292115851Y-103624000D01*
X292247503Y-103624000D01*
X292374670Y-103589925D01*
X292488684Y-103524099D01*
X292499177Y-103513606D01*
X292499177Y-104624000D01*
X293229505Y-104624000D01*
X293229521Y-104623999D01*
X293289049Y-104617598D01*
X293289056Y-104617596D01*
X293423763Y-104567354D01*
X293423770Y-104567350D01*
X293538864Y-104481190D01*
X293538867Y-104481187D01*
X293625027Y-104366093D01*
X293625031Y-104366086D01*
X293675273Y-104231379D01*
X293675275Y-104231372D01*
X293681676Y-104171844D01*
X293681677Y-104171827D01*
X293681677Y-103441500D01*
X292571283Y-103441500D01*
X292581776Y-103431007D01*
X292647602Y-103316993D01*
X292681677Y-103189826D01*
X292681677Y-103058174D01*
X292647602Y-102931007D01*
X292581776Y-102816993D01*
X292571283Y-102806500D01*
X293681677Y-102806500D01*
X293681677Y-102076172D01*
X293681676Y-102076155D01*
X293675275Y-102016627D01*
X293675273Y-102016620D01*
X293625031Y-101881913D01*
X293625027Y-101881906D01*
X293538867Y-101766812D01*
X293538864Y-101766809D01*
X293423770Y-101680649D01*
X293423763Y-101680645D01*
X293289056Y-101630403D01*
X293289049Y-101630401D01*
X293229521Y-101624000D01*
X292499177Y-101624000D01*
X292499177Y-102734394D01*
X292488684Y-102723901D01*
X292374670Y-102658075D01*
X292247503Y-102624000D01*
X292115851Y-102624000D01*
X291988684Y-102658075D01*
X291874670Y-102723901D01*
X291864177Y-102734394D01*
X291864177Y-101624000D01*
X291133832Y-101624000D01*
X291074304Y-101630401D01*
X291074297Y-101630403D01*
X290939590Y-101680645D01*
X290939583Y-101680649D01*
X290824489Y-101766809D01*
X290824486Y-101766812D01*
X290738326Y-101881906D01*
X290738322Y-101881913D01*
X290688080Y-102016620D01*
X290688078Y-102016627D01*
X290681677Y-102076155D01*
X288270542Y-102076155D01*
X288251646Y-102054031D01*
X288132273Y-101952076D01*
X288071090Y-101899821D01*
X288071087Y-101899820D01*
X287868639Y-101775759D01*
X287868636Y-101775757D01*
X287649273Y-101684895D01*
X287418391Y-101629465D01*
X287181677Y-101610835D01*
X286944962Y-101629465D01*
X286714081Y-101684895D01*
X286714079Y-101684895D01*
X286494717Y-101775757D01*
X286494714Y-101775759D01*
X286292266Y-101899820D01*
X286292263Y-101899821D01*
X286111708Y-102054031D01*
X285957498Y-102234586D01*
X285957497Y-102234589D01*
X285833436Y-102437037D01*
X285833434Y-102437040D01*
X285742572Y-102656402D01*
X285742572Y-102656404D01*
X285687142Y-102887285D01*
X285668512Y-103124000D01*
X283392856Y-103124000D01*
X283387800Y-98501200D01*
X283334000Y-98501200D01*
X283266961Y-98481515D01*
X283221206Y-98428711D01*
X283210000Y-98377200D01*
X283210000Y-98175508D01*
X283210160Y-98169202D01*
X283212964Y-98114138D01*
X283214246Y-98101590D01*
X283216006Y-98090142D01*
X283222630Y-98047093D01*
X283223734Y-98040953D01*
X283569645Y-96364936D01*
X283602474Y-96303259D01*
X283663437Y-96269122D01*
X283691086Y-96266000D01*
X285121000Y-96266000D01*
X285121000Y-94843600D01*
X287014460Y-94843600D01*
X287034563Y-95034868D01*
X287034564Y-95034870D01*
X287093990Y-95217767D01*
X287093993Y-95217773D01*
X287190153Y-95384327D01*
X287318840Y-95527249D01*
X287402004Y-95587670D01*
X287474425Y-95640288D01*
X287474430Y-95640291D01*
X287650117Y-95718513D01*
X287650123Y-95718515D01*
X287838240Y-95758500D01*
X287838241Y-95758500D01*
X288030559Y-95758500D01*
X288030560Y-95758500D01*
X288218677Y-95718515D01*
X288218679Y-95718513D01*
X288218682Y-95718513D01*
X288277861Y-95692164D01*
X288394370Y-95640291D01*
X288549960Y-95527249D01*
X288678647Y-95384327D01*
X288774807Y-95217773D01*
X288834237Y-95034866D01*
X288854340Y-94843600D01*
X288834237Y-94652334D01*
X288774807Y-94469427D01*
X288678647Y-94302873D01*
X288549960Y-94159951D01*
X288498096Y-94122270D01*
X288394374Y-94046911D01*
X288394369Y-94046908D01*
X288218682Y-93968686D01*
X288218676Y-93968684D01*
X288070544Y-93937198D01*
X288030560Y-93928700D01*
X287838240Y-93928700D01*
X287805264Y-93935708D01*
X287650123Y-93968684D01*
X287650117Y-93968686D01*
X287474430Y-94046908D01*
X287474425Y-94046911D01*
X287318841Y-94159950D01*
X287318835Y-94159955D01*
X287190152Y-94302873D01*
X287093993Y-94469426D01*
X287093990Y-94469432D01*
X287034564Y-94652329D01*
X287034563Y-94652331D01*
X287014460Y-94843600D01*
X285121000Y-94843600D01*
X285121000Y-93088000D01*
X285140685Y-93020961D01*
X285193489Y-92975206D01*
X285245000Y-92964000D01*
X290585000Y-92964000D01*
X290652039Y-92983685D01*
X290697794Y-93036489D01*
X290709000Y-93088000D01*
X290709000Y-96266000D01*
X295027000Y-96266000D01*
X295027000Y-91948000D01*
X291849000Y-91948000D01*
X291781961Y-91928315D01*
X291736206Y-91875511D01*
X291725000Y-91824000D01*
X291725000Y-86566418D01*
X291744685Y-86499379D01*
X291797489Y-86453624D01*
X291846187Y-86442450D01*
X295293056Y-86364332D01*
X295476674Y-86360169D01*
X295477379Y-86360156D01*
X295483503Y-86360053D01*
X295484866Y-86360037D01*
X295490170Y-86360006D01*
X295491047Y-86360002D01*
X295491751Y-86360000D01*
X297305029Y-86360000D01*
X297312270Y-86360212D01*
G37*
%TD.AperFunction*%
%TD*%
%TA.AperFunction,Conductor*%
%TO.N,/V_BAT*%
G36*
X275725059Y-107189061D02*
G01*
X275865163Y-107207506D01*
X275896431Y-107215884D01*
X276019418Y-107266827D01*
X276047451Y-107283012D01*
X276088238Y-107314309D01*
X276153063Y-107364050D01*
X276175951Y-107386938D01*
X276256987Y-107492548D01*
X276273172Y-107520580D01*
X276303716Y-107594318D01*
X276312108Y-107657854D01*
X276301085Y-107742126D01*
X276297832Y-107775370D01*
X276297831Y-107775384D01*
X276296784Y-107791466D01*
X276295700Y-107824796D01*
X276295700Y-112872367D01*
X276286260Y-112919822D01*
X276273171Y-112951420D01*
X276256987Y-112979451D01*
X276175951Y-113085061D01*
X276153061Y-113107951D01*
X276047451Y-113188987D01*
X276019418Y-113205172D01*
X275896431Y-113256115D01*
X275865164Y-113264493D01*
X275740625Y-113280889D01*
X275725058Y-113282939D01*
X275708874Y-113284000D01*
X272542000Y-113284000D01*
X272555650Y-113932362D01*
X273044504Y-137152996D01*
X273043843Y-137168654D01*
X273029471Y-137304476D01*
X273022281Y-137334923D01*
X272977150Y-137455413D01*
X272962569Y-137483089D01*
X272884169Y-137594943D01*
X272874401Y-137607156D01*
X270903726Y-139774899D01*
X268135144Y-142820340D01*
X268135139Y-142820346D01*
X267970000Y-143002000D01*
X267970000Y-143247495D01*
X267970000Y-143247500D01*
X267970000Y-154394654D01*
X267950315Y-154461693D01*
X267944376Y-154470140D01*
X267798942Y-154659673D01*
X267798931Y-154659689D01*
X267645862Y-154924810D01*
X267645854Y-154924826D01*
X267528702Y-155207659D01*
X267449460Y-155503392D01*
X267409501Y-155806913D01*
X267409500Y-155806929D01*
X267409500Y-156113070D01*
X267409501Y-156113086D01*
X267436863Y-156320925D01*
X267449461Y-156416611D01*
X267489382Y-156565599D01*
X267528702Y-156712340D01*
X267645854Y-156995173D01*
X267645862Y-156995189D01*
X267798931Y-157260310D01*
X267798936Y-157260318D01*
X267944376Y-157449858D01*
X267969570Y-157515028D01*
X267970000Y-157525345D01*
X267970000Y-158244500D01*
X267950315Y-158311539D01*
X267897511Y-158357294D01*
X267846000Y-158368500D01*
X252893305Y-158368500D01*
X252826266Y-158348815D01*
X252780511Y-158296011D01*
X252770567Y-158226853D01*
X252799592Y-158163297D01*
X252858370Y-158125523D01*
X252864358Y-158123926D01*
X252997356Y-158091996D01*
X253230031Y-157995619D01*
X253386513Y-157899726D01*
X253386513Y-157899725D01*
X252596349Y-157109560D01*
X252713692Y-157078118D01*
X252839108Y-157005710D01*
X252941510Y-156903308D01*
X253013918Y-156777892D01*
X253045360Y-156660548D01*
X253835525Y-157450713D01*
X253835526Y-157450713D01*
X253931419Y-157294231D01*
X254027796Y-157061556D01*
X254086587Y-156816672D01*
X254106347Y-156565600D01*
X254106347Y-156565594D01*
X256094823Y-156565594D01*
X256094823Y-156565605D01*
X256115096Y-156810274D01*
X256115098Y-156810286D01*
X256175369Y-157048291D01*
X256273994Y-157273131D01*
X256408279Y-157478671D01*
X256408282Y-157478674D01*
X256574569Y-157659310D01*
X256768319Y-157810112D01*
X256933908Y-157899725D01*
X256984249Y-157926968D01*
X257216467Y-158006688D01*
X257458639Y-158047100D01*
X257458640Y-158047100D01*
X257704160Y-158047100D01*
X257704161Y-158047100D01*
X257946333Y-158006688D01*
X258178551Y-157926968D01*
X258394481Y-157810112D01*
X258588231Y-157659310D01*
X258754518Y-157478674D01*
X258888805Y-157273132D01*
X258987430Y-157048291D01*
X259047702Y-156810283D01*
X259055818Y-156712340D01*
X259067977Y-156565605D01*
X259067977Y-156565594D01*
X259047703Y-156320925D01*
X259047701Y-156320913D01*
X258987430Y-156082908D01*
X258888805Y-155858068D01*
X258754520Y-155652528D01*
X258697049Y-155590098D01*
X258588231Y-155471890D01*
X258588226Y-155471886D01*
X258588224Y-155471884D01*
X258500377Y-155403510D01*
X258394481Y-155321088D01*
X258394480Y-155321087D01*
X258178552Y-155204232D01*
X258178547Y-155204230D01*
X257946335Y-155124512D01*
X257784885Y-155097570D01*
X257704161Y-155084100D01*
X257458639Y-155084100D01*
X257398096Y-155094203D01*
X257216464Y-155124512D01*
X256984252Y-155204230D01*
X256984247Y-155204232D01*
X256768319Y-155321087D01*
X256768315Y-155321091D01*
X256574575Y-155471884D01*
X256574572Y-155471887D01*
X256408279Y-155652528D01*
X256273994Y-155858068D01*
X256175369Y-156082908D01*
X256115098Y-156320913D01*
X256115096Y-156320925D01*
X256094823Y-156565594D01*
X254106347Y-156565594D01*
X254086587Y-156314527D01*
X254027796Y-156069643D01*
X253931419Y-155836968D01*
X253835525Y-155680485D01*
X253045360Y-156470650D01*
X253013918Y-156353308D01*
X252941510Y-156227892D01*
X252839108Y-156125490D01*
X252713692Y-156053082D01*
X252596348Y-156021639D01*
X253386513Y-155231473D01*
X253230031Y-155135580D01*
X252997356Y-155039203D01*
X252752472Y-154980412D01*
X252501400Y-154960652D01*
X252250327Y-154980412D01*
X252005443Y-155039203D01*
X251772776Y-155135577D01*
X251772771Y-155135580D01*
X251616285Y-155231473D01*
X252406452Y-156021639D01*
X252289108Y-156053082D01*
X252163692Y-156125490D01*
X252061290Y-156227892D01*
X251988882Y-156353308D01*
X251957439Y-156470651D01*
X251167273Y-155680485D01*
X251071380Y-155836971D01*
X251071377Y-155836976D01*
X250975003Y-156069643D01*
X250916212Y-156314527D01*
X250896452Y-156565600D01*
X250916212Y-156816672D01*
X250975003Y-157061556D01*
X251071380Y-157294231D01*
X251167273Y-157450713D01*
X251957439Y-156660547D01*
X251988882Y-156777892D01*
X252061290Y-156903308D01*
X252163692Y-157005710D01*
X252289108Y-157078118D01*
X252406451Y-157109560D01*
X251616285Y-157899725D01*
X251772768Y-157995619D01*
X252005443Y-158091996D01*
X252138442Y-158123926D01*
X252199034Y-158158717D01*
X252231198Y-158220743D01*
X252224722Y-158290312D01*
X252181663Y-158345336D01*
X252115690Y-158368345D01*
X252109495Y-158368500D01*
X247774000Y-158368500D01*
X247706961Y-158348815D01*
X247661206Y-158296011D01*
X247650000Y-158244500D01*
X247650000Y-148365600D01*
X250896452Y-148365600D01*
X250916212Y-148616672D01*
X250975003Y-148861556D01*
X251071380Y-149094231D01*
X251167273Y-149250713D01*
X251957439Y-148460547D01*
X251988882Y-148577892D01*
X252061290Y-148703308D01*
X252163692Y-148805710D01*
X252289108Y-148878118D01*
X252406451Y-148909560D01*
X251616285Y-149699725D01*
X251772768Y-149795619D01*
X252005443Y-149891996D01*
X252250327Y-149950787D01*
X252501400Y-149970547D01*
X252752472Y-149950787D01*
X252997356Y-149891996D01*
X253230031Y-149795619D01*
X253386513Y-149699726D01*
X253386513Y-149699725D01*
X252596349Y-148909560D01*
X252713692Y-148878118D01*
X252839108Y-148805710D01*
X252941510Y-148703308D01*
X253013918Y-148577892D01*
X253045360Y-148460548D01*
X253835525Y-149250713D01*
X253835526Y-149250713D01*
X253931419Y-149094231D01*
X254027796Y-148861556D01*
X254086587Y-148616672D01*
X254106347Y-148365600D01*
X254106347Y-148365594D01*
X256094823Y-148365594D01*
X256094823Y-148365605D01*
X256115096Y-148610274D01*
X256115098Y-148610286D01*
X256175369Y-148848291D01*
X256273994Y-149073131D01*
X256408279Y-149278671D01*
X256408282Y-149278674D01*
X256574569Y-149459310D01*
X256768319Y-149610112D01*
X256933908Y-149699725D01*
X256984249Y-149726968D01*
X257216467Y-149806688D01*
X257458639Y-149847100D01*
X257458640Y-149847100D01*
X257704160Y-149847100D01*
X257704161Y-149847100D01*
X257946333Y-149806688D01*
X258178551Y-149726968D01*
X258394481Y-149610112D01*
X258588231Y-149459310D01*
X258754518Y-149278674D01*
X258888805Y-149073132D01*
X258987430Y-148848291D01*
X259047702Y-148610283D01*
X259048939Y-148595353D01*
X259067977Y-148365605D01*
X259067977Y-148365594D01*
X259047703Y-148120925D01*
X259047701Y-148120913D01*
X258987430Y-147882908D01*
X258888805Y-147658068D01*
X258754520Y-147452528D01*
X258735610Y-147431987D01*
X258588231Y-147271890D01*
X258588226Y-147271886D01*
X258588224Y-147271884D01*
X258500377Y-147203510D01*
X258394481Y-147121088D01*
X258394480Y-147121087D01*
X258178552Y-147004232D01*
X258178547Y-147004230D01*
X257946335Y-146924512D01*
X257784885Y-146897570D01*
X257704161Y-146884100D01*
X257458639Y-146884100D01*
X257398096Y-146894203D01*
X257216464Y-146924512D01*
X256984252Y-147004230D01*
X256984247Y-147004232D01*
X256768319Y-147121087D01*
X256768315Y-147121091D01*
X256574575Y-147271884D01*
X256574572Y-147271887D01*
X256408279Y-147452528D01*
X256273994Y-147658068D01*
X256175369Y-147882908D01*
X256115098Y-148120913D01*
X256115096Y-148120925D01*
X256094823Y-148365594D01*
X254106347Y-148365594D01*
X254086587Y-148114527D01*
X254027796Y-147869643D01*
X253931419Y-147636968D01*
X253835525Y-147480485D01*
X253045360Y-148270650D01*
X253013918Y-148153308D01*
X252941510Y-148027892D01*
X252839108Y-147925490D01*
X252713692Y-147853082D01*
X252596348Y-147821639D01*
X253386513Y-147031473D01*
X253230031Y-146935580D01*
X252997356Y-146839203D01*
X252752472Y-146780412D01*
X252501400Y-146760652D01*
X252250327Y-146780412D01*
X252005443Y-146839203D01*
X251772776Y-146935577D01*
X251772771Y-146935580D01*
X251616285Y-147031473D01*
X252406452Y-147821639D01*
X252289108Y-147853082D01*
X252163692Y-147925490D01*
X252061290Y-148027892D01*
X251988882Y-148153308D01*
X251957439Y-148270651D01*
X251167273Y-147480485D01*
X251071380Y-147636971D01*
X251071377Y-147636976D01*
X250975003Y-147869643D01*
X250916212Y-148114527D01*
X250896452Y-148365600D01*
X247650000Y-148365600D01*
X247650000Y-128777996D01*
X269209115Y-128777996D01*
X269209115Y-128778003D01*
X269228992Y-128954425D01*
X269228993Y-128954431D01*
X269287634Y-129122019D01*
X269287635Y-129122020D01*
X269382098Y-129272356D01*
X269507644Y-129397902D01*
X269657980Y-129492365D01*
X269825566Y-129551006D01*
X269825572Y-129551006D01*
X269825574Y-129551007D01*
X270001996Y-129570885D01*
X270002000Y-129570885D01*
X270002004Y-129570885D01*
X270178425Y-129551007D01*
X270178424Y-129551007D01*
X270178434Y-129551006D01*
X270346020Y-129492365D01*
X270496356Y-129397902D01*
X270621902Y-129272356D01*
X270716365Y-129122020D01*
X270775006Y-128954434D01*
X270794885Y-128778000D01*
X270775006Y-128601566D01*
X270716365Y-128433980D01*
X270621902Y-128283644D01*
X270496356Y-128158098D01*
X270496355Y-128158097D01*
X270346019Y-128063634D01*
X270178431Y-128004993D01*
X270178425Y-128004992D01*
X270002004Y-127985115D01*
X270001996Y-127985115D01*
X269825574Y-128004992D01*
X269825568Y-128004993D01*
X269657980Y-128063634D01*
X269507644Y-128158097D01*
X269382097Y-128283644D01*
X269287634Y-128433980D01*
X269228993Y-128601568D01*
X269228992Y-128601574D01*
X269209115Y-128777996D01*
X247650000Y-128777996D01*
X247650000Y-113995274D01*
X247650940Y-113980034D01*
X247667298Y-113847949D01*
X247674733Y-113818390D01*
X247720041Y-113701466D01*
X247734456Y-113674628D01*
X247806920Y-113572286D01*
X247827455Y-113549769D01*
X247922687Y-113468206D01*
X247948095Y-113451376D01*
X248067257Y-113392075D01*
X248081312Y-113386129D01*
X265576684Y-107225787D01*
X265586697Y-107222731D01*
X265675376Y-107199716D01*
X265696030Y-107196186D01*
X265787297Y-107188444D01*
X265797779Y-107188000D01*
X275708874Y-107188000D01*
X275725059Y-107189061D01*
G37*
%TD.AperFunction*%
%TD*%
%TA.AperFunction,Conductor*%
%TO.N,/+18V_OUT*%
G36*
X271762659Y-82043061D02*
G01*
X271902763Y-82061506D01*
X271934031Y-82069884D01*
X272057018Y-82120827D01*
X272085051Y-82137012D01*
X272125838Y-82168309D01*
X272190663Y-82218050D01*
X272213551Y-82240938D01*
X272294587Y-82346548D01*
X272310772Y-82374581D01*
X272361715Y-82497568D01*
X272370093Y-82528835D01*
X272388539Y-82668939D01*
X272389600Y-82685125D01*
X272389600Y-92168474D01*
X272388539Y-92184660D01*
X272370093Y-92324764D01*
X272361715Y-92356031D01*
X272310772Y-92479018D01*
X272294587Y-92507051D01*
X272213551Y-92612661D01*
X272190661Y-92635551D01*
X272085051Y-92716587D01*
X272057018Y-92732772D01*
X271934031Y-92783715D01*
X271902764Y-92792093D01*
X271778225Y-92808489D01*
X271762658Y-92810539D01*
X271746474Y-92811600D01*
X263906000Y-92811600D01*
X263906000Y-93446600D01*
X263906000Y-93446606D01*
X263906000Y-100069960D01*
X263886315Y-100136999D01*
X263833511Y-100182754D01*
X263782000Y-100193960D01*
X263741834Y-100193960D01*
X263673161Y-100222406D01*
X263620605Y-100274962D01*
X263592160Y-100343635D01*
X263592158Y-100343641D01*
X263588500Y-100380800D01*
X263588500Y-106933999D01*
X263592158Y-106971158D01*
X263592160Y-106971164D01*
X263620605Y-107039837D01*
X263673162Y-107092394D01*
X263673163Y-107092394D01*
X263673164Y-107092395D01*
X263741835Y-107120840D01*
X263741839Y-107120840D01*
X263741841Y-107120841D01*
X263771791Y-107123790D01*
X263779000Y-107124500D01*
X263782000Y-107124500D01*
X263849039Y-107144185D01*
X263894794Y-107196989D01*
X263906000Y-107248500D01*
X263906000Y-107316495D01*
X263886315Y-107383534D01*
X263833511Y-107429289D01*
X263823184Y-107433456D01*
X247952963Y-113021562D01*
X247930718Y-113030174D01*
X247916649Y-113036126D01*
X247895066Y-113046050D01*
X247775895Y-113105356D01*
X247775892Y-113105357D01*
X247734647Y-113129160D01*
X247734645Y-113129161D01*
X247709266Y-113145972D01*
X247709252Y-113145982D01*
X247671269Y-113174656D01*
X247584915Y-113248616D01*
X247521193Y-113277274D01*
X247452093Y-113266931D01*
X247418613Y-113244111D01*
X247408188Y-113234155D01*
X247377526Y-113204872D01*
X247367362Y-113193919D01*
X236114830Y-99495184D01*
X236106461Y-99483714D01*
X236039309Y-99379649D01*
X236026758Y-99354217D01*
X235987421Y-99244356D01*
X235980977Y-99216736D01*
X235966814Y-99093703D01*
X235966000Y-99079522D01*
X235966000Y-97479999D01*
X256623438Y-97479999D01*
X256623438Y-97480000D01*
X256643640Y-97698029D01*
X256703563Y-97908633D01*
X256703567Y-97908642D01*
X256801159Y-98104634D01*
X256801166Y-98104646D01*
X256845752Y-98163687D01*
X256933120Y-98279382D01*
X257094937Y-98426897D01*
X257281104Y-98542167D01*
X257281105Y-98542167D01*
X257281106Y-98542168D01*
X257324360Y-98558924D01*
X257485282Y-98621266D01*
X257700518Y-98661500D01*
X257700521Y-98661500D01*
X257919479Y-98661500D01*
X257919482Y-98661500D01*
X258134718Y-98621266D01*
X258338896Y-98542167D01*
X258525063Y-98426897D01*
X258686880Y-98279382D01*
X258818835Y-98104644D01*
X258916436Y-97908636D01*
X258976359Y-97698030D01*
X258996562Y-97480000D01*
X258976359Y-97261970D01*
X258916436Y-97051364D01*
X258867830Y-96953751D01*
X258818840Y-96855365D01*
X258818833Y-96855353D01*
X258795638Y-96824638D01*
X258686880Y-96680618D01*
X258525063Y-96533103D01*
X258338896Y-96417833D01*
X258338894Y-96417832D01*
X258338893Y-96417831D01*
X258177974Y-96355491D01*
X258134718Y-96338734D01*
X257919482Y-96298500D01*
X257700518Y-96298500D01*
X257485282Y-96338734D01*
X257485279Y-96338734D01*
X257485279Y-96338735D01*
X257281106Y-96417831D01*
X257281105Y-96417832D01*
X257094941Y-96533100D01*
X257094939Y-96533101D01*
X257094937Y-96533103D01*
X257010563Y-96610020D01*
X256933121Y-96680617D01*
X256801166Y-96855353D01*
X256801159Y-96855365D01*
X256703567Y-97051357D01*
X256703563Y-97051366D01*
X256643640Y-97261970D01*
X256623438Y-97479999D01*
X235966000Y-97479999D01*
X235966000Y-94827844D01*
X256510000Y-94827844D01*
X256516401Y-94887372D01*
X256516403Y-94887379D01*
X256566645Y-95022086D01*
X256566649Y-95022093D01*
X256652809Y-95137187D01*
X256652812Y-95137190D01*
X256767906Y-95223350D01*
X256767913Y-95223354D01*
X256902620Y-95273596D01*
X256902627Y-95273598D01*
X256962155Y-95279999D01*
X256962172Y-95280000D01*
X257492500Y-95280000D01*
X258127500Y-95280000D01*
X258657828Y-95280000D01*
X258657844Y-95279999D01*
X258717372Y-95273598D01*
X258717379Y-95273596D01*
X258852086Y-95223354D01*
X258852093Y-95223350D01*
X258967187Y-95137190D01*
X258967190Y-95137187D01*
X259053350Y-95022093D01*
X259053354Y-95022086D01*
X259103596Y-94887379D01*
X259103598Y-94887372D01*
X259109999Y-94827844D01*
X259110000Y-94827827D01*
X259110000Y-94297500D01*
X258127500Y-94297500D01*
X258127500Y-95280000D01*
X257492500Y-95280000D01*
X257492500Y-94297500D01*
X256510000Y-94297500D01*
X256510000Y-94827844D01*
X235966000Y-94827844D01*
X235966000Y-93927339D01*
X257410000Y-93927339D01*
X257410000Y-94032661D01*
X257437259Y-94134394D01*
X257489920Y-94225606D01*
X257564394Y-94300080D01*
X257655606Y-94352741D01*
X257757339Y-94380000D01*
X257862661Y-94380000D01*
X257964394Y-94352741D01*
X258055606Y-94300080D01*
X258130080Y-94225606D01*
X258182741Y-94134394D01*
X258210000Y-94032661D01*
X258210000Y-93927339D01*
X258182741Y-93825606D01*
X258130080Y-93734394D01*
X258058186Y-93662500D01*
X258127500Y-93662500D01*
X259110000Y-93662500D01*
X259110000Y-93132172D01*
X259109999Y-93132155D01*
X259103598Y-93072627D01*
X259103596Y-93072620D01*
X259053354Y-92937913D01*
X259053350Y-92937906D01*
X258967190Y-92822812D01*
X258967187Y-92822809D01*
X258852093Y-92736649D01*
X258852086Y-92736645D01*
X258717379Y-92686403D01*
X258717372Y-92686401D01*
X258657844Y-92680000D01*
X258127500Y-92680000D01*
X258127500Y-93662500D01*
X258058186Y-93662500D01*
X258055606Y-93659920D01*
X257964394Y-93607259D01*
X257862661Y-93580000D01*
X257757339Y-93580000D01*
X257655606Y-93607259D01*
X257564394Y-93659920D01*
X257489920Y-93734394D01*
X257437259Y-93825606D01*
X257410000Y-93927339D01*
X235966000Y-93927339D01*
X235966000Y-93132155D01*
X256510000Y-93132155D01*
X256510000Y-93662500D01*
X257492500Y-93662500D01*
X257492500Y-92680000D01*
X256962155Y-92680000D01*
X256902627Y-92686401D01*
X256902620Y-92686403D01*
X256767913Y-92736645D01*
X256767906Y-92736649D01*
X256652812Y-92822809D01*
X256652809Y-92822812D01*
X256566649Y-92937906D01*
X256566645Y-92937913D01*
X256516403Y-93072620D01*
X256516401Y-93072627D01*
X256510000Y-93132155D01*
X235966000Y-93132155D01*
X235966000Y-90594194D01*
X237810870Y-90594194D01*
X237810870Y-90594205D01*
X237829357Y-90817309D01*
X237884316Y-91034340D01*
X237974246Y-91239360D01*
X238012963Y-91298621D01*
X238584145Y-90727441D01*
X238610177Y-90824595D01*
X238688761Y-90960705D01*
X238799895Y-91071839D01*
X238936005Y-91150423D01*
X239033157Y-91176454D01*
X238461080Y-91748531D01*
X238621888Y-91835557D01*
X238621897Y-91835560D01*
X238833633Y-91908250D01*
X239054462Y-91945100D01*
X239278338Y-91945100D01*
X239499166Y-91908250D01*
X239710902Y-91835560D01*
X239710910Y-91835557D01*
X239871718Y-91748531D01*
X239299642Y-91176454D01*
X239396795Y-91150423D01*
X239532905Y-91071839D01*
X239644039Y-90960705D01*
X239722623Y-90824595D01*
X239748654Y-90727442D01*
X240319834Y-91298622D01*
X240358554Y-91239358D01*
X240358555Y-91239356D01*
X240448483Y-91034340D01*
X240503442Y-90817309D01*
X240521930Y-90594205D01*
X240521930Y-90594197D01*
X242929292Y-90594197D01*
X242929292Y-90594202D01*
X242948085Y-90809016D01*
X242948086Y-90809023D01*
X243003900Y-91017319D01*
X243095032Y-91212752D01*
X243095033Y-91212754D01*
X243218721Y-91389400D01*
X243371199Y-91541878D01*
X243371202Y-91541880D01*
X243547846Y-91665567D01*
X243743284Y-91756701D01*
X243951578Y-91812514D01*
X244105022Y-91825938D01*
X244166398Y-91831308D01*
X244166400Y-91831308D01*
X244166402Y-91831308D01*
X244220105Y-91826609D01*
X244381222Y-91812514D01*
X244589516Y-91756701D01*
X244784954Y-91665567D01*
X244961598Y-91541880D01*
X245114080Y-91389398D01*
X245237767Y-91212754D01*
X245328901Y-91017316D01*
X245384714Y-90809022D01*
X245403508Y-90594200D01*
X245403507Y-90594194D01*
X245384714Y-90379383D01*
X245384714Y-90379378D01*
X245328901Y-90171084D01*
X245237767Y-89975646D01*
X245114080Y-89799002D01*
X245114078Y-89798999D01*
X244961600Y-89646521D01*
X244784954Y-89522833D01*
X244784952Y-89522832D01*
X244589519Y-89431700D01*
X244589516Y-89431699D01*
X244501486Y-89408111D01*
X244381223Y-89375886D01*
X244381216Y-89375885D01*
X244166402Y-89357092D01*
X244166398Y-89357092D01*
X243951583Y-89375885D01*
X243951576Y-89375886D01*
X243743280Y-89431700D01*
X243547847Y-89522832D01*
X243547845Y-89522833D01*
X243371199Y-89646521D01*
X243218721Y-89798999D01*
X243095033Y-89975645D01*
X243095032Y-89975647D01*
X243003900Y-90171080D01*
X242948086Y-90379376D01*
X242948085Y-90379383D01*
X242929292Y-90594197D01*
X240521930Y-90594197D01*
X240521930Y-90594194D01*
X240503442Y-90371090D01*
X240448483Y-90154059D01*
X240358554Y-89949042D01*
X240319834Y-89889776D01*
X239748654Y-90460956D01*
X239722623Y-90363805D01*
X239644039Y-90227695D01*
X239532905Y-90116561D01*
X239396795Y-90037977D01*
X239299642Y-90011945D01*
X239871719Y-89439867D01*
X239871718Y-89439866D01*
X239710916Y-89352845D01*
X239710902Y-89352839D01*
X239499166Y-89280149D01*
X239278338Y-89243300D01*
X239054462Y-89243300D01*
X238833633Y-89280149D01*
X238621894Y-89352840D01*
X238621883Y-89352845D01*
X238461079Y-89439867D01*
X239033158Y-90011945D01*
X238936005Y-90037977D01*
X238799895Y-90116561D01*
X238688761Y-90227695D01*
X238610177Y-90363805D01*
X238584145Y-90460957D01*
X238012964Y-89889777D01*
X237974245Y-89949042D01*
X237974244Y-89949044D01*
X237884316Y-90154059D01*
X237829357Y-90371090D01*
X237810870Y-90594194D01*
X235966000Y-90594194D01*
X235966000Y-88285199D01*
X256623438Y-88285199D01*
X256623438Y-88285200D01*
X256643640Y-88503229D01*
X256703563Y-88713833D01*
X256703567Y-88713842D01*
X256801159Y-88909834D01*
X256801166Y-88909846D01*
X256845752Y-88968887D01*
X256933120Y-89084582D01*
X257094937Y-89232097D01*
X257281104Y-89347367D01*
X257281105Y-89347367D01*
X257281106Y-89347368D01*
X257295231Y-89352840D01*
X257485282Y-89426466D01*
X257700518Y-89466700D01*
X257700521Y-89466700D01*
X257919479Y-89466700D01*
X257919482Y-89466700D01*
X258134718Y-89426466D01*
X258338896Y-89347367D01*
X258525063Y-89232097D01*
X258686880Y-89084582D01*
X258818835Y-88909844D01*
X258916436Y-88713836D01*
X258976359Y-88503230D01*
X258996562Y-88285200D01*
X258976359Y-88067170D01*
X258916436Y-87856564D01*
X258867830Y-87758951D01*
X258818840Y-87660565D01*
X258818833Y-87660553D01*
X258795638Y-87629838D01*
X258686880Y-87485818D01*
X258525063Y-87338303D01*
X258338896Y-87223033D01*
X258338894Y-87223032D01*
X258338893Y-87223031D01*
X258177974Y-87160691D01*
X258134718Y-87143934D01*
X257919482Y-87103700D01*
X257700518Y-87103700D01*
X257485282Y-87143934D01*
X257485279Y-87143934D01*
X257485279Y-87143935D01*
X257281106Y-87223031D01*
X257281105Y-87223032D01*
X257094941Y-87338300D01*
X257094939Y-87338301D01*
X257094937Y-87338303D01*
X256952583Y-87468074D01*
X256933121Y-87485817D01*
X256801166Y-87660553D01*
X256801159Y-87660565D01*
X256703567Y-87856557D01*
X256703563Y-87856566D01*
X256643640Y-88067170D01*
X256623438Y-88285199D01*
X235966000Y-88285199D01*
X235966000Y-85594194D01*
X237810870Y-85594194D01*
X237810870Y-85594205D01*
X237829357Y-85817309D01*
X237884316Y-86034340D01*
X237974246Y-86239360D01*
X238012963Y-86298621D01*
X238584145Y-85727441D01*
X238610177Y-85824595D01*
X238688761Y-85960705D01*
X238799895Y-86071839D01*
X238936005Y-86150423D01*
X239033157Y-86176454D01*
X238461080Y-86748531D01*
X238621888Y-86835557D01*
X238621897Y-86835560D01*
X238833633Y-86908250D01*
X239054462Y-86945100D01*
X239278338Y-86945100D01*
X239499166Y-86908250D01*
X239710902Y-86835560D01*
X239710910Y-86835557D01*
X239871718Y-86748531D01*
X239299642Y-86176454D01*
X239396795Y-86150423D01*
X239532905Y-86071839D01*
X239644039Y-85960705D01*
X239722623Y-85824595D01*
X239748654Y-85727442D01*
X240319834Y-86298622D01*
X240358554Y-86239358D01*
X240358555Y-86239356D01*
X240448483Y-86034340D01*
X240503442Y-85817309D01*
X240521930Y-85594205D01*
X240521930Y-85594197D01*
X242929292Y-85594197D01*
X242929292Y-85594202D01*
X242948085Y-85809016D01*
X242948086Y-85809023D01*
X243003900Y-86017319D01*
X243095032Y-86212752D01*
X243095033Y-86212754D01*
X243218721Y-86389400D01*
X243371199Y-86541878D01*
X243371202Y-86541880D01*
X243547846Y-86665567D01*
X243743284Y-86756701D01*
X243951578Y-86812514D01*
X244105022Y-86825938D01*
X244166398Y-86831308D01*
X244166400Y-86831308D01*
X244166402Y-86831308D01*
X244220105Y-86826609D01*
X244381222Y-86812514D01*
X244589516Y-86756701D01*
X244784954Y-86665567D01*
X244961598Y-86541880D01*
X245114080Y-86389398D01*
X245237767Y-86212754D01*
X245328901Y-86017316D01*
X245384714Y-85809022D01*
X245400110Y-85633044D01*
X256510000Y-85633044D01*
X256516401Y-85692572D01*
X256516403Y-85692579D01*
X256566645Y-85827286D01*
X256566649Y-85827293D01*
X256652809Y-85942387D01*
X256652812Y-85942390D01*
X256767906Y-86028550D01*
X256767913Y-86028554D01*
X256902620Y-86078796D01*
X256902627Y-86078798D01*
X256962155Y-86085199D01*
X256962172Y-86085200D01*
X257492500Y-86085200D01*
X258127500Y-86085200D01*
X258657828Y-86085200D01*
X258657844Y-86085199D01*
X258717372Y-86078798D01*
X258717379Y-86078796D01*
X258852086Y-86028554D01*
X258852093Y-86028550D01*
X258967187Y-85942390D01*
X258967190Y-85942387D01*
X259053350Y-85827293D01*
X259053354Y-85827286D01*
X259103596Y-85692579D01*
X259103598Y-85692572D01*
X259109999Y-85633044D01*
X259110000Y-85633027D01*
X259110000Y-85102700D01*
X258127500Y-85102700D01*
X258127500Y-86085200D01*
X257492500Y-86085200D01*
X257492500Y-85102700D01*
X256510000Y-85102700D01*
X256510000Y-85633044D01*
X245400110Y-85633044D01*
X245403508Y-85594200D01*
X245403507Y-85594194D01*
X245384714Y-85379383D01*
X245384714Y-85379378D01*
X245328901Y-85171084D01*
X245237767Y-84975646D01*
X245114080Y-84799002D01*
X245114078Y-84798999D01*
X245047618Y-84732539D01*
X257410000Y-84732539D01*
X257410000Y-84837861D01*
X257437259Y-84939594D01*
X257489920Y-85030806D01*
X257564394Y-85105280D01*
X257655606Y-85157941D01*
X257757339Y-85185200D01*
X257862661Y-85185200D01*
X257964394Y-85157941D01*
X258055606Y-85105280D01*
X258130080Y-85030806D01*
X258182741Y-84939594D01*
X258210000Y-84837861D01*
X258210000Y-84732539D01*
X258182741Y-84630806D01*
X258130080Y-84539594D01*
X258058186Y-84467700D01*
X258127500Y-84467700D01*
X259110000Y-84467700D01*
X259110000Y-83937372D01*
X259109999Y-83937355D01*
X259103598Y-83877827D01*
X259103596Y-83877820D01*
X259053354Y-83743113D01*
X259053350Y-83743106D01*
X258967190Y-83628012D01*
X258967187Y-83628009D01*
X258852093Y-83541849D01*
X258852086Y-83541845D01*
X258717379Y-83491603D01*
X258717372Y-83491601D01*
X258657844Y-83485200D01*
X258127500Y-83485200D01*
X258127500Y-84467700D01*
X258058186Y-84467700D01*
X258055606Y-84465120D01*
X257964394Y-84412459D01*
X257862661Y-84385200D01*
X257757339Y-84385200D01*
X257655606Y-84412459D01*
X257564394Y-84465120D01*
X257489920Y-84539594D01*
X257437259Y-84630806D01*
X257410000Y-84732539D01*
X245047618Y-84732539D01*
X244961600Y-84646521D01*
X244784954Y-84522833D01*
X244784952Y-84522832D01*
X244589519Y-84431700D01*
X244589516Y-84431699D01*
X244501486Y-84408111D01*
X244381223Y-84375886D01*
X244381216Y-84375885D01*
X244166402Y-84357092D01*
X244166398Y-84357092D01*
X243951583Y-84375885D01*
X243951576Y-84375886D01*
X243743280Y-84431700D01*
X243547847Y-84522832D01*
X243547845Y-84522833D01*
X243371199Y-84646521D01*
X243218721Y-84798999D01*
X243095033Y-84975645D01*
X243095032Y-84975647D01*
X243003900Y-85171080D01*
X242948086Y-85379376D01*
X242948085Y-85379383D01*
X242929292Y-85594197D01*
X240521930Y-85594197D01*
X240521930Y-85594194D01*
X240503442Y-85371090D01*
X240448483Y-85154059D01*
X240358554Y-84949042D01*
X240319834Y-84889776D01*
X239748654Y-85460956D01*
X239722623Y-85363805D01*
X239644039Y-85227695D01*
X239532905Y-85116561D01*
X239396795Y-85037977D01*
X239299642Y-85011945D01*
X239871719Y-84439867D01*
X239871718Y-84439866D01*
X239710916Y-84352845D01*
X239710902Y-84352839D01*
X239499166Y-84280149D01*
X239278338Y-84243300D01*
X239054462Y-84243300D01*
X238833633Y-84280149D01*
X238621894Y-84352840D01*
X238621883Y-84352845D01*
X238461079Y-84439867D01*
X239033158Y-85011945D01*
X238936005Y-85037977D01*
X238799895Y-85116561D01*
X238688761Y-85227695D01*
X238610177Y-85363805D01*
X238584145Y-85460957D01*
X238012964Y-84889777D01*
X237974245Y-84949042D01*
X237974244Y-84949044D01*
X237884316Y-85154059D01*
X237829357Y-85371090D01*
X237810870Y-85594194D01*
X235966000Y-85594194D01*
X235966000Y-83937355D01*
X256510000Y-83937355D01*
X256510000Y-84467700D01*
X257492500Y-84467700D01*
X257492500Y-83485200D01*
X256962155Y-83485200D01*
X256902627Y-83491601D01*
X256902620Y-83491603D01*
X256767913Y-83541845D01*
X256767906Y-83541849D01*
X256652812Y-83628009D01*
X256652809Y-83628012D01*
X256566649Y-83743106D01*
X256566645Y-83743113D01*
X256516403Y-83877820D01*
X256516401Y-83877827D01*
X256510000Y-83937355D01*
X235966000Y-83937355D01*
X235966000Y-82685125D01*
X235967061Y-82668940D01*
X235985506Y-82528836D01*
X235993884Y-82497568D01*
X236044827Y-82374581D01*
X236061012Y-82346548D01*
X236142053Y-82240932D01*
X236164932Y-82218053D01*
X236270549Y-82137010D01*
X236298579Y-82120827D01*
X236421569Y-82069883D01*
X236452835Y-82061506D01*
X236592941Y-82043061D01*
X236609126Y-82042000D01*
X271746474Y-82042000D01*
X271762659Y-82043061D01*
G37*
%TD.AperFunction*%
%TD*%
%TA.AperFunction,Conductor*%
%TO.N,/RTN*%
G36*
X302962117Y-114321355D02*
G01*
X303009321Y-114372868D01*
X303022000Y-114427492D01*
X303022000Y-158244500D01*
X303002315Y-158311539D01*
X302949511Y-158357294D01*
X302898000Y-158368500D01*
X278536713Y-158368500D01*
X278469674Y-158348815D01*
X278423919Y-158296011D01*
X278413975Y-158226853D01*
X278443000Y-158163297D01*
X278489261Y-158129939D01*
X278632721Y-158070515D01*
X278660182Y-158059141D01*
X278925318Y-157906064D01*
X279168206Y-157719689D01*
X279384689Y-157503206D01*
X279571064Y-157260318D01*
X279724141Y-156995182D01*
X279732597Y-156974769D01*
X279841297Y-156712340D01*
X279841296Y-156712340D01*
X279841300Y-156712333D01*
X279920539Y-156416611D01*
X279937774Y-156285700D01*
X280916297Y-156285700D01*
X280936658Y-156492436D01*
X280996963Y-156691235D01*
X281094885Y-156874433D01*
X281094889Y-156874440D01*
X281226676Y-157035023D01*
X281387259Y-157166810D01*
X281387266Y-157166814D01*
X281570464Y-157264736D01*
X281570466Y-157264736D01*
X281570469Y-157264738D01*
X281769262Y-157325041D01*
X281769261Y-157325041D01*
X281787797Y-157326866D01*
X281976000Y-157345403D01*
X282182738Y-157325041D01*
X282381531Y-157264738D01*
X282564739Y-157166811D01*
X282725323Y-157035023D01*
X282857111Y-156874439D01*
X282955038Y-156691231D01*
X283015341Y-156492438D01*
X283035703Y-156285700D01*
X283035703Y-156285698D01*
X285221929Y-156285698D01*
X285221929Y-156285701D01*
X285240980Y-156503461D01*
X285240982Y-156503471D01*
X285297556Y-156714610D01*
X285297560Y-156714619D01*
X285389945Y-156912739D01*
X285433377Y-156974768D01*
X285433378Y-156974769D01*
X285996875Y-156411272D01*
X286014455Y-156476879D01*
X286079662Y-156589821D01*
X286171880Y-156682039D01*
X286284822Y-156747246D01*
X286350428Y-156764825D01*
X285786930Y-157328321D01*
X285786931Y-157328322D01*
X285848961Y-157371755D01*
X286047081Y-157464140D01*
X286047090Y-157464144D01*
X286258229Y-157520718D01*
X286258239Y-157520720D01*
X286475999Y-157539772D01*
X286476003Y-157539772D01*
X286693762Y-157520720D01*
X286693772Y-157520718D01*
X286904911Y-157464144D01*
X286904920Y-157464140D01*
X287103036Y-157371757D01*
X287165070Y-157328321D01*
X286601574Y-156764825D01*
X286667180Y-156747246D01*
X286780122Y-156682039D01*
X286872340Y-156589821D01*
X286937547Y-156476879D01*
X286955126Y-156411273D01*
X287518622Y-156974769D01*
X287562058Y-156912735D01*
X287654441Y-156714619D01*
X287654445Y-156714610D01*
X287711019Y-156503471D01*
X287711021Y-156503461D01*
X287730073Y-156285701D01*
X287730073Y-156285700D01*
X290568297Y-156285700D01*
X290588658Y-156492436D01*
X290648963Y-156691235D01*
X290746885Y-156874433D01*
X290746889Y-156874440D01*
X290878676Y-157035023D01*
X291039259Y-157166810D01*
X291039266Y-157166814D01*
X291222464Y-157264736D01*
X291222466Y-157264736D01*
X291222469Y-157264738D01*
X291421262Y-157325041D01*
X291421261Y-157325041D01*
X291439797Y-157326866D01*
X291628000Y-157345403D01*
X291834738Y-157325041D01*
X292033531Y-157264738D01*
X292216739Y-157166811D01*
X292377323Y-157035023D01*
X292509111Y-156874439D01*
X292607038Y-156691231D01*
X292667341Y-156492438D01*
X292687703Y-156285700D01*
X292687703Y-156285698D01*
X294873929Y-156285698D01*
X294873929Y-156285701D01*
X294892980Y-156503461D01*
X294892982Y-156503471D01*
X294949556Y-156714610D01*
X294949560Y-156714619D01*
X295041945Y-156912739D01*
X295085377Y-156974768D01*
X295085378Y-156974769D01*
X295648875Y-156411272D01*
X295666455Y-156476879D01*
X295731662Y-156589821D01*
X295823880Y-156682039D01*
X295936822Y-156747246D01*
X296002428Y-156764825D01*
X295438930Y-157328321D01*
X295438931Y-157328322D01*
X295500961Y-157371755D01*
X295699081Y-157464140D01*
X295699090Y-157464144D01*
X295910229Y-157520718D01*
X295910239Y-157520720D01*
X296127999Y-157539772D01*
X296128003Y-157539772D01*
X296345762Y-157520720D01*
X296345772Y-157520718D01*
X296556911Y-157464144D01*
X296556920Y-157464140D01*
X296755036Y-157371757D01*
X296817070Y-157328321D01*
X296253574Y-156764825D01*
X296319180Y-156747246D01*
X296432122Y-156682039D01*
X296524340Y-156589821D01*
X296589547Y-156476879D01*
X296607126Y-156411273D01*
X297170622Y-156974769D01*
X297214058Y-156912735D01*
X297306441Y-156714619D01*
X297306445Y-156714610D01*
X297363019Y-156503471D01*
X297363021Y-156503461D01*
X297382073Y-156285701D01*
X297382073Y-156285698D01*
X297363021Y-156067938D01*
X297363019Y-156067928D01*
X297306445Y-155856789D01*
X297306441Y-155856780D01*
X297214056Y-155658660D01*
X297170623Y-155596630D01*
X297170622Y-155596629D01*
X296607125Y-156160126D01*
X296589547Y-156094521D01*
X296524340Y-155981579D01*
X296432122Y-155889361D01*
X296319180Y-155824154D01*
X296253573Y-155806574D01*
X296817070Y-155243077D01*
X296817069Y-155243076D01*
X296755040Y-155199644D01*
X296556920Y-155107259D01*
X296556911Y-155107255D01*
X296345772Y-155050681D01*
X296345762Y-155050679D01*
X296128003Y-155031628D01*
X296127999Y-155031628D01*
X295910239Y-155050679D01*
X295910229Y-155050681D01*
X295699090Y-155107255D01*
X295699081Y-155107259D01*
X295500965Y-155199642D01*
X295438931Y-155243077D01*
X296002429Y-155806574D01*
X295936822Y-155824154D01*
X295823880Y-155889361D01*
X295731662Y-155981579D01*
X295666455Y-156094521D01*
X295648875Y-156160127D01*
X295085378Y-155596630D01*
X295041943Y-155658664D01*
X294949560Y-155856780D01*
X294949556Y-155856789D01*
X294892982Y-156067928D01*
X294892980Y-156067938D01*
X294873929Y-156285698D01*
X292687703Y-156285698D01*
X292667341Y-156078962D01*
X292607038Y-155880169D01*
X292607036Y-155880166D01*
X292607036Y-155880164D01*
X292509114Y-155696966D01*
X292509110Y-155696959D01*
X292377323Y-155536376D01*
X292216740Y-155404589D01*
X292216733Y-155404585D01*
X292033535Y-155306663D01*
X291934134Y-155276510D01*
X291834738Y-155246359D01*
X291834736Y-155246358D01*
X291834738Y-155246358D01*
X291628000Y-155225997D01*
X291421263Y-155246358D01*
X291222464Y-155306663D01*
X291039266Y-155404585D01*
X291039259Y-155404589D01*
X290878676Y-155536376D01*
X290746889Y-155696959D01*
X290746885Y-155696966D01*
X290648963Y-155880164D01*
X290588658Y-156078963D01*
X290568297Y-156285700D01*
X287730073Y-156285700D01*
X287730073Y-156285698D01*
X287711021Y-156067938D01*
X287711019Y-156067928D01*
X287654445Y-155856789D01*
X287654441Y-155856780D01*
X287562056Y-155658660D01*
X287518623Y-155596630D01*
X287518622Y-155596629D01*
X286955125Y-156160126D01*
X286937547Y-156094521D01*
X286872340Y-155981579D01*
X286780122Y-155889361D01*
X286667180Y-155824154D01*
X286601573Y-155806574D01*
X287165070Y-155243077D01*
X287165069Y-155243076D01*
X287103040Y-155199644D01*
X286904920Y-155107259D01*
X286904911Y-155107255D01*
X286693772Y-155050681D01*
X286693762Y-155050679D01*
X286476003Y-155031628D01*
X286475999Y-155031628D01*
X286258239Y-155050679D01*
X286258229Y-155050681D01*
X286047090Y-155107255D01*
X286047081Y-155107259D01*
X285848965Y-155199642D01*
X285786931Y-155243077D01*
X286350429Y-155806574D01*
X286284822Y-155824154D01*
X286171880Y-155889361D01*
X286079662Y-155981579D01*
X286014455Y-156094521D01*
X285996875Y-156160127D01*
X285433378Y-155596630D01*
X285389943Y-155658664D01*
X285297560Y-155856780D01*
X285297556Y-155856789D01*
X285240982Y-156067928D01*
X285240980Y-156067938D01*
X285221929Y-156285698D01*
X283035703Y-156285698D01*
X283015341Y-156078962D01*
X282955038Y-155880169D01*
X282955036Y-155880166D01*
X282955036Y-155880164D01*
X282857114Y-155696966D01*
X282857110Y-155696959D01*
X282725323Y-155536376D01*
X282564740Y-155404589D01*
X282564733Y-155404585D01*
X282381535Y-155306663D01*
X282282134Y-155276510D01*
X282182738Y-155246359D01*
X282182736Y-155246358D01*
X282182738Y-155246358D01*
X281976000Y-155225997D01*
X281769263Y-155246358D01*
X281570464Y-155306663D01*
X281387266Y-155404585D01*
X281387259Y-155404589D01*
X281226676Y-155536376D01*
X281094889Y-155696959D01*
X281094885Y-155696966D01*
X280996963Y-155880164D01*
X280936658Y-156078963D01*
X280916297Y-156285700D01*
X279937774Y-156285700D01*
X279960500Y-156113077D01*
X279960500Y-155806923D01*
X279920539Y-155503389D01*
X279841300Y-155207667D01*
X279799710Y-155107259D01*
X279724145Y-154924826D01*
X279724137Y-154924810D01*
X279602361Y-154713890D01*
X279585888Y-154645990D01*
X279608740Y-154579963D01*
X279663661Y-154536773D01*
X279733215Y-154530131D01*
X279795317Y-154562147D01*
X279797429Y-154564209D01*
X279947190Y-154713970D01*
X279947196Y-154713975D01*
X280120190Y-154835107D01*
X280120192Y-154835108D01*
X280120195Y-154835110D01*
X280311606Y-154924366D01*
X280311612Y-154924367D01*
X280311613Y-154924368D01*
X280360710Y-154937523D01*
X280515607Y-154979028D01*
X280665888Y-154992175D01*
X280725999Y-154997435D01*
X280726001Y-154997435D01*
X280726003Y-154997435D01*
X280778599Y-154992833D01*
X280936395Y-154979028D01*
X281140396Y-154924366D01*
X281331807Y-154835110D01*
X281504810Y-154713972D01*
X281654149Y-154564633D01*
X281775287Y-154391630D01*
X281864543Y-154200219D01*
X281919205Y-153996218D01*
X281937612Y-153785824D01*
X281937612Y-153785822D01*
X286514389Y-153785822D01*
X286514389Y-153785825D01*
X286532795Y-153996212D01*
X286532797Y-153996223D01*
X286587455Y-154200211D01*
X286587457Y-154200215D01*
X286587458Y-154200219D01*
X286587501Y-154200311D01*
X286676714Y-154391630D01*
X286676716Y-154391634D01*
X286797848Y-154564628D01*
X286797853Y-154564634D01*
X286947189Y-154713970D01*
X286947195Y-154713975D01*
X287120189Y-154835107D01*
X287120191Y-154835108D01*
X287120194Y-154835110D01*
X287311605Y-154924366D01*
X287311611Y-154924367D01*
X287311612Y-154924368D01*
X287360709Y-154937523D01*
X287515606Y-154979028D01*
X287665887Y-154992175D01*
X287725998Y-154997435D01*
X287726000Y-154997435D01*
X287726002Y-154997435D01*
X287778598Y-154992833D01*
X287936394Y-154979028D01*
X288140395Y-154924366D01*
X288331806Y-154835110D01*
X288504809Y-154713972D01*
X288654148Y-154564633D01*
X288775286Y-154391630D01*
X288864542Y-154200219D01*
X288919204Y-153996218D01*
X288928472Y-153890276D01*
X288953924Y-153825209D01*
X289006064Y-153787454D01*
X289092807Y-153787454D01*
X289141061Y-153814806D01*
X289173569Y-153876652D01*
X289175528Y-153890277D01*
X289184796Y-153996213D01*
X289184798Y-153996223D01*
X289239456Y-154200211D01*
X289239458Y-154200215D01*
X289239459Y-154200219D01*
X289239502Y-154200311D01*
X289328715Y-154391630D01*
X289328717Y-154391634D01*
X289449849Y-154564628D01*
X289449854Y-154564634D01*
X289599190Y-154713970D01*
X289599196Y-154713975D01*
X289772190Y-154835107D01*
X289772192Y-154835108D01*
X289772195Y-154835110D01*
X289963606Y-154924366D01*
X289963612Y-154924367D01*
X289963613Y-154924368D01*
X290012710Y-154937523D01*
X290167607Y-154979028D01*
X290317888Y-154992175D01*
X290377999Y-154997435D01*
X290378001Y-154997435D01*
X290378003Y-154997435D01*
X290430599Y-154992833D01*
X290588395Y-154979028D01*
X290792396Y-154924366D01*
X290983807Y-154835110D01*
X291156810Y-154713972D01*
X291306149Y-154564633D01*
X291427287Y-154391630D01*
X291516543Y-154200219D01*
X291571205Y-153996218D01*
X291589612Y-153785824D01*
X291589612Y-153785822D01*
X296166389Y-153785822D01*
X296166389Y-153785825D01*
X296184795Y-153996212D01*
X296184797Y-153996223D01*
X296239455Y-154200211D01*
X296239457Y-154200215D01*
X296239458Y-154200219D01*
X296239501Y-154200311D01*
X296328714Y-154391630D01*
X296328716Y-154391634D01*
X296449848Y-154564628D01*
X296449853Y-154564634D01*
X296599189Y-154713970D01*
X296599195Y-154713975D01*
X296772189Y-154835107D01*
X296772191Y-154835108D01*
X296772194Y-154835110D01*
X296963605Y-154924366D01*
X296963611Y-154924367D01*
X296963612Y-154924368D01*
X297012709Y-154937523D01*
X297167606Y-154979028D01*
X297317887Y-154992175D01*
X297377998Y-154997435D01*
X297378000Y-154997435D01*
X297378002Y-154997435D01*
X297430598Y-154992833D01*
X297588394Y-154979028D01*
X297792395Y-154924366D01*
X297983806Y-154835110D01*
X298156809Y-154713972D01*
X298306148Y-154564633D01*
X298427286Y-154391630D01*
X298516542Y-154200219D01*
X298571204Y-153996218D01*
X298589611Y-153785824D01*
X298571204Y-153575430D01*
X298516542Y-153371429D01*
X298427286Y-153180019D01*
X298306148Y-153007015D01*
X298156809Y-152857676D01*
X298156805Y-152857673D01*
X298156804Y-152857672D01*
X297983810Y-152736540D01*
X297983806Y-152736538D01*
X297983804Y-152736537D01*
X297792395Y-152647282D01*
X297792391Y-152647281D01*
X297792387Y-152647279D01*
X297588399Y-152592621D01*
X297588395Y-152592620D01*
X297588394Y-152592620D01*
X297588393Y-152592619D01*
X297588388Y-152592619D01*
X297378002Y-152574213D01*
X297377998Y-152574213D01*
X297167611Y-152592619D01*
X297167600Y-152592621D01*
X296963612Y-152647279D01*
X296963603Y-152647283D01*
X296772196Y-152736537D01*
X296772194Y-152736538D01*
X296599188Y-152857677D01*
X296449853Y-153007012D01*
X296328714Y-153180018D01*
X296328713Y-153180020D01*
X296239459Y-153371427D01*
X296239455Y-153371436D01*
X296184797Y-153575424D01*
X296184795Y-153575435D01*
X296166389Y-153785822D01*
X291589612Y-153785822D01*
X291571205Y-153575430D01*
X291516543Y-153371429D01*
X291427287Y-153180019D01*
X291306149Y-153007015D01*
X291156810Y-152857676D01*
X291156806Y-152857673D01*
X291156805Y-152857672D01*
X290983811Y-152736540D01*
X290983807Y-152736538D01*
X290983805Y-152736537D01*
X290792396Y-152647282D01*
X290792392Y-152647281D01*
X290792388Y-152647279D01*
X290588400Y-152592621D01*
X290588396Y-152592620D01*
X290588395Y-152592620D01*
X290588394Y-152592619D01*
X290588389Y-152592619D01*
X290378003Y-152574213D01*
X290377999Y-152574213D01*
X290167612Y-152592619D01*
X290167601Y-152592621D01*
X289963613Y-152647279D01*
X289963604Y-152647283D01*
X289772197Y-152736537D01*
X289772195Y-152736538D01*
X289599189Y-152857677D01*
X289449854Y-153007012D01*
X289328715Y-153180018D01*
X289328714Y-153180020D01*
X289239460Y-153371427D01*
X289239456Y-153371436D01*
X289184798Y-153575424D01*
X289184796Y-153575434D01*
X289175528Y-153681370D01*
X289150075Y-153746439D01*
X289093484Y-153787417D01*
X289092807Y-153787454D01*
X289006064Y-153787454D01*
X289010515Y-153784231D01*
X289011193Y-153784193D01*
X288962938Y-153756841D01*
X288930431Y-153694994D01*
X288928473Y-153681376D01*
X288919204Y-153575430D01*
X288864542Y-153371429D01*
X288775286Y-153180019D01*
X288654148Y-153007015D01*
X288504809Y-152857676D01*
X288504805Y-152857673D01*
X288504804Y-152857672D01*
X288331810Y-152736540D01*
X288331806Y-152736538D01*
X288331804Y-152736537D01*
X288140395Y-152647282D01*
X288140391Y-152647281D01*
X288140387Y-152647279D01*
X287936399Y-152592621D01*
X287936395Y-152592620D01*
X287936394Y-152592620D01*
X287936393Y-152592619D01*
X287936388Y-152592619D01*
X287726002Y-152574213D01*
X287725998Y-152574213D01*
X287515611Y-152592619D01*
X287515600Y-152592621D01*
X287311612Y-152647279D01*
X287311603Y-152647283D01*
X287120196Y-152736537D01*
X287120194Y-152736538D01*
X286947188Y-152857677D01*
X286797853Y-153007012D01*
X286676714Y-153180018D01*
X286676713Y-153180020D01*
X286587459Y-153371427D01*
X286587455Y-153371436D01*
X286532797Y-153575424D01*
X286532795Y-153575435D01*
X286514389Y-153785822D01*
X281937612Y-153785822D01*
X281919205Y-153575430D01*
X281864543Y-153371429D01*
X281775287Y-153180019D01*
X281654149Y-153007015D01*
X281504810Y-152857676D01*
X281504806Y-152857673D01*
X281504805Y-152857672D01*
X281331811Y-152736540D01*
X281331807Y-152736538D01*
X281331805Y-152736537D01*
X281140396Y-152647282D01*
X281140392Y-152647281D01*
X281140388Y-152647279D01*
X280936400Y-152592621D01*
X280936396Y-152592620D01*
X280936395Y-152592620D01*
X280936394Y-152592619D01*
X280936389Y-152592619D01*
X280726003Y-152574213D01*
X280725999Y-152574213D01*
X280515612Y-152592619D01*
X280515601Y-152592621D01*
X280311613Y-152647279D01*
X280311604Y-152647283D01*
X280120197Y-152736537D01*
X280120195Y-152736538D01*
X279947189Y-152857677D01*
X279797854Y-153007012D01*
X279676715Y-153180018D01*
X279676714Y-153180020D01*
X279587460Y-153371427D01*
X279587456Y-153371436D01*
X279532798Y-153575424D01*
X279532796Y-153575435D01*
X279514390Y-153785822D01*
X279514390Y-153785825D01*
X279532796Y-153996212D01*
X279532798Y-153996223D01*
X279587456Y-154200211D01*
X279587458Y-154200215D01*
X279587459Y-154200219D01*
X279587502Y-154200311D01*
X279676719Y-154391638D01*
X279676951Y-154392040D01*
X279676999Y-154392238D01*
X279679003Y-154396536D01*
X279678138Y-154396939D01*
X279693413Y-154459943D01*
X279670550Y-154525966D01*
X279615622Y-154569148D01*
X279546067Y-154575778D01*
X279483970Y-154543752D01*
X279471178Y-154529509D01*
X279468459Y-154525966D01*
X279384689Y-154416794D01*
X279384684Y-154416788D01*
X279168211Y-154200315D01*
X279168204Y-154200309D01*
X278925326Y-154013942D01*
X278925324Y-154013940D01*
X278925318Y-154013936D01*
X278925313Y-154013933D01*
X278925310Y-154013931D01*
X278660189Y-153860862D01*
X278660173Y-153860854D01*
X278377340Y-153743702D01*
X278081607Y-153664460D01*
X277778086Y-153624501D01*
X277778083Y-153624500D01*
X277778077Y-153624500D01*
X277471923Y-153624500D01*
X277471917Y-153624500D01*
X277471913Y-153624501D01*
X277168392Y-153664460D01*
X276872659Y-153743702D01*
X276589826Y-153860854D01*
X276589810Y-153860862D01*
X276324689Y-154013931D01*
X276324673Y-154013942D01*
X276081795Y-154200309D01*
X276081788Y-154200315D01*
X275865315Y-154416788D01*
X275865309Y-154416795D01*
X275678942Y-154659673D01*
X275678931Y-154659689D01*
X275525862Y-154924810D01*
X275525854Y-154924826D01*
X275408702Y-155207659D01*
X275329460Y-155503392D01*
X275289501Y-155806913D01*
X275289500Y-155806929D01*
X275289500Y-156113070D01*
X275289501Y-156113086D01*
X275320810Y-156350907D01*
X275329461Y-156416611D01*
X275400149Y-156680422D01*
X275408702Y-156712340D01*
X275525854Y-156995173D01*
X275525862Y-156995189D01*
X275678931Y-157260310D01*
X275678942Y-157260326D01*
X275865309Y-157503204D01*
X275865315Y-157503211D01*
X276081788Y-157719684D01*
X276081795Y-157719690D01*
X276186950Y-157800378D01*
X276324682Y-157906064D01*
X276324689Y-157906068D01*
X276589810Y-158059137D01*
X276589815Y-158059139D01*
X276589818Y-158059141D01*
X276589822Y-158059142D01*
X276589827Y-158059145D01*
X276760739Y-158129939D01*
X276815143Y-158173780D01*
X276837208Y-158240074D01*
X276819929Y-158307773D01*
X276768792Y-158355384D01*
X276713287Y-158368500D01*
X270656713Y-158368500D01*
X270589674Y-158348815D01*
X270543919Y-158296011D01*
X270533975Y-158226853D01*
X270563000Y-158163297D01*
X270609261Y-158129939D01*
X270752721Y-158070515D01*
X270780182Y-158059141D01*
X271045318Y-157906064D01*
X271288206Y-157719689D01*
X271504689Y-157503206D01*
X271691064Y-157260318D01*
X271844141Y-156995182D01*
X271852597Y-156974769D01*
X271961297Y-156712340D01*
X271961296Y-156712340D01*
X271961300Y-156712333D01*
X272040539Y-156416611D01*
X272080500Y-156113077D01*
X272080500Y-155806923D01*
X272040539Y-155503389D01*
X271961300Y-155207667D01*
X271919710Y-155107259D01*
X271844145Y-154924826D01*
X271844137Y-154924810D01*
X271691068Y-154659689D01*
X271691064Y-154659682D01*
X271591656Y-154530131D01*
X271504690Y-154416795D01*
X271504684Y-154416788D01*
X271288211Y-154200315D01*
X271288204Y-154200309D01*
X271045326Y-154013942D01*
X271045324Y-154013940D01*
X271045318Y-154013936D01*
X271045313Y-154013933D01*
X271045310Y-154013931D01*
X270780189Y-153860862D01*
X270780173Y-153860854D01*
X270497340Y-153743702D01*
X270201607Y-153664460D01*
X269898086Y-153624501D01*
X269898083Y-153624500D01*
X269898077Y-153624500D01*
X269591923Y-153624500D01*
X269591917Y-153624500D01*
X269591913Y-153624501D01*
X269288392Y-153664460D01*
X268992659Y-153743702D01*
X268709826Y-153860854D01*
X268709810Y-153860862D01*
X268542500Y-153957460D01*
X268474600Y-153973933D01*
X268408573Y-153951081D01*
X268365382Y-153896159D01*
X268356500Y-153850073D01*
X268356500Y-147319999D01*
X269945584Y-147319999D01*
X269945584Y-147320000D01*
X269966005Y-147540391D01*
X270026577Y-147753276D01*
X270026582Y-147753289D01*
X270125236Y-147951411D01*
X270257076Y-148125996D01*
X270258621Y-148128041D01*
X270422190Y-148277155D01*
X270422192Y-148277156D01*
X270422193Y-148277157D01*
X270610370Y-148393671D01*
X270610372Y-148393672D01*
X270610374Y-148393673D01*
X270816764Y-148473629D01*
X271034332Y-148514300D01*
X271034334Y-148514300D01*
X271255666Y-148514300D01*
X271255668Y-148514300D01*
X271473236Y-148473629D01*
X271679626Y-148393673D01*
X271867810Y-148277155D01*
X272031379Y-148128041D01*
X272164764Y-147951411D01*
X272263422Y-147753279D01*
X272263425Y-147753268D01*
X272265488Y-147747943D01*
X272267933Y-147748890D01*
X272299224Y-147699220D01*
X272362514Y-147669622D01*
X272431760Y-147678940D01*
X272484975Y-147724215D01*
X272497789Y-147749776D01*
X272498538Y-147751833D01*
X272498539Y-147751836D01*
X272499212Y-147753279D01*
X272591552Y-147951303D01*
X272591554Y-147951307D01*
X272717788Y-148131588D01*
X272873411Y-148287211D01*
X273053692Y-148413445D01*
X273053694Y-148413446D01*
X273053697Y-148413448D01*
X273253164Y-148506461D01*
X273465751Y-148563423D01*
X273641150Y-148578768D01*
X273684999Y-148582605D01*
X273685000Y-148582605D01*
X273685001Y-148582605D01*
X273721541Y-148579408D01*
X273904249Y-148563423D01*
X274116836Y-148506461D01*
X274316303Y-148413448D01*
X274496587Y-148287212D01*
X274549032Y-148234767D01*
X274624319Y-148159481D01*
X274685642Y-148125996D01*
X274755334Y-148130980D01*
X274811267Y-148172852D01*
X274835684Y-148238316D01*
X274836000Y-148247162D01*
X274836000Y-148256844D01*
X274842401Y-148316372D01*
X274842403Y-148316379D01*
X274892645Y-148451086D01*
X274892649Y-148451093D01*
X274978809Y-148566187D01*
X274978812Y-148566190D01*
X275093906Y-148652350D01*
X275093913Y-148652354D01*
X275228620Y-148702596D01*
X275228627Y-148702598D01*
X275288155Y-148708999D01*
X275288172Y-148709000D01*
X275975000Y-148709000D01*
X275975000Y-147791579D01*
X276019115Y-147817050D01*
X276154777Y-147853400D01*
X276295223Y-147853400D01*
X276430885Y-147817050D01*
X276475000Y-147791579D01*
X276475000Y-148709000D01*
X277161828Y-148709000D01*
X277161844Y-148708999D01*
X277221372Y-148702598D01*
X277221379Y-148702596D01*
X277356086Y-148652354D01*
X277356093Y-148652350D01*
X277471187Y-148566190D01*
X277471190Y-148566187D01*
X277557350Y-148451093D01*
X277557354Y-148451086D01*
X277607596Y-148316379D01*
X277607598Y-148316372D01*
X277613999Y-148256844D01*
X277614000Y-148256827D01*
X277614000Y-147570000D01*
X276696580Y-147570000D01*
X276722050Y-147525885D01*
X276758400Y-147390223D01*
X276758400Y-147249777D01*
X276722050Y-147114115D01*
X276696580Y-147070000D01*
X277614000Y-147070000D01*
X277614000Y-146383172D01*
X277613999Y-146383155D01*
X277607598Y-146323627D01*
X277607596Y-146323620D01*
X277557354Y-146188913D01*
X277557350Y-146188906D01*
X277471190Y-146073812D01*
X277471187Y-146073809D01*
X277356093Y-145987649D01*
X277356086Y-145987645D01*
X277221379Y-145937403D01*
X277221372Y-145937401D01*
X277161844Y-145931000D01*
X276475000Y-145931000D01*
X276475000Y-146848420D01*
X276430885Y-146822950D01*
X276295223Y-146786600D01*
X276154777Y-146786600D01*
X276019115Y-146822950D01*
X275975000Y-146848420D01*
X275975000Y-145931000D01*
X275288155Y-145931000D01*
X275228627Y-145937401D01*
X275228620Y-145937403D01*
X275093913Y-145987645D01*
X275093906Y-145987649D01*
X274978812Y-146073809D01*
X274978809Y-146073812D01*
X274892649Y-146188906D01*
X274892645Y-146188913D01*
X274842403Y-146323620D01*
X274842401Y-146323627D01*
X274836000Y-146383155D01*
X274836000Y-146392838D01*
X274816315Y-146459877D01*
X274763511Y-146505632D01*
X274694353Y-146515576D01*
X274630797Y-146486551D01*
X274624319Y-146480519D01*
X274496588Y-146352788D01*
X274316307Y-146226554D01*
X274316303Y-146226552D01*
X274316301Y-146226551D01*
X274116836Y-146133539D01*
X274116832Y-146133538D01*
X274116828Y-146133536D01*
X273904254Y-146076578D01*
X273904244Y-146076576D01*
X273685001Y-146057395D01*
X273684999Y-146057395D01*
X273465755Y-146076576D01*
X273465745Y-146076578D01*
X273253171Y-146133536D01*
X273253162Y-146133540D01*
X273053699Y-146226551D01*
X273053697Y-146226552D01*
X272873410Y-146352789D01*
X272717789Y-146508410D01*
X272591552Y-146688697D01*
X272591551Y-146688699D01*
X272498537Y-146888166D01*
X272497787Y-146890229D01*
X272497212Y-146891009D01*
X272496251Y-146893071D01*
X272495836Y-146892877D01*
X272456354Y-146946488D01*
X272391082Y-146971415D01*
X272322695Y-146957097D01*
X272272905Y-146908079D01*
X272266166Y-146891794D01*
X272265488Y-146892057D01*
X272263424Y-146886728D01*
X272263422Y-146886721D01*
X272164764Y-146688589D01*
X272031379Y-146511959D01*
X271867810Y-146362845D01*
X271867807Y-146362843D01*
X271867806Y-146362842D01*
X271679629Y-146246328D01*
X271679620Y-146246324D01*
X271524833Y-146186360D01*
X271473236Y-146166371D01*
X271255668Y-146125700D01*
X271034332Y-146125700D01*
X270816764Y-146166371D01*
X270816761Y-146166371D01*
X270816761Y-146166372D01*
X270610379Y-146246324D01*
X270610370Y-146246328D01*
X270422193Y-146362842D01*
X270258620Y-146511959D01*
X270125236Y-146688588D01*
X270026582Y-146886710D01*
X270026577Y-146886723D01*
X269966005Y-147099608D01*
X269945584Y-147319999D01*
X268356500Y-147319999D01*
X268356500Y-143199361D01*
X268376185Y-143132322D01*
X268388742Y-143115955D01*
X268421127Y-143080333D01*
X268421131Y-143080328D01*
X271189713Y-140034887D01*
X273160388Y-137867144D01*
X273176236Y-137848564D01*
X273186004Y-137836351D01*
X273200666Y-137816780D01*
X273279066Y-137704926D01*
X273304515Y-137663242D01*
X273319096Y-137635566D01*
X273339093Y-137590983D01*
X273384224Y-137470493D01*
X273398435Y-137423751D01*
X273405625Y-137393304D01*
X273413825Y-137345146D01*
X273419901Y-137287719D01*
X273446529Y-137223127D01*
X273503854Y-137183182D01*
X273546022Y-137176802D01*
X273568430Y-137177311D01*
X273609235Y-137172976D01*
X273666933Y-137166848D01*
X273666934Y-137166847D01*
X273666939Y-137166847D01*
X273778718Y-137120716D01*
X273796280Y-137109984D01*
X273838327Y-137084294D01*
X273838343Y-137084283D01*
X273923085Y-137014158D01*
X273923087Y-137014155D01*
X273923096Y-137014148D01*
X282545665Y-127507994D01*
X296053740Y-127507994D01*
X296053740Y-127508005D01*
X296072747Y-127737396D01*
X296072749Y-127737408D01*
X296129257Y-127960553D01*
X296221724Y-128171355D01*
X296304259Y-128297685D01*
X296937265Y-127664679D01*
X296950450Y-127713885D01*
X297020674Y-127835515D01*
X297119985Y-127934826D01*
X297241615Y-128005050D01*
X297290818Y-128018233D01*
X296656540Y-128652512D01*
X296656540Y-128652514D01*
X296685177Y-128674803D01*
X296685183Y-128674807D01*
X296876627Y-128778412D01*
X296926217Y-128827632D01*
X296941325Y-128895849D01*
X296917154Y-128961404D01*
X296882886Y-128992894D01*
X296724693Y-129090842D01*
X296561120Y-129239959D01*
X296427736Y-129416588D01*
X296329082Y-129614710D01*
X296329077Y-129614723D01*
X296268505Y-129827608D01*
X296248084Y-130047999D01*
X296248084Y-130048000D01*
X296268505Y-130268391D01*
X296329077Y-130481276D01*
X296329082Y-130481289D01*
X296427736Y-130679411D01*
X296561121Y-130856041D01*
X296724690Y-131005155D01*
X296724692Y-131005156D01*
X296724693Y-131005157D01*
X296912870Y-131121671D01*
X296912872Y-131121672D01*
X296912874Y-131121673D01*
X297119264Y-131201629D01*
X297336832Y-131242300D01*
X297336834Y-131242300D01*
X297558166Y-131242300D01*
X297558168Y-131242300D01*
X297775736Y-131201629D01*
X297982126Y-131121673D01*
X298170310Y-131005155D01*
X298333879Y-130856041D01*
X298467264Y-130679411D01*
X298565922Y-130481279D01*
X298626494Y-130268392D01*
X298646916Y-130048000D01*
X298626494Y-129827608D01*
X298565922Y-129614721D01*
X298467264Y-129416589D01*
X298333879Y-129239959D01*
X298170310Y-129090845D01*
X298170307Y-129090843D01*
X298170306Y-129090842D01*
X298012113Y-128992894D01*
X297965477Y-128940866D01*
X297954373Y-128871885D01*
X297982326Y-128807850D01*
X298018372Y-128778412D01*
X298209815Y-128674807D01*
X298209816Y-128674806D01*
X298238458Y-128652513D01*
X298238459Y-128652511D01*
X297604181Y-128018233D01*
X297653385Y-128005050D01*
X297775015Y-127934826D01*
X297874326Y-127835515D01*
X297944550Y-127713885D01*
X297957733Y-127664681D01*
X298590738Y-128297686D01*
X298673274Y-128171357D01*
X298765742Y-127960553D01*
X298822250Y-127737408D01*
X298822252Y-127737396D01*
X298841260Y-127508005D01*
X298841260Y-127507994D01*
X298822252Y-127278603D01*
X298822250Y-127278591D01*
X298765742Y-127055446D01*
X298673275Y-126844644D01*
X298590738Y-126718312D01*
X297957733Y-127351317D01*
X297944550Y-127302115D01*
X297874326Y-127180485D01*
X297775015Y-127081174D01*
X297653385Y-127010950D01*
X297604180Y-126997765D01*
X298238458Y-126363486D01*
X298238458Y-126363484D01*
X298209822Y-126341196D01*
X298209807Y-126341186D01*
X298018372Y-126237586D01*
X297968782Y-126188367D01*
X297953674Y-126120150D01*
X297977845Y-126054595D01*
X298012109Y-126023107D01*
X298170310Y-125925155D01*
X298333879Y-125776041D01*
X298467264Y-125599411D01*
X298565922Y-125401279D01*
X298626494Y-125188392D01*
X298646916Y-124968000D01*
X298626494Y-124747608D01*
X298565922Y-124534721D01*
X298467264Y-124336589D01*
X298333879Y-124159959D01*
X298170310Y-124010845D01*
X298170307Y-124010843D01*
X298170306Y-124010842D01*
X297982129Y-123894328D01*
X297982120Y-123894324D01*
X297896859Y-123861294D01*
X297775736Y-123814371D01*
X297775731Y-123814370D01*
X297773813Y-123813627D01*
X297718411Y-123771054D01*
X297694820Y-123705288D01*
X297710531Y-123637207D01*
X297760554Y-123588428D01*
X297773813Y-123582373D01*
X297775731Y-123581629D01*
X297775736Y-123581629D01*
X297982126Y-123501673D01*
X298170310Y-123385155D01*
X298333879Y-123236041D01*
X298467264Y-123059411D01*
X298565922Y-122861279D01*
X298626494Y-122648392D01*
X298646916Y-122428000D01*
X298626494Y-122207608D01*
X298565922Y-121994721D01*
X298467264Y-121796589D01*
X298333879Y-121619959D01*
X298170310Y-121470845D01*
X298170307Y-121470843D01*
X298170306Y-121470842D01*
X297982129Y-121354328D01*
X297982114Y-121354321D01*
X297867058Y-121309748D01*
X297811656Y-121267176D01*
X297788066Y-121201409D01*
X297803777Y-121133328D01*
X297853801Y-121084550D01*
X297874306Y-121076492D01*
X297874242Y-121076315D01*
X297879319Y-121074465D01*
X297879336Y-121074461D01*
X298078803Y-120981448D01*
X298259087Y-120855212D01*
X298414712Y-120699587D01*
X298540948Y-120519303D01*
X298633961Y-120319836D01*
X298690923Y-120107249D01*
X298710105Y-119888000D01*
X298690923Y-119668751D01*
X298633961Y-119456164D01*
X298540948Y-119256698D01*
X298414712Y-119076413D01*
X298414710Y-119076410D01*
X298286981Y-118948681D01*
X298253496Y-118887358D01*
X298258480Y-118817666D01*
X298300352Y-118761733D01*
X298365816Y-118737316D01*
X298374662Y-118737000D01*
X298384328Y-118737000D01*
X298384344Y-118736999D01*
X298443872Y-118730598D01*
X298443879Y-118730596D01*
X298578586Y-118680354D01*
X298578593Y-118680350D01*
X298693687Y-118594190D01*
X298693690Y-118594187D01*
X298779850Y-118479093D01*
X298779854Y-118479086D01*
X298830096Y-118344379D01*
X298830098Y-118344372D01*
X298836499Y-118284844D01*
X298836500Y-118284827D01*
X298836500Y-117598000D01*
X297919080Y-117598000D01*
X297944550Y-117553885D01*
X297980900Y-117418223D01*
X297980900Y-117277777D01*
X297944550Y-117142115D01*
X297919080Y-117098000D01*
X298836500Y-117098000D01*
X298836500Y-116411172D01*
X298836499Y-116411155D01*
X298830098Y-116351627D01*
X298830096Y-116351620D01*
X298779854Y-116216913D01*
X298779850Y-116216906D01*
X298693690Y-116101812D01*
X298693687Y-116101809D01*
X298578593Y-116015649D01*
X298578586Y-116015645D01*
X298443879Y-115965403D01*
X298443872Y-115965401D01*
X298384344Y-115959000D01*
X297697500Y-115959000D01*
X297697500Y-116876420D01*
X297653385Y-116850950D01*
X297517723Y-116814600D01*
X297377277Y-116814600D01*
X297241615Y-116850950D01*
X297197500Y-116876420D01*
X297197500Y-115959000D01*
X296510655Y-115959000D01*
X296451127Y-115965401D01*
X296451120Y-115965403D01*
X296316413Y-116015645D01*
X296316406Y-116015649D01*
X296201312Y-116101809D01*
X296201309Y-116101812D01*
X296115149Y-116216906D01*
X296115145Y-116216913D01*
X296064903Y-116351620D01*
X296064901Y-116351627D01*
X296058500Y-116411155D01*
X296058500Y-117098000D01*
X296975920Y-117098000D01*
X296950450Y-117142115D01*
X296914100Y-117277777D01*
X296914100Y-117418223D01*
X296950450Y-117553885D01*
X296975920Y-117598000D01*
X296058500Y-117598000D01*
X296058500Y-118284844D01*
X296064901Y-118344372D01*
X296064903Y-118344379D01*
X296115145Y-118479086D01*
X296115149Y-118479093D01*
X296201309Y-118594187D01*
X296201312Y-118594190D01*
X296316406Y-118680350D01*
X296316413Y-118680354D01*
X296451120Y-118730596D01*
X296451127Y-118730598D01*
X296510655Y-118736999D01*
X296510672Y-118737000D01*
X296520338Y-118737000D01*
X296587377Y-118756685D01*
X296633132Y-118809489D01*
X296643076Y-118878647D01*
X296614051Y-118942203D01*
X296608019Y-118948681D01*
X296480289Y-119076410D01*
X296354052Y-119256697D01*
X296354051Y-119256699D01*
X296261040Y-119456162D01*
X296261036Y-119456171D01*
X296204078Y-119668745D01*
X296204076Y-119668755D01*
X296184895Y-119887999D01*
X296184895Y-119888000D01*
X296204076Y-120107244D01*
X296204078Y-120107254D01*
X296261036Y-120319828D01*
X296261038Y-120319832D01*
X296261039Y-120319836D01*
X296306325Y-120416952D01*
X296354052Y-120519303D01*
X296354054Y-120519307D01*
X296480288Y-120699588D01*
X296635911Y-120855211D01*
X296816192Y-120981445D01*
X296816194Y-120981446D01*
X296816197Y-120981448D01*
X297015664Y-121074461D01*
X297015677Y-121074464D01*
X297020758Y-121076315D01*
X297020340Y-121077460D01*
X297074889Y-121110699D01*
X297105427Y-121173541D01*
X297097143Y-121242918D01*
X297052665Y-121296802D01*
X297027942Y-121309748D01*
X296912882Y-121354323D01*
X296912870Y-121354328D01*
X296724693Y-121470842D01*
X296561120Y-121619959D01*
X296427736Y-121796588D01*
X296329082Y-121994710D01*
X296329077Y-121994723D01*
X296268505Y-122207608D01*
X296248084Y-122427999D01*
X296248084Y-122428000D01*
X296268505Y-122648391D01*
X296329077Y-122861276D01*
X296329082Y-122861289D01*
X296427736Y-123059411D01*
X296561121Y-123236041D01*
X296724690Y-123385155D01*
X296724692Y-123385156D01*
X296724693Y-123385157D01*
X296912870Y-123501671D01*
X296912871Y-123501671D01*
X296912874Y-123501673D01*
X297119264Y-123581629D01*
X297119268Y-123581629D01*
X297121187Y-123582373D01*
X297176588Y-123624946D01*
X297200179Y-123690713D01*
X297184468Y-123758793D01*
X297134444Y-123807572D01*
X297121187Y-123813627D01*
X297119268Y-123814370D01*
X297119264Y-123814371D01*
X296951962Y-123879184D01*
X296912876Y-123894326D01*
X296912870Y-123894328D01*
X296724693Y-124010842D01*
X296561120Y-124159959D01*
X296427736Y-124336588D01*
X296329082Y-124534710D01*
X296329077Y-124534723D01*
X296268505Y-124747608D01*
X296248084Y-124967999D01*
X296248084Y-124968000D01*
X296268505Y-125188391D01*
X296329077Y-125401276D01*
X296329082Y-125401289D01*
X296427736Y-125599411D01*
X296561121Y-125776041D01*
X296724690Y-125925155D01*
X296724692Y-125925156D01*
X296724693Y-125925157D01*
X296882886Y-126023106D01*
X296929522Y-126075134D01*
X296940626Y-126144115D01*
X296912673Y-126208150D01*
X296876627Y-126237587D01*
X296685185Y-126341190D01*
X296656540Y-126363485D01*
X296656540Y-126363487D01*
X297290819Y-126997765D01*
X297241615Y-127010950D01*
X297119985Y-127081174D01*
X297020674Y-127180485D01*
X296950450Y-127302115D01*
X296937266Y-127351319D01*
X296304260Y-126718313D01*
X296221724Y-126844644D01*
X296129257Y-127055446D01*
X296072749Y-127278591D01*
X296072747Y-127278603D01*
X296053740Y-127507994D01*
X282545665Y-127507994D01*
X288579387Y-120855975D01*
X288580393Y-120854862D01*
X288580519Y-120854722D01*
X288641328Y-120764139D01*
X288671693Y-120701213D01*
X288702959Y-120607197D01*
X288707246Y-120486349D01*
X288707245Y-120486346D01*
X288707178Y-120484779D01*
X288707322Y-120484193D01*
X288707419Y-120481480D01*
X288707988Y-120481500D01*
X288723948Y-120416952D01*
X288774726Y-120368959D01*
X288802079Y-120359000D01*
X288802063Y-120358937D01*
X288802789Y-120358741D01*
X288803193Y-120358595D01*
X288804140Y-120358375D01*
X288804185Y-120358367D01*
X288838029Y-120349277D01*
X288906770Y-120325479D01*
X289039232Y-120268822D01*
X289103919Y-120235550D01*
X289133872Y-120217352D01*
X289159023Y-120199515D01*
X289193213Y-120175270D01*
X289276000Y-120107254D01*
X289311407Y-120078164D01*
X289338710Y-120054060D01*
X289351458Y-120041975D01*
X289376949Y-120016035D01*
X294354344Y-114578544D01*
X294414125Y-114542389D01*
X294442351Y-114538323D01*
X302894557Y-114303540D01*
X302962117Y-114321355D01*
G37*
%TD.AperFunction*%
%TD*%
%TA.AperFunction,Conductor*%
%TO.N,GND*%
G36*
X276256196Y-113603900D02*
G01*
X276291848Y-113663989D01*
X276295700Y-113694655D01*
X276295700Y-119004304D01*
X276296767Y-119037393D01*
X276297799Y-119053363D01*
X276301008Y-119086382D01*
X276318963Y-119224653D01*
X276318963Y-119224656D01*
X276331713Y-119289656D01*
X276331716Y-119289671D01*
X276339876Y-119320560D01*
X276360897Y-119383394D01*
X276410511Y-119504991D01*
X276410513Y-119504995D01*
X276410517Y-119505004D01*
X276439460Y-119564620D01*
X276455233Y-119592390D01*
X276491606Y-119647773D01*
X276491614Y-119647784D01*
X276491615Y-119647785D01*
X276570629Y-119752664D01*
X276570638Y-119752674D01*
X276613837Y-119802910D01*
X276613842Y-119802915D01*
X276613848Y-119802922D01*
X276636162Y-119825715D01*
X276636172Y-119825724D01*
X276636173Y-119825725D01*
X276685495Y-119869992D01*
X276708373Y-119888000D01*
X276788696Y-119951227D01*
X276788702Y-119951231D01*
X276788707Y-119951235D01*
X276843306Y-119988772D01*
X276843310Y-119988774D01*
X276843311Y-119988775D01*
X276870736Y-120005130D01*
X276892038Y-120016035D01*
X276929723Y-120035327D01*
X277050253Y-120087510D01*
X277106121Y-120107525D01*
X277112632Y-120109858D01*
X277143329Y-120118667D01*
X277143331Y-120118667D01*
X277143333Y-120118668D01*
X277208075Y-120132798D01*
X277345933Y-120153677D01*
X277378858Y-120157581D01*
X277394799Y-120158951D01*
X277427891Y-120160722D01*
X282430783Y-120266716D01*
X283733413Y-120294314D01*
X283733412Y-120294314D01*
X283819604Y-120296140D01*
X288203893Y-120389027D01*
X288270498Y-120410126D01*
X288315124Y-120463887D01*
X288323601Y-120533241D01*
X288293236Y-120596167D01*
X288293110Y-120596307D01*
X273636819Y-136754480D01*
X273577198Y-136790910D01*
X273507347Y-136789325D01*
X273449441Y-136750226D01*
X273421866Y-136686028D01*
X273421000Y-136673792D01*
X272942064Y-113924227D01*
X272939388Y-113797110D01*
X272957658Y-113729671D01*
X273009487Y-113682815D01*
X273063361Y-113670500D01*
X275708860Y-113670500D01*
X275708874Y-113670500D01*
X275734158Y-113669672D01*
X275750342Y-113668611D01*
X275775520Y-113666131D01*
X275791087Y-113664081D01*
X275791086Y-113664080D01*
X275804488Y-113662315D01*
X275915613Y-113647686D01*
X275965198Y-113637823D01*
X275995327Y-113629750D01*
X275996447Y-113629450D01*
X275996452Y-113629448D01*
X275996465Y-113629445D01*
X276044338Y-113613194D01*
X276124248Y-113580093D01*
X276193717Y-113572625D01*
X276256196Y-113603900D01*
G37*
%TD.AperFunction*%
%TA.AperFunction,Conductor*%
G36*
X270078001Y-128382621D02*
G01*
X270105066Y-128388799D01*
X270164076Y-128409447D01*
X270189086Y-128421491D01*
X270242020Y-128454752D01*
X270263729Y-128472065D01*
X270307933Y-128516269D01*
X270325245Y-128537977D01*
X270358501Y-128590903D01*
X270370550Y-128615922D01*
X270391197Y-128674929D01*
X270397375Y-128701999D01*
X270404374Y-128764115D01*
X270404374Y-128791883D01*
X270397375Y-128853999D01*
X270391197Y-128881069D01*
X270370550Y-128940076D01*
X270358501Y-128965095D01*
X270325245Y-129018021D01*
X270307933Y-129039729D01*
X270263729Y-129083933D01*
X270242021Y-129101245D01*
X270189095Y-129134501D01*
X270164076Y-129146550D01*
X270105069Y-129167197D01*
X270077999Y-129173375D01*
X270015881Y-129180374D01*
X269988115Y-129180374D01*
X269925999Y-129173376D01*
X269898926Y-129167197D01*
X269839924Y-129146551D01*
X269814906Y-129134503D01*
X269761977Y-129101245D01*
X269740269Y-129083933D01*
X269696064Y-129039728D01*
X269678752Y-129018020D01*
X269645496Y-128965094D01*
X269633448Y-128940076D01*
X269612801Y-128881071D01*
X269606622Y-128853999D01*
X269599623Y-128791870D01*
X269599623Y-128764122D01*
X269606623Y-128701987D01*
X269612800Y-128674929D01*
X269633449Y-128615918D01*
X269645489Y-128590914D01*
X269678754Y-128537973D01*
X269696061Y-128516272D01*
X269740272Y-128472061D01*
X269761973Y-128454754D01*
X269814914Y-128421489D01*
X269839918Y-128409449D01*
X269898933Y-128388798D01*
X269925986Y-128382623D01*
X269988126Y-128375622D01*
X270015880Y-128375622D01*
X270078001Y-128382621D01*
G37*
%TD.AperFunction*%
%TA.AperFunction,Conductor*%
G36*
X296107039Y-80665185D02*
G01*
X296152794Y-80717989D01*
X296164000Y-80769500D01*
X296164000Y-85722500D01*
X296144315Y-85789539D01*
X296091511Y-85835294D01*
X296040000Y-85846500D01*
X295491751Y-85846500D01*
X295491695Y-85846500D01*
X295490212Y-85846501D01*
X295489718Y-85846503D01*
X295489588Y-85846504D01*
X295489577Y-85846504D01*
X295488805Y-85846506D01*
X295488705Y-85846507D01*
X295487828Y-85846511D01*
X295487762Y-85846511D01*
X295487144Y-85846514D01*
X295487145Y-85846515D01*
X295482652Y-85846541D01*
X295481865Y-85846546D01*
X295481855Y-85846546D01*
X295481699Y-85846547D01*
X295481698Y-85846546D01*
X295479019Y-85846569D01*
X295477357Y-85846589D01*
X295474840Y-85846626D01*
X295470581Y-85846698D01*
X295468744Y-85846729D01*
X295468443Y-85846734D01*
X295468036Y-85846740D01*
X295467597Y-85846748D01*
X295467207Y-85846756D01*
X295467138Y-85846757D01*
X295464891Y-85846804D01*
X295281417Y-85850964D01*
X295281415Y-85850964D01*
X295153809Y-85853855D01*
X295086340Y-85835694D01*
X295039401Y-85783940D01*
X295027000Y-85729887D01*
X295027000Y-82042000D01*
X290709000Y-82042000D01*
X290709000Y-85220000D01*
X290689315Y-85287039D01*
X290636511Y-85332794D01*
X290585000Y-85344000D01*
X285245000Y-85344000D01*
X285177961Y-85324315D01*
X285132206Y-85271511D01*
X285121000Y-85220000D01*
X285121000Y-82042000D01*
X280803000Y-82042000D01*
X280803000Y-86360000D01*
X283981000Y-86360000D01*
X284048039Y-86379685D01*
X284093794Y-86432489D01*
X284105000Y-86484000D01*
X284105000Y-91824000D01*
X284085315Y-91891039D01*
X284032511Y-91936794D01*
X283981000Y-91948000D01*
X280803000Y-91948000D01*
X280803000Y-96266000D01*
X282913536Y-96266000D01*
X282980575Y-96285685D01*
X283026330Y-96338489D01*
X283036274Y-96407647D01*
X283034977Y-96415064D01*
X282720828Y-97937183D01*
X282718330Y-97950123D01*
X282717241Y-97956181D01*
X282715521Y-97966490D01*
X282715103Y-97968999D01*
X282708479Y-98012048D01*
X282708469Y-98012114D01*
X282708467Y-98012130D01*
X282706706Y-98023578D01*
X282703406Y-98049386D01*
X282703405Y-98049399D01*
X282702123Y-98061947D01*
X282700968Y-98077032D01*
X282700125Y-98088057D01*
X282697325Y-98143052D01*
X282696824Y-98156179D01*
X282696665Y-98162478D01*
X282696665Y-98162483D01*
X282696500Y-98175508D01*
X282696500Y-98377200D01*
X282696501Y-98377209D01*
X282708235Y-98486351D01*
X282708237Y-98486363D01*
X282719443Y-98537873D01*
X282754106Y-98642020D01*
X282754109Y-98642026D01*
X282833128Y-98764981D01*
X282844404Y-98777994D01*
X282873428Y-98841550D01*
X282874690Y-98859060D01*
X282879355Y-103123972D01*
X282879356Y-103124577D01*
X282879356Y-103124646D01*
X282883037Y-106491305D01*
X282863426Y-106558366D01*
X282810672Y-106604179D01*
X282760267Y-106615435D01*
X280004506Y-106642775D01*
X277440850Y-106668208D01*
X277407537Y-106669622D01*
X277391506Y-106670825D01*
X277391488Y-106670826D01*
X277391487Y-106670827D01*
X277358267Y-106674411D01*
X277335495Y-106677619D01*
X277219191Y-106694008D01*
X277219184Y-106694009D01*
X277153864Y-106707592D01*
X277153855Y-106707594D01*
X277122847Y-106716178D01*
X277122844Y-106716178D01*
X277064193Y-106736603D01*
X277023415Y-106743500D01*
X264099000Y-106743500D01*
X264031961Y-106723815D01*
X263986206Y-106671011D01*
X263975000Y-106619500D01*
X263975000Y-100613212D01*
X263994685Y-100546173D01*
X264033455Y-100507951D01*
X264086615Y-100474851D01*
X264139419Y-100429096D01*
X264205358Y-100355159D01*
X264257158Y-100245892D01*
X264276843Y-100178853D01*
X264292500Y-100069960D01*
X264292500Y-93322100D01*
X264312185Y-93255061D01*
X264364989Y-93209306D01*
X264416500Y-93198100D01*
X271746460Y-93198100D01*
X271746474Y-93198100D01*
X271771758Y-93197272D01*
X271787942Y-93196211D01*
X271813120Y-93193731D01*
X271828687Y-93191681D01*
X271828686Y-93191680D01*
X271842088Y-93189915D01*
X271953213Y-93175286D01*
X272002798Y-93165423D01*
X272025423Y-93159360D01*
X272034047Y-93157050D01*
X272034052Y-93157048D01*
X272034065Y-93157045D01*
X272081938Y-93140794D01*
X272204925Y-93089851D01*
X272250269Y-93067490D01*
X272278302Y-93051305D01*
X272320335Y-93023220D01*
X272425945Y-92942184D01*
X272463958Y-92908848D01*
X272486848Y-92885958D01*
X272520184Y-92847945D01*
X272601220Y-92742335D01*
X272629305Y-92700302D01*
X272645490Y-92672269D01*
X272667851Y-92626925D01*
X272718794Y-92503938D01*
X272735045Y-92456065D01*
X272743423Y-92424798D01*
X272753286Y-92375215D01*
X272771732Y-92235111D01*
X272774211Y-92209941D01*
X272775272Y-92193755D01*
X272776100Y-92168474D01*
X272776100Y-82685125D01*
X272775272Y-82659844D01*
X272774211Y-82643658D01*
X272771732Y-82618488D01*
X272753286Y-82478384D01*
X272743423Y-82428801D01*
X272735045Y-82397534D01*
X272718794Y-82349661D01*
X272667851Y-82226674D01*
X272645490Y-82181330D01*
X272629305Y-82153297D01*
X272601223Y-82111268D01*
X272601221Y-82111264D01*
X272520180Y-82005649D01*
X272520171Y-82005638D01*
X272486857Y-81967651D01*
X272486855Y-81967649D01*
X272486848Y-81967641D01*
X272463960Y-81944753D01*
X272463959Y-81944752D01*
X272463950Y-81944743D01*
X272425954Y-81911423D01*
X272361120Y-81861675D01*
X272361117Y-81861673D01*
X272320346Y-81830387D01*
X272318729Y-81829306D01*
X272278302Y-81802294D01*
X272278297Y-81802291D01*
X272250273Y-81786111D01*
X272204922Y-81763746D01*
X272081939Y-81712805D01*
X272081919Y-81712798D01*
X272034073Y-81696556D01*
X272034036Y-81696545D01*
X272002803Y-81688177D01*
X272002782Y-81688172D01*
X271953208Y-81678312D01*
X271813120Y-81659869D01*
X271787943Y-81657389D01*
X271771761Y-81656328D01*
X271766138Y-81656144D01*
X271746474Y-81655500D01*
X236609126Y-81655500D01*
X236583843Y-81656328D01*
X236567642Y-81657390D01*
X236542488Y-81659867D01*
X236402391Y-81678311D01*
X236402368Y-81678315D01*
X236352840Y-81688166D01*
X236352797Y-81688176D01*
X236321537Y-81696552D01*
X236321534Y-81696553D01*
X236273674Y-81712798D01*
X236273661Y-81712803D01*
X236150674Y-81763746D01*
X236150672Y-81763747D01*
X236144841Y-81766622D01*
X236076011Y-81778617D01*
X236011620Y-81751495D01*
X235972114Y-81693866D01*
X235966000Y-81655409D01*
X235966000Y-80769500D01*
X235985685Y-80702461D01*
X236038489Y-80656706D01*
X236090000Y-80645500D01*
X296040000Y-80645500D01*
X296107039Y-80665185D01*
G37*
%TD.AperFunction*%
%TA.AperFunction,Conductor*%
G36*
X287989336Y-94444908D02*
G01*
X288046382Y-94457033D01*
X288071019Y-94465038D01*
X288124302Y-94488761D01*
X288146748Y-94501721D01*
X288192327Y-94534837D01*
X288192336Y-94534844D01*
X288193931Y-94536003D01*
X288213189Y-94553344D01*
X288252208Y-94596679D01*
X288267444Y-94617649D01*
X288296601Y-94668150D01*
X288307143Y-94691829D01*
X288325163Y-94747290D01*
X288330553Y-94772646D01*
X288336648Y-94830638D01*
X288336648Y-94856560D01*
X288330553Y-94914552D01*
X288325163Y-94939908D01*
X288307143Y-94995369D01*
X288296599Y-95019052D01*
X288267447Y-95069545D01*
X288252209Y-95090518D01*
X288213181Y-95133862D01*
X288193917Y-95151207D01*
X288146752Y-95185474D01*
X288124303Y-95198435D01*
X288071028Y-95222155D01*
X288046375Y-95230166D01*
X288023006Y-95235133D01*
X287989338Y-95242290D01*
X287963557Y-95245000D01*
X287905243Y-95245000D01*
X287879461Y-95242290D01*
X287822420Y-95230165D01*
X287797766Y-95222154D01*
X287744504Y-95198440D01*
X287722054Y-95185479D01*
X287703835Y-95172242D01*
X287703835Y-95172241D01*
X287674876Y-95151202D01*
X287655611Y-95133856D01*
X287616591Y-95090521D01*
X287601353Y-95069547D01*
X287572196Y-95019045D01*
X287561654Y-94995369D01*
X287543633Y-94939907D01*
X287538246Y-94914561D01*
X287532150Y-94856557D01*
X287532150Y-94830637D01*
X287538246Y-94772638D01*
X287543634Y-94747290D01*
X287561655Y-94691824D01*
X287572193Y-94668157D01*
X287601359Y-94617639D01*
X287616588Y-94596679D01*
X287655611Y-94553340D01*
X287674871Y-94535999D01*
X287722051Y-94501720D01*
X287744488Y-94488764D01*
X287797774Y-94465039D01*
X287822414Y-94457033D01*
X287854640Y-94450184D01*
X287879462Y-94444909D01*
X287905240Y-94442200D01*
X287963563Y-94442200D01*
X287989336Y-94444908D01*
G37*
%TD.AperFunction*%
%TD*%
M02*
