%TF.GenerationSoftware,KiCad,Pcbnew,8.0.7-8.0.7-0~ubuntu24.04.1*%
%TF.CreationDate,2025-01-13T21:05:38-08:00*%
%TF.ProjectId,NX-J401-Adapter,4e582d4a-3430-4312-9d41-646170746572,4*%
%TF.SameCoordinates,Original*%
%TF.FileFunction,Copper,L1,Top*%
%TF.FilePolarity,Positive*%
%FSLAX46Y46*%
G04 Gerber Fmt 4.6, Leading zero omitted, Abs format (unit mm)*
G04 Created by KiCad (PCBNEW 8.0.7-8.0.7-0~ubuntu24.04.1) date 2025-01-13 21:05:38*
%MOMM*%
%LPD*%
G01*
G04 APERTURE LIST*
G04 Aperture macros list*
%AMRoundRect*
0 Rectangle with rounded corners*
0 $1 Rounding radius*
0 $2 $3 $4 $5 $6 $7 $8 $9 X,Y pos of 4 corners*
0 Add a 4 corners polygon primitive as box body*
4,1,4,$2,$3,$4,$5,$6,$7,$8,$9,$2,$3,0*
0 Add four circle primitives for the rounded corners*
1,1,$1+$1,$2,$3*
1,1,$1+$1,$4,$5*
1,1,$1+$1,$6,$7*
1,1,$1+$1,$8,$9*
0 Add four rect primitives between the rounded corners*
20,1,$1+$1,$2,$3,$4,$5,0*
20,1,$1+$1,$4,$5,$6,$7,0*
20,1,$1+$1,$6,$7,$8,$9,0*
20,1,$1+$1,$8,$9,$2,$3,0*%
%AMFreePoly0*
4,1,18,2.145000,-2.250000,-2.145000,-2.250000,-2.805000,-2.250000,-2.805000,-1.590000,-2.145000,-1.590000,-2.145000,-0.970000,-2.805000,-0.970000,-2.805000,-0.310000,-2.145000,-0.310000,-2.145000,0.310000,-2.805000,0.310000,-2.805000,0.970000,-2.145000,0.970000,-2.145000,1.590000,-2.805000,1.590000,-2.805000,2.250000,2.145000,2.250000,2.145000,-2.250000,2.145000,-2.250000,$1*%
G04 Aperture macros list end*
%ADD10C,0.300000*%
%TA.AperFunction,NonConductor*%
%ADD11C,0.300000*%
%TD*%
%TA.AperFunction,SMDPad,CuDef*%
%ADD12RoundRect,0.250000X2.050000X0.300000X-2.050000X0.300000X-2.050000X-0.300000X2.050000X-0.300000X0*%
%TD*%
%TA.AperFunction,SMDPad,CuDef*%
%ADD13RoundRect,0.250000X2.025000X2.375000X-2.025000X2.375000X-2.025000X-2.375000X2.025000X-2.375000X0*%
%TD*%
%TA.AperFunction,SMDPad,CuDef*%
%ADD14RoundRect,0.250002X4.449998X5.149998X-4.449998X5.149998X-4.449998X-5.149998X4.449998X-5.149998X0*%
%TD*%
%TA.AperFunction,SMDPad,CuDef*%
%ADD15R,0.750000X0.660000*%
%TD*%
%TA.AperFunction,SMDPad,CuDef*%
%ADD16FreePoly0,180.000000*%
%TD*%
%TA.AperFunction,SMDPad,CuDef*%
%ADD17RoundRect,0.250000X-0.450000X0.262500X-0.450000X-0.262500X0.450000X-0.262500X0.450000X0.262500X0*%
%TD*%
%TA.AperFunction,SMDPad,CuDef*%
%ADD18R,1.090000X1.500000*%
%TD*%
%TA.AperFunction,ComponentPad*%
%ADD19R,1.600000X1.600000*%
%TD*%
%TA.AperFunction,ComponentPad*%
%ADD20C,1.600000*%
%TD*%
%TA.AperFunction,ComponentPad*%
%ADD21C,1.498600*%
%TD*%
%TA.AperFunction,ComponentPad*%
%ADD22C,1.803400*%
%TD*%
%TA.AperFunction,SMDPad,CuDef*%
%ADD23RoundRect,0.250000X-0.475000X0.250000X-0.475000X-0.250000X0.475000X-0.250000X0.475000X0.250000X0*%
%TD*%
%TA.AperFunction,ComponentPad*%
%ADD24C,2.200000*%
%TD*%
%TA.AperFunction,SMDPad,CuDef*%
%ADD25RoundRect,0.250000X0.450000X-0.262500X0.450000X0.262500X-0.450000X0.262500X-0.450000X-0.262500X0*%
%TD*%
%TA.AperFunction,SMDPad,CuDef*%
%ADD26RoundRect,0.250000X0.262500X0.450000X-0.262500X0.450000X-0.262500X-0.450000X0.262500X-0.450000X0*%
%TD*%
%TA.AperFunction,ComponentPad*%
%ADD27R,1.778000X1.778000*%
%TD*%
%TA.AperFunction,ComponentPad*%
%ADD28C,1.905000*%
%TD*%
%TA.AperFunction,ComponentPad*%
%ADD29C,1.778000*%
%TD*%
%TA.AperFunction,SMDPad,CuDef*%
%ADD30RoundRect,0.150000X0.825000X0.150000X-0.825000X0.150000X-0.825000X-0.150000X0.825000X-0.150000X0*%
%TD*%
%TA.AperFunction,SMDPad,CuDef*%
%ADD31RoundRect,0.250000X0.900000X-1.000000X0.900000X1.000000X-0.900000X1.000000X-0.900000X-1.000000X0*%
%TD*%
%TA.AperFunction,SMDPad,CuDef*%
%ADD32RoundRect,0.250000X-0.262500X-0.450000X0.262500X-0.450000X0.262500X0.450000X-0.262500X0.450000X0*%
%TD*%
%TA.AperFunction,ComponentPad*%
%ADD33R,2.000000X2.000000*%
%TD*%
%TA.AperFunction,ComponentPad*%
%ADD34C,2.000000*%
%TD*%
%TA.AperFunction,SMDPad,CuDef*%
%ADD35RoundRect,0.250000X0.300000X-0.300000X0.300000X0.300000X-0.300000X0.300000X-0.300000X-0.300000X0*%
%TD*%
%TA.AperFunction,ComponentPad*%
%ADD36C,1.701800*%
%TD*%
%TA.AperFunction,SMDPad,CuDef*%
%ADD37RoundRect,0.150000X-0.825000X-0.150000X0.825000X-0.150000X0.825000X0.150000X-0.825000X0.150000X0*%
%TD*%
%TA.AperFunction,SMDPad,CuDef*%
%ADD38RoundRect,0.250000X-0.362500X-1.425000X0.362500X-1.425000X0.362500X1.425000X-0.362500X1.425000X0*%
%TD*%
%TA.AperFunction,SMDPad,CuDef*%
%ADD39RoundRect,0.250000X0.250000X0.475000X-0.250000X0.475000X-0.250000X-0.475000X0.250000X-0.475000X0*%
%TD*%
%TA.AperFunction,SMDPad,CuDef*%
%ADD40RoundRect,0.250000X-0.250000X-0.475000X0.250000X-0.475000X0.250000X0.475000X-0.250000X0.475000X0*%
%TD*%
%TA.AperFunction,SMDPad,CuDef*%
%ADD41R,3.265000X5.210000*%
%TD*%
%TA.AperFunction,SMDPad,CuDef*%
%ADD42R,5.210000X3.275000*%
%TD*%
%TA.AperFunction,ViaPad*%
%ADD43C,0.812800*%
%TD*%
%TA.AperFunction,ViaPad*%
%ADD44C,0.711200*%
%TD*%
%TA.AperFunction,Conductor*%
%ADD45C,0.254000*%
%TD*%
%TA.AperFunction,Conductor*%
%ADD46C,0.381000*%
%TD*%
%TA.AperFunction,Conductor*%
%ADD47C,0.508000*%
%TD*%
%TA.AperFunction,Conductor*%
%ADD48C,0.762000*%
%TD*%
%TA.AperFunction,Conductor*%
%ADD49C,0.304800*%
%TD*%
G04 APERTURE END LIST*
D10*
D11*
G36*
X323595000Y-94382815D02*
G01*
X323595000Y-94699720D01*
X322738073Y-94699720D01*
X322662367Y-94698687D01*
X322597023Y-94696789D01*
X322519867Y-94693940D01*
X322443517Y-94691294D01*
X322488213Y-94736723D01*
X322538663Y-94793063D01*
X322545000Y-94800471D01*
X322682020Y-94972662D01*
X322492976Y-95126168D01*
X322094371Y-94642934D01*
X322094371Y-94382815D01*
X323595000Y-94382815D01*
G37*
D10*
D11*
X33217368Y-81385474D02*
X32624701Y-81385474D01*
X32624701Y-82316807D02*
X32624701Y-80538807D01*
X32624701Y-80538807D02*
X33471368Y-80538807D01*
X34148701Y-82147474D02*
X34233368Y-82232141D01*
X34233368Y-82232141D02*
X34148701Y-82316807D01*
X34148701Y-82316807D02*
X34064034Y-82232141D01*
X34064034Y-82232141D02*
X34148701Y-82147474D01*
X34148701Y-82147474D02*
X34148701Y-82316807D01*
X36011368Y-82147474D02*
X35926701Y-82232141D01*
X35926701Y-82232141D02*
X35672701Y-82316807D01*
X35672701Y-82316807D02*
X35503368Y-82316807D01*
X35503368Y-82316807D02*
X35249368Y-82232141D01*
X35249368Y-82232141D02*
X35080035Y-82062807D01*
X35080035Y-82062807D02*
X34995368Y-81893474D01*
X34995368Y-81893474D02*
X34910701Y-81554807D01*
X34910701Y-81554807D02*
X34910701Y-81300807D01*
X34910701Y-81300807D02*
X34995368Y-80962141D01*
X34995368Y-80962141D02*
X35080035Y-80792807D01*
X35080035Y-80792807D02*
X35249368Y-80623474D01*
X35249368Y-80623474D02*
X35503368Y-80538807D01*
X35503368Y-80538807D02*
X35672701Y-80538807D01*
X35672701Y-80538807D02*
X35926701Y-80623474D01*
X35926701Y-80623474D02*
X36011368Y-80708141D01*
X37535368Y-81131474D02*
X37535368Y-82316807D01*
X36773368Y-81131474D02*
X36773368Y-82062807D01*
X36773368Y-82062807D02*
X36858035Y-82232141D01*
X36858035Y-82232141D02*
X37027368Y-82316807D01*
X37027368Y-82316807D02*
X37281368Y-82316807D01*
X37281368Y-82316807D02*
X37450701Y-82232141D01*
X37450701Y-82232141D02*
X37535368Y-82147474D01*
D12*
%TO.P,D1,1,A*%
%TO.N,/Power Supply/SW*%
X294640000Y-89916000D03*
D13*
%TO.P,D1,2,K*%
%TO.N,/+18V_OUT*%
X287915000Y-90151000D03*
X287915000Y-84601000D03*
D14*
X285490000Y-87376000D03*
D13*
X283065000Y-90151000D03*
X283065000Y-84601000D03*
D12*
%TO.P,D1,3,A*%
%TO.N,/Power Supply/SW*%
X294640000Y-84836000D03*
%TD*%
D15*
%TO.P,Q1,1,S*%
%TO.N,/Power Supply/Q_S*%
X291195000Y-94092000D03*
%TO.P,Q1,2,S*%
X291195000Y-95372000D03*
%TO.P,Q1,3,S*%
X291195000Y-96652000D03*
%TO.P,Q1,4,G*%
%TO.N,Net-(Q1-G)*%
X291195000Y-97932000D03*
D16*
%TO.P,Q1,5,D*%
%TO.N,/Power Supply/SW*%
X294265000Y-96012000D03*
%TD*%
D17*
%TO.P,R8,1*%
%TO.N,Net-(D2-A)*%
X295656000Y-114149500D03*
%TO.P,R8,2*%
%TO.N,/Power Supply/V_IN*%
X295656000Y-115974500D03*
%TD*%
D18*
%TO.P,D5,1,Red-K*%
%TO.N,Net-(D5A-Red-K)*%
X281027000Y-154432000D03*
%TO.P,D5,2,RedA*%
%TO.N,GND*%
X281027000Y-157432000D03*
%TO.P,D5,3,Green-A*%
%TO.N,Net-(D5A-Red-K)*%
X279527000Y-154432000D03*
%TO.P,D5,4,Green-K*%
%TO.N,GND*%
X279527000Y-157432000D03*
%TD*%
D19*
%TO.P,C2,1*%
%TO.N,/+18V_OUT*%
X275590000Y-93980000D03*
D20*
%TO.P,C2,2*%
%TO.N,GND*%
X275590000Y-97480000D03*
%TD*%
D21*
%TO.P,SW1,1,1*%
%TO.N,/~{REC}*%
X234478000Y-156285700D03*
%TO.P,SW1,2,2*%
%TO.N,/RTN*%
X238978001Y-156285700D03*
D22*
%TO.P,SW1,3*%
%TO.N,N/C*%
X233228001Y-153785824D03*
%TO.P,SW1,4*%
X240228000Y-153785824D03*
%TD*%
D23*
%TO.P,C8,1*%
%TO.N,/V_BAT*%
X291592000Y-114112000D03*
%TO.P,C8,2*%
%TO.N,GND*%
X291592000Y-116012000D03*
%TD*%
D19*
%TO.P,C1,1*%
%TO.N,/+18V_OUT*%
X275590000Y-84785200D03*
D20*
%TO.P,C1,2*%
%TO.N,GND*%
X275590000Y-88285200D03*
%TD*%
D24*
%TO.P,J4,1,Pin_1*%
%TO.N,/V_BAT*%
X290601400Y-148365600D03*
X290601400Y-156565600D03*
%TO.P,J4,2,Pin_2*%
%TO.N,GND*%
X295681400Y-148365600D03*
X295681400Y-156565600D03*
%TD*%
D25*
%TO.P,R5,1*%
%TO.N,GND*%
X284708600Y-102918900D03*
%TO.P,R5,2*%
%TO.N,Net-(U1-FB)*%
X284708600Y-101093900D03*
%TD*%
D26*
%TO.P,R2,1*%
%TO.N,Net-(U1-FB)*%
X283182700Y-99288600D03*
%TO.P,R2,2*%
%TO.N,/+18V_OUT*%
X281357700Y-99288600D03*
%TD*%
D27*
%TO.P,J3,1,Pin_1*%
%TO.N,/RTN*%
X266065000Y-147320000D03*
D28*
%TO.P,J3,2,Pin_2*%
%TO.N,/UART2_RXD*%
X263525000Y-147320000D03*
D29*
%TO.P,J3,3,Pin_3*%
%TO.N,/UART2_TXD*%
X260985000Y-147320000D03*
%TD*%
D30*
%TO.P,Q2,1,S*%
%TO.N,/Power Supply/V_IN*%
X296607000Y-111633000D03*
%TO.P,Q2,2,S*%
X296607000Y-110363000D03*
%TO.P,Q2,3,S*%
X296607000Y-109093000D03*
%TO.P,Q2,4,G*%
%TO.N,Net-(D2-A)*%
X296607000Y-107823000D03*
%TO.P,Q2,5,D*%
%TO.N,/V_BAT*%
X291657000Y-107823000D03*
%TO.P,Q2,6,D*%
X291657000Y-109093000D03*
%TO.P,Q2,7,D*%
X291657000Y-110363000D03*
%TO.P,Q2,8,D*%
X291657000Y-111633000D03*
%TD*%
D21*
%TO.P,SW2,1,1*%
%TO.N,/~{SYS_RESET}*%
X247178000Y-156285700D03*
%TO.P,SW2,2,2*%
%TO.N,/RTN*%
X251678001Y-156285700D03*
D22*
%TO.P,SW2,3*%
%TO.N,N/C*%
X245928001Y-153785824D03*
%TO.P,SW2,4*%
X252928000Y-153785824D03*
%TD*%
D31*
%TO.P,D3,1,A1*%
%TO.N,GND*%
X287782000Y-126864000D03*
%TO.P,D3,2,A2*%
%TO.N,/V_BAT*%
X287782000Y-122564000D03*
%TD*%
D25*
%TO.P,R4,1*%
%TO.N,GND*%
X298450000Y-102385540D03*
%TO.P,R4,2*%
%TO.N,Net-(U1-FA{slash}SD)*%
X298450000Y-100560540D03*
%TD*%
D27*
%TO.P,J2,1,Pin_1*%
%TO.N,/RTN*%
X256272500Y-124460000D03*
D28*
%TO.P,J2,2,Pin_2*%
%TO.N,/UART2_RXD*%
X256272500Y-121920000D03*
D29*
%TO.P,J2,3,Pin_3*%
%TO.N,/UART2_TXD*%
X256272500Y-119380000D03*
%TO.P,J2,4,Pin_4*%
%TO.N,/~{SYS_RESET}*%
X256272500Y-116840000D03*
%TO.P,J2,5,Pin_5*%
%TO.N,/~{REC}*%
X256272500Y-114300000D03*
%TO.P,J2,6,Pin_6*%
%TO.N,Net-(D4A-Red-K)*%
X256272500Y-111760000D03*
%TO.P,J2,7,Pin_7*%
%TO.N,Net-(D4A-RedA)*%
X256272500Y-109220000D03*
%TD*%
D32*
%TO.P,R9,1*%
%TO.N,Net-(D5A-Red-K)*%
X279376500Y-151663400D03*
%TO.P,R9,2*%
%TO.N,/V_BAT*%
X281201500Y-151663400D03*
%TD*%
D33*
%TO.P,C5,1*%
%TO.N,/Power Supply/V_IN*%
X309961677Y-103124000D03*
D34*
%TO.P,C5,2*%
%TO.N,GND*%
X304961677Y-103124000D03*
%TD*%
D35*
%TO.P,D2,1,K*%
%TO.N,/Power Supply/V_IN*%
X297815000Y-116970000D03*
%TO.P,D2,2,A*%
%TO.N,Net-(D2-A)*%
X297815000Y-114170000D03*
%TD*%
D36*
%TO.P,J1,1,Pin_1*%
%TO.N,/+18V_OUT*%
X256946400Y-85594200D03*
X256946400Y-90594200D03*
%TO.P,J1,2,Pin_2*%
%TO.N,GND*%
X261946400Y-85594200D03*
X261946400Y-90594200D03*
%TD*%
D37*
%TO.P,U1,1,I_{SEN}*%
%TO.N,Net-(U1-I_{SEN})*%
X289117000Y-99441000D03*
%TO.P,U1,2,COMP*%
%TO.N,Net-(U1-COMP)*%
X289117000Y-100711000D03*
%TO.P,U1,3,FB*%
%TO.N,Net-(U1-FB)*%
X289117000Y-101981000D03*
%TO.P,U1,4,AGND*%
%TO.N,GND*%
X289117000Y-103251000D03*
%TO.P,U1,5,PGND*%
X294067000Y-103251000D03*
%TO.P,U1,6,DR*%
%TO.N,Net-(Q1-G)*%
X294067000Y-101981000D03*
%TO.P,U1,7,FA/SD*%
%TO.N,Net-(U1-FA{slash}SD)*%
X294067000Y-100711000D03*
%TO.P,U1,8,V_{IN}*%
%TO.N,/Power Supply/V_IN*%
X294067000Y-99441000D03*
%TD*%
D32*
%TO.P,R6,1*%
%TO.N,GND*%
X284583500Y-105410000D03*
%TO.P,R6,2*%
%TO.N,Net-(C6-Pad2)*%
X286408500Y-105410000D03*
%TD*%
D38*
%TO.P,R1,1*%
%TO.N,GND*%
X283803500Y-95250000D03*
%TO.P,R1,2*%
%TO.N,/Power Supply/Q_S*%
X289728500Y-95250000D03*
%TD*%
D32*
%TO.P,R3,1*%
%TO.N,/Power Supply/Q_S*%
X284915600Y-99288600D03*
%TO.P,R3,2*%
%TO.N,Net-(U1-I_{SEN})*%
X286740600Y-99288600D03*
%TD*%
D39*
%TO.P,C6,1*%
%TO.N,Net-(U1-COMP)*%
X290002000Y-105410000D03*
%TO.P,C6,2*%
%TO.N,Net-(C6-Pad2)*%
X288102000Y-105410000D03*
%TD*%
D23*
%TO.P,C4,1*%
%TO.N,Net-(U1-I_{SEN})*%
X286740600Y-101056400D03*
%TO.P,C4,2*%
%TO.N,GND*%
X286740600Y-102956400D03*
%TD*%
D40*
%TO.P,C7,1*%
%TO.N,Net-(U1-COMP)*%
X291658000Y-105410000D03*
%TO.P,C7,2*%
%TO.N,GND*%
X293558000Y-105410000D03*
%TD*%
D25*
%TO.P,R7,1*%
%TO.N,GND*%
X293624000Y-115974500D03*
%TO.P,R7,2*%
%TO.N,Net-(D2-A)*%
X293624000Y-114149500D03*
%TD*%
D41*
%TO.P,L1,1,1*%
%TO.N,/Power Supply/V_IN*%
X311427500Y-89154000D03*
%TO.P,L1,2,2*%
%TO.N,/Power Supply/SW*%
X299962500Y-89154000D03*
D42*
%TO.P,L1,3,3*%
%TO.N,GND*%
X305695000Y-94831500D03*
%TO.P,L1,4,4*%
X305695000Y-83476500D03*
%TD*%
D18*
%TO.P,D4,1,Red-K*%
%TO.N,Net-(D4A-Red-K)*%
X275947000Y-154432000D03*
%TO.P,D4,2,RedA*%
%TO.N,Net-(D4A-RedA)*%
X275947000Y-157432000D03*
%TO.P,D4,3,Green-A*%
%TO.N,Net-(D4A-Red-K)*%
X274447000Y-154432000D03*
%TO.P,D4,4,Green-K*%
%TO.N,Net-(D4A-RedA)*%
X274447000Y-157432000D03*
%TD*%
D23*
%TO.P,C3,1*%
%TO.N,/Power Supply/V_IN*%
X296418000Y-100523040D03*
%TO.P,C3,2*%
%TO.N,GND*%
X296418000Y-102423040D03*
%TD*%
D43*
%TO.N,GND*%
X291592000Y-117221010D03*
X285242000Y-96266000D03*
X285241982Y-94234000D03*
X278130000Y-157353000D03*
D44*
X283438600Y-105359200D03*
X289052000Y-104266998D03*
D43*
X305714400Y-83515200D03*
X291605822Y-100813988D03*
X287782000Y-128778000D03*
X285242000Y-95250000D03*
X305714400Y-94843600D03*
X294995600Y-105410000D03*
X293624000Y-117221000D03*
%TO.N,/+18V_OUT*%
X279146000Y-91948000D03*
X279146000Y-84836000D03*
X280162000Y-86614000D03*
X280162000Y-83058000D03*
X280162000Y-90170000D03*
X279146000Y-88392000D03*
%TO.N,/Power Supply/V_IN*%
X294970204Y-110362988D03*
X313690000Y-89154000D03*
X298323000Y-111633000D03*
X313690000Y-87122000D03*
X298323034Y-109093000D03*
X299720008Y-110388408D03*
X313690000Y-91186000D03*
%TO.N,/V_BAT*%
X290068000Y-107848400D03*
X287782000Y-120650000D03*
X293370000Y-111633000D03*
X291592000Y-112828307D03*
X290068000Y-110388400D03*
X293370000Y-109067600D03*
%TD*%
D45*
%TO.N,GND*%
X283803500Y-95250000D02*
X283803500Y-94656500D01*
D46*
X286740600Y-104089200D02*
X288874202Y-104089200D01*
X293558000Y-105410000D02*
X294995600Y-105410000D01*
D47*
X295732200Y-104140000D02*
X296418000Y-103454200D01*
D45*
X283803500Y-95250000D02*
X283803500Y-95843500D01*
X283972000Y-94488000D02*
X283803500Y-94656500D01*
X283803500Y-94656500D02*
X284226000Y-94234000D01*
D48*
X305702300Y-94831500D02*
X305714400Y-94843600D01*
D47*
X291605822Y-102147222D02*
X291605822Y-100813988D01*
X284226000Y-94234000D02*
X285241982Y-94234000D01*
D46*
X293624000Y-115974500D02*
X293624000Y-117221000D01*
D47*
X283803500Y-95250000D02*
X285242000Y-95250000D01*
D46*
X284708600Y-102918900D02*
X284708600Y-104089200D01*
X291592000Y-116012000D02*
X291592000Y-117221010D01*
D45*
X283803500Y-95843500D02*
X284226000Y-96266000D01*
D47*
X284226000Y-96266000D02*
X285242000Y-96266000D01*
D46*
X289117000Y-103251000D02*
X289117000Y-104201998D01*
X288874202Y-104089200D02*
X289052000Y-104266998D01*
X279527000Y-157432000D02*
X278209000Y-157432000D01*
X286740600Y-102956400D02*
X286740600Y-104089200D01*
X289052000Y-104089200D02*
X289052000Y-104266998D01*
X279527000Y-157432000D02*
X281027000Y-157432000D01*
X284708600Y-104089200D02*
X286740600Y-104089200D01*
X298450000Y-102385540D02*
X298450000Y-103708200D01*
D47*
X287782000Y-126864000D02*
X287782000Y-128778000D01*
D46*
X296748200Y-105410000D02*
X294995600Y-105410000D01*
D47*
X294067000Y-103251000D02*
X294067000Y-103897200D01*
D46*
X283489400Y-105410000D02*
X283438600Y-105359200D01*
D47*
X294309800Y-104140000D02*
X295732200Y-104140000D01*
D46*
X278209000Y-157432000D02*
X278130000Y-157353000D01*
X298450000Y-103708200D02*
X296748200Y-105410000D01*
D47*
X294067000Y-103897200D02*
X294309800Y-104140000D01*
D46*
X284583500Y-104214300D02*
X284708600Y-104089200D01*
D48*
X305695000Y-83495800D02*
X305714400Y-83515200D01*
D47*
X296418000Y-103454200D02*
X296418000Y-102423040D01*
D48*
X305695000Y-83476500D02*
X305695000Y-83495800D01*
D46*
X289117000Y-104201998D02*
X289052000Y-104266998D01*
D47*
X294067000Y-103251000D02*
X292709600Y-103251000D01*
D46*
X284583500Y-105410000D02*
X284583500Y-104214300D01*
X284583500Y-105410000D02*
X283489400Y-105410000D01*
D47*
X292709600Y-103251000D02*
X291605822Y-102147222D01*
D48*
X305695000Y-94831500D02*
X305702300Y-94831500D01*
D46*
%TO.N,/+18V_OUT*%
X278765000Y-98729800D02*
X278765000Y-97155000D01*
X278765000Y-97155000D02*
X275590000Y-93980000D01*
X279323800Y-99288600D02*
X278765000Y-98729800D01*
X281357700Y-99288600D02*
X279323800Y-99288600D01*
%TO.N,/Power Supply/V_IN*%
X296607000Y-109093000D02*
X298323034Y-109093000D01*
D47*
X297611800Y-99441000D02*
X299059600Y-97993200D01*
D46*
X299085000Y-114681000D02*
X297815000Y-115951000D01*
D47*
X296418000Y-99441000D02*
X297611800Y-99441000D01*
D46*
X297307000Y-118364000D02*
X297815000Y-117856000D01*
X295656000Y-115974500D02*
X295656000Y-117856000D01*
D47*
X296418000Y-100523040D02*
X296418000Y-99441000D01*
D46*
X296164000Y-118364000D02*
X297307000Y-118364000D01*
D47*
X304830877Y-97993200D02*
X309961677Y-103124000D01*
D46*
X296606988Y-110362988D02*
X296607000Y-110363000D01*
X298323000Y-111633000D02*
X299085000Y-112395000D01*
X299085000Y-112395000D02*
X299085000Y-114681000D01*
X294970204Y-110362988D02*
X296606988Y-110362988D01*
X297815000Y-117856000D02*
X297815000Y-116970000D01*
X296607000Y-111633000D02*
X298323000Y-111633000D01*
X297815000Y-115951000D02*
X297815000Y-116970000D01*
X295656000Y-117856000D02*
X296164000Y-118364000D01*
D47*
X294067000Y-99441000D02*
X296418000Y-99441000D01*
D46*
X296607000Y-110363000D02*
X299694600Y-110363000D01*
X299694600Y-110363000D02*
X299720008Y-110388408D01*
D47*
X299059600Y-97993200D02*
X304830877Y-97993200D01*
D46*
%TO.N,Net-(U1-I_{SEN})*%
X286740600Y-101056400D02*
X286740600Y-99288600D01*
X287807400Y-99441000D02*
X287655000Y-99288600D01*
X289117000Y-99441000D02*
X287807400Y-99441000D01*
X287655000Y-99288600D02*
X286740600Y-99288600D01*
%TO.N,Net-(C6-Pad2)*%
X286408500Y-105410000D02*
X288102000Y-105410000D01*
%TO.N,Net-(D4A-Red-K)*%
X275947000Y-154432000D02*
X274447000Y-154432000D01*
X274447000Y-141859000D02*
X264668000Y-132080000D01*
X264668000Y-132080000D02*
X264668000Y-115951000D01*
X264668000Y-115951000D02*
X260477000Y-111760000D01*
X260477000Y-111760000D02*
X256272500Y-111760000D01*
X274447000Y-154432000D02*
X274447000Y-141859000D01*
%TO.N,Net-(U1-COMP)*%
X290474400Y-100711000D02*
X290779200Y-101015800D01*
X289117000Y-100711000D02*
X290474400Y-100711000D01*
X290779200Y-103378000D02*
X291658000Y-104256800D01*
X290002000Y-105410000D02*
X291658000Y-105410000D01*
X290779200Y-101015800D02*
X290779200Y-103378000D01*
X291658000Y-104256800D02*
X291658000Y-105410000D01*
%TO.N,/V_BAT*%
X281201500Y-151663400D02*
X287303600Y-151663400D01*
X290093400Y-107823000D02*
X290068000Y-107848400D01*
X291657000Y-110363000D02*
X290093400Y-110363000D01*
X291592000Y-111698000D02*
X291657000Y-111633000D01*
D47*
X287782000Y-122564000D02*
X287782000Y-120650000D01*
D46*
X291657000Y-107823000D02*
X290093400Y-107823000D01*
X291657000Y-109093000D02*
X293344600Y-109093000D01*
X291592000Y-112828307D02*
X291592000Y-111698000D01*
X290093400Y-110363000D02*
X290068000Y-110388400D01*
X291657000Y-111633000D02*
X293370000Y-111633000D01*
X287303600Y-151663400D02*
X290601400Y-148365600D01*
X291592000Y-114112000D02*
X291592000Y-112828307D01*
X293344600Y-109093000D02*
X293370000Y-109067600D01*
%TO.N,/Power Supply/SW*%
X300017500Y-89154000D02*
X300017500Y-88232300D01*
X300017500Y-89154000D02*
X300017500Y-90126500D01*
X300017500Y-89154000D02*
X300017500Y-88246900D01*
X300017545Y-89153955D02*
X300017545Y-89153910D01*
X300017498Y-89153998D02*
X300017498Y-89153996D01*
X300017500Y-89154000D02*
X300017498Y-89153998D01*
X300017500Y-89154000D02*
X300017545Y-89153955D01*
%TO.N,Net-(D2-A)*%
X294106600Y-109931200D02*
X294106600Y-110744000D01*
X294716200Y-109321600D02*
X294106600Y-109931200D01*
X294106600Y-110744000D02*
X294538400Y-111175800D01*
X295325800Y-107823000D02*
X294716200Y-108432600D01*
X294538400Y-113030000D02*
X294386000Y-113030000D01*
X297561000Y-113030000D02*
X295656000Y-113030000D01*
X295656000Y-113030000D02*
X294640000Y-113030000D01*
X297815000Y-114170000D02*
X297815000Y-113284000D01*
X296607000Y-107823000D02*
X295325800Y-107823000D01*
X294716200Y-108432600D02*
X294716200Y-109321600D01*
X294640000Y-113030000D02*
X294538400Y-113030000D01*
X295656000Y-114149500D02*
X295656000Y-113030000D01*
X294386000Y-113030000D02*
X294005000Y-113030000D01*
X294005000Y-113030000D02*
X293624000Y-113411000D01*
X293624000Y-113411000D02*
X293624000Y-114149500D01*
X294538400Y-111175800D02*
X294538400Y-113030000D01*
X297815000Y-113284000D02*
X297561000Y-113030000D01*
%TO.N,/~{REC}*%
X251968000Y-118604500D02*
X256272500Y-114300000D01*
X234478000Y-156285700D02*
X251968000Y-138795700D01*
X251968000Y-138795700D02*
X251968000Y-118604500D01*
%TO.N,/UART2_TXD*%
X253365000Y-125095000D02*
X253365000Y-122287500D01*
X260985000Y-132715000D02*
X253365000Y-125095000D01*
X260985000Y-147320000D02*
X260985000Y-132715000D01*
X253365000Y-122287500D02*
X256272500Y-119380000D01*
%TO.N,/~{SYS_RESET}*%
X252603000Y-120509500D02*
X256272500Y-116840000D01*
X247178000Y-156285700D02*
X252603000Y-150860700D01*
X252603000Y-150860700D02*
X252603000Y-120509500D01*
%TO.N,/UART2_RXD*%
X263525000Y-129172500D02*
X256272500Y-121920000D01*
X263525000Y-147320000D02*
X263525000Y-129172500D01*
D47*
%TO.N,Net-(Q1-G)*%
X294067000Y-101981000D02*
X293092001Y-101981000D01*
X292520222Y-101409221D02*
X292520222Y-100435231D01*
X291195000Y-99110009D02*
X291195000Y-97932000D01*
X293092001Y-101981000D02*
X292520222Y-101409221D01*
X292520222Y-100435231D02*
X291195000Y-99110009D01*
D49*
%TO.N,Net-(U1-FB)*%
X284708600Y-101093900D02*
X284708600Y-101930200D01*
X284778400Y-102000000D02*
X285491298Y-102000000D01*
D46*
X283182700Y-99288600D02*
X283182700Y-100607500D01*
D49*
X284708600Y-101930200D02*
X284778400Y-102000000D01*
X285491298Y-102000000D02*
X285492198Y-102000900D01*
X289097100Y-102000900D02*
X289117000Y-101981000D01*
X285492198Y-102000900D02*
X289097100Y-102000900D01*
D46*
X283669100Y-101093900D02*
X284708600Y-101093900D01*
X283182700Y-100607500D02*
X283669100Y-101093900D01*
D45*
%TO.N,Net-(U1-FA{slash}SD)*%
X298450000Y-101320600D02*
X298450000Y-100560540D01*
X294741600Y-100711000D02*
X295503600Y-101473000D01*
X294067000Y-100711000D02*
X294741600Y-100711000D01*
X298297600Y-101473000D02*
X298450000Y-101320600D01*
X295503600Y-101473000D02*
X298297600Y-101473000D01*
D46*
%TO.N,/Power Supply/Q_S*%
X288239200Y-97231200D02*
X288239200Y-95707200D01*
X288696400Y-95250000D02*
X289728500Y-95250000D01*
X285369000Y-97713800D02*
X287756600Y-97713800D01*
X284915600Y-98167200D02*
X285369000Y-97713800D01*
X287756600Y-97713800D02*
X288239200Y-97231200D01*
X284915600Y-99288600D02*
X284915600Y-98167200D01*
X288239200Y-95707200D02*
X288696400Y-95250000D01*
%TO.N,Net-(D5A-Red-K)*%
X278409400Y-151663400D02*
X279376500Y-151663400D01*
X278384000Y-154432000D02*
X278130000Y-154178000D01*
X279527000Y-154432000D02*
X278384000Y-154432000D01*
X278130000Y-151942800D02*
X278409400Y-151663400D01*
X278130000Y-154178000D02*
X278130000Y-151942800D01*
X281027000Y-154432000D02*
X279527000Y-154432000D01*
%TO.N,Net-(D4A-RedA)*%
X274447000Y-157432000D02*
X275947000Y-157432000D01*
X277241000Y-143637000D02*
X265303000Y-131699000D01*
X277241000Y-151679774D02*
X277241000Y-143637000D01*
X277368000Y-156845000D02*
X277368000Y-151806774D01*
X265303000Y-131699000D02*
X265303000Y-115570000D01*
X275947000Y-157432000D02*
X276781000Y-157432000D01*
X265303000Y-115570000D02*
X258953000Y-109220000D01*
X276781000Y-157432000D02*
X277368000Y-156845000D01*
X277368000Y-151806774D02*
X277241000Y-151679774D01*
X258953000Y-109220000D02*
X256272500Y-109220000D01*
%TD*%
%TA.AperFunction,Conductor*%
%TO.N,/Power Supply/SW*%
G36*
X296992878Y-82061685D02*
G01*
X297013034Y-82077836D01*
X298546196Y-83594149D01*
X298580019Y-83655285D01*
X298583000Y-83682312D01*
X298583000Y-86360000D01*
X301291816Y-86360000D01*
X301358855Y-86379685D01*
X301379011Y-86395836D01*
X301562795Y-86577600D01*
X301596619Y-86638737D01*
X301599600Y-86665764D01*
X301599600Y-91824000D01*
X301579915Y-91891039D01*
X301527111Y-91936794D01*
X301475600Y-91948000D01*
X298583000Y-91948000D01*
X298583000Y-96266000D01*
X298767463Y-96266000D01*
X298834502Y-96285685D01*
X298880257Y-96338489D01*
X298890201Y-96407647D01*
X298865469Y-96465966D01*
X297522481Y-98198586D01*
X297465852Y-98239513D01*
X297423294Y-98246614D01*
X292275022Y-98197583D01*
X292208173Y-98177261D01*
X292162923Y-98124024D01*
X292152211Y-98072182D01*
X292201600Y-93726000D01*
X292201600Y-82166000D01*
X292221285Y-82098961D01*
X292274089Y-82053206D01*
X292325600Y-82042000D01*
X296925839Y-82042000D01*
X296992878Y-82061685D01*
G37*
%TD.AperFunction*%
%TD*%
%TA.AperFunction,Conductor*%
%TO.N,/Power Supply/Q_S*%
G36*
X291220629Y-93575125D02*
G01*
X291309345Y-93589176D01*
X291346230Y-93601161D01*
X291417450Y-93637450D01*
X291448832Y-93660251D01*
X291505348Y-93716767D01*
X291528151Y-93748152D01*
X291564436Y-93819364D01*
X291576425Y-93856262D01*
X291590473Y-93944957D01*
X291592000Y-93964355D01*
X291592000Y-96586444D01*
X291590473Y-96605842D01*
X291576425Y-96694537D01*
X291564436Y-96731435D01*
X291528151Y-96802647D01*
X291505348Y-96834032D01*
X291448832Y-96890548D01*
X291417447Y-96913351D01*
X291346235Y-96949636D01*
X291309337Y-96961625D01*
X291245975Y-96971660D01*
X291220640Y-96975673D01*
X291201244Y-96977200D01*
X289493556Y-96977200D01*
X289474159Y-96975673D01*
X289431306Y-96968886D01*
X289385462Y-96961625D01*
X289348565Y-96949636D01*
X289277351Y-96913350D01*
X289245967Y-96890548D01*
X289189451Y-96834032D01*
X289166650Y-96802650D01*
X289130361Y-96731430D01*
X289118376Y-96694545D01*
X289104325Y-96605829D01*
X289102800Y-96586444D01*
X289102800Y-93964355D01*
X289104324Y-93944971D01*
X289118376Y-93856252D01*
X289130360Y-93819371D01*
X289166651Y-93748146D01*
X289189448Y-93716770D01*
X289245970Y-93660248D01*
X289277346Y-93637451D01*
X289348571Y-93601160D01*
X289385454Y-93589176D01*
X289474169Y-93575125D01*
X289493556Y-93573600D01*
X291201244Y-93573600D01*
X291220629Y-93575125D01*
G37*
%TD.AperFunction*%
%TD*%
%TA.AperFunction,Conductor*%
%TO.N,/Power Supply/V_IN*%
G36*
X315092270Y-86360212D02*
G01*
X315094567Y-86360346D01*
X315155457Y-86363908D01*
X315169828Y-86365596D01*
X315232163Y-86376637D01*
X315239250Y-86378106D01*
X318156705Y-87072739D01*
X318816672Y-87229874D01*
X318856842Y-87247400D01*
X318996951Y-87341018D01*
X318996960Y-87341023D01*
X318996962Y-87341024D01*
X319334063Y-87521208D01*
X319334065Y-87521208D01*
X319334071Y-87521212D01*
X319687229Y-87667495D01*
X320053026Y-87778458D01*
X320053032Y-87778459D01*
X320053035Y-87778460D01*
X320053046Y-87778463D01*
X320288131Y-87825223D01*
X320427937Y-87853032D01*
X320808352Y-87890500D01*
X320808355Y-87890500D01*
X321190603Y-87890500D01*
X321190608Y-87890500D01*
X321258372Y-87883825D01*
X321327016Y-87896843D01*
X321343817Y-87907207D01*
X321359616Y-87918784D01*
X321383315Y-87941548D01*
X321467501Y-88047238D01*
X321484388Y-88075426D01*
X321537855Y-88199512D01*
X321546745Y-88231145D01*
X321566915Y-88373160D01*
X321568143Y-88389580D01*
X321573898Y-89091719D01*
X321564000Y-89126478D01*
X321564000Y-95758000D01*
X321593175Y-95787175D01*
X321626660Y-95848498D01*
X321629490Y-95873840D01*
X321688889Y-103120509D01*
X321688049Y-103135964D01*
X321672342Y-103269938D01*
X321664949Y-103299938D01*
X321619406Y-103418576D01*
X321604827Y-103445815D01*
X321526848Y-103555893D01*
X321517129Y-103567941D01*
X306778179Y-119669314D01*
X306765431Y-119681399D01*
X306647246Y-119778498D01*
X306617293Y-119796696D01*
X306484831Y-119853353D01*
X306450987Y-119862443D01*
X306348388Y-119874877D01*
X306299133Y-119880847D01*
X306281599Y-119881719D01*
X301524290Y-119780929D01*
X300221660Y-119753331D01*
X295218768Y-119647337D01*
X295202827Y-119645967D01*
X295064969Y-119625088D01*
X295034271Y-119616279D01*
X294913741Y-119564096D01*
X294886316Y-119547741D01*
X294783104Y-119466498D01*
X294760768Y-119443683D01*
X294681736Y-119338782D01*
X294665963Y-119311012D01*
X294616344Y-119189403D01*
X294608187Y-119158526D01*
X294590232Y-119020258D01*
X294589200Y-119004290D01*
X294589200Y-116845844D01*
X294608885Y-116778805D01*
X294625519Y-116758163D01*
X294648030Y-116735652D01*
X294673030Y-116710652D01*
X294766115Y-116559738D01*
X294821887Y-116391426D01*
X294832500Y-116287545D01*
X294832499Y-115661456D01*
X294821887Y-115557574D01*
X294766115Y-115389262D01*
X294766111Y-115389256D01*
X294766110Y-115389253D01*
X294684956Y-115257683D01*
X294666515Y-115190291D01*
X294687437Y-115123627D01*
X294741079Y-115078858D01*
X294810410Y-115070196D01*
X294855589Y-115087046D01*
X294883262Y-115104115D01*
X295051574Y-115159887D01*
X295155455Y-115170500D01*
X296156544Y-115170499D01*
X296260426Y-115159887D01*
X296428738Y-115104115D01*
X296579652Y-115011030D01*
X296702482Y-114888199D01*
X296763801Y-114854717D01*
X296833493Y-114859701D01*
X296889427Y-114901572D01*
X296895694Y-114910780D01*
X296915970Y-114943652D01*
X297041348Y-115069030D01*
X297192262Y-115162115D01*
X297360574Y-115217887D01*
X297464455Y-115228500D01*
X298165544Y-115228499D01*
X298269426Y-115217887D01*
X298437738Y-115162115D01*
X298588652Y-115069030D01*
X298714030Y-114943652D01*
X298807115Y-114792738D01*
X298862887Y-114624426D01*
X298873500Y-114520545D01*
X298873499Y-113819456D01*
X298862887Y-113715574D01*
X298807115Y-113547262D01*
X298714030Y-113396348D01*
X298588652Y-113270970D01*
X298588651Y-113270969D01*
X298562196Y-113254652D01*
X298515471Y-113202705D01*
X298505675Y-113173305D01*
X298498874Y-113139115D01*
X298498874Y-113139110D01*
X298491791Y-113103501D01*
X298487138Y-113080109D01*
X298434446Y-112952899D01*
X298357948Y-112838413D01*
X298357945Y-112838409D01*
X298006587Y-112487051D01*
X297938414Y-112441500D01*
X297938413Y-112441499D01*
X297920741Y-112429691D01*
X297892101Y-112410554D01*
X297892097Y-112410552D01*
X297892095Y-112410551D01*
X297892096Y-112410551D01*
X297764895Y-112357863D01*
X297764883Y-112357860D01*
X297629850Y-112331000D01*
X297629846Y-112331000D01*
X297629845Y-112331000D01*
X295724845Y-112331000D01*
X295361400Y-112331000D01*
X295294361Y-112311315D01*
X295248606Y-112258511D01*
X295237400Y-112207000D01*
X295237400Y-111106954D01*
X295237399Y-111106950D01*
X295231281Y-111076193D01*
X295210538Y-110971909D01*
X295157846Y-110844699D01*
X295081349Y-110730214D01*
X294983986Y-110632851D01*
X294841919Y-110490784D01*
X294808434Y-110429461D01*
X294805600Y-110403103D01*
X294805600Y-110272097D01*
X294825285Y-110205058D01*
X294841919Y-110184416D01*
X295043836Y-109982500D01*
X295259149Y-109767187D01*
X295285333Y-109728000D01*
X295311694Y-109688548D01*
X295318531Y-109678314D01*
X295335646Y-109652701D01*
X295381080Y-109543014D01*
X295381082Y-109543010D01*
X295388336Y-109525497D01*
X295388339Y-109525490D01*
X295415200Y-109390446D01*
X295415200Y-109252754D01*
X295415200Y-108773497D01*
X295434885Y-108706458D01*
X295451518Y-108685817D01*
X295495052Y-108642282D01*
X295556375Y-108608796D01*
X295617327Y-108610885D01*
X295666722Y-108625236D01*
X295678165Y-108628561D01*
X295678169Y-108628562D01*
X295715498Y-108631500D01*
X295715504Y-108631500D01*
X297498496Y-108631500D01*
X297498502Y-108631500D01*
X297535831Y-108628562D01*
X297535833Y-108628561D01*
X297535835Y-108628561D01*
X297596673Y-108610886D01*
X297695601Y-108582145D01*
X297838807Y-108497453D01*
X297956453Y-108379807D01*
X298041145Y-108236601D01*
X298087562Y-108076831D01*
X298090500Y-108039502D01*
X298090500Y-107606498D01*
X298087562Y-107569169D01*
X298041145Y-107409399D01*
X298000237Y-107340227D01*
X297983054Y-107272503D01*
X298005214Y-107206240D01*
X298059680Y-107162477D01*
X298105730Y-107153113D01*
X300990000Y-107124500D01*
X300990000Y-107124157D01*
X301012010Y-107121989D01*
X301023681Y-107120841D01*
X301023682Y-107120840D01*
X301023688Y-107120840D01*
X301092359Y-107092395D01*
X301144918Y-107039836D01*
X301173363Y-106971165D01*
X301177023Y-106934000D01*
X301172856Y-103124000D01*
X303448512Y-103124000D01*
X303467142Y-103360714D01*
X303522572Y-103591595D01*
X303522572Y-103591597D01*
X303613434Y-103810959D01*
X303613436Y-103810962D01*
X303737497Y-104013410D01*
X303737498Y-104013413D01*
X303774351Y-104056562D01*
X303891708Y-104193969D01*
X304031474Y-104313340D01*
X304072263Y-104348178D01*
X304072266Y-104348179D01*
X304274714Y-104472240D01*
X304274717Y-104472242D01*
X304494080Y-104563104D01*
X304494081Y-104563104D01*
X304494083Y-104563105D01*
X304724966Y-104618535D01*
X304961677Y-104637165D01*
X305198388Y-104618535D01*
X305429271Y-104563105D01*
X305429273Y-104563104D01*
X305429274Y-104563104D01*
X305648636Y-104472242D01*
X305648637Y-104472241D01*
X305648640Y-104472240D01*
X305851093Y-104348176D01*
X306031646Y-104193969D01*
X306185853Y-104013416D01*
X306309917Y-103810963D01*
X306323967Y-103777045D01*
X306400781Y-103591597D01*
X306400781Y-103591596D01*
X306400782Y-103591594D01*
X306456212Y-103360711D01*
X306474842Y-103124000D01*
X306456212Y-102887289D01*
X306400782Y-102656406D01*
X306400781Y-102656403D01*
X306400781Y-102656402D01*
X306309919Y-102437040D01*
X306309917Y-102437037D01*
X306185856Y-102234589D01*
X306185855Y-102234586D01*
X306151017Y-102193797D01*
X306050542Y-102076155D01*
X308461677Y-102076155D01*
X308461677Y-102806500D01*
X309572071Y-102806500D01*
X309561578Y-102816993D01*
X309495752Y-102931007D01*
X309461677Y-103058174D01*
X309461677Y-103189826D01*
X309495752Y-103316993D01*
X309561578Y-103431007D01*
X309572071Y-103441500D01*
X308461677Y-103441500D01*
X308461677Y-104171844D01*
X308468078Y-104231372D01*
X308468080Y-104231379D01*
X308518322Y-104366086D01*
X308518326Y-104366093D01*
X308604486Y-104481187D01*
X308604489Y-104481190D01*
X308719583Y-104567350D01*
X308719590Y-104567354D01*
X308854297Y-104617596D01*
X308854304Y-104617598D01*
X308913832Y-104623999D01*
X308913849Y-104624000D01*
X309644177Y-104624000D01*
X309644177Y-103513606D01*
X309654670Y-103524099D01*
X309768684Y-103589925D01*
X309895851Y-103624000D01*
X310027503Y-103624000D01*
X310154670Y-103589925D01*
X310268684Y-103524099D01*
X310279177Y-103513606D01*
X310279177Y-104624000D01*
X311009505Y-104624000D01*
X311009521Y-104623999D01*
X311069049Y-104617598D01*
X311069056Y-104617596D01*
X311203763Y-104567354D01*
X311203770Y-104567350D01*
X311318864Y-104481190D01*
X311318867Y-104481187D01*
X311405027Y-104366093D01*
X311405031Y-104366086D01*
X311455273Y-104231379D01*
X311455275Y-104231372D01*
X311461676Y-104171844D01*
X311461677Y-104171827D01*
X311461677Y-103441500D01*
X310351283Y-103441500D01*
X310361776Y-103431007D01*
X310427602Y-103316993D01*
X310461677Y-103189826D01*
X310461677Y-103058174D01*
X310427602Y-102931007D01*
X310361776Y-102816993D01*
X310351283Y-102806500D01*
X311461677Y-102806500D01*
X311461677Y-102076172D01*
X311461676Y-102076155D01*
X311455275Y-102016627D01*
X311455273Y-102016620D01*
X311405031Y-101881913D01*
X311405027Y-101881906D01*
X311318867Y-101766812D01*
X311318864Y-101766809D01*
X311203770Y-101680649D01*
X311203763Y-101680645D01*
X311069056Y-101630403D01*
X311069049Y-101630401D01*
X311009521Y-101624000D01*
X310279177Y-101624000D01*
X310279177Y-102734394D01*
X310268684Y-102723901D01*
X310154670Y-102658075D01*
X310027503Y-102624000D01*
X309895851Y-102624000D01*
X309768684Y-102658075D01*
X309654670Y-102723901D01*
X309644177Y-102734394D01*
X309644177Y-101624000D01*
X308913832Y-101624000D01*
X308854304Y-101630401D01*
X308854297Y-101630403D01*
X308719590Y-101680645D01*
X308719583Y-101680649D01*
X308604489Y-101766809D01*
X308604486Y-101766812D01*
X308518326Y-101881906D01*
X308518322Y-101881913D01*
X308468080Y-102016620D01*
X308468078Y-102016627D01*
X308461677Y-102076155D01*
X306050542Y-102076155D01*
X306031646Y-102054031D01*
X305880347Y-101924809D01*
X305851090Y-101899821D01*
X305851087Y-101899820D01*
X305648639Y-101775759D01*
X305648636Y-101775757D01*
X305429273Y-101684895D01*
X305198391Y-101629465D01*
X304961677Y-101610835D01*
X304724962Y-101629465D01*
X304494081Y-101684895D01*
X304494079Y-101684895D01*
X304274717Y-101775757D01*
X304274714Y-101775759D01*
X304072266Y-101899820D01*
X304072263Y-101899821D01*
X303891708Y-102054031D01*
X303737498Y-102234586D01*
X303737497Y-102234589D01*
X303613436Y-102437037D01*
X303613434Y-102437040D01*
X303522572Y-102656402D01*
X303522572Y-102656404D01*
X303467142Y-102887285D01*
X303448512Y-103124000D01*
X301172856Y-103124000D01*
X301167800Y-98501200D01*
X301114000Y-98501200D01*
X301046961Y-98481515D01*
X301001206Y-98428711D01*
X300990000Y-98377200D01*
X300990000Y-98175508D01*
X300990160Y-98169202D01*
X300992964Y-98114138D01*
X300994246Y-98101590D01*
X300996006Y-98090142D01*
X301002630Y-98047093D01*
X301003734Y-98040953D01*
X301349645Y-96364936D01*
X301382474Y-96303259D01*
X301443437Y-96269122D01*
X301471086Y-96266000D01*
X302457500Y-96266000D01*
X302524539Y-96285685D01*
X302570294Y-96338489D01*
X302581500Y-96390000D01*
X302581500Y-96517654D01*
X302588011Y-96578202D01*
X302588011Y-96578204D01*
X302639111Y-96715204D01*
X302726739Y-96832261D01*
X302843796Y-96919889D01*
X302980799Y-96970989D01*
X303008050Y-96973918D01*
X303041345Y-96977499D01*
X303041362Y-96977500D01*
X308348638Y-96977500D01*
X308348654Y-96977499D01*
X308375692Y-96974591D01*
X308409201Y-96970989D01*
X308546204Y-96919889D01*
X308663261Y-96832261D01*
X308750889Y-96715204D01*
X308801989Y-96578201D01*
X308805591Y-96544692D01*
X308808499Y-96517654D01*
X308808500Y-96517637D01*
X308808500Y-96390000D01*
X308828185Y-96322961D01*
X308880989Y-96277206D01*
X308932500Y-96266000D01*
X312807000Y-96266000D01*
X312807000Y-91948000D01*
X309629000Y-91948000D01*
X309561961Y-91928315D01*
X309516206Y-91875511D01*
X309505000Y-91824000D01*
X309505000Y-86566418D01*
X309524685Y-86499379D01*
X309577489Y-86453624D01*
X309626187Y-86442450D01*
X313073056Y-86364332D01*
X313256674Y-86360169D01*
X313257379Y-86360156D01*
X313263503Y-86360053D01*
X313264866Y-86360037D01*
X313270170Y-86360006D01*
X313271047Y-86360002D01*
X313271751Y-86360000D01*
X315085029Y-86360000D01*
X315092270Y-86360212D01*
G37*
%TD.AperFunction*%
%TD*%
%TA.AperFunction,Conductor*%
%TO.N,/V_BAT*%
G36*
X293505059Y-107189061D02*
G01*
X293645163Y-107207506D01*
X293676431Y-107215884D01*
X293799418Y-107266827D01*
X293827451Y-107283012D01*
X293868238Y-107314309D01*
X293933063Y-107364050D01*
X293955951Y-107386938D01*
X294036987Y-107492548D01*
X294053172Y-107520581D01*
X294104115Y-107643568D01*
X294112493Y-107674835D01*
X294130939Y-107814939D01*
X294132000Y-107831125D01*
X294132000Y-109045508D01*
X294112315Y-109112547D01*
X294095681Y-109133189D01*
X293648888Y-109579981D01*
X293648884Y-109579987D01*
X293573582Y-109710412D01*
X293573581Y-109710416D01*
X293534600Y-109855895D01*
X293534600Y-110819305D01*
X293573581Y-110964784D01*
X293630488Y-111063350D01*
X293648886Y-111095216D01*
X293648888Y-111095218D01*
X293930081Y-111376411D01*
X293963566Y-111437734D01*
X293966400Y-111464092D01*
X293966400Y-112353016D01*
X293946715Y-112420055D01*
X293893911Y-112465810D01*
X293874494Y-112472791D01*
X293784212Y-112496982D01*
X293653787Y-112572284D01*
X293653781Y-112572288D01*
X293166288Y-113059781D01*
X293166284Y-113059787D01*
X293090982Y-113190212D01*
X293090980Y-113190217D01*
X293090672Y-113191368D01*
X293090147Y-113192228D01*
X293087873Y-113197720D01*
X293087016Y-113197365D01*
X293054304Y-113251027D01*
X293005501Y-113278342D01*
X293002982Y-113279074D01*
X292968380Y-113284000D01*
X290322000Y-113284000D01*
X290397283Y-113986641D01*
X290397284Y-113986654D01*
X290551800Y-115428807D01*
X290539370Y-115497562D01*
X290535244Y-115505128D01*
X290532832Y-115509206D01*
X290532831Y-115509209D01*
X290488319Y-115662419D01*
X290488317Y-115662430D01*
X290485500Y-115698224D01*
X290485500Y-116325775D01*
X290488317Y-116361569D01*
X290488319Y-116361580D01*
X290532830Y-116514787D01*
X290532832Y-116514793D01*
X290614049Y-116652124D01*
X290614055Y-116652132D01*
X290660178Y-116698255D01*
X290693663Y-116759578D01*
X290695791Y-116772726D01*
X291023211Y-119828641D01*
X291023213Y-119828656D01*
X291084000Y-120396000D01*
X320920874Y-120396000D01*
X320937059Y-120397061D01*
X321077163Y-120415506D01*
X321108431Y-120423884D01*
X321231418Y-120474827D01*
X321259451Y-120491012D01*
X321300238Y-120522309D01*
X321365063Y-120572050D01*
X321387951Y-120594938D01*
X321468987Y-120700548D01*
X321485172Y-120728581D01*
X321536115Y-120851568D01*
X321544493Y-120882835D01*
X321562939Y-121022939D01*
X321564000Y-121039125D01*
X321564000Y-138009463D01*
X321544315Y-138076502D01*
X321491511Y-138122257D01*
X321427846Y-138132866D01*
X321348492Y-138125050D01*
X321190608Y-138109500D01*
X320808352Y-138109500D01*
X320722588Y-138117947D01*
X320427947Y-138146966D01*
X320427930Y-138146969D01*
X320053046Y-138221536D01*
X320053035Y-138221539D01*
X319687227Y-138332505D01*
X319334068Y-138478789D01*
X319334063Y-138478791D01*
X318996962Y-138658975D01*
X318996944Y-138658986D01*
X318679125Y-138871346D01*
X318679111Y-138871356D01*
X318383623Y-139113857D01*
X318113337Y-139384143D01*
X317870836Y-139679631D01*
X317870826Y-139679645D01*
X317658466Y-139997464D01*
X317658455Y-139997482D01*
X317478271Y-140334583D01*
X317478269Y-140334588D01*
X317331985Y-140687747D01*
X317221019Y-141053555D01*
X317221016Y-141053566D01*
X317146449Y-141428450D01*
X317146446Y-141428467D01*
X317108980Y-141808875D01*
X317108980Y-142191124D01*
X317146446Y-142571532D01*
X317146449Y-142571549D01*
X317221016Y-142946433D01*
X317221019Y-142946444D01*
X317331985Y-143312252D01*
X317478269Y-143665411D01*
X317478271Y-143665416D01*
X317658455Y-144002517D01*
X317658466Y-144002535D01*
X317870826Y-144320354D01*
X317870836Y-144320368D01*
X318113337Y-144615856D01*
X318383623Y-144886142D01*
X318383628Y-144886146D01*
X318383629Y-144886147D01*
X318679117Y-145128648D01*
X318996951Y-145341018D01*
X318996960Y-145341023D01*
X318996962Y-145341024D01*
X319334063Y-145521208D01*
X319334065Y-145521208D01*
X319334071Y-145521212D01*
X319687229Y-145667495D01*
X320053026Y-145778458D01*
X320053032Y-145778459D01*
X320053035Y-145778460D01*
X320053046Y-145778463D01*
X320288131Y-145825223D01*
X320427937Y-145853032D01*
X320808352Y-145890500D01*
X320808355Y-145890500D01*
X321190604Y-145890500D01*
X321190608Y-145890500D01*
X321427848Y-145867133D01*
X321496492Y-145880152D01*
X321547202Y-145928216D01*
X321564000Y-145990536D01*
X321564000Y-158244500D01*
X321544315Y-158311539D01*
X321491511Y-158357294D01*
X321440000Y-158368500D01*
X290993305Y-158368500D01*
X290926266Y-158348815D01*
X290880511Y-158296011D01*
X290870567Y-158226853D01*
X290899592Y-158163297D01*
X290958370Y-158125523D01*
X290964358Y-158123926D01*
X291097356Y-158091996D01*
X291330031Y-157995619D01*
X291486513Y-157899726D01*
X291486513Y-157899725D01*
X290696349Y-157109560D01*
X290813692Y-157078118D01*
X290939108Y-157005710D01*
X291041510Y-156903308D01*
X291113918Y-156777892D01*
X291145360Y-156660548D01*
X291935525Y-157450713D01*
X291935526Y-157450713D01*
X292031419Y-157294231D01*
X292127796Y-157061556D01*
X292186587Y-156816672D01*
X292206347Y-156565600D01*
X292206347Y-156565594D01*
X294194823Y-156565594D01*
X294194823Y-156565605D01*
X294215096Y-156810274D01*
X294215098Y-156810286D01*
X294275369Y-157048291D01*
X294373994Y-157273131D01*
X294508279Y-157478671D01*
X294508282Y-157478674D01*
X294674569Y-157659310D01*
X294868319Y-157810112D01*
X295033908Y-157899725D01*
X295084249Y-157926968D01*
X295316467Y-158006688D01*
X295558639Y-158047100D01*
X295558640Y-158047100D01*
X295804160Y-158047100D01*
X295804161Y-158047100D01*
X296046333Y-158006688D01*
X296278551Y-157926968D01*
X296494481Y-157810112D01*
X296688231Y-157659310D01*
X296854518Y-157478674D01*
X296988805Y-157273132D01*
X297087430Y-157048291D01*
X297147702Y-156810283D01*
X297155340Y-156718108D01*
X297167977Y-156565605D01*
X297167977Y-156565594D01*
X297147703Y-156320925D01*
X297147701Y-156320913D01*
X297087430Y-156082908D01*
X296988805Y-155858068D01*
X296854520Y-155652528D01*
X296835610Y-155631987D01*
X296688231Y-155471890D01*
X296688226Y-155471886D01*
X296688224Y-155471884D01*
X296600377Y-155403510D01*
X296494481Y-155321088D01*
X296494480Y-155321087D01*
X296278552Y-155204232D01*
X296278547Y-155204230D01*
X296046335Y-155124512D01*
X295884885Y-155097570D01*
X295804161Y-155084100D01*
X295558639Y-155084100D01*
X295498096Y-155094203D01*
X295316464Y-155124512D01*
X295084252Y-155204230D01*
X295084247Y-155204232D01*
X294868319Y-155321087D01*
X294868315Y-155321091D01*
X294674575Y-155471884D01*
X294674572Y-155471887D01*
X294508279Y-155652528D01*
X294373994Y-155858068D01*
X294275369Y-156082908D01*
X294215098Y-156320913D01*
X294215096Y-156320925D01*
X294194823Y-156565594D01*
X292206347Y-156565594D01*
X292186587Y-156314527D01*
X292127796Y-156069643D01*
X292031419Y-155836968D01*
X291935525Y-155680485D01*
X291145360Y-156470650D01*
X291113918Y-156353308D01*
X291041510Y-156227892D01*
X290939108Y-156125490D01*
X290813692Y-156053082D01*
X290696348Y-156021639D01*
X291486513Y-155231473D01*
X291330031Y-155135580D01*
X291097356Y-155039203D01*
X290852472Y-154980412D01*
X290601400Y-154960652D01*
X290350327Y-154980412D01*
X290105443Y-155039203D01*
X289872776Y-155135577D01*
X289872771Y-155135580D01*
X289716285Y-155231473D01*
X290506452Y-156021639D01*
X290389108Y-156053082D01*
X290263692Y-156125490D01*
X290161290Y-156227892D01*
X290088882Y-156353308D01*
X290057439Y-156470651D01*
X289267273Y-155680485D01*
X289171380Y-155836971D01*
X289171377Y-155836976D01*
X289075003Y-156069643D01*
X289016212Y-156314527D01*
X288996452Y-156565600D01*
X289016212Y-156816672D01*
X289075003Y-157061556D01*
X289171380Y-157294231D01*
X289267273Y-157450713D01*
X290057439Y-156660547D01*
X290088882Y-156777892D01*
X290161290Y-156903308D01*
X290263692Y-157005710D01*
X290389108Y-157078118D01*
X290506451Y-157109560D01*
X289716285Y-157899725D01*
X289872768Y-157995619D01*
X290105443Y-158091996D01*
X290238442Y-158123926D01*
X290299034Y-158158717D01*
X290331198Y-158220743D01*
X290324722Y-158290312D01*
X290281663Y-158345336D01*
X290215690Y-158368345D01*
X290209495Y-158368500D01*
X283080000Y-158368500D01*
X283012961Y-158348815D01*
X282967206Y-158296011D01*
X282956000Y-158244500D01*
X282956000Y-151017626D01*
X282956000Y-151017618D01*
X282956000Y-150876000D01*
X282895822Y-150747794D01*
X281777649Y-148365600D01*
X288996452Y-148365600D01*
X289016212Y-148616672D01*
X289075003Y-148861556D01*
X289171380Y-149094231D01*
X289267273Y-149250713D01*
X290057439Y-148460547D01*
X290088882Y-148577892D01*
X290161290Y-148703308D01*
X290263692Y-148805710D01*
X290389108Y-148878118D01*
X290506451Y-148909560D01*
X289716285Y-149699725D01*
X289872768Y-149795619D01*
X290105443Y-149891996D01*
X290350327Y-149950787D01*
X290601400Y-149970547D01*
X290852472Y-149950787D01*
X291097356Y-149891996D01*
X291330031Y-149795619D01*
X291486513Y-149699726D01*
X291486513Y-149699725D01*
X290696349Y-148909560D01*
X290813692Y-148878118D01*
X290939108Y-148805710D01*
X291041510Y-148703308D01*
X291113918Y-148577892D01*
X291145360Y-148460548D01*
X291935525Y-149250713D01*
X291935526Y-149250713D01*
X292031419Y-149094231D01*
X292127796Y-148861556D01*
X292186587Y-148616672D01*
X292206347Y-148365600D01*
X292206347Y-148365594D01*
X294194823Y-148365594D01*
X294194823Y-148365605D01*
X294215096Y-148610274D01*
X294215098Y-148610286D01*
X294275369Y-148848291D01*
X294373994Y-149073131D01*
X294508279Y-149278671D01*
X294508282Y-149278674D01*
X294674569Y-149459310D01*
X294868319Y-149610112D01*
X295033908Y-149699725D01*
X295084249Y-149726968D01*
X295316467Y-149806688D01*
X295558639Y-149847100D01*
X295558640Y-149847100D01*
X295804160Y-149847100D01*
X295804161Y-149847100D01*
X296046333Y-149806688D01*
X296278551Y-149726968D01*
X296494481Y-149610112D01*
X296688231Y-149459310D01*
X296854518Y-149278674D01*
X296988805Y-149073132D01*
X297087430Y-148848291D01*
X297147702Y-148610283D01*
X297147703Y-148610274D01*
X297167977Y-148365605D01*
X297167977Y-148365594D01*
X297147703Y-148120925D01*
X297147701Y-148120913D01*
X297087430Y-147882908D01*
X296988805Y-147658068D01*
X296854520Y-147452528D01*
X296835610Y-147431987D01*
X296688231Y-147271890D01*
X296688226Y-147271886D01*
X296688224Y-147271884D01*
X296600377Y-147203510D01*
X296494481Y-147121088D01*
X296494480Y-147121087D01*
X296278552Y-147004232D01*
X296278547Y-147004230D01*
X296046335Y-146924512D01*
X295884885Y-146897570D01*
X295804161Y-146884100D01*
X295558639Y-146884100D01*
X295498096Y-146894203D01*
X295316464Y-146924512D01*
X295084252Y-147004230D01*
X295084247Y-147004232D01*
X294868319Y-147121087D01*
X294868315Y-147121091D01*
X294674575Y-147271884D01*
X294674572Y-147271887D01*
X294508279Y-147452528D01*
X294373994Y-147658068D01*
X294275369Y-147882908D01*
X294215098Y-148120913D01*
X294215096Y-148120925D01*
X294194823Y-148365594D01*
X292206347Y-148365594D01*
X292186587Y-148114527D01*
X292127796Y-147869643D01*
X292031419Y-147636968D01*
X291935525Y-147480485D01*
X291145360Y-148270650D01*
X291113918Y-148153308D01*
X291041510Y-148027892D01*
X290939108Y-147925490D01*
X290813692Y-147853082D01*
X290696348Y-147821639D01*
X291486513Y-147031473D01*
X291330031Y-146935580D01*
X291097356Y-146839203D01*
X290852472Y-146780412D01*
X290601400Y-146760652D01*
X290350327Y-146780412D01*
X290105443Y-146839203D01*
X289872776Y-146935577D01*
X289872771Y-146935580D01*
X289716285Y-147031473D01*
X290506452Y-147821639D01*
X290389108Y-147853082D01*
X290263692Y-147925490D01*
X290161290Y-148027892D01*
X290088882Y-148153308D01*
X290057439Y-148270651D01*
X289267273Y-147480485D01*
X289171380Y-147636971D01*
X289171377Y-147636976D01*
X289075003Y-147869643D01*
X289016212Y-148114527D01*
X288996452Y-148365600D01*
X281777649Y-148365600D01*
X271185738Y-125800224D01*
X286250500Y-125800224D01*
X286250500Y-127927775D01*
X286253317Y-127963569D01*
X286253319Y-127963580D01*
X286297830Y-128116787D01*
X286297832Y-128116793D01*
X286379049Y-128254124D01*
X286379055Y-128254132D01*
X286491867Y-128366944D01*
X286491871Y-128366947D01*
X286491873Y-128366949D01*
X286629208Y-128448168D01*
X286782426Y-128492682D01*
X286818230Y-128495500D01*
X286882189Y-128495500D01*
X286949228Y-128515185D01*
X286994983Y-128567989D01*
X287005409Y-128633384D01*
X286989115Y-128777997D01*
X286989115Y-128778003D01*
X287008992Y-128954425D01*
X287008993Y-128954431D01*
X287067634Y-129122019D01*
X287067635Y-129122020D01*
X287162098Y-129272356D01*
X287287644Y-129397902D01*
X287437980Y-129492365D01*
X287605566Y-129551006D01*
X287605572Y-129551006D01*
X287605574Y-129551007D01*
X287781996Y-129570885D01*
X287782000Y-129570885D01*
X287782004Y-129570885D01*
X287958425Y-129551007D01*
X287958424Y-129551007D01*
X287958434Y-129551006D01*
X288126020Y-129492365D01*
X288276356Y-129397902D01*
X288401902Y-129272356D01*
X288496365Y-129122020D01*
X288555006Y-128954434D01*
X288574885Y-128778000D01*
X288558591Y-128633384D01*
X288570645Y-128564562D01*
X288617994Y-128513182D01*
X288681811Y-128495500D01*
X288745764Y-128495500D01*
X288745770Y-128495500D01*
X288781574Y-128492682D01*
X288934792Y-128448168D01*
X289072127Y-128366949D01*
X289184949Y-128254127D01*
X289266168Y-128116792D01*
X289310682Y-127963574D01*
X289313500Y-127927770D01*
X289313500Y-125800230D01*
X289310682Y-125764426D01*
X289266168Y-125611208D01*
X289184949Y-125473873D01*
X289184947Y-125473871D01*
X289184944Y-125473867D01*
X289072132Y-125361055D01*
X289072124Y-125361049D01*
X288934793Y-125279832D01*
X288934787Y-125279830D01*
X288781580Y-125235319D01*
X288781569Y-125235317D01*
X288745775Y-125232500D01*
X288745770Y-125232500D01*
X286818230Y-125232500D01*
X286818224Y-125232500D01*
X286782430Y-125235317D01*
X286782419Y-125235319D01*
X286629212Y-125279830D01*
X286629206Y-125279832D01*
X286491875Y-125361049D01*
X286491867Y-125361055D01*
X286379055Y-125473867D01*
X286379049Y-125473875D01*
X286297832Y-125611206D01*
X286297830Y-125611212D01*
X286253319Y-125764419D01*
X286253317Y-125764430D01*
X286250500Y-125800224D01*
X271185738Y-125800224D01*
X268662150Y-120423884D01*
X265731481Y-114180284D01*
X265726011Y-114166559D01*
X265685503Y-114044119D01*
X265679633Y-114015177D01*
X265677323Y-113986641D01*
X265669831Y-113894076D01*
X265670970Y-113864579D01*
X265690082Y-113744596D01*
X265698167Y-113716197D01*
X265745108Y-113604138D01*
X265759677Y-113578456D01*
X265831791Y-113480667D01*
X265852009Y-113459171D01*
X265945210Y-113381203D01*
X265969936Y-113365098D01*
X266085632Y-113308076D01*
X266099237Y-113302353D01*
X283356684Y-107225787D01*
X283366697Y-107222731D01*
X283455376Y-107199716D01*
X283476030Y-107196186D01*
X283567297Y-107188444D01*
X283577779Y-107188000D01*
X293488874Y-107188000D01*
X293505059Y-107189061D01*
G37*
%TD.AperFunction*%
%TD*%
%TA.AperFunction,Conductor*%
%TO.N,/+18V_OUT*%
G36*
X289542659Y-82043061D02*
G01*
X289682763Y-82061506D01*
X289714031Y-82069884D01*
X289837018Y-82120827D01*
X289865051Y-82137012D01*
X289905838Y-82168309D01*
X289970663Y-82218050D01*
X289993551Y-82240938D01*
X290074587Y-82346548D01*
X290090772Y-82374581D01*
X290141715Y-82497568D01*
X290150093Y-82528835D01*
X290168539Y-82668939D01*
X290169600Y-82685125D01*
X290169600Y-92168474D01*
X290168539Y-92184660D01*
X290150093Y-92324764D01*
X290141715Y-92356031D01*
X290090772Y-92479018D01*
X290074587Y-92507051D01*
X289993551Y-92612661D01*
X289970661Y-92635551D01*
X289865051Y-92716587D01*
X289837018Y-92732772D01*
X289714031Y-92783715D01*
X289682764Y-92792093D01*
X289558225Y-92808489D01*
X289542658Y-92810539D01*
X289526474Y-92811600D01*
X283218228Y-92811600D01*
X283201840Y-92810512D01*
X282447999Y-92709999D01*
X282439146Y-92717750D01*
X282428315Y-92754639D01*
X282375511Y-92800394D01*
X282324000Y-92811600D01*
X281686000Y-92811600D01*
X281686000Y-93446600D01*
X281686000Y-93446606D01*
X281686000Y-97920000D01*
X281666315Y-97987039D01*
X281613511Y-98032794D01*
X281562000Y-98044000D01*
X280416000Y-98044000D01*
X280416000Y-100330000D01*
X281244500Y-100330000D01*
X281311539Y-100349685D01*
X281357294Y-100402489D01*
X281368500Y-100454000D01*
X281368500Y-106933999D01*
X281372158Y-106971158D01*
X281372160Y-106971164D01*
X281400605Y-107039837D01*
X281453162Y-107092394D01*
X281453163Y-107092394D01*
X281453164Y-107092395D01*
X281521835Y-107120840D01*
X281521839Y-107120840D01*
X281521841Y-107120841D01*
X281551791Y-107123790D01*
X281559000Y-107124500D01*
X281562000Y-107124500D01*
X281629039Y-107144185D01*
X281674794Y-107196989D01*
X281686000Y-107248500D01*
X281686000Y-107316495D01*
X281666315Y-107383534D01*
X281613511Y-107429289D01*
X281603184Y-107433456D01*
X265970859Y-112937796D01*
X265949381Y-112946086D01*
X265935789Y-112951804D01*
X265914753Y-112961402D01*
X265799072Y-113018417D01*
X265759005Y-113041230D01*
X265758995Y-113041236D01*
X265734266Y-113057343D01*
X265734264Y-113057345D01*
X265697220Y-113084752D01*
X265604013Y-113162725D01*
X265570472Y-113194371D01*
X265550245Y-113215876D01*
X265520723Y-113251276D01*
X265481616Y-113304308D01*
X265425984Y-113346580D01*
X265356330Y-113352064D01*
X265320101Y-113338262D01*
X265275763Y-113312819D01*
X265251838Y-113294943D01*
X265169048Y-113215876D01*
X265157526Y-113204871D01*
X265147362Y-113193919D01*
X253894830Y-99495184D01*
X253886461Y-99483714D01*
X253819309Y-99379649D01*
X253806758Y-99354217D01*
X253767421Y-99244356D01*
X253760977Y-99216736D01*
X253746814Y-99093703D01*
X253746000Y-99079522D01*
X253746000Y-97479999D01*
X274403438Y-97479999D01*
X274403438Y-97480000D01*
X274423640Y-97698029D01*
X274483563Y-97908633D01*
X274483567Y-97908642D01*
X274581159Y-98104634D01*
X274581166Y-98104646D01*
X274625752Y-98163687D01*
X274713120Y-98279382D01*
X274874937Y-98426897D01*
X275061104Y-98542167D01*
X275061105Y-98542167D01*
X275061106Y-98542168D01*
X275104360Y-98558924D01*
X275265282Y-98621266D01*
X275480518Y-98661500D01*
X275480521Y-98661500D01*
X275699479Y-98661500D01*
X275699482Y-98661500D01*
X275914718Y-98621266D01*
X276118896Y-98542167D01*
X276305063Y-98426897D01*
X276466880Y-98279382D01*
X276598835Y-98104644D01*
X276696436Y-97908636D01*
X276756359Y-97698030D01*
X276776562Y-97480000D01*
X276756359Y-97261970D01*
X276696436Y-97051364D01*
X276621812Y-96901500D01*
X276598840Y-96855365D01*
X276598833Y-96855353D01*
X276575638Y-96824638D01*
X276466880Y-96680618D01*
X276305063Y-96533103D01*
X276118896Y-96417833D01*
X276118894Y-96417832D01*
X276118893Y-96417831D01*
X275957974Y-96355491D01*
X275914718Y-96338734D01*
X275699482Y-96298500D01*
X275480518Y-96298500D01*
X275265282Y-96338734D01*
X275265279Y-96338734D01*
X275265279Y-96338735D01*
X275061106Y-96417831D01*
X275061105Y-96417832D01*
X274874941Y-96533100D01*
X274874939Y-96533101D01*
X274874937Y-96533103D01*
X274790563Y-96610020D01*
X274713121Y-96680617D01*
X274581166Y-96855353D01*
X274581159Y-96855365D01*
X274483567Y-97051357D01*
X274483563Y-97051366D01*
X274423640Y-97261970D01*
X274403438Y-97479999D01*
X253746000Y-97479999D01*
X253746000Y-94827844D01*
X274290000Y-94827844D01*
X274296401Y-94887372D01*
X274296403Y-94887379D01*
X274346645Y-95022086D01*
X274346649Y-95022093D01*
X274432809Y-95137187D01*
X274432812Y-95137190D01*
X274547906Y-95223350D01*
X274547913Y-95223354D01*
X274682620Y-95273596D01*
X274682627Y-95273598D01*
X274742155Y-95279999D01*
X274742172Y-95280000D01*
X275272500Y-95280000D01*
X275907500Y-95280000D01*
X276437828Y-95280000D01*
X276437844Y-95279999D01*
X276497372Y-95273598D01*
X276497379Y-95273596D01*
X276632086Y-95223354D01*
X276632093Y-95223350D01*
X276747187Y-95137190D01*
X276747190Y-95137187D01*
X276833350Y-95022093D01*
X276833354Y-95022086D01*
X276883596Y-94887379D01*
X276883598Y-94887372D01*
X276889999Y-94827844D01*
X276890000Y-94827827D01*
X276890000Y-94297500D01*
X275907500Y-94297500D01*
X275907500Y-95280000D01*
X275272500Y-95280000D01*
X275272500Y-94297500D01*
X274290000Y-94297500D01*
X274290000Y-94827844D01*
X253746000Y-94827844D01*
X253746000Y-93927339D01*
X275190000Y-93927339D01*
X275190000Y-94032661D01*
X275217259Y-94134394D01*
X275269920Y-94225606D01*
X275344394Y-94300080D01*
X275435606Y-94352741D01*
X275537339Y-94380000D01*
X275642661Y-94380000D01*
X275744394Y-94352741D01*
X275835606Y-94300080D01*
X275910080Y-94225606D01*
X275962741Y-94134394D01*
X275990000Y-94032661D01*
X275990000Y-93927339D01*
X275962741Y-93825606D01*
X275910080Y-93734394D01*
X275838186Y-93662500D01*
X275907500Y-93662500D01*
X276890000Y-93662500D01*
X276890000Y-93132172D01*
X276889999Y-93132155D01*
X276883598Y-93072627D01*
X276883596Y-93072620D01*
X276833354Y-92937913D01*
X276833350Y-92937906D01*
X276747190Y-92822812D01*
X276747187Y-92822809D01*
X276632093Y-92736649D01*
X276632086Y-92736645D01*
X276497379Y-92686403D01*
X276497372Y-92686401D01*
X276437844Y-92680000D01*
X275907500Y-92680000D01*
X275907500Y-93662500D01*
X275838186Y-93662500D01*
X275835606Y-93659920D01*
X275744394Y-93607259D01*
X275642661Y-93580000D01*
X275537339Y-93580000D01*
X275435606Y-93607259D01*
X275344394Y-93659920D01*
X275269920Y-93734394D01*
X275217259Y-93825606D01*
X275190000Y-93927339D01*
X253746000Y-93927339D01*
X253746000Y-93132155D01*
X274290000Y-93132155D01*
X274290000Y-93662500D01*
X275272500Y-93662500D01*
X275272500Y-92680000D01*
X274742155Y-92680000D01*
X274682627Y-92686401D01*
X274682620Y-92686403D01*
X274547913Y-92736645D01*
X274547906Y-92736649D01*
X274432812Y-92822809D01*
X274432809Y-92822812D01*
X274346649Y-92937906D01*
X274346645Y-92937913D01*
X274296403Y-93072620D01*
X274296401Y-93072627D01*
X274290000Y-93132155D01*
X253746000Y-93132155D01*
X253746000Y-90594194D01*
X255590870Y-90594194D01*
X255590870Y-90594205D01*
X255609357Y-90817309D01*
X255664316Y-91034340D01*
X255754246Y-91239360D01*
X255792963Y-91298621D01*
X256364145Y-90727441D01*
X256390177Y-90824595D01*
X256468761Y-90960705D01*
X256579895Y-91071839D01*
X256716005Y-91150423D01*
X256813157Y-91176454D01*
X256241080Y-91748531D01*
X256401888Y-91835557D01*
X256401897Y-91835560D01*
X256613633Y-91908250D01*
X256834462Y-91945100D01*
X257058338Y-91945100D01*
X257279166Y-91908250D01*
X257490902Y-91835560D01*
X257490910Y-91835557D01*
X257651718Y-91748531D01*
X257079642Y-91176454D01*
X257176795Y-91150423D01*
X257312905Y-91071839D01*
X257424039Y-90960705D01*
X257502623Y-90824595D01*
X257528654Y-90727442D01*
X258099834Y-91298622D01*
X258138554Y-91239358D01*
X258138555Y-91239356D01*
X258228483Y-91034340D01*
X258283442Y-90817309D01*
X258301930Y-90594205D01*
X258301930Y-90594197D01*
X260709292Y-90594197D01*
X260709292Y-90594202D01*
X260728085Y-90809016D01*
X260728086Y-90809023D01*
X260783900Y-91017319D01*
X260875032Y-91212752D01*
X260875033Y-91212754D01*
X260998721Y-91389400D01*
X261151199Y-91541878D01*
X261151202Y-91541880D01*
X261327846Y-91665567D01*
X261523284Y-91756701D01*
X261731578Y-91812514D01*
X261885022Y-91825938D01*
X261946398Y-91831308D01*
X261946400Y-91831308D01*
X261946402Y-91831308D01*
X262000105Y-91826609D01*
X262161222Y-91812514D01*
X262369516Y-91756701D01*
X262564954Y-91665567D01*
X262741598Y-91541880D01*
X262894080Y-91389398D01*
X263017767Y-91212754D01*
X263108901Y-91017316D01*
X263164714Y-90809022D01*
X263183508Y-90594200D01*
X263183507Y-90594194D01*
X263176460Y-90513641D01*
X263164714Y-90379378D01*
X263108901Y-90171084D01*
X263017767Y-89975646D01*
X262894080Y-89799002D01*
X262894078Y-89798999D01*
X262741600Y-89646521D01*
X262564954Y-89522833D01*
X262564952Y-89522832D01*
X262369519Y-89431700D01*
X262369516Y-89431699D01*
X262281486Y-89408111D01*
X262161223Y-89375886D01*
X262161216Y-89375885D01*
X261946402Y-89357092D01*
X261946398Y-89357092D01*
X261731583Y-89375885D01*
X261731576Y-89375886D01*
X261523280Y-89431700D01*
X261327847Y-89522832D01*
X261327845Y-89522833D01*
X261151199Y-89646521D01*
X260998721Y-89798999D01*
X260875033Y-89975645D01*
X260875032Y-89975647D01*
X260783900Y-90171080D01*
X260728086Y-90379376D01*
X260728085Y-90379383D01*
X260709292Y-90594197D01*
X258301930Y-90594197D01*
X258301930Y-90594194D01*
X258283442Y-90371090D01*
X258228483Y-90154059D01*
X258138554Y-89949042D01*
X258099834Y-89889776D01*
X257528654Y-90460956D01*
X257502623Y-90363805D01*
X257424039Y-90227695D01*
X257312905Y-90116561D01*
X257176795Y-90037977D01*
X257079642Y-90011945D01*
X257651719Y-89439867D01*
X257651718Y-89439866D01*
X257490916Y-89352845D01*
X257490902Y-89352839D01*
X257279166Y-89280149D01*
X257058338Y-89243300D01*
X256834462Y-89243300D01*
X256613633Y-89280149D01*
X256401894Y-89352840D01*
X256401883Y-89352845D01*
X256241079Y-89439867D01*
X256813158Y-90011945D01*
X256716005Y-90037977D01*
X256579895Y-90116561D01*
X256468761Y-90227695D01*
X256390177Y-90363805D01*
X256364145Y-90460957D01*
X255792964Y-89889777D01*
X255754245Y-89949042D01*
X255754244Y-89949044D01*
X255664316Y-90154059D01*
X255609357Y-90371090D01*
X255590870Y-90594194D01*
X253746000Y-90594194D01*
X253746000Y-88285199D01*
X274403438Y-88285199D01*
X274403438Y-88285200D01*
X274423640Y-88503229D01*
X274483563Y-88713833D01*
X274483567Y-88713842D01*
X274581159Y-88909834D01*
X274581166Y-88909846D01*
X274625752Y-88968887D01*
X274713120Y-89084582D01*
X274874937Y-89232097D01*
X275061104Y-89347367D01*
X275061105Y-89347367D01*
X275061106Y-89347368D01*
X275075231Y-89352840D01*
X275265282Y-89426466D01*
X275480518Y-89466700D01*
X275480521Y-89466700D01*
X275699479Y-89466700D01*
X275699482Y-89466700D01*
X275914718Y-89426466D01*
X276118896Y-89347367D01*
X276305063Y-89232097D01*
X276466880Y-89084582D01*
X276598835Y-88909844D01*
X276696436Y-88713836D01*
X276756359Y-88503230D01*
X276776562Y-88285200D01*
X276756359Y-88067170D01*
X276696436Y-87856564D01*
X276647830Y-87758951D01*
X276598840Y-87660565D01*
X276598833Y-87660553D01*
X276575638Y-87629838D01*
X276466880Y-87485818D01*
X276305063Y-87338303D01*
X276118896Y-87223033D01*
X276118894Y-87223032D01*
X276118893Y-87223031D01*
X275957974Y-87160691D01*
X275914718Y-87143934D01*
X275699482Y-87103700D01*
X275480518Y-87103700D01*
X275265282Y-87143934D01*
X275265279Y-87143934D01*
X275265279Y-87143935D01*
X275061106Y-87223031D01*
X275061105Y-87223032D01*
X274874941Y-87338300D01*
X274874939Y-87338301D01*
X274874937Y-87338303D01*
X274732583Y-87468074D01*
X274713121Y-87485817D01*
X274581166Y-87660553D01*
X274581159Y-87660565D01*
X274483567Y-87856557D01*
X274483563Y-87856566D01*
X274423640Y-88067170D01*
X274403438Y-88285199D01*
X253746000Y-88285199D01*
X253746000Y-85594194D01*
X255590870Y-85594194D01*
X255590870Y-85594205D01*
X255609357Y-85817309D01*
X255664316Y-86034340D01*
X255754246Y-86239360D01*
X255792963Y-86298621D01*
X256364145Y-85727441D01*
X256390177Y-85824595D01*
X256468761Y-85960705D01*
X256579895Y-86071839D01*
X256716005Y-86150423D01*
X256813157Y-86176454D01*
X256241080Y-86748531D01*
X256401888Y-86835557D01*
X256401897Y-86835560D01*
X256613633Y-86908250D01*
X256834462Y-86945100D01*
X257058338Y-86945100D01*
X257279166Y-86908250D01*
X257490902Y-86835560D01*
X257490910Y-86835557D01*
X257651718Y-86748531D01*
X257079642Y-86176454D01*
X257176795Y-86150423D01*
X257312905Y-86071839D01*
X257424039Y-85960705D01*
X257502623Y-85824595D01*
X257528654Y-85727442D01*
X258099834Y-86298622D01*
X258138554Y-86239358D01*
X258138555Y-86239356D01*
X258228483Y-86034340D01*
X258283442Y-85817309D01*
X258301930Y-85594205D01*
X258301930Y-85594197D01*
X260709292Y-85594197D01*
X260709292Y-85594202D01*
X260728085Y-85809016D01*
X260728086Y-85809023D01*
X260783900Y-86017319D01*
X260875032Y-86212752D01*
X260875033Y-86212754D01*
X260998721Y-86389400D01*
X261151199Y-86541878D01*
X261151202Y-86541880D01*
X261327846Y-86665567D01*
X261523284Y-86756701D01*
X261731578Y-86812514D01*
X261885022Y-86825938D01*
X261946398Y-86831308D01*
X261946400Y-86831308D01*
X261946402Y-86831308D01*
X262000105Y-86826609D01*
X262161222Y-86812514D01*
X262369516Y-86756701D01*
X262564954Y-86665567D01*
X262741598Y-86541880D01*
X262894080Y-86389398D01*
X263017767Y-86212754D01*
X263108901Y-86017316D01*
X263164714Y-85809022D01*
X263180110Y-85633044D01*
X274290000Y-85633044D01*
X274296401Y-85692572D01*
X274296403Y-85692579D01*
X274346645Y-85827286D01*
X274346649Y-85827293D01*
X274432809Y-85942387D01*
X274432812Y-85942390D01*
X274547906Y-86028550D01*
X274547913Y-86028554D01*
X274682620Y-86078796D01*
X274682627Y-86078798D01*
X274742155Y-86085199D01*
X274742172Y-86085200D01*
X275272500Y-86085200D01*
X275907500Y-86085200D01*
X276437828Y-86085200D01*
X276437844Y-86085199D01*
X276497372Y-86078798D01*
X276497379Y-86078796D01*
X276632086Y-86028554D01*
X276632093Y-86028550D01*
X276747187Y-85942390D01*
X276747190Y-85942387D01*
X276833350Y-85827293D01*
X276833354Y-85827286D01*
X276883596Y-85692579D01*
X276883598Y-85692572D01*
X276889999Y-85633044D01*
X276890000Y-85633027D01*
X276890000Y-85102700D01*
X275907500Y-85102700D01*
X275907500Y-86085200D01*
X275272500Y-86085200D01*
X275272500Y-85102700D01*
X274290000Y-85102700D01*
X274290000Y-85633044D01*
X263180110Y-85633044D01*
X263183508Y-85594200D01*
X263183507Y-85594194D01*
X263176460Y-85513641D01*
X263164714Y-85379378D01*
X263108901Y-85171084D01*
X263017767Y-84975646D01*
X262894080Y-84799002D01*
X262894078Y-84798999D01*
X262827618Y-84732539D01*
X275190000Y-84732539D01*
X275190000Y-84837861D01*
X275217259Y-84939594D01*
X275269920Y-85030806D01*
X275344394Y-85105280D01*
X275435606Y-85157941D01*
X275537339Y-85185200D01*
X275642661Y-85185200D01*
X275744394Y-85157941D01*
X275835606Y-85105280D01*
X275910080Y-85030806D01*
X275962741Y-84939594D01*
X275990000Y-84837861D01*
X275990000Y-84732539D01*
X275962741Y-84630806D01*
X275910080Y-84539594D01*
X275838186Y-84467700D01*
X275907500Y-84467700D01*
X276890000Y-84467700D01*
X276890000Y-83937372D01*
X276889999Y-83937355D01*
X276883598Y-83877827D01*
X276883596Y-83877820D01*
X276833354Y-83743113D01*
X276833350Y-83743106D01*
X276747190Y-83628012D01*
X276747187Y-83628009D01*
X276632093Y-83541849D01*
X276632086Y-83541845D01*
X276497379Y-83491603D01*
X276497372Y-83491601D01*
X276437844Y-83485200D01*
X275907500Y-83485200D01*
X275907500Y-84467700D01*
X275838186Y-84467700D01*
X275835606Y-84465120D01*
X275744394Y-84412459D01*
X275642661Y-84385200D01*
X275537339Y-84385200D01*
X275435606Y-84412459D01*
X275344394Y-84465120D01*
X275269920Y-84539594D01*
X275217259Y-84630806D01*
X275190000Y-84732539D01*
X262827618Y-84732539D01*
X262741600Y-84646521D01*
X262564954Y-84522833D01*
X262564952Y-84522832D01*
X262369519Y-84431700D01*
X262369516Y-84431699D01*
X262281486Y-84408111D01*
X262161223Y-84375886D01*
X262161216Y-84375885D01*
X261946402Y-84357092D01*
X261946398Y-84357092D01*
X261731583Y-84375885D01*
X261731576Y-84375886D01*
X261523280Y-84431700D01*
X261327847Y-84522832D01*
X261327845Y-84522833D01*
X261151199Y-84646521D01*
X260998721Y-84798999D01*
X260875033Y-84975645D01*
X260875032Y-84975647D01*
X260783900Y-85171080D01*
X260728086Y-85379376D01*
X260728085Y-85379383D01*
X260709292Y-85594197D01*
X258301930Y-85594197D01*
X258301930Y-85594194D01*
X258283442Y-85371090D01*
X258228483Y-85154059D01*
X258138554Y-84949042D01*
X258099834Y-84889776D01*
X257528654Y-85460956D01*
X257502623Y-85363805D01*
X257424039Y-85227695D01*
X257312905Y-85116561D01*
X257176795Y-85037977D01*
X257079642Y-85011945D01*
X257651719Y-84439867D01*
X257651718Y-84439866D01*
X257490916Y-84352845D01*
X257490902Y-84352839D01*
X257279166Y-84280149D01*
X257058338Y-84243300D01*
X256834462Y-84243300D01*
X256613633Y-84280149D01*
X256401894Y-84352840D01*
X256401883Y-84352845D01*
X256241079Y-84439867D01*
X256813158Y-85011945D01*
X256716005Y-85037977D01*
X256579895Y-85116561D01*
X256468761Y-85227695D01*
X256390177Y-85363805D01*
X256364145Y-85460957D01*
X255792964Y-84889777D01*
X255754245Y-84949042D01*
X255754244Y-84949044D01*
X255664316Y-85154059D01*
X255609357Y-85371090D01*
X255590870Y-85594194D01*
X253746000Y-85594194D01*
X253746000Y-83937355D01*
X274290000Y-83937355D01*
X274290000Y-84467700D01*
X275272500Y-84467700D01*
X275272500Y-83485200D01*
X274742155Y-83485200D01*
X274682627Y-83491601D01*
X274682620Y-83491603D01*
X274547913Y-83541845D01*
X274547906Y-83541849D01*
X274432812Y-83628009D01*
X274432809Y-83628012D01*
X274346649Y-83743106D01*
X274346645Y-83743113D01*
X274296403Y-83877820D01*
X274296401Y-83877827D01*
X274290000Y-83937355D01*
X253746000Y-83937355D01*
X253746000Y-82685125D01*
X253747061Y-82668940D01*
X253765506Y-82528836D01*
X253773884Y-82497568D01*
X253824827Y-82374581D01*
X253841012Y-82346548D01*
X253922053Y-82240932D01*
X253944932Y-82218053D01*
X254050549Y-82137010D01*
X254078579Y-82120827D01*
X254201569Y-82069883D01*
X254232835Y-82061506D01*
X254372941Y-82043061D01*
X254389126Y-82042000D01*
X289526474Y-82042000D01*
X289542659Y-82043061D01*
G37*
%TD.AperFunction*%
%TD*%
M02*
