%TF.GenerationSoftware,KiCad,Pcbnew,10.0.5-10.0.5~ubuntu24.04.1*%
%TF.CreationDate,2026-08-11T21:59:59-07:00*%
%TF.ProjectId,NX-J401-Adapter-v7,4e582d4a-3430-4312-9d41-646170746572,7*%
%TF.SameCoordinates,Original*%
%TF.FileFunction,Copper,L1,Top*%
%TF.FilePolarity,Positive*%
%FSLAX46Y46*%
G04 Gerber Fmt 4.6, Leading zero omitted, Abs format (unit mm)*
G04 Created by KiCad (PCBNEW 10.0.5-10.0.5~ubuntu24.04.1) date 2026-08-11 21:59:59*
%MOMM*%
%LPD*%
G01*
G04 APERTURE LIST*
G04 Aperture macros list*
%AMRoundRect*
0 Rectangle with rounded corners*
0 $1 Rounding radius*
0 $2 $3 $4 $5 $6 $7 $8 $9 X,Y pos of 4 corners*
0 Add a 4 corners polygon primitive as box body*
4,1,4,$2,$3,$4,$5,$6,$7,$8,$9,$2,$3,0*
0 Add four circle primitives for the rounded corners*
1,1,$1+$1,$2,$3*
1,1,$1+$1,$4,$5*
1,1,$1+$1,$6,$7*
1,1,$1+$1,$8,$9*
0 Add four rect primitives between the rounded corners*
20,1,$1+$1,$2,$3,$4,$5,0*
20,1,$1+$1,$4,$5,$6,$7,0*
20,1,$1+$1,$6,$7,$8,$9,0*
20,1,$1+$1,$8,$9,$2,$3,0*%
G04 Aperture macros list end*
%TA.AperFunction,ComponentPad*%
%ADD10C,1.498600*%
%TD*%
%TA.AperFunction,ComponentPad*%
%ADD11C,1.803400*%
%TD*%
%TA.AperFunction,ComponentPad*%
%ADD12R,1.700000X1.700000*%
%TD*%
%TA.AperFunction,ComponentPad*%
%ADD13C,1.700000*%
%TD*%
%TA.AperFunction,SMDPad,CuDef*%
%ADD14RoundRect,0.250000X-0.325000X-1.100000X0.325000X-1.100000X0.325000X1.100000X-0.325000X1.100000X0*%
%TD*%
%TA.AperFunction,ComponentPad*%
%ADD15RoundRect,0.250001X0.499999X0.759999X-0.499999X0.759999X-0.499999X-0.759999X0.499999X-0.759999X0*%
%TD*%
%TA.AperFunction,ComponentPad*%
%ADD16O,1.500000X2.020000*%
%TD*%
%TA.AperFunction,SMDPad,CuDef*%
%ADD17RoundRect,0.250000X-0.375000X-0.625000X0.375000X-0.625000X0.375000X0.625000X-0.375000X0.625000X0*%
%TD*%
%TA.AperFunction,SMDPad,CuDef*%
%ADD18RoundRect,0.075000X0.425000X-0.175000X0.425000X0.175000X-0.425000X0.175000X-0.425000X-0.175000X0*%
%TD*%
%TA.AperFunction,SMDPad,CuDef*%
%ADD19RoundRect,0.187500X0.712500X-0.437500X0.712500X0.437500X-0.712500X0.437500X-0.712500X-0.437500X0*%
%TD*%
%TA.AperFunction,SMDPad,CuDef*%
%ADD20RoundRect,0.250000X0.325000X1.100000X-0.325000X1.100000X-0.325000X-1.100000X0.325000X-1.100000X0*%
%TD*%
%TA.AperFunction,SMDPad,CuDef*%
%ADD21RoundRect,0.250000X-1.400000X-1.000000X1.400000X-1.000000X1.400000X1.000000X-1.400000X1.000000X0*%
%TD*%
%TA.AperFunction,ComponentPad*%
%ADD22C,2.794000*%
%TD*%
%TA.AperFunction,ComponentPad*%
%ADD23RoundRect,0.250001X0.759999X-0.499999X0.759999X0.499999X-0.759999X0.499999X-0.759999X-0.499999X0*%
%TD*%
%TA.AperFunction,ComponentPad*%
%ADD24O,2.020000X1.500000*%
%TD*%
%TA.AperFunction,ComponentPad*%
%ADD25R,1.778000X1.778000*%
%TD*%
%TA.AperFunction,ComponentPad*%
%ADD26C,1.778000*%
%TD*%
%TA.AperFunction,SMDPad,CuDef*%
%ADD27RoundRect,0.090000X0.210000X0.485000X-0.210000X0.485000X-0.210000X-0.485000X0.210000X-0.485000X0*%
%TD*%
%TA.AperFunction,SMDPad,CuDef*%
%ADD28RoundRect,0.045000X0.105000X0.530000X-0.105000X0.530000X-0.105000X-0.530000X0.105000X-0.530000X0*%
%TD*%
%TA.AperFunction,SMDPad,CuDef*%
%ADD29RoundRect,0.250000X0.790000X0.750000X-0.790000X0.750000X-0.790000X-0.750000X0.790000X-0.750000X0*%
%TD*%
%TA.AperFunction,SMDPad,CuDef*%
%ADD30RoundRect,0.525000X1.225000X-1.250000X1.225000X1.250000X-1.225000X1.250000X-1.225000X-1.250000X0*%
%TD*%
%TA.AperFunction,ComponentPad*%
%ADD31C,0.600000*%
%TD*%
%TA.AperFunction,SMDPad,CuDef*%
%ADD32R,3.400000X9.500000*%
%TD*%
%TA.AperFunction,ViaPad*%
%ADD33C,0.600000*%
%TD*%
%TA.AperFunction,ViaPad*%
%ADD34C,0.889000*%
%TD*%
%TA.AperFunction,ViaPad*%
%ADD35C,1.143000*%
%TD*%
%TA.AperFunction,ViaPad*%
%ADD36C,0.609600*%
%TD*%
%TA.AperFunction,Conductor*%
%ADD37C,0.635000*%
%TD*%
%TA.AperFunction,Conductor*%
%ADD38C,0.381000*%
%TD*%
%TA.AperFunction,Conductor*%
%ADD39C,0.254000*%
%TD*%
%TA.AperFunction,Conductor*%
%ADD40C,0.889000*%
%TD*%
%TA.AperFunction,Conductor*%
%ADD41C,0.508000*%
%TD*%
G04 APERTURE END LIST*
D10*
%TO.P,SW1,1,1_1*%
%TO.N,/~{SYS_RESET}*%
X213142000Y-150646900D03*
%TO.P,SW1,2,2_2*%
%TO.N,GND1*%
X217642001Y-150646900D03*
D11*
%TO.P,SW1,3*%
%TO.N,N/C*%
X211892001Y-148147024D03*
%TO.P,SW1,4*%
X218892000Y-148147024D03*
%TD*%
D12*
%TO.P,J5,1,Pin_1_1*%
%TO.N,/NX-Button Interface/3V3_BTN*%
X262241680Y-93141800D03*
D13*
%TO.P,J5,2,Pin_2_2*%
%TO.N,unconnected-(J5-Pin_2-Pad2)*%
X262241680Y-95681800D03*
%TO.P,J5,3,Pin_3_3*%
%TO.N,unconnected-(J5-Pin_3-Pad3)*%
X262241680Y-98221800D03*
%TO.P,J5,4,Pin_4_4*%
%TO.N,/NX-Button Interface/NX_PC_LED-*%
X262241680Y-100761800D03*
%TO.P,J5,5,Pin_5_5*%
%TO.N,/NX-Button Interface/NX_PC_LED+*%
X262241680Y-103301800D03*
%TO.P,J5,6,Pin_6_6*%
%TO.N,/NX-Button Interface/UART2_RXD*%
X262241680Y-105841800D03*
%TO.P,J5,7,Pin_7_7*%
%TO.N,/NX-Button Interface/UART2_TXD*%
X262241680Y-108381800D03*
%TO.P,J5,8,Pin_8_8*%
%TO.N,unconnected-(J5-Pin_8-Pad8)*%
X262241680Y-110921800D03*
%TO.P,J5,9,Pin_9_9*%
%TO.N,unconnected-(J5-Pin_9-Pad9)*%
X262241680Y-113461800D03*
%TO.P,J5,10,Pin_10_10*%
%TO.N,/NX-Button Interface/GND_BTN*%
X262241680Y-116001800D03*
%TO.P,J5,11,Pin_11_11*%
%TO.N,/NX-Button Interface/~{SYS_RESET}*%
X262241680Y-118541800D03*
%TO.P,J5,12,Pin_12_12*%
%TO.N,/NX-Button Interface/GND_BTN*%
X262241680Y-121081800D03*
%TO.P,J5,13,Pin_13_13*%
%TO.N,/NX-Button Interface/~{REC}*%
X262241680Y-123621800D03*
%TO.P,J5,14,Pin_14_14*%
%TO.N,unconnected-(J5-Pin_14-Pad14)*%
X262241680Y-126161800D03*
%TO.P,J5,15,Pin_15_15*%
%TO.N,unconnected-(J5-Pin_15-Pad15)*%
X262241680Y-128701800D03*
%TD*%
D14*
%TO.P,C10,1*%
%TO.N,/VIN_PS*%
X193134600Y-138599000D03*
%TO.P,C10,2*%
%TO.N,GND*%
X196084600Y-138599000D03*
%TD*%
D12*
%TO.P,J8,1,Pin_1_1*%
%TO.N,/CANable2.0/GND_CAN*%
X245499337Y-114629649D03*
D13*
%TO.P,J8,2,Pin_2_2*%
%TO.N,/CANable2.0/SWDIO*%
X245499337Y-117169649D03*
%TO.P,J8,3,Pin_3_3*%
%TO.N,/CANable2.0/SWCLK*%
X245499337Y-119709649D03*
%TO.P,J8,4,Pin_4_4*%
%TO.N,/CANable2.0/BOOT0*%
X245499337Y-122249649D03*
%TO.P,J8,5,Pin_5_5*%
%TO.N,/CANable2.0/3V3*%
X245499337Y-124789649D03*
%TD*%
D14*
%TO.P,C5,1*%
%TO.N,/15V 3A Buck-Boost Power Supply/+V_OUT*%
X193134600Y-109389000D03*
%TO.P,C5,2*%
%TO.N,GND*%
X196084600Y-109389000D03*
%TD*%
D15*
%TO.P,J10,1,Pin_1_1*%
%TO.N,GND*%
X167235000Y-146296000D03*
D16*
%TO.P,J10,2,Pin_2_2*%
%TO.N,/V_IN*%
X164235000Y-146296000D03*
%TD*%
D17*
%TO.P,D3,1,K_1*%
%TO.N,/NX_PC_LED-*%
X182800800Y-150535640D03*
%TO.P,D3,2,A_2*%
%TO.N,/NX_PC_LED+*%
X185600800Y-150535640D03*
%TD*%
D18*
%TO.P,J7,1,Pin_1_1*%
%TO.N,/CANable2.0/GND_CAN*%
X238550300Y-100161400D03*
%TO.P,J7,2,Pin_2_2*%
%TO.N,/CANable2.0/3V3_USB*%
X238550300Y-98661400D03*
%TO.P,J7,3,Pin_3_3*%
%TO.N,/CANable2.0/USB_DM*%
X238550300Y-97161400D03*
%TO.P,J7,4,Pin_4_4*%
%TO.N,/CANable2.0/USB_DP*%
X238550300Y-95661400D03*
D19*
%TO.P,J7,5*%
%TO.N,N/C*%
X243740300Y-93106400D03*
X243740300Y-102716400D03*
%TD*%
D20*
%TO.P,C1,1*%
%TO.N,/15V 3A Buck-Boost Power Supply/+V_OUT*%
X191004600Y-102277000D03*
%TO.P,C1,2*%
%TO.N,GND*%
X188054600Y-102277000D03*
%TD*%
D21*
%TO.P,D1,1,A1_1*%
%TO.N,GND*%
X168173400Y-135638800D03*
%TO.P,D1,2,A2_2*%
%TO.N,/V_IN*%
X168173400Y-142338800D03*
%TD*%
D10*
%TO.P,SW2,1,1_1*%
%TO.N,/~{REC}*%
X223810000Y-150697700D03*
%TO.P,SW2,2,2_2*%
%TO.N,GND1*%
X228310001Y-150697700D03*
D11*
%TO.P,SW2,3*%
%TO.N,N/C*%
X222560001Y-148197824D03*
%TO.P,SW2,4*%
X229560000Y-148197824D03*
%TD*%
D14*
%TO.P,C3,1*%
%TO.N,/15V 3A Buck-Boost Power Supply/+V_OUT*%
X193134600Y-105833000D03*
%TO.P,C3,2*%
%TO.N,GND*%
X196084600Y-105833000D03*
%TD*%
D22*
%TO.P,J2,1*%
%TO.N,N/C*%
X230783722Y-81717324D03*
X230783722Y-76637324D03*
X225348122Y-81717324D03*
X225348122Y-76637324D03*
%TD*%
D20*
%TO.P,C6,1*%
%TO.N,/VIN_PS*%
X176023800Y-135043368D03*
%TO.P,C6,2*%
%TO.N,GND*%
X173073800Y-135043368D03*
%TD*%
D23*
%TO.P,J4,1,Pin_1_1*%
%TO.N,GND*%
X190860200Y-92826000D03*
D24*
%TO.P,J4,2,Pin_2_2*%
%TO.N,/V_OUT*%
X190860200Y-89826000D03*
%TD*%
D20*
%TO.P,C9,1*%
%TO.N,/VIN_PS*%
X191004600Y-138599000D03*
%TO.P,C9,2*%
%TO.N,GND*%
X188054600Y-138599000D03*
%TD*%
D22*
%TO.P,J1,1*%
%TO.N,N/C*%
X180898122Y-81717324D03*
X180898122Y-76637324D03*
X175462522Y-81717324D03*
X175462522Y-76637324D03*
%TD*%
D12*
%TO.P,J3,1,Pin_1_1*%
%TO.N,/3V3_BTN*%
X185343122Y-84739924D03*
D13*
%TO.P,J3,2,Pin_2_2*%
%TO.N,unconnected-(J3-Pin_2-Pad2)*%
X187883122Y-84739924D03*
%TO.P,J3,3,Pin_3_3*%
%TO.N,unconnected-(J3-Pin_3-Pad3)*%
X190423122Y-84739924D03*
%TO.P,J3,4,Pin_4_4*%
%TO.N,/NX_PC_LED-*%
X192963122Y-84739924D03*
%TO.P,J3,5,Pin_5_5*%
%TO.N,/NX_PC_LED+*%
X195503122Y-84739924D03*
%TO.P,J3,6,Pin_6_6*%
%TO.N,/UART2_RXD*%
X198043122Y-84739924D03*
%TO.P,J3,7,Pin_7_7*%
%TO.N,/UART2_TXD*%
X200583122Y-84739924D03*
%TO.P,J3,8,Pin_8_8*%
%TO.N,unconnected-(J3-Pin_8-Pad8)*%
X203123122Y-84739924D03*
%TO.P,J3,9,Pin_9_9*%
%TO.N,unconnected-(J3-Pin_9-Pad9)*%
X205663122Y-84739924D03*
%TO.P,J3,10,Pin_10_10*%
%TO.N,GND1*%
X208203122Y-84739924D03*
%TO.P,J3,11,Pin_11_11*%
%TO.N,/~{SYS_RESET}*%
X210743122Y-84739924D03*
%TO.P,J3,12,Pin_12_12*%
%TO.N,GND1*%
X213283122Y-84739924D03*
%TO.P,J3,13,Pin_13_13*%
%TO.N,/~{REC}*%
X215823122Y-84739924D03*
%TO.P,J3,14,Pin_14_14*%
%TO.N,unconnected-(J3-Pin_14-Pad14)*%
X218363122Y-84739924D03*
%TO.P,J3,15,Pin_15_15*%
%TO.N,unconnected-(J3-Pin_15-Pad15)*%
X220903122Y-84739924D03*
%TD*%
D20*
%TO.P,C4,1*%
%TO.N,/15V 3A Buck-Boost Power Supply/+V_OUT*%
X191004600Y-109389000D03*
%TO.P,C4,2*%
%TO.N,GND*%
X188054600Y-109389000D03*
%TD*%
%TO.P,C2,1*%
%TO.N,/15V 3A Buck-Boost Power Supply/+V_OUT*%
X191004600Y-105833000D03*
%TO.P,C2,2*%
%TO.N,GND*%
X188054600Y-105833000D03*
%TD*%
D25*
%TO.P,J9,1,Pin_1_1*%
%TO.N,/CANable2.0/CAN_L*%
X250418600Y-142207300D03*
D26*
%TO.P,J9,2,Pin_2_2*%
%TO.N,/CANable2.0/CAN_H*%
X247878600Y-142207300D03*
%TD*%
D27*
%TO.P,J11,A1B12,GND_A1B12*%
%TO.N,GND_USB*%
X195682000Y-147354000D03*
%TO.P,J11,A4B9,VBUS_A4B9*%
%TO.N,Net-(C42-Pad1)*%
X196482000Y-147354000D03*
D28*
%TO.P,J11,A5,CC1_A5*%
%TO.N,Net-(J11-CC1)*%
X197632000Y-147354000D03*
%TO.P,J11,A6,D+_A6*%
%TO.N,Net-(U6-USBD+)*%
X198632000Y-147354000D03*
%TO.P,J11,A7,D-_A7*%
%TO.N,Net-(U6-USBD-)*%
X199132000Y-147354000D03*
%TO.P,J11,A8*%
%TO.N,unconnected-(J11-PadA8)*%
X200132000Y-147354000D03*
D27*
%TO.P,J11,B1A12,GND_B1A12*%
%TO.N,GND_USB*%
X202082000Y-147354000D03*
%TO.P,J11,B4A9,VBUS_B4A9*%
%TO.N,Net-(C42-Pad1)*%
X201282000Y-147354000D03*
D28*
%TO.P,J11,B5,CC2_B5*%
%TO.N,Net-(J11-CC2)*%
X200632000Y-147354000D03*
%TO.P,J11,B6,D+_B6*%
%TO.N,Net-(U6-USBD+)*%
X199632000Y-147354000D03*
%TO.P,J11,B7,D-_B7*%
%TO.N,Net-(U6-USBD-)*%
X198132000Y-147354000D03*
%TO.P,J11,B8*%
%TO.N,unconnected-(J11-PadB8)*%
X197132000Y-147354000D03*
D29*
%TO.P,J11,S1,SHIELD_S1*%
%TO.N,GND_USB*%
X193772000Y-147929000D03*
X193772000Y-151859000D03*
X203992000Y-147929000D03*
X203992000Y-151859000D03*
%TD*%
D30*
%TO.P,L1,1,1_1*%
%TO.N,/15V 3A Buck-Boost Power Supply/SW1*%
X197759200Y-126716400D03*
%TO.P,L1,2,2_2*%
%TO.N,/15V 3A Buck-Boost Power Supply/SW2*%
X197759200Y-117766400D03*
%TD*%
D17*
%TO.P,D4,1,K_1*%
%TO.N,Net-(D4-K)*%
X233600800Y-150535640D03*
%TO.P,D4,2,A_2*%
%TO.N,/CANable2.0/3V3*%
X236400800Y-150535640D03*
%TD*%
%TO.P,D2,1,K_1*%
%TO.N,GND*%
X177720800Y-150535640D03*
%TO.P,D2,2,A_2*%
%TO.N,Net-(D2-A)*%
X180520800Y-150535640D03*
%TD*%
D12*
%TO.P,J6,1,Pin_1_1*%
%TO.N,/NX-Button Interface/3V3_BTN*%
X271841680Y-93141800D03*
D13*
%TO.P,J6,2,Pin_2_2*%
%TO.N,unconnected-(J6-Pin_2-Pad2)*%
X271841680Y-95681800D03*
%TO.P,J6,3,Pin_3_3*%
%TO.N,unconnected-(J6-Pin_3-Pad3)*%
X271841680Y-98221800D03*
%TO.P,J6,4,Pin_4_4*%
%TO.N,/NX-Button Interface/NX_PC_LED-*%
X271841680Y-100761800D03*
%TO.P,J6,5,Pin_5_5*%
%TO.N,/NX-Button Interface/NX_PC_LED+*%
X271841680Y-103301800D03*
%TO.P,J6,6,Pin_6_6*%
%TO.N,/NX-Button Interface/UART2_RXD*%
X271841680Y-105841800D03*
%TO.P,J6,7,Pin_7_7*%
%TO.N,/NX-Button Interface/UART2_TXD*%
X271841680Y-108381800D03*
%TO.P,J6,8,Pin_8_8*%
%TO.N,unconnected-(J6-Pin_8-Pad8)*%
X271841680Y-110921800D03*
%TO.P,J6,9,Pin_9_9*%
%TO.N,unconnected-(J6-Pin_9-Pad9)*%
X271841680Y-113461800D03*
%TO.P,J6,10,Pin_10_10*%
%TO.N,/NX-Button Interface/GND_BTN*%
X271841680Y-116001800D03*
%TO.P,J6,11,Pin_11_11*%
%TO.N,/NX-Button Interface/~{SYS_RESET}*%
X271841680Y-118541800D03*
%TO.P,J6,12,Pin_12_12*%
%TO.N,/NX-Button Interface/GND_BTN*%
X271841680Y-121081800D03*
%TO.P,J6,13,Pin_13_13*%
%TO.N,/NX-Button Interface/~{REC}*%
X271841680Y-123621800D03*
%TO.P,J6,14,Pin_14_14*%
%TO.N,unconnected-(J6-Pin_14-Pad14)*%
X271841680Y-126161800D03*
%TO.P,J6,15,Pin_15_15*%
%TO.N,unconnected-(J6-Pin_15-Pad15)*%
X271841680Y-128701800D03*
%TD*%
D20*
%TO.P,C7,1*%
%TO.N,/VIN_PS*%
X191004600Y-135043000D03*
%TO.P,C7,2*%
%TO.N,GND*%
X188054600Y-135043000D03*
%TD*%
D14*
%TO.P,C8,1*%
%TO.N,/VIN_PS*%
X193134600Y-135043000D03*
%TO.P,C8,2*%
%TO.N,GND*%
X196084600Y-135043000D03*
%TD*%
D17*
%TO.P,D5,1,K_1*%
%TO.N,Net-(D5-K)*%
X238680800Y-150535640D03*
%TO.P,D5,2,A_2*%
%TO.N,/CANable2.0/3V3*%
X241480800Y-150535640D03*
%TD*%
D31*
%TO.P,U4,EP,PGND_EP*%
%TO.N,GND*%
X174259600Y-117003000D03*
X174259600Y-118783000D03*
X174259600Y-120563000D03*
X174259600Y-122343000D03*
X174259600Y-124123000D03*
X174259600Y-125903000D03*
X175559600Y-117003000D03*
X175559600Y-118783000D03*
X175559600Y-120563000D03*
D32*
X175559600Y-121453000D03*
D31*
X175559600Y-122343000D03*
X175559600Y-124123000D03*
X175559600Y-125903000D03*
X176859600Y-117003000D03*
X176859600Y-118783000D03*
X176859600Y-120563000D03*
X176859600Y-122343000D03*
X176859600Y-124123000D03*
X176859600Y-125903000D03*
%TD*%
D33*
%TO.N,GND1*%
X207086200Y-127127000D03*
X212547200Y-127304800D03*
D34*
%TO.N,/VIN_PS*%
X192074800Y-140335000D03*
X192049400Y-136880600D03*
X192074800Y-133350000D03*
D35*
X175996600Y-132791200D03*
%TO.N,GND*%
X201930000Y-102108000D03*
X197510400Y-102260400D03*
D36*
X176352200Y-128447800D03*
D34*
X197408800Y-109347000D03*
D35*
X197485000Y-138582400D03*
D33*
X166420800Y-111683800D03*
D35*
X187299600Y-120726200D03*
D34*
X197383400Y-105791000D03*
D33*
X166395400Y-120827800D03*
D35*
X197510400Y-135051800D03*
D33*
X184750800Y-113453000D03*
D35*
X186639200Y-105892600D03*
X186588400Y-109448600D03*
D33*
X166395400Y-123850400D03*
D35*
X186639200Y-138607800D03*
X171678600Y-143687800D03*
X186639200Y-135077200D03*
D33*
X189485942Y-97821556D03*
X166420800Y-122351800D03*
X166370000Y-117779800D03*
D35*
X171602400Y-135051800D03*
D33*
X184481889Y-124098362D03*
X169926000Y-113207800D03*
X184454800Y-122605800D03*
X166395400Y-126898400D03*
D35*
X186613800Y-102311200D03*
X168198800Y-137998200D03*
D36*
X176504600Y-150545800D03*
D33*
X166420800Y-119303800D03*
X172161200Y-138480800D03*
D36*
%TO.N,/CANable2.0/GND_CAN*%
X231571800Y-143103600D03*
D33*
X233553000Y-122326400D03*
D36*
X241274600Y-141351000D03*
X237540800Y-143281400D03*
D33*
X230784400Y-122351800D03*
D34*
X237363000Y-100177600D03*
D33*
X231731474Y-118961381D03*
D36*
X228422200Y-117297200D03*
X235178600Y-141960600D03*
D33*
X236016800Y-104597200D03*
X237540800Y-104597200D03*
X234492800Y-104597200D03*
X233755495Y-107885880D03*
X236956600Y-115519200D03*
D36*
X237159800Y-137744200D03*
D33*
X236031921Y-110361811D03*
D34*
X228930200Y-103555800D03*
D33*
X238252000Y-120472200D03*
D34*
X230657400Y-101650800D03*
D33*
X224993200Y-113030000D03*
%TO.N,/CANable2.0/3V3*%
X235127800Y-110363000D03*
D36*
X228295200Y-123977400D03*
D34*
X222046800Y-99771200D03*
D33*
X230779000Y-118821200D03*
X224993200Y-111531400D03*
D34*
X230682800Y-99720400D03*
X236474000Y-152146000D03*
D33*
X238252000Y-116967000D03*
X229920800Y-116713000D03*
X236829600Y-110388400D03*
D34*
X242773200Y-150545800D03*
%TO.N,/15V 3A Buck-Boost Power Supply/+V_OUT*%
X192049400Y-104063800D03*
X192100200Y-100558600D03*
X192074800Y-107746800D03*
X192684400Y-98475800D03*
D36*
X180232607Y-123173235D03*
D34*
X192705736Y-95885000D03*
D36*
X171632372Y-115417600D03*
D34*
X192074800Y-111125000D03*
%TO.N,/CANable2.0/3V3_USB*%
X235813600Y-99085400D03*
%TO.N,/CANable2.0/USB_DM*%
X237388400Y-97180400D03*
%TO.N,/CANable2.0/USB_DP*%
X239926504Y-96801296D03*
D33*
%TO.N,/3V3_BTN*%
X211023200Y-124079000D03*
D34*
%TO.N,/UART2_RXD*%
X205054200Y-87426800D03*
D36*
%TO.N,GND_USB*%
X203022200Y-139420600D03*
X202996800Y-142494000D03*
D34*
X199644000Y-149225000D03*
D33*
X207086200Y-129057400D03*
D34*
X198120000Y-149225000D03*
D35*
X193776600Y-149809200D03*
X191947800Y-147929600D03*
D36*
X199517000Y-140970000D03*
X217652600Y-135661400D03*
X199288400Y-136144000D03*
D35*
X195656200Y-151866600D03*
X205892400Y-151815800D03*
D36*
X206959200Y-140208000D03*
D35*
X203962000Y-146126200D03*
D36*
X213969600Y-137591800D03*
D35*
X191897000Y-151815800D03*
X205841600Y-147955000D03*
X193751200Y-146151600D03*
D36*
X207035400Y-135001000D03*
D35*
X204038200Y-149885400D03*
X202158600Y-151841200D03*
D36*
X203022200Y-132308600D03*
X207010000Y-137947400D03*
%TO.N,Net-(C42-Pad1)*%
X199212200Y-134086600D03*
X201295000Y-145948400D03*
X196494400Y-146202400D03*
%TO.N,Net-(J11-CC1)*%
X199491600Y-139420600D03*
%TO.N,Net-(U6-USBD+)*%
X199694800Y-145618200D03*
%TO.N,Net-(U6-USBD-)*%
X198501000Y-145567400D03*
%TO.N,Net-(J11-CC2)*%
X199491600Y-142494000D03*
D33*
%TO.N,/15V 3A Buck-Boost Power Supply/SW1*%
X184740997Y-129421800D03*
D35*
X197739000Y-129413000D03*
X197739000Y-124079000D03*
D33*
X178409600Y-126466600D03*
X195503800Y-131013200D03*
D36*
%TO.N,/15V 3A Buck-Boost Power Supply/SW2*%
X195478400Y-116636800D03*
X180784210Y-117412224D03*
D35*
X197739000Y-115189000D03*
X197739000Y-120396000D03*
D34*
%TO.N,Net-(D4-K)*%
X232206800Y-150520400D03*
D36*
%TO.N,Net-(D2-A)*%
X166344600Y-132232400D03*
D34*
%TO.N,Net-(D5-K)*%
X238633000Y-152146000D03*
D36*
%TO.N,/CANable2.0/5V_CAN*%
X235229400Y-140690600D03*
X231622600Y-139547600D03*
X224688400Y-105638600D03*
D33*
%TO.N,Net-(D6-K)*%
X181042046Y-119579637D03*
X184327800Y-116509800D03*
D36*
%TO.N,/15V 3A Buck-Boost Power Supply/Vcc*%
X184277000Y-127177800D03*
D33*
X184226200Y-119532400D03*
D36*
X180120036Y-121873236D03*
%TO.N,Net-(U6-VCC)*%
X207234249Y-138948291D03*
X214045800Y-135658000D03*
%TO.N,3V3_USB*%
X203489800Y-140858000D03*
X205359000Y-132384800D03*
D33*
X210921600Y-132105400D03*
D36*
%TO.N,/CANable2.0/3V3_CAN*%
X240385600Y-139446000D03*
X226466400Y-127177800D03*
D33*
%TO.N,/15V 3A Buck-Boost Power Supply/HDRV1*%
X184487434Y-130233034D03*
X195503800Y-132257800D03*
%TO.N,/15V 3A Buck-Boost Power Supply/RCS*%
X186052132Y-115801468D03*
X185253768Y-124454167D03*
%TO.N,/15V 3A Buck-Boost Power Supply/LDRV1*%
X184454800Y-125679200D03*
X189108026Y-123621899D03*
%TO.N,/CANable2.0/WORD_LED*%
X231190800Y-112522000D03*
X228574600Y-110007400D03*
%TD*%
%TO.N,/VIN_PS*%
D37*
X176023800Y-132818400D02*
X175996600Y-132791200D01*
X176023800Y-135043368D02*
X176023800Y-132818400D01*
%TO.N,GND*%
X188054600Y-102277000D02*
X186648000Y-102277000D01*
D38*
X184750800Y-113453000D02*
X187274200Y-115976400D01*
D37*
X186698800Y-105833000D02*
X186639200Y-105892600D01*
X188054600Y-135043000D02*
X186673400Y-135043000D01*
X186648000Y-138599000D02*
X186639200Y-138607800D01*
X171610832Y-135043368D02*
X171602400Y-135051800D01*
X173073800Y-135043368D02*
X171610832Y-135043368D01*
X196084600Y-105833000D02*
X197341400Y-105833000D01*
X168198800Y-135664200D02*
X168173400Y-135638800D01*
X196084600Y-138599000D02*
X197468400Y-138599000D01*
X196084600Y-135043000D02*
X197501600Y-135043000D01*
X197341400Y-105833000D02*
X197383400Y-105791000D01*
X186648000Y-102277000D02*
X186613800Y-102311200D01*
D38*
X187274200Y-115976400D02*
X187274200Y-120700800D01*
D37*
X196084600Y-109389000D02*
X197366800Y-109389000D01*
X188054600Y-109389000D02*
X186648000Y-109389000D01*
X188054600Y-138599000D02*
X186648000Y-138599000D01*
X197366800Y-109389000D02*
X197408800Y-109347000D01*
X186673400Y-135043000D02*
X186639200Y-135077200D01*
X188054600Y-105833000D02*
X186698800Y-105833000D01*
X168198800Y-137998200D02*
X168198800Y-135664200D01*
D38*
X187274200Y-120700800D02*
X187299600Y-120726200D01*
X176514760Y-150535640D02*
X176504600Y-150545800D01*
D37*
X197468400Y-138599000D02*
X197485000Y-138582400D01*
X197501600Y-135043000D02*
X197510400Y-135051800D01*
D38*
X177720800Y-150535640D02*
X176514760Y-150535640D01*
D37*
X186648000Y-109389000D02*
X186588400Y-109448600D01*
%TO.N,/CANable2.0/GND_CAN*%
X238550300Y-100161400D02*
X237379200Y-100161400D01*
X237379200Y-100161400D02*
X237363000Y-100177600D01*
%TO.N,/CANable2.0/3V3*%
D38*
X242763040Y-150535640D02*
X242773200Y-150545800D01*
X236474000Y-152146000D02*
X236400800Y-152072800D01*
X236400800Y-152072800D02*
X236400800Y-150535640D01*
X241480800Y-150535640D02*
X242763040Y-150535640D01*
%TO.N,/15V 3A Buck-Boost Power Supply/+V_OUT*%
D37*
X191004600Y-106676600D02*
X192074800Y-107746800D01*
D38*
X177673000Y-115417600D02*
X171632372Y-115417600D01*
D37*
X191004600Y-105833000D02*
X191004600Y-106676600D01*
D38*
X179374800Y-117119400D02*
X177673000Y-115417600D01*
X179374800Y-122315428D02*
X179374800Y-117119400D01*
X180232607Y-123173235D02*
X179374800Y-122315428D01*
%TO.N,/V_IN*%
D37*
X164235000Y-143257400D02*
X164235000Y-146296000D01*
X165153600Y-142338800D02*
X164235000Y-143257400D01*
X168173400Y-142338800D02*
X165153600Y-142338800D01*
%TO.N,/NX_PC_LED-*%
D38*
X182800800Y-150535640D02*
X181904640Y-150535640D01*
X164414200Y-107946722D02*
X164414200Y-107797600D01*
X164392864Y-130004542D02*
X164392864Y-107968058D01*
X188569600Y-89133446D02*
X192963122Y-84739924D01*
X181904640Y-150535640D02*
X181686200Y-150317200D01*
X188569600Y-95300800D02*
X188569600Y-89133446D01*
X181686200Y-150317200D02*
X181686200Y-134521678D01*
X164414200Y-107797600D02*
X170942000Y-101269800D01*
X178554658Y-131390136D02*
X165778458Y-131390136D01*
X164392864Y-107968058D02*
X164414200Y-107946722D01*
X182600600Y-101269800D02*
X188569600Y-95300800D01*
X170942000Y-101269800D02*
X182600600Y-101269800D01*
X181686200Y-134521678D02*
X178554658Y-131390136D01*
X165778458Y-131390136D02*
X164392864Y-130004542D01*
%TO.N,/NX_PC_LED+*%
X192248536Y-86487000D02*
X189200536Y-89535000D01*
X193756046Y-86487000D02*
X192248536Y-86487000D01*
X189200536Y-89535000D02*
X189200536Y-95562142D01*
X178816000Y-130759200D02*
X182317136Y-134260336D01*
X189200536Y-95562142D02*
X182730878Y-102031800D01*
X171221400Y-102031800D02*
X165023800Y-108229400D01*
X165023800Y-129743200D02*
X166039800Y-130759200D01*
X165023800Y-108229400D02*
X165023800Y-129743200D01*
X195503122Y-84739924D02*
X193756046Y-86487000D01*
X182317136Y-134260336D02*
X182317136Y-141753336D01*
X166039800Y-130759200D02*
X178816000Y-130759200D01*
X187198000Y-149936200D02*
X186598560Y-150535640D01*
X187198000Y-146634200D02*
X187198000Y-149936200D01*
X182317136Y-141753336D02*
X187198000Y-146634200D01*
X186598560Y-150535640D02*
X185600800Y-150535640D01*
X182730878Y-102031800D02*
X171221400Y-102031800D01*
%TO.N,/CANable2.0/3V3_USB*%
D37*
X235813600Y-99085400D02*
X236237600Y-98661400D01*
X236237600Y-98661400D02*
X238550300Y-98661400D01*
%TO.N,/CANable2.0/USB_DM*%
D39*
X238531300Y-97180400D02*
X238550300Y-97161400D01*
X237388400Y-97180400D02*
X238531300Y-97180400D01*
%TO.N,/CANable2.0/USB_DP*%
X239476200Y-95661400D02*
X238550300Y-95661400D01*
X239926504Y-96111704D02*
X239476200Y-95661400D01*
X239926504Y-96801296D02*
X239926504Y-96111704D01*
%TO.N,/UART2_RXD*%
D38*
X205054200Y-87426800D02*
X200729998Y-87426800D01*
X200729998Y-87426800D02*
X198043122Y-84739924D01*
%TO.N,GND_USB*%
X194347000Y-147354000D02*
X193772000Y-147929000D01*
D40*
X203992000Y-146156200D02*
X203962000Y-146126200D01*
X193772000Y-151859000D02*
X195648600Y-151859000D01*
X193772000Y-147929000D02*
X193772000Y-146172400D01*
X204038200Y-149885400D02*
X204038200Y-151812800D01*
X203992000Y-147929000D02*
X203992000Y-146156200D01*
X191940200Y-151859000D02*
X191897000Y-151815800D01*
X193772000Y-151859000D02*
X191940200Y-151859000D01*
D38*
X203417000Y-147354000D02*
X203992000Y-147929000D01*
D40*
X193772000Y-147929000D02*
X191948400Y-147929000D01*
X191948400Y-147929000D02*
X191947800Y-147929600D01*
X193772000Y-151859000D02*
X193772000Y-149813800D01*
X203992000Y-151859000D02*
X205849200Y-151859000D01*
X195648600Y-151859000D02*
X195656200Y-151866600D01*
X193772000Y-146172400D02*
X193751200Y-146151600D01*
X193772000Y-149804600D02*
X193776600Y-149809200D01*
X203992000Y-147929000D02*
X203992000Y-149839200D01*
X202176400Y-151859000D02*
X202158600Y-151841200D01*
X203992000Y-149839200D02*
X204038200Y-149885400D01*
X205815600Y-147929000D02*
X205841600Y-147955000D01*
D38*
X202082000Y-147354000D02*
X203417000Y-147354000D01*
D40*
X203992000Y-151859000D02*
X202176400Y-151859000D01*
X205849200Y-151859000D02*
X205892400Y-151815800D01*
X203992000Y-147929000D02*
X205815600Y-147929000D01*
D38*
X195682000Y-147354000D02*
X194347000Y-147354000D01*
D40*
X204038200Y-151812800D02*
X203992000Y-151859000D01*
X193772000Y-147929000D02*
X193772000Y-149804600D01*
X193772000Y-149813800D02*
X193776600Y-149809200D01*
%TO.N,Net-(C42-Pad1)*%
D38*
X196482000Y-146214800D02*
X196494400Y-146202400D01*
X201282000Y-136156400D02*
X199212200Y-134086600D01*
X196482000Y-147354000D02*
X196482000Y-146214800D01*
X201282000Y-147354000D02*
X201282000Y-136156400D01*
%TO.N,Net-(J11-CC1)*%
D39*
X198856600Y-140055600D02*
X199491600Y-139420600D01*
X198856600Y-144119600D02*
X198856600Y-140055600D01*
X197632000Y-145344200D02*
X198856600Y-144119600D01*
X197632000Y-147354000D02*
X197632000Y-145344200D01*
%TO.N,Net-(U6-USBD+)*%
X199632000Y-146304000D02*
X199632000Y-145681000D01*
X199632000Y-145681000D02*
X199694800Y-145618200D01*
X199632000Y-147354000D02*
X199632000Y-146304000D01*
X198632000Y-147354000D02*
X198632000Y-146528600D01*
X198856600Y-146304000D02*
X199632000Y-146304000D01*
X198632000Y-146528600D02*
X198856600Y-146304000D01*
%TO.N,Net-(U6-USBD-)*%
X198132000Y-147354000D02*
X198132000Y-148144800D01*
X198348600Y-148361400D02*
X198958200Y-148361400D01*
X198958200Y-148361400D02*
X199132000Y-148187600D01*
X199132000Y-148187600D02*
X199132000Y-147354000D01*
X198132000Y-148144800D02*
X198348600Y-148361400D01*
X198501000Y-145567400D02*
X198132000Y-145936400D01*
X198132000Y-145936400D02*
X198132000Y-147354000D01*
%TO.N,Net-(J11-CC2)*%
X200632000Y-143634400D02*
X199491600Y-142494000D01*
X200632000Y-147354000D02*
X200632000Y-143634400D01*
%TO.N,/15V 3A Buck-Boost Power Supply/SW1*%
D37*
X197759200Y-126716400D02*
X197759200Y-129392800D01*
X197759200Y-124099200D02*
X197739000Y-124079000D01*
X197759200Y-129392800D02*
X197739000Y-129413000D01*
X197759200Y-126716400D02*
X197759200Y-124099200D01*
%TO.N,/15V 3A Buck-Boost Power Supply/SW2*%
X197759200Y-120375800D02*
X197739000Y-120396000D01*
X197759200Y-117766400D02*
X197759200Y-115209200D01*
X197759200Y-117766400D02*
X197759200Y-120375800D01*
X197759200Y-115209200D02*
X197739000Y-115189000D01*
%TO.N,Net-(D4-K)*%
D38*
X233600800Y-150535640D02*
X232222040Y-150535640D01*
X232222040Y-150535640D02*
X232206800Y-150520400D01*
%TO.N,Net-(D2-A)*%
X169113200Y-132232400D02*
X170561000Y-133680200D01*
X170561000Y-133680200D02*
X170561000Y-136372600D01*
X179120800Y-150291800D02*
X179364640Y-150535640D01*
X179364640Y-150535640D02*
X180520800Y-150535640D01*
X170561000Y-136372600D02*
X171678600Y-137490200D01*
X166344600Y-132232400D02*
X169113200Y-132232400D01*
X175564800Y-137490200D02*
X179120800Y-141046200D01*
X171678600Y-137490200D02*
X175564800Y-137490200D01*
X179120800Y-141046200D02*
X179120800Y-150291800D01*
%TO.N,Net-(D5-K)*%
X238690960Y-152088040D02*
X238690960Y-150545800D01*
X238633000Y-152146000D02*
X238690960Y-152088040D01*
X238690960Y-150545800D02*
X238680800Y-150535640D01*
%TO.N,/CANable2.0/5V_CAN*%
D41*
X223850200Y-106476800D02*
X223850200Y-131775200D01*
X234086400Y-139547600D02*
X235229400Y-140690600D01*
X223850200Y-131775200D02*
X231622600Y-139547600D01*
X224688400Y-105638600D02*
X223850200Y-106476800D01*
X231622600Y-139547600D02*
X234086400Y-139547600D01*
%TO.N,Net-(D6-K)*%
D38*
X180038974Y-117103537D02*
X180038974Y-118576565D01*
X180038974Y-118576565D02*
X181042046Y-119579637D01*
X180632711Y-116509800D02*
X180038974Y-117103537D01*
X184327800Y-116509800D02*
X180632711Y-116509800D01*
%TO.N,Net-(U6-VCC)*%
X207234249Y-138948291D02*
X207243981Y-138948291D01*
X210534272Y-135658000D02*
X214045800Y-135658000D01*
X207243981Y-138948291D02*
X210534272Y-135658000D01*
%TO.N,/CANable2.0/3V3_CAN*%
D41*
X240385600Y-139446000D02*
X228117400Y-127177800D01*
X228117400Y-127177800D02*
X226466400Y-127177800D01*
%TO.N,/15V 3A Buck-Boost Power Supply/HDRV1*%
D38*
X193479034Y-130233034D02*
X195503800Y-132257800D01*
X184487434Y-130233034D02*
X193479034Y-130233034D01*
%TO.N,/15V 3A Buck-Boost Power Supply/RCS*%
X186052132Y-123655803D02*
X186052132Y-115801468D01*
X185253768Y-124454167D02*
X186052132Y-123655803D01*
%TO.N,/15V 3A Buck-Boost Power Supply/LDRV1*%
X189052101Y-123621899D02*
X186994800Y-125679200D01*
X186994800Y-125679200D02*
X184454800Y-125679200D01*
X189108026Y-123621899D02*
X189052101Y-123621899D01*
%TO.N,/CANable2.0/WORD_LED*%
X231190800Y-112522000D02*
X228676200Y-110007400D01*
D39*
X228676200Y-110007400D02*
X228574600Y-110007400D01*
%TD*%
%TA.AperFunction,Conductor*%
%TO.N,/VIN_PS*%
G36*
X193831233Y-132561773D02*
G01*
X193898138Y-132581907D01*
X193943538Y-132635017D01*
X193954400Y-132685770D01*
X193954400Y-140973000D01*
X193934715Y-141040039D01*
X193881911Y-141085794D01*
X193830400Y-141097000D01*
X190293800Y-141097000D01*
X190226761Y-141077315D01*
X190181006Y-141024511D01*
X190169800Y-140973000D01*
X190169800Y-132662034D01*
X190189485Y-132594995D01*
X190242289Y-132549240D01*
X190294628Y-132538037D01*
X193831233Y-132561773D01*
G37*
%TD.AperFunction*%
%TD*%
%TA.AperFunction,Conductor*%
%TO.N,/15V 3A Buck-Boost Power Supply/+V_OUT*%
G36*
X194507039Y-95269685D02*
G01*
X194552794Y-95322489D01*
X194564000Y-95374000D01*
X194564000Y-112398000D01*
X194544315Y-112465039D01*
X194491511Y-112510794D01*
X194440000Y-112522000D01*
X189608000Y-112522000D01*
X189540961Y-112502315D01*
X189495206Y-112449511D01*
X189484000Y-112398000D01*
X189484000Y-100200000D01*
X189503685Y-100132961D01*
X189556489Y-100087206D01*
X189608000Y-100076000D01*
X191262000Y-100076000D01*
X192024000Y-99568000D01*
X192024000Y-95374000D01*
X192043685Y-95306961D01*
X192096489Y-95261206D01*
X192148000Y-95250000D01*
X194440000Y-95250000D01*
X194507039Y-95269685D01*
G37*
%TD.AperFunction*%
%TD*%
%TA.AperFunction,Conductor*%
%TO.N,/NX-Button Interface/GND_BTN*%
G36*
X274070639Y-89681685D02*
G01*
X274116394Y-89734489D01*
X274127600Y-89786000D01*
X274127600Y-130432000D01*
X274107915Y-130499039D01*
X274055111Y-130544794D01*
X274003600Y-130556000D01*
X260535600Y-130556000D01*
X260468561Y-130536315D01*
X260422806Y-130483511D01*
X260411600Y-130432000D01*
X260411600Y-128615188D01*
X261141244Y-128615188D01*
X261141244Y-128788411D01*
X261168339Y-128959486D01*
X261221867Y-129124225D01*
X261300505Y-129278557D01*
X261402308Y-129418680D01*
X261524799Y-129541171D01*
X261655921Y-129636434D01*
X261664926Y-129642977D01*
X261763264Y-129693082D01*
X261819254Y-129721612D01*
X261819256Y-129721612D01*
X261819259Y-129721614D01*
X261907559Y-129750304D01*
X261983993Y-129775140D01*
X262155069Y-129802236D01*
X262155074Y-129802236D01*
X262328291Y-129802236D01*
X262499366Y-129775140D01*
X262664101Y-129721614D01*
X262818434Y-129642977D01*
X262897110Y-129585815D01*
X262958560Y-129541171D01*
X262958562Y-129541168D01*
X262958566Y-129541166D01*
X263081046Y-129418686D01*
X263081048Y-129418682D01*
X263081051Y-129418680D01*
X263125695Y-129357230D01*
X263182857Y-129278554D01*
X263261494Y-129124221D01*
X263315020Y-128959486D01*
X263342116Y-128788411D01*
X263342116Y-128615188D01*
X270741244Y-128615188D01*
X270741244Y-128788411D01*
X270768339Y-128959486D01*
X270821867Y-129124225D01*
X270900505Y-129278557D01*
X271002308Y-129418680D01*
X271124799Y-129541171D01*
X271255921Y-129636434D01*
X271264926Y-129642977D01*
X271363264Y-129693082D01*
X271419254Y-129721612D01*
X271419256Y-129721612D01*
X271419259Y-129721614D01*
X271507559Y-129750304D01*
X271583993Y-129775140D01*
X271755069Y-129802236D01*
X271755074Y-129802236D01*
X271928291Y-129802236D01*
X272099366Y-129775140D01*
X272264101Y-129721614D01*
X272418434Y-129642977D01*
X272497110Y-129585815D01*
X272558560Y-129541171D01*
X272558562Y-129541168D01*
X272558566Y-129541166D01*
X272681046Y-129418686D01*
X272681048Y-129418682D01*
X272681051Y-129418680D01*
X272725695Y-129357230D01*
X272782857Y-129278554D01*
X272861494Y-129124221D01*
X272915020Y-128959486D01*
X272942116Y-128788411D01*
X272942116Y-128615188D01*
X272915020Y-128444113D01*
X272861492Y-128279374D01*
X272832962Y-128223384D01*
X272782857Y-128125046D01*
X272776314Y-128116041D01*
X272681051Y-127984919D01*
X272558560Y-127862428D01*
X272418437Y-127760625D01*
X272418436Y-127760624D01*
X272418434Y-127760623D01*
X272370240Y-127736066D01*
X272264105Y-127681987D01*
X272099366Y-127628459D01*
X271928291Y-127601364D01*
X271928286Y-127601364D01*
X271755074Y-127601364D01*
X271755069Y-127601364D01*
X271583993Y-127628459D01*
X271419254Y-127681987D01*
X271264922Y-127760625D01*
X271124799Y-127862428D01*
X271002308Y-127984919D01*
X270900505Y-128125042D01*
X270821867Y-128279374D01*
X270768339Y-128444113D01*
X270741244Y-128615188D01*
X263342116Y-128615188D01*
X263315020Y-128444113D01*
X263261492Y-128279374D01*
X263232962Y-128223384D01*
X263182857Y-128125046D01*
X263176314Y-128116041D01*
X263081051Y-127984919D01*
X262958560Y-127862428D01*
X262818437Y-127760625D01*
X262818436Y-127760624D01*
X262818434Y-127760623D01*
X262770240Y-127736066D01*
X262664105Y-127681987D01*
X262499366Y-127628459D01*
X262328291Y-127601364D01*
X262328286Y-127601364D01*
X262155074Y-127601364D01*
X262155069Y-127601364D01*
X261983993Y-127628459D01*
X261819254Y-127681987D01*
X261664922Y-127760625D01*
X261524799Y-127862428D01*
X261402308Y-127984919D01*
X261300505Y-128125042D01*
X261221867Y-128279374D01*
X261168339Y-128444113D01*
X261141244Y-128615188D01*
X260411600Y-128615188D01*
X260411600Y-126075188D01*
X261141244Y-126075188D01*
X261141244Y-126248411D01*
X261168339Y-126419486D01*
X261221867Y-126584225D01*
X261300505Y-126738557D01*
X261402308Y-126878680D01*
X261524799Y-127001171D01*
X261655921Y-127096434D01*
X261664926Y-127102977D01*
X261763264Y-127153082D01*
X261819254Y-127181612D01*
X261819256Y-127181612D01*
X261819259Y-127181614D01*
X261907559Y-127210304D01*
X261983993Y-127235140D01*
X262155069Y-127262236D01*
X262155074Y-127262236D01*
X262328291Y-127262236D01*
X262499366Y-127235140D01*
X262664101Y-127181614D01*
X262818434Y-127102977D01*
X262897110Y-127045815D01*
X262958560Y-127001171D01*
X262958562Y-127001168D01*
X262958566Y-127001166D01*
X263081046Y-126878686D01*
X263081048Y-126878682D01*
X263081051Y-126878680D01*
X263125695Y-126817230D01*
X263182857Y-126738554D01*
X263261494Y-126584221D01*
X263315020Y-126419486D01*
X263342116Y-126248411D01*
X263342116Y-126075188D01*
X270741244Y-126075188D01*
X270741244Y-126248411D01*
X270768339Y-126419486D01*
X270821867Y-126584225D01*
X270900505Y-126738557D01*
X271002308Y-126878680D01*
X271124799Y-127001171D01*
X271255921Y-127096434D01*
X271264926Y-127102977D01*
X271363264Y-127153082D01*
X271419254Y-127181612D01*
X271419256Y-127181612D01*
X271419259Y-127181614D01*
X271507559Y-127210304D01*
X271583993Y-127235140D01*
X271755069Y-127262236D01*
X271755074Y-127262236D01*
X271928291Y-127262236D01*
X272099366Y-127235140D01*
X272264101Y-127181614D01*
X272418434Y-127102977D01*
X272497110Y-127045815D01*
X272558560Y-127001171D01*
X272558562Y-127001168D01*
X272558566Y-127001166D01*
X272681046Y-126878686D01*
X272681048Y-126878682D01*
X272681051Y-126878680D01*
X272725695Y-126817230D01*
X272782857Y-126738554D01*
X272861494Y-126584221D01*
X272915020Y-126419486D01*
X272942116Y-126248411D01*
X272942116Y-126075188D01*
X272915020Y-125904113D01*
X272861492Y-125739374D01*
X272832962Y-125683384D01*
X272782857Y-125585046D01*
X272776314Y-125576041D01*
X272681051Y-125444919D01*
X272558560Y-125322428D01*
X272418437Y-125220625D01*
X272418436Y-125220624D01*
X272418434Y-125220623D01*
X272370240Y-125196066D01*
X272264105Y-125141987D01*
X272099366Y-125088459D01*
X271928291Y-125061364D01*
X271928286Y-125061364D01*
X271755074Y-125061364D01*
X271755069Y-125061364D01*
X271583993Y-125088459D01*
X271419254Y-125141987D01*
X271264922Y-125220625D01*
X271124799Y-125322428D01*
X271002308Y-125444919D01*
X270900505Y-125585042D01*
X270821867Y-125739374D01*
X270768339Y-125904113D01*
X270741244Y-126075188D01*
X263342116Y-126075188D01*
X263315020Y-125904113D01*
X263261492Y-125739374D01*
X263232962Y-125683384D01*
X263182857Y-125585046D01*
X263176314Y-125576041D01*
X263081051Y-125444919D01*
X262958560Y-125322428D01*
X262818437Y-125220625D01*
X262818436Y-125220624D01*
X262818434Y-125220623D01*
X262770240Y-125196066D01*
X262664105Y-125141987D01*
X262499366Y-125088459D01*
X262328291Y-125061364D01*
X262328286Y-125061364D01*
X262155074Y-125061364D01*
X262155069Y-125061364D01*
X261983993Y-125088459D01*
X261819254Y-125141987D01*
X261664922Y-125220625D01*
X261524799Y-125322428D01*
X261402308Y-125444919D01*
X261300505Y-125585042D01*
X261221867Y-125739374D01*
X261168339Y-125904113D01*
X261141244Y-126075188D01*
X260411600Y-126075188D01*
X260411600Y-115904918D01*
X261010680Y-115904918D01*
X261010680Y-116098681D01*
X261040991Y-116290060D01*
X261100869Y-116474344D01*
X261188833Y-116646980D01*
X261211603Y-116678321D01*
X261758717Y-116131208D01*
X261775755Y-116194793D01*
X261841581Y-116308807D01*
X261934673Y-116401899D01*
X262048687Y-116467725D01*
X262112270Y-116484762D01*
X261565156Y-117031875D01*
X261565157Y-117031876D01*
X261596492Y-117054642D01*
X261769135Y-117142610D01*
X261953419Y-117202487D01*
X262035081Y-117215422D01*
X262098216Y-117245351D01*
X262135147Y-117304663D01*
X262134149Y-117374525D01*
X262095539Y-117432758D01*
X262035082Y-117460368D01*
X261983992Y-117468460D01*
X261819254Y-117521987D01*
X261664922Y-117600625D01*
X261524799Y-117702428D01*
X261402308Y-117824919D01*
X261300505Y-117965042D01*
X261221867Y-118119374D01*
X261168339Y-118284113D01*
X261141244Y-118455188D01*
X261141244Y-118628411D01*
X261168339Y-118799486D01*
X261221867Y-118964225D01*
X261300505Y-119118557D01*
X261402308Y-119258680D01*
X261524799Y-119381171D01*
X261655921Y-119476434D01*
X261664926Y-119482977D01*
X261763264Y-119533082D01*
X261819254Y-119561612D01*
X261819256Y-119561612D01*
X261819259Y-119561614D01*
X261914414Y-119592532D01*
X261983987Y-119615138D01*
X261983988Y-119615138D01*
X261983994Y-119615140D01*
X262035083Y-119623231D01*
X262098215Y-119653159D01*
X262135147Y-119712471D01*
X262134149Y-119782333D01*
X262095540Y-119840566D01*
X262035082Y-119868177D01*
X261953418Y-119881112D01*
X261769130Y-119940991D01*
X261596498Y-120028953D01*
X261565157Y-120051722D01*
X261565157Y-120051723D01*
X262112271Y-120598837D01*
X262048687Y-120615875D01*
X261934673Y-120681701D01*
X261841581Y-120774793D01*
X261775755Y-120888807D01*
X261758717Y-120952391D01*
X261211603Y-120405277D01*
X261211602Y-120405277D01*
X261188833Y-120436618D01*
X261100871Y-120609250D01*
X261040991Y-120793539D01*
X261010680Y-120984918D01*
X261010680Y-121178681D01*
X261040991Y-121370060D01*
X261100869Y-121554344D01*
X261188833Y-121726980D01*
X261211603Y-121758321D01*
X261758717Y-121211208D01*
X261775755Y-121274793D01*
X261841581Y-121388807D01*
X261934673Y-121481899D01*
X262048687Y-121547725D01*
X262112270Y-121564762D01*
X261565156Y-122111875D01*
X261565157Y-122111876D01*
X261596492Y-122134642D01*
X261769135Y-122222610D01*
X261953419Y-122282487D01*
X262035081Y-122295422D01*
X262098216Y-122325351D01*
X262135147Y-122384663D01*
X262134149Y-122454525D01*
X262095539Y-122512758D01*
X262035082Y-122540368D01*
X261983992Y-122548460D01*
X261819254Y-122601987D01*
X261664922Y-122680625D01*
X261524799Y-122782428D01*
X261402308Y-122904919D01*
X261300505Y-123045042D01*
X261221867Y-123199374D01*
X261168339Y-123364113D01*
X261141244Y-123535188D01*
X261141244Y-123708411D01*
X261168339Y-123879486D01*
X261221867Y-124044225D01*
X261300505Y-124198557D01*
X261402308Y-124338680D01*
X261524799Y-124461171D01*
X261655921Y-124556434D01*
X261664926Y-124562977D01*
X261763264Y-124613082D01*
X261819254Y-124641612D01*
X261819256Y-124641612D01*
X261819259Y-124641614D01*
X261907559Y-124670304D01*
X261983993Y-124695140D01*
X262155069Y-124722236D01*
X262155074Y-124722236D01*
X262328291Y-124722236D01*
X262499366Y-124695140D01*
X262664101Y-124641614D01*
X262818434Y-124562977D01*
X262897110Y-124505815D01*
X262958560Y-124461171D01*
X262958562Y-124461168D01*
X262958566Y-124461166D01*
X263081046Y-124338686D01*
X263081048Y-124338682D01*
X263081051Y-124338680D01*
X263125695Y-124277230D01*
X263182857Y-124198554D01*
X263261494Y-124044221D01*
X263315020Y-123879486D01*
X263342116Y-123708411D01*
X263342116Y-123535188D01*
X263315020Y-123364113D01*
X263261492Y-123199374D01*
X263232962Y-123143384D01*
X263182857Y-123045046D01*
X263176314Y-123036041D01*
X263081051Y-122904919D01*
X262958560Y-122782428D01*
X262818437Y-122680625D01*
X262818436Y-122680624D01*
X262818434Y-122680623D01*
X262770240Y-122656066D01*
X262664105Y-122601987D01*
X262499367Y-122548460D01*
X262448277Y-122540368D01*
X262385143Y-122510438D01*
X262348212Y-122451127D01*
X262349210Y-122381264D01*
X262387820Y-122323032D01*
X262448278Y-122295422D01*
X262529940Y-122282487D01*
X262714224Y-122222610D01*
X262886864Y-122134644D01*
X262918201Y-122111875D01*
X262918202Y-122111874D01*
X262371090Y-121564762D01*
X262434673Y-121547725D01*
X262548687Y-121481899D01*
X262641779Y-121388807D01*
X262707605Y-121274793D01*
X262724642Y-121211209D01*
X263271754Y-121758322D01*
X263271755Y-121758321D01*
X263294524Y-121726984D01*
X263382490Y-121554344D01*
X263442368Y-121370060D01*
X263472680Y-121178681D01*
X263472680Y-120984918D01*
X263442368Y-120793539D01*
X263382490Y-120609255D01*
X263294522Y-120436612D01*
X263271756Y-120405277D01*
X263271755Y-120405276D01*
X262724642Y-120952389D01*
X262707605Y-120888807D01*
X262641779Y-120774793D01*
X262548687Y-120681701D01*
X262434673Y-120615875D01*
X262371089Y-120598837D01*
X262918201Y-120051723D01*
X262886860Y-120028953D01*
X262714224Y-119940989D01*
X262529941Y-119881112D01*
X262448277Y-119868177D01*
X262385142Y-119838247D01*
X262348212Y-119778935D01*
X262349210Y-119709073D01*
X262387821Y-119650840D01*
X262448276Y-119623231D01*
X262499366Y-119615140D01*
X262664101Y-119561614D01*
X262818434Y-119482977D01*
X262897110Y-119425815D01*
X262958560Y-119381171D01*
X262958562Y-119381168D01*
X262958566Y-119381166D01*
X263081046Y-119258686D01*
X263081048Y-119258682D01*
X263081051Y-119258680D01*
X263125695Y-119197230D01*
X263182857Y-119118554D01*
X263261494Y-118964221D01*
X263315020Y-118799486D01*
X263342116Y-118628411D01*
X263342116Y-118455188D01*
X263315020Y-118284113D01*
X263261492Y-118119374D01*
X263232962Y-118063384D01*
X263182857Y-117965046D01*
X263176314Y-117956041D01*
X263081051Y-117824919D01*
X262958560Y-117702428D01*
X262818437Y-117600625D01*
X262818436Y-117600624D01*
X262818434Y-117600623D01*
X262770240Y-117576066D01*
X262664105Y-117521987D01*
X262499367Y-117468460D01*
X262448277Y-117460368D01*
X262385143Y-117430438D01*
X262348212Y-117371127D01*
X262349210Y-117301264D01*
X262387820Y-117243032D01*
X262448278Y-117215422D01*
X262529940Y-117202487D01*
X262714224Y-117142610D01*
X262886864Y-117054644D01*
X262918201Y-117031875D01*
X262918202Y-117031874D01*
X262371090Y-116484762D01*
X262434673Y-116467725D01*
X262548687Y-116401899D01*
X262641779Y-116308807D01*
X262707605Y-116194793D01*
X262724642Y-116131209D01*
X263271754Y-116678322D01*
X263271755Y-116678321D01*
X263294524Y-116646984D01*
X263382490Y-116474344D01*
X263442368Y-116290060D01*
X263472680Y-116098681D01*
X263472680Y-115904918D01*
X270610680Y-115904918D01*
X270610680Y-116098681D01*
X270640991Y-116290060D01*
X270700869Y-116474344D01*
X270788833Y-116646980D01*
X270811603Y-116678321D01*
X271358717Y-116131208D01*
X271375755Y-116194793D01*
X271441581Y-116308807D01*
X271534673Y-116401899D01*
X271648687Y-116467725D01*
X271712270Y-116484762D01*
X271165156Y-117031875D01*
X271165157Y-117031876D01*
X271196492Y-117054642D01*
X271369135Y-117142610D01*
X271553419Y-117202487D01*
X271635081Y-117215422D01*
X271698216Y-117245351D01*
X271735147Y-117304663D01*
X271734149Y-117374525D01*
X271695539Y-117432758D01*
X271635082Y-117460368D01*
X271583992Y-117468460D01*
X271419254Y-117521987D01*
X271264922Y-117600625D01*
X271124799Y-117702428D01*
X271002308Y-117824919D01*
X270900505Y-117965042D01*
X270821867Y-118119374D01*
X270768339Y-118284113D01*
X270741244Y-118455188D01*
X270741244Y-118628411D01*
X270768339Y-118799486D01*
X270821867Y-118964225D01*
X270900505Y-119118557D01*
X271002308Y-119258680D01*
X271124799Y-119381171D01*
X271255921Y-119476434D01*
X271264926Y-119482977D01*
X271363264Y-119533082D01*
X271419254Y-119561612D01*
X271419256Y-119561612D01*
X271419259Y-119561614D01*
X271514414Y-119592532D01*
X271583987Y-119615138D01*
X271583988Y-119615138D01*
X271583994Y-119615140D01*
X271635083Y-119623231D01*
X271698215Y-119653159D01*
X271735147Y-119712471D01*
X271734149Y-119782333D01*
X271695540Y-119840566D01*
X271635082Y-119868177D01*
X271553418Y-119881112D01*
X271369130Y-119940991D01*
X271196498Y-120028953D01*
X271165157Y-120051722D01*
X271165157Y-120051723D01*
X271712271Y-120598837D01*
X271648687Y-120615875D01*
X271534673Y-120681701D01*
X271441581Y-120774793D01*
X271375755Y-120888807D01*
X271358717Y-120952391D01*
X270811603Y-120405277D01*
X270811602Y-120405277D01*
X270788833Y-120436618D01*
X270700871Y-120609250D01*
X270640991Y-120793539D01*
X270610680Y-120984918D01*
X270610680Y-121178681D01*
X270640991Y-121370060D01*
X270700869Y-121554344D01*
X270788833Y-121726980D01*
X270811603Y-121758321D01*
X271358717Y-121211208D01*
X271375755Y-121274793D01*
X271441581Y-121388807D01*
X271534673Y-121481899D01*
X271648687Y-121547725D01*
X271712270Y-121564762D01*
X271165156Y-122111875D01*
X271165157Y-122111876D01*
X271196492Y-122134642D01*
X271369135Y-122222610D01*
X271553419Y-122282487D01*
X271635081Y-122295422D01*
X271698216Y-122325351D01*
X271735147Y-122384663D01*
X271734149Y-122454525D01*
X271695539Y-122512758D01*
X271635082Y-122540368D01*
X271583992Y-122548460D01*
X271419254Y-122601987D01*
X271264922Y-122680625D01*
X271124799Y-122782428D01*
X271002308Y-122904919D01*
X270900505Y-123045042D01*
X270821867Y-123199374D01*
X270768339Y-123364113D01*
X270741244Y-123535188D01*
X270741244Y-123708411D01*
X270768339Y-123879486D01*
X270821867Y-124044225D01*
X270900505Y-124198557D01*
X271002308Y-124338680D01*
X271124799Y-124461171D01*
X271255921Y-124556434D01*
X271264926Y-124562977D01*
X271363264Y-124613082D01*
X271419254Y-124641612D01*
X271419256Y-124641612D01*
X271419259Y-124641614D01*
X271507559Y-124670304D01*
X271583993Y-124695140D01*
X271755069Y-124722236D01*
X271755074Y-124722236D01*
X271928291Y-124722236D01*
X272099366Y-124695140D01*
X272264101Y-124641614D01*
X272418434Y-124562977D01*
X272497110Y-124505815D01*
X272558560Y-124461171D01*
X272558562Y-124461168D01*
X272558566Y-124461166D01*
X272681046Y-124338686D01*
X272681048Y-124338682D01*
X272681051Y-124338680D01*
X272725695Y-124277230D01*
X272782857Y-124198554D01*
X272861494Y-124044221D01*
X272915020Y-123879486D01*
X272942116Y-123708411D01*
X272942116Y-123535188D01*
X272915020Y-123364113D01*
X272861492Y-123199374D01*
X272832962Y-123143384D01*
X272782857Y-123045046D01*
X272776314Y-123036041D01*
X272681051Y-122904919D01*
X272558560Y-122782428D01*
X272418437Y-122680625D01*
X272418436Y-122680624D01*
X272418434Y-122680623D01*
X272370240Y-122656066D01*
X272264105Y-122601987D01*
X272099367Y-122548460D01*
X272048277Y-122540368D01*
X271985143Y-122510438D01*
X271948212Y-122451127D01*
X271949210Y-122381264D01*
X271987820Y-122323032D01*
X272048278Y-122295422D01*
X272129940Y-122282487D01*
X272314224Y-122222610D01*
X272486864Y-122134644D01*
X272518201Y-122111875D01*
X272518202Y-122111874D01*
X271971090Y-121564762D01*
X272034673Y-121547725D01*
X272148687Y-121481899D01*
X272241779Y-121388807D01*
X272307605Y-121274793D01*
X272324642Y-121211209D01*
X272871754Y-121758322D01*
X272871755Y-121758321D01*
X272894524Y-121726984D01*
X272982490Y-121554344D01*
X273042368Y-121370060D01*
X273072680Y-121178681D01*
X273072680Y-120984918D01*
X273042368Y-120793539D01*
X272982490Y-120609255D01*
X272894522Y-120436612D01*
X272871756Y-120405277D01*
X272871755Y-120405276D01*
X272324642Y-120952389D01*
X272307605Y-120888807D01*
X272241779Y-120774793D01*
X272148687Y-120681701D01*
X272034673Y-120615875D01*
X271971089Y-120598837D01*
X272518201Y-120051723D01*
X272486860Y-120028953D01*
X272314224Y-119940989D01*
X272129941Y-119881112D01*
X272048277Y-119868177D01*
X271985142Y-119838247D01*
X271948212Y-119778935D01*
X271949210Y-119709073D01*
X271987821Y-119650840D01*
X272048276Y-119623231D01*
X272099366Y-119615140D01*
X272264101Y-119561614D01*
X272418434Y-119482977D01*
X272497110Y-119425815D01*
X272558560Y-119381171D01*
X272558562Y-119381168D01*
X272558566Y-119381166D01*
X272681046Y-119258686D01*
X272681048Y-119258682D01*
X272681051Y-119258680D01*
X272725695Y-119197230D01*
X272782857Y-119118554D01*
X272861494Y-118964221D01*
X272915020Y-118799486D01*
X272942116Y-118628411D01*
X272942116Y-118455188D01*
X272915020Y-118284113D01*
X272861492Y-118119374D01*
X272832962Y-118063384D01*
X272782857Y-117965046D01*
X272776314Y-117956041D01*
X272681051Y-117824919D01*
X272558560Y-117702428D01*
X272418437Y-117600625D01*
X272418436Y-117600624D01*
X272418434Y-117600623D01*
X272370240Y-117576066D01*
X272264105Y-117521987D01*
X272099367Y-117468460D01*
X272048277Y-117460368D01*
X271985143Y-117430438D01*
X271948212Y-117371127D01*
X271949210Y-117301264D01*
X271987820Y-117243032D01*
X272048278Y-117215422D01*
X272129940Y-117202487D01*
X272314224Y-117142610D01*
X272486864Y-117054644D01*
X272518201Y-117031875D01*
X272518202Y-117031874D01*
X271971090Y-116484762D01*
X272034673Y-116467725D01*
X272148687Y-116401899D01*
X272241779Y-116308807D01*
X272307605Y-116194793D01*
X272324642Y-116131209D01*
X272871754Y-116678322D01*
X272871755Y-116678321D01*
X272894524Y-116646984D01*
X272982490Y-116474344D01*
X273042368Y-116290060D01*
X273072680Y-116098681D01*
X273072680Y-115904918D01*
X273042368Y-115713539D01*
X272982490Y-115529255D01*
X272894522Y-115356612D01*
X272871756Y-115325277D01*
X272871755Y-115325276D01*
X272324642Y-115872389D01*
X272307605Y-115808807D01*
X272241779Y-115694793D01*
X272148687Y-115601701D01*
X272034673Y-115535875D01*
X271971089Y-115518837D01*
X272518201Y-114971723D01*
X272486860Y-114948953D01*
X272314224Y-114860989D01*
X272129941Y-114801112D01*
X272048277Y-114788177D01*
X271985142Y-114758247D01*
X271948212Y-114698935D01*
X271949210Y-114629073D01*
X271987821Y-114570840D01*
X272048276Y-114543231D01*
X272099366Y-114535140D01*
X272264101Y-114481614D01*
X272418434Y-114402977D01*
X272497110Y-114345815D01*
X272558560Y-114301171D01*
X272558562Y-114301168D01*
X272558566Y-114301166D01*
X272681046Y-114178686D01*
X272681048Y-114178682D01*
X272681051Y-114178680D01*
X272725695Y-114117230D01*
X272782857Y-114038554D01*
X272861494Y-113884221D01*
X272915020Y-113719486D01*
X272942116Y-113548411D01*
X272942116Y-113375188D01*
X272915020Y-113204113D01*
X272861492Y-113039374D01*
X272832962Y-112983384D01*
X272782857Y-112885046D01*
X272776314Y-112876041D01*
X272681051Y-112744919D01*
X272558560Y-112622428D01*
X272418437Y-112520625D01*
X272418436Y-112520624D01*
X272418434Y-112520623D01*
X272370240Y-112496066D01*
X272264105Y-112441987D01*
X272099366Y-112388459D01*
X271928291Y-112361364D01*
X271928286Y-112361364D01*
X271755074Y-112361364D01*
X271755069Y-112361364D01*
X271583993Y-112388459D01*
X271419254Y-112441987D01*
X271264922Y-112520625D01*
X271124799Y-112622428D01*
X271002308Y-112744919D01*
X270900505Y-112885042D01*
X270821867Y-113039374D01*
X270768339Y-113204113D01*
X270741244Y-113375188D01*
X270741244Y-113548411D01*
X270768339Y-113719486D01*
X270821867Y-113884225D01*
X270900505Y-114038557D01*
X271002308Y-114178680D01*
X271124799Y-114301171D01*
X271255921Y-114396434D01*
X271264926Y-114402977D01*
X271363264Y-114453082D01*
X271419254Y-114481612D01*
X271419256Y-114481612D01*
X271419259Y-114481614D01*
X271514414Y-114512532D01*
X271583987Y-114535138D01*
X271583988Y-114535138D01*
X271583994Y-114535140D01*
X271635083Y-114543231D01*
X271698215Y-114573159D01*
X271735147Y-114632471D01*
X271734149Y-114702333D01*
X271695540Y-114760566D01*
X271635082Y-114788177D01*
X271553418Y-114801112D01*
X271369130Y-114860991D01*
X271196498Y-114948953D01*
X271165157Y-114971722D01*
X271165157Y-114971723D01*
X271712271Y-115518837D01*
X271648687Y-115535875D01*
X271534673Y-115601701D01*
X271441581Y-115694793D01*
X271375755Y-115808807D01*
X271358717Y-115872391D01*
X270811603Y-115325277D01*
X270811602Y-115325277D01*
X270788833Y-115356618D01*
X270700871Y-115529250D01*
X270640991Y-115713539D01*
X270610680Y-115904918D01*
X263472680Y-115904918D01*
X263442368Y-115713539D01*
X263382490Y-115529255D01*
X263294522Y-115356612D01*
X263271756Y-115325277D01*
X263271755Y-115325276D01*
X262724642Y-115872389D01*
X262707605Y-115808807D01*
X262641779Y-115694793D01*
X262548687Y-115601701D01*
X262434673Y-115535875D01*
X262371089Y-115518837D01*
X262918201Y-114971723D01*
X262886860Y-114948953D01*
X262714224Y-114860989D01*
X262529941Y-114801112D01*
X262448277Y-114788177D01*
X262385142Y-114758247D01*
X262348212Y-114698935D01*
X262349210Y-114629073D01*
X262387821Y-114570840D01*
X262448276Y-114543231D01*
X262499366Y-114535140D01*
X262664101Y-114481614D01*
X262818434Y-114402977D01*
X262897110Y-114345815D01*
X262958560Y-114301171D01*
X262958562Y-114301168D01*
X262958566Y-114301166D01*
X263081046Y-114178686D01*
X263081048Y-114178682D01*
X263081051Y-114178680D01*
X263125695Y-114117230D01*
X263182857Y-114038554D01*
X263261494Y-113884221D01*
X263315020Y-113719486D01*
X263342116Y-113548411D01*
X263342116Y-113375188D01*
X263315020Y-113204113D01*
X263261492Y-113039374D01*
X263232962Y-112983384D01*
X263182857Y-112885046D01*
X263176314Y-112876041D01*
X263081051Y-112744919D01*
X262958560Y-112622428D01*
X262818437Y-112520625D01*
X262818436Y-112520624D01*
X262818434Y-112520623D01*
X262770240Y-112496066D01*
X262664105Y-112441987D01*
X262499366Y-112388459D01*
X262328291Y-112361364D01*
X262328286Y-112361364D01*
X262155074Y-112361364D01*
X262155069Y-112361364D01*
X261983993Y-112388459D01*
X261819254Y-112441987D01*
X261664922Y-112520625D01*
X261524799Y-112622428D01*
X261402308Y-112744919D01*
X261300505Y-112885042D01*
X261221867Y-113039374D01*
X261168339Y-113204113D01*
X261141244Y-113375188D01*
X261141244Y-113548411D01*
X261168339Y-113719486D01*
X261221867Y-113884225D01*
X261300505Y-114038557D01*
X261402308Y-114178680D01*
X261524799Y-114301171D01*
X261655921Y-114396434D01*
X261664926Y-114402977D01*
X261763264Y-114453082D01*
X261819254Y-114481612D01*
X261819256Y-114481612D01*
X261819259Y-114481614D01*
X261914414Y-114512532D01*
X261983987Y-114535138D01*
X261983988Y-114535138D01*
X261983994Y-114535140D01*
X262035083Y-114543231D01*
X262098215Y-114573159D01*
X262135147Y-114632471D01*
X262134149Y-114702333D01*
X262095540Y-114760566D01*
X262035082Y-114788177D01*
X261953418Y-114801112D01*
X261769130Y-114860991D01*
X261596498Y-114948953D01*
X261565157Y-114971722D01*
X261565157Y-114971723D01*
X262112271Y-115518837D01*
X262048687Y-115535875D01*
X261934673Y-115601701D01*
X261841581Y-115694793D01*
X261775755Y-115808807D01*
X261758717Y-115872391D01*
X261211603Y-115325277D01*
X261211602Y-115325277D01*
X261188833Y-115356618D01*
X261100871Y-115529250D01*
X261040991Y-115713539D01*
X261010680Y-115904918D01*
X260411600Y-115904918D01*
X260411600Y-110835188D01*
X261141244Y-110835188D01*
X261141244Y-111008411D01*
X261168339Y-111179486D01*
X261221867Y-111344225D01*
X261300505Y-111498557D01*
X261402308Y-111638680D01*
X261524799Y-111761171D01*
X261655921Y-111856434D01*
X261664926Y-111862977D01*
X261763264Y-111913082D01*
X261819254Y-111941612D01*
X261819256Y-111941612D01*
X261819259Y-111941614D01*
X261907559Y-111970304D01*
X261983993Y-111995140D01*
X262155069Y-112022236D01*
X262155074Y-112022236D01*
X262328291Y-112022236D01*
X262499366Y-111995140D01*
X262664101Y-111941614D01*
X262818434Y-111862977D01*
X262897110Y-111805815D01*
X262958560Y-111761171D01*
X262958562Y-111761168D01*
X262958566Y-111761166D01*
X263081046Y-111638686D01*
X263081048Y-111638682D01*
X263081051Y-111638680D01*
X263125695Y-111577230D01*
X263182857Y-111498554D01*
X263261494Y-111344221D01*
X263315020Y-111179486D01*
X263342116Y-111008411D01*
X263342116Y-110835188D01*
X270741244Y-110835188D01*
X270741244Y-111008411D01*
X270768339Y-111179486D01*
X270821867Y-111344225D01*
X270900505Y-111498557D01*
X271002308Y-111638680D01*
X271124799Y-111761171D01*
X271255921Y-111856434D01*
X271264926Y-111862977D01*
X271363264Y-111913082D01*
X271419254Y-111941612D01*
X271419256Y-111941612D01*
X271419259Y-111941614D01*
X271507559Y-111970304D01*
X271583993Y-111995140D01*
X271755069Y-112022236D01*
X271755074Y-112022236D01*
X271928291Y-112022236D01*
X272099366Y-111995140D01*
X272264101Y-111941614D01*
X272418434Y-111862977D01*
X272497110Y-111805815D01*
X272558560Y-111761171D01*
X272558562Y-111761168D01*
X272558566Y-111761166D01*
X272681046Y-111638686D01*
X272681048Y-111638682D01*
X272681051Y-111638680D01*
X272725695Y-111577230D01*
X272782857Y-111498554D01*
X272861494Y-111344221D01*
X272915020Y-111179486D01*
X272942116Y-111008411D01*
X272942116Y-110835188D01*
X272915020Y-110664113D01*
X272861492Y-110499374D01*
X272832962Y-110443384D01*
X272782857Y-110345046D01*
X272776314Y-110336041D01*
X272681051Y-110204919D01*
X272558560Y-110082428D01*
X272418437Y-109980625D01*
X272418436Y-109980624D01*
X272418434Y-109980623D01*
X272370240Y-109956066D01*
X272264105Y-109901987D01*
X272099366Y-109848459D01*
X271928291Y-109821364D01*
X271928286Y-109821364D01*
X271755074Y-109821364D01*
X271755069Y-109821364D01*
X271583993Y-109848459D01*
X271419254Y-109901987D01*
X271264922Y-109980625D01*
X271124799Y-110082428D01*
X271002308Y-110204919D01*
X270900505Y-110345042D01*
X270821867Y-110499374D01*
X270768339Y-110664113D01*
X270741244Y-110835188D01*
X263342116Y-110835188D01*
X263315020Y-110664113D01*
X263261492Y-110499374D01*
X263232962Y-110443384D01*
X263182857Y-110345046D01*
X263176314Y-110336041D01*
X263081051Y-110204919D01*
X262958560Y-110082428D01*
X262818437Y-109980625D01*
X262818436Y-109980624D01*
X262818434Y-109980623D01*
X262770240Y-109956066D01*
X262664105Y-109901987D01*
X262499366Y-109848459D01*
X262328291Y-109821364D01*
X262328286Y-109821364D01*
X262155074Y-109821364D01*
X262155069Y-109821364D01*
X261983993Y-109848459D01*
X261819254Y-109901987D01*
X261664922Y-109980625D01*
X261524799Y-110082428D01*
X261402308Y-110204919D01*
X261300505Y-110345042D01*
X261221867Y-110499374D01*
X261168339Y-110664113D01*
X261141244Y-110835188D01*
X260411600Y-110835188D01*
X260411600Y-108295188D01*
X261141244Y-108295188D01*
X261141244Y-108468411D01*
X261168339Y-108639486D01*
X261221867Y-108804225D01*
X261300505Y-108958557D01*
X261402308Y-109098680D01*
X261524799Y-109221171D01*
X261655921Y-109316434D01*
X261664926Y-109322977D01*
X261763264Y-109373082D01*
X261819254Y-109401612D01*
X261819256Y-109401612D01*
X261819259Y-109401614D01*
X261907559Y-109430304D01*
X261983993Y-109455140D01*
X262155069Y-109482236D01*
X262155074Y-109482236D01*
X262328291Y-109482236D01*
X262499366Y-109455140D01*
X262664101Y-109401614D01*
X262818434Y-109322977D01*
X262897110Y-109265815D01*
X262958560Y-109221171D01*
X262958562Y-109221168D01*
X262958566Y-109221166D01*
X263081046Y-109098686D01*
X263081048Y-109098682D01*
X263081051Y-109098680D01*
X263125695Y-109037230D01*
X263182857Y-108958554D01*
X263261494Y-108804221D01*
X263315020Y-108639486D01*
X263342116Y-108468411D01*
X263342116Y-108295188D01*
X270741244Y-108295188D01*
X270741244Y-108468411D01*
X270768339Y-108639486D01*
X270821867Y-108804225D01*
X270900505Y-108958557D01*
X271002308Y-109098680D01*
X271124799Y-109221171D01*
X271255921Y-109316434D01*
X271264926Y-109322977D01*
X271363264Y-109373082D01*
X271419254Y-109401612D01*
X271419256Y-109401612D01*
X271419259Y-109401614D01*
X271507559Y-109430304D01*
X271583993Y-109455140D01*
X271755069Y-109482236D01*
X271755074Y-109482236D01*
X271928291Y-109482236D01*
X272099366Y-109455140D01*
X272264101Y-109401614D01*
X272418434Y-109322977D01*
X272497110Y-109265815D01*
X272558560Y-109221171D01*
X272558562Y-109221168D01*
X272558566Y-109221166D01*
X272681046Y-109098686D01*
X272681048Y-109098682D01*
X272681051Y-109098680D01*
X272725695Y-109037230D01*
X272782857Y-108958554D01*
X272861494Y-108804221D01*
X272915020Y-108639486D01*
X272942116Y-108468411D01*
X272942116Y-108295188D01*
X272915020Y-108124113D01*
X272861492Y-107959374D01*
X272832962Y-107903384D01*
X272782857Y-107805046D01*
X272776314Y-107796041D01*
X272681051Y-107664919D01*
X272558560Y-107542428D01*
X272418437Y-107440625D01*
X272418436Y-107440624D01*
X272418434Y-107440623D01*
X272370240Y-107416066D01*
X272264105Y-107361987D01*
X272099366Y-107308459D01*
X271928291Y-107281364D01*
X271928286Y-107281364D01*
X271755074Y-107281364D01*
X271755069Y-107281364D01*
X271583993Y-107308459D01*
X271419254Y-107361987D01*
X271264922Y-107440625D01*
X271124799Y-107542428D01*
X271002308Y-107664919D01*
X270900505Y-107805042D01*
X270821867Y-107959374D01*
X270768339Y-108124113D01*
X270741244Y-108295188D01*
X263342116Y-108295188D01*
X263315020Y-108124113D01*
X263261492Y-107959374D01*
X263232962Y-107903384D01*
X263182857Y-107805046D01*
X263176314Y-107796041D01*
X263081051Y-107664919D01*
X262958560Y-107542428D01*
X262818437Y-107440625D01*
X262818436Y-107440624D01*
X262818434Y-107440623D01*
X262770240Y-107416066D01*
X262664105Y-107361987D01*
X262499366Y-107308459D01*
X262328291Y-107281364D01*
X262328286Y-107281364D01*
X262155074Y-107281364D01*
X262155069Y-107281364D01*
X261983993Y-107308459D01*
X261819254Y-107361987D01*
X261664922Y-107440625D01*
X261524799Y-107542428D01*
X261402308Y-107664919D01*
X261300505Y-107805042D01*
X261221867Y-107959374D01*
X261168339Y-108124113D01*
X261141244Y-108295188D01*
X260411600Y-108295188D01*
X260411600Y-105755188D01*
X261141244Y-105755188D01*
X261141244Y-105928411D01*
X261168339Y-106099486D01*
X261221867Y-106264225D01*
X261300505Y-106418557D01*
X261402308Y-106558680D01*
X261524799Y-106681171D01*
X261655921Y-106776434D01*
X261664926Y-106782977D01*
X261763264Y-106833082D01*
X261819254Y-106861612D01*
X261819256Y-106861612D01*
X261819259Y-106861614D01*
X261907559Y-106890304D01*
X261983993Y-106915140D01*
X262155069Y-106942236D01*
X262155074Y-106942236D01*
X262328291Y-106942236D01*
X262499366Y-106915140D01*
X262664101Y-106861614D01*
X262818434Y-106782977D01*
X262897110Y-106725815D01*
X262958560Y-106681171D01*
X262958562Y-106681168D01*
X262958566Y-106681166D01*
X263081046Y-106558686D01*
X263081048Y-106558682D01*
X263081051Y-106558680D01*
X263125695Y-106497230D01*
X263182857Y-106418554D01*
X263261494Y-106264221D01*
X263315020Y-106099486D01*
X263342116Y-105928411D01*
X263342116Y-105755188D01*
X270741244Y-105755188D01*
X270741244Y-105928411D01*
X270768339Y-106099486D01*
X270821867Y-106264225D01*
X270900505Y-106418557D01*
X271002308Y-106558680D01*
X271124799Y-106681171D01*
X271255921Y-106776434D01*
X271264926Y-106782977D01*
X271363264Y-106833082D01*
X271419254Y-106861612D01*
X271419256Y-106861612D01*
X271419259Y-106861614D01*
X271507559Y-106890304D01*
X271583993Y-106915140D01*
X271755069Y-106942236D01*
X271755074Y-106942236D01*
X271928291Y-106942236D01*
X272099366Y-106915140D01*
X272264101Y-106861614D01*
X272418434Y-106782977D01*
X272497110Y-106725815D01*
X272558560Y-106681171D01*
X272558562Y-106681168D01*
X272558566Y-106681166D01*
X272681046Y-106558686D01*
X272681048Y-106558682D01*
X272681051Y-106558680D01*
X272725695Y-106497230D01*
X272782857Y-106418554D01*
X272861494Y-106264221D01*
X272915020Y-106099486D01*
X272942116Y-105928411D01*
X272942116Y-105755188D01*
X272915020Y-105584113D01*
X272861492Y-105419374D01*
X272832962Y-105363384D01*
X272782857Y-105265046D01*
X272776314Y-105256041D01*
X272681051Y-105124919D01*
X272558560Y-105002428D01*
X272418437Y-104900625D01*
X272418436Y-104900624D01*
X272418434Y-104900623D01*
X272370240Y-104876066D01*
X272264105Y-104821987D01*
X272099366Y-104768459D01*
X271928291Y-104741364D01*
X271928286Y-104741364D01*
X271755074Y-104741364D01*
X271755069Y-104741364D01*
X271583993Y-104768459D01*
X271419254Y-104821987D01*
X271264922Y-104900625D01*
X271124799Y-105002428D01*
X271002308Y-105124919D01*
X270900505Y-105265042D01*
X270821867Y-105419374D01*
X270768339Y-105584113D01*
X270741244Y-105755188D01*
X263342116Y-105755188D01*
X263315020Y-105584113D01*
X263261492Y-105419374D01*
X263232962Y-105363384D01*
X263182857Y-105265046D01*
X263176314Y-105256041D01*
X263081051Y-105124919D01*
X262958560Y-105002428D01*
X262818437Y-104900625D01*
X262818436Y-104900624D01*
X262818434Y-104900623D01*
X262770240Y-104876066D01*
X262664105Y-104821987D01*
X262499366Y-104768459D01*
X262328291Y-104741364D01*
X262328286Y-104741364D01*
X262155074Y-104741364D01*
X262155069Y-104741364D01*
X261983993Y-104768459D01*
X261819254Y-104821987D01*
X261664922Y-104900625D01*
X261524799Y-105002428D01*
X261402308Y-105124919D01*
X261300505Y-105265042D01*
X261221867Y-105419374D01*
X261168339Y-105584113D01*
X261141244Y-105755188D01*
X260411600Y-105755188D01*
X260411600Y-103215188D01*
X261141244Y-103215188D01*
X261141244Y-103388411D01*
X261168339Y-103559486D01*
X261221867Y-103724225D01*
X261300505Y-103878557D01*
X261402308Y-104018680D01*
X261524799Y-104141171D01*
X261655921Y-104236434D01*
X261664926Y-104242977D01*
X261763264Y-104293082D01*
X261819254Y-104321612D01*
X261819256Y-104321612D01*
X261819259Y-104321614D01*
X261907559Y-104350304D01*
X261983993Y-104375140D01*
X262155069Y-104402236D01*
X262155074Y-104402236D01*
X262328291Y-104402236D01*
X262499366Y-104375140D01*
X262664101Y-104321614D01*
X262818434Y-104242977D01*
X262919953Y-104169220D01*
X262958560Y-104141171D01*
X262958562Y-104141168D01*
X262958566Y-104141166D01*
X263081046Y-104018686D01*
X263081048Y-104018682D01*
X263081051Y-104018680D01*
X263125695Y-103957230D01*
X263182857Y-103878554D01*
X263261494Y-103724221D01*
X263315020Y-103559486D01*
X263320797Y-103523014D01*
X263342116Y-103388411D01*
X263342116Y-103215188D01*
X270741244Y-103215188D01*
X270741244Y-103388411D01*
X270768339Y-103559486D01*
X270821867Y-103724225D01*
X270900505Y-103878557D01*
X271002308Y-104018680D01*
X271124799Y-104141171D01*
X271255921Y-104236434D01*
X271264926Y-104242977D01*
X271363264Y-104293082D01*
X271419254Y-104321612D01*
X271419256Y-104321612D01*
X271419259Y-104321614D01*
X271507559Y-104350304D01*
X271583993Y-104375140D01*
X271755069Y-104402236D01*
X271755074Y-104402236D01*
X271928291Y-104402236D01*
X272099366Y-104375140D01*
X272264101Y-104321614D01*
X272418434Y-104242977D01*
X272519953Y-104169220D01*
X272558560Y-104141171D01*
X272558562Y-104141168D01*
X272558566Y-104141166D01*
X272681046Y-104018686D01*
X272681048Y-104018682D01*
X272681051Y-104018680D01*
X272725695Y-103957230D01*
X272782857Y-103878554D01*
X272861494Y-103724221D01*
X272915020Y-103559486D01*
X272920797Y-103523014D01*
X272942116Y-103388411D01*
X272942116Y-103215188D01*
X272915020Y-103044113D01*
X272890184Y-102967679D01*
X272861494Y-102879379D01*
X272861492Y-102879376D01*
X272861492Y-102879374D01*
X272832962Y-102823384D01*
X272782857Y-102725046D01*
X272776314Y-102716041D01*
X272681051Y-102584919D01*
X272558560Y-102462428D01*
X272418437Y-102360625D01*
X272418436Y-102360624D01*
X272418434Y-102360623D01*
X272343614Y-102322500D01*
X272264105Y-102281987D01*
X272099366Y-102228459D01*
X271928291Y-102201364D01*
X271928286Y-102201364D01*
X271755074Y-102201364D01*
X271755069Y-102201364D01*
X271583993Y-102228459D01*
X271419254Y-102281987D01*
X271264922Y-102360625D01*
X271124799Y-102462428D01*
X271002308Y-102584919D01*
X270900505Y-102725042D01*
X270821867Y-102879374D01*
X270768339Y-103044113D01*
X270741244Y-103215188D01*
X263342116Y-103215188D01*
X263315020Y-103044113D01*
X263290184Y-102967679D01*
X263261494Y-102879379D01*
X263261492Y-102879376D01*
X263261492Y-102879374D01*
X263232962Y-102823384D01*
X263182857Y-102725046D01*
X263176314Y-102716041D01*
X263081051Y-102584919D01*
X262958560Y-102462428D01*
X262818437Y-102360625D01*
X262818436Y-102360624D01*
X262818434Y-102360623D01*
X262743614Y-102322500D01*
X262664105Y-102281987D01*
X262499366Y-102228459D01*
X262328291Y-102201364D01*
X262328286Y-102201364D01*
X262155074Y-102201364D01*
X262155069Y-102201364D01*
X261983993Y-102228459D01*
X261819254Y-102281987D01*
X261664922Y-102360625D01*
X261524799Y-102462428D01*
X261402308Y-102584919D01*
X261300505Y-102725042D01*
X261221867Y-102879374D01*
X261168339Y-103044113D01*
X261141244Y-103215188D01*
X260411600Y-103215188D01*
X260411600Y-100675188D01*
X261141244Y-100675188D01*
X261141244Y-100848411D01*
X261168339Y-101019486D01*
X261221867Y-101184225D01*
X261300505Y-101338557D01*
X261402308Y-101478680D01*
X261524799Y-101601171D01*
X261655921Y-101696434D01*
X261664926Y-101702977D01*
X261763264Y-101753082D01*
X261819254Y-101781612D01*
X261819256Y-101781612D01*
X261819259Y-101781614D01*
X261907559Y-101810304D01*
X261983993Y-101835140D01*
X262155069Y-101862236D01*
X262155074Y-101862236D01*
X262328291Y-101862236D01*
X262499366Y-101835140D01*
X262664101Y-101781614D01*
X262818434Y-101702977D01*
X262897110Y-101645815D01*
X262958560Y-101601171D01*
X262958562Y-101601168D01*
X262958566Y-101601166D01*
X263081046Y-101478686D01*
X263081048Y-101478682D01*
X263081051Y-101478680D01*
X263125695Y-101417230D01*
X263182857Y-101338554D01*
X263261494Y-101184221D01*
X263315020Y-101019486D01*
X263342116Y-100848411D01*
X263342116Y-100675188D01*
X270741244Y-100675188D01*
X270741244Y-100848411D01*
X270768339Y-101019486D01*
X270821867Y-101184225D01*
X270900505Y-101338557D01*
X271002308Y-101478680D01*
X271124799Y-101601171D01*
X271255921Y-101696434D01*
X271264926Y-101702977D01*
X271363264Y-101753082D01*
X271419254Y-101781612D01*
X271419256Y-101781612D01*
X271419259Y-101781614D01*
X271507559Y-101810304D01*
X271583993Y-101835140D01*
X271755069Y-101862236D01*
X271755074Y-101862236D01*
X271928291Y-101862236D01*
X272099366Y-101835140D01*
X272264101Y-101781614D01*
X272418434Y-101702977D01*
X272497110Y-101645815D01*
X272558560Y-101601171D01*
X272558562Y-101601168D01*
X272558566Y-101601166D01*
X272681046Y-101478686D01*
X272681048Y-101478682D01*
X272681051Y-101478680D01*
X272725695Y-101417230D01*
X272782857Y-101338554D01*
X272861494Y-101184221D01*
X272915020Y-101019486D01*
X272942116Y-100848411D01*
X272942116Y-100675188D01*
X272915020Y-100504113D01*
X272861492Y-100339374D01*
X272832962Y-100283384D01*
X272782857Y-100185046D01*
X272776314Y-100176041D01*
X272681051Y-100044919D01*
X272558560Y-99922428D01*
X272418437Y-99820625D01*
X272418436Y-99820624D01*
X272418434Y-99820623D01*
X272370240Y-99796066D01*
X272264105Y-99741987D01*
X272099366Y-99688459D01*
X271928291Y-99661364D01*
X271928286Y-99661364D01*
X271755074Y-99661364D01*
X271755069Y-99661364D01*
X271583993Y-99688459D01*
X271419254Y-99741987D01*
X271264922Y-99820625D01*
X271124799Y-99922428D01*
X271002308Y-100044919D01*
X270900505Y-100185042D01*
X270821867Y-100339374D01*
X270768339Y-100504113D01*
X270741244Y-100675188D01*
X263342116Y-100675188D01*
X263315020Y-100504113D01*
X263261492Y-100339374D01*
X263232962Y-100283384D01*
X263182857Y-100185046D01*
X263176314Y-100176041D01*
X263081051Y-100044919D01*
X262958560Y-99922428D01*
X262818437Y-99820625D01*
X262818436Y-99820624D01*
X262818434Y-99820623D01*
X262770240Y-99796066D01*
X262664105Y-99741987D01*
X262499366Y-99688459D01*
X262328291Y-99661364D01*
X262328286Y-99661364D01*
X262155074Y-99661364D01*
X262155069Y-99661364D01*
X261983993Y-99688459D01*
X261819254Y-99741987D01*
X261664922Y-99820625D01*
X261524799Y-99922428D01*
X261402308Y-100044919D01*
X261300505Y-100185042D01*
X261221867Y-100339374D01*
X261168339Y-100504113D01*
X261141244Y-100675188D01*
X260411600Y-100675188D01*
X260411600Y-98135188D01*
X261141244Y-98135188D01*
X261141244Y-98308411D01*
X261168339Y-98479486D01*
X261221867Y-98644225D01*
X261300505Y-98798557D01*
X261402308Y-98938680D01*
X261524799Y-99061171D01*
X261655921Y-99156434D01*
X261664926Y-99162977D01*
X261763264Y-99213082D01*
X261819254Y-99241612D01*
X261819256Y-99241612D01*
X261819259Y-99241614D01*
X261907559Y-99270304D01*
X261983993Y-99295140D01*
X262155069Y-99322236D01*
X262155074Y-99322236D01*
X262328291Y-99322236D01*
X262499366Y-99295140D01*
X262664101Y-99241614D01*
X262818434Y-99162977D01*
X262897110Y-99105815D01*
X262958560Y-99061171D01*
X262958562Y-99061168D01*
X262958566Y-99061166D01*
X263081046Y-98938686D01*
X263081048Y-98938682D01*
X263081051Y-98938680D01*
X263125695Y-98877230D01*
X263182857Y-98798554D01*
X263261494Y-98644221D01*
X263315020Y-98479486D01*
X263342116Y-98308411D01*
X263342116Y-98135188D01*
X270741244Y-98135188D01*
X270741244Y-98308411D01*
X270768339Y-98479486D01*
X270821867Y-98644225D01*
X270900505Y-98798557D01*
X271002308Y-98938680D01*
X271124799Y-99061171D01*
X271255921Y-99156434D01*
X271264926Y-99162977D01*
X271363264Y-99213082D01*
X271419254Y-99241612D01*
X271419256Y-99241612D01*
X271419259Y-99241614D01*
X271507559Y-99270304D01*
X271583993Y-99295140D01*
X271755069Y-99322236D01*
X271755074Y-99322236D01*
X271928291Y-99322236D01*
X272099366Y-99295140D01*
X272264101Y-99241614D01*
X272418434Y-99162977D01*
X272497110Y-99105815D01*
X272558560Y-99061171D01*
X272558562Y-99061168D01*
X272558566Y-99061166D01*
X272681046Y-98938686D01*
X272681048Y-98938682D01*
X272681051Y-98938680D01*
X272725695Y-98877230D01*
X272782857Y-98798554D01*
X272861494Y-98644221D01*
X272915020Y-98479486D01*
X272942116Y-98308411D01*
X272942116Y-98135188D01*
X272915020Y-97964113D01*
X272861492Y-97799374D01*
X272832962Y-97743384D01*
X272782857Y-97645046D01*
X272776314Y-97636041D01*
X272681051Y-97504919D01*
X272558560Y-97382428D01*
X272418437Y-97280625D01*
X272418436Y-97280624D01*
X272418434Y-97280623D01*
X272370240Y-97256066D01*
X272264105Y-97201987D01*
X272099366Y-97148459D01*
X271928291Y-97121364D01*
X271928286Y-97121364D01*
X271755074Y-97121364D01*
X271755069Y-97121364D01*
X271583993Y-97148459D01*
X271419254Y-97201987D01*
X271264922Y-97280625D01*
X271124799Y-97382428D01*
X271002308Y-97504919D01*
X270900505Y-97645042D01*
X270821867Y-97799374D01*
X270768339Y-97964113D01*
X270741244Y-98135188D01*
X263342116Y-98135188D01*
X263315020Y-97964113D01*
X263261492Y-97799374D01*
X263232962Y-97743384D01*
X263182857Y-97645046D01*
X263176314Y-97636041D01*
X263081051Y-97504919D01*
X262958560Y-97382428D01*
X262818437Y-97280625D01*
X262818436Y-97280624D01*
X262818434Y-97280623D01*
X262770240Y-97256066D01*
X262664105Y-97201987D01*
X262499366Y-97148459D01*
X262328291Y-97121364D01*
X262328286Y-97121364D01*
X262155074Y-97121364D01*
X262155069Y-97121364D01*
X261983993Y-97148459D01*
X261819254Y-97201987D01*
X261664922Y-97280625D01*
X261524799Y-97382428D01*
X261402308Y-97504919D01*
X261300505Y-97645042D01*
X261221867Y-97799374D01*
X261168339Y-97964113D01*
X261141244Y-98135188D01*
X260411600Y-98135188D01*
X260411600Y-95595188D01*
X261141244Y-95595188D01*
X261141244Y-95768411D01*
X261168339Y-95939486D01*
X261221867Y-96104225D01*
X261300505Y-96258557D01*
X261402308Y-96398680D01*
X261524799Y-96521171D01*
X261655921Y-96616434D01*
X261664926Y-96622977D01*
X261763264Y-96673082D01*
X261819254Y-96701612D01*
X261819256Y-96701612D01*
X261819259Y-96701614D01*
X261907559Y-96730304D01*
X261983993Y-96755140D01*
X262155069Y-96782236D01*
X262155074Y-96782236D01*
X262328291Y-96782236D01*
X262499366Y-96755140D01*
X262664101Y-96701614D01*
X262818434Y-96622977D01*
X262897110Y-96565815D01*
X262958560Y-96521171D01*
X262958562Y-96521168D01*
X262958566Y-96521166D01*
X263081046Y-96398686D01*
X263081048Y-96398682D01*
X263081051Y-96398680D01*
X263125695Y-96337230D01*
X263182857Y-96258554D01*
X263261494Y-96104221D01*
X263315020Y-95939486D01*
X263342116Y-95768411D01*
X263342116Y-95595188D01*
X270741244Y-95595188D01*
X270741244Y-95768411D01*
X270768339Y-95939486D01*
X270821867Y-96104225D01*
X270900505Y-96258557D01*
X271002308Y-96398680D01*
X271124799Y-96521171D01*
X271255921Y-96616434D01*
X271264926Y-96622977D01*
X271363264Y-96673082D01*
X271419254Y-96701612D01*
X271419256Y-96701612D01*
X271419259Y-96701614D01*
X271507559Y-96730304D01*
X271583993Y-96755140D01*
X271755069Y-96782236D01*
X271755074Y-96782236D01*
X271928291Y-96782236D01*
X272099366Y-96755140D01*
X272264101Y-96701614D01*
X272418434Y-96622977D01*
X272497110Y-96565815D01*
X272558560Y-96521171D01*
X272558562Y-96521168D01*
X272558566Y-96521166D01*
X272681046Y-96398686D01*
X272681048Y-96398682D01*
X272681051Y-96398680D01*
X272725695Y-96337230D01*
X272782857Y-96258554D01*
X272861494Y-96104221D01*
X272915020Y-95939486D01*
X272942116Y-95768411D01*
X272942116Y-95595188D01*
X272915020Y-95424113D01*
X272861492Y-95259374D01*
X272832962Y-95203384D01*
X272782857Y-95105046D01*
X272776314Y-95096041D01*
X272681051Y-94964919D01*
X272558560Y-94842428D01*
X272418437Y-94740625D01*
X272418436Y-94740624D01*
X272418434Y-94740623D01*
X272370240Y-94716066D01*
X272264105Y-94661987D01*
X272099366Y-94608459D01*
X271928291Y-94581364D01*
X271928286Y-94581364D01*
X271755074Y-94581364D01*
X271755069Y-94581364D01*
X271583993Y-94608459D01*
X271419254Y-94661987D01*
X271264922Y-94740625D01*
X271124799Y-94842428D01*
X271002308Y-94964919D01*
X270900505Y-95105042D01*
X270821867Y-95259374D01*
X270768339Y-95424113D01*
X270741244Y-95595188D01*
X263342116Y-95595188D01*
X263315020Y-95424113D01*
X263261492Y-95259374D01*
X263232962Y-95203384D01*
X263182857Y-95105046D01*
X263176314Y-95096041D01*
X263081051Y-94964919D01*
X262958560Y-94842428D01*
X262818437Y-94740625D01*
X262818436Y-94740624D01*
X262818434Y-94740623D01*
X262770240Y-94716066D01*
X262664105Y-94661987D01*
X262499366Y-94608459D01*
X262328291Y-94581364D01*
X262328286Y-94581364D01*
X262155074Y-94581364D01*
X262155069Y-94581364D01*
X261983993Y-94608459D01*
X261819254Y-94661987D01*
X261664922Y-94740625D01*
X261524799Y-94842428D01*
X261402308Y-94964919D01*
X261300505Y-95105042D01*
X261221867Y-95259374D01*
X261168339Y-95424113D01*
X261141244Y-95595188D01*
X260411600Y-95595188D01*
X260411600Y-92267131D01*
X261141244Y-92267131D01*
X261141244Y-94016468D01*
X261155773Y-94089510D01*
X261155774Y-94089513D01*
X261155775Y-94089515D01*
X261211126Y-94172354D01*
X261293965Y-94227705D01*
X261293968Y-94227705D01*
X261293969Y-94227706D01*
X261367011Y-94242235D01*
X261367014Y-94242236D01*
X261367016Y-94242236D01*
X263116346Y-94242236D01*
X263116347Y-94242235D01*
X263189395Y-94227705D01*
X263272234Y-94172354D01*
X263327585Y-94089515D01*
X263342116Y-94016464D01*
X263342116Y-92267136D01*
X263342116Y-92267133D01*
X263342115Y-92267131D01*
X270741244Y-92267131D01*
X270741244Y-94016468D01*
X270755773Y-94089510D01*
X270755774Y-94089513D01*
X270755775Y-94089515D01*
X270811126Y-94172354D01*
X270893965Y-94227705D01*
X270893968Y-94227705D01*
X270893969Y-94227706D01*
X270967011Y-94242235D01*
X270967014Y-94242236D01*
X270967016Y-94242236D01*
X272716346Y-94242236D01*
X272716347Y-94242235D01*
X272789395Y-94227705D01*
X272872234Y-94172354D01*
X272927585Y-94089515D01*
X272942116Y-94016464D01*
X272942116Y-92267136D01*
X272942116Y-92267133D01*
X272942115Y-92267131D01*
X272927586Y-92194089D01*
X272927585Y-92194088D01*
X272927585Y-92194085D01*
X272872234Y-92111246D01*
X272789395Y-92055895D01*
X272789393Y-92055894D01*
X272789390Y-92055893D01*
X272716347Y-92041364D01*
X272716344Y-92041364D01*
X270967016Y-92041364D01*
X270967013Y-92041364D01*
X270893969Y-92055893D01*
X270893965Y-92055895D01*
X270811126Y-92111246D01*
X270755775Y-92194085D01*
X270755773Y-92194089D01*
X270741244Y-92267131D01*
X263342115Y-92267131D01*
X263327586Y-92194089D01*
X263327585Y-92194088D01*
X263327585Y-92194085D01*
X263272234Y-92111246D01*
X263189395Y-92055895D01*
X263189393Y-92055894D01*
X263189390Y-92055893D01*
X263116347Y-92041364D01*
X263116344Y-92041364D01*
X261367016Y-92041364D01*
X261367013Y-92041364D01*
X261293969Y-92055893D01*
X261293965Y-92055895D01*
X261211126Y-92111246D01*
X261155775Y-92194085D01*
X261155773Y-92194089D01*
X261141244Y-92267131D01*
X260411600Y-92267131D01*
X260411600Y-89786000D01*
X260431285Y-89718961D01*
X260484089Y-89673206D01*
X260535600Y-89662000D01*
X274003600Y-89662000D01*
X274070639Y-89681685D01*
G37*
%TD.AperFunction*%
%TD*%
M02*
