M48
; DRILL file KiCad 10.0.5-10.0.5~ubuntu24.04.1 date 2026-08-11T22:00:00
; FORMAT={-:-/ absolute / metric / decimal}
; #@! TF.CreationDate,2026-08-11T22:00:00-07:00
; #@! TF.GenerationSoftware,Kicad,Pcbnew,10.0.5-10.0.5~ubuntu24.04.1
; #@! TF.FileFunction,MixedPlating,1,4
FMAT,2
METRIC
; #@! TA.AperFunction,Plated,PTH,ViaDrill
T1C0.300
; #@! TA.AperFunction,Plated,PTH,ComponentDrill
T2C0.300
; #@! TA.AperFunction,Plated,PTH,ViaDrill
T3C0.305
; #@! TA.AperFunction,Plated,PTH,ViaDrill
T4C0.381
; #@! TA.AperFunction,Plated,PTH,ViaDrill
T5C0.635
; #@! TA.AperFunction,Plated,PTH,ComponentDrill
T6C0.991
; #@! TA.AperFunction,Plated,PTH,ComponentDrill
T7C1.000
; #@! TA.AperFunction,Plated,PTH,ComponentDrill
T8C1.020
; #@! TA.AperFunction,Plated,PTH,ComponentDrill
T9C1.067
; #@! TA.AperFunction,Plated,PTH,ComponentDrill
T10C1.295
; #@! TA.AperFunction,Plated,PTH,ComponentDrill
T11C1.575
; #@! TA.AperFunction,NonPlated,NPTH,ComponentDrill
T12C0.650
; #@! TA.AperFunction,NonPlated,NPTH,ComponentDrill
T13C1.321
; #@! TA.AperFunction,NonPlated,NPTH,ComponentDrill
T14C2.500
; #@! TA.AperFunction,NonPlated,NPTH,ComponentDrill
T15C3.000
; #@! TA.AperFunction,NonPlated,NPTH,ComponentDrill
T16C3.400
; #@! TA.AperFunction,NonPlated,NPTH,ComponentDrill
T17C3.700
%
G90
G05
T1
X166.37Y-117.78
X166.395Y-120.828
X166.395Y-123.85
X166.395Y-126.898
X166.421Y-111.684
X166.421Y-119.304
X166.421Y-122.352
X169.926Y-113.208
X172.161Y-138.481
X178.41Y-126.467
X181.042Y-119.58
X184.226Y-119.532
X184.328Y-116.51
X184.455Y-122.606
X184.455Y-125.679
X184.482Y-124.098
X184.487Y-130.233
X184.741Y-129.422
X184.751Y-113.453
X185.254Y-124.454
X186.052Y-115.801
X189.108Y-123.622
X189.486Y-97.822
X195.504Y-131.013
X195.504Y-132.258
X207.086Y-127.127
X207.086Y-129.057
X210.922Y-132.105
X211.023Y-124.079
X212.547Y-127.305
X224.993Y-111.531
X224.993Y-113.03
X228.575Y-110.007
X229.921Y-116.713
X230.779Y-118.821
X230.784Y-122.352
X231.191Y-112.522
X231.731Y-118.961
X233.553Y-122.326
X233.755Y-107.886
X234.493Y-104.597
X235.128Y-110.363
X236.017Y-104.597
X236.032Y-110.362
X236.83Y-110.388
X236.957Y-115.519
X237.541Y-104.597
X238.252Y-116.967
X238.252Y-120.472
T2
X174.26Y-117.003
X174.26Y-118.783
X174.26Y-120.563
X174.26Y-122.343
X174.26Y-124.123
X174.26Y-125.903
X175.56Y-117.003
X175.56Y-118.783
X175.56Y-120.563
X175.56Y-122.343
X175.56Y-124.123
X175.56Y-125.903
X176.86Y-117.003
X176.86Y-118.783
X176.86Y-120.563
X176.86Y-122.343
X176.86Y-124.123
X176.86Y-125.903
T3
X166.345Y-132.232
X171.632Y-115.418
X176.352Y-128.448
X176.505Y-150.546
X180.12Y-121.873
X180.233Y-123.173
X180.784Y-117.412
X184.277Y-127.178
X195.478Y-116.637
X196.494Y-146.202
X198.501Y-145.567
X199.212Y-134.087
X199.288Y-136.144
X199.492Y-139.421
X199.492Y-142.494
X199.517Y-140.97
X199.695Y-145.618
X201.295Y-145.948
X202.997Y-142.494
X203.022Y-132.309
X203.022Y-139.421
X203.49Y-140.858
X205.359Y-132.385
X206.959Y-140.208
X207.01Y-137.947
X207.035Y-135.001
X207.234Y-138.948
X213.97Y-137.592
X214.046Y-135.658
X217.653Y-135.661
X224.688Y-105.639
X226.466Y-127.178
X228.295Y-123.977
X228.422Y-117.297
X231.572Y-143.104
X231.623Y-139.548
X235.179Y-141.961
X235.229Y-140.691
X237.16Y-137.744
X237.541Y-143.281
X240.386Y-139.446
X241.275Y-141.351
T4
X192.049Y-104.064
X192.049Y-136.881
X192.075Y-107.747
X192.075Y-111.125
X192.075Y-133.35
X192.075Y-140.335
X192.1Y-100.559
X192.684Y-98.476
X192.706Y-95.885
X197.383Y-105.791
X197.409Y-109.347
X198.12Y-149.225
X199.644Y-149.225
X205.054Y-87.427
X222.047Y-99.771
X228.93Y-103.556
X230.657Y-101.651
X230.683Y-99.72
X232.207Y-150.52
X235.814Y-99.085
X236.474Y-152.146
X237.363Y-100.178
X237.388Y-97.18
X238.633Y-152.146
X239.927Y-96.801
X242.773Y-150.546
T5
X168.199Y-137.998
X171.602Y-135.052
X171.679Y-143.688
X175.997Y-132.791
X186.588Y-109.449
X186.614Y-102.311
X186.639Y-105.893
X186.639Y-135.077
X186.639Y-138.608
X187.3Y-120.726
X191.897Y-151.816
X191.948Y-147.93
X193.751Y-146.152
X193.777Y-149.809
X195.656Y-151.867
X197.485Y-138.582
X197.51Y-102.26
X197.51Y-135.052
X197.739Y-115.189
X197.739Y-120.396
X197.739Y-124.079
X197.739Y-129.413
X201.93Y-102.108
X202.159Y-151.841
X203.962Y-146.126
X204.038Y-149.885
X205.842Y-147.955
X205.892Y-151.816
T6
X213.142Y-150.647
X217.642Y-150.647
X223.81Y-150.698
X228.31Y-150.698
T7
X185.343Y-84.74
X187.883Y-84.74
X190.423Y-84.74
X192.963Y-84.74
X195.503Y-84.74
X198.043Y-84.74
X200.583Y-84.74
X203.123Y-84.74
X205.663Y-84.74
X208.203Y-84.74
X210.743Y-84.74
X213.283Y-84.74
X215.823Y-84.74
X218.363Y-84.74
X220.903Y-84.74
X245.499Y-114.63
X245.499Y-117.17
X245.499Y-119.71
X245.499Y-122.25
X245.499Y-124.79
X262.242Y-93.142
X262.242Y-95.682
X262.242Y-98.222
X262.242Y-100.762
X262.242Y-103.302
X262.242Y-105.842
X262.242Y-108.382
X262.242Y-110.922
X262.242Y-113.462
X262.242Y-116.002
X262.242Y-118.542
X262.242Y-121.082
X262.242Y-123.622
X262.242Y-126.162
X262.242Y-128.702
X271.842Y-93.142
X271.842Y-95.682
X271.842Y-98.222
X271.842Y-100.762
X271.842Y-103.302
X271.842Y-105.842
X271.842Y-108.382
X271.842Y-110.922
X271.842Y-113.462
X271.842Y-116.002
X271.842Y-118.542
X271.842Y-121.082
X271.842Y-123.622
X271.842Y-126.162
X271.842Y-128.702
T8
X164.235Y-146.296
X167.235Y-146.296
X190.86Y-89.826
X190.86Y-92.826
T9
X247.879Y-142.207
X250.419Y-142.207
T10
X211.892Y-148.147
X218.892Y-148.147
X222.56Y-148.198
X229.56Y-148.198
T11
X175.463Y-76.637
X175.463Y-81.717
X180.898Y-76.637
X180.898Y-81.717
X225.348Y-76.637
X225.348Y-81.717
X230.784Y-76.637
X230.784Y-81.717
T12
X195.992Y-148.429
X201.772Y-148.429
T13
X177.851Y-147.843
X180.391Y-147.843
X182.931Y-147.843
X185.471Y-147.843
X233.731Y-147.843
X236.271Y-147.843
X238.811Y-147.843
X241.351Y-147.843
T14
X159.983Y-78.49
X159.983Y-136.49
X251.983Y-78.49
X251.983Y-136.49
T15
X165.735Y-150.616
X186.54Y-91.326
T16
X246.479Y-150.847
X251.819Y-150.847
T17
X263.292Y-85.979
X263.292Y-135.865
M30
