%TF.GenerationSoftware,KiCad,Pcbnew,10.0.5-10.0.5~ubuntu24.04.1*%
%TF.CreationDate,2026-08-14T20:03:26-07:00*%
%TF.ProjectId,NX-J401-Adapter-v7,4e582d4a-3430-4312-9d41-646170746572,7*%
%TF.SameCoordinates,Original*%
%TF.FileFunction,Paste,Bot*%
%TF.FilePolarity,Positive*%
%FSLAX46Y46*%
G04 Gerber Fmt 4.6, Leading zero omitted, Abs format (unit mm)*
G04 Created by KiCad (PCBNEW 10.0.5-10.0.5~ubuntu24.04.1) date 2026-08-14 20:03:26*
%MOMM*%
%LPD*%
G01*
G04 APERTURE LIST*
G04 Aperture macros list*
%AMRoundRect*
0 Rectangle with rounded corners*
0 $1 Rounding radius*
0 $2 $3 $4 $5 $6 $7 $8 $9 X,Y pos of 4 corners*
0 Add a 4 corners polygon primitive as box body*
4,1,4,$2,$3,$4,$5,$6,$7,$8,$9,$2,$3,0*
0 Add four circle primitives for the rounded corners*
1,1,$1+$1,$2,$3*
1,1,$1+$1,$4,$5*
1,1,$1+$1,$6,$7*
1,1,$1+$1,$8,$9*
0 Add four rect primitives between the rounded corners*
20,1,$1+$1,$2,$3,$4,$5,0*
20,1,$1+$1,$4,$5,$6,$7,0*
20,1,$1+$1,$6,$7,$8,$9,0*
20,1,$1+$1,$8,$9,$2,$3,0*%
G04 Aperture macros list end*
%ADD10RoundRect,0.250000X-0.325000X-1.100000X0.325000X-1.100000X0.325000X1.100000X-0.325000X1.100000X0*%
%ADD11RoundRect,0.250000X-1.100000X0.325000X-1.100000X-0.325000X1.100000X-0.325000X1.100000X0.325000X0*%
%ADD12RoundRect,0.225000X-0.250000X0.225000X-0.250000X-0.225000X0.250000X-0.225000X0.250000X0.225000X0*%
%ADD13RoundRect,0.200000X-0.200000X-0.275000X0.200000X-0.275000X0.200000X0.275000X-0.200000X0.275000X0*%
%ADD14RoundRect,0.250000X-0.250000X-0.475000X0.250000X-0.475000X0.250000X0.475000X-0.250000X0.475000X0*%
%ADD15RoundRect,0.250000X0.325000X1.100000X-0.325000X1.100000X-0.325000X-1.100000X0.325000X-1.100000X0*%
%ADD16R,0.750000X0.660000*%
%ADD17RoundRect,0.150000X0.150000X0.200000X-0.150000X0.200000X-0.150000X-0.200000X0.150000X-0.200000X0*%
%ADD18RoundRect,0.100000X0.850000X0.100000X-0.850000X0.100000X-0.850000X-0.100000X0.850000X-0.100000X0*%
%ADD19RoundRect,0.225000X0.225000X0.250000X-0.225000X0.250000X-0.225000X-0.250000X0.225000X-0.250000X0*%
%ADD20RoundRect,0.225000X0.525000X1.025000X-0.525000X1.025000X-0.525000X-1.025000X0.525000X-1.025000X0*%
%ADD21R,1.400000X1.400000*%
%ADD22R,1.100000X0.400000*%
%ADD23RoundRect,0.150000X-0.512500X-0.150000X0.512500X-0.150000X0.512500X0.150000X-0.512500X0.150000X0*%
%ADD24RoundRect,0.225000X-0.225000X-0.250000X0.225000X-0.250000X0.225000X0.250000X-0.225000X0.250000X0*%
%ADD25RoundRect,0.250000X1.425000X-0.362500X1.425000X0.362500X-1.425000X0.362500X-1.425000X-0.362500X0*%
%ADD26RoundRect,0.150000X-0.587500X-0.150000X0.587500X-0.150000X0.587500X0.150000X-0.587500X0.150000X0*%
%ADD27RoundRect,0.150000X-0.725000X-0.150000X0.725000X-0.150000X0.725000X0.150000X-0.725000X0.150000X0*%
%ADD28RoundRect,0.200000X0.200000X0.275000X-0.200000X0.275000X-0.200000X-0.275000X0.200000X-0.275000X0*%
%ADD29RoundRect,0.150000X0.150000X-0.825000X0.150000X0.825000X-0.150000X0.825000X-0.150000X-0.825000X0*%
%ADD30RoundRect,0.225000X0.250000X-0.225000X0.250000X0.225000X-0.250000X0.225000X-0.250000X-0.225000X0*%
%ADD31RoundRect,0.150000X-0.150000X0.587500X-0.150000X-0.587500X0.150000X-0.587500X0.150000X0.587500X0*%
%ADD32RoundRect,0.150000X0.512500X0.150000X-0.512500X0.150000X-0.512500X-0.150000X0.512500X-0.150000X0*%
%ADD33RoundRect,0.250000X0.250000X0.475000X-0.250000X0.475000X-0.250000X-0.475000X0.250000X-0.475000X0*%
%ADD34RoundRect,0.200000X-0.275000X0.200000X-0.275000X-0.200000X0.275000X-0.200000X0.275000X0.200000X0*%
%ADD35RoundRect,0.075000X-0.662500X-0.075000X0.662500X-0.075000X0.662500X0.075000X-0.662500X0.075000X0*%
%ADD36RoundRect,0.075000X-0.075000X-0.662500X0.075000X-0.662500X0.075000X0.662500X-0.075000X0.662500X0*%
%ADD37R,0.660000X0.750000*%
%ADD38RoundRect,0.150000X0.587500X0.150000X-0.587500X0.150000X-0.587500X-0.150000X0.587500X-0.150000X0*%
%ADD39RoundRect,0.250000X-0.475000X0.250000X-0.475000X-0.250000X0.475000X-0.250000X0.475000X0.250000X0*%
%ADD40RoundRect,0.218750X-0.218750X-0.381250X0.218750X-0.381250X0.218750X0.381250X-0.218750X0.381250X0*%
G04 APERTURE END LIST*
%TO.C,Q3*%
G36*
X188840600Y-111796000D02*
G01*
X189340600Y-111796000D01*
X189340600Y-112296000D01*
X188840600Y-112296000D01*
X188840600Y-111796000D01*
G37*
G36*
X188840600Y-113077538D02*
G01*
X189340600Y-113077538D01*
X189340600Y-113577538D01*
X188840600Y-113577538D01*
X188840600Y-113077538D01*
G37*
G36*
X188840600Y-114346000D02*
G01*
X189340600Y-114346000D01*
X189340600Y-114846000D01*
X188840600Y-114846000D01*
X188840600Y-114346000D01*
G37*
G36*
X188840600Y-115626000D02*
G01*
X189340600Y-115626000D01*
X189340600Y-116126000D01*
X188840600Y-116126000D01*
X188840600Y-115626000D01*
G37*
G36*
X189955600Y-112081000D02*
G01*
X191540600Y-112081000D01*
X191540600Y-113651000D01*
X189955600Y-113651000D01*
X189955600Y-112081000D01*
G37*
G36*
X189955600Y-114271000D02*
G01*
X191540600Y-114271000D01*
X191540600Y-115841000D01*
X189955600Y-115841000D01*
X189955600Y-114271000D01*
G37*
G36*
X191843100Y-112081000D02*
G01*
X193078100Y-112081000D01*
X193078100Y-113651000D01*
X191843100Y-113651000D01*
X191843100Y-112081000D01*
G37*
G36*
X191843100Y-114271000D02*
G01*
X193078100Y-114271000D01*
X193078100Y-115841000D01*
X191843100Y-115841000D01*
X191843100Y-114271000D01*
G37*
%TO.C,Q4*%
G36*
X191437100Y-117527000D02*
G01*
X192672100Y-117527000D01*
X192672100Y-119097000D01*
X191437100Y-119097000D01*
X191437100Y-117527000D01*
G37*
G36*
X191437100Y-119717000D02*
G01*
X192672100Y-119717000D01*
X192672100Y-121287000D01*
X191437100Y-121287000D01*
X191437100Y-119717000D01*
G37*
G36*
X192974600Y-117527000D02*
G01*
X194559600Y-117527000D01*
X194559600Y-119097000D01*
X192974600Y-119097000D01*
X192974600Y-117527000D01*
G37*
G36*
X192974600Y-119717000D02*
G01*
X194559600Y-119717000D01*
X194559600Y-121287000D01*
X192974600Y-121287000D01*
X192974600Y-119717000D01*
G37*
G36*
X195174600Y-117242000D02*
G01*
X195674600Y-117242000D01*
X195674600Y-117742000D01*
X195174600Y-117742000D01*
X195174600Y-117242000D01*
G37*
G36*
X195174600Y-118522000D02*
G01*
X195674600Y-118522000D01*
X195674600Y-119022000D01*
X195174600Y-119022000D01*
X195174600Y-118522000D01*
G37*
G36*
X195174600Y-119790462D02*
G01*
X195674600Y-119790462D01*
X195674600Y-120290462D01*
X195174600Y-120290462D01*
X195174600Y-119790462D01*
G37*
G36*
X195174600Y-121072000D02*
G01*
X195674600Y-121072000D01*
X195674600Y-121572000D01*
X195174600Y-121572000D01*
X195174600Y-121072000D01*
G37*
%TO.C,Q6*%
G36*
X191437100Y-123003000D02*
G01*
X192672100Y-123003000D01*
X192672100Y-124573000D01*
X191437100Y-124573000D01*
X191437100Y-123003000D01*
G37*
G36*
X191437100Y-125193000D02*
G01*
X192672100Y-125193000D01*
X192672100Y-126763000D01*
X191437100Y-126763000D01*
X191437100Y-125193000D01*
G37*
G36*
X192974600Y-123003000D02*
G01*
X194559600Y-123003000D01*
X194559600Y-124573000D01*
X192974600Y-124573000D01*
X192974600Y-123003000D01*
G37*
G36*
X192974600Y-125193000D02*
G01*
X194559600Y-125193000D01*
X194559600Y-126763000D01*
X192974600Y-126763000D01*
X192974600Y-125193000D01*
G37*
G36*
X195174600Y-122718000D02*
G01*
X195674600Y-122718000D01*
X195674600Y-123218000D01*
X195174600Y-123218000D01*
X195174600Y-122718000D01*
G37*
G36*
X195174600Y-123998000D02*
G01*
X195674600Y-123998000D01*
X195674600Y-124498000D01*
X195174600Y-124498000D01*
X195174600Y-123998000D01*
G37*
G36*
X195174600Y-125266462D02*
G01*
X195674600Y-125266462D01*
X195674600Y-125766462D01*
X195174600Y-125766462D01*
X195174600Y-125266462D01*
G37*
G36*
X195174600Y-126548000D02*
G01*
X195674600Y-126548000D01*
X195674600Y-127048000D01*
X195174600Y-127048000D01*
X195174600Y-126548000D01*
G37*
%TO.C,Q8*%
G36*
X188840600Y-128179000D02*
G01*
X189340600Y-128179000D01*
X189340600Y-128679000D01*
X188840600Y-128679000D01*
X188840600Y-128179000D01*
G37*
G36*
X188840600Y-129460538D02*
G01*
X189340600Y-129460538D01*
X189340600Y-129960538D01*
X188840600Y-129960538D01*
X188840600Y-129460538D01*
G37*
G36*
X188840600Y-130729000D02*
G01*
X189340600Y-130729000D01*
X189340600Y-131229000D01*
X188840600Y-131229000D01*
X188840600Y-130729000D01*
G37*
G36*
X188840600Y-132009000D02*
G01*
X189340600Y-132009000D01*
X189340600Y-132509000D01*
X188840600Y-132509000D01*
X188840600Y-132009000D01*
G37*
G36*
X189955600Y-128464000D02*
G01*
X191540600Y-128464000D01*
X191540600Y-130034000D01*
X189955600Y-130034000D01*
X189955600Y-128464000D01*
G37*
G36*
X189955600Y-130654000D02*
G01*
X191540600Y-130654000D01*
X191540600Y-132224000D01*
X189955600Y-132224000D01*
X189955600Y-130654000D01*
G37*
G36*
X191843100Y-128464000D02*
G01*
X193078100Y-128464000D01*
X193078100Y-130034000D01*
X191843100Y-130034000D01*
X191843100Y-128464000D01*
G37*
G36*
X191843100Y-130654000D02*
G01*
X193078100Y-130654000D01*
X193078100Y-132224000D01*
X191843100Y-132224000D01*
X191843100Y-130654000D01*
G37*
%TO.C,Q1*%
G36*
X195333500Y-94640000D02*
G01*
X196568500Y-94640000D01*
X196568500Y-96210000D01*
X195333500Y-96210000D01*
X195333500Y-94640000D01*
G37*
G36*
X195333500Y-96830000D02*
G01*
X196568500Y-96830000D01*
X196568500Y-98400000D01*
X195333500Y-98400000D01*
X195333500Y-96830000D01*
G37*
G36*
X196871000Y-94640000D02*
G01*
X198456000Y-94640000D01*
X198456000Y-96210000D01*
X196871000Y-96210000D01*
X196871000Y-94640000D01*
G37*
G36*
X196871000Y-96830000D02*
G01*
X198456000Y-96830000D01*
X198456000Y-98400000D01*
X196871000Y-98400000D01*
X196871000Y-96830000D01*
G37*
G36*
X199071000Y-94355000D02*
G01*
X199571000Y-94355000D01*
X199571000Y-94855000D01*
X199071000Y-94855000D01*
X199071000Y-94355000D01*
G37*
G36*
X199071000Y-95635000D02*
G01*
X199571000Y-95635000D01*
X199571000Y-96135000D01*
X199071000Y-96135000D01*
X199071000Y-95635000D01*
G37*
G36*
X199071000Y-96903462D02*
G01*
X199571000Y-96903462D01*
X199571000Y-97403462D01*
X199071000Y-97403462D01*
X199071000Y-96903462D01*
G37*
G36*
X199071000Y-98185000D02*
G01*
X199571000Y-98185000D01*
X199571000Y-98685000D01*
X199071000Y-98685000D01*
X199071000Y-98185000D01*
G37*
%TO.C,Q9*%
G36*
X178048000Y-134124000D02*
G01*
X178548000Y-134124000D01*
X178548000Y-134624000D01*
X178048000Y-134624000D01*
X178048000Y-134124000D01*
G37*
G36*
X178333000Y-135239000D02*
G01*
X179903000Y-135239000D01*
X179903000Y-136824000D01*
X178333000Y-136824000D01*
X178333000Y-135239000D01*
G37*
G36*
X178333000Y-137126500D02*
G01*
X179903000Y-137126500D01*
X179903000Y-138361500D01*
X178333000Y-138361500D01*
X178333000Y-137126500D01*
G37*
G36*
X179328000Y-134124000D02*
G01*
X179828000Y-134124000D01*
X179828000Y-134624000D01*
X179328000Y-134624000D01*
X179328000Y-134124000D01*
G37*
G36*
X180523000Y-135239000D02*
G01*
X182093000Y-135239000D01*
X182093000Y-136824000D01*
X180523000Y-136824000D01*
X180523000Y-135239000D01*
G37*
G36*
X180523000Y-137126500D02*
G01*
X182093000Y-137126500D01*
X182093000Y-138361500D01*
X180523000Y-138361500D01*
X180523000Y-137126500D01*
G37*
G36*
X180596462Y-134124000D02*
G01*
X181096462Y-134124000D01*
X181096462Y-134624000D01*
X180596462Y-134624000D01*
X180596462Y-134124000D01*
G37*
G36*
X181878000Y-134124000D02*
G01*
X182378000Y-134124000D01*
X182378000Y-134624000D01*
X181878000Y-134624000D01*
X181878000Y-134124000D01*
G37*
%TD*%
D10*
%TO.C,C18*%
X193134600Y-105833000D03*
X196084600Y-105833000D03*
%TD*%
D11*
%TO.C,C12*%
X201930000Y-97585000D03*
X201930000Y-100535000D03*
%TD*%
D12*
%TO.C,C53*%
X231597200Y-140559300D03*
X231597200Y-142109300D03*
%TD*%
D13*
%TO.C,R25*%
X200439400Y-142479600D03*
X202089400Y-142479600D03*
%TD*%
D14*
%TO.C,C16*%
X225793311Y-103581200D03*
X227693311Y-103581200D03*
%TD*%
D13*
%TO.C,R3*%
X167368600Y-110151000D03*
X169018600Y-110151000D03*
%TD*%
D15*
%TO.C,C19*%
X191004600Y-105833000D03*
X188054600Y-105833000D03*
%TD*%
D16*
%TO.C,Q3*%
X194565600Y-112041000D03*
X194565600Y-113321000D03*
X194565600Y-114601000D03*
X194565600Y-115881000D03*
%TD*%
D17*
%TO.C,D6*%
X181971600Y-119549000D03*
X183371600Y-119549000D03*
%TD*%
D15*
%TO.C,C45*%
X176023800Y-135043368D03*
X173073800Y-135043368D03*
%TD*%
D18*
%TO.C,U6*%
X212486000Y-133708000D03*
X212486000Y-134358000D03*
X212486000Y-135008000D03*
X212486000Y-135658000D03*
X212486000Y-136308000D03*
X212486000Y-136958000D03*
X212486000Y-137608000D03*
X212486000Y-138258000D03*
X212486000Y-138908000D03*
X212486000Y-139558000D03*
X212486000Y-140208000D03*
X212486000Y-140858000D03*
X212486000Y-141508000D03*
X212486000Y-142158000D03*
X205486000Y-142158000D03*
X205486000Y-141508000D03*
X205486000Y-140858000D03*
X205486000Y-140208000D03*
X205486000Y-139558000D03*
X205486000Y-138908000D03*
X205486000Y-138258000D03*
X205486000Y-137608000D03*
X205486000Y-136958000D03*
X205486000Y-136308000D03*
X205486000Y-135658000D03*
X205486000Y-135008000D03*
X205486000Y-134358000D03*
X205486000Y-133708000D03*
%TD*%
D19*
%TO.C,C48*%
X239687400Y-137718800D03*
X238137400Y-137718800D03*
%TD*%
D20*
%TO.C,L2*%
X224032111Y-96824800D03*
X228032111Y-96824800D03*
%TD*%
D13*
%TO.C,R22*%
X181872000Y-130242400D03*
X183522000Y-130242400D03*
%TD*%
D19*
%TO.C,C25*%
X227515400Y-113033100D03*
X225965400Y-113033100D03*
%TD*%
D21*
%TO.C,U4*%
X174709600Y-117893000D03*
X174709600Y-119673000D03*
X174709600Y-121453000D03*
X174709600Y-123233000D03*
X174709600Y-125013000D03*
X176409600Y-117893000D03*
X176409600Y-119673000D03*
X176409600Y-121453000D03*
X176409600Y-123233000D03*
X176409600Y-125013000D03*
D22*
X172709600Y-125678000D03*
X172709600Y-125028000D03*
X172709600Y-124378000D03*
X172709600Y-123728000D03*
X172709600Y-123078000D03*
X172709600Y-122428000D03*
X172709600Y-121778000D03*
X172709600Y-121128000D03*
X172709600Y-120478000D03*
X172709600Y-119828000D03*
X172709600Y-119178000D03*
X172709600Y-118528000D03*
X172709600Y-117878000D03*
X172709600Y-117228000D03*
X178409600Y-117228000D03*
X178409600Y-117878000D03*
X178409600Y-118528000D03*
X178409600Y-119178000D03*
X178409600Y-119828000D03*
X178409600Y-120478000D03*
X178409600Y-121128000D03*
X178409600Y-121778000D03*
X178409600Y-122428000D03*
X178409600Y-123078000D03*
X178409600Y-123728000D03*
X178409600Y-124378000D03*
X178409600Y-125028000D03*
X178409600Y-125678000D03*
%TD*%
D23*
%TO.C,U7*%
X173411300Y-139422368D03*
X173411300Y-138472368D03*
X173411300Y-137522368D03*
X175686300Y-137522368D03*
X175686300Y-138472368D03*
X175686300Y-139422368D03*
%TD*%
D12*
%TO.C,C55*%
X199644000Y-146545000D03*
X199644000Y-148095000D03*
%TD*%
D16*
%TO.C,Q4*%
X189949600Y-121327000D03*
X189949600Y-120047000D03*
X189949600Y-118767000D03*
X189949600Y-117487000D03*
%TD*%
D10*
%TO.C,C14*%
X193134600Y-102277000D03*
X196084600Y-102277000D03*
%TD*%
D24*
%TO.C,C46*%
X215074200Y-135661400D03*
X216624200Y-135661400D03*
%TD*%
D14*
%TO.C,C30*%
X225514400Y-117301100D03*
X227414400Y-117301100D03*
%TD*%
D25*
%TO.C,R14*%
X187304600Y-125178500D03*
X187304600Y-119253500D03*
%TD*%
D19*
%TO.C,C33*%
X168968600Y-119295000D03*
X167418600Y-119295000D03*
%TD*%
D12*
%TO.C,C34*%
X230779000Y-119776500D03*
X230779000Y-121326500D03*
%TD*%
D26*
%TO.C,Q2*%
X232130411Y-101598900D03*
X232130411Y-99698900D03*
X234005411Y-100648900D03*
%TD*%
D17*
%TO.C,D8*%
X167493600Y-129963000D03*
X168893600Y-129963000D03*
%TD*%
D15*
%TO.C,C54*%
X176023800Y-143679368D03*
X173073800Y-143679368D03*
%TD*%
D13*
%TO.C,R13*%
X181846600Y-121073000D03*
X183496600Y-121073000D03*
%TD*%
D10*
%TO.C,C49*%
X193134600Y-138599000D03*
X196084600Y-138599000D03*
%TD*%
D12*
%TO.C,C38*%
X212547200Y-124777200D03*
X212547200Y-126327200D03*
%TD*%
D24*
%TO.C,C37*%
X181896600Y-124121000D03*
X183446600Y-124121000D03*
%TD*%
D27*
%TO.C,U8*%
X233772000Y-143256000D03*
X233772000Y-141986000D03*
X233772000Y-140716000D03*
X233772000Y-139446000D03*
X238922000Y-139446000D03*
X238922000Y-140716000D03*
X238922000Y-141986000D03*
X238922000Y-143256000D03*
%TD*%
D19*
%TO.C,C51*%
X202039400Y-140955600D03*
X200489400Y-140955600D03*
%TD*%
D17*
%TO.C,D7*%
X181997000Y-127194400D03*
X183397000Y-127194400D03*
%TD*%
D16*
%TO.C,Q6*%
X189949600Y-126803000D03*
X189949600Y-125523000D03*
X189949600Y-124243000D03*
X189949600Y-122963000D03*
%TD*%
D13*
%TO.C,R1*%
X225915400Y-108461100D03*
X227565400Y-108461100D03*
%TD*%
D28*
%TO.C,R7*%
X183496600Y-113453000D03*
X181846600Y-113453000D03*
%TD*%
D29*
%TO.C,U5*%
X210896200Y-130567200D03*
X209626200Y-130567200D03*
X208356200Y-130567200D03*
X207086200Y-130567200D03*
X207086200Y-125617200D03*
X208356200Y-125617200D03*
X209626200Y-125617200D03*
X210896200Y-125617200D03*
%TD*%
D13*
%TO.C,R6*%
X167368600Y-113199000D03*
X169018600Y-113199000D03*
%TD*%
D19*
%TO.C,C26*%
X168968600Y-114723000D03*
X167418600Y-114723000D03*
%TD*%
D10*
%TO.C,C43*%
X193134600Y-135043000D03*
X196084600Y-135043000D03*
%TD*%
D23*
%TO.C,U1*%
X188346600Y-99248000D03*
X188346600Y-98298000D03*
X188346600Y-97348000D03*
X190621600Y-97348000D03*
X190621600Y-98298000D03*
X190621600Y-99248000D03*
%TD*%
D30*
%TO.C,C41*%
X205359000Y-131331000D03*
X205359000Y-129781000D03*
%TD*%
D13*
%TO.C,R17*%
X167368600Y-125391000D03*
X169018600Y-125391000D03*
%TD*%
D31*
%TO.C,Q5*%
X225514400Y-119665600D03*
X227414400Y-119665600D03*
X226464400Y-121540600D03*
%TD*%
D13*
%TO.C,R4*%
X225915400Y-111509100D03*
X227565400Y-111509100D03*
%TD*%
D32*
%TO.C,U2*%
X227855411Y-99786400D03*
X227855411Y-100736400D03*
X227855411Y-101686400D03*
X225580411Y-101686400D03*
X225580411Y-99786400D03*
%TD*%
D33*
%TO.C,C47*%
X202214400Y-136129600D03*
X200314400Y-136129600D03*
%TD*%
D15*
%TO.C,C44*%
X191004600Y-135043000D03*
X188054600Y-135043000D03*
%TD*%
D13*
%TO.C,R19*%
X173718600Y-128439000D03*
X175368600Y-128439000D03*
%TD*%
D12*
%TO.C,C11*%
X186563600Y-97523000D03*
X186563600Y-99073000D03*
%TD*%
D15*
%TO.C,C24*%
X191004600Y-109389000D03*
X188054600Y-109389000D03*
%TD*%
%TO.C,C50*%
X191004600Y-138599000D03*
X188054600Y-138599000D03*
%TD*%
D34*
%TO.C,R11*%
X233553000Y-119726500D03*
X233553000Y-121376500D03*
%TD*%
D13*
%TO.C,R8*%
X181846600Y-114977000D03*
X183496600Y-114977000D03*
%TD*%
D16*
%TO.C,Q8*%
X194565600Y-128424000D03*
X194565600Y-129704000D03*
X194565600Y-130984000D03*
X194565600Y-132264000D03*
%TD*%
D28*
%TO.C,R23*%
X169018600Y-132249000D03*
X167368600Y-132249000D03*
%TD*%
D34*
%TO.C,R12*%
X229255000Y-119726500D03*
X229255000Y-121376500D03*
%TD*%
D13*
%TO.C,R24*%
X200439400Y-139431600D03*
X202089400Y-139431600D03*
%TD*%
D12*
%TO.C,C56*%
X198120000Y-146545000D03*
X198120000Y-148095000D03*
%TD*%
D28*
%TO.C,R21*%
X175368600Y-129963000D03*
X173718600Y-129963000D03*
%TD*%
D19*
%TO.C,C35*%
X168968600Y-120819000D03*
X167418600Y-120819000D03*
%TD*%
D31*
%TO.C,Q7*%
X225514400Y-123983600D03*
X227414400Y-123983600D03*
X226464400Y-125858600D03*
%TD*%
D30*
%TO.C,C22*%
X234486000Y-107115500D03*
X234486000Y-105565500D03*
%TD*%
D35*
%TO.C,U3*%
X229898500Y-116034000D03*
X229898500Y-115534000D03*
X229898500Y-115034000D03*
X229898500Y-114534000D03*
X229898500Y-114034000D03*
X229898500Y-113534000D03*
X229898500Y-113034000D03*
X229898500Y-112534000D03*
X229898500Y-112034000D03*
X229898500Y-111534000D03*
X229898500Y-111034000D03*
X229898500Y-110534000D03*
D36*
X231311000Y-109121500D03*
X231811000Y-109121500D03*
X232311000Y-109121500D03*
X232811000Y-109121500D03*
X233311000Y-109121500D03*
X233811000Y-109121500D03*
X234311000Y-109121500D03*
X234811000Y-109121500D03*
X235311000Y-109121500D03*
X235811000Y-109121500D03*
X236311000Y-109121500D03*
X236811000Y-109121500D03*
D35*
X238223500Y-110534000D03*
X238223500Y-111034000D03*
X238223500Y-111534000D03*
X238223500Y-112034000D03*
X238223500Y-112534000D03*
X238223500Y-113034000D03*
X238223500Y-113534000D03*
X238223500Y-114034000D03*
X238223500Y-114534000D03*
X238223500Y-115034000D03*
X238223500Y-115534000D03*
X238223500Y-116034000D03*
D36*
X236811000Y-117446500D03*
X236311000Y-117446500D03*
X235811000Y-117446500D03*
X235311000Y-117446500D03*
X234811000Y-117446500D03*
X234311000Y-117446500D03*
X233811000Y-117446500D03*
X233311000Y-117446500D03*
X232811000Y-117446500D03*
X232311000Y-117446500D03*
X231811000Y-117446500D03*
X231311000Y-117446500D03*
%TD*%
D19*
%TO.C,C39*%
X168968600Y-126915000D03*
X167418600Y-126915000D03*
%TD*%
D13*
%TO.C,R10*%
X181846600Y-118025000D03*
X183496600Y-118025000D03*
%TD*%
D19*
%TO.C,C52*%
X175323800Y-141139368D03*
X173773800Y-141139368D03*
%TD*%
%TO.C,C29*%
X183446600Y-116501000D03*
X181896600Y-116501000D03*
%TD*%
D24*
%TO.C,C42*%
X200489400Y-132319600D03*
X202039400Y-132319600D03*
%TD*%
D30*
%TO.C,C21*%
X236010000Y-107115500D03*
X236010000Y-105565500D03*
%TD*%
D16*
%TO.C,Q1*%
X193846000Y-98440000D03*
X193846000Y-97160000D03*
X193846000Y-95880000D03*
X193846000Y-94600000D03*
%TD*%
D19*
%TO.C,C27*%
X180398600Y-114977000D03*
X178848600Y-114977000D03*
%TD*%
D12*
%TO.C,C32*%
X238246600Y-117947700D03*
X238246600Y-119497700D03*
%TD*%
D37*
%TO.C,Q9*%
X182133000Y-139849000D03*
X180853000Y-139849000D03*
X179573000Y-139849000D03*
X178293000Y-139849000D03*
%TD*%
D28*
%TO.C,R9*%
X227289400Y-115269100D03*
X225639400Y-115269100D03*
%TD*%
D13*
%TO.C,R18*%
X181872000Y-125670400D03*
X183522000Y-125670400D03*
%TD*%
D19*
%TO.C,C28*%
X168968600Y-116247000D03*
X167418600Y-116247000D03*
%TD*%
D24*
%TO.C,C36*%
X181896600Y-122597000D03*
X183446600Y-122597000D03*
%TD*%
D13*
%TO.C,R20*%
X167368600Y-128439000D03*
X169018600Y-128439000D03*
%TD*%
D38*
%TO.C,D9*%
X244396500Y-140401000D03*
X244396500Y-142301000D03*
X242521500Y-141351000D03*
%TD*%
D14*
%TO.C,C17*%
X225793311Y-105613200D03*
X227693311Y-105613200D03*
%TD*%
D28*
%TO.C,R5*%
X169018600Y-111675000D03*
X167368600Y-111675000D03*
%TD*%
D19*
%TO.C,C31*%
X168968600Y-117771000D03*
X167418600Y-117771000D03*
%TD*%
D28*
%TO.C,R16*%
X169018600Y-123867000D03*
X167368600Y-123867000D03*
%TD*%
D13*
%TO.C,R2*%
X225915400Y-109985100D03*
X227565400Y-109985100D03*
%TD*%
D30*
%TO.C,C20*%
X237534000Y-107115500D03*
X237534000Y-105565500D03*
%TD*%
D15*
%TO.C,C15*%
X191004600Y-102277000D03*
X188054600Y-102277000D03*
%TD*%
D28*
%TO.C,R15*%
X169018600Y-122343000D03*
X167368600Y-122343000D03*
%TD*%
D39*
%TO.C,C13*%
X223441311Y-99786400D03*
X223441311Y-101686400D03*
%TD*%
D40*
%TO.C,L3*%
X200201900Y-134097600D03*
X202326900Y-134097600D03*
%TD*%
D10*
%TO.C,C23*%
X193134600Y-109389000D03*
X196084600Y-109389000D03*
%TD*%
D24*
%TO.C,C40*%
X181922000Y-128718400D03*
X183472000Y-128718400D03*
%TD*%
M02*
