%TF.GenerationSoftware,KiCad,Pcbnew,10.0.5*%
%TF.CreationDate,2026-08-28T15:44:15-07:00*%
%TF.ProjectId,NX-J401-Adapter-v7,4e582d4a-3430-4312-9d41-646170746572,7*%
%TF.SameCoordinates,Original*%
%TF.FileFunction,Paste,Top*%
%TF.FilePolarity,Positive*%
%FSLAX46Y46*%
G04 Gerber Fmt 4.6, Leading zero omitted, Abs format (unit mm)*
G04 Created by KiCad (PCBNEW 10.0.5) date 2026-08-28 15:44:15*
%MOMM*%
%LPD*%
G01*
G04 APERTURE LIST*
G04 Aperture macros list*
%AMRoundRect*
0 Rectangle with rounded corners*
0 $1 Rounding radius*
0 $2 $3 $4 $5 $6 $7 $8 $9 X,Y pos of 4 corners*
0 Add a 4 corners polygon primitive as box body*
4,1,4,$2,$3,$4,$5,$6,$7,$8,$9,$2,$3,0*
0 Add four circle primitives for the rounded corners*
1,1,$1+$1,$2,$3*
1,1,$1+$1,$4,$5*
1,1,$1+$1,$6,$7*
1,1,$1+$1,$8,$9*
0 Add four rect primitives between the rounded corners*
20,1,$1+$1,$2,$3,$4,$5,0*
20,1,$1+$1,$4,$5,$6,$7,0*
20,1,$1+$1,$6,$7,$8,$9,0*
20,1,$1+$1,$8,$9,$2,$3,0*%
G04 Aperture macros list end*
%ADD10RoundRect,0.250000X-0.325000X-1.100000X0.325000X-1.100000X0.325000X1.100000X-0.325000X1.100000X0*%
%ADD11RoundRect,0.250000X-0.375000X-0.625000X0.375000X-0.625000X0.375000X0.625000X-0.375000X0.625000X0*%
%ADD12RoundRect,0.075000X0.425000X-0.175000X0.425000X0.175000X-0.425000X0.175000X-0.425000X-0.175000X0*%
%ADD13RoundRect,0.187500X0.712500X-0.437500X0.712500X0.437500X-0.712500X0.437500X-0.712500X-0.437500X0*%
%ADD14RoundRect,0.250000X0.325000X1.100000X-0.325000X1.100000X-0.325000X-1.100000X0.325000X-1.100000X0*%
%ADD15RoundRect,0.250000X-1.400000X-1.000000X1.400000X-1.000000X1.400000X1.000000X-1.400000X1.000000X0*%
%ADD16RoundRect,0.090000X0.210000X0.485000X-0.210000X0.485000X-0.210000X-0.485000X0.210000X-0.485000X0*%
%ADD17RoundRect,0.045000X0.105000X0.530000X-0.105000X0.530000X-0.105000X-0.530000X0.105000X-0.530000X0*%
%ADD18RoundRect,0.250000X0.790000X0.750000X-0.790000X0.750000X-0.790000X-0.750000X0.790000X-0.750000X0*%
%ADD19RoundRect,0.525000X1.225000X-1.250000X1.225000X1.250000X-1.225000X1.250000X-1.225000X-1.250000X0*%
G04 APERTURE END LIST*
D10*
%TO.C,C10*%
X193134600Y-138599000D03*
X196084600Y-138599000D03*
%TD*%
%TO.C,C5*%
X193134600Y-109389000D03*
X196084600Y-109389000D03*
%TD*%
D11*
%TO.C,D3*%
X182800800Y-150535640D03*
X185600800Y-150535640D03*
%TD*%
D12*
%TO.C,J7*%
X238550300Y-100161400D03*
X238550300Y-98661400D03*
X238550300Y-97161400D03*
X238550300Y-95661400D03*
D13*
X243740300Y-93106400D03*
X243740300Y-102716400D03*
%TD*%
D14*
%TO.C,C1*%
X191004600Y-102277000D03*
X188054600Y-102277000D03*
%TD*%
D15*
%TO.C,D1*%
X168173400Y-135638800D03*
X168173400Y-142338800D03*
%TD*%
D10*
%TO.C,C3*%
X193134600Y-105833000D03*
X196084600Y-105833000D03*
%TD*%
D14*
%TO.C,C6*%
X176023800Y-135043368D03*
X173073800Y-135043368D03*
%TD*%
%TO.C,C9*%
X191004600Y-138599000D03*
X188054600Y-138599000D03*
%TD*%
%TO.C,C4*%
X191004600Y-109389000D03*
X188054600Y-109389000D03*
%TD*%
%TO.C,C2*%
X191004600Y-105833000D03*
X188054600Y-105833000D03*
%TD*%
D16*
%TO.C,J11*%
X195682000Y-147354000D03*
X196482000Y-147354000D03*
D17*
X197632000Y-147354000D03*
X198632000Y-147354000D03*
X199132000Y-147354000D03*
X200132000Y-147354000D03*
D16*
X202082000Y-147354000D03*
X201282000Y-147354000D03*
D17*
X200632000Y-147354000D03*
X199632000Y-147354000D03*
X198132000Y-147354000D03*
X197132000Y-147354000D03*
D18*
X193772000Y-147929000D03*
X193772000Y-151859000D03*
X203992000Y-147929000D03*
X203992000Y-151859000D03*
%TD*%
D19*
%TO.C,L1*%
X197759200Y-126716400D03*
X197759200Y-117766400D03*
%TD*%
D11*
%TO.C,D4*%
X233600800Y-150535640D03*
X236400800Y-150535640D03*
%TD*%
%TO.C,D2*%
X177720800Y-150535640D03*
X180520800Y-150535640D03*
%TD*%
D14*
%TO.C,C7*%
X191004600Y-135043000D03*
X188054600Y-135043000D03*
%TD*%
D10*
%TO.C,C8*%
X193134600Y-135043000D03*
X196084600Y-135043000D03*
%TD*%
D11*
%TO.C,D5*%
X238680800Y-150535640D03*
X241480800Y-150535640D03*
%TD*%
M02*
