%TF.GenerationSoftware,KiCad,Pcbnew,10.0.5*%
%TF.CreationDate,2026-08-28T15:44:15-07:00*%
%TF.ProjectId,NX-J401-Adapter-v7,4e582d4a-3430-4312-9d41-646170746572,7*%
%TF.SameCoordinates,Original*%
%TF.FileFunction,Profile,NP*%
%FSLAX46Y46*%
G04 Gerber Fmt 4.6, Leading zero omitted, Abs format (unit mm)*
G04 Created by KiCad (PCBNEW 10.0.5) date 2026-08-28 15:44:15*
%MOMM*%
%LPD*%
G01*
G04 APERTURE LIST*
%TA.AperFunction,Profile*%
%ADD10C,0.100000*%
%TD*%
%TA.AperFunction,Profile*%
%ADD11C,0.050000*%
%TD*%
G04 APERTURE END LIST*
D10*
X156000200Y-65418000D02*
G75*
G02*
X157016200Y-64402000I1016000J0D01*
G01*
D11*
X156000200Y-71006000D02*
X156000200Y-65418000D01*
D10*
X156000200Y-75538000D02*
X156000200Y-152500000D01*
X156000200Y-75538000D02*
G75*
G02*
X157016200Y-74522000I1016000J0D01*
G01*
D11*
X156000200Y-157032000D02*
X156000200Y-162620000D01*
D10*
X156000200Y-157032000D02*
G75*
G02*
X157016200Y-156016000I1016000J0D01*
G01*
D11*
X157016200Y-64402000D02*
X274563000Y-64402000D01*
D10*
X157016200Y-72022000D02*
G75*
G02*
X156000200Y-71006000I0J1016000D01*
G01*
D11*
X157016200Y-72022000D02*
G75*
G02*
X157766200Y-72772000I0J-750000D01*
G01*
D10*
X157016200Y-153516000D02*
G75*
G02*
X156000200Y-152500000I0J1016000D01*
G01*
D11*
X157016200Y-153516000D02*
G75*
G02*
X157766200Y-154266000I0J-750000D01*
G01*
D10*
X157016200Y-163636000D02*
G75*
G02*
X156000200Y-162620000I0J1016000D01*
G01*
D11*
X157016200Y-163636000D02*
X274563000Y-163636000D01*
X157766200Y-73772000D02*
G75*
G02*
X157016200Y-74522000I-750000J0D01*
G01*
X157766200Y-73772000D02*
X157766200Y-72772000D01*
X157766200Y-155266000D02*
G75*
G02*
X157016200Y-156016000I-750000J0D01*
G01*
X157766200Y-155266000D02*
X157766200Y-154266000D01*
X158766200Y-72772000D02*
X158766200Y-73772000D01*
X158766200Y-72772000D02*
G75*
G02*
X159516200Y-72022000I750000J0D01*
G01*
X158766200Y-154266000D02*
X158766200Y-155266000D01*
X158766200Y-154266000D02*
G75*
G02*
X159516200Y-153516000I750000J0D01*
G01*
X159516200Y-74522000D02*
G75*
G02*
X158766200Y-73772000I0J750000D01*
G01*
X159516200Y-74522000D02*
X170516200Y-74522000D01*
X159516200Y-153516000D02*
X187883100Y-153516000D01*
X159516200Y-156016000D02*
G75*
G02*
X158766200Y-155266000I0J750000D01*
G01*
X159516200Y-156016000D02*
X187883150Y-156016000D01*
D10*
X163540200Y-85738000D02*
X163540200Y-96914000D01*
X163540200Y-85738000D02*
G75*
G02*
X164556200Y-84722000I1016000J0D01*
G01*
X164556200Y-84722000D02*
X182524200Y-84722000D01*
X164556200Y-97930000D02*
G75*
G02*
X163540200Y-96914000I0J1016000D01*
G01*
D11*
X170516200Y-72022000D02*
X159516200Y-72022000D01*
X170516200Y-72022000D02*
G75*
G02*
X171266200Y-72772000I0J-750000D01*
G01*
X171266200Y-73772000D02*
G75*
G02*
X170516200Y-74522000I-750000J0D01*
G01*
X171266200Y-73772000D02*
X171266200Y-72772000D01*
X172266200Y-72772000D02*
X172266200Y-73772000D01*
X172266200Y-72772000D02*
G75*
G02*
X173016200Y-72022000I750000J0D01*
G01*
X173016200Y-74522000D02*
G75*
G02*
X172266200Y-73772000I0J750000D01*
G01*
X173016200Y-74522000D02*
X233984000Y-74522000D01*
D10*
X182524200Y-84722000D02*
G75*
G02*
X183540200Y-85738000I0J-1016000D01*
G01*
X182524200Y-97930000D02*
X164556200Y-97930000D01*
X183540200Y-85738000D02*
X183540200Y-96914000D01*
X183540200Y-96914000D02*
G75*
G02*
X182524200Y-97930000I-1016000J0D01*
G01*
D11*
X187883150Y-153516000D02*
G75*
G02*
X188633100Y-154266000I-50J-750000D01*
G01*
X188633150Y-155266000D02*
G75*
G02*
X187883150Y-156016050I-750050J0D01*
G01*
X188633150Y-155266000D02*
X188633150Y-154266000D01*
X189633150Y-154266000D02*
X189633150Y-155266000D01*
X189633150Y-154266000D02*
G75*
G02*
X190383150Y-153515950I750050J0D01*
G01*
X190383150Y-156016000D02*
G75*
G02*
X189633200Y-155266000I50J750000D01*
G01*
X190383200Y-156016000D02*
X209250100Y-156016000D01*
X190391860Y-153516000D02*
X209250100Y-153516000D01*
X209250100Y-153516000D02*
X241484000Y-153516000D01*
X209250100Y-156016000D02*
X241484000Y-156016000D01*
X233984000Y-72022000D02*
X173016200Y-72022000D01*
X233984000Y-72022000D02*
G75*
G02*
X234734000Y-72772000I0J-750000D01*
G01*
X234734000Y-73772000D02*
G75*
G02*
X233984000Y-74522000I-750000J0D01*
G01*
X234734000Y-73772000D02*
X234734000Y-72772000D01*
X235734000Y-72772000D02*
X235734000Y-73772000D01*
X235734000Y-72772000D02*
G75*
G02*
X236484000Y-72022000I750000J0D01*
G01*
X236484000Y-74522000D02*
G75*
G02*
X235734000Y-73772000I0J750000D01*
G01*
X236484000Y-74522000D02*
X252484000Y-74522000D01*
X241484000Y-153516000D02*
G75*
G02*
X242234000Y-154266000I0J-750000D01*
G01*
X242234000Y-155266000D02*
G75*
G02*
X241484000Y-156016000I-750000J0D01*
G01*
X242234000Y-155266000D02*
X242234000Y-154266000D01*
X243234000Y-154266000D02*
X243234000Y-155266000D01*
X243234000Y-154266000D02*
G75*
G02*
X243984000Y-153516000I750000J0D01*
G01*
X243984000Y-153516000D02*
X254984000Y-153516000D01*
X243984000Y-156016000D02*
G75*
G02*
X243234000Y-155266000I0J750000D01*
G01*
X252484000Y-72022000D02*
X236484000Y-72022000D01*
X252484000Y-72022000D02*
G75*
G02*
X253234000Y-72772000I0J-750000D01*
G01*
X253234000Y-73772000D02*
G75*
G02*
X252484000Y-74522000I-750000J0D01*
G01*
X253234000Y-73772000D02*
X253234000Y-72772000D01*
X254234000Y-72772000D02*
X254234000Y-73772000D01*
X254234000Y-72772000D02*
G75*
G02*
X254984000Y-72022000I750000J0D01*
G01*
X254984000Y-72022000D02*
X257484000Y-72022000D01*
X254984000Y-74522000D02*
G75*
G02*
X254234000Y-73772000I0J750000D01*
G01*
D10*
X254984000Y-74522000D02*
G75*
G02*
X256000000Y-75538000I0J-1016000D01*
G01*
D11*
X256000000Y-78038000D02*
X256000000Y-84428000D01*
X256000000Y-78038000D02*
G75*
G02*
X256750000Y-77288000I750000J0D01*
G01*
D10*
X256000000Y-86928000D02*
X256000000Y-102208000D01*
D11*
X256000000Y-86928000D02*
G75*
G02*
X256750000Y-86178000I750000J0D01*
G01*
D10*
X256000000Y-104708000D02*
X256000000Y-133669050D01*
D11*
X256000000Y-104708000D02*
G75*
G02*
X256750000Y-103958000I750000J0D01*
G01*
X256000000Y-136169050D02*
X256000000Y-150000000D01*
X256000000Y-136169050D02*
G75*
G02*
X256750000Y-135419100I750000J-50D01*
G01*
D10*
X256000000Y-152500000D02*
G75*
G02*
X254984000Y-153516000I-1016000J0D01*
G01*
D11*
X256000000Y-152500000D02*
G75*
G02*
X256750000Y-151750000I750000J0D01*
G01*
X256750000Y-76288000D02*
G75*
G02*
X256000000Y-75538000I0J750000D01*
G01*
X256750000Y-76288000D02*
X257750000Y-76288000D01*
X256750000Y-85178000D02*
G75*
G02*
X256000000Y-84428000I0J750000D01*
G01*
X256750000Y-85178000D02*
X257750000Y-85178000D01*
X256750000Y-102958000D02*
G75*
G02*
X256000000Y-102208000I0J750000D01*
G01*
X256750000Y-102958000D02*
X257750000Y-102958000D01*
X256750000Y-134419050D02*
G75*
G02*
X255999950Y-133669050I0J750050D01*
G01*
X256750000Y-134419050D02*
X257750000Y-134419050D01*
X256750000Y-150750000D02*
G75*
G02*
X256000000Y-150000000I0J750000D01*
G01*
X256750000Y-150750000D02*
X257750000Y-150750000D01*
D10*
X257484000Y-72022000D02*
G75*
G02*
X258500000Y-73038000I0J-1016000D01*
G01*
D11*
X257484000Y-156016000D02*
X243984000Y-156016000D01*
X257750000Y-77288000D02*
X256750000Y-77288000D01*
X257750000Y-77288000D02*
G75*
G02*
X258500000Y-78038000I0J-750000D01*
G01*
X257750000Y-86178000D02*
X256750000Y-86178000D01*
X257750000Y-86178000D02*
G75*
G02*
X258500000Y-86928000I0J-750000D01*
G01*
X257750000Y-103958000D02*
X256750000Y-103958000D01*
X257750000Y-103958000D02*
G75*
G02*
X258500000Y-104708000I0J-750000D01*
G01*
X257750000Y-135419050D02*
X256750000Y-135419050D01*
X257750000Y-135419050D02*
G75*
G02*
X258500050Y-136169050I0J-750050D01*
G01*
X257750000Y-151750000D02*
X256750000Y-151750000D01*
X257750000Y-151750000D02*
G75*
G02*
X258500000Y-152500000I0J-750000D01*
G01*
X258500000Y-73038000D02*
X258500000Y-75538000D01*
X258500000Y-75538000D02*
G75*
G02*
X257750000Y-76288000I-750000J0D01*
G01*
X258500000Y-78038000D02*
X258500000Y-78372000D01*
D10*
X258500000Y-83412000D02*
G75*
G02*
X259770000Y-82142000I1270000J0D01*
G01*
D11*
X258500000Y-84428000D02*
G75*
G02*
X257750000Y-85178000I-750000J0D01*
G01*
D10*
X258500000Y-84428000D02*
X258500000Y-83412000D01*
X258500000Y-86928000D02*
X258500000Y-102208000D01*
D11*
X258500000Y-102208000D02*
G75*
G02*
X257750000Y-102958000I-750000J0D01*
G01*
D10*
X258500000Y-104708000D02*
X258500000Y-133669050D01*
D11*
X258500000Y-133669050D02*
G75*
G02*
X257750000Y-134419000I-750000J50D01*
G01*
D10*
X258500000Y-138377600D02*
X258500000Y-136167800D01*
D11*
X258500000Y-143417600D02*
X258500000Y-150000000D01*
D10*
X258500000Y-143417600D02*
G75*
G02*
X259770000Y-142147600I1270000J0D01*
G01*
D11*
X258500000Y-150000000D02*
G75*
G02*
X257750000Y-150750000I-750000J0D01*
G01*
X258500000Y-152500000D02*
X258500000Y-155000000D01*
D10*
X258500000Y-155000000D02*
G75*
G02*
X257484000Y-156016000I-1016000J0D01*
G01*
X259770000Y-79642000D02*
G75*
G02*
X258500000Y-78372000I0J1270000D01*
G01*
D11*
X259770000Y-79642000D02*
G75*
G02*
X260520000Y-80392000I0J-750000D01*
G01*
D10*
X259770000Y-139647600D02*
G75*
G02*
X258500000Y-138377600I0J1270000D01*
G01*
D11*
X259770000Y-139647600D02*
G75*
G02*
X260520000Y-140397600I0J-750000D01*
G01*
X260520000Y-81392000D02*
G75*
G02*
X259770000Y-82142000I-750000J0D01*
G01*
X260520000Y-81392000D02*
X260520000Y-80392000D01*
X260520000Y-141397600D02*
G75*
G02*
X259770000Y-142147600I-750000J0D01*
G01*
X260520000Y-141397600D02*
X260520000Y-140397600D01*
X261520000Y-80392000D02*
X261520000Y-81392000D01*
X261520000Y-80392000D02*
G75*
G02*
X262270000Y-79642000I750000J0D01*
G01*
X261520000Y-140397600D02*
X261520000Y-141397600D01*
X261520000Y-140397600D02*
G75*
G02*
X262270000Y-139647600I750000J0D01*
G01*
X262270000Y-79642000D02*
X271809000Y-79642000D01*
X262270000Y-82142000D02*
G75*
G02*
X261520000Y-81392000I0J750000D01*
G01*
X262270000Y-82142000D02*
X271809000Y-82142000D01*
X262270000Y-139647600D02*
X271809000Y-139647600D01*
X262270000Y-142147600D02*
G75*
G02*
X261520000Y-141397600I0J750000D01*
G01*
X262270000Y-142147600D02*
X271809000Y-142147600D01*
X271809000Y-79642000D02*
G75*
G02*
X272559000Y-80392000I0J-750000D01*
G01*
X271809000Y-139647600D02*
G75*
G02*
X272559000Y-140397600I0J-750000D01*
G01*
X272559000Y-81392000D02*
G75*
G02*
X271809000Y-82142000I-750000J0D01*
G01*
X272559000Y-81392000D02*
X272559000Y-80392000D01*
X272559000Y-141397600D02*
G75*
G02*
X271809000Y-142147600I-750000J0D01*
G01*
X272559000Y-141397600D02*
X272559000Y-140397600D01*
X273559000Y-80392000D02*
X273559000Y-81392000D01*
X273559000Y-80392000D02*
G75*
G02*
X274309000Y-79642000I750000J0D01*
G01*
X273559000Y-140397600D02*
X273559000Y-141397600D01*
X273559000Y-140397600D02*
G75*
G02*
X274309000Y-139647600I750000J0D01*
G01*
X274309000Y-82142000D02*
G75*
G02*
X273559000Y-81392000I0J750000D01*
G01*
D10*
X274309000Y-82142000D02*
G75*
G02*
X275579000Y-83412000I0J-1270000D01*
G01*
D11*
X274309000Y-142147600D02*
G75*
G02*
X273559000Y-141397600I0J750000D01*
G01*
D10*
X274309000Y-142147600D02*
G75*
G02*
X275579000Y-143417600I0J-1270000D01*
G01*
X274563000Y-64402000D02*
G75*
G02*
X275579000Y-65418000I0J-1016000D01*
G01*
D11*
X275579000Y-65418000D02*
X275579000Y-78372000D01*
D10*
X275579000Y-78372000D02*
G75*
G02*
X274309000Y-79642000I-1270000J0D01*
G01*
X275579000Y-83419127D02*
X275579000Y-138377600D01*
X275579000Y-138377600D02*
G75*
G02*
X274309000Y-139647600I-1270000J0D01*
G01*
D11*
X275579000Y-143417600D02*
X275579000Y-162620000D01*
D10*
X275579000Y-162620000D02*
G75*
G02*
X274563000Y-163636000I-1016000J0D01*
G01*
M02*
