%TF.GenerationSoftware,KiCad,Pcbnew,10.0.5-10.0.5~ubuntu24.04.1*%
%TF.CreationDate,2026-08-14T20:03:26-07:00*%
%TF.ProjectId,NX-J401-Adapter-v7,4e582d4a-3430-4312-9d41-646170746572,7*%
%TF.SameCoordinates,Original*%
%TF.FileFunction,Copper,L4,Bot*%
%TF.FilePolarity,Positive*%
%FSLAX46Y46*%
G04 Gerber Fmt 4.6, Leading zero omitted, Abs format (unit mm)*
G04 Created by KiCad (PCBNEW 10.0.5-10.0.5~ubuntu24.04.1) date 2026-08-14 20:03:26*
%MOMM*%
%LPD*%
G01*
G04 APERTURE LIST*
G04 Aperture macros list*
%AMRoundRect*
0 Rectangle with rounded corners*
0 $1 Rounding radius*
0 $2 $3 $4 $5 $6 $7 $8 $9 X,Y pos of 4 corners*
0 Add a 4 corners polygon primitive as box body*
4,1,4,$2,$3,$4,$5,$6,$7,$8,$9,$2,$3,0*
0 Add four circle primitives for the rounded corners*
1,1,$1+$1,$2,$3*
1,1,$1+$1,$4,$5*
1,1,$1+$1,$6,$7*
1,1,$1+$1,$8,$9*
0 Add four rect primitives between the rounded corners*
20,1,$1+$1,$2,$3,$4,$5,0*
20,1,$1+$1,$4,$5,$6,$7,0*
20,1,$1+$1,$6,$7,$8,$9,0*
20,1,$1+$1,$8,$9,$2,$3,0*%
%AMFreePoly0*
4,1,18,2.145000,-2.250000,-2.145000,-2.250000,-2.805000,-2.250000,-2.805000,-1.590000,-2.145000,-1.590000,-2.145000,-0.970000,-2.805000,-0.970000,-2.805000,-0.310000,-2.145000,-0.310000,-2.145000,0.310000,-2.805000,0.310000,-2.805000,0.970000,-2.145000,0.970000,-2.145000,1.590000,-2.805000,1.590000,-2.805000,2.250000,2.145000,2.250000,2.145000,-2.250000,2.145000,-2.250000,$1*%
G04 Aperture macros list end*
%TA.AperFunction,ComponentPad*%
%ADD10C,1.498600*%
%TD*%
%TA.AperFunction,ComponentPad*%
%ADD11C,1.803400*%
%TD*%
%TA.AperFunction,ComponentPad*%
%ADD12R,1.700000X1.700000*%
%TD*%
%TA.AperFunction,ComponentPad*%
%ADD13C,1.700000*%
%TD*%
%TA.AperFunction,ComponentPad*%
%ADD14RoundRect,0.250001X0.499999X0.759999X-0.499999X0.759999X-0.499999X-0.759999X0.499999X-0.759999X0*%
%TD*%
%TA.AperFunction,ComponentPad*%
%ADD15O,1.500000X2.020000*%
%TD*%
%TA.AperFunction,ComponentPad*%
%ADD16C,2.794000*%
%TD*%
%TA.AperFunction,ComponentPad*%
%ADD17RoundRect,0.250001X0.759999X-0.499999X0.759999X0.499999X-0.759999X0.499999X-0.759999X-0.499999X0*%
%TD*%
%TA.AperFunction,ComponentPad*%
%ADD18O,2.020000X1.500000*%
%TD*%
%TA.AperFunction,ComponentPad*%
%ADD19R,1.778000X1.778000*%
%TD*%
%TA.AperFunction,ComponentPad*%
%ADD20C,1.778000*%
%TD*%
%TA.AperFunction,SMDPad,CuDef*%
%ADD21RoundRect,0.250000X-0.325000X-1.100000X0.325000X-1.100000X0.325000X1.100000X-0.325000X1.100000X0*%
%TD*%
%TA.AperFunction,SMDPad,CuDef*%
%ADD22RoundRect,0.250000X-1.100000X0.325000X-1.100000X-0.325000X1.100000X-0.325000X1.100000X0.325000X0*%
%TD*%
%TA.AperFunction,SMDPad,CuDef*%
%ADD23RoundRect,0.225000X-0.250000X0.225000X-0.250000X-0.225000X0.250000X-0.225000X0.250000X0.225000X0*%
%TD*%
%TA.AperFunction,SMDPad,CuDef*%
%ADD24RoundRect,0.200000X-0.200000X-0.275000X0.200000X-0.275000X0.200000X0.275000X-0.200000X0.275000X0*%
%TD*%
%TA.AperFunction,SMDPad,CuDef*%
%ADD25RoundRect,0.250000X-0.250000X-0.475000X0.250000X-0.475000X0.250000X0.475000X-0.250000X0.475000X0*%
%TD*%
%TA.AperFunction,SMDPad,CuDef*%
%ADD26RoundRect,0.250000X0.325000X1.100000X-0.325000X1.100000X-0.325000X-1.100000X0.325000X-1.100000X0*%
%TD*%
%TA.AperFunction,SMDPad,CuDef*%
%ADD27R,0.750000X0.660000*%
%TD*%
%TA.AperFunction,SMDPad,CuDef*%
%ADD28FreePoly0,0.000000*%
%TD*%
%TA.AperFunction,SMDPad,CuDef*%
%ADD29RoundRect,0.150000X0.150000X0.200000X-0.150000X0.200000X-0.150000X-0.200000X0.150000X-0.200000X0*%
%TD*%
%TA.AperFunction,SMDPad,CuDef*%
%ADD30RoundRect,0.100000X0.850000X0.100000X-0.850000X0.100000X-0.850000X-0.100000X0.850000X-0.100000X0*%
%TD*%
%TA.AperFunction,SMDPad,CuDef*%
%ADD31RoundRect,0.225000X0.225000X0.250000X-0.225000X0.250000X-0.225000X-0.250000X0.225000X-0.250000X0*%
%TD*%
%TA.AperFunction,SMDPad,CuDef*%
%ADD32RoundRect,0.225000X0.525000X1.025000X-0.525000X1.025000X-0.525000X-1.025000X0.525000X-1.025000X0*%
%TD*%
%TA.AperFunction,SMDPad,CuDef*%
%ADD33R,1.100000X0.400000*%
%TD*%
%TA.AperFunction,ComponentPad*%
%ADD34C,0.600000*%
%TD*%
%TA.AperFunction,SMDPad,CuDef*%
%ADD35R,3.400000X9.500000*%
%TD*%
%TA.AperFunction,SMDPad,CuDef*%
%ADD36RoundRect,0.150000X-0.512500X-0.150000X0.512500X-0.150000X0.512500X0.150000X-0.512500X0.150000X0*%
%TD*%
%TA.AperFunction,SMDPad,CuDef*%
%ADD37FreePoly0,180.000000*%
%TD*%
%TA.AperFunction,SMDPad,CuDef*%
%ADD38RoundRect,0.225000X-0.225000X-0.250000X0.225000X-0.250000X0.225000X0.250000X-0.225000X0.250000X0*%
%TD*%
%TA.AperFunction,SMDPad,CuDef*%
%ADD39RoundRect,0.250000X1.425000X-0.362500X1.425000X0.362500X-1.425000X0.362500X-1.425000X-0.362500X0*%
%TD*%
%TA.AperFunction,SMDPad,CuDef*%
%ADD40RoundRect,0.150000X-0.587500X-0.150000X0.587500X-0.150000X0.587500X0.150000X-0.587500X0.150000X0*%
%TD*%
%TA.AperFunction,SMDPad,CuDef*%
%ADD41RoundRect,0.150000X-0.725000X-0.150000X0.725000X-0.150000X0.725000X0.150000X-0.725000X0.150000X0*%
%TD*%
%TA.AperFunction,SMDPad,CuDef*%
%ADD42RoundRect,0.200000X0.200000X0.275000X-0.200000X0.275000X-0.200000X-0.275000X0.200000X-0.275000X0*%
%TD*%
%TA.AperFunction,SMDPad,CuDef*%
%ADD43RoundRect,0.150000X0.150000X-0.825000X0.150000X0.825000X-0.150000X0.825000X-0.150000X-0.825000X0*%
%TD*%
%TA.AperFunction,SMDPad,CuDef*%
%ADD44RoundRect,0.225000X0.250000X-0.225000X0.250000X0.225000X-0.250000X0.225000X-0.250000X-0.225000X0*%
%TD*%
%TA.AperFunction,SMDPad,CuDef*%
%ADD45RoundRect,0.150000X-0.150000X0.587500X-0.150000X-0.587500X0.150000X-0.587500X0.150000X0.587500X0*%
%TD*%
%TA.AperFunction,SMDPad,CuDef*%
%ADD46RoundRect,0.150000X0.512500X0.150000X-0.512500X0.150000X-0.512500X-0.150000X0.512500X-0.150000X0*%
%TD*%
%TA.AperFunction,SMDPad,CuDef*%
%ADD47RoundRect,0.250000X0.250000X0.475000X-0.250000X0.475000X-0.250000X-0.475000X0.250000X-0.475000X0*%
%TD*%
%TA.AperFunction,SMDPad,CuDef*%
%ADD48RoundRect,0.200000X-0.275000X0.200000X-0.275000X-0.200000X0.275000X-0.200000X0.275000X0.200000X0*%
%TD*%
%TA.AperFunction,SMDPad,CuDef*%
%ADD49RoundRect,0.075000X-0.662500X-0.075000X0.662500X-0.075000X0.662500X0.075000X-0.662500X0.075000X0*%
%TD*%
%TA.AperFunction,SMDPad,CuDef*%
%ADD50RoundRect,0.075000X-0.075000X-0.662500X0.075000X-0.662500X0.075000X0.662500X-0.075000X0.662500X0*%
%TD*%
%TA.AperFunction,SMDPad,CuDef*%
%ADD51R,0.660000X0.750000*%
%TD*%
%TA.AperFunction,SMDPad,CuDef*%
%ADD52FreePoly0,270.000000*%
%TD*%
%TA.AperFunction,SMDPad,CuDef*%
%ADD53RoundRect,0.150000X0.587500X0.150000X-0.587500X0.150000X-0.587500X-0.150000X0.587500X-0.150000X0*%
%TD*%
%TA.AperFunction,SMDPad,CuDef*%
%ADD54RoundRect,0.250000X-0.475000X0.250000X-0.475000X-0.250000X0.475000X-0.250000X0.475000X0.250000X0*%
%TD*%
%TA.AperFunction,SMDPad,CuDef*%
%ADD55RoundRect,0.218750X-0.218750X-0.381250X0.218750X-0.381250X0.218750X0.381250X-0.218750X0.381250X0*%
%TD*%
%TA.AperFunction,ViaPad*%
%ADD56C,0.600000*%
%TD*%
%TA.AperFunction,ViaPad*%
%ADD57C,0.889000*%
%TD*%
%TA.AperFunction,ViaPad*%
%ADD58C,1.143000*%
%TD*%
%TA.AperFunction,ViaPad*%
%ADD59C,0.609600*%
%TD*%
%TA.AperFunction,Conductor*%
%ADD60C,0.381000*%
%TD*%
%TA.AperFunction,Conductor*%
%ADD61C,0.635000*%
%TD*%
%TA.AperFunction,Conductor*%
%ADD62C,0.254000*%
%TD*%
%TA.AperFunction,Conductor*%
%ADD63C,0.508000*%
%TD*%
%TA.AperFunction,Conductor*%
%ADD64C,0.304800*%
%TD*%
G04 APERTURE END LIST*
D10*
%TO.P,SW1,1,1_1*%
%TO.N,/~{SYS_RESET}*%
X213142000Y-150646900D03*
%TO.P,SW1,2,2_2*%
%TO.N,GND1*%
X217642001Y-150646900D03*
D11*
%TO.P,SW1,3*%
%TO.N,N/C*%
X211892001Y-148147024D03*
%TO.P,SW1,4*%
X218892000Y-148147024D03*
%TD*%
D12*
%TO.P,J5,1,Pin_1_1*%
%TO.N,/NX-Button Interface/3V3_BTN*%
X262241680Y-93141800D03*
D13*
%TO.P,J5,2,Pin_2_2*%
%TO.N,unconnected-(J5-Pin_2-Pad2)*%
X262241680Y-95681800D03*
%TO.P,J5,3,Pin_3_3*%
%TO.N,unconnected-(J5-Pin_3-Pad3)*%
X262241680Y-98221800D03*
%TO.P,J5,4,Pin_4_4*%
%TO.N,/NX-Button Interface/NX_PC_LED-*%
X262241680Y-100761800D03*
%TO.P,J5,5,Pin_5_5*%
%TO.N,/NX-Button Interface/NX_PC_LED+*%
X262241680Y-103301800D03*
%TO.P,J5,6,Pin_6_6*%
%TO.N,/NX-Button Interface/UART2_RXD*%
X262241680Y-105841800D03*
%TO.P,J5,7,Pin_7_7*%
%TO.N,/NX-Button Interface/UART2_TXD*%
X262241680Y-108381800D03*
%TO.P,J5,8,Pin_8_8*%
%TO.N,unconnected-(J5-Pin_8-Pad8)*%
X262241680Y-110921800D03*
%TO.P,J5,9,Pin_9_9*%
%TO.N,unconnected-(J5-Pin_9-Pad9)*%
X262241680Y-113461800D03*
%TO.P,J5,10,Pin_10_10*%
%TO.N,/NX-Button Interface/GND_BTN*%
X262241680Y-116001800D03*
%TO.P,J5,11,Pin_11_11*%
%TO.N,/NX-Button Interface/~{SYS_RESET}*%
X262241680Y-118541800D03*
%TO.P,J5,12,Pin_12_12*%
%TO.N,/NX-Button Interface/GND_BTN*%
X262241680Y-121081800D03*
%TO.P,J5,13,Pin_13_13*%
%TO.N,/NX-Button Interface/~{REC}*%
X262241680Y-123621800D03*
%TO.P,J5,14,Pin_14_14*%
%TO.N,unconnected-(J5-Pin_14-Pad14)*%
X262241680Y-126161800D03*
%TO.P,J5,15,Pin_15_15*%
%TO.N,unconnected-(J5-Pin_15-Pad15)*%
X262241680Y-128701800D03*
%TD*%
D12*
%TO.P,J8,1,Pin_1_1*%
%TO.N,/CANable2.0/GND_CAN*%
X245499337Y-114629649D03*
D13*
%TO.P,J8,2,Pin_2_2*%
%TO.N,/CANable2.0/SWDIO*%
X245499337Y-117169649D03*
%TO.P,J8,3,Pin_3_3*%
%TO.N,/CANable2.0/SWCLK*%
X245499337Y-119709649D03*
%TO.P,J8,4,Pin_4_4*%
%TO.N,/CANable2.0/BOOT0*%
X245499337Y-122249649D03*
%TO.P,J8,5,Pin_5_5*%
%TO.N,/CANable2.0/3V3*%
X245499337Y-124789649D03*
%TD*%
D14*
%TO.P,J10,1,Pin_1_1*%
%TO.N,GND*%
X167235000Y-146296000D03*
D15*
%TO.P,J10,2,Pin_2_2*%
%TO.N,/V_IN*%
X164235000Y-146296000D03*
%TD*%
D10*
%TO.P,SW2,1,1_1*%
%TO.N,/~{REC}*%
X223810000Y-150697700D03*
%TO.P,SW2,2,2_2*%
%TO.N,GND1*%
X228310001Y-150697700D03*
D11*
%TO.P,SW2,3*%
%TO.N,N/C*%
X222560001Y-148197824D03*
%TO.P,SW2,4*%
X229560000Y-148197824D03*
%TD*%
D16*
%TO.P,J2,1*%
%TO.N,N/C*%
X230783722Y-81717324D03*
X230783722Y-76637324D03*
X225348122Y-81717324D03*
X225348122Y-76637324D03*
%TD*%
D17*
%TO.P,J4,1,Pin_1_1*%
%TO.N,GND*%
X190860200Y-92826000D03*
D18*
%TO.P,J4,2,Pin_2_2*%
%TO.N,/V_OUT*%
X190860200Y-89826000D03*
%TD*%
D16*
%TO.P,J1,1*%
%TO.N,N/C*%
X180898122Y-81717324D03*
X180898122Y-76637324D03*
X175462522Y-81717324D03*
X175462522Y-76637324D03*
%TD*%
D12*
%TO.P,J3,1,Pin_1_1*%
%TO.N,/3V3_BTN*%
X185343122Y-84739924D03*
D13*
%TO.P,J3,2,Pin_2_2*%
%TO.N,unconnected-(J3-Pin_2-Pad2)*%
X187883122Y-84739924D03*
%TO.P,J3,3,Pin_3_3*%
%TO.N,unconnected-(J3-Pin_3-Pad3)*%
X190423122Y-84739924D03*
%TO.P,J3,4,Pin_4_4*%
%TO.N,/NX_PC_LED-*%
X192963122Y-84739924D03*
%TO.P,J3,5,Pin_5_5*%
%TO.N,/NX_PC_LED+*%
X195503122Y-84739924D03*
%TO.P,J3,6,Pin_6_6*%
%TO.N,/UART2_RXD*%
X198043122Y-84739924D03*
%TO.P,J3,7,Pin_7_7*%
%TO.N,/UART2_TXD*%
X200583122Y-84739924D03*
%TO.P,J3,8,Pin_8_8*%
%TO.N,unconnected-(J3-Pin_8-Pad8)*%
X203123122Y-84739924D03*
%TO.P,J3,9,Pin_9_9*%
%TO.N,unconnected-(J3-Pin_9-Pad9)*%
X205663122Y-84739924D03*
%TO.P,J3,10,Pin_10_10*%
%TO.N,GND1*%
X208203122Y-84739924D03*
%TO.P,J3,11,Pin_11_11*%
%TO.N,/~{SYS_RESET}*%
X210743122Y-84739924D03*
%TO.P,J3,12,Pin_12_12*%
%TO.N,GND1*%
X213283122Y-84739924D03*
%TO.P,J3,13,Pin_13_13*%
%TO.N,/~{REC}*%
X215823122Y-84739924D03*
%TO.P,J3,14,Pin_14_14*%
%TO.N,unconnected-(J3-Pin_14-Pad14)*%
X218363122Y-84739924D03*
%TO.P,J3,15,Pin_15_15*%
%TO.N,unconnected-(J3-Pin_15-Pad15)*%
X220903122Y-84739924D03*
%TD*%
D19*
%TO.P,J9,1,Pin_1_1*%
%TO.N,/CANable2.0/CAN_L*%
X250418600Y-142207300D03*
D20*
%TO.P,J9,2,Pin_2_2*%
%TO.N,/CANable2.0/CAN_H*%
X247878600Y-142207300D03*
%TD*%
D12*
%TO.P,J6,1,Pin_1_1*%
%TO.N,/NX-Button Interface/3V3_BTN*%
X271841680Y-93141800D03*
D13*
%TO.P,J6,2,Pin_2_2*%
%TO.N,unconnected-(J6-Pin_2-Pad2)*%
X271841680Y-95681800D03*
%TO.P,J6,3,Pin_3_3*%
%TO.N,unconnected-(J6-Pin_3-Pad3)*%
X271841680Y-98221800D03*
%TO.P,J6,4,Pin_4_4*%
%TO.N,/NX-Button Interface/NX_PC_LED-*%
X271841680Y-100761800D03*
%TO.P,J6,5,Pin_5_5*%
%TO.N,/NX-Button Interface/NX_PC_LED+*%
X271841680Y-103301800D03*
%TO.P,J6,6,Pin_6_6*%
%TO.N,/NX-Button Interface/UART2_RXD*%
X271841680Y-105841800D03*
%TO.P,J6,7,Pin_7_7*%
%TO.N,/NX-Button Interface/UART2_TXD*%
X271841680Y-108381800D03*
%TO.P,J6,8,Pin_8_8*%
%TO.N,unconnected-(J6-Pin_8-Pad8)*%
X271841680Y-110921800D03*
%TO.P,J6,9,Pin_9_9*%
%TO.N,unconnected-(J6-Pin_9-Pad9)*%
X271841680Y-113461800D03*
%TO.P,J6,10,Pin_10_10*%
%TO.N,/NX-Button Interface/GND_BTN*%
X271841680Y-116001800D03*
%TO.P,J6,11,Pin_11_11*%
%TO.N,/NX-Button Interface/~{SYS_RESET}*%
X271841680Y-118541800D03*
%TO.P,J6,12,Pin_12_12*%
%TO.N,/NX-Button Interface/GND_BTN*%
X271841680Y-121081800D03*
%TO.P,J6,13,Pin_13_13*%
%TO.N,/NX-Button Interface/~{REC}*%
X271841680Y-123621800D03*
%TO.P,J6,14,Pin_14_14*%
%TO.N,unconnected-(J6-Pin_14-Pad14)*%
X271841680Y-126161800D03*
%TO.P,J6,15,Pin_15_15*%
%TO.N,unconnected-(J6-Pin_15-Pad15)*%
X271841680Y-128701800D03*
%TD*%
D21*
%TO.P,C18,1*%
%TO.N,/15V 3A Buck-Boost Power Supply/+V_OUT*%
X193134600Y-105833000D03*
%TO.P,C18,2*%
%TO.N,GND*%
X196084600Y-105833000D03*
%TD*%
D22*
%TO.P,C12,1*%
%TO.N,/V_OUT*%
X201930000Y-97585000D03*
%TO.P,C12,2*%
%TO.N,GND*%
X201930000Y-100535000D03*
%TD*%
D23*
%TO.P,C53,1*%
%TO.N,/CANable2.0/5V_CAN*%
X231597200Y-140559300D03*
%TO.P,C53,2*%
%TO.N,/CANable2.0/GND_CAN*%
X231597200Y-142109300D03*
%TD*%
D24*
%TO.P,R25,1*%
%TO.N,Net-(J11-CC2)*%
X200439400Y-142479600D03*
%TO.P,R25,2*%
%TO.N,GND_USB*%
X202089400Y-142479600D03*
%TD*%
D25*
%TO.P,C16,1*%
%TO.N,/CANable2.0/5V_CAN*%
X225793311Y-103581200D03*
%TO.P,C16,2*%
%TO.N,/CANable2.0/GND_CAN*%
X227693311Y-103581200D03*
%TD*%
D24*
%TO.P,R3,1*%
%TO.N,/15V 3A Buck-Boost Power Supply/+V_OUT*%
X167368600Y-110151000D03*
%TO.P,R3,2*%
%TO.N,Net-(U4-FB)*%
X169018600Y-110151000D03*
%TD*%
D26*
%TO.P,C19,1*%
%TO.N,/15V 3A Buck-Boost Power Supply/+V_OUT*%
X191004600Y-105833000D03*
%TO.P,C19,2*%
%TO.N,GND*%
X188054600Y-105833000D03*
%TD*%
D27*
%TO.P,Q3,1,S_1*%
%TO.N,/15V 3A Buck-Boost Power Supply/SW2*%
X194565600Y-112041000D03*
%TO.P,Q3,2,S_2*%
X194565600Y-113321000D03*
%TO.P,Q3,3,S_3*%
X194565600Y-114601000D03*
%TO.P,Q3,4,G_4*%
%TO.N,/15V 3A Buck-Boost Power Supply/HDRV2*%
X194565600Y-115881000D03*
D28*
%TO.P,Q3,5,D_5*%
%TO.N,/15V 3A Buck-Boost Power Supply/+V_OUT*%
X191495600Y-113961000D03*
%TD*%
D29*
%TO.P,D6,1,K_1*%
%TO.N,Net-(D6-K)*%
X181971600Y-119549000D03*
%TO.P,D6,2,A_2*%
%TO.N,/15V 3A Buck-Boost Power Supply/Vcc*%
X183371600Y-119549000D03*
%TD*%
D26*
%TO.P,C45,1*%
%TO.N,/VIN_PS*%
X176023800Y-135043368D03*
%TO.P,C45,2*%
%TO.N,GND*%
X173073800Y-135043368D03*
%TD*%
D30*
%TO.P,U6,1,TXD_1*%
%TO.N,Net-(U5-IN_{B})*%
X212486000Y-133708000D03*
%TO.P,U6,2,~{DTR}_2*%
%TO.N,unconnected-(U6-~{DTR}-Pad2)*%
X212486000Y-134358000D03*
%TO.P,U6,3,~{RTS}_3*%
%TO.N,unconnected-(U6-~{RTS}-Pad3)*%
X212486000Y-135008000D03*
%TO.P,U6,4,VCCIO_4*%
%TO.N,Net-(U6-VCC)*%
X212486000Y-135658000D03*
%TO.P,U6,5,RXD_5*%
%TO.N,Net-(U5-OUT_{A})*%
X212486000Y-136308000D03*
%TO.P,U6,6,~{RI}_6*%
%TO.N,unconnected-(U6-~{RI}-Pad6)*%
X212486000Y-136958000D03*
%TO.P,U6,7,GND_7*%
%TO.N,GND_USB*%
X212486000Y-137608000D03*
%TO.P,U6,8,NC_8*%
%TO.N,unconnected-(U6-NC-Pad8)*%
X212486000Y-138258000D03*
%TO.P,U6,9,~{DSR}_9*%
%TO.N,unconnected-(U6-~{DSR}-Pad9)*%
X212486000Y-138908000D03*
%TO.P,U6,10,~{DCD}_10*%
%TO.N,unconnected-(U6-~{DCD}-Pad10)*%
X212486000Y-139558000D03*
%TO.P,U6,11,~{CTS}_11*%
%TO.N,unconnected-(U6-~{CTS}-Pad11)*%
X212486000Y-140208000D03*
%TO.P,U6,12,CBUS4_12*%
%TO.N,unconnected-(U6-CBUS4-Pad12)*%
X212486000Y-140858000D03*
%TO.P,U6,13,CBUS2_13*%
%TO.N,unconnected-(U6-CBUS2-Pad13)*%
X212486000Y-141508000D03*
%TO.P,U6,14,CBUS3_14*%
%TO.N,unconnected-(U6-CBUS3-Pad14)*%
X212486000Y-142158000D03*
%TO.P,U6,15,USBD+_15*%
%TO.N,Net-(U6-USBD+)*%
X205486000Y-142158000D03*
%TO.P,U6,16,USBD-_16*%
%TO.N,Net-(U6-USBD-)*%
X205486000Y-141508000D03*
%TO.P,U6,17,3V3OUT_17*%
%TO.N,3V3_USB*%
X205486000Y-140858000D03*
%TO.P,U6,18,GND_18*%
%TO.N,GND_USB*%
X205486000Y-140208000D03*
%TO.P,U6,19,~{RESET}_19*%
%TO.N,unconnected-(U6-~{RESET}-Pad19)*%
X205486000Y-139558000D03*
%TO.P,U6,20,VCC_20*%
%TO.N,Net-(U6-VCC)*%
X205486000Y-138908000D03*
%TO.P,U6,21,GND_21*%
%TO.N,GND_USB*%
X205486000Y-138258000D03*
%TO.P,U6,22,CBUS1_22*%
%TO.N,unconnected-(U6-CBUS1-Pad22)*%
X205486000Y-137608000D03*
%TO.P,U6,23,CBUS0_23*%
%TO.N,unconnected-(U6-CBUS0-Pad23)*%
X205486000Y-136958000D03*
%TO.P,U6,24*%
%TO.N,N/C*%
X205486000Y-136308000D03*
%TO.P,U6,25,AGND_25*%
%TO.N,GND_USB*%
X205486000Y-135658000D03*
%TO.P,U6,26,TEST_26*%
X205486000Y-135008000D03*
%TO.P,U6,27,OSCI_27*%
%TO.N,unconnected-(U6-OSCI-Pad27)*%
X205486000Y-134358000D03*
%TO.P,U6,28,OSCO_28*%
%TO.N,unconnected-(U6-OSCO-Pad28)*%
X205486000Y-133708000D03*
%TD*%
D31*
%TO.P,C48,1*%
%TO.N,/CANable2.0/3V3_CAN*%
X239687400Y-137718800D03*
%TO.P,C48,2*%
%TO.N,/CANable2.0/GND_CAN*%
X238137400Y-137718800D03*
%TD*%
D32*
%TO.P,L2,1,1_1*%
%TO.N,/CANable2.0/3V3*%
X224032111Y-96824800D03*
%TO.P,L2,2,2_2*%
%TO.N,Net-(U2-SW)*%
X228032111Y-96824800D03*
%TD*%
D24*
%TO.P,R22,1*%
%TO.N,Net-(U4-HDRV1)*%
X181872000Y-130242400D03*
%TO.P,R22,2*%
%TO.N,/15V 3A Buck-Boost Power Supply/HDRV1*%
X183522000Y-130242400D03*
%TD*%
D31*
%TO.P,C25,1*%
%TO.N,/CANable2.0/NRST*%
X227515400Y-113033100D03*
%TO.P,C25,2*%
%TO.N,/CANable2.0/GND_CAN*%
X225965400Y-113033100D03*
%TD*%
D33*
%TO.P,U4,1,EN/UVLO_1*%
%TO.N,Net-(U4-EN{slash}UVLO)*%
X172709600Y-125678000D03*
%TO.P,U4,2,VIN_2*%
%TO.N,Net-(U4-VIN)*%
X172709600Y-125028000D03*
%TO.P,U4,3,VISNS_3*%
%TO.N,Net-(U4-VISNS)*%
X172709600Y-124378000D03*
%TO.P,U4,4,MODE_4*%
%TO.N,Net-(U4-MODE)*%
X172709600Y-123728000D03*
%TO.P,U4,5,DITH_5*%
%TO.N,GND*%
X172709600Y-123078000D03*
%TO.P,U4,6,RT_6*%
%TO.N,Net-(U4-RT)*%
X172709600Y-122428000D03*
%TO.P,U4,7,SLOPE_7*%
%TO.N,Net-(U4-SLOPE)*%
X172709600Y-121778000D03*
%TO.P,U4,8,SS_8*%
%TO.N,Net-(U4-SS)*%
X172709600Y-121128000D03*
%TO.P,U4,9,COMP_9*%
%TO.N,Net-(U4-COMP)*%
X172709600Y-120478000D03*
%TO.P,U4,10,AGND_10*%
%TO.N,GND*%
X172709600Y-119828000D03*
%TO.P,U4,11,FB_11*%
%TO.N,Net-(U4-FB)*%
X172709600Y-119178000D03*
%TO.P,U4,12,VOSNS_12*%
%TO.N,/15V 3A Buck-Boost Power Supply/+V_OUT*%
X172709600Y-118528000D03*
%TO.P,U4,13,ISNS(-)_13*%
%TO.N,GND*%
X172709600Y-117878000D03*
%TO.P,U4,14,ISNS(+)_14*%
X172709600Y-117228000D03*
%TO.P,U4,15,CSG_15*%
%TO.N,Net-(U4-CSG)*%
X178409600Y-117228000D03*
%TO.P,U4,16,CS_16*%
%TO.N,Net-(U4-CS)*%
X178409600Y-117878000D03*
%TO.P,U4,17,PGOOD_17*%
%TO.N,unconnected-(U4-PGOOD-Pad17)*%
X178409600Y-118528000D03*
%TO.P,U4,18,SW2_18*%
%TO.N,/15V 3A Buck-Boost Power Supply/SW2*%
X178409600Y-119178000D03*
%TO.P,U4,19,HDRV2_19*%
%TO.N,Net-(U4-HDRV2)*%
X178409600Y-119828000D03*
%TO.P,U4,20,BOOT2_20*%
%TO.N,Net-(D6-K)*%
X178409600Y-120478000D03*
%TO.P,U4,21,LDRV2_21*%
%TO.N,Net-(U4-LDRV2)*%
X178409600Y-121128000D03*
%TO.P,U4,22,PGND_22*%
%TO.N,GND*%
X178409600Y-121778000D03*
%TO.P,U4,23,VCC_23*%
%TO.N,/15V 3A Buck-Boost Power Supply/Vcc*%
X178409600Y-122428000D03*
%TO.P,U4,24,BIAS_24*%
%TO.N,/15V 3A Buck-Boost Power Supply/+V_OUT*%
X178409600Y-123078000D03*
%TO.P,U4,25,LDRV1_25*%
%TO.N,Net-(U4-LDRV1)*%
X178409600Y-123728000D03*
%TO.P,U4,26,BOOT1_26*%
%TO.N,Net-(D7-K)*%
X178409600Y-124378000D03*
%TO.P,U4,27,HDRV1_27*%
%TO.N,Net-(U4-HDRV1)*%
X178409600Y-125028000D03*
%TO.P,U4,28,SW1_28*%
%TO.N,/15V 3A Buck-Boost Power Supply/SW1*%
X178409600Y-125678000D03*
D34*
%TO.P,U4,EP,PGND_EP*%
%TO.N,GND*%
X174259600Y-117003000D03*
X174259600Y-118783000D03*
X174259600Y-120563000D03*
X174259600Y-122343000D03*
X174259600Y-124123000D03*
X174259600Y-125903000D03*
X175559600Y-117003000D03*
X175559600Y-118783000D03*
X175559600Y-120563000D03*
D35*
X175559600Y-121453000D03*
D34*
X175559600Y-122343000D03*
X175559600Y-124123000D03*
X175559600Y-125903000D03*
X176859600Y-117003000D03*
X176859600Y-118783000D03*
X176859600Y-120563000D03*
X176859600Y-122343000D03*
X176859600Y-124123000D03*
X176859600Y-125903000D03*
%TD*%
D36*
%TO.P,U7,1,VCAP_1*%
%TO.N,Net-(U7-VCAP)*%
X173411300Y-139422368D03*
%TO.P,U7,2,GND_2*%
%TO.N,GND*%
X173411300Y-138472368D03*
%TO.P,U7,3,EN_3*%
%TO.N,/V_IN*%
X173411300Y-137522368D03*
%TO.P,U7,4,C_4*%
%TO.N,/VIN_PS*%
X175686300Y-137522368D03*
%TO.P,U7,5,G_5*%
%TO.N,Net-(Q9-G)*%
X175686300Y-138472368D03*
%TO.P,U7,6,A_6*%
%TO.N,/V_IN*%
X175686300Y-139422368D03*
%TD*%
D23*
%TO.P,C55,1*%
%TO.N,Net-(U6-USBD+)*%
X199644000Y-146545000D03*
%TO.P,C55,2*%
%TO.N,GND_USB*%
X199644000Y-148095000D03*
%TD*%
D27*
%TO.P,Q4,1,S_1*%
%TO.N,/15V 3A Buck-Boost Power Supply/RCS*%
X189949600Y-121327000D03*
%TO.P,Q4,2,S_2*%
X189949600Y-120047000D03*
%TO.P,Q4,3,S_3*%
X189949600Y-118767000D03*
%TO.P,Q4,4,G_4*%
%TO.N,/15V 3A Buck-Boost Power Supply/LDRV2*%
X189949600Y-117487000D03*
D37*
%TO.P,Q4,5,D_5*%
%TO.N,/15V 3A Buck-Boost Power Supply/SW2*%
X193019600Y-119407000D03*
%TD*%
D21*
%TO.P,C14,1*%
%TO.N,/15V 3A Buck-Boost Power Supply/+V_OUT*%
X193134600Y-102277000D03*
%TO.P,C14,2*%
%TO.N,GND*%
X196084600Y-102277000D03*
%TD*%
D38*
%TO.P,C46,1*%
%TO.N,Net-(U6-VCC)*%
X215074200Y-135661400D03*
%TO.P,C46,2*%
%TO.N,GND_USB*%
X216624200Y-135661400D03*
%TD*%
D25*
%TO.P,C30,1*%
%TO.N,Net-(Q5-B)*%
X225514400Y-117301100D03*
%TO.P,C30,2*%
%TO.N,/CANable2.0/GND_CAN*%
X227414400Y-117301100D03*
%TD*%
D39*
%TO.P,R14,1*%
%TO.N,/15V 3A Buck-Boost Power Supply/RCS*%
X187304600Y-125178500D03*
%TO.P,R14,2*%
%TO.N,GND*%
X187304600Y-119253500D03*
%TD*%
D31*
%TO.P,C33,1*%
%TO.N,Net-(U4-SS)*%
X168968600Y-119295000D03*
%TO.P,C33,2*%
%TO.N,GND*%
X167418600Y-119295000D03*
%TD*%
D23*
%TO.P,C34,1*%
%TO.N,/CANable2.0/3V3*%
X230779000Y-119776500D03*
%TO.P,C34,2*%
%TO.N,/CANable2.0/GND_CAN*%
X230779000Y-121326500D03*
%TD*%
D40*
%TO.P,Q2,1,G_1*%
%TO.N,/CANable2.0/GND_CAN*%
X232130411Y-101598900D03*
%TO.P,Q2,2,S_2*%
%TO.N,/CANable2.0/3V3*%
X232130411Y-99698900D03*
%TO.P,Q2,3,D_3*%
%TO.N,/CANable2.0/3V3_USB*%
X234005411Y-100648900D03*
%TD*%
D29*
%TO.P,D8,1,K_1*%
%TO.N,Net-(D8-K)*%
X167493600Y-129963000D03*
%TO.P,D8,2,A_2*%
%TO.N,/VIN_PS*%
X168893600Y-129963000D03*
%TD*%
D26*
%TO.P,C54,1*%
%TO.N,/V_IN*%
X176023800Y-143679368D03*
%TO.P,C54,2*%
%TO.N,GND*%
X173073800Y-143679368D03*
%TD*%
D24*
%TO.P,R13,1*%
%TO.N,Net-(U4-LDRV2)*%
X181846600Y-121073000D03*
%TO.P,R13,2*%
%TO.N,/15V 3A Buck-Boost Power Supply/LDRV2*%
X183496600Y-121073000D03*
%TD*%
D21*
%TO.P,C49,1*%
%TO.N,/VIN_PS*%
X193134600Y-138599000D03*
%TO.P,C49,2*%
%TO.N,GND*%
X196084600Y-138599000D03*
%TD*%
D23*
%TO.P,C38,1*%
%TO.N,/3V3_BTN*%
X212547200Y-124777200D03*
%TO.P,C38,2*%
%TO.N,GND1*%
X212547200Y-126327200D03*
%TD*%
D38*
%TO.P,C37,1*%
%TO.N,/15V 3A Buck-Boost Power Supply/+V_OUT*%
X181896600Y-124121000D03*
%TO.P,C37,2*%
%TO.N,GND*%
X183446600Y-124121000D03*
%TD*%
D41*
%TO.P,U8,1,TXD_1*%
%TO.N,/CANable2.0/CAN_TX*%
X233772000Y-143256000D03*
%TO.P,U8,2,GND_2*%
%TO.N,/CANable2.0/GND_CAN*%
X233772000Y-141986000D03*
%TO.P,U8,3,VCC_3*%
%TO.N,/CANable2.0/5V_CAN*%
X233772000Y-140716000D03*
%TO.P,U8,4,RXD_4*%
%TO.N,/CANable2.0/BOOT0*%
X233772000Y-139446000D03*
%TO.P,U8,5,VIO_5*%
%TO.N,/CANable2.0/3V3_CAN*%
X238922000Y-139446000D03*
%TO.P,U8,6,CANL_6*%
%TO.N,/CANable2.0/CAN_L*%
X238922000Y-140716000D03*
%TO.P,U8,7,CANH_7*%
%TO.N,/CANable2.0/CAN_H*%
X238922000Y-141986000D03*
%TO.P,U8,8,S_8*%
%TO.N,/CANable2.0/GND_CAN*%
X238922000Y-143256000D03*
%TD*%
D31*
%TO.P,C51,1*%
%TO.N,3V3_USB*%
X202039400Y-140955600D03*
%TO.P,C51,2*%
%TO.N,GND_USB*%
X200489400Y-140955600D03*
%TD*%
D29*
%TO.P,D7,1,K_1*%
%TO.N,Net-(D7-K)*%
X181997000Y-127194400D03*
%TO.P,D7,2,A_2*%
%TO.N,/15V 3A Buck-Boost Power Supply/Vcc*%
X183397000Y-127194400D03*
%TD*%
D27*
%TO.P,Q6,1,S_1*%
%TO.N,/15V 3A Buck-Boost Power Supply/RCS*%
X189949600Y-126803000D03*
%TO.P,Q6,2,S_2*%
X189949600Y-125523000D03*
%TO.P,Q6,3,S_3*%
X189949600Y-124243000D03*
%TO.P,Q6,4,G_4*%
%TO.N,/15V 3A Buck-Boost Power Supply/LDRV1*%
X189949600Y-122963000D03*
D37*
%TO.P,Q6,5,D_5*%
%TO.N,/15V 3A Buck-Boost Power Supply/SW1*%
X193019600Y-124883000D03*
%TD*%
D24*
%TO.P,R1,1*%
%TO.N,Net-(D4-K)*%
X225915400Y-108461100D03*
%TO.P,R1,2*%
%TO.N,/CANable2.0/STAT_LED*%
X227565400Y-108461100D03*
%TD*%
D42*
%TO.P,R7,1*%
%TO.N,GND*%
X183496600Y-113453000D03*
%TO.P,R7,2*%
%TO.N,Net-(U4-CSG)*%
X181846600Y-113453000D03*
%TD*%
D43*
%TO.P,U5,1,VCC1_1*%
%TO.N,3V3_USB*%
X210896200Y-130567200D03*
%TO.P,U5,2,OUT_{A}_2*%
%TO.N,Net-(U5-OUT_{A})*%
X209626200Y-130567200D03*
%TO.P,U5,3,IN_{B}_3*%
%TO.N,Net-(U5-IN_{B})*%
X208356200Y-130567200D03*
%TO.P,U5,4,GND1_4*%
%TO.N,GND_USB*%
X207086200Y-130567200D03*
%TO.P,U5,5,GND2_5*%
%TO.N,GND1*%
X207086200Y-125617200D03*
%TO.P,U5,6,OUT_{B}_6*%
%TO.N,/UART2_TXD*%
X208356200Y-125617200D03*
%TO.P,U5,7,IN_{A}_7*%
%TO.N,/UART2_RXD*%
X209626200Y-125617200D03*
%TO.P,U5,8,VCC2_8*%
%TO.N,/3V3_BTN*%
X210896200Y-125617200D03*
%TD*%
D24*
%TO.P,R6,1*%
%TO.N,Net-(C26-Pad2)*%
X167368600Y-113199000D03*
%TO.P,R6,2*%
%TO.N,GND*%
X169018600Y-113199000D03*
%TD*%
D31*
%TO.P,C26,1*%
%TO.N,Net-(U4-COMP)*%
X168968600Y-114723000D03*
%TO.P,C26,2*%
%TO.N,Net-(C26-Pad2)*%
X167418600Y-114723000D03*
%TD*%
D21*
%TO.P,C43,1*%
%TO.N,/VIN_PS*%
X193134600Y-135043000D03*
%TO.P,C43,2*%
%TO.N,GND*%
X196084600Y-135043000D03*
%TD*%
D36*
%TO.P,U1,1,VCAP_1*%
%TO.N,Net-(U1-VCAP)*%
X188346600Y-99248000D03*
%TO.P,U1,2,GND_2*%
%TO.N,GND*%
X188346600Y-98298000D03*
%TO.P,U1,3,EN_3*%
%TO.N,/15V 3A Buck-Boost Power Supply/+V_OUT*%
X188346600Y-97348000D03*
%TO.P,U1,4,C_4*%
%TO.N,/V_OUT*%
X190621600Y-97348000D03*
%TO.P,U1,5,G_5*%
%TO.N,Net-(Q1-G)*%
X190621600Y-98298000D03*
%TO.P,U1,6,A_6*%
%TO.N,/15V 3A Buck-Boost Power Supply/+V_OUT*%
X190621600Y-99248000D03*
%TD*%
D44*
%TO.P,C41,1*%
%TO.N,3V3_USB*%
X205359000Y-131331000D03*
%TO.P,C41,2*%
%TO.N,GND_USB*%
X205359000Y-129781000D03*
%TD*%
D24*
%TO.P,R17,1*%
%TO.N,/VIN_PS*%
X167368600Y-125391000D03*
%TO.P,R17,2*%
%TO.N,Net-(U4-VISNS)*%
X169018600Y-125391000D03*
%TD*%
D45*
%TO.P,Q5,1,B_1*%
%TO.N,Net-(Q5-B)*%
X225514400Y-119665600D03*
%TO.P,Q5,2,E_2*%
%TO.N,/CANable2.0/GND_CAN*%
X227414400Y-119665600D03*
%TO.P,Q5,3,C_3*%
%TO.N,Net-(Q5-C)*%
X226464400Y-121540600D03*
%TD*%
D24*
%TO.P,R4,1*%
%TO.N,/CANable2.0/3V3*%
X225915400Y-111509100D03*
%TO.P,R4,2*%
%TO.N,/CANable2.0/NRST*%
X227565400Y-111509100D03*
%TD*%
D46*
%TO.P,U2,1,SW_1*%
%TO.N,Net-(U2-SW)*%
X227855411Y-99786400D03*
%TO.P,U2,2,GND_2*%
%TO.N,/CANable2.0/GND_CAN*%
X227855411Y-100736400D03*
%TO.P,U2,3,NC_3*%
%TO.N,unconnected-(U2-NC-Pad3)*%
X227855411Y-101686400D03*
%TO.P,U2,4,VOUT_4*%
%TO.N,/CANable2.0/5V_CAN*%
X225580411Y-101686400D03*
%TO.P,U2,5,NC_5*%
%TO.N,unconnected-(U2-NC-Pad5)*%
X225580411Y-99786400D03*
%TD*%
D47*
%TO.P,C47,1*%
%TO.N,Net-(U6-VCC)*%
X202214400Y-136129600D03*
%TO.P,C47,2*%
%TO.N,GND_USB*%
X200314400Y-136129600D03*
%TD*%
D26*
%TO.P,C44,1*%
%TO.N,/VIN_PS*%
X191004600Y-135043000D03*
%TO.P,C44,2*%
%TO.N,GND*%
X188054600Y-135043000D03*
%TD*%
D24*
%TO.P,R19,1*%
%TO.N,Net-(U4-EN{slash}UVLO)*%
X173718600Y-128439000D03*
%TO.P,R19,2*%
%TO.N,GND*%
X175368600Y-128439000D03*
%TD*%
D23*
%TO.P,C11,1*%
%TO.N,/15V 3A Buck-Boost Power Supply/+V_OUT*%
X186563600Y-97523000D03*
%TO.P,C11,2*%
%TO.N,Net-(U1-VCAP)*%
X186563600Y-99073000D03*
%TD*%
D26*
%TO.P,C24,1*%
%TO.N,/15V 3A Buck-Boost Power Supply/+V_OUT*%
X191004600Y-109389000D03*
%TO.P,C24,2*%
%TO.N,GND*%
X188054600Y-109389000D03*
%TD*%
%TO.P,C50,1*%
%TO.N,/VIN_PS*%
X191004600Y-138599000D03*
%TO.P,C50,2*%
%TO.N,GND*%
X188054600Y-138599000D03*
%TD*%
D48*
%TO.P,R11,1*%
%TO.N,/CANable2.0/BOOT0*%
X233553000Y-119726500D03*
%TO.P,R11,2*%
%TO.N,/CANable2.0/GND_CAN*%
X233553000Y-121376500D03*
%TD*%
D24*
%TO.P,R8,1*%
%TO.N,Net-(U4-CS)*%
X181846600Y-114977000D03*
%TO.P,R8,2*%
%TO.N,/15V 3A Buck-Boost Power Supply/RCS*%
X183496600Y-114977000D03*
%TD*%
D27*
%TO.P,Q8,1,S_1*%
%TO.N,/15V 3A Buck-Boost Power Supply/SW1*%
X194565600Y-128424000D03*
%TO.P,Q8,2,S_2*%
X194565600Y-129704000D03*
%TO.P,Q8,3,S_3*%
X194565600Y-130984000D03*
%TO.P,Q8,4,G_4*%
%TO.N,/15V 3A Buck-Boost Power Supply/HDRV1*%
X194565600Y-132264000D03*
D28*
%TO.P,Q8,5,D_5*%
%TO.N,/VIN_PS*%
X191495600Y-130344000D03*
%TD*%
D42*
%TO.P,R23,1*%
%TO.N,/VIN_PS*%
X169018600Y-132249000D03*
%TO.P,R23,2*%
%TO.N,Net-(D2-A)*%
X167368600Y-132249000D03*
%TD*%
D48*
%TO.P,R12,1*%
%TO.N,/CANable2.0/3V3*%
X229255000Y-119726500D03*
%TO.P,R12,2*%
%TO.N,Net-(Q5-C)*%
X229255000Y-121376500D03*
%TD*%
D24*
%TO.P,R24,1*%
%TO.N,Net-(J11-CC1)*%
X200439400Y-139431600D03*
%TO.P,R24,2*%
%TO.N,GND_USB*%
X202089400Y-139431600D03*
%TD*%
D23*
%TO.P,C56,1*%
%TO.N,Net-(U6-USBD-)*%
X198120000Y-146545000D03*
%TO.P,C56,2*%
%TO.N,GND_USB*%
X198120000Y-148095000D03*
%TD*%
D42*
%TO.P,R21,1*%
%TO.N,/VIN_PS*%
X175368600Y-129963000D03*
%TO.P,R21,2*%
%TO.N,Net-(U4-EN{slash}UVLO)*%
X173718600Y-129963000D03*
%TD*%
D31*
%TO.P,C35,1*%
%TO.N,Net-(U4-SLOPE)*%
X168968600Y-120819000D03*
%TO.P,C35,2*%
%TO.N,GND*%
X167418600Y-120819000D03*
%TD*%
D45*
%TO.P,Q7,1,G_1*%
%TO.N,Net-(Q5-C)*%
X225514400Y-123983600D03*
%TO.P,Q7,2,S_2*%
%TO.N,/CANable2.0/3V3*%
X227414400Y-123983600D03*
%TO.P,Q7,3,D_3*%
%TO.N,/CANable2.0/3V3_CAN*%
X226464400Y-125858600D03*
%TD*%
D44*
%TO.P,C22,1*%
%TO.N,/CANable2.0/3V3*%
X234486000Y-107115500D03*
%TO.P,C22,2*%
%TO.N,/CANable2.0/GND_CAN*%
X234486000Y-105565500D03*
%TD*%
D49*
%TO.P,U3,1,VBAT_1*%
%TO.N,/CANable2.0/3V3*%
X229898500Y-116034000D03*
%TO.P,U3,2,PC13_2*%
%TO.N,unconnected-(U3-PC13-Pad2)*%
X229898500Y-115534000D03*
%TO.P,U3,3,PC14_3*%
%TO.N,unconnected-(U3-PC14-Pad3)*%
X229898500Y-115034000D03*
%TO.P,U3,4,PC15_4*%
%TO.N,unconnected-(U3-PC15-Pad4)*%
X229898500Y-114534000D03*
%TO.P,U3,5,PF0_5*%
%TO.N,unconnected-(U3-PF0-Pad5)*%
X229898500Y-114034000D03*
%TO.P,U3,6,PF1_6*%
%TO.N,unconnected-(U3-PF1-Pad6)*%
X229898500Y-113534000D03*
%TO.P,U3,7,PG10_7*%
%TO.N,/CANable2.0/NRST*%
X229898500Y-113034000D03*
%TO.P,U3,8,PA0_8*%
%TO.N,/CANable2.0/WORD_LED*%
X229898500Y-112534000D03*
%TO.P,U3,9,PA1_9*%
%TO.N,unconnected-(U3-PA1-Pad9)*%
X229898500Y-112034000D03*
%TO.P,U3,10,PA2_10*%
%TO.N,unconnected-(U3-PA2-Pad10)*%
X229898500Y-111534000D03*
%TO.P,U3,11,PA3_11*%
%TO.N,unconnected-(U3-PA3-Pad11)*%
X229898500Y-111034000D03*
%TO.P,U3,12,PA4_12*%
%TO.N,unconnected-(U3-PA4-Pad12)*%
X229898500Y-110534000D03*
D50*
%TO.P,U3,13,PA5_13*%
%TO.N,unconnected-(U3-PA5-Pad13)*%
X231311000Y-109121500D03*
%TO.P,U3,14,PA6_14*%
%TO.N,unconnected-(U3-PA6-Pad14)*%
X231811000Y-109121500D03*
%TO.P,U3,15,PA7_15*%
%TO.N,unconnected-(U3-PA7-Pad15)*%
X232311000Y-109121500D03*
%TO.P,U3,16,PB0_16*%
%TO.N,unconnected-(U3-PB0-Pad16)*%
X232811000Y-109121500D03*
%TO.P,U3,17,PB1_17*%
%TO.N,unconnected-(U3-PB1-Pad17)*%
X233311000Y-109121500D03*
%TO.P,U3,18,PB2_18*%
%TO.N,unconnected-(U3-PB2-Pad18)*%
X233811000Y-109121500D03*
%TO.P,U3,19,VSSA_19*%
%TO.N,/CANable2.0/GND_CAN*%
X234311000Y-109121500D03*
%TO.P,U3,20,VREF+_20*%
%TO.N,/CANable2.0/3V3*%
X234811000Y-109121500D03*
%TO.P,U3,21,VDDA_21*%
X235311000Y-109121500D03*
%TO.P,U3,22,PB10_22*%
%TO.N,unconnected-(U3-PB10-Pad22)*%
X235811000Y-109121500D03*
%TO.P,U3,23,VSS_23*%
%TO.N,/CANable2.0/GND_CAN*%
X236311000Y-109121500D03*
%TO.P,U3,24,VDD_24*%
%TO.N,/CANable2.0/3V3*%
X236811000Y-109121500D03*
D49*
%TO.P,U3,25,PB11_25*%
%TO.N,unconnected-(U3-PB11-Pad25)*%
X238223500Y-110534000D03*
%TO.P,U3,26,PB12_26*%
%TO.N,unconnected-(U3-PB12-Pad26)*%
X238223500Y-111034000D03*
%TO.P,U3,27,PB13_27*%
%TO.N,unconnected-(U3-PB13-Pad27)*%
X238223500Y-111534000D03*
%TO.P,U3,28,PB14_28*%
%TO.N,unconnected-(U3-PB14-Pad28)*%
X238223500Y-112034000D03*
%TO.P,U3,29,PB15_29*%
%TO.N,unconnected-(U3-PB15-Pad29)*%
X238223500Y-112534000D03*
%TO.P,U3,30,PA8_30*%
%TO.N,unconnected-(U3-PA8-Pad30)*%
X238223500Y-113034000D03*
%TO.P,U3,31,PA9_31*%
%TO.N,unconnected-(U3-PA9-Pad31)*%
X238223500Y-113534000D03*
%TO.P,U3,32,PA10_32*%
%TO.N,unconnected-(U3-PA10-Pad32)*%
X238223500Y-114034000D03*
%TO.P,U3,33,USB_DM_33*%
%TO.N,/CANable2.0/USB_DM*%
X238223500Y-114534000D03*
%TO.P,U3,34,USB_DP_34*%
%TO.N,/CANable2.0/USB_DP*%
X238223500Y-115034000D03*
%TO.P,U3,35,VSS_35*%
%TO.N,/CANable2.0/GND_CAN*%
X238223500Y-115534000D03*
%TO.P,U3,36,VDD_36*%
%TO.N,/CANable2.0/3V3*%
X238223500Y-116034000D03*
D50*
%TO.P,U3,37,SYS_JTMS-SWDIO_37*%
%TO.N,/CANable2.0/SWDIO*%
X236811000Y-117446500D03*
%TO.P,U3,38,SYS_JTCK-SWCLK_38*%
%TO.N,/CANable2.0/SWCLK*%
X236311000Y-117446500D03*
%TO.P,U3,39,PA15_39*%
%TO.N,/CANable2.0/STAT_LED*%
X235811000Y-117446500D03*
%TO.P,U3,40,PB3_40*%
%TO.N,unconnected-(U3-PB3-Pad40)*%
X235311000Y-117446500D03*
%TO.P,U3,41,PB4_41*%
%TO.N,unconnected-(U3-PB4-Pad41)*%
X234811000Y-117446500D03*
%TO.P,U3,42,PB5_42*%
%TO.N,unconnected-(U3-PB5-Pad42)*%
X234311000Y-117446500D03*
%TO.P,U3,43,PB6_43*%
%TO.N,unconnected-(U3-PB6-Pad43)*%
X233811000Y-117446500D03*
%TO.P,U3,44,PB7_44*%
%TO.N,unconnected-(U3-PB7-Pad44)*%
X233311000Y-117446500D03*
%TO.P,U3,45,FDCAN1_RX_45*%
%TO.N,/CANable2.0/BOOT0*%
X232811000Y-117446500D03*
%TO.P,U3,46,FDCAN1_TX_46*%
%TO.N,/CANable2.0/CAN_TX*%
X232311000Y-117446500D03*
%TO.P,U3,47,VSS_47*%
%TO.N,/CANable2.0/GND_CAN*%
X231811000Y-117446500D03*
%TO.P,U3,48,VDD_48*%
%TO.N,/CANable2.0/3V3*%
X231311000Y-117446500D03*
%TD*%
D31*
%TO.P,C39,1*%
%TO.N,Net-(U4-VIN)*%
X168968600Y-126915000D03*
%TO.P,C39,2*%
%TO.N,GND*%
X167418600Y-126915000D03*
%TD*%
D24*
%TO.P,R10,1*%
%TO.N,Net-(U4-HDRV2)*%
X181846600Y-118025000D03*
%TO.P,R10,2*%
%TO.N,/15V 3A Buck-Boost Power Supply/HDRV2*%
X183496600Y-118025000D03*
%TD*%
D31*
%TO.P,C52,1*%
%TO.N,/V_IN*%
X175323800Y-141139368D03*
%TO.P,C52,2*%
%TO.N,Net-(U7-VCAP)*%
X173773800Y-141139368D03*
%TD*%
%TO.P,C29,1*%
%TO.N,Net-(D6-K)*%
X183446600Y-116501000D03*
%TO.P,C29,2*%
%TO.N,/15V 3A Buck-Boost Power Supply/SW2*%
X181896600Y-116501000D03*
%TD*%
D38*
%TO.P,C42,1*%
%TO.N,Net-(C42-Pad1)*%
X200489400Y-132319600D03*
%TO.P,C42,2*%
%TO.N,GND_USB*%
X202039400Y-132319600D03*
%TD*%
D44*
%TO.P,C21,1*%
%TO.N,/CANable2.0/3V3*%
X236010000Y-107115500D03*
%TO.P,C21,2*%
%TO.N,/CANable2.0/GND_CAN*%
X236010000Y-105565500D03*
%TD*%
D27*
%TO.P,Q1,1,S_1*%
%TO.N,/15V 3A Buck-Boost Power Supply/+V_OUT*%
X193846000Y-98440000D03*
%TO.P,Q1,2,S_2*%
X193846000Y-97160000D03*
%TO.P,Q1,3,S_3*%
X193846000Y-95880000D03*
%TO.P,Q1,4,G_4*%
%TO.N,Net-(Q1-G)*%
X193846000Y-94600000D03*
D37*
%TO.P,Q1,5,D_5*%
%TO.N,/V_OUT*%
X196916000Y-96520000D03*
%TD*%
D31*
%TO.P,C27,1*%
%TO.N,Net-(U4-CS)*%
X180398600Y-114977000D03*
%TO.P,C27,2*%
%TO.N,Net-(U4-CSG)*%
X178848600Y-114977000D03*
%TD*%
D23*
%TO.P,C32,1*%
%TO.N,/CANable2.0/3V3*%
X238246600Y-117947700D03*
%TO.P,C32,2*%
%TO.N,/CANable2.0/GND_CAN*%
X238246600Y-119497700D03*
%TD*%
D51*
%TO.P,Q9,1,S_1*%
%TO.N,/V_IN*%
X182133000Y-139849000D03*
%TO.P,Q9,2,S_2*%
X180853000Y-139849000D03*
%TO.P,Q9,3,S_3*%
X179573000Y-139849000D03*
%TO.P,Q9,4,G_4*%
%TO.N,Net-(Q9-G)*%
X178293000Y-139849000D03*
D52*
%TO.P,Q9,5,D_5*%
%TO.N,/VIN_PS*%
X180213000Y-136779000D03*
%TD*%
D42*
%TO.P,R9,1*%
%TO.N,/CANable2.0/3V3*%
X227289400Y-115269100D03*
%TO.P,R9,2*%
%TO.N,Net-(Q5-B)*%
X225639400Y-115269100D03*
%TD*%
D24*
%TO.P,R18,1*%
%TO.N,Net-(U4-LDRV1)*%
X181872000Y-125670400D03*
%TO.P,R18,2*%
%TO.N,/15V 3A Buck-Boost Power Supply/LDRV1*%
X183522000Y-125670400D03*
%TD*%
D31*
%TO.P,C28,1*%
%TO.N,Net-(U4-COMP)*%
X168968600Y-116247000D03*
%TO.P,C28,2*%
%TO.N,Net-(C26-Pad2)*%
X167418600Y-116247000D03*
%TD*%
D38*
%TO.P,C36,1*%
%TO.N,/15V 3A Buck-Boost Power Supply/Vcc*%
X181896600Y-122597000D03*
%TO.P,C36,2*%
%TO.N,GND*%
X183446600Y-122597000D03*
%TD*%
D24*
%TO.P,R20,1*%
%TO.N,Net-(D8-K)*%
X167368600Y-128439000D03*
%TO.P,R20,2*%
%TO.N,Net-(U4-VIN)*%
X169018600Y-128439000D03*
%TD*%
D53*
%TO.P,D9,1,K1_1*%
%TO.N,/CANable2.0/CAN_L*%
X244396500Y-140401000D03*
%TO.P,D9,2,K1_2*%
%TO.N,/CANable2.0/CAN_H*%
X244396500Y-142301000D03*
%TO.P,D9,3,KK_3*%
%TO.N,/CANable2.0/GND_CAN*%
X242521500Y-141351000D03*
%TD*%
D25*
%TO.P,C17,1*%
%TO.N,/CANable2.0/5V_CAN*%
X225793311Y-105613200D03*
%TO.P,C17,2*%
%TO.N,/CANable2.0/GND_CAN*%
X227693311Y-105613200D03*
%TD*%
D42*
%TO.P,R5,1*%
%TO.N,Net-(U4-FB)*%
X169018600Y-111675000D03*
%TO.P,R5,2*%
%TO.N,GND*%
X167368600Y-111675000D03*
%TD*%
D31*
%TO.P,C31,1*%
%TO.N,Net-(U4-COMP)*%
X168968600Y-117771000D03*
%TO.P,C31,2*%
%TO.N,GND*%
X167418600Y-117771000D03*
%TD*%
D42*
%TO.P,R16,1*%
%TO.N,Net-(U4-MODE)*%
X169018600Y-123867000D03*
%TO.P,R16,2*%
%TO.N,GND*%
X167368600Y-123867000D03*
%TD*%
D24*
%TO.P,R2,1*%
%TO.N,Net-(D5-K)*%
X225915400Y-109985100D03*
%TO.P,R2,2*%
%TO.N,/CANable2.0/WORD_LED*%
X227565400Y-109985100D03*
%TD*%
D44*
%TO.P,C20,1*%
%TO.N,/CANable2.0/3V3*%
X237534000Y-107115500D03*
%TO.P,C20,2*%
%TO.N,/CANable2.0/GND_CAN*%
X237534000Y-105565500D03*
%TD*%
D26*
%TO.P,C15,1*%
%TO.N,/15V 3A Buck-Boost Power Supply/+V_OUT*%
X191004600Y-102277000D03*
%TO.P,C15,2*%
%TO.N,GND*%
X188054600Y-102277000D03*
%TD*%
D42*
%TO.P,R15,1*%
%TO.N,Net-(U4-RT)*%
X169018600Y-122343000D03*
%TO.P,R15,2*%
%TO.N,GND*%
X167368600Y-122343000D03*
%TD*%
D54*
%TO.P,C13,1*%
%TO.N,/CANable2.0/3V3*%
X223441311Y-99786400D03*
%TO.P,C13,2*%
%TO.N,/CANable2.0/GND_CAN*%
X223441311Y-101686400D03*
%TD*%
D55*
%TO.P,L3,1,1_1*%
%TO.N,Net-(C42-Pad1)*%
X200201900Y-134097600D03*
%TO.P,L3,2,2_2*%
%TO.N,Net-(U6-VCC)*%
X202326900Y-134097600D03*
%TD*%
D21*
%TO.P,C23,1*%
%TO.N,/15V 3A Buck-Boost Power Supply/+V_OUT*%
X193134600Y-109389000D03*
%TO.P,C23,2*%
%TO.N,GND*%
X196084600Y-109389000D03*
%TD*%
D38*
%TO.P,C40,1*%
%TO.N,Net-(D7-K)*%
X181922000Y-128718400D03*
%TO.P,C40,2*%
%TO.N,/15V 3A Buck-Boost Power Supply/SW1*%
X183472000Y-128718400D03*
%TD*%
D56*
%TO.N,GND1*%
X207086200Y-127127000D03*
X212547200Y-127304800D03*
D57*
%TO.N,/VIN_PS*%
X192074800Y-140335000D03*
X192049400Y-136880600D03*
X192074800Y-133350000D03*
D58*
X175996600Y-132791200D03*
%TO.N,GND*%
X201930000Y-102108000D03*
X197510400Y-102260400D03*
D59*
X176352200Y-128447800D03*
D57*
X197408800Y-109347000D03*
D58*
X197485000Y-138582400D03*
D56*
X166420800Y-111683800D03*
D58*
X187299600Y-120726200D03*
D57*
X197383400Y-105791000D03*
D56*
X166395400Y-120827800D03*
D58*
X197510400Y-135051800D03*
D56*
X184750800Y-113453000D03*
D58*
X186639200Y-105892600D03*
X186588400Y-109448600D03*
D56*
X166395400Y-123850400D03*
D58*
X186639200Y-138607800D03*
X171678600Y-143687800D03*
X186639200Y-135077200D03*
D56*
X189485942Y-97821556D03*
X166420800Y-122351800D03*
X166370000Y-117779800D03*
D58*
X171602400Y-135051800D03*
D56*
X184481889Y-124098362D03*
X169926000Y-113207800D03*
X184454800Y-122605800D03*
X166395400Y-126898400D03*
D58*
X186613800Y-102311200D03*
X168198800Y-137998200D03*
D59*
X176504600Y-150545800D03*
D56*
X166420800Y-119303800D03*
X172161200Y-138480800D03*
D59*
%TO.N,/CANable2.0/GND_CAN*%
X231571800Y-143103600D03*
D56*
X233553000Y-122326400D03*
D59*
X241274600Y-141351000D03*
X237540800Y-143281400D03*
D56*
X230784400Y-122351800D03*
D57*
X237363000Y-100177600D03*
D56*
X231731474Y-118961381D03*
D59*
X228422200Y-117297200D03*
X235178600Y-141960600D03*
D56*
X236016800Y-104597200D03*
X237540800Y-104597200D03*
X234492800Y-104597200D03*
X233755495Y-107885880D03*
X236956600Y-115519200D03*
D59*
X237159800Y-137744200D03*
D56*
X236031921Y-110361811D03*
D57*
X228930200Y-103555800D03*
D56*
X238252000Y-120472200D03*
D57*
X230657400Y-101650800D03*
D56*
X224993200Y-113030000D03*
%TO.N,/CANable2.0/3V3*%
X235127800Y-110363000D03*
D59*
X228295200Y-123977400D03*
D57*
X222046800Y-99771200D03*
D56*
X230779000Y-118821200D03*
X224993200Y-111531400D03*
D57*
X230682800Y-99720400D03*
X236474000Y-152146000D03*
D56*
X238252000Y-116967000D03*
X229920800Y-116713000D03*
X236829600Y-110388400D03*
D57*
X242773200Y-150545800D03*
%TO.N,/15V 3A Buck-Boost Power Supply/+V_OUT*%
X192049400Y-104063800D03*
X192100200Y-100558600D03*
X192074800Y-107746800D03*
X192684400Y-98475800D03*
D59*
X180232607Y-123173235D03*
D57*
X192705736Y-95885000D03*
D59*
X171632372Y-115417600D03*
D57*
X192074800Y-111125000D03*
%TO.N,/CANable2.0/3V3_USB*%
X235813600Y-99085400D03*
%TO.N,/CANable2.0/USB_DM*%
X237388400Y-97180400D03*
%TO.N,/CANable2.0/USB_DP*%
X239926504Y-96801296D03*
D56*
%TO.N,/3V3_BTN*%
X211023200Y-124079000D03*
D57*
%TO.N,/UART2_RXD*%
X205054200Y-87426800D03*
D59*
%TO.N,GND_USB*%
X203022200Y-139420600D03*
X202996800Y-142494000D03*
D57*
X199644000Y-149225000D03*
D56*
X207086200Y-129057400D03*
D57*
X198120000Y-149225000D03*
D58*
X193776600Y-149809200D03*
X191947800Y-147929600D03*
D59*
X199517000Y-140970000D03*
X217652600Y-135661400D03*
X199288400Y-136144000D03*
D58*
X195656200Y-151866600D03*
X205892400Y-151815800D03*
D59*
X206959200Y-140208000D03*
D58*
X203962000Y-146126200D03*
D59*
X213969600Y-137591800D03*
D58*
X191897000Y-151815800D03*
X205841600Y-147955000D03*
X193751200Y-146151600D03*
D59*
X207035400Y-135001000D03*
D58*
X204038200Y-149885400D03*
X202158600Y-151841200D03*
D59*
X203022200Y-132308600D03*
X207010000Y-137947400D03*
%TO.N,Net-(C42-Pad1)*%
X199212200Y-134086600D03*
X201295000Y-145948400D03*
X196494400Y-146202400D03*
%TO.N,Net-(J11-CC1)*%
X199491600Y-139420600D03*
%TO.N,Net-(U6-USBD+)*%
X199694800Y-145618200D03*
%TO.N,Net-(U6-USBD-)*%
X198501000Y-145567400D03*
%TO.N,Net-(J11-CC2)*%
X199491600Y-142494000D03*
D56*
%TO.N,/15V 3A Buck-Boost Power Supply/SW1*%
X184740997Y-129421800D03*
D58*
X197739000Y-129413000D03*
X197739000Y-124079000D03*
D56*
X178409600Y-126466600D03*
X195503800Y-131013200D03*
D59*
%TO.N,/15V 3A Buck-Boost Power Supply/SW2*%
X195478400Y-116636800D03*
X180784210Y-117412224D03*
D58*
X197739000Y-115189000D03*
X197739000Y-120396000D03*
D57*
%TO.N,Net-(D4-K)*%
X232206800Y-150520400D03*
D59*
%TO.N,Net-(D2-A)*%
X166344600Y-132232400D03*
D57*
%TO.N,Net-(D5-K)*%
X238633000Y-152146000D03*
D59*
%TO.N,/CANable2.0/5V_CAN*%
X235229400Y-140690600D03*
X231622600Y-139547600D03*
X224688400Y-105638600D03*
D56*
%TO.N,Net-(D6-K)*%
X181042046Y-119579637D03*
X184327800Y-116509800D03*
D59*
%TO.N,/15V 3A Buck-Boost Power Supply/Vcc*%
X184277000Y-127177800D03*
D56*
X184226200Y-119532400D03*
D59*
X180120036Y-121873236D03*
%TO.N,Net-(U6-VCC)*%
X207234249Y-138948291D03*
X214045800Y-135658000D03*
%TO.N,3V3_USB*%
X203489800Y-140858000D03*
X205359000Y-132384800D03*
D56*
X210921600Y-132105400D03*
D59*
%TO.N,/CANable2.0/3V3_CAN*%
X240385600Y-139446000D03*
X226466400Y-127177800D03*
D56*
%TO.N,/15V 3A Buck-Boost Power Supply/HDRV1*%
X184487434Y-130233034D03*
X195503800Y-132257800D03*
%TO.N,/15V 3A Buck-Boost Power Supply/RCS*%
X186052132Y-115801468D03*
X185253768Y-124454167D03*
%TO.N,/15V 3A Buck-Boost Power Supply/LDRV1*%
X184454800Y-125679200D03*
X189108026Y-123621899D03*
%TO.N,/CANable2.0/WORD_LED*%
X231190800Y-112522000D03*
X228574600Y-110007400D03*
%TD*%
%TO.N,/~{SYS_RESET}*%
D60*
X219633800Y-125374400D02*
X214960200Y-120700800D01*
X214960200Y-120700800D02*
X214960200Y-88957002D01*
X213142000Y-150205000D02*
X219633800Y-143713200D01*
X213142000Y-150646900D02*
X213142000Y-150205000D01*
X214960200Y-88957002D02*
X210743122Y-84739924D01*
X219633800Y-143713200D02*
X219633800Y-125374400D01*
%TO.N,GND1*%
X212547200Y-126327200D02*
X212547200Y-127304800D01*
X207086200Y-125617200D02*
X207086200Y-127127000D01*
X212547200Y-127304800D02*
X207264000Y-127304800D01*
X207264000Y-127304800D02*
X207086200Y-127127000D01*
%TO.N,/NX-Button Interface/3V3_BTN*%
D61*
X262241680Y-93141800D02*
X271841680Y-93141800D01*
%TO.N,/NX-Button Interface/NX_PC_LED-*%
X262241680Y-100761800D02*
X271841680Y-100761800D01*
%TO.N,/NX-Button Interface/NX_PC_LED+*%
X262241680Y-103301800D02*
X271841680Y-103301800D01*
%TO.N,/NX-Button Interface/UART2_RXD*%
X262241680Y-105841800D02*
X271841680Y-105841800D01*
%TO.N,/NX-Button Interface/UART2_TXD*%
X262241680Y-108381800D02*
X271841680Y-108381800D01*
%TO.N,/NX-Button Interface/~{SYS_RESET}*%
X262241680Y-118541800D02*
X271841680Y-118541800D01*
%TO.N,/NX-Button Interface/~{REC}*%
X262241680Y-123621800D02*
X271841680Y-123621800D01*
%TO.N,/VIN_PS*%
D60*
X171526200Y-130987800D02*
X173329600Y-132791200D01*
X176428400Y-132359400D02*
X175996600Y-132791200D01*
X191004600Y-139264800D02*
X192074800Y-140335000D01*
X168893600Y-129963000D02*
X169714000Y-129963000D01*
X170103800Y-130987800D02*
X170103800Y-131935400D01*
X179469632Y-137522368D02*
X180213000Y-136779000D01*
X170103800Y-130352800D02*
X170103800Y-130987800D01*
X170103800Y-131935400D02*
X169790200Y-132249000D01*
X166293800Y-130987800D02*
X165404800Y-130098800D01*
X170103800Y-130987800D02*
X171526200Y-130987800D01*
X173329600Y-132791200D02*
X175996600Y-132791200D01*
X170103800Y-130987800D02*
X166293800Y-130987800D01*
X176089400Y-129963000D02*
X176428400Y-130302000D01*
X165845400Y-125391000D02*
X167368600Y-125391000D01*
X169790200Y-132249000D02*
X169018600Y-132249000D01*
X191004600Y-135835800D02*
X192049400Y-136880600D01*
X176428400Y-130302000D02*
X176428400Y-132359400D01*
X175686300Y-137522368D02*
X179469632Y-137522368D01*
X191004600Y-138599000D02*
X191004600Y-139264800D01*
X175368600Y-129963000D02*
X176089400Y-129963000D01*
X191004600Y-134420200D02*
X192074800Y-133350000D01*
X165404800Y-125831600D02*
X165845400Y-125391000D01*
X191004600Y-135043000D02*
X191004600Y-134420200D01*
X169714000Y-129963000D02*
X170103800Y-130352800D01*
X165404800Y-130098800D02*
X165404800Y-125831600D01*
X191004600Y-135043000D02*
X191004600Y-135835800D01*
%TO.N,GND*%
X172169632Y-138472368D02*
X172161200Y-138480800D01*
D61*
X187995000Y-109448600D02*
X188054600Y-109389000D01*
X188020400Y-135077200D02*
X188054600Y-135043000D01*
D60*
X184481889Y-124098362D02*
X184459251Y-124121000D01*
X172709600Y-117878000D02*
X172709600Y-117887564D01*
X175884600Y-121778000D02*
X175559600Y-121453000D01*
D61*
X196084600Y-105833000D02*
X197341400Y-105833000D01*
X197366800Y-109389000D02*
X197408800Y-109347000D01*
D60*
X169018600Y-113199000D02*
X169917200Y-113199000D01*
X178409600Y-121778000D02*
X175884600Y-121778000D01*
X167368600Y-122343000D02*
X166429600Y-122343000D01*
X167418600Y-119295000D02*
X166429600Y-119295000D01*
X172709600Y-117887564D02*
X175559600Y-117887564D01*
X173411300Y-138472368D02*
X172169632Y-138472368D01*
X166412000Y-126915000D02*
X166395400Y-126898400D01*
X173934600Y-119828000D02*
X175559600Y-121453000D01*
D61*
X196084600Y-109389000D02*
X197366800Y-109389000D01*
D60*
X184459251Y-124121000D02*
X183446600Y-124121000D01*
D61*
X201930000Y-100535000D02*
X201930000Y-102108000D01*
D60*
X172709600Y-123078000D02*
X173934600Y-123078000D01*
D61*
X187304600Y-120721200D02*
X187299600Y-120726200D01*
X197510400Y-135051800D02*
X196093400Y-135051800D01*
X196093400Y-135051800D02*
X196084600Y-135043000D01*
D60*
X173934600Y-123078000D02*
X175559600Y-121453000D01*
X188346600Y-98298000D02*
X189484000Y-98298000D01*
X166412000Y-123867000D02*
X166395400Y-123850400D01*
D61*
X196101200Y-138582400D02*
X196084600Y-138599000D01*
X171687032Y-143679368D02*
X171678600Y-143687800D01*
D60*
X166404200Y-120819000D02*
X166395400Y-120827800D01*
X166429600Y-111675000D02*
X166420800Y-111683800D01*
X176343400Y-128439000D02*
X176352200Y-128447800D01*
X189541163Y-97876777D02*
X189485942Y-97821556D01*
D61*
X186639200Y-138607800D02*
X188045800Y-138607800D01*
X186588400Y-109448600D02*
X187995000Y-109448600D01*
D60*
X189518664Y-97899276D02*
X189541163Y-97876777D01*
X167418600Y-126915000D02*
X166412000Y-126915000D01*
X167368600Y-111675000D02*
X166429600Y-111675000D01*
D61*
X188020400Y-102311200D02*
X188054600Y-102277000D01*
X186613800Y-102311200D02*
X188020400Y-102311200D01*
X187304600Y-119253500D02*
X187304600Y-120721200D01*
D60*
X167418600Y-120819000D02*
X166404200Y-120819000D01*
X175368600Y-128439000D02*
X176343400Y-128439000D01*
X175559600Y-117887564D02*
X175559600Y-121453000D01*
X166429600Y-122343000D02*
X166420800Y-122351800D01*
X184446000Y-122597000D02*
X184454800Y-122605800D01*
X169917200Y-113199000D02*
X169926000Y-113207800D01*
X189484000Y-98298000D02*
X189518664Y-98263336D01*
X172709600Y-119828000D02*
X173934600Y-119828000D01*
X183446600Y-122597000D02*
X184446000Y-122597000D01*
D61*
X186639200Y-135077200D02*
X188020400Y-135077200D01*
D60*
X189518664Y-98263336D02*
X189518664Y-97899276D01*
D61*
X173073800Y-143679368D02*
X171687032Y-143679368D01*
D60*
X184750800Y-113453000D02*
X183496600Y-113453000D01*
D61*
X186639200Y-105892600D02*
X187995000Y-105892600D01*
D60*
X167418600Y-117771000D02*
X166378800Y-117771000D01*
D61*
X196084600Y-102277000D02*
X197493800Y-102277000D01*
X187995000Y-105892600D02*
X188054600Y-105833000D01*
D60*
X172709600Y-117228000D02*
X174004600Y-117228000D01*
X166378800Y-117771000D02*
X166370000Y-117779800D01*
D61*
X173073800Y-135043368D02*
X171610832Y-135043368D01*
X171610832Y-135043368D02*
X171602400Y-135051800D01*
X197485000Y-138582400D02*
X196101200Y-138582400D01*
D60*
X174004600Y-117228000D02*
X175559600Y-118783000D01*
X167368600Y-123867000D02*
X166412000Y-123867000D01*
D61*
X197341400Y-105833000D02*
X197383400Y-105791000D01*
D60*
X166429600Y-119295000D02*
X166420800Y-119303800D01*
D61*
X197493800Y-102277000D02*
X197510400Y-102260400D01*
X188045800Y-138607800D02*
X188054600Y-138599000D01*
%TO.N,/CANable2.0/GND_CAN*%
D60*
X238137400Y-137718800D02*
X237185200Y-137718800D01*
X227414400Y-119665600D02*
X227414400Y-118736800D01*
D62*
X231811000Y-118704800D02*
X231811000Y-117446500D01*
D60*
X227685600Y-118465600D02*
X228244400Y-118465600D01*
D63*
X228650800Y-100736400D02*
X229021847Y-101107447D01*
D62*
X236311000Y-109121500D02*
X236311000Y-110022946D01*
D63*
X227855411Y-100736400D02*
X228650800Y-100736400D01*
X229021847Y-103464153D02*
X228930200Y-103555800D01*
D62*
X231731474Y-118961381D02*
X231731474Y-118784326D01*
D60*
X228244400Y-118465600D02*
X228422200Y-118287800D01*
X242521500Y-141351000D02*
X241274600Y-141351000D01*
X228422200Y-118287800D02*
X228422200Y-117297200D01*
X237185200Y-137718800D02*
X237159800Y-137744200D01*
D62*
X230779000Y-122346400D02*
X230784400Y-122351800D01*
X233967086Y-107885880D02*
X233755495Y-107885880D01*
X231731474Y-118784326D02*
X231811000Y-118704800D01*
X237534000Y-105565500D02*
X237534000Y-104604000D01*
X234311000Y-108229794D02*
X233967086Y-107885880D01*
X224996300Y-113033100D02*
X224993200Y-113030000D01*
X234486000Y-104604000D02*
X234492800Y-104597200D01*
X238223500Y-115534000D02*
X236971400Y-115534000D01*
D63*
X229021847Y-101107447D02*
X229021847Y-103464153D01*
D62*
X237534000Y-104604000D02*
X237540800Y-104597200D01*
X238246600Y-120466800D02*
X238252000Y-120472200D01*
D60*
X228418300Y-117301100D02*
X228422200Y-117297200D01*
D62*
X238246600Y-119497700D02*
X238246600Y-120466800D01*
X236010000Y-104604000D02*
X236016800Y-104597200D01*
D63*
X227693311Y-103581200D02*
X228904800Y-103581200D01*
D62*
X230779000Y-121326500D02*
X230779000Y-122346400D01*
D61*
X230709300Y-101598900D02*
X230657400Y-101650800D01*
D60*
X227414400Y-117301100D02*
X228418300Y-117301100D01*
X233772000Y-141986000D02*
X235153200Y-141986000D01*
X227414400Y-118736800D02*
X227685600Y-118465600D01*
X237566200Y-143256000D02*
X237540800Y-143281400D01*
D63*
X227855411Y-100736400D02*
X224216187Y-100736400D01*
D62*
X236311000Y-110022946D02*
X236031921Y-110302025D01*
D60*
X235153200Y-141986000D02*
X235178600Y-141960600D01*
D62*
X236971400Y-115534000D02*
X236956600Y-115519200D01*
D60*
X224214067Y-100738520D02*
X223441311Y-100738520D01*
D62*
X234486000Y-105565500D02*
X234486000Y-104604000D01*
D60*
X223441311Y-100738520D02*
X223441311Y-101686400D01*
X225965400Y-113033100D02*
X224996300Y-113033100D01*
D63*
X224216187Y-100736400D02*
X224214067Y-100738520D01*
D60*
X231597200Y-142109300D02*
X231597200Y-143078200D01*
D63*
X228930200Y-105410000D02*
X228930200Y-103555800D01*
D62*
X236010000Y-105565500D02*
X236010000Y-104604000D01*
X236031921Y-110302025D02*
X236031921Y-110361811D01*
D63*
X227693311Y-105613200D02*
X228727000Y-105613200D01*
D60*
X231597200Y-143078200D02*
X231571800Y-143103600D01*
D62*
X233553000Y-121376500D02*
X233553000Y-122326400D01*
D63*
X228727000Y-105613200D02*
X228930200Y-105410000D01*
D62*
X234311000Y-109121500D02*
X234311000Y-108229794D01*
D63*
X228904800Y-103581200D02*
X228930200Y-103555800D01*
D60*
X238922000Y-143256000D02*
X237566200Y-143256000D01*
D61*
X232130411Y-101598900D02*
X230709300Y-101598900D01*
%TO.N,/CANable2.0/SWDIO*%
D62*
X237185200Y-121031000D02*
X236811000Y-120656800D01*
D60*
X237185200Y-121031000D02*
X237617000Y-121462800D01*
X239649000Y-121462800D02*
X243942151Y-117169649D01*
D62*
X236811000Y-120656800D02*
X236811000Y-117446500D01*
D60*
X243942151Y-117169649D02*
X245499337Y-117169649D01*
X237617000Y-121462800D02*
X239649000Y-121462800D01*
%TO.N,/CANable2.0/SWCLK*%
X243535751Y-119709649D02*
X245499337Y-119709649D01*
D62*
X236664500Y-121526300D02*
X236311000Y-121172800D01*
D60*
X241046000Y-122199400D02*
X243535751Y-119709649D01*
X237337600Y-122199400D02*
X241046000Y-122199400D01*
D62*
X236311000Y-121172800D02*
X236311000Y-117446500D01*
D60*
X236664500Y-121526300D02*
X237337600Y-122199400D01*
%TO.N,/CANable2.0/BOOT0*%
X233553000Y-118694200D02*
X234492800Y-118694200D01*
D62*
X232811000Y-118307800D02*
X233197400Y-118694200D01*
D60*
X235534200Y-122600720D02*
X235534200Y-122961400D01*
X233772000Y-124723600D02*
X233772000Y-139446000D01*
X242951551Y-122249649D02*
X245499337Y-122249649D01*
X235534200Y-119735600D02*
X235534200Y-120827800D01*
X242290600Y-122910600D02*
X242951551Y-122249649D01*
D62*
X233197400Y-118694200D02*
X233553000Y-118694200D01*
D60*
X233553000Y-119726500D02*
X233553000Y-118694200D01*
X235534200Y-122961400D02*
X233772000Y-124723600D01*
X235585000Y-122910600D02*
X242290600Y-122910600D01*
X235534200Y-120827800D02*
X235534200Y-121843800D01*
X235534200Y-121843800D02*
X235534200Y-122600720D01*
X235534200Y-122961400D02*
X235585000Y-122910600D01*
D62*
X232811000Y-117446500D02*
X232811000Y-118307800D01*
D60*
X234492800Y-118694200D02*
X235534200Y-119735600D01*
%TO.N,/CANable2.0/3V3*%
X228019700Y-115269100D02*
X227289400Y-115269100D01*
D62*
X236811000Y-108146400D02*
X236956600Y-108000800D01*
D60*
X228784600Y-116034000D02*
X228019700Y-115269100D01*
D62*
X236811000Y-109121500D02*
X236811000Y-108146400D01*
X235311000Y-108122400D02*
X235458000Y-107975400D01*
D60*
X227414400Y-123983600D02*
X228289000Y-123983600D01*
D62*
X229898500Y-116034000D02*
X228784600Y-116034000D01*
D63*
X223441311Y-98986289D02*
X223441311Y-99786400D01*
D62*
X238223500Y-116938500D02*
X238252000Y-116967000D01*
X230779000Y-118821200D02*
X230987600Y-118821200D01*
X234486000Y-107765400D02*
X234486000Y-107115500D01*
X237534000Y-107804400D02*
X237534000Y-107115500D01*
D61*
X232130411Y-99698900D02*
X230704300Y-99698900D01*
D62*
X234811000Y-109121500D02*
X234811000Y-108090400D01*
X235127800Y-110363000D02*
X235311000Y-110179800D01*
X229898500Y-116034000D02*
X229898500Y-116690700D01*
D63*
X222046800Y-99771200D02*
X223441311Y-99771200D01*
D60*
X228289000Y-123983600D02*
X228295200Y-123977400D01*
D62*
X236956600Y-108000800D02*
X237337600Y-108000800D01*
D63*
X224032111Y-98395489D02*
X223441311Y-98986289D01*
D62*
X236010000Y-107829800D02*
X236010000Y-107115500D01*
X231311000Y-118497800D02*
X231311000Y-117446500D01*
X236811000Y-109121500D02*
X236811000Y-110369800D01*
X235311000Y-109121500D02*
X235311000Y-108122400D01*
D60*
X229438200Y-118821200D02*
X230779000Y-118821200D01*
D62*
X230779000Y-118821200D02*
X230779000Y-119776500D01*
D60*
X225915400Y-111509100D02*
X225015500Y-111509100D01*
D62*
X236811000Y-110369800D02*
X236829600Y-110388400D01*
X238246600Y-117947700D02*
X238246600Y-116972400D01*
X235311000Y-110179800D02*
X235311000Y-109121500D01*
D60*
X229255000Y-119726500D02*
X229255000Y-119004400D01*
D62*
X238246600Y-116972400D02*
X238252000Y-116967000D01*
X225015500Y-111509100D02*
X224993200Y-111531400D01*
D61*
X230704300Y-99698900D02*
X230682800Y-99720400D01*
D62*
X237337600Y-108000800D02*
X237534000Y-107804400D01*
X235864400Y-107975400D02*
X236010000Y-107829800D01*
D60*
X229255000Y-119004400D02*
X229438200Y-118821200D01*
D62*
X234811000Y-110046200D02*
X234811000Y-109121500D01*
X234811000Y-108090400D02*
X234486000Y-107765400D01*
D63*
X223441311Y-99771200D02*
X223441311Y-98986289D01*
D62*
X229898500Y-116690700D02*
X229920800Y-116713000D01*
X238223500Y-116034000D02*
X238223500Y-116938500D01*
X235458000Y-107975400D02*
X235864400Y-107975400D01*
X230987600Y-118821200D02*
X231311000Y-118497800D01*
D63*
X224032111Y-96824800D02*
X224032111Y-98395489D01*
D62*
X235127800Y-110363000D02*
X234811000Y-110046200D01*
%TO.N,/15V 3A Buck-Boost Power Supply/+V_OUT*%
D60*
X171543472Y-115417600D02*
X171518072Y-115392200D01*
X185195564Y-100486564D02*
X185115200Y-100406200D01*
X179451000Y-108940600D02*
X171551600Y-108940600D01*
X171551600Y-108940600D02*
X167589200Y-108940600D01*
X179999400Y-123078000D02*
X180136800Y-123215400D01*
X171632372Y-115417600D02*
X171543472Y-115417600D01*
X180136800Y-123215400D02*
X181042400Y-124121000D01*
X190621600Y-101894000D02*
X191004600Y-102277000D01*
X167589200Y-108940600D02*
X167368600Y-109161200D01*
X190621600Y-99248000D02*
X190621600Y-101894000D01*
X192049400Y-103863450D02*
X190621600Y-102435650D01*
X171518072Y-108974128D02*
X171551600Y-108940600D01*
X192049400Y-104063800D02*
X192049400Y-103863450D01*
X181042400Y-124121000D02*
X181896600Y-124121000D01*
X171918800Y-118528000D02*
X171518072Y-118127272D01*
X192710736Y-95880000D02*
X192705736Y-95885000D01*
X185636200Y-97523000D02*
X186563600Y-97523000D01*
X190621600Y-102435650D02*
X190621600Y-100431600D01*
X185195564Y-100486564D02*
X185195564Y-103196036D01*
X178409600Y-123078000D02*
X179999400Y-123078000D01*
X171518072Y-118127272D02*
X171518072Y-115392200D01*
X188346600Y-97348000D02*
X186738600Y-97348000D01*
X180190442Y-123215400D02*
X180232607Y-123173235D01*
X172709600Y-118528000D02*
X171918800Y-118528000D01*
D61*
X191004600Y-109389000D02*
X191004600Y-110054800D01*
D60*
X185115200Y-98044000D02*
X185636200Y-97523000D01*
X180136800Y-123215400D02*
X180190442Y-123215400D01*
X190621600Y-100431600D02*
X190566636Y-100486564D01*
X185115200Y-100406200D02*
X185115200Y-98044000D01*
X190566636Y-100486564D02*
X185195564Y-100486564D01*
X167368600Y-109161200D02*
X167368600Y-110151000D01*
D61*
X191004600Y-110054800D02*
X192074800Y-111125000D01*
D60*
X193846000Y-95880000D02*
X192710736Y-95880000D01*
X192720200Y-98440000D02*
X192684400Y-98475800D01*
X186738600Y-97348000D02*
X186563600Y-97523000D01*
X171518072Y-115392200D02*
X171518072Y-108974128D01*
X193846000Y-98440000D02*
X192720200Y-98440000D01*
X185195564Y-103196036D02*
X179451000Y-108940600D01*
%TO.N,/V_IN*%
X175686300Y-139422368D02*
X175686300Y-139984900D01*
X170942000Y-138176000D02*
X170942000Y-142494000D01*
X171595632Y-137522368D02*
X170942000Y-138176000D01*
X170942000Y-142494000D02*
X170688000Y-142748000D01*
X173411300Y-137522368D02*
X171595632Y-137522368D01*
X175686300Y-139984900D02*
X175323800Y-140347400D01*
X175323800Y-140347400D02*
X175323800Y-141139368D01*
%TO.N,/CANable2.0/3V3_USB*%
D61*
X235545500Y-100648900D02*
X234005411Y-100648900D01*
X235813600Y-99085400D02*
X235813600Y-100380800D01*
X235813600Y-100380800D02*
X235545500Y-100648900D01*
%TO.N,/CANable2.0/USB_DM*%
D62*
X239262600Y-114534000D02*
X239445800Y-114350800D01*
X239445800Y-114350800D02*
X239445800Y-97409000D01*
X238223500Y-114534000D02*
X239262600Y-114534000D01*
X239445800Y-97409000D02*
X239217200Y-97180400D01*
X239217200Y-97180400D02*
X237388400Y-97180400D01*
%TO.N,/CANable2.0/USB_DP*%
X239897920Y-114538074D02*
X239897920Y-96829880D01*
X239401994Y-115034000D02*
X239897920Y-114538074D01*
X239897920Y-96829880D02*
X239926504Y-96801296D01*
X238223500Y-115034000D02*
X239401994Y-115034000D01*
%TO.N,/~{REC}*%
D60*
X220264736Y-125113058D02*
X215823122Y-120671444D01*
X223810000Y-150697700D02*
X224764600Y-149743100D01*
X224764600Y-148107400D02*
X220264736Y-143607536D01*
X220264736Y-143607536D02*
X220264736Y-125113058D01*
X224764600Y-149743100D02*
X224764600Y-148107400D01*
X215823122Y-120671444D02*
X215823122Y-84739924D01*
%TO.N,/V_OUT*%
X192350922Y-93751400D02*
X195376800Y-93751400D01*
X195376800Y-93751400D02*
X195376800Y-94980800D01*
X190621600Y-95480722D02*
X192350922Y-93751400D01*
X190621600Y-97348000D02*
X190621600Y-95480722D01*
X195376800Y-94980800D02*
X196916000Y-96520000D01*
%TO.N,/3V3_BTN*%
X212547200Y-123799600D02*
X211302600Y-123799600D01*
X210896200Y-125617200D02*
X210896200Y-124206000D01*
X210896200Y-124206000D02*
X211023200Y-124079000D01*
X211302600Y-123799600D02*
X211023200Y-124079000D01*
X212547200Y-124777200D02*
X212547200Y-123799600D01*
%TO.N,/UART2_RXD*%
X209626200Y-91998800D02*
X205054200Y-87426800D01*
X209626200Y-125617200D02*
X209626200Y-91998800D01*
%TO.N,/UART2_TXD*%
X208356200Y-92513002D02*
X200583122Y-84739924D01*
X208356200Y-125617200D02*
X208356200Y-92513002D01*
%TO.N,/CANable2.0/CAN_L*%
X238922000Y-140716000D02*
X240766600Y-140716000D01*
X248612300Y-140401000D02*
X250418600Y-142207300D01*
X244396500Y-140401000D02*
X248612300Y-140401000D01*
X240766600Y-140716000D02*
X241081600Y-140401000D01*
X241081600Y-140401000D02*
X244396500Y-140401000D01*
%TO.N,/CANable2.0/CAN_H*%
X244396500Y-142301000D02*
X247784900Y-142301000D01*
X240512600Y-141986000D02*
X240827600Y-142301000D01*
X247784900Y-142301000D02*
X247878600Y-142207300D01*
X240827600Y-142301000D02*
X244396500Y-142301000D01*
X238922000Y-141986000D02*
X240512600Y-141986000D01*
%TO.N,GND_USB*%
X207010000Y-138201400D02*
X206953400Y-138258000D01*
X205359000Y-129006600D02*
X205663800Y-128701800D01*
X207035400Y-135578400D02*
X206955800Y-135658000D01*
X199531400Y-140955600D02*
X199517000Y-140970000D01*
X202982400Y-142479600D02*
X202996800Y-142494000D01*
X206955800Y-135658000D02*
X205486000Y-135658000D01*
X205486000Y-140208000D02*
X206959200Y-140208000D01*
X207028400Y-135008000D02*
X207035400Y-135001000D01*
X207010000Y-137947400D02*
X207010000Y-138201400D01*
X206953400Y-138258000D02*
X205486000Y-138258000D01*
X202089400Y-142479600D02*
X202982400Y-142479600D01*
X202039400Y-132319600D02*
X203011200Y-132319600D01*
X206730600Y-128701800D02*
X207086200Y-129057400D01*
X200489400Y-140955600D02*
X199531400Y-140955600D01*
X203011200Y-139431600D02*
X203022200Y-139420600D01*
X212486000Y-137608000D02*
X213953400Y-137608000D01*
X203011200Y-132319600D02*
X203022200Y-132308600D01*
X207086200Y-130567200D02*
X207086200Y-129057400D01*
X205663800Y-128701800D02*
X206730600Y-128701800D01*
X202089400Y-139431600D02*
X203011200Y-139431600D01*
X207035400Y-135001000D02*
X207035400Y-135578400D01*
X205486000Y-135008000D02*
X207028400Y-135008000D01*
X205359000Y-129781000D02*
X205359000Y-129006600D01*
X199302800Y-136129600D02*
X199288400Y-136144000D01*
X216624200Y-135661400D02*
X217652600Y-135661400D01*
X198120000Y-148095000D02*
X198120000Y-149225000D01*
X213953400Y-137608000D02*
X213969600Y-137591800D01*
X200314400Y-136129600D02*
X199302800Y-136129600D01*
X199644000Y-148095000D02*
X199644000Y-149225000D01*
%TO.N,Net-(C42-Pad1)*%
X197053200Y-149682200D02*
X197485000Y-150114000D01*
X199506000Y-132319600D02*
X199212200Y-132613400D01*
X197053200Y-146761200D02*
X197053200Y-149682200D01*
X199212200Y-132613400D02*
X199212200Y-134086600D01*
X196494400Y-146202400D02*
X197053200Y-146761200D01*
X197485000Y-150114000D02*
X199933210Y-150114000D01*
X199933210Y-150114000D02*
X200761600Y-149285610D01*
X200201900Y-134097600D02*
X199223200Y-134097600D01*
X199223200Y-134097600D02*
X199212200Y-134086600D01*
X200489400Y-132319600D02*
X199506000Y-132319600D01*
X200761600Y-149285610D02*
X200761600Y-146481800D01*
X200761600Y-146481800D02*
X201295000Y-145948400D01*
%TO.N,Net-(J11-CC1)*%
X200439400Y-139431600D02*
X199502600Y-139431600D01*
X199502600Y-139431600D02*
X199491600Y-139420600D01*
%TO.N,Net-(U6-USBD+)*%
D62*
X204242120Y-142158000D02*
X204109320Y-142290800D01*
X199694800Y-144708194D02*
X199694800Y-145618200D01*
X204109320Y-142911716D02*
X202627116Y-144393920D01*
X202627116Y-144393920D02*
X200009074Y-144393920D01*
X205486000Y-142158000D02*
X204242120Y-142158000D01*
X199694800Y-145643600D02*
X199644000Y-145694400D01*
X204109320Y-142290800D02*
X204109320Y-142911716D01*
X200009074Y-144393920D02*
X199694800Y-144708194D01*
X199644000Y-145694400D02*
X199644000Y-146545000D01*
%TO.N,Net-(U6-USBD-)*%
X199242680Y-144520920D02*
X199821800Y-143941800D01*
X202439842Y-143941800D02*
X203657200Y-142724442D01*
X198120000Y-145948400D02*
X198120000Y-146545000D01*
X198501000Y-145567400D02*
X199242680Y-144825720D01*
X198501000Y-145567400D02*
X198120000Y-145948400D01*
X199242680Y-144825720D02*
X199242680Y-144520920D01*
X203657200Y-141859000D02*
X204008200Y-141508000D01*
X199821800Y-143941800D02*
X202439842Y-143941800D01*
X203657200Y-142724442D02*
X203657200Y-141859000D01*
X204008200Y-141508000D02*
X205486000Y-141508000D01*
%TO.N,Net-(J11-CC2)*%
D60*
X199506000Y-142479600D02*
X199491600Y-142494000D01*
X200439400Y-142479600D02*
X199506000Y-142479600D01*
%TO.N,/15V 3A Buck-Boost Power Supply/SW1*%
X194565600Y-130984000D02*
X195474600Y-130984000D01*
X183506200Y-128701800D02*
X183480800Y-128727200D01*
X184740997Y-129421800D02*
X184740997Y-128886397D01*
X195474600Y-130984000D02*
X195503800Y-131013200D01*
X184740997Y-128886397D02*
X184556400Y-128701800D01*
X178409600Y-126466600D02*
X178409600Y-125678000D01*
X184556400Y-128701800D02*
X183506200Y-128701800D01*
X183480800Y-128727200D02*
X183472000Y-128718400D01*
%TO.N,/15V 3A Buck-Boost Power Supply/SW2*%
X179755800Y-118973600D02*
X179755800Y-118468878D01*
X180784210Y-116903790D02*
X180784210Y-117412224D01*
X178409600Y-119178000D02*
X179551400Y-119178000D01*
X179551400Y-119178000D02*
X179755800Y-118973600D01*
X179755800Y-118468878D02*
X180797200Y-117427478D01*
X181187000Y-116501000D02*
X181896600Y-116501000D01*
X181187000Y-116501000D02*
X180784210Y-116903790D01*
%TO.N,Net-(D4-K)*%
X224532900Y-108461100D02*
X225915400Y-108461100D01*
X223143064Y-109850936D02*
X224532900Y-108461100D01*
X231597200Y-149910800D02*
X231597200Y-145669000D01*
X231597200Y-145669000D02*
X223143064Y-137214864D01*
X232206800Y-150520400D02*
X231597200Y-149910800D01*
X223143064Y-137214864D02*
X223143064Y-109850936D01*
%TO.N,Net-(D2-A)*%
X166361200Y-132249000D02*
X166344600Y-132232400D01*
X167368600Y-132249000D02*
X166361200Y-132249000D01*
%TO.N,Net-(D5-K)*%
X232228136Y-145407658D02*
X223774000Y-136953522D01*
X232228136Y-148585936D02*
X232228136Y-145407658D01*
X236601000Y-150114000D02*
X233756200Y-150114000D01*
X233756200Y-150114000D02*
X232228136Y-148585936D01*
X223774000Y-136953522D02*
X223774000Y-110667800D01*
X238633000Y-152146000D02*
X236601000Y-150114000D01*
X224456700Y-109985100D02*
X225915400Y-109985100D01*
X223774000Y-110667800D02*
X224456700Y-109985100D01*
%TO.N,/CANable2.0/5V_CAN*%
D63*
X225580411Y-102187211D02*
X225793311Y-102400111D01*
X225793311Y-103581200D02*
X225793311Y-105613200D01*
X225793311Y-105613200D02*
X224713800Y-105613200D01*
X224713800Y-105613200D02*
X224688400Y-105638600D01*
D60*
X233772000Y-140716000D02*
X235204000Y-140716000D01*
X231597200Y-140559300D02*
X231597200Y-139573000D01*
D63*
X225793311Y-102400111D02*
X225793311Y-103581200D01*
D60*
X231597200Y-139573000D02*
X231622600Y-139547600D01*
X235204000Y-140716000D02*
X235229400Y-140690600D01*
D63*
X225580411Y-101686400D02*
X225580411Y-102187211D01*
%TO.N,Net-(U4-FB)*%
D60*
X169917200Y-111675000D02*
X169018600Y-111675000D01*
X169714000Y-110151000D02*
X169917200Y-110354200D01*
X170887136Y-112644936D02*
X169917200Y-111675000D01*
X170887136Y-118512336D02*
X170887136Y-112644936D01*
X169018600Y-110151000D02*
X169714000Y-110151000D01*
X169917200Y-110354200D02*
X169917200Y-111675000D01*
X172709600Y-119178000D02*
X171552800Y-119178000D01*
X171552800Y-119178000D02*
X170887136Y-118512336D01*
%TO.N,/15V 3A Buck-Boost Power Supply/HDRV2*%
X194413036Y-116711564D02*
X187555036Y-116711564D01*
X194565600Y-116559000D02*
X194413036Y-116711564D01*
X186004200Y-116713000D02*
X184692200Y-118025000D01*
X184692200Y-118025000D02*
X183496600Y-118025000D01*
X194565600Y-115881000D02*
X194565600Y-116559000D01*
X187553600Y-116713000D02*
X186004200Y-116713000D01*
X187555036Y-116711564D02*
X187553600Y-116713000D01*
%TO.N,Net-(D6-K)*%
X181011409Y-119549000D02*
X181042046Y-119579637D01*
X180983800Y-119549000D02*
X180054800Y-120478000D01*
X184327800Y-116509800D02*
X183455400Y-116509800D01*
X183455400Y-116509800D02*
X183446600Y-116501000D01*
X180983800Y-119549000D02*
X181011409Y-119549000D01*
X181971600Y-119549000D02*
X180983800Y-119549000D01*
X180054800Y-120478000D02*
X178409600Y-120478000D01*
%TO.N,/15V 3A Buck-Boost Power Supply/Vcc*%
X180136800Y-122428000D02*
X180771800Y-122428000D01*
X180136800Y-121890000D02*
X180120036Y-121873236D01*
X178409600Y-122428000D02*
X180136800Y-122428000D01*
X180940800Y-122597000D02*
X181896600Y-122597000D01*
X180771800Y-122428000D02*
X180940800Y-122597000D01*
X183371600Y-119549000D02*
X184209600Y-119549000D01*
X183397000Y-127194400D02*
X184260400Y-127194400D01*
X180136800Y-122428000D02*
X180136800Y-121890000D01*
X184260400Y-127194400D02*
X184277000Y-127177800D01*
X184209600Y-119549000D02*
X184226200Y-119532400D01*
%TO.N,Net-(U5-IN_{B})*%
X213916400Y-133708000D02*
X212486000Y-133708000D01*
X214325200Y-130095522D02*
X214325200Y-133299200D01*
X208356200Y-129311400D02*
X208610200Y-129057400D01*
X213287078Y-129057400D02*
X214325200Y-130095522D01*
X214325200Y-133299200D02*
X213916400Y-133708000D01*
X208610200Y-129057400D02*
X213287078Y-129057400D01*
X208356200Y-130567200D02*
X208356200Y-129311400D01*
%TO.N,Net-(U6-VCC)*%
X207234249Y-138924393D02*
X207217856Y-138908000D01*
X202214400Y-136129600D02*
X203841400Y-136129600D01*
X202326900Y-134097600D02*
X203541200Y-134097600D01*
X207234249Y-138948291D02*
X207234249Y-138924393D01*
X203841400Y-136129600D02*
X203855800Y-136144000D01*
X203855800Y-138908000D02*
X205486000Y-138908000D01*
X215070800Y-135658000D02*
X215074200Y-135661400D01*
X203541200Y-134097600D02*
X203855800Y-134412200D01*
X203855800Y-134412200D02*
X203855800Y-136144000D01*
X207217856Y-138908000D02*
X205486000Y-138908000D01*
X203855800Y-136144000D02*
X203855800Y-138908000D01*
X212486000Y-135658000D02*
X215070800Y-135658000D01*
%TO.N,Net-(U5-OUT_{A})*%
X210882400Y-136308000D02*
X209626200Y-135051800D01*
X209626200Y-135051800D02*
X209626200Y-130567200D01*
X212486000Y-136308000D02*
X210882400Y-136308000D01*
%TO.N,3V3_USB*%
X205486000Y-140858000D02*
X203489800Y-140858000D01*
X210896200Y-132080000D02*
X210921600Y-132105400D01*
X203392200Y-140955600D02*
X202039400Y-140955600D01*
X205359000Y-131331000D02*
X205359000Y-132384800D01*
X203489800Y-140858000D02*
X203392200Y-140955600D01*
X210896200Y-130567200D02*
X210896200Y-132080000D01*
%TO.N,/CANable2.0/3V3_CAN*%
X239687400Y-137718800D02*
X240512600Y-137718800D01*
X240741200Y-137947400D02*
X240741200Y-139090400D01*
X240512600Y-137718800D02*
X240741200Y-137947400D01*
X238922000Y-139446000D02*
X240385600Y-139446000D01*
X226464400Y-127175800D02*
X226466400Y-127177800D01*
X226464400Y-125858600D02*
X226464400Y-127175800D01*
X240741200Y-139090400D02*
X240385600Y-139446000D01*
%TO.N,Net-(U2-SW)*%
D63*
X228032111Y-98662689D02*
X228032111Y-96824800D01*
X227855411Y-98839389D02*
X228032111Y-98662689D01*
X227855411Y-99786400D02*
X227855411Y-98839389D01*
%TO.N,Net-(U4-HDRV1)*%
D60*
X179536622Y-125314178D02*
X179536622Y-128863622D01*
X179250444Y-125028000D02*
X179536622Y-125314178D01*
X179536622Y-128863622D02*
X180915400Y-130242400D01*
X178409600Y-125028000D02*
X179250444Y-125028000D01*
X180915400Y-130242400D02*
X181872000Y-130242400D01*
%TO.N,/15V 3A Buck-Boost Power Supply/HDRV1*%
X195503800Y-132257800D02*
X194571800Y-132257800D01*
X194571800Y-132257800D02*
X194565600Y-132264000D01*
X183522000Y-130242400D02*
X184478068Y-130242400D01*
X184478068Y-130242400D02*
X184487434Y-130233034D01*
%TO.N,/CANable2.0/NRST*%
X228625400Y-113034000D02*
X227516300Y-113034000D01*
X227565400Y-111509100D02*
X228272900Y-111509100D01*
D62*
X227516300Y-113034000D02*
X227515400Y-113033100D01*
D60*
X228625400Y-111861600D02*
X228625400Y-113034000D01*
D62*
X229898500Y-113034000D02*
X228625400Y-113034000D01*
D60*
X228272900Y-111509100D02*
X228625400Y-111861600D01*
%TO.N,Net-(U4-EN{slash}UVLO)*%
X173718600Y-128439000D02*
X172726200Y-128439000D01*
X172709600Y-128422400D02*
X172709600Y-129732800D01*
X172709600Y-129732800D02*
X172939800Y-129963000D01*
X172939800Y-129963000D02*
X173718600Y-129963000D01*
X172726200Y-128439000D02*
X172709600Y-128422400D01*
X172709600Y-125678000D02*
X172709600Y-128422400D01*
%TO.N,Net-(U4-VIN)*%
X170002200Y-126695200D02*
X170002200Y-126906200D01*
X170002200Y-126906200D02*
X170011000Y-126915000D01*
X171669400Y-125028000D02*
X170002200Y-126695200D01*
X170011000Y-128286600D02*
X170011000Y-126915000D01*
X170011000Y-126915000D02*
X168968600Y-126915000D01*
X172709600Y-125028000D02*
X171669400Y-125028000D01*
X169858600Y-128439000D02*
X170011000Y-128286600D01*
X169018600Y-128439000D02*
X169858600Y-128439000D01*
%TO.N,Net-(U4-VISNS)*%
X171201800Y-124378000D02*
X170188800Y-125391000D01*
X172709600Y-124378000D02*
X171201800Y-124378000D01*
X170188800Y-125391000D02*
X169018600Y-125391000D01*
%TO.N,Net-(U4-MODE)*%
X172709600Y-123728000D02*
X170640400Y-123728000D01*
X170640400Y-123728000D02*
X170501400Y-123867000D01*
X170501400Y-123867000D02*
X169018600Y-123867000D01*
%TO.N,Net-(U4-RT)*%
X170502400Y-122428000D02*
X170417400Y-122343000D01*
X172709600Y-122428000D02*
X170502400Y-122428000D01*
X170417400Y-122343000D02*
X169018600Y-122343000D01*
%TO.N,Net-(U4-SLOPE)*%
X172709600Y-121778000D02*
X171155600Y-121778000D01*
X171155600Y-121778000D02*
X170196600Y-120819000D01*
X170196600Y-120819000D02*
X168968600Y-120819000D01*
%TO.N,Net-(U4-SS)*%
X172709600Y-121128000D02*
X171470800Y-121128000D01*
X169637800Y-119295000D02*
X168968600Y-119295000D01*
X171470800Y-121128000D02*
X169637800Y-119295000D01*
%TO.N,Net-(U4-COMP)*%
X170256200Y-115036600D02*
X169942600Y-114723000D01*
X170256200Y-119021122D02*
X170256200Y-116281200D01*
X170222000Y-116247000D02*
X170256200Y-116281200D01*
X169942600Y-114723000D02*
X168968600Y-114723000D01*
X171713078Y-120478000D02*
X170256200Y-119021122D01*
X172709600Y-120478000D02*
X171713078Y-120478000D01*
X168968600Y-116247000D02*
X170222000Y-116247000D01*
X170256200Y-116281200D02*
X170256200Y-115036600D01*
X170247400Y-117771000D02*
X168968600Y-117771000D01*
X170256200Y-117779800D02*
X170247400Y-117771000D01*
%TO.N,Net-(U4-CSG)*%
X178848600Y-114977000D02*
X178019800Y-114977000D01*
X178409600Y-116433600D02*
X178409600Y-117228000D01*
X177977800Y-116001800D02*
X178409600Y-116433600D01*
X178019800Y-114977000D02*
X177977800Y-114935000D01*
X178672400Y-113453000D02*
X177977800Y-114147600D01*
X177977800Y-114147600D02*
X177977800Y-114935000D01*
X177977800Y-114935000D02*
X177977800Y-116001800D01*
X181846600Y-113453000D02*
X178672400Y-113453000D01*
%TO.N,Net-(U4-CS)*%
X179628800Y-117639672D02*
X179390472Y-117878000D01*
X180398600Y-116070200D02*
X179628800Y-116840000D01*
X179628800Y-116840000D02*
X179628800Y-117639672D01*
X179390472Y-117878000D02*
X178409600Y-117878000D01*
X181846600Y-114977000D02*
X180398600Y-114977000D01*
X180398600Y-114977000D02*
X180398600Y-116070200D01*
%TO.N,Net-(U4-HDRV2)*%
X181208336Y-118025000D02*
X180386736Y-118846600D01*
X180386736Y-118846600D02*
X180386736Y-119234942D01*
X180386736Y-119234942D02*
X179793678Y-119828000D01*
X179793678Y-119828000D02*
X178409600Y-119828000D01*
X181846600Y-118025000D02*
X181208336Y-118025000D01*
%TO.N,Net-(U4-LDRV2)*%
X178409600Y-121128000D02*
X181012800Y-121128000D01*
X181012800Y-121128000D02*
X181067800Y-121073000D01*
X181067800Y-121073000D02*
X181846600Y-121073000D01*
%TO.N,Net-(U4-LDRV1)*%
X178409600Y-123728000D02*
X179735000Y-123728000D01*
X179735000Y-123728000D02*
X180848000Y-124841000D01*
X181042400Y-125670400D02*
X181872000Y-125670400D01*
X180848000Y-125476000D02*
X181042400Y-125670400D01*
X180848000Y-124841000D02*
X180848000Y-125476000D01*
%TO.N,Net-(D7-K)*%
X180915400Y-128489800D02*
X181144000Y-128718400D01*
X180187600Y-125072878D02*
X180187600Y-126466600D01*
X180187600Y-126466600D02*
X180915400Y-127194400D01*
X179492722Y-124378000D02*
X180187600Y-125072878D01*
X180915400Y-127194400D02*
X180915400Y-128489800D01*
X180915400Y-127194400D02*
X181997000Y-127194400D01*
X178409600Y-124378000D02*
X179492722Y-124378000D01*
X181144000Y-128718400D02*
X181922000Y-128718400D01*
%TO.N,Net-(U7-VCAP)*%
X172110400Y-140843000D02*
X172406768Y-141139368D01*
X172406768Y-141139368D02*
X173773800Y-141139368D01*
X172286432Y-139422368D02*
X172110400Y-139598400D01*
X173411300Y-139422368D02*
X172286432Y-139422368D01*
X172110400Y-139598400D02*
X172110400Y-140843000D01*
%TO.N,Net-(Q9-G)*%
X177165000Y-139573000D02*
X177441000Y-139849000D01*
X176826368Y-138472368D02*
X177165000Y-138811000D01*
X175686300Y-138472368D02*
X176826368Y-138472368D01*
X177441000Y-139849000D02*
X178293000Y-139849000D01*
X177165000Y-138811000D02*
X177165000Y-139573000D01*
%TO.N,/15V 3A Buck-Boost Power Supply/RCS*%
X185227664Y-114977000D02*
X186052132Y-115801468D01*
X185978101Y-125178500D02*
X185253768Y-124454167D01*
X187304600Y-125178500D02*
X185978101Y-125178500D01*
X183496600Y-114977000D02*
X185227664Y-114977000D01*
%TO.N,/15V 3A Buck-Boost Power Supply/LDRV2*%
X184285800Y-121073000D02*
X183496600Y-121073000D01*
X189949600Y-117487000D02*
X186170000Y-117487000D01*
X185039000Y-118618000D02*
X185039000Y-120319800D01*
X185039000Y-120319800D02*
X184285800Y-121073000D01*
X186170000Y-117487000D02*
X185039000Y-118618000D01*
%TO.N,Net-(Q5-B)*%
X224561400Y-117525800D02*
X224561400Y-117351900D01*
X224561400Y-119354600D02*
X224872400Y-119665600D01*
X224872400Y-119665600D02*
X225514400Y-119665600D01*
X224561400Y-115595400D02*
X224561400Y-117525800D01*
X224612200Y-117301100D02*
X224561400Y-117351900D01*
X224612200Y-117301100D02*
X225514400Y-117301100D01*
X224561400Y-117351900D02*
X224561400Y-119354600D01*
X225639400Y-115269100D02*
X224887700Y-115269100D01*
X224887700Y-115269100D02*
X224561400Y-115595400D01*
%TO.N,Net-(D8-K)*%
X166539000Y-129963000D02*
X167493600Y-129963000D01*
X166446200Y-128524000D02*
X166446200Y-129870200D01*
X166531200Y-128439000D02*
X166446200Y-128524000D01*
X166446200Y-129870200D02*
X166539000Y-129963000D01*
X167368600Y-128439000D02*
X166531200Y-128439000D01*
%TO.N,/CANable2.0/CAN_TX*%
D62*
X232311000Y-118656853D02*
X232311000Y-117446500D01*
X232486200Y-118899781D02*
X232486200Y-118832053D01*
X232486200Y-118832053D02*
X232311000Y-118656853D01*
D64*
X232613200Y-143256000D02*
X233772000Y-143256000D01*
D60*
X232486200Y-118899781D02*
X232486200Y-138506200D01*
D64*
X232486200Y-143129000D02*
X232613200Y-143256000D01*
X232486200Y-138506200D02*
X232486200Y-143129000D01*
%TO.N,/15V 3A Buck-Boost Power Supply/LDRV1*%
D60*
X189922600Y-122936000D02*
X189949600Y-122963000D01*
X189108026Y-123083374D02*
X189255400Y-122936000D01*
X189108026Y-123621899D02*
X189108026Y-123083374D01*
X184454800Y-125679200D02*
X183530800Y-125679200D01*
X189255400Y-122936000D02*
X189922600Y-122936000D01*
X183530800Y-125679200D02*
X183522000Y-125670400D01*
%TO.N,/CANable2.0/STAT_LED*%
X229238100Y-108461100D02*
X235811000Y-115034000D01*
X235811000Y-115034000D02*
X235811000Y-115141066D01*
D62*
X235811000Y-115141066D02*
X235811000Y-117446500D01*
D60*
X227565400Y-108461100D02*
X229238100Y-108461100D01*
%TO.N,Net-(C26-Pad2)*%
X166658200Y-113199000D02*
X167368600Y-113199000D01*
X166462800Y-114723000D02*
X166446200Y-114706400D01*
X167418600Y-116247000D02*
X166589800Y-116247000D01*
X167418600Y-114723000D02*
X166462800Y-114723000D01*
X166446200Y-114706400D02*
X166446200Y-113411000D01*
X166446200Y-116103400D02*
X166446200Y-114706400D01*
X166589800Y-116247000D02*
X166446200Y-116103400D01*
X166446200Y-113411000D02*
X166658200Y-113199000D01*
%TO.N,Net-(U1-VCAP)*%
X188346600Y-99248000D02*
X186738600Y-99248000D01*
X186738600Y-99248000D02*
X186563600Y-99073000D01*
%TO.N,Net-(Q1-G)*%
X191820800Y-98094800D02*
X191820800Y-95173800D01*
X191820800Y-95173800D02*
X192394600Y-94600000D01*
X190621600Y-98298000D02*
X191617600Y-98298000D01*
X191617600Y-98298000D02*
X191820800Y-98094800D01*
X192394600Y-94600000D02*
X193846000Y-94600000D01*
%TO.N,Net-(Q5-C)*%
X228219000Y-122250200D02*
X227509400Y-121540600D01*
X225526600Y-121843800D02*
X225526600Y-123971400D01*
X227509400Y-121540600D02*
X226464400Y-121540600D01*
X229255000Y-122154000D02*
X229158800Y-122250200D01*
X229158800Y-122250200D02*
X228219000Y-122250200D01*
X226464400Y-121540600D02*
X225829800Y-121540600D01*
X225829800Y-121540600D02*
X225526600Y-121843800D01*
X229255000Y-121376500D02*
X229255000Y-122154000D01*
X225526600Y-123971400D02*
X225514400Y-123983600D01*
%TO.N,/CANable2.0/WORD_LED*%
D62*
X227587700Y-110007400D02*
X227565400Y-109985100D01*
X229898500Y-112534000D02*
X231178800Y-112534000D01*
X231178800Y-112534000D02*
X231190800Y-112522000D01*
D60*
X228574600Y-110007400D02*
X227587700Y-110007400D01*
%TD*%
%TA.AperFunction,Conductor*%
%TO.N,/15V 3A Buck-Boost Power Supply/+V_OUT*%
G36*
X194458603Y-95269685D02*
G01*
X194504358Y-95322489D01*
X194515564Y-95374000D01*
X194515564Y-98770004D01*
X194535007Y-98867749D01*
X194543102Y-98879864D01*
X194563980Y-98946541D01*
X194564000Y-98948756D01*
X194564000Y-111336564D01*
X194544315Y-111403603D01*
X194491511Y-111449358D01*
X194440000Y-111460564D01*
X194165933Y-111460564D01*
X194092889Y-111475093D01*
X194092885Y-111475095D01*
X194010046Y-111530446D01*
X193954695Y-111613285D01*
X193954693Y-111613289D01*
X193940164Y-111686331D01*
X193940164Y-112398000D01*
X193920479Y-112465039D01*
X193867675Y-112510794D01*
X193816164Y-112522000D01*
X189608000Y-112522000D01*
X189540961Y-112502315D01*
X189495206Y-112449511D01*
X189484000Y-112398000D01*
X189484000Y-100200000D01*
X189503685Y-100132961D01*
X189556489Y-100087206D01*
X189608000Y-100076000D01*
X191262000Y-100076000D01*
X192024000Y-99568000D01*
X192024000Y-98566538D01*
X192043685Y-98499499D01*
X192060317Y-98478859D01*
X192081329Y-98457847D01*
X192081334Y-98457843D01*
X192091539Y-98447637D01*
X192091541Y-98447637D01*
X192173637Y-98365541D01*
X192231687Y-98264995D01*
X192261736Y-98152850D01*
X192261736Y-95407803D01*
X192281421Y-95340764D01*
X192298055Y-95320122D01*
X192331858Y-95286319D01*
X192393181Y-95252834D01*
X192419539Y-95250000D01*
X194391564Y-95250000D01*
X194458603Y-95269685D01*
G37*
%TD.AperFunction*%
%TD*%
%TA.AperFunction,Conductor*%
%TO.N,/15V 3A Buck-Boost Power Supply/SW2*%
G36*
X199410106Y-111511023D02*
G01*
X199425104Y-111515427D01*
X199483855Y-111553172D01*
X199485042Y-111554541D01*
X199512518Y-111609402D01*
X199514163Y-111616960D01*
X199517000Y-111643331D01*
X199517000Y-122032170D01*
X199511975Y-122067114D01*
X199507570Y-122082112D01*
X199469827Y-122140855D01*
X199468458Y-122142042D01*
X199413597Y-122169518D01*
X199406039Y-122171163D01*
X199379668Y-122174000D01*
X190895830Y-122174000D01*
X190860889Y-122168975D01*
X190845890Y-122164570D01*
X190787144Y-122126827D01*
X190785957Y-122125458D01*
X190758477Y-122070583D01*
X190756832Y-122063021D01*
X190754000Y-122036668D01*
X190754000Y-117362829D01*
X190759023Y-117327893D01*
X190763427Y-117312895D01*
X190801172Y-117254144D01*
X190802541Y-117252957D01*
X190857420Y-117225477D01*
X190864979Y-117223833D01*
X190891332Y-117221000D01*
X193929000Y-117221000D01*
X193948575Y-117201424D01*
X193976826Y-117180275D01*
X193999918Y-117167667D01*
X194059343Y-117152500D01*
X194471084Y-117152500D01*
X194471087Y-117152500D01*
X194583231Y-117122451D01*
X194683777Y-117064401D01*
X194765873Y-116982305D01*
X194765873Y-116982304D01*
X194783311Y-116964866D01*
X194783313Y-116964863D01*
X194818899Y-116929277D01*
X194818902Y-116929275D01*
X194836340Y-116911837D01*
X194836341Y-116911837D01*
X194918437Y-116829741D01*
X194976487Y-116729195D01*
X195006536Y-116617050D01*
X195006536Y-116552247D01*
X195011558Y-116517314D01*
X195017470Y-116497179D01*
X195047982Y-116445226D01*
X195052706Y-116440416D01*
X195072260Y-116424223D01*
X195075634Y-116421969D01*
X195121154Y-116391554D01*
X195176505Y-116308715D01*
X195191036Y-116235664D01*
X195191036Y-115526336D01*
X195191036Y-115526333D01*
X195191036Y-115526151D01*
X195190608Y-115524184D01*
X195178886Y-115465257D01*
X195178285Y-115459157D01*
X195178274Y-115459118D01*
X195176784Y-115453172D01*
X195173624Y-115447899D01*
X195173608Y-115447869D01*
X195169725Y-115443138D01*
X195121154Y-115370446D01*
X195038697Y-115315350D01*
X195038317Y-115315096D01*
X195038315Y-115315095D01*
X195038313Y-115315094D01*
X195038310Y-115315093D01*
X195038307Y-115315092D01*
X195038298Y-115315089D01*
X194965271Y-115300564D01*
X194965267Y-115300564D01*
X194965264Y-115300564D01*
X194165936Y-115300564D01*
X194165933Y-115300564D01*
X194165928Y-115300564D01*
X194123634Y-115308977D01*
X194112676Y-115310652D01*
X194068905Y-115315350D01*
X194000148Y-115302932D01*
X193949020Y-115255314D01*
X193946341Y-115250796D01*
X193929000Y-115187552D01*
X193929000Y-112836256D01*
X193948685Y-112769217D01*
X193991638Y-112728503D01*
X194034950Y-112703840D01*
X194087754Y-112658085D01*
X194119371Y-112625319D01*
X194165567Y-112537006D01*
X194185252Y-112469967D01*
X194195600Y-112398000D01*
X194195600Y-111840000D01*
X194215285Y-111772961D01*
X194268089Y-111727206D01*
X194319600Y-111716000D01*
X194439991Y-111716000D01*
X194440000Y-111716000D01*
X194494299Y-111710162D01*
X194545810Y-111698956D01*
X194572178Y-111691722D01*
X194658786Y-111642404D01*
X194711590Y-111596649D01*
X194743207Y-111563883D01*
X194747830Y-111557473D01*
X194803007Y-111514610D01*
X194848407Y-111506000D01*
X199375170Y-111506000D01*
X199410106Y-111511023D01*
G37*
%TD.AperFunction*%
%TD*%
%TA.AperFunction,Conductor*%
%TO.N,/V_OUT*%
G36*
X196487616Y-88016022D02*
G01*
X196495250Y-88018263D01*
X196512593Y-88023356D01*
X196566461Y-88055787D01*
X198714780Y-90260148D01*
X203403120Y-95070793D01*
X203408086Y-95075888D01*
X203428872Y-95104414D01*
X203441710Y-95128663D01*
X203456047Y-95182409D01*
X203575962Y-98659907D01*
X203572147Y-98694993D01*
X203568262Y-98710137D01*
X203532536Y-98770182D01*
X203532520Y-98770197D01*
X203532031Y-98770651D01*
X203476116Y-98800469D01*
X203466691Y-98802691D01*
X203438237Y-98806000D01*
X194959830Y-98806000D01*
X194924889Y-98800975D01*
X194909890Y-98796570D01*
X194851144Y-98758827D01*
X194849957Y-98757458D01*
X194822477Y-98702583D01*
X194820832Y-98695021D01*
X194818000Y-98668668D01*
X194818000Y-96012000D01*
X194807319Y-96001319D01*
X194773834Y-95939996D01*
X194771000Y-95913638D01*
X194771000Y-95374008D01*
X194771000Y-95374000D01*
X194765162Y-95319701D01*
X194753956Y-95268190D01*
X194746722Y-95241822D01*
X194746721Y-95241821D01*
X194746721Y-95241819D01*
X194706352Y-95170928D01*
X194697404Y-95155214D01*
X194651649Y-95102410D01*
X194651644Y-95102405D01*
X194618884Y-95070793D01*
X194618879Y-95070790D01*
X194537961Y-95028462D01*
X194487682Y-94979946D01*
X194471436Y-94918587D01*
X194471436Y-94245151D01*
X194471008Y-94243184D01*
X194459286Y-94184257D01*
X194458685Y-94178153D01*
X194458673Y-94178112D01*
X194457185Y-94172173D01*
X194454024Y-94166899D01*
X194454008Y-94166869D01*
X194450125Y-94162138D01*
X194445414Y-94155087D01*
X194401554Y-94089446D01*
X194318718Y-94034097D01*
X194318717Y-94034096D01*
X194318715Y-94034095D01*
X194318713Y-94034094D01*
X194318710Y-94034093D01*
X194318707Y-94034092D01*
X194318698Y-94034089D01*
X194245671Y-94019564D01*
X194245667Y-94019564D01*
X194245664Y-94019564D01*
X193446336Y-94019564D01*
X193446333Y-94019564D01*
X193431805Y-94022453D01*
X193373290Y-94034092D01*
X193373288Y-94034093D01*
X193373281Y-94034097D01*
X193290445Y-94089446D01*
X193289732Y-94090159D01*
X193267069Y-94115388D01*
X193250970Y-94128842D01*
X193196748Y-94155087D01*
X193193853Y-94155690D01*
X193190167Y-94156457D01*
X193164879Y-94159064D01*
X192336550Y-94159064D01*
X192224418Y-94189109D01*
X192224401Y-94189114D01*
X192224389Y-94189120D01*
X192123871Y-94247153D01*
X192123861Y-94247160D01*
X192123855Y-94247165D01*
X192123848Y-94247171D01*
X191467971Y-94903048D01*
X191467965Y-94903055D01*
X191467960Y-94903061D01*
X191467953Y-94903071D01*
X191409920Y-95003589D01*
X191409914Y-95003601D01*
X191409909Y-95003618D01*
X191379864Y-95115750D01*
X191379864Y-95870170D01*
X191374839Y-95905114D01*
X191370434Y-95920112D01*
X191332691Y-95978855D01*
X191331322Y-95980042D01*
X191276461Y-96007518D01*
X191268903Y-96009163D01*
X191242532Y-96012000D01*
X188863830Y-96012000D01*
X188828889Y-96006975D01*
X188813890Y-96002570D01*
X188755144Y-95964827D01*
X188753957Y-95963458D01*
X188726477Y-95908583D01*
X188724832Y-95901021D01*
X188722000Y-95874668D01*
X188722000Y-92278110D01*
X189599764Y-92278110D01*
X189599764Y-93373888D01*
X189606170Y-93433462D01*
X189606172Y-93433467D01*
X189606173Y-93433471D01*
X189656459Y-93568296D01*
X189656460Y-93568298D01*
X189656461Y-93568299D01*
X189660600Y-93574041D01*
X189661773Y-93575395D01*
X189742700Y-93683500D01*
X189819643Y-93741099D01*
X189857899Y-93769738D01*
X189857900Y-93769738D01*
X189857901Y-93769739D01*
X189857903Y-93769740D01*
X189902844Y-93786502D01*
X189992732Y-93820028D01*
X190009443Y-93821824D01*
X190009451Y-93821825D01*
X190014704Y-93822389D01*
X190052319Y-93826435D01*
X190052330Y-93826435D01*
X190052333Y-93826436D01*
X190052336Y-93826436D01*
X191668057Y-93826436D01*
X191668064Y-93826436D01*
X191668080Y-93826435D01*
X191705378Y-93822423D01*
X191705386Y-93822425D01*
X191705386Y-93822423D01*
X191727668Y-93820028D01*
X191862499Y-93769739D01*
X191977700Y-93683500D01*
X192063939Y-93568299D01*
X192114228Y-93433468D01*
X192116623Y-93411186D01*
X192120635Y-93373880D01*
X192120636Y-93373863D01*
X192120636Y-92278136D01*
X192120635Y-92278119D01*
X192114939Y-92225147D01*
X192114734Y-92221338D01*
X192114228Y-92218531D01*
X192063940Y-92083703D01*
X192063939Y-92083701D01*
X191977700Y-91968500D01*
X191869595Y-91887573D01*
X191868241Y-91886400D01*
X191862499Y-91882261D01*
X191862498Y-91882260D01*
X191862496Y-91882259D01*
X191786102Y-91853766D01*
X191733871Y-91834285D01*
X191727742Y-91831618D01*
X191721052Y-91831260D01*
X191668085Y-91825564D01*
X191668080Y-91825564D01*
X191668064Y-91825564D01*
X190052336Y-91825564D01*
X190052319Y-91825564D01*
X190052310Y-91825564D01*
X189992736Y-91831970D01*
X189992729Y-91831972D01*
X189857907Y-91882257D01*
X189857901Y-91882260D01*
X189742699Y-91968499D01*
X189656460Y-92083701D01*
X189656457Y-92083707D01*
X189606172Y-92218529D01*
X189606170Y-92218536D01*
X189599764Y-92278110D01*
X188722000Y-92278110D01*
X188722000Y-89575999D01*
X189494698Y-89575999D01*
X189494698Y-89576000D01*
X190237597Y-89576000D01*
X190304636Y-89595685D01*
X190350391Y-89648489D01*
X190360335Y-89717647D01*
X190357375Y-89732077D01*
X190350200Y-89758857D01*
X190350200Y-89893143D01*
X190357371Y-89919909D01*
X190355709Y-89989756D01*
X190316547Y-90047618D01*
X190252319Y-90075123D01*
X190237597Y-90076000D01*
X189494698Y-90076000D01*
X189497048Y-90090841D01*
X189497049Y-90090844D01*
X189499893Y-90099598D01*
X189499894Y-90099602D01*
X189552055Y-90260142D01*
X189552057Y-90260148D01*
X189632881Y-90418772D01*
X189728897Y-90550924D01*
X189733031Y-90558306D01*
X189737524Y-90562799D01*
X189863400Y-90688675D01*
X190007426Y-90793317D01*
X190082366Y-90831501D01*
X190166044Y-90874138D01*
X190166046Y-90874138D01*
X190166049Y-90874140D01*
X190335353Y-90929150D01*
X190511189Y-90957000D01*
X190610200Y-90957000D01*
X190610200Y-90448603D01*
X190629885Y-90381564D01*
X190682689Y-90335809D01*
X190751847Y-90325865D01*
X190766277Y-90328824D01*
X190793057Y-90336000D01*
X190927340Y-90336000D01*
X190927343Y-90336000D01*
X190954109Y-90328828D01*
X191023956Y-90330491D01*
X191081818Y-90369653D01*
X191109323Y-90433881D01*
X191110200Y-90448603D01*
X191110200Y-90957000D01*
X191209210Y-90957000D01*
X191209211Y-90957000D01*
X191375404Y-90930676D01*
X191375410Y-90930676D01*
X191377156Y-90930399D01*
X191385044Y-90929150D01*
X191385047Y-90929150D01*
X191554350Y-90874140D01*
X191712973Y-90793317D01*
X191845128Y-90697299D01*
X191852506Y-90693167D01*
X191856998Y-90688675D01*
X191856999Y-90688675D01*
X191982875Y-90562799D01*
X191982875Y-90562798D01*
X191987367Y-90558306D01*
X191991499Y-90550928D01*
X192087517Y-90418773D01*
X192168341Y-90260148D01*
X192223350Y-90090844D01*
X192223351Y-90090841D01*
X192225701Y-90076000D01*
X192225700Y-90076000D01*
X191482803Y-90076000D01*
X191415764Y-90056315D01*
X191370009Y-90003511D01*
X191360065Y-89934353D01*
X191363024Y-89919922D01*
X191370200Y-89893143D01*
X191370200Y-89758857D01*
X191363028Y-89732090D01*
X191364691Y-89662244D01*
X191403853Y-89604382D01*
X191468081Y-89576877D01*
X191482803Y-89576000D01*
X192225702Y-89576000D01*
X192229561Y-89566682D01*
X192220163Y-89551346D01*
X192168343Y-89391856D01*
X192168341Y-89391850D01*
X192106476Y-89270435D01*
X192087517Y-89233226D01*
X191991499Y-89101071D01*
X191987366Y-89093691D01*
X191857000Y-88963325D01*
X191850813Y-88958830D01*
X191712973Y-88858682D01*
X191554350Y-88777859D01*
X191385046Y-88722849D01*
X191375405Y-88721322D01*
X191209216Y-88695000D01*
X191209211Y-88695000D01*
X191110200Y-88695000D01*
X191110200Y-89203396D01*
X191090515Y-89270435D01*
X191037711Y-89316190D01*
X190968553Y-89326134D01*
X190954109Y-89323171D01*
X190927347Y-89316000D01*
X190927343Y-89316000D01*
X190793057Y-89316000D01*
X190793052Y-89316000D01*
X190766291Y-89323171D01*
X190696441Y-89321507D01*
X190638579Y-89282344D01*
X190611077Y-89218115D01*
X190610200Y-89203396D01*
X190610200Y-88695000D01*
X190511189Y-88695000D01*
X190511184Y-88695000D01*
X190344996Y-88721322D01*
X190344988Y-88721322D01*
X190344989Y-88721323D01*
X190335350Y-88722849D01*
X190166044Y-88777860D01*
X190007426Y-88858681D01*
X189875274Y-88954697D01*
X189867893Y-88958830D01*
X189733030Y-89093693D01*
X189728897Y-89101074D01*
X189632881Y-89233226D01*
X189552057Y-89391850D01*
X189552055Y-89391856D01*
X189497215Y-89560643D01*
X189497057Y-89561123D01*
X189497049Y-89561155D01*
X189497048Y-89561158D01*
X189494698Y-89575999D01*
X188722000Y-89575999D01*
X188722000Y-88152829D01*
X188727023Y-88117893D01*
X188731427Y-88102895D01*
X188769172Y-88044144D01*
X188770541Y-88042957D01*
X188825420Y-88015477D01*
X188832979Y-88013833D01*
X188859332Y-88011000D01*
X196452684Y-88011000D01*
X196487616Y-88016022D01*
G37*
%TD.AperFunction*%
%TD*%
%TA.AperFunction,Conductor*%
%TO.N,/15V 3A Buck-Boost Power Supply/SW1*%
G36*
X190895830Y-122429436D02*
G01*
X199379665Y-122429436D01*
X199379668Y-122429436D01*
X199386358Y-122429077D01*
X199454355Y-122445142D01*
X199502873Y-122495419D01*
X199517000Y-122552899D01*
X199517000Y-129724325D01*
X199511976Y-129759263D01*
X199504604Y-129784367D01*
X199472727Y-129837689D01*
X197712254Y-131575000D01*
X197712253Y-131575001D01*
X197635506Y-131650737D01*
X197607116Y-131671698D01*
X197583816Y-131684222D01*
X197525108Y-131699000D01*
X195061174Y-131699000D01*
X195049013Y-131698402D01*
X195036938Y-131697212D01*
X195024908Y-131695427D01*
X194965269Y-131683564D01*
X194965266Y-131683564D01*
X194965264Y-131683564D01*
X194165936Y-131683564D01*
X194165934Y-131683564D01*
X194165929Y-131683564D01*
X194106291Y-131695427D01*
X194094262Y-131697212D01*
X194082188Y-131698402D01*
X194070026Y-131699000D01*
X194037866Y-131699000D01*
X194002925Y-131693975D01*
X193987926Y-131689570D01*
X193929180Y-131651827D01*
X193927993Y-131650458D01*
X193900513Y-131595583D01*
X193898868Y-131588021D01*
X193896036Y-131561668D01*
X193896036Y-128093815D01*
X193895601Y-128091813D01*
X193878202Y-128004343D01*
X193878201Y-128004342D01*
X193876592Y-127996249D01*
X193821221Y-127913379D01*
X193821220Y-127913378D01*
X193748502Y-127864790D01*
X193742160Y-127859585D01*
X193734539Y-127856428D01*
X193726369Y-127855624D01*
X193707743Y-127851919D01*
X193666757Y-127843766D01*
X193633474Y-127832024D01*
X193615374Y-127822556D01*
X193583766Y-127798938D01*
X193548000Y-127762000D01*
X190895830Y-127762000D01*
X190860889Y-127756975D01*
X190845890Y-127752570D01*
X190787144Y-127714827D01*
X190785957Y-127713458D01*
X190758477Y-127658583D01*
X190756832Y-127651021D01*
X190754000Y-127624668D01*
X190754000Y-122552477D01*
X190773685Y-122485438D01*
X190826489Y-122439683D01*
X190886849Y-122428793D01*
X190895830Y-122429436D01*
G37*
%TD.AperFunction*%
%TD*%
%TA.AperFunction,Conductor*%
%TO.N,/VIN_PS*%
G36*
X190698062Y-127961206D02*
G01*
X190707819Y-127967474D01*
X190773912Y-127997655D01*
X190788911Y-128002060D01*
X190824528Y-128009810D01*
X190824532Y-128009810D01*
X190824534Y-128009811D01*
X190844971Y-128012750D01*
X190859469Y-128014835D01*
X190895830Y-128017436D01*
X193411222Y-128017436D01*
X193477281Y-128036497D01*
X193496977Y-128048896D01*
X193496979Y-128048897D01*
X193501272Y-128051143D01*
X193551551Y-128099660D01*
X193567640Y-128154825D01*
X193640445Y-129610911D01*
X193640600Y-129617103D01*
X193640600Y-131561668D01*
X193642062Y-131588961D01*
X193644076Y-131607710D01*
X193644893Y-131615307D01*
X193644893Y-131615308D01*
X193649267Y-131642303D01*
X193649271Y-131642328D01*
X193650914Y-131649879D01*
X193672114Y-131709957D01*
X193699589Y-131764824D01*
X193699595Y-131764834D01*
X193733017Y-131814828D01*
X193753776Y-131877550D01*
X193801998Y-132841998D01*
X194515303Y-133555303D01*
X194536453Y-133583555D01*
X194549108Y-133606730D01*
X194564276Y-133665602D01*
X194608960Y-143621613D01*
X194604094Y-143656569D01*
X194599757Y-143671589D01*
X194562247Y-143730537D01*
X194560997Y-143731630D01*
X194506015Y-143759387D01*
X194498210Y-143761104D01*
X194471569Y-143764000D01*
X183021830Y-143764000D01*
X182986889Y-143758975D01*
X182971890Y-143754570D01*
X182913144Y-143716827D01*
X182911957Y-143715458D01*
X182884477Y-143660583D01*
X182882832Y-143653021D01*
X182880000Y-143626668D01*
X182880000Y-139192000D01*
X177941830Y-139192000D01*
X177906889Y-139186975D01*
X177891890Y-139182570D01*
X177833144Y-139144827D01*
X177831957Y-139143458D01*
X177804477Y-139088583D01*
X177802832Y-139081021D01*
X177800000Y-139054668D01*
X177800000Y-138662307D01*
X185812001Y-138662307D01*
X185848847Y-138847536D01*
X185848849Y-138847544D01*
X185848852Y-138847554D01*
X185848855Y-138847562D01*
X185848860Y-138847576D01*
X185910802Y-138997119D01*
X185910807Y-138997128D01*
X185910817Y-138997145D01*
X186000761Y-139131755D01*
X186000762Y-139131756D01*
X186000767Y-139131762D01*
X186115236Y-139246231D01*
X186115242Y-139246236D01*
X186115246Y-139246239D01*
X186249860Y-139336186D01*
X186249873Y-139336193D01*
X186375839Y-139388369D01*
X186375842Y-139388370D01*
X186375843Y-139388371D01*
X186393834Y-139395823D01*
X186398247Y-139397910D01*
X186558240Y-139429736D01*
X186720156Y-139429736D01*
X186720157Y-139429736D01*
X186829105Y-139408064D01*
X186829106Y-139408064D01*
X186841650Y-139405568D01*
X186878950Y-139398149D01*
X187028533Y-139336190D01*
X187028545Y-139336181D01*
X187030661Y-139335052D01*
X187052059Y-139326075D01*
X187066282Y-139321620D01*
X187136139Y-139320373D01*
X187195582Y-139357091D01*
X187224257Y-139412500D01*
X187226087Y-139420564D01*
X187229164Y-139448011D01*
X187229164Y-139746855D01*
X187229175Y-139747038D01*
X187229277Y-139747913D01*
X187235570Y-139806468D01*
X187271359Y-139902422D01*
X187285859Y-139941297D01*
X187285863Y-139941304D01*
X187372098Y-140056498D01*
X187372101Y-140056501D01*
X187487295Y-140142736D01*
X187487302Y-140142740D01*
X187520428Y-140155095D01*
X187622131Y-140193028D01*
X187681735Y-140199436D01*
X188427464Y-140199435D01*
X188487069Y-140193028D01*
X188621900Y-140142739D01*
X188737100Y-140056500D01*
X188823339Y-139941300D01*
X188873628Y-139806469D01*
X188876989Y-139775205D01*
X188880035Y-139746881D01*
X188880035Y-139746874D01*
X188880036Y-139746865D01*
X188880035Y-137451136D01*
X188873628Y-137391531D01*
X188873626Y-137391527D01*
X188873626Y-137391524D01*
X188858949Y-137352173D01*
X188858948Y-137352173D01*
X188823340Y-137256702D01*
X188823336Y-137256695D01*
X188737101Y-137141501D01*
X188737098Y-137141498D01*
X188737094Y-137141495D01*
X188621906Y-137055264D01*
X188621904Y-137055263D01*
X188621902Y-137055261D01*
X188493272Y-137007285D01*
X188487144Y-137004619D01*
X188480470Y-137004261D01*
X188427472Y-136998564D01*
X188427463Y-136998564D01*
X187681740Y-136998564D01*
X187681738Y-136998564D01*
X187681736Y-136998564D01*
X187681031Y-136998614D01*
X187679584Y-136998795D01*
X187622130Y-137004970D01*
X187487299Y-137055260D01*
X187487292Y-137055264D01*
X187372104Y-137141495D01*
X187372099Y-137141499D01*
X187372095Y-137141504D01*
X187285864Y-137256692D01*
X187285861Y-137256698D01*
X187285860Y-137256698D01*
X187235572Y-137391528D01*
X187235570Y-137391535D01*
X187229164Y-137451109D01*
X187229164Y-137763649D01*
X187224139Y-137798591D01*
X187220301Y-137811659D01*
X187182523Y-137870435D01*
X187118965Y-137899456D01*
X187056947Y-137892503D01*
X187053202Y-137891068D01*
X187048819Y-137889388D01*
X187031159Y-137880775D01*
X187031140Y-137880813D01*
X187030218Y-137880316D01*
X187029292Y-137879865D01*
X187028545Y-137879416D01*
X187028527Y-137879406D01*
X187028520Y-137879403D01*
X186878976Y-137817460D01*
X186878962Y-137817455D01*
X186878954Y-137817452D01*
X186878944Y-137817449D01*
X186878939Y-137817447D01*
X186720158Y-137785864D01*
X186720156Y-137785864D01*
X186720154Y-137785864D01*
X186558246Y-137785864D01*
X186558244Y-137785864D01*
X186558240Y-137785864D01*
X186399461Y-137817447D01*
X186399455Y-137817449D01*
X186399445Y-137817452D01*
X186399440Y-137817453D01*
X186399422Y-137817460D01*
X186249879Y-137879402D01*
X186249870Y-137879407D01*
X186249853Y-137879417D01*
X186115243Y-137969361D01*
X186115242Y-137969362D01*
X186115236Y-137969367D01*
X186000767Y-138083836D01*
X186000762Y-138083842D01*
X186000761Y-138083843D01*
X185910817Y-138218453D01*
X185910807Y-138218470D01*
X185910802Y-138218479D01*
X185848860Y-138368022D01*
X185848852Y-138368046D01*
X185848847Y-138368059D01*
X185817264Y-138526840D01*
X185817264Y-138644387D01*
X185812001Y-138662307D01*
X177800000Y-138662307D01*
X177800000Y-136652000D01*
X175401830Y-136652000D01*
X175366889Y-136646975D01*
X175351890Y-136642570D01*
X175293144Y-136604827D01*
X175291957Y-136603458D01*
X175264477Y-136548583D01*
X175262832Y-136541021D01*
X175260000Y-136514668D01*
X175260000Y-135131707D01*
X185812001Y-135131707D01*
X185848847Y-135316936D01*
X185848849Y-135316944D01*
X185848852Y-135316954D01*
X185848855Y-135316962D01*
X185848860Y-135316976D01*
X185910802Y-135466519D01*
X185910807Y-135466528D01*
X185910817Y-135466545D01*
X186000761Y-135601155D01*
X186000762Y-135601156D01*
X186000767Y-135601162D01*
X186115236Y-135715631D01*
X186115242Y-135715636D01*
X186115246Y-135715639D01*
X186249860Y-135805586D01*
X186249873Y-135805593D01*
X186393850Y-135865229D01*
X186398273Y-135867321D01*
X186399006Y-135867463D01*
X186399750Y-135867609D01*
X186558240Y-135899136D01*
X186720156Y-135899136D01*
X186720157Y-135899136D01*
X186737960Y-135895594D01*
X186826985Y-135877885D01*
X186826986Y-135877885D01*
X186837434Y-135875806D01*
X186878950Y-135867549D01*
X187028533Y-135805590D01*
X187028541Y-135805583D01*
X187030661Y-135804452D01*
X187052059Y-135795475D01*
X187066282Y-135791020D01*
X187136139Y-135789773D01*
X187195582Y-135826491D01*
X187224257Y-135881900D01*
X187226087Y-135889964D01*
X187229164Y-135917411D01*
X187229164Y-136190855D01*
X187229175Y-136191038D01*
X187229277Y-136191913D01*
X187235570Y-136250468D01*
X187235571Y-136250470D01*
X187285859Y-136385297D01*
X187285863Y-136385304D01*
X187372098Y-136500498D01*
X187372101Y-136500501D01*
X187408835Y-136528000D01*
X187477643Y-136579511D01*
X187487295Y-136586736D01*
X187487302Y-136586740D01*
X187532243Y-136603502D01*
X187622131Y-136637028D01*
X187681735Y-136643436D01*
X188427464Y-136643435D01*
X188487069Y-136637028D01*
X188621900Y-136586739D01*
X188737100Y-136500500D01*
X188823339Y-136385300D01*
X188873628Y-136250469D01*
X188876023Y-136228187D01*
X188880035Y-136190881D01*
X188880035Y-136190874D01*
X188880036Y-136190865D01*
X188880035Y-133895136D01*
X188873628Y-133835531D01*
X188823476Y-133701068D01*
X188823340Y-133700702D01*
X188823336Y-133700695D01*
X188823334Y-133700691D01*
X188737103Y-133585504D01*
X188737099Y-133585499D01*
X188737094Y-133585495D01*
X188621906Y-133499264D01*
X188621904Y-133499263D01*
X188621902Y-133499261D01*
X188493272Y-133451285D01*
X188487144Y-133448619D01*
X188480470Y-133448261D01*
X188427472Y-133442564D01*
X188427463Y-133442564D01*
X187681740Y-133442564D01*
X187681738Y-133442564D01*
X187681736Y-133442564D01*
X187681031Y-133442614D01*
X187679584Y-133442795D01*
X187622130Y-133448970D01*
X187487299Y-133499260D01*
X187487292Y-133499264D01*
X187372104Y-133585495D01*
X187372099Y-133585499D01*
X187372095Y-133585504D01*
X187285864Y-133700692D01*
X187285861Y-133700698D01*
X187285860Y-133700698D01*
X187235572Y-133835528D01*
X187235570Y-133835535D01*
X187229164Y-133895109D01*
X187229164Y-134233049D01*
X187224139Y-134267991D01*
X187220301Y-134281059D01*
X187182523Y-134339835D01*
X187118965Y-134368856D01*
X187056947Y-134361903D01*
X187053202Y-134360468D01*
X187048819Y-134358788D01*
X187031159Y-134350175D01*
X187031140Y-134350213D01*
X187030218Y-134349716D01*
X187029292Y-134349265D01*
X187028545Y-134348816D01*
X187028527Y-134348806D01*
X187028520Y-134348803D01*
X186878976Y-134286860D01*
X186878962Y-134286855D01*
X186878954Y-134286852D01*
X186878944Y-134286849D01*
X186878939Y-134286847D01*
X186720158Y-134255264D01*
X186720156Y-134255264D01*
X186720154Y-134255264D01*
X186558246Y-134255264D01*
X186558244Y-134255264D01*
X186558240Y-134255264D01*
X186399461Y-134286847D01*
X186399455Y-134286849D01*
X186399445Y-134286852D01*
X186399440Y-134286853D01*
X186399422Y-134286860D01*
X186249879Y-134348802D01*
X186249870Y-134348807D01*
X186249853Y-134348817D01*
X186115243Y-134438761D01*
X186115242Y-134438762D01*
X186115236Y-134438767D01*
X186000767Y-134553236D01*
X186000762Y-134553242D01*
X186000761Y-134553243D01*
X185910817Y-134687853D01*
X185910807Y-134687870D01*
X185910802Y-134687879D01*
X185848860Y-134837422D01*
X185848852Y-134837446D01*
X185848847Y-134837459D01*
X185817264Y-134996240D01*
X185817264Y-135113787D01*
X185812001Y-135131707D01*
X175260000Y-135131707D01*
X175260000Y-131205829D01*
X175265023Y-131170893D01*
X175269427Y-131155895D01*
X175307172Y-131097144D01*
X175308541Y-131095957D01*
X175363420Y-131068477D01*
X175370979Y-131066833D01*
X175397332Y-131064000D01*
X186216636Y-131064000D01*
X188266183Y-128057994D01*
X188320210Y-128013696D01*
X188389614Y-128005639D01*
X188394994Y-128006685D01*
X188399148Y-128007590D01*
X188399165Y-128007593D01*
X188399169Y-128007594D01*
X188401170Y-128007965D01*
X188414070Y-128010363D01*
X188429535Y-128012750D01*
X188444517Y-128014594D01*
X188460085Y-128016028D01*
X188475233Y-128016957D01*
X188490869Y-128017436D01*
X190375094Y-128017436D01*
X190375100Y-128017436D01*
X190436045Y-128010059D01*
X190493508Y-127995941D01*
X190526062Y-127985591D01*
X190564011Y-127961208D01*
X190631050Y-127941531D01*
X190698062Y-127961206D01*
G37*
%TD.AperFunction*%
%TD*%
%TA.AperFunction,Conductor*%
%TO.N,/V_IN*%
G36*
X182567603Y-139467121D02*
G01*
X182613358Y-139519925D01*
X182624564Y-139571436D01*
X182624564Y-143626671D01*
X182625822Y-143650151D01*
X182626000Y-143656785D01*
X182626000Y-146741063D01*
X182620975Y-146776007D01*
X182616570Y-146791005D01*
X182578803Y-146849769D01*
X182568510Y-146858689D01*
X182534754Y-146879542D01*
X182437276Y-146919918D01*
X182437274Y-146919919D01*
X182266625Y-147033944D01*
X182266624Y-147033945D01*
X182266618Y-147033950D01*
X182121510Y-147179058D01*
X182121508Y-147179061D01*
X182014293Y-147339517D01*
X182014260Y-147339568D01*
X182007474Y-147349721D01*
X181928948Y-147539304D01*
X181928935Y-147539343D01*
X181888900Y-147740613D01*
X181888900Y-147945865D01*
X181928935Y-148147135D01*
X181928936Y-148147139D01*
X181928937Y-148147142D01*
X181928940Y-148147152D01*
X181928943Y-148147160D01*
X181928948Y-148147174D01*
X182007474Y-148336756D01*
X182007479Y-148336764D01*
X182007480Y-148336765D01*
X182083839Y-148451043D01*
X182121503Y-148507411D01*
X182121506Y-148507415D01*
X182121507Y-148507416D01*
X182121510Y-148507420D01*
X182266618Y-148652528D01*
X182266624Y-148652533D01*
X182266628Y-148652536D01*
X182437275Y-148766560D01*
X182532986Y-148806204D01*
X182563334Y-148824210D01*
X182575503Y-148834016D01*
X182615352Y-148891406D01*
X182619653Y-148904327D01*
X182626000Y-148943490D01*
X182626000Y-152740770D01*
X182620975Y-152775714D01*
X182616570Y-152790712D01*
X182578827Y-152849455D01*
X182577458Y-152850642D01*
X182522597Y-152878118D01*
X182515039Y-152879763D01*
X182488668Y-152882600D01*
X181020087Y-152882600D01*
X181010352Y-152882217D01*
X181000651Y-152881453D01*
X180993404Y-152880595D01*
X180992191Y-152880500D01*
X180945741Y-152880500D01*
X159587803Y-152880500D01*
X159516200Y-152880500D01*
X159407159Y-152880500D01*
X159407155Y-152880500D01*
X159404428Y-152880715D01*
X159402360Y-152880500D01*
X159402290Y-152880500D01*
X159402290Y-152880492D01*
X159359768Y-152876071D01*
X159349890Y-152873170D01*
X159291144Y-152835427D01*
X159289957Y-152834058D01*
X159262477Y-152779183D01*
X159260832Y-152771621D01*
X159258000Y-152745268D01*
X159258000Y-150484354D01*
X163726500Y-150484354D01*
X163726500Y-150747644D01*
X163726503Y-150747669D01*
X163760863Y-151008667D01*
X163760864Y-151008672D01*
X163760865Y-151008678D01*
X163829009Y-151262994D01*
X163829012Y-151263004D01*
X163929761Y-151506234D01*
X163929769Y-151506250D01*
X164061409Y-151734256D01*
X164221687Y-151943136D01*
X164221693Y-151943143D01*
X164407856Y-152129306D01*
X164407863Y-152129312D01*
X164616743Y-152289590D01*
X164844749Y-152421230D01*
X164844765Y-152421238D01*
X164996451Y-152484068D01*
X165088000Y-152521989D01*
X165088001Y-152521989D01*
X165088003Y-152521990D01*
X165342320Y-152590134D01*
X165603356Y-152624500D01*
X165603363Y-152624500D01*
X165866637Y-152624500D01*
X165866644Y-152624500D01*
X166127680Y-152590134D01*
X166381997Y-152521990D01*
X166565099Y-152446146D01*
X166621193Y-152422911D01*
X166623050Y-152422218D01*
X166623490Y-152422021D01*
X166625309Y-152421234D01*
X166626950Y-152420323D01*
X166628662Y-152419260D01*
X166853257Y-152289590D01*
X167062138Y-152129311D01*
X167248311Y-151943138D01*
X167408590Y-151734257D01*
X167540234Y-151506243D01*
X167640990Y-151262997D01*
X167709134Y-151008680D01*
X167743500Y-150747644D01*
X167743500Y-150596886D01*
X175943465Y-150596886D01*
X175963712Y-150672446D01*
X175987203Y-150760114D01*
X175987204Y-150760115D01*
X175995363Y-150774248D01*
X175995365Y-150774251D01*
X176032785Y-150839065D01*
X176060298Y-150886720D01*
X176060300Y-150886722D01*
X176060301Y-150886723D01*
X176163677Y-150990099D01*
X176290287Y-151063197D01*
X176431502Y-151101036D01*
X176431505Y-151101036D01*
X176577695Y-151101036D01*
X176577698Y-151101036D01*
X176718913Y-151063197D01*
X176845523Y-150990099D01*
X176948899Y-150886723D01*
X177021997Y-150760113D01*
X177059836Y-150618898D01*
X177059836Y-150472702D01*
X177021997Y-150331487D01*
X176985448Y-150268182D01*
X176948901Y-150204880D01*
X176948897Y-150204875D01*
X176845520Y-150101498D01*
X176797865Y-150073985D01*
X176733052Y-150036565D01*
X176733047Y-150036562D01*
X176718915Y-150028403D01*
X176683609Y-150018943D01*
X176683609Y-150018942D01*
X176600078Y-149996561D01*
X176577698Y-149990564D01*
X176577697Y-149990564D01*
X176431502Y-149990564D01*
X176346772Y-150013266D01*
X176346773Y-150013267D01*
X176290283Y-150028403D01*
X176276155Y-150036560D01*
X176276142Y-150036569D01*
X176163680Y-150101497D01*
X176163676Y-150101501D01*
X176163666Y-150101509D01*
X176060309Y-150204866D01*
X176060303Y-150204873D01*
X176060298Y-150204879D01*
X176060297Y-150204880D01*
X175995369Y-150317342D01*
X175995358Y-150317357D01*
X175987202Y-150331484D01*
X175968282Y-150402091D01*
X175968283Y-150402092D01*
X175949364Y-150472700D01*
X175949364Y-150576800D01*
X175943465Y-150596886D01*
X167743500Y-150596886D01*
X167743500Y-150484356D01*
X167709134Y-150223320D01*
X167640990Y-149969003D01*
X167640986Y-149968994D01*
X167603068Y-149877451D01*
X167540238Y-149725765D01*
X167540230Y-149725749D01*
X167408590Y-149497743D01*
X167248312Y-149288863D01*
X167248306Y-149288856D01*
X167062143Y-149102693D01*
X167062136Y-149102687D01*
X166853256Y-148942409D01*
X166853251Y-148942406D01*
X166853248Y-148942404D01*
X166625248Y-148810768D01*
X166625243Y-148810765D01*
X166625239Y-148810763D01*
X166382004Y-148710012D01*
X166381997Y-148710010D01*
X166381995Y-148710009D01*
X166127678Y-148641865D01*
X166127672Y-148641864D01*
X166127667Y-148641863D01*
X165868522Y-148607747D01*
X165866841Y-148607500D01*
X165866650Y-148607500D01*
X165866644Y-148607500D01*
X165603356Y-148607500D01*
X165603350Y-148607500D01*
X165603348Y-148607500D01*
X165597228Y-148608253D01*
X165596322Y-148608425D01*
X165342331Y-148641863D01*
X165342324Y-148641864D01*
X165342321Y-148641865D01*
X165088004Y-148710009D01*
X165087994Y-148710012D01*
X164844759Y-148810763D01*
X164844755Y-148810765D01*
X164844750Y-148810768D01*
X164616750Y-148942404D01*
X164616734Y-148942415D01*
X164407862Y-149102688D01*
X164407855Y-149102694D01*
X164407847Y-149102701D01*
X164221701Y-149288847D01*
X164221694Y-149288855D01*
X164221688Y-149288862D01*
X164061415Y-149497734D01*
X164061404Y-149497750D01*
X163929768Y-149725750D01*
X163929765Y-149725755D01*
X163929763Y-149725759D01*
X163829012Y-149968994D01*
X163829009Y-149969003D01*
X163829009Y-149969004D01*
X163760866Y-150223320D01*
X163760863Y-150223331D01*
X163726503Y-150484329D01*
X163726500Y-150484354D01*
X159258000Y-150484354D01*
X159258000Y-147740613D01*
X176808900Y-147740613D01*
X176808900Y-147945865D01*
X176848935Y-148147135D01*
X176848936Y-148147139D01*
X176848937Y-148147142D01*
X176848940Y-148147152D01*
X176848943Y-148147160D01*
X176848948Y-148147174D01*
X176927474Y-148336756D01*
X176927479Y-148336764D01*
X176927480Y-148336765D01*
X177003839Y-148451043D01*
X177041503Y-148507411D01*
X177041506Y-148507415D01*
X177041507Y-148507416D01*
X177041510Y-148507420D01*
X177186618Y-148652528D01*
X177186624Y-148652533D01*
X177186628Y-148652536D01*
X177357275Y-148766560D01*
X177357277Y-148766560D01*
X177357842Y-148766938D01*
X177361324Y-148768237D01*
X177483684Y-148818920D01*
X177546889Y-148845100D01*
X177546891Y-148845100D01*
X177546893Y-148845101D01*
X177546895Y-148845101D01*
X177546897Y-148845102D01*
X177740537Y-148883619D01*
X177743271Y-148884343D01*
X177748179Y-148885140D01*
X177953420Y-148885140D01*
X177957540Y-148885140D01*
X177965390Y-148882758D01*
X178095570Y-148856864D01*
X178151430Y-148845752D01*
X178154888Y-148845162D01*
X178155226Y-148845034D01*
X178158738Y-148843431D01*
X178344325Y-148766560D01*
X178514972Y-148652536D01*
X178660096Y-148507412D01*
X178774120Y-148336765D01*
X178852660Y-148147151D01*
X178892700Y-147945858D01*
X178892700Y-147740622D01*
X178892700Y-147740619D01*
X178892699Y-147740617D01*
X178892698Y-147740613D01*
X179348900Y-147740613D01*
X179348900Y-147945865D01*
X179388935Y-148147135D01*
X179388936Y-148147139D01*
X179388937Y-148147142D01*
X179388940Y-148147152D01*
X179388943Y-148147160D01*
X179388948Y-148147174D01*
X179467474Y-148336756D01*
X179467479Y-148336764D01*
X179467480Y-148336765D01*
X179543839Y-148451043D01*
X179581503Y-148507411D01*
X179581506Y-148507415D01*
X179581507Y-148507416D01*
X179581510Y-148507420D01*
X179726618Y-148652528D01*
X179726624Y-148652533D01*
X179726628Y-148652536D01*
X179897275Y-148766560D01*
X179897277Y-148766560D01*
X179897842Y-148766938D01*
X179901324Y-148768237D01*
X180023684Y-148818920D01*
X180086889Y-148845100D01*
X180086891Y-148845100D01*
X180086893Y-148845101D01*
X180086895Y-148845101D01*
X180086897Y-148845102D01*
X180280537Y-148883619D01*
X180283271Y-148884343D01*
X180288179Y-148885140D01*
X180493420Y-148885140D01*
X180497540Y-148885140D01*
X180505390Y-148882758D01*
X180635570Y-148856864D01*
X180691430Y-148845752D01*
X180694888Y-148845162D01*
X180695226Y-148845034D01*
X180698738Y-148843431D01*
X180884325Y-148766560D01*
X181054972Y-148652536D01*
X181200096Y-148507412D01*
X181314120Y-148336765D01*
X181392660Y-148147151D01*
X181432700Y-147945858D01*
X181432700Y-147740622D01*
X181432700Y-147740619D01*
X181432700Y-147740435D01*
X181432264Y-147738430D01*
X181395146Y-147551824D01*
X181392662Y-147539337D01*
X181392659Y-147539327D01*
X181392652Y-147539310D01*
X181392650Y-147539304D01*
X181315799Y-147353767D01*
X181314498Y-147350283D01*
X181314123Y-147349722D01*
X181314122Y-147349719D01*
X181314121Y-147349718D01*
X181314120Y-147349715D01*
X181200096Y-147179068D01*
X181200093Y-147179064D01*
X181200088Y-147179058D01*
X181054977Y-147033947D01*
X181054972Y-147033944D01*
X180989430Y-146990150D01*
X180884271Y-146919884D01*
X180884208Y-146919842D01*
X180883285Y-146919225D01*
X180878669Y-146917575D01*
X180694734Y-146841388D01*
X180694720Y-146841383D01*
X180694712Y-146841380D01*
X180694702Y-146841377D01*
X180694699Y-146841376D01*
X180694695Y-146841375D01*
X180493424Y-146801340D01*
X180493421Y-146801340D01*
X180493418Y-146801340D01*
X180288182Y-146801340D01*
X180288179Y-146801340D01*
X180288174Y-146801340D01*
X180086903Y-146841375D01*
X180086897Y-146841377D01*
X180086887Y-146841380D01*
X180086882Y-146841381D01*
X180086864Y-146841388D01*
X179897281Y-146919914D01*
X179887128Y-146926700D01*
X179887125Y-146926702D01*
X179726621Y-147033948D01*
X179726618Y-147033950D01*
X179581510Y-147179058D01*
X179581508Y-147179061D01*
X179474293Y-147339517D01*
X179474260Y-147339568D01*
X179467474Y-147349721D01*
X179388948Y-147539304D01*
X179388935Y-147539343D01*
X179348900Y-147740613D01*
X178892698Y-147740613D01*
X178852662Y-147539337D01*
X178852659Y-147539327D01*
X178852652Y-147539310D01*
X178852650Y-147539304D01*
X178775799Y-147353767D01*
X178774498Y-147350283D01*
X178774123Y-147349722D01*
X178774122Y-147349719D01*
X178774121Y-147349718D01*
X178774120Y-147349715D01*
X178660096Y-147179068D01*
X178660093Y-147179064D01*
X178660088Y-147179058D01*
X178514977Y-147033947D01*
X178514972Y-147033944D01*
X178449430Y-146990150D01*
X178344271Y-146919884D01*
X178344208Y-146919842D01*
X178343285Y-146919225D01*
X178338669Y-146917575D01*
X178154734Y-146841388D01*
X178154720Y-146841383D01*
X178154712Y-146841380D01*
X178154702Y-146841377D01*
X178154699Y-146841376D01*
X178154695Y-146841375D01*
X177953424Y-146801340D01*
X177953421Y-146801340D01*
X177953418Y-146801340D01*
X177748182Y-146801340D01*
X177748179Y-146801340D01*
X177748174Y-146801340D01*
X177546903Y-146841375D01*
X177546897Y-146841377D01*
X177546887Y-146841380D01*
X177546882Y-146841381D01*
X177546864Y-146841388D01*
X177357281Y-146919914D01*
X177347128Y-146926700D01*
X177347125Y-146926702D01*
X177186621Y-147033948D01*
X177186618Y-147033950D01*
X177041510Y-147179058D01*
X177041508Y-147179061D01*
X176934293Y-147339517D01*
X176934260Y-147339568D01*
X176927474Y-147349721D01*
X176848948Y-147539304D01*
X176848935Y-147539343D01*
X176808900Y-147740613D01*
X159258000Y-147740613D01*
X159258000Y-145946988D01*
X163104000Y-145946988D01*
X163104000Y-146046000D01*
X163612397Y-146046000D01*
X163679436Y-146065685D01*
X163725191Y-146118489D01*
X163735135Y-146187647D01*
X163732175Y-146202077D01*
X163725000Y-146228857D01*
X163725000Y-146363143D01*
X163732171Y-146389909D01*
X163730509Y-146459756D01*
X163691347Y-146517618D01*
X163627119Y-146545123D01*
X163612397Y-146546000D01*
X163104000Y-146546000D01*
X163104000Y-146645016D01*
X163130322Y-146811203D01*
X163130323Y-146811210D01*
X163131849Y-146820848D01*
X163186860Y-146990154D01*
X163267681Y-147148772D01*
X163363697Y-147280924D01*
X163367831Y-147288306D01*
X163372324Y-147292799D01*
X163498200Y-147418675D01*
X163642226Y-147523317D01*
X163707221Y-147556434D01*
X163800848Y-147604140D01*
X163800851Y-147604141D01*
X163888667Y-147632673D01*
X163970151Y-147659149D01*
X163970162Y-147659151D01*
X163985000Y-147661501D01*
X163985000Y-147661500D01*
X163985000Y-146918603D01*
X164004685Y-146851564D01*
X164057489Y-146805809D01*
X164126647Y-146795865D01*
X164141077Y-146798824D01*
X164167857Y-146806000D01*
X164302140Y-146806000D01*
X164302143Y-146806000D01*
X164328909Y-146798828D01*
X164398756Y-146800491D01*
X164456618Y-146839653D01*
X164484123Y-146903881D01*
X164485000Y-146918603D01*
X164485000Y-147661499D01*
X164485000Y-147661500D01*
X164499837Y-147659151D01*
X164499852Y-147659148D01*
X164630806Y-147616599D01*
X164630807Y-147616603D01*
X164630819Y-147616594D01*
X164669150Y-147604140D01*
X164827773Y-147523317D01*
X164959928Y-147427299D01*
X164967306Y-147423167D01*
X164971798Y-147418675D01*
X164971799Y-147418675D01*
X165097675Y-147292799D01*
X165097675Y-147292798D01*
X165102167Y-147288306D01*
X165106299Y-147280928D01*
X165202317Y-147148773D01*
X165283140Y-146990150D01*
X165338150Y-146820847D01*
X165338150Y-146820844D01*
X165366000Y-146645011D01*
X165366000Y-146546000D01*
X164857603Y-146546000D01*
X164790564Y-146526315D01*
X164744809Y-146473511D01*
X164734865Y-146404353D01*
X164737824Y-146389922D01*
X164745000Y-146363143D01*
X164745000Y-146228857D01*
X164737828Y-146202090D01*
X164739491Y-146132244D01*
X164778653Y-146074382D01*
X164842881Y-146046877D01*
X164857603Y-146046000D01*
X165366000Y-146046000D01*
X165366000Y-145946989D01*
X165339677Y-145780795D01*
X165339676Y-145780788D01*
X165339676Y-145780789D01*
X165338150Y-145771155D01*
X165338150Y-145771152D01*
X165283140Y-145601849D01*
X165283138Y-145601846D01*
X165283138Y-145601844D01*
X165252192Y-145541110D01*
X165252196Y-145541107D01*
X165252183Y-145541093D01*
X165225191Y-145488119D01*
X165225186Y-145488110D01*
X166234564Y-145488110D01*
X166234564Y-147103888D01*
X166240970Y-147163462D01*
X166240972Y-147163469D01*
X166246789Y-147179064D01*
X166291259Y-147298296D01*
X166291260Y-147298298D01*
X166291261Y-147298299D01*
X166295400Y-147304041D01*
X166296573Y-147305395D01*
X166377500Y-147413500D01*
X166454443Y-147471099D01*
X166492699Y-147499738D01*
X166492700Y-147499738D01*
X166492701Y-147499739D01*
X166492703Y-147499740D01*
X166537644Y-147516502D01*
X166627532Y-147550028D01*
X166644243Y-147551824D01*
X166644251Y-147551825D01*
X166649504Y-147552389D01*
X166687119Y-147556435D01*
X166687130Y-147556435D01*
X166687133Y-147556436D01*
X166687136Y-147556436D01*
X167782857Y-147556436D01*
X167782864Y-147556436D01*
X167782880Y-147556435D01*
X167820178Y-147552423D01*
X167820186Y-147552425D01*
X167820186Y-147552423D01*
X167842468Y-147550028D01*
X167977299Y-147499739D01*
X168092500Y-147413500D01*
X168178739Y-147298299D01*
X168229028Y-147163468D01*
X168231423Y-147141186D01*
X168235435Y-147103880D01*
X168235436Y-147103863D01*
X168235436Y-145488136D01*
X168235435Y-145488119D01*
X168229739Y-145435147D01*
X168229534Y-145431340D01*
X168229028Y-145428532D01*
X168195502Y-145338645D01*
X168195502Y-145338644D01*
X168178740Y-145293703D01*
X168178739Y-145293701D01*
X168163537Y-145273394D01*
X168125895Y-145223109D01*
X168125892Y-145223106D01*
X168092500Y-145178500D01*
X167984395Y-145097573D01*
X167983041Y-145096400D01*
X167977299Y-145092261D01*
X167977298Y-145092260D01*
X167977296Y-145092259D01*
X167900902Y-145063766D01*
X167848671Y-145044285D01*
X167842542Y-145041618D01*
X167835852Y-145041260D01*
X167782885Y-145035564D01*
X167782880Y-145035564D01*
X167782864Y-145035564D01*
X166687136Y-145035564D01*
X166687119Y-145035564D01*
X166687110Y-145035564D01*
X166627536Y-145041970D01*
X166627529Y-145041972D01*
X166492707Y-145092257D01*
X166492701Y-145092260D01*
X166377499Y-145178499D01*
X166291260Y-145293701D01*
X166291257Y-145293707D01*
X166240972Y-145428529D01*
X166240970Y-145428536D01*
X166234564Y-145488110D01*
X165225186Y-145488110D01*
X165202317Y-145443226D01*
X165106299Y-145311071D01*
X165102166Y-145303691D01*
X164971800Y-145173325D01*
X164965613Y-145168830D01*
X164827773Y-145068682D01*
X164749418Y-145028758D01*
X164725497Y-145006166D01*
X164500355Y-144933015D01*
X164499874Y-144932856D01*
X164499833Y-144932846D01*
X164485000Y-144930498D01*
X164485000Y-145673396D01*
X164465315Y-145740435D01*
X164412511Y-145786190D01*
X164343353Y-145796134D01*
X164328909Y-145793171D01*
X164302147Y-145786000D01*
X164302143Y-145786000D01*
X164167857Y-145786000D01*
X164167852Y-145786000D01*
X164141091Y-145793171D01*
X164071241Y-145791507D01*
X164013379Y-145752344D01*
X163985877Y-145688115D01*
X163985000Y-145673396D01*
X163985000Y-144930498D01*
X163984999Y-144930498D01*
X163970163Y-144932847D01*
X163970160Y-144932847D01*
X163970158Y-144932848D01*
X163970155Y-144932849D01*
X163970123Y-144932857D01*
X163969643Y-144933015D01*
X163800856Y-144987855D01*
X163800850Y-144987857D01*
X163642226Y-145068681D01*
X163510074Y-145164697D01*
X163502693Y-145168830D01*
X163367830Y-145303693D01*
X163363697Y-145311074D01*
X163267681Y-145443226D01*
X163186860Y-145601844D01*
X163131849Y-145771150D01*
X163130323Y-145780788D01*
X163104000Y-145946988D01*
X159258000Y-145946988D01*
X159258000Y-142127829D01*
X159263023Y-142092893D01*
X159265242Y-142085338D01*
X159267427Y-142077894D01*
X159305172Y-142019144D01*
X159306541Y-142017957D01*
X159361420Y-141990477D01*
X159368979Y-141988833D01*
X159395332Y-141986000D01*
X171704000Y-141986000D01*
X172703996Y-141593143D01*
X172726250Y-141586725D01*
X172748736Y-141582467D01*
X172771802Y-141580304D01*
X173017940Y-141580304D01*
X173052875Y-141585326D01*
X173074696Y-141591734D01*
X173124247Y-141619949D01*
X173126909Y-141622427D01*
X173141687Y-141638877D01*
X173209158Y-141729008D01*
X173209160Y-141729010D01*
X173257283Y-141765034D01*
X173281204Y-141796989D01*
X173318605Y-141810939D01*
X173318604Y-141810939D01*
X173376466Y-141832520D01*
X173407434Y-141849429D01*
X173413930Y-141854291D01*
X173455803Y-141910222D01*
X173460792Y-141979913D01*
X173427310Y-142041238D01*
X173370309Y-142073705D01*
X173364945Y-142075075D01*
X173334260Y-142078932D01*
X172700938Y-142078932D01*
X172700936Y-142078932D01*
X172700231Y-142078982D01*
X172698784Y-142079163D01*
X172641330Y-142085338D01*
X172506499Y-142135628D01*
X172506492Y-142135632D01*
X172391304Y-142221863D01*
X172391299Y-142221867D01*
X172391295Y-142221872D01*
X172305064Y-142337060D01*
X172305061Y-142337066D01*
X172305060Y-142337066D01*
X172254772Y-142471896D01*
X172254770Y-142471903D01*
X172248364Y-142531477D01*
X172248364Y-142831140D01*
X172243339Y-142866081D01*
X172239428Y-142879398D01*
X172201651Y-142938174D01*
X172138093Y-142967196D01*
X172138079Y-142967198D01*
X172135405Y-142967582D01*
X172079152Y-142962671D01*
X172067600Y-142958884D01*
X172058775Y-142955615D01*
X171918356Y-142897453D01*
X171918358Y-142897453D01*
X171918354Y-142897452D01*
X171918348Y-142897450D01*
X171918339Y-142897447D01*
X171759558Y-142865864D01*
X171759556Y-142865864D01*
X171759554Y-142865864D01*
X171597646Y-142865864D01*
X171597644Y-142865864D01*
X171597640Y-142865864D01*
X171438861Y-142897447D01*
X171438855Y-142897449D01*
X171438845Y-142897452D01*
X171438840Y-142897453D01*
X171438822Y-142897460D01*
X171289279Y-142959402D01*
X171289270Y-142959407D01*
X171289253Y-142959417D01*
X171154643Y-143049361D01*
X171154642Y-143049362D01*
X171154636Y-143049367D01*
X171040167Y-143163836D01*
X171040162Y-143163842D01*
X171040161Y-143163843D01*
X170950217Y-143298453D01*
X170950207Y-143298470D01*
X170950202Y-143298479D01*
X170888260Y-143448022D01*
X170888252Y-143448046D01*
X170888247Y-143448059D01*
X170856664Y-143606840D01*
X170856664Y-143724387D01*
X170851401Y-143742307D01*
X170888247Y-143927536D01*
X170888249Y-143927544D01*
X170888252Y-143927554D01*
X170888255Y-143927562D01*
X170888260Y-143927576D01*
X170950202Y-144077119D01*
X170950207Y-144077128D01*
X170950217Y-144077145D01*
X171040161Y-144211755D01*
X171040162Y-144211756D01*
X171040167Y-144211762D01*
X171154636Y-144326231D01*
X171154642Y-144326236D01*
X171154646Y-144326239D01*
X171289260Y-144416186D01*
X171289273Y-144416193D01*
X171433250Y-144475829D01*
X171437673Y-144477921D01*
X171438406Y-144478063D01*
X171439150Y-144478209D01*
X171597640Y-144509736D01*
X171759556Y-144509736D01*
X171759557Y-144509736D01*
X171768923Y-144507872D01*
X171866385Y-144488485D01*
X171918350Y-144478149D01*
X171975029Y-144454671D01*
X172053959Y-144421978D01*
X172076117Y-144415147D01*
X172096944Y-144410809D01*
X172166588Y-144416410D01*
X172222141Y-144458765D01*
X172223736Y-144460935D01*
X172245942Y-144512863D01*
X172246484Y-144515940D01*
X172246618Y-144517477D01*
X172246810Y-144517880D01*
X172246717Y-144518607D01*
X172248364Y-144537451D01*
X172248364Y-144827223D01*
X172248375Y-144827406D01*
X172248477Y-144828281D01*
X172254770Y-144886836D01*
X172305060Y-145021667D01*
X172305064Y-145021674D01*
X172357906Y-145092261D01*
X172391298Y-145136866D01*
X172391301Y-145136869D01*
X172506495Y-145223104D01*
X172506502Y-145223108D01*
X172551443Y-145239870D01*
X172641331Y-145273396D01*
X172700935Y-145279804D01*
X173446664Y-145279803D01*
X173506269Y-145273396D01*
X173641100Y-145223107D01*
X173756300Y-145136868D01*
X173842539Y-145021668D01*
X173892828Y-144886837D01*
X173895223Y-144864555D01*
X173899235Y-144827249D01*
X173899235Y-144827242D01*
X173899236Y-144827233D01*
X173899235Y-142531504D01*
X173894035Y-142483136D01*
X173892828Y-142471898D01*
X173877397Y-142430527D01*
X173842539Y-142337068D01*
X173842538Y-142337067D01*
X173842536Y-142337063D01*
X173842521Y-142337022D01*
X173841942Y-142336102D01*
X173840992Y-142334563D01*
X173840140Y-142333336D01*
X173840134Y-142333327D01*
X173837232Y-142329978D01*
X173756301Y-142221869D01*
X173756298Y-142221866D01*
X173756294Y-142221863D01*
X173641106Y-142135632D01*
X173641103Y-142135630D01*
X173641094Y-142135625D01*
X173575650Y-142111217D01*
X173544670Y-142094301D01*
X173538174Y-142089438D01*
X173496304Y-142033504D01*
X173491320Y-141963812D01*
X173524806Y-141902489D01*
X173581838Y-141870020D01*
X173587208Y-141868649D01*
X173617850Y-141864804D01*
X174044264Y-141864804D01*
X174044274Y-141864804D01*
X174100900Y-141858716D01*
X174228995Y-141810939D01*
X174338441Y-141729009D01*
X174356687Y-141704633D01*
X174381641Y-141679680D01*
X174392751Y-141671363D01*
X174458215Y-141646945D01*
X174526488Y-141661796D01*
X174526490Y-141661797D01*
X174533623Y-141665692D01*
X174572570Y-141699037D01*
X174666595Y-141821571D01*
X174666596Y-141821572D01*
X174793183Y-141918707D01*
X174793189Y-141918710D01*
X174940598Y-141979768D01*
X174940603Y-141979770D01*
X175059079Y-141995367D01*
X175573800Y-141995367D01*
X175588520Y-141995367D01*
X175588521Y-141995367D01*
X175638153Y-141988833D01*
X175706990Y-141979771D01*
X175707001Y-141979768D01*
X175854410Y-141918710D01*
X175854416Y-141918707D01*
X175981003Y-141821572D01*
X175981004Y-141821571D01*
X176078139Y-141694984D01*
X176078142Y-141694978D01*
X176139200Y-141547569D01*
X176139201Y-141547565D01*
X176154799Y-141429094D01*
X176154800Y-141429080D01*
X176154800Y-141389368D01*
X175573800Y-141389368D01*
X175573800Y-141995367D01*
X175059079Y-141995367D01*
X175073800Y-141995366D01*
X175073800Y-141281197D01*
X175078823Y-141246261D01*
X175083227Y-141231263D01*
X175092869Y-141216254D01*
X175093485Y-141214158D01*
X175095134Y-141212728D01*
X175120972Y-141172512D01*
X175122341Y-141171325D01*
X175177220Y-141143845D01*
X175184779Y-141142201D01*
X175211132Y-141139368D01*
X175323800Y-141139368D01*
X175323800Y-141031197D01*
X175328823Y-140996261D01*
X175333227Y-140981263D01*
X175370972Y-140922512D01*
X175372341Y-140921325D01*
X175427220Y-140893845D01*
X175434779Y-140892201D01*
X175461132Y-140889368D01*
X176154799Y-140889368D01*
X176154799Y-140849646D01*
X176139203Y-140731179D01*
X176139203Y-140731177D01*
X176139200Y-140731166D01*
X176078142Y-140583757D01*
X176078139Y-140583751D01*
X176002847Y-140485630D01*
X175985570Y-140454866D01*
X175980563Y-140441914D01*
X175974751Y-140372290D01*
X176007502Y-140310576D01*
X176013051Y-140304893D01*
X176056418Y-140276120D01*
X176817249Y-139977222D01*
X176851595Y-139969124D01*
X176867165Y-139967739D01*
X176935683Y-139981404D01*
X176935684Y-139981405D01*
X176948616Y-139988178D01*
X176978766Y-140010343D01*
X177082768Y-140114345D01*
X177082789Y-140114367D01*
X177083832Y-140115410D01*
X177088162Y-140119740D01*
X177088163Y-140119741D01*
X177170259Y-140201837D01*
X177251366Y-140248664D01*
X177270805Y-140259887D01*
X177382949Y-140289936D01*
X177382950Y-140289936D01*
X177621751Y-140289936D01*
X177656683Y-140294958D01*
X177663445Y-140296943D01*
X177676817Y-140300870D01*
X177725353Y-140329377D01*
X177725681Y-140328982D01*
X177728139Y-140331014D01*
X177728785Y-140331393D01*
X177742683Y-140345045D01*
X177782445Y-140404553D01*
X177782446Y-140404554D01*
X177865285Y-140459905D01*
X177865288Y-140459905D01*
X177865289Y-140459906D01*
X177930706Y-140472918D01*
X177933430Y-140473640D01*
X177938333Y-140474436D01*
X178647666Y-140474436D01*
X178651786Y-140474436D01*
X178659638Y-140472053D01*
X178720715Y-140459905D01*
X178803554Y-140404554D01*
X178858905Y-140321715D01*
X178873436Y-140248664D01*
X178873436Y-139571436D01*
X178893121Y-139504397D01*
X178945925Y-139458642D01*
X178997436Y-139447436D01*
X182500564Y-139447436D01*
X182567603Y-139467121D01*
G37*
%TD.AperFunction*%
%TD*%
%TA.AperFunction,Conductor*%
%TO.N,/15V 3A Buck-Boost Power Supply/RCS*%
G36*
X190423542Y-118185032D02*
G01*
X190477355Y-118229595D01*
X190498533Y-118296178D01*
X190498564Y-118298949D01*
X190498564Y-122036668D01*
X190500026Y-122063961D01*
X190502040Y-122082710D01*
X190502857Y-122090307D01*
X190502857Y-122090308D01*
X190507231Y-122117303D01*
X190507235Y-122117328D01*
X190508878Y-122124879D01*
X190530078Y-122184958D01*
X190530080Y-122184963D01*
X190546521Y-122217794D01*
X190558938Y-122286552D01*
X190532210Y-122351107D01*
X190474823Y-122390964D01*
X190411456Y-122394934D01*
X190349267Y-122382564D01*
X190349266Y-122382564D01*
X189549934Y-122382564D01*
X189549933Y-122382564D01*
X189535405Y-122385453D01*
X189476890Y-122397092D01*
X189476885Y-122397094D01*
X189476879Y-122397097D01*
X189394048Y-122452443D01*
X189392639Y-122453600D01*
X189373405Y-122466576D01*
X189349014Y-122479895D01*
X189289585Y-122495064D01*
X189197347Y-122495064D01*
X189130061Y-122513092D01*
X189130062Y-122513093D01*
X189085202Y-122525112D01*
X189071065Y-122533275D01*
X189071063Y-122533276D01*
X188984666Y-122583156D01*
X188984661Y-122583160D01*
X188984655Y-122583165D01*
X188984648Y-122583171D01*
X188755194Y-122812625D01*
X188755187Y-122812633D01*
X188755184Y-122812638D01*
X188709095Y-122892470D01*
X188709094Y-122892471D01*
X188697143Y-122913169D01*
X188697138Y-122913180D01*
X188671117Y-123010296D01*
X188671116Y-123010301D01*
X188667090Y-123025323D01*
X188667090Y-123235197D01*
X188662864Y-123267293D01*
X188654700Y-123297759D01*
X188642313Y-123327662D01*
X188595105Y-123409429D01*
X188595102Y-123409435D01*
X188595098Y-123409446D01*
X188569393Y-123505382D01*
X188557590Y-123549433D01*
X188557590Y-123694365D01*
X188595101Y-123834359D01*
X188667567Y-123959875D01*
X188770050Y-124062358D01*
X188895566Y-124134824D01*
X189035560Y-124172335D01*
X189035562Y-124172335D01*
X189180490Y-124172335D01*
X189180492Y-124172335D01*
X189320486Y-124134824D01*
X189446002Y-124062358D01*
X189548485Y-123959875D01*
X189620951Y-123834359D01*
X189658462Y-123694365D01*
X189658462Y-123685265D01*
X189663485Y-123650329D01*
X189667889Y-123635331D01*
X189705634Y-123576580D01*
X189707003Y-123575393D01*
X189761882Y-123547913D01*
X189769441Y-123546269D01*
X189795794Y-123543436D01*
X190373931Y-123543436D01*
X190373931Y-123547564D01*
X190396449Y-123545119D01*
X190458962Y-123576327D01*
X190494679Y-123636377D01*
X190498564Y-123667173D01*
X190498564Y-127624665D01*
X190498923Y-127631376D01*
X190482848Y-127699371D01*
X190432563Y-127747882D01*
X190375100Y-127762000D01*
X188490869Y-127762000D01*
X188475721Y-127761071D01*
X188460739Y-127759227D01*
X188445817Y-127756454D01*
X185531221Y-127027804D01*
X185498546Y-127014457D01*
X185485064Y-127006547D01*
X185437203Y-126955644D01*
X185433390Y-126948119D01*
X185420000Y-126892071D01*
X185420000Y-120988191D01*
X185425023Y-120953256D01*
X185430925Y-120933156D01*
X185461473Y-120881164D01*
X185466233Y-120876322D01*
X185485860Y-120860091D01*
X186331542Y-120296304D01*
X186363389Y-120281109D01*
X186374189Y-120277739D01*
X186444049Y-120276568D01*
X186503453Y-120313351D01*
X186533540Y-120376411D01*
X186533540Y-120376412D01*
X186533914Y-120378736D01*
X186526051Y-120445889D01*
X186509255Y-120486439D01*
X186509249Y-120486453D01*
X186509247Y-120486460D01*
X186477664Y-120645238D01*
X186477664Y-120762787D01*
X186472401Y-120780707D01*
X186506725Y-120953256D01*
X186509249Y-120965944D01*
X186509252Y-120965954D01*
X186509255Y-120965962D01*
X186509260Y-120965976D01*
X186571202Y-121115519D01*
X186571207Y-121115528D01*
X186571217Y-121115545D01*
X186661161Y-121250155D01*
X186661162Y-121250156D01*
X186661167Y-121250162D01*
X186775636Y-121364631D01*
X186775642Y-121364636D01*
X186775646Y-121364639D01*
X186910260Y-121454586D01*
X186910273Y-121454593D01*
X187054250Y-121514229D01*
X187058673Y-121516321D01*
X187059406Y-121516463D01*
X187060150Y-121516609D01*
X187218640Y-121548136D01*
X187380556Y-121548136D01*
X187380557Y-121548136D01*
X187398360Y-121544594D01*
X187487385Y-121526885D01*
X187487386Y-121526885D01*
X187497834Y-121524806D01*
X187539350Y-121516549D01*
X187688933Y-121454590D01*
X187823554Y-121364639D01*
X187938039Y-121250154D01*
X188027990Y-121115533D01*
X188089949Y-120965950D01*
X188096472Y-120933156D01*
X188100285Y-120913988D01*
X188100285Y-120913985D01*
X188121536Y-120807156D01*
X188121536Y-120645243D01*
X188121536Y-120645240D01*
X188090009Y-120486750D01*
X188089863Y-120486006D01*
X188089721Y-120485273D01*
X188087629Y-120480850D01*
X188027993Y-120336873D01*
X188027989Y-120336866D01*
X188019491Y-120324148D01*
X188004261Y-120292317D01*
X188000188Y-120279310D01*
X187998942Y-120209456D01*
X188035661Y-120150013D01*
X188091095Y-120121334D01*
X188099155Y-120119505D01*
X188126580Y-120116435D01*
X188777461Y-120116435D01*
X188777464Y-120116435D01*
X188837069Y-120110028D01*
X188971900Y-120059739D01*
X189087100Y-119973500D01*
X189173339Y-119858300D01*
X189223628Y-119723469D01*
X189226023Y-119701187D01*
X189230035Y-119663881D01*
X189230035Y-119663874D01*
X189230036Y-119663865D01*
X189230035Y-118843136D01*
X189223628Y-118783531D01*
X189223627Y-118783527D01*
X189211285Y-118750437D01*
X189211284Y-118750435D01*
X189173340Y-118648703D01*
X189173340Y-118648702D01*
X189173338Y-118648699D01*
X189139194Y-118603089D01*
X189122284Y-118572122D01*
X189116818Y-118557469D01*
X189111833Y-118487782D01*
X189111837Y-118487765D01*
X189115363Y-118474924D01*
X189115364Y-118474921D01*
X189141536Y-118430405D01*
X189148836Y-118422431D01*
X189171510Y-118402991D01*
X189196910Y-118386058D01*
X189220084Y-118373925D01*
X189244020Y-118364460D01*
X189269220Y-118357463D01*
X190354180Y-118176636D01*
X190423542Y-118185032D01*
G37*
%TD.AperFunction*%
%TD*%
M02*
