%TF.GenerationSoftware,KiCad,Pcbnew,9.0.1-9.0.1-0~ubuntu24.04.1*%
%TF.CreationDate,2025-04-26T12:20:14-07:00*%
%TF.ProjectId,NX-IndicatorBoard,4e582d49-6e64-4696-9361-746f72426f61,1*%
%TF.SameCoordinates,Original*%
%TF.FileFunction,Legend,Top*%
%TF.FilePolarity,Positive*%
%FSLAX46Y46*%
G04 Gerber Fmt 4.6, Leading zero omitted, Abs format (unit mm)*
G04 Created by KiCad (PCBNEW 9.0.1-9.0.1-0~ubuntu24.04.1) date 2025-04-26 12:20:14*
%MOMM*%
%LPD*%
G01*
G04 APERTURE LIST*
%ADD10C,0.150000*%
%ADD11C,0.187500*%
%ADD12C,0.279400*%
%ADD13C,0.152400*%
%ADD14C,0.203200*%
%ADD15C,0.120000*%
%ADD16C,0.127000*%
%ADD17C,0.100000*%
G04 APERTURE END LIST*
D10*
X161511000Y-106375300D02*
X160571200Y-106375300D01*
X161036000Y-105765600D01*
X161511000Y-106375300D01*
G36*
X161511000Y-106375300D02*
G01*
X160571200Y-106375300D01*
X161036000Y-105765600D01*
X161511000Y-106375300D01*
G37*
X122529600Y-100177600D02*
X122054600Y-99567900D01*
X122994400Y-99567900D01*
X122529600Y-100177600D01*
G36*
X122529600Y-100177600D02*
G01*
X122054600Y-99567900D01*
X122994400Y-99567900D01*
X122529600Y-100177600D01*
G37*
D11*
X29377697Y-70775964D02*
X28877697Y-70775964D01*
X28877697Y-71561678D02*
X28877697Y-70061678D01*
X28877697Y-70061678D02*
X29591983Y-70061678D01*
X30163411Y-71418821D02*
X30234840Y-71490250D01*
X30234840Y-71490250D02*
X30163411Y-71561678D01*
X30163411Y-71561678D02*
X30091983Y-71490250D01*
X30091983Y-71490250D02*
X30163411Y-71418821D01*
X30163411Y-71418821D02*
X30163411Y-71561678D01*
X30806269Y-71490250D02*
X31020555Y-71561678D01*
X31020555Y-71561678D02*
X31377697Y-71561678D01*
X31377697Y-71561678D02*
X31520555Y-71490250D01*
X31520555Y-71490250D02*
X31591983Y-71418821D01*
X31591983Y-71418821D02*
X31663412Y-71275964D01*
X31663412Y-71275964D02*
X31663412Y-71133107D01*
X31663412Y-71133107D02*
X31591983Y-70990250D01*
X31591983Y-70990250D02*
X31520555Y-70918821D01*
X31520555Y-70918821D02*
X31377697Y-70847392D01*
X31377697Y-70847392D02*
X31091983Y-70775964D01*
X31091983Y-70775964D02*
X30949126Y-70704535D01*
X30949126Y-70704535D02*
X30877697Y-70633107D01*
X30877697Y-70633107D02*
X30806269Y-70490250D01*
X30806269Y-70490250D02*
X30806269Y-70347392D01*
X30806269Y-70347392D02*
X30877697Y-70204535D01*
X30877697Y-70204535D02*
X30949126Y-70133107D01*
X30949126Y-70133107D02*
X31091983Y-70061678D01*
X31091983Y-70061678D02*
X31449126Y-70061678D01*
X31449126Y-70061678D02*
X31663412Y-70133107D01*
X32306268Y-71561678D02*
X32306268Y-70561678D01*
X32306268Y-70061678D02*
X32234840Y-70133107D01*
X32234840Y-70133107D02*
X32306268Y-70204535D01*
X32306268Y-70204535D02*
X32377697Y-70133107D01*
X32377697Y-70133107D02*
X32306268Y-70061678D01*
X32306268Y-70061678D02*
X32306268Y-70204535D01*
X33234840Y-71561678D02*
X33091983Y-71490250D01*
X33091983Y-71490250D02*
X33020554Y-71347392D01*
X33020554Y-71347392D02*
X33020554Y-70061678D01*
X33806268Y-71561678D02*
X33806268Y-70061678D01*
X33949126Y-70990250D02*
X34377697Y-71561678D01*
X34377697Y-70561678D02*
X33806268Y-71133107D01*
X34949126Y-71490250D02*
X35091983Y-71561678D01*
X35091983Y-71561678D02*
X35377697Y-71561678D01*
X35377697Y-71561678D02*
X35520554Y-71490250D01*
X35520554Y-71490250D02*
X35591983Y-71347392D01*
X35591983Y-71347392D02*
X35591983Y-71275964D01*
X35591983Y-71275964D02*
X35520554Y-71133107D01*
X35520554Y-71133107D02*
X35377697Y-71061678D01*
X35377697Y-71061678D02*
X35163412Y-71061678D01*
X35163412Y-71061678D02*
X35020554Y-70990250D01*
X35020554Y-70990250D02*
X34949126Y-70847392D01*
X34949126Y-70847392D02*
X34949126Y-70775964D01*
X34949126Y-70775964D02*
X35020554Y-70633107D01*
X35020554Y-70633107D02*
X35163412Y-70561678D01*
X35163412Y-70561678D02*
X35377697Y-70561678D01*
X35377697Y-70561678D02*
X35520554Y-70633107D01*
X36877698Y-71490250D02*
X36734840Y-71561678D01*
X36734840Y-71561678D02*
X36449126Y-71561678D01*
X36449126Y-71561678D02*
X36306269Y-71490250D01*
X36306269Y-71490250D02*
X36234840Y-71418821D01*
X36234840Y-71418821D02*
X36163412Y-71275964D01*
X36163412Y-71275964D02*
X36163412Y-70847392D01*
X36163412Y-70847392D02*
X36234840Y-70704535D01*
X36234840Y-70704535D02*
X36306269Y-70633107D01*
X36306269Y-70633107D02*
X36449126Y-70561678D01*
X36449126Y-70561678D02*
X36734840Y-70561678D01*
X36734840Y-70561678D02*
X36877698Y-70633107D01*
X37520554Y-71561678D02*
X37520554Y-70561678D01*
X37520554Y-70847392D02*
X37591983Y-70704535D01*
X37591983Y-70704535D02*
X37663412Y-70633107D01*
X37663412Y-70633107D02*
X37806269Y-70561678D01*
X37806269Y-70561678D02*
X37949126Y-70561678D01*
X39020554Y-71490250D02*
X38877697Y-71561678D01*
X38877697Y-71561678D02*
X38591983Y-71561678D01*
X38591983Y-71561678D02*
X38449125Y-71490250D01*
X38449125Y-71490250D02*
X38377697Y-71347392D01*
X38377697Y-71347392D02*
X38377697Y-70775964D01*
X38377697Y-70775964D02*
X38449125Y-70633107D01*
X38449125Y-70633107D02*
X38591983Y-70561678D01*
X38591983Y-70561678D02*
X38877697Y-70561678D01*
X38877697Y-70561678D02*
X39020554Y-70633107D01*
X39020554Y-70633107D02*
X39091983Y-70775964D01*
X39091983Y-70775964D02*
X39091983Y-70918821D01*
X39091983Y-70918821D02*
X38377697Y-71061678D01*
X40306268Y-71490250D02*
X40163411Y-71561678D01*
X40163411Y-71561678D02*
X39877697Y-71561678D01*
X39877697Y-71561678D02*
X39734839Y-71490250D01*
X39734839Y-71490250D02*
X39663411Y-71347392D01*
X39663411Y-71347392D02*
X39663411Y-70775964D01*
X39663411Y-70775964D02*
X39734839Y-70633107D01*
X39734839Y-70633107D02*
X39877697Y-70561678D01*
X39877697Y-70561678D02*
X40163411Y-70561678D01*
X40163411Y-70561678D02*
X40306268Y-70633107D01*
X40306268Y-70633107D02*
X40377697Y-70775964D01*
X40377697Y-70775964D02*
X40377697Y-70918821D01*
X40377697Y-70918821D02*
X39663411Y-71061678D01*
X41020553Y-70561678D02*
X41020553Y-71561678D01*
X41020553Y-70704535D02*
X41091982Y-70633107D01*
X41091982Y-70633107D02*
X41234839Y-70561678D01*
X41234839Y-70561678D02*
X41449125Y-70561678D01*
X41449125Y-70561678D02*
X41591982Y-70633107D01*
X41591982Y-70633107D02*
X41663411Y-70775964D01*
X41663411Y-70775964D02*
X41663411Y-71561678D01*
D10*
X99005913Y-122138839D02*
X98958294Y-122091220D01*
X98958294Y-122091220D02*
X98910675Y-121995982D01*
X98910675Y-121995982D02*
X98910675Y-121757887D01*
X98910675Y-121757887D02*
X98958294Y-121662649D01*
X98958294Y-121662649D02*
X99005913Y-121615030D01*
X99005913Y-121615030D02*
X99101151Y-121567411D01*
X99101151Y-121567411D02*
X99196389Y-121567411D01*
X99196389Y-121567411D02*
X99339246Y-121615030D01*
X99339246Y-121615030D02*
X99910675Y-122186458D01*
X99910675Y-122186458D02*
X99910675Y-121567411D01*
X99529722Y-121138839D02*
X99529722Y-120376935D01*
X99815436Y-119329316D02*
X99863056Y-119376935D01*
X99863056Y-119376935D02*
X99910675Y-119519792D01*
X99910675Y-119519792D02*
X99910675Y-119615030D01*
X99910675Y-119615030D02*
X99863056Y-119757887D01*
X99863056Y-119757887D02*
X99767817Y-119853125D01*
X99767817Y-119853125D02*
X99672579Y-119900744D01*
X99672579Y-119900744D02*
X99482103Y-119948363D01*
X99482103Y-119948363D02*
X99339246Y-119948363D01*
X99339246Y-119948363D02*
X99148770Y-119900744D01*
X99148770Y-119900744D02*
X99053532Y-119853125D01*
X99053532Y-119853125D02*
X98958294Y-119757887D01*
X98958294Y-119757887D02*
X98910675Y-119615030D01*
X98910675Y-119615030D02*
X98910675Y-119519792D01*
X98910675Y-119519792D02*
X98958294Y-119376935D01*
X98958294Y-119376935D02*
X99005913Y-119329316D01*
X99624960Y-118948363D02*
X99624960Y-118472173D01*
X99910675Y-119043601D02*
X98910675Y-118710268D01*
X98910675Y-118710268D02*
X99910675Y-118376935D01*
X99910675Y-118043601D02*
X98910675Y-118043601D01*
X98910675Y-118043601D02*
X99910675Y-117472173D01*
X99910675Y-117472173D02*
X98910675Y-117472173D01*
X99910675Y-116234077D02*
X98910675Y-116234077D01*
X99386865Y-116234077D02*
X99386865Y-115662649D01*
X99910675Y-115662649D02*
X98910675Y-115662649D01*
X101520619Y-121567411D02*
X101520619Y-122138839D01*
X101520619Y-121853125D02*
X100520619Y-121853125D01*
X100520619Y-121853125D02*
X100663476Y-121948363D01*
X100663476Y-121948363D02*
X100758714Y-122043601D01*
X100758714Y-122043601D02*
X100806333Y-122138839D01*
X101139666Y-121138839D02*
X101139666Y-120376935D01*
X101425380Y-119329316D02*
X101473000Y-119376935D01*
X101473000Y-119376935D02*
X101520619Y-119519792D01*
X101520619Y-119519792D02*
X101520619Y-119615030D01*
X101520619Y-119615030D02*
X101473000Y-119757887D01*
X101473000Y-119757887D02*
X101377761Y-119853125D01*
X101377761Y-119853125D02*
X101282523Y-119900744D01*
X101282523Y-119900744D02*
X101092047Y-119948363D01*
X101092047Y-119948363D02*
X100949190Y-119948363D01*
X100949190Y-119948363D02*
X100758714Y-119900744D01*
X100758714Y-119900744D02*
X100663476Y-119853125D01*
X100663476Y-119853125D02*
X100568238Y-119757887D01*
X100568238Y-119757887D02*
X100520619Y-119615030D01*
X100520619Y-119615030D02*
X100520619Y-119519792D01*
X100520619Y-119519792D02*
X100568238Y-119376935D01*
X100568238Y-119376935D02*
X100615857Y-119329316D01*
X101234904Y-118948363D02*
X101234904Y-118472173D01*
X101520619Y-119043601D02*
X100520619Y-118710268D01*
X100520619Y-118710268D02*
X101520619Y-118376935D01*
X101520619Y-118043601D02*
X100520619Y-118043601D01*
X100520619Y-118043601D02*
X101520619Y-117472173D01*
X101520619Y-117472173D02*
X100520619Y-117472173D01*
X101520619Y-115757887D02*
X101520619Y-116234077D01*
X101520619Y-116234077D02*
X100520619Y-116234077D01*
D12*
X114700352Y-93704412D02*
X114700352Y-92307412D01*
X114700352Y-92307412D02*
X115498637Y-93704412D01*
X115498637Y-93704412D02*
X115498637Y-92307412D01*
X116030828Y-92307412D02*
X116962161Y-93704412D01*
X116962161Y-92307412D02*
X116030828Y-93704412D01*
X119357018Y-93571365D02*
X119290494Y-93637889D01*
X119290494Y-93637889D02*
X119090923Y-93704412D01*
X119090923Y-93704412D02*
X118957875Y-93704412D01*
X118957875Y-93704412D02*
X118758304Y-93637889D01*
X118758304Y-93637889D02*
X118625256Y-93504841D01*
X118625256Y-93504841D02*
X118558733Y-93371793D01*
X118558733Y-93371793D02*
X118492209Y-93105698D01*
X118492209Y-93105698D02*
X118492209Y-92906127D01*
X118492209Y-92906127D02*
X118558733Y-92640031D01*
X118558733Y-92640031D02*
X118625256Y-92506984D01*
X118625256Y-92506984D02*
X118758304Y-92373936D01*
X118758304Y-92373936D02*
X118957875Y-92307412D01*
X118957875Y-92307412D02*
X119090923Y-92307412D01*
X119090923Y-92307412D02*
X119290494Y-92373936D01*
X119290494Y-92373936D02*
X119357018Y-92440460D01*
X119889209Y-93305269D02*
X120554447Y-93305269D01*
X119756161Y-93704412D02*
X120221828Y-92307412D01*
X120221828Y-92307412D02*
X120687494Y-93704412D01*
X121153162Y-93704412D02*
X121153162Y-92307412D01*
X121153162Y-92307412D02*
X121951447Y-93704412D01*
X121951447Y-93704412D02*
X121951447Y-92307412D01*
X123681067Y-93704412D02*
X123681067Y-92307412D01*
X124346305Y-93704412D02*
X124346305Y-92307412D01*
X124346305Y-92307412D02*
X125144590Y-93704412D01*
X125144590Y-93704412D02*
X125144590Y-92307412D01*
X125809829Y-93704412D02*
X125809829Y-92307412D01*
X125809829Y-92307412D02*
X126142448Y-92307412D01*
X126142448Y-92307412D02*
X126342019Y-92373936D01*
X126342019Y-92373936D02*
X126475067Y-92506984D01*
X126475067Y-92506984D02*
X126541590Y-92640031D01*
X126541590Y-92640031D02*
X126608114Y-92906127D01*
X126608114Y-92906127D02*
X126608114Y-93105698D01*
X126608114Y-93105698D02*
X126541590Y-93371793D01*
X126541590Y-93371793D02*
X126475067Y-93504841D01*
X126475067Y-93504841D02*
X126342019Y-93637889D01*
X126342019Y-93637889D02*
X126142448Y-93704412D01*
X126142448Y-93704412D02*
X125809829Y-93704412D01*
X127206829Y-93704412D02*
X127206829Y-92307412D01*
X128670352Y-93571365D02*
X128603828Y-93637889D01*
X128603828Y-93637889D02*
X128404257Y-93704412D01*
X128404257Y-93704412D02*
X128271209Y-93704412D01*
X128271209Y-93704412D02*
X128071638Y-93637889D01*
X128071638Y-93637889D02*
X127938590Y-93504841D01*
X127938590Y-93504841D02*
X127872067Y-93371793D01*
X127872067Y-93371793D02*
X127805543Y-93105698D01*
X127805543Y-93105698D02*
X127805543Y-92906127D01*
X127805543Y-92906127D02*
X127872067Y-92640031D01*
X127872067Y-92640031D02*
X127938590Y-92506984D01*
X127938590Y-92506984D02*
X128071638Y-92373936D01*
X128071638Y-92373936D02*
X128271209Y-92307412D01*
X128271209Y-92307412D02*
X128404257Y-92307412D01*
X128404257Y-92307412D02*
X128603828Y-92373936D01*
X128603828Y-92373936D02*
X128670352Y-92440460D01*
X129202543Y-93305269D02*
X129867781Y-93305269D01*
X129069495Y-93704412D02*
X129535162Y-92307412D01*
X129535162Y-92307412D02*
X130000828Y-93704412D01*
X130266924Y-92307412D02*
X131065210Y-92307412D01*
X130666067Y-93704412D02*
X130666067Y-92307412D01*
X131796972Y-92307412D02*
X132063067Y-92307412D01*
X132063067Y-92307412D02*
X132196115Y-92373936D01*
X132196115Y-92373936D02*
X132329162Y-92506984D01*
X132329162Y-92506984D02*
X132395686Y-92773079D01*
X132395686Y-92773079D02*
X132395686Y-93238746D01*
X132395686Y-93238746D02*
X132329162Y-93504841D01*
X132329162Y-93504841D02*
X132196115Y-93637889D01*
X132196115Y-93637889D02*
X132063067Y-93704412D01*
X132063067Y-93704412D02*
X131796972Y-93704412D01*
X131796972Y-93704412D02*
X131663924Y-93637889D01*
X131663924Y-93637889D02*
X131530877Y-93504841D01*
X131530877Y-93504841D02*
X131464353Y-93238746D01*
X131464353Y-93238746D02*
X131464353Y-92773079D01*
X131464353Y-92773079D02*
X131530877Y-92506984D01*
X131530877Y-92506984D02*
X131663924Y-92373936D01*
X131663924Y-92373936D02*
X131796972Y-92307412D01*
X133792686Y-93704412D02*
X133327020Y-93039174D01*
X132994401Y-93704412D02*
X132994401Y-92307412D01*
X132994401Y-92307412D02*
X133526591Y-92307412D01*
X133526591Y-92307412D02*
X133659639Y-92373936D01*
X133659639Y-92373936D02*
X133726162Y-92440460D01*
X133726162Y-92440460D02*
X133792686Y-92573508D01*
X133792686Y-92573508D02*
X133792686Y-92773079D01*
X133792686Y-92773079D02*
X133726162Y-92906127D01*
X133726162Y-92906127D02*
X133659639Y-92972650D01*
X133659639Y-92972650D02*
X133526591Y-93039174D01*
X133526591Y-93039174D02*
X132994401Y-93039174D01*
X135256210Y-92307412D02*
X135721877Y-93704412D01*
X135721877Y-93704412D02*
X136187543Y-92307412D01*
X137384972Y-93704412D02*
X136586687Y-93704412D01*
X136985830Y-93704412D02*
X136985830Y-92307412D01*
X136985830Y-92307412D02*
X136852782Y-92506984D01*
X136852782Y-92506984D02*
X136719734Y-92640031D01*
X136719734Y-92640031D02*
X136586687Y-92706555D01*
X123614543Y-94689552D02*
X123681067Y-94623028D01*
X123681067Y-94623028D02*
X123814114Y-94556504D01*
X123814114Y-94556504D02*
X124146733Y-94556504D01*
X124146733Y-94556504D02*
X124279781Y-94623028D01*
X124279781Y-94623028D02*
X124346305Y-94689552D01*
X124346305Y-94689552D02*
X124412828Y-94822600D01*
X124412828Y-94822600D02*
X124412828Y-94955647D01*
X124412828Y-94955647D02*
X124346305Y-95155219D01*
X124346305Y-95155219D02*
X123548019Y-95953504D01*
X123548019Y-95953504D02*
X124412828Y-95953504D01*
X125277638Y-94556504D02*
X125410685Y-94556504D01*
X125410685Y-94556504D02*
X125543733Y-94623028D01*
X125543733Y-94623028D02*
X125610257Y-94689552D01*
X125610257Y-94689552D02*
X125676781Y-94822600D01*
X125676781Y-94822600D02*
X125743304Y-95088695D01*
X125743304Y-95088695D02*
X125743304Y-95421314D01*
X125743304Y-95421314D02*
X125676781Y-95687409D01*
X125676781Y-95687409D02*
X125610257Y-95820457D01*
X125610257Y-95820457D02*
X125543733Y-95886981D01*
X125543733Y-95886981D02*
X125410685Y-95953504D01*
X125410685Y-95953504D02*
X125277638Y-95953504D01*
X125277638Y-95953504D02*
X125144590Y-95886981D01*
X125144590Y-95886981D02*
X125078066Y-95820457D01*
X125078066Y-95820457D02*
X125011543Y-95687409D01*
X125011543Y-95687409D02*
X124945019Y-95421314D01*
X124945019Y-95421314D02*
X124945019Y-95088695D01*
X124945019Y-95088695D02*
X125011543Y-94822600D01*
X125011543Y-94822600D02*
X125078066Y-94689552D01*
X125078066Y-94689552D02*
X125144590Y-94623028D01*
X125144590Y-94623028D02*
X125277638Y-94556504D01*
X126275495Y-94689552D02*
X126342019Y-94623028D01*
X126342019Y-94623028D02*
X126475066Y-94556504D01*
X126475066Y-94556504D02*
X126807685Y-94556504D01*
X126807685Y-94556504D02*
X126940733Y-94623028D01*
X126940733Y-94623028D02*
X127007257Y-94689552D01*
X127007257Y-94689552D02*
X127073780Y-94822600D01*
X127073780Y-94822600D02*
X127073780Y-94955647D01*
X127073780Y-94955647D02*
X127007257Y-95155219D01*
X127007257Y-95155219D02*
X126208971Y-95953504D01*
X126208971Y-95953504D02*
X127073780Y-95953504D01*
X128337733Y-94556504D02*
X127672495Y-94556504D01*
X127672495Y-94556504D02*
X127605971Y-95221742D01*
X127605971Y-95221742D02*
X127672495Y-95155219D01*
X127672495Y-95155219D02*
X127805542Y-95088695D01*
X127805542Y-95088695D02*
X128138161Y-95088695D01*
X128138161Y-95088695D02*
X128271209Y-95155219D01*
X128271209Y-95155219D02*
X128337733Y-95221742D01*
X128337733Y-95221742D02*
X128404256Y-95354790D01*
X128404256Y-95354790D02*
X128404256Y-95687409D01*
X128404256Y-95687409D02*
X128337733Y-95820457D01*
X128337733Y-95820457D02*
X128271209Y-95886981D01*
X128271209Y-95886981D02*
X128138161Y-95953504D01*
X128138161Y-95953504D02*
X127805542Y-95953504D01*
X127805542Y-95953504D02*
X127672495Y-95886981D01*
X127672495Y-95886981D02*
X127605971Y-95820457D01*
D13*
X112179704Y-98734695D02*
X112179704Y-99557172D01*
X112179704Y-99557172D02*
X112228085Y-99653934D01*
X112228085Y-99653934D02*
X112276466Y-99702315D01*
X112276466Y-99702315D02*
X112373228Y-99750695D01*
X112373228Y-99750695D02*
X112566752Y-99750695D01*
X112566752Y-99750695D02*
X112663514Y-99702315D01*
X112663514Y-99702315D02*
X112711895Y-99653934D01*
X112711895Y-99653934D02*
X112760276Y-99557172D01*
X112760276Y-99557172D02*
X112760276Y-98734695D01*
X113147323Y-98734695D02*
X113776276Y-98734695D01*
X113776276Y-98734695D02*
X113437609Y-99121743D01*
X113437609Y-99121743D02*
X113582752Y-99121743D01*
X113582752Y-99121743D02*
X113679514Y-99170124D01*
X113679514Y-99170124D02*
X113727895Y-99218505D01*
X113727895Y-99218505D02*
X113776276Y-99315267D01*
X113776276Y-99315267D02*
X113776276Y-99557172D01*
X113776276Y-99557172D02*
X113727895Y-99653934D01*
X113727895Y-99653934D02*
X113679514Y-99702315D01*
X113679514Y-99702315D02*
X113582752Y-99750695D01*
X113582752Y-99750695D02*
X113292466Y-99750695D01*
X113292466Y-99750695D02*
X113195704Y-99702315D01*
X113195704Y-99702315D02*
X113147323Y-99653934D01*
X119494904Y-98734695D02*
X119494904Y-99557172D01*
X119494904Y-99557172D02*
X119543285Y-99653934D01*
X119543285Y-99653934D02*
X119591666Y-99702315D01*
X119591666Y-99702315D02*
X119688428Y-99750695D01*
X119688428Y-99750695D02*
X119881952Y-99750695D01*
X119881952Y-99750695D02*
X119978714Y-99702315D01*
X119978714Y-99702315D02*
X120027095Y-99653934D01*
X120027095Y-99653934D02*
X120075476Y-99557172D01*
X120075476Y-99557172D02*
X120075476Y-98734695D01*
X120994714Y-99073362D02*
X120994714Y-99750695D01*
X120752809Y-98686315D02*
X120510904Y-99412029D01*
X120510904Y-99412029D02*
X121139857Y-99412029D01*
X112789304Y-108615295D02*
X113369876Y-108615295D01*
X113079590Y-109631295D02*
X113079590Y-108615295D01*
X113708542Y-109631295D02*
X113708542Y-108615295D01*
X113708542Y-108615295D02*
X114095590Y-108615295D01*
X114095590Y-108615295D02*
X114192352Y-108663676D01*
X114192352Y-108663676D02*
X114240733Y-108712057D01*
X114240733Y-108712057D02*
X114289114Y-108808819D01*
X114289114Y-108808819D02*
X114289114Y-108953962D01*
X114289114Y-108953962D02*
X114240733Y-109050724D01*
X114240733Y-109050724D02*
X114192352Y-109099105D01*
X114192352Y-109099105D02*
X114095590Y-109147486D01*
X114095590Y-109147486D02*
X113708542Y-109147486D01*
X115256733Y-109631295D02*
X114676161Y-109631295D01*
X114966447Y-109631295D02*
X114966447Y-108615295D01*
X114966447Y-108615295D02*
X114869685Y-108760438D01*
X114869685Y-108760438D02*
X114772923Y-108857200D01*
X114772923Y-108857200D02*
X114676161Y-108905581D01*
X127140304Y-98734695D02*
X127140304Y-99557172D01*
X127140304Y-99557172D02*
X127188685Y-99653934D01*
X127188685Y-99653934D02*
X127237066Y-99702315D01*
X127237066Y-99702315D02*
X127333828Y-99750695D01*
X127333828Y-99750695D02*
X127527352Y-99750695D01*
X127527352Y-99750695D02*
X127624114Y-99702315D01*
X127624114Y-99702315D02*
X127672495Y-99653934D01*
X127672495Y-99653934D02*
X127720876Y-99557172D01*
X127720876Y-99557172D02*
X127720876Y-98734695D01*
X128688495Y-98734695D02*
X128204685Y-98734695D01*
X128204685Y-98734695D02*
X128156304Y-99218505D01*
X128156304Y-99218505D02*
X128204685Y-99170124D01*
X128204685Y-99170124D02*
X128301447Y-99121743D01*
X128301447Y-99121743D02*
X128543352Y-99121743D01*
X128543352Y-99121743D02*
X128640114Y-99170124D01*
X128640114Y-99170124D02*
X128688495Y-99218505D01*
X128688495Y-99218505D02*
X128736876Y-99315267D01*
X128736876Y-99315267D02*
X128736876Y-99557172D01*
X128736876Y-99557172D02*
X128688495Y-99653934D01*
X128688495Y-99653934D02*
X128640114Y-99702315D01*
X128640114Y-99702315D02*
X128543352Y-99750695D01*
X128543352Y-99750695D02*
X128301447Y-99750695D01*
X128301447Y-99750695D02*
X128204685Y-99702315D01*
X128204685Y-99702315D02*
X128156304Y-99653934D01*
X93426095Y-113046932D02*
X92942286Y-113385599D01*
X93426095Y-113627504D02*
X92410095Y-113627504D01*
X92410095Y-113627504D02*
X92410095Y-113240456D01*
X92410095Y-113240456D02*
X92458476Y-113143694D01*
X92458476Y-113143694D02*
X92506857Y-113095313D01*
X92506857Y-113095313D02*
X92603619Y-113046932D01*
X92603619Y-113046932D02*
X92748762Y-113046932D01*
X92748762Y-113046932D02*
X92845524Y-113095313D01*
X92845524Y-113095313D02*
X92893905Y-113143694D01*
X92893905Y-113143694D02*
X92942286Y-113240456D01*
X92942286Y-113240456D02*
X92942286Y-113627504D01*
X92410095Y-112708266D02*
X92410095Y-112079313D01*
X92410095Y-112079313D02*
X92797143Y-112417980D01*
X92797143Y-112417980D02*
X92797143Y-112272837D01*
X92797143Y-112272837D02*
X92845524Y-112176075D01*
X92845524Y-112176075D02*
X92893905Y-112127694D01*
X92893905Y-112127694D02*
X92990667Y-112079313D01*
X92990667Y-112079313D02*
X93232572Y-112079313D01*
X93232572Y-112079313D02*
X93329334Y-112127694D01*
X93329334Y-112127694D02*
X93377715Y-112176075D01*
X93377715Y-112176075D02*
X93426095Y-112272837D01*
X93426095Y-112272837D02*
X93426095Y-112563123D01*
X93426095Y-112563123D02*
X93377715Y-112659885D01*
X93377715Y-112659885D02*
X93329334Y-112708266D01*
X152608095Y-95436266D02*
X153333810Y-95436266D01*
X153333810Y-95436266D02*
X153478953Y-95484647D01*
X153478953Y-95484647D02*
X153575715Y-95581409D01*
X153575715Y-95581409D02*
X153624095Y-95726552D01*
X153624095Y-95726552D02*
X153624095Y-95823314D01*
X152608095Y-94468647D02*
X152608095Y-94952457D01*
X152608095Y-94952457D02*
X153091905Y-95000838D01*
X153091905Y-95000838D02*
X153043524Y-94952457D01*
X153043524Y-94952457D02*
X152995143Y-94855695D01*
X152995143Y-94855695D02*
X152995143Y-94613790D01*
X152995143Y-94613790D02*
X153043524Y-94517028D01*
X153043524Y-94517028D02*
X153091905Y-94468647D01*
X153091905Y-94468647D02*
X153188667Y-94420266D01*
X153188667Y-94420266D02*
X153430572Y-94420266D01*
X153430572Y-94420266D02*
X153527334Y-94468647D01*
X153527334Y-94468647D02*
X153575715Y-94517028D01*
X153575715Y-94517028D02*
X153624095Y-94613790D01*
X153624095Y-94613790D02*
X153624095Y-94855695D01*
X153624095Y-94855695D02*
X153575715Y-94952457D01*
X153575715Y-94952457D02*
X153527334Y-95000838D01*
X103013933Y-116286095D02*
X103013933Y-117011810D01*
X103013933Y-117011810D02*
X102965552Y-117156953D01*
X102965552Y-117156953D02*
X102868790Y-117253715D01*
X102868790Y-117253715D02*
X102723647Y-117302095D01*
X102723647Y-117302095D02*
X102626885Y-117302095D01*
X104029933Y-117302095D02*
X103449361Y-117302095D01*
X103739647Y-117302095D02*
X103739647Y-116286095D01*
X103739647Y-116286095D02*
X103642885Y-116431238D01*
X103642885Y-116431238D02*
X103546123Y-116528000D01*
X103546123Y-116528000D02*
X103449361Y-116576381D01*
D14*
G36*
X106018943Y-110989368D02*
G01*
X105817057Y-110989368D01*
X105918000Y-110686539D01*
X106018943Y-110989368D01*
G37*
G36*
X108404442Y-111595742D02*
G01*
X104445606Y-111595742D01*
X104445606Y-110800682D01*
X104558495Y-110800682D01*
X104558495Y-110945825D01*
X104558835Y-110949282D01*
X104558615Y-110950764D01*
X104559711Y-110958178D01*
X104560447Y-110965646D01*
X104561020Y-110967031D01*
X104561529Y-110970467D01*
X104609910Y-111163991D01*
X104610431Y-111165451D01*
X104610484Y-111166184D01*
X104613646Y-111174448D01*
X104616611Y-111182746D01*
X104617046Y-111183333D01*
X104617602Y-111184786D01*
X104665983Y-111281548D01*
X104671354Y-111290080D01*
X104672380Y-111292557D01*
X104674668Y-111295345D01*
X104676593Y-111298403D01*
X104678621Y-111300161D01*
X104685015Y-111307953D01*
X104781777Y-111404715D01*
X104797173Y-111417350D01*
X104800544Y-111418746D01*
X104803304Y-111421140D01*
X104821491Y-111429259D01*
X104966634Y-111477639D01*
X104976459Y-111479873D01*
X104978941Y-111480901D01*
X104982537Y-111481255D01*
X104986055Y-111482055D01*
X104988729Y-111481864D01*
X104998762Y-111482853D01*
X105095524Y-111482853D01*
X105105556Y-111481864D01*
X105108231Y-111482055D01*
X105111748Y-111481255D01*
X105115345Y-111480901D01*
X105117826Y-111479873D01*
X105127652Y-111477639D01*
X105272795Y-111429259D01*
X105290982Y-111421140D01*
X105293741Y-111418746D01*
X105297113Y-111417350D01*
X105312509Y-111404715D01*
X105348679Y-111368545D01*
X105478531Y-111368545D01*
X105481341Y-111408088D01*
X105499070Y-111443545D01*
X105529018Y-111469519D01*
X105566625Y-111482055D01*
X105606168Y-111479245D01*
X105641625Y-111461516D01*
X105667599Y-111431568D01*
X105675719Y-111413382D01*
X105749324Y-111192568D01*
X106086676Y-111192568D01*
X106160281Y-111413382D01*
X106168401Y-111431568D01*
X106194375Y-111461516D01*
X106229832Y-111479245D01*
X106269375Y-111482055D01*
X106306982Y-111469519D01*
X106336930Y-111443545D01*
X106354659Y-111408088D01*
X106357469Y-111368545D01*
X106353053Y-111349124D01*
X106025096Y-110365253D01*
X106493733Y-110365253D01*
X106493733Y-111381253D01*
X106495685Y-111401074D01*
X106510856Y-111437699D01*
X106538887Y-111465730D01*
X106575512Y-111480901D01*
X106615154Y-111480901D01*
X106651779Y-111465730D01*
X106679810Y-111437699D01*
X106694981Y-111401074D01*
X106696933Y-111381253D01*
X106696933Y-110747833D01*
X107087691Y-111431660D01*
X107090657Y-111435838D01*
X107091428Y-111437699D01*
X107093323Y-111439594D01*
X107099220Y-111447901D01*
X107109904Y-111456175D01*
X107119459Y-111465730D01*
X107125442Y-111468208D01*
X107130563Y-111472174D01*
X107143597Y-111475728D01*
X107156084Y-111480901D01*
X107162563Y-111480901D01*
X107168808Y-111482604D01*
X107182205Y-111480901D01*
X107195726Y-111480901D01*
X107201711Y-111478421D01*
X107208135Y-111477605D01*
X107219865Y-111470901D01*
X107232351Y-111465730D01*
X107236930Y-111461150D01*
X107242554Y-111457937D01*
X107250826Y-111447254D01*
X107260382Y-111437699D01*
X107262861Y-111431713D01*
X107266826Y-111426594D01*
X107270379Y-111413562D01*
X107275553Y-111401074D01*
X107276551Y-111390930D01*
X107277256Y-111388349D01*
X107277002Y-111386355D01*
X107277505Y-111381253D01*
X107277505Y-110642831D01*
X107510531Y-110642831D01*
X107513341Y-110682374D01*
X107531069Y-110717831D01*
X107561018Y-110743805D01*
X107598625Y-110756341D01*
X107638168Y-110753531D01*
X107656770Y-110746413D01*
X107753532Y-110698032D01*
X107762064Y-110692660D01*
X107764541Y-110691635D01*
X107767329Y-110689346D01*
X107770387Y-110687422D01*
X107772145Y-110685393D01*
X107779937Y-110679000D01*
X107800019Y-110658918D01*
X107800019Y-111279653D01*
X107611333Y-111279653D01*
X107591512Y-111281605D01*
X107554887Y-111296776D01*
X107526856Y-111324807D01*
X107511685Y-111361432D01*
X107511685Y-111401074D01*
X107526856Y-111437699D01*
X107554887Y-111465730D01*
X107591512Y-111480901D01*
X107611333Y-111482853D01*
X108191905Y-111482853D01*
X108211726Y-111480901D01*
X108248351Y-111465730D01*
X108276382Y-111437699D01*
X108291553Y-111401074D01*
X108291553Y-111361432D01*
X108276382Y-111324807D01*
X108248351Y-111296776D01*
X108211726Y-111281605D01*
X108191905Y-111279653D01*
X108003219Y-111279653D01*
X108003219Y-110365253D01*
X108003212Y-110365182D01*
X108003219Y-110365147D01*
X108003198Y-110365044D01*
X108001267Y-110345432D01*
X107997416Y-110336135D01*
X107995444Y-110326275D01*
X107989906Y-110318005D01*
X107986096Y-110308807D01*
X107978983Y-110301694D01*
X107973386Y-110293336D01*
X107965102Y-110287813D01*
X107958065Y-110280776D01*
X107948773Y-110276927D01*
X107940402Y-110271346D01*
X107930635Y-110269414D01*
X107921440Y-110265605D01*
X107911380Y-110265605D01*
X107901512Y-110263653D01*
X107891753Y-110265605D01*
X107881798Y-110265605D01*
X107872502Y-110269455D01*
X107862640Y-110271428D01*
X107854368Y-110276966D01*
X107845173Y-110280776D01*
X107838062Y-110287886D01*
X107829701Y-110293486D01*
X107817218Y-110308730D01*
X107817142Y-110308807D01*
X107817127Y-110308841D01*
X107817083Y-110308896D01*
X107725901Y-110445667D01*
X107647912Y-110523657D01*
X107565896Y-110564665D01*
X107549041Y-110575275D01*
X107523067Y-110605224D01*
X107510531Y-110642831D01*
X107277505Y-110642831D01*
X107277505Y-110365253D01*
X107275553Y-110345432D01*
X107260382Y-110308807D01*
X107232351Y-110280776D01*
X107195726Y-110265605D01*
X107156084Y-110265605D01*
X107119459Y-110280776D01*
X107091428Y-110308807D01*
X107076257Y-110345432D01*
X107074305Y-110365253D01*
X107074305Y-110998672D01*
X106683546Y-110314845D01*
X106680580Y-110310667D01*
X106679810Y-110308807D01*
X106677915Y-110306912D01*
X106672018Y-110298604D01*
X106661332Y-110290329D01*
X106651779Y-110280776D01*
X106645794Y-110278296D01*
X106640674Y-110274332D01*
X106627640Y-110270777D01*
X106615154Y-110265605D01*
X106608677Y-110265605D01*
X106602429Y-110263901D01*
X106589024Y-110265605D01*
X106575512Y-110265605D01*
X106569529Y-110268083D01*
X106563103Y-110268900D01*
X106551365Y-110275606D01*
X106538887Y-110280776D01*
X106534309Y-110285353D01*
X106528684Y-110288568D01*
X106520409Y-110299253D01*
X106510856Y-110308807D01*
X106508376Y-110314791D01*
X106504412Y-110319912D01*
X106500857Y-110332945D01*
X106495685Y-110345432D01*
X106494686Y-110355569D01*
X106493981Y-110358157D01*
X106494235Y-110360155D01*
X106493733Y-110365253D01*
X106025096Y-110365253D01*
X106014386Y-110333124D01*
X106006266Y-110314938D01*
X106001509Y-110309453D01*
X105998263Y-110302961D01*
X105988638Y-110294614D01*
X105980292Y-110284990D01*
X105973799Y-110281743D01*
X105968315Y-110276987D01*
X105956229Y-110272958D01*
X105944835Y-110267261D01*
X105937594Y-110266746D01*
X105930708Y-110264451D01*
X105918000Y-110265354D01*
X105905292Y-110264451D01*
X105898405Y-110266746D01*
X105891165Y-110267261D01*
X105879770Y-110272958D01*
X105867685Y-110276987D01*
X105862200Y-110281743D01*
X105855708Y-110284990D01*
X105847361Y-110294614D01*
X105837737Y-110302961D01*
X105834490Y-110309453D01*
X105829734Y-110314938D01*
X105821614Y-110333124D01*
X105482947Y-111349124D01*
X105478531Y-111368545D01*
X105348679Y-111368545D01*
X105360890Y-111356334D01*
X105373525Y-111340938D01*
X105388696Y-111304313D01*
X105388696Y-111264671D01*
X105373525Y-111228046D01*
X105345494Y-111200015D01*
X105308869Y-111184844D01*
X105269227Y-111184844D01*
X105232602Y-111200015D01*
X105217206Y-111212650D01*
X105185784Y-111244071D01*
X105079038Y-111279653D01*
X105015248Y-111279653D01*
X104908501Y-111244071D01*
X104840358Y-111175928D01*
X104804336Y-111103885D01*
X104761695Y-110933319D01*
X104761695Y-110813188D01*
X104804336Y-110642622D01*
X104840358Y-110570579D01*
X104908501Y-110502435D01*
X105015249Y-110466853D01*
X105079037Y-110466853D01*
X105185784Y-110502435D01*
X105217206Y-110533857D01*
X105232602Y-110546492D01*
X105269227Y-110561663D01*
X105308869Y-110561663D01*
X105345494Y-110546492D01*
X105373525Y-110518461D01*
X105388696Y-110481836D01*
X105388696Y-110442194D01*
X105373525Y-110405569D01*
X105360890Y-110390173D01*
X105312509Y-110341792D01*
X105297113Y-110329157D01*
X105293739Y-110327759D01*
X105290982Y-110325368D01*
X105272796Y-110317248D01*
X105127653Y-110268867D01*
X105117825Y-110266632D01*
X105115345Y-110265605D01*
X105111750Y-110265250D01*
X105108232Y-110264451D01*
X105105557Y-110264641D01*
X105095524Y-110263653D01*
X104998762Y-110263653D01*
X104988728Y-110264641D01*
X104986054Y-110264451D01*
X104982535Y-110265250D01*
X104978941Y-110265605D01*
X104976460Y-110266632D01*
X104966633Y-110268867D01*
X104821490Y-110317248D01*
X104803304Y-110325368D01*
X104800546Y-110327759D01*
X104797173Y-110329157D01*
X104781777Y-110341792D01*
X104685015Y-110438554D01*
X104678621Y-110446345D01*
X104676593Y-110448104D01*
X104674668Y-110451161D01*
X104672380Y-110453950D01*
X104671354Y-110456426D01*
X104665983Y-110464959D01*
X104617602Y-110561721D01*
X104617046Y-110563173D01*
X104616611Y-110563761D01*
X104613646Y-110572058D01*
X104610484Y-110580323D01*
X104610431Y-110581055D01*
X104609910Y-110582516D01*
X104561529Y-110776040D01*
X104561020Y-110779475D01*
X104560447Y-110780861D01*
X104559711Y-110788328D01*
X104558615Y-110795743D01*
X104558835Y-110797224D01*
X104558495Y-110800682D01*
X104445606Y-110800682D01*
X104445606Y-110150764D01*
X108404442Y-110150764D01*
X108404442Y-111595742D01*
G37*
D13*
X141288104Y-103865495D02*
X141288104Y-104687972D01*
X141288104Y-104687972D02*
X141336485Y-104784734D01*
X141336485Y-104784734D02*
X141384866Y-104833115D01*
X141384866Y-104833115D02*
X141481628Y-104881495D01*
X141481628Y-104881495D02*
X141675152Y-104881495D01*
X141675152Y-104881495D02*
X141771914Y-104833115D01*
X141771914Y-104833115D02*
X141820295Y-104784734D01*
X141820295Y-104784734D02*
X141868676Y-104687972D01*
X141868676Y-104687972D02*
X141868676Y-103865495D01*
X142787914Y-103865495D02*
X142594390Y-103865495D01*
X142594390Y-103865495D02*
X142497628Y-103913876D01*
X142497628Y-103913876D02*
X142449247Y-103962257D01*
X142449247Y-103962257D02*
X142352485Y-104107400D01*
X142352485Y-104107400D02*
X142304104Y-104300924D01*
X142304104Y-104300924D02*
X142304104Y-104687972D01*
X142304104Y-104687972D02*
X142352485Y-104784734D01*
X142352485Y-104784734D02*
X142400866Y-104833115D01*
X142400866Y-104833115D02*
X142497628Y-104881495D01*
X142497628Y-104881495D02*
X142691152Y-104881495D01*
X142691152Y-104881495D02*
X142787914Y-104833115D01*
X142787914Y-104833115D02*
X142836295Y-104784734D01*
X142836295Y-104784734D02*
X142884676Y-104687972D01*
X142884676Y-104687972D02*
X142884676Y-104446067D01*
X142884676Y-104446067D02*
X142836295Y-104349305D01*
X142836295Y-104349305D02*
X142787914Y-104300924D01*
X142787914Y-104300924D02*
X142691152Y-104252543D01*
X142691152Y-104252543D02*
X142497628Y-104252543D01*
X142497628Y-104252543D02*
X142400866Y-104300924D01*
X142400866Y-104300924D02*
X142352485Y-104349305D01*
X142352485Y-104349305D02*
X142304104Y-104446067D01*
X97490095Y-113046932D02*
X97006286Y-113385599D01*
X97490095Y-113627504D02*
X96474095Y-113627504D01*
X96474095Y-113627504D02*
X96474095Y-113240456D01*
X96474095Y-113240456D02*
X96522476Y-113143694D01*
X96522476Y-113143694D02*
X96570857Y-113095313D01*
X96570857Y-113095313D02*
X96667619Y-113046932D01*
X96667619Y-113046932D02*
X96812762Y-113046932D01*
X96812762Y-113046932D02*
X96909524Y-113095313D01*
X96909524Y-113095313D02*
X96957905Y-113143694D01*
X96957905Y-113143694D02*
X97006286Y-113240456D01*
X97006286Y-113240456D02*
X97006286Y-113627504D01*
X96474095Y-112127694D02*
X96474095Y-112611504D01*
X96474095Y-112611504D02*
X96957905Y-112659885D01*
X96957905Y-112659885D02*
X96909524Y-112611504D01*
X96909524Y-112611504D02*
X96861143Y-112514742D01*
X96861143Y-112514742D02*
X96861143Y-112272837D01*
X96861143Y-112272837D02*
X96909524Y-112176075D01*
X96909524Y-112176075D02*
X96957905Y-112127694D01*
X96957905Y-112127694D02*
X97054667Y-112079313D01*
X97054667Y-112079313D02*
X97296572Y-112079313D01*
X97296572Y-112079313D02*
X97393334Y-112127694D01*
X97393334Y-112127694D02*
X97441715Y-112176075D01*
X97441715Y-112176075D02*
X97490095Y-112272837D01*
X97490095Y-112272837D02*
X97490095Y-112514742D01*
X97490095Y-112514742D02*
X97441715Y-112611504D01*
X97441715Y-112611504D02*
X97393334Y-112659885D01*
X131229704Y-109047095D02*
X131810276Y-109047095D01*
X131519990Y-110063095D02*
X131519990Y-109047095D01*
X132148942Y-110063095D02*
X132148942Y-109047095D01*
X132148942Y-109047095D02*
X132535990Y-109047095D01*
X132535990Y-109047095D02*
X132632752Y-109095476D01*
X132632752Y-109095476D02*
X132681133Y-109143857D01*
X132681133Y-109143857D02*
X132729514Y-109240619D01*
X132729514Y-109240619D02*
X132729514Y-109385762D01*
X132729514Y-109385762D02*
X132681133Y-109482524D01*
X132681133Y-109482524D02*
X132632752Y-109530905D01*
X132632752Y-109530905D02*
X132535990Y-109579286D01*
X132535990Y-109579286D02*
X132148942Y-109579286D01*
X133116561Y-109143857D02*
X133164942Y-109095476D01*
X133164942Y-109095476D02*
X133261704Y-109047095D01*
X133261704Y-109047095D02*
X133503609Y-109047095D01*
X133503609Y-109047095D02*
X133600371Y-109095476D01*
X133600371Y-109095476D02*
X133648752Y-109143857D01*
X133648752Y-109143857D02*
X133697133Y-109240619D01*
X133697133Y-109240619D02*
X133697133Y-109337381D01*
X133697133Y-109337381D02*
X133648752Y-109482524D01*
X133648752Y-109482524D02*
X133068180Y-110063095D01*
X133068180Y-110063095D02*
X133697133Y-110063095D01*
X87685695Y-110405332D02*
X87201886Y-110743999D01*
X87685695Y-110985904D02*
X86669695Y-110985904D01*
X86669695Y-110985904D02*
X86669695Y-110598856D01*
X86669695Y-110598856D02*
X86718076Y-110502094D01*
X86718076Y-110502094D02*
X86766457Y-110453713D01*
X86766457Y-110453713D02*
X86863219Y-110405332D01*
X86863219Y-110405332D02*
X87008362Y-110405332D01*
X87008362Y-110405332D02*
X87105124Y-110453713D01*
X87105124Y-110453713D02*
X87153505Y-110502094D01*
X87153505Y-110502094D02*
X87201886Y-110598856D01*
X87201886Y-110598856D02*
X87201886Y-110985904D01*
X87685695Y-109437713D02*
X87685695Y-110018285D01*
X87685695Y-109727999D02*
X86669695Y-109727999D01*
X86669695Y-109727999D02*
X86814838Y-109824761D01*
X86814838Y-109824761D02*
X86911600Y-109921523D01*
X86911600Y-109921523D02*
X86959981Y-110018285D01*
X124368134Y-101337532D02*
X124416515Y-101385913D01*
X124416515Y-101385913D02*
X124464895Y-101531056D01*
X124464895Y-101531056D02*
X124464895Y-101627818D01*
X124464895Y-101627818D02*
X124416515Y-101772961D01*
X124416515Y-101772961D02*
X124319753Y-101869723D01*
X124319753Y-101869723D02*
X124222991Y-101918104D01*
X124222991Y-101918104D02*
X124029467Y-101966485D01*
X124029467Y-101966485D02*
X123884324Y-101966485D01*
X123884324Y-101966485D02*
X123690800Y-101918104D01*
X123690800Y-101918104D02*
X123594038Y-101869723D01*
X123594038Y-101869723D02*
X123497276Y-101772961D01*
X123497276Y-101772961D02*
X123448895Y-101627818D01*
X123448895Y-101627818D02*
X123448895Y-101531056D01*
X123448895Y-101531056D02*
X123497276Y-101385913D01*
X123497276Y-101385913D02*
X123545657Y-101337532D01*
X123545657Y-100950485D02*
X123497276Y-100902104D01*
X123497276Y-100902104D02*
X123448895Y-100805342D01*
X123448895Y-100805342D02*
X123448895Y-100563437D01*
X123448895Y-100563437D02*
X123497276Y-100466675D01*
X123497276Y-100466675D02*
X123545657Y-100418294D01*
X123545657Y-100418294D02*
X123642419Y-100369913D01*
X123642419Y-100369913D02*
X123739181Y-100369913D01*
X123739181Y-100369913D02*
X123884324Y-100418294D01*
X123884324Y-100418294D02*
X124464895Y-100998866D01*
X124464895Y-100998866D02*
X124464895Y-100369913D01*
X145965333Y-110545695D02*
X145965333Y-111271410D01*
X145965333Y-111271410D02*
X145916952Y-111416553D01*
X145916952Y-111416553D02*
X145820190Y-111513315D01*
X145820190Y-111513315D02*
X145675047Y-111561695D01*
X145675047Y-111561695D02*
X145578285Y-111561695D01*
X146884571Y-110884362D02*
X146884571Y-111561695D01*
X146642666Y-110497315D02*
X146400761Y-111223029D01*
X146400761Y-111223029D02*
X147029714Y-111223029D01*
D14*
G36*
X138988143Y-111014768D02*
G01*
X138786257Y-111014768D01*
X138887200Y-110711939D01*
X138988143Y-111014768D01*
G37*
G36*
X141375594Y-111621142D02*
G01*
X137414806Y-111621142D01*
X137414806Y-110826082D01*
X137527695Y-110826082D01*
X137527695Y-110971225D01*
X137528035Y-110974682D01*
X137527815Y-110976164D01*
X137528911Y-110983578D01*
X137529647Y-110991046D01*
X137530220Y-110992431D01*
X137530729Y-110995867D01*
X137579110Y-111189391D01*
X137579631Y-111190851D01*
X137579684Y-111191584D01*
X137582846Y-111199848D01*
X137585811Y-111208146D01*
X137586246Y-111208733D01*
X137586802Y-111210186D01*
X137635183Y-111306948D01*
X137640554Y-111315480D01*
X137641580Y-111317957D01*
X137643868Y-111320745D01*
X137645793Y-111323803D01*
X137647821Y-111325561D01*
X137654215Y-111333353D01*
X137750977Y-111430115D01*
X137766373Y-111442750D01*
X137769744Y-111444146D01*
X137772504Y-111446540D01*
X137790691Y-111454659D01*
X137935834Y-111503039D01*
X137945659Y-111505273D01*
X137948141Y-111506301D01*
X137951737Y-111506655D01*
X137955255Y-111507455D01*
X137957929Y-111507264D01*
X137967962Y-111508253D01*
X138064724Y-111508253D01*
X138074756Y-111507264D01*
X138077431Y-111507455D01*
X138080948Y-111506655D01*
X138084545Y-111506301D01*
X138087026Y-111505273D01*
X138096852Y-111503039D01*
X138241995Y-111454659D01*
X138260182Y-111446540D01*
X138262941Y-111444146D01*
X138266313Y-111442750D01*
X138281709Y-111430115D01*
X138317879Y-111393945D01*
X138447731Y-111393945D01*
X138450541Y-111433488D01*
X138468270Y-111468945D01*
X138498218Y-111494919D01*
X138535825Y-111507455D01*
X138575368Y-111504645D01*
X138610825Y-111486916D01*
X138636799Y-111456968D01*
X138644919Y-111438782D01*
X138718524Y-111217968D01*
X139055876Y-111217968D01*
X139129481Y-111438782D01*
X139137601Y-111456968D01*
X139163575Y-111486916D01*
X139199032Y-111504645D01*
X139238575Y-111507455D01*
X139276182Y-111494919D01*
X139306130Y-111468945D01*
X139323859Y-111433488D01*
X139326669Y-111393945D01*
X139322253Y-111374524D01*
X138994296Y-110390653D01*
X139462933Y-110390653D01*
X139462933Y-111406653D01*
X139464885Y-111426474D01*
X139480056Y-111463099D01*
X139508087Y-111491130D01*
X139544712Y-111506301D01*
X139584354Y-111506301D01*
X139620979Y-111491130D01*
X139649010Y-111463099D01*
X139664181Y-111426474D01*
X139666133Y-111406653D01*
X139666133Y-110773233D01*
X140056891Y-111457060D01*
X140059857Y-111461238D01*
X140060628Y-111463099D01*
X140062523Y-111464994D01*
X140068420Y-111473301D01*
X140079104Y-111481575D01*
X140088659Y-111491130D01*
X140094642Y-111493608D01*
X140099763Y-111497574D01*
X140112797Y-111501128D01*
X140125284Y-111506301D01*
X140131763Y-111506301D01*
X140138008Y-111508004D01*
X140151405Y-111506301D01*
X140164926Y-111506301D01*
X140170911Y-111503821D01*
X140177335Y-111503005D01*
X140189065Y-111496301D01*
X140201551Y-111491130D01*
X140206130Y-111486550D01*
X140211754Y-111483337D01*
X140220026Y-111472654D01*
X140229582Y-111463099D01*
X140232061Y-111457113D01*
X140236026Y-111451994D01*
X140239579Y-111438962D01*
X140244753Y-111426474D01*
X140245751Y-111416330D01*
X140246456Y-111413749D01*
X140246202Y-111411755D01*
X140246705Y-111406653D01*
X140246705Y-111386832D01*
X140432504Y-111386832D01*
X140432504Y-111426474D01*
X140447675Y-111463099D01*
X140475706Y-111491130D01*
X140512331Y-111506301D01*
X140532152Y-111508253D01*
X141161105Y-111508253D01*
X141180926Y-111506301D01*
X141217551Y-111491130D01*
X141245582Y-111463099D01*
X141260753Y-111426474D01*
X141260753Y-111386832D01*
X141245582Y-111350207D01*
X141217551Y-111322176D01*
X141180926Y-111307005D01*
X141161105Y-111305053D01*
X140777436Y-111305053D01*
X141184566Y-110897924D01*
X141197201Y-110882528D01*
X141198598Y-110879154D01*
X141200990Y-110876397D01*
X141209110Y-110858211D01*
X141257491Y-110713068D01*
X141259725Y-110703240D01*
X141260753Y-110700760D01*
X141261107Y-110697165D01*
X141261907Y-110693647D01*
X141261716Y-110690972D01*
X141262705Y-110680939D01*
X141262705Y-110584177D01*
X141260753Y-110564356D01*
X141259355Y-110560982D01*
X141259097Y-110557341D01*
X141251979Y-110538740D01*
X141203598Y-110441978D01*
X141198226Y-110433445D01*
X141197201Y-110430969D01*
X141194912Y-110428180D01*
X141192988Y-110425123D01*
X141190959Y-110423364D01*
X141184566Y-110415573D01*
X141136185Y-110367192D01*
X141128393Y-110360798D01*
X141126635Y-110358770D01*
X141123577Y-110356845D01*
X141120789Y-110354557D01*
X141118312Y-110353531D01*
X141109780Y-110348160D01*
X141013018Y-110299779D01*
X140994416Y-110292661D01*
X140990775Y-110292402D01*
X140987402Y-110291005D01*
X140967581Y-110289053D01*
X140725676Y-110289053D01*
X140705855Y-110291005D01*
X140702481Y-110292402D01*
X140698840Y-110292661D01*
X140680239Y-110299779D01*
X140583477Y-110348160D01*
X140574944Y-110353531D01*
X140572468Y-110354557D01*
X140569679Y-110356845D01*
X140566622Y-110358770D01*
X140564863Y-110360798D01*
X140557072Y-110367192D01*
X140508691Y-110415573D01*
X140496056Y-110430969D01*
X140480885Y-110467594D01*
X140480885Y-110507236D01*
X140496056Y-110543861D01*
X140524087Y-110571892D01*
X140560712Y-110587063D01*
X140600354Y-110587063D01*
X140636979Y-110571892D01*
X140652375Y-110559257D01*
X140689097Y-110522535D01*
X140749661Y-110492253D01*
X140943596Y-110492253D01*
X141004160Y-110522535D01*
X141029223Y-110547598D01*
X141059505Y-110608162D01*
X141059505Y-110664452D01*
X141023922Y-110771199D01*
X140460310Y-111334811D01*
X140447675Y-111350207D01*
X140432504Y-111386832D01*
X140246705Y-111386832D01*
X140246705Y-110390653D01*
X140244753Y-110370832D01*
X140229582Y-110334207D01*
X140201551Y-110306176D01*
X140164926Y-110291005D01*
X140125284Y-110291005D01*
X140088659Y-110306176D01*
X140060628Y-110334207D01*
X140045457Y-110370832D01*
X140043505Y-110390653D01*
X140043505Y-111024072D01*
X139652746Y-110340245D01*
X139649780Y-110336067D01*
X139649010Y-110334207D01*
X139647115Y-110332312D01*
X139641218Y-110324004D01*
X139630532Y-110315729D01*
X139620979Y-110306176D01*
X139614994Y-110303696D01*
X139609874Y-110299732D01*
X139596840Y-110296177D01*
X139584354Y-110291005D01*
X139577877Y-110291005D01*
X139571629Y-110289301D01*
X139558224Y-110291005D01*
X139544712Y-110291005D01*
X139538729Y-110293483D01*
X139532303Y-110294300D01*
X139520565Y-110301006D01*
X139508087Y-110306176D01*
X139503509Y-110310753D01*
X139497884Y-110313968D01*
X139489609Y-110324653D01*
X139480056Y-110334207D01*
X139477576Y-110340191D01*
X139473612Y-110345312D01*
X139470057Y-110358345D01*
X139464885Y-110370832D01*
X139463886Y-110380969D01*
X139463181Y-110383557D01*
X139463435Y-110385555D01*
X139462933Y-110390653D01*
X138994296Y-110390653D01*
X138983586Y-110358524D01*
X138975466Y-110340338D01*
X138970709Y-110334853D01*
X138967463Y-110328361D01*
X138957838Y-110320014D01*
X138949492Y-110310390D01*
X138942999Y-110307143D01*
X138937515Y-110302387D01*
X138925429Y-110298358D01*
X138914035Y-110292661D01*
X138906794Y-110292146D01*
X138899908Y-110289851D01*
X138887200Y-110290754D01*
X138874492Y-110289851D01*
X138867605Y-110292146D01*
X138860365Y-110292661D01*
X138848970Y-110298358D01*
X138836885Y-110302387D01*
X138831400Y-110307143D01*
X138824908Y-110310390D01*
X138816561Y-110320014D01*
X138806937Y-110328361D01*
X138803690Y-110334853D01*
X138798934Y-110340338D01*
X138790814Y-110358524D01*
X138452147Y-111374524D01*
X138447731Y-111393945D01*
X138317879Y-111393945D01*
X138330090Y-111381734D01*
X138342725Y-111366338D01*
X138357896Y-111329713D01*
X138357896Y-111290071D01*
X138342725Y-111253446D01*
X138314694Y-111225415D01*
X138278069Y-111210244D01*
X138238427Y-111210244D01*
X138201802Y-111225415D01*
X138186406Y-111238050D01*
X138154984Y-111269471D01*
X138048238Y-111305053D01*
X137984448Y-111305053D01*
X137877701Y-111269471D01*
X137809558Y-111201328D01*
X137773536Y-111129285D01*
X137730895Y-110958719D01*
X137730895Y-110838588D01*
X137773536Y-110668022D01*
X137809558Y-110595979D01*
X137877701Y-110527835D01*
X137984449Y-110492253D01*
X138048237Y-110492253D01*
X138154984Y-110527835D01*
X138186406Y-110559257D01*
X138201802Y-110571892D01*
X138238427Y-110587063D01*
X138278069Y-110587063D01*
X138314694Y-110571892D01*
X138342725Y-110543861D01*
X138357896Y-110507236D01*
X138357896Y-110467594D01*
X138342725Y-110430969D01*
X138330090Y-110415573D01*
X138281709Y-110367192D01*
X138266313Y-110354557D01*
X138262939Y-110353159D01*
X138260182Y-110350768D01*
X138241996Y-110342648D01*
X138096853Y-110294267D01*
X138087025Y-110292032D01*
X138084545Y-110291005D01*
X138080950Y-110290650D01*
X138077432Y-110289851D01*
X138074757Y-110290041D01*
X138064724Y-110289053D01*
X137967962Y-110289053D01*
X137957928Y-110290041D01*
X137955254Y-110289851D01*
X137951735Y-110290650D01*
X137948141Y-110291005D01*
X137945660Y-110292032D01*
X137935833Y-110294267D01*
X137790690Y-110342648D01*
X137772504Y-110350768D01*
X137769746Y-110353159D01*
X137766373Y-110354557D01*
X137750977Y-110367192D01*
X137654215Y-110463954D01*
X137647821Y-110471745D01*
X137645793Y-110473504D01*
X137643868Y-110476561D01*
X137641580Y-110479350D01*
X137640554Y-110481826D01*
X137635183Y-110490359D01*
X137586802Y-110587121D01*
X137586246Y-110588573D01*
X137585811Y-110589161D01*
X137582846Y-110597458D01*
X137579684Y-110605723D01*
X137579631Y-110606455D01*
X137579110Y-110607916D01*
X137530729Y-110801440D01*
X137530220Y-110804875D01*
X137529647Y-110806261D01*
X137528911Y-110813728D01*
X137527815Y-110821143D01*
X137528035Y-110822624D01*
X137527695Y-110826082D01*
X137414806Y-110826082D01*
X137414806Y-110176164D01*
X141375594Y-110176164D01*
X141375594Y-111621142D01*
G37*
D13*
X103848504Y-98734695D02*
X103848504Y-99557172D01*
X103848504Y-99557172D02*
X103896885Y-99653934D01*
X103896885Y-99653934D02*
X103945266Y-99702315D01*
X103945266Y-99702315D02*
X104042028Y-99750695D01*
X104042028Y-99750695D02*
X104235552Y-99750695D01*
X104235552Y-99750695D02*
X104332314Y-99702315D01*
X104332314Y-99702315D02*
X104380695Y-99653934D01*
X104380695Y-99653934D02*
X104429076Y-99557172D01*
X104429076Y-99557172D02*
X104429076Y-98734695D01*
X104864504Y-98831457D02*
X104912885Y-98783076D01*
X104912885Y-98783076D02*
X105009647Y-98734695D01*
X105009647Y-98734695D02*
X105251552Y-98734695D01*
X105251552Y-98734695D02*
X105348314Y-98783076D01*
X105348314Y-98783076D02*
X105396695Y-98831457D01*
X105396695Y-98831457D02*
X105445076Y-98928219D01*
X105445076Y-98928219D02*
X105445076Y-99024981D01*
X105445076Y-99024981D02*
X105396695Y-99170124D01*
X105396695Y-99170124D02*
X104816123Y-99750695D01*
X104816123Y-99750695D02*
X105445076Y-99750695D01*
X95483495Y-113046932D02*
X94999686Y-113385599D01*
X95483495Y-113627504D02*
X94467495Y-113627504D01*
X94467495Y-113627504D02*
X94467495Y-113240456D01*
X94467495Y-113240456D02*
X94515876Y-113143694D01*
X94515876Y-113143694D02*
X94564257Y-113095313D01*
X94564257Y-113095313D02*
X94661019Y-113046932D01*
X94661019Y-113046932D02*
X94806162Y-113046932D01*
X94806162Y-113046932D02*
X94902924Y-113095313D01*
X94902924Y-113095313D02*
X94951305Y-113143694D01*
X94951305Y-113143694D02*
X94999686Y-113240456D01*
X94999686Y-113240456D02*
X94999686Y-113627504D01*
X94806162Y-112176075D02*
X95483495Y-112176075D01*
X94419115Y-112417980D02*
X95144829Y-112659885D01*
X95144829Y-112659885D02*
X95144829Y-112030932D01*
X119486495Y-109262332D02*
X119002686Y-109600999D01*
X119486495Y-109842904D02*
X118470495Y-109842904D01*
X118470495Y-109842904D02*
X118470495Y-109455856D01*
X118470495Y-109455856D02*
X118518876Y-109359094D01*
X118518876Y-109359094D02*
X118567257Y-109310713D01*
X118567257Y-109310713D02*
X118664019Y-109262332D01*
X118664019Y-109262332D02*
X118809162Y-109262332D01*
X118809162Y-109262332D02*
X118905924Y-109310713D01*
X118905924Y-109310713D02*
X118954305Y-109359094D01*
X118954305Y-109359094D02*
X119002686Y-109455856D01*
X119002686Y-109455856D02*
X119002686Y-109842904D01*
X118470495Y-108391475D02*
X118470495Y-108584999D01*
X118470495Y-108584999D02*
X118518876Y-108681761D01*
X118518876Y-108681761D02*
X118567257Y-108730142D01*
X118567257Y-108730142D02*
X118712400Y-108826904D01*
X118712400Y-108826904D02*
X118905924Y-108875285D01*
X118905924Y-108875285D02*
X119292972Y-108875285D01*
X119292972Y-108875285D02*
X119389734Y-108826904D01*
X119389734Y-108826904D02*
X119438115Y-108778523D01*
X119438115Y-108778523D02*
X119486495Y-108681761D01*
X119486495Y-108681761D02*
X119486495Y-108488237D01*
X119486495Y-108488237D02*
X119438115Y-108391475D01*
X119438115Y-108391475D02*
X119389734Y-108343094D01*
X119389734Y-108343094D02*
X119292972Y-108294713D01*
X119292972Y-108294713D02*
X119051067Y-108294713D01*
X119051067Y-108294713D02*
X118954305Y-108343094D01*
X118954305Y-108343094D02*
X118905924Y-108391475D01*
X118905924Y-108391475D02*
X118857543Y-108488237D01*
X118857543Y-108488237D02*
X118857543Y-108681761D01*
X118857543Y-108681761D02*
X118905924Y-108778523D01*
X118905924Y-108778523D02*
X118954305Y-108826904D01*
X118954305Y-108826904D02*
X119051067Y-108875285D01*
X123130733Y-110545695D02*
X123130733Y-111271410D01*
X123130733Y-111271410D02*
X123082352Y-111416553D01*
X123082352Y-111416553D02*
X122985590Y-111513315D01*
X122985590Y-111513315D02*
X122840447Y-111561695D01*
X122840447Y-111561695D02*
X122743685Y-111561695D01*
X123566161Y-110642457D02*
X123614542Y-110594076D01*
X123614542Y-110594076D02*
X123711304Y-110545695D01*
X123711304Y-110545695D02*
X123953209Y-110545695D01*
X123953209Y-110545695D02*
X124049971Y-110594076D01*
X124049971Y-110594076D02*
X124098352Y-110642457D01*
X124098352Y-110642457D02*
X124146733Y-110739219D01*
X124146733Y-110739219D02*
X124146733Y-110835981D01*
X124146733Y-110835981D02*
X124098352Y-110981124D01*
X124098352Y-110981124D02*
X123517780Y-111561695D01*
X123517780Y-111561695D02*
X124146733Y-111561695D01*
D14*
G36*
X116229743Y-111014768D02*
G01*
X116027857Y-111014768D01*
X116128800Y-110711939D01*
X116229743Y-111014768D01*
G37*
G36*
X118615242Y-111621142D02*
G01*
X114656406Y-111621142D01*
X114656406Y-110826082D01*
X114769295Y-110826082D01*
X114769295Y-110971225D01*
X114769635Y-110974682D01*
X114769415Y-110976164D01*
X114770511Y-110983578D01*
X114771247Y-110991046D01*
X114771820Y-110992431D01*
X114772329Y-110995867D01*
X114820710Y-111189391D01*
X114821231Y-111190851D01*
X114821284Y-111191584D01*
X114824446Y-111199848D01*
X114827411Y-111208146D01*
X114827846Y-111208733D01*
X114828402Y-111210186D01*
X114876783Y-111306948D01*
X114882154Y-111315480D01*
X114883180Y-111317957D01*
X114885468Y-111320745D01*
X114887393Y-111323803D01*
X114889421Y-111325561D01*
X114895815Y-111333353D01*
X114992577Y-111430115D01*
X115007973Y-111442750D01*
X115011344Y-111444146D01*
X115014104Y-111446540D01*
X115032291Y-111454659D01*
X115177434Y-111503039D01*
X115187259Y-111505273D01*
X115189741Y-111506301D01*
X115193337Y-111506655D01*
X115196855Y-111507455D01*
X115199529Y-111507264D01*
X115209562Y-111508253D01*
X115306324Y-111508253D01*
X115316356Y-111507264D01*
X115319031Y-111507455D01*
X115322548Y-111506655D01*
X115326145Y-111506301D01*
X115328626Y-111505273D01*
X115338452Y-111503039D01*
X115483595Y-111454659D01*
X115501782Y-111446540D01*
X115504541Y-111444146D01*
X115507913Y-111442750D01*
X115523309Y-111430115D01*
X115559479Y-111393945D01*
X115689331Y-111393945D01*
X115692141Y-111433488D01*
X115709870Y-111468945D01*
X115739818Y-111494919D01*
X115777425Y-111507455D01*
X115816968Y-111504645D01*
X115852425Y-111486916D01*
X115878399Y-111456968D01*
X115886519Y-111438782D01*
X115960124Y-111217968D01*
X116297476Y-111217968D01*
X116371081Y-111438782D01*
X116379201Y-111456968D01*
X116405175Y-111486916D01*
X116440632Y-111504645D01*
X116480175Y-111507455D01*
X116517782Y-111494919D01*
X116547730Y-111468945D01*
X116565459Y-111433488D01*
X116568269Y-111393945D01*
X116563853Y-111374524D01*
X116235896Y-110390653D01*
X116704533Y-110390653D01*
X116704533Y-111406653D01*
X116706485Y-111426474D01*
X116721656Y-111463099D01*
X116749687Y-111491130D01*
X116786312Y-111506301D01*
X116825954Y-111506301D01*
X116862579Y-111491130D01*
X116890610Y-111463099D01*
X116905781Y-111426474D01*
X116907733Y-111406653D01*
X116907733Y-110773233D01*
X117298491Y-111457060D01*
X117301457Y-111461238D01*
X117302228Y-111463099D01*
X117304123Y-111464994D01*
X117310020Y-111473301D01*
X117320704Y-111481575D01*
X117330259Y-111491130D01*
X117336242Y-111493608D01*
X117341363Y-111497574D01*
X117354397Y-111501128D01*
X117366884Y-111506301D01*
X117373363Y-111506301D01*
X117379608Y-111508004D01*
X117393005Y-111506301D01*
X117406526Y-111506301D01*
X117412511Y-111503821D01*
X117418935Y-111503005D01*
X117430665Y-111496301D01*
X117443151Y-111491130D01*
X117447730Y-111486550D01*
X117453354Y-111483337D01*
X117461626Y-111472654D01*
X117471182Y-111463099D01*
X117473661Y-111457113D01*
X117477626Y-111451994D01*
X117481179Y-111438962D01*
X117486353Y-111426474D01*
X117487351Y-111416330D01*
X117488056Y-111413749D01*
X117487802Y-111411755D01*
X117488305Y-111406653D01*
X117488305Y-110668231D01*
X117721331Y-110668231D01*
X117724141Y-110707774D01*
X117741869Y-110743231D01*
X117771818Y-110769205D01*
X117809425Y-110781741D01*
X117848968Y-110778931D01*
X117867570Y-110771813D01*
X117964332Y-110723432D01*
X117972864Y-110718060D01*
X117975341Y-110717035D01*
X117978129Y-110714746D01*
X117981187Y-110712822D01*
X117982945Y-110710793D01*
X117990737Y-110704400D01*
X118010819Y-110684318D01*
X118010819Y-111305053D01*
X117822133Y-111305053D01*
X117802312Y-111307005D01*
X117765687Y-111322176D01*
X117737656Y-111350207D01*
X117722485Y-111386832D01*
X117722485Y-111426474D01*
X117737656Y-111463099D01*
X117765687Y-111491130D01*
X117802312Y-111506301D01*
X117822133Y-111508253D01*
X118402705Y-111508253D01*
X118422526Y-111506301D01*
X118459151Y-111491130D01*
X118487182Y-111463099D01*
X118502353Y-111426474D01*
X118502353Y-111386832D01*
X118487182Y-111350207D01*
X118459151Y-111322176D01*
X118422526Y-111307005D01*
X118402705Y-111305053D01*
X118214019Y-111305053D01*
X118214019Y-110390653D01*
X118214012Y-110390582D01*
X118214019Y-110390547D01*
X118213998Y-110390444D01*
X118212067Y-110370832D01*
X118208216Y-110361535D01*
X118206244Y-110351675D01*
X118200706Y-110343405D01*
X118196896Y-110334207D01*
X118189783Y-110327094D01*
X118184186Y-110318736D01*
X118175902Y-110313213D01*
X118168865Y-110306176D01*
X118159573Y-110302327D01*
X118151202Y-110296746D01*
X118141435Y-110294814D01*
X118132240Y-110291005D01*
X118122180Y-110291005D01*
X118112312Y-110289053D01*
X118102553Y-110291005D01*
X118092598Y-110291005D01*
X118083302Y-110294855D01*
X118073440Y-110296828D01*
X118065168Y-110302366D01*
X118055973Y-110306176D01*
X118048862Y-110313286D01*
X118040501Y-110318886D01*
X118028018Y-110334130D01*
X118027942Y-110334207D01*
X118027927Y-110334241D01*
X118027883Y-110334296D01*
X117936701Y-110471067D01*
X117858712Y-110549057D01*
X117776696Y-110590065D01*
X117759841Y-110600675D01*
X117733867Y-110630624D01*
X117721331Y-110668231D01*
X117488305Y-110668231D01*
X117488305Y-110390653D01*
X117486353Y-110370832D01*
X117471182Y-110334207D01*
X117443151Y-110306176D01*
X117406526Y-110291005D01*
X117366884Y-110291005D01*
X117330259Y-110306176D01*
X117302228Y-110334207D01*
X117287057Y-110370832D01*
X117285105Y-110390653D01*
X117285105Y-111024072D01*
X116894346Y-110340245D01*
X116891380Y-110336067D01*
X116890610Y-110334207D01*
X116888715Y-110332312D01*
X116882818Y-110324004D01*
X116872132Y-110315729D01*
X116862579Y-110306176D01*
X116856594Y-110303696D01*
X116851474Y-110299732D01*
X116838440Y-110296177D01*
X116825954Y-110291005D01*
X116819477Y-110291005D01*
X116813229Y-110289301D01*
X116799824Y-110291005D01*
X116786312Y-110291005D01*
X116780329Y-110293483D01*
X116773903Y-110294300D01*
X116762165Y-110301006D01*
X116749687Y-110306176D01*
X116745109Y-110310753D01*
X116739484Y-110313968D01*
X116731209Y-110324653D01*
X116721656Y-110334207D01*
X116719176Y-110340191D01*
X116715212Y-110345312D01*
X116711657Y-110358345D01*
X116706485Y-110370832D01*
X116705486Y-110380969D01*
X116704781Y-110383557D01*
X116705035Y-110385555D01*
X116704533Y-110390653D01*
X116235896Y-110390653D01*
X116225186Y-110358524D01*
X116217066Y-110340338D01*
X116212309Y-110334853D01*
X116209063Y-110328361D01*
X116199438Y-110320014D01*
X116191092Y-110310390D01*
X116184599Y-110307143D01*
X116179115Y-110302387D01*
X116167029Y-110298358D01*
X116155635Y-110292661D01*
X116148394Y-110292146D01*
X116141508Y-110289851D01*
X116128800Y-110290754D01*
X116116092Y-110289851D01*
X116109205Y-110292146D01*
X116101965Y-110292661D01*
X116090570Y-110298358D01*
X116078485Y-110302387D01*
X116073000Y-110307143D01*
X116066508Y-110310390D01*
X116058161Y-110320014D01*
X116048537Y-110328361D01*
X116045290Y-110334853D01*
X116040534Y-110340338D01*
X116032414Y-110358524D01*
X115693747Y-111374524D01*
X115689331Y-111393945D01*
X115559479Y-111393945D01*
X115571690Y-111381734D01*
X115584325Y-111366338D01*
X115599496Y-111329713D01*
X115599496Y-111290071D01*
X115584325Y-111253446D01*
X115556294Y-111225415D01*
X115519669Y-111210244D01*
X115480027Y-111210244D01*
X115443402Y-111225415D01*
X115428006Y-111238050D01*
X115396584Y-111269471D01*
X115289838Y-111305053D01*
X115226048Y-111305053D01*
X115119301Y-111269471D01*
X115051158Y-111201328D01*
X115015136Y-111129285D01*
X114972495Y-110958719D01*
X114972495Y-110838588D01*
X115015136Y-110668022D01*
X115051158Y-110595979D01*
X115119301Y-110527835D01*
X115226049Y-110492253D01*
X115289837Y-110492253D01*
X115396584Y-110527835D01*
X115428006Y-110559257D01*
X115443402Y-110571892D01*
X115480027Y-110587063D01*
X115519669Y-110587063D01*
X115556294Y-110571892D01*
X115584325Y-110543861D01*
X115599496Y-110507236D01*
X115599496Y-110467594D01*
X115584325Y-110430969D01*
X115571690Y-110415573D01*
X115523309Y-110367192D01*
X115507913Y-110354557D01*
X115504539Y-110353159D01*
X115501782Y-110350768D01*
X115483596Y-110342648D01*
X115338453Y-110294267D01*
X115328625Y-110292032D01*
X115326145Y-110291005D01*
X115322550Y-110290650D01*
X115319032Y-110289851D01*
X115316357Y-110290041D01*
X115306324Y-110289053D01*
X115209562Y-110289053D01*
X115199528Y-110290041D01*
X115196854Y-110289851D01*
X115193335Y-110290650D01*
X115189741Y-110291005D01*
X115187260Y-110292032D01*
X115177433Y-110294267D01*
X115032290Y-110342648D01*
X115014104Y-110350768D01*
X115011346Y-110353159D01*
X115007973Y-110354557D01*
X114992577Y-110367192D01*
X114895815Y-110463954D01*
X114889421Y-110471745D01*
X114887393Y-110473504D01*
X114885468Y-110476561D01*
X114883180Y-110479350D01*
X114882154Y-110481826D01*
X114876783Y-110490359D01*
X114828402Y-110587121D01*
X114827846Y-110588573D01*
X114827411Y-110589161D01*
X114824446Y-110597458D01*
X114821284Y-110605723D01*
X114821231Y-110606455D01*
X114820710Y-110607916D01*
X114772329Y-110801440D01*
X114771820Y-110804875D01*
X114771247Y-110806261D01*
X114770511Y-110813728D01*
X114769415Y-110821143D01*
X114769635Y-110822624D01*
X114769295Y-110826082D01*
X114656406Y-110826082D01*
X114656406Y-110176164D01*
X118615242Y-110176164D01*
X118615242Y-111621142D01*
G37*
D13*
X121543895Y-109262332D02*
X121060086Y-109600999D01*
X121543895Y-109842904D02*
X120527895Y-109842904D01*
X120527895Y-109842904D02*
X120527895Y-109455856D01*
X120527895Y-109455856D02*
X120576276Y-109359094D01*
X120576276Y-109359094D02*
X120624657Y-109310713D01*
X120624657Y-109310713D02*
X120721419Y-109262332D01*
X120721419Y-109262332D02*
X120866562Y-109262332D01*
X120866562Y-109262332D02*
X120963324Y-109310713D01*
X120963324Y-109310713D02*
X121011705Y-109359094D01*
X121011705Y-109359094D02*
X121060086Y-109455856D01*
X121060086Y-109455856D02*
X121060086Y-109842904D01*
X120527895Y-108923666D02*
X120527895Y-108246332D01*
X120527895Y-108246332D02*
X121543895Y-108681761D01*
X126000933Y-115270095D02*
X126000933Y-115995810D01*
X126000933Y-115995810D02*
X125952552Y-116140953D01*
X125952552Y-116140953D02*
X125855790Y-116237715D01*
X125855790Y-116237715D02*
X125710647Y-116286095D01*
X125710647Y-116286095D02*
X125613885Y-116286095D01*
X126387980Y-115270095D02*
X127016933Y-115270095D01*
X127016933Y-115270095D02*
X126678266Y-115657143D01*
X126678266Y-115657143D02*
X126823409Y-115657143D01*
X126823409Y-115657143D02*
X126920171Y-115705524D01*
X126920171Y-115705524D02*
X126968552Y-115753905D01*
X126968552Y-115753905D02*
X127016933Y-115850667D01*
X127016933Y-115850667D02*
X127016933Y-116092572D01*
X127016933Y-116092572D02*
X126968552Y-116189334D01*
X126968552Y-116189334D02*
X126920171Y-116237715D01*
X126920171Y-116237715D02*
X126823409Y-116286095D01*
X126823409Y-116286095D02*
X126533123Y-116286095D01*
X126533123Y-116286095D02*
X126436361Y-116237715D01*
X126436361Y-116237715D02*
X126387980Y-116189334D01*
D14*
G36*
X128853543Y-111014768D02*
G01*
X128651657Y-111014768D01*
X128752600Y-110711939D01*
X128853543Y-111014768D01*
G37*
G36*
X131240994Y-111621142D02*
G01*
X127280206Y-111621142D01*
X127280206Y-110826082D01*
X127393095Y-110826082D01*
X127393095Y-110971225D01*
X127393435Y-110974682D01*
X127393215Y-110976164D01*
X127394311Y-110983578D01*
X127395047Y-110991046D01*
X127395620Y-110992431D01*
X127396129Y-110995867D01*
X127444510Y-111189391D01*
X127445031Y-111190851D01*
X127445084Y-111191584D01*
X127448246Y-111199848D01*
X127451211Y-111208146D01*
X127451646Y-111208733D01*
X127452202Y-111210186D01*
X127500583Y-111306948D01*
X127505954Y-111315480D01*
X127506980Y-111317957D01*
X127509268Y-111320745D01*
X127511193Y-111323803D01*
X127513221Y-111325561D01*
X127519615Y-111333353D01*
X127616377Y-111430115D01*
X127631773Y-111442750D01*
X127635144Y-111444146D01*
X127637904Y-111446540D01*
X127656091Y-111454659D01*
X127801234Y-111503039D01*
X127811059Y-111505273D01*
X127813541Y-111506301D01*
X127817137Y-111506655D01*
X127820655Y-111507455D01*
X127823329Y-111507264D01*
X127833362Y-111508253D01*
X127930124Y-111508253D01*
X127940156Y-111507264D01*
X127942831Y-111507455D01*
X127946348Y-111506655D01*
X127949945Y-111506301D01*
X127952426Y-111505273D01*
X127962252Y-111503039D01*
X128107395Y-111454659D01*
X128125582Y-111446540D01*
X128128341Y-111444146D01*
X128131713Y-111442750D01*
X128147109Y-111430115D01*
X128183279Y-111393945D01*
X128313131Y-111393945D01*
X128315941Y-111433488D01*
X128333670Y-111468945D01*
X128363618Y-111494919D01*
X128401225Y-111507455D01*
X128440768Y-111504645D01*
X128476225Y-111486916D01*
X128502199Y-111456968D01*
X128510319Y-111438782D01*
X128583924Y-111217968D01*
X128921276Y-111217968D01*
X128994881Y-111438782D01*
X129003001Y-111456968D01*
X129028975Y-111486916D01*
X129064432Y-111504645D01*
X129103975Y-111507455D01*
X129141582Y-111494919D01*
X129171530Y-111468945D01*
X129189259Y-111433488D01*
X129192069Y-111393945D01*
X129187653Y-111374524D01*
X128859696Y-110390653D01*
X129328333Y-110390653D01*
X129328333Y-111406653D01*
X129330285Y-111426474D01*
X129345456Y-111463099D01*
X129373487Y-111491130D01*
X129410112Y-111506301D01*
X129449754Y-111506301D01*
X129486379Y-111491130D01*
X129514410Y-111463099D01*
X129529581Y-111426474D01*
X129531533Y-111406653D01*
X129531533Y-110773233D01*
X129922291Y-111457060D01*
X129925257Y-111461238D01*
X129926028Y-111463099D01*
X129927923Y-111464994D01*
X129933820Y-111473301D01*
X129944504Y-111481575D01*
X129954059Y-111491130D01*
X129960042Y-111493608D01*
X129965163Y-111497574D01*
X129978197Y-111501128D01*
X129990684Y-111506301D01*
X129997163Y-111506301D01*
X130003408Y-111508004D01*
X130016805Y-111506301D01*
X130030326Y-111506301D01*
X130036311Y-111503821D01*
X130042735Y-111503005D01*
X130054465Y-111496301D01*
X130066951Y-111491130D01*
X130071530Y-111486550D01*
X130077154Y-111483337D01*
X130085426Y-111472654D01*
X130094982Y-111463099D01*
X130097461Y-111457113D01*
X130101426Y-111451994D01*
X130104979Y-111438962D01*
X130110153Y-111426474D01*
X130111151Y-111416330D01*
X130111856Y-111413749D01*
X130111602Y-111411755D01*
X130112105Y-111406653D01*
X130112105Y-111386832D01*
X130297904Y-111386832D01*
X130297904Y-111426474D01*
X130313075Y-111463099D01*
X130341106Y-111491130D01*
X130377731Y-111506301D01*
X130397552Y-111508253D01*
X131026505Y-111508253D01*
X131046326Y-111506301D01*
X131082951Y-111491130D01*
X131110982Y-111463099D01*
X131126153Y-111426474D01*
X131126153Y-111386832D01*
X131110982Y-111350207D01*
X131082951Y-111322176D01*
X131046326Y-111307005D01*
X131026505Y-111305053D01*
X130642836Y-111305053D01*
X131049966Y-110897924D01*
X131062601Y-110882528D01*
X131063998Y-110879154D01*
X131066390Y-110876397D01*
X131074510Y-110858211D01*
X131122891Y-110713068D01*
X131125125Y-110703240D01*
X131126153Y-110700760D01*
X131126507Y-110697165D01*
X131127307Y-110693647D01*
X131127116Y-110690972D01*
X131128105Y-110680939D01*
X131128105Y-110584177D01*
X131126153Y-110564356D01*
X131124755Y-110560982D01*
X131124497Y-110557341D01*
X131117379Y-110538740D01*
X131068998Y-110441978D01*
X131063626Y-110433445D01*
X131062601Y-110430969D01*
X131060312Y-110428180D01*
X131058388Y-110425123D01*
X131056359Y-110423364D01*
X131049966Y-110415573D01*
X131001585Y-110367192D01*
X130993793Y-110360798D01*
X130992035Y-110358770D01*
X130988977Y-110356845D01*
X130986189Y-110354557D01*
X130983712Y-110353531D01*
X130975180Y-110348160D01*
X130878418Y-110299779D01*
X130859816Y-110292661D01*
X130856175Y-110292402D01*
X130852802Y-110291005D01*
X130832981Y-110289053D01*
X130591076Y-110289053D01*
X130571255Y-110291005D01*
X130567881Y-110292402D01*
X130564240Y-110292661D01*
X130545639Y-110299779D01*
X130448877Y-110348160D01*
X130440344Y-110353531D01*
X130437868Y-110354557D01*
X130435079Y-110356845D01*
X130432022Y-110358770D01*
X130430263Y-110360798D01*
X130422472Y-110367192D01*
X130374091Y-110415573D01*
X130361456Y-110430969D01*
X130346285Y-110467594D01*
X130346285Y-110507236D01*
X130361456Y-110543861D01*
X130389487Y-110571892D01*
X130426112Y-110587063D01*
X130465754Y-110587063D01*
X130502379Y-110571892D01*
X130517775Y-110559257D01*
X130554497Y-110522535D01*
X130615061Y-110492253D01*
X130808996Y-110492253D01*
X130869560Y-110522535D01*
X130894623Y-110547598D01*
X130924905Y-110608162D01*
X130924905Y-110664452D01*
X130889322Y-110771199D01*
X130325710Y-111334811D01*
X130313075Y-111350207D01*
X130297904Y-111386832D01*
X130112105Y-111386832D01*
X130112105Y-110390653D01*
X130110153Y-110370832D01*
X130094982Y-110334207D01*
X130066951Y-110306176D01*
X130030326Y-110291005D01*
X129990684Y-110291005D01*
X129954059Y-110306176D01*
X129926028Y-110334207D01*
X129910857Y-110370832D01*
X129908905Y-110390653D01*
X129908905Y-111024072D01*
X129518146Y-110340245D01*
X129515180Y-110336067D01*
X129514410Y-110334207D01*
X129512515Y-110332312D01*
X129506618Y-110324004D01*
X129495932Y-110315729D01*
X129486379Y-110306176D01*
X129480394Y-110303696D01*
X129475274Y-110299732D01*
X129462240Y-110296177D01*
X129449754Y-110291005D01*
X129443277Y-110291005D01*
X129437029Y-110289301D01*
X129423624Y-110291005D01*
X129410112Y-110291005D01*
X129404129Y-110293483D01*
X129397703Y-110294300D01*
X129385965Y-110301006D01*
X129373487Y-110306176D01*
X129368909Y-110310753D01*
X129363284Y-110313968D01*
X129355009Y-110324653D01*
X129345456Y-110334207D01*
X129342976Y-110340191D01*
X129339012Y-110345312D01*
X129335457Y-110358345D01*
X129330285Y-110370832D01*
X129329286Y-110380969D01*
X129328581Y-110383557D01*
X129328835Y-110385555D01*
X129328333Y-110390653D01*
X128859696Y-110390653D01*
X128848986Y-110358524D01*
X128840866Y-110340338D01*
X128836109Y-110334853D01*
X128832863Y-110328361D01*
X128823238Y-110320014D01*
X128814892Y-110310390D01*
X128808399Y-110307143D01*
X128802915Y-110302387D01*
X128790829Y-110298358D01*
X128779435Y-110292661D01*
X128772194Y-110292146D01*
X128765308Y-110289851D01*
X128752600Y-110290754D01*
X128739892Y-110289851D01*
X128733005Y-110292146D01*
X128725765Y-110292661D01*
X128714370Y-110298358D01*
X128702285Y-110302387D01*
X128696800Y-110307143D01*
X128690308Y-110310390D01*
X128681961Y-110320014D01*
X128672337Y-110328361D01*
X128669090Y-110334853D01*
X128664334Y-110340338D01*
X128656214Y-110358524D01*
X128317547Y-111374524D01*
X128313131Y-111393945D01*
X128183279Y-111393945D01*
X128195490Y-111381734D01*
X128208125Y-111366338D01*
X128223296Y-111329713D01*
X128223296Y-111290071D01*
X128208125Y-111253446D01*
X128180094Y-111225415D01*
X128143469Y-111210244D01*
X128103827Y-111210244D01*
X128067202Y-111225415D01*
X128051806Y-111238050D01*
X128020384Y-111269471D01*
X127913638Y-111305053D01*
X127849848Y-111305053D01*
X127743101Y-111269471D01*
X127674958Y-111201328D01*
X127638936Y-111129285D01*
X127596295Y-110958719D01*
X127596295Y-110838588D01*
X127638936Y-110668022D01*
X127674958Y-110595979D01*
X127743101Y-110527835D01*
X127849849Y-110492253D01*
X127913637Y-110492253D01*
X128020384Y-110527835D01*
X128051806Y-110559257D01*
X128067202Y-110571892D01*
X128103827Y-110587063D01*
X128143469Y-110587063D01*
X128180094Y-110571892D01*
X128208125Y-110543861D01*
X128223296Y-110507236D01*
X128223296Y-110467594D01*
X128208125Y-110430969D01*
X128195490Y-110415573D01*
X128147109Y-110367192D01*
X128131713Y-110354557D01*
X128128339Y-110353159D01*
X128125582Y-110350768D01*
X128107396Y-110342648D01*
X127962253Y-110294267D01*
X127952425Y-110292032D01*
X127949945Y-110291005D01*
X127946350Y-110290650D01*
X127942832Y-110289851D01*
X127940157Y-110290041D01*
X127930124Y-110289053D01*
X127833362Y-110289053D01*
X127823328Y-110290041D01*
X127820654Y-110289851D01*
X127817135Y-110290650D01*
X127813541Y-110291005D01*
X127811060Y-110292032D01*
X127801233Y-110294267D01*
X127656090Y-110342648D01*
X127637904Y-110350768D01*
X127635146Y-110353159D01*
X127631773Y-110354557D01*
X127616377Y-110367192D01*
X127519615Y-110463954D01*
X127513221Y-110471745D01*
X127511193Y-110473504D01*
X127509268Y-110476561D01*
X127506980Y-110479350D01*
X127505954Y-110481826D01*
X127500583Y-110490359D01*
X127452202Y-110587121D01*
X127451646Y-110588573D01*
X127451211Y-110589161D01*
X127448246Y-110597458D01*
X127445084Y-110605723D01*
X127445031Y-110606455D01*
X127444510Y-110607916D01*
X127396129Y-110801440D01*
X127395620Y-110804875D01*
X127395047Y-110806261D01*
X127394311Y-110813728D01*
X127393215Y-110821143D01*
X127393435Y-110822624D01*
X127393095Y-110826082D01*
X127280206Y-110826082D01*
X127280206Y-110176164D01*
X131240994Y-110176164D01*
X131240994Y-111621142D01*
G37*
D13*
X91394095Y-113046932D02*
X90910286Y-113385599D01*
X91394095Y-113627504D02*
X90378095Y-113627504D01*
X90378095Y-113627504D02*
X90378095Y-113240456D01*
X90378095Y-113240456D02*
X90426476Y-113143694D01*
X90426476Y-113143694D02*
X90474857Y-113095313D01*
X90474857Y-113095313D02*
X90571619Y-113046932D01*
X90571619Y-113046932D02*
X90716762Y-113046932D01*
X90716762Y-113046932D02*
X90813524Y-113095313D01*
X90813524Y-113095313D02*
X90861905Y-113143694D01*
X90861905Y-113143694D02*
X90910286Y-113240456D01*
X90910286Y-113240456D02*
X90910286Y-113627504D01*
X90474857Y-112659885D02*
X90426476Y-112611504D01*
X90426476Y-112611504D02*
X90378095Y-112514742D01*
X90378095Y-112514742D02*
X90378095Y-112272837D01*
X90378095Y-112272837D02*
X90426476Y-112176075D01*
X90426476Y-112176075D02*
X90474857Y-112127694D01*
X90474857Y-112127694D02*
X90571619Y-112079313D01*
X90571619Y-112079313D02*
X90668381Y-112079313D01*
X90668381Y-112079313D02*
X90813524Y-112127694D01*
X90813524Y-112127694D02*
X91394095Y-112708266D01*
X91394095Y-112708266D02*
X91394095Y-112079313D01*
X92189904Y-96859595D02*
X92189904Y-97682072D01*
X92189904Y-97682072D02*
X92238285Y-97778834D01*
X92238285Y-97778834D02*
X92286666Y-97827215D01*
X92286666Y-97827215D02*
X92383428Y-97875595D01*
X92383428Y-97875595D02*
X92576952Y-97875595D01*
X92576952Y-97875595D02*
X92673714Y-97827215D01*
X92673714Y-97827215D02*
X92722095Y-97778834D01*
X92722095Y-97778834D02*
X92770476Y-97682072D01*
X92770476Y-97682072D02*
X92770476Y-96859595D01*
X93786476Y-97875595D02*
X93205904Y-97875595D01*
X93496190Y-97875595D02*
X93496190Y-96859595D01*
X93496190Y-96859595D02*
X93399428Y-97004738D01*
X93399428Y-97004738D02*
X93302666Y-97101500D01*
X93302666Y-97101500D02*
X93205904Y-97149881D01*
X99627267Y-97494934D02*
X99578886Y-97543315D01*
X99578886Y-97543315D02*
X99433743Y-97591695D01*
X99433743Y-97591695D02*
X99336981Y-97591695D01*
X99336981Y-97591695D02*
X99191838Y-97543315D01*
X99191838Y-97543315D02*
X99095076Y-97446553D01*
X99095076Y-97446553D02*
X99046695Y-97349791D01*
X99046695Y-97349791D02*
X98998314Y-97156267D01*
X98998314Y-97156267D02*
X98998314Y-97011124D01*
X98998314Y-97011124D02*
X99046695Y-96817600D01*
X99046695Y-96817600D02*
X99095076Y-96720838D01*
X99095076Y-96720838D02*
X99191838Y-96624076D01*
X99191838Y-96624076D02*
X99336981Y-96575695D01*
X99336981Y-96575695D02*
X99433743Y-96575695D01*
X99433743Y-96575695D02*
X99578886Y-96624076D01*
X99578886Y-96624076D02*
X99627267Y-96672457D01*
X100594886Y-97591695D02*
X100014314Y-97591695D01*
X100304600Y-97591695D02*
X100304600Y-96575695D01*
X100304600Y-96575695D02*
X100207838Y-96720838D01*
X100207838Y-96720838D02*
X100111076Y-96817600D01*
X100111076Y-96817600D02*
X100014314Y-96865981D01*
D15*
%TO.C,U3*%
X108545500Y-104394000D02*
X108545500Y-102444000D01*
X108545500Y-104394000D02*
X108545500Y-106344000D01*
X117415500Y-104394000D02*
X117415500Y-102444000D01*
X117415500Y-104394000D02*
X117415500Y-106344000D01*
D16*
X108547114Y-103656653D02*
G75*
G02*
X108546704Y-105131348I-1614J-737347D01*
G01*
D15*
X108610500Y-107094000D02*
X108154500Y-107442000D01*
X108154500Y-106680000D01*
X108610500Y-107094000D01*
G36*
X108610500Y-107094000D02*
G01*
X108154500Y-107442000D01*
X108154500Y-106680000D01*
X108610500Y-107094000D01*
G37*
%TO.C,U4*%
X117694400Y-100690600D02*
X117694400Y-104690600D01*
X117694400Y-104690600D02*
X122894400Y-104690600D01*
X120294400Y-100690600D02*
X117694400Y-100690600D01*
X122894400Y-104690600D02*
X122894400Y-102490600D01*
X121394400Y-100690600D02*
X122994400Y-100690600D01*
X122994400Y-100490600D01*
X121394400Y-100490600D01*
X121394400Y-100690600D01*
G36*
X121394400Y-100690600D02*
G01*
X122994400Y-100690600D01*
X122994400Y-100490600D01*
X121394400Y-100490600D01*
X121394400Y-100690600D01*
G37*
X122894400Y-104690600D02*
X121494400Y-104690600D01*
X122894400Y-104690600D01*
X123094400Y-101690600D02*
X122894400Y-101690600D01*
X122894400Y-100490600D01*
X123094400Y-100490600D01*
X123094400Y-101690600D01*
G36*
X123094400Y-101690600D02*
G01*
X122894400Y-101690600D01*
X122894400Y-100490600D01*
X123094400Y-100490600D01*
X123094400Y-101690600D01*
G37*
%TO.C,TP1*%
X112434600Y-109702600D02*
G75*
G02*
X111034600Y-109702600I-700000J0D01*
G01*
X111034600Y-109702600D02*
G75*
G02*
X112434600Y-109702600I700000J0D01*
G01*
%TO.C,U5*%
X125354400Y-104419400D02*
X125354400Y-102469400D01*
X125354400Y-104419400D02*
X125354400Y-106369400D01*
X130474400Y-104419400D02*
X130474400Y-102469400D01*
X130474400Y-104419400D02*
X130474400Y-106369400D01*
D16*
X130454400Y-105181400D02*
G75*
G02*
X130454400Y-103657400I19999J762000D01*
G01*
D15*
X130962400Y-102133400D02*
X130379400Y-101719400D01*
X130962400Y-101371400D01*
X130962400Y-102133400D01*
G36*
X130962400Y-102133400D02*
G01*
X130379400Y-101719400D01*
X130962400Y-101371400D01*
X130962400Y-102133400D01*
G37*
%TO.C,R3*%
X92229000Y-110008936D02*
X92229000Y-110463064D01*
X93699000Y-110008936D02*
X93699000Y-110463064D01*
%TO.C,J1*%
X104466000Y-111903000D02*
X104466000Y-119903000D01*
X113466000Y-111903000D02*
X104466000Y-111903000D01*
X113466000Y-119903000D02*
X113466000Y-111903000D01*
X110236000Y-111887000D02*
X109474000Y-111125000D01*
X110998000Y-111125000D01*
X110236000Y-111887000D01*
G36*
X110236000Y-111887000D02*
G01*
X109474000Y-111125000D01*
X110998000Y-111125000D01*
X110236000Y-111887000D01*
G37*
%TO.C,U6*%
X131836000Y-104394000D02*
X131836000Y-102444000D01*
X131836000Y-104394000D02*
X131836000Y-106344000D01*
X140706000Y-104394000D02*
X140706000Y-102444000D01*
X140706000Y-104394000D02*
X140706000Y-106344000D01*
D16*
X131839117Y-103625769D02*
G75*
G02*
X131831607Y-105162225I-3117J-768231D01*
G01*
D15*
X131901000Y-107094000D02*
X131445000Y-107442000D01*
X131445000Y-106680000D01*
X131901000Y-107094000D01*
G36*
X131901000Y-107094000D02*
G01*
X131445000Y-107442000D01*
X131445000Y-106680000D01*
X131901000Y-107094000D01*
G37*
%TO.C,R5*%
X96293000Y-110008936D02*
X96293000Y-110463064D01*
X97763000Y-110008936D02*
X97763000Y-110463064D01*
%TO.C,TP2*%
X135701000Y-109677200D02*
G75*
G02*
X134301000Y-109677200I-700000J0D01*
G01*
X134301000Y-109677200D02*
G75*
G02*
X135701000Y-109677200I700000J0D01*
G01*
%TO.C,R1*%
X88165000Y-110008936D02*
X88165000Y-110463064D01*
X89635000Y-110008936D02*
X89635000Y-110463064D01*
%TO.C,C2*%
X123217000Y-103918652D02*
X123217000Y-103396148D01*
X124687000Y-103918652D02*
X124687000Y-103396148D01*
%TO.C,J4*%
X137460600Y-111903000D02*
X137460600Y-119903000D01*
X146460600Y-111903000D02*
X137460600Y-111903000D01*
X146460600Y-119903000D02*
X146460600Y-111903000D01*
X143230600Y-111887000D02*
X142468600Y-111125000D01*
X143992600Y-111125000D01*
X143230600Y-111887000D01*
G36*
X143230600Y-111887000D02*
G01*
X142468600Y-111125000D01*
X143992600Y-111125000D01*
X143230600Y-111887000D01*
G37*
%TO.C,U2*%
X102062600Y-104444800D02*
X102062600Y-102494800D01*
X102062600Y-104444800D02*
X102062600Y-106394800D01*
X107182600Y-104444800D02*
X107182600Y-102494800D01*
X107182600Y-104444800D02*
X107182600Y-106394800D01*
D16*
X107182600Y-105207062D02*
G75*
G02*
X107162600Y-103682800I2J762262D01*
G01*
D15*
X107670600Y-102158800D02*
X107087600Y-101744800D01*
X107670600Y-101396800D01*
X107670600Y-102158800D01*
G36*
X107670600Y-102158800D02*
G01*
X107087600Y-101744800D01*
X107670600Y-101396800D01*
X107670600Y-102158800D01*
G37*
%TO.C,R4*%
X94261000Y-110008936D02*
X94261000Y-110463064D01*
X95731000Y-110008936D02*
X95731000Y-110463064D01*
%TO.C,R6*%
X118289400Y-106351336D02*
X118289400Y-106805464D01*
X119759400Y-106351336D02*
X119759400Y-106805464D01*
%TO.C,J2*%
X114626000Y-111903000D02*
X114626000Y-119903000D01*
X123626000Y-111903000D02*
X114626000Y-111903000D01*
X123626000Y-119903000D02*
X123626000Y-111903000D01*
X120396000Y-111887000D02*
X119634000Y-111125000D01*
X121158000Y-111125000D01*
X120396000Y-111887000D01*
G36*
X120396000Y-111887000D02*
G01*
X119634000Y-111125000D01*
X121158000Y-111125000D01*
X120396000Y-111887000D01*
G37*
%TO.C,R7*%
X120323106Y-106350526D02*
X120323106Y-106804654D01*
X121793106Y-106350526D02*
X121793106Y-106804654D01*
%TO.C,J3*%
X127326000Y-111903000D02*
X127326000Y-119903000D01*
X136326000Y-111903000D02*
X127326000Y-111903000D01*
X136326000Y-119903000D02*
X136326000Y-111903000D01*
X133096000Y-111887000D02*
X132334000Y-111125000D01*
X133858000Y-111125000D01*
X133096000Y-111887000D01*
G36*
X133096000Y-111887000D02*
G01*
X132334000Y-111125000D01*
X133858000Y-111125000D01*
X133096000Y-111887000D01*
G37*
%TO.C,R2*%
X90197000Y-110008936D02*
X90197000Y-110463064D01*
X91667000Y-110008936D02*
X91667000Y-110463064D01*
%TO.C,U1*%
X92964000Y-98258500D02*
X91014000Y-98258500D01*
X92964000Y-98258500D02*
X94914000Y-98258500D01*
X92964000Y-107128500D02*
X91014000Y-107128500D01*
X92964000Y-107128500D02*
X94914000Y-107128500D01*
D17*
X93726000Y-98258500D02*
G75*
G02*
X92202000Y-98258500I-762000J0D01*
G01*
D15*
X90163329Y-98193500D02*
X89662000Y-97613500D01*
X90678000Y-97613500D01*
X90163329Y-98193500D01*
G36*
X90163329Y-98193500D02*
G01*
X89662000Y-97613500D01*
X90678000Y-97613500D01*
X90163329Y-98193500D01*
G37*
%TO.C,C1*%
X100083252Y-98147200D02*
X99560748Y-98147200D01*
X100083252Y-99617200D02*
X99560748Y-99617200D01*
%TD*%
M02*
