%TF.GenerationSoftware,KiCad,Pcbnew,9.0.1-9.0.1-0~ubuntu24.04.1*%
%TF.CreationDate,2025-04-26T12:20:13-07:00*%
%TF.ProjectId,NX-IndicatorBoard,4e582d49-6e64-4696-9361-746f72426f61,1*%
%TF.SameCoordinates,Original*%
%TF.FileFunction,Paste,Top*%
%TF.FilePolarity,Positive*%
%FSLAX46Y46*%
G04 Gerber Fmt 4.6, Leading zero omitted, Abs format (unit mm)*
G04 Created by KiCad (PCBNEW 9.0.1-9.0.1-0~ubuntu24.04.1) date 2025-04-26 12:20:13*
%MOMM*%
%LPD*%
G01*
G04 APERTURE LIST*
G04 Aperture macros list*
%AMRoundRect*
0 Rectangle with rounded corners*
0 $1 Rounding radius*
0 $2 $3 $4 $5 $6 $7 $8 $9 X,Y pos of 4 corners*
0 Add a 4 corners polygon primitive as box body*
4,1,4,$2,$3,$4,$5,$6,$7,$8,$9,$2,$3,0*
0 Add four circle primitives for the rounded corners*
1,1,$1+$1,$2,$3*
1,1,$1+$1,$4,$5*
1,1,$1+$1,$6,$7*
1,1,$1+$1,$8,$9*
0 Add four rect primitives between the rounded corners*
20,1,$1+$1,$2,$3,$4,$5,0*
20,1,$1+$1,$4,$5,$6,$7,0*
20,1,$1+$1,$6,$7,$8,$9,0*
20,1,$1+$1,$8,$9,$2,$3,0*%
G04 Aperture macros list end*
%ADD10C,0.187500*%
%ADD11RoundRect,0.150000X0.150000X-0.825000X0.150000X0.825000X-0.150000X0.825000X-0.150000X-0.825000X0*%
%ADD12R,1.400000X1.200000*%
%ADD13RoundRect,0.150000X-0.150000X0.725000X-0.150000X-0.725000X0.150000X-0.725000X0.150000X0.725000X0*%
%ADD14RoundRect,0.250000X-0.450000X0.262500X-0.450000X-0.262500X0.450000X-0.262500X0.450000X0.262500X0*%
%ADD15R,1.780000X1.020000*%
%ADD16RoundRect,0.250000X0.475000X-0.250000X0.475000X0.250000X-0.475000X0.250000X-0.475000X-0.250000X0*%
%ADD17RoundRect,0.150000X-0.825000X-0.150000X0.825000X-0.150000X0.825000X0.150000X-0.825000X0.150000X0*%
%ADD18RoundRect,0.250000X-0.250000X-0.475000X0.250000X-0.475000X0.250000X0.475000X-0.250000X0.475000X0*%
G04 APERTURE END LIST*
D10*
X29377697Y-65695964D02*
X28877697Y-65695964D01*
X28877697Y-66481678D02*
X28877697Y-64981678D01*
X28877697Y-64981678D02*
X29591983Y-64981678D01*
X30163411Y-66338821D02*
X30234840Y-66410250D01*
X30234840Y-66410250D02*
X30163411Y-66481678D01*
X30163411Y-66481678D02*
X30091983Y-66410250D01*
X30091983Y-66410250D02*
X30163411Y-66338821D01*
X30163411Y-66338821D02*
X30163411Y-66481678D01*
X30877697Y-66481678D02*
X30877697Y-64981678D01*
X30877697Y-64981678D02*
X31449126Y-64981678D01*
X31449126Y-64981678D02*
X31591983Y-65053107D01*
X31591983Y-65053107D02*
X31663412Y-65124535D01*
X31663412Y-65124535D02*
X31734840Y-65267392D01*
X31734840Y-65267392D02*
X31734840Y-65481678D01*
X31734840Y-65481678D02*
X31663412Y-65624535D01*
X31663412Y-65624535D02*
X31591983Y-65695964D01*
X31591983Y-65695964D02*
X31449126Y-65767392D01*
X31449126Y-65767392D02*
X30877697Y-65767392D01*
X33020555Y-66481678D02*
X33020555Y-65695964D01*
X33020555Y-65695964D02*
X32949126Y-65553107D01*
X32949126Y-65553107D02*
X32806269Y-65481678D01*
X32806269Y-65481678D02*
X32520555Y-65481678D01*
X32520555Y-65481678D02*
X32377697Y-65553107D01*
X33020555Y-66410250D02*
X32877697Y-66481678D01*
X32877697Y-66481678D02*
X32520555Y-66481678D01*
X32520555Y-66481678D02*
X32377697Y-66410250D01*
X32377697Y-66410250D02*
X32306269Y-66267392D01*
X32306269Y-66267392D02*
X32306269Y-66124535D01*
X32306269Y-66124535D02*
X32377697Y-65981678D01*
X32377697Y-65981678D02*
X32520555Y-65910250D01*
X32520555Y-65910250D02*
X32877697Y-65910250D01*
X32877697Y-65910250D02*
X33020555Y-65838821D01*
X33663412Y-66410250D02*
X33806269Y-66481678D01*
X33806269Y-66481678D02*
X34091983Y-66481678D01*
X34091983Y-66481678D02*
X34234840Y-66410250D01*
X34234840Y-66410250D02*
X34306269Y-66267392D01*
X34306269Y-66267392D02*
X34306269Y-66195964D01*
X34306269Y-66195964D02*
X34234840Y-66053107D01*
X34234840Y-66053107D02*
X34091983Y-65981678D01*
X34091983Y-65981678D02*
X33877698Y-65981678D01*
X33877698Y-65981678D02*
X33734840Y-65910250D01*
X33734840Y-65910250D02*
X33663412Y-65767392D01*
X33663412Y-65767392D02*
X33663412Y-65695964D01*
X33663412Y-65695964D02*
X33734840Y-65553107D01*
X33734840Y-65553107D02*
X33877698Y-65481678D01*
X33877698Y-65481678D02*
X34091983Y-65481678D01*
X34091983Y-65481678D02*
X34234840Y-65553107D01*
X34734841Y-65481678D02*
X35306269Y-65481678D01*
X34949126Y-64981678D02*
X34949126Y-66267392D01*
X34949126Y-66267392D02*
X35020555Y-66410250D01*
X35020555Y-66410250D02*
X35163412Y-66481678D01*
X35163412Y-66481678D02*
X35306269Y-66481678D01*
X36377698Y-66410250D02*
X36234841Y-66481678D01*
X36234841Y-66481678D02*
X35949127Y-66481678D01*
X35949127Y-66481678D02*
X35806269Y-66410250D01*
X35806269Y-66410250D02*
X35734841Y-66267392D01*
X35734841Y-66267392D02*
X35734841Y-65695964D01*
X35734841Y-65695964D02*
X35806269Y-65553107D01*
X35806269Y-65553107D02*
X35949127Y-65481678D01*
X35949127Y-65481678D02*
X36234841Y-65481678D01*
X36234841Y-65481678D02*
X36377698Y-65553107D01*
X36377698Y-65553107D02*
X36449127Y-65695964D01*
X36449127Y-65695964D02*
X36449127Y-65838821D01*
X36449127Y-65838821D02*
X35734841Y-65981678D01*
D11*
%TO.C,U3*%
X109170500Y-106869000D03*
X110440500Y-106869000D03*
X111710500Y-106869000D03*
X112980500Y-106869000D03*
X114250500Y-106869000D03*
X115520500Y-106869000D03*
X116790500Y-106869000D03*
X116790500Y-101919000D03*
X115520500Y-101919000D03*
X114250500Y-101919000D03*
X112980500Y-101919000D03*
X111710500Y-101919000D03*
X110440500Y-101919000D03*
X109170500Y-101919000D03*
%TD*%
D12*
%TO.C,U4*%
X121564400Y-101590600D03*
X119024400Y-101590600D03*
X119024400Y-103790600D03*
X121564400Y-103790600D03*
%TD*%
D13*
%TO.C,U5*%
X129819400Y-101844400D03*
X128549400Y-101844400D03*
X127279400Y-101844400D03*
X126009400Y-101844400D03*
X126009400Y-106994400D03*
X127279400Y-106994400D03*
X128549400Y-106994400D03*
X129819400Y-106994400D03*
%TD*%
D14*
%TO.C,R3*%
X92964000Y-109323500D03*
X92964000Y-111148500D03*
%TD*%
D15*
%TO.C,J5*%
X160910000Y-104130000D03*
X155090000Y-104130000D03*
X160910000Y-101590000D03*
X155090000Y-101590000D03*
X160910000Y-99050000D03*
X155090000Y-99050000D03*
X160910000Y-96510000D03*
X155090000Y-96510000D03*
X160910000Y-93970000D03*
X155090000Y-93970000D03*
X160910000Y-91430000D03*
X155090000Y-91430000D03*
X160910000Y-88890000D03*
X155090000Y-88890000D03*
X160910000Y-86350000D03*
X155090000Y-86350000D03*
X160910000Y-83810000D03*
X155090000Y-83810000D03*
X160910000Y-81270000D03*
X155090000Y-81270000D03*
X160910000Y-78730000D03*
X155090000Y-78730000D03*
X160910000Y-76190000D03*
X155090000Y-76190000D03*
X160910000Y-73650000D03*
X155090000Y-73650000D03*
X160910000Y-71110000D03*
X155090000Y-71110000D03*
X160910000Y-68570000D03*
X155090000Y-68570000D03*
X160910000Y-66030000D03*
X155090000Y-66030000D03*
X160910000Y-63490000D03*
X155090000Y-63490000D03*
X160910000Y-60950000D03*
X155090000Y-60950000D03*
X160910000Y-58410000D03*
X155090000Y-58410000D03*
X160910000Y-55870000D03*
X155090000Y-55870000D03*
%TD*%
D11*
%TO.C,U6*%
X132461000Y-106869000D03*
X133731000Y-106869000D03*
X135001000Y-106869000D03*
X136271000Y-106869000D03*
X137541000Y-106869000D03*
X138811000Y-106869000D03*
X140081000Y-106869000D03*
X140081000Y-101919000D03*
X138811000Y-101919000D03*
X137541000Y-101919000D03*
X136271000Y-101919000D03*
X135001000Y-101919000D03*
X133731000Y-101919000D03*
X132461000Y-101919000D03*
%TD*%
D14*
%TO.C,R5*%
X97028000Y-109323500D03*
X97028000Y-111148500D03*
%TD*%
%TO.C,R1*%
X88900000Y-109323500D03*
X88900000Y-111148500D03*
%TD*%
D16*
%TO.C,C2*%
X123952000Y-104607400D03*
X123952000Y-102707400D03*
%TD*%
D13*
%TO.C,U2*%
X106527600Y-101869800D03*
X105257600Y-101869800D03*
X103987600Y-101869800D03*
X102717600Y-101869800D03*
X102717600Y-107019800D03*
X103987600Y-107019800D03*
X105257600Y-107019800D03*
X106527600Y-107019800D03*
%TD*%
D14*
%TO.C,R4*%
X94996000Y-109323500D03*
X94996000Y-111148500D03*
%TD*%
%TO.C,R6*%
X119024400Y-105665900D03*
X119024400Y-107490900D03*
%TD*%
%TO.C,R7*%
X121058106Y-105665090D03*
X121058106Y-107490090D03*
%TD*%
%TO.C,R2*%
X90932000Y-109323500D03*
X90932000Y-111148500D03*
%TD*%
D17*
%TO.C,U1*%
X90489000Y-98883500D03*
X90489000Y-100153500D03*
X90489000Y-101423500D03*
X90489000Y-102693500D03*
X90489000Y-103963500D03*
X90489000Y-105233500D03*
X90489000Y-106503500D03*
X95439000Y-106503500D03*
X95439000Y-105233500D03*
X95439000Y-103963500D03*
X95439000Y-102693500D03*
X95439000Y-101423500D03*
X95439000Y-100153500D03*
X95439000Y-98883500D03*
%TD*%
D18*
%TO.C,C1*%
X98872000Y-98882200D03*
X100772000Y-98882200D03*
%TD*%
M02*
