M48
; DRILL file {KiCad 9.0.1-9.0.1-0~ubuntu24.04.1} date 2025-04-26T12:20:14-0700
; FORMAT={-:-/ absolute / metric / decimal}
; #@! TF.CreationDate,2025-04-26T12:20:14-07:00
; #@! TF.GenerationSoftware,Kicad,Pcbnew,9.0.1-9.0.1-0~ubuntu24.04.1
; #@! TF.FileFunction,MixedPlating,1,4
FMAT,2
METRIC
; #@! TA.AperFunction,Plated,PTH,ViaDrill
T1C0.508
; #@! TA.AperFunction,Plated,PTH,ComponentDrill
T2C0.508
; #@! TA.AperFunction,Plated,PTH,ComponentDrill
T3C1.020
; #@! TA.AperFunction,Plated,PTH,ComponentDrill
T4C1.067
; #@! TA.AperFunction,Plated,PTH,ComponentDrill
T5C2.700
; #@! TA.AperFunction,NonPlated,NPTH,ComponentDrill
T6C1.500
; #@! TA.AperFunction,NonPlated,NPTH,ComponentDrill
T7C1.800
; #@! TA.AperFunction,NonPlated,NPTH,ComponentDrill
T8C3.400
%
G90
G05
T1
X75.921Y-123.165
X81.407Y-114.986
X81.483Y-123.19
X83.617Y-120.675
X87.452Y-123.19
X87.478Y-115.57
X88.722Y-106.502
X89.332Y-113.03
X89.764Y-120.675
X93.472Y-115.57
X93.472Y-123.215
X97.18Y-98.857
X102.006Y-98.882
X102.438Y-105.385
X103.988Y-100.254
X104.648Y-95.682
X106.553Y-108.61
X106.807Y-103.53
X107.925Y-95.733
X108.102Y-101.422
X112.395Y-92.929
X112.852Y-104.419
X115.291Y-104.419
X115.9Y-99.974
X116.789Y-105.181
X117.551Y-108.306
X117.754Y-100.0
X119.449Y-100.148
X121.59Y-100.254
X121.691Y-95.25
X122.707Y-105.639
X123.952Y-101.524
X126.009Y-108.61
X127.254Y-100.305
X129.845Y-108.585
X130.277Y-103.48
X131.407Y-101.486
X133.926Y-99.184
X135.736Y-99.24
X136.122Y-104.414
X136.246Y-94.717
X137.463Y-99.49
X138.049Y-103.886
X138.125Y-95.25
X140.056Y-105.181
X140.079Y-95.272
X141.249Y-100.457
X142.354Y-95.11
X143.408Y-108.102
X144.196Y-92.05
X144.604Y-95.637
X145.239Y-93.978
X147.633Y-100.555
X148.198Y-96.001
X149.301Y-101.041
X149.454Y-102.794
X149.504Y-99.822
X151.917Y-97.231
X151.943Y-98.958
X152.629Y-101.016
X152.959Y-102.946
X154.407Y-106.627
T2
X111.735Y-109.703
X135.001Y-109.677
T3
X156.73Y-55.87
X156.73Y-58.41
X156.73Y-60.95
X156.73Y-63.49
X156.73Y-66.03
X156.73Y-68.57
X156.73Y-71.11
X156.73Y-73.65
X156.73Y-76.19
X156.73Y-78.73
X156.73Y-81.27
X156.73Y-83.81
X156.73Y-86.35
X156.73Y-88.89
X156.73Y-91.43
X156.73Y-93.97
X156.73Y-96.51
X156.73Y-99.05
X156.73Y-101.59
X156.73Y-104.13
X159.27Y-55.87
X159.27Y-58.41
X159.27Y-60.95
X159.27Y-63.49
X159.27Y-66.03
X159.27Y-68.57
X159.27Y-71.11
X159.27Y-73.65
X159.27Y-76.19
X159.27Y-78.73
X159.27Y-81.27
X159.27Y-83.81
X159.27Y-86.35
X159.27Y-88.89
X159.27Y-91.43
X159.27Y-93.97
X159.27Y-96.51
X159.27Y-99.05
X159.27Y-101.59
X159.27Y-104.13
T4
X107.696Y-112.903
X110.236Y-112.903
X117.856Y-112.903
X120.396Y-112.903
X130.556Y-112.903
X133.096Y-112.903
X140.691Y-112.903
X143.231Y-112.903
T5
X66.0Y-109.0
X158.0Y-51.0
X158.0Y-109.0
T6
X81.046Y-118.1
X81.046Y-120.64
X87.046Y-118.1
X87.046Y-120.64
X93.046Y-118.1
X93.046Y-120.64
T7
X158.0Y-57.14
X158.0Y-102.86
T8
X106.296Y-121.543
X111.636Y-121.543
X116.456Y-121.543
X121.796Y-121.543
X129.156Y-121.543
X134.496Y-121.543
X139.291Y-121.543
X144.631Y-121.543
M30
