%TF.GenerationSoftware,KiCad,Pcbnew,9.0.1-9.0.1-0~ubuntu24.04.1*%
%TF.CreationDate,2025-04-26T12:20:12-07:00*%
%TF.ProjectId,NX-IndicatorBoard,4e582d49-6e64-4696-9361-746f72426f61,1*%
%TF.SameCoordinates,Original*%
%TF.FileFunction,Copper,L3,Inr*%
%TF.FilePolarity,Positive*%
%FSLAX46Y46*%
G04 Gerber Fmt 4.6, Leading zero omitted, Abs format (unit mm)*
G04 Created by KiCad (PCBNEW 9.0.1-9.0.1-0~ubuntu24.04.1) date 2025-04-26 12:20:12*
%MOMM*%
%LPD*%
G01*
G04 APERTURE LIST*
%ADD10C,0.300000*%
%TA.AperFunction,NonConductor*%
%ADD11C,0.300000*%
%TD*%
%ADD12C,0.187500*%
%TA.AperFunction,NonConductor*%
%ADD13C,0.187500*%
%TD*%
%TA.AperFunction,ComponentPad*%
%ADD14C,1.000000*%
%TD*%
%TA.AperFunction,ComponentPad*%
%ADD15C,1.500000*%
%TD*%
%TA.AperFunction,ComponentPad*%
%ADD16C,1.700000*%
%TD*%
%TA.AperFunction,ComponentPad*%
%ADD17R,1.778000X1.778000*%
%TD*%
%TA.AperFunction,ComponentPad*%
%ADD18C,1.778000*%
%TD*%
%TA.AperFunction,ViaPad*%
%ADD19C,0.889000*%
%TD*%
G04 APERTURE END LIST*
D10*
D11*
X68555065Y-123624428D02*
X67626493Y-123624428D01*
X67626493Y-123624428D02*
X68126493Y-124195857D01*
X68126493Y-124195857D02*
X67912208Y-124195857D01*
X67912208Y-124195857D02*
X67769351Y-124267285D01*
X67769351Y-124267285D02*
X67697922Y-124338714D01*
X67697922Y-124338714D02*
X67626493Y-124481571D01*
X67626493Y-124481571D02*
X67626493Y-124838714D01*
X67626493Y-124838714D02*
X67697922Y-124981571D01*
X67697922Y-124981571D02*
X67769351Y-125053000D01*
X67769351Y-125053000D02*
X67912208Y-125124428D01*
X67912208Y-125124428D02*
X68340779Y-125124428D01*
X68340779Y-125124428D02*
X68483636Y-125053000D01*
X68483636Y-125053000D02*
X68555065Y-124981571D01*
D12*
D13*
X28877697Y-61401678D02*
X28877697Y-59901678D01*
X29591983Y-60401678D02*
X29591983Y-61401678D01*
X29591983Y-60544535D02*
X29663412Y-60473107D01*
X29663412Y-60473107D02*
X29806269Y-60401678D01*
X29806269Y-60401678D02*
X30020555Y-60401678D01*
X30020555Y-60401678D02*
X30163412Y-60473107D01*
X30163412Y-60473107D02*
X30234841Y-60615964D01*
X30234841Y-60615964D02*
X30234841Y-61401678D01*
X30877698Y-60044535D02*
X30949126Y-59973107D01*
X30949126Y-59973107D02*
X31091984Y-59901678D01*
X31091984Y-59901678D02*
X31449126Y-59901678D01*
X31449126Y-59901678D02*
X31591984Y-59973107D01*
X31591984Y-59973107D02*
X31663412Y-60044535D01*
X31663412Y-60044535D02*
X31734841Y-60187392D01*
X31734841Y-60187392D02*
X31734841Y-60330250D01*
X31734841Y-60330250D02*
X31663412Y-60544535D01*
X31663412Y-60544535D02*
X30806269Y-61401678D01*
X30806269Y-61401678D02*
X31734841Y-61401678D01*
X32377697Y-61258821D02*
X32449126Y-61330250D01*
X32449126Y-61330250D02*
X32377697Y-61401678D01*
X32377697Y-61401678D02*
X32306269Y-61330250D01*
X32306269Y-61330250D02*
X32377697Y-61258821D01*
X32377697Y-61258821D02*
X32377697Y-61401678D01*
X33949126Y-61258821D02*
X33877698Y-61330250D01*
X33877698Y-61330250D02*
X33663412Y-61401678D01*
X33663412Y-61401678D02*
X33520555Y-61401678D01*
X33520555Y-61401678D02*
X33306269Y-61330250D01*
X33306269Y-61330250D02*
X33163412Y-61187392D01*
X33163412Y-61187392D02*
X33091983Y-61044535D01*
X33091983Y-61044535D02*
X33020555Y-60758821D01*
X33020555Y-60758821D02*
X33020555Y-60544535D01*
X33020555Y-60544535D02*
X33091983Y-60258821D01*
X33091983Y-60258821D02*
X33163412Y-60115964D01*
X33163412Y-60115964D02*
X33306269Y-59973107D01*
X33306269Y-59973107D02*
X33520555Y-59901678D01*
X33520555Y-59901678D02*
X33663412Y-59901678D01*
X33663412Y-59901678D02*
X33877698Y-59973107D01*
X33877698Y-59973107D02*
X33949126Y-60044535D01*
X35234841Y-60401678D02*
X35234841Y-61401678D01*
X34591983Y-60401678D02*
X34591983Y-61187392D01*
X34591983Y-61187392D02*
X34663412Y-61330250D01*
X34663412Y-61330250D02*
X34806269Y-61401678D01*
X34806269Y-61401678D02*
X35020555Y-61401678D01*
X35020555Y-61401678D02*
X35163412Y-61330250D01*
X35163412Y-61330250D02*
X35234841Y-61258821D01*
D14*
%TO.N,Net-(U3-CLKO{slash}SOF)*%
%TO.C,TP1*%
X111734600Y-109702600D03*
%TD*%
D15*
%TO.N,+3V3*%
%TO.C,J5*%
X159270000Y-104130000D03*
%TO.N,+5V*%
X156730000Y-104130000D03*
%TO.N,/I2C1_SDA*%
X159270000Y-101590000D03*
%TO.N,+5V*%
X156730000Y-101590000D03*
D16*
%TO.N,/I2C1_SCL*%
X159270000Y-99050000D03*
%TO.N,GND*%
X156730000Y-99050000D03*
%TO.N,/GPIO09*%
X159270000Y-96510000D03*
%TO.N,/UART1_TXD*%
X156730000Y-96510000D03*
%TO.N,GND*%
X159270000Y-93970000D03*
%TO.N,/UART1_RXD*%
X156730000Y-93970000D03*
%TO.N,/UART1_RTS*%
X159270000Y-91430000D03*
%TO.N,/I2S0_SCLK*%
X156730000Y-91430000D03*
%TO.N,/SPI1_SCK*%
X159270000Y-88890000D03*
%TO.N,GND*%
X156730000Y-88890000D03*
%TO.N,/GPIO12*%
X159270000Y-86350000D03*
%TO.N,/SPI1_CS1*%
X156730000Y-86350000D03*
%TO.N,+3V3*%
X159270000Y-83810000D03*
%TO.N,/SPI1_CS0*%
X156730000Y-83810000D03*
%TO.N,/SPI0_MOSI*%
X159270000Y-81270000D03*
%TO.N,GND*%
X156730000Y-81270000D03*
%TO.N,/SPI0_MISO*%
X159270000Y-78730000D03*
%TO.N,/SPI1_MISO*%
X156730000Y-78730000D03*
%TO.N,/SPI0_SCK*%
X159270000Y-76190000D03*
%TO.N,/SPI0_CS0*%
X156730000Y-76190000D03*
%TO.N,GND*%
X159270000Y-73650000D03*
%TO.N,/SPI0_CS1*%
X156730000Y-73650000D03*
%TO.N,/I2C0_SDA*%
X159270000Y-71110000D03*
%TO.N,/I2C0_SCL*%
X156730000Y-71110000D03*
%TO.N,/GPIO01*%
X159270000Y-68570000D03*
%TO.N,GND*%
X156730000Y-68570000D03*
%TO.N,/GPIO11*%
X159270000Y-66030000D03*
%TO.N,/GPIO07*%
X156730000Y-66030000D03*
%TO.N,/GPIO13*%
X159270000Y-63490000D03*
%TO.N,GND*%
X156730000Y-63490000D03*
%TO.N,/I2S0_FS*%
X159270000Y-60950000D03*
%TO.N,/UART1_CTS*%
X156730000Y-60950000D03*
D15*
%TO.N,/SPI1_MOSI*%
X159270000Y-58410000D03*
%TO.N,/I2S0_DIN*%
X156730000Y-58410000D03*
%TO.N,GND*%
X159270000Y-55870000D03*
%TO.N,/I2S0_DOUT*%
X156730000Y-55870000D03*
%TD*%
D17*
%TO.N,/CAN1_L*%
%TO.C,J1*%
X110236000Y-112903000D03*
D18*
%TO.N,/CAN1_H*%
X107696000Y-112903000D03*
%TD*%
D14*
%TO.N,Net-(U6-CLKO{slash}SOF)*%
%TO.C,TP2*%
X135001000Y-109677200D03*
%TD*%
D17*
%TO.N,/CAN2_L*%
%TO.C,J4*%
X143230600Y-112903000D03*
D18*
%TO.N,/CAN2_H*%
X140690600Y-112903000D03*
%TD*%
D17*
%TO.N,/CAN1_L*%
%TO.C,J2*%
X120396000Y-112903000D03*
D18*
%TO.N,/CAN1_H*%
X117856000Y-112903000D03*
%TD*%
D17*
%TO.N,/CAN2_L*%
%TO.C,J3*%
X133096000Y-112903000D03*
D18*
%TO.N,/CAN2_H*%
X130556000Y-112903000D03*
%TD*%
D19*
%TO.N,+3V3*%
X87477600Y-115570000D03*
X81483200Y-123190000D03*
X97180400Y-98856800D03*
X102438200Y-105384600D03*
X121589800Y-100253800D03*
X131406900Y-101485700D03*
X149453600Y-102793800D03*
X87452200Y-123190000D03*
X93472000Y-123215400D03*
X126009400Y-108610400D03*
X149301200Y-101041200D03*
X122707400Y-105638600D03*
X147633249Y-100555421D03*
X93472000Y-115570000D03*
X108102402Y-101422202D03*
%TO.N,GND*%
X112852200Y-104419400D03*
X140055600Y-105181400D03*
X106553000Y-108610400D03*
X88722200Y-106502200D03*
X102006400Y-98882200D03*
X129844800Y-108585000D03*
X119449072Y-100147810D03*
X106807000Y-103530400D03*
X130276600Y-103479600D03*
X116789200Y-105181400D03*
X117551200Y-108305600D03*
X123952000Y-101523800D03*
X136121710Y-104414192D03*
X143408400Y-108102400D03*
%TO.N,+5V*%
X103987600Y-100253800D03*
X127254000Y-100304600D03*
%TO.N,/GPIO09*%
X149504400Y-99822000D03*
X115290600Y-104419400D03*
X152958800Y-102946200D03*
%TO.N,/UART1_TXD*%
X136245600Y-94717108D03*
%TO.N,/UART1_RXD*%
X140079414Y-95271844D03*
%TO.N,/UART1_RTS*%
X152628600Y-101015800D03*
X112395000Y-92928964D03*
%TO.N,/I2S0_SCLK*%
X107924601Y-95732601D03*
X142354299Y-95110299D03*
X104648000Y-95681800D03*
%TO.N,/GPIO12*%
X121691400Y-95250000D03*
X115900200Y-99974400D03*
X138125200Y-95250000D03*
%TO.N,/SPI0_MOSI*%
X151917400Y-97231200D03*
%TO.N,/SPI0_MISO*%
X148197566Y-96000568D03*
%TO.N,/SPI1_MISO*%
X135736323Y-99240001D03*
%TO.N,/SPI0_SCK*%
X151942800Y-98958400D03*
%TO.N,/SPI1_CS0*%
X133925566Y-99183827D03*
%TO.N,/GPIO01*%
X138049000Y-103885998D03*
%TO.N,/GPIO11*%
X144604107Y-95637116D03*
X141249400Y-100457000D03*
%TO.N,/GPIO07*%
X117754400Y-99999800D03*
%TO.N,/GPIO13*%
X154406600Y-106626850D03*
%TO.N,/UART1_CTS*%
X144195800Y-92049600D03*
%TO.N,/SPI1_MOSI*%
X137462896Y-99489896D03*
%TO.N,/SPI0_CS0*%
X145239104Y-93978096D03*
%TO.N,Net-(D3-K)*%
X89331800Y-113030000D03*
%TO.N,Net-(D4-K)*%
X89763600Y-120675400D03*
%TO.N,Net-(D5-K)*%
X81407000Y-114985800D03*
%TO.N,Net-(D6-K)*%
X83616800Y-120675400D03*
%TO.N,Net-(D7-K)*%
X75920600Y-123164600D03*
%TD*%
%TA.AperFunction,Conductor*%
%TO.N,GND*%
G36*
X160384067Y-47576273D02*
G01*
X160447914Y-47576272D01*
X160456021Y-47576536D01*
X160710237Y-47593197D01*
X160726304Y-47595312D01*
X160942215Y-47638257D01*
X160972176Y-47644217D01*
X160987844Y-47648416D01*
X161153161Y-47704533D01*
X161225221Y-47728994D01*
X161240191Y-47735194D01*
X161465031Y-47846072D01*
X161479072Y-47854179D01*
X161687501Y-47993448D01*
X161700369Y-48003322D01*
X161888845Y-48168613D01*
X161900315Y-48180083D01*
X162065597Y-48368554D01*
X162075471Y-48381423D01*
X162214734Y-48589852D01*
X162222844Y-48603899D01*
X162333714Y-48828730D01*
X162339921Y-48843716D01*
X162420494Y-49081091D01*
X162424692Y-49096759D01*
X162473591Y-49342620D01*
X162475708Y-49358702D01*
X162492405Y-49613562D01*
X162492670Y-49621697D01*
X162475716Y-123324828D01*
X162475714Y-123332027D01*
X162475700Y-123332089D01*
X162475700Y-123393883D01*
X162475700Y-123395961D01*
X162475698Y-123395964D01*
X162475435Y-123404043D01*
X162458773Y-123658261D01*
X162456655Y-123674342D01*
X162407751Y-123920198D01*
X162403553Y-123935866D01*
X162322973Y-124173246D01*
X162316766Y-124188231D01*
X162205892Y-124413060D01*
X162197782Y-124427107D01*
X162058511Y-124635541D01*
X162048637Y-124648409D01*
X161883351Y-124836882D01*
X161871882Y-124848351D01*
X161683409Y-125013637D01*
X161670541Y-125023511D01*
X161462107Y-125162782D01*
X161448060Y-125170892D01*
X161223231Y-125281766D01*
X161208246Y-125287973D01*
X160970866Y-125368553D01*
X160955198Y-125372751D01*
X160709342Y-125421655D01*
X160693261Y-125423773D01*
X160439043Y-125440435D01*
X160430933Y-125440700D01*
X70888400Y-125440700D01*
X70821361Y-125421015D01*
X70775606Y-125368211D01*
X70764400Y-125316700D01*
X70764400Y-123215400D01*
X69018040Y-123215400D01*
X69010844Y-123213287D01*
X68964565Y-123213287D01*
X67215268Y-123213287D01*
X67181445Y-123213287D01*
X67161793Y-123215400D01*
X63525400Y-123215400D01*
X63525400Y-125316700D01*
X63505715Y-125383739D01*
X63452911Y-125429494D01*
X63401400Y-125440700D01*
X57604067Y-125440700D01*
X57595957Y-125440435D01*
X57341738Y-125423773D01*
X57325657Y-125421655D01*
X57079801Y-125372751D01*
X57064133Y-125368553D01*
X56826753Y-125287973D01*
X56811768Y-125281766D01*
X56586939Y-125170892D01*
X56572892Y-125162782D01*
X56364458Y-125023511D01*
X56351590Y-125013637D01*
X56163117Y-124848351D01*
X56151648Y-124836882D01*
X55986362Y-124648409D01*
X55976488Y-124635541D01*
X55837217Y-124427107D01*
X55829107Y-124413060D01*
X55823000Y-124400678D01*
X55718230Y-124188224D01*
X55712029Y-124173253D01*
X55631443Y-123935855D01*
X55627251Y-123920210D01*
X55578342Y-123674331D01*
X55576227Y-123658273D01*
X55559565Y-123404051D01*
X55559300Y-123395996D01*
X55559300Y-123395961D01*
X55559300Y-123332089D01*
X55559272Y-123331976D01*
X55559174Y-123095750D01*
X75221600Y-123095750D01*
X75221600Y-123233449D01*
X75248460Y-123368483D01*
X75248463Y-123368495D01*
X75301151Y-123495696D01*
X75301152Y-123495698D01*
X75377650Y-123610185D01*
X75377653Y-123610189D01*
X75475010Y-123707546D01*
X75475014Y-123707549D01*
X75589499Y-123784046D01*
X75589500Y-123784046D01*
X75589501Y-123784047D01*
X75589503Y-123784048D01*
X75712141Y-123834846D01*
X75716709Y-123836738D01*
X75844395Y-123862136D01*
X75851750Y-123863599D01*
X75851754Y-123863600D01*
X75851755Y-123863600D01*
X75989446Y-123863600D01*
X75989447Y-123863599D01*
X76124491Y-123836738D01*
X76251701Y-123784046D01*
X76366186Y-123707549D01*
X76463549Y-123610186D01*
X76540046Y-123495701D01*
X76592738Y-123368491D01*
X76619600Y-123233445D01*
X76619600Y-123121150D01*
X80784200Y-123121150D01*
X80784200Y-123258849D01*
X80811060Y-123393883D01*
X80811063Y-123393895D01*
X80863751Y-123521096D01*
X80863752Y-123521098D01*
X80940250Y-123635585D01*
X80940253Y-123635589D01*
X81037610Y-123732946D01*
X81037614Y-123732949D01*
X81152099Y-123809446D01*
X81152100Y-123809446D01*
X81152101Y-123809447D01*
X81152103Y-123809448D01*
X81279304Y-123862136D01*
X81279309Y-123862138D01*
X81406995Y-123887536D01*
X81414350Y-123888999D01*
X81414354Y-123889000D01*
X81414355Y-123889000D01*
X81552046Y-123889000D01*
X81552047Y-123888999D01*
X81687091Y-123862138D01*
X81814301Y-123809446D01*
X81928786Y-123732949D01*
X82026149Y-123635586D01*
X82102646Y-123521101D01*
X82155338Y-123393891D01*
X82182200Y-123258845D01*
X82182200Y-123121155D01*
X82182199Y-123121150D01*
X86753200Y-123121150D01*
X86753200Y-123258849D01*
X86780060Y-123393883D01*
X86780063Y-123393895D01*
X86832751Y-123521096D01*
X86832752Y-123521098D01*
X86909250Y-123635585D01*
X86909253Y-123635589D01*
X87006610Y-123732946D01*
X87006614Y-123732949D01*
X87121099Y-123809446D01*
X87121100Y-123809446D01*
X87121101Y-123809447D01*
X87121103Y-123809448D01*
X87248304Y-123862136D01*
X87248309Y-123862138D01*
X87375995Y-123887536D01*
X87383350Y-123888999D01*
X87383354Y-123889000D01*
X87383355Y-123889000D01*
X87521046Y-123889000D01*
X87521047Y-123888999D01*
X87656091Y-123862138D01*
X87783301Y-123809446D01*
X87897786Y-123732949D01*
X87995149Y-123635586D01*
X88071646Y-123521101D01*
X88124338Y-123393891D01*
X88151200Y-123258845D01*
X88151200Y-123146550D01*
X92773000Y-123146550D01*
X92773000Y-123284249D01*
X92799860Y-123419283D01*
X92799863Y-123419295D01*
X92852551Y-123546496D01*
X92852552Y-123546498D01*
X92929050Y-123660985D01*
X92929053Y-123660989D01*
X93026410Y-123758346D01*
X93026414Y-123758349D01*
X93140899Y-123834846D01*
X93140900Y-123834846D01*
X93140901Y-123834847D01*
X93140903Y-123834848D01*
X93206790Y-123862139D01*
X93268109Y-123887538D01*
X93403150Y-123914399D01*
X93403154Y-123914400D01*
X93403155Y-123914400D01*
X93540846Y-123914400D01*
X93540847Y-123914399D01*
X93675891Y-123887538D01*
X93803101Y-123834846D01*
X93917586Y-123758349D01*
X94014949Y-123660986D01*
X94091446Y-123546501D01*
X94144138Y-123419291D01*
X94171000Y-123284245D01*
X94171000Y-123146555D01*
X94144138Y-123011509D01*
X94091446Y-122884299D01*
X94014949Y-122769814D01*
X94014946Y-122769810D01*
X93917589Y-122672453D01*
X93917585Y-122672450D01*
X93803098Y-122595952D01*
X93803096Y-122595951D01*
X93675895Y-122543263D01*
X93675883Y-122543260D01*
X93540849Y-122516400D01*
X93540845Y-122516400D01*
X93403155Y-122516400D01*
X93403150Y-122516400D01*
X93268116Y-122543260D01*
X93268104Y-122543263D01*
X93140903Y-122595951D01*
X93140901Y-122595952D01*
X93026414Y-122672450D01*
X93026410Y-122672453D01*
X92929053Y-122769810D01*
X92929050Y-122769814D01*
X92852552Y-122884301D01*
X92852551Y-122884303D01*
X92799863Y-123011504D01*
X92799860Y-123011516D01*
X92773000Y-123146550D01*
X88151200Y-123146550D01*
X88151200Y-123121155D01*
X88124338Y-122986109D01*
X88071646Y-122858899D01*
X87995149Y-122744414D01*
X87995146Y-122744410D01*
X87897789Y-122647053D01*
X87897785Y-122647050D01*
X87783298Y-122570552D01*
X87783296Y-122570551D01*
X87656095Y-122517863D01*
X87656083Y-122517860D01*
X87521049Y-122491000D01*
X87521045Y-122491000D01*
X87383355Y-122491000D01*
X87383350Y-122491000D01*
X87248316Y-122517860D01*
X87248304Y-122517863D01*
X87121103Y-122570551D01*
X87121101Y-122570552D01*
X87006614Y-122647050D01*
X87006610Y-122647053D01*
X86909253Y-122744410D01*
X86909250Y-122744414D01*
X86832752Y-122858901D01*
X86832751Y-122858903D01*
X86780063Y-122986104D01*
X86780060Y-122986116D01*
X86753200Y-123121150D01*
X82182199Y-123121150D01*
X82155338Y-122986109D01*
X82102646Y-122858899D01*
X82026149Y-122744414D01*
X82026146Y-122744410D01*
X81928789Y-122647053D01*
X81928785Y-122647050D01*
X81814298Y-122570552D01*
X81814296Y-122570551D01*
X81687095Y-122517863D01*
X81687083Y-122517860D01*
X81552049Y-122491000D01*
X81552045Y-122491000D01*
X81414355Y-122491000D01*
X81414350Y-122491000D01*
X81279316Y-122517860D01*
X81279304Y-122517863D01*
X81152103Y-122570551D01*
X81152101Y-122570552D01*
X81037614Y-122647050D01*
X81037610Y-122647053D01*
X80940253Y-122744410D01*
X80940250Y-122744414D01*
X80863752Y-122858901D01*
X80863751Y-122858903D01*
X80811063Y-122986104D01*
X80811060Y-122986116D01*
X80784200Y-123121150D01*
X76619600Y-123121150D01*
X76619600Y-123095755D01*
X76592738Y-122960709D01*
X76550567Y-122858899D01*
X76540048Y-122833503D01*
X76540047Y-122833501D01*
X76463549Y-122719014D01*
X76463546Y-122719010D01*
X76366189Y-122621653D01*
X76366185Y-122621650D01*
X76251698Y-122545152D01*
X76251696Y-122545151D01*
X76124495Y-122492463D01*
X76124483Y-122492460D01*
X75989449Y-122465600D01*
X75989445Y-122465600D01*
X75851755Y-122465600D01*
X75851750Y-122465600D01*
X75716716Y-122492460D01*
X75716704Y-122492463D01*
X75589503Y-122545151D01*
X75589501Y-122545152D01*
X75475014Y-122621650D01*
X75475010Y-122621653D01*
X75377653Y-122719010D01*
X75377650Y-122719014D01*
X75301152Y-122833501D01*
X75301151Y-122833503D01*
X75248463Y-122960704D01*
X75248460Y-122960716D01*
X75221600Y-123095750D01*
X55559174Y-123095750D01*
X55557059Y-118001168D01*
X79787500Y-118001168D01*
X79787500Y-118199271D01*
X79818487Y-118394920D01*
X79879703Y-118583321D01*
X79969634Y-118759818D01*
X80086070Y-118920078D01*
X80226142Y-119060150D01*
X80386402Y-119176586D01*
X80447074Y-119207500D01*
X80549590Y-119259735D01*
X80600386Y-119307710D01*
X80617181Y-119375531D01*
X80594643Y-119441666D01*
X80549590Y-119480705D01*
X80386401Y-119563854D01*
X80340860Y-119596942D01*
X80226142Y-119680290D01*
X80226140Y-119680292D01*
X80226139Y-119680292D01*
X80086072Y-119820359D01*
X80086072Y-119820360D01*
X80086070Y-119820362D01*
X80036065Y-119889187D01*
X79969634Y-119980621D01*
X79879703Y-120157118D01*
X79818487Y-120345519D01*
X79787500Y-120541168D01*
X79787500Y-120739271D01*
X79818487Y-120934920D01*
X79879703Y-121123321D01*
X79928123Y-121218349D01*
X79969634Y-121299818D01*
X80086070Y-121460078D01*
X80226142Y-121600150D01*
X80386402Y-121716586D01*
X80469790Y-121759074D01*
X80562898Y-121806516D01*
X80562900Y-121806516D01*
X80562903Y-121806518D01*
X80663888Y-121839330D01*
X80751299Y-121867732D01*
X80946949Y-121898720D01*
X80946954Y-121898720D01*
X81145051Y-121898720D01*
X81340700Y-121867732D01*
X81529097Y-121806518D01*
X81705598Y-121716586D01*
X81865858Y-121600150D01*
X82005930Y-121460078D01*
X82122366Y-121299818D01*
X82212298Y-121123317D01*
X82273512Y-120934920D01*
X82282324Y-120879283D01*
X82304500Y-120739271D01*
X82304500Y-120606550D01*
X82917800Y-120606550D01*
X82917800Y-120744249D01*
X82944660Y-120879283D01*
X82944663Y-120879295D01*
X82997351Y-121006496D01*
X82997352Y-121006498D01*
X83073850Y-121120985D01*
X83073853Y-121120989D01*
X83171210Y-121218346D01*
X83171214Y-121218349D01*
X83285699Y-121294846D01*
X83285700Y-121294846D01*
X83285701Y-121294847D01*
X83285703Y-121294848D01*
X83412904Y-121347536D01*
X83412909Y-121347538D01*
X83547950Y-121374399D01*
X83547954Y-121374400D01*
X83547955Y-121374400D01*
X83685646Y-121374400D01*
X83685647Y-121374399D01*
X83820691Y-121347538D01*
X83947901Y-121294846D01*
X84062386Y-121218349D01*
X84159749Y-121120986D01*
X84236246Y-121006501D01*
X84288938Y-120879291D01*
X84315800Y-120744245D01*
X84315800Y-120606555D01*
X84288938Y-120471509D01*
X84236752Y-120345520D01*
X84236248Y-120344303D01*
X84236247Y-120344301D01*
X84159749Y-120229814D01*
X84159746Y-120229810D01*
X84062389Y-120132453D01*
X84062385Y-120132450D01*
X83947898Y-120055952D01*
X83947896Y-120055951D01*
X83820695Y-120003263D01*
X83820683Y-120003260D01*
X83685649Y-119976400D01*
X83685645Y-119976400D01*
X83547955Y-119976400D01*
X83547950Y-119976400D01*
X83412916Y-120003260D01*
X83412904Y-120003263D01*
X83285703Y-120055951D01*
X83285701Y-120055952D01*
X83171214Y-120132450D01*
X83171210Y-120132453D01*
X83073853Y-120229810D01*
X83073850Y-120229814D01*
X82997352Y-120344301D01*
X82997351Y-120344303D01*
X82944663Y-120471504D01*
X82944660Y-120471516D01*
X82917800Y-120606550D01*
X82304500Y-120606550D01*
X82304500Y-120541168D01*
X82273512Y-120345519D01*
X82212296Y-120157118D01*
X82133902Y-120003263D01*
X82122366Y-119980622D01*
X82005930Y-119820362D01*
X81865858Y-119680290D01*
X81705598Y-119563854D01*
X81542408Y-119480704D01*
X81491613Y-119432730D01*
X81474818Y-119364909D01*
X81497355Y-119298774D01*
X81542409Y-119259735D01*
X81566500Y-119247460D01*
X81705598Y-119176586D01*
X81865858Y-119060150D01*
X82005930Y-118920078D01*
X82122366Y-118759818D01*
X82212298Y-118583317D01*
X82273512Y-118394920D01*
X82304500Y-118199271D01*
X82304500Y-118001168D01*
X85787500Y-118001168D01*
X85787500Y-118199271D01*
X85818487Y-118394920D01*
X85879703Y-118583321D01*
X85969634Y-118759818D01*
X86086070Y-118920078D01*
X86226142Y-119060150D01*
X86386402Y-119176586D01*
X86447074Y-119207500D01*
X86549590Y-119259735D01*
X86600386Y-119307710D01*
X86617181Y-119375531D01*
X86594643Y-119441666D01*
X86549590Y-119480705D01*
X86386401Y-119563854D01*
X86340860Y-119596942D01*
X86226142Y-119680290D01*
X86226140Y-119680292D01*
X86226139Y-119680292D01*
X86086072Y-119820359D01*
X86086072Y-119820360D01*
X86086070Y-119820362D01*
X86036065Y-119889187D01*
X85969634Y-119980621D01*
X85879703Y-120157118D01*
X85818487Y-120345519D01*
X85787500Y-120541168D01*
X85787500Y-120739271D01*
X85818487Y-120934920D01*
X85879703Y-121123321D01*
X85928123Y-121218349D01*
X85969634Y-121299818D01*
X86086070Y-121460078D01*
X86226142Y-121600150D01*
X86386402Y-121716586D01*
X86469790Y-121759074D01*
X86562898Y-121806516D01*
X86562900Y-121806516D01*
X86562903Y-121806518D01*
X86663888Y-121839330D01*
X86751299Y-121867732D01*
X86946949Y-121898720D01*
X86946954Y-121898720D01*
X87145051Y-121898720D01*
X87340700Y-121867732D01*
X87529097Y-121806518D01*
X87705598Y-121716586D01*
X87865858Y-121600150D01*
X88005930Y-121460078D01*
X88122366Y-121299818D01*
X88212298Y-121123317D01*
X88273512Y-120934920D01*
X88282324Y-120879283D01*
X88304500Y-120739271D01*
X88304500Y-120606550D01*
X89064600Y-120606550D01*
X89064600Y-120744249D01*
X89091460Y-120879283D01*
X89091463Y-120879295D01*
X89144151Y-121006496D01*
X89144152Y-121006498D01*
X89220650Y-121120985D01*
X89220653Y-121120989D01*
X89318010Y-121218346D01*
X89318014Y-121218349D01*
X89432499Y-121294846D01*
X89432500Y-121294846D01*
X89432501Y-121294847D01*
X89432503Y-121294848D01*
X89559704Y-121347536D01*
X89559709Y-121347538D01*
X89694750Y-121374399D01*
X89694754Y-121374400D01*
X89694755Y-121374400D01*
X89832446Y-121374400D01*
X89832447Y-121374399D01*
X89967491Y-121347538D01*
X90094701Y-121294846D01*
X90209186Y-121218349D01*
X90306549Y-121120986D01*
X90383046Y-121006501D01*
X90435738Y-120879291D01*
X90462600Y-120744245D01*
X90462600Y-120606555D01*
X90435738Y-120471509D01*
X90383552Y-120345520D01*
X90383048Y-120344303D01*
X90383047Y-120344301D01*
X90306549Y-120229814D01*
X90306546Y-120229810D01*
X90209189Y-120132453D01*
X90209185Y-120132450D01*
X90094698Y-120055952D01*
X90094696Y-120055951D01*
X89967495Y-120003263D01*
X89967483Y-120003260D01*
X89832449Y-119976400D01*
X89832445Y-119976400D01*
X89694755Y-119976400D01*
X89694750Y-119976400D01*
X89559716Y-120003260D01*
X89559704Y-120003263D01*
X89432503Y-120055951D01*
X89432501Y-120055952D01*
X89318014Y-120132450D01*
X89318010Y-120132453D01*
X89220653Y-120229810D01*
X89220650Y-120229814D01*
X89144152Y-120344301D01*
X89144151Y-120344303D01*
X89091463Y-120471504D01*
X89091460Y-120471516D01*
X89064600Y-120606550D01*
X88304500Y-120606550D01*
X88304500Y-120541168D01*
X88273512Y-120345519D01*
X88212296Y-120157118D01*
X88133902Y-120003263D01*
X88122366Y-119980622D01*
X88005930Y-119820362D01*
X87865858Y-119680290D01*
X87705598Y-119563854D01*
X87542408Y-119480704D01*
X87491613Y-119432730D01*
X87474818Y-119364909D01*
X87497355Y-119298774D01*
X87542409Y-119259735D01*
X87566500Y-119247460D01*
X87705598Y-119176586D01*
X87865858Y-119060150D01*
X88005930Y-118920078D01*
X88122366Y-118759818D01*
X88212298Y-118583317D01*
X88273512Y-118394920D01*
X88304500Y-118199271D01*
X88304500Y-118001168D01*
X91787500Y-118001168D01*
X91787500Y-118199271D01*
X91818487Y-118394920D01*
X91879703Y-118583321D01*
X91969634Y-118759818D01*
X92086070Y-118920078D01*
X92226142Y-119060150D01*
X92386402Y-119176586D01*
X92447074Y-119207500D01*
X92549590Y-119259735D01*
X92600386Y-119307710D01*
X92617181Y-119375531D01*
X92594643Y-119441666D01*
X92549590Y-119480705D01*
X92386401Y-119563854D01*
X92340860Y-119596942D01*
X92226142Y-119680290D01*
X92226140Y-119680292D01*
X92226139Y-119680292D01*
X92086072Y-119820359D01*
X92086072Y-119820360D01*
X92086070Y-119820362D01*
X92036065Y-119889187D01*
X91969634Y-119980621D01*
X91879703Y-120157118D01*
X91818487Y-120345519D01*
X91787500Y-120541168D01*
X91787500Y-120739271D01*
X91818487Y-120934920D01*
X91879703Y-121123321D01*
X91928123Y-121218349D01*
X91969634Y-121299818D01*
X92086070Y-121460078D01*
X92226142Y-121600150D01*
X92386402Y-121716586D01*
X92469790Y-121759074D01*
X92562898Y-121806516D01*
X92562900Y-121806516D01*
X92562903Y-121806518D01*
X92663888Y-121839330D01*
X92751299Y-121867732D01*
X92946949Y-121898720D01*
X92946954Y-121898720D01*
X93145051Y-121898720D01*
X93340700Y-121867732D01*
X93529097Y-121806518D01*
X93705598Y-121716586D01*
X93865858Y-121600150D01*
X94005930Y-121460078D01*
X94056897Y-121389929D01*
X103960500Y-121389929D01*
X103960500Y-121696070D01*
X103960501Y-121696086D01*
X103998529Y-121984943D01*
X104000461Y-121999611D01*
X104008450Y-122029428D01*
X104079702Y-122295340D01*
X104196854Y-122578173D01*
X104196862Y-122578189D01*
X104349931Y-122843310D01*
X104349942Y-122843326D01*
X104536309Y-123086204D01*
X104536315Y-123086211D01*
X104752788Y-123302684D01*
X104752795Y-123302690D01*
X104925763Y-123435413D01*
X104995682Y-123489064D01*
X104995689Y-123489068D01*
X105260810Y-123642137D01*
X105260826Y-123642145D01*
X105543659Y-123759297D01*
X105543661Y-123759297D01*
X105543667Y-123759300D01*
X105839389Y-123838539D01*
X106142923Y-123878500D01*
X106142930Y-123878500D01*
X106449070Y-123878500D01*
X106449077Y-123878500D01*
X106752611Y-123838539D01*
X107048333Y-123759300D01*
X107173279Y-123707546D01*
X107331173Y-123642145D01*
X107331176Y-123642143D01*
X107331182Y-123642141D01*
X107596318Y-123489064D01*
X107839206Y-123302689D01*
X108055689Y-123086206D01*
X108242064Y-122843318D01*
X108395141Y-122578182D01*
X108398302Y-122570552D01*
X108512297Y-122295340D01*
X108512296Y-122295340D01*
X108512300Y-122295333D01*
X108591539Y-121999611D01*
X108631500Y-121696077D01*
X108631500Y-121389929D01*
X109300500Y-121389929D01*
X109300500Y-121696070D01*
X109300501Y-121696086D01*
X109338529Y-121984943D01*
X109340461Y-121999611D01*
X109348450Y-122029428D01*
X109419702Y-122295340D01*
X109536854Y-122578173D01*
X109536862Y-122578189D01*
X109689931Y-122843310D01*
X109689942Y-122843326D01*
X109876309Y-123086204D01*
X109876315Y-123086211D01*
X110092788Y-123302684D01*
X110092795Y-123302690D01*
X110265763Y-123435413D01*
X110335682Y-123489064D01*
X110335689Y-123489068D01*
X110600810Y-123642137D01*
X110600826Y-123642145D01*
X110883659Y-123759297D01*
X110883661Y-123759297D01*
X110883667Y-123759300D01*
X111179389Y-123838539D01*
X111482923Y-123878500D01*
X111482930Y-123878500D01*
X111789070Y-123878500D01*
X111789077Y-123878500D01*
X112092611Y-123838539D01*
X112388333Y-123759300D01*
X112513279Y-123707546D01*
X112671173Y-123642145D01*
X112671176Y-123642143D01*
X112671182Y-123642141D01*
X112936318Y-123489064D01*
X113179206Y-123302689D01*
X113395689Y-123086206D01*
X113582064Y-122843318D01*
X113735141Y-122578182D01*
X113738302Y-122570552D01*
X113852297Y-122295340D01*
X113852296Y-122295340D01*
X113852300Y-122295333D01*
X113926226Y-122019437D01*
X113962590Y-121959780D01*
X114025437Y-121929251D01*
X114094813Y-121937546D01*
X114148691Y-121982031D01*
X114165773Y-122019435D01*
X114239700Y-122295333D01*
X114239702Y-122295340D01*
X114356854Y-122578173D01*
X114356862Y-122578189D01*
X114509931Y-122843310D01*
X114509942Y-122843326D01*
X114696309Y-123086204D01*
X114696315Y-123086211D01*
X114912788Y-123302684D01*
X114912795Y-123302690D01*
X115085763Y-123435413D01*
X115155682Y-123489064D01*
X115155689Y-123489068D01*
X115420810Y-123642137D01*
X115420826Y-123642145D01*
X115703659Y-123759297D01*
X115703661Y-123759297D01*
X115703667Y-123759300D01*
X115999389Y-123838539D01*
X116302923Y-123878500D01*
X116302930Y-123878500D01*
X116609070Y-123878500D01*
X116609077Y-123878500D01*
X116912611Y-123838539D01*
X117208333Y-123759300D01*
X117333279Y-123707546D01*
X117491173Y-123642145D01*
X117491176Y-123642143D01*
X117491182Y-123642141D01*
X117756318Y-123489064D01*
X117999206Y-123302689D01*
X118215689Y-123086206D01*
X118402064Y-122843318D01*
X118555141Y-122578182D01*
X118558302Y-122570552D01*
X118672297Y-122295340D01*
X118672296Y-122295340D01*
X118672300Y-122295333D01*
X118751539Y-121999611D01*
X118791500Y-121696077D01*
X118791500Y-121389929D01*
X119460500Y-121389929D01*
X119460500Y-121696070D01*
X119460501Y-121696086D01*
X119498529Y-121984943D01*
X119500461Y-121999611D01*
X119508450Y-122029428D01*
X119579702Y-122295340D01*
X119696854Y-122578173D01*
X119696862Y-122578189D01*
X119849931Y-122843310D01*
X119849942Y-122843326D01*
X120036309Y-123086204D01*
X120036315Y-123086211D01*
X120252788Y-123302684D01*
X120252795Y-123302690D01*
X120425763Y-123435413D01*
X120495682Y-123489064D01*
X120495689Y-123489068D01*
X120760810Y-123642137D01*
X120760826Y-123642145D01*
X121043659Y-123759297D01*
X121043661Y-123759297D01*
X121043667Y-123759300D01*
X121339389Y-123838539D01*
X121642923Y-123878500D01*
X121642930Y-123878500D01*
X121949070Y-123878500D01*
X121949077Y-123878500D01*
X122252611Y-123838539D01*
X122548333Y-123759300D01*
X122673279Y-123707546D01*
X122831173Y-123642145D01*
X122831176Y-123642143D01*
X122831182Y-123642141D01*
X123096318Y-123489064D01*
X123339206Y-123302689D01*
X123555689Y-123086206D01*
X123742064Y-122843318D01*
X123895141Y-122578182D01*
X123898302Y-122570552D01*
X124012297Y-122295340D01*
X124012296Y-122295340D01*
X124012300Y-122295333D01*
X124091539Y-121999611D01*
X124131500Y-121696077D01*
X124131500Y-121389929D01*
X126820500Y-121389929D01*
X126820500Y-121696070D01*
X126820501Y-121696086D01*
X126858529Y-121984943D01*
X126860461Y-121999611D01*
X126868450Y-122029428D01*
X126939702Y-122295340D01*
X127056854Y-122578173D01*
X127056862Y-122578189D01*
X127209931Y-122843310D01*
X127209942Y-122843326D01*
X127396309Y-123086204D01*
X127396315Y-123086211D01*
X127612788Y-123302684D01*
X127612795Y-123302690D01*
X127785763Y-123435413D01*
X127855682Y-123489064D01*
X127855689Y-123489068D01*
X128120810Y-123642137D01*
X128120826Y-123642145D01*
X128403659Y-123759297D01*
X128403661Y-123759297D01*
X128403667Y-123759300D01*
X128699389Y-123838539D01*
X129002923Y-123878500D01*
X129002930Y-123878500D01*
X129309070Y-123878500D01*
X129309077Y-123878500D01*
X129612611Y-123838539D01*
X129908333Y-123759300D01*
X130033279Y-123707546D01*
X130191173Y-123642145D01*
X130191176Y-123642143D01*
X130191182Y-123642141D01*
X130456318Y-123489064D01*
X130699206Y-123302689D01*
X130915689Y-123086206D01*
X131102064Y-122843318D01*
X131255141Y-122578182D01*
X131258302Y-122570552D01*
X131372297Y-122295340D01*
X131372296Y-122295340D01*
X131372300Y-122295333D01*
X131451539Y-121999611D01*
X131491500Y-121696077D01*
X131491500Y-121389929D01*
X132160500Y-121389929D01*
X132160500Y-121696070D01*
X132160501Y-121696086D01*
X132198529Y-121984943D01*
X132200461Y-121999611D01*
X132208450Y-122029428D01*
X132279702Y-122295340D01*
X132396854Y-122578173D01*
X132396862Y-122578189D01*
X132549931Y-122843310D01*
X132549942Y-122843326D01*
X132736309Y-123086204D01*
X132736315Y-123086211D01*
X132952788Y-123302684D01*
X132952795Y-123302690D01*
X133125763Y-123435413D01*
X133195682Y-123489064D01*
X133195689Y-123489068D01*
X133460810Y-123642137D01*
X133460826Y-123642145D01*
X133743659Y-123759297D01*
X133743661Y-123759297D01*
X133743667Y-123759300D01*
X134039389Y-123838539D01*
X134342923Y-123878500D01*
X134342930Y-123878500D01*
X134649070Y-123878500D01*
X134649077Y-123878500D01*
X134952611Y-123838539D01*
X135248333Y-123759300D01*
X135373279Y-123707546D01*
X135531173Y-123642145D01*
X135531176Y-123642143D01*
X135531182Y-123642141D01*
X135796318Y-123489064D01*
X136039206Y-123302689D01*
X136255689Y-123086206D01*
X136442064Y-122843318D01*
X136595141Y-122578182D01*
X136598302Y-122570552D01*
X136712297Y-122295340D01*
X136712296Y-122295340D01*
X136712300Y-122295333D01*
X136773526Y-122066834D01*
X136809890Y-122007177D01*
X136872737Y-121976648D01*
X136942113Y-121984943D01*
X136995991Y-122029428D01*
X137013073Y-122066833D01*
X137074300Y-122295333D01*
X137074302Y-122295340D01*
X137191454Y-122578173D01*
X137191462Y-122578189D01*
X137344531Y-122843310D01*
X137344542Y-122843326D01*
X137530909Y-123086204D01*
X137530915Y-123086211D01*
X137747388Y-123302684D01*
X137747395Y-123302690D01*
X137920363Y-123435413D01*
X137990282Y-123489064D01*
X137990289Y-123489068D01*
X138255410Y-123642137D01*
X138255426Y-123642145D01*
X138538259Y-123759297D01*
X138538261Y-123759297D01*
X138538267Y-123759300D01*
X138833989Y-123838539D01*
X139137523Y-123878500D01*
X139137530Y-123878500D01*
X139443670Y-123878500D01*
X139443677Y-123878500D01*
X139747211Y-123838539D01*
X140042933Y-123759300D01*
X140167879Y-123707546D01*
X140325773Y-123642145D01*
X140325776Y-123642143D01*
X140325782Y-123642141D01*
X140590918Y-123489064D01*
X140833806Y-123302689D01*
X141050289Y-123086206D01*
X141236664Y-122843318D01*
X141389741Y-122578182D01*
X141392902Y-122570552D01*
X141506897Y-122295340D01*
X141506896Y-122295340D01*
X141506900Y-122295333D01*
X141586139Y-121999611D01*
X141626100Y-121696077D01*
X141626100Y-121389929D01*
X142295100Y-121389929D01*
X142295100Y-121696070D01*
X142295101Y-121696086D01*
X142333129Y-121984943D01*
X142335061Y-121999611D01*
X142343050Y-122029428D01*
X142414302Y-122295340D01*
X142531454Y-122578173D01*
X142531462Y-122578189D01*
X142684531Y-122843310D01*
X142684542Y-122843326D01*
X142870909Y-123086204D01*
X142870915Y-123086211D01*
X143087388Y-123302684D01*
X143087395Y-123302690D01*
X143260363Y-123435413D01*
X143330282Y-123489064D01*
X143330289Y-123489068D01*
X143595410Y-123642137D01*
X143595426Y-123642145D01*
X143878259Y-123759297D01*
X143878261Y-123759297D01*
X143878267Y-123759300D01*
X144173989Y-123838539D01*
X144477523Y-123878500D01*
X144477530Y-123878500D01*
X144783670Y-123878500D01*
X144783677Y-123878500D01*
X145087211Y-123838539D01*
X145382933Y-123759300D01*
X145507879Y-123707546D01*
X145665773Y-123642145D01*
X145665776Y-123642143D01*
X145665782Y-123642141D01*
X145930918Y-123489064D01*
X146173806Y-123302689D01*
X146390289Y-123086206D01*
X146576664Y-122843318D01*
X146729741Y-122578182D01*
X146732902Y-122570552D01*
X146846897Y-122295340D01*
X146846896Y-122295340D01*
X146846900Y-122295333D01*
X146926139Y-121999611D01*
X146966100Y-121696077D01*
X146966100Y-121389923D01*
X146926139Y-121086389D01*
X146846900Y-120790667D01*
X146846897Y-120790659D01*
X146729745Y-120507826D01*
X146729737Y-120507810D01*
X146576668Y-120242689D01*
X146576664Y-120242682D01*
X146390289Y-119999794D01*
X146390284Y-119999788D01*
X146173811Y-119783315D01*
X146173804Y-119783309D01*
X145930926Y-119596942D01*
X145930924Y-119596940D01*
X145930918Y-119596936D01*
X145930913Y-119596933D01*
X145930910Y-119596931D01*
X145665789Y-119443862D01*
X145665773Y-119443854D01*
X145382940Y-119326702D01*
X145312061Y-119307710D01*
X145087211Y-119247461D01*
X145087210Y-119247460D01*
X145087207Y-119247460D01*
X144783686Y-119207501D01*
X144783683Y-119207500D01*
X144783677Y-119207500D01*
X144477523Y-119207500D01*
X144477517Y-119207500D01*
X144477513Y-119207501D01*
X144173992Y-119247460D01*
X143878259Y-119326702D01*
X143595426Y-119443854D01*
X143595410Y-119443862D01*
X143330289Y-119596931D01*
X143330273Y-119596942D01*
X143087395Y-119783309D01*
X143087388Y-119783315D01*
X142870915Y-119999788D01*
X142870909Y-119999795D01*
X142684542Y-120242673D01*
X142684531Y-120242689D01*
X142531462Y-120507810D01*
X142531454Y-120507826D01*
X142414302Y-120790659D01*
X142335060Y-121086392D01*
X142295101Y-121389913D01*
X142295100Y-121389929D01*
X141626100Y-121389929D01*
X141626100Y-121389923D01*
X141586139Y-121086389D01*
X141506900Y-120790667D01*
X141506897Y-120790659D01*
X141389745Y-120507826D01*
X141389737Y-120507810D01*
X141236668Y-120242689D01*
X141236664Y-120242682D01*
X141050289Y-119999794D01*
X141050284Y-119999788D01*
X140833811Y-119783315D01*
X140833804Y-119783309D01*
X140590926Y-119596942D01*
X140590924Y-119596940D01*
X140590918Y-119596936D01*
X140590913Y-119596933D01*
X140590910Y-119596931D01*
X140325789Y-119443862D01*
X140325773Y-119443854D01*
X140042940Y-119326702D01*
X139972061Y-119307710D01*
X139747211Y-119247461D01*
X139747210Y-119247460D01*
X139747207Y-119247460D01*
X139443686Y-119207501D01*
X139443683Y-119207500D01*
X139443677Y-119207500D01*
X139137523Y-119207500D01*
X139137517Y-119207500D01*
X139137513Y-119207501D01*
X138833992Y-119247460D01*
X138538259Y-119326702D01*
X138255426Y-119443854D01*
X138255410Y-119443862D01*
X137990289Y-119596931D01*
X137990273Y-119596942D01*
X137747395Y-119783309D01*
X137747388Y-119783315D01*
X137530915Y-119999788D01*
X137530909Y-119999795D01*
X137344542Y-120242673D01*
X137344531Y-120242689D01*
X137191462Y-120507810D01*
X137191454Y-120507826D01*
X137074302Y-120790659D01*
X137074300Y-120790667D01*
X137016469Y-121006496D01*
X137013075Y-121019162D01*
X136976710Y-121078822D01*
X136913863Y-121109351D01*
X136844487Y-121101056D01*
X136790609Y-121056571D01*
X136773525Y-121019162D01*
X136712300Y-120790667D01*
X136712297Y-120790659D01*
X136595145Y-120507826D01*
X136595137Y-120507810D01*
X136442068Y-120242689D01*
X136442064Y-120242682D01*
X136255689Y-119999794D01*
X136255684Y-119999788D01*
X136039211Y-119783315D01*
X136039204Y-119783309D01*
X135796326Y-119596942D01*
X135796324Y-119596940D01*
X135796318Y-119596936D01*
X135796313Y-119596933D01*
X135796310Y-119596931D01*
X135531189Y-119443862D01*
X135531173Y-119443854D01*
X135248340Y-119326702D01*
X135177461Y-119307710D01*
X134952611Y-119247461D01*
X134952610Y-119247460D01*
X134952607Y-119247460D01*
X134649086Y-119207501D01*
X134649083Y-119207500D01*
X134649077Y-119207500D01*
X134342923Y-119207500D01*
X134342917Y-119207500D01*
X134342913Y-119207501D01*
X134039392Y-119247460D01*
X133743659Y-119326702D01*
X133460826Y-119443854D01*
X133460810Y-119443862D01*
X133195689Y-119596931D01*
X133195673Y-119596942D01*
X132952795Y-119783309D01*
X132952788Y-119783315D01*
X132736315Y-119999788D01*
X132736309Y-119999795D01*
X132549942Y-120242673D01*
X132549931Y-120242689D01*
X132396862Y-120507810D01*
X132396854Y-120507826D01*
X132279702Y-120790659D01*
X132200460Y-121086392D01*
X132160501Y-121389913D01*
X132160500Y-121389929D01*
X131491500Y-121389929D01*
X131491500Y-121389923D01*
X131451539Y-121086389D01*
X131372300Y-120790667D01*
X131372297Y-120790659D01*
X131255145Y-120507826D01*
X131255137Y-120507810D01*
X131102068Y-120242689D01*
X131102064Y-120242682D01*
X130915689Y-119999794D01*
X130915684Y-119999788D01*
X130699211Y-119783315D01*
X130699204Y-119783309D01*
X130456326Y-119596942D01*
X130456324Y-119596940D01*
X130456318Y-119596936D01*
X130456313Y-119596933D01*
X130456310Y-119596931D01*
X130191189Y-119443862D01*
X130191173Y-119443854D01*
X129908340Y-119326702D01*
X129837461Y-119307710D01*
X129612611Y-119247461D01*
X129612610Y-119247460D01*
X129612607Y-119247460D01*
X129309086Y-119207501D01*
X129309083Y-119207500D01*
X129309077Y-119207500D01*
X129002923Y-119207500D01*
X129002917Y-119207500D01*
X129002913Y-119207501D01*
X128699392Y-119247460D01*
X128403659Y-119326702D01*
X128120826Y-119443854D01*
X128120810Y-119443862D01*
X127855689Y-119596931D01*
X127855673Y-119596942D01*
X127612795Y-119783309D01*
X127612788Y-119783315D01*
X127396315Y-119999788D01*
X127396309Y-119999795D01*
X127209942Y-120242673D01*
X127209931Y-120242689D01*
X127056862Y-120507810D01*
X127056854Y-120507826D01*
X126939702Y-120790659D01*
X126860460Y-121086392D01*
X126820501Y-121389913D01*
X126820500Y-121389929D01*
X124131500Y-121389929D01*
X124131500Y-121389923D01*
X124091539Y-121086389D01*
X124012300Y-120790667D01*
X124012297Y-120790659D01*
X123895145Y-120507826D01*
X123895137Y-120507810D01*
X123742068Y-120242689D01*
X123742064Y-120242682D01*
X123555689Y-119999794D01*
X123555684Y-119999788D01*
X123339211Y-119783315D01*
X123339204Y-119783309D01*
X123096326Y-119596942D01*
X123096324Y-119596940D01*
X123096318Y-119596936D01*
X123096313Y-119596933D01*
X123096310Y-119596931D01*
X122831189Y-119443862D01*
X122831173Y-119443854D01*
X122548340Y-119326702D01*
X122477461Y-119307710D01*
X122252611Y-119247461D01*
X122252610Y-119247460D01*
X122252607Y-119247460D01*
X121949086Y-119207501D01*
X121949083Y-119207500D01*
X121949077Y-119207500D01*
X121642923Y-119207500D01*
X121642917Y-119207500D01*
X121642913Y-119207501D01*
X121339392Y-119247460D01*
X121043659Y-119326702D01*
X120760826Y-119443854D01*
X120760810Y-119443862D01*
X120495689Y-119596931D01*
X120495673Y-119596942D01*
X120252795Y-119783309D01*
X120252788Y-119783315D01*
X120036315Y-119999788D01*
X120036309Y-119999795D01*
X119849942Y-120242673D01*
X119849931Y-120242689D01*
X119696862Y-120507810D01*
X119696854Y-120507826D01*
X119579702Y-120790659D01*
X119500460Y-121086392D01*
X119460501Y-121389913D01*
X119460500Y-121389929D01*
X118791500Y-121389929D01*
X118791500Y-121389923D01*
X118751539Y-121086389D01*
X118672300Y-120790667D01*
X118672297Y-120790659D01*
X118555145Y-120507826D01*
X118555137Y-120507810D01*
X118402068Y-120242689D01*
X118402064Y-120242682D01*
X118215689Y-119999794D01*
X118215684Y-119999788D01*
X117999211Y-119783315D01*
X117999204Y-119783309D01*
X117756326Y-119596942D01*
X117756324Y-119596940D01*
X117756318Y-119596936D01*
X117756313Y-119596933D01*
X117756310Y-119596931D01*
X117491189Y-119443862D01*
X117491173Y-119443854D01*
X117208340Y-119326702D01*
X117137461Y-119307710D01*
X116912611Y-119247461D01*
X116912610Y-119247460D01*
X116912607Y-119247460D01*
X116609086Y-119207501D01*
X116609083Y-119207500D01*
X116609077Y-119207500D01*
X116302923Y-119207500D01*
X116302917Y-119207500D01*
X116302913Y-119207501D01*
X115999392Y-119247460D01*
X115703659Y-119326702D01*
X115420826Y-119443854D01*
X115420810Y-119443862D01*
X115155689Y-119596931D01*
X115155673Y-119596942D01*
X114912795Y-119783309D01*
X114912788Y-119783315D01*
X114696315Y-119999788D01*
X114696309Y-119999795D01*
X114509942Y-120242673D01*
X114509931Y-120242689D01*
X114356862Y-120507810D01*
X114356854Y-120507826D01*
X114239702Y-120790659D01*
X114239700Y-120790667D01*
X114165774Y-121066560D01*
X114129410Y-121126219D01*
X114066563Y-121156748D01*
X113997187Y-121148453D01*
X113943309Y-121103968D01*
X113926226Y-121066561D01*
X113852300Y-120790667D01*
X113852297Y-120790659D01*
X113735145Y-120507826D01*
X113735137Y-120507810D01*
X113582068Y-120242689D01*
X113582064Y-120242682D01*
X113395689Y-119999794D01*
X113395684Y-119999788D01*
X113179211Y-119783315D01*
X113179204Y-119783309D01*
X112936326Y-119596942D01*
X112936324Y-119596940D01*
X112936318Y-119596936D01*
X112936313Y-119596933D01*
X112936310Y-119596931D01*
X112671189Y-119443862D01*
X112671173Y-119443854D01*
X112388340Y-119326702D01*
X112317461Y-119307710D01*
X112092611Y-119247461D01*
X112092610Y-119247460D01*
X112092607Y-119247460D01*
X111789086Y-119207501D01*
X111789083Y-119207500D01*
X111789077Y-119207500D01*
X111482923Y-119207500D01*
X111482917Y-119207500D01*
X111482913Y-119207501D01*
X111179392Y-119247460D01*
X110883659Y-119326702D01*
X110600826Y-119443854D01*
X110600810Y-119443862D01*
X110335689Y-119596931D01*
X110335673Y-119596942D01*
X110092795Y-119783309D01*
X110092788Y-119783315D01*
X109876315Y-119999788D01*
X109876309Y-119999795D01*
X109689942Y-120242673D01*
X109689931Y-120242689D01*
X109536862Y-120507810D01*
X109536854Y-120507826D01*
X109419702Y-120790659D01*
X109340460Y-121086392D01*
X109300501Y-121389913D01*
X109300500Y-121389929D01*
X108631500Y-121389929D01*
X108631500Y-121389923D01*
X108591539Y-121086389D01*
X108512300Y-120790667D01*
X108512297Y-120790659D01*
X108395145Y-120507826D01*
X108395137Y-120507810D01*
X108242068Y-120242689D01*
X108242064Y-120242682D01*
X108055689Y-119999794D01*
X108055684Y-119999788D01*
X107839211Y-119783315D01*
X107839204Y-119783309D01*
X107596326Y-119596942D01*
X107596324Y-119596940D01*
X107596318Y-119596936D01*
X107596313Y-119596933D01*
X107596310Y-119596931D01*
X107331189Y-119443862D01*
X107331173Y-119443854D01*
X107048340Y-119326702D01*
X106977461Y-119307710D01*
X106752611Y-119247461D01*
X106752610Y-119247460D01*
X106752607Y-119247460D01*
X106449086Y-119207501D01*
X106449083Y-119207500D01*
X106449077Y-119207500D01*
X106142923Y-119207500D01*
X106142917Y-119207500D01*
X106142913Y-119207501D01*
X105839392Y-119247460D01*
X105543659Y-119326702D01*
X105260826Y-119443854D01*
X105260810Y-119443862D01*
X104995689Y-119596931D01*
X104995673Y-119596942D01*
X104752795Y-119783309D01*
X104752788Y-119783315D01*
X104536315Y-119999788D01*
X104536309Y-119999795D01*
X104349942Y-120242673D01*
X104349931Y-120242689D01*
X104196862Y-120507810D01*
X104196854Y-120507826D01*
X104079702Y-120790659D01*
X104000460Y-121086392D01*
X103960501Y-121389913D01*
X103960500Y-121389929D01*
X94056897Y-121389929D01*
X94112805Y-121312978D01*
X94112806Y-121312977D01*
X94117795Y-121306108D01*
X94122366Y-121299818D01*
X94212298Y-121123317D01*
X94273512Y-120934920D01*
X94282324Y-120879283D01*
X94304500Y-120739271D01*
X94304500Y-120541168D01*
X94273512Y-120345519D01*
X94212296Y-120157118D01*
X94133902Y-120003263D01*
X94122366Y-119980622D01*
X94005930Y-119820362D01*
X93865858Y-119680290D01*
X93705598Y-119563854D01*
X93542408Y-119480704D01*
X93491613Y-119432730D01*
X93474818Y-119364909D01*
X93497355Y-119298774D01*
X93542409Y-119259735D01*
X93566500Y-119247460D01*
X93705598Y-119176586D01*
X93865858Y-119060150D01*
X94005930Y-118920078D01*
X94122366Y-118759818D01*
X94212298Y-118583317D01*
X94273512Y-118394920D01*
X94304500Y-118199271D01*
X94304500Y-118001168D01*
X94273512Y-117805519D01*
X94212296Y-117617118D01*
X94122365Y-117440621D01*
X94005930Y-117280362D01*
X93865858Y-117140290D01*
X93705598Y-117023854D01*
X93529101Y-116933923D01*
X93340700Y-116872707D01*
X93145051Y-116841720D01*
X93145046Y-116841720D01*
X92946954Y-116841720D01*
X92946949Y-116841720D01*
X92751299Y-116872707D01*
X92562898Y-116933923D01*
X92386401Y-117023854D01*
X92294967Y-117090285D01*
X92226142Y-117140290D01*
X92226140Y-117140292D01*
X92226139Y-117140292D01*
X92086072Y-117280359D01*
X92086072Y-117280360D01*
X92086070Y-117280362D01*
X92036065Y-117349187D01*
X91969634Y-117440621D01*
X91879703Y-117617118D01*
X91818487Y-117805519D01*
X91787500Y-118001168D01*
X88304500Y-118001168D01*
X88273512Y-117805519D01*
X88212296Y-117617118D01*
X88122365Y-117440621D01*
X88005930Y-117280362D01*
X87865858Y-117140290D01*
X87705598Y-117023854D01*
X87529101Y-116933923D01*
X87340700Y-116872707D01*
X87145051Y-116841720D01*
X87145046Y-116841720D01*
X86946954Y-116841720D01*
X86946949Y-116841720D01*
X86751299Y-116872707D01*
X86562898Y-116933923D01*
X86386401Y-117023854D01*
X86294967Y-117090285D01*
X86226142Y-117140290D01*
X86226140Y-117140292D01*
X86226139Y-117140292D01*
X86086072Y-117280359D01*
X86086072Y-117280360D01*
X86086070Y-117280362D01*
X86036065Y-117349187D01*
X85969634Y-117440621D01*
X85879703Y-117617118D01*
X85818487Y-117805519D01*
X85787500Y-118001168D01*
X82304500Y-118001168D01*
X82273512Y-117805519D01*
X82212296Y-117617118D01*
X82122365Y-117440621D01*
X82005930Y-117280362D01*
X81865858Y-117140290D01*
X81705598Y-117023854D01*
X81529101Y-116933923D01*
X81340700Y-116872707D01*
X81145051Y-116841720D01*
X81145046Y-116841720D01*
X80946954Y-116841720D01*
X80946949Y-116841720D01*
X80751299Y-116872707D01*
X80562898Y-116933923D01*
X80386401Y-117023854D01*
X80294967Y-117090285D01*
X80226142Y-117140290D01*
X80226140Y-117140292D01*
X80226139Y-117140292D01*
X80086072Y-117280359D01*
X80086072Y-117280360D01*
X80086070Y-117280362D01*
X80036065Y-117349187D01*
X79969634Y-117440621D01*
X79879703Y-117617118D01*
X79818487Y-117805519D01*
X79787500Y-118001168D01*
X55557059Y-118001168D01*
X55555779Y-114916950D01*
X80708000Y-114916950D01*
X80708000Y-115054649D01*
X80734860Y-115189683D01*
X80734863Y-115189695D01*
X80787551Y-115316896D01*
X80787552Y-115316898D01*
X80864050Y-115431385D01*
X80864053Y-115431389D01*
X80961410Y-115528746D01*
X80961414Y-115528749D01*
X81075899Y-115605246D01*
X81075900Y-115605246D01*
X81075901Y-115605247D01*
X81075903Y-115605248D01*
X81157024Y-115638849D01*
X81203109Y-115657938D01*
X81338150Y-115684799D01*
X81338154Y-115684800D01*
X81338155Y-115684800D01*
X81475846Y-115684800D01*
X81475847Y-115684799D01*
X81610891Y-115657938D01*
X81738101Y-115605246D01*
X81852586Y-115528749D01*
X81880185Y-115501150D01*
X86778600Y-115501150D01*
X86778600Y-115638849D01*
X86805460Y-115773883D01*
X86805463Y-115773895D01*
X86858151Y-115901096D01*
X86858152Y-115901098D01*
X86934650Y-116015585D01*
X86934653Y-116015589D01*
X87032010Y-116112946D01*
X87032014Y-116112949D01*
X87146499Y-116189446D01*
X87146500Y-116189446D01*
X87146501Y-116189447D01*
X87146503Y-116189448D01*
X87273704Y-116242136D01*
X87273709Y-116242138D01*
X87408750Y-116268999D01*
X87408754Y-116269000D01*
X87408755Y-116269000D01*
X87546446Y-116269000D01*
X87546447Y-116268999D01*
X87681491Y-116242138D01*
X87808701Y-116189446D01*
X87923186Y-116112949D01*
X88020549Y-116015586D01*
X88097046Y-115901101D01*
X88149738Y-115773891D01*
X88176600Y-115638845D01*
X88176600Y-115501155D01*
X88176599Y-115501150D01*
X92773000Y-115501150D01*
X92773000Y-115638849D01*
X92799860Y-115773883D01*
X92799863Y-115773895D01*
X92852551Y-115901096D01*
X92852552Y-115901098D01*
X92929050Y-116015585D01*
X92929053Y-116015589D01*
X93026410Y-116112946D01*
X93026414Y-116112949D01*
X93140899Y-116189446D01*
X93140900Y-116189446D01*
X93140901Y-116189447D01*
X93140903Y-116189448D01*
X93268104Y-116242136D01*
X93268109Y-116242138D01*
X93403150Y-116268999D01*
X93403154Y-116269000D01*
X93403155Y-116269000D01*
X93540846Y-116269000D01*
X93540847Y-116268999D01*
X93675891Y-116242138D01*
X93803101Y-116189446D01*
X93917586Y-116112949D01*
X94014949Y-116015586D01*
X94091446Y-115901101D01*
X94144138Y-115773891D01*
X94171000Y-115638845D01*
X94171000Y-115501155D01*
X94144138Y-115366109D01*
X94144136Y-115366104D01*
X94091448Y-115238903D01*
X94091447Y-115238901D01*
X94058560Y-115189683D01*
X94014949Y-115124414D01*
X94014946Y-115124410D01*
X93917589Y-115027053D01*
X93917585Y-115027050D01*
X93803098Y-114950552D01*
X93803096Y-114950551D01*
X93675895Y-114897863D01*
X93675883Y-114897860D01*
X93540849Y-114871000D01*
X93540845Y-114871000D01*
X93403155Y-114871000D01*
X93403150Y-114871000D01*
X93268116Y-114897860D01*
X93268104Y-114897863D01*
X93140903Y-114950551D01*
X93140901Y-114950552D01*
X93026414Y-115027050D01*
X93026410Y-115027053D01*
X92929053Y-115124410D01*
X92929050Y-115124414D01*
X92852552Y-115238901D01*
X92852551Y-115238903D01*
X92799863Y-115366104D01*
X92799860Y-115366116D01*
X92773000Y-115501150D01*
X88176599Y-115501150D01*
X88149738Y-115366109D01*
X88149736Y-115366104D01*
X88097048Y-115238903D01*
X88097047Y-115238901D01*
X88064160Y-115189683D01*
X88020549Y-115124414D01*
X88020546Y-115124410D01*
X87923189Y-115027053D01*
X87923185Y-115027050D01*
X87808698Y-114950552D01*
X87808696Y-114950551D01*
X87681495Y-114897863D01*
X87681483Y-114897860D01*
X87546449Y-114871000D01*
X87546445Y-114871000D01*
X87408755Y-114871000D01*
X87408750Y-114871000D01*
X87273716Y-114897860D01*
X87273704Y-114897863D01*
X87146503Y-114950551D01*
X87146501Y-114950552D01*
X87032014Y-115027050D01*
X87032010Y-115027053D01*
X86934653Y-115124410D01*
X86934650Y-115124414D01*
X86858152Y-115238901D01*
X86858151Y-115238903D01*
X86805463Y-115366104D01*
X86805460Y-115366116D01*
X86778600Y-115501150D01*
X81880185Y-115501150D01*
X81949949Y-115431386D01*
X82026446Y-115316901D01*
X82079138Y-115189691D01*
X82106000Y-115054645D01*
X82106000Y-114916955D01*
X82079138Y-114781909D01*
X82026446Y-114654699D01*
X81949949Y-114540214D01*
X81949946Y-114540210D01*
X81852589Y-114442853D01*
X81852585Y-114442850D01*
X81738098Y-114366352D01*
X81738096Y-114366351D01*
X81610895Y-114313663D01*
X81610883Y-114313660D01*
X81475849Y-114286800D01*
X81475845Y-114286800D01*
X81338155Y-114286800D01*
X81338150Y-114286800D01*
X81203116Y-114313660D01*
X81203104Y-114313663D01*
X81075903Y-114366351D01*
X81075901Y-114366352D01*
X80961414Y-114442850D01*
X80961410Y-114442853D01*
X80864053Y-114540210D01*
X80864050Y-114540214D01*
X80787552Y-114654701D01*
X80787551Y-114654703D01*
X80734863Y-114781904D01*
X80734860Y-114781916D01*
X80708000Y-114916950D01*
X55555779Y-114916950D01*
X55554967Y-112961150D01*
X88632800Y-112961150D01*
X88632800Y-113098849D01*
X88659660Y-113233883D01*
X88659663Y-113233895D01*
X88712351Y-113361096D01*
X88712352Y-113361098D01*
X88788850Y-113475585D01*
X88788853Y-113475589D01*
X88886210Y-113572946D01*
X88886214Y-113572949D01*
X89000699Y-113649446D01*
X89000700Y-113649446D01*
X89000701Y-113649447D01*
X89000703Y-113649448D01*
X89127904Y-113702136D01*
X89127909Y-113702138D01*
X89262950Y-113728999D01*
X89262954Y-113729000D01*
X89262955Y-113729000D01*
X89400646Y-113729000D01*
X89400647Y-113728999D01*
X89535691Y-113702138D01*
X89662901Y-113649446D01*
X89777386Y-113572949D01*
X89874749Y-113475586D01*
X89951246Y-113361101D01*
X90003938Y-113233891D01*
X90030800Y-113098845D01*
X90030800Y-112961155D01*
X90003938Y-112826109D01*
X89998510Y-112813005D01*
X106552500Y-112813005D01*
X106552500Y-112992994D01*
X106580657Y-113170771D01*
X106636275Y-113341949D01*
X106636276Y-113341952D01*
X106704366Y-113475585D01*
X106717991Y-113502325D01*
X106823787Y-113647940D01*
X106951060Y-113775213D01*
X107096675Y-113881009D01*
X107175333Y-113921087D01*
X107257047Y-113962723D01*
X107257050Y-113962724D01*
X107342639Y-113990533D01*
X107428230Y-114018343D01*
X107606005Y-114046500D01*
X107606006Y-114046500D01*
X107785994Y-114046500D01*
X107785995Y-114046500D01*
X107963770Y-114018343D01*
X108134952Y-113962723D01*
X108295325Y-113881009D01*
X108440940Y-113775213D01*
X108568213Y-113647940D01*
X108674009Y-113502325D01*
X108755723Y-113341952D01*
X108811343Y-113170770D01*
X108839500Y-112992995D01*
X108839500Y-112813005D01*
X108811343Y-112635230D01*
X108755723Y-112464048D01*
X108755723Y-112464047D01*
X108701619Y-112357863D01*
X108674009Y-112303675D01*
X108568213Y-112158060D01*
X108440940Y-112030787D01*
X108383326Y-111988928D01*
X109092500Y-111988928D01*
X109092500Y-113817063D01*
X109107266Y-113891301D01*
X109163515Y-113975484D01*
X109197234Y-113998014D01*
X109247699Y-114031734D01*
X109247702Y-114031734D01*
X109247703Y-114031735D01*
X109272666Y-114036700D01*
X109321933Y-114046500D01*
X111150066Y-114046499D01*
X111224301Y-114031734D01*
X111308484Y-113975484D01*
X111364734Y-113891301D01*
X111379500Y-113817067D01*
X111379499Y-112813005D01*
X116712500Y-112813005D01*
X116712500Y-112992994D01*
X116740657Y-113170771D01*
X116796275Y-113341949D01*
X116796276Y-113341952D01*
X116864366Y-113475585D01*
X116877991Y-113502325D01*
X116983787Y-113647940D01*
X117111060Y-113775213D01*
X117256675Y-113881009D01*
X117335333Y-113921087D01*
X117417047Y-113962723D01*
X117417050Y-113962724D01*
X117502639Y-113990533D01*
X117588230Y-114018343D01*
X117766005Y-114046500D01*
X117766006Y-114046500D01*
X117945994Y-114046500D01*
X117945995Y-114046500D01*
X118123770Y-114018343D01*
X118294952Y-113962723D01*
X118455325Y-113881009D01*
X118600940Y-113775213D01*
X118728213Y-113647940D01*
X118834009Y-113502325D01*
X118915723Y-113341952D01*
X118971343Y-113170770D01*
X118999500Y-112992995D01*
X118999500Y-112813005D01*
X118971343Y-112635230D01*
X118915723Y-112464048D01*
X118915723Y-112464047D01*
X118861619Y-112357863D01*
X118834009Y-112303675D01*
X118728213Y-112158060D01*
X118600940Y-112030787D01*
X118543326Y-111988928D01*
X119252500Y-111988928D01*
X119252500Y-113817063D01*
X119267266Y-113891301D01*
X119323515Y-113975484D01*
X119357234Y-113998014D01*
X119407699Y-114031734D01*
X119407702Y-114031734D01*
X119407703Y-114031735D01*
X119432666Y-114036700D01*
X119481933Y-114046500D01*
X121310066Y-114046499D01*
X121384301Y-114031734D01*
X121468484Y-113975484D01*
X121524734Y-113891301D01*
X121539500Y-113817067D01*
X121539499Y-112813005D01*
X129412500Y-112813005D01*
X129412500Y-112992994D01*
X129440657Y-113170771D01*
X129496275Y-113341949D01*
X129496276Y-113341952D01*
X129564366Y-113475585D01*
X129577991Y-113502325D01*
X129683787Y-113647940D01*
X129811060Y-113775213D01*
X129956675Y-113881009D01*
X130035333Y-113921087D01*
X130117047Y-113962723D01*
X130117050Y-113962724D01*
X130202639Y-113990533D01*
X130288230Y-114018343D01*
X130466005Y-114046500D01*
X130466006Y-114046500D01*
X130645994Y-114046500D01*
X130645995Y-114046500D01*
X130823770Y-114018343D01*
X130994952Y-113962723D01*
X131155325Y-113881009D01*
X131300940Y-113775213D01*
X131428213Y-113647940D01*
X131534009Y-113502325D01*
X131615723Y-113341952D01*
X131671343Y-113170770D01*
X131699500Y-112992995D01*
X131699500Y-112813005D01*
X131671343Y-112635230D01*
X131615723Y-112464048D01*
X131615723Y-112464047D01*
X131561619Y-112357863D01*
X131534009Y-112303675D01*
X131428213Y-112158060D01*
X131300940Y-112030787D01*
X131243326Y-111988928D01*
X131952500Y-111988928D01*
X131952500Y-113817063D01*
X131967266Y-113891301D01*
X132023515Y-113975484D01*
X132057234Y-113998014D01*
X132107699Y-114031734D01*
X132107702Y-114031734D01*
X132107703Y-114031735D01*
X132132666Y-114036700D01*
X132181933Y-114046500D01*
X134010066Y-114046499D01*
X134084301Y-114031734D01*
X134168484Y-113975484D01*
X134224734Y-113891301D01*
X134239500Y-113817067D01*
X134239499Y-112813005D01*
X139547100Y-112813005D01*
X139547100Y-112992994D01*
X139575257Y-113170771D01*
X139630875Y-113341949D01*
X139630876Y-113341952D01*
X139698966Y-113475585D01*
X139712591Y-113502325D01*
X139818387Y-113647940D01*
X139945660Y-113775213D01*
X140091275Y-113881009D01*
X140169933Y-113921087D01*
X140251647Y-113962723D01*
X140251650Y-113962724D01*
X140337239Y-113990533D01*
X140422830Y-114018343D01*
X140600605Y-114046500D01*
X140600606Y-114046500D01*
X140780594Y-114046500D01*
X140780595Y-114046500D01*
X140958370Y-114018343D01*
X141129552Y-113962723D01*
X141289925Y-113881009D01*
X141435540Y-113775213D01*
X141562813Y-113647940D01*
X141668609Y-113502325D01*
X141750323Y-113341952D01*
X141805943Y-113170770D01*
X141834100Y-112992995D01*
X141834100Y-112813005D01*
X141805943Y-112635230D01*
X141750323Y-112464048D01*
X141750323Y-112464047D01*
X141696219Y-112357863D01*
X141668609Y-112303675D01*
X141562813Y-112158060D01*
X141435540Y-112030787D01*
X141377926Y-111988928D01*
X142087100Y-111988928D01*
X142087100Y-113817063D01*
X142101866Y-113891301D01*
X142158115Y-113975484D01*
X142191834Y-113998014D01*
X142242299Y-114031734D01*
X142242302Y-114031734D01*
X142242303Y-114031735D01*
X142267266Y-114036700D01*
X142316533Y-114046500D01*
X144144666Y-114046499D01*
X144218901Y-114031734D01*
X144303084Y-113975484D01*
X144359334Y-113891301D01*
X144374100Y-113817067D01*
X144374099Y-111988934D01*
X144359334Y-111914699D01*
X144311611Y-111843277D01*
X144303084Y-111830515D01*
X144252619Y-111796796D01*
X144218901Y-111774266D01*
X144218899Y-111774265D01*
X144218896Y-111774264D01*
X144144669Y-111759500D01*
X142316536Y-111759500D01*
X142242298Y-111774266D01*
X142158115Y-111830515D01*
X142101866Y-111914699D01*
X142101864Y-111914703D01*
X142087100Y-111988928D01*
X141377926Y-111988928D01*
X141289925Y-111924991D01*
X141269724Y-111914698D01*
X141129552Y-111843276D01*
X141129549Y-111843275D01*
X140958371Y-111787657D01*
X140869482Y-111773578D01*
X140780595Y-111759500D01*
X140600605Y-111759500D01*
X140541346Y-111768885D01*
X140422828Y-111787657D01*
X140251650Y-111843275D01*
X140251647Y-111843276D01*
X140091274Y-111924991D01*
X140008195Y-111985352D01*
X139945660Y-112030787D01*
X139945658Y-112030789D01*
X139945657Y-112030789D01*
X139818389Y-112158057D01*
X139818389Y-112158058D01*
X139818387Y-112158060D01*
X139772952Y-112220595D01*
X139712591Y-112303674D01*
X139630876Y-112464047D01*
X139630875Y-112464050D01*
X139575257Y-112635228D01*
X139547100Y-112813005D01*
X134239499Y-112813005D01*
X134239499Y-111988934D01*
X134224734Y-111914699D01*
X134177011Y-111843277D01*
X134168484Y-111830515D01*
X134118019Y-111796796D01*
X134084301Y-111774266D01*
X134084299Y-111774265D01*
X134084296Y-111774264D01*
X134010069Y-111759500D01*
X132181936Y-111759500D01*
X132107698Y-111774266D01*
X132023515Y-111830515D01*
X131967266Y-111914699D01*
X131967264Y-111914703D01*
X131952500Y-111988928D01*
X131243326Y-111988928D01*
X131155325Y-111924991D01*
X131135124Y-111914698D01*
X130994952Y-111843276D01*
X130994949Y-111843275D01*
X130823771Y-111787657D01*
X130734882Y-111773578D01*
X130645995Y-111759500D01*
X130466005Y-111759500D01*
X130406746Y-111768885D01*
X130288228Y-111787657D01*
X130117050Y-111843275D01*
X130117047Y-111843276D01*
X129956674Y-111924991D01*
X129873595Y-111985352D01*
X129811060Y-112030787D01*
X129811058Y-112030789D01*
X129811057Y-112030789D01*
X129683789Y-112158057D01*
X129683789Y-112158058D01*
X129683787Y-112158060D01*
X129638352Y-112220595D01*
X129577991Y-112303674D01*
X129496276Y-112464047D01*
X129496275Y-112464050D01*
X129440657Y-112635228D01*
X129412500Y-112813005D01*
X121539499Y-112813005D01*
X121539499Y-111988934D01*
X121524734Y-111914699D01*
X121477011Y-111843277D01*
X121468484Y-111830515D01*
X121418019Y-111796796D01*
X121384301Y-111774266D01*
X121384299Y-111774265D01*
X121384296Y-111774264D01*
X121310069Y-111759500D01*
X119481936Y-111759500D01*
X119407698Y-111774266D01*
X119323515Y-111830515D01*
X119267266Y-111914699D01*
X119267264Y-111914703D01*
X119252500Y-111988928D01*
X118543326Y-111988928D01*
X118455325Y-111924991D01*
X118435124Y-111914698D01*
X118294952Y-111843276D01*
X118294949Y-111843275D01*
X118123771Y-111787657D01*
X118034882Y-111773578D01*
X117945995Y-111759500D01*
X117766005Y-111759500D01*
X117706746Y-111768885D01*
X117588228Y-111787657D01*
X117417050Y-111843275D01*
X117417047Y-111843276D01*
X117256674Y-111924991D01*
X117173595Y-111985352D01*
X117111060Y-112030787D01*
X117111058Y-112030789D01*
X117111057Y-112030789D01*
X116983789Y-112158057D01*
X116983789Y-112158058D01*
X116983787Y-112158060D01*
X116938352Y-112220595D01*
X116877991Y-112303674D01*
X116796276Y-112464047D01*
X116796275Y-112464050D01*
X116740657Y-112635228D01*
X116712500Y-112813005D01*
X111379499Y-112813005D01*
X111379499Y-111988934D01*
X111364734Y-111914699D01*
X111317011Y-111843277D01*
X111308484Y-111830515D01*
X111258019Y-111796796D01*
X111224301Y-111774266D01*
X111224299Y-111774265D01*
X111224296Y-111774264D01*
X111150069Y-111759500D01*
X109321936Y-111759500D01*
X109247698Y-111774266D01*
X109163515Y-111830515D01*
X109107266Y-111914699D01*
X109107264Y-111914703D01*
X109092500Y-111988928D01*
X108383326Y-111988928D01*
X108295325Y-111924991D01*
X108275124Y-111914698D01*
X108134952Y-111843276D01*
X108134949Y-111843275D01*
X107963771Y-111787657D01*
X107874882Y-111773578D01*
X107785995Y-111759500D01*
X107606005Y-111759500D01*
X107546746Y-111768885D01*
X107428228Y-111787657D01*
X107257050Y-111843275D01*
X107257047Y-111843276D01*
X107096674Y-111924991D01*
X107013595Y-111985352D01*
X106951060Y-112030787D01*
X106951058Y-112030789D01*
X106951057Y-112030789D01*
X106823789Y-112158057D01*
X106823789Y-112158058D01*
X106823787Y-112158060D01*
X106778352Y-112220595D01*
X106717991Y-112303674D01*
X106636276Y-112464047D01*
X106636275Y-112464050D01*
X106580657Y-112635228D01*
X106552500Y-112813005D01*
X89998510Y-112813005D01*
X89951246Y-112698899D01*
X89874749Y-112584414D01*
X89874746Y-112584410D01*
X89777389Y-112487053D01*
X89777385Y-112487050D01*
X89662898Y-112410552D01*
X89662896Y-112410551D01*
X89535695Y-112357863D01*
X89535683Y-112357860D01*
X89400649Y-112331000D01*
X89400645Y-112331000D01*
X89262955Y-112331000D01*
X89262950Y-112331000D01*
X89127916Y-112357860D01*
X89127904Y-112357863D01*
X89000703Y-112410551D01*
X89000701Y-112410552D01*
X88886214Y-112487050D01*
X88886210Y-112487053D01*
X88788853Y-112584410D01*
X88788850Y-112584414D01*
X88712352Y-112698901D01*
X88712351Y-112698903D01*
X88659663Y-112826104D01*
X88659660Y-112826116D01*
X88632800Y-112961150D01*
X55554967Y-112961150D01*
X55553269Y-108869855D01*
X64014500Y-108869855D01*
X64014500Y-109130144D01*
X64026546Y-109221635D01*
X64048473Y-109388183D01*
X64115836Y-109639586D01*
X64115839Y-109639596D01*
X64215436Y-109880044D01*
X64215441Y-109880055D01*
X64345570Y-110105443D01*
X64345581Y-110105459D01*
X64504017Y-110311938D01*
X64504023Y-110311945D01*
X64688054Y-110495976D01*
X64688060Y-110495981D01*
X64894549Y-110654425D01*
X64894556Y-110654429D01*
X65119944Y-110784558D01*
X65119949Y-110784560D01*
X65119952Y-110784562D01*
X65360413Y-110884164D01*
X65611817Y-110951527D01*
X65869863Y-110985500D01*
X65869870Y-110985500D01*
X66130130Y-110985500D01*
X66130137Y-110985500D01*
X66388183Y-110951527D01*
X66639587Y-110884164D01*
X66880048Y-110784562D01*
X67105451Y-110654425D01*
X67311940Y-110495981D01*
X67495981Y-110311940D01*
X67654425Y-110105451D01*
X67784562Y-109880048D01*
X67884164Y-109639587D01*
X67887193Y-109628283D01*
X110980100Y-109628283D01*
X110980100Y-109776916D01*
X111009093Y-109922672D01*
X111009095Y-109922680D01*
X111065971Y-110059991D01*
X111148539Y-110183564D01*
X111148545Y-110183571D01*
X111253628Y-110288654D01*
X111253635Y-110288660D01*
X111377208Y-110371228D01*
X111377209Y-110371228D01*
X111377210Y-110371229D01*
X111514520Y-110428105D01*
X111660283Y-110457099D01*
X111660287Y-110457100D01*
X111660288Y-110457100D01*
X111808913Y-110457100D01*
X111808914Y-110457099D01*
X111954680Y-110428105D01*
X112091990Y-110371229D01*
X112215566Y-110288659D01*
X112320659Y-110183566D01*
X112403229Y-110059990D01*
X112460105Y-109922680D01*
X112489100Y-109776912D01*
X112489100Y-109628288D01*
X112486466Y-109615048D01*
X112484046Y-109602883D01*
X134246500Y-109602883D01*
X134246500Y-109751516D01*
X134275493Y-109897272D01*
X134275495Y-109897280D01*
X134332371Y-110034591D01*
X134414939Y-110158164D01*
X134414945Y-110158171D01*
X134520028Y-110263254D01*
X134520035Y-110263260D01*
X134643608Y-110345828D01*
X134643609Y-110345828D01*
X134643610Y-110345829D01*
X134780920Y-110402705D01*
X134908610Y-110428104D01*
X134926683Y-110431699D01*
X134926687Y-110431700D01*
X134926688Y-110431700D01*
X135075313Y-110431700D01*
X135075314Y-110431699D01*
X135221080Y-110402705D01*
X135358390Y-110345829D01*
X135481966Y-110263259D01*
X135587059Y-110158166D01*
X135669629Y-110034590D01*
X135726505Y-109897280D01*
X135755500Y-109751512D01*
X135755500Y-109602888D01*
X135726505Y-109457120D01*
X135669629Y-109319810D01*
X135662673Y-109309400D01*
X135587060Y-109196235D01*
X135587054Y-109196228D01*
X135481971Y-109091145D01*
X135481964Y-109091139D01*
X135358391Y-109008571D01*
X135358392Y-109008571D01*
X135302354Y-108985360D01*
X135221080Y-108951695D01*
X135221072Y-108951693D01*
X135075316Y-108922700D01*
X135075312Y-108922700D01*
X134926688Y-108922700D01*
X134926683Y-108922700D01*
X134780927Y-108951693D01*
X134780919Y-108951695D01*
X134643608Y-109008571D01*
X134520035Y-109091139D01*
X134520028Y-109091145D01*
X134414945Y-109196228D01*
X134414939Y-109196235D01*
X134332371Y-109319808D01*
X134275495Y-109457119D01*
X134275493Y-109457127D01*
X134246500Y-109602883D01*
X112484046Y-109602883D01*
X112460106Y-109482527D01*
X112460105Y-109482520D01*
X112403229Y-109345210D01*
X112386257Y-109319810D01*
X112320660Y-109221635D01*
X112320654Y-109221628D01*
X112215571Y-109116545D01*
X112215564Y-109116539D01*
X112091991Y-109033971D01*
X111954680Y-108977095D01*
X111954672Y-108977093D01*
X111808916Y-108948100D01*
X111808912Y-108948100D01*
X111660288Y-108948100D01*
X111660283Y-108948100D01*
X111514527Y-108977093D01*
X111514519Y-108977095D01*
X111377208Y-109033971D01*
X111253635Y-109116539D01*
X111253628Y-109116545D01*
X111148545Y-109221628D01*
X111148539Y-109221635D01*
X111065971Y-109345208D01*
X111009095Y-109482519D01*
X111009093Y-109482527D01*
X110980100Y-109628283D01*
X67887193Y-109628283D01*
X67951527Y-109388183D01*
X67985500Y-109130137D01*
X67985500Y-108869863D01*
X67951527Y-108611817D01*
X67932699Y-108541550D01*
X125310400Y-108541550D01*
X125310400Y-108679249D01*
X125337260Y-108814283D01*
X125337263Y-108814293D01*
X125389951Y-108941496D01*
X125389952Y-108941498D01*
X125466450Y-109055985D01*
X125466453Y-109055989D01*
X125563810Y-109153346D01*
X125563814Y-109153349D01*
X125678299Y-109229846D01*
X125678300Y-109229846D01*
X125678301Y-109229847D01*
X125678303Y-109229848D01*
X125805504Y-109282536D01*
X125805509Y-109282538D01*
X125940550Y-109309399D01*
X125940554Y-109309400D01*
X125940555Y-109309400D01*
X126078246Y-109309400D01*
X126078247Y-109309399D01*
X126213291Y-109282538D01*
X126340501Y-109229846D01*
X126454986Y-109153349D01*
X126552349Y-109055986D01*
X126628846Y-108941501D01*
X126656451Y-108874857D01*
X156090700Y-108874857D01*
X156090700Y-109125142D01*
X156119671Y-109345208D01*
X156123368Y-109373285D01*
X156152637Y-109482519D01*
X156188149Y-109615048D01*
X156283921Y-109846265D01*
X156283926Y-109846274D01*
X156409069Y-110063026D01*
X156409074Y-110063032D01*
X156409075Y-110063034D01*
X156561430Y-110261588D01*
X156561436Y-110261595D01*
X156738404Y-110438563D01*
X156738411Y-110438569D01*
X156879796Y-110547057D01*
X156936974Y-110590931D01*
X157153726Y-110716074D01*
X157153729Y-110716075D01*
X157153734Y-110716078D01*
X157384951Y-110811850D01*
X157384953Y-110811850D01*
X157384959Y-110811853D01*
X157626715Y-110876632D01*
X157812822Y-110901133D01*
X157874857Y-110909300D01*
X157874858Y-110909300D01*
X158125143Y-110909300D01*
X158174770Y-110902766D01*
X158373285Y-110876632D01*
X158615041Y-110811853D01*
X158680938Y-110784558D01*
X158846265Y-110716078D01*
X158846266Y-110716076D01*
X158846274Y-110716074D01*
X159063026Y-110590931D01*
X159261590Y-110438568D01*
X159438568Y-110261590D01*
X159590931Y-110063026D01*
X159716074Y-109846274D01*
X159744805Y-109776912D01*
X159811850Y-109615048D01*
X159811849Y-109615048D01*
X159811853Y-109615041D01*
X159876632Y-109373285D01*
X159909300Y-109125142D01*
X159909300Y-108874858D01*
X159908642Y-108869863D01*
X159883548Y-108679249D01*
X159876632Y-108626715D01*
X159811853Y-108384959D01*
X159801682Y-108360403D01*
X159716078Y-108153734D01*
X159716073Y-108153725D01*
X159696574Y-108119952D01*
X159590931Y-107936974D01*
X159438568Y-107738410D01*
X159438563Y-107738404D01*
X159261595Y-107561436D01*
X159261588Y-107561430D01*
X159063034Y-107409075D01*
X159063032Y-107409074D01*
X159063026Y-107409069D01*
X158846274Y-107283926D01*
X158846265Y-107283921D01*
X158615048Y-107188149D01*
X158546554Y-107169796D01*
X158373285Y-107123368D01*
X158373284Y-107123367D01*
X158373281Y-107123367D01*
X158125143Y-107090700D01*
X158125142Y-107090700D01*
X157874858Y-107090700D01*
X157874857Y-107090700D01*
X157626718Y-107123367D01*
X157384951Y-107188149D01*
X157153734Y-107283921D01*
X157153725Y-107283926D01*
X156936974Y-107409069D01*
X156936965Y-107409075D01*
X156738411Y-107561430D01*
X156738404Y-107561436D01*
X156561436Y-107738404D01*
X156561430Y-107738411D01*
X156409075Y-107936965D01*
X156409069Y-107936974D01*
X156283926Y-108153725D01*
X156283921Y-108153734D01*
X156188149Y-108384951D01*
X156123367Y-108626718D01*
X156090700Y-108874857D01*
X126656451Y-108874857D01*
X126681538Y-108814291D01*
X126708400Y-108679245D01*
X126708400Y-108541555D01*
X126681538Y-108406509D01*
X126672612Y-108384959D01*
X126628848Y-108279303D01*
X126628847Y-108279301D01*
X126552349Y-108164814D01*
X126552346Y-108164810D01*
X126454989Y-108067453D01*
X126454985Y-108067450D01*
X126340498Y-107990952D01*
X126340496Y-107990951D01*
X126213295Y-107938263D01*
X126213283Y-107938260D01*
X126078249Y-107911400D01*
X126078245Y-107911400D01*
X125940555Y-107911400D01*
X125940550Y-107911400D01*
X125805516Y-107938260D01*
X125805504Y-107938263D01*
X125678303Y-107990951D01*
X125678301Y-107990952D01*
X125563814Y-108067450D01*
X125563810Y-108067453D01*
X125466453Y-108164810D01*
X125466450Y-108164814D01*
X125389952Y-108279301D01*
X125389951Y-108279303D01*
X125337263Y-108406504D01*
X125337260Y-108406516D01*
X125310400Y-108541550D01*
X67932699Y-108541550D01*
X67884164Y-108360413D01*
X67784562Y-108119952D01*
X67784560Y-108119949D01*
X67784558Y-108119944D01*
X67654429Y-107894556D01*
X67654425Y-107894549D01*
X67495981Y-107688060D01*
X67495976Y-107688054D01*
X67311945Y-107504023D01*
X67311938Y-107504017D01*
X67105459Y-107345581D01*
X67105457Y-107345579D01*
X67105451Y-107345575D01*
X67105446Y-107345572D01*
X67105443Y-107345570D01*
X66880055Y-107215441D01*
X66880044Y-107215436D01*
X66639596Y-107115839D01*
X66639589Y-107115837D01*
X66639587Y-107115836D01*
X66388183Y-107048473D01*
X66345056Y-107042795D01*
X66130144Y-107014500D01*
X66130137Y-107014500D01*
X65869863Y-107014500D01*
X65869855Y-107014500D01*
X65624240Y-107046837D01*
X65611817Y-107048473D01*
X65522374Y-107072439D01*
X65360413Y-107115836D01*
X65360403Y-107115839D01*
X65119955Y-107215436D01*
X65119944Y-107215441D01*
X64894556Y-107345570D01*
X64894540Y-107345581D01*
X64688061Y-107504017D01*
X64688054Y-107504023D01*
X64504023Y-107688054D01*
X64504017Y-107688061D01*
X64345581Y-107894540D01*
X64345570Y-107894556D01*
X64215441Y-108119944D01*
X64215436Y-108119955D01*
X64115839Y-108360403D01*
X64115836Y-108360413D01*
X64048474Y-108611814D01*
X64048472Y-108611825D01*
X64014500Y-108869855D01*
X55553269Y-108869855D01*
X55552310Y-106558000D01*
X153707600Y-106558000D01*
X153707600Y-106695699D01*
X153734460Y-106830733D01*
X153734463Y-106830745D01*
X153787151Y-106957946D01*
X153787152Y-106957948D01*
X153863650Y-107072435D01*
X153863653Y-107072439D01*
X153961010Y-107169796D01*
X153961014Y-107169799D01*
X154075499Y-107246296D01*
X154075500Y-107246296D01*
X154075501Y-107246297D01*
X154075503Y-107246298D01*
X154166334Y-107283921D01*
X154202709Y-107298988D01*
X154337750Y-107325849D01*
X154337754Y-107325850D01*
X154337755Y-107325850D01*
X154475446Y-107325850D01*
X154475447Y-107325849D01*
X154610491Y-107298988D01*
X154737701Y-107246296D01*
X154852186Y-107169799D01*
X154949549Y-107072436D01*
X155026046Y-106957951D01*
X155078738Y-106830741D01*
X155105600Y-106695695D01*
X155105600Y-106558005D01*
X155078738Y-106422959D01*
X155026046Y-106295749D01*
X154949549Y-106181264D01*
X154949546Y-106181260D01*
X154852189Y-106083903D01*
X154852185Y-106083900D01*
X154737698Y-106007402D01*
X154737696Y-106007401D01*
X154610495Y-105954713D01*
X154610483Y-105954710D01*
X154475449Y-105927850D01*
X154475445Y-105927850D01*
X154337755Y-105927850D01*
X154337750Y-105927850D01*
X154202716Y-105954710D01*
X154202704Y-105954713D01*
X154075503Y-106007401D01*
X154075501Y-106007402D01*
X153961014Y-106083900D01*
X153961010Y-106083903D01*
X153863653Y-106181260D01*
X153863650Y-106181264D01*
X153787152Y-106295751D01*
X153787151Y-106295753D01*
X153734463Y-106422954D01*
X153734460Y-106422966D01*
X153707600Y-106558000D01*
X55552310Y-106558000D01*
X55551794Y-105315750D01*
X101739200Y-105315750D01*
X101739200Y-105453449D01*
X101766060Y-105588483D01*
X101766063Y-105588495D01*
X101818751Y-105715696D01*
X101818752Y-105715698D01*
X101895250Y-105830185D01*
X101895253Y-105830189D01*
X101992610Y-105927546D01*
X101992614Y-105927549D01*
X102107099Y-106004046D01*
X102107100Y-106004046D01*
X102107101Y-106004047D01*
X102107103Y-106004048D01*
X102234304Y-106056736D01*
X102234309Y-106056738D01*
X102369350Y-106083599D01*
X102369354Y-106083600D01*
X102369355Y-106083600D01*
X102507046Y-106083600D01*
X102507047Y-106083599D01*
X102642091Y-106056738D01*
X102769301Y-106004046D01*
X102883786Y-105927549D01*
X102981149Y-105830186D01*
X103057646Y-105715701D01*
X103110338Y-105588491D01*
X103114065Y-105569750D01*
X122008400Y-105569750D01*
X122008400Y-105707449D01*
X122035260Y-105842483D01*
X122035263Y-105842495D01*
X122087951Y-105969696D01*
X122087952Y-105969698D01*
X122164450Y-106084185D01*
X122164453Y-106084189D01*
X122261810Y-106181546D01*
X122261814Y-106181549D01*
X122376299Y-106258046D01*
X122376300Y-106258046D01*
X122376301Y-106258047D01*
X122376303Y-106258048D01*
X122467322Y-106295749D01*
X122503509Y-106310738D01*
X122638550Y-106337599D01*
X122638554Y-106337600D01*
X122638555Y-106337600D01*
X122776246Y-106337600D01*
X122776247Y-106337599D01*
X122911291Y-106310738D01*
X123038501Y-106258046D01*
X123152986Y-106181549D01*
X123250349Y-106084186D01*
X123326846Y-105969701D01*
X123379538Y-105842491D01*
X123406400Y-105707445D01*
X123406400Y-105569755D01*
X123379538Y-105434709D01*
X123330266Y-105315755D01*
X123326848Y-105307503D01*
X123326847Y-105307501D01*
X123250349Y-105193014D01*
X123250346Y-105193010D01*
X123152989Y-105095653D01*
X123152985Y-105095650D01*
X123038498Y-105019152D01*
X123038496Y-105019151D01*
X122911295Y-104966463D01*
X122911283Y-104966460D01*
X122776249Y-104939600D01*
X122776245Y-104939600D01*
X122638555Y-104939600D01*
X122638550Y-104939600D01*
X122503516Y-104966460D01*
X122503504Y-104966463D01*
X122376303Y-105019151D01*
X122376301Y-105019152D01*
X122261814Y-105095650D01*
X122261810Y-105095653D01*
X122164453Y-105193010D01*
X122164450Y-105193014D01*
X122087952Y-105307501D01*
X122087951Y-105307503D01*
X122035263Y-105434704D01*
X122035260Y-105434716D01*
X122008400Y-105569750D01*
X103114065Y-105569750D01*
X103115056Y-105564767D01*
X103120089Y-105539472D01*
X103137199Y-105453449D01*
X103137200Y-105453446D01*
X103137200Y-105315754D01*
X103137199Y-105315750D01*
X103135558Y-105307499D01*
X103110338Y-105180709D01*
X103084529Y-105118400D01*
X103057648Y-105053503D01*
X103057647Y-105053501D01*
X103047855Y-105038847D01*
X102981149Y-104939014D01*
X102981146Y-104939010D01*
X102883789Y-104841653D01*
X102883785Y-104841650D01*
X102769298Y-104765152D01*
X102769296Y-104765151D01*
X102642095Y-104712463D01*
X102642083Y-104712460D01*
X102507049Y-104685600D01*
X102507045Y-104685600D01*
X102369355Y-104685600D01*
X102369350Y-104685600D01*
X102234316Y-104712460D01*
X102234304Y-104712463D01*
X102107103Y-104765151D01*
X102107101Y-104765152D01*
X101992614Y-104841650D01*
X101992610Y-104841653D01*
X101895253Y-104939010D01*
X101895250Y-104939014D01*
X101818752Y-105053501D01*
X101818751Y-105053503D01*
X101766063Y-105180704D01*
X101766060Y-105180716D01*
X101739200Y-105315750D01*
X55551794Y-105315750D01*
X55551501Y-104610469D01*
X55551765Y-104602352D01*
X55568268Y-104350550D01*
X114591600Y-104350550D01*
X114591600Y-104488249D01*
X114618460Y-104623283D01*
X114618463Y-104623295D01*
X114671151Y-104750496D01*
X114671152Y-104750498D01*
X114747650Y-104864985D01*
X114747653Y-104864989D01*
X114845010Y-104962346D01*
X114845014Y-104962349D01*
X114959499Y-105038846D01*
X114959500Y-105038846D01*
X114959501Y-105038847D01*
X114959503Y-105038848D01*
X114994879Y-105053501D01*
X115086709Y-105091538D01*
X115221750Y-105118399D01*
X115221754Y-105118400D01*
X115221755Y-105118400D01*
X115359446Y-105118400D01*
X115359447Y-105118399D01*
X115494491Y-105091538D01*
X115621701Y-105038846D01*
X115736186Y-104962349D01*
X115833549Y-104864986D01*
X115910046Y-104750501D01*
X115962738Y-104623291D01*
X115989600Y-104488245D01*
X115989600Y-104350555D01*
X115962738Y-104215509D01*
X115962736Y-104215504D01*
X115910048Y-104088303D01*
X115910047Y-104088301D01*
X115903316Y-104078228D01*
X115833549Y-103973814D01*
X115833546Y-103973810D01*
X115736189Y-103876453D01*
X115736185Y-103876450D01*
X115647434Y-103817148D01*
X137350000Y-103817148D01*
X137350000Y-103954847D01*
X137376860Y-104089881D01*
X137376863Y-104089893D01*
X137429551Y-104217094D01*
X137429552Y-104217096D01*
X137506050Y-104331583D01*
X137506053Y-104331587D01*
X137603410Y-104428944D01*
X137603414Y-104428947D01*
X137717899Y-104505444D01*
X137717900Y-104505444D01*
X137717901Y-104505445D01*
X137717903Y-104505446D01*
X137845104Y-104558134D01*
X137845109Y-104558136D01*
X137980150Y-104584997D01*
X137980154Y-104584998D01*
X137980155Y-104584998D01*
X138117846Y-104584998D01*
X138117847Y-104584997D01*
X138252891Y-104558136D01*
X138380101Y-104505444D01*
X138494586Y-104428947D01*
X138591949Y-104331584D01*
X138668446Y-104217099D01*
X138721138Y-104089889D01*
X138748000Y-103954843D01*
X138748000Y-103817153D01*
X138721138Y-103682107D01*
X138705850Y-103645199D01*
X138668448Y-103554901D01*
X138668447Y-103554899D01*
X138613492Y-103472654D01*
X138591949Y-103440412D01*
X138591946Y-103440408D01*
X138494589Y-103343051D01*
X138494585Y-103343048D01*
X138380098Y-103266550D01*
X138380096Y-103266549D01*
X138252895Y-103213861D01*
X138252883Y-103213858D01*
X138117849Y-103186998D01*
X138117845Y-103186998D01*
X137980155Y-103186998D01*
X137980150Y-103186998D01*
X137845116Y-103213858D01*
X137845104Y-103213861D01*
X137717903Y-103266549D01*
X137717901Y-103266550D01*
X137603414Y-103343048D01*
X137603410Y-103343051D01*
X137506053Y-103440408D01*
X137506050Y-103440412D01*
X137429552Y-103554899D01*
X137429551Y-103554901D01*
X137376863Y-103682102D01*
X137376860Y-103682114D01*
X137350000Y-103817148D01*
X115647434Y-103817148D01*
X115621698Y-103799952D01*
X115621696Y-103799951D01*
X115494495Y-103747263D01*
X115494483Y-103747260D01*
X115359449Y-103720400D01*
X115359445Y-103720400D01*
X115221755Y-103720400D01*
X115221750Y-103720400D01*
X115086716Y-103747260D01*
X115086704Y-103747263D01*
X114959503Y-103799951D01*
X114959501Y-103799952D01*
X114845014Y-103876450D01*
X114845010Y-103876453D01*
X114747653Y-103973810D01*
X114747650Y-103973814D01*
X114671152Y-104088301D01*
X114671151Y-104088303D01*
X114618463Y-104215504D01*
X114618460Y-104215516D01*
X114591600Y-104350550D01*
X55568268Y-104350550D01*
X55568427Y-104348124D01*
X55570539Y-104332081D01*
X55619452Y-104086185D01*
X55623641Y-104070548D01*
X55704230Y-103833141D01*
X55710427Y-103818181D01*
X55821310Y-103593333D01*
X55829413Y-103579298D01*
X55968696Y-103370846D01*
X55978553Y-103358000D01*
X56143853Y-103169511D01*
X56155311Y-103158053D01*
X56343800Y-102992753D01*
X56356646Y-102982896D01*
X56565098Y-102843613D01*
X56579133Y-102835510D01*
X56803326Y-102724950D01*
X148754600Y-102724950D01*
X148754600Y-102862649D01*
X148781460Y-102997683D01*
X148781463Y-102997695D01*
X148834151Y-103124896D01*
X148834152Y-103124898D01*
X148910650Y-103239385D01*
X148910653Y-103239389D01*
X149008010Y-103336746D01*
X149008014Y-103336749D01*
X149122499Y-103413246D01*
X149122500Y-103413246D01*
X149122501Y-103413247D01*
X149122503Y-103413248D01*
X149249704Y-103465936D01*
X149249709Y-103465938D01*
X149366385Y-103489146D01*
X149384750Y-103492799D01*
X149384754Y-103492800D01*
X149384755Y-103492800D01*
X149522446Y-103492800D01*
X149522447Y-103492799D01*
X149657491Y-103465938D01*
X149784701Y-103413246D01*
X149899186Y-103336749D01*
X149996549Y-103239386D01*
X150073046Y-103124901D01*
X150125738Y-102997691D01*
X150149675Y-102877350D01*
X152259800Y-102877350D01*
X152259800Y-103015049D01*
X152286660Y-103150083D01*
X152286663Y-103150095D01*
X152339351Y-103277296D01*
X152339352Y-103277298D01*
X152415850Y-103391785D01*
X152415853Y-103391789D01*
X152513210Y-103489146D01*
X152513214Y-103489149D01*
X152627699Y-103565646D01*
X152627700Y-103565646D01*
X152627701Y-103565647D01*
X152627703Y-103565648D01*
X152754904Y-103618336D01*
X152754909Y-103618338D01*
X152889950Y-103645199D01*
X152889954Y-103645200D01*
X152889955Y-103645200D01*
X153027646Y-103645200D01*
X153027647Y-103645199D01*
X153162691Y-103618338D01*
X153289901Y-103565646D01*
X153404386Y-103489149D01*
X153501749Y-103391786D01*
X153578246Y-103277301D01*
X153630938Y-103150091D01*
X153657800Y-103015045D01*
X153657800Y-102877355D01*
X153630938Y-102742309D01*
X153629987Y-102740012D01*
X153578248Y-102615103D01*
X153578247Y-102615101D01*
X153568441Y-102600426D01*
X153501749Y-102500614D01*
X153501746Y-102500610D01*
X153404389Y-102403253D01*
X153404385Y-102403250D01*
X153289898Y-102326752D01*
X153289896Y-102326751D01*
X153162695Y-102274063D01*
X153162683Y-102274060D01*
X153027649Y-102247200D01*
X153027645Y-102247200D01*
X152889955Y-102247200D01*
X152889950Y-102247200D01*
X152754916Y-102274060D01*
X152754904Y-102274063D01*
X152627703Y-102326751D01*
X152627701Y-102326752D01*
X152513214Y-102403250D01*
X152513210Y-102403253D01*
X152415853Y-102500610D01*
X152415850Y-102500614D01*
X152339352Y-102615101D01*
X152339351Y-102615103D01*
X152286663Y-102742304D01*
X152286660Y-102742316D01*
X152259800Y-102877350D01*
X150149675Y-102877350D01*
X150152600Y-102862645D01*
X150152600Y-102724955D01*
X150125738Y-102589909D01*
X150116290Y-102567100D01*
X150073048Y-102462703D01*
X150073047Y-102462701D01*
X150072577Y-102461998D01*
X149996549Y-102348214D01*
X149996546Y-102348210D01*
X149899189Y-102250853D01*
X149899185Y-102250850D01*
X149784698Y-102174352D01*
X149784696Y-102174351D01*
X149657495Y-102121663D01*
X149657483Y-102121660D01*
X149522449Y-102094800D01*
X149522445Y-102094800D01*
X149384755Y-102094800D01*
X149384750Y-102094800D01*
X149249716Y-102121660D01*
X149249704Y-102121663D01*
X149122503Y-102174351D01*
X149122501Y-102174352D01*
X149008014Y-102250850D01*
X149008010Y-102250853D01*
X148910653Y-102348210D01*
X148910650Y-102348214D01*
X148834152Y-102462701D01*
X148834151Y-102462703D01*
X148781463Y-102589904D01*
X148781460Y-102589916D01*
X148754600Y-102724950D01*
X56803326Y-102724950D01*
X56803981Y-102724627D01*
X56818941Y-102718430D01*
X57056348Y-102637841D01*
X57071985Y-102633652D01*
X57317870Y-102584742D01*
X57333924Y-102582627D01*
X57588160Y-102565964D01*
X57596258Y-102565700D01*
X74403465Y-102567094D01*
X74403489Y-102567100D01*
X74471400Y-102567100D01*
X74472637Y-102567100D01*
X74544987Y-102567106D01*
X74544989Y-102567105D01*
X74553192Y-102567106D01*
X74553297Y-102567100D01*
X74606367Y-102567100D01*
X74606374Y-102567100D01*
X74874012Y-102531865D01*
X75134761Y-102461998D01*
X75384160Y-102358693D01*
X75617941Y-102223720D01*
X75832104Y-102059386D01*
X75832108Y-102059381D01*
X75832113Y-102059378D01*
X76022978Y-101868513D01*
X76022981Y-101868508D01*
X76022986Y-101868504D01*
X76187320Y-101654341D01*
X76322293Y-101420560D01*
X76323830Y-101416850D01*
X76350132Y-101353352D01*
X107403402Y-101353352D01*
X107403402Y-101491051D01*
X107430262Y-101626085D01*
X107430265Y-101626097D01*
X107482953Y-101753298D01*
X107482954Y-101753300D01*
X107559452Y-101867787D01*
X107559455Y-101867791D01*
X107656812Y-101965148D01*
X107656816Y-101965151D01*
X107771301Y-102041648D01*
X107771302Y-102041648D01*
X107771303Y-102041649D01*
X107771305Y-102041650D01*
X107829645Y-102065815D01*
X107898511Y-102094340D01*
X108033552Y-102121201D01*
X108033556Y-102121202D01*
X108033557Y-102121202D01*
X108171248Y-102121202D01*
X108171249Y-102121201D01*
X108306293Y-102094340D01*
X108433503Y-102041648D01*
X108547988Y-101965151D01*
X108645351Y-101867788D01*
X108721848Y-101753303D01*
X108774540Y-101626093D01*
X108801402Y-101491047D01*
X108801402Y-101416850D01*
X130707900Y-101416850D01*
X130707900Y-101554549D01*
X130734760Y-101689583D01*
X130734763Y-101689595D01*
X130787451Y-101816796D01*
X130787452Y-101816798D01*
X130863950Y-101931285D01*
X130863953Y-101931289D01*
X130961310Y-102028646D01*
X130961314Y-102028649D01*
X131075799Y-102105146D01*
X131075800Y-102105146D01*
X131075801Y-102105147D01*
X131075803Y-102105148D01*
X131178758Y-102147793D01*
X131203009Y-102157838D01*
X131286042Y-102174354D01*
X131338050Y-102184699D01*
X131338054Y-102184700D01*
X131338055Y-102184700D01*
X131475746Y-102184700D01*
X131475747Y-102184699D01*
X131610791Y-102157838D01*
X131738001Y-102105146D01*
X131852486Y-102028649D01*
X131949849Y-101931286D01*
X132026346Y-101816801D01*
X132079038Y-101689591D01*
X132105900Y-101554545D01*
X132105900Y-101416855D01*
X132079038Y-101281809D01*
X132056923Y-101228418D01*
X132026348Y-101154603D01*
X132026347Y-101154601D01*
X131979606Y-101084649D01*
X131949849Y-101040114D01*
X131949846Y-101040110D01*
X131852489Y-100942753D01*
X131852485Y-100942750D01*
X131737998Y-100866252D01*
X131737996Y-100866251D01*
X131610795Y-100813563D01*
X131610783Y-100813560D01*
X131475749Y-100786700D01*
X131475745Y-100786700D01*
X131338055Y-100786700D01*
X131338050Y-100786700D01*
X131203016Y-100813560D01*
X131203004Y-100813563D01*
X131075803Y-100866251D01*
X131075801Y-100866252D01*
X130961314Y-100942750D01*
X130961310Y-100942753D01*
X130863953Y-101040110D01*
X130863950Y-101040114D01*
X130787452Y-101154601D01*
X130787451Y-101154603D01*
X130734763Y-101281804D01*
X130734760Y-101281816D01*
X130707900Y-101416850D01*
X108801402Y-101416850D01*
X108801402Y-101353357D01*
X108774540Y-101218311D01*
X108756546Y-101174869D01*
X108721850Y-101091105D01*
X108721849Y-101091103D01*
X108712055Y-101076446D01*
X108645351Y-100976616D01*
X108645348Y-100976612D01*
X108547991Y-100879255D01*
X108547987Y-100879252D01*
X108433500Y-100802754D01*
X108433498Y-100802753D01*
X108306297Y-100750065D01*
X108306285Y-100750062D01*
X108171251Y-100723202D01*
X108171247Y-100723202D01*
X108033557Y-100723202D01*
X108033552Y-100723202D01*
X107898518Y-100750062D01*
X107898506Y-100750065D01*
X107771305Y-100802753D01*
X107771303Y-100802754D01*
X107656816Y-100879252D01*
X107656812Y-100879255D01*
X107559455Y-100976612D01*
X107559452Y-100976616D01*
X107482954Y-101091103D01*
X107482953Y-101091105D01*
X107430265Y-101218306D01*
X107430262Y-101218318D01*
X107403402Y-101353352D01*
X76350132Y-101353352D01*
X76372309Y-101299812D01*
X76401881Y-101228418D01*
X76425598Y-101171161D01*
X76495465Y-100910412D01*
X76530700Y-100642774D01*
X76530700Y-100581378D01*
X76530714Y-100581326D01*
X76530700Y-100507300D01*
X76530700Y-100439889D01*
X76530700Y-100432566D01*
X76530685Y-100432335D01*
X76530638Y-100184950D01*
X103288600Y-100184950D01*
X103288600Y-100322649D01*
X103315460Y-100457683D01*
X103315463Y-100457695D01*
X103368151Y-100584896D01*
X103368152Y-100584898D01*
X103444650Y-100699385D01*
X103444653Y-100699389D01*
X103542010Y-100796746D01*
X103542014Y-100796749D01*
X103656499Y-100873246D01*
X103656500Y-100873246D01*
X103656501Y-100873247D01*
X103656503Y-100873248D01*
X103779141Y-100924046D01*
X103783709Y-100925938D01*
X103868230Y-100942750D01*
X103918750Y-100952799D01*
X103918754Y-100952800D01*
X103918755Y-100952800D01*
X104056446Y-100952800D01*
X104056447Y-100952799D01*
X104191491Y-100925938D01*
X104318701Y-100873246D01*
X104433186Y-100796749D01*
X104530549Y-100699386D01*
X104607046Y-100584901D01*
X104659738Y-100457691D01*
X104686600Y-100322645D01*
X104686600Y-100184955D01*
X104659738Y-100049909D01*
X104649791Y-100025895D01*
X104617077Y-99946915D01*
X104607048Y-99922703D01*
X104607047Y-99922701D01*
X104601267Y-99914051D01*
X104595587Y-99905550D01*
X115201200Y-99905550D01*
X115201200Y-100043249D01*
X115228060Y-100178283D01*
X115228063Y-100178295D01*
X115280751Y-100305496D01*
X115280752Y-100305498D01*
X115357250Y-100419985D01*
X115357253Y-100419989D01*
X115454610Y-100517346D01*
X115454614Y-100517349D01*
X115569099Y-100593846D01*
X115569100Y-100593846D01*
X115569101Y-100593847D01*
X115569103Y-100593848D01*
X115642549Y-100624270D01*
X115696309Y-100646538D01*
X115823995Y-100671936D01*
X115831350Y-100673399D01*
X115831354Y-100673400D01*
X115831355Y-100673400D01*
X115969046Y-100673400D01*
X115969047Y-100673399D01*
X116104091Y-100646538D01*
X116231301Y-100593846D01*
X116345786Y-100517349D01*
X116443149Y-100419986D01*
X116519646Y-100305501D01*
X116572338Y-100178291D01*
X116599200Y-100043245D01*
X116599200Y-99930950D01*
X117055400Y-99930950D01*
X117055400Y-100068649D01*
X117082260Y-100203683D01*
X117082263Y-100203695D01*
X117134951Y-100330896D01*
X117134952Y-100330898D01*
X117211450Y-100445385D01*
X117211453Y-100445389D01*
X117308810Y-100542746D01*
X117308814Y-100542749D01*
X117423299Y-100619246D01*
X117423300Y-100619246D01*
X117423301Y-100619247D01*
X117423303Y-100619248D01*
X117548609Y-100671151D01*
X117550509Y-100671938D01*
X117685550Y-100698799D01*
X117685554Y-100698800D01*
X117685555Y-100698800D01*
X117823246Y-100698800D01*
X117823247Y-100698799D01*
X117958291Y-100671938D01*
X118085501Y-100619246D01*
X118199986Y-100542749D01*
X118297349Y-100445386D01*
X118373846Y-100330901D01*
X118426538Y-100203691D01*
X118430266Y-100184950D01*
X120890800Y-100184950D01*
X120890800Y-100322649D01*
X120917660Y-100457683D01*
X120917663Y-100457695D01*
X120970351Y-100584896D01*
X120970352Y-100584898D01*
X121046850Y-100699385D01*
X121046853Y-100699389D01*
X121144210Y-100796746D01*
X121144214Y-100796749D01*
X121258699Y-100873246D01*
X121258700Y-100873246D01*
X121258701Y-100873247D01*
X121258703Y-100873248D01*
X121381341Y-100924046D01*
X121385909Y-100925938D01*
X121470430Y-100942750D01*
X121520950Y-100952799D01*
X121520954Y-100952800D01*
X121520955Y-100952800D01*
X121658646Y-100952800D01*
X121658647Y-100952799D01*
X121793691Y-100925938D01*
X121920901Y-100873246D01*
X122035386Y-100796749D01*
X122132749Y-100699386D01*
X122209246Y-100584901D01*
X122261938Y-100457691D01*
X122288800Y-100322645D01*
X122288800Y-100235750D01*
X126555000Y-100235750D01*
X126555000Y-100373449D01*
X126581860Y-100508483D01*
X126581863Y-100508495D01*
X126634551Y-100635696D01*
X126634552Y-100635698D01*
X126711050Y-100750185D01*
X126711053Y-100750189D01*
X126808410Y-100847546D01*
X126808414Y-100847549D01*
X126922899Y-100924046D01*
X126922900Y-100924046D01*
X126922901Y-100924047D01*
X126922903Y-100924048D01*
X126992315Y-100952799D01*
X127050109Y-100976738D01*
X127166785Y-100999946D01*
X127185150Y-101003599D01*
X127185154Y-101003600D01*
X127185155Y-101003600D01*
X127322846Y-101003600D01*
X127322847Y-101003599D01*
X127457891Y-100976738D01*
X127585101Y-100924046D01*
X127699586Y-100847549D01*
X127796949Y-100750186D01*
X127873446Y-100635701D01*
X127926138Y-100508491D01*
X127950075Y-100388150D01*
X140550400Y-100388150D01*
X140550400Y-100525849D01*
X140577260Y-100660883D01*
X140577263Y-100660895D01*
X140629951Y-100788096D01*
X140629952Y-100788098D01*
X140706450Y-100902585D01*
X140706453Y-100902589D01*
X140803810Y-100999946D01*
X140803814Y-100999949D01*
X140918299Y-101076446D01*
X140918300Y-101076446D01*
X140918301Y-101076447D01*
X140918303Y-101076448D01*
X141009438Y-101114197D01*
X141045509Y-101129138D01*
X141173512Y-101154599D01*
X141180550Y-101155999D01*
X141180554Y-101156000D01*
X141180555Y-101156000D01*
X141318246Y-101156000D01*
X141318247Y-101155999D01*
X141453291Y-101129138D01*
X141580501Y-101076446D01*
X141694986Y-100999949D01*
X141792349Y-100902586D01*
X141868846Y-100788101D01*
X141921538Y-100660891D01*
X141948400Y-100525845D01*
X141948400Y-100486571D01*
X146934249Y-100486571D01*
X146934249Y-100624270D01*
X146961109Y-100759304D01*
X146961112Y-100759316D01*
X147013800Y-100886517D01*
X147013801Y-100886519D01*
X147090299Y-101001006D01*
X147090302Y-101001010D01*
X147187659Y-101098367D01*
X147187663Y-101098370D01*
X147302148Y-101174867D01*
X147302149Y-101174867D01*
X147302150Y-101174868D01*
X147302152Y-101174869D01*
X147429353Y-101227557D01*
X147429358Y-101227559D01*
X147564399Y-101254420D01*
X147564403Y-101254421D01*
X147564404Y-101254421D01*
X147702095Y-101254421D01*
X147702096Y-101254420D01*
X147837140Y-101227559D01*
X147964350Y-101174867D01*
X148078835Y-101098370D01*
X148176198Y-101001007D01*
X148195346Y-100972350D01*
X148602200Y-100972350D01*
X148602200Y-101110049D01*
X148629060Y-101245083D01*
X148629063Y-101245095D01*
X148681751Y-101372296D01*
X148681752Y-101372298D01*
X148758250Y-101486785D01*
X148758253Y-101486789D01*
X148855610Y-101584146D01*
X148855614Y-101584149D01*
X148970099Y-101660646D01*
X148970100Y-101660646D01*
X148970101Y-101660647D01*
X148970103Y-101660648D01*
X149053037Y-101695000D01*
X149097309Y-101713338D01*
X149232350Y-101740199D01*
X149232354Y-101740200D01*
X149232355Y-101740200D01*
X149370046Y-101740200D01*
X149370047Y-101740199D01*
X149505091Y-101713338D01*
X149632301Y-101660646D01*
X149746786Y-101584149D01*
X149844149Y-101486786D01*
X149920646Y-101372301D01*
X149973338Y-101245091D01*
X150000200Y-101110045D01*
X150000200Y-100972355D01*
X149995147Y-100946954D01*
X149995146Y-100946950D01*
X151929600Y-100946950D01*
X151929600Y-101084649D01*
X151956460Y-101219683D01*
X151956463Y-101219695D01*
X152009151Y-101346896D01*
X152009152Y-101346898D01*
X152085650Y-101461385D01*
X152085653Y-101461389D01*
X152183010Y-101558746D01*
X152183014Y-101558749D01*
X152297499Y-101635246D01*
X152297500Y-101635246D01*
X152297501Y-101635247D01*
X152297503Y-101635248D01*
X152424704Y-101687936D01*
X152424709Y-101687938D01*
X152552395Y-101713336D01*
X152559750Y-101714799D01*
X152559754Y-101714800D01*
X152559755Y-101714800D01*
X152697446Y-101714800D01*
X152697447Y-101714799D01*
X152827469Y-101688937D01*
X155725499Y-101688937D01*
X155764101Y-101882996D01*
X155764104Y-101883006D01*
X155839820Y-102065802D01*
X155839827Y-102065815D01*
X155949753Y-102230330D01*
X155949756Y-102230334D01*
X156089665Y-102370243D01*
X156089669Y-102370246D01*
X156254184Y-102480172D01*
X156254197Y-102480179D01*
X156436993Y-102555895D01*
X156436998Y-102555897D01*
X156437002Y-102555897D01*
X156437003Y-102555898D01*
X156631062Y-102594500D01*
X156631065Y-102594500D01*
X156828934Y-102594500D01*
X156828935Y-102594500D01*
X156830417Y-102594205D01*
X156831211Y-102594276D01*
X156835000Y-102593903D01*
X156835070Y-102594621D01*
X156900009Y-102600426D01*
X156955190Y-102643284D01*
X156978441Y-102709171D01*
X156976237Y-102740007D01*
X156972500Y-102758795D01*
X156972500Y-102961201D01*
X156976237Y-102979991D01*
X156970008Y-103049582D01*
X156927143Y-103104759D01*
X156861253Y-103128001D01*
X156830432Y-103125797D01*
X156828939Y-103125500D01*
X156828935Y-103125500D01*
X156631065Y-103125500D01*
X156631063Y-103125500D01*
X156437003Y-103164101D01*
X156436993Y-103164104D01*
X156254197Y-103239820D01*
X156254184Y-103239827D01*
X156089669Y-103349753D01*
X156089665Y-103349756D01*
X155949756Y-103489665D01*
X155949753Y-103489669D01*
X155839827Y-103654184D01*
X155839820Y-103654197D01*
X155764104Y-103836993D01*
X155764101Y-103837003D01*
X155725500Y-104031062D01*
X155725500Y-104031065D01*
X155725500Y-104228935D01*
X155725500Y-104228937D01*
X155725499Y-104228937D01*
X155764101Y-104422996D01*
X155764104Y-104423006D01*
X155839820Y-104605802D01*
X155839827Y-104605815D01*
X155949753Y-104770330D01*
X155949756Y-104770334D01*
X156089665Y-104910243D01*
X156089669Y-104910246D01*
X156254184Y-105020172D01*
X156254197Y-105020179D01*
X156426474Y-105091538D01*
X156436998Y-105095897D01*
X156437002Y-105095897D01*
X156437003Y-105095898D01*
X156631062Y-105134500D01*
X156631065Y-105134500D01*
X156828937Y-105134500D01*
X156959495Y-105108529D01*
X157023002Y-105095897D01*
X157205809Y-105020176D01*
X157370331Y-104910246D01*
X157510246Y-104770331D01*
X157620176Y-104605809D01*
X157695897Y-104423002D01*
X157710789Y-104348138D01*
X157734500Y-104228937D01*
X157734500Y-104031066D01*
X157734204Y-104029579D01*
X157734275Y-104028781D01*
X157733903Y-104025000D01*
X157734619Y-104024929D01*
X157740427Y-103959987D01*
X157783286Y-103904807D01*
X157849175Y-103881558D01*
X157880012Y-103883763D01*
X157883511Y-103884458D01*
X157898798Y-103887499D01*
X157898799Y-103887500D01*
X157898800Y-103887500D01*
X158101200Y-103887500D01*
X158119986Y-103883763D01*
X158189578Y-103889990D01*
X158244756Y-103932852D01*
X158268001Y-103998741D01*
X158265798Y-104029564D01*
X158265500Y-104031062D01*
X158265500Y-104031065D01*
X158265500Y-104228935D01*
X158265500Y-104228937D01*
X158265499Y-104228937D01*
X158304101Y-104422996D01*
X158304104Y-104423006D01*
X158379820Y-104605802D01*
X158379827Y-104605815D01*
X158489753Y-104770330D01*
X158489756Y-104770334D01*
X158629665Y-104910243D01*
X158629669Y-104910246D01*
X158794184Y-105020172D01*
X158794197Y-105020179D01*
X158966474Y-105091538D01*
X158976998Y-105095897D01*
X158977002Y-105095897D01*
X158977003Y-105095898D01*
X159171062Y-105134500D01*
X159171065Y-105134500D01*
X159368937Y-105134500D01*
X159499495Y-105108529D01*
X159563002Y-105095897D01*
X159745809Y-105020176D01*
X159910331Y-104910246D01*
X160050246Y-104770331D01*
X160160176Y-104605809D01*
X160235897Y-104423002D01*
X160250789Y-104348138D01*
X160274500Y-104228937D01*
X160274500Y-104031062D01*
X160235898Y-103837003D01*
X160235897Y-103837002D01*
X160235897Y-103836998D01*
X160198727Y-103747262D01*
X160160179Y-103654197D01*
X160160172Y-103654184D01*
X160050246Y-103489669D01*
X160050243Y-103489665D01*
X159910334Y-103349756D01*
X159910330Y-103349753D01*
X159745815Y-103239827D01*
X159745802Y-103239820D01*
X159563006Y-103164104D01*
X159562996Y-103164101D01*
X159368937Y-103125500D01*
X159368935Y-103125500D01*
X159171065Y-103125500D01*
X159171063Y-103125500D01*
X159169564Y-103125798D01*
X159168763Y-103125726D01*
X159165000Y-103126097D01*
X159164929Y-103125382D01*
X159099973Y-103119566D01*
X159044798Y-103076700D01*
X159021557Y-103010808D01*
X159023763Y-102979986D01*
X159027500Y-102961200D01*
X159027500Y-102758799D01*
X159027499Y-102758798D01*
X159023763Y-102740012D01*
X159029990Y-102670420D01*
X159072853Y-102615243D01*
X159138742Y-102591998D01*
X159169575Y-102594203D01*
X159171065Y-102594500D01*
X159171067Y-102594500D01*
X159368937Y-102594500D01*
X159499495Y-102568529D01*
X159563002Y-102555897D01*
X159745809Y-102480176D01*
X159910331Y-102370246D01*
X160050246Y-102230331D01*
X160160176Y-102065809D01*
X160162837Y-102059386D01*
X160215897Y-101931286D01*
X160235897Y-101883002D01*
X160269355Y-101714800D01*
X160274500Y-101688937D01*
X160274500Y-101491062D01*
X160235898Y-101297003D01*
X160235897Y-101297002D01*
X160235897Y-101296998D01*
X160235895Y-101296993D01*
X160160179Y-101114197D01*
X160160172Y-101114184D01*
X160050246Y-100949669D01*
X160050243Y-100949665D01*
X159910334Y-100809756D01*
X159910330Y-100809753D01*
X159745815Y-100699827D01*
X159745802Y-100699820D01*
X159563006Y-100624104D01*
X159562996Y-100624101D01*
X159368937Y-100585500D01*
X159368935Y-100585500D01*
X159171065Y-100585500D01*
X159171063Y-100585500D01*
X158977003Y-100624101D01*
X158976993Y-100624104D01*
X158794197Y-100699820D01*
X158794184Y-100699827D01*
X158629669Y-100809753D01*
X158629665Y-100809756D01*
X158489756Y-100949665D01*
X158489753Y-100949669D01*
X158379827Y-101114184D01*
X158379820Y-101114197D01*
X158304104Y-101296993D01*
X158304101Y-101297003D01*
X158265500Y-101491062D01*
X158265500Y-101688939D01*
X158265797Y-101690432D01*
X158265725Y-101691228D01*
X158266097Y-101695000D01*
X158265381Y-101695070D01*
X158259567Y-101760024D01*
X158216702Y-101815199D01*
X158150812Y-101838441D01*
X158119991Y-101836237D01*
X158101201Y-101832500D01*
X158101200Y-101832500D01*
X157898800Y-101832500D01*
X157898795Y-101832500D01*
X157880007Y-101836237D01*
X157810416Y-101830007D01*
X157755240Y-101787142D01*
X157731998Y-101721252D01*
X157734205Y-101690416D01*
X157734369Y-101689595D01*
X157734500Y-101688935D01*
X157734500Y-101491065D01*
X157734500Y-101491062D01*
X157695898Y-101297003D01*
X157695897Y-101297002D01*
X157695897Y-101296998D01*
X157695895Y-101296993D01*
X157620179Y-101114197D01*
X157620172Y-101114184D01*
X157510246Y-100949669D01*
X157510243Y-100949665D01*
X157370334Y-100809756D01*
X157370330Y-100809753D01*
X157205815Y-100699827D01*
X157205802Y-100699820D01*
X157023006Y-100624104D01*
X157022996Y-100624101D01*
X156828937Y-100585500D01*
X156828935Y-100585500D01*
X156631065Y-100585500D01*
X156631063Y-100585500D01*
X156437003Y-100624101D01*
X156436993Y-100624104D01*
X156254197Y-100699820D01*
X156254184Y-100699827D01*
X156089669Y-100809753D01*
X156089665Y-100809756D01*
X155949756Y-100949665D01*
X155949753Y-100949669D01*
X155839827Y-101114184D01*
X155839820Y-101114197D01*
X155764104Y-101296993D01*
X155764101Y-101297003D01*
X155725500Y-101491062D01*
X155725500Y-101491065D01*
X155725500Y-101688935D01*
X155725500Y-101688937D01*
X155725499Y-101688937D01*
X152827469Y-101688937D01*
X152832491Y-101687938D01*
X152959701Y-101635246D01*
X153074186Y-101558749D01*
X153171549Y-101461386D01*
X153248046Y-101346901D01*
X153300738Y-101219691D01*
X153327600Y-101084645D01*
X153327600Y-100946955D01*
X153300738Y-100811909D01*
X153296946Y-100802754D01*
X153248048Y-100684703D01*
X153248047Y-100684701D01*
X153240495Y-100673399D01*
X153171549Y-100570214D01*
X153171546Y-100570210D01*
X153074189Y-100472853D01*
X153074185Y-100472850D01*
X152959698Y-100396352D01*
X152959696Y-100396351D01*
X152832495Y-100343663D01*
X152832483Y-100343660D01*
X152697449Y-100316800D01*
X152697445Y-100316800D01*
X152559755Y-100316800D01*
X152559750Y-100316800D01*
X152424716Y-100343660D01*
X152424704Y-100343663D01*
X152297503Y-100396351D01*
X152297501Y-100396352D01*
X152183014Y-100472850D01*
X152183010Y-100472853D01*
X152085653Y-100570210D01*
X152085650Y-100570214D01*
X152009152Y-100684701D01*
X152009151Y-100684703D01*
X151956463Y-100811904D01*
X151956460Y-100811916D01*
X151929600Y-100946950D01*
X149995146Y-100946950D01*
X149981681Y-100879252D01*
X149973338Y-100837309D01*
X149959025Y-100802754D01*
X149920648Y-100710103D01*
X149920647Y-100710101D01*
X149913777Y-100699820D01*
X149875656Y-100642767D01*
X149840765Y-100590549D01*
X149842482Y-100589401D01*
X149818852Y-100533755D01*
X149830647Y-100464888D01*
X149873128Y-100416304D01*
X149915258Y-100388154D01*
X149949986Y-100364949D01*
X150047349Y-100267586D01*
X150123846Y-100153101D01*
X150176538Y-100025891D01*
X150203400Y-99890845D01*
X150203400Y-99753155D01*
X150176538Y-99618109D01*
X150161441Y-99581662D01*
X150123848Y-99490903D01*
X150123847Y-99490901D01*
X150114055Y-99476247D01*
X150047349Y-99376414D01*
X150047346Y-99376410D01*
X149949989Y-99279053D01*
X149949985Y-99279050D01*
X149835498Y-99202552D01*
X149835496Y-99202551D01*
X149708295Y-99149863D01*
X149708283Y-99149860D01*
X149573249Y-99123000D01*
X149573245Y-99123000D01*
X149435555Y-99123000D01*
X149435550Y-99123000D01*
X149300516Y-99149860D01*
X149300504Y-99149863D01*
X149173303Y-99202551D01*
X149173301Y-99202552D01*
X149058814Y-99279050D01*
X149058810Y-99279053D01*
X148961453Y-99376410D01*
X148961450Y-99376414D01*
X148884952Y-99490901D01*
X148884951Y-99490903D01*
X148832263Y-99618104D01*
X148832260Y-99618116D01*
X148805400Y-99753150D01*
X148805400Y-99890849D01*
X148832260Y-100025883D01*
X148832263Y-100025895D01*
X148884951Y-100153096D01*
X148884952Y-100153098D01*
X148964835Y-100272651D01*
X148963113Y-100273801D01*
X148986745Y-100329417D01*
X148974965Y-100398286D01*
X148932472Y-100446895D01*
X148855614Y-100498250D01*
X148855610Y-100498253D01*
X148758253Y-100595610D01*
X148758250Y-100595614D01*
X148681752Y-100710101D01*
X148681751Y-100710103D01*
X148629063Y-100837304D01*
X148629060Y-100837316D01*
X148602200Y-100972350D01*
X148195346Y-100972350D01*
X148252695Y-100886522D01*
X148305387Y-100759312D01*
X148332249Y-100624266D01*
X148332249Y-100486576D01*
X148305387Y-100351530D01*
X148293423Y-100322646D01*
X148252697Y-100224324D01*
X148252696Y-100224322D01*
X148238913Y-100203695D01*
X148176198Y-100109835D01*
X148176195Y-100109831D01*
X148078838Y-100012474D01*
X148078834Y-100012471D01*
X147964347Y-99935973D01*
X147964345Y-99935972D01*
X147837144Y-99883284D01*
X147837132Y-99883281D01*
X147702098Y-99856421D01*
X147702094Y-99856421D01*
X147564404Y-99856421D01*
X147564399Y-99856421D01*
X147429365Y-99883281D01*
X147429353Y-99883284D01*
X147302152Y-99935972D01*
X147302150Y-99935973D01*
X147187663Y-100012471D01*
X147187659Y-100012474D01*
X147090302Y-100109831D01*
X147090299Y-100109835D01*
X147013801Y-100224322D01*
X147013800Y-100224324D01*
X146961112Y-100351525D01*
X146961109Y-100351537D01*
X146934249Y-100486571D01*
X141948400Y-100486571D01*
X141948400Y-100388155D01*
X141921538Y-100253109D01*
X141901070Y-100203695D01*
X141868848Y-100125903D01*
X141868847Y-100125901D01*
X141858109Y-100109831D01*
X141792349Y-100011414D01*
X141792346Y-100011410D01*
X141694989Y-99914053D01*
X141694985Y-99914050D01*
X141580498Y-99837552D01*
X141580496Y-99837551D01*
X141453295Y-99784863D01*
X141453283Y-99784860D01*
X141318249Y-99758000D01*
X141318245Y-99758000D01*
X141180555Y-99758000D01*
X141180550Y-99758000D01*
X141045516Y-99784860D01*
X141045504Y-99784863D01*
X140918303Y-99837551D01*
X140918301Y-99837552D01*
X140803814Y-99914050D01*
X140803810Y-99914053D01*
X140706453Y-100011410D01*
X140706450Y-100011414D01*
X140629952Y-100125901D01*
X140629951Y-100125903D01*
X140577263Y-100253104D01*
X140577260Y-100253116D01*
X140550400Y-100388150D01*
X127950075Y-100388150D01*
X127953000Y-100373445D01*
X127953000Y-100235755D01*
X127926138Y-100100709D01*
X127905094Y-100049904D01*
X127873448Y-99973503D01*
X127873447Y-99973501D01*
X127848045Y-99935485D01*
X127796949Y-99859014D01*
X127796946Y-99859010D01*
X127699589Y-99761653D01*
X127699585Y-99761650D01*
X127585098Y-99685152D01*
X127585096Y-99685151D01*
X127457895Y-99632463D01*
X127457883Y-99632460D01*
X127322849Y-99605600D01*
X127322845Y-99605600D01*
X127185155Y-99605600D01*
X127185150Y-99605600D01*
X127050116Y-99632460D01*
X127050104Y-99632463D01*
X126922903Y-99685151D01*
X126922901Y-99685152D01*
X126808414Y-99761650D01*
X126808410Y-99761653D01*
X126711053Y-99859010D01*
X126711050Y-99859014D01*
X126634552Y-99973501D01*
X126634551Y-99973503D01*
X126581863Y-100100704D01*
X126581860Y-100100716D01*
X126555000Y-100235750D01*
X122288800Y-100235750D01*
X122288800Y-100184955D01*
X122261938Y-100049909D01*
X122251991Y-100025895D01*
X122209248Y-99922703D01*
X122209247Y-99922701D01*
X122203467Y-99914051D01*
X122132749Y-99808214D01*
X122132746Y-99808210D01*
X122035389Y-99710853D01*
X122035385Y-99710850D01*
X121920898Y-99634352D01*
X121920896Y-99634351D01*
X121793695Y-99581663D01*
X121793683Y-99581660D01*
X121658649Y-99554800D01*
X121658645Y-99554800D01*
X121520955Y-99554800D01*
X121520950Y-99554800D01*
X121385916Y-99581660D01*
X121385904Y-99581663D01*
X121258703Y-99634351D01*
X121258701Y-99634352D01*
X121144214Y-99710850D01*
X121144210Y-99710853D01*
X121046853Y-99808210D01*
X121046850Y-99808214D01*
X120970352Y-99922701D01*
X120970351Y-99922703D01*
X120917663Y-100049904D01*
X120917660Y-100049916D01*
X120890800Y-100184950D01*
X118430266Y-100184950D01*
X118434824Y-100162034D01*
X118436289Y-100154672D01*
X118453399Y-100068649D01*
X118453400Y-100068646D01*
X118453400Y-99930954D01*
X118453399Y-99930950D01*
X118450037Y-99914050D01*
X118426538Y-99795909D01*
X118412348Y-99761651D01*
X118373848Y-99668703D01*
X118373847Y-99668701D01*
X118366295Y-99657399D01*
X118297349Y-99554214D01*
X118297346Y-99554210D01*
X118199989Y-99456853D01*
X118199985Y-99456850D01*
X118085498Y-99380352D01*
X118085496Y-99380351D01*
X117958295Y-99327663D01*
X117958283Y-99327660D01*
X117823249Y-99300800D01*
X117823245Y-99300800D01*
X117685555Y-99300800D01*
X117685550Y-99300800D01*
X117550516Y-99327660D01*
X117550504Y-99327663D01*
X117423303Y-99380351D01*
X117423301Y-99380352D01*
X117308814Y-99456850D01*
X117308810Y-99456853D01*
X117211453Y-99554210D01*
X117211450Y-99554214D01*
X117134952Y-99668701D01*
X117134951Y-99668703D01*
X117082263Y-99795904D01*
X117082260Y-99795916D01*
X117055400Y-99930950D01*
X116599200Y-99930950D01*
X116599200Y-99905555D01*
X116572338Y-99770509D01*
X116568669Y-99761651D01*
X116519648Y-99643303D01*
X116519647Y-99643301D01*
X116513667Y-99634352D01*
X116443149Y-99528814D01*
X116443146Y-99528810D01*
X116345789Y-99431453D01*
X116345785Y-99431450D01*
X116231298Y-99354952D01*
X116231296Y-99354951D01*
X116104095Y-99302263D01*
X116104083Y-99302260D01*
X115969049Y-99275400D01*
X115969045Y-99275400D01*
X115831355Y-99275400D01*
X115831350Y-99275400D01*
X115696316Y-99302260D01*
X115696304Y-99302263D01*
X115569103Y-99354951D01*
X115569101Y-99354952D01*
X115454614Y-99431450D01*
X115454610Y-99431453D01*
X115357253Y-99528810D01*
X115357250Y-99528814D01*
X115280752Y-99643301D01*
X115280751Y-99643303D01*
X115228063Y-99770504D01*
X115228060Y-99770516D01*
X115201200Y-99905550D01*
X104595587Y-99905550D01*
X104530549Y-99808214D01*
X104530546Y-99808210D01*
X104433189Y-99710853D01*
X104433185Y-99710850D01*
X104318698Y-99634352D01*
X104318696Y-99634351D01*
X104191495Y-99581663D01*
X104191483Y-99581660D01*
X104056449Y-99554800D01*
X104056445Y-99554800D01*
X103918755Y-99554800D01*
X103918750Y-99554800D01*
X103783716Y-99581660D01*
X103783704Y-99581663D01*
X103656503Y-99634351D01*
X103656501Y-99634352D01*
X103542014Y-99710850D01*
X103542010Y-99710853D01*
X103444653Y-99808210D01*
X103444650Y-99808214D01*
X103368152Y-99922701D01*
X103368151Y-99922703D01*
X103315463Y-100049904D01*
X103315460Y-100049916D01*
X103288600Y-100184950D01*
X76530638Y-100184950D01*
X76530371Y-98787950D01*
X96481400Y-98787950D01*
X96481400Y-98925649D01*
X96508260Y-99060683D01*
X96508263Y-99060695D01*
X96560951Y-99187896D01*
X96560952Y-99187898D01*
X96637450Y-99302385D01*
X96637453Y-99302389D01*
X96734810Y-99399746D01*
X96734814Y-99399749D01*
X96849299Y-99476246D01*
X96849300Y-99476246D01*
X96849301Y-99476247D01*
X96849303Y-99476248D01*
X96976504Y-99528936D01*
X96976509Y-99528938D01*
X97103582Y-99554214D01*
X97111550Y-99555799D01*
X97111554Y-99555800D01*
X97111555Y-99555800D01*
X97249246Y-99555800D01*
X97249247Y-99555799D01*
X97384291Y-99528938D01*
X97511501Y-99476246D01*
X97625986Y-99399749D01*
X97723349Y-99302386D01*
X97799846Y-99187901D01*
X97806783Y-99171155D01*
X97830052Y-99114977D01*
X133226566Y-99114977D01*
X133226566Y-99252676D01*
X133253426Y-99387710D01*
X133253429Y-99387722D01*
X133306117Y-99514923D01*
X133306118Y-99514925D01*
X133382616Y-99629412D01*
X133382619Y-99629416D01*
X133479976Y-99726773D01*
X133479980Y-99726776D01*
X133594465Y-99803273D01*
X133594466Y-99803273D01*
X133594467Y-99803274D01*
X133594469Y-99803275D01*
X133721670Y-99855963D01*
X133721675Y-99855965D01*
X133856716Y-99882826D01*
X133856720Y-99882827D01*
X133856721Y-99882827D01*
X133994412Y-99882827D01*
X133994413Y-99882826D01*
X134129457Y-99855965D01*
X134256667Y-99803273D01*
X134371152Y-99726776D01*
X134468515Y-99629413D01*
X134545012Y-99514928D01*
X134597704Y-99387718D01*
X134624566Y-99252672D01*
X134624566Y-99171151D01*
X135037323Y-99171151D01*
X135037323Y-99308850D01*
X135064183Y-99443884D01*
X135064186Y-99443896D01*
X135116874Y-99571097D01*
X135116875Y-99571099D01*
X135193373Y-99685586D01*
X135193376Y-99685590D01*
X135290733Y-99782947D01*
X135290737Y-99782950D01*
X135405222Y-99859447D01*
X135405223Y-99859447D01*
X135405224Y-99859448D01*
X135405226Y-99859449D01*
X135516534Y-99905554D01*
X135532432Y-99912139D01*
X135627023Y-99930954D01*
X135667473Y-99939000D01*
X135667477Y-99939001D01*
X135667478Y-99939001D01*
X135805169Y-99939001D01*
X135805170Y-99939000D01*
X135940214Y-99912139D01*
X136067424Y-99859447D01*
X136181909Y-99782950D01*
X136279272Y-99685587D01*
X136355769Y-99571102D01*
X136408461Y-99443892D01*
X136413005Y-99421046D01*
X136763896Y-99421046D01*
X136763896Y-99558745D01*
X136790756Y-99693779D01*
X136790759Y-99693791D01*
X136843447Y-99820992D01*
X136843448Y-99820994D01*
X136919946Y-99935481D01*
X136919949Y-99935485D01*
X137017306Y-100032842D01*
X137017310Y-100032845D01*
X137131795Y-100109342D01*
X137131796Y-100109342D01*
X137131797Y-100109343D01*
X137131799Y-100109344D01*
X137259000Y-100162032D01*
X137259005Y-100162034D01*
X137340756Y-100178295D01*
X137394046Y-100188895D01*
X137394050Y-100188896D01*
X137394051Y-100188896D01*
X137531742Y-100188896D01*
X137531743Y-100188895D01*
X137666787Y-100162034D01*
X137793997Y-100109342D01*
X137908482Y-100032845D01*
X138005845Y-99935482D01*
X138082342Y-99820997D01*
X138135034Y-99693787D01*
X138161896Y-99558741D01*
X138161896Y-99421051D01*
X138135034Y-99286005D01*
X138121229Y-99252676D01*
X138082344Y-99158799D01*
X138082343Y-99158797D01*
X138076373Y-99149863D01*
X138005845Y-99044310D01*
X138005842Y-99044306D01*
X137908485Y-98946949D01*
X137908481Y-98946946D01*
X137822582Y-98889550D01*
X151243800Y-98889550D01*
X151243800Y-99027249D01*
X151270660Y-99162283D01*
X151270663Y-99162295D01*
X151323351Y-99289496D01*
X151323352Y-99289498D01*
X151399850Y-99403985D01*
X151399853Y-99403989D01*
X151497210Y-99501346D01*
X151497214Y-99501349D01*
X151611699Y-99577846D01*
X151611700Y-99577846D01*
X151611701Y-99577847D01*
X151611703Y-99577848D01*
X151736193Y-99629413D01*
X151738909Y-99630538D01*
X151873950Y-99657399D01*
X151873954Y-99657400D01*
X151873955Y-99657400D01*
X152011646Y-99657400D01*
X152011647Y-99657399D01*
X152146691Y-99630538D01*
X152273901Y-99577846D01*
X152388386Y-99501349D01*
X152485749Y-99403986D01*
X152562246Y-99289501D01*
X152614938Y-99162291D01*
X152641800Y-99027245D01*
X152641800Y-98963074D01*
X158165500Y-98963074D01*
X158165500Y-99136926D01*
X158173574Y-99187901D01*
X158192697Y-99308639D01*
X158192697Y-99308642D01*
X158246418Y-99473978D01*
X158299342Y-99577846D01*
X158325347Y-99628884D01*
X158427535Y-99769533D01*
X158550467Y-99892465D01*
X158691116Y-99994653D01*
X158836341Y-100068649D01*
X158846021Y-100073581D01*
X159011358Y-100127302D01*
X159011359Y-100127302D01*
X159011362Y-100127303D01*
X159183074Y-100154500D01*
X159183075Y-100154500D01*
X159356925Y-100154500D01*
X159356926Y-100154500D01*
X159528638Y-100127303D01*
X159528641Y-100127302D01*
X159528642Y-100127302D01*
X159693978Y-100073581D01*
X159693978Y-100073580D01*
X159693981Y-100073580D01*
X159848884Y-99994653D01*
X159989533Y-99892465D01*
X160112465Y-99769533D01*
X160214653Y-99628884D01*
X160293580Y-99473981D01*
X160303355Y-99443896D01*
X160347302Y-99308642D01*
X160347302Y-99308641D01*
X160347303Y-99308638D01*
X160374500Y-99136926D01*
X160374500Y-98963074D01*
X160347303Y-98791362D01*
X160347302Y-98791358D01*
X160347302Y-98791357D01*
X160293581Y-98626021D01*
X160290794Y-98620552D01*
X160214653Y-98471116D01*
X160112465Y-98330467D01*
X159989533Y-98207535D01*
X159848884Y-98105347D01*
X159693978Y-98026418D01*
X159528641Y-97972697D01*
X159399854Y-97952299D01*
X159356926Y-97945500D01*
X159183074Y-97945500D01*
X159125836Y-97954565D01*
X159011360Y-97972697D01*
X159011357Y-97972697D01*
X158846021Y-98026418D01*
X158691115Y-98105347D01*
X158618921Y-98157800D01*
X158550467Y-98207535D01*
X158550465Y-98207537D01*
X158550464Y-98207537D01*
X158427537Y-98330464D01*
X158427537Y-98330465D01*
X158427535Y-98330467D01*
X158421369Y-98338954D01*
X158325347Y-98471115D01*
X158246418Y-98626021D01*
X158192697Y-98791357D01*
X158192697Y-98791360D01*
X158177144Y-98889555D01*
X158165500Y-98963074D01*
X152641800Y-98963074D01*
X152641800Y-98889555D01*
X152614938Y-98754509D01*
X152608198Y-98738237D01*
X152562248Y-98627303D01*
X152562247Y-98627301D01*
X152561390Y-98626019D01*
X152485749Y-98512814D01*
X152485746Y-98512810D01*
X152388389Y-98415453D01*
X152388385Y-98415450D01*
X152273898Y-98338952D01*
X152273896Y-98338951D01*
X152146695Y-98286263D01*
X152146683Y-98286260D01*
X152011649Y-98259400D01*
X152011645Y-98259400D01*
X151873955Y-98259400D01*
X151873950Y-98259400D01*
X151738916Y-98286260D01*
X151738904Y-98286263D01*
X151611703Y-98338951D01*
X151611701Y-98338952D01*
X151497214Y-98415450D01*
X151497210Y-98415453D01*
X151399853Y-98512810D01*
X151399850Y-98512814D01*
X151323352Y-98627301D01*
X151323351Y-98627303D01*
X151270663Y-98754504D01*
X151270660Y-98754516D01*
X151243800Y-98889550D01*
X137822582Y-98889550D01*
X137793994Y-98870448D01*
X137793992Y-98870447D01*
X137666791Y-98817759D01*
X137666779Y-98817756D01*
X137531745Y-98790896D01*
X137531741Y-98790896D01*
X137394051Y-98790896D01*
X137394046Y-98790896D01*
X137259012Y-98817756D01*
X137259000Y-98817759D01*
X137131799Y-98870447D01*
X137131797Y-98870448D01*
X137017310Y-98946946D01*
X137017306Y-98946949D01*
X136919949Y-99044306D01*
X136919946Y-99044310D01*
X136843448Y-99158797D01*
X136843447Y-99158799D01*
X136790759Y-99286000D01*
X136790756Y-99286012D01*
X136763896Y-99421046D01*
X136413005Y-99421046D01*
X136435323Y-99308846D01*
X136435323Y-99171156D01*
X136408461Y-99036110D01*
X136404791Y-99027249D01*
X136355771Y-98908904D01*
X136355770Y-98908902D01*
X136342839Y-98889550D01*
X136279272Y-98794415D01*
X136279269Y-98794411D01*
X136181912Y-98697054D01*
X136181908Y-98697051D01*
X136067421Y-98620553D01*
X136067419Y-98620552D01*
X135940218Y-98567864D01*
X135940206Y-98567861D01*
X135805172Y-98541001D01*
X135805168Y-98541001D01*
X135667478Y-98541001D01*
X135667473Y-98541001D01*
X135532439Y-98567861D01*
X135532427Y-98567864D01*
X135405226Y-98620552D01*
X135405224Y-98620553D01*
X135290737Y-98697051D01*
X135290733Y-98697054D01*
X135193376Y-98794411D01*
X135193373Y-98794415D01*
X135116875Y-98908902D01*
X135116874Y-98908904D01*
X135064186Y-99036105D01*
X135064183Y-99036117D01*
X135037323Y-99171151D01*
X134624566Y-99171151D01*
X134624566Y-99114982D01*
X134597704Y-98979936D01*
X134590720Y-98963074D01*
X134545014Y-98852730D01*
X134545013Y-98852728D01*
X134521647Y-98817759D01*
X134468515Y-98738241D01*
X134468512Y-98738237D01*
X134371155Y-98640880D01*
X134371151Y-98640877D01*
X134256664Y-98564379D01*
X134256662Y-98564378D01*
X134129461Y-98511690D01*
X134129449Y-98511687D01*
X133994415Y-98484827D01*
X133994411Y-98484827D01*
X133856721Y-98484827D01*
X133856716Y-98484827D01*
X133721682Y-98511687D01*
X133721670Y-98511690D01*
X133594469Y-98564378D01*
X133594467Y-98564379D01*
X133479980Y-98640877D01*
X133479976Y-98640880D01*
X133382619Y-98738237D01*
X133382616Y-98738241D01*
X133306118Y-98852728D01*
X133306117Y-98852730D01*
X133253429Y-98979931D01*
X133253426Y-98979943D01*
X133226566Y-99114977D01*
X97830052Y-99114977D01*
X97852229Y-99061437D01*
X97852229Y-99061436D01*
X97852536Y-99060695D01*
X97852538Y-99060691D01*
X97879400Y-98925645D01*
X97879400Y-98787955D01*
X97852538Y-98652909D01*
X97852536Y-98652904D01*
X97799848Y-98525703D01*
X97799847Y-98525701D01*
X97791233Y-98512810D01*
X97723349Y-98411214D01*
X97723346Y-98411210D01*
X97625989Y-98313853D01*
X97625985Y-98313850D01*
X97511498Y-98237352D01*
X97511496Y-98237351D01*
X97384295Y-98184663D01*
X97384283Y-98184660D01*
X97249249Y-98157800D01*
X97249245Y-98157800D01*
X97111555Y-98157800D01*
X97111550Y-98157800D01*
X96976516Y-98184660D01*
X96976504Y-98184663D01*
X96849303Y-98237351D01*
X96849301Y-98237352D01*
X96734814Y-98313850D01*
X96734810Y-98313853D01*
X96637453Y-98411210D01*
X96637450Y-98411214D01*
X96560952Y-98525701D01*
X96560951Y-98525703D01*
X96508263Y-98652904D01*
X96508260Y-98652916D01*
X96481400Y-98787950D01*
X76530371Y-98787950D01*
X76530061Y-97162350D01*
X151218400Y-97162350D01*
X151218400Y-97300049D01*
X151245260Y-97435083D01*
X151245263Y-97435095D01*
X151297951Y-97562296D01*
X151297952Y-97562298D01*
X151374450Y-97676785D01*
X151374453Y-97676789D01*
X151471810Y-97774146D01*
X151471814Y-97774149D01*
X151586299Y-97850646D01*
X151586300Y-97850646D01*
X151586301Y-97850647D01*
X151586303Y-97850648D01*
X151713504Y-97903336D01*
X151713509Y-97903338D01*
X151848550Y-97930199D01*
X151848554Y-97930200D01*
X151848555Y-97930200D01*
X151986246Y-97930200D01*
X151986247Y-97930199D01*
X152121291Y-97903338D01*
X152248501Y-97850646D01*
X152362986Y-97774149D01*
X152460349Y-97676786D01*
X152536846Y-97562301D01*
X152589538Y-97435091D01*
X152616400Y-97300045D01*
X152616400Y-97162355D01*
X152589538Y-97027309D01*
X152589536Y-97027304D01*
X152536848Y-96900103D01*
X152536847Y-96900101D01*
X152460349Y-96785614D01*
X152460346Y-96785610D01*
X152362989Y-96688253D01*
X152362985Y-96688250D01*
X152248498Y-96611752D01*
X152248496Y-96611751D01*
X152121295Y-96559063D01*
X152121283Y-96559060D01*
X152024551Y-96539819D01*
X151986249Y-96532200D01*
X151986245Y-96532200D01*
X151848555Y-96532200D01*
X151848550Y-96532200D01*
X151713516Y-96559060D01*
X151713504Y-96559063D01*
X151586303Y-96611751D01*
X151586301Y-96611752D01*
X151471814Y-96688250D01*
X151471810Y-96688253D01*
X151374453Y-96785610D01*
X151374450Y-96785614D01*
X151297952Y-96900101D01*
X151297951Y-96900103D01*
X151245263Y-97027304D01*
X151245260Y-97027316D01*
X151218400Y-97162350D01*
X76530061Y-97162350D01*
X76529765Y-95612950D01*
X103949000Y-95612950D01*
X103949000Y-95750649D01*
X103975860Y-95885683D01*
X103975863Y-95885695D01*
X104028551Y-96012896D01*
X104028552Y-96012898D01*
X104105050Y-96127385D01*
X104105053Y-96127389D01*
X104202410Y-96224746D01*
X104202414Y-96224749D01*
X104316899Y-96301246D01*
X104316900Y-96301246D01*
X104316901Y-96301247D01*
X104316903Y-96301248D01*
X104444104Y-96353936D01*
X104444109Y-96353938D01*
X104579150Y-96380799D01*
X104579154Y-96380800D01*
X104579155Y-96380800D01*
X104716846Y-96380800D01*
X104716847Y-96380799D01*
X104851891Y-96353938D01*
X104979101Y-96301246D01*
X105093586Y-96224749D01*
X105190949Y-96127386D01*
X105267446Y-96012901D01*
X105320138Y-95885691D01*
X105347000Y-95750645D01*
X105347000Y-95663751D01*
X107225601Y-95663751D01*
X107225601Y-95801450D01*
X107252461Y-95936484D01*
X107252464Y-95936496D01*
X107305152Y-96063697D01*
X107305153Y-96063699D01*
X107381651Y-96178186D01*
X107381654Y-96178190D01*
X107479011Y-96275547D01*
X107479015Y-96275550D01*
X107593500Y-96352047D01*
X107593501Y-96352047D01*
X107593502Y-96352048D01*
X107593504Y-96352049D01*
X107662916Y-96380800D01*
X107720710Y-96404739D01*
X107855751Y-96431600D01*
X107855755Y-96431601D01*
X107855756Y-96431601D01*
X107993447Y-96431601D01*
X107993448Y-96431600D01*
X108128492Y-96404739D01*
X108255702Y-96352047D01*
X108370187Y-96275550D01*
X108467550Y-96178187D01*
X108544047Y-96063702D01*
X108596739Y-95936492D01*
X108623601Y-95801446D01*
X108623601Y-95663756D01*
X108596739Y-95528710D01*
X108579221Y-95486418D01*
X108544049Y-95401504D01*
X108544048Y-95401502D01*
X108535859Y-95389247D01*
X108467550Y-95287015D01*
X108467547Y-95287011D01*
X108370190Y-95189654D01*
X108370186Y-95189651D01*
X108357463Y-95181150D01*
X120992400Y-95181150D01*
X120992400Y-95318849D01*
X121019260Y-95453883D01*
X121019263Y-95453895D01*
X121071951Y-95581096D01*
X121071952Y-95581098D01*
X121148450Y-95695585D01*
X121148453Y-95695589D01*
X121245810Y-95792946D01*
X121245814Y-95792949D01*
X121360299Y-95869446D01*
X121360300Y-95869446D01*
X121360301Y-95869447D01*
X121360303Y-95869448D01*
X121487504Y-95922136D01*
X121487509Y-95922138D01*
X121597328Y-95943982D01*
X121622550Y-95948999D01*
X121622554Y-95949000D01*
X121622555Y-95949000D01*
X121760246Y-95949000D01*
X121760247Y-95948999D01*
X121895291Y-95922138D01*
X122022501Y-95869446D01*
X122136986Y-95792949D01*
X122234349Y-95695586D01*
X122310846Y-95581101D01*
X122363538Y-95453891D01*
X122390400Y-95318845D01*
X122390400Y-95181155D01*
X122363538Y-95046109D01*
X122361610Y-95041454D01*
X122310848Y-94918903D01*
X122310847Y-94918901D01*
X122302499Y-94906408D01*
X122234349Y-94804414D01*
X122234346Y-94804410D01*
X122136989Y-94707053D01*
X122136985Y-94707050D01*
X122048997Y-94648258D01*
X135546600Y-94648258D01*
X135546600Y-94785957D01*
X135573460Y-94920991D01*
X135573463Y-94921003D01*
X135626151Y-95048204D01*
X135626152Y-95048206D01*
X135702650Y-95162693D01*
X135702653Y-95162697D01*
X135800010Y-95260054D01*
X135800014Y-95260057D01*
X135914499Y-95336554D01*
X135914500Y-95336554D01*
X135914501Y-95336555D01*
X135914503Y-95336556D01*
X136022091Y-95381120D01*
X136041709Y-95389246D01*
X136176750Y-95416107D01*
X136176754Y-95416108D01*
X136176755Y-95416108D01*
X136314446Y-95416108D01*
X136314447Y-95416107D01*
X136449491Y-95389246D01*
X136576701Y-95336554D01*
X136691186Y-95260057D01*
X136770093Y-95181150D01*
X137426200Y-95181150D01*
X137426200Y-95318849D01*
X137453060Y-95453883D01*
X137453063Y-95453895D01*
X137505751Y-95581096D01*
X137505752Y-95581098D01*
X137582250Y-95695585D01*
X137582253Y-95695589D01*
X137679610Y-95792946D01*
X137679614Y-95792949D01*
X137794099Y-95869446D01*
X137794100Y-95869446D01*
X137794101Y-95869447D01*
X137794103Y-95869448D01*
X137921304Y-95922136D01*
X137921309Y-95922138D01*
X138031128Y-95943982D01*
X138056350Y-95948999D01*
X138056354Y-95949000D01*
X138056355Y-95949000D01*
X138194046Y-95949000D01*
X138194047Y-95948999D01*
X138329091Y-95922138D01*
X138456301Y-95869446D01*
X138570786Y-95792949D01*
X138668149Y-95695586D01*
X138744646Y-95581101D01*
X138797338Y-95453891D01*
X138824200Y-95318845D01*
X138824200Y-95202994D01*
X139380414Y-95202994D01*
X139380414Y-95340693D01*
X139407274Y-95475727D01*
X139407277Y-95475739D01*
X139459965Y-95602940D01*
X139459966Y-95602942D01*
X139536464Y-95717429D01*
X139536467Y-95717433D01*
X139633824Y-95814790D01*
X139633828Y-95814793D01*
X139748313Y-95891290D01*
X139748314Y-95891290D01*
X139748315Y-95891291D01*
X139748317Y-95891292D01*
X139857450Y-95936496D01*
X139875523Y-95943982D01*
X139997337Y-95968212D01*
X140010564Y-95970843D01*
X140010568Y-95970844D01*
X140010569Y-95970844D01*
X140148260Y-95970844D01*
X140148261Y-95970843D01*
X140283305Y-95943982D01*
X140410515Y-95891290D01*
X140525000Y-95814793D01*
X140622363Y-95717430D01*
X140698860Y-95602945D01*
X140751552Y-95475735D01*
X140778414Y-95340689D01*
X140778414Y-95202999D01*
X140751552Y-95067953D01*
X140740574Y-95041449D01*
X141655299Y-95041449D01*
X141655299Y-95179148D01*
X141682159Y-95314182D01*
X141682162Y-95314194D01*
X141734850Y-95441395D01*
X141734851Y-95441397D01*
X141811349Y-95555884D01*
X141811352Y-95555888D01*
X141908709Y-95653245D01*
X141908713Y-95653248D01*
X142023198Y-95729745D01*
X142023199Y-95729745D01*
X142023200Y-95729746D01*
X142023202Y-95729747D01*
X142150403Y-95782435D01*
X142150408Y-95782437D01*
X142285449Y-95809298D01*
X142285453Y-95809299D01*
X142285454Y-95809299D01*
X142423145Y-95809299D01*
X142423146Y-95809298D01*
X142558190Y-95782437D01*
X142685400Y-95729745D01*
X142799885Y-95653248D01*
X142884867Y-95568266D01*
X143905107Y-95568266D01*
X143905107Y-95705965D01*
X143931967Y-95840999D01*
X143931970Y-95841011D01*
X143984658Y-95968212D01*
X143984659Y-95968214D01*
X144061157Y-96082701D01*
X144061160Y-96082705D01*
X144158517Y-96180062D01*
X144158521Y-96180065D01*
X144273006Y-96256562D01*
X144273007Y-96256562D01*
X144273008Y-96256563D01*
X144273010Y-96256564D01*
X144400211Y-96309252D01*
X144400216Y-96309254D01*
X144535257Y-96336115D01*
X144535261Y-96336116D01*
X144535262Y-96336116D01*
X144672953Y-96336116D01*
X144672954Y-96336115D01*
X144807998Y-96309254D01*
X144935208Y-96256562D01*
X145049693Y-96180065D01*
X145147056Y-96082702D01*
X145223553Y-95968217D01*
X145238671Y-95931718D01*
X147498566Y-95931718D01*
X147498566Y-96069417D01*
X147525426Y-96204451D01*
X147525429Y-96204463D01*
X147578117Y-96331664D01*
X147578118Y-96331666D01*
X147654616Y-96446153D01*
X147654619Y-96446157D01*
X147751976Y-96543514D01*
X147751980Y-96543517D01*
X147866465Y-96620014D01*
X147866466Y-96620014D01*
X147866467Y-96620015D01*
X147866469Y-96620016D01*
X147993670Y-96672704D01*
X147993675Y-96672706D01*
X148128716Y-96699567D01*
X148128720Y-96699568D01*
X148128721Y-96699568D01*
X148266412Y-96699568D01*
X148266413Y-96699567D01*
X148401457Y-96672706D01*
X148528667Y-96620014D01*
X148643152Y-96543517D01*
X148740515Y-96446154D01*
X148755937Y-96423074D01*
X155625500Y-96423074D01*
X155625500Y-96596925D01*
X155652697Y-96768639D01*
X155652697Y-96768642D01*
X155706418Y-96933978D01*
X155785347Y-97088884D01*
X155887535Y-97229533D01*
X156010467Y-97352465D01*
X156151116Y-97454653D01*
X156306019Y-97533580D01*
X156306021Y-97533581D01*
X156471358Y-97587302D01*
X156471359Y-97587302D01*
X156471362Y-97587303D01*
X156643074Y-97614500D01*
X156643075Y-97614500D01*
X156816925Y-97614500D01*
X156816926Y-97614500D01*
X156988638Y-97587303D01*
X156988641Y-97587302D01*
X156988642Y-97587302D01*
X157153978Y-97533581D01*
X157153978Y-97533580D01*
X157153981Y-97533580D01*
X157308884Y-97454653D01*
X157449533Y-97352465D01*
X157572465Y-97229533D01*
X157674653Y-97088884D01*
X157753580Y-96933981D01*
X157801787Y-96785614D01*
X157807302Y-96768642D01*
X157807302Y-96768641D01*
X157807303Y-96768638D01*
X157834500Y-96596926D01*
X157834500Y-96423074D01*
X158165500Y-96423074D01*
X158165500Y-96596925D01*
X158192697Y-96768639D01*
X158192697Y-96768642D01*
X158246418Y-96933978D01*
X158325347Y-97088884D01*
X158427535Y-97229533D01*
X158550467Y-97352465D01*
X158691116Y-97454653D01*
X158846019Y-97533580D01*
X158846021Y-97533581D01*
X159011358Y-97587302D01*
X159011359Y-97587302D01*
X159011362Y-97587303D01*
X159183074Y-97614500D01*
X159183075Y-97614500D01*
X159356925Y-97614500D01*
X159356926Y-97614500D01*
X159528638Y-97587303D01*
X159528641Y-97587302D01*
X159528642Y-97587302D01*
X159693978Y-97533581D01*
X159693978Y-97533580D01*
X159693981Y-97533580D01*
X159848884Y-97454653D01*
X159989533Y-97352465D01*
X160112465Y-97229533D01*
X160214653Y-97088884D01*
X160293580Y-96933981D01*
X160341787Y-96785614D01*
X160347302Y-96768642D01*
X160347302Y-96768641D01*
X160347303Y-96768638D01*
X160374500Y-96596926D01*
X160374500Y-96423074D01*
X160347303Y-96251362D01*
X160347302Y-96251358D01*
X160347302Y-96251357D01*
X160293581Y-96086021D01*
X160282206Y-96063697D01*
X160214653Y-95931116D01*
X160112465Y-95790467D01*
X159989533Y-95667535D01*
X159848884Y-95565347D01*
X159776970Y-95528705D01*
X159693978Y-95486418D01*
X159528641Y-95432697D01*
X159399854Y-95412299D01*
X159356926Y-95405500D01*
X159183074Y-95405500D01*
X159125836Y-95414565D01*
X159011360Y-95432697D01*
X159011357Y-95432697D01*
X158846021Y-95486418D01*
X158691115Y-95565347D01*
X158610869Y-95623649D01*
X158550467Y-95667535D01*
X158550465Y-95667537D01*
X158550464Y-95667537D01*
X158427537Y-95790464D01*
X158427537Y-95790465D01*
X158427535Y-95790467D01*
X158383649Y-95850869D01*
X158325347Y-95931115D01*
X158246418Y-96086021D01*
X158192697Y-96251357D01*
X158192697Y-96251360D01*
X158165500Y-96423074D01*
X157834500Y-96423074D01*
X157807303Y-96251362D01*
X157807302Y-96251358D01*
X157807302Y-96251357D01*
X157753581Y-96086021D01*
X157742206Y-96063697D01*
X157674653Y-95931116D01*
X157572465Y-95790467D01*
X157449533Y-95667535D01*
X157308884Y-95565347D01*
X157236970Y-95528705D01*
X157153978Y-95486418D01*
X156988641Y-95432697D01*
X156859854Y-95412299D01*
X156816926Y-95405500D01*
X156643074Y-95405500D01*
X156585836Y-95414565D01*
X156471360Y-95432697D01*
X156471357Y-95432697D01*
X156306021Y-95486418D01*
X156151115Y-95565347D01*
X156070869Y-95623649D01*
X156010467Y-95667535D01*
X156010465Y-95667537D01*
X156010464Y-95667537D01*
X155887537Y-95790464D01*
X155887537Y-95790465D01*
X155887535Y-95790467D01*
X155843649Y-95850869D01*
X155785347Y-95931115D01*
X155706418Y-96086021D01*
X155652697Y-96251357D01*
X155652697Y-96251360D01*
X155625500Y-96423074D01*
X148755937Y-96423074D01*
X148817012Y-96331669D01*
X148869704Y-96204459D01*
X148896566Y-96069413D01*
X148896566Y-95931723D01*
X148869704Y-95796677D01*
X148867131Y-95790465D01*
X148817014Y-95669471D01*
X148817013Y-95669469D01*
X148813192Y-95663751D01*
X148740515Y-95554982D01*
X148740512Y-95554978D01*
X148643155Y-95457621D01*
X148643151Y-95457618D01*
X148528664Y-95381120D01*
X148528662Y-95381119D01*
X148401461Y-95328431D01*
X148401449Y-95328428D01*
X148266415Y-95301568D01*
X148266411Y-95301568D01*
X148128721Y-95301568D01*
X148128716Y-95301568D01*
X147993682Y-95328428D01*
X147993670Y-95328431D01*
X147866469Y-95381119D01*
X147866467Y-95381120D01*
X147751980Y-95457618D01*
X147751976Y-95457621D01*
X147654619Y-95554978D01*
X147654616Y-95554982D01*
X147578118Y-95669469D01*
X147578117Y-95669471D01*
X147525429Y-95796672D01*
X147525426Y-95796684D01*
X147498566Y-95931718D01*
X145238671Y-95931718D01*
X145276245Y-95841007D01*
X145303107Y-95705961D01*
X145303107Y-95568271D01*
X145276245Y-95433225D01*
X145258029Y-95389247D01*
X145223555Y-95306019D01*
X145223554Y-95306017D01*
X145220581Y-95301568D01*
X145147056Y-95191530D01*
X145147053Y-95191526D01*
X145049696Y-95094169D01*
X145049692Y-95094166D01*
X144935205Y-95017668D01*
X144935203Y-95017667D01*
X144808002Y-94964979D01*
X144807990Y-94964976D01*
X144672956Y-94938116D01*
X144672952Y-94938116D01*
X144535262Y-94938116D01*
X144535257Y-94938116D01*
X144400223Y-94964976D01*
X144400211Y-94964979D01*
X144273010Y-95017667D01*
X144273008Y-95017668D01*
X144158521Y-95094166D01*
X144158517Y-95094169D01*
X144061160Y-95191526D01*
X144061157Y-95191530D01*
X143984659Y-95306017D01*
X143984658Y-95306019D01*
X143931970Y-95433220D01*
X143931967Y-95433232D01*
X143905107Y-95568266D01*
X142884867Y-95568266D01*
X142897248Y-95555885D01*
X142973745Y-95441400D01*
X143026437Y-95314190D01*
X143053299Y-95179144D01*
X143053299Y-95041454D01*
X143026437Y-94906408D01*
X142987525Y-94812465D01*
X142973747Y-94779202D01*
X142973746Y-94779200D01*
X142925537Y-94707051D01*
X142897248Y-94664713D01*
X142897245Y-94664709D01*
X142799888Y-94567352D01*
X142799884Y-94567349D01*
X142685397Y-94490851D01*
X142685395Y-94490850D01*
X142558194Y-94438162D01*
X142558182Y-94438159D01*
X142423148Y-94411299D01*
X142423144Y-94411299D01*
X142285454Y-94411299D01*
X142285449Y-94411299D01*
X142150415Y-94438159D01*
X142150403Y-94438162D01*
X142023202Y-94490850D01*
X142023200Y-94490851D01*
X141908713Y-94567349D01*
X141908709Y-94567352D01*
X141811352Y-94664709D01*
X141811349Y-94664713D01*
X141734851Y-94779200D01*
X141734850Y-94779202D01*
X141682162Y-94906403D01*
X141682159Y-94906415D01*
X141655299Y-95041449D01*
X140740574Y-95041449D01*
X140708899Y-94964979D01*
X140698862Y-94940747D01*
X140698861Y-94940745D01*
X140697104Y-94938116D01*
X140622363Y-94826258D01*
X140622360Y-94826254D01*
X140525003Y-94728897D01*
X140524999Y-94728894D01*
X140410512Y-94652396D01*
X140410510Y-94652395D01*
X140283309Y-94599707D01*
X140283297Y-94599704D01*
X140148263Y-94572844D01*
X140148259Y-94572844D01*
X140010569Y-94572844D01*
X140010564Y-94572844D01*
X139875530Y-94599704D01*
X139875518Y-94599707D01*
X139748317Y-94652395D01*
X139748315Y-94652396D01*
X139633828Y-94728894D01*
X139633824Y-94728897D01*
X139536467Y-94826254D01*
X139536464Y-94826258D01*
X139459966Y-94940745D01*
X139459965Y-94940747D01*
X139407277Y-95067948D01*
X139407274Y-95067960D01*
X139380414Y-95202994D01*
X138824200Y-95202994D01*
X138824200Y-95181155D01*
X138797338Y-95046109D01*
X138795410Y-95041454D01*
X138744648Y-94918903D01*
X138744647Y-94918901D01*
X138736299Y-94906408D01*
X138668149Y-94804414D01*
X138668146Y-94804410D01*
X138570789Y-94707053D01*
X138570785Y-94707050D01*
X138456298Y-94630552D01*
X138456296Y-94630551D01*
X138329095Y-94577863D01*
X138329083Y-94577860D01*
X138194049Y-94551000D01*
X138194045Y-94551000D01*
X138056355Y-94551000D01*
X138056350Y-94551000D01*
X137921316Y-94577860D01*
X137921304Y-94577863D01*
X137794103Y-94630551D01*
X137794101Y-94630552D01*
X137679614Y-94707050D01*
X137679610Y-94707053D01*
X137582253Y-94804410D01*
X137582250Y-94804414D01*
X137505752Y-94918901D01*
X137505751Y-94918903D01*
X137453063Y-95046104D01*
X137453060Y-95046116D01*
X137426200Y-95181150D01*
X136770093Y-95181150D01*
X136788549Y-95162694D01*
X136865046Y-95048209D01*
X136917738Y-94920999D01*
X136944600Y-94785953D01*
X136944600Y-94648263D01*
X136917738Y-94513217D01*
X136880653Y-94423685D01*
X136865048Y-94386011D01*
X136865047Y-94386009D01*
X136788549Y-94271522D01*
X136788546Y-94271518D01*
X136691189Y-94174161D01*
X136691185Y-94174158D01*
X136576698Y-94097660D01*
X136576696Y-94097659D01*
X136449495Y-94044971D01*
X136449483Y-94044968D01*
X136347970Y-94024776D01*
X136314449Y-94018108D01*
X136314445Y-94018108D01*
X136176755Y-94018108D01*
X136176750Y-94018108D01*
X136041716Y-94044968D01*
X136041704Y-94044971D01*
X135914503Y-94097659D01*
X135914501Y-94097660D01*
X135800014Y-94174158D01*
X135800010Y-94174161D01*
X135702653Y-94271518D01*
X135702650Y-94271522D01*
X135626152Y-94386009D01*
X135626151Y-94386011D01*
X135573463Y-94513212D01*
X135573460Y-94513224D01*
X135546600Y-94648258D01*
X122048997Y-94648258D01*
X122022498Y-94630552D01*
X122022496Y-94630551D01*
X121895295Y-94577863D01*
X121895283Y-94577860D01*
X121760249Y-94551000D01*
X121760245Y-94551000D01*
X121622555Y-94551000D01*
X121622550Y-94551000D01*
X121487516Y-94577860D01*
X121487504Y-94577863D01*
X121360303Y-94630551D01*
X121360301Y-94630552D01*
X121245814Y-94707050D01*
X121245810Y-94707053D01*
X121148453Y-94804410D01*
X121148450Y-94804414D01*
X121071952Y-94918901D01*
X121071951Y-94918903D01*
X121019263Y-95046104D01*
X121019260Y-95046116D01*
X120992400Y-95181150D01*
X108357463Y-95181150D01*
X108255699Y-95113153D01*
X108255697Y-95113152D01*
X108128496Y-95060464D01*
X108128484Y-95060461D01*
X107993450Y-95033601D01*
X107993446Y-95033601D01*
X107855756Y-95033601D01*
X107855751Y-95033601D01*
X107720717Y-95060461D01*
X107720705Y-95060464D01*
X107593504Y-95113152D01*
X107593502Y-95113153D01*
X107479015Y-95189651D01*
X107479011Y-95189654D01*
X107381654Y-95287011D01*
X107381651Y-95287015D01*
X107305153Y-95401502D01*
X107305152Y-95401504D01*
X107252464Y-95528705D01*
X107252461Y-95528717D01*
X107225601Y-95663751D01*
X105347000Y-95663751D01*
X105347000Y-95612955D01*
X105320138Y-95477909D01*
X105319234Y-95475727D01*
X105267448Y-95350703D01*
X105267447Y-95350701D01*
X105257994Y-95336554D01*
X105190949Y-95236214D01*
X105190946Y-95236210D01*
X105093589Y-95138853D01*
X105093585Y-95138850D01*
X104979098Y-95062352D01*
X104979096Y-95062351D01*
X104851895Y-95009663D01*
X104851883Y-95009660D01*
X104716849Y-94982800D01*
X104716845Y-94982800D01*
X104579155Y-94982800D01*
X104579150Y-94982800D01*
X104444116Y-95009660D01*
X104444104Y-95009663D01*
X104316903Y-95062351D01*
X104316901Y-95062352D01*
X104202414Y-95138850D01*
X104202410Y-95138853D01*
X104105053Y-95236210D01*
X104105050Y-95236214D01*
X104028552Y-95350701D01*
X104028551Y-95350703D01*
X103975863Y-95477904D01*
X103975860Y-95477916D01*
X103949000Y-95612950D01*
X76529765Y-95612950D01*
X76529440Y-93909246D01*
X144540104Y-93909246D01*
X144540104Y-94046945D01*
X144566964Y-94181979D01*
X144566967Y-94181991D01*
X144619655Y-94309192D01*
X144619656Y-94309194D01*
X144696154Y-94423681D01*
X144696157Y-94423685D01*
X144793514Y-94521042D01*
X144793518Y-94521045D01*
X144908003Y-94597542D01*
X144908004Y-94597542D01*
X144908005Y-94597543D01*
X144908007Y-94597544D01*
X145035208Y-94650232D01*
X145035213Y-94650234D01*
X145170254Y-94677095D01*
X145170258Y-94677096D01*
X145170259Y-94677096D01*
X145307950Y-94677096D01*
X145307951Y-94677095D01*
X145442995Y-94650234D01*
X145570205Y-94597542D01*
X145684690Y-94521045D01*
X145782053Y-94423682D01*
X145858550Y-94309197D01*
X145911242Y-94181987D01*
X145938104Y-94046941D01*
X145938104Y-93909251D01*
X145932897Y-93883074D01*
X155625500Y-93883074D01*
X155625500Y-94056925D01*
X155652697Y-94228639D01*
X155652697Y-94228642D01*
X155706418Y-94393978D01*
X155728931Y-94438162D01*
X155785347Y-94548884D01*
X155887535Y-94689533D01*
X156010467Y-94812465D01*
X156151116Y-94914653D01*
X156284862Y-94982800D01*
X156306021Y-94993581D01*
X156471358Y-95047302D01*
X156471359Y-95047302D01*
X156471362Y-95047303D01*
X156643074Y-95074500D01*
X156643075Y-95074500D01*
X156816925Y-95074500D01*
X156816926Y-95074500D01*
X156988638Y-95047303D01*
X156988641Y-95047302D01*
X156988642Y-95047302D01*
X157153978Y-94993581D01*
X157153978Y-94993580D01*
X157153981Y-94993580D01*
X157308884Y-94914653D01*
X157449533Y-94812465D01*
X157572465Y-94689533D01*
X157674653Y-94548884D01*
X157753580Y-94393981D01*
X157793369Y-94271522D01*
X157807302Y-94228642D01*
X157807302Y-94228641D01*
X157807303Y-94228638D01*
X157834500Y-94056926D01*
X157834500Y-93883074D01*
X157807303Y-93711362D01*
X157807302Y-93711358D01*
X157807302Y-93711357D01*
X157753581Y-93546021D01*
X157715821Y-93471913D01*
X157674653Y-93391116D01*
X157572465Y-93250467D01*
X157449533Y-93127535D01*
X157308884Y-93025347D01*
X157267828Y-93004428D01*
X157153978Y-92946418D01*
X156988641Y-92892697D01*
X156859854Y-92872299D01*
X156816926Y-92865500D01*
X156643074Y-92865500D01*
X156585836Y-92874565D01*
X156471360Y-92892697D01*
X156471357Y-92892697D01*
X156306021Y-92946418D01*
X156151115Y-93025347D01*
X156070869Y-93083649D01*
X156010467Y-93127535D01*
X156010465Y-93127537D01*
X156010464Y-93127537D01*
X155887537Y-93250464D01*
X155887537Y-93250465D01*
X155887535Y-93250467D01*
X155843649Y-93310869D01*
X155785347Y-93391115D01*
X155706418Y-93546021D01*
X155652697Y-93711357D01*
X155652697Y-93711360D01*
X155625500Y-93883074D01*
X145932897Y-93883074D01*
X145911242Y-93774205D01*
X145858550Y-93646995D01*
X145782053Y-93532510D01*
X145782050Y-93532506D01*
X145684693Y-93435149D01*
X145684689Y-93435146D01*
X145570202Y-93358648D01*
X145570200Y-93358647D01*
X145442999Y-93305959D01*
X145442987Y-93305956D01*
X145307953Y-93279096D01*
X145307949Y-93279096D01*
X145170259Y-93279096D01*
X145170254Y-93279096D01*
X145035220Y-93305956D01*
X145035208Y-93305959D01*
X144908007Y-93358647D01*
X144908005Y-93358648D01*
X144793518Y-93435146D01*
X144793514Y-93435149D01*
X144696157Y-93532506D01*
X144696154Y-93532510D01*
X144619656Y-93646997D01*
X144619655Y-93646999D01*
X144566967Y-93774200D01*
X144566964Y-93774212D01*
X144540104Y-93909246D01*
X76529440Y-93909246D01*
X76529300Y-93174052D01*
X76529564Y-93165967D01*
X76546227Y-92911724D01*
X76548341Y-92895672D01*
X76555414Y-92860114D01*
X111696000Y-92860114D01*
X111696000Y-92997813D01*
X111722860Y-93132847D01*
X111722863Y-93132859D01*
X111775551Y-93260060D01*
X111775552Y-93260062D01*
X111852050Y-93374549D01*
X111852053Y-93374553D01*
X111949410Y-93471910D01*
X111949414Y-93471913D01*
X112063899Y-93548410D01*
X112063900Y-93548410D01*
X112063901Y-93548411D01*
X112063903Y-93548412D01*
X112191104Y-93601100D01*
X112191109Y-93601102D01*
X112326150Y-93627963D01*
X112326154Y-93627964D01*
X112326155Y-93627964D01*
X112463846Y-93627964D01*
X112463847Y-93627963D01*
X112598891Y-93601102D01*
X112726101Y-93548410D01*
X112840586Y-93471913D01*
X112937949Y-93374550D01*
X113014446Y-93260065D01*
X113067138Y-93132855D01*
X113094000Y-92997809D01*
X113094000Y-92860119D01*
X113067138Y-92725073D01*
X113043932Y-92669048D01*
X113014448Y-92597867D01*
X113014447Y-92597865D01*
X112937949Y-92483378D01*
X112937946Y-92483374D01*
X112840589Y-92386017D01*
X112840585Y-92386014D01*
X112726098Y-92309516D01*
X112726096Y-92309515D01*
X112598895Y-92256827D01*
X112598883Y-92256824D01*
X112463849Y-92229964D01*
X112463845Y-92229964D01*
X112326155Y-92229964D01*
X112326150Y-92229964D01*
X112191116Y-92256824D01*
X112191104Y-92256827D01*
X112063903Y-92309515D01*
X112063901Y-92309516D01*
X111949414Y-92386014D01*
X111949410Y-92386017D01*
X111852053Y-92483374D01*
X111852050Y-92483378D01*
X111775552Y-92597865D01*
X111775551Y-92597867D01*
X111722863Y-92725068D01*
X111722860Y-92725080D01*
X111696000Y-92860114D01*
X76555414Y-92860114D01*
X76597252Y-92649785D01*
X76601441Y-92634148D01*
X76682030Y-92396741D01*
X76688227Y-92381781D01*
X76799110Y-92156933D01*
X76807213Y-92142898D01*
X76946496Y-91934446D01*
X76956353Y-91921600D01*
X77121653Y-91733111D01*
X77133111Y-91721653D01*
X77321600Y-91556353D01*
X77334446Y-91546496D01*
X77542898Y-91407213D01*
X77556933Y-91399110D01*
X77781781Y-91288227D01*
X77796741Y-91282030D01*
X78034148Y-91201441D01*
X78049785Y-91197252D01*
X78295670Y-91148342D01*
X78311726Y-91146227D01*
X78543933Y-91131008D01*
X78565958Y-91129565D01*
X78574067Y-91129300D01*
X143980510Y-91129300D01*
X144047549Y-91148985D01*
X144093304Y-91201789D01*
X144103248Y-91270947D01*
X144074223Y-91334503D01*
X144015445Y-91372277D01*
X144004701Y-91374917D01*
X143991916Y-91377460D01*
X143991904Y-91377463D01*
X143864703Y-91430151D01*
X143864701Y-91430152D01*
X143750214Y-91506650D01*
X143750210Y-91506653D01*
X143652853Y-91604010D01*
X143652850Y-91604014D01*
X143576352Y-91718501D01*
X143576351Y-91718503D01*
X143523663Y-91845704D01*
X143523660Y-91845716D01*
X143496800Y-91980750D01*
X143496800Y-92118449D01*
X143523660Y-92253483D01*
X143523663Y-92253495D01*
X143576351Y-92380696D01*
X143576352Y-92380698D01*
X143652850Y-92495185D01*
X143652853Y-92495189D01*
X143750210Y-92592546D01*
X143750214Y-92592549D01*
X143864699Y-92669046D01*
X143864700Y-92669046D01*
X143864701Y-92669047D01*
X143864703Y-92669048D01*
X143991904Y-92721736D01*
X143991909Y-92721738D01*
X144126950Y-92748599D01*
X144126954Y-92748600D01*
X144126955Y-92748600D01*
X144264646Y-92748600D01*
X144264647Y-92748599D01*
X144399691Y-92721738D01*
X144526901Y-92669046D01*
X144641386Y-92592549D01*
X144738749Y-92495186D01*
X144815246Y-92380701D01*
X144867938Y-92253491D01*
X144894800Y-92118445D01*
X144894800Y-91980755D01*
X144867938Y-91845709D01*
X144818770Y-91727007D01*
X144815248Y-91718503D01*
X144815247Y-91718501D01*
X144738749Y-91604014D01*
X144738746Y-91604010D01*
X144641389Y-91506653D01*
X144641385Y-91506650D01*
X144553415Y-91447870D01*
X144553414Y-91447869D01*
X144526901Y-91430154D01*
X144399691Y-91377462D01*
X144374537Y-91372458D01*
X144362920Y-91367561D01*
X144345224Y-91353117D01*
X144326024Y-91343074D01*
X155625500Y-91343074D01*
X155625500Y-91516925D01*
X155652697Y-91688639D01*
X155652697Y-91688642D01*
X155706418Y-91853978D01*
X155785347Y-92008884D01*
X155887535Y-92149533D01*
X156010467Y-92272465D01*
X156151116Y-92374653D01*
X156194490Y-92396753D01*
X156306021Y-92453581D01*
X156471358Y-92507302D01*
X156471359Y-92507302D01*
X156471362Y-92507303D01*
X156643074Y-92534500D01*
X156643075Y-92534500D01*
X156816925Y-92534500D01*
X156816926Y-92534500D01*
X156988638Y-92507303D01*
X156988641Y-92507302D01*
X156988642Y-92507302D01*
X157153978Y-92453581D01*
X157153978Y-92453580D01*
X157153981Y-92453580D01*
X157308884Y-92374653D01*
X157449533Y-92272465D01*
X157572465Y-92149533D01*
X157674653Y-92008884D01*
X157753580Y-91853981D01*
X157794836Y-91727007D01*
X157807302Y-91688642D01*
X157807302Y-91688641D01*
X157807303Y-91688638D01*
X157834500Y-91516926D01*
X157834500Y-91343074D01*
X158165500Y-91343074D01*
X158165500Y-91516925D01*
X158192697Y-91688639D01*
X158192697Y-91688642D01*
X158246418Y-91853978D01*
X158325347Y-92008884D01*
X158427535Y-92149533D01*
X158550467Y-92272465D01*
X158691116Y-92374653D01*
X158734490Y-92396753D01*
X158846021Y-92453581D01*
X159011358Y-92507302D01*
X159011359Y-92507302D01*
X159011362Y-92507303D01*
X159183074Y-92534500D01*
X159183075Y-92534500D01*
X159356925Y-92534500D01*
X159356926Y-92534500D01*
X159528638Y-92507303D01*
X159528641Y-92507302D01*
X159528642Y-92507302D01*
X159693978Y-92453581D01*
X159693978Y-92453580D01*
X159693981Y-92453580D01*
X159848884Y-92374653D01*
X159989533Y-92272465D01*
X160112465Y-92149533D01*
X160214653Y-92008884D01*
X160293580Y-91853981D01*
X160334836Y-91727007D01*
X160347302Y-91688642D01*
X160347302Y-91688641D01*
X160347303Y-91688638D01*
X160374500Y-91516926D01*
X160374500Y-91343074D01*
X160347303Y-91171362D01*
X160347302Y-91171358D01*
X160347302Y-91171357D01*
X160293581Y-91006021D01*
X160293580Y-91006019D01*
X160214653Y-90851116D01*
X160112465Y-90710467D01*
X159989533Y-90587535D01*
X159848884Y-90485347D01*
X159763642Y-90441914D01*
X159693978Y-90406418D01*
X159528641Y-90352697D01*
X159399854Y-90332299D01*
X159356926Y-90325500D01*
X159183074Y-90325500D01*
X159125836Y-90334565D01*
X159011360Y-90352697D01*
X159011357Y-90352697D01*
X158846021Y-90406418D01*
X158691115Y-90485347D01*
X158610869Y-90543649D01*
X158550467Y-90587535D01*
X158550465Y-90587537D01*
X158550464Y-90587537D01*
X158427537Y-90710464D01*
X158427537Y-90710465D01*
X158427535Y-90710467D01*
X158383649Y-90770869D01*
X158325347Y-90851115D01*
X158246418Y-91006021D01*
X158192697Y-91171357D01*
X158192697Y-91171360D01*
X158165500Y-91343074D01*
X157834500Y-91343074D01*
X157807303Y-91171362D01*
X157807302Y-91171358D01*
X157807302Y-91171357D01*
X157753581Y-91006021D01*
X157753580Y-91006019D01*
X157674653Y-90851116D01*
X157572465Y-90710467D01*
X157449533Y-90587535D01*
X157308884Y-90485347D01*
X157223642Y-90441914D01*
X157153978Y-90406418D01*
X156988641Y-90352697D01*
X156859854Y-90332299D01*
X156816926Y-90325500D01*
X156643074Y-90325500D01*
X156585836Y-90334565D01*
X156471360Y-90352697D01*
X156471357Y-90352697D01*
X156306021Y-90406418D01*
X156151115Y-90485347D01*
X156070869Y-90543649D01*
X156010467Y-90587535D01*
X156010465Y-90587537D01*
X156010464Y-90587537D01*
X155887537Y-90710464D01*
X155887537Y-90710465D01*
X155887535Y-90710467D01*
X155843649Y-90770869D01*
X155785347Y-90851115D01*
X155706418Y-91006021D01*
X155652697Y-91171357D01*
X155652697Y-91171360D01*
X155625500Y-91343074D01*
X144326024Y-91343074D01*
X144324988Y-91342532D01*
X144318676Y-91331447D01*
X144308792Y-91323380D01*
X144301715Y-91301662D01*
X144290414Y-91281817D01*
X144291096Y-91269077D01*
X144287144Y-91256948D01*
X144292930Y-91234854D01*
X144294153Y-91212047D01*
X144301614Y-91201699D01*
X144304847Y-91189359D01*
X144321661Y-91173899D01*
X144335020Y-91155375D01*
X144346890Y-91150704D01*
X144356282Y-91142070D01*
X144378786Y-91138155D01*
X144400038Y-91129794D01*
X144411090Y-91129300D01*
X151038422Y-91129300D01*
X151038427Y-91129300D01*
X151361503Y-91095343D01*
X151679259Y-91027802D01*
X151988214Y-90927416D01*
X152284984Y-90795286D01*
X152566316Y-90632859D01*
X152829129Y-90441914D01*
X153070543Y-90224543D01*
X153287914Y-89983129D01*
X153478859Y-89720316D01*
X153641286Y-89438984D01*
X153773416Y-89142214D01*
X153873802Y-88833259D01*
X153880218Y-88803074D01*
X158165500Y-88803074D01*
X158165500Y-88976925D01*
X158192697Y-89148639D01*
X158192697Y-89148642D01*
X158246418Y-89313978D01*
X158246420Y-89313981D01*
X158325347Y-89468884D01*
X158427535Y-89609533D01*
X158550467Y-89732465D01*
X158691116Y-89834653D01*
X158846019Y-89913580D01*
X158846021Y-89913581D01*
X159011358Y-89967302D01*
X159011359Y-89967302D01*
X159011362Y-89967303D01*
X159183074Y-89994500D01*
X159183075Y-89994500D01*
X159356925Y-89994500D01*
X159356926Y-89994500D01*
X159528638Y-89967303D01*
X159528641Y-89967302D01*
X159528642Y-89967302D01*
X159693978Y-89913581D01*
X159693978Y-89913580D01*
X159693981Y-89913580D01*
X159848884Y-89834653D01*
X159989533Y-89732465D01*
X160112465Y-89609533D01*
X160214653Y-89468884D01*
X160293580Y-89313981D01*
X160347303Y-89148638D01*
X160374500Y-88976926D01*
X160374500Y-88803074D01*
X160347303Y-88631362D01*
X160347302Y-88631358D01*
X160347302Y-88631357D01*
X160293581Y-88466021D01*
X160214652Y-88311115D01*
X160198245Y-88288533D01*
X160112465Y-88170467D01*
X159989533Y-88047535D01*
X159848884Y-87945347D01*
X159693978Y-87866418D01*
X159528641Y-87812697D01*
X159399854Y-87792299D01*
X159356926Y-87785500D01*
X159183074Y-87785500D01*
X159125836Y-87794565D01*
X159011360Y-87812697D01*
X159011357Y-87812697D01*
X158846021Y-87866418D01*
X158691115Y-87945347D01*
X158610869Y-88003649D01*
X158550467Y-88047535D01*
X158550465Y-88047537D01*
X158550464Y-88047537D01*
X158427537Y-88170464D01*
X158427537Y-88170465D01*
X158427535Y-88170467D01*
X158411584Y-88192422D01*
X158325347Y-88311115D01*
X158246418Y-88466021D01*
X158192697Y-88631357D01*
X158192697Y-88631360D01*
X158165500Y-88803074D01*
X153880218Y-88803074D01*
X153941343Y-88515503D01*
X153975300Y-88192427D01*
X153975300Y-88030000D01*
X153975300Y-87962089D01*
X153975300Y-86263074D01*
X155625500Y-86263074D01*
X155625500Y-86436925D01*
X155652697Y-86608639D01*
X155652697Y-86608642D01*
X155706418Y-86773978D01*
X155706420Y-86773981D01*
X155785347Y-86928884D01*
X155887535Y-87069533D01*
X156010467Y-87192465D01*
X156151116Y-87294653D01*
X156306019Y-87373580D01*
X156306021Y-87373581D01*
X156471358Y-87427302D01*
X156471359Y-87427302D01*
X156471362Y-87427303D01*
X156643074Y-87454500D01*
X156643075Y-87454500D01*
X156816925Y-87454500D01*
X156816926Y-87454500D01*
X156988638Y-87427303D01*
X156988641Y-87427302D01*
X156988642Y-87427302D01*
X157153978Y-87373581D01*
X157153978Y-87373580D01*
X157153981Y-87373580D01*
X157308884Y-87294653D01*
X157449533Y-87192465D01*
X157572465Y-87069533D01*
X157674653Y-86928884D01*
X157753580Y-86773981D01*
X157807303Y-86608638D01*
X157834500Y-86436926D01*
X157834500Y-86263074D01*
X158165500Y-86263074D01*
X158165500Y-86436925D01*
X158192697Y-86608639D01*
X158192697Y-86608642D01*
X158246418Y-86773978D01*
X158246420Y-86773981D01*
X158325347Y-86928884D01*
X158427535Y-87069533D01*
X158550467Y-87192465D01*
X158691116Y-87294653D01*
X158846019Y-87373580D01*
X158846021Y-87373581D01*
X159011358Y-87427302D01*
X159011359Y-87427302D01*
X159011362Y-87427303D01*
X159183074Y-87454500D01*
X159183075Y-87454500D01*
X159356925Y-87454500D01*
X159356926Y-87454500D01*
X159528638Y-87427303D01*
X159528641Y-87427302D01*
X159528642Y-87427302D01*
X159693978Y-87373581D01*
X159693978Y-87373580D01*
X159693981Y-87373580D01*
X159848884Y-87294653D01*
X159989533Y-87192465D01*
X160112465Y-87069533D01*
X160214653Y-86928884D01*
X160293580Y-86773981D01*
X160347303Y-86608638D01*
X160374500Y-86436926D01*
X160374500Y-86263074D01*
X160347303Y-86091362D01*
X160347302Y-86091358D01*
X160347302Y-86091357D01*
X160293581Y-85926021D01*
X160214652Y-85771115D01*
X160112465Y-85630467D01*
X159989533Y-85507535D01*
X159848884Y-85405347D01*
X159693978Y-85326418D01*
X159528641Y-85272697D01*
X159399854Y-85252299D01*
X159356926Y-85245500D01*
X159183074Y-85245500D01*
X159125836Y-85254565D01*
X159011360Y-85272697D01*
X159011357Y-85272697D01*
X158846021Y-85326418D01*
X158691115Y-85405347D01*
X158610869Y-85463649D01*
X158550467Y-85507535D01*
X158550465Y-85507537D01*
X158550464Y-85507537D01*
X158427537Y-85630464D01*
X158427537Y-85630465D01*
X158427535Y-85630467D01*
X158383649Y-85690869D01*
X158325347Y-85771115D01*
X158246418Y-85926021D01*
X158192697Y-86091357D01*
X158192697Y-86091360D01*
X158165500Y-86263074D01*
X157834500Y-86263074D01*
X157807303Y-86091362D01*
X157807302Y-86091358D01*
X157807302Y-86091357D01*
X157753581Y-85926021D01*
X157674652Y-85771115D01*
X157572465Y-85630467D01*
X157449533Y-85507535D01*
X157308884Y-85405347D01*
X157153978Y-85326418D01*
X156988641Y-85272697D01*
X156859854Y-85252299D01*
X156816926Y-85245500D01*
X156643074Y-85245500D01*
X156585836Y-85254565D01*
X156471360Y-85272697D01*
X156471357Y-85272697D01*
X156306021Y-85326418D01*
X156151115Y-85405347D01*
X156070869Y-85463649D01*
X156010467Y-85507535D01*
X156010465Y-85507537D01*
X156010464Y-85507537D01*
X155887537Y-85630464D01*
X155887537Y-85630465D01*
X155887535Y-85630467D01*
X155843649Y-85690869D01*
X155785347Y-85771115D01*
X155706418Y-85926021D01*
X155652697Y-86091357D01*
X155652697Y-86091360D01*
X155625500Y-86263074D01*
X153975300Y-86263074D01*
X153975300Y-83723074D01*
X155625500Y-83723074D01*
X155625500Y-83896925D01*
X155652697Y-84068639D01*
X155652697Y-84068642D01*
X155706418Y-84233978D01*
X155706420Y-84233981D01*
X155785347Y-84388884D01*
X155887535Y-84529533D01*
X156010467Y-84652465D01*
X156151116Y-84754653D01*
X156306019Y-84833580D01*
X156306021Y-84833581D01*
X156471358Y-84887302D01*
X156471359Y-84887302D01*
X156471362Y-84887303D01*
X156643074Y-84914500D01*
X156643075Y-84914500D01*
X156816925Y-84914500D01*
X156816926Y-84914500D01*
X156988638Y-84887303D01*
X156988641Y-84887302D01*
X156988642Y-84887302D01*
X157153978Y-84833581D01*
X157153978Y-84833580D01*
X157153981Y-84833580D01*
X157308884Y-84754653D01*
X157449533Y-84652465D01*
X157572465Y-84529533D01*
X157674653Y-84388884D01*
X157753580Y-84233981D01*
X157807303Y-84068638D01*
X157834500Y-83896926D01*
X157834500Y-83723074D01*
X158165500Y-83723074D01*
X158165500Y-83896925D01*
X158192697Y-84068639D01*
X158192697Y-84068642D01*
X158246418Y-84233978D01*
X158246420Y-84233981D01*
X158325347Y-84388884D01*
X158427535Y-84529533D01*
X158550467Y-84652465D01*
X158691116Y-84754653D01*
X158846019Y-84833580D01*
X158846021Y-84833581D01*
X159011358Y-84887302D01*
X159011359Y-84887302D01*
X159011362Y-84887303D01*
X159183074Y-84914500D01*
X159183075Y-84914500D01*
X159356925Y-84914500D01*
X159356926Y-84914500D01*
X159528638Y-84887303D01*
X159528641Y-84887302D01*
X159528642Y-84887302D01*
X159693978Y-84833581D01*
X159693978Y-84833580D01*
X159693981Y-84833580D01*
X159848884Y-84754653D01*
X159989533Y-84652465D01*
X160112465Y-84529533D01*
X160214653Y-84388884D01*
X160293580Y-84233981D01*
X160347303Y-84068638D01*
X160374500Y-83896926D01*
X160374500Y-83723074D01*
X160347303Y-83551362D01*
X160347302Y-83551358D01*
X160347302Y-83551357D01*
X160293581Y-83386021D01*
X160214652Y-83231115D01*
X160112465Y-83090467D01*
X159989533Y-82967535D01*
X159848884Y-82865347D01*
X159693978Y-82786418D01*
X159528641Y-82732697D01*
X159399854Y-82712299D01*
X159356926Y-82705500D01*
X159183074Y-82705500D01*
X159125836Y-82714565D01*
X159011360Y-82732697D01*
X159011357Y-82732697D01*
X158846021Y-82786418D01*
X158691115Y-82865347D01*
X158610869Y-82923649D01*
X158550467Y-82967535D01*
X158550465Y-82967537D01*
X158550464Y-82967537D01*
X158427537Y-83090464D01*
X158427537Y-83090465D01*
X158427535Y-83090467D01*
X158383649Y-83150869D01*
X158325347Y-83231115D01*
X158246418Y-83386021D01*
X158192697Y-83551357D01*
X158192697Y-83551360D01*
X158165500Y-83723074D01*
X157834500Y-83723074D01*
X157807303Y-83551362D01*
X157807302Y-83551358D01*
X157807302Y-83551357D01*
X157753581Y-83386021D01*
X157674652Y-83231115D01*
X157572465Y-83090467D01*
X157449533Y-82967535D01*
X157308884Y-82865347D01*
X157153978Y-82786418D01*
X156988641Y-82732697D01*
X156859854Y-82712299D01*
X156816926Y-82705500D01*
X156643074Y-82705500D01*
X156585836Y-82714565D01*
X156471360Y-82732697D01*
X156471357Y-82732697D01*
X156306021Y-82786418D01*
X156151115Y-82865347D01*
X156070869Y-82923649D01*
X156010467Y-82967535D01*
X156010465Y-82967537D01*
X156010464Y-82967537D01*
X155887537Y-83090464D01*
X155887537Y-83090465D01*
X155887535Y-83090467D01*
X155843649Y-83150869D01*
X155785347Y-83231115D01*
X155706418Y-83386021D01*
X155652697Y-83551357D01*
X155652697Y-83551360D01*
X155625500Y-83723074D01*
X153975300Y-83723074D01*
X153975300Y-81183074D01*
X158165500Y-81183074D01*
X158165500Y-81356925D01*
X158192697Y-81528639D01*
X158192697Y-81528642D01*
X158246418Y-81693978D01*
X158246420Y-81693981D01*
X158325347Y-81848884D01*
X158427535Y-81989533D01*
X158550467Y-82112465D01*
X158691116Y-82214653D01*
X158846019Y-82293580D01*
X158846021Y-82293581D01*
X159011358Y-82347302D01*
X159011359Y-82347302D01*
X159011362Y-82347303D01*
X159183074Y-82374500D01*
X159183075Y-82374500D01*
X159356925Y-82374500D01*
X159356926Y-82374500D01*
X159528638Y-82347303D01*
X159528641Y-82347302D01*
X159528642Y-82347302D01*
X159693978Y-82293581D01*
X159693978Y-82293580D01*
X159693981Y-82293580D01*
X159848884Y-82214653D01*
X159989533Y-82112465D01*
X160112465Y-81989533D01*
X160214653Y-81848884D01*
X160293580Y-81693981D01*
X160347303Y-81528638D01*
X160374500Y-81356926D01*
X160374500Y-81183074D01*
X160347303Y-81011362D01*
X160347302Y-81011358D01*
X160347302Y-81011357D01*
X160293581Y-80846021D01*
X160214652Y-80691115D01*
X160112465Y-80550467D01*
X159989533Y-80427535D01*
X159848884Y-80325347D01*
X159693978Y-80246418D01*
X159528641Y-80192697D01*
X159399854Y-80172299D01*
X159356926Y-80165500D01*
X159183074Y-80165500D01*
X159125836Y-80174565D01*
X159011360Y-80192697D01*
X159011357Y-80192697D01*
X158846021Y-80246418D01*
X158691115Y-80325347D01*
X158610869Y-80383649D01*
X158550467Y-80427535D01*
X158550465Y-80427537D01*
X158550464Y-80427537D01*
X158427537Y-80550464D01*
X158427537Y-80550465D01*
X158427535Y-80550467D01*
X158383649Y-80610869D01*
X158325347Y-80691115D01*
X158246418Y-80846021D01*
X158192697Y-81011357D01*
X158192697Y-81011360D01*
X158165500Y-81183074D01*
X153975300Y-81183074D01*
X153975300Y-78643074D01*
X155625500Y-78643074D01*
X155625500Y-78816925D01*
X155652697Y-78988639D01*
X155652697Y-78988642D01*
X155706418Y-79153978D01*
X155706420Y-79153981D01*
X155785347Y-79308884D01*
X155887535Y-79449533D01*
X156010467Y-79572465D01*
X156151116Y-79674653D01*
X156306019Y-79753580D01*
X156306021Y-79753581D01*
X156471358Y-79807302D01*
X156471359Y-79807302D01*
X156471362Y-79807303D01*
X156643074Y-79834500D01*
X156643075Y-79834500D01*
X156816925Y-79834500D01*
X156816926Y-79834500D01*
X156988638Y-79807303D01*
X156988641Y-79807302D01*
X156988642Y-79807302D01*
X157153978Y-79753581D01*
X157153978Y-79753580D01*
X157153981Y-79753580D01*
X157308884Y-79674653D01*
X157449533Y-79572465D01*
X157572465Y-79449533D01*
X157674653Y-79308884D01*
X157753580Y-79153981D01*
X157807303Y-78988638D01*
X157834500Y-78816926D01*
X157834500Y-78643074D01*
X158165500Y-78643074D01*
X158165500Y-78816925D01*
X158192697Y-78988639D01*
X158192697Y-78988642D01*
X158246418Y-79153978D01*
X158246420Y-79153981D01*
X158325347Y-79308884D01*
X158427535Y-79449533D01*
X158550467Y-79572465D01*
X158691116Y-79674653D01*
X158846019Y-79753580D01*
X158846021Y-79753581D01*
X159011358Y-79807302D01*
X159011359Y-79807302D01*
X159011362Y-79807303D01*
X159183074Y-79834500D01*
X159183075Y-79834500D01*
X159356925Y-79834500D01*
X159356926Y-79834500D01*
X159528638Y-79807303D01*
X159528641Y-79807302D01*
X159528642Y-79807302D01*
X159693978Y-79753581D01*
X159693978Y-79753580D01*
X159693981Y-79753580D01*
X159848884Y-79674653D01*
X159989533Y-79572465D01*
X160112465Y-79449533D01*
X160214653Y-79308884D01*
X160293580Y-79153981D01*
X160347303Y-78988638D01*
X160374500Y-78816926D01*
X160374500Y-78643074D01*
X160347303Y-78471362D01*
X160347302Y-78471358D01*
X160347302Y-78471357D01*
X160293581Y-78306021D01*
X160214652Y-78151115D01*
X160112465Y-78010467D01*
X159989533Y-77887535D01*
X159848884Y-77785347D01*
X159693978Y-77706418D01*
X159528641Y-77652697D01*
X159399854Y-77632299D01*
X159356926Y-77625500D01*
X159183074Y-77625500D01*
X159125836Y-77634565D01*
X159011360Y-77652697D01*
X159011357Y-77652697D01*
X158846021Y-77706418D01*
X158691115Y-77785347D01*
X158610869Y-77843649D01*
X158550467Y-77887535D01*
X158550465Y-77887537D01*
X158550464Y-77887537D01*
X158427537Y-78010464D01*
X158427537Y-78010465D01*
X158427535Y-78010467D01*
X158383649Y-78070869D01*
X158325347Y-78151115D01*
X158246418Y-78306021D01*
X158192697Y-78471357D01*
X158192697Y-78471360D01*
X158165500Y-78643074D01*
X157834500Y-78643074D01*
X157807303Y-78471362D01*
X157807302Y-78471358D01*
X157807302Y-78471357D01*
X157753581Y-78306021D01*
X157674652Y-78151115D01*
X157572465Y-78010467D01*
X157449533Y-77887535D01*
X157308884Y-77785347D01*
X157153978Y-77706418D01*
X156988641Y-77652697D01*
X156859854Y-77632299D01*
X156816926Y-77625500D01*
X156643074Y-77625500D01*
X156585836Y-77634565D01*
X156471360Y-77652697D01*
X156471357Y-77652697D01*
X156306021Y-77706418D01*
X156151115Y-77785347D01*
X156070869Y-77843649D01*
X156010467Y-77887535D01*
X156010465Y-77887537D01*
X156010464Y-77887537D01*
X155887537Y-78010464D01*
X155887537Y-78010465D01*
X155887535Y-78010467D01*
X155843649Y-78070869D01*
X155785347Y-78151115D01*
X155706418Y-78306021D01*
X155652697Y-78471357D01*
X155652697Y-78471360D01*
X155625500Y-78643074D01*
X153975300Y-78643074D01*
X153975300Y-76103074D01*
X155625500Y-76103074D01*
X155625500Y-76276925D01*
X155652697Y-76448639D01*
X155652697Y-76448642D01*
X155706418Y-76613978D01*
X155706420Y-76613981D01*
X155785347Y-76768884D01*
X155887535Y-76909533D01*
X156010467Y-77032465D01*
X156151116Y-77134653D01*
X156306019Y-77213580D01*
X156306021Y-77213581D01*
X156471358Y-77267302D01*
X156471359Y-77267302D01*
X156471362Y-77267303D01*
X156643074Y-77294500D01*
X156643075Y-77294500D01*
X156816925Y-77294500D01*
X156816926Y-77294500D01*
X156988638Y-77267303D01*
X156988641Y-77267302D01*
X156988642Y-77267302D01*
X157153978Y-77213581D01*
X157153978Y-77213580D01*
X157153981Y-77213580D01*
X157308884Y-77134653D01*
X157449533Y-77032465D01*
X157572465Y-76909533D01*
X157674653Y-76768884D01*
X157753580Y-76613981D01*
X157807303Y-76448638D01*
X157834500Y-76276926D01*
X157834500Y-76103074D01*
X158165500Y-76103074D01*
X158165500Y-76276925D01*
X158192697Y-76448639D01*
X158192697Y-76448642D01*
X158246418Y-76613978D01*
X158246420Y-76613981D01*
X158325347Y-76768884D01*
X158427535Y-76909533D01*
X158550467Y-77032465D01*
X158691116Y-77134653D01*
X158846019Y-77213580D01*
X158846021Y-77213581D01*
X159011358Y-77267302D01*
X159011359Y-77267302D01*
X159011362Y-77267303D01*
X159183074Y-77294500D01*
X159183075Y-77294500D01*
X159356925Y-77294500D01*
X159356926Y-77294500D01*
X159528638Y-77267303D01*
X159528641Y-77267302D01*
X159528642Y-77267302D01*
X159693978Y-77213581D01*
X159693978Y-77213580D01*
X159693981Y-77213580D01*
X159848884Y-77134653D01*
X159989533Y-77032465D01*
X160112465Y-76909533D01*
X160214653Y-76768884D01*
X160293580Y-76613981D01*
X160347303Y-76448638D01*
X160374500Y-76276926D01*
X160374500Y-76103074D01*
X160347303Y-75931362D01*
X160347302Y-75931358D01*
X160347302Y-75931357D01*
X160293581Y-75766021D01*
X160214652Y-75611115D01*
X160112465Y-75470467D01*
X159989533Y-75347535D01*
X159848884Y-75245347D01*
X159693978Y-75166418D01*
X159528641Y-75112697D01*
X159399854Y-75092299D01*
X159356926Y-75085500D01*
X159183074Y-75085500D01*
X159125836Y-75094565D01*
X159011360Y-75112697D01*
X159011357Y-75112697D01*
X158846021Y-75166418D01*
X158691115Y-75245347D01*
X158610869Y-75303649D01*
X158550467Y-75347535D01*
X158550465Y-75347537D01*
X158550464Y-75347537D01*
X158427537Y-75470464D01*
X158427537Y-75470465D01*
X158427535Y-75470467D01*
X158383649Y-75530869D01*
X158325347Y-75611115D01*
X158246418Y-75766021D01*
X158192697Y-75931357D01*
X158192697Y-75931360D01*
X158165500Y-76103074D01*
X157834500Y-76103074D01*
X157807303Y-75931362D01*
X157807302Y-75931358D01*
X157807302Y-75931357D01*
X157753581Y-75766021D01*
X157674652Y-75611115D01*
X157572465Y-75470467D01*
X157449533Y-75347535D01*
X157308884Y-75245347D01*
X157153978Y-75166418D01*
X156988641Y-75112697D01*
X156859854Y-75092299D01*
X156816926Y-75085500D01*
X156643074Y-75085500D01*
X156585836Y-75094565D01*
X156471360Y-75112697D01*
X156471357Y-75112697D01*
X156306021Y-75166418D01*
X156151115Y-75245347D01*
X156070869Y-75303649D01*
X156010467Y-75347535D01*
X156010465Y-75347537D01*
X156010464Y-75347537D01*
X155887537Y-75470464D01*
X155887537Y-75470465D01*
X155887535Y-75470467D01*
X155843649Y-75530869D01*
X155785347Y-75611115D01*
X155706418Y-75766021D01*
X155652697Y-75931357D01*
X155652697Y-75931360D01*
X155625500Y-76103074D01*
X153975300Y-76103074D01*
X153975300Y-73563074D01*
X155625500Y-73563074D01*
X155625500Y-73736925D01*
X155652697Y-73908639D01*
X155652697Y-73908642D01*
X155706418Y-74073978D01*
X155706420Y-74073981D01*
X155785347Y-74228884D01*
X155887535Y-74369533D01*
X156010467Y-74492465D01*
X156151116Y-74594653D01*
X156306019Y-74673580D01*
X156306021Y-74673581D01*
X156471358Y-74727302D01*
X156471359Y-74727302D01*
X156471362Y-74727303D01*
X156643074Y-74754500D01*
X156643075Y-74754500D01*
X156816925Y-74754500D01*
X156816926Y-74754500D01*
X156988638Y-74727303D01*
X156988641Y-74727302D01*
X156988642Y-74727302D01*
X157153978Y-74673581D01*
X157153978Y-74673580D01*
X157153981Y-74673580D01*
X157308884Y-74594653D01*
X157449533Y-74492465D01*
X157572465Y-74369533D01*
X157674653Y-74228884D01*
X157753580Y-74073981D01*
X157807303Y-73908638D01*
X157834500Y-73736926D01*
X157834500Y-73563074D01*
X157807303Y-73391362D01*
X157807302Y-73391358D01*
X157807302Y-73391357D01*
X157753581Y-73226021D01*
X157674652Y-73071115D01*
X157572465Y-72930467D01*
X157449533Y-72807535D01*
X157308884Y-72705347D01*
X157153978Y-72626418D01*
X156988641Y-72572697D01*
X156859854Y-72552299D01*
X156816926Y-72545500D01*
X156643074Y-72545500D01*
X156585836Y-72554565D01*
X156471360Y-72572697D01*
X156471357Y-72572697D01*
X156306021Y-72626418D01*
X156151115Y-72705347D01*
X156070869Y-72763649D01*
X156010467Y-72807535D01*
X156010465Y-72807537D01*
X156010464Y-72807537D01*
X155887537Y-72930464D01*
X155887537Y-72930465D01*
X155887535Y-72930467D01*
X155843649Y-72990869D01*
X155785347Y-73071115D01*
X155706418Y-73226021D01*
X155652697Y-73391357D01*
X155652697Y-73391360D01*
X155625500Y-73563074D01*
X153975300Y-73563074D01*
X153975300Y-71023074D01*
X155625500Y-71023074D01*
X155625500Y-71196925D01*
X155652697Y-71368639D01*
X155652697Y-71368642D01*
X155706418Y-71533978D01*
X155706420Y-71533981D01*
X155785347Y-71688884D01*
X155887535Y-71829533D01*
X156010467Y-71952465D01*
X156151116Y-72054653D01*
X156306019Y-72133580D01*
X156306021Y-72133581D01*
X156471358Y-72187302D01*
X156471359Y-72187302D01*
X156471362Y-72187303D01*
X156643074Y-72214500D01*
X156643075Y-72214500D01*
X156816925Y-72214500D01*
X156816926Y-72214500D01*
X156988638Y-72187303D01*
X156988641Y-72187302D01*
X156988642Y-72187302D01*
X157153978Y-72133581D01*
X157153978Y-72133580D01*
X157153981Y-72133580D01*
X157308884Y-72054653D01*
X157449533Y-71952465D01*
X157572465Y-71829533D01*
X157674653Y-71688884D01*
X157753580Y-71533981D01*
X157807303Y-71368638D01*
X157834500Y-71196926D01*
X157834500Y-71023074D01*
X158165500Y-71023074D01*
X158165500Y-71196925D01*
X158192697Y-71368639D01*
X158192697Y-71368642D01*
X158246418Y-71533978D01*
X158246420Y-71533981D01*
X158325347Y-71688884D01*
X158427535Y-71829533D01*
X158550467Y-71952465D01*
X158691116Y-72054653D01*
X158846019Y-72133580D01*
X158846021Y-72133581D01*
X159011358Y-72187302D01*
X159011359Y-72187302D01*
X159011362Y-72187303D01*
X159183074Y-72214500D01*
X159183075Y-72214500D01*
X159356925Y-72214500D01*
X159356926Y-72214500D01*
X159528638Y-72187303D01*
X159528641Y-72187302D01*
X159528642Y-72187302D01*
X159693978Y-72133581D01*
X159693978Y-72133580D01*
X159693981Y-72133580D01*
X159848884Y-72054653D01*
X159989533Y-71952465D01*
X160112465Y-71829533D01*
X160214653Y-71688884D01*
X160293580Y-71533981D01*
X160347303Y-71368638D01*
X160374500Y-71196926D01*
X160374500Y-71023074D01*
X160347303Y-70851362D01*
X160347302Y-70851358D01*
X160347302Y-70851357D01*
X160293581Y-70686021D01*
X160214652Y-70531115D01*
X160112465Y-70390467D01*
X159989533Y-70267535D01*
X159848884Y-70165347D01*
X159693978Y-70086418D01*
X159528641Y-70032697D01*
X159399854Y-70012299D01*
X159356926Y-70005500D01*
X159183074Y-70005500D01*
X159125836Y-70014565D01*
X159011360Y-70032697D01*
X159011357Y-70032697D01*
X158846021Y-70086418D01*
X158691115Y-70165347D01*
X158610869Y-70223649D01*
X158550467Y-70267535D01*
X158550465Y-70267537D01*
X158550464Y-70267537D01*
X158427537Y-70390464D01*
X158427537Y-70390465D01*
X158427535Y-70390467D01*
X158383649Y-70450869D01*
X158325347Y-70531115D01*
X158246418Y-70686021D01*
X158192697Y-70851357D01*
X158192697Y-70851360D01*
X158165500Y-71023074D01*
X157834500Y-71023074D01*
X157807303Y-70851362D01*
X157807302Y-70851358D01*
X157807302Y-70851357D01*
X157753581Y-70686021D01*
X157674652Y-70531115D01*
X157572465Y-70390467D01*
X157449533Y-70267535D01*
X157308884Y-70165347D01*
X157153978Y-70086418D01*
X156988641Y-70032697D01*
X156859854Y-70012299D01*
X156816926Y-70005500D01*
X156643074Y-70005500D01*
X156585836Y-70014565D01*
X156471360Y-70032697D01*
X156471357Y-70032697D01*
X156306021Y-70086418D01*
X156151115Y-70165347D01*
X156070869Y-70223649D01*
X156010467Y-70267535D01*
X156010465Y-70267537D01*
X156010464Y-70267537D01*
X155887537Y-70390464D01*
X155887537Y-70390465D01*
X155887535Y-70390467D01*
X155843649Y-70450869D01*
X155785347Y-70531115D01*
X155706418Y-70686021D01*
X155652697Y-70851357D01*
X155652697Y-70851360D01*
X155625500Y-71023074D01*
X153975300Y-71023074D01*
X153975300Y-68483074D01*
X158165500Y-68483074D01*
X158165500Y-68656925D01*
X158192697Y-68828639D01*
X158192697Y-68828642D01*
X158246418Y-68993978D01*
X158246420Y-68993981D01*
X158325347Y-69148884D01*
X158427535Y-69289533D01*
X158550467Y-69412465D01*
X158691116Y-69514653D01*
X158846019Y-69593580D01*
X158846021Y-69593581D01*
X159011358Y-69647302D01*
X159011359Y-69647302D01*
X159011362Y-69647303D01*
X159183074Y-69674500D01*
X159183075Y-69674500D01*
X159356925Y-69674500D01*
X159356926Y-69674500D01*
X159528638Y-69647303D01*
X159528641Y-69647302D01*
X159528642Y-69647302D01*
X159693978Y-69593581D01*
X159693978Y-69593580D01*
X159693981Y-69593580D01*
X159848884Y-69514653D01*
X159989533Y-69412465D01*
X160112465Y-69289533D01*
X160214653Y-69148884D01*
X160293580Y-68993981D01*
X160347303Y-68828638D01*
X160374500Y-68656926D01*
X160374500Y-68483074D01*
X160347303Y-68311362D01*
X160347302Y-68311358D01*
X160347302Y-68311357D01*
X160293581Y-68146021D01*
X160214652Y-67991115D01*
X160112465Y-67850467D01*
X159989533Y-67727535D01*
X159848884Y-67625347D01*
X159693978Y-67546418D01*
X159528641Y-67492697D01*
X159399854Y-67472299D01*
X159356926Y-67465500D01*
X159183074Y-67465500D01*
X159125836Y-67474565D01*
X159011360Y-67492697D01*
X159011357Y-67492697D01*
X158846021Y-67546418D01*
X158691115Y-67625347D01*
X158610869Y-67683649D01*
X158550467Y-67727535D01*
X158550465Y-67727537D01*
X158550464Y-67727537D01*
X158427537Y-67850464D01*
X158427537Y-67850465D01*
X158427535Y-67850467D01*
X158383649Y-67910869D01*
X158325347Y-67991115D01*
X158246418Y-68146021D01*
X158192697Y-68311357D01*
X158192697Y-68311360D01*
X158165500Y-68483074D01*
X153975300Y-68483074D01*
X153975300Y-65943074D01*
X155625500Y-65943074D01*
X155625500Y-66116925D01*
X155652697Y-66288639D01*
X155652697Y-66288642D01*
X155706418Y-66453978D01*
X155706420Y-66453981D01*
X155785347Y-66608884D01*
X155887535Y-66749533D01*
X156010467Y-66872465D01*
X156151116Y-66974653D01*
X156306019Y-67053580D01*
X156306021Y-67053581D01*
X156471358Y-67107302D01*
X156471359Y-67107302D01*
X156471362Y-67107303D01*
X156643074Y-67134500D01*
X156643075Y-67134500D01*
X156816925Y-67134500D01*
X156816926Y-67134500D01*
X156988638Y-67107303D01*
X156988641Y-67107302D01*
X156988642Y-67107302D01*
X157153978Y-67053581D01*
X157153978Y-67053580D01*
X157153981Y-67053580D01*
X157308884Y-66974653D01*
X157449533Y-66872465D01*
X157572465Y-66749533D01*
X157674653Y-66608884D01*
X157753580Y-66453981D01*
X157807303Y-66288638D01*
X157834500Y-66116926D01*
X157834500Y-65943074D01*
X158165500Y-65943074D01*
X158165500Y-66116925D01*
X158192697Y-66288639D01*
X158192697Y-66288642D01*
X158246418Y-66453978D01*
X158246420Y-66453981D01*
X158325347Y-66608884D01*
X158427535Y-66749533D01*
X158550467Y-66872465D01*
X158691116Y-66974653D01*
X158846019Y-67053580D01*
X158846021Y-67053581D01*
X159011358Y-67107302D01*
X159011359Y-67107302D01*
X159011362Y-67107303D01*
X159183074Y-67134500D01*
X159183075Y-67134500D01*
X159356925Y-67134500D01*
X159356926Y-67134500D01*
X159528638Y-67107303D01*
X159528641Y-67107302D01*
X159528642Y-67107302D01*
X159693978Y-67053581D01*
X159693978Y-67053580D01*
X159693981Y-67053580D01*
X159848884Y-66974653D01*
X159989533Y-66872465D01*
X160112465Y-66749533D01*
X160214653Y-66608884D01*
X160293580Y-66453981D01*
X160347303Y-66288638D01*
X160374500Y-66116926D01*
X160374500Y-65943074D01*
X160347303Y-65771362D01*
X160347302Y-65771358D01*
X160347302Y-65771357D01*
X160293581Y-65606021D01*
X160214652Y-65451115D01*
X160112465Y-65310467D01*
X159989533Y-65187535D01*
X159848884Y-65085347D01*
X159693978Y-65006418D01*
X159528641Y-64952697D01*
X159399854Y-64932299D01*
X159356926Y-64925500D01*
X159183074Y-64925500D01*
X159125836Y-64934565D01*
X159011360Y-64952697D01*
X159011357Y-64952697D01*
X158846021Y-65006418D01*
X158691115Y-65085347D01*
X158610869Y-65143649D01*
X158550467Y-65187535D01*
X158550465Y-65187537D01*
X158550464Y-65187537D01*
X158427537Y-65310464D01*
X158427537Y-65310465D01*
X158427535Y-65310467D01*
X158383649Y-65370869D01*
X158325347Y-65451115D01*
X158246418Y-65606021D01*
X158192697Y-65771357D01*
X158192697Y-65771360D01*
X158165500Y-65943074D01*
X157834500Y-65943074D01*
X157807303Y-65771362D01*
X157807302Y-65771358D01*
X157807302Y-65771357D01*
X157753581Y-65606021D01*
X157674652Y-65451115D01*
X157572465Y-65310467D01*
X157449533Y-65187535D01*
X157308884Y-65085347D01*
X157153978Y-65006418D01*
X156988641Y-64952697D01*
X156859854Y-64932299D01*
X156816926Y-64925500D01*
X156643074Y-64925500D01*
X156585836Y-64934565D01*
X156471360Y-64952697D01*
X156471357Y-64952697D01*
X156306021Y-65006418D01*
X156151115Y-65085347D01*
X156070869Y-65143649D01*
X156010467Y-65187535D01*
X156010465Y-65187537D01*
X156010464Y-65187537D01*
X155887537Y-65310464D01*
X155887537Y-65310465D01*
X155887535Y-65310467D01*
X155843649Y-65370869D01*
X155785347Y-65451115D01*
X155706418Y-65606021D01*
X155652697Y-65771357D01*
X155652697Y-65771360D01*
X155625500Y-65943074D01*
X153975300Y-65943074D01*
X153975300Y-63403074D01*
X158165500Y-63403074D01*
X158165500Y-63576925D01*
X158192697Y-63748639D01*
X158192697Y-63748642D01*
X158246418Y-63913978D01*
X158246420Y-63913981D01*
X158325347Y-64068884D01*
X158427535Y-64209533D01*
X158550467Y-64332465D01*
X158691116Y-64434653D01*
X158846019Y-64513580D01*
X158846021Y-64513581D01*
X159011358Y-64567302D01*
X159011359Y-64567302D01*
X159011362Y-64567303D01*
X159183074Y-64594500D01*
X159183075Y-64594500D01*
X159356925Y-64594500D01*
X159356926Y-64594500D01*
X159528638Y-64567303D01*
X159528641Y-64567302D01*
X159528642Y-64567302D01*
X159693978Y-64513581D01*
X159693978Y-64513580D01*
X159693981Y-64513580D01*
X159848884Y-64434653D01*
X159989533Y-64332465D01*
X160112465Y-64209533D01*
X160214653Y-64068884D01*
X160293580Y-63913981D01*
X160347303Y-63748638D01*
X160374500Y-63576926D01*
X160374500Y-63403074D01*
X160347303Y-63231362D01*
X160347302Y-63231358D01*
X160347302Y-63231357D01*
X160293581Y-63066021D01*
X160214652Y-62911115D01*
X160112465Y-62770467D01*
X159989533Y-62647535D01*
X159848884Y-62545347D01*
X159693978Y-62466418D01*
X159528641Y-62412697D01*
X159399854Y-62392299D01*
X159356926Y-62385500D01*
X159183074Y-62385500D01*
X159125836Y-62394565D01*
X159011360Y-62412697D01*
X159011357Y-62412697D01*
X158846021Y-62466418D01*
X158691115Y-62545347D01*
X158610869Y-62603649D01*
X158550467Y-62647535D01*
X158550465Y-62647537D01*
X158550464Y-62647537D01*
X158427537Y-62770464D01*
X158427537Y-62770465D01*
X158427535Y-62770467D01*
X158383649Y-62830869D01*
X158325347Y-62911115D01*
X158246418Y-63066021D01*
X158192697Y-63231357D01*
X158192697Y-63231360D01*
X158165500Y-63403074D01*
X153975300Y-63403074D01*
X153975300Y-60863074D01*
X155625500Y-60863074D01*
X155625500Y-61036925D01*
X155652697Y-61208639D01*
X155652697Y-61208642D01*
X155706418Y-61373978D01*
X155706420Y-61373981D01*
X155785347Y-61528884D01*
X155887535Y-61669533D01*
X156010467Y-61792465D01*
X156151116Y-61894653D01*
X156306019Y-61973580D01*
X156306021Y-61973581D01*
X156471358Y-62027302D01*
X156471359Y-62027302D01*
X156471362Y-62027303D01*
X156643074Y-62054500D01*
X156643075Y-62054500D01*
X156816925Y-62054500D01*
X156816926Y-62054500D01*
X156988638Y-62027303D01*
X156988641Y-62027302D01*
X156988642Y-62027302D01*
X157153978Y-61973581D01*
X157153978Y-61973580D01*
X157153981Y-61973580D01*
X157308884Y-61894653D01*
X157449533Y-61792465D01*
X157572465Y-61669533D01*
X157674653Y-61528884D01*
X157753580Y-61373981D01*
X157807303Y-61208638D01*
X157834500Y-61036926D01*
X157834500Y-60863074D01*
X158165500Y-60863074D01*
X158165500Y-61036925D01*
X158192697Y-61208639D01*
X158192697Y-61208642D01*
X158246418Y-61373978D01*
X158246420Y-61373981D01*
X158325347Y-61528884D01*
X158427535Y-61669533D01*
X158550467Y-61792465D01*
X158691116Y-61894653D01*
X158846019Y-61973580D01*
X158846021Y-61973581D01*
X159011358Y-62027302D01*
X159011359Y-62027302D01*
X159011362Y-62027303D01*
X159183074Y-62054500D01*
X159183075Y-62054500D01*
X159356925Y-62054500D01*
X159356926Y-62054500D01*
X159528638Y-62027303D01*
X159528641Y-62027302D01*
X159528642Y-62027302D01*
X159693978Y-61973581D01*
X159693978Y-61973580D01*
X159693981Y-61973580D01*
X159848884Y-61894653D01*
X159989533Y-61792465D01*
X160112465Y-61669533D01*
X160214653Y-61528884D01*
X160293580Y-61373981D01*
X160347303Y-61208638D01*
X160374500Y-61036926D01*
X160374500Y-60863074D01*
X160347303Y-60691362D01*
X160347302Y-60691358D01*
X160347302Y-60691357D01*
X160293581Y-60526021D01*
X160214652Y-60371115D01*
X160112465Y-60230467D01*
X159989533Y-60107535D01*
X159848884Y-60005347D01*
X159693978Y-59926418D01*
X159528641Y-59872697D01*
X159399854Y-59852299D01*
X159356926Y-59845500D01*
X159183074Y-59845500D01*
X159125836Y-59854565D01*
X159011360Y-59872697D01*
X159011357Y-59872697D01*
X158846021Y-59926418D01*
X158691115Y-60005347D01*
X158610869Y-60063649D01*
X158550467Y-60107535D01*
X158550465Y-60107537D01*
X158550464Y-60107537D01*
X158427537Y-60230464D01*
X158427537Y-60230465D01*
X158427535Y-60230467D01*
X158383649Y-60290869D01*
X158325347Y-60371115D01*
X158246418Y-60526021D01*
X158192697Y-60691357D01*
X158192697Y-60691360D01*
X158165500Y-60863074D01*
X157834500Y-60863074D01*
X157807303Y-60691362D01*
X157807302Y-60691358D01*
X157807302Y-60691357D01*
X157753581Y-60526021D01*
X157674652Y-60371115D01*
X157572465Y-60230467D01*
X157449533Y-60107535D01*
X157308884Y-60005347D01*
X157153978Y-59926418D01*
X156988641Y-59872697D01*
X156859854Y-59852299D01*
X156816926Y-59845500D01*
X156643074Y-59845500D01*
X156585836Y-59854565D01*
X156471360Y-59872697D01*
X156471357Y-59872697D01*
X156306021Y-59926418D01*
X156151115Y-60005347D01*
X156070869Y-60063649D01*
X156010467Y-60107535D01*
X156010465Y-60107537D01*
X156010464Y-60107537D01*
X155887537Y-60230464D01*
X155887537Y-60230465D01*
X155887535Y-60230467D01*
X155843649Y-60290869D01*
X155785347Y-60371115D01*
X155706418Y-60526021D01*
X155652697Y-60691357D01*
X155652697Y-60691360D01*
X155625500Y-60863074D01*
X153975300Y-60863074D01*
X153975300Y-55968937D01*
X155725499Y-55968937D01*
X155764101Y-56162996D01*
X155764104Y-56163006D01*
X155839820Y-56345802D01*
X155839827Y-56345815D01*
X155949753Y-56510330D01*
X155949756Y-56510334D01*
X156089665Y-56650243D01*
X156089669Y-56650246D01*
X156254184Y-56760172D01*
X156254197Y-56760179D01*
X156436993Y-56835895D01*
X156436998Y-56835897D01*
X156437002Y-56835897D01*
X156437003Y-56835898D01*
X156631062Y-56874500D01*
X156631065Y-56874500D01*
X156828934Y-56874500D01*
X156828935Y-56874500D01*
X156830417Y-56874205D01*
X156831211Y-56874276D01*
X156835000Y-56873903D01*
X156835070Y-56874621D01*
X156900009Y-56880426D01*
X156955190Y-56923284D01*
X156978441Y-56989171D01*
X156976237Y-57020007D01*
X156972500Y-57038795D01*
X156972500Y-57241201D01*
X156976237Y-57259991D01*
X156970008Y-57329582D01*
X156927143Y-57384759D01*
X156861253Y-57408001D01*
X156830432Y-57405797D01*
X156828939Y-57405500D01*
X156828935Y-57405500D01*
X156631065Y-57405500D01*
X156631063Y-57405500D01*
X156437003Y-57444101D01*
X156436993Y-57444104D01*
X156254197Y-57519820D01*
X156254184Y-57519827D01*
X156089669Y-57629753D01*
X156089665Y-57629756D01*
X155949756Y-57769665D01*
X155949753Y-57769669D01*
X155839827Y-57934184D01*
X155839820Y-57934197D01*
X155764104Y-58116993D01*
X155764101Y-58117003D01*
X155725500Y-58311062D01*
X155725500Y-58311065D01*
X155725500Y-58508935D01*
X155725500Y-58508937D01*
X155725499Y-58508937D01*
X155764101Y-58702996D01*
X155764104Y-58703006D01*
X155839820Y-58885802D01*
X155839827Y-58885815D01*
X155949753Y-59050330D01*
X155949756Y-59050334D01*
X156089665Y-59190243D01*
X156089669Y-59190246D01*
X156254184Y-59300172D01*
X156254197Y-59300179D01*
X156436993Y-59375895D01*
X156436998Y-59375897D01*
X156437002Y-59375897D01*
X156437003Y-59375898D01*
X156631062Y-59414500D01*
X156631065Y-59414500D01*
X156828937Y-59414500D01*
X156959495Y-59388529D01*
X157023002Y-59375897D01*
X157205809Y-59300176D01*
X157370331Y-59190246D01*
X157510246Y-59050331D01*
X157620176Y-58885809D01*
X157695897Y-58703002D01*
X157734500Y-58508935D01*
X157734500Y-58311065D01*
X157734204Y-58309577D01*
X157734275Y-58308781D01*
X157733903Y-58305000D01*
X157734619Y-58304929D01*
X157740427Y-58239987D01*
X157783286Y-58184807D01*
X157849175Y-58161558D01*
X157880012Y-58163763D01*
X157883511Y-58164458D01*
X157898798Y-58167499D01*
X157898799Y-58167500D01*
X157898800Y-58167500D01*
X158101200Y-58167500D01*
X158119986Y-58163763D01*
X158189578Y-58169990D01*
X158244756Y-58212852D01*
X158268001Y-58278741D01*
X158265798Y-58309564D01*
X158265500Y-58311062D01*
X158265500Y-58311065D01*
X158265500Y-58508935D01*
X158265500Y-58508937D01*
X158265499Y-58508937D01*
X158304101Y-58702996D01*
X158304104Y-58703006D01*
X158379820Y-58885802D01*
X158379827Y-58885815D01*
X158489753Y-59050330D01*
X158489756Y-59050334D01*
X158629665Y-59190243D01*
X158629669Y-59190246D01*
X158794184Y-59300172D01*
X158794197Y-59300179D01*
X158976993Y-59375895D01*
X158976998Y-59375897D01*
X158977002Y-59375897D01*
X158977003Y-59375898D01*
X159171062Y-59414500D01*
X159171065Y-59414500D01*
X159368937Y-59414500D01*
X159499495Y-59388529D01*
X159563002Y-59375897D01*
X159745809Y-59300176D01*
X159910331Y-59190246D01*
X160050246Y-59050331D01*
X160160176Y-58885809D01*
X160235897Y-58703002D01*
X160274500Y-58508935D01*
X160274500Y-58311065D01*
X160274500Y-58311062D01*
X160235898Y-58117003D01*
X160235897Y-58117002D01*
X160235897Y-58116998D01*
X160235895Y-58116993D01*
X160160179Y-57934197D01*
X160160172Y-57934184D01*
X160050246Y-57769669D01*
X160050243Y-57769665D01*
X159910334Y-57629756D01*
X159910330Y-57629753D01*
X159745815Y-57519827D01*
X159745802Y-57519820D01*
X159563006Y-57444104D01*
X159562996Y-57444101D01*
X159368937Y-57405500D01*
X159368935Y-57405500D01*
X159171065Y-57405500D01*
X159171063Y-57405500D01*
X159169564Y-57405798D01*
X159168763Y-57405726D01*
X159165000Y-57406097D01*
X159164929Y-57405382D01*
X159099973Y-57399566D01*
X159044798Y-57356700D01*
X159021557Y-57290808D01*
X159023763Y-57259986D01*
X159027500Y-57241200D01*
X159027500Y-57038799D01*
X159027499Y-57038795D01*
X159017628Y-56989171D01*
X158988014Y-56840289D01*
X158910559Y-56653296D01*
X158910558Y-56653295D01*
X158910555Y-56653289D01*
X158798112Y-56485007D01*
X158798109Y-56485003D01*
X158654996Y-56341890D01*
X158654992Y-56341887D01*
X158486710Y-56229444D01*
X158486701Y-56229439D01*
X158299711Y-56151986D01*
X158299703Y-56151984D01*
X158101204Y-56112500D01*
X158101200Y-56112500D01*
X157898800Y-56112500D01*
X157898795Y-56112500D01*
X157880007Y-56116237D01*
X157810416Y-56110007D01*
X157755240Y-56067142D01*
X157731998Y-56001252D01*
X157734205Y-55970416D01*
X157734500Y-55968937D01*
X157734500Y-55968935D01*
X157734500Y-55771065D01*
X157734500Y-55771062D01*
X157695898Y-55577003D01*
X157695897Y-55577002D01*
X157695897Y-55576998D01*
X157695895Y-55576993D01*
X157620179Y-55394197D01*
X157620172Y-55394184D01*
X157510246Y-55229669D01*
X157510243Y-55229665D01*
X157370334Y-55089756D01*
X157370330Y-55089753D01*
X157205815Y-54979827D01*
X157205802Y-54979820D01*
X157023006Y-54904104D01*
X157022996Y-54904101D01*
X156828937Y-54865500D01*
X156828935Y-54865500D01*
X156631065Y-54865500D01*
X156631063Y-54865500D01*
X156437003Y-54904101D01*
X156436993Y-54904104D01*
X156254197Y-54979820D01*
X156254184Y-54979827D01*
X156089669Y-55089753D01*
X156089665Y-55089756D01*
X155949756Y-55229665D01*
X155949753Y-55229669D01*
X155839827Y-55394184D01*
X155839820Y-55394197D01*
X155764104Y-55576993D01*
X155764101Y-55577003D01*
X155725500Y-55771062D01*
X155725500Y-55771065D01*
X155725500Y-55968935D01*
X155725500Y-55968937D01*
X155725499Y-55968937D01*
X153975300Y-55968937D01*
X153975300Y-50874857D01*
X156090700Y-50874857D01*
X156090700Y-51125142D01*
X156123367Y-51373281D01*
X156188149Y-51615048D01*
X156283921Y-51846265D01*
X156283926Y-51846274D01*
X156409069Y-52063026D01*
X156409074Y-52063032D01*
X156409075Y-52063034D01*
X156561430Y-52261588D01*
X156561436Y-52261595D01*
X156738404Y-52438563D01*
X156738410Y-52438568D01*
X156936974Y-52590931D01*
X157153726Y-52716074D01*
X157153729Y-52716075D01*
X157153734Y-52716078D01*
X157384951Y-52811850D01*
X157384953Y-52811850D01*
X157384959Y-52811853D01*
X157626715Y-52876632D01*
X157812822Y-52901133D01*
X157874857Y-52909300D01*
X157874858Y-52909300D01*
X158125143Y-52909300D01*
X158174770Y-52902766D01*
X158373285Y-52876632D01*
X158615041Y-52811853D01*
X158677425Y-52786012D01*
X158846265Y-52716078D01*
X158846266Y-52716076D01*
X158846274Y-52716074D01*
X159063026Y-52590931D01*
X159261590Y-52438568D01*
X159438568Y-52261590D01*
X159590931Y-52063026D01*
X159716074Y-51846274D01*
X159811853Y-51615041D01*
X159876632Y-51373285D01*
X159909300Y-51125142D01*
X159909300Y-50874858D01*
X159876632Y-50626715D01*
X159811853Y-50384959D01*
X159811850Y-50384951D01*
X159716078Y-50153734D01*
X159716073Y-50153725D01*
X159590931Y-49936974D01*
X159438568Y-49738410D01*
X159438563Y-49738404D01*
X159261595Y-49561436D01*
X159261588Y-49561430D01*
X159063034Y-49409075D01*
X159063032Y-49409074D01*
X159063026Y-49409069D01*
X158846274Y-49283926D01*
X158846265Y-49283921D01*
X158615048Y-49188149D01*
X158373281Y-49123367D01*
X158125143Y-49090700D01*
X158125142Y-49090700D01*
X157874858Y-49090700D01*
X157874857Y-49090700D01*
X157626718Y-49123367D01*
X157384951Y-49188149D01*
X157153734Y-49283921D01*
X157153725Y-49283926D01*
X156936974Y-49409069D01*
X156936965Y-49409075D01*
X156738411Y-49561430D01*
X156738404Y-49561436D01*
X156561436Y-49738404D01*
X156561430Y-49738411D01*
X156409075Y-49936965D01*
X156409069Y-49936974D01*
X156283926Y-50153725D01*
X156283921Y-50153734D01*
X156188149Y-50384951D01*
X156123367Y-50626718D01*
X156090700Y-50874857D01*
X153975300Y-50874857D01*
X153975300Y-49561031D01*
X153975566Y-49552920D01*
X153984996Y-49409069D01*
X153991716Y-49306553D01*
X153993833Y-49290477D01*
X154041211Y-49052302D01*
X154045402Y-49036657D01*
X154123467Y-48806693D01*
X154129668Y-48791722D01*
X154237082Y-48573912D01*
X154245176Y-48559893D01*
X154380105Y-48357962D01*
X154389971Y-48345106D01*
X154534137Y-48180718D01*
X154550087Y-48162530D01*
X154561545Y-48151072D01*
X154744138Y-47990944D01*
X154756969Y-47981099D01*
X154958914Y-47846164D01*
X154972932Y-47838071D01*
X155190751Y-47730656D01*
X155205706Y-47724462D01*
X155435674Y-47646399D01*
X155451321Y-47642206D01*
X155689504Y-47594829D01*
X155705558Y-47592714D01*
X155952386Y-47576536D01*
X155960492Y-47576272D01*
X156023911Y-47576272D01*
X160384063Y-47576272D01*
X160384067Y-47576273D01*
G37*
%TD.AperFunction*%
%TD*%
M02*
