%TF.GenerationSoftware,KiCad,Pcbnew,9.0.1-9.0.1-0~ubuntu24.04.1*%
%TF.CreationDate,2025-04-26T12:20:12-07:00*%
%TF.ProjectId,NX-IndicatorBoard,4e582d49-6e64-4696-9361-746f72426f61,1*%
%TF.SameCoordinates,Original*%
%TF.FileFunction,Copper,L1,Top*%
%TF.FilePolarity,Positive*%
%FSLAX46Y46*%
G04 Gerber Fmt 4.6, Leading zero omitted, Abs format (unit mm)*
G04 Created by KiCad (PCBNEW 9.0.1-9.0.1-0~ubuntu24.04.1) date 2025-04-26 12:20:12*
%MOMM*%
%LPD*%
G01*
G04 APERTURE LIST*
G04 Aperture macros list*
%AMRoundRect*
0 Rectangle with rounded corners*
0 $1 Rounding radius*
0 $2 $3 $4 $5 $6 $7 $8 $9 X,Y pos of 4 corners*
0 Add a 4 corners polygon primitive as box body*
4,1,4,$2,$3,$4,$5,$6,$7,$8,$9,$2,$3,0*
0 Add four circle primitives for the rounded corners*
1,1,$1+$1,$2,$3*
1,1,$1+$1,$4,$5*
1,1,$1+$1,$6,$7*
1,1,$1+$1,$8,$9*
0 Add four rect primitives between the rounded corners*
20,1,$1+$1,$2,$3,$4,$5,0*
20,1,$1+$1,$4,$5,$6,$7,0*
20,1,$1+$1,$6,$7,$8,$9,0*
20,1,$1+$1,$8,$9,$2,$3,0*%
G04 Aperture macros list end*
%ADD10C,0.187500*%
%TA.AperFunction,NonConductor*%
%ADD11C,0.187500*%
%TD*%
%ADD12C,0.300000*%
%TA.AperFunction,NonConductor*%
%ADD13C,0.300000*%
%TD*%
%TA.AperFunction,SMDPad,CuDef*%
%ADD14RoundRect,0.150000X0.150000X-0.825000X0.150000X0.825000X-0.150000X0.825000X-0.150000X-0.825000X0*%
%TD*%
%TA.AperFunction,SMDPad,CuDef*%
%ADD15R,1.400000X1.200000*%
%TD*%
%TA.AperFunction,ComponentPad*%
%ADD16C,1.000000*%
%TD*%
%TA.AperFunction,SMDPad,CuDef*%
%ADD17RoundRect,0.150000X-0.150000X0.725000X-0.150000X-0.725000X0.150000X-0.725000X0.150000X0.725000X0*%
%TD*%
%TA.AperFunction,SMDPad,CuDef*%
%ADD18RoundRect,0.250000X-0.450000X0.262500X-0.450000X-0.262500X0.450000X-0.262500X0.450000X0.262500X0*%
%TD*%
%TA.AperFunction,ComponentPad*%
%ADD19C,1.500000*%
%TD*%
%TA.AperFunction,SMDPad,CuDef*%
%ADD20R,1.780000X1.020000*%
%TD*%
%TA.AperFunction,ComponentPad*%
%ADD21C,1.700000*%
%TD*%
%TA.AperFunction,ComponentPad*%
%ADD22R,1.778000X1.778000*%
%TD*%
%TA.AperFunction,ComponentPad*%
%ADD23C,1.778000*%
%TD*%
%TA.AperFunction,SMDPad,CuDef*%
%ADD24RoundRect,0.250000X0.475000X-0.250000X0.475000X0.250000X-0.475000X0.250000X-0.475000X-0.250000X0*%
%TD*%
%TA.AperFunction,ComponentPad*%
%ADD25C,5.400000*%
%TD*%
%TA.AperFunction,SMDPad,CuDef*%
%ADD26RoundRect,0.150000X-0.825000X-0.150000X0.825000X-0.150000X0.825000X0.150000X-0.825000X0.150000X0*%
%TD*%
%TA.AperFunction,SMDPad,CuDef*%
%ADD27RoundRect,0.250000X-0.250000X-0.475000X0.250000X-0.475000X0.250000X0.475000X-0.250000X0.475000X0*%
%TD*%
%TA.AperFunction,ViaPad*%
%ADD28C,0.889000*%
%TD*%
%TA.AperFunction,Conductor*%
%ADD29C,0.381000*%
%TD*%
%TA.AperFunction,Conductor*%
%ADD30C,1.020000*%
%TD*%
%TA.AperFunction,Conductor*%
%ADD31C,0.304800*%
%TD*%
G04 APERTURE END LIST*
D10*
D11*
X29377697Y-55535964D02*
X28877697Y-55535964D01*
X28877697Y-56321678D02*
X28877697Y-54821678D01*
X28877697Y-54821678D02*
X29591983Y-54821678D01*
X30163411Y-56178821D02*
X30234840Y-56250250D01*
X30234840Y-56250250D02*
X30163411Y-56321678D01*
X30163411Y-56321678D02*
X30091983Y-56250250D01*
X30091983Y-56250250D02*
X30163411Y-56178821D01*
X30163411Y-56178821D02*
X30163411Y-56321678D01*
X31734840Y-56178821D02*
X31663412Y-56250250D01*
X31663412Y-56250250D02*
X31449126Y-56321678D01*
X31449126Y-56321678D02*
X31306269Y-56321678D01*
X31306269Y-56321678D02*
X31091983Y-56250250D01*
X31091983Y-56250250D02*
X30949126Y-56107392D01*
X30949126Y-56107392D02*
X30877697Y-55964535D01*
X30877697Y-55964535D02*
X30806269Y-55678821D01*
X30806269Y-55678821D02*
X30806269Y-55464535D01*
X30806269Y-55464535D02*
X30877697Y-55178821D01*
X30877697Y-55178821D02*
X30949126Y-55035964D01*
X30949126Y-55035964D02*
X31091983Y-54893107D01*
X31091983Y-54893107D02*
X31306269Y-54821678D01*
X31306269Y-54821678D02*
X31449126Y-54821678D01*
X31449126Y-54821678D02*
X31663412Y-54893107D01*
X31663412Y-54893107D02*
X31734840Y-54964535D01*
X33020555Y-55321678D02*
X33020555Y-56321678D01*
X32377697Y-55321678D02*
X32377697Y-56107392D01*
X32377697Y-56107392D02*
X32449126Y-56250250D01*
X32449126Y-56250250D02*
X32591983Y-56321678D01*
X32591983Y-56321678D02*
X32806269Y-56321678D01*
X32806269Y-56321678D02*
X32949126Y-56250250D01*
X32949126Y-56250250D02*
X33020555Y-56178821D01*
D12*
D13*
X64893772Y-125124428D02*
X64036629Y-125124428D01*
X64465200Y-125124428D02*
X64465200Y-123624428D01*
X64465200Y-123624428D02*
X64322343Y-123838714D01*
X64322343Y-123838714D02*
X64179486Y-123981571D01*
X64179486Y-123981571D02*
X64036629Y-124053000D01*
D14*
%TO.P,U3,1,TXCAN*%
%TO.N,/SPI-CAN-FD1/CANTX*%
X109170500Y-106869000D03*
%TO.P,U3,2,RXCAN*%
%TO.N,/SPI-CAN-FD1/CANRX*%
X110440500Y-106869000D03*
%TO.P,U3,3,CLKO/SOF*%
%TO.N,Net-(U3-CLKO{slash}SOF)*%
X111710500Y-106869000D03*
%TO.P,U3,4,~{INT}*%
%TO.N,/GPIO09*%
X112980500Y-106869000D03*
%TO.P,U3,5,OSC2*%
%TO.N,unconnected-(U3-OSC2-Pad5)*%
X114250500Y-106869000D03*
%TO.P,U3,6,OSC1*%
%TO.N,/SPI-CAN-FD1/CLK*%
X115520500Y-106869000D03*
%TO.P,U3,7,VSS*%
%TO.N,GND*%
X116790500Y-106869000D03*
%TO.P,U3,8,~{INT1}/GPIO1*%
%TO.N,/GPIO07*%
X116790500Y-101919000D03*
%TO.P,U3,9,~{INT0}/GPIO0/XSTBY*%
%TO.N,/GPIO12*%
X115520500Y-101919000D03*
%TO.P,U3,10,SCK*%
%TO.N,/SPI0_SCK*%
X114250500Y-101919000D03*
%TO.P,U3,11,SDI*%
%TO.N,/SPI0_MOSI*%
X112980500Y-101919000D03*
%TO.P,U3,12,SDO*%
%TO.N,/SPI0_MISO*%
X111710500Y-101919000D03*
%TO.P,U3,13,~{CS}*%
%TO.N,/SPI0_CS0*%
X110440500Y-101919000D03*
%TO.P,U3,14,VDD*%
%TO.N,+3V3*%
X109170500Y-101919000D03*
%TD*%
D15*
%TO.P,U4,1,EN*%
%TO.N,+3V3*%
X121564400Y-101590600D03*
%TO.P,U4,2,GND*%
%TO.N,GND*%
X119024400Y-101590600D03*
%TO.P,U4,3,OUT*%
%TO.N,Net-(U4-OUT)*%
X119024400Y-103790600D03*
%TO.P,U4,4,V_{DD}*%
%TO.N,+3V3*%
X121564400Y-103790600D03*
%TD*%
D16*
%TO.P,TP1,1,1*%
%TO.N,Net-(U3-CLKO{slash}SOF)*%
X111734600Y-109702600D03*
%TD*%
D17*
%TO.P,U5,1,TXD*%
%TO.N,/SPI-CAN-FD2/CANTX*%
X129819400Y-101844400D03*
%TO.P,U5,2,V_{SS}*%
%TO.N,GND*%
X128549400Y-101844400D03*
%TO.P,U5,3,V_{DD}*%
%TO.N,+5V*%
X127279400Y-101844400D03*
%TO.P,U5,4,RXD*%
%TO.N,/SPI-CAN-FD2/CANRX*%
X126009400Y-101844400D03*
%TO.P,U5,5,V_{IO}*%
%TO.N,+3V3*%
X126009400Y-106994400D03*
%TO.P,U5,6,CANL*%
%TO.N,/CAN2_L*%
X127279400Y-106994400D03*
%TO.P,U5,7,CANH*%
%TO.N,/CAN2_H*%
X128549400Y-106994400D03*
%TO.P,U5,8,S*%
%TO.N,GND*%
X129819400Y-106994400D03*
%TD*%
D18*
%TO.P,R3,1*%
%TO.N,Net-(R3-Pad1)*%
X92964000Y-109323500D03*
%TO.P,R3,2*%
%TO.N,Net-(D4-K)*%
X92964000Y-111148500D03*
%TD*%
D19*
%TO.P,J5,1,Pin_1*%
%TO.N,+3V3*%
X159270000Y-104130000D03*
D20*
X160910000Y-104130000D03*
%TO.P,J5,2,Pin_2*%
%TO.N,+5V*%
X155090000Y-104130000D03*
D19*
X156730000Y-104130000D03*
%TO.P,J5,3,Pin_3*%
%TO.N,/I2C1_SDA*%
X159270000Y-101590000D03*
D20*
X160910000Y-101590000D03*
%TO.P,J5,4,Pin_4*%
%TO.N,+5V*%
X155090000Y-101590000D03*
D19*
X156730000Y-101590000D03*
D21*
%TO.P,J5,5,Pin_5*%
%TO.N,/I2C1_SCL*%
X159270000Y-99050000D03*
D20*
X160910000Y-99050000D03*
%TO.P,J5,6,Pin_6*%
%TO.N,GND*%
X155090000Y-99050000D03*
D21*
X156730000Y-99050000D03*
%TO.P,J5,7,Pin_7*%
%TO.N,/GPIO09*%
X159270000Y-96510000D03*
D20*
X160910000Y-96510000D03*
%TO.P,J5,8,Pin_8*%
%TO.N,/UART1_TXD*%
X155090000Y-96510000D03*
D21*
X156730000Y-96510000D03*
%TO.P,J5,9,Pin_9*%
%TO.N,GND*%
X159270000Y-93970000D03*
D20*
X160910000Y-93970000D03*
%TO.P,J5,10,Pin_10*%
%TO.N,/UART1_RXD*%
X155090000Y-93970000D03*
D21*
X156730000Y-93970000D03*
%TO.P,J5,11,Pin_11*%
%TO.N,/UART1_RTS*%
X159270000Y-91430000D03*
D20*
X160910000Y-91430000D03*
%TO.P,J5,12,Pin_12*%
%TO.N,/I2S0_SCLK*%
X155090000Y-91430000D03*
D21*
X156730000Y-91430000D03*
%TO.P,J5,13,Pin_13*%
%TO.N,/SPI1_SCK*%
X159270000Y-88890000D03*
D20*
X160910000Y-88890000D03*
%TO.P,J5,14,Pin_14*%
%TO.N,GND*%
X155090000Y-88890000D03*
D21*
X156730000Y-88890000D03*
%TO.P,J5,15,Pin_15*%
%TO.N,/GPIO12*%
X159270000Y-86350000D03*
D20*
X160910000Y-86350000D03*
%TO.P,J5,16,Pin_16*%
%TO.N,/SPI1_CS1*%
X155090000Y-86350000D03*
D21*
X156730000Y-86350000D03*
%TO.P,J5,17,Pin_17*%
%TO.N,+3V3*%
X159270000Y-83810000D03*
D20*
X160910000Y-83810000D03*
%TO.P,J5,18,Pin_18*%
%TO.N,/SPI1_CS0*%
X155090000Y-83810000D03*
D21*
X156730000Y-83810000D03*
%TO.P,J5,19,Pin_19*%
%TO.N,/SPI0_MOSI*%
X159270000Y-81270000D03*
D20*
X160910000Y-81270000D03*
%TO.P,J5,20,Pin_20*%
%TO.N,GND*%
X155090000Y-81270000D03*
D21*
X156730000Y-81270000D03*
%TO.P,J5,21,Pin_21*%
%TO.N,/SPI0_MISO*%
X159270000Y-78730000D03*
D20*
X160910000Y-78730000D03*
%TO.P,J5,22,Pin_22*%
%TO.N,/SPI1_MISO*%
X155090000Y-78730000D03*
D21*
X156730000Y-78730000D03*
%TO.P,J5,23,Pin_23*%
%TO.N,/SPI0_SCK*%
X159270000Y-76190000D03*
D20*
X160910000Y-76190000D03*
%TO.P,J5,24,Pin_24*%
%TO.N,/SPI0_CS0*%
X155090000Y-76190000D03*
D21*
X156730000Y-76190000D03*
%TO.P,J5,25,Pin_25*%
%TO.N,GND*%
X159270000Y-73650000D03*
D20*
X160910000Y-73650000D03*
%TO.P,J5,26,Pin_26*%
%TO.N,/SPI0_CS1*%
X155090000Y-73650000D03*
D21*
X156730000Y-73650000D03*
%TO.P,J5,27,Pin_27*%
%TO.N,/I2C0_SDA*%
X159270000Y-71110000D03*
D20*
X160910000Y-71110000D03*
%TO.P,J5,28,Pin_28*%
%TO.N,/I2C0_SCL*%
X155090000Y-71110000D03*
D21*
X156730000Y-71110000D03*
%TO.P,J5,29,Pin_29*%
%TO.N,/GPIO01*%
X159270000Y-68570000D03*
D20*
X160910000Y-68570000D03*
%TO.P,J5,30,Pin_30*%
%TO.N,GND*%
X155090000Y-68570000D03*
D21*
X156730000Y-68570000D03*
%TO.P,J5,31,Pin_31*%
%TO.N,/GPIO11*%
X159270000Y-66030000D03*
D20*
X160910000Y-66030000D03*
%TO.P,J5,32,Pin_32*%
%TO.N,/GPIO07*%
X155090000Y-66030000D03*
D21*
X156730000Y-66030000D03*
%TO.P,J5,33,Pin_33*%
%TO.N,/GPIO13*%
X159270000Y-63490000D03*
D20*
X160910000Y-63490000D03*
%TO.P,J5,34,Pin_34*%
%TO.N,GND*%
X155090000Y-63490000D03*
D21*
X156730000Y-63490000D03*
%TO.P,J5,35,Pin_35*%
%TO.N,/I2S0_FS*%
X159270000Y-60950000D03*
D20*
X160910000Y-60950000D03*
%TO.P,J5,36,Pin_36*%
%TO.N,/UART1_CTS*%
X155090000Y-60950000D03*
D21*
X156730000Y-60950000D03*
D19*
%TO.P,J5,37,Pin_37*%
%TO.N,/SPI1_MOSI*%
X159270000Y-58410000D03*
D20*
X160910000Y-58410000D03*
%TO.P,J5,38,Pin_38*%
%TO.N,/I2S0_DIN*%
X155090000Y-58410000D03*
D19*
X156730000Y-58410000D03*
%TO.P,J5,39,Pin_39*%
%TO.N,GND*%
X159270000Y-55870000D03*
D20*
X160910000Y-55870000D03*
%TO.P,J5,40,Pin_40*%
%TO.N,/I2S0_DOUT*%
X155090000Y-55870000D03*
D19*
X156730000Y-55870000D03*
%TD*%
D22*
%TO.P,J1,1,Pin_1*%
%TO.N,/CAN1_L*%
X110236000Y-112903000D03*
D23*
%TO.P,J1,2,Pin_2*%
%TO.N,/CAN1_H*%
X107696000Y-112903000D03*
%TD*%
D14*
%TO.P,U6,1,TXCAN*%
%TO.N,/SPI-CAN-FD2/CANTX*%
X132461000Y-106869000D03*
%TO.P,U6,2,RXCAN*%
%TO.N,/SPI-CAN-FD2/CANRX*%
X133731000Y-106869000D03*
%TO.P,U6,3,CLKO/SOF*%
%TO.N,Net-(U6-CLKO{slash}SOF)*%
X135001000Y-106869000D03*
%TO.P,U6,4,~{INT}*%
%TO.N,/GPIO01*%
X136271000Y-106869000D03*
%TO.P,U6,5,OSC2*%
%TO.N,unconnected-(U6-OSC2-Pad5)*%
X137541000Y-106869000D03*
%TO.P,U6,6,OSC1*%
%TO.N,/SPI-CAN-FD2/CLK*%
X138811000Y-106869000D03*
%TO.P,U6,7,VSS*%
%TO.N,GND*%
X140081000Y-106869000D03*
%TO.P,U6,8,~{INT1}/GPIO1*%
%TO.N,/GPIO13*%
X140081000Y-101919000D03*
%TO.P,U6,9,~{INT0}/GPIO0/XSTBY*%
%TO.N,/GPIO11*%
X138811000Y-101919000D03*
%TO.P,U6,10,SCK*%
%TO.N,/SPI1_SCK*%
X137541000Y-101919000D03*
%TO.P,U6,11,SDI*%
%TO.N,/SPI1_MOSI*%
X136271000Y-101919000D03*
%TO.P,U6,12,SDO*%
%TO.N,/SPI1_MISO*%
X135001000Y-101919000D03*
%TO.P,U6,13,~{CS}*%
%TO.N,/SPI1_CS0*%
X133731000Y-101919000D03*
%TO.P,U6,14,VDD*%
%TO.N,+3V3*%
X132461000Y-101919000D03*
%TD*%
D18*
%TO.P,R5,1*%
%TO.N,Net-(R5-Pad1)*%
X97028000Y-109323500D03*
%TO.P,R5,2*%
%TO.N,Net-(D7-K)*%
X97028000Y-111148500D03*
%TD*%
D16*
%TO.P,TP2,1,1*%
%TO.N,Net-(U6-CLKO{slash}SOF)*%
X135001000Y-109677200D03*
%TD*%
D18*
%TO.P,R1,1*%
%TO.N,Net-(R1-Pad1)*%
X88900000Y-109323500D03*
%TO.P,R1,2*%
%TO.N,Net-(D3-K)*%
X88900000Y-111148500D03*
%TD*%
D24*
%TO.P,C2,1*%
%TO.N,+3V3*%
X123952000Y-104607400D03*
%TO.P,C2,2*%
%TO.N,GND*%
X123952000Y-102707400D03*
%TD*%
D25*
%TO.P,H2,1*%
%TO.N,N/C*%
X158000000Y-51000000D03*
%TD*%
D22*
%TO.P,J4,1,Pin_1*%
%TO.N,/CAN2_L*%
X143230600Y-112903000D03*
D23*
%TO.P,J4,2,Pin_2*%
%TO.N,/CAN2_H*%
X140690600Y-112903000D03*
%TD*%
D17*
%TO.P,U2,1,TXD*%
%TO.N,/SPI-CAN-FD1/CANTX*%
X106527600Y-101869800D03*
%TO.P,U2,2,V_{SS}*%
%TO.N,GND*%
X105257600Y-101869800D03*
%TO.P,U2,3,V_{DD}*%
%TO.N,+5V*%
X103987600Y-101869800D03*
%TO.P,U2,4,RXD*%
%TO.N,/SPI-CAN-FD1/CANRX*%
X102717600Y-101869800D03*
%TO.P,U2,5,V_{IO}*%
%TO.N,+3V3*%
X102717600Y-107019800D03*
%TO.P,U2,6,CANL*%
%TO.N,/CAN1_L*%
X103987600Y-107019800D03*
%TO.P,U2,7,CANH*%
%TO.N,/CAN1_H*%
X105257600Y-107019800D03*
%TO.P,U2,8,S*%
%TO.N,GND*%
X106527600Y-107019800D03*
%TD*%
D18*
%TO.P,R4,1*%
%TO.N,Net-(R4-Pad1)*%
X94996000Y-109323500D03*
%TO.P,R4,2*%
%TO.N,Net-(D6-K)*%
X94996000Y-111148500D03*
%TD*%
%TO.P,R6,1*%
%TO.N,Net-(U4-OUT)*%
X119024400Y-105665900D03*
%TO.P,R6,2*%
%TO.N,/SPI-CAN-FD1/CLK*%
X119024400Y-107490900D03*
%TD*%
D25*
%TO.P,H1,1*%
%TO.N,N/C*%
X66000000Y-109000000D03*
%TD*%
%TO.P,H3,1*%
%TO.N,N/C*%
X158000000Y-109000000D03*
%TD*%
D22*
%TO.P,J2,1,Pin_1*%
%TO.N,/CAN1_L*%
X120396000Y-112903000D03*
D23*
%TO.P,J2,2,Pin_2*%
%TO.N,/CAN1_H*%
X117856000Y-112903000D03*
%TD*%
D18*
%TO.P,R7,1*%
%TO.N,Net-(U4-OUT)*%
X121058106Y-105665090D03*
%TO.P,R7,2*%
%TO.N,/SPI-CAN-FD2/CLK*%
X121058106Y-107490090D03*
%TD*%
D22*
%TO.P,J3,1,Pin_1*%
%TO.N,/CAN2_L*%
X133096000Y-112903000D03*
D23*
%TO.P,J3,2,Pin_2*%
%TO.N,/CAN2_H*%
X130556000Y-112903000D03*
%TD*%
D18*
%TO.P,R2,1*%
%TO.N,Net-(R2-Pad1)*%
X90932000Y-109323500D03*
%TO.P,R2,2*%
%TO.N,Net-(D5-K)*%
X90932000Y-111148500D03*
%TD*%
D26*
%TO.P,U1,1*%
%TO.N,/UART1_CTS*%
X90489000Y-98883500D03*
%TO.P,U1,2*%
%TO.N,Net-(R1-Pad1)*%
X90489000Y-100153500D03*
%TO.P,U1,3*%
%TO.N,/UART1_RTS*%
X90489000Y-101423500D03*
%TO.P,U1,4*%
%TO.N,Net-(R2-Pad1)*%
X90489000Y-102693500D03*
%TO.P,U1,5*%
%TO.N,/I2S0_SCLK*%
X90489000Y-103963500D03*
%TO.P,U1,6*%
%TO.N,Net-(R3-Pad1)*%
X90489000Y-105233500D03*
%TO.P,U1,7,GND*%
%TO.N,GND*%
X90489000Y-106503500D03*
%TO.P,U1,8*%
%TO.N,Net-(R4-Pad1)*%
X95439000Y-106503500D03*
%TO.P,U1,9*%
%TO.N,/UART1_RXD*%
X95439000Y-105233500D03*
%TO.P,U1,10*%
%TO.N,Net-(R5-Pad1)*%
X95439000Y-103963500D03*
%TO.P,U1,11*%
%TO.N,/UART1_TXD*%
X95439000Y-102693500D03*
%TO.P,U1,12*%
%TO.N,unconnected-(U1-Pad12)*%
X95439000Y-101423500D03*
%TO.P,U1,13*%
%TO.N,+3V3*%
X95439000Y-100153500D03*
%TO.P,U1,14,VCC*%
X95439000Y-98883500D03*
%TD*%
D27*
%TO.P,C1,1*%
%TO.N,+3V3*%
X98872000Y-98882200D03*
%TO.P,C1,2*%
%TO.N,GND*%
X100772000Y-98882200D03*
%TD*%
D28*
%TO.N,+3V3*%
X87477600Y-115570000D03*
X81483200Y-123190000D03*
X97180400Y-98856800D03*
X102438200Y-105384600D03*
X121589800Y-100253800D03*
X131406900Y-101485700D03*
X149453600Y-102793800D03*
X87452200Y-123190000D03*
X93472000Y-123215400D03*
X126009400Y-108610400D03*
X149301200Y-101041200D03*
X122707400Y-105638600D03*
X147633249Y-100555421D03*
X93472000Y-115570000D03*
X108102402Y-101422202D03*
%TO.N,GND*%
X112852200Y-104419400D03*
X140055600Y-105181400D03*
X106553000Y-108610400D03*
X88722200Y-106502200D03*
X102006400Y-98882200D03*
X129844800Y-108585000D03*
X119449072Y-100147810D03*
X106807000Y-103530400D03*
X130276600Y-103479600D03*
X116789200Y-105181400D03*
X117551200Y-108305600D03*
X123952000Y-101523800D03*
X136121710Y-104414192D03*
X143408400Y-108102400D03*
%TO.N,+5V*%
X103987600Y-100253800D03*
X127254000Y-100304600D03*
%TO.N,/GPIO09*%
X149504400Y-99822000D03*
X115290600Y-104419400D03*
X152958800Y-102946200D03*
%TO.N,/UART1_TXD*%
X136245600Y-94717108D03*
%TO.N,/UART1_RXD*%
X140079414Y-95271844D03*
%TO.N,/UART1_RTS*%
X152628600Y-101015800D03*
X112395000Y-92928964D03*
%TO.N,/I2S0_SCLK*%
X107924601Y-95732601D03*
X142354299Y-95110299D03*
X104648000Y-95681800D03*
%TO.N,/GPIO12*%
X121691400Y-95250000D03*
X115900200Y-99974400D03*
X138125200Y-95250000D03*
%TO.N,/SPI0_MOSI*%
X151917400Y-97231200D03*
%TO.N,/SPI0_MISO*%
X148197566Y-96000568D03*
%TO.N,/SPI1_MISO*%
X135736323Y-99240001D03*
%TO.N,/SPI0_SCK*%
X151942800Y-98958400D03*
%TO.N,/SPI1_CS0*%
X133925566Y-99183827D03*
%TO.N,/GPIO01*%
X138049000Y-103885998D03*
%TO.N,/GPIO11*%
X144604107Y-95637116D03*
X141249400Y-100457000D03*
%TO.N,/GPIO07*%
X117754400Y-99999800D03*
%TO.N,/GPIO13*%
X154406600Y-106626850D03*
%TO.N,/UART1_CTS*%
X144195800Y-92049600D03*
%TO.N,/SPI1_MOSI*%
X137462896Y-99489896D03*
%TO.N,/SPI0_CS0*%
X145239104Y-93978096D03*
%TO.N,Net-(D3-K)*%
X89331800Y-113030000D03*
%TO.N,Net-(D4-K)*%
X89763600Y-120675400D03*
%TO.N,Net-(D5-K)*%
X81407000Y-114985800D03*
%TO.N,Net-(D6-K)*%
X83616800Y-120675400D03*
%TO.N,Net-(D7-K)*%
X75920600Y-123164600D03*
%TD*%
D29*
%TO.N,+3V3*%
X95439000Y-98883500D02*
X97153700Y-98883500D01*
X122586600Y-103790600D02*
X122732800Y-103936800D01*
X122707400Y-105638600D02*
X122732800Y-105613200D01*
X97205800Y-98882200D02*
X97180400Y-98856800D01*
X102717600Y-107019800D02*
X102717600Y-105664000D01*
D30*
X160910000Y-104130000D02*
X159270000Y-104130000D01*
D29*
X98872000Y-98882200D02*
X97205800Y-98882200D01*
X97153700Y-98883500D02*
X97180400Y-98856800D01*
X97180400Y-99847400D02*
X97180400Y-98856800D01*
X121564400Y-103790600D02*
X122586600Y-103790600D01*
X96874300Y-100153500D02*
X97180400Y-99847400D01*
X122732800Y-103936800D02*
X122732800Y-104744600D01*
X108446800Y-101919000D02*
X108102402Y-101574602D01*
X108102402Y-101574602D02*
X108102402Y-101422202D01*
X126009400Y-106994400D02*
X126009400Y-108610400D01*
X102717600Y-105664000D02*
X102438200Y-105384600D01*
X95439000Y-100153500D02*
X96874300Y-100153500D01*
X121564400Y-101590600D02*
X121564400Y-100279200D01*
D31*
X132461000Y-101919000D02*
X131840200Y-101919000D01*
D29*
X122870000Y-104607400D02*
X123952000Y-104607400D01*
X122732800Y-105613200D02*
X122732800Y-104744600D01*
D31*
X131840200Y-101919000D02*
X131406900Y-101485700D01*
D29*
X121564400Y-100279200D02*
X121589800Y-100253800D01*
X109170500Y-101919000D02*
X108446800Y-101919000D01*
X122732800Y-104744600D02*
X122870000Y-104607400D01*
D30*
X160910000Y-83810000D02*
X159270000Y-83810000D01*
D29*
%TO.N,GND*%
X116790500Y-106869000D02*
X116790500Y-105182700D01*
X116790500Y-105182700D02*
X116789200Y-105181400D01*
D30*
X160910000Y-73650000D02*
X159270000Y-73650000D01*
X160910000Y-55870000D02*
X159270000Y-55870000D01*
D29*
X123952000Y-102707400D02*
X123952000Y-101523800D01*
X119268200Y-102707400D02*
X119024400Y-102463600D01*
X130276600Y-103479600D02*
X129006600Y-103479600D01*
X106527600Y-108585000D02*
X106553000Y-108610400D01*
X119024400Y-100572482D02*
X119449072Y-100147810D01*
D30*
X155090000Y-81270000D02*
X156730000Y-81270000D01*
X155090000Y-88890000D02*
X156730000Y-88890000D01*
D29*
X105257600Y-101869800D02*
X105257600Y-103124000D01*
D30*
X155090000Y-68570000D02*
X156730000Y-68570000D01*
D29*
X116790500Y-108179900D02*
X116916200Y-108305600D01*
X116790500Y-106869000D02*
X116790500Y-108179900D01*
X119024400Y-101590600D02*
X119024400Y-100572482D01*
X116916200Y-108305600D02*
X117551200Y-108305600D01*
X106527600Y-107019800D02*
X106527600Y-108585000D01*
X88723500Y-106503500D02*
X88722200Y-106502200D01*
D31*
X140081000Y-106869000D02*
X140081000Y-105206800D01*
D29*
X105257600Y-103124000D02*
X105664000Y-103530400D01*
X129819400Y-108559600D02*
X129844800Y-108585000D01*
D30*
X155090000Y-63490000D02*
X156730000Y-63490000D01*
X155090000Y-99050000D02*
X156730000Y-99050000D01*
X160910000Y-93970000D02*
X159270000Y-93970000D01*
D29*
X119024400Y-102463600D02*
X119024400Y-101590600D01*
X128549400Y-103022400D02*
X128549400Y-101844400D01*
D31*
X140081000Y-105206800D02*
X140055600Y-105181400D01*
D29*
X105664000Y-103530400D02*
X106807000Y-103530400D01*
X100772000Y-98882200D02*
X102006400Y-98882200D01*
X129006600Y-103479600D02*
X128549400Y-103022400D01*
X90489000Y-106503500D02*
X88723500Y-106503500D01*
X123952000Y-102707400D02*
X119268200Y-102707400D01*
X129819400Y-106994400D02*
X129819400Y-108559600D01*
D31*
%TO.N,+5V*%
X127279400Y-100330000D02*
X127254000Y-100304600D01*
D30*
X155090000Y-101590000D02*
X156730000Y-101590000D01*
D29*
X103987600Y-100253800D02*
X103987600Y-101869800D01*
D30*
X155090000Y-104130000D02*
X156730000Y-104130000D01*
D31*
X127279400Y-101844400D02*
X127279400Y-100330000D01*
D30*
%TO.N,/I2C1_SDA*%
X160910000Y-101590000D02*
X159270000Y-101590000D01*
%TO.N,/I2C1_SCL*%
X160910000Y-99050000D02*
X159270000Y-99050000D01*
D31*
%TO.N,/GPIO09*%
X157982336Y-97797664D02*
X157982336Y-99827664D01*
X157982336Y-99827664D02*
X157505400Y-100304600D01*
D30*
X160910000Y-96510000D02*
X159270000Y-96510000D01*
D31*
X153492200Y-102412800D02*
X152958800Y-102946200D01*
X112980500Y-106869000D02*
X112980500Y-105586500D01*
X154200516Y-100304600D02*
X153492200Y-101012916D01*
X157505400Y-100304600D02*
X154200516Y-100304600D01*
X153492200Y-101012916D02*
X153492200Y-102412800D01*
X114147600Y-104419400D02*
X115290600Y-104419400D01*
X112980500Y-105586500D02*
X114147600Y-104419400D01*
X159270000Y-96510000D02*
X157982336Y-97797664D01*
%TO.N,/UART1_TXD*%
X95439000Y-102693500D02*
X99738732Y-102693500D01*
X99738732Y-102693500D02*
X108045832Y-94386400D01*
X135914892Y-94386400D02*
X136245600Y-94717108D01*
D30*
X155090000Y-96510000D02*
X156730000Y-96510000D01*
D31*
X108045832Y-94386400D02*
X135914892Y-94386400D01*
D30*
%TO.N,/UART1_RXD*%
X155090000Y-93970000D02*
X156730000Y-93970000D01*
D31*
X94006700Y-105233500D02*
X95439000Y-105233500D01*
X104314916Y-97332800D02*
X94589600Y-97332800D01*
X93646736Y-104873536D02*
X94006700Y-105233500D01*
X93646736Y-98275664D02*
X93646736Y-104873536D01*
X140079414Y-95271844D02*
X138584370Y-93776800D01*
X138584370Y-93776800D02*
X107870916Y-93776800D01*
X107870916Y-93776800D02*
X104314916Y-97332800D01*
X94589600Y-97332800D02*
X93646736Y-98275664D01*
%TO.N,/UART1_RTS*%
X92532200Y-100990400D02*
X92099100Y-101423500D01*
X92099100Y-101423500D02*
X90489000Y-101423500D01*
X157248735Y-95257664D02*
X154137664Y-95257664D01*
D30*
X160910000Y-91430000D02*
X159270000Y-91430000D01*
D31*
X112395000Y-92928964D02*
X112394000Y-92929964D01*
X92532200Y-97713800D02*
X92532200Y-100990400D01*
X154137664Y-95257664D02*
X153466800Y-95928528D01*
X159270000Y-91555000D02*
X157982336Y-92842664D01*
X159270000Y-91430000D02*
X159270000Y-91555000D01*
X112394000Y-92929964D02*
X97316036Y-92929964D01*
X153466800Y-100177600D02*
X152628600Y-101015800D01*
X157982336Y-94524063D02*
X157248735Y-95257664D01*
X157982336Y-92842664D02*
X157982336Y-94524063D01*
X97316036Y-92929964D02*
X92532200Y-97713800D01*
X153466800Y-95928528D02*
X153466800Y-100177600D01*
%TO.N,/I2S0_SCLK*%
X141345918Y-96118680D02*
X108310680Y-96118680D01*
X104648000Y-95681800D02*
X95350130Y-95681800D01*
X93091000Y-97940930D02*
X93091000Y-102946200D01*
X92073700Y-103963500D02*
X90489000Y-103963500D01*
D30*
X155090000Y-91430000D02*
X156730000Y-91430000D01*
D31*
X95350130Y-95681800D02*
X93091000Y-97940930D01*
X108310680Y-96118680D02*
X107924601Y-95732601D01*
X142354299Y-95110299D02*
X141345918Y-96118680D01*
X93091000Y-102946200D02*
X92073700Y-103963500D01*
%TO.N,/SPI1_SCK*%
X157990000Y-91941071D02*
X157990000Y-90472800D01*
X159270000Y-89192800D02*
X159270000Y-88890000D01*
X137541000Y-101919000D02*
X137541000Y-100609400D01*
X157990000Y-90472800D02*
X159270000Y-89192800D01*
D30*
X160910000Y-88890000D02*
X159270000Y-88890000D01*
D31*
X157213407Y-92717664D02*
X157990000Y-91941071D01*
X153890936Y-92717664D02*
X157213407Y-92717664D01*
X152476200Y-99872800D02*
X152882600Y-99466400D01*
X139192000Y-98958400D02*
X150262593Y-98958400D01*
X152882600Y-99466400D02*
X152882600Y-93726000D01*
X152882600Y-93726000D02*
X153890936Y-92717664D01*
X151176993Y-99872800D02*
X152476200Y-99872800D01*
X150262593Y-98958400D02*
X151176993Y-99872800D01*
X137541000Y-100609400D02*
X139192000Y-98958400D01*
%TO.N,/GPIO12*%
X115520500Y-100354100D02*
X115900200Y-99974400D01*
D30*
X160910000Y-86350000D02*
X159270000Y-86350000D01*
D31*
X137811256Y-95563944D02*
X138125200Y-95250000D01*
X115520500Y-101919000D02*
X115520500Y-100354100D01*
X122005344Y-95563944D02*
X137811256Y-95563944D01*
X121691400Y-95250000D02*
X122005344Y-95563944D01*
D29*
%TO.N,/CAN1_L*%
X104244665Y-110345357D02*
X106248200Y-112348892D01*
X103987600Y-107019800D02*
X103987600Y-108280200D01*
X118491000Y-114554000D02*
X120142000Y-112903000D01*
X106248200Y-113461800D02*
X107111800Y-114325400D01*
X106248200Y-112348892D02*
X106248200Y-113461800D01*
X104244664Y-108537264D02*
X104244665Y-110345357D01*
X109982000Y-112903000D02*
X110236000Y-112903000D01*
X103987600Y-108280200D02*
X104244664Y-108537264D01*
X120142000Y-112903000D02*
X120396000Y-112903000D01*
X110236000Y-112903000D02*
X111907708Y-112903000D01*
X111907708Y-112903000D02*
X113558708Y-114554000D01*
X107111800Y-114325400D02*
X108559600Y-114325400D01*
X113558708Y-114554000D02*
X118491000Y-114554000D01*
X108559600Y-114325400D02*
X109982000Y-112903000D01*
%TO.N,/CAN1_H*%
X104876600Y-110083600D02*
X107696000Y-112903000D01*
X104876600Y-108686600D02*
X104876600Y-110083600D01*
X111470964Y-111572564D02*
X109026436Y-111572564D01*
X109026436Y-111572564D02*
X107696000Y-112903000D01*
X116836936Y-113922064D02*
X113820464Y-113922064D01*
X105257600Y-107019800D02*
X105257600Y-108305600D01*
X113820464Y-113922064D02*
X111470964Y-111572564D01*
X105257600Y-108305600D02*
X104876600Y-108686600D01*
X117856000Y-112903000D02*
X116836936Y-113922064D01*
D31*
%TO.N,/SPI0_MOSI*%
X133351473Y-97782640D02*
X151365960Y-97782640D01*
D30*
X160910000Y-81270000D02*
X159270000Y-81270000D01*
D31*
X151365960Y-97782640D02*
X151917400Y-97231200D01*
X115703403Y-97783597D02*
X133350516Y-97783597D01*
X112980500Y-100506500D02*
X115703403Y-97783597D01*
X133350516Y-97783597D02*
X133351473Y-97782640D01*
X112980500Y-101919000D02*
X112980500Y-100506500D01*
D30*
%TO.N,/SPI0_MISO*%
X160910000Y-78730000D02*
X159270000Y-78730000D01*
D31*
X133121693Y-97227904D02*
X146970230Y-97227904D01*
X133120736Y-97228861D02*
X133121693Y-97227904D01*
X111710500Y-101919000D02*
X111710500Y-100481100D01*
X114962739Y-97228861D02*
X133120736Y-97228861D01*
X111710500Y-100481100D02*
X114962739Y-97228861D01*
X146970230Y-97227904D02*
X148197566Y-96000568D01*
%TO.N,/SPI1_MISO*%
X135001000Y-99975324D02*
X135736323Y-99240001D01*
X135001000Y-101919000D02*
X135001000Y-99975324D01*
D30*
X155090000Y-78730000D02*
X156730000Y-78730000D01*
D31*
%TO.N,/SPI0_SCK*%
X116291667Y-98338333D02*
X133580296Y-98338333D01*
X133580296Y-98338333D02*
X133581253Y-98337376D01*
X151321776Y-98337376D02*
X151942800Y-98958400D01*
X114250500Y-100379500D02*
X116291667Y-98338333D01*
X114250500Y-101919000D02*
X114250500Y-100379500D01*
X133581253Y-98337376D02*
X151321776Y-98337376D01*
D30*
X160910000Y-76190000D02*
X159270000Y-76190000D01*
D31*
%TO.N,/SPI1_CS0*%
X133731000Y-99378393D02*
X133925566Y-99183827D01*
X133731000Y-101919000D02*
X133731000Y-99378393D01*
D30*
X155090000Y-83810000D02*
X156730000Y-83810000D01*
%TO.N,/SPI0_CS1*%
X155090000Y-73650000D02*
X156730000Y-73650000D01*
%TO.N,/I2C0_SDA*%
X160910000Y-71110000D02*
X159270000Y-71110000D01*
%TO.N,/I2C0_SCL*%
X155090000Y-71110000D02*
X156730000Y-71110000D01*
%TO.N,/GPIO01*%
X160910000Y-68570000D02*
X159270000Y-68570000D01*
D31*
X136271000Y-106869000D02*
X136271000Y-105663998D01*
X136271000Y-105663998D02*
X138049000Y-103885998D01*
%TO.N,/GPIO11*%
X158017664Y-89373407D02*
X157213407Y-90177664D01*
X138811000Y-100634800D02*
X138988800Y-100457000D01*
D30*
X160910000Y-66030000D02*
X159270000Y-66030000D01*
D31*
X149352000Y-94919800D02*
X145321423Y-94919800D01*
X157213407Y-90177664D02*
X154094136Y-90177664D01*
X138988800Y-100457000D02*
X141249400Y-100457000D01*
X159270000Y-66030000D02*
X158017664Y-67282336D01*
X145321423Y-94919800D02*
X144604107Y-95637116D01*
X158017664Y-67282336D02*
X158017664Y-89373407D01*
X138811000Y-101919000D02*
X138811000Y-100634800D01*
X154094136Y-90177664D02*
X149352000Y-94919800D01*
%TO.N,/GPIO07*%
X117348000Y-99999800D02*
X117754400Y-99999800D01*
D30*
X155090000Y-66030000D02*
X156730000Y-66030000D01*
D31*
X116790500Y-101919000D02*
X116790500Y-100557300D01*
X116790500Y-100557300D02*
X117348000Y-99999800D01*
%TO.N,/GPIO13*%
X140081000Y-101919000D02*
X141489200Y-101919000D01*
X142849600Y-100558600D02*
X145969993Y-100558600D01*
X141489200Y-101919000D02*
X142849600Y-100558600D01*
X152038243Y-106626850D02*
X154406600Y-106626850D01*
X145969993Y-100558600D02*
X152038243Y-106626850D01*
D30*
X160910000Y-63490000D02*
X159270000Y-63490000D01*
%TO.N,/I2S0_FS*%
X160910000Y-60950000D02*
X159270000Y-60950000D01*
D31*
%TO.N,/UART1_CTS*%
X97325672Y-92082128D02*
X91922600Y-97485200D01*
X143756652Y-92049600D02*
X143724124Y-92082128D01*
X91794300Y-98883500D02*
X90489000Y-98883500D01*
X144195800Y-92049600D02*
X143756652Y-92049600D01*
X91922600Y-97485200D02*
X91922600Y-98755200D01*
X143724124Y-92082128D02*
X97325672Y-92082128D01*
D30*
X155090000Y-60950000D02*
X156730000Y-60950000D01*
D31*
X91922600Y-98755200D02*
X91794300Y-98883500D01*
%TO.N,/SPI1_MOSI*%
X136271000Y-101919000D02*
X136271000Y-100681792D01*
X136271000Y-100681792D02*
X137462896Y-99489896D01*
D30*
X160910000Y-58410000D02*
X159270000Y-58410000D01*
%TO.N,/I2S0_DIN*%
X155090000Y-58410000D02*
X156730000Y-58410000D01*
%TO.N,/I2S0_DOUT*%
X155090000Y-55870000D02*
X156730000Y-55870000D01*
D29*
%TO.N,/CAN2_L*%
X127558800Y-108661200D02*
X127558800Y-112191800D01*
X142976600Y-112903000D02*
X143230600Y-112903000D01*
X127561865Y-112199557D02*
X128897244Y-113534936D01*
X132842000Y-112903000D02*
X133096000Y-112903000D01*
X127279400Y-106994400D02*
X127279400Y-108381800D01*
X128897244Y-113534936D02*
X128901935Y-113534935D01*
X128901935Y-113534935D02*
X129667000Y-114300000D01*
X141427200Y-114452400D02*
X142976600Y-112903000D01*
X131445000Y-114300000D02*
X132842000Y-112903000D01*
X136342508Y-114452400D02*
X141427200Y-114452400D01*
X127279400Y-108381800D02*
X127558800Y-108661200D01*
X133096000Y-112903000D02*
X134793108Y-112903000D01*
X127558800Y-112191800D02*
X127561865Y-112194865D01*
X134793108Y-112903000D02*
X136342508Y-114452400D01*
X129667000Y-114300000D02*
X131445000Y-114300000D01*
X127561865Y-112194865D02*
X127561865Y-112199557D01*
%TO.N,/CAN2_H*%
X129159000Y-112903000D02*
X130556000Y-112903000D01*
X134340600Y-111556800D02*
X131902200Y-111556800D01*
X139773136Y-113820464D02*
X136604264Y-113820464D01*
X128193800Y-111937800D02*
X129159000Y-112903000D01*
X136604264Y-113820464D02*
X134340600Y-111556800D01*
X128193800Y-108686600D02*
X128193800Y-111937800D01*
X131902200Y-111556800D02*
X130556000Y-112903000D01*
X140690600Y-112903000D02*
X139773136Y-113820464D01*
X128549400Y-106994400D02*
X128549400Y-108331000D01*
X128549400Y-108331000D02*
X128193800Y-108686600D01*
D31*
%TO.N,/SPI0_CS0*%
X110440500Y-100582700D02*
X114349784Y-96673416D01*
X144858104Y-93978096D02*
X145239104Y-93978096D01*
D30*
X155090000Y-76190000D02*
X156730000Y-76190000D01*
D31*
X110440500Y-101919000D02*
X110440500Y-100582700D01*
X114349784Y-96673416D02*
X142162784Y-96673416D01*
X142162784Y-96673416D02*
X144858104Y-93978096D01*
D30*
%TO.N,/SPI1_CS1*%
X155090000Y-86350000D02*
X156730000Y-86350000D01*
D29*
%TO.N,/SPI-CAN-FD1/CANTX*%
X107127600Y-101869800D02*
X109170500Y-103912700D01*
X109170500Y-103912700D02*
X109170500Y-106869000D01*
X106527600Y-101869800D02*
X107127600Y-101869800D01*
%TO.N,/SPI-CAN-FD1/CANRX*%
X108458000Y-108610400D02*
X108000800Y-108153200D01*
X106451400Y-104597200D02*
X103505000Y-104597200D01*
X110210600Y-108610400D02*
X108458000Y-108610400D01*
X110440500Y-108380500D02*
X110210600Y-108610400D01*
X103505000Y-104597200D02*
X102717600Y-103809800D01*
X108000800Y-106146600D02*
X106451400Y-104597200D01*
X110440500Y-106869000D02*
X110440500Y-108380500D01*
X108000800Y-108153200D02*
X108000800Y-106146600D01*
X102717600Y-103809800D02*
X102717600Y-101869800D01*
%TO.N,/SPI-CAN-FD2/CANRX*%
X126009400Y-103454200D02*
X126009400Y-101844400D01*
X131978400Y-108585000D02*
X131521200Y-108127800D01*
X130708400Y-104368600D02*
X126923800Y-104368600D01*
X131521200Y-108127800D02*
X131521200Y-105181400D01*
X131521200Y-105181400D02*
X130708400Y-104368600D01*
X133731000Y-108356400D02*
X133502400Y-108585000D01*
X126923800Y-104368600D02*
X126009400Y-103454200D01*
X133731000Y-106869000D02*
X133731000Y-108356400D01*
X133502400Y-108585000D02*
X131978400Y-108585000D01*
%TO.N,/SPI-CAN-FD2/CANTX*%
X132461000Y-103835200D02*
X130470200Y-101844400D01*
X132461000Y-106869000D02*
X132461000Y-103835200D01*
X130470200Y-101844400D02*
X129819400Y-101844400D01*
%TO.N,/SPI-CAN-FD1/CLK*%
X119024400Y-107490900D02*
X119024400Y-108407200D01*
X118110000Y-109321600D02*
X116230400Y-109321600D01*
X119024400Y-108407200D02*
X118110000Y-109321600D01*
X116230400Y-109321600D02*
X115520500Y-108611700D01*
X115520500Y-108611700D02*
X115520500Y-106869000D01*
%TO.N,Net-(D3-K)*%
X88900000Y-111148500D02*
X88900000Y-112598200D01*
X88900000Y-112598200D02*
X89331800Y-113030000D01*
%TO.N,Net-(D4-K)*%
X89763600Y-117424200D02*
X89763600Y-120675400D01*
X92964000Y-114223800D02*
X89763600Y-117424200D01*
X92964000Y-111148500D02*
X92964000Y-114223800D01*
%TO.N,Net-(D5-K)*%
X90932000Y-113157000D02*
X90068400Y-114020600D01*
X82372200Y-114020600D02*
X81407000Y-114985800D01*
X90932000Y-111148500D02*
X90932000Y-113157000D01*
X90068400Y-114020600D02*
X82372200Y-114020600D01*
%TO.N,Net-(D6-K)*%
X85031120Y-122089720D02*
X83616800Y-120675400D01*
X94996000Y-111148500D02*
X94996000Y-120954800D01*
X93861080Y-122089720D02*
X85031120Y-122089720D01*
X94996000Y-120954800D02*
X93861080Y-122089720D01*
%TO.N,Net-(D7-K)*%
X76885800Y-124561600D02*
X95123000Y-124561600D01*
X97028000Y-122656600D02*
X97028000Y-111148500D01*
X75920600Y-123596400D02*
X76885800Y-124561600D01*
X75920600Y-123164600D02*
X75920600Y-123596400D01*
X95123000Y-124561600D02*
X97028000Y-122656600D01*
%TO.N,Net-(R3-Pad1)*%
X90489000Y-105233500D02*
X92050900Y-105233500D01*
X92964000Y-106146600D02*
X92964000Y-109323500D01*
X92050900Y-105233500D02*
X92964000Y-106146600D01*
%TO.N,Net-(R4-Pad1)*%
X95439000Y-107557800D02*
X94996000Y-108000800D01*
X94996000Y-108000800D02*
X94996000Y-109323500D01*
X95439000Y-106503500D02*
X95439000Y-107557800D01*
%TO.N,Net-(R5-Pad1)*%
X95439000Y-103963500D02*
X96775300Y-103963500D01*
X97028000Y-104216200D02*
X97028000Y-109323500D01*
X96775300Y-103963500D02*
X97028000Y-104216200D01*
%TO.N,/SPI-CAN-FD2/CLK*%
X124812536Y-106200464D02*
X125702254Y-105310746D01*
X138811000Y-109067600D02*
X138811000Y-106869000D01*
X137259964Y-110618636D02*
X138811000Y-109067600D01*
X124812536Y-106208767D02*
X124812536Y-106200464D01*
X121058106Y-108408906D02*
X121386600Y-108737400D01*
X130835400Y-109067600D02*
X132386436Y-110618636D01*
X130835400Y-105791000D02*
X130835400Y-109067600D01*
X122275600Y-108737400D02*
X124285264Y-106727736D01*
X130352800Y-105308400D02*
X130835400Y-105791000D01*
X121386600Y-108737400D02*
X122275600Y-108737400D01*
X132386436Y-110618636D02*
X137259964Y-110618636D01*
X130350454Y-105310746D02*
X130352800Y-105308400D01*
X121058106Y-107490090D02*
X121058106Y-108408906D01*
X124293567Y-106727736D02*
X124812536Y-106208767D01*
X124285264Y-106727736D02*
X124293567Y-106727736D01*
X125702254Y-105310746D02*
X130350454Y-105310746D01*
D31*
%TO.N,Net-(U6-CLKO{slash}SOF)*%
X135001000Y-106869000D02*
X135001000Y-109677200D01*
D29*
%TO.N,Net-(R1-Pad1)*%
X87074264Y-102593237D02*
X87074264Y-107000859D01*
X90489000Y-100153500D02*
X89514001Y-100153500D01*
X87074264Y-107000859D02*
X88248941Y-108175536D01*
X89514001Y-100153500D02*
X87074264Y-102593237D01*
X88900000Y-108381800D02*
X88900000Y-109323500D01*
X88248941Y-108175536D02*
X88693735Y-108175535D01*
X88693735Y-108175535D02*
X88900000Y-108381800D01*
%TO.N,Net-(R2-Pad1)*%
X87706200Y-106739103D02*
X87706200Y-104038400D01*
X89051100Y-102693500D02*
X90489000Y-102693500D01*
X87706200Y-104038400D02*
X89051100Y-102693500D01*
X90373200Y-107543600D02*
X88510697Y-107543600D01*
X88510697Y-107543600D02*
X87706200Y-106739103D01*
X90932000Y-108102400D02*
X90373200Y-107543600D01*
X90932000Y-109323500D02*
X90932000Y-108102400D01*
%TO.N,Net-(U4-OUT)*%
X119024400Y-103790600D02*
X119024400Y-105665900D01*
X119024400Y-105665900D02*
X121057296Y-105665900D01*
X121057296Y-105665900D02*
X121058106Y-105665090D01*
%TO.N,Net-(U3-CLKO{slash}SOF)*%
X111734600Y-109702600D02*
X111734600Y-106893100D01*
X111734600Y-106893100D02*
X111710500Y-106869000D01*
%TD*%
%TA.AperFunction,Conductor*%
%TO.N,+3V3*%
G36*
X148818439Y-99384985D02*
G01*
X148864194Y-99437789D01*
X148874138Y-99506947D01*
X148865961Y-99536753D01*
X148832262Y-99618108D01*
X148832260Y-99618116D01*
X148805400Y-99753150D01*
X148805400Y-99890849D01*
X148832260Y-100025883D01*
X148832263Y-100025895D01*
X148884951Y-100153096D01*
X148884952Y-100153098D01*
X148961450Y-100267585D01*
X148961453Y-100267589D01*
X149058810Y-100364946D01*
X149058814Y-100364949D01*
X149173299Y-100441446D01*
X149173300Y-100441446D01*
X149173301Y-100441447D01*
X149173303Y-100441448D01*
X149293853Y-100491381D01*
X149300509Y-100494138D01*
X149435550Y-100520999D01*
X149435554Y-100521000D01*
X149435555Y-100521000D01*
X149573246Y-100521000D01*
X149573247Y-100520999D01*
X149708291Y-100494138D01*
X149835501Y-100441446D01*
X149949986Y-100364949D01*
X150047349Y-100267586D01*
X150123846Y-100153101D01*
X150176538Y-100025891D01*
X150203400Y-99890845D01*
X150203400Y-99774013D01*
X150223085Y-99706974D01*
X150275889Y-99661219D01*
X150345047Y-99651275D01*
X150408603Y-99680300D01*
X150415081Y-99686332D01*
X150927150Y-100198401D01*
X151019935Y-100251970D01*
X151123423Y-100279700D01*
X151123424Y-100279700D01*
X151123426Y-100279700D01*
X152076802Y-100279700D01*
X152143841Y-100299385D01*
X152189596Y-100352189D01*
X152199540Y-100421347D01*
X152170515Y-100484903D01*
X152164483Y-100491381D01*
X152085653Y-100570210D01*
X152085650Y-100570214D01*
X152009152Y-100684701D01*
X152009151Y-100684703D01*
X151956463Y-100811904D01*
X151956460Y-100811916D01*
X151929600Y-100946950D01*
X151929600Y-101084649D01*
X151956460Y-101219683D01*
X151956463Y-101219695D01*
X152009151Y-101346896D01*
X152009152Y-101346898D01*
X152085650Y-101461385D01*
X152085653Y-101461389D01*
X152183010Y-101558746D01*
X152183014Y-101558749D01*
X152297499Y-101635246D01*
X152297500Y-101635246D01*
X152297501Y-101635247D01*
X152297503Y-101635248D01*
X152325320Y-101646770D01*
X152424709Y-101687938D01*
X152559750Y-101714799D01*
X152559754Y-101714800D01*
X152559755Y-101714800D01*
X152697446Y-101714800D01*
X152697447Y-101714799D01*
X152832491Y-101687938D01*
X152913848Y-101654238D01*
X152983317Y-101646770D01*
X153045796Y-101678045D01*
X153081448Y-101738134D01*
X153085300Y-101768800D01*
X153085300Y-102123200D01*
X153065615Y-102190239D01*
X153012811Y-102235994D01*
X152961300Y-102247200D01*
X152889950Y-102247200D01*
X152754916Y-102274060D01*
X152754904Y-102274063D01*
X152627703Y-102326751D01*
X152627701Y-102326752D01*
X152513214Y-102403250D01*
X152513210Y-102403253D01*
X152415853Y-102500610D01*
X152415850Y-102500614D01*
X152339352Y-102615101D01*
X152339351Y-102615103D01*
X152286663Y-102742304D01*
X152286660Y-102742316D01*
X152259800Y-102877350D01*
X152259800Y-103015049D01*
X152286660Y-103150083D01*
X152286663Y-103150095D01*
X152339351Y-103277296D01*
X152339352Y-103277298D01*
X152415850Y-103391785D01*
X152415853Y-103391789D01*
X152513210Y-103489146D01*
X152513214Y-103489149D01*
X152627699Y-103565646D01*
X152627700Y-103565646D01*
X152627701Y-103565647D01*
X152627703Y-103565648D01*
X152698392Y-103594928D01*
X152754909Y-103618338D01*
X152889950Y-103645199D01*
X152889954Y-103645200D01*
X152889955Y-103645200D01*
X153027646Y-103645200D01*
X153027647Y-103645199D01*
X153162691Y-103618338D01*
X153289901Y-103565646D01*
X153404386Y-103489149D01*
X153501749Y-103391786D01*
X153578246Y-103277301D01*
X153630938Y-103150091D01*
X153657800Y-103015045D01*
X153657800Y-102877355D01*
X153657800Y-102874005D01*
X153666443Y-102844568D01*
X153672967Y-102814579D01*
X153676722Y-102809562D01*
X153677485Y-102806966D01*
X153694118Y-102786325D01*
X153724159Y-102756283D01*
X153737528Y-102742914D01*
X153798850Y-102709429D01*
X153868541Y-102714413D01*
X153924475Y-102756283D01*
X153948893Y-102821748D01*
X153949209Y-102830453D01*
X153949400Y-102996999D01*
X153949400Y-102997000D01*
X156233172Y-102990161D01*
X156300268Y-103009644D01*
X156346181Y-103062311D01*
X156356331Y-103131439D01*
X156327497Y-103195082D01*
X156298958Y-103219500D01*
X156290346Y-103224848D01*
X156254191Y-103239824D01*
X156095677Y-103345739D01*
X156093905Y-103346840D01*
X156062149Y-103355632D01*
X156030701Y-103365480D01*
X156028488Y-103365500D01*
X154174936Y-103365500D01*
X154100698Y-103380266D01*
X154016515Y-103436515D01*
X153960266Y-103520699D01*
X153960264Y-103520703D01*
X153945500Y-103594928D01*
X153945500Y-104665063D01*
X153960266Y-104739301D01*
X154016515Y-104823484D01*
X154050234Y-104846014D01*
X154100699Y-104879734D01*
X154100702Y-104879734D01*
X154100703Y-104879735D01*
X154125666Y-104884700D01*
X154174933Y-104894500D01*
X155004700Y-104894499D01*
X155004714Y-104894500D01*
X155014703Y-104894500D01*
X156028488Y-104894500D01*
X156095527Y-104914185D01*
X156097379Y-104915398D01*
X156254184Y-105020172D01*
X156254197Y-105020179D01*
X156436993Y-105095895D01*
X156436998Y-105095897D01*
X156437002Y-105095897D01*
X156437003Y-105095898D01*
X156631062Y-105134500D01*
X156631065Y-105134500D01*
X156828937Y-105134500D01*
X156959495Y-105108529D01*
X157023002Y-105095897D01*
X157205809Y-105020176D01*
X157370331Y-104910246D01*
X157510246Y-104770331D01*
X157620176Y-104605809D01*
X157695897Y-104423002D01*
X157734500Y-104228935D01*
X157734500Y-104031065D01*
X157734204Y-104029577D01*
X157734275Y-104028781D01*
X157733903Y-104025000D01*
X157734619Y-104024929D01*
X157740427Y-103959987D01*
X157783286Y-103904807D01*
X157849175Y-103881558D01*
X157880012Y-103883763D01*
X157883511Y-103884458D01*
X157898798Y-103887499D01*
X157898799Y-103887500D01*
X157898800Y-103887500D01*
X158101201Y-103887500D01*
X158101202Y-103887499D01*
X158299711Y-103848014D01*
X158486704Y-103770559D01*
X158654993Y-103658112D01*
X158798112Y-103514993D01*
X158910559Y-103346704D01*
X158988014Y-103159711D01*
X159003608Y-103081310D01*
X159035992Y-103019402D01*
X159096707Y-102984827D01*
X159124851Y-102981504D01*
X162356000Y-102971830D01*
X162423097Y-102991313D01*
X162469010Y-103043980D01*
X162480370Y-103095858D01*
X162479644Y-106248719D01*
X162459944Y-106315753D01*
X162407129Y-106361496D01*
X162355191Y-106372689D01*
X159958612Y-106363943D01*
X159891645Y-106344014D01*
X159890174Y-106343046D01*
X159677642Y-106201037D01*
X159677637Y-106201034D01*
X159677636Y-106201033D01*
X159677631Y-106201030D01*
X159677624Y-106201026D01*
X159395218Y-106050077D01*
X159395213Y-106050075D01*
X159099350Y-105927524D01*
X158792890Y-105834561D01*
X158792879Y-105834558D01*
X158478821Y-105772090D01*
X158478804Y-105772087D01*
X158237805Y-105748351D01*
X158160119Y-105740700D01*
X157839881Y-105740700D01*
X157768032Y-105747776D01*
X157521195Y-105772087D01*
X157521178Y-105772090D01*
X157207120Y-105834558D01*
X157207109Y-105834561D01*
X156900649Y-105927524D01*
X156604786Y-106050075D01*
X156604781Y-106050077D01*
X156322375Y-106201026D01*
X156322362Y-106201034D01*
X156131108Y-106328825D01*
X156064431Y-106349702D01*
X156061766Y-106349721D01*
X155125654Y-106346305D01*
X155058686Y-106326376D01*
X155023004Y-106291197D01*
X154949549Y-106181263D01*
X154852189Y-106083903D01*
X154852185Y-106083900D01*
X154737698Y-106007402D01*
X154737696Y-106007401D01*
X154610495Y-105954713D01*
X154610483Y-105954710D01*
X154475449Y-105927850D01*
X154475445Y-105927850D01*
X154337755Y-105927850D01*
X154337750Y-105927850D01*
X154202716Y-105954710D01*
X154202704Y-105954713D01*
X154075503Y-106007401D01*
X154075501Y-106007402D01*
X153961014Y-106083900D01*
X153961010Y-106083903D01*
X153861283Y-106183631D01*
X153799960Y-106217116D01*
X153773602Y-106219950D01*
X152258148Y-106219950D01*
X152191109Y-106200265D01*
X152170467Y-106183631D01*
X147300692Y-101313855D01*
X147267207Y-101252532D01*
X147264374Y-101226713D01*
X147256822Y-99489836D01*
X147276215Y-99422715D01*
X147328820Y-99376731D01*
X147380821Y-99365300D01*
X148751400Y-99365300D01*
X148818439Y-99384985D01*
G37*
%TD.AperFunction*%
%TD*%
M02*
