<?xml version="1.0" standalone="no"?>
 <!DOCTYPE svg PUBLIC "-//W3C//DTD SVG 1.1//EN" 
 "http://www.w3.org/Graphics/SVG/1.1/DTD/svg11.dtd"> 
<svg
  xmlns:svg="http://www.w3.org/2000/svg"
  xmlns="http://www.w3.org/2000/svg"
  xmlns:xlink="http://www.w3.org/1999/xlink"
  version="1.1"
  width="431.8000mm" height="279.4000mm" viewBox="0.0000 0.0000 431.8000 279.4000">
<title>SVG Image created as NX-ButtonInterface-B_Silkscreen.svg date 2025/01/15 16:23:52 </title>
  <desc>Image generated by PCBNEW </desc>
<g style="fill:#000000; fill-opacity:1.0000;stroke:#000000; stroke-opacity:1.0000;
stroke-linecap:round; stroke-linejoin:round;"
 transform="translate(0 0) scale(1 1)">
</g>
<g style="fill:none; 
stroke:#000000; stroke-width:0.1778; stroke-opacity:1; 
stroke-linecap:round; stroke-linejoin:round;">
<text x="326.1360" y="100.7253"
textLength="7.4761" font-size="1.6933" lengthAdjust="spacingAndGlyphs"
text-anchor="start" opacity="0" stroke-opacity="0">LED+ 7</text>
<g class="stroked-text"><desc>LED+ 7</desc>
<path d="M327.1601 100.6686
L326.5554 100.6686
" />
<path d="M326.5554 100.6686
L326.5554 99.3986
" />
<path d="M327.5834 100.0033
L328.0068 100.0033
" />
<path d="M328.1882 100.6686
L327.5834 100.6686
" />
<path d="M327.5834 100.6686
L327.5834 99.3986
" />
<path d="M327.5834 99.3986
L328.1882 99.3986
" />
<path d="M328.7325 100.6686
L328.7325 99.3986
" />
<path d="M328.7325 99.3986
L329.0349 99.3986
" />
<path d="M329.0349 99.3986
L329.2163 99.4590
" />
<path d="M329.2163 99.4590
L329.3373 99.5800
" />
<path d="M329.3373 99.5800
L329.3977 99.7009
" />
<path d="M329.3977 99.7009
L329.4582 99.9429
" />
<path d="M329.4582 99.9429
L329.4582 100.1243
" />
<path d="M329.4582 100.1243
L329.3977 100.3662
" />
<path d="M329.3977 100.3662
L329.3373 100.4871
" />
<path d="M329.3373 100.4871
L329.2163 100.6081
" />
<path d="M329.2163 100.6081
L329.0349 100.6686
" />
<path d="M329.0349 100.6686
L328.7325 100.6686
" />
<path d="M330.0025 100.1848
L330.9701 100.1848
" />
<path d="M330.4863 100.6686
L330.4863 99.7009
" />
<path d="M332.4215 99.3986
L333.2682 99.3986
" />
<path d="M333.2682 99.3986
L332.7239 100.6686
" />
</g><text x="327.4060" y="103.7876"
textLength="6.2061" font-size="1.6933" lengthAdjust="spacingAndGlyphs"
text-anchor="start" opacity="0" stroke-opacity="0">RXD 5</text>
<g class="stroked-text"><desc>RXD 5</desc>
<path d="M328.5511 103.7309
L328.1277 103.1261
" />
<path d="M327.8254 103.7309
L327.8254 102.4609
" />
<path d="M327.8254 102.4609
L328.3092 102.4609
" />
<path d="M328.3092 102.4609
L328.4301 102.5213
" />
<path d="M328.4301 102.5213
L328.4906 102.5818
" />
<path d="M328.4906 102.5818
L328.5511 102.7028
" />
<path d="M328.5511 102.7028
L328.5511 102.8842
" />
<path d="M328.5511 102.8842
L328.4906 103.0051
" />
<path d="M328.4906 103.0051
L328.4301 103.0656
" />
<path d="M328.4301 103.0656
L328.3092 103.1261
" />
<path d="M328.3092 103.1261
L327.8254 103.1261
" />
<path d="M328.9744 102.4609
L329.8211 103.7309
" />
<path d="M329.8211 102.4609
L328.9744 103.7309
" />
<path d="M330.3049 103.7309
L330.3049 102.4609
" />
<path d="M330.3049 102.4609
L330.6073 102.4609
" />
<path d="M330.6073 102.4609
L330.7887 102.5213
" />
<path d="M330.7887 102.5213
L330.9096 102.6423
" />
<path d="M330.9096 102.6423
L330.9701 102.7632
" />
<path d="M330.9701 102.7632
L331.0306 103.0051
" />
<path d="M331.0306 103.0051
L331.0306 103.1866
" />
<path d="M331.0306 103.1866
L330.9701 103.4285
" />
<path d="M330.9701 103.4285
L330.9096 103.5494
" />
<path d="M330.9096 103.5494
L330.7887 103.6704
" />
<path d="M330.7887 103.6704
L330.6073 103.7309
" />
<path d="M330.6073 103.7309
L330.3049 103.7309
" />
<path d="M333.1473 102.4609
L332.5425 102.4609
" />
<path d="M332.5425 102.4609
L332.4820 103.0656
" />
<path d="M332.4820 103.0656
L332.5425 103.0051
" />
<path d="M332.5425 103.0051
L332.6635 102.9447
" />
<path d="M332.6635 102.9447
L332.9658 102.9447
" />
<path d="M332.9658 102.9447
L333.0868 103.0051
" />
<path d="M333.0868 103.0051
L333.1473 103.0656
" />
<path d="M333.1473 103.0656
L333.2077 103.1866
" />
<path d="M333.2077 103.1866
L333.2077 103.4889
" />
<path d="M333.2077 103.4889
L333.1473 103.6099
" />
<path d="M333.1473 103.6099
L333.0868 103.6704
" />
<path d="M333.0868 103.6704
L332.9658 103.7309
" />
<path d="M332.9658 103.7309
L332.6635 103.7309
" />
<path d="M332.6635 103.7309
L332.5425 103.6704
" />
<path d="M332.5425 103.6704
L332.4820 103.6099
" />
</g></g>
<g style="fill:none; 
stroke:#000000; stroke-width:0.2286; stroke-opacity:1; 
stroke-linecap:round; stroke-linejoin:round;">
<text x="312.4200" y="98.9141"
textLength="0.6858" font-size="1.6933" lengthAdjust="spacingAndGlyphs"
text-anchor="middle" opacity="0" stroke-opacity="0"></text>
<g class="stroked-text"><desc></desc>
</g><text x="312.4200" y="100.9587"
textLength="5.2699" font-size="1.6933" lengthAdjust="spacingAndGlyphs"
text-anchor="middle" opacity="0" stroke-opacity="0">2025</text>
<g class="stroked-text"><desc>2025</desc>
<path d="M310.2429 99.7503
L310.3033 99.6898
" />
<path d="M310.3033 99.6898
L310.4243 99.6293
" />
<path d="M310.4243 99.6293
L310.7267 99.6293
" />
<path d="M310.7267 99.6293
L310.8476 99.6898
" />
<path d="M310.8476 99.6898
L310.9081 99.7503
" />
<path d="M310.9081 99.7503
L310.9686 99.8712
" />
<path d="M310.9686 99.8712
L310.9686 99.9922
" />
<path d="M310.9686 99.9922
L310.9081 100.1736
" />
<path d="M310.9081 100.1736
L310.1824 100.8993
" />
<path d="M310.1824 100.8993
L310.9686 100.8993
" />
<path d="M311.7548 99.6293
L311.8757 99.6293
" />
<path d="M311.8757 99.6293
L311.9967 99.6898
" />
<path d="M311.9967 99.6898
L312.0571 99.7503
" />
<path d="M312.0571 99.7503
L312.1176 99.8712
" />
<path d="M312.1176 99.8712
L312.1781 100.1131
" />
<path d="M312.1781 100.1131
L312.1781 100.4155
" />
<path d="M312.1781 100.4155
L312.1176 100.6574
" />
<path d="M312.1176 100.6574
L312.0571 100.7784
" />
<path d="M312.0571 100.7784
L311.9967 100.8388
" />
<path d="M311.9967 100.8388
L311.8757 100.8993
" />
<path d="M311.8757 100.8993
L311.7548 100.8993
" />
<path d="M311.7548 100.8993
L311.6338 100.8388
" />
<path d="M311.6338 100.8388
L311.5733 100.7784
" />
<path d="M311.5733 100.7784
L311.5129 100.6574
" />
<path d="M311.5129 100.6574
L311.4524 100.4155
" />
<path d="M311.4524 100.4155
L311.4524 100.1131
" />
<path d="M311.4524 100.1131
L311.5129 99.8712
" />
<path d="M311.5129 99.8712
L311.5733 99.7503
" />
<path d="M311.5733 99.7503
L311.6338 99.6898
" />
<path d="M311.6338 99.6898
L311.7548 99.6293
" />
<path d="M312.6619 99.7503
L312.7224 99.6898
" />
<path d="M312.7224 99.6898
L312.8433 99.6293
" />
<path d="M312.8433 99.6293
L313.1457 99.6293
" />
<path d="M313.1457 99.6293
L313.2667 99.6898
" />
<path d="M313.2667 99.6898
L313.3271 99.7503
" />
<path d="M313.3271 99.7503
L313.3876 99.8712
" />
<path d="M313.3876 99.8712
L313.3876 99.9922
" />
<path d="M313.3876 99.9922
L313.3271 100.1736
" />
<path d="M313.3271 100.1736
L312.6014 100.8993
" />
<path d="M312.6014 100.8993
L313.3876 100.8993
" />
<path d="M314.5367 99.6293
L313.9319 99.6293
" />
<path d="M313.9319 99.6293
L313.8714 100.2341
" />
<path d="M313.8714 100.2341
L313.9319 100.1736
" />
<path d="M313.9319 100.1736
L314.0529 100.1131
" />
<path d="M314.0529 100.1131
L314.3552 100.1131
" />
<path d="M314.3552 100.1131
L314.4762 100.1736
" />
<path d="M314.4762 100.1736
L314.5367 100.2341
" />
<path d="M314.5367 100.2341
L314.5971 100.3550
" />
<path d="M314.5971 100.3550
L314.5971 100.6574
" />
<path d="M314.5971 100.6574
L314.5367 100.7784
" />
<path d="M314.5367 100.7784
L314.4762 100.8388
" />
<path d="M314.4762 100.8388
L314.3552 100.8993
" />
<path d="M314.3552 100.8993
L314.0529 100.8993
" />
<path d="M314.0529 100.8993
L313.9319 100.8388
" />
<path d="M313.9319 100.8388
L313.8714 100.7784
" />
</g><text x="312.4200" y="103.0033"
textLength="11.1361" font-size="1.6933" lengthAdjust="spacingAndGlyphs"
text-anchor="middle" opacity="0" stroke-opacity="0">NX BUTTON</text>
<g class="stroked-text"><desc>NX BUTTON</desc>
<path d="M307.3702 102.9440
L307.3702 101.6740
" />
<path d="M307.3702 101.6740
L308.0960 102.9440
" />
<path d="M308.0960 102.9440
L308.0960 101.6740
" />
<path d="M308.5798 101.6740
L309.4264 102.9440
" />
<path d="M309.4264 101.6740
L308.5798 102.9440
" />
<path d="M311.3012 102.2787
L311.4826 102.3392
" />
<path d="M311.4826 102.3392
L311.5431 102.3997
" />
<path d="M311.5431 102.3997
L311.6036 102.5206
" />
<path d="M311.6036 102.5206
L311.6036 102.7020
" />
<path d="M311.6036 102.7020
L311.5431 102.8230
" />
<path d="M311.5431 102.8230
L311.4826 102.8835
" />
<path d="M311.4826 102.8835
L311.3617 102.9440
" />
<path d="M311.3617 102.9440
L310.8779 102.9440
" />
<path d="M310.8779 102.9440
L310.8779 101.6740
" />
<path d="M310.8779 101.6740
L311.3012 101.6740
" />
<path d="M311.3012 101.6740
L311.4221 101.7344
" />
<path d="M311.4221 101.7344
L311.4826 101.7949
" />
<path d="M311.4826 101.7949
L311.5431 101.9159
" />
<path d="M311.5431 101.9159
L311.5431 102.0368
" />
<path d="M311.5431 102.0368
L311.4826 102.1578
" />
<path d="M311.4826 102.1578
L311.4221 102.2182
" />
<path d="M311.4221 102.2182
L311.3012 102.2787
" />
<path d="M311.3012 102.2787
L310.8779 102.2787
" />
<path d="M312.1479 101.6740
L312.1479 102.7020
" />
<path d="M312.1479 102.7020
L312.2083 102.8230
" />
<path d="M312.2083 102.8230
L312.2688 102.8835
" />
<path d="M312.2688 102.8835
L312.3898 102.9440
" />
<path d="M312.3898 102.9440
L312.6317 102.9440
" />
<path d="M312.6317 102.9440
L312.7526 102.8835
" />
<path d="M312.7526 102.8835
L312.8131 102.8230
" />
<path d="M312.8131 102.8230
L312.8736 102.7020
" />
<path d="M312.8736 102.7020
L312.8736 101.6740
" />
<path d="M313.2969 101.6740
L314.0226 101.6740
" />
<path d="M313.6598 102.9440
L313.6598 101.6740
" />
<path d="M314.2645 101.6740
L314.9902 101.6740
" />
<path d="M314.6274 102.9440
L314.6274 101.6740
" />
<path d="M315.6555 101.6740
L315.8974 101.6740
" />
<path d="M315.8974 101.6740
L316.0183 101.7344
" />
<path d="M316.0183 101.7344
L316.1393 101.8554
" />
<path d="M316.1393 101.8554
L316.1998 102.0973
" />
<path d="M316.1998 102.0973
L316.1998 102.5206
" />
<path d="M316.1998 102.5206
L316.1393 102.7625
" />
<path d="M316.1393 102.7625
L316.0183 102.8835
" />
<path d="M316.0183 102.8835
L315.8974 102.9440
" />
<path d="M315.8974 102.9440
L315.6555 102.9440
" />
<path d="M315.6555 102.9440
L315.5345 102.8835
" />
<path d="M315.5345 102.8835
L315.4136 102.7625
" />
<path d="M315.4136 102.7625
L315.3531 102.5206
" />
<path d="M315.3531 102.5206
L315.3531 102.0973
" />
<path d="M315.3531 102.0973
L315.4136 101.8554
" />
<path d="M315.4136 101.8554
L315.5345 101.7344
" />
<path d="M315.5345 101.7344
L315.6555 101.6740
" />
<path d="M316.7440 102.9440
L316.7440 101.6740
" />
<path d="M316.7440 101.6740
L317.4698 102.9440
" />
<path d="M317.4698 102.9440
L317.4698 101.6740
" />
</g><text x="312.4200" y="105.0479"
textLength="13.6156" font-size="1.6933" lengthAdjust="spacingAndGlyphs"
text-anchor="middle" opacity="0" stroke-opacity="0">INTERFACE V1</text>
<g class="stroked-text"><desc>INTERFACE V1</desc>
<path d="M306.1305 104.9886
L306.1305 103.7186
" />
<path d="M306.7352 104.9886
L306.7352 103.7186
" />
<path d="M306.7352 103.7186
L307.4610 104.9886
" />
<path d="M307.4610 104.9886
L307.4610 103.7186
" />
<path d="M307.8843 103.7186
L308.6100 103.7186
" />
<path d="M308.2471 104.9886
L308.2471 103.7186
" />
<path d="M309.0333 104.3233
L309.4567 104.3233
" />
<path d="M309.6381 104.9886
L309.0333 104.9886
" />
<path d="M309.0333 104.9886
L309.0333 103.7186
" />
<path d="M309.0333 103.7186
L309.6381 103.7186
" />
<path d="M310.9081 104.9886
L310.4848 104.3838
" />
<path d="M310.1824 104.9886
L310.1824 103.7186
" />
<path d="M310.1824 103.7186
L310.6662 103.7186
" />
<path d="M310.6662 103.7186
L310.7871 103.7791
" />
<path d="M310.7871 103.7791
L310.8476 103.8395
" />
<path d="M310.8476 103.8395
L310.9081 103.9605
" />
<path d="M310.9081 103.9605
L310.9081 104.1419
" />
<path d="M310.9081 104.1419
L310.8476 104.2629
" />
<path d="M310.8476 104.2629
L310.7871 104.3233
" />
<path d="M310.7871 104.3233
L310.6662 104.3838
" />
<path d="M310.6662 104.3838
L310.1824 104.3838
" />
<path d="M311.8757 104.3233
L311.4524 104.3233
" />
<path d="M311.4524 104.9886
L311.4524 103.7186
" />
<path d="M311.4524 103.7186
L312.0571 103.7186
" />
<path d="M312.4805 104.6257
L313.0852 104.6257
" />
<path d="M312.3595 104.9886
L312.7829 103.7186
" />
<path d="M312.7829 103.7186
L313.2062 104.9886
" />
<path d="M314.3552 104.8676
L314.2948 104.9281
" />
<path d="M314.2948 104.9281
L314.1133 104.9886
" />
<path d="M314.1133 104.9886
L313.9924 104.9886
" />
<path d="M313.9924 104.9886
L313.8110 104.9281
" />
<path d="M313.8110 104.9281
L313.6900 104.8072
" />
<path d="M313.6900 104.8072
L313.6295 104.6862
" />
<path d="M313.6295 104.6862
L313.5690 104.4443
" />
<path d="M313.5690 104.4443
L313.5690 104.2629
" />
<path d="M313.5690 104.2629
L313.6295 104.0210
" />
<path d="M313.6295 104.0210
L313.6900 103.9000
" />
<path d="M313.6900 103.9000
L313.8110 103.7791
" />
<path d="M313.8110 103.7791
L313.9924 103.7186
" />
<path d="M313.9924 103.7186
L314.1133 103.7186
" />
<path d="M314.1133 103.7186
L314.2948 103.7791
" />
<path d="M314.2948 103.7791
L314.3552 103.8395
" />
<path d="M314.8995 104.3233
L315.3229 104.3233
" />
<path d="M315.5043 104.9886
L314.8995 104.9886
" />
<path d="M314.8995 104.9886
L314.8995 103.7186
" />
<path d="M314.8995 103.7186
L315.5043 103.7186
" />
<path d="M316.8348 103.7186
L317.2581 104.9886
" />
<path d="M317.2581 104.9886
L317.6814 103.7186
" />
<path d="M318.7700 104.9886
L318.0443 104.9886
" />
<path d="M318.4071 104.9886
L318.4071 103.7186
" />
<path d="M318.4071 103.7186
L318.2862 103.9000
" />
<path d="M318.2862 103.9000
L318.1652 104.0210
" />
<path d="M318.1652 104.0210
L318.0443 104.0814
" />
</g></g>
<g style="fill:none; 
stroke:#000000; stroke-width:0.1778; stroke-opacity:1; 
stroke-linecap:round; stroke-linejoin:round;">
<text x="325.4103" y="107.0001"
textLength="8.2018" font-size="1.6933" lengthAdjust="spacingAndGlyphs"
text-anchor="start" opacity="0" stroke-opacity="0">~{RESET} 3</text>
<g class="stroked-text"><desc>~{RESET} 3</desc>
<path d="M326.5554 106.9434
L326.1320 106.3387
" />
<path d="M325.8296 106.9434
L325.8296 105.6734
" />
<path d="M325.8296 105.6734
L326.3134 105.6734
" />
<path d="M326.3134 105.6734
L326.4344 105.7339
" />
<path d="M326.4344 105.7339
L326.4949 105.7944
" />
<path d="M326.4949 105.7944
L326.5554 105.9153
" />
<path d="M326.5554 105.9153
L326.5554 106.0968
" />
<path d="M326.5554 106.0968
L326.4949 106.2177
" />
<path d="M326.4949 106.2177
L326.4344 106.2782
" />
<path d="M326.4344 106.2782
L326.3134 106.3387
" />
<path d="M326.3134 106.3387
L325.8296 106.3387
" />
<path d="M327.0996 106.2782
L327.5230 106.2782
" />
<path d="M327.7044 106.9434
L327.0996 106.9434
" />
<path d="M327.0996 106.9434
L327.0996 105.6734
" />
<path d="M327.0996 105.6734
L327.7044 105.6734
" />
<path d="M328.1882 106.8829
L328.3696 106.9434
" />
<path d="M328.3696 106.9434
L328.6720 106.9434
" />
<path d="M328.6720 106.9434
L328.7930 106.8829
" />
<path d="M328.7930 106.8829
L328.8534 106.8225
" />
<path d="M328.8534 106.8225
L328.9139 106.7015
" />
<path d="M328.9139 106.7015
L328.9139 106.5806
" />
<path d="M328.9139 106.5806
L328.8534 106.4596
" />
<path d="M328.8534 106.4596
L328.7930 106.3991
" />
<path d="M328.7930 106.3991
L328.6720 106.3387
" />
<path d="M328.6720 106.3387
L328.4301 106.2782
" />
<path d="M328.4301 106.2782
L328.3092 106.2177
" />
<path d="M328.3092 106.2177
L328.2487 106.1572
" />
<path d="M328.2487 106.1572
L328.1882 106.0363
" />
<path d="M328.1882 106.0363
L328.1882 105.9153
" />
<path d="M328.1882 105.9153
L328.2487 105.7944
" />
<path d="M328.2487 105.7944
L328.3092 105.7339
" />
<path d="M328.3092 105.7339
L328.4301 105.6734
" />
<path d="M328.4301 105.6734
L328.7325 105.6734
" />
<path d="M328.7325 105.6734
L328.9139 105.7339
" />
<path d="M329.4582 106.2782
L329.8815 106.2782
" />
<path d="M330.0630 106.9434
L329.4582 106.9434
" />
<path d="M329.4582 106.9434
L329.4582 105.6734
" />
<path d="M329.4582 105.6734
L330.0630 105.6734
" />
<path d="M330.4258 105.6734
L331.1515 105.6734
" />
<path d="M330.7887 106.9434
L330.7887 105.6734
" />
<path d="M325.6543 105.3208
L331.1455 105.3208
" />
<path d="M332.4215 105.6734
L333.2077 105.6734
" />
<path d="M333.2077 105.6734
L332.7844 106.1572
" />
<path d="M332.7844 106.1572
L332.9658 106.1572
" />
<path d="M332.9658 106.1572
L333.0868 106.2177
" />
<path d="M333.0868 106.2177
L333.1473 106.2782
" />
<path d="M333.1473 106.2782
L333.2077 106.3991
" />
<path d="M333.2077 106.3991
L333.2077 106.7015
" />
<path d="M333.2077 106.7015
L333.1473 106.8225
" />
<path d="M333.1473 106.8225
L333.0868 106.8829
" />
<path d="M333.0868 106.8829
L332.9658 106.9434
" />
<path d="M332.9658 106.9434
L332.6030 106.9434
" />
<path d="M332.6030 106.9434
L332.4820 106.8829
" />
<path d="M332.4820 106.8829
L332.4215 106.8225
" />
</g><text x="326.1360" y="97.6630"
textLength="7.4761" font-size="1.6933" lengthAdjust="spacingAndGlyphs"
text-anchor="start" opacity="0" stroke-opacity="0">LED- 9</text>
<g class="stroked-text"><desc>LED- 9</desc>
<path d="M327.1601 97.6063
L326.5554 97.6063
" />
<path d="M326.5554 97.6063
L326.5554 96.3363
" />
<path d="M327.5834 96.9410
L328.0068 96.9410
" />
<path d="M328.1882 97.6063
L327.5834 97.6063
" />
<path d="M327.5834 97.6063
L327.5834 96.3363
" />
<path d="M327.5834 96.3363
L328.1882 96.3363
" />
<path d="M328.7325 97.6063
L328.7325 96.3363
" />
<path d="M328.7325 96.3363
L329.0349 96.3363
" />
<path d="M329.0349 96.3363
L329.2163 96.3968
" />
<path d="M329.2163 96.3968
L329.3373 96.5177
" />
<path d="M329.3373 96.5177
L329.3977 96.6387
" />
<path d="M329.3977 96.6387
L329.4582 96.8806
" />
<path d="M329.4582 96.8806
L329.4582 97.0620
" />
<path d="M329.4582 97.0620
L329.3977 97.3039
" />
<path d="M329.3977 97.3039
L329.3373 97.4249
" />
<path d="M329.3373 97.4249
L329.2163 97.5458
" />
<path d="M329.2163 97.5458
L329.0349 97.6063
" />
<path d="M329.0349 97.6063
L328.7325 97.6063
" />
<path d="M330.0025 97.1225
L330.9701 97.1225
" />
<path d="M332.6030 97.6063
L332.8449 97.6063
" />
<path d="M332.8449 97.6063
L332.9658 97.5458
" />
<path d="M332.9658 97.5458
L333.0263 97.4853
" />
<path d="M333.0263 97.4853
L333.1473 97.3039
" />
<path d="M333.1473 97.3039
L333.2077 97.0620
" />
<path d="M333.2077 97.0620
L333.2077 96.5782
" />
<path d="M333.2077 96.5782
L333.1473 96.4572
" />
<path d="M333.1473 96.4572
L333.0868 96.3968
" />
<path d="M333.0868 96.3968
L332.9658 96.3363
" />
<path d="M332.9658 96.3363
L332.7239 96.3363
" />
<path d="M332.7239 96.3363
L332.6030 96.3968
" />
<path d="M332.6030 96.3968
L332.5425 96.4572
" />
<path d="M332.5425 96.4572
L332.4820 96.5782
" />
<path d="M332.4820 96.5782
L332.4820 96.8806
" />
<path d="M332.4820 96.8806
L332.5425 97.0015
" />
<path d="M332.5425 97.0015
L332.6030 97.0620
" />
<path d="M332.6030 97.0620
L332.7239 97.1225
" />
<path d="M332.7239 97.1225
L332.9658 97.1225
" />
<path d="M332.9658 97.1225
L333.0868 97.0620
" />
<path d="M333.0868 97.0620
L333.1473 97.0015
" />
<path d="M333.1473 97.0015
L333.2077 96.8806
" />
</g><text x="327.4665" y="110.3630"
textLength="6.1456" font-size="1.6933" lengthAdjust="spacingAndGlyphs"
text-anchor="start" opacity="0" stroke-opacity="0">~{REC} 1</text>
<g class="stroked-text"><desc>~{REC} 1</desc>
<path d="M328.6115 110.3063
L328.1882 109.7015
" />
<path d="M327.8858 110.3063
L327.8858 109.0363
" />
<path d="M327.8858 109.0363
L328.3696 109.0363
" />
<path d="M328.3696 109.0363
L328.4906 109.0968
" />
<path d="M328.4906 109.0968
L328.5511 109.1572
" />
<path d="M328.5511 109.1572
L328.6115 109.2782
" />
<path d="M328.6115 109.2782
L328.6115 109.4596
" />
<path d="M328.6115 109.4596
L328.5511 109.5806
" />
<path d="M328.5511 109.5806
L328.4906 109.6410
" />
<path d="M328.4906 109.6410
L328.3696 109.7015
" />
<path d="M328.3696 109.7015
L327.8858 109.7015
" />
<path d="M329.1558 109.6410
L329.5792 109.6410
" />
<path d="M329.7606 110.3063
L329.1558 110.3063
" />
<path d="M329.1558 110.3063
L329.1558 109.0363
" />
<path d="M329.1558 109.0363
L329.7606 109.0363
" />
<path d="M331.0306 110.1853
L330.9701 110.2458
" />
<path d="M330.9701 110.2458
L330.7887 110.3063
" />
<path d="M330.7887 110.3063
L330.6677 110.3063
" />
<path d="M330.6677 110.3063
L330.4863 110.2458
" />
<path d="M330.4863 110.2458
L330.3654 110.1249
" />
<path d="M330.3654 110.1249
L330.3049 110.0039
" />
<path d="M330.3049 110.0039
L330.2444 109.7620
" />
<path d="M330.2444 109.7620
L330.2444 109.5806
" />
<path d="M330.2444 109.5806
L330.3049 109.3387
" />
<path d="M330.3049 109.3387
L330.3654 109.2177
" />
<path d="M330.3654 109.2177
L330.4863 109.0968
" />
<path d="M330.4863 109.0968
L330.6677 109.0363
" />
<path d="M330.6677 109.0363
L330.7887 109.0363
" />
<path d="M330.7887 109.0363
L330.9701 109.0968
" />
<path d="M330.9701 109.0968
L331.0306 109.1572
" />
<path d="M327.7104 108.6837
L331.1455 108.6837
" />
<path d="M333.2077 110.3063
L332.4820 110.3063
" />
<path d="M332.8449 110.3063
L332.8449 109.0363
" />
<path d="M332.8449 109.0363
L332.7239 109.2177
" />
<path d="M332.7239 109.2177
L332.6030 109.3387
" />
<path d="M332.6030 109.3387
L332.4820 109.3991
" />
</g></g>
<g style="fill:#000000; fill-opacity:1.0000; stroke:none;">
<circle cx="301.8790" cy="92.9640" r="0.5000" /> 
</g>
<g style="fill:#000000; fill-opacity:1.0000; stroke:none;">
<circle cx="304.4190" cy="92.9640" r="0.5000" /> 
</g>
<g style="fill:#000000; fill-opacity:1.0000; stroke:none;">
<circle cx="306.9590" cy="92.9640" r="0.5000" /> 
</g>
<g style="fill:#000000; fill-opacity:1.0000; stroke:none;">
<circle cx="309.4990" cy="92.9640" r="0.5000" /> 
</g>
<g style="fill:#000000; fill-opacity:1.0000; stroke:none;">
<circle cx="312.0390" cy="92.9640" r="0.5000" /> 
</g>
<g style="fill:#000000; fill-opacity:1.0000; stroke:none;">
<circle cx="314.5790" cy="92.9640" r="0.5000" /> 
</g>
<g style="fill:#000000; fill-opacity:1.0000; stroke:none;">
<circle cx="317.1190" cy="92.9640" r="0.5000" /> 
</g>
<g style="fill:#000000; fill-opacity:1.0000; stroke:none;">
<circle cx="319.6590" cy="92.9640" r="0.5000" /> 
</g>
<g style="fill:#000000; fill-opacity:1.0000; stroke:none;">
<circle cx="322.1990" cy="92.9640" r="0.5000" /> 
</g>
<g style="fill:#000000; fill-opacity:1.0000; stroke:none;">
<circle cx="324.7390" cy="92.9640" r="0.5000" /> 
</g>
<g style="fill:#000000; fill-opacity:1.0000; stroke:none;">
<circle cx="327.2790" cy="92.9640" r="0.5000" /> 
</g>
<g style="fill:#000000; fill-opacity:1.0000; stroke:none;">
<circle cx="329.8190" cy="92.9640" r="0.5000" /> 
</g>
<g style="fill:#000000; fill-opacity:1.0000; stroke:none;">
<circle cx="332.3590" cy="92.9640" r="0.5000" /> 
</g>
<g style="fill:#000000; fill-opacity:1.0000; stroke:none;">
<circle cx="334.8990" cy="92.9640" r="0.5000" /> 
</g>
<g style="fill:#000000; fill-opacity:1.0000; stroke:none;">
<circle cx="337.4390" cy="92.9640" r="0.5000" /> 
</g>
<g style="fill:#000000; fill-opacity:1.0000; stroke:none;">
<circle cx="339.9790" cy="92.9640" r="0.5000" /> 
</g>
<g style="fill:#000000; fill-opacity:1.0000; stroke:none;">
<circle cx="342.5190" cy="92.9640" r="0.5000" /> 
</g>
<g style="fill:#000000; fill-opacity:1.0000; stroke:none;">
<circle cx="345.0590" cy="92.9640" r="0.5000" /> 
<path style="fill:#000000; fill-opacity:1.0000; stroke:none;fill-rule:evenodd;"
d="M 302.7290,92.1140
301.0290,92.1140
301.0290,93.8140
302.7290,93.8140
Z" /> 
</g>
<g style="fill:#000000; fill-opacity:1.0000; stroke:none;">
<circle cx="304.4190" cy="92.9640" r="0.8500" /> 
<circle cx="306.9590" cy="92.9640" r="0.8500" /> 
<circle cx="309.4990" cy="92.9640" r="0.8500" /> 
<circle cx="312.0390" cy="92.9640" r="0.8500" /> 
<circle cx="314.5790" cy="92.9640" r="0.8500" /> 
<circle cx="317.1190" cy="92.9640" r="0.8500" /> 
<circle cx="319.6590" cy="92.9640" r="0.8500" /> 
<circle cx="322.1990" cy="92.9640" r="0.8500" /> 
<circle cx="324.7390" cy="92.9640" r="0.8500" /> 
<circle cx="327.2790" cy="92.9640" r="0.8500" /> 
<circle cx="329.8190" cy="92.9640" r="0.8500" /> 
<circle cx="332.3590" cy="92.9640" r="0.8500" /> 
<circle cx="334.8990" cy="92.9640" r="0.8500" /> 
<circle cx="337.4390" cy="92.9640" r="0.8500" /> 
<circle cx="339.9790" cy="92.9640" r="0.8500" /> 
<circle cx="342.5190" cy="92.9640" r="0.8500" /> 
<circle cx="345.0590" cy="92.9640" r="0.8500" /> 
<path style="fill:#000000; fill-opacity:1.0000; stroke:none;fill-rule:evenodd;"
d="M 334.2513,110.1471
334.2708,110.2950
334.3279,110.4329
334.4187,110.5512
334.5370,110.6420
334.6749,110.6991
334.8228,110.7186
346.3798,110.7186
346.5277,110.6991
346.6655,110.6420
346.7839,110.5512
346.8747,110.4329
346.9318,110.2950
346.9513,110.1471
346.9513,109.0041
346.9318,108.8562
346.8747,108.7184
346.7839,108.6000
346.6655,108.5092
346.5277,108.4521
346.3798,108.4326
334.8228,108.4326
334.6749,108.4521
334.5370,108.5092
334.4187,108.6000
334.3279,108.7184
334.2708,108.8562
334.2513,109.0041
Z" /> 
<path style="fill:#000000; fill-opacity:1.0000; stroke:none;fill-rule:evenodd;"
d="M 334.2513,106.9721
334.2708,107.1200
334.3279,107.2578
334.4187,107.3762
334.5370,107.4670
334.6749,107.5241
334.8228,107.5436
346.3798,107.5436
346.5277,107.5241
346.6655,107.4670
346.7839,107.3762
346.8747,107.2578
346.9318,107.1200
346.9513,106.9721
346.9513,105.8291
346.9318,105.6812
346.8747,105.5433
346.7839,105.4250
346.6655,105.3342
346.5277,105.2771
346.3798,105.2576
334.8228,105.2576
334.6749,105.2771
334.5370,105.3342
334.4187,105.4250
334.3279,105.5433
334.2708,105.6812
334.2513,105.8291
Z" /> 
<path style="fill:#000000; fill-opacity:1.0000; stroke:none;fill-rule:evenodd;"
d="M 334.2513,103.7971
334.2708,103.9450
334.3279,104.0828
334.4187,104.2012
334.5370,104.2920
334.6749,104.3491
334.8228,104.3686
346.3798,104.3686
346.5277,104.3491
346.6655,104.2920
346.7839,104.2012
346.8747,104.0828
346.9318,103.9450
346.9513,103.7971
346.9513,102.6541
346.9318,102.5062
346.8747,102.3683
346.7839,102.2500
346.6655,102.1592
346.5277,102.1021
346.3798,102.0826
334.8228,102.0826
334.6749,102.1021
334.5370,102.1592
334.4187,102.2500
334.3279,102.3683
334.2708,102.5062
334.2513,102.6541
Z" /> 
<path style="fill:#000000; fill-opacity:1.0000; stroke:none;fill-rule:evenodd;"
d="M 334.2513,100.6221
334.2708,100.7700
334.3279,100.9078
334.4187,101.0262
334.5370,101.1170
334.6749,101.1741
334.8228,101.1936
346.3798,101.1936
346.5277,101.1741
346.6655,101.1170
346.7839,101.0262
346.8747,100.9078
346.9318,100.7700
346.9513,100.6221
346.9513,99.4791
346.9318,99.3312
346.8747,99.1933
346.7839,99.0750
346.6655,98.9842
346.5277,98.9271
346.3798,98.9076
334.8228,98.9076
334.6749,98.9271
334.5370,98.9842
334.4187,99.0750
334.3279,99.1933
334.2708,99.3312
334.2513,99.4791
Z" /> 
<path style="fill:#000000; fill-opacity:1.0000; stroke:none;fill-rule:evenodd;"
d="M 334.2513,97.4471
334.2708,97.5950
334.3279,97.7328
334.4187,97.8512
334.5370,97.9420
334.6749,97.9991
334.8228,98.0186
346.3798,98.0186
346.5277,97.9991
346.6655,97.9420
346.7839,97.8512
346.8747,97.7328
346.9318,97.5950
346.9513,97.4471
346.9513,96.3041
346.9318,96.1562
346.8747,96.0183
346.7839,95.9000
346.6655,95.8092
346.5277,95.7521
346.3798,95.7326
334.8228,95.7326
334.6749,95.7521
334.5370,95.8092
334.4187,95.9000
334.3279,96.0183
334.2708,96.1562
334.2513,96.3041
Z" /> 
</g>
<g style="fill:none; 
stroke:#000000; stroke-width:0.1000; stroke-opacity:1; 
stroke-linecap:round; stroke-linejoin:round;">
<path d="M299.3390 91.6940
L299.3390 110.3630
" />
<path d="M346.3290 111.6330 A1.2700 1.2700 0.0 0 0 347.5990 110.3630" />
<path d="M346.3290 90.4240
L300.6090 90.4240
" />
<path d="M300.6090 90.4240 A1.2700 1.2700 0.0 0 0 299.3390 91.6940" />
<path d="M299.3390 110.3630 A1.2700 1.2700 0.0 0 0 300.6090 111.6330" />
<path d="M347.5990 91.6940 A1.2700 1.2700 0.0 0 0 346.3290 90.4240" />
<path d="M347.5990 110.3630
L347.5990 91.6940
" />
<path d="M300.6090 111.6330
L346.3290 111.6330
" />
</g>
<g style="fill:#000000; fill-opacity:1.0000; stroke:none;">
<circle cx="301.8790" cy="92.9640" r="0.5000" /> 
</g>
<g style="fill:#000000; fill-opacity:1.0000; stroke:none;">
<circle cx="304.4190" cy="92.9640" r="0.5000" /> 
</g>
<g style="fill:#000000; fill-opacity:1.0000; stroke:none;">
<circle cx="306.9590" cy="92.9640" r="0.5000" /> 
</g>
<g style="fill:#000000; fill-opacity:1.0000; stroke:none;">
<circle cx="309.4990" cy="92.9640" r="0.5000" /> 
</g>
<g style="fill:#000000; fill-opacity:1.0000; stroke:none;">
<circle cx="312.0390" cy="92.9640" r="0.5000" /> 
</g>
<g style="fill:#000000; fill-opacity:1.0000; stroke:none;">
<circle cx="314.5790" cy="92.9640" r="0.5000" /> 
</g>
<g style="fill:#000000; fill-opacity:1.0000; stroke:none;">
<circle cx="317.1190" cy="92.9640" r="0.5000" /> 
</g>
<g style="fill:#000000; fill-opacity:1.0000; stroke:none;">
<circle cx="319.6590" cy="92.9640" r="0.5000" /> 
</g>
<g style="fill:#000000; fill-opacity:1.0000; stroke:none;">
<circle cx="322.1990" cy="92.9640" r="0.5000" /> 
</g>
<g style="fill:#000000; fill-opacity:1.0000; stroke:none;">
<circle cx="324.7390" cy="92.9640" r="0.5000" /> 
</g>
<g style="fill:#000000; fill-opacity:1.0000; stroke:none;">
<circle cx="327.2790" cy="92.9640" r="0.5000" /> 
</g>
<g style="fill:#000000; fill-opacity:1.0000; stroke:none;">
<circle cx="329.8190" cy="92.9640" r="0.5000" /> 
</g>
<g style="fill:#000000; fill-opacity:1.0000; stroke:none;">
<circle cx="332.3590" cy="92.9640" r="0.5000" /> 
</g>
<g style="fill:#000000; fill-opacity:1.0000; stroke:none;">
<circle cx="334.8990" cy="92.9640" r="0.5000" /> 
</g>
<g style="fill:#000000; fill-opacity:1.0000; stroke:none;">
<circle cx="337.4390" cy="92.9640" r="0.5000" /> 
</g>
<g style="fill:#000000; fill-opacity:1.0000; stroke:none;">
<circle cx="339.9790" cy="92.9640" r="0.5000" /> 
</g>
<g style="fill:#000000; fill-opacity:1.0000; stroke:none;">
<circle cx="342.5190" cy="92.9640" r="0.5000" /> 
</g>
<g style="fill:#000000; fill-opacity:1.0000; stroke:none;">
<circle cx="345.0590" cy="92.9640" r="0.5000" /> 
</g> 
</svg>
