  0
SECTION
  2
HEADER
  9
$ANGBASE
  50
0.0
  9
$ANGDIR
  70
1
  9
$MEASUREMENT
  70
0
  0
ENDSEC
  0
SECTION
  2
TABLES
  0
TABLE
  2
LTYPE
  70
4
  0
LTYPE
  5
40F
  2
CONTINUOUS
  70
0
  3
Solid line
  72
65
  73
0
  40
0.0
  0
LTYPE
  5
410
  2
DASHDOT
 70
0
  3
Dash Dot ____ _ ____ _
 72
65
 73
4
 40
2.0
 49
1.25
 49
-0.25
 49
0.25
 49
-0.25
  0
LTYPE
  5
411
  2
DASHED
 70
0
  3
Dashed __ __ __ __ __
 72
65
 73
2
 40
0.75
 49
0.5
 49
-0.25
  0
LTYPE
  5
43B
  2
DOTTED
 70
0
  3
Dotted .  .  .  .
 72
65
 73
2
 40
0.2
 49
0.0
 49
-0.2
  0
ENDTAB
  0
TABLE
  2
STYLE
  70
4
  0
STYLE
  2
KICAD
  70
0
  40
0
  41
1
  42
1
  50
0
  71
0
  3
isocp.shx
  0
STYLE
  2
KICADB
  70
0
  40
0
  41
1
  42
1
  50
0
  71
0
  3
isocp.shx
  0
STYLE
  2
KICADI
  70
0
  40
0
  41
1
  42
1
  50
15
  71
0
  3
isocp.shx
  0
STYLE
  2
KICADBI
  70
0
  40
0
  41
1
  42
1
  50
15
  71
0
  3
isocp.shx
  0
ENDTAB
  0
TABLE
  2
LAYER
  70
1
  0
LAYER
  2
BLACK
  70
0
  62
7
  6
CONTINUOUS
  0
ENDTAB
  0
ENDSEC
  0
SECTION
  2
ENTITIES
0
LINE
8
BLACK
6
CONTINUOUS
10
5.2149999999999999
20
-3.6099999999999999
11
5.2149999999999999
21
-4.3449999999999998
0
ARC
8
BLACK
10
3.3649999999999998
20
-4.3449999999999998
40
0.05
50
-180.00000000
51
-90.00000000
0
LINE
8
BLACK
6
CONTINUOUS
10
3.3649999999999998
20
-3.5600000000000001
11
5.165
21
-3.5600000000000001
0
ARC
8
BLACK
10
5.165
20
-3.6099999999999999
40
0.05
50
0.00000000
51
90.00000000
0
ARC
8
BLACK
10
5.165
20
-4.3449999999999998
40
0.05
50
-90.00000000
51
-0.00000000
0
ARC
8
BLACK
10
3.3649999999999998
20
-3.6099999999999999
40
0.05
50
90.00000000
51
180.00000000
0
LINE
8
BLACK
6
CONTINUOUS
10
3.3149999999999999
20
-4.3449999999999998
11
3.3149999999999999
21
-3.6099999999999999
0
LINE
8
BLACK
6
CONTINUOUS
10
5.165
20
-4.3949999999999996
11
3.3649999999999998
21
-4.3949999999999996
0
LINE
8
BLACK
6
CONTINUOUS
10
3.3953149606299213
20
-3.640314960629921
11
3.4346850393700787
21
-3.6796850393700788
0
LINE
8
BLACK
6
CONTINUOUS
10
3.4346850393700787
20
-3.640314960629921
11
3.3953149606299213
21
-3.6796850393700788
0
LINE
8
BLACK
6
CONTINUOUS
10
3.495314960629921
20
-3.640314960629921
11
3.5346850393700788
21
-3.6796850393700788
0
LINE
8
BLACK
6
CONTINUOUS
10
3.5346850393700788
20
-3.640314960629921
11
3.495314960629921
21
-3.6796850393700788
0
LINE
8
BLACK
6
CONTINUOUS
10
3.5953149606299211
20
-3.640314960629921
11
3.6346850393700785
21
-3.6796850393700788
0
LINE
8
BLACK
6
CONTINUOUS
10
3.6346850393700785
20
-3.640314960629921
11
3.5953149606299211
21
-3.6796850393700788
0
LINE
8
BLACK
6
CONTINUOUS
10
3.6953149606299212
20
-3.640314960629921
11
3.7346850393700786
21
-3.6796850393700788
0
LINE
8
BLACK
6
CONTINUOUS
10
3.7346850393700786
20
-3.640314960629921
11
3.6953149606299212
21
-3.6796850393700788
0
LINE
8
BLACK
6
CONTINUOUS
10
3.7953149606299212
20
-3.640314960629921
11
3.8346850393700787
21
-3.6796850393700788
0
LINE
8
BLACK
6
CONTINUOUS
10
3.8346850393700787
20
-3.640314960629921
11
3.7953149606299212
21
-3.6796850393700788
0
LINE
8
BLACK
6
CONTINUOUS
10
3.8953149606299213
20
-3.640314960629921
11
3.9346850393700787
21
-3.6796850393700788
0
LINE
8
BLACK
6
CONTINUOUS
10
3.9346850393700787
20
-3.640314960629921
11
3.8953149606299213
21
-3.6796850393700788
0
LINE
8
BLACK
6
CONTINUOUS
10
3.995314960629921
20
-3.640314960629921
11
4.0346850393700784
21
-3.6796850393700788
0
LINE
8
BLACK
6
CONTINUOUS
10
4.0346850393700784
20
-3.640314960629921
11
3.995314960629921
21
-3.6796850393700788
0
LINE
8
BLACK
6
CONTINUOUS
10
4.0953149606299215
20
-3.640314960629921
11
4.1346850393700789
21
-3.6796850393700788
0
LINE
8
BLACK
6
CONTINUOUS
10
4.1346850393700789
20
-3.640314960629921
11
4.0953149606299215
21
-3.6796850393700788
0
LINE
8
BLACK
6
CONTINUOUS
10
4.1953149606299212
20
-3.640314960629921
11
4.2346850393700786
21
-3.6796850393700788
0
LINE
8
BLACK
6
CONTINUOUS
10
4.2346850393700786
20
-3.640314960629921
11
4.1953149606299212
21
-3.6796850393700788
0
LINE
8
BLACK
6
CONTINUOUS
10
4.2953149606299208
20
-3.640314960629921
11
4.3346850393700782
21
-3.6796850393700788
0
LINE
8
BLACK
6
CONTINUOUS
10
4.3346850393700782
20
-3.640314960629921
11
4.2953149606299208
21
-3.6796850393700788
0
LINE
8
BLACK
6
CONTINUOUS
10
4.3953149606299213
20
-3.640314960629921
11
4.4346850393700787
21
-3.6796850393700788
0
LINE
8
BLACK
6
CONTINUOUS
10
4.4346850393700787
20
-3.640314960629921
11
4.3953149606299213
21
-3.6796850393700788
0
LINE
8
BLACK
6
CONTINUOUS
10
4.495314960629921
20
-3.640314960629921
11
4.5346850393700784
21
-3.6796850393700788
0
LINE
8
BLACK
6
CONTINUOUS
10
4.5346850393700784
20
-3.640314960629921
11
4.495314960629921
21
-3.6796850393700788
0
LINE
8
BLACK
6
CONTINUOUS
10
4.5953149606299215
20
-3.640314960629921
11
4.6346850393700789
21
-3.6796850393700788
0
LINE
8
BLACK
6
CONTINUOUS
10
4.6346850393700789
20
-3.640314960629921
11
4.5953149606299215
21
-3.6796850393700788
0
LINE
8
BLACK
6
CONTINUOUS
10
4.6953149606299212
20
-3.640314960629921
11
4.7346850393700786
21
-3.6796850393700788
0
LINE
8
BLACK
6
CONTINUOUS
10
4.7346850393700786
20
-3.640314960629921
11
4.6953149606299212
21
-3.6796850393700788
0
LINE
8
BLACK
6
CONTINUOUS
10
4.7953149606299208
20
-3.640314960629921
11
4.8346850393700782
21
-3.6796850393700788
0
LINE
8
BLACK
6
CONTINUOUS
10
4.8346850393700782
20
-3.640314960629921
11
4.7953149606299208
21
-3.6796850393700788
0
LINE
8
BLACK
6
CONTINUOUS
10
4.8953149606299213
20
-3.640314960629921
11
4.9346850393700787
21
-3.6796850393700788
0
LINE
8
BLACK
6
CONTINUOUS
10
4.9346850393700787
20
-3.640314960629921
11
4.8953149606299213
21
-3.6796850393700788
0
LINE
8
BLACK
6
CONTINUOUS
10
4.995314960629921
20
-3.640314960629921
11
5.0346850393700784
21
-3.6796850393700788
0
LINE
8
BLACK
6
CONTINUOUS
10
5.0346850393700784
20
-3.640314960629921
11
4.995314960629921
21
-3.6796850393700788
0
LINE
8
BLACK
6
CONTINUOUS
10
5.0953149606299215
20
-3.640314960629921
11
5.1346850393700789
21
-3.6796850393700788
0
LINE
8
BLACK
6
CONTINUOUS
10
5.1346850393700789
20
-3.640314960629921
11
5.0953149606299215
21
-3.6796850393700788
0
LINE
8
BLACK
6
CONTINUOUS
10
3.4156995275590551
20
-4.5195999212598421
11
3.4156995275590551
21
-4.4408597637795273
0
LINE
8
BLACK
6
CONTINUOUS
10
3.4156995275590551
20
-4.4408597637795273
11
3.4344471653543307
21
-4.4408597637795273
0
LINE
8
BLACK
6
CONTINUOUS
10
3.4344471653543307
20
-4.4408597637795273
11
3.4456957874015748
21
-4.4446092913385824
0
LINE
8
BLACK
6
CONTINUOUS
10
3.4456957874015748
20
-4.4446092913385824
11
3.453194842519685
21
-4.4521083464566926
0
LINE
8
BLACK
6
CONTINUOUS
10
3.453194842519685
20
-4.4521083464566926
11
3.4569443700787401
21
-4.4596074015748028
0
LINE
8
BLACK
6
CONTINUOUS
10
3.4569443700787401
20
-4.4596074015748028
11
3.4606938976377952
21
-4.4746055118110233
0
LINE
8
BLACK
6
CONTINUOUS
10
3.4606938976377952
20
-4.4746055118110233
11
3.4606938976377952
21
-4.4858541338582674
0
LINE
8
BLACK
6
CONTINUOUS
10
3.4606938976377952
20
-4.4858541338582674
11
3.4569443700787401
21
-4.5008522440944878
0
LINE
8
BLACK
6
CONTINUOUS
10
3.4569443700787401
20
-4.5008522440944878
11
3.453194842519685
21
-4.508351299212598
0
LINE
8
BLACK
6
CONTINUOUS
10
3.453194842519685
20
-4.508351299212598
11
3.4456957874015748
21
-4.515850393700787
0
LINE
8
BLACK
6
CONTINUOUS
10
3.4456957874015748
20
-4.515850393700787
11
3.4344471653543307
21
-4.5195999212598421
0
LINE
8
BLACK
6
CONTINUOUS
10
3.4344471653543307
20
-4.5195999212598421
11
3.4156995275590551
21
-4.5195999212598421
0
LINE
8
BLACK
6
CONTINUOUS
10
3.49443968503937
20
-4.5195999212598421
11
3.49443968503937
21
-4.4671064566929131
0
LINE
8
BLACK
6
CONTINUOUS
10
3.49443968503937
20
-4.4821046062992123
11
3.4981892125984251
21
-4.4746055118110233
0
LINE
8
BLACK
6
CONTINUOUS
10
3.4981892125984251
20
-4.4746055118110233
11
3.5019387401574802
21
-4.4708559842519682
0
LINE
8
BLACK
6
CONTINUOUS
10
3.5019387401574802
20
-4.4708559842519682
11
3.5094377952755904
21
-4.4671064566929131
0
LINE
8
BLACK
6
CONTINUOUS
10
3.5094377952755904
20
-4.4671064566929131
11
3.5169368897637794
21
-4.4671064566929131
0
LINE
8
BLACK
6
CONTINUOUS
10
3.5431835826771652
20
-4.5195999212598421
11
3.5431835826771652
21
-4.4671064566929131
0
LINE
8
BLACK
6
CONTINUOUS
10
3.5431835826771652
20
-4.4408597637795273
11
3.53943405511811
21
-4.4446092913385824
0
LINE
8
BLACK
6
CONTINUOUS
10
3.53943405511811
20
-4.4446092913385824
11
3.5431835826771652
21
-4.4483588188976375
0
LINE
8
BLACK
6
CONTINUOUS
10
3.5431835826771652
20
-4.4483588188976375
11
3.5469331102362203
21
-4.4446092913385824
0
LINE
8
BLACK
6
CONTINUOUS
10
3.5469331102362203
20
-4.4446092913385824
11
3.5431835826771652
21
-4.4408597637795273
0
LINE
8
BLACK
6
CONTINUOUS
10
3.5431835826771652
20
-4.4408597637795273
11
3.5431835826771652
21
-4.4483588188976375
0
LINE
8
BLACK
6
CONTINUOUS
10
3.5919274803149603
20
-4.5195999212598421
11
3.5844284251968501
21
-4.515850393700787
0
LINE
8
BLACK
6
CONTINUOUS
10
3.5844284251968501
20
-4.515850393700787
11
3.580678897637795
21
-4.508351299212598
0
LINE
8
BLACK
6
CONTINUOUS
10
3.580678897637795
20
-4.508351299212598
11
3.580678897637795
21
-4.4408597637795273
0
LINE
8
BLACK
6
CONTINUOUS
10
3.6331723228346458
20
-4.5195999212598421
11
3.6256732677165355
21
-4.515850393700787
0
LINE
8
BLACK
6
CONTINUOUS
10
3.6256732677165355
20
-4.515850393700787
11
3.6219237401574804
21
-4.508351299212598
0
LINE
8
BLACK
6
CONTINUOUS
10
3.6219237401574804
20
-4.508351299212598
11
3.6219237401574804
21
-4.4408597637795273
0
LINE
8
BLACK
6
CONTINUOUS
10
3.7231611023622047
20
-4.5195999212598421
11
3.7231611023622047
21
-4.4408597637795273
0
LINE
8
BLACK
6
CONTINUOUS
10
3.7231611023622047
20
-4.4408597637795273
11
3.7494078346456692
21
-4.4971027165354327
0
LINE
8
BLACK
6
CONTINUOUS
10
3.7494078346456692
20
-4.4971027165354327
11
3.775654527559055
21
-4.4408597637795273
0
LINE
8
BLACK
6
CONTINUOUS
10
3.775654527559055
20
-4.4408597637795273
11
3.775654527559055
21
-4.5195999212598421
0
LINE
8
BLACK
6
CONTINUOUS
10
3.8468956299212596
20
-4.5195999212598421
11
3.8468956299212596
21
-4.4783550787401571
0
LINE
8
BLACK
6
CONTINUOUS
10
3.8468956299212596
20
-4.4783550787401571
11
3.8431461023622044
21
-4.4708559842519682
0
LINE
8
BLACK
6
CONTINUOUS
10
3.8431461023622044
20
-4.4708559842519682
11
3.8356470472440942
21
-4.4671064566929131
0
LINE
8
BLACK
6
CONTINUOUS
10
3.8356470472440942
20
-4.4671064566929131
11
3.820648897637795
21
-4.4671064566929131
0
LINE
8
BLACK
6
CONTINUOUS
10
3.820648897637795
20
-4.4671064566929131
11
3.8131498425196848
21
-4.4708559842519682
0
LINE
8
BLACK
6
CONTINUOUS
10
3.8468956299212596
20
-4.515850393700787
11
3.8393965748031493
21
-4.5195999212598421
0
LINE
8
BLACK
6
CONTINUOUS
10
3.8393965748031493
20
-4.5195999212598421
11
3.820648897637795
21
-4.5195999212598421
0
LINE
8
BLACK
6
CONTINUOUS
10
3.820648897637795
20
-4.5195999212598421
11
3.8131498425196848
21
-4.515850393700787
0
LINE
8
BLACK
6
CONTINUOUS
10
3.8131498425196848
20
-4.515850393700787
11
3.8094003149606297
21
-4.508351299212598
0
LINE
8
BLACK
6
CONTINUOUS
10
3.8094003149606297
20
-4.508351299212598
11
3.8094003149606297
21
-4.5008522440944878
0
LINE
8
BLACK
6
CONTINUOUS
10
3.8094003149606297
20
-4.5008522440944878
11
3.8131498425196848
21
-4.4933531889763776
0
LINE
8
BLACK
6
CONTINUOUS
10
3.8131498425196848
20
-4.4933531889763776
11
3.820648897637795
21
-4.4896036614173225
0
LINE
8
BLACK
6
CONTINUOUS
10
3.820648897637795
20
-4.4896036614173225
11
3.8393965748031493
21
-4.4896036614173225
0
LINE
8
BLACK
6
CONTINUOUS
10
3.8393965748031493
20
-4.4896036614173225
11
3.8468956299212596
21
-4.4858541338582674
0
LINE
8
BLACK
6
CONTINUOUS
10
3.8843909448818899
20
-4.4671064566929131
11
3.8843909448818899
21
-4.5458466141732279
0
LINE
8
BLACK
6
CONTINUOUS
10
3.8843909448818899
20
-4.4708559842519682
11
3.8918900000000001
21
-4.4671064566929131
0
LINE
8
BLACK
6
CONTINUOUS
10
3.8918900000000001
20
-4.4671064566929131
11
3.9068881496062993
21
-4.4671064566929131
0
LINE
8
BLACK
6
CONTINUOUS
10
3.9068881496062993
20
-4.4671064566929131
11
3.9143872047244095
21
-4.4708559842519682
0
LINE
8
BLACK
6
CONTINUOUS
10
3.9143872047244095
20
-4.4708559842519682
11
3.9181367322834646
21
-4.4746055118110233
0
LINE
8
BLACK
6
CONTINUOUS
10
3.9181367322834646
20
-4.4746055118110233
11
3.9218862598425197
21
-4.4821046062992123
0
LINE
8
BLACK
6
CONTINUOUS
10
3.9218862598425197
20
-4.4821046062992123
11
3.9218862598425197
21
-4.5046017716535429
0
LINE
8
BLACK
6
CONTINUOUS
10
3.9218862598425197
20
-4.5046017716535429
11
3.9181367322834646
21
-4.5121008267716531
0
LINE
8
BLACK
6
CONTINUOUS
10
3.9181367322834646
20
-4.5121008267716531
11
3.9143872047244095
21
-4.515850393700787
0
LINE
8
BLACK
6
CONTINUOUS
10
3.9143872047244095
20
-4.515850393700787
11
3.9068881496062993
21
-4.5195999212598421
0
LINE
8
BLACK
6
CONTINUOUS
10
3.9068881496062993
20
-4.5195999212598421
11
3.8918900000000001
21
-4.5195999212598421
0
LINE
8
BLACK
6
CONTINUOUS
10
3.8918900000000001
20
-4.5195999212598421
11
3.8843909448818899
21
-4.515850393700787
0
LINE
8
BLACK
6
CONTINUOUS
10
3.9556320472440945
20
-4.5121008267716531
11
3.9593815748031496
21
-4.515850393700787
0
LINE
8
BLACK
6
CONTINUOUS
10
3.9593815748031496
20
-4.515850393700787
11
3.9556320472440945
21
-4.5195999212598421
0
LINE
8
BLACK
6
CONTINUOUS
10
3.9556320472440945
20
-4.5195999212598421
11
3.9518825196850393
21
-4.515850393700787
0
LINE
8
BLACK
6
CONTINUOUS
10
3.9518825196850393
20
-4.515850393700787
11
3.9556320472440945
21
-4.5121008267716531
0
LINE
8
BLACK
6
CONTINUOUS
10
3.9556320472440945
20
-4.5121008267716531
11
3.9556320472440945
21
-4.5195999212598421
0
LINE
8
BLACK
6
CONTINUOUS
10
3.9556320472440945
20
-4.4708559842519682
11
3.9593815748031496
21
-4.4746055118110233
0
LINE
8
BLACK
6
CONTINUOUS
10
3.9593815748031496
20
-4.4746055118110233
11
3.9556320472440945
21
-4.4783550787401571
0
LINE
8
BLACK
6
CONTINUOUS
10
3.9556320472440945
20
-4.4783550787401571
11
3.9518825196850393
21
-4.4746055118110233
0
LINE
8
BLACK
6
CONTINUOUS
10
3.9518825196850393
20
-4.4746055118110233
11
3.9556320472440945
21
-4.4708559842519682
0
LINE
8
BLACK
6
CONTINUOUS
10
3.9556320472440945
20
-4.4708559842519682
11
3.9556320472440945
21
-4.4783550787401571
0
LINE
8
BLACK
6
CONTINUOUS
10
3.2736614173228347
20
-4.6292519685039366
11
3.3130314960629921
21
-4.668622047244094
0
LINE
8
BLACK
6
CONTINUOUS
10
3.3130314960629921
20
-4.6292519685039366
11
3.2736614173228347
21
-4.668622047244094
0
LINE
8
BLACK
6
CONTINUOUS
10
3.4569443700787401
20
-4.6849542519685041
11
3.41195
21
-4.6849542519685041
0
LINE
8
BLACK
6
CONTINUOUS
10
3.4344471653543307
20
-4.6849542519685041
11
3.4344471653543307
21
-4.6062140944881893
0
LINE
8
BLACK
6
CONTINUOUS
10
3.4344471653543307
20
-4.6062140944881893
11
3.4269481102362205
21
-4.6174626771653546
0
LINE
8
BLACK
6
CONTINUOUS
10
3.4269481102362205
20
-4.6174626771653546
11
3.4194490551181103
21
-4.6249617322834649
0
LINE
8
BLACK
6
CONTINUOUS
10
3.4194490551181103
20
-4.6249617322834649
11
3.41195
21
-4.62871125984252
0
LINE
8
BLACK
6
CONTINUOUS
10
3.4906901574803149
20
-4.6774551574803152
11
3.49443968503937
21
-4.681204724409449
0
LINE
8
BLACK
6
CONTINUOUS
10
3.49443968503937
20
-4.681204724409449
11
3.4906901574803149
21
-4.6849542519685041
0
LINE
8
BLACK
6
CONTINUOUS
10
3.4906901574803149
20
-4.6849542519685041
11
3.4869406299212597
21
-4.681204724409449
0
LINE
8
BLACK
6
CONTINUOUS
10
3.4869406299212597
20
-4.681204724409449
11
3.4906901574803149
21
-4.6774551574803152
0
LINE
8
BLACK
6
CONTINUOUS
10
3.4906901574803149
20
-4.6774551574803152
11
3.4906901574803149
21
-4.6849542519685041
0
LINE
8
BLACK
6
CONTINUOUS
10
3.5431835826771652
20
-4.6062140944881893
11
3.5506826771653541
21
-4.6062140944881893
0
LINE
8
BLACK
6
CONTINUOUS
10
3.5506826771653541
20
-4.6062140944881893
11
3.5581817322834643
21
-4.6099636220472444
0
LINE
8
BLACK
6
CONTINUOUS
10
3.5581817322834643
20
-4.6099636220472444
11
3.5619312598425195
21
-4.6137131496062995
0
LINE
8
BLACK
6
CONTINUOUS
10
3.5619312598425195
20
-4.6137131496062995
11
3.5656807874015746
21
-4.6212122047244097
0
LINE
8
BLACK
6
CONTINUOUS
10
3.5656807874015746
20
-4.6212122047244097
11
3.5694303149606297
21
-4.6362103149606302
0
LINE
8
BLACK
6
CONTINUOUS
10
3.5694303149606297
20
-4.6362103149606302
11
3.5694303149606297
21
-4.6549579921259845
0
LINE
8
BLACK
6
CONTINUOUS
10
3.5694303149606297
20
-4.6549579921259845
11
3.5656807874015746
21
-4.6699561023622049
0
LINE
8
BLACK
6
CONTINUOUS
10
3.5656807874015746
20
-4.6699561023622049
11
3.5619312598425195
21
-4.6774551574803152
0
LINE
8
BLACK
6
CONTINUOUS
10
3.5619312598425195
20
-4.6774551574803152
11
3.5581817322834643
21
-4.681204724409449
0
LINE
8
BLACK
6
CONTINUOUS
10
3.5581817322834643
20
-4.681204724409449
11
3.5506826771653541
21
-4.6849542519685041
0
LINE
8
BLACK
6
CONTINUOUS
10
3.5506826771653541
20
-4.6849542519685041
11
3.5431835826771652
21
-4.6849542519685041
0
LINE
8
BLACK
6
CONTINUOUS
10
3.5431835826771652
20
-4.6849542519685041
11
3.5356845275590549
21
-4.681204724409449
0
LINE
8
BLACK
6
CONTINUOUS
10
3.5356845275590549
20
-4.681204724409449
11
3.5319349999999998
21
-4.6774551574803152
0
LINE
8
BLACK
6
CONTINUOUS
10
3.5319349999999998
20
-4.6774551574803152
11
3.5281854724409447
21
-4.6699561023622049
0
LINE
8
BLACK
6
CONTINUOUS
10
3.5281854724409447
20
-4.6699561023622049
11
3.5244359448818896
21
-4.6549579921259845
0
LINE
8
BLACK
6
CONTINUOUS
10
3.5244359448818896
20
-4.6549579921259845
11
3.5244359448818896
21
-4.6362103149606302
0
LINE
8
BLACK
6
CONTINUOUS
10
3.5244359448818896
20
-4.6362103149606302
11
3.5281854724409447
21
-4.6212122047244097
0
LINE
8
BLACK
6
CONTINUOUS
10
3.5281854724409447
20
-4.6212122047244097
11
3.5319349999999998
21
-4.6137131496062995
0
LINE
8
BLACK
6
CONTINUOUS
10
3.5319349999999998
20
-4.6137131496062995
11
3.5356845275590549
21
-4.6099636220472444
0
LINE
8
BLACK
6
CONTINUOUS
10
3.5356845275590549
20
-4.6099636220472444
11
3.5431835826771652
21
-4.6062140944881893
0
LINE
8
BLACK
6
CONTINUOUS
10
3.6181742125984253
20
-4.6062140944881893
11
3.6256733070866143
21
-4.6062140944881893
0
LINE
8
BLACK
6
CONTINUOUS
10
3.6256733070866143
20
-4.6062140944881893
11
3.6331723622047245
21
-4.6099636220472444
0
LINE
8
BLACK
6
CONTINUOUS
10
3.6331723622047245
20
-4.6099636220472444
11
3.6369218897637796
21
-4.6137131496062995
0
LINE
8
BLACK
6
CONTINUOUS
10
3.6369218897637796
20
-4.6137131496062995
11
3.6406714173228347
21
-4.6212122047244097
0
LINE
8
BLACK
6
CONTINUOUS
10
3.6406714173228347
20
-4.6212122047244097
11
3.6444209448818898
21
-4.6362103149606302
0
LINE
8
BLACK
6
CONTINUOUS
10
3.6444209448818898
20
-4.6362103149606302
11
3.6444209448818898
21
-4.6549579921259845
0
LINE
8
BLACK
6
CONTINUOUS
10
3.6444209448818898
20
-4.6549579921259845
11
3.6406714173228347
21
-4.6699561023622049
0
LINE
8
BLACK
6
CONTINUOUS
10
3.6406714173228347
20
-4.6699561023622049
11
3.6369218897637796
21
-4.6774551574803152
0
LINE
8
BLACK
6
CONTINUOUS
10
3.6369218897637796
20
-4.6774551574803152
11
3.6331723622047245
21
-4.681204724409449
0
LINE
8
BLACK
6
CONTINUOUS
10
3.6331723622047245
20
-4.681204724409449
11
3.6256733070866143
21
-4.6849542519685041
0
LINE
8
BLACK
6
CONTINUOUS
10
3.6256733070866143
20
-4.6849542519685041
11
3.6181742125984253
21
-4.6849542519685041
0
LINE
8
BLACK
6
CONTINUOUS
10
3.6181742125984253
20
-4.6849542519685041
11
3.6106751574803151
21
-4.681204724409449
0
LINE
8
BLACK
6
CONTINUOUS
10
3.6106751574803151
20
-4.681204724409449
11
3.60692562992126
21
-4.6774551574803152
0
LINE
8
BLACK
6
CONTINUOUS
10
3.60692562992126
20
-4.6774551574803152
11
3.6031761023622044
21
-4.6699561023622049
0
LINE
8
BLACK
6
CONTINUOUS
10
3.6031761023622044
20
-4.6699561023622049
11
3.5994265748031493
21
-4.6549579921259845
0
LINE
8
BLACK
6
CONTINUOUS
10
3.5994265748031493
20
-4.6549579921259845
11
3.5994265748031493
21
-4.6362103149606302
0
LINE
8
BLACK
6
CONTINUOUS
10
3.5994265748031493
20
-4.6362103149606302
11
3.6031761023622044
21
-4.6212122047244097
0
LINE
8
BLACK
6
CONTINUOUS
10
3.6031761023622044
20
-4.6212122047244097
11
3.60692562992126
21
-4.6137131496062995
0
LINE
8
BLACK
6
CONTINUOUS
10
3.60692562992126
20
-4.6137131496062995
11
3.6106751574803151
21
-4.6099636220472444
0
LINE
8
BLACK
6
CONTINUOUS
10
3.6106751574803151
20
-4.6099636220472444
11
3.6181742125984253
21
-4.6062140944881893
0
LINE
8
BLACK
6
CONTINUOUS
10
3.693164842519685
20
-4.6062140944881893
11
3.700663937007874
21
-4.6062140944881893
0
LINE
8
BLACK
6
CONTINUOUS
10
3.700663937007874
20
-4.6062140944881893
11
3.7081629921259842
21
-4.6099636220472444
0
LINE
8
BLACK
6
CONTINUOUS
10
3.7081629921259842
20
-4.6099636220472444
11
3.7119125196850393
21
-4.6137131496062995
0
LINE
8
BLACK
6
CONTINUOUS
10
3.7119125196850393
20
-4.6137131496062995
11
3.7156620472440944
21
-4.6212122047244097
0
LINE
8
BLACK
6
CONTINUOUS
10
3.7156620472440944
20
-4.6212122047244097
11
3.7194115748031495
21
-4.6362103149606302
0
LINE
8
BLACK
6
CONTINUOUS
10
3.7194115748031495
20
-4.6362103149606302
11
3.7194115748031495
21
-4.6549579921259845
0
LINE
8
BLACK
6
CONTINUOUS
10
3.7194115748031495
20
-4.6549579921259845
11
3.7156620472440944
21
-4.6699561023622049
0
LINE
8
BLACK
6
CONTINUOUS
10
3.7156620472440944
20
-4.6699561023622049
11
3.7119125196850393
21
-4.6774551574803152
0
LINE
8
BLACK
6
CONTINUOUS
10
3.7119125196850393
20
-4.6774551574803152
11
3.7081629921259842
21
-4.681204724409449
0
LINE
8
BLACK
6
CONTINUOUS
10
3.7081629921259842
20
-4.681204724409449
11
3.700663937007874
21
-4.6849542519685041
0
LINE
8
BLACK
6
CONTINUOUS
10
3.700663937007874
20
-4.6849542519685041
11
3.693164842519685
21
-4.6849542519685041
0
LINE
8
BLACK
6
CONTINUOUS
10
3.693164842519685
20
-4.6849542519685041
11
3.6856657874015748
21
-4.681204724409449
0
LINE
8
BLACK
6
CONTINUOUS
10
3.6856657874015748
20
-4.681204724409449
11
3.6819162598425197
21
-4.6774551574803152
0
LINE
8
BLACK
6
CONTINUOUS
10
3.6819162598425197
20
-4.6774551574803152
11
3.6781667322834646
21
-4.6699561023622049
0
LINE
8
BLACK
6
CONTINUOUS
10
3.6781667322834646
20
-4.6699561023622049
11
3.6744172047244095
21
-4.6549579921259845
0
LINE
8
BLACK
6
CONTINUOUS
10
3.6744172047244095
20
-4.6549579921259845
11
3.6744172047244095
21
-4.6362103149606302
0
LINE
8
BLACK
6
CONTINUOUS
10
3.6744172047244095
20
-4.6362103149606302
11
3.6781667322834646
21
-4.6212122047244097
0
LINE
8
BLACK
6
CONTINUOUS
10
3.6781667322834646
20
-4.6212122047244097
11
3.6819162598425197
21
-4.6137131496062995
0
LINE
8
BLACK
6
CONTINUOUS
10
3.6819162598425197
20
-4.6137131496062995
11
3.6856657874015748
21
-4.6099636220472444
0
LINE
8
BLACK
6
CONTINUOUS
10
3.6856657874015748
20
-4.6099636220472444
11
3.693164842519685
21
-4.6062140944881893
0
LINE
8
BLACK
6
CONTINUOUS
10
3.7531573622047243
20
-4.6849542519685041
11
3.7531573622047243
21
-4.6324607874015751
0
LINE
8
BLACK
6
CONTINUOUS
10
3.7531573622047243
20
-4.6399598425196853
11
3.7569068897637794
21
-4.6362103149606302
0
LINE
8
BLACK
6
CONTINUOUS
10
3.7569068897637794
20
-4.6362103149606302
11
3.7644059448818896
21
-4.6324607874015751
0
LINE
8
BLACK
6
CONTINUOUS
10
3.7644059448818896
20
-4.6324607874015751
11
3.7756545669291337
21
-4.6324607874015751
0
LINE
8
BLACK
6
CONTINUOUS
10
3.7756545669291337
20
-4.6324607874015751
11
3.7831536220472439
21
-4.6362103149606302
0
LINE
8
BLACK
6
CONTINUOUS
10
3.7831536220472439
20
-4.6362103149606302
11
3.786903149606299
21
-4.6437094094488192
0
LINE
8
BLACK
6
CONTINUOUS
10
3.786903149606299
20
-4.6437094094488192
11
3.786903149606299
21
-4.6849542519685041
0
LINE
8
BLACK
6
CONTINUOUS
10
3.786903149606299
20
-4.6437094094488192
11
3.7906526771653541
21
-4.6362103149606302
0
LINE
8
BLACK
6
CONTINUOUS
10
3.7906526771653541
20
-4.6362103149606302
11
3.7981517322834644
21
-4.6324607874015751
0
LINE
8
BLACK
6
CONTINUOUS
10
3.7981517322834644
20
-4.6324607874015751
11
3.8094003149606297
21
-4.6324607874015751
0
LINE
8
BLACK
6
CONTINUOUS
10
3.8094003149606297
20
-4.6324607874015751
11
3.8168994094488187
21
-4.6362103149606302
0
LINE
8
BLACK
6
CONTINUOUS
10
3.8168994094488187
20
-4.6362103149606302
11
3.8206489370078738
21
-4.6437094094488192
0
LINE
8
BLACK
6
CONTINUOUS
10
3.8206489370078738
20
-4.6437094094488192
11
3.8206489370078738
21
-4.6849542519685041
0
LINE
8
BLACK
6
CONTINUOUS
10
3.8581442519685036
20
-4.6849542519685041
11
3.8581442519685036
21
-4.6324607874015751
0
LINE
8
BLACK
6
CONTINUOUS
10
3.8581442519685036
20
-4.6399598425196853
11
3.8618937795275587
21
-4.6362103149606302
0
LINE
8
BLACK
6
CONTINUOUS
10
3.8618937795275587
20
-4.6362103149606302
11
3.8693928346456694
21
-4.6324607874015751
0
LINE
8
BLACK
6
CONTINUOUS
10
3.8693928346456694
20
-4.6324607874015751
11
3.8806414566929135
21
-4.6324607874015751
0
LINE
8
BLACK
6
CONTINUOUS
10
3.8806414566929135
20
-4.6324607874015751
11
3.8881405118110237
21
-4.6362103149606302
0
LINE
8
BLACK
6
CONTINUOUS
10
3.8881405118110237
20
-4.6362103149606302
11
3.8918900393700788
21
-4.6437094094488192
0
LINE
8
BLACK
6
CONTINUOUS
10
3.8918900393700788
20
-4.6437094094488192
11
3.8918900393700788
21
-4.6849542519685041
0
LINE
8
BLACK
6
CONTINUOUS
10
3.8918900393700788
20
-4.6437094094488192
11
3.8956395669291339
21
-4.6362103149606302
0
LINE
8
BLACK
6
CONTINUOUS
10
3.8956395669291339
20
-4.6362103149606302
11
3.9031386220472442
21
-4.6324607874015751
0
LINE
8
BLACK
6
CONTINUOUS
10
3.9031386220472442
20
-4.6324607874015751
11
3.9143872047244095
21
-4.6324607874015751
0
LINE
8
BLACK
6
CONTINUOUS
10
3.9143872047244095
20
-4.6324607874015751
11
3.9218862992125985
21
-4.6362103149606302
0
LINE
8
BLACK
6
CONTINUOUS
10
3.9218862992125985
20
-4.6362103149606302
11
3.9256358267716536
21
-4.6437094094488192
0
LINE
8
BLACK
6
CONTINUOUS
10
3.9256358267716536
20
-4.6437094094488192
11
3.9256358267716536
21
-4.6849542519685041
0
LINE
8
BLACK
6
CONTINUOUS
10
4.0793666141732281
20
-4.6024645669291342
11
4.0118750787401574
21
-4.7037018897637797
0
LINE
8
BLACK
6
CONTINUOUS
10
4.1806039763779523
20
-4.6062140944881893
11
4.1881030708661413
21
-4.6062140944881893
0
LINE
8
BLACK
6
CONTINUOUS
10
4.1881030708661413
20
-4.6062140944881893
11
4.1956021259842515
21
-4.6099636220472444
0
LINE
8
BLACK
6
CONTINUOUS
10
4.1956021259842515
20
-4.6099636220472444
11
4.1993516535433066
21
-4.6137131496062995
0
LINE
8
BLACK
6
CONTINUOUS
10
4.1993516535433066
20
-4.6137131496062995
11
4.2031011811023617
21
-4.6212122047244097
0
LINE
8
BLACK
6
CONTINUOUS
10
4.2031011811023617
20
-4.6212122047244097
11
4.2068507086614169
21
-4.6362103149606302
0
LINE
8
BLACK
6
CONTINUOUS
10
4.2068507086614169
20
-4.6362103149606302
11
4.2068507086614169
21
-4.6549579921259845
0
LINE
8
BLACK
6
CONTINUOUS
10
4.2068507086614169
20
-4.6549579921259845
11
4.2031011811023617
21
-4.6699561023622049
0
LINE
8
BLACK
6
CONTINUOUS
10
4.2031011811023617
20
-4.6699561023622049
11
4.1993516535433066
21
-4.6774551574803152
0
LINE
8
BLACK
6
CONTINUOUS
10
4.1993516535433066
20
-4.6774551574803152
11
4.1956021259842515
21
-4.681204724409449
0
LINE
8
BLACK
6
CONTINUOUS
10
4.1956021259842515
20
-4.681204724409449
11
4.1881030708661413
21
-4.6849542519685041
0
LINE
8
BLACK
6
CONTINUOUS
10
4.1881030708661413
20
-4.6849542519685041
11
4.1806039763779523
21
-4.6849542519685041
0
LINE
8
BLACK
6
CONTINUOUS
10
4.1806039763779523
20
-4.6849542519685041
11
4.1731049212598421
21
-4.681204724409449
0
LINE
8
BLACK
6
CONTINUOUS
10
4.1731049212598421
20
-4.681204724409449
11
4.169355393700787
21
-4.6774551574803152
0
LINE
8
BLACK
6
CONTINUOUS
10
4.169355393700787
20
-4.6774551574803152
11
4.1656058661417319
21
-4.6699561023622049
0
LINE
8
BLACK
6
CONTINUOUS
10
4.1656058661417319
20
-4.6699561023622049
11
4.1618563385826768
21
-4.6549579921259845
0
LINE
8
BLACK
6
CONTINUOUS
10
4.1618563385826768
20
-4.6549579921259845
11
4.1618563385826768
21
-4.6362103149606302
0
LINE
8
BLACK
6
CONTINUOUS
10
4.1618563385826768
20
-4.6362103149606302
11
4.1656058661417319
21
-4.6212122047244097
0
LINE
8
BLACK
6
CONTINUOUS
10
4.1656058661417319
20
-4.6212122047244097
11
4.169355393700787
21
-4.6137131496062995
0
LINE
8
BLACK
6
CONTINUOUS
10
4.169355393700787
20
-4.6137131496062995
11
4.1731049212598421
21
-4.6099636220472444
0
LINE
8
BLACK
6
CONTINUOUS
10
4.1731049212598421
20
-4.6099636220472444
11
4.1806039763779523
21
-4.6062140944881893
0
LINE
8
BLACK
6
CONTINUOUS
10
4.2405964960629916
20
-4.6774551574803152
11
4.2443460236220467
21
-4.681204724409449
0
LINE
8
BLACK
6
CONTINUOUS
10
4.2443460236220467
20
-4.681204724409449
11
4.2405964960629916
21
-4.6849542519685041
0
LINE
8
BLACK
6
CONTINUOUS
10
4.2405964960629916
20
-4.6849542519685041
11
4.2368469685039365
21
-4.681204724409449
0
LINE
8
BLACK
6
CONTINUOUS
10
4.2368469685039365
20
-4.681204724409449
11
4.2405964960629916
21
-4.6774551574803152
0
LINE
8
BLACK
6
CONTINUOUS
10
4.2405964960629916
20
-4.6774551574803152
11
4.2405964960629916
21
-4.6849542519685041
0
LINE
8
BLACK
6
CONTINUOUS
10
4.2930899212598428
20
-4.6062140944881893
11
4.3005890157480318
21
-4.6062140944881893
0
LINE
8
BLACK
6
CONTINUOUS
10
4.3005890157480318
20
-4.6062140944881893
11
4.308088070866142
21
-4.6099636220472444
0
LINE
8
BLACK
6
CONTINUOUS
10
4.308088070866142
20
-4.6099636220472444
11
4.3118375984251971
21
-4.6137131496062995
0
LINE
8
BLACK
6
CONTINUOUS
10
4.3118375984251971
20
-4.6137131496062995
11
4.3155871259842522
21
-4.6212122047244097
0
LINE
8
BLACK
6
CONTINUOUS
10
4.3155871259842522
20
-4.6212122047244097
11
4.3193366535433073
21
-4.6362103149606302
0
LINE
8
BLACK
6
CONTINUOUS
10
4.3193366535433073
20
-4.6362103149606302
11
4.3193366535433073
21
-4.6549579921259845
0
LINE
8
BLACK
6
CONTINUOUS
10
4.3193366535433073
20
-4.6549579921259845
11
4.3155871259842522
21
-4.6699561023622049
0
LINE
8
BLACK
6
CONTINUOUS
10
4.3155871259842522
20
-4.6699561023622049
11
4.3118375984251971
21
-4.6774551574803152
0
LINE
8
BLACK
6
CONTINUOUS
10
4.3118375984251971
20
-4.6774551574803152
11
4.308088070866142
21
-4.681204724409449
0
LINE
8
BLACK
6
CONTINUOUS
10
4.308088070866142
20
-4.681204724409449
11
4.3005890157480318
21
-4.6849542519685041
0
LINE
8
BLACK
6
CONTINUOUS
10
4.3005890157480318
20
-4.6849542519685041
11
4.2930899212598428
21
-4.6849542519685041
0
LINE
8
BLACK
6
CONTINUOUS
10
4.2930899212598428
20
-4.6849542519685041
11
4.2855908661417326
21
-4.681204724409449
0
LINE
8
BLACK
6
CONTINUOUS
10
4.2855908661417326
20
-4.681204724409449
11
4.2818413385826775
21
-4.6774551574803152
0
LINE
8
BLACK
6
CONTINUOUS
10
4.2818413385826775
20
-4.6774551574803152
11
4.2780918110236223
21
-4.6699561023622049
0
LINE
8
BLACK
6
CONTINUOUS
10
4.2780918110236223
20
-4.6699561023622049
11
4.2743422834645672
21
-4.6549579921259845
0
LINE
8
BLACK
6
CONTINUOUS
10
4.2743422834645672
20
-4.6549579921259845
11
4.2743422834645672
21
-4.6362103149606302
0
LINE
8
BLACK
6
CONTINUOUS
10
4.2743422834645672
20
-4.6362103149606302
11
4.2780918110236223
21
-4.6212122047244097
0
LINE
8
BLACK
6
CONTINUOUS
10
4.2780918110236223
20
-4.6212122047244097
11
4.2818413385826775
21
-4.6137131496062995
0
LINE
8
BLACK
6
CONTINUOUS
10
4.2818413385826775
20
-4.6137131496062995
11
4.2855908661417326
21
-4.6099636220472444
0
LINE
8
BLACK
6
CONTINUOUS
10
4.2855908661417326
20
-4.6099636220472444
11
4.2930899212598428
21
-4.6062140944881893
0
LINE
8
BLACK
6
CONTINUOUS
10
4.3455833858267718
20
-4.6062140944881893
11
4.394327283464567
21
-4.6062140944881893
0
LINE
8
BLACK
6
CONTINUOUS
10
4.394327283464567
20
-4.6062140944881893
11
4.3680805511811025
21
-4.6362103149606302
0
LINE
8
BLACK
6
CONTINUOUS
10
4.3680805511811025
20
-4.6362103149606302
11
4.3793291732283466
21
-4.6362103149606302
0
LINE
8
BLACK
6
CONTINUOUS
10
4.3793291732283466
20
-4.6362103149606302
11
4.3868282283464568
21
-4.6399598425196853
0
LINE
8
BLACK
6
CONTINUOUS
10
4.3868282283464568
20
-4.6399598425196853
11
4.3905777559055119
21
-4.6437094094488192
0
LINE
8
BLACK
6
CONTINUOUS
10
4.3905777559055119
20
-4.6437094094488192
11
4.394327283464567
21
-4.6512084645669294
0
LINE
8
BLACK
6
CONTINUOUS
10
4.394327283464567
20
-4.6512084645669294
11
4.394327283464567
21
-4.6699561023622049
0
LINE
8
BLACK
6
CONTINUOUS
10
4.394327283464567
20
-4.6699561023622049
11
4.3905777559055119
21
-4.6774551574803152
0
LINE
8
BLACK
6
CONTINUOUS
10
4.3905777559055119
20
-4.6774551574803152
11
4.3868282283464568
21
-4.681204724409449
0
LINE
8
BLACK
6
CONTINUOUS
10
4.3868282283464568
20
-4.681204724409449
11
4.3793291732283466
21
-4.6849542519685041
0
LINE
8
BLACK
6
CONTINUOUS
10
4.3793291732283466
20
-4.6849542519685041
11
4.3568319685039372
21
-4.6849542519685041
0
LINE
8
BLACK
6
CONTINUOUS
10
4.3568319685039372
20
-4.6849542519685041
11
4.3493329133858269
21
-4.681204724409449
0
LINE
8
BLACK
6
CONTINUOUS
10
4.3493329133858269
20
-4.681204724409449
11
4.3455833858267718
21
-4.6774551574803152
0
LINE
8
BLACK
6
CONTINUOUS
10
4.4318225984251969
20
-4.6849542519685041
11
4.4468207086614173
21
-4.6849542519685041
0
LINE
8
BLACK
6
CONTINUOUS
10
4.4468207086614173
20
-4.6849542519685041
11
4.4543198031496063
21
-4.681204724409449
0
LINE
8
BLACK
6
CONTINUOUS
10
4.4543198031496063
20
-4.681204724409449
11
4.4580693307086614
21
-4.6774551574803152
0
LINE
8
BLACK
6
CONTINUOUS
10
4.4580693307086614
20
-4.6774551574803152
11
4.4655683858267716
21
-4.6662065748031498
0
LINE
8
BLACK
6
CONTINUOUS
10
4.4655683858267716
20
-4.6662065748031498
11
4.4693179133858267
21
-4.6512084645669294
0
LINE
8
BLACK
6
CONTINUOUS
10
4.4693179133858267
20
-4.6512084645669294
11
4.4693179133858267
21
-4.6212122047244097
0
LINE
8
BLACK
6
CONTINUOUS
10
4.4693179133858267
20
-4.6212122047244097
11
4.4655683858267716
21
-4.6137131496062995
0
LINE
8
BLACK
6
CONTINUOUS
10
4.4655683858267716
20
-4.6137131496062995
11
4.4618188582677165
21
-4.6099636220472444
0
LINE
8
BLACK
6
CONTINUOUS
10
4.4618188582677165
20
-4.6099636220472444
11
4.4543198031496063
21
-4.6062140944881893
0
LINE
8
BLACK
6
CONTINUOUS
10
4.4543198031496063
20
-4.6062140944881893
11
4.4393216535433071
21
-4.6062140944881893
0
LINE
8
BLACK
6
CONTINUOUS
10
4.4393216535433071
20
-4.6062140944881893
11
4.4318225984251969
21
-4.6099636220472444
0
LINE
8
BLACK
6
CONTINUOUS
10
4.4318225984251969
20
-4.6099636220472444
11
4.4280730708661418
21
-4.6137131496062995
0
LINE
8
BLACK
6
CONTINUOUS
10
4.4280730708661418
20
-4.6137131496062995
11
4.4243235433070867
21
-4.6212122047244097
0
LINE
8
BLACK
6
CONTINUOUS
10
4.4243235433070867
20
-4.6212122047244097
11
4.4243235433070867
21
-4.6399598425196853
0
LINE
8
BLACK
6
CONTINUOUS
10
4.4243235433070867
20
-4.6399598425196853
11
4.4280730708661418
21
-4.6474589370078743
0
LINE
8
BLACK
6
CONTINUOUS
10
4.4280730708661418
20
-4.6474589370078743
11
4.4318225984251969
21
-4.6512084645669294
0
LINE
8
BLACK
6
CONTINUOUS
10
4.4318225984251969
20
-4.6512084645669294
11
4.4393216535433071
21
-4.6549579921259845
0
LINE
8
BLACK
6
CONTINUOUS
10
4.4393216535433071
20
-4.6549579921259845
11
4.4543198031496063
21
-4.6549579921259845
0
LINE
8
BLACK
6
CONTINUOUS
10
4.4543198031496063
20
-4.6549579921259845
11
4.4618188582677165
21
-4.6512084645669294
0
LINE
8
BLACK
6
CONTINUOUS
10
4.4618188582677165
20
-4.6512084645669294
11
4.4655683858267716
21
-4.6474589370078743
0
LINE
8
BLACK
6
CONTINUOUS
10
4.4655683858267716
20
-4.6474589370078743
11
4.4693179133858267
21
-4.6399598425196853
0
LINE
8
BLACK
6
CONTINUOUS
10
4.5368094881889762
20
-4.6324607874015751
11
4.5368094881889762
21
-4.6849542519685041
0
LINE
8
BLACK
6
CONTINUOUS
10
4.5180618110236219
20
-4.6024645669291342
11
4.4993141732283464
21
-4.6587075196850396
0
LINE
8
BLACK
6
CONTINUOUS
10
4.4993141732283464
20
-4.6587075196850396
11
4.5480580708661416
21
-4.6587075196850396
0
LINE
8
BLACK
6
CONTINUOUS
10
4.5743048031496061
20
-4.6062140944881893
11
4.5743048031496061
21
-4.6212122047244097
0
LINE
8
BLACK
6
CONTINUOUS
10
4.6043010629921257
20
-4.6062140944881893
11
4.6043010629921257
21
-4.6212122047244097
0
LINE
8
BLACK
6
CONTINUOUS
10
4.7205365748031491
20
-4.714950472440945
11
4.7167870078740153
21
-4.7112009448818899
0
LINE
8
BLACK
6
CONTINUOUS
10
4.7167870078740153
20
-4.7112009448818899
11
4.7092879527559051
21
-4.6999523622047246
0
LINE
8
BLACK
6
CONTINUOUS
10
4.7092879527559051
20
-4.6999523622047246
11
4.7055384251968499
21
-4.6924533070866143
0
LINE
8
BLACK
6
CONTINUOUS
10
4.7055384251968499
20
-4.6924533070866143
11
4.7017888976377948
21
-4.681204724409449
0
LINE
8
BLACK
6
CONTINUOUS
10
4.7017888976377948
20
-4.681204724409449
11
4.6980393700787397
21
-4.6624570472440947
0
LINE
8
BLACK
6
CONTINUOUS
10
4.6980393700787397
20
-4.6624570472440947
11
4.6980393700787397
21
-4.6474589370078743
0
LINE
8
BLACK
6
CONTINUOUS
10
4.6980393700787397
20
-4.6474589370078743
11
4.7017888976377948
21
-4.62871125984252
0
LINE
8
BLACK
6
CONTINUOUS
10
4.7017888976377948
20
-4.62871125984252
11
4.7055384251968499
21
-4.6174626771653546
0
LINE
8
BLACK
6
CONTINUOUS
10
4.7055384251968499
20
-4.6174626771653546
11
4.7092879527559051
21
-4.6099636220472444
0
LINE
8
BLACK
6
CONTINUOUS
10
4.7092879527559051
20
-4.6099636220472444
11
4.7167870078740153
21
-4.5987150000000003
0
LINE
8
BLACK
6
CONTINUOUS
10
4.7167870078740153
20
-4.5987150000000003
11
4.7205365748031491
21
-4.5949654724409452
0
LINE
8
BLACK
6
CONTINUOUS
10
4.7917776377952759
20
-4.6849542519685041
11
4.7467832677165349
21
-4.6849542519685041
0
LINE
8
BLACK
6
CONTINUOUS
10
4.7692804330708665
20
-4.6849542519685041
11
4.7692804330708665
21
-4.6062140944881893
0
LINE
8
BLACK
6
CONTINUOUS
10
4.7692804330708665
20
-4.6062140944881893
11
4.7617813779527554
21
-4.6174626771653546
0
LINE
8
BLACK
6
CONTINUOUS
10
4.7617813779527554
20
-4.6174626771653546
11
4.7542823228346451
21
-4.6249617322834649
0
LINE
8
BLACK
6
CONTINUOUS
10
4.7542823228346451
20
-4.6249617322834649
11
4.7467832677165349
21
-4.62871125984252
0
LINE
8
BLACK
6
CONTINUOUS
10
4.836772007874016
20
-4.6399598425196853
11
4.8292729527559057
21
-4.6362103149606302
0
LINE
8
BLACK
6
CONTINUOUS
10
4.8292729527559057
20
-4.6362103149606302
11
4.8255234251968506
21
-4.6324607874015751
0
LINE
8
BLACK
6
CONTINUOUS
10
4.8255234251968506
20
-4.6324607874015751
11
4.8217738976377955
21
-4.6249617322834649
0
LINE
8
BLACK
6
CONTINUOUS
10
4.8217738976377955
20
-4.6249617322834649
11
4.8217738976377955
21
-4.6212122047244097
0
LINE
8
BLACK
6
CONTINUOUS
10
4.8217738976377955
20
-4.6212122047244097
11
4.8255234251968506
21
-4.6137131496062995
0
LINE
8
BLACK
6
CONTINUOUS
10
4.8255234251968506
20
-4.6137131496062995
11
4.8292729527559057
21
-4.6099636220472444
0
LINE
8
BLACK
6
CONTINUOUS
10
4.8292729527559057
20
-4.6099636220472444
11
4.836772007874016
21
-4.6062140944881893
0
LINE
8
BLACK
6
CONTINUOUS
10
4.836772007874016
20
-4.6062140944881893
11
4.8517701574803151
21
-4.6062140944881893
0
LINE
8
BLACK
6
CONTINUOUS
10
4.8517701574803151
20
-4.6062140944881893
11
4.8592692125984254
21
-4.6099636220472444
0
LINE
8
BLACK
6
CONTINUOUS
10
4.8592692125984254
20
-4.6099636220472444
11
4.8630187401574805
21
-4.6137131496062995
0
LINE
8
BLACK
6
CONTINUOUS
10
4.8630187401574805
20
-4.6137131496062995
11
4.8667682677165356
21
-4.6212122047244097
0
LINE
8
BLACK
6
CONTINUOUS
10
4.8667682677165356
20
-4.6212122047244097
11
4.8667682677165356
21
-4.6249617322834649
0
LINE
8
BLACK
6
CONTINUOUS
10
4.8667682677165356
20
-4.6249617322834649
11
4.8630187401574805
21
-4.6324607874015751
0
LINE
8
BLACK
6
CONTINUOUS
10
4.8630187401574805
20
-4.6324607874015751
11
4.8592692125984254
21
-4.6362103149606302
0
LINE
8
BLACK
6
CONTINUOUS
10
4.8592692125984254
20
-4.6362103149606302
11
4.8517701574803151
21
-4.6399598425196853
0
LINE
8
BLACK
6
CONTINUOUS
10
4.8517701574803151
20
-4.6399598425196853
11
4.836772007874016
21
-4.6399598425196853
0
LINE
8
BLACK
6
CONTINUOUS
10
4.836772007874016
20
-4.6399598425196853
11
4.8292729527559057
21
-4.6437094094488192
0
LINE
8
BLACK
6
CONTINUOUS
10
4.8292729527559057
20
-4.6437094094488192
11
4.8255234251968506
21
-4.6474589370078743
0
LINE
8
BLACK
6
CONTINUOUS
10
4.8255234251968506
20
-4.6474589370078743
11
4.8217738976377955
21
-4.6549579921259845
0
LINE
8
BLACK
6
CONTINUOUS
10
4.8217738976377955
20
-4.6549579921259845
11
4.8217738976377955
21
-4.6699561023622049
0
LINE
8
BLACK
6
CONTINUOUS
10
4.8217738976377955
20
-4.6699561023622049
11
4.8255234251968506
21
-4.6774551574803152
0
LINE
8
BLACK
6
CONTINUOUS
10
4.8255234251968506
20
-4.6774551574803152
11
4.8292729527559057
21
-4.681204724409449
0
LINE
8
BLACK
6
CONTINUOUS
10
4.8292729527559057
20
-4.681204724409449
11
4.836772007874016
21
-4.6849542519685041
0
LINE
8
BLACK
6
CONTINUOUS
10
4.836772007874016
20
-4.6849542519685041
11
4.8517701574803151
21
-4.6849542519685041
0
LINE
8
BLACK
6
CONTINUOUS
10
4.8517701574803151
20
-4.6849542519685041
11
4.8592692125984254
21
-4.681204724409449
0
LINE
8
BLACK
6
CONTINUOUS
10
4.8592692125984254
20
-4.681204724409449
11
4.8630187401574805
21
-4.6774551574803152
0
LINE
8
BLACK
6
CONTINUOUS
10
4.8630187401574805
20
-4.6774551574803152
11
4.8667682677165356
21
-4.6699561023622049
0
LINE
8
BLACK
6
CONTINUOUS
10
4.8667682677165356
20
-4.6699561023622049
11
4.8667682677165356
21
-4.6549579921259845
0
LINE
8
BLACK
6
CONTINUOUS
10
4.8667682677165356
20
-4.6549579921259845
11
4.8630187401574805
21
-4.6474589370078743
0
LINE
8
BLACK
6
CONTINUOUS
10
4.8630187401574805
20
-4.6474589370078743
11
4.8592692125984254
21
-4.6437094094488192
0
LINE
8
BLACK
6
CONTINUOUS
10
4.8592692125984254
20
-4.6437094094488192
11
4.8517701574803151
21
-4.6399598425196853
0
LINE
8
BLACK
6
CONTINUOUS
10
4.9605065748031496
20
-4.6849542519685041
11
4.9605065748031496
21
-4.6062140944881893
0
LINE
8
BLACK
6
CONTINUOUS
10
4.9942523622047243
20
-4.6849542519685041
11
4.9942523622047243
21
-4.6437094094488192
0
LINE
8
BLACK
6
CONTINUOUS
10
4.9942523622047243
20
-4.6437094094488192
11
4.9905028346456692
21
-4.6362103149606302
0
LINE
8
BLACK
6
CONTINUOUS
10
4.9905028346456692
20
-4.6362103149606302
11
4.983003779527559
21
-4.6324607874015751
0
LINE
8
BLACK
6
CONTINUOUS
10
4.983003779527559
20
-4.6324607874015751
11
4.9717551574803149
21
-4.6324607874015751
0
LINE
8
BLACK
6
CONTINUOUS
10
4.9717551574803149
20
-4.6324607874015751
11
4.9642561023622047
21
-4.6362103149606302
0
LINE
8
BLACK
6
CONTINUOUS
10
4.9642561023622047
20
-4.6362103149606302
11
4.9605065748031496
21
-4.6399598425196853
0
LINE
8
BLACK
6
CONTINUOUS
10
5.0429962598425195
20
-4.6849542519685041
11
5.0354972047244093
21
-4.681204724409449
0
LINE
8
BLACK
6
CONTINUOUS
10
5.0354972047244093
20
-4.681204724409449
11
5.0317476771653542
21
-4.6774551574803152
0
LINE
8
BLACK
6
CONTINUOUS
10
5.0317476771653542
20
-4.6774551574803152
11
5.0279981496062991
21
-4.6699561023622049
0
LINE
8
BLACK
6
CONTINUOUS
10
5.0279981496062991
20
-4.6699561023622049
11
5.0279981496062991
21
-4.6474589370078743
0
LINE
8
BLACK
6
CONTINUOUS
10
5.0279981496062991
20
-4.6474589370078743
11
5.0317476771653542
21
-4.6399598425196853
0
LINE
8
BLACK
6
CONTINUOUS
10
5.0317476771653542
20
-4.6399598425196853
11
5.0354972047244093
21
-4.6362103149606302
0
LINE
8
BLACK
6
CONTINUOUS
10
5.0354972047244093
20
-4.6362103149606302
11
5.0429962598425195
21
-4.6324607874015751
0
LINE
8
BLACK
6
CONTINUOUS
10
5.0429962598425195
20
-4.6324607874015751
11
5.0542448818897636
21
-4.6324607874015751
0
LINE
8
BLACK
6
CONTINUOUS
10
5.0542448818897636
20
-4.6324607874015751
11
5.0617439370078738
21
-4.6362103149606302
0
LINE
8
BLACK
6
CONTINUOUS
10
5.0617439370078738
20
-4.6362103149606302
11
5.0654934645669289
21
-4.6399598425196853
0
LINE
8
BLACK
6
CONTINUOUS
10
5.0654934645669289
20
-4.6399598425196853
11
5.0692429921259841
21
-4.6474589370078743
0
LINE
8
BLACK
6
CONTINUOUS
10
5.0692429921259841
20
-4.6474589370078743
11
5.0692429921259841
21
-4.6699561023622049
0
LINE
8
BLACK
6
CONTINUOUS
10
5.0692429921259841
20
-4.6699561023622049
11
5.0654934645669289
21
-4.6774551574803152
0
LINE
8
BLACK
6
CONTINUOUS
10
5.0654934645669289
20
-4.6774551574803152
11
5.0617439370078738
21
-4.681204724409449
0
LINE
8
BLACK
6
CONTINUOUS
10
5.0617439370078738
20
-4.681204724409449
11
5.0542448818897636
21
-4.6849542519685041
0
LINE
8
BLACK
6
CONTINUOUS
10
5.0542448818897636
20
-4.6849542519685041
11
5.0429962598425195
21
-4.6849542519685041
0
LINE
8
BLACK
6
CONTINUOUS
10
5.1142373622047241
20
-4.6849542519685041
11
5.1067383070866139
21
-4.681204724409449
0
LINE
8
BLACK
6
CONTINUOUS
10
5.1067383070866139
20
-4.681204724409449
11
5.1029887795275588
21
-4.67370562992126
0
LINE
8
BLACK
6
CONTINUOUS
10
5.1029887795275588
20
-4.67370562992126
11
5.1029887795275588
21
-4.6062140944881893
0
LINE
8
BLACK
6
CONTINUOUS
10
5.1742298818897634
20
-4.681204724409449
11
5.1667308267716532
21
-4.6849542519685041
0
LINE
8
BLACK
6
CONTINUOUS
10
5.1667308267716532
20
-4.6849542519685041
11
5.151732677165354
21
-4.6849542519685041
0
LINE
8
BLACK
6
CONTINUOUS
10
5.151732677165354
20
-4.6849542519685041
11
5.1442336220472438
21
-4.681204724409449
0
LINE
8
BLACK
6
CONTINUOUS
10
5.1442336220472438
20
-4.681204724409449
11
5.1404840944881887
21
-4.67370562992126
0
LINE
8
BLACK
6
CONTINUOUS
10
5.1404840944881887
20
-4.67370562992126
11
5.1404840944881887
21
-4.6437094094488192
0
LINE
8
BLACK
6
CONTINUOUS
10
5.1404840944881887
20
-4.6437094094488192
11
5.1442336220472438
21
-4.6362103149606302
0
LINE
8
BLACK
6
CONTINUOUS
10
5.1442336220472438
20
-4.6362103149606302
11
5.151732677165354
21
-4.6324607874015751
0
LINE
8
BLACK
6
CONTINUOUS
10
5.151732677165354
20
-4.6324607874015751
11
5.1667308267716532
21
-4.6324607874015751
0
LINE
8
BLACK
6
CONTINUOUS
10
5.1667308267716532
20
-4.6324607874015751
11
5.1742298818897634
21
-4.6362103149606302
0
LINE
8
BLACK
6
CONTINUOUS
10
5.1742298818897634
20
-4.6362103149606302
11
5.1779794094488185
21
-4.6437094094488192
0
LINE
8
BLACK
6
CONTINUOUS
10
5.1779794094488185
20
-4.6437094094488192
11
5.1779794094488185
21
-4.6512084645669294
0
LINE
8
BLACK
6
CONTINUOUS
10
5.1779794094488185
20
-4.6512084645669294
11
5.1404840944881887
21
-4.6587075196850396
0
LINE
8
BLACK
6
CONTINUOUS
10
5.2079756692913381
20
-4.681204724409449
11
5.2154747244094484
21
-4.6849542519685041
0
LINE
8
BLACK
6
CONTINUOUS
10
5.2154747244094484
20
-4.6849542519685041
11
5.2304728346456688
21
-4.6849542519685041
0
LINE
8
BLACK
6
CONTINUOUS
10
5.2304728346456688
20
-4.6849542519685041
11
5.2379719291338578
21
-4.681204724409449
0
LINE
8
BLACK
6
CONTINUOUS
10
5.2379719291338578
20
-4.681204724409449
11
5.2417214566929129
21
-4.67370562992126
0
LINE
8
BLACK
6
CONTINUOUS
10
5.2417214566929129
20
-4.67370562992126
11
5.2417214566929129
21
-4.6699561023622049
0
LINE
8
BLACK
6
CONTINUOUS
10
5.2417214566929129
20
-4.6699561023622049
11
5.2379719291338578
21
-4.6624570472440947
0
LINE
8
BLACK
6
CONTINUOUS
10
5.2379719291338578
20
-4.6624570472440947
11
5.2304728346456688
21
-4.6587075196850396
0
LINE
8
BLACK
6
CONTINUOUS
10
5.2304728346456688
20
-4.6587075196850396
11
5.2192242519685035
21
-4.6587075196850396
0
LINE
8
BLACK
6
CONTINUOUS
10
5.2192242519685035
20
-4.6587075196850396
11
5.2117251968503933
21
-4.6549579921259845
0
LINE
8
BLACK
6
CONTINUOUS
10
5.2117251968503933
20
-4.6549579921259845
11
5.2079756692913381
21
-4.6474589370078743
0
LINE
8
BLACK
6
CONTINUOUS
10
5.2079756692913381
20
-4.6474589370078743
11
5.2079756692913381
21
-4.6437094094488192
0
LINE
8
BLACK
6
CONTINUOUS
10
5.2079756692913381
20
-4.6437094094488192
11
5.2117251968503933
21
-4.6362103149606302
0
LINE
8
BLACK
6
CONTINUOUS
10
5.2117251968503933
20
-4.6362103149606302
11
5.2192242519685035
21
-4.6324607874015751
0
LINE
8
BLACK
6
CONTINUOUS
10
5.2192242519685035
20
-4.6324607874015751
11
5.2304728346456688
21
-4.6324607874015751
0
LINE
8
BLACK
6
CONTINUOUS
10
5.2304728346456688
20
-4.6324607874015751
11
5.2379719291338578
21
-4.6362103149606302
0
LINE
8
BLACK
6
CONTINUOUS
10
5.2679681889763774
20
-4.714950472440945
11
5.2717177165354325
21
-4.7112009448818899
0
LINE
8
BLACK
6
CONTINUOUS
10
5.2717177165354325
20
-4.7112009448818899
11
5.2792167716535428
21
-4.6999523622047246
0
LINE
8
BLACK
6
CONTINUOUS
10
5.2792167716535428
20
-4.6999523622047246
11
5.2829662992125987
21
-4.6924533070866143
0
LINE
8
BLACK
6
CONTINUOUS
10
5.2829662992125987
20
-4.6924533070866143
11
5.2867158267716539
21
-4.681204724409449
0
LINE
8
BLACK
6
CONTINUOUS
10
5.2867158267716539
20
-4.681204724409449
11
5.290465354330709
21
-4.6624570472440947
0
LINE
8
BLACK
6
CONTINUOUS
10
5.290465354330709
20
-4.6624570472440947
11
5.290465354330709
21
-4.6474589370078743
0
LINE
8
BLACK
6
CONTINUOUS
10
5.290465354330709
20
-4.6474589370078743
11
5.2867158267716539
21
-4.62871125984252
0
LINE
8
BLACK
6
CONTINUOUS
10
5.2867158267716539
20
-4.62871125984252
11
5.2829662992125987
21
-4.6174626771653546
0
LINE
8
BLACK
6
CONTINUOUS
10
5.2829662992125987
20
-4.6174626771653546
11
5.2792167716535428
21
-4.6099636220472444
0
LINE
8
BLACK
6
CONTINUOUS
10
5.2792167716535428
20
-4.6099636220472444
11
5.2717177165354325
21
-4.5987150000000003
0
LINE
8
BLACK
6
CONTINUOUS
10
5.2717177165354325
20
-4.5987150000000003
11
5.2679681889763774
21
-4.5949654724409452
  0
ENDSEC
  0
EOF
