<?xml version="1.0" standalone="no"?>
 <!DOCTYPE svg PUBLIC "-//W3C//DTD SVG 1.1//EN" 
 "http://www.w3.org/Graphics/SVG/1.1/DTD/svg11.dtd"> 
<svg
  xmlns:svg="http://www.w3.org/2000/svg"
  xmlns="http://www.w3.org/2000/svg"
  xmlns:xlink="http://www.w3.org/1999/xlink"
  version="1.1"
  width="431.8000mm" height="279.4000mm" viewBox="0.0000 0.0000 431.8000 279.4000">
<title>SVG Image created as NX-ButtonInterface-F_Silkscreen.svg date 2025/01/15 16:22:29 </title>
  <desc>Image generated by PCBNEW </desc>
<g style="fill:#000000; fill-opacity:1.0000;stroke:#000000; stroke-opacity:1.0000;
stroke-linecap:round; stroke-linejoin:round;"
 transform="translate(0 0) scale(1 1)">
</g>
<g style="fill:none; 
stroke:#000000; stroke-width:0.1778; stroke-opacity:1; 
stroke-linecap:round; stroke-linejoin:round;">
<text x="98.8060" y="102.2350"
textLength="5.9037" font-size="1.6933" lengthAdjust="spacingAndGlyphs"
text-anchor="start" opacity="0" stroke-opacity="0">4 TXD</text>
<g class="stroked-text"><desc>4 TXD</desc>
<path d="M99.7696 101.3316
L99.7696 102.1783
" />
<path d="M99.4673 100.8478
L99.1649 101.7549
" />
<path d="M99.1649 101.7549
L99.9511 101.7549
" />
<path d="M101.2211 100.9083
L101.9468 100.9083
" />
<path d="M101.5839 102.1783
L101.5839 100.9083
" />
<path d="M102.2492 100.9083
L103.0958 102.1783
" />
<path d="M103.0958 100.9083
L102.2492 102.1783
" />
<path d="M103.5796 102.1783
L103.5796 100.9083
" />
<path d="M103.5796 100.9083
L103.8820 100.9083
" />
<path d="M103.8820 100.9083
L104.0634 100.9688
" />
<path d="M104.0634 100.9688
L104.1844 101.0897
" />
<path d="M104.1844 101.0897
L104.2449 101.2107
" />
<path d="M104.2449 101.2107
L104.3054 101.4526
" />
<path d="M104.3054 101.4526
L104.3054 101.6340
" />
<path d="M104.3054 101.6340
L104.2449 101.8759
" />
<path d="M104.2449 101.8759
L104.1844 101.9969
" />
<path d="M104.1844 101.9969
L104.0634 102.1178
" />
<path d="M104.0634 102.1178
L103.8820 102.1783
" />
<path d="M103.8820 102.1783
L103.5796 102.1783
" />
</g><text x="98.8060" y="108.5850"
textLength="5.0570" font-size="1.6933" lengthAdjust="spacingAndGlyphs"
text-anchor="start" opacity="0" stroke-opacity="0">8 NC</text>
<g class="stroked-text"><desc>8 NC</desc>
<path d="M99.4068 107.8026
L99.2858 107.7421
" />
<path d="M99.2858 107.7421
L99.2254 107.6816
" />
<path d="M99.2254 107.6816
L99.1649 107.5607
" />
<path d="M99.1649 107.5607
L99.1649 107.5002
" />
<path d="M99.1649 107.5002
L99.2254 107.3792
" />
<path d="M99.2254 107.3792
L99.2858 107.3188
" />
<path d="M99.2858 107.3188
L99.4068 107.2583
" />
<path d="M99.4068 107.2583
L99.6487 107.2583
" />
<path d="M99.6487 107.2583
L99.7696 107.3188
" />
<path d="M99.7696 107.3188
L99.8301 107.3792
" />
<path d="M99.8301 107.3792
L99.8906 107.5002
" />
<path d="M99.8906 107.5002
L99.8906 107.5607
" />
<path d="M99.8906 107.5607
L99.8301 107.6816
" />
<path d="M99.8301 107.6816
L99.7696 107.7421
" />
<path d="M99.7696 107.7421
L99.6487 107.8026
" />
<path d="M99.6487 107.8026
L99.4068 107.8026
" />
<path d="M99.4068 107.8026
L99.2858 107.8630
" />
<path d="M99.2858 107.8630
L99.2254 107.9235
" />
<path d="M99.2254 107.9235
L99.1649 108.0445
" />
<path d="M99.1649 108.0445
L99.1649 108.2864
" />
<path d="M99.1649 108.2864
L99.2254 108.4073
" />
<path d="M99.2254 108.4073
L99.2858 108.4678
" />
<path d="M99.2858 108.4678
L99.4068 108.5283
" />
<path d="M99.4068 108.5283
L99.6487 108.5283
" />
<path d="M99.6487 108.5283
L99.7696 108.4678
" />
<path d="M99.7696 108.4678
L99.8301 108.4073
" />
<path d="M99.8301 108.4073
L99.8906 108.2864
" />
<path d="M99.8906 108.2864
L99.8906 108.0445
" />
<path d="M99.8906 108.0445
L99.8301 107.9235
" />
<path d="M99.8301 107.9235
L99.7696 107.8630
" />
<path d="M99.7696 107.8630
L99.6487 107.8026
" />
<path d="M101.4025 108.5283
L101.4025 107.2583
" />
<path d="M101.4025 107.2583
L102.1282 108.5283
" />
<path d="M102.1282 108.5283
L102.1282 107.2583
" />
<path d="M103.4587 108.4073
L103.3982 108.4678
" />
<path d="M103.3982 108.4678
L103.2168 108.5283
" />
<path d="M103.2168 108.5283
L103.0958 108.5283
" />
<path d="M103.0958 108.5283
L102.9144 108.4678
" />
<path d="M102.9144 108.4678
L102.7934 108.3469
" />
<path d="M102.7934 108.3469
L102.7330 108.2259
" />
<path d="M102.7330 108.2259
L102.6725 107.9840
" />
<path d="M102.6725 107.9840
L102.6725 107.8026
" />
<path d="M102.6725 107.8026
L102.7330 107.5607
" />
<path d="M102.7330 107.5607
L102.7934 107.4397
" />
<path d="M102.7934 107.4397
L102.9144 107.3188
" />
<path d="M102.9144 107.3188
L103.0958 107.2583
" />
<path d="M103.0958 107.2583
L103.2168 107.2583
" />
<path d="M103.2168 107.2583
L103.3982 107.3188
" />
<path d="M103.3982 107.3188
L103.4587 107.3792
" />
</g><text x="98.8060" y="99.1362"
textLength="6.0246" font-size="1.6933" lengthAdjust="spacingAndGlyphs"
text-anchor="start" opacity="0" stroke-opacity="0">2 RTN</text>
<g class="stroked-text"><desc>2 RTN</desc>
<path d="M99.1649 97.9304
L99.2254 97.8700
" />
<path d="M99.2254 97.8700
L99.3463 97.8095
" />
<path d="M99.3463 97.8095
L99.6487 97.8095
" />
<path d="M99.6487 97.8095
L99.7696 97.8700
" />
<path d="M99.7696 97.8700
L99.8301 97.9304
" />
<path d="M99.8301 97.9304
L99.8906 98.0514
" />
<path d="M99.8906 98.0514
L99.8906 98.1723
" />
<path d="M99.8906 98.1723
L99.8301 98.3538
" />
<path d="M99.8301 98.3538
L99.1044 99.0795
" />
<path d="M99.1044 99.0795
L99.8906 99.0795
" />
<path d="M102.1282 99.0795
L101.7049 98.4747
" />
<path d="M101.4025 99.0795
L101.4025 97.8095
" />
<path d="M101.4025 97.8095
L101.8863 97.8095
" />
<path d="M101.8863 97.8095
L102.0073 97.8700
" />
<path d="M102.0073 97.8700
L102.0677 97.9304
" />
<path d="M102.0677 97.9304
L102.1282 98.0514
" />
<path d="M102.1282 98.0514
L102.1282 98.2328
" />
<path d="M102.1282 98.2328
L102.0677 98.3538
" />
<path d="M102.0677 98.3538
L102.0073 98.4142
" />
<path d="M102.0073 98.4142
L101.8863 98.4747
" />
<path d="M101.8863 98.4747
L101.4025 98.4747
" />
<path d="M102.4911 97.8095
L103.2168 97.8095
" />
<path d="M102.8539 99.0795
L102.8539 97.8095
" />
<path d="M103.6401 99.0795
L103.6401 97.8095
" />
<path d="M103.6401 97.8095
L104.3658 99.0795
" />
<path d="M104.3658 99.0795
L104.3658 97.8095
" />
</g><text x="98.8060" y="105.2830"
textLength="5.0570" font-size="1.6933" lengthAdjust="spacingAndGlyphs"
text-anchor="start" opacity="0" stroke-opacity="0">6 NC</text>
<g class="stroked-text"><desc>6 NC</desc>
<path d="M99.7696 103.9563
L99.5277 103.9563
" />
<path d="M99.5277 103.9563
L99.4068 104.0168
" />
<path d="M99.4068 104.0168
L99.3463 104.0772
" />
<path d="M99.3463 104.0772
L99.2254 104.2587
" />
<path d="M99.2254 104.2587
L99.1649 104.5006
" />
<path d="M99.1649 104.5006
L99.1649 104.9844
" />
<path d="M99.1649 104.9844
L99.2254 105.1053
" />
<path d="M99.2254 105.1053
L99.2858 105.1658
" />
<path d="M99.2858 105.1658
L99.4068 105.2263
" />
<path d="M99.4068 105.2263
L99.6487 105.2263
" />
<path d="M99.6487 105.2263
L99.7696 105.1658
" />
<path d="M99.7696 105.1658
L99.8301 105.1053
" />
<path d="M99.8301 105.1053
L99.8906 104.9844
" />
<path d="M99.8906 104.9844
L99.8906 104.6820
" />
<path d="M99.8906 104.6820
L99.8301 104.5610
" />
<path d="M99.8301 104.5610
L99.7696 104.5006
" />
<path d="M99.7696 104.5006
L99.6487 104.4401
" />
<path d="M99.6487 104.4401
L99.4068 104.4401
" />
<path d="M99.4068 104.4401
L99.2858 104.5006
" />
<path d="M99.2858 104.5006
L99.2254 104.5610
" />
<path d="M99.2254 104.5610
L99.1649 104.6820
" />
<path d="M101.4025 105.2263
L101.4025 103.9563
" />
<path d="M101.4025 103.9563
L102.1282 105.2263
" />
<path d="M102.1282 105.2263
L102.1282 103.9563
" />
<path d="M103.4587 105.1053
L103.3982 105.1658
" />
<path d="M103.3982 105.1658
L103.2168 105.2263
" />
<path d="M103.2168 105.2263
L103.0958 105.2263
" />
<path d="M103.0958 105.2263
L102.9144 105.1658
" />
<path d="M102.9144 105.1658
L102.7934 105.0449
" />
<path d="M102.7934 105.0449
L102.7330 104.9239
" />
<path d="M102.7330 104.9239
L102.6725 104.6820
" />
<path d="M102.6725 104.6820
L102.6725 104.5006
" />
<path d="M102.6725 104.5006
L102.7330 104.2587
" />
<path d="M102.7330 104.2587
L102.7934 104.1377
" />
<path d="M102.7934 104.1377
L102.9144 104.0168
" />
<path d="M102.9144 104.0168
L103.0958 103.9563
" />
<path d="M103.0958 103.9563
L103.2168 103.9563
" />
<path d="M103.2168 103.9563
L103.3982 104.0168
" />
<path d="M103.3982 104.0168
L103.4587 104.0772
" />
</g></g>
<g style="fill:none; 
stroke:#000000; stroke-width:0.1500; stroke-opacity:1; 
stroke-linecap:round; stroke-linejoin:round;">
<text x="108.5000" y="95.8770"
textLength="16.1548" font-size="1.3333" lengthAdjust="spacingAndGlyphs"
text-anchor="middle" opacity="0" stroke-opacity="0">NX CONTROL &amp; UART</text>
<g class="stroked-text"><desc>NX CONTROL &amp; UART</desc>
<path d="M100.7857 95.8318
L100.7857 94.8318
" />
<path d="M100.7857 94.8318
L101.3571 95.8318
" />
<path d="M101.3571 95.8318
L101.3571 94.8318
" />
<path d="M101.7381 94.8318
L102.4048 95.8318
" />
<path d="M102.4048 94.8318
L101.7381 95.8318
" />
<path d="M104.1190 95.7366
L104.0714 95.7842
" />
<path d="M104.0714 95.7842
L103.9286 95.8318
" />
<path d="M103.9286 95.8318
L103.8333 95.8318
" />
<path d="M103.8333 95.8318
L103.6905 95.7842
" />
<path d="M103.6905 95.7842
L103.5952 95.6890
" />
<path d="M103.5952 95.6890
L103.5476 95.5937
" />
<path d="M103.5476 95.5937
L103.5000 95.4032
" />
<path d="M103.5000 95.4032
L103.5000 95.2604
" />
<path d="M103.5000 95.2604
L103.5476 95.0699
" />
<path d="M103.5476 95.0699
L103.5952 94.9747
" />
<path d="M103.5952 94.9747
L103.6905 94.8794
" />
<path d="M103.6905 94.8794
L103.8333 94.8318
" />
<path d="M103.8333 94.8318
L103.9286 94.8318
" />
<path d="M103.9286 94.8318
L104.0714 94.8794
" />
<path d="M104.0714 94.8794
L104.1190 94.9271
" />
<path d="M104.7381 94.8318
L104.9286 94.8318
" />
<path d="M104.9286 94.8318
L105.0238 94.8794
" />
<path d="M105.0238 94.8794
L105.1190 94.9747
" />
<path d="M105.1190 94.9747
L105.1667 95.1652
" />
<path d="M105.1667 95.1652
L105.1667 95.4985
" />
<path d="M105.1667 95.4985
L105.1190 95.6890
" />
<path d="M105.1190 95.6890
L105.0238 95.7842
" />
<path d="M105.0238 95.7842
L104.9286 95.8318
" />
<path d="M104.9286 95.8318
L104.7381 95.8318
" />
<path d="M104.7381 95.8318
L104.6429 95.7842
" />
<path d="M104.6429 95.7842
L104.5476 95.6890
" />
<path d="M104.5476 95.6890
L104.5000 95.4985
" />
<path d="M104.5000 95.4985
L104.5000 95.1652
" />
<path d="M104.5000 95.1652
L104.5476 94.9747
" />
<path d="M104.5476 94.9747
L104.6429 94.8794
" />
<path d="M104.6429 94.8794
L104.7381 94.8318
" />
<path d="M105.5952 95.8318
L105.5952 94.8318
" />
<path d="M105.5952 94.8318
L106.1667 95.8318
" />
<path d="M106.1667 95.8318
L106.1667 94.8318
" />
<path d="M106.5000 94.8318
L107.0714 94.8318
" />
<path d="M106.7857 95.8318
L106.7857 94.8318
" />
<path d="M107.9762 95.8318
L107.6429 95.3556
" />
<path d="M107.4048 95.8318
L107.4048 94.8318
" />
<path d="M107.4048 94.8318
L107.7857 94.8318
" />
<path d="M107.7857 94.8318
L107.8810 94.8794
" />
<path d="M107.8810 94.8794
L107.9286 94.9271
" />
<path d="M107.9286 94.9271
L107.9762 95.0223
" />
<path d="M107.9762 95.0223
L107.9762 95.1652
" />
<path d="M107.9762 95.1652
L107.9286 95.2604
" />
<path d="M107.9286 95.2604
L107.8810 95.3080
" />
<path d="M107.8810 95.3080
L107.7857 95.3556
" />
<path d="M107.7857 95.3556
L107.4048 95.3556
" />
<path d="M108.5952 94.8318
L108.7857 94.8318
" />
<path d="M108.7857 94.8318
L108.8810 94.8794
" />
<path d="M108.8810 94.8794
L108.9762 94.9747
" />
<path d="M108.9762 94.9747
L109.0238 95.1652
" />
<path d="M109.0238 95.1652
L109.0238 95.4985
" />
<path d="M109.0238 95.4985
L108.9762 95.6890
" />
<path d="M108.9762 95.6890
L108.8810 95.7842
" />
<path d="M108.8810 95.7842
L108.7857 95.8318
" />
<path d="M108.7857 95.8318
L108.5952 95.8318
" />
<path d="M108.5952 95.8318
L108.5000 95.7842
" />
<path d="M108.5000 95.7842
L108.4048 95.6890
" />
<path d="M108.4048 95.6890
L108.3571 95.4985
" />
<path d="M108.3571 95.4985
L108.3571 95.1652
" />
<path d="M108.3571 95.1652
L108.4048 94.9747
" />
<path d="M108.4048 94.9747
L108.5000 94.8794
" />
<path d="M108.5000 94.8794
L108.5952 94.8318
" />
<path d="M109.9286 95.8318
L109.4524 95.8318
" />
<path d="M109.4524 95.8318
L109.4524 94.8318
" />
<path d="M111.8333 95.8318
L111.7857 95.8318
" />
<path d="M111.7857 95.8318
L111.6905 95.7842
" />
<path d="M111.6905 95.7842
L111.5476 95.6413
" />
<path d="M111.5476 95.6413
L111.3095 95.3556
" />
<path d="M111.3095 95.3556
L111.2143 95.2128
" />
<path d="M111.2143 95.2128
L111.1667 95.0699
" />
<path d="M111.1667 95.0699
L111.1667 94.9747
" />
<path d="M111.1667 94.9747
L111.2143 94.8794
" />
<path d="M111.2143 94.8794
L111.3095 94.8318
" />
<path d="M111.3095 94.8318
L111.3571 94.8318
" />
<path d="M111.3571 94.8318
L111.4524 94.8794
" />
<path d="M111.4524 94.8794
L111.5000 94.9747
" />
<path d="M111.5000 94.9747
L111.5000 95.0223
" />
<path d="M111.5000 95.0223
L111.4524 95.1175
" />
<path d="M111.4524 95.1175
L111.4048 95.1652
" />
<path d="M111.4048 95.1652
L111.1190 95.3556
" />
<path d="M111.1190 95.3556
L111.0714 95.4032
" />
<path d="M111.0714 95.4032
L111.0238 95.4985
" />
<path d="M111.0238 95.4985
L111.0238 95.6413
" />
<path d="M111.0238 95.6413
L111.0714 95.7366
" />
<path d="M111.0714 95.7366
L111.1190 95.7842
" />
<path d="M111.1190 95.7842
L111.2143 95.8318
" />
<path d="M111.2143 95.8318
L111.3571 95.8318
" />
<path d="M111.3571 95.8318
L111.4524 95.7842
" />
<path d="M111.4524 95.7842
L111.5000 95.7366
" />
<path d="M111.5000 95.7366
L111.6429 95.5461
" />
<path d="M111.6429 95.5461
L111.6905 95.4032
" />
<path d="M111.6905 95.4032
L111.6905 95.3080
" />
<path d="M113.0238 94.8318
L113.0238 95.6413
" />
<path d="M113.0238 95.6413
L113.0714 95.7366
" />
<path d="M113.0714 95.7366
L113.1190 95.7842
" />
<path d="M113.1190 95.7842
L113.2143 95.8318
" />
<path d="M113.2143 95.8318
L113.4048 95.8318
" />
<path d="M113.4048 95.8318
L113.5000 95.7842
" />
<path d="M113.5000 95.7842
L113.5476 95.7366
" />
<path d="M113.5476 95.7366
L113.5952 95.6413
" />
<path d="M113.5952 95.6413
L113.5952 94.8318
" />
<path d="M114.0238 95.5461
L114.5000 95.5461
" />
<path d="M113.9286 95.8318
L114.2619 94.8318
" />
<path d="M114.2619 94.8318
L114.5952 95.8318
" />
<path d="M115.5000 95.8318
L115.1667 95.3556
" />
<path d="M114.9286 95.8318
L114.9286 94.8318
" />
<path d="M114.9286 94.8318
L115.3095 94.8318
" />
<path d="M115.3095 94.8318
L115.4048 94.8794
" />
<path d="M115.4048 94.8794
L115.4524 94.9271
" />
<path d="M115.4524 94.9271
L115.5000 95.0223
" />
<path d="M115.5000 95.0223
L115.5000 95.1652
" />
<path d="M115.5000 95.1652
L115.4524 95.2604
" />
<path d="M115.4524 95.2604
L115.4048 95.3080
" />
<path d="M115.4048 95.3080
L115.3095 95.3556
" />
<path d="M115.3095 95.3556
L114.9286 95.3556
" />
<path d="M115.7857 94.8318
L116.3571 94.8318
" />
<path d="M116.0714 95.8318
L116.0714 94.8318
" />
</g></g>
<g style="fill:none; 
stroke:#000000; stroke-width:0.1200; stroke-opacity:1; 
stroke-linecap:round; stroke-linejoin:round;">
<path d="M85.4110 91.6340
L85.4110 94.2940
" />
<path d="M128.6510 91.6340
L85.4110 91.6340
" />
<path d="M128.6510 91.6340
L128.6510 94.2940
" />
<path d="M128.6510 94.2940
L85.4110 94.2940
" />
<path d="M131.2510 92.9640
L131.2510 94.2940
" />
<path d="M131.2510 94.2940
L129.9210 94.2940
" />
</g>
<g style="fill:#000000; fill-opacity:1.0000; stroke:none;">
<circle cx="129.9210" cy="92.9640" r="0.5000" /> 
</g>
<g style="fill:#000000; fill-opacity:1.0000; stroke:none;">
<circle cx="127.3810" cy="92.9640" r="0.5000" /> 
</g>
<g style="fill:#000000; fill-opacity:1.0000; stroke:none;">
<circle cx="124.8410" cy="92.9640" r="0.5000" /> 
</g>
<g style="fill:#000000; fill-opacity:1.0000; stroke:none;">
<circle cx="122.3010" cy="92.9640" r="0.5000" /> 
</g>
<g style="fill:#000000; fill-opacity:1.0000; stroke:none;">
<circle cx="119.7610" cy="92.9640" r="0.5000" /> 
</g>
<g style="fill:#000000; fill-opacity:1.0000; stroke:none;">
<circle cx="117.2210" cy="92.9640" r="0.5000" /> 
</g>
<g style="fill:#000000; fill-opacity:1.0000; stroke:none;">
<circle cx="114.6810" cy="92.9640" r="0.5000" /> 
</g>
<g style="fill:#000000; fill-opacity:1.0000; stroke:none;">
<circle cx="112.1410" cy="92.9640" r="0.5000" /> 
</g>
<g style="fill:#000000; fill-opacity:1.0000; stroke:none;">
<circle cx="109.6010" cy="92.9640" r="0.5000" /> 
</g>
<g style="fill:#000000; fill-opacity:1.0000; stroke:none;">
<circle cx="107.0610" cy="92.9640" r="0.5000" /> 
</g>
<g style="fill:#000000; fill-opacity:1.0000; stroke:none;">
<circle cx="104.5210" cy="92.9640" r="0.5000" /> 
</g>
<g style="fill:#000000; fill-opacity:1.0000; stroke:none;">
<circle cx="101.9810" cy="92.9640" r="0.5000" /> 
</g>
<g style="fill:#000000; fill-opacity:1.0000; stroke:none;">
<circle cx="99.4410" cy="92.9640" r="0.5000" /> 
</g>
<g style="fill:#000000; fill-opacity:1.0000; stroke:none;">
<circle cx="96.9010" cy="92.9640" r="0.5000" /> 
</g>
<g style="fill:#000000; fill-opacity:1.0000; stroke:none;">
<circle cx="94.3610" cy="92.9640" r="0.5000" /> 
</g>
<g style="fill:#000000; fill-opacity:1.0000; stroke:none;">
<circle cx="91.8210" cy="92.9640" r="0.5000" /> 
</g>
<g style="fill:#000000; fill-opacity:1.0000; stroke:none;">
<circle cx="89.2810" cy="92.9640" r="0.5000" /> 
</g>
<g style="fill:#000000; fill-opacity:1.0000; stroke:none;">
<circle cx="86.7410" cy="92.9640" r="0.5000" /> 
<path style="fill:#000000; fill-opacity:1.0000; stroke:none;fill-rule:evenodd;"
d="M 129.0710,92.1140
130.7710,92.1140
130.7710,93.8140
129.0710,93.8140
Z" /> 
</g>
<g style="fill:#000000; fill-opacity:1.0000; stroke:none;">
<circle cx="127.3810" cy="92.9640" r="0.8500" /> 
<circle cx="124.8410" cy="92.9640" r="0.8500" /> 
<circle cx="122.3010" cy="92.9640" r="0.8500" /> 
<circle cx="119.7610" cy="92.9640" r="0.8500" /> 
<circle cx="117.2210" cy="92.9640" r="0.8500" /> 
<circle cx="114.6810" cy="92.9640" r="0.8500" /> 
<circle cx="112.1410" cy="92.9640" r="0.8500" /> 
<circle cx="109.6010" cy="92.9640" r="0.8500" /> 
<circle cx="107.0610" cy="92.9640" r="0.8500" /> 
<circle cx="104.5210" cy="92.9640" r="0.8500" /> 
<circle cx="101.9810" cy="92.9640" r="0.8500" /> 
<circle cx="99.4410" cy="92.9640" r="0.8500" /> 
<circle cx="96.9010" cy="92.9640" r="0.8500" /> 
<circle cx="94.3610" cy="92.9640" r="0.8500" /> 
<circle cx="91.8210" cy="92.9640" r="0.8500" /> 
<circle cx="89.2810" cy="92.9640" r="0.8500" /> 
<circle cx="86.7410" cy="92.9640" r="0.8500" /> 
<path style="fill:#000000; fill-opacity:1.0000; stroke:none;fill-rule:evenodd;"
d="M 97.5487,108.5596
97.5292,108.7075
97.4721,108.8453
97.3813,108.9637
97.2629,109.0545
97.1251,109.1116
96.9772,109.1311
85.4202,109.1311
85.2723,109.1116
85.1345,109.0545
85.0161,108.9637
84.9253,108.8453
84.8682,108.7075
84.8487,108.5596
84.8487,107.4166
84.8682,107.2687
84.9253,107.1308
85.0161,107.0125
85.1345,106.9217
85.2723,106.8646
85.4202,106.8451
96.9772,106.8451
97.1251,106.8646
97.2629,106.9217
97.3813,107.0125
97.4721,107.1308
97.5292,107.2687
97.5487,107.4166
Z" /> 
<path style="fill:#000000; fill-opacity:1.0000; stroke:none;fill-rule:evenodd;"
d="M 97.5487,105.3846
97.5292,105.5325
97.4721,105.6703
97.3813,105.7887
97.2629,105.8795
97.1251,105.9366
96.9772,105.9561
85.4202,105.9561
85.2723,105.9366
85.1345,105.8795
85.0161,105.7887
84.9253,105.6703
84.8682,105.5325
84.8487,105.3846
84.8487,104.2416
84.8682,104.0937
84.9253,103.9558
85.0161,103.8375
85.1345,103.7467
85.2723,103.6896
85.4202,103.6701
96.9772,103.6701
97.1251,103.6896
97.2629,103.7467
97.3813,103.8375
97.4721,103.9558
97.5292,104.0937
97.5487,104.2416
Z" /> 
<path style="fill:#000000; fill-opacity:1.0000; stroke:none;fill-rule:evenodd;"
d="M 97.5487,102.2096
97.5292,102.3575
97.4721,102.4954
97.3813,102.6137
97.2629,102.7045
97.1251,102.7616
96.9772,102.7811
85.4202,102.7811
85.2723,102.7616
85.1345,102.7045
85.0161,102.6137
84.9253,102.4954
84.8682,102.3575
84.8487,102.2096
84.8487,101.0666
84.8682,100.9187
84.9253,100.7809
85.0161,100.6625
85.1345,100.5717
85.2723,100.5146
85.4202,100.4951
96.9772,100.4951
97.1251,100.5146
97.2629,100.5717
97.3813,100.6625
97.4721,100.7809
97.5292,100.9187
97.5487,101.0666
Z" /> 
<path style="fill:#000000; fill-opacity:1.0000; stroke:none;fill-rule:evenodd;"
d="M 97.5487,99.0346
97.5292,99.1825
97.4721,99.3203
97.3813,99.4387
97.2629,99.5295
97.1251,99.5866
96.9772,99.6061
85.4202,99.6061
85.2723,99.5866
85.1345,99.5295
85.0161,99.4387
84.9253,99.3203
84.8682,99.1825
84.8487,99.0346
84.8487,97.8916
84.8682,97.7437
84.9253,97.6058
85.0161,97.4875
85.1345,97.3967
85.2723,97.3396
85.4202,97.3201
96.9772,97.3201
97.1251,97.3396
97.2629,97.3967
97.3813,97.4875
97.4721,97.6058
97.5292,97.7437
97.5487,97.8916
Z" /> 
</g>
<g style="fill:none; 
stroke:#000000; stroke-width:0.1000; stroke-opacity:1; 
stroke-linecap:round; stroke-linejoin:round;">
<path d="M132.4610 91.6940
L132.4610 110.3630
" />
<path d="M84.2010 110.3630 A1.2700 1.2700 0.0 0 0 85.4710 111.6330" />
<path d="M85.4710 90.4240
L131.1910 90.4240
" />
<path d="M132.4610 91.6940 A1.2700 1.2700 0.0 0 0 131.1910 90.4240" />
<path d="M131.1910 111.6330 A1.2700 1.2700 0.0 0 0 132.4610 110.3630" />
<path d="M85.4710 90.4240 A1.2700 1.2700 0.0 0 0 84.2010 91.6940" />
<path d="M84.2010 110.3630
L84.2010 91.6940
" />
<path d="M131.1910 111.6330
L85.4710 111.6330
" />
</g>
<g style="fill:#000000; fill-opacity:1.0000; stroke:none;">
<circle cx="129.9210" cy="92.9640" r="0.5000" /> 
</g>
<g style="fill:#000000; fill-opacity:1.0000; stroke:none;">
<circle cx="127.3810" cy="92.9640" r="0.5000" /> 
</g>
<g style="fill:#000000; fill-opacity:1.0000; stroke:none;">
<circle cx="124.8410" cy="92.9640" r="0.5000" /> 
</g>
<g style="fill:#000000; fill-opacity:1.0000; stroke:none;">
<circle cx="122.3010" cy="92.9640" r="0.5000" /> 
</g>
<g style="fill:#000000; fill-opacity:1.0000; stroke:none;">
<circle cx="119.7610" cy="92.9640" r="0.5000" /> 
</g>
<g style="fill:#000000; fill-opacity:1.0000; stroke:none;">
<circle cx="117.2210" cy="92.9640" r="0.5000" /> 
</g>
<g style="fill:#000000; fill-opacity:1.0000; stroke:none;">
<circle cx="114.6810" cy="92.9640" r="0.5000" /> 
</g>
<g style="fill:#000000; fill-opacity:1.0000; stroke:none;">
<circle cx="112.1410" cy="92.9640" r="0.5000" /> 
</g>
<g style="fill:#000000; fill-opacity:1.0000; stroke:none;">
<circle cx="109.6010" cy="92.9640" r="0.5000" /> 
</g>
<g style="fill:#000000; fill-opacity:1.0000; stroke:none;">
<circle cx="107.0610" cy="92.9640" r="0.5000" /> 
</g>
<g style="fill:#000000; fill-opacity:1.0000; stroke:none;">
<circle cx="104.5210" cy="92.9640" r="0.5000" /> 
</g>
<g style="fill:#000000; fill-opacity:1.0000; stroke:none;">
<circle cx="101.9810" cy="92.9640" r="0.5000" /> 
</g>
<g style="fill:#000000; fill-opacity:1.0000; stroke:none;">
<circle cx="99.4410" cy="92.9640" r="0.5000" /> 
</g>
<g style="fill:#000000; fill-opacity:1.0000; stroke:none;">
<circle cx="96.9010" cy="92.9640" r="0.5000" /> 
</g>
<g style="fill:#000000; fill-opacity:1.0000; stroke:none;">
<circle cx="94.3610" cy="92.9640" r="0.5000" /> 
</g>
<g style="fill:#000000; fill-opacity:1.0000; stroke:none;">
<circle cx="91.8210" cy="92.9640" r="0.5000" /> 
</g>
<g style="fill:#000000; fill-opacity:1.0000; stroke:none;">
<circle cx="89.2810" cy="92.9640" r="0.5000" /> 
</g>
<g style="fill:#000000; fill-opacity:1.0000; stroke:none;">
<circle cx="86.7410" cy="92.9640" r="0.5000" /> 
</g> 
</svg>
